<?xml version="1.0" encoding="UTF-8" standalone="no"?>
<!DOCTYPE svg PUBLIC "-//W3C//DTD SVG 1.1//EN"
 "http://www.w3.org/Graphics/SVG/1.1/DTD/svg11.dtd">
<!-- Generated by graphviz version 2.40.1 (20161225.0304)
 -->
<!-- Title: src/services/AudioMixer.hxx Pages: 1 -->
<svg width="1287pt" height="308pt"
 viewBox="0.00 0.00 1287.00 308.00" xmlns="http://www.w3.org/2000/svg" xmlns:xlink="http://www.w3.org/1999/xlink">
<g id="graph0" class="graph" transform="scale(1 1) rotate(0) translate(4 304)">
<title>src/services/AudioMixer.hxx</title>
<!-- Node0 -->
<g id="node1" class="node">
<title>Node0</title>
<polygon fill="#bfbfbf" stroke="#000000" points="553,-280.5 553,-299.5 705,-299.5 705,-280.5 553,-280.5"/>
<text text-anchor="middle" x="629" y="-287.5" font-family="Helvetica,sans-Serif" font-size="10.00" fill="#000000">src/services/AudioMixer.hxx</text>
</g>
<!-- Node1 -->
<g id="node2" class="node">
<title>Node1</title>
<polygon fill="none" stroke="#bfbfbf" points="0,-224.5 0,-243.5 42,-243.5 42,-224.5 0,-224.5"/>
<text text-anchor="middle" x="21" y="-231.5" font-family="Helvetica,sans-Serif" font-size="10.00" fill="#000000">array</text>
</g>
<!-- Node0&#45;&gt;Node1 -->
<g id="edge1" class="edge">
<title>Node0&#45;&gt;Node1</title>
<path fill="none" stroke="#191970" d="M552.7721,-286.2311C422.6251,-279.4253 161.8006,-264.0778 52.2519,-243.7338"/>
<polygon fill="#191970" stroke="#191970" points="52.6187,-240.2392 42.1321,-241.7496 51.2718,-247.1084 52.6187,-240.2392"/>
</g>
<!-- Node2 -->
<g id="node3" class="node">
<title>Node2</title>
<polygon fill="none" stroke="#bfbfbf" points="60.5,-224.5 60.5,-243.5 153.5,-243.5 153.5,-224.5 60.5,-224.5"/>
<text text-anchor="middle" x="107" y="-231.5" font-family="Helvetica,sans-Serif" font-size="10.00" fill="#000000">unordered_map</text>
</g>
<!-- Node0&#45;&gt;Node2 -->
<g id="edge2" class="edge">
<title>Node0&#45;&gt;Node2</title>
<path fill="none" stroke="#191970" d="M552.9661,-283.8919C461.4392,-276.1979 303.1649,-261.8047 168,-244 166.537,-243.8073 165.0553,-243.6064 163.5609,-243.3989"/>
<polygon fill="#191970" stroke="#191970" points="163.9817,-239.9233 153.5819,-241.9466 162.9736,-246.8503 163.9817,-239.9233"/>
</g>
<!-- Node3 -->
<g id="node4" class="node">
<title>Node3</title>
<polygon fill="none" stroke="#bfbfbf" points="699.5,-112.5 699.5,-131.5 746.5,-131.5 746.5,-112.5 699.5,-112.5"/>
<text text-anchor="middle" x="723" y="-119.5" font-family="Helvetica,sans-Serif" font-size="10.00" fill="#000000">vector</text>
</g>
<!-- Node0&#45;&gt;Node3 -->
<g id="edge3" class="edge">
<title>Node0&#45;&gt;Node3</title>
<path fill="none" stroke="#191970" d="M627.9468,-280.4916C626.0244,-258.6181 624.1159,-203.8603 648,-168 658.0973,-152.8396 675.0617,-141.8218 690.3045,-134.3767"/>
<polygon fill="#191970" stroke="#191970" points="691.8414,-137.5228 699.4961,-130.1978 688.9442,-131.1505 691.8414,-137.5228"/>
</g>
<!-- Node4 -->
<g id="node5" class="node">
<title>Node4</title>
<polygon fill="none" stroke="#bfbfbf" points="191,-.5 191,-19.5 249,-19.5 249,-.5 191,-.5"/>
<text text-anchor="middle" x="220" y="-7.5" font-family="Helvetica,sans-Serif" font-size="10.00" fill="#000000">memory</text>
</g>
<!-- Node0&#45;&gt;Node4 -->
<g id="edge4" class="edge">
<title>Node0&#45;&gt;Node4</title>
<path fill="none" stroke="#191970" d="M552.9194,-286.5206C425.3193,-278.5869 182,-253.5529 182,-178 182,-178 182,-178 182,-122 182,-87.6118 198.2634,-50.2832 209.511,-28.5791"/>
<polygon fill="#191970" stroke="#191970" points="212.7317,-29.9804 214.393,-19.5166 206.569,-26.6605 212.7317,-29.9804"/>
</g>
<!-- Node5 -->
<g id="node6" class="node">
<title>Node5</title>
<polygon fill="none" stroke="#bfbfbf" points="1181,-224.5 1181,-243.5 1213,-243.5 1213,-224.5 1181,-224.5"/>
<text text-anchor="middle" x="1197" y="-231.5" font-family="Helvetica,sans-Serif" font-size="10.00" fill="#000000">list</text>
</g>
<!-- Node0&#45;&gt;Node5 -->
<g id="edge5" class="edge">
<title>Node0&#45;&gt;Node5</title>
<path fill="none" stroke="#191970" d="M705.2041,-285.7125C832.0015,-278.2043 1080.8719,-261.7751 1167,-244 1168.445,-243.7018 1169.9172,-243.356 1171.3951,-242.9758"/>
<polygon fill="#191970" stroke="#191970" points="1172.4176,-246.3233 1180.9994,-240.1101 1170.4161,-239.6155 1172.4176,-246.3233"/>
</g>
<!-- Node6 -->
<g id="node7" class="node">
<title>Node6</title>
<g id="a_node7"><a xlink:href="Soundtrack_8hxx.html" target="_top" xlink:title="audio/Soundtrack.hxx">
<polygon fill="none" stroke="#000000" points="213,-112.5 213,-131.5 335,-131.5 335,-112.5 213,-112.5"/>
<text text-anchor="middle" x="274" y="-119.5" font-family="Helvetica,sans-Serif" font-size="10.00" fill="#000000">audio/Soundtrack.hxx</text>
</a>
</g>
</g>
<!-- Node0&#45;&gt;Node6 -->
<g id="edge6" class="edge">
<title>Node0&#45;&gt;Node6</title>
<path fill="none" stroke="#191970" d="M608.8965,-280.4862C549.3596,-252.311 373.7356,-169.1988 303.5097,-135.9651"/>
<polygon fill="#191970" stroke="#191970" points="304.8591,-132.7317 294.323,-131.6177 301.8648,-139.0589 304.8591,-132.7317"/>
</g>
<!-- Node9 -->
<g id="node10" class="node">
<title>Node9</title>
<g id="a_node10"><a xlink:href="Meta_8hxx.html" target="_top" xlink:title="../../util/Meta.hxx">
<polygon fill="none" stroke="#000000" points="666,-56.5 666,-75.5 764,-75.5 764,-56.5 666,-56.5"/>
<text text-anchor="middle" x="715" y="-63.5" font-family="Helvetica,sans-Serif" font-size="10.00" fill="#000000">../../util/Meta.hxx</text>
</a>
</g>
</g>
<!-- Node0&#45;&gt;Node9 -->
<g id="edge37" class="edge">
<title>Node0&#45;&gt;Node9</title>
<path fill="none" stroke="#191970" d="M682.6155,-280.4314C795.3699,-259.042 1050.4249,-203.5618 1096,-132 1100.7749,-124.5025 1101.8967,-118.6514 1096,-112 1075.0353,-88.3518 875.863,-74.4894 774.1555,-68.8973"/>
<polygon fill="#191970" stroke="#191970" points="774.2069,-65.3951 764.0326,-68.3504 773.8292,-72.3849 774.2069,-65.3951"/>
</g>
<!-- Node14 -->
<g id="node15" class="node">
<title>Node14</title>
<g id="a_node15"><a xlink:href="GameService_8hxx.html" target="_top" xlink:title="../GameService.hxx">
<polygon fill="none" stroke="#000000" points="659,-224.5 659,-243.5 771,-243.5 771,-224.5 659,-224.5"/>
<text text-anchor="middle" x="715" y="-231.5" font-family="Helvetica,sans-Serif" font-size="10.00" fill="#000000">../GameService.hxx</text>
</a>
</g>
</g>
<!-- Node0&#45;&gt;Node14 -->
<g id="edge15" class="edge">
<title>Node0&#45;&gt;Node14</title>
<path fill="none" stroke="#191970" d="M643.9801,-280.2455C657.1751,-271.6534 676.6051,-259.0014 691.8079,-249.1018"/>
<polygon fill="#191970" stroke="#191970" points="693.7215,-252.0325 700.1916,-243.6427 689.9017,-246.1665 693.7215,-252.0325"/>
</g>
<!-- Node29 -->
<g id="node30" class="node">
<title>Node29</title>
<polygon fill="none" stroke="#bfbfbf" points="1231,-224.5 1231,-243.5 1279,-243.5 1279,-224.5 1231,-224.5"/>
<text text-anchor="middle" x="1255" y="-231.5" font-family="Helvetica,sans-Serif" font-size="10.00" fill="#000000">thread</text>
</g>
<!-- Node0&#45;&gt;Node29 -->
<g id="edge38" class="edge">
<title>Node0&#45;&gt;Node29</title>
<path fill="none" stroke="#191970" d="M705.2625,-286.1474C838.1689,-279.1001 1108.0371,-263.2311 1220.8973,-243.7639"/>
<polygon fill="#191970" stroke="#191970" points="1221.7851,-247.16 1230.9992,-241.9303 1220.5349,-240.2725 1221.7851,-247.16"/>
</g>
<!-- Node6&#45;&gt;Node4 -->
<g id="edge7" class="edge">
<title>Node6&#45;&gt;Node4</title>
<path fill="none" stroke="#191970" d="M265.0615,-112.4888C257.1919,-103.6516 245.9348,-89.8105 239,-76 231.6428,-61.3484 226.7076,-43.3957 223.7151,-29.9148"/>
<polygon fill="#191970" stroke="#191970" points="227.0818,-28.9084 221.6478,-19.8133 220.2239,-30.312 227.0818,-28.9084"/>
</g>
<!-- Node7 -->
<g id="node8" class="node">
<title>Node7</title>
<polygon fill="none" stroke="#bfbfbf" points="248.5,-56.5 248.5,-75.5 325.5,-75.5 325.5,-56.5 248.5,-56.5"/>
<text text-anchor="middle" x="287" y="-63.5" font-family="Helvetica,sans-Serif" font-size="10.00" fill="#000000">SDL_mixer.h</text>
</g>
<!-- Node6&#45;&gt;Node7 -->
<g id="edge8" class="edge">
<title>Node6&#45;&gt;Node7</title>
<path fill="none" stroke="#191970" d="M276.2644,-112.2455C277.9794,-104.8579 280.3912,-94.4689 282.4944,-85.4087"/>
<polygon fill="#191970" stroke="#191970" points="285.9095,-86.1751 284.7615,-75.6427 279.0908,-84.5922 285.9095,-86.1751"/>
</g>
<!-- Node8 -->
<g id="node9" class="node">
<title>Node8</title>
<polygon fill="none" stroke="#bfbfbf" points="344,-56.5 344,-75.5 388,-75.5 388,-56.5 344,-56.5"/>
<text text-anchor="middle" x="366" y="-63.5" font-family="Helvetica,sans-Serif" font-size="10.00" fill="#000000">string</text>
</g>
<!-- Node6&#45;&gt;Node8 -->
<g id="edge9" class="edge">
<title>Node6&#45;&gt;Node8</title>
<path fill="none" stroke="#191970" d="M290.0252,-112.2455C304.1408,-103.6534 324.9263,-91.0014 341.1899,-81.1018"/>
<polygon fill="#191970" stroke="#191970" points="343.4363,-83.8319 350.1585,-75.6427 339.7966,-77.8525 343.4363,-83.8319"/>
</g>
<!-- Node6&#45;&gt;Node9 -->
<g id="edge10" class="edge">
<title>Node6&#45;&gt;Node9</title>
<path fill="none" stroke="#191970" d="M335.1544,-115.6316C408.7929,-107.7446 536.4628,-93.3755 655.9261,-76.0972"/>
<polygon fill="#191970" stroke="#191970" points="656.5891,-79.5377 665.9804,-74.6332 655.5805,-72.6107 656.5891,-79.5377"/>
</g>
<!-- Node10 -->
<g id="node11" class="node">
<title>Node10</title>
<polygon fill="none" stroke="#bfbfbf" points="643,-.5 643,-19.5 703,-19.5 703,-.5 643,-.5"/>
<text text-anchor="middle" x="673" y="-7.5" font-family="Helvetica,sans-Serif" font-size="10.00" fill="#000000">iostream</text>
</g>
<!-- Node9&#45;&gt;Node10 -->
<g id="edge11" class="edge">
<title>Node9&#45;&gt;Node10</title>
<path fill="none" stroke="#191970" d="M707.6842,-56.2455C701.7821,-48.3761 693.3258,-37.101 686.2406,-27.6542"/>
<polygon fill="#191970" stroke="#191970" points="689.0321,-25.5427 680.232,-19.6427 683.432,-29.7427 689.0321,-25.5427"/>
</g>
<!-- Node11 -->
<g id="node12" class="node">
<title>Node11</title>
<polygon fill="none" stroke="#bfbfbf" points="721.5,-.5 721.5,-19.5 790.5,-19.5 790.5,-.5 721.5,-.5"/>
<text text-anchor="middle" x="756" y="-7.5" font-family="Helvetica,sans-Serif" font-size="10.00" fill="#000000">type_traits</text>
</g>
<!-- Node9&#45;&gt;Node11 -->
<g id="edge12" class="edge">
<title>Node9&#45;&gt;Node11</title>
<path fill="none" stroke="#191970" d="M722.1417,-56.2455C727.8444,-48.4564 735.99,-37.3308 742.8625,-27.9439"/>
<polygon fill="#191970" stroke="#191970" points="745.8568,-29.7789 748.9402,-19.6427 740.2087,-25.6437 745.8568,-29.7789"/>
</g>
<!-- Node12 -->
<g id="node13" class="node">
<title>Node12</title>
<polygon fill="none" stroke="#bfbfbf" points="808.5,-.5 808.5,-19.5 859.5,-19.5 859.5,-.5 808.5,-.5"/>
<text text-anchor="middle" x="834" y="-7.5" font-family="Helvetica,sans-Serif" font-size="10.00" fill="#000000">variant</text>
</g>
<!-- Node9&#45;&gt;Node12 -->
<g id="edge13" class="edge">
<title>Node9&#45;&gt;Node12</title>
<path fill="none" stroke="#191970" d="M735.4568,-56.3733C754.4738,-47.4241 783.0175,-33.9917 804.4976,-23.8835"/>
<polygon fill="#191970" stroke="#191970" points="806.2522,-26.926 813.8101,-19.5011 803.2716,-20.5923 806.2522,-26.926"/>
</g>
<!-- Node13 -->
<g id="node14" class="node">
<title>Node13</title>
<polygon fill="none" stroke="#bfbfbf" points="583.5,-.5 583.5,-19.5 624.5,-19.5 624.5,-.5 583.5,-.5"/>
<text text-anchor="middle" x="604" y="-7.5" font-family="Helvetica,sans-Serif" font-size="10.00" fill="#000000">tuple</text>
</g>
<!-- Node9&#45;&gt;Node13 -->
<g id="edge14" class="edge">
<title>Node9&#45;&gt;Node13</title>
<path fill="none" stroke="#191970" d="M695.9184,-56.3733C678.2598,-47.4644 651.7947,-34.1127 631.7902,-24.0203"/>
<polygon fill="#191970" stroke="#191970" points="633.3372,-20.8806 622.8326,-19.5011 630.1842,-27.1303 633.3372,-20.8806"/>
</g>
<!-- Node15 -->
<g id="node16" class="node">
<title>Node15</title>
<g id="a_node16"><a xlink:href="Events_8hxx.html" target="_top" xlink:title="Events.hxx">
<polygon fill="none" stroke="#000000" points="446.5,-168.5 446.5,-187.5 517.5,-187.5 517.5,-168.5 446.5,-168.5"/>
<text text-anchor="middle" x="482" y="-175.5" font-family="Helvetica,sans-Serif" font-size="10.00" fill="#000000">Events.hxx</text>
</a>
</g>
</g>
<!-- Node14&#45;&gt;Node15 -->
<g id="edge16" class="edge">
<title>Node14&#45;&gt;Node15</title>
<path fill="none" stroke="#191970" d="M675.2106,-224.4369C634.2987,-214.604 570.6662,-199.3103 527.7119,-188.9865"/>
<polygon fill="#191970" stroke="#191970" points="528.3432,-185.5387 517.8022,-186.6048 526.7073,-192.3449 528.3432,-185.5387"/>
</g>
<!-- Node23 -->
<g id="node24" class="node">
<title>Node23</title>
<g id="a_node24"><a xlink:href="MessageQueue_8hxx.html" target="_top" xlink:title="util/MessageQueue.hxx">
<polygon fill="none" stroke="#000000" points="835.5,-168.5 835.5,-187.5 966.5,-187.5 966.5,-168.5 835.5,-168.5"/>
<text text-anchor="middle" x="901" y="-175.5" font-family="Helvetica,sans-Serif" font-size="10.00" fill="#000000">util/MessageQueue.hxx</text>
</a>
</g>
</g>
<!-- Node14&#45;&gt;Node23 -->
<g id="edge29" class="edge">
<title>Node14&#45;&gt;Node23</title>
<path fill="none" stroke="#191970" d="M746.9745,-224.3733C778.1713,-214.9807 825.771,-200.6496 859.7932,-190.4064"/>
<polygon fill="#191970" stroke="#191970" points="860.8763,-193.7355 869.4427,-187.5011 858.8582,-187.0327 860.8763,-193.7355"/>
</g>
<!-- Node28 -->
<g id="node29" class="node">
<title>Node28</title>
<g id="a_node29"><a xlink:href="GameService_8inl_8hxx.html" target="_top" xlink:title="GameService.inl.hxx">
<polygon fill="none" stroke="#000000" points="657,-168.5 657,-187.5 775,-187.5 775,-168.5 657,-168.5"/>
<text text-anchor="middle" x="716" y="-175.5" font-family="Helvetica,sans-Serif" font-size="10.00" fill="#000000">GameService.inl.hxx</text>
</a>
</g>
</g>
<!-- Node14&#45;&gt;Node28 -->
<g id="edge36" class="edge">
<title>Node14&#45;&gt;Node28</title>
<path fill="none" stroke="#191970" d="M715.1742,-224.2455C715.3047,-216.9382 715.4876,-206.6944 715.6481,-197.7046"/>
<polygon fill="#191970" stroke="#191970" points="719.1486,-197.7036 715.8278,-187.6427 712.1497,-197.5786 719.1486,-197.7036"/>
</g>
<!-- Node15&#45;&gt;Node6 -->
<g id="edge28" class="edge">
<title>Node15&#45;&gt;Node6</title>
<path fill="none" stroke="#191970" d="M446.2435,-168.3733C411.0574,-158.9001 357.2119,-144.4032 319.1044,-134.1435"/>
<polygon fill="#191970" stroke="#191970" points="319.856,-130.7213 309.2899,-131.5011 318.0361,-137.4806 319.856,-130.7213"/>
</g>
<!-- Node15&#45;&gt;Node8 -->
<g id="edge17" class="edge">
<title>Node15&#45;&gt;Node8</title>
<path fill="none" stroke="#191970" d="M446.1155,-169.9364C424.514,-163.2718 398.1537,-151.6223 382,-132 371.3569,-119.0715 367.5985,-100.173 366.3616,-85.9085"/>
<polygon fill="#191970" stroke="#191970" points="369.8435,-85.4686 365.8268,-75.6647 362.853,-85.8336 369.8435,-85.4686"/>
</g>
<!-- Node15&#45;&gt;Node9 -->
<g id="edge19" class="edge">
<title>Node15&#45;&gt;Node9</title>
<path fill="none" stroke="#191970" d="M517.7129,-174.0426C553.708,-168.794 609.8202,-157.081 652,-132 672.5209,-119.7979 690.7157,-99.0866 702.2105,-84.1152"/>
<polygon fill="#191970" stroke="#191970" points="705.3298,-85.7836 708.4626,-75.6625 699.702,-81.6209 705.3298,-85.7836"/>
</g>
<!-- Node16 -->
<g id="node17" class="node">
<title>Node16</title>
<polygon fill="none" stroke="#bfbfbf" points="391,-112.5 391,-131.5 491,-131.5 491,-112.5 391,-112.5"/>
<text text-anchor="middle" x="441" y="-119.5" font-family="Helvetica,sans-Serif" font-size="10.00" fill="#000000">betterEnums.hxx</text>
</g>
<!-- Node15&#45;&gt;Node16 -->
<g id="edge18" class="edge">
<title>Node15&#45;&gt;Node16</title>
<path fill="none" stroke="#191970" d="M474.8583,-168.2455C469.1556,-160.4564 461.01,-149.3308 454.1375,-139.9439"/>
<polygon fill="#191970" stroke="#191970" points="456.7913,-137.6437 448.0598,-131.6427 451.1432,-141.7789 456.7913,-137.6437"/>
</g>
<!-- Node17 -->
<g id="node18" class="node">
<title>Node17</title>
<g id="a_node18"><a xlink:href="TransitiveModel_8hxx.html" target="_top" xlink:title="util/TransitiveModel.hxx">
<polygon fill="none" stroke="#000000" points="509.5,-112.5 509.5,-131.5 642.5,-131.5 642.5,-112.5 509.5,-112.5"/>
<text text-anchor="middle" x="576" y="-119.5" font-family="Helvetica,sans-Serif" font-size="10.00" fill="#000000">util/TransitiveModel.hxx</text>
</a>
</g>
</g>
<!-- Node15&#45;&gt;Node17 -->
<g id="edge20" class="edge">
<title>Node15&#45;&gt;Node17</title>
<path fill="none" stroke="#191970" d="M498.3736,-168.2455C512.9308,-159.5731 534.431,-146.7645 551.1152,-136.825"/>
<polygon fill="#191970" stroke="#191970" points="553.0144,-139.7676 559.8141,-131.6427 549.4317,-133.7539 553.0144,-139.7676"/>
</g>
<!-- Node17&#45;&gt;Node9 -->
<g id="edge21" class="edge">
<title>Node17&#45;&gt;Node9</title>
<path fill="none" stroke="#191970" d="M599.895,-112.3733C622.5082,-103.2629 656.6542,-89.5062 681.8873,-79.3404"/>
<polygon fill="#191970" stroke="#191970" points="683.4493,-82.4845 691.4169,-75.5011 680.8334,-75.9917 683.4493,-82.4845"/>
</g>
<!-- Node18 -->
<g id="node19" class="node">
<title>Node18</title>
<g id="a_node19"><a xlink:href="Observer_8hxx.html" target="_top" xlink:title="Observer.hxx">
<polygon fill="none" stroke="#000000" points="406.5,-56.5 406.5,-75.5 487.5,-75.5 487.5,-56.5 406.5,-56.5"/>
<text text-anchor="middle" x="447" y="-63.5" font-family="Helvetica,sans-Serif" font-size="10.00" fill="#000000">Observer.hxx</text>
</a>
</g>
</g>
<!-- Node17&#45;&gt;Node18 -->
<g id="edge22" class="edge">
<title>Node17&#45;&gt;Node18</title>
<path fill="none" stroke="#191970" d="M553.8241,-112.3733C533.0234,-103.3435 501.7083,-89.7494 478.3542,-79.6111"/>
<polygon fill="#191970" stroke="#191970" points="479.4532,-76.2727 468.8865,-75.5011 476.6657,-82.6938 479.4532,-76.2727"/>
</g>
<!-- Node20 -->
<g id="node21" class="node">
<title>Node20</title>
<polygon fill="none" stroke="#bfbfbf" points="562,-56.5 562,-75.5 648,-75.5 648,-56.5 562,-56.5"/>
<text text-anchor="middle" x="605" y="-63.5" font-family="Helvetica,sans-Serif" font-size="10.00" fill="#000000">unordered_set</text>
</g>
<!-- Node17&#45;&gt;Node20 -->
<g id="edge25" class="edge">
<title>Node17&#45;&gt;Node20</title>
<path fill="none" stroke="#191970" d="M581.0514,-112.2455C585.0019,-104.617 590.6097,-93.7881 595.4058,-84.5267"/>
<polygon fill="#191970" stroke="#191970" points="598.5159,-86.1321 600.0065,-75.6427 592.2999,-82.9131 598.5159,-86.1321"/>
</g>
<!-- Node21 -->
<g id="node22" class="node">
<title>Node21</title>
<polygon fill="none" stroke="#bfbfbf" points="506,-56.5 506,-75.5 544,-75.5 544,-56.5 506,-56.5"/>
<text text-anchor="middle" x="525" y="-63.5" font-family="Helvetica,sans-Serif" font-size="10.00" fill="#000000">map</text>
</g>
<!-- Node17&#45;&gt;Node21 -->
<g id="edge26" class="edge">
<title>Node17&#45;&gt;Node21</title>
<path fill="none" stroke="#191970" d="M567.1165,-112.2455C559.8034,-104.2155 549.2609,-92.6394 540.5533,-83.0781"/>
<polygon fill="#191970" stroke="#191970" points="543.1028,-80.6795 533.7817,-75.6427 537.9273,-85.3928 543.1028,-80.6795"/>
</g>
<!-- Node22 -->
<g id="node23" class="node">
<title>Node22</title>
<polygon fill="none" stroke="#bfbfbf" points="935,-56.5 935,-75.5 989,-75.5 989,-56.5 935,-56.5"/>
<text text-anchor="middle" x="962" y="-63.5" font-family="Helvetica,sans-Serif" font-size="10.00" fill="#000000">ciso646</text>
</g>
<!-- Node17&#45;&gt;Node22 -->
<g id="edge27" class="edge">
<title>Node17&#45;&gt;Node22</title>
<path fill="none" stroke="#191970" d="M641.9172,-112.4369C723.301,-100.6299 858.9558,-80.9494 924.4064,-71.454"/>
<polygon fill="#191970" stroke="#191970" points="925.2693,-74.8655 934.6631,-69.966 924.2642,-67.9381 925.2693,-74.8655"/>
</g>
<!-- Node18&#45;&gt;Node4 -->
<g id="edge23" class="edge">
<title>Node18&#45;&gt;Node4</title>
<path fill="none" stroke="#191970" d="M408.2352,-56.4369C366.5892,-46.163 300.7776,-29.9275 259.0295,-19.6284"/>
<polygon fill="#191970" stroke="#191970" points="259.7679,-16.2057 249.2206,-17.2086 258.0912,-23.002 259.7679,-16.2057"/>
</g>
<!-- Node19 -->
<g id="node20" class="node">
<title>Node19</title>
<polygon fill="none" stroke="#bfbfbf" points="410,-.5 410,-19.5 484,-19.5 484,-.5 410,-.5"/>
<text text-anchor="middle" x="447" y="-7.5" font-family="Helvetica,sans-Serif" font-size="10.00" fill="#000000">forward_list</text>
</g>
<!-- Node18&#45;&gt;Node19 -->
<g id="edge24" class="edge">
<title>Node18&#45;&gt;Node19</title>
<path fill="none" stroke="#191970" d="M447,-56.2455C447,-48.9382 447,-38.6944 447,-29.7046"/>
<polygon fill="#191970" stroke="#191970" points="450.5001,-29.6426 447,-19.6427 443.5001,-29.6427 450.5001,-29.6426"/>
</g>
<!-- Node23&#45;&gt;Node3 -->
<g id="edge33" class="edge">
<title>Node23&#45;&gt;Node3</title>
<path fill="none" stroke="#191970" d="M870.4007,-168.3733C838.602,-158.3692 788.9954,-142.7626 756.2483,-132.4601"/>
<polygon fill="#191970" stroke="#191970" points="757.2545,-129.1076 746.665,-129.4452 755.1537,-135.785 757.2545,-129.1076"/>
</g>
<!-- Node23&#45;&gt;Node22 -->
<g id="edge35" class="edge">
<title>Node23&#45;&gt;Node22</title>
<path fill="none" stroke="#191970" d="M966.5449,-171.2245C1016.7099,-164.5269 1079.9438,-152.2845 1096,-132 1124.7752,-95.6471 1048.0039,-77.8801 999.0732,-70.4695"/>
<polygon fill="#191970" stroke="#191970" points="999.4975,-66.9946 989.1025,-69.0424 998.5056,-73.924 999.4975,-66.9946"/>
</g>
<!-- Node24 -->
<g id="node25" class="node">
<title>Node24</title>
<polygon fill="none" stroke="#bfbfbf" points="847.5,-112.5 847.5,-131.5 954.5,-131.5 954.5,-112.5 847.5,-112.5"/>
<text text-anchor="middle" x="901" y="-119.5" font-family="Helvetica,sans-Serif" font-size="10.00" fill="#000000">condition_variable</text>
</g>
<!-- Node23&#45;&gt;Node24 -->
<g id="edge30" class="edge">
<title>Node23&#45;&gt;Node24</title>
<path fill="none" stroke="#191970" d="M901,-168.2455C901,-160.9382 901,-150.6944 901,-141.7046"/>
<polygon fill="#191970" stroke="#191970" points="904.5001,-141.6426 901,-131.6427 897.5001,-141.6427 904.5001,-141.6426"/>
</g>
<!-- Node25 -->
<g id="node26" class="node">
<title>Node25</title>
<polygon fill="none" stroke="#bfbfbf" points="973,-112.5 973,-131.5 1021,-131.5 1021,-112.5 973,-112.5"/>
<text text-anchor="middle" x="997" y="-119.5" font-family="Helvetica,sans-Serif" font-size="10.00" fill="#000000">mutex</text>
</g>
<!-- Node23&#45;&gt;Node25 -->
<g id="edge31" class="edge">
<title>Node23&#45;&gt;Node25</title>
<path fill="none" stroke="#191970" d="M917.7219,-168.2455C932.5889,-159.5731 954.5466,-146.7645 971.5858,-136.825"/>
<polygon fill="#191970" stroke="#191970" points="973.5955,-139.7047 980.4697,-131.6427 970.0683,-133.6582 973.5955,-139.7047"/>
</g>
<!-- Node26 -->
<g id="node27" class="node">
<title>Node26</title>
<polygon fill="none" stroke="#bfbfbf" points="1039.5,-112.5 1039.5,-131.5 1086.5,-131.5 1086.5,-112.5 1039.5,-112.5"/>
<text text-anchor="middle" x="1063" y="-119.5" font-family="Helvetica,sans-Serif" font-size="10.00" fill="#000000">deque</text>
</g>
<!-- Node23&#45;&gt;Node26 -->
<g id="edge32" class="edge">
<title>Node23&#45;&gt;Node26</title>
<path fill="none" stroke="#191970" d="M928.8488,-168.3733C956.8895,-158.6802 1000.1453,-143.7275 1029.9172,-133.436"/>
<polygon fill="#191970" stroke="#191970" points="1031.1476,-136.714 1039.4553,-130.1389 1028.8606,-130.0981 1031.1476,-136.714"/>
</g>
<!-- Node27 -->
<g id="node28" class="node">
<title>Node27</title>
<polygon fill="none" stroke="#bfbfbf" points="764.5,-112.5 764.5,-131.5 829.5,-131.5 829.5,-112.5 764.5,-112.5"/>
<text text-anchor="middle" x="797" y="-119.5" font-family="Helvetica,sans-Serif" font-size="10.00" fill="#000000">functional</text>
</g>
<!-- Node23&#45;&gt;Node27 -->
<g id="edge34" class="edge">
<title>Node23&#45;&gt;Node27</title>
<path fill="none" stroke="#191970" d="M882.8846,-168.2455C866.555,-159.4527 842.329,-146.4079 823.7661,-136.4125"/>
<polygon fill="#191970" stroke="#191970" points="825.3719,-133.3021 814.9078,-131.6427 822.0532,-139.4654 825.3719,-133.3021"/>
</g>
</g>
</svg>
