<?xml version="1.0" encoding="UTF-8" standalone="no"?>
<!DOCTYPE svg PUBLIC "-//W3C//DTD SVG 1.1//EN"
 "http://www.w3.org/Graphics/SVG/1.1/DTD/svg11.dtd">
<!-- Generated by graphviz version 2.40.1 (20161225.0304)
 -->
<!-- Title: src/services/AudioMixer.cxx Pages: 1 -->
<svg width="2072pt" height="420pt"
 viewBox="0.00 0.00 2071.50 420.00" xmlns="http://www.w3.org/2000/svg" xmlns:xlink="http://www.w3.org/1999/xlink">
<g id="graph0" class="graph" transform="scale(1 1) rotate(0) translate(4 416)">
<title>src/services/AudioMixer.cxx</title>
<!-- Node0 -->
<g id="node1" class="node">
<title>Node0</title>
<polygon fill="#bfbfbf" stroke="#000000" points="1362,-392.5 1362,-411.5 1514,-411.5 1514,-392.5 1362,-392.5"/>
<text text-anchor="middle" x="1438" y="-399.5" font-family="Helvetica,sans-Serif" font-size="10.00" fill="#000000">src/services/AudioMixer.cxx</text>
</g>
<!-- Node1 -->
<g id="node2" class="node">
<title>Node1</title>
<g id="a_node2"><a xlink:href="AudioMixer_8hxx.html" target="_top" xlink:title="AudioMixer.hxx">
<polygon fill="none" stroke="#000000" points="598,-280.5 598,-299.5 690,-299.5 690,-280.5 598,-280.5"/>
<text text-anchor="middle" x="644" y="-287.5" font-family="Helvetica,sans-Serif" font-size="10.00" fill="#000000">AudioMixer.hxx</text>
</a>
</g>
</g>
<!-- Node0&#45;&gt;Node1 -->
<g id="edge1" class="edge">
<title>Node0&#45;&gt;Node1</title>
<path fill="none" stroke="#191970" d="M1361.8242,-399.8725C1189.1045,-394.6548 778.1727,-379.8806 720,-356 694.902,-345.697 672.2942,-323.6172 658.3866,-307.8338"/>
<polygon fill="#191970" stroke="#191970" points="660.7329,-305.1892 651.5948,-299.8277 655.395,-309.7176 660.7329,-305.1892"/>
</g>
<!-- Node31 -->
<g id="node29" class="node">
<title>Node31</title>
<g id="a_node29"><a xlink:href="Settings_8hxx.html" target="_top" xlink:title="basics/Settings.hxx">
<polygon fill="none" stroke="#000000" points="389.5,-168.5 389.5,-187.5 500.5,-187.5 500.5,-168.5 389.5,-168.5"/>
<text text-anchor="middle" x="445" y="-175.5" font-family="Helvetica,sans-Serif" font-size="10.00" fill="#000000">basics/Settings.hxx</text>
</a>
</g>
</g>
<!-- Node0&#45;&gt;Node31 -->
<g id="edge36" class="edge">
<title>Node0&#45;&gt;Node31</title>
<path fill="none" stroke="#191970" d="M1361.7621,-393.0991C1291.7321,-384.6232 1185.1504,-370.9672 1093,-356 962.5664,-334.8147 924.2163,-347.7438 801,-300 740.7277,-276.6457 737.1989,-247.5427 677,-224 647.328,-212.3958 568.3793,-197.9571 510.7984,-188.3844"/>
<polygon fill="#191970" stroke="#191970" points="511.1093,-184.8885 500.673,-186.7144 509.9702,-191.7952 511.1093,-184.8885"/>
</g>
<!-- Node34 -->
<g id="node32" class="node">
<title>Node34</title>
<g id="a_node32"><a xlink:href="LOG_8hxx.html" target="_top" xlink:title="basics/LOG.hxx">
<polygon fill="none" stroke="#000000" points="1825,-280.5 1825,-299.5 1917,-299.5 1917,-280.5 1825,-280.5"/>
<text text-anchor="middle" x="1871" y="-287.5" font-family="Helvetica,sans-Serif" font-size="10.00" fill="#000000">basics/LOG.hxx</text>
</a>
</g>
</g>
<!-- Node0&#45;&gt;Node34 -->
<g id="edge41" class="edge">
<title>Node0&#45;&gt;Node34</title>
<path fill="none" stroke="#191970" d="M1514.0427,-397.0278C1602.5485,-390.3835 1742.7441,-376.9558 1791,-356 1816.8775,-344.7623 1841.0472,-322.5561 1855.9056,-307.0181"/>
<polygon fill="#191970" stroke="#191970" points="1858.5558,-309.3074 1862.7865,-299.5939 1853.4218,-304.549 1858.5558,-309.3074"/>
</g>
<!-- Node37 -->
<g id="node35" class="node">
<title>Node37</title>
<polygon fill="none" stroke="#bfbfbf" points="2008.5,-224.5 2008.5,-243.5 2063.5,-243.5 2063.5,-224.5 2008.5,-224.5"/>
<text text-anchor="middle" x="2036" y="-231.5" font-family="Helvetica,sans-Serif" font-size="10.00" fill="#000000">fstream</text>
</g>
<!-- Node0&#45;&gt;Node37 -->
<g id="edge82" class="edge">
<title>Node0&#45;&gt;Node37</title>
<path fill="none" stroke="#191970" d="M1514.2153,-396.1332C1608.8899,-388.2711 1764.6909,-373.2872 1820,-356 1870.8553,-340.1048 1879.583,-326.1607 1926,-300 1955.8786,-283.1604 1989.6161,-262.697 2011.7573,-249.0636"/>
<polygon fill="#191970" stroke="#191970" points="2013.8223,-251.9019 2020.4913,-243.6693 2010.144,-245.9463 2013.8223,-251.9019"/>
</g>
<!-- Node40 -->
<g id="node38" class="node">
<title>Node40</title>
<g id="a_node38"><a xlink:href="Randomizer_8hxx.html" target="_top" xlink:title="../services/Randomizer.hxx">
<polygon fill="none" stroke="#000000" points="1634,-336.5 1634,-355.5 1782,-355.5 1782,-336.5 1634,-336.5"/>
<text text-anchor="middle" x="1708" y="-343.5" font-family="Helvetica,sans-Serif" font-size="10.00" fill="#000000">../services/Randomizer.hxx</text>
</a>
</g>
</g>
<!-- Node0&#45;&gt;Node40 -->
<g id="edge48" class="edge">
<title>Node0&#45;&gt;Node40</title>
<path fill="none" stroke="#191970" d="M1484.1079,-392.4369C1530.6075,-382.7925 1602.4359,-367.8948 1652.14,-357.5858"/>
<polygon fill="#191970" stroke="#191970" points="1653.0015,-360.9817 1662.0823,-355.5237 1651.5799,-354.1275 1653.0015,-360.9817"/>
</g>
<!-- Node43 -->
<g id="node41" class="node">
<title>Node43</title>
<g id="a_node41"><a xlink:href="JsonSerialization_8hxx.html" target="_top" xlink:title="common/JsonSerialization.hxx">
<polygon fill="none" stroke="#000000" points="1102,-336.5 1102,-355.5 1266,-355.5 1266,-336.5 1102,-336.5"/>
<text text-anchor="middle" x="1184" y="-343.5" font-family="Helvetica,sans-Serif" font-size="10.00" fill="#000000">common/JsonSerialization.hxx</text>
</a>
</g>
</g>
<!-- Node0&#45;&gt;Node43 -->
<g id="edge53" class="edge">
<title>Node0&#45;&gt;Node43</title>
<path fill="none" stroke="#191970" d="M1394.6244,-392.4369C1351.063,-382.8328 1283.8723,-368.0191 1237.1366,-357.7152"/>
<polygon fill="#191970" stroke="#191970" points="1237.7157,-354.2588 1227.1966,-355.5237 1236.2085,-361.0947 1237.7157,-354.2588"/>
</g>
<!-- Node2 -->
<g id="node3" class="node">
<title>Node2</title>
<polygon fill="none" stroke="#bfbfbf" points="510,-224.5 510,-243.5 552,-243.5 552,-224.5 510,-224.5"/>
<text text-anchor="middle" x="531" y="-231.5" font-family="Helvetica,sans-Serif" font-size="10.00" fill="#000000">array</text>
</g>
<!-- Node1&#45;&gt;Node2 -->
<g id="edge2" class="edge">
<title>Node1&#45;&gt;Node2</title>
<path fill="none" stroke="#191970" d="M624.5746,-280.3733C606.5979,-271.4644 579.6559,-258.1127 559.291,-248.0203"/>
<polygon fill="#191970" stroke="#191970" points="560.6861,-244.8055 550.1719,-243.5011 557.5778,-251.0776 560.6861,-244.8055"/>
</g>
<!-- Node3 -->
<g id="node4" class="node">
<title>Node3</title>
<polygon fill="none" stroke="#bfbfbf" points="905.5,-112.5 905.5,-131.5 998.5,-131.5 998.5,-112.5 905.5,-112.5"/>
<text text-anchor="middle" x="952" y="-119.5" font-family="Helvetica,sans-Serif" font-size="10.00" fill="#000000">unordered_map</text>
</g>
<!-- Node1&#45;&gt;Node3 -->
<g id="edge3" class="edge">
<title>Node1&#45;&gt;Node3</title>
<path fill="none" stroke="#191970" d="M656.8201,-280.4795C686.7045,-258.5805 763.7951,-203.7728 834,-168 859.5418,-154.9852 889.6727,-143.296 913.0939,-134.9577"/>
<polygon fill="#191970" stroke="#191970" points="914.4083,-138.2059 922.6879,-131.5953 912.093,-131.5998 914.4083,-138.2059"/>
</g>
<!-- Node4 -->
<g id="node5" class="node">
<title>Node4</title>
<polygon fill="none" stroke="#bfbfbf" points="1131.5,-112.5 1131.5,-131.5 1178.5,-131.5 1178.5,-112.5 1131.5,-112.5"/>
<text text-anchor="middle" x="1155" y="-119.5" font-family="Helvetica,sans-Serif" font-size="10.00" fill="#000000">vector</text>
</g>
<!-- Node1&#45;&gt;Node4 -->
<g id="edge4" class="edge">
<title>Node1&#45;&gt;Node4</title>
<path fill="none" stroke="#191970" d="M663.8301,-280.3733C720.3815,-252.9707 879.9889,-176.001 905,-168 944.768,-155.2783 1062.3329,-136.2313 1120.9604,-127.1601"/>
<polygon fill="#191970" stroke="#191970" points="1121.8382,-130.5663 1131.1895,-125.5862 1120.7736,-123.6477 1121.8382,-130.5663"/>
</g>
<!-- Node5 -->
<g id="node6" class="node">
<title>Node5</title>
<polygon fill="none" stroke="#bfbfbf" points="0,-56.5 0,-75.5 58,-75.5 58,-56.5 0,-56.5"/>
<text text-anchor="middle" x="29" y="-63.5" font-family="Helvetica,sans-Serif" font-size="10.00" fill="#000000">memory</text>
</g>
<!-- Node1&#45;&gt;Node5 -->
<g id="edge5" class="edge">
<title>Node1&#45;&gt;Node5</title>
<path fill="none" stroke="#191970" d="M597.8897,-289.0466C493.5486,-286.3339 242.4035,-276.5266 165,-244 93.7563,-214.0619 66.1804,-201.3084 32,-132 24.945,-117.6944 24.6695,-99.4554 25.8898,-85.7778"/>
<polygon fill="#191970" stroke="#191970" points="29.4011,-85.9009 27.1508,-75.5478 22.4536,-85.0445 29.4011,-85.9009"/>
</g>
<!-- Node6 -->
<g id="node7" class="node">
<title>Node6</title>
<polygon fill="none" stroke="#bfbfbf" points="570,-224.5 570,-243.5 602,-243.5 602,-224.5 570,-224.5"/>
<text text-anchor="middle" x="586" y="-231.5" font-family="Helvetica,sans-Serif" font-size="10.00" fill="#000000">list</text>
</g>
<!-- Node1&#45;&gt;Node6 -->
<g id="edge6" class="edge">
<title>Node1&#45;&gt;Node6</title>
<path fill="none" stroke="#191970" d="M633.8972,-280.2455C625.4972,-272.1352 613.3506,-260.4075 603.3916,-250.7919"/>
<polygon fill="#191970" stroke="#191970" points="605.6122,-248.0707 595.9871,-243.6427 600.75,-253.1066 605.6122,-248.0707"/>
</g>
<!-- Node7 -->
<g id="node8" class="node">
<title>Node7</title>
<g id="a_node8"><a xlink:href="Soundtrack_8hxx.html" target="_top" xlink:title="audio/Soundtrack.hxx">
<polygon fill="none" stroke="#000000" points="57,-112.5 57,-131.5 179,-131.5 179,-112.5 57,-112.5"/>
<text text-anchor="middle" x="118" y="-119.5" font-family="Helvetica,sans-Serif" font-size="10.00" fill="#000000">audio/Soundtrack.hxx</text>
</a>
</g>
</g>
<!-- Node1&#45;&gt;Node7 -->
<g id="edge7" class="edge">
<title>Node1&#45;&gt;Node7</title>
<path fill="none" stroke="#191970" d="M597.9629,-287.6105C489.9463,-281.678 226.7868,-265.2119 193,-244 155.0778,-220.1919 133.394,-169.5036 123.8691,-141.5377"/>
<polygon fill="#191970" stroke="#191970" points="127.1043,-140.1651 120.7092,-131.718 120.4408,-142.3094 127.1043,-140.1651"/>
</g>
<!-- Node10 -->
<g id="node11" class="node">
<title>Node10</title>
<g id="a_node11"><a xlink:href="Meta_8hxx.html" target="_top" xlink:title="../../util/Meta.hxx">
<polygon fill="none" stroke="#000000" points="306,-56.5 306,-75.5 404,-75.5 404,-56.5 306,-56.5"/>
<text text-anchor="middle" x="355" y="-63.5" font-family="Helvetica,sans-Serif" font-size="10.00" fill="#000000">../../util/Meta.hxx</text>
</a>
</g>
</g>
<!-- Node1&#45;&gt;Node10 -->
<g id="edge34" class="edge">
<title>Node1&#45;&gt;Node10</title>
<path fill="none" stroke="#191970" d="M601.6231,-280.4555C504.4432,-257.6085 270.539,-196.8328 227,-132 206.1799,-100.9973 253.2293,-83.7042 296.0378,-74.6768"/>
<polygon fill="#191970" stroke="#191970" points="296.802,-78.0935 305.9302,-72.7151 295.4404,-71.2272 296.802,-78.0935"/>
</g>
<!-- Node15 -->
<g id="node16" class="node">
<title>Node15</title>
<g id="a_node16"><a xlink:href="GameService_8hxx.html" target="_top" xlink:title="../GameService.hxx">
<polygon fill="none" stroke="#000000" points="917,-224.5 917,-243.5 1029,-243.5 1029,-224.5 917,-224.5"/>
<text text-anchor="middle" x="973" y="-231.5" font-family="Helvetica,sans-Serif" font-size="10.00" fill="#000000">../GameService.hxx</text>
</a>
</g>
</g>
<!-- Node1&#45;&gt;Node15 -->
<g id="edge16" class="edge">
<title>Node1&#45;&gt;Node15</title>
<path fill="none" stroke="#191970" d="M690.0925,-282.1545C746.5794,-272.5397 842.6925,-256.18 907.0058,-245.2331"/>
<polygon fill="#191970" stroke="#191970" points="907.7728,-248.6529 917.0437,-243.5245 906.5982,-241.7522 907.7728,-248.6529"/>
</g>
<!-- Node30 -->
<g id="node28" class="node">
<title>Node30</title>
<polygon fill="none" stroke="#bfbfbf" points="620,-224.5 620,-243.5 668,-243.5 668,-224.5 620,-224.5"/>
<text text-anchor="middle" x="644" y="-231.5" font-family="Helvetica,sans-Serif" font-size="10.00" fill="#000000">thread</text>
</g>
<!-- Node1&#45;&gt;Node30 -->
<g id="edge35" class="edge">
<title>Node1&#45;&gt;Node30</title>
<path fill="none" stroke="#191970" d="M644,-280.2455C644,-272.9382 644,-262.6944 644,-253.7046"/>
<polygon fill="#191970" stroke="#191970" points="647.5001,-253.6426 644,-243.6427 640.5001,-253.6427 647.5001,-253.6426"/>
</g>
<!-- Node7&#45;&gt;Node5 -->
<g id="edge8" class="edge">
<title>Node7&#45;&gt;Node5</title>
<path fill="none" stroke="#191970" d="M102.4974,-112.2455C88.842,-103.6534 68.7343,-91.0014 53.0011,-81.1018"/>
<polygon fill="#191970" stroke="#191970" points="54.6529,-78.006 44.325,-75.6427 50.9249,-83.9307 54.6529,-78.006"/>
</g>
<!-- Node8 -->
<g id="node9" class="node">
<title>Node8</title>
<polygon fill="none" stroke="#bfbfbf" points="79.5,-56.5 79.5,-75.5 156.5,-75.5 156.5,-56.5 79.5,-56.5"/>
<text text-anchor="middle" x="118" y="-63.5" font-family="Helvetica,sans-Serif" font-size="10.00" fill="#000000">SDL_mixer.h</text>
</g>
<!-- Node7&#45;&gt;Node8 -->
<g id="edge9" class="edge">
<title>Node7&#45;&gt;Node8</title>
<path fill="none" stroke="#191970" d="M118,-112.2455C118,-104.9382 118,-94.6944 118,-85.7046"/>
<polygon fill="#191970" stroke="#191970" points="121.5001,-85.6426 118,-75.6427 114.5001,-85.6427 121.5001,-85.6426"/>
</g>
<!-- Node9 -->
<g id="node10" class="node">
<title>Node9</title>
<polygon fill="none" stroke="#bfbfbf" points="855,-56.5 855,-75.5 899,-75.5 899,-56.5 855,-56.5"/>
<text text-anchor="middle" x="877" y="-63.5" font-family="Helvetica,sans-Serif" font-size="10.00" fill="#000000">string</text>
</g>
<!-- Node7&#45;&gt;Node9 -->
<g id="edge10" class="edge">
<title>Node7&#45;&gt;Node9</title>
<path fill="none" stroke="#191970" d="M179.0889,-116.1696C194.7037,-114.7414 211.4687,-113.2619 227,-112 463.9617,-92.7475 749.9007,-74.1054 844.7222,-68.0454"/>
<polygon fill="#191970" stroke="#191970" points="845.063,-71.5308 854.82,-67.4015 844.6175,-64.545 845.063,-71.5308"/>
</g>
<!-- Node7&#45;&gt;Node10 -->
<g id="edge11" class="edge">
<title>Node7&#45;&gt;Node10</title>
<path fill="none" stroke="#191970" d="M158.4725,-112.4369C198.948,-102.8731 261.2867,-88.1432 304.8703,-77.845"/>
<polygon fill="#191970" stroke="#191970" points="305.7673,-81.2295 314.6945,-75.5237 304.1576,-74.4171 305.7673,-81.2295"/>
</g>
<!-- Node11 -->
<g id="node12" class="node">
<title>Node11</title>
<polygon fill="none" stroke="#bfbfbf" points="1162,-.5 1162,-19.5 1222,-19.5 1222,-.5 1162,-.5"/>
<text text-anchor="middle" x="1192" y="-7.5" font-family="Helvetica,sans-Serif" font-size="10.00" fill="#000000">iostream</text>
</g>
<!-- Node10&#45;&gt;Node11 -->
<g id="edge12" class="edge">
<title>Node10&#45;&gt;Node11</title>
<path fill="none" stroke="#191970" d="M404.2333,-62.706C555.6994,-52.5721 1012.8685,-21.9849 1151.6307,-12.7009"/>
<polygon fill="#191970" stroke="#191970" points="1152.0725,-16.1793 1161.8165,-12.0194 1151.6051,-9.1949 1152.0725,-16.1793"/>
</g>
<!-- Node12 -->
<g id="node13" class="node">
<title>Node12</title>
<polygon fill="none" stroke="#bfbfbf" points="393.5,-.5 393.5,-19.5 462.5,-19.5 462.5,-.5 393.5,-.5"/>
<text text-anchor="middle" x="428" y="-7.5" font-family="Helvetica,sans-Serif" font-size="10.00" fill="#000000">type_traits</text>
</g>
<!-- Node10&#45;&gt;Node12 -->
<g id="edge13" class="edge">
<title>Node10&#45;&gt;Node12</title>
<path fill="none" stroke="#191970" d="M367.7156,-56.2455C378.602,-47.8943 394.4883,-35.7076 407.22,-25.9408"/>
<polygon fill="#191970" stroke="#191970" points="409.6261,-28.5063 415.4301,-19.6427 405.3654,-22.9523 409.6261,-28.5063"/>
</g>
<!-- Node13 -->
<g id="node14" class="node">
<title>Node13</title>
<polygon fill="none" stroke="#bfbfbf" points="265.5,-.5 265.5,-19.5 316.5,-19.5 316.5,-.5 265.5,-.5"/>
<text text-anchor="middle" x="291" y="-7.5" font-family="Helvetica,sans-Serif" font-size="10.00" fill="#000000">variant</text>
</g>
<!-- Node10&#45;&gt;Node13 -->
<g id="edge14" class="edge">
<title>Node10&#45;&gt;Node13</title>
<path fill="none" stroke="#191970" d="M343.8521,-56.2455C334.4913,-48.0549 320.9142,-36.1749 309.8651,-26.5069"/>
<polygon fill="#191970" stroke="#191970" points="311.8508,-23.5937 302.0202,-19.6427 307.2412,-28.8618 311.8508,-23.5937"/>
</g>
<!-- Node14 -->
<g id="node15" class="node">
<title>Node14</title>
<polygon fill="none" stroke="#bfbfbf" points="334.5,-.5 334.5,-19.5 375.5,-19.5 375.5,-.5 334.5,-.5"/>
<text text-anchor="middle" x="355" y="-7.5" font-family="Helvetica,sans-Serif" font-size="10.00" fill="#000000">tuple</text>
</g>
<!-- Node10&#45;&gt;Node14 -->
<g id="edge15" class="edge">
<title>Node10&#45;&gt;Node14</title>
<path fill="none" stroke="#191970" d="M355,-56.2455C355,-48.9382 355,-38.6944 355,-29.7046"/>
<polygon fill="#191970" stroke="#191970" points="358.5001,-29.6426 355,-19.6427 351.5001,-29.6427 358.5001,-29.6426"/>
</g>
<!-- Node16 -->
<g id="node17" class="node">
<title>Node16</title>
<g id="a_node17"><a xlink:href="Events_8hxx.html" target="_top" xlink:title="Events.hxx">
<polygon fill="none" stroke="#000000" points="596.5,-168.5 596.5,-187.5 667.5,-187.5 667.5,-168.5 596.5,-168.5"/>
<text text-anchor="middle" x="632" y="-175.5" font-family="Helvetica,sans-Serif" font-size="10.00" fill="#000000">Events.hxx</text>
</a>
</g>
</g>
<!-- Node15&#45;&gt;Node16 -->
<g id="edge17" class="edge">
<title>Node15&#45;&gt;Node16</title>
<path fill="none" stroke="#191970" d="M916.6908,-224.7527C849.9902,-213.799 740.1384,-195.7588 678.2041,-185.5878"/>
<polygon fill="#191970" stroke="#191970" points="678.3889,-182.0713 667.9539,-183.9045 677.2545,-188.9788 678.3889,-182.0713"/>
</g>
<!-- Node24 -->
<g id="node22" class="node">
<title>Node24</title>
<g id="a_node22"><a xlink:href="MessageQueue_8hxx.html" target="_top" xlink:title="util/MessageQueue.hxx">
<polygon fill="none" stroke="#000000" points="1250.5,-168.5 1250.5,-187.5 1381.5,-187.5 1381.5,-168.5 1250.5,-168.5"/>
<text text-anchor="middle" x="1316" y="-175.5" font-family="Helvetica,sans-Serif" font-size="10.00" fill="#000000">util/MessageQueue.hxx</text>
</a>
</g>
</g>
<!-- Node15&#45;&gt;Node24 -->
<g id="edge26" class="edge">
<title>Node15&#45;&gt;Node24</title>
<path fill="none" stroke="#191970" d="M1029.2554,-224.8154C1089.0592,-215.0516 1183.661,-199.6064 1247.6997,-189.1511"/>
<polygon fill="#191970" stroke="#191970" points="1248.3998,-192.5832 1257.7051,-187.5175 1247.2718,-185.6747 1248.3998,-192.5832"/>
</g>
<!-- Node29 -->
<g id="node27" class="node">
<title>Node29</title>
<g id="a_node27"><a xlink:href="GameService_8inl_8hxx.html" target="_top" xlink:title="GameService.inl.hxx">
<polygon fill="none" stroke="#000000" points="914,-168.5 914,-187.5 1032,-187.5 1032,-168.5 914,-168.5"/>
<text text-anchor="middle" x="973" y="-175.5" font-family="Helvetica,sans-Serif" font-size="10.00" fill="#000000">GameService.inl.hxx</text>
</a>
</g>
</g>
<!-- Node15&#45;&gt;Node29 -->
<g id="edge33" class="edge">
<title>Node15&#45;&gt;Node29</title>
<path fill="none" stroke="#191970" d="M973,-224.2455C973,-216.9382 973,-206.6944 973,-197.7046"/>
<polygon fill="#191970" stroke="#191970" points="976.5001,-197.6426 973,-187.6427 969.5001,-197.6427 976.5001,-197.6426"/>
</g>
<!-- Node16&#45;&gt;Node7 -->
<g id="edge25" class="edge">
<title>Node16&#45;&gt;Node7</title>
<path fill="none" stroke="#191970" d="M596.2646,-174.1066C512.2611,-164.9545 300.9433,-141.9316 189.4414,-129.7835"/>
<polygon fill="#191970" stroke="#191970" points="189.6176,-126.2821 179.2974,-128.6783 188.8594,-133.2409 189.6176,-126.2821"/>
</g>
<!-- Node16&#45;&gt;Node9 -->
<g id="edge18" class="edge">
<title>Node16&#45;&gt;Node9</title>
<path fill="none" stroke="#191970" d="M667.6428,-170.866C731.0927,-158.15 857.1198,-132.8128 858,-132 870.7043,-120.2676 875.1121,-100.6457 876.5462,-85.8391"/>
<polygon fill="#191970" stroke="#191970" points="880.0513,-85.8557 877.1514,-75.6654 873.0637,-85.4399 880.0513,-85.8557"/>
</g>
<!-- Node16&#45;&gt;Node10 -->
<g id="edge20" class="edge">
<title>Node16&#45;&gt;Node10</title>
<path fill="none" stroke="#191970" d="M596.1879,-172.8582C558.539,-166.5692 498.1967,-153.951 450,-132 421.4146,-118.9809 392.2973,-97.234 373.9682,-82.2838"/>
<polygon fill="#191970" stroke="#191970" points="375.812,-79.2647 365.8866,-75.5585 371.3345,-84.6454 375.812,-79.2647"/>
</g>
<!-- Node17 -->
<g id="node18" class="node">
<title>Node17</title>
<polygon fill="none" stroke="#bfbfbf" points="749,-112.5 749,-131.5 849,-131.5 849,-112.5 749,-112.5"/>
<text text-anchor="middle" x="799" y="-119.5" font-family="Helvetica,sans-Serif" font-size="10.00" fill="#000000">betterEnums.hxx</text>
</g>
<!-- Node16&#45;&gt;Node17 -->
<g id="edge19" class="edge">
<title>Node16&#45;&gt;Node17</title>
<path fill="none" stroke="#191970" d="M660.7083,-168.3733C688.3577,-159.1016 730.3576,-145.0178 760.8166,-134.804"/>
<polygon fill="#191970" stroke="#191970" points="762.2979,-137.9989 770.6663,-131.5011 760.0724,-131.3621 762.2979,-137.9989"/>
</g>
<!-- Node18 -->
<g id="node19" class="node">
<title>Node18</title>
<g id="a_node19"><a xlink:href="TransitiveModel_8hxx.html" target="_top" xlink:title="util/TransitiveModel.hxx">
<polygon fill="none" stroke="#ff0000" points="597.5,-112.5 597.5,-131.5 730.5,-131.5 730.5,-112.5 597.5,-112.5"/>
<text text-anchor="middle" x="664" y="-119.5" font-family="Helvetica,sans-Serif" font-size="10.00" fill="#000000">util/TransitiveModel.hxx</text>
</a>
</g>
</g>
<!-- Node16&#45;&gt;Node18 -->
<g id="edge21" class="edge">
<title>Node16&#45;&gt;Node18</title>
<path fill="none" stroke="#191970" d="M637.574,-168.2455C641.9331,-160.617 648.1211,-149.7881 653.4133,-140.5267"/>
<polygon fill="#191970" stroke="#191970" points="656.5673,-142.0616 658.4899,-131.6427 650.4896,-138.5886 656.5673,-142.0616"/>
</g>
<!-- Node18&#45;&gt;Node10 -->
<g id="edge22" class="edge">
<title>Node18&#45;&gt;Node10</title>
<path fill="none" stroke="#191970" d="M611.2321,-112.4369C556.5145,-102.5204 471.1509,-87.05 414.1759,-76.7244"/>
<polygon fill="#191970" stroke="#191970" points="414.6971,-73.2619 404.2332,-74.9225 413.4487,-80.1497 414.6971,-73.2619"/>
</g>
<!-- Node22 -->
<g id="node20" class="node">
<title>Node22</title>
<polygon fill="none" stroke="#bfbfbf" points="553,-56.5 553,-75.5 591,-75.5 591,-56.5 553,-56.5"/>
<text text-anchor="middle" x="572" y="-63.5" font-family="Helvetica,sans-Serif" font-size="10.00" fill="#000000">map</text>
</g>
<!-- Node18&#45;&gt;Node22 -->
<g id="edge23" class="edge">
<title>Node18&#45;&gt;Node22</title>
<path fill="none" stroke="#191970" d="M647.9748,-112.2455C633.8592,-103.6534 613.0737,-91.0014 596.8101,-81.1018"/>
<polygon fill="#191970" stroke="#191970" points="598.2034,-77.8525 587.8415,-75.6427 594.5637,-83.8319 598.2034,-77.8525"/>
</g>
<!-- Node23 -->
<g id="node21" class="node">
<title>Node23</title>
<polygon fill="none" stroke="#bfbfbf" points="1238,-56.5 1238,-75.5 1292,-75.5 1292,-56.5 1238,-56.5"/>
<text text-anchor="middle" x="1265" y="-63.5" font-family="Helvetica,sans-Serif" font-size="10.00" fill="#000000">ciso646</text>
</g>
<!-- Node18&#45;&gt;Node23 -->
<g id="edge24" class="edge">
<title>Node18&#45;&gt;Node23</title>
<path fill="none" stroke="#191970" d="M730.7083,-113.056C733.8479,-112.6875 736.9573,-112.3333 740,-112 922.6948,-91.9864 1141.9189,-75.0589 1227.8641,-68.6965"/>
<polygon fill="#191970" stroke="#191970" points="1228.1947,-72.1817 1237.9103,-67.9561 1227.6801,-65.2006 1228.1947,-72.1817"/>
</g>
<!-- Node24&#45;&gt;Node4 -->
<g id="edge30" class="edge">
<title>Node24&#45;&gt;Node4</title>
<path fill="none" stroke="#191970" d="M1288.3231,-168.3733C1260.5363,-158.7083 1217.7157,-143.8142 1188.1362,-133.5256"/>
<polygon fill="#191970" stroke="#191970" points="1189.2482,-130.2068 1178.6534,-130.2273 1186.9485,-136.8183 1189.2482,-130.2068"/>
</g>
<!-- Node24&#45;&gt;Node23 -->
<g id="edge32" class="edge">
<title>Node24&#45;&gt;Node23</title>
<path fill="none" stroke="#191970" d="M1381.7477,-172.6338C1437.0139,-166.5971 1509.8271,-154.5389 1528,-132 1533.5793,-125.0802 1533.7184,-118.8053 1528,-112 1499.6117,-78.2155 1367.9684,-69.2399 1302.3656,-66.8583"/>
<polygon fill="#191970" stroke="#191970" points="1302.1623,-63.3498 1292.0525,-66.5188 1301.9318,-70.346 1302.1623,-63.3498"/>
</g>
<!-- Node25 -->
<g id="node23" class="node">
<title>Node25</title>
<polygon fill="none" stroke="#bfbfbf" points="1196.5,-112.5 1196.5,-131.5 1303.5,-131.5 1303.5,-112.5 1196.5,-112.5"/>
<text text-anchor="middle" x="1250" y="-119.5" font-family="Helvetica,sans-Serif" font-size="10.00" fill="#000000">condition_variable</text>
</g>
<!-- Node24&#45;&gt;Node25 -->
<g id="edge27" class="edge">
<title>Node24&#45;&gt;Node25</title>
<path fill="none" stroke="#191970" d="M1304.5037,-168.2455C1294.7558,-159.9746 1280.5741,-147.9416 1269.1202,-138.2232"/>
<polygon fill="#191970" stroke="#191970" points="1271.2541,-135.4437 1261.3646,-131.6427 1266.7253,-140.7813 1271.2541,-135.4437"/>
</g>
<!-- Node26 -->
<g id="node24" class="node">
<title>Node26</title>
<polygon fill="none" stroke="#bfbfbf" points="1322,-112.5 1322,-131.5 1370,-131.5 1370,-112.5 1322,-112.5"/>
<text text-anchor="middle" x="1346" y="-119.5" font-family="Helvetica,sans-Serif" font-size="10.00" fill="#000000">mutex</text>
</g>
<!-- Node24&#45;&gt;Node26 -->
<g id="edge28" class="edge">
<title>Node24&#45;&gt;Node26</title>
<path fill="none" stroke="#191970" d="M1321.2256,-168.2455C1325.3123,-160.617 1331.1135,-149.7881 1336.075,-140.5267"/>
<polygon fill="#191970" stroke="#191970" points="1339.1972,-142.1103 1340.8343,-131.6427 1333.0268,-138.8047 1339.1972,-142.1103"/>
</g>
<!-- Node27 -->
<g id="node25" class="node">
<title>Node27</title>
<polygon fill="none" stroke="#bfbfbf" points="1388.5,-112.5 1388.5,-131.5 1435.5,-131.5 1435.5,-112.5 1388.5,-112.5"/>
<text text-anchor="middle" x="1412" y="-119.5" font-family="Helvetica,sans-Serif" font-size="10.00" fill="#000000">deque</text>
</g>
<!-- Node24&#45;&gt;Node27 -->
<g id="edge29" class="edge">
<title>Node24&#45;&gt;Node27</title>
<path fill="none" stroke="#191970" d="M1332.7219,-168.2455C1347.5889,-159.5731 1369.5466,-146.7645 1386.5858,-136.825"/>
<polygon fill="#191970" stroke="#191970" points="1388.5955,-139.7047 1395.4697,-131.6427 1385.0683,-133.6582 1388.5955,-139.7047"/>
</g>
<!-- Node28 -->
<g id="node26" class="node">
<title>Node28</title>
<polygon fill="none" stroke="#bfbfbf" points="1453.5,-112.5 1453.5,-131.5 1518.5,-131.5 1518.5,-112.5 1453.5,-112.5"/>
<text text-anchor="middle" x="1486" y="-119.5" font-family="Helvetica,sans-Serif" font-size="10.00" fill="#000000">functional</text>
</g>
<!-- Node24&#45;&gt;Node28 -->
<g id="edge31" class="edge">
<title>Node24&#45;&gt;Node28</title>
<path fill="none" stroke="#191970" d="M1345.224,-168.3733C1373.4925,-159.0613 1416.4965,-144.8953 1447.5344,-134.671"/>
<polygon fill="#191970" stroke="#191970" points="1448.7544,-137.9542 1457.1573,-131.5011 1446.5643,-131.3056 1448.7544,-137.9542"/>
</g>
<!-- Node31&#45;&gt;Node9 -->
<g id="edge37" class="edge">
<title>Node31&#45;&gt;Node9</title>
<path fill="none" stroke="#191970" d="M442.364,-168.4092C439.0599,-154.0425 435.4479,-127.0209 450,-112 477.3816,-83.7363 749.9916,-70.8055 844.747,-67.1399"/>
<polygon fill="#191970" stroke="#191970" points="845.025,-70.632 854.8857,-66.757 844.7608,-63.637 845.025,-70.632"/>
</g>
<!-- Node31&#45;&gt;Node10 -->
<g id="edge39" class="edge">
<title>Node31&#45;&gt;Node10</title>
<path fill="none" stroke="#191970" d="M395.2965,-168.476C374.8633,-161.8489 353.1734,-150.6954 341,-132 331.8452,-117.9404 337.3175,-98.9524 343.9148,-84.9524"/>
<polygon fill="#191970" stroke="#191970" points="347.1795,-86.2631 348.7245,-75.7815 340.9803,-83.0119 347.1795,-86.2631"/>
</g>
<!-- Node32 -->
<g id="node30" class="node">
<title>Node32</title>
<g id="a_node30"><a xlink:href="Singleton_8hxx.html" target="_top" xlink:title="../../util/Singleton.hxx">
<polygon fill="none" stroke="#000000" points="459,-112.5 459,-131.5 579,-131.5 579,-112.5 459,-112.5"/>
<text text-anchor="middle" x="519" y="-119.5" font-family="Helvetica,sans-Serif" font-size="10.00" fill="#000000">../../util/Singleton.hxx</text>
</a>
</g>
</g>
<!-- Node31&#45;&gt;Node32 -->
<g id="edge38" class="edge">
<title>Node31&#45;&gt;Node32</title>
<path fill="none" stroke="#191970" d="M457.8898,-168.2455C468.9254,-159.8943 485.0292,-147.7076 497.9353,-137.9408"/>
<polygon fill="#191970" stroke="#191970" points="500.3959,-140.4681 506.2579,-131.6427 496.1717,-134.8862 500.3959,-140.4681"/>
</g>
<!-- Node33 -->
<g id="node31" class="node">
<title>Node33</title>
<polygon fill="none" stroke="#bfbfbf" points="235.5,-112.5 235.5,-131.5 288.5,-131.5 288.5,-112.5 235.5,-112.5"/>
<text text-anchor="middle" x="262" y="-119.5" font-family="Helvetica,sans-Serif" font-size="10.00" fill="#000000">cstddef</text>
</g>
<!-- Node31&#45;&gt;Node33 -->
<g id="edge40" class="edge">
<title>Node31&#45;&gt;Node33</title>
<path fill="none" stroke="#191970" d="M413.5412,-168.3733C381.5902,-158.5959 332.1514,-143.4671 298.4975,-133.1686"/>
<polygon fill="#191970" stroke="#191970" points="299.1833,-129.7183 288.5968,-130.1389 297.1349,-136.4119 299.1833,-129.7183"/>
</g>
<!-- Node34&#45;&gt;Node11 -->
<g id="edge42" class="edge">
<title>Node34&#45;&gt;Node11</title>
<path fill="none" stroke="#191970" d="M1877.227,-280.2504C1888.6966,-261.3274 1912,-217.9633 1912,-178 1912,-178 1912,-178 1912,-122 1912,-52.4051 1837.3048,-73.7065 1770,-56 1668.0428,-29.1771 1345.9805,-15.4523 1232.2526,-11.3486"/>
<polygon fill="#191970" stroke="#191970" points="1232.3415,-7.8496 1222.2235,-10.9923 1232.0929,-14.8452 1232.3415,-7.8496"/>
</g>
<!-- Node35 -->
<g id="node33" class="node">
<title>Node35</title>
<polygon fill="none" stroke="#bfbfbf" points="1940,-224.5 1940,-243.5 1990,-243.5 1990,-224.5 1940,-224.5"/>
<text text-anchor="middle" x="1965" y="-231.5" font-family="Helvetica,sans-Serif" font-size="10.00" fill="#000000">chrono</text>
</g>
<!-- Node34&#45;&gt;Node35 -->
<g id="edge43" class="edge">
<title>Node34&#45;&gt;Node35</title>
<path fill="none" stroke="#191970" d="M1887.3736,-280.2455C1901.9308,-271.5731 1923.431,-258.7645 1940.1152,-248.825"/>
<polygon fill="#191970" stroke="#191970" points="1942.0144,-251.7676 1948.8141,-243.6427 1938.4317,-245.7539 1942.0144,-251.7676"/>
</g>
<!-- Node36 -->
<g id="node34" class="node">
<title>Node36</title>
<polygon fill="none" stroke="#bfbfbf" points="1766,-224.5 1766,-243.5 1810,-243.5 1810,-224.5 1766,-224.5"/>
<text text-anchor="middle" x="1788" y="-231.5" font-family="Helvetica,sans-Serif" font-size="10.00" fill="#000000">ctime</text>
</g>
<!-- Node34&#45;&gt;Node36 -->
<g id="edge44" class="edge">
<title>Node34&#45;&gt;Node36</title>
<path fill="none" stroke="#191970" d="M1856.5425,-280.2455C1843.9268,-271.7337 1825.4056,-259.2375 1810.7955,-249.3801"/>
<polygon fill="#191970" stroke="#191970" points="1812.5391,-246.3343 1802.2918,-243.6427 1808.6239,-252.1371 1812.5391,-246.3343"/>
</g>
<!-- Node34&#45;&gt;Node37 -->
<g id="edge45" class="edge">
<title>Node34&#45;&gt;Node37</title>
<path fill="none" stroke="#191970" d="M1899.3645,-280.3733C1926.7655,-271.0735 1968.4313,-256.9324 1998.5471,-246.7113"/>
<polygon fill="#191970" stroke="#191970" points="1999.9357,-249.9362 2008.2802,-243.4079 1997.6859,-243.3075 1999.9357,-249.9362"/>
</g>
<!-- Node38 -->
<g id="node36" class="node">
<title>Node38</title>
<polygon fill="none" stroke="#bfbfbf" points="1828,-224.5 1828,-243.5 1884,-243.5 1884,-224.5 1828,-224.5"/>
<text text-anchor="middle" x="1856" y="-231.5" font-family="Helvetica,sans-Serif" font-size="10.00" fill="#000000">sstream</text>
</g>
<!-- Node34&#45;&gt;Node38 -->
<g id="edge46" class="edge">
<title>Node34&#45;&gt;Node38</title>
<path fill="none" stroke="#191970" d="M1868.3872,-280.2455C1866.4084,-272.8579 1863.6256,-262.4689 1861.1988,-253.4087"/>
<polygon fill="#191970" stroke="#191970" points="1864.5511,-252.3966 1858.5829,-243.6427 1857.7895,-254.2078 1864.5511,-252.3966"/>
</g>
<!-- Node39 -->
<g id="node37" class="node">
<title>Node39</title>
<polygon fill="none" stroke="#bfbfbf" points="1613,-112.5 1613,-131.5 1657,-131.5 1657,-112.5 1613,-112.5"/>
<text text-anchor="middle" x="1635" y="-119.5" font-family="Helvetica,sans-Serif" font-size="10.00" fill="#000000">SDL.h</text>
</g>
<!-- Node34&#45;&gt;Node39 -->
<g id="edge47" class="edge">
<title>Node34&#45;&gt;Node39</title>
<path fill="none" stroke="#191970" d="M1837.5949,-280.4617C1813.9043,-272.7848 1782.0084,-260.5447 1757,-244 1711.8591,-214.1364 1669.661,-165.6489 1648.7411,-139.7069"/>
<polygon fill="#191970" stroke="#191970" points="1651.2168,-137.1961 1642.2589,-131.5386 1645.7336,-141.5475 1651.2168,-137.1961"/>
</g>
<!-- Node40&#45;&gt;Node15 -->
<g id="edge51" class="edge">
<title>Node40&#45;&gt;Node15</title>
<path fill="none" stroke="#191970" d="M1645.6514,-336.4993C1508.3577,-315.5783 1180.9249,-265.6838 1039.706,-244.1647"/>
<polygon fill="#191970" stroke="#191970" points="1039.8729,-240.6498 1029.4597,-242.6034 1038.8183,-247.5699 1039.8729,-240.6498"/>
</g>
<!-- Node40&#45;&gt;Node34 -->
<g id="edge52" class="edge">
<title>Node40&#45;&gt;Node34</title>
<path fill="none" stroke="#191970" d="M1736.0207,-336.3733C1763.0078,-327.1016 1804.0017,-313.0178 1833.7311,-302.804"/>
<polygon fill="#191970" stroke="#191970" points="1835.0248,-306.0605 1843.3449,-299.5011 1832.7503,-299.4403 1835.0248,-306.0605"/>
</g>
<!-- Node41 -->
<g id="node39" class="node">
<title>Node41</title>
<polygon fill="none" stroke="#bfbfbf" points="1753,-280.5 1753,-299.5 1807,-299.5 1807,-280.5 1753,-280.5"/>
<text text-anchor="middle" x="1780" y="-287.5" font-family="Helvetica,sans-Serif" font-size="10.00" fill="#000000">random</text>
</g>
<!-- Node40&#45;&gt;Node41 -->
<g id="edge49" class="edge">
<title>Node40&#45;&gt;Node41</title>
<path fill="none" stroke="#191970" d="M1720.5414,-336.2455C1731.2787,-327.8943 1746.9473,-315.7076 1759.5047,-305.9408"/>
<polygon fill="#191970" stroke="#191970" points="1761.8575,-308.5449 1767.6023,-299.6427 1757.5599,-303.0194 1761.8575,-308.5449"/>
</g>
<!-- Node42 -->
<g id="node40" class="node">
<title>Node42</title>
<polygon fill="none" stroke="#bfbfbf" points="1681.5,-280.5 1681.5,-299.5 1734.5,-299.5 1734.5,-280.5 1681.5,-280.5"/>
<text text-anchor="middle" x="1708" y="-287.5" font-family="Helvetica,sans-Serif" font-size="10.00" fill="#000000">iterator</text>
</g>
<!-- Node40&#45;&gt;Node42 -->
<g id="edge50" class="edge">
<title>Node40&#45;&gt;Node42</title>
<path fill="none" stroke="#191970" d="M1708,-336.2455C1708,-328.9382 1708,-318.6944 1708,-309.7046"/>
<polygon fill="#191970" stroke="#191970" points="1711.5001,-309.6426 1708,-299.6427 1704.5001,-309.6427 1711.5001,-309.6426"/>
</g>
<!-- Node43&#45;&gt;Node1 -->
<g id="edge81" class="edge">
<title>Node43&#45;&gt;Node1</title>
<path fill="none" stroke="#191970" d="M1101.9856,-337.4948C990.9632,-325.9814 795.7557,-305.7376 700.0723,-295.8149"/>
<polygon fill="#191970" stroke="#191970" points="700.326,-292.3225 690.0182,-294.7723 699.6038,-299.2852 700.326,-292.3225"/>
</g>
<!-- Node43&#45;&gt;Node31 -->
<g id="edge80" class="edge">
<title>Node43&#45;&gt;Node31</title>
<path fill="none" stroke="#191970" d="M1101.8063,-340.7562C1013.7168,-334.161 880.2959,-321.0764 834,-300 787.5759,-278.8653 794.2106,-245.5976 748,-224 726.9461,-214.16 593.5018,-196.3257 510.88,-185.9921"/>
<polygon fill="#191970" stroke="#191970" points="511.1747,-182.5018 500.8188,-184.7393 510.3097,-189.4482 511.1747,-182.5018"/>
</g>
<!-- Node44 -->
<g id="node42" class="node">
<title>Node44</title>
<polygon fill="none" stroke="#bfbfbf" points="1017,-112.5 1017,-131.5 1075,-131.5 1075,-112.5 1017,-112.5"/>
<text text-anchor="middle" x="1046" y="-119.5" font-family="Helvetica,sans-Serif" font-size="10.00" fill="#000000">json.hxx</text>
</g>
<!-- Node43&#45;&gt;Node44 -->
<g id="edge54" class="edge">
<title>Node43&#45;&gt;Node44</title>
<path fill="none" stroke="#191970" d="M1142.2337,-336.4821C1072.3445,-319.6425 936.5279,-282.7057 908,-244 887.9438,-216.7885 885.1468,-195.3599 905,-168 908.1434,-163.6681 966.6962,-145.5548 1007.3479,-133.3918"/>
<polygon fill="#191970" stroke="#191970" points="1008.4136,-136.7264 1016.9972,-130.5156 1006.414,-130.018 1008.4136,-136.7264"/>
</g>
<!-- Node45 -->
<g id="node43" class="node">
<title>Node45</title>
<g id="a_node43"><a xlink:href="point_8hxx.html" target="_top" xlink:title="point.hxx">
<polygon fill="none" stroke="#000000" points="1809,-112.5 1809,-131.5 1871,-131.5 1871,-112.5 1809,-112.5"/>
<text text-anchor="middle" x="1840" y="-119.5" font-family="Helvetica,sans-Serif" font-size="10.00" fill="#000000">point.hxx</text>
</a>
</g>
</g>
<!-- Node43&#45;&gt;Node45 -->
<g id="edge55" class="edge">
<title>Node43&#45;&gt;Node45</title>
<path fill="none" stroke="#191970" d="M1226.2671,-336.426C1317.4577,-315.1247 1538.6798,-259.9631 1715,-188 1751.265,-173.1989 1790.8994,-151.1985 1815.6048,-136.7294"/>
<polygon fill="#191970" stroke="#191970" points="1817.4793,-139.6871 1824.3043,-131.5835 1813.9154,-133.6623 1817.4793,-139.6871"/>
</g>
<!-- Node46 -->
<g id="node44" class="node">
<title>Node46</title>
<g id="a_node44"><a xlink:href="MapNode_8hxx.html" target="_top" xlink:title="GameObjects/MapNode.hxx">
<polygon fill="none" stroke="#000000" points="1334,-224.5 1334,-243.5 1486,-243.5 1486,-224.5 1334,-224.5"/>
<text text-anchor="middle" x="1410" y="-231.5" font-family="Helvetica,sans-Serif" font-size="10.00" fill="#000000">GameObjects/MapNode.hxx</text>
</a>
</g>
</g>
<!-- Node43&#45;&gt;Node46 -->
<g id="edge56" class="edge">
<title>Node43&#45;&gt;Node46</title>
<path fill="none" stroke="#191970" d="M1203.2686,-336.4509C1243.131,-316.6961 1334.8216,-271.2565 1381.5305,-248.1088"/>
<polygon fill="#191970" stroke="#191970" points="1383.3742,-251.1014 1390.7801,-243.5249 1380.2659,-244.8293 1383.3742,-251.1014"/>
</g>
<!-- Node53 -->
<g id="node50" class="node">
<title>Node53</title>
<g id="a_node50"><a xlink:href="TerrainGenerator_8hxx.html" target="_top" xlink:title="TerrainGenerator.hxx">
<polygon fill="none" stroke="#000000" points="1124.5,-280.5 1124.5,-299.5 1243.5,-299.5 1243.5,-280.5 1124.5,-280.5"/>
<text text-anchor="middle" x="1184" y="-287.5" font-family="Helvetica,sans-Serif" font-size="10.00" fill="#000000">TerrainGenerator.hxx</text>
</a>
</g>
</g>
<!-- Node43&#45;&gt;Node53 -->
<g id="edge76" class="edge">
<title>Node43&#45;&gt;Node53</title>
<path fill="none" stroke="#191970" d="M1184,-336.2455C1184,-328.9382 1184,-318.6944 1184,-309.7046"/>
<polygon fill="#191970" stroke="#191970" points="1187.5001,-309.6426 1184,-299.6427 1180.5001,-309.6427 1187.5001,-309.6426"/>
</g>
<!-- Node46&#45;&gt;Node4 -->
<g id="edge61" class="edge">
<title>Node46&#45;&gt;Node4</title>
<path fill="none" stroke="#191970" d="M1354.7506,-224.4221C1321.0184,-217.2439 1277.6654,-205.5872 1242,-188 1215.647,-175.0048 1189.3155,-153.5542 1172.6383,-138.6491"/>
<polygon fill="#191970" stroke="#191970" points="1174.5915,-135.6926 1164.8483,-131.5307 1169.8695,-140.8602 1174.5915,-135.6926"/>
</g>
<!-- Node46&#45;&gt;Node5 -->
<g id="edge58" class="edge">
<title>Node46&#45;&gt;Node5</title>
<path fill="none" stroke="#191970" d="M1333.8037,-231.8011C1128.2989,-225.6775 565.7181,-207.5868 381,-188 231.7585,-172.175 159.9791,-231.9206 48,-132 35.097,-120.4864 30.7157,-100.8354 29.3418,-85.9624"/>
<polygon fill="#191970" stroke="#191970" points="32.8235,-85.5296 28.7861,-75.7343 25.8338,-85.9095 32.8235,-85.5296"/>
</g>
<!-- Node46&#45;&gt;Node9 -->
<g id="edge59" class="edge">
<title>Node46&#45;&gt;Node9</title>
<path fill="none" stroke="#191970" d="M1411.8763,-224.1522C1415.0654,-209.9466 1422.836,-183.6921 1439,-168 1472.532,-135.4469 1559.8603,-146.191 1528,-112 1506.6819,-89.1224 1037.8842,-71.4899 909.3423,-67.0727"/>
<polygon fill="#191970" stroke="#191970" points="909.439,-63.574 899.3257,-66.7317 909.2007,-70.57 909.439,-63.574"/>
</g>
<!-- Node46&#45;&gt;Node39 -->
<g id="edge57" class="edge">
<title>Node46&#45;&gt;Node39</title>
<path fill="none" stroke="#191970" d="M1415.6931,-224.3296C1424.7176,-209.8588 1443.6958,-182.7032 1467,-168 1509.2992,-141.3124 1567.0645,-129.9083 1602.6567,-125.1788"/>
<polygon fill="#191970" stroke="#191970" points="1603.4498,-128.6078 1612.949,-123.9158 1602.5971,-121.6599 1603.4498,-128.6078"/>
</g>
<!-- Node46&#45;&gt;Node45 -->
<g id="edge69" class="edge">
<title>Node46&#45;&gt;Node45</title>
<path fill="none" stroke="#191970" d="M1486.0309,-224.9798C1539.2866,-217.6395 1611.7699,-205.5896 1674,-188 1723.2247,-174.0864 1777.9273,-150.7045 1810.6157,-135.8305"/>
<polygon fill="#191970" stroke="#191970" points="1812.398,-138.8634 1820.0231,-131.5075 1809.4751,-132.5028 1812.398,-138.8634"/>
</g>
<!-- Node47 -->
<g id="node45" class="node">
<title>Node47</title>
<polygon fill="none" stroke="#bfbfbf" points="1476,-168.5 1476,-187.5 1540,-187.5 1540,-168.5 1476,-168.5"/>
<text text-anchor="middle" x="1508" y="-175.5" font-family="Helvetica,sans-Serif" font-size="10.00" fill="#000000">algorithm</text>
</g>
<!-- Node46&#45;&gt;Node47 -->
<g id="edge60" class="edge">
<title>Node46&#45;&gt;Node47</title>
<path fill="none" stroke="#191970" d="M1427.0703,-224.2455C1442.247,-215.5731 1464.6621,-202.7645 1482.0563,-192.825"/>
<polygon fill="#191970" stroke="#191970" points="1484.1794,-195.643 1491.1253,-187.6427 1480.7064,-189.5653 1484.1794,-195.643"/>
</g>
<!-- Node48 -->
<g id="node46" class="node">
<title>Node48</title>
<g id="a_node46"><a xlink:href="Sprite_8hxx.html" target="_top" xlink:title="../Sprite.hxx">
<polygon fill="none" stroke="#000000" points="1558.5,-168.5 1558.5,-187.5 1633.5,-187.5 1633.5,-168.5 1558.5,-168.5"/>
<text text-anchor="middle" x="1596" y="-175.5" font-family="Helvetica,sans-Serif" font-size="10.00" fill="#000000">../Sprite.hxx</text>
</a>
</g>
</g>
<!-- Node46&#45;&gt;Node48 -->
<g id="edge62" class="edge">
<title>Node46&#45;&gt;Node48</title>
<path fill="none" stroke="#191970" d="M1441.9745,-224.3733C1473.1713,-214.9807 1520.771,-200.6496 1554.7932,-190.4064"/>
<polygon fill="#191970" stroke="#191970" points="1555.8763,-193.7355 1564.4427,-187.5011 1553.8582,-187.0327 1555.8763,-193.7355"/>
</g>
<!-- Node49 -->
<g id="node47" class="node">
<title>Node49</title>
<g id="a_node47"><a xlink:href="enums_8hxx.html" target="_top" xlink:title="common/enums.hxx">
<polygon fill="none" stroke="#000000" points="1675,-112.5 1675,-131.5 1791,-131.5 1791,-112.5 1675,-112.5"/>
<text text-anchor="middle" x="1733" y="-119.5" font-family="Helvetica,sans-Serif" font-size="10.00" fill="#000000">common/enums.hxx</text>
</a>
</g>
</g>
<!-- Node46&#45;&gt;Node49 -->
<g id="edge68" class="edge">
<title>Node46&#45;&gt;Node49</title>
<path fill="none" stroke="#191970" d="M1486.2323,-227.448C1533.0063,-221.3884 1593.2623,-209.8446 1643,-188 1670.8997,-175.7465 1698.4857,-153.6406 1715.6144,-138.4115"/>
<polygon fill="#191970" stroke="#191970" points="1718.1004,-140.8815 1723.1385,-131.5612 1713.3878,-135.7054 1718.1004,-140.8815"/>
</g>
<!-- Node51 -->
<g id="node49" class="node">
<title>Node51</title>
<g id="a_node49"><a xlink:href="TileManager_8hxx.html" target="_top" xlink:title="../TileManager.hxx">
<polygon fill="none" stroke="#ff0000" points="1050,-168.5 1050,-187.5 1156,-187.5 1156,-168.5 1050,-168.5"/>
<text text-anchor="middle" x="1103" y="-175.5" font-family="Helvetica,sans-Serif" font-size="10.00" fill="#000000">../TileManager.hxx</text>
</a>
</g>
</g>
<!-- Node46&#45;&gt;Node51 -->
<g id="edge70" class="edge">
<title>Node46&#45;&gt;Node51</title>
<path fill="none" stroke="#191970" d="M1357.5736,-224.4369C1304.2603,-214.712 1221.6643,-199.6456 1165.1044,-189.3285"/>
<polygon fill="#191970" stroke="#191970" points="1165.6759,-185.8751 1155.2101,-187.5237 1164.4197,-192.7614 1165.6759,-185.8751"/>
</g>
<!-- Node48&#45;&gt;Node4 -->
<g id="edge64" class="edge">
<title>Node48&#45;&gt;Node4</title>
<path fill="none" stroke="#191970" d="M1558.3576,-169.6093C1555.2,-169.0217 1552.0499,-168.475 1549,-168 1392.9481,-143.6936 1347.9625,-162.7145 1188.802,-131.7798"/>
<polygon fill="#191970" stroke="#191970" points="1189.1421,-128.2792 1178.6527,-129.7702 1187.7824,-135.1459 1189.1421,-128.2792"/>
</g>
<!-- Node48&#45;&gt;Node39 -->
<g id="edge63" class="edge">
<title>Node48&#45;&gt;Node39</title>
<path fill="none" stroke="#191970" d="M1602.7933,-168.2455C1608.2178,-160.4564 1615.9661,-149.3308 1622.5033,-139.9439"/>
<polygon fill="#191970" stroke="#191970" points="1625.4417,-141.849 1628.2846,-131.6427 1619.6975,-137.8485 1625.4417,-141.849"/>
</g>
<!-- Node48&#45;&gt;Node45 -->
<g id="edge65" class="edge">
<title>Node48&#45;&gt;Node45</title>
<path fill="none" stroke="#191970" d="M1633.6593,-169.7825C1672.6418,-161.2154 1735.5506,-147.2211 1798.8291,-132.2434"/>
<polygon fill="#191970" stroke="#191970" points="1799.653,-135.6452 1808.5739,-129.9296 1798.0358,-128.8345 1799.653,-135.6452"/>
</g>
<!-- Node48&#45;&gt;Node49 -->
<g id="edge66" class="edge">
<title>Node48&#45;&gt;Node49</title>
<path fill="none" stroke="#191970" d="M1619.5511,-168.3733C1641.8391,-159.2629 1675.4937,-145.5062 1700.3637,-135.3404"/>
<polygon fill="#191970" stroke="#191970" points="1701.8239,-138.5247 1709.7562,-131.5011 1699.1753,-132.0451 1701.8239,-138.5247"/>
</g>
<!-- Node50 -->
<g id="node48" class="node">
<title>Node50</title>
<polygon fill="none" stroke="#bfbfbf" points="1705,-56.5 1705,-75.5 1761,-75.5 1761,-56.5 1705,-56.5"/>
<text text-anchor="middle" x="1733" y="-63.5" font-family="Helvetica,sans-Serif" font-size="10.00" fill="#000000">stddef.h</text>
</g>
<!-- Node49&#45;&gt;Node50 -->
<g id="edge67" class="edge">
<title>Node49&#45;&gt;Node50</title>
<path fill="none" stroke="#191970" d="M1733,-112.2455C1733,-104.9382 1733,-94.6944 1733,-85.7046"/>
<polygon fill="#191970" stroke="#191970" points="1736.5001,-85.6426 1733,-75.6427 1729.5001,-85.6427 1736.5001,-85.6426"/>
</g>
<!-- Node51&#45;&gt;Node3 -->
<g id="edge72" class="edge">
<title>Node51&#45;&gt;Node3</title>
<path fill="none" stroke="#191970" d="M1077.0422,-168.3733C1052.2593,-159.1822 1014.7254,-145.2624 987.246,-135.0713"/>
<polygon fill="#191970" stroke="#191970" points="988.2121,-131.6968 977.6191,-131.5011 985.7781,-138.26 988.2121,-131.6968"/>
</g>
<!-- Node51&#45;&gt;Node9 -->
<g id="edge73" class="edge">
<title>Node51&#45;&gt;Node9</title>
<path fill="none" stroke="#191970" d="M1103.1183,-168.3701C1102.7437,-153.9523 1099.8105,-126.8649 1084,-112 1059.033,-88.5261 960.9018,-74.8661 909.2271,-69.1607"/>
<polygon fill="#191970" stroke="#191970" points="909.5629,-65.6768 899.2476,-68.0942 908.819,-72.6371 909.5629,-65.6768"/>
</g>
<!-- Node51&#45;&gt;Node32 -->
<g id="edge75" class="edge">
<title>Node51&#45;&gt;Node32</title>
<path fill="none" stroke="#191970" d="M1049.9397,-169.1541C1046.9186,-168.7401 1043.9227,-168.3515 1041,-168 844.1409,-144.3236 790.994,-153.937 589.3276,-131.963"/>
<polygon fill="#191970" stroke="#191970" points="589.6219,-128.4744 579.2987,-130.8577 588.855,-135.4322 589.6219,-128.4744"/>
</g>
<!-- Node51&#45;&gt;Node39 -->
<g id="edge71" class="edge">
<title>Node51&#45;&gt;Node39</title>
<path fill="none" stroke="#191970" d="M1156.446,-172.3741C1266.2079,-160.8202 1514.1452,-134.7216 1602.7596,-125.3937"/>
<polygon fill="#191970" stroke="#191970" points="1603.1778,-128.8691 1612.7565,-124.3414 1602.445,-121.9076 1603.1778,-128.8691"/>
</g>
<!-- Node51&#45;&gt;Node44 -->
<g id="edge74" class="edge">
<title>Node51&#45;&gt;Node44</title>
<path fill="none" stroke="#191970" d="M1093.0714,-168.2455C1084.8162,-160.1352 1072.8791,-148.4075 1063.0918,-138.7919"/>
<polygon fill="#191970" stroke="#191970" points="1065.4011,-136.1542 1055.8149,-131.6427 1060.4954,-141.1476 1065.4011,-136.1542"/>
</g>
<!-- Node53&#45;&gt;Node4 -->
<g id="edge79" class="edge">
<title>Node53&#45;&gt;Node4</title>
<path fill="none" stroke="#191970" d="M1182.7137,-280.4758C1179.8899,-259.8875 1172.7772,-209.7244 1165,-168 1163.3939,-159.3832 1161.3784,-149.9127 1159.5784,-141.8161"/>
<polygon fill="#191970" stroke="#191970" points="1162.9403,-140.8149 1157.3161,-131.8361 1156.1135,-142.3625 1162.9403,-140.8149"/>
</g>
<!-- Node53&#45;&gt;Node22 -->
<g id="edge78" class="edge">
<title>Node53&#45;&gt;Node22</title>
<path fill="none" stroke="#191970" d="M1126.0915,-280.4885C1070.2291,-271.2801 983.2975,-256.8631 908,-244 836.8391,-231.8435 657.3929,-207.9069 588,-188 556.1877,-178.8739 468.4859,-159.4514 450,-132 425.2095,-95.1862 499.3478,-77.1712 542.8191,-69.9681"/>
<polygon fill="#191970" stroke="#191970" points="543.5316,-73.3994 552.874,-68.4023 542.4545,-66.4827 543.5316,-73.3994"/>
</g>
<!-- Node53&#45;&gt;Node46 -->
<g id="edge77" class="edge">
<title>Node53&#45;&gt;Node46</title>
<path fill="none" stroke="#191970" d="M1222.594,-280.4369C1261.0284,-270.9133 1320.136,-256.2672 1361.671,-245.9753"/>
<polygon fill="#191970" stroke="#191970" points="1362.7006,-249.3261 1371.5652,-243.5237 1361.0169,-242.5316 1362.7006,-249.3261"/>
</g>
</g>
</svg>
