<?xml version="1.0" encoding="UTF-8" standalone="no"?>
<!DOCTYPE svg PUBLIC "-//W3C//DTD SVG 1.1//EN"
 "http://www.w3.org/Graphics/SVG/1.1/DTD/svg11.dtd">
<!-- Generated by graphviz version 2.40.1 (20161225.0304)
 -->
<!-- Title: src/engine/ui/basics/ButtonGroup.cxx Pages: 1 -->
<!--zoomable 543 -->
<svg id="main" version="1.1" xmlns="http://www.w3.org/2000/svg" xmlns:xlink="http://www.w3.org/1999/xlink" xml:space="preserve" onload="init(evt)">
<style type="text/css"><![CDATA[
.edge:hover path { stroke: red; }
.edge:hover polygon { stroke: red; fill: red; }
]]></style>
<script type="text/javascript"><![CDATA[
var edges = document.getElementsByTagName('g');
if (edges && edges.length) {
  for (var i=0;i<edges.length;i++) {
    if (edges[i].id.substr(0,4)=='edge') {
      edges[i].setAttribute('class','edge');
    }
  }
}
]]></script>
        <defs>
                <circle id="rim" cx="0" cy="0" r="7"/>
                <circle id="rim2" cx="0" cy="0" r="3.5"/>
                <g id="zoomPlus">
                        <use xlink:href="#rim" fill="#404040">
                                <set attributeName="fill" to="#808080" begin="zoomplus.mouseover" end="zoomplus.mouseout"/>
                        </use>
                        <path d="M-4,0h8M0,-4v8" fill="none" stroke="white" stroke-width="1.5" pointer-events="none"/>
                </g>
                <g id="zoomMin">
                        <use xlink:href="#rim" fill="#404040">
                                <set attributeName="fill" to="#808080" begin="zoomminus.mouseover" end="zoomminus.mouseout"/>
                        </use>
                        <path d="M-4,0h8" fill="none" stroke="white" stroke-width="1.5" pointer-events="none"/>
                </g>
                <g id="dirArrow">
                        <path fill="none" stroke="white" stroke-width="1.5" d="M0,-3.0v7 M-2.5,-0.5L0,-3.0L2.5,-0.5"/>
                </g>
               <g id="resetDef">
                       <use xlink:href="#rim2" fill="#404040">
                               <set attributeName="fill" to="#808080" begin="reset.mouseover" end="reset.mouseout"/>
                       </use>
               </g>
        </defs>

<script type="text/javascript">
var viewWidth = 1160;
var viewHeight = 543;
var sectionId = 'dynsection-0';
</script>
<script xlink:href="svgpan.js"/>
<svg id="graph" class="graph">
<g id="viewport">
<title>src/engine/ui/basics/ButtonGroup.cxx</title>
<!-- Node0 -->
<g id="node1" class="node">
<title>Node0</title>
<polygon fill="#bfbfbf" stroke="#000000" points="541.5,-504.5 541.5,-534.5 654.5,-534.5 654.5,-504.5 541.5,-504.5"/>
<text text-anchor="start" x="549.5" y="-522.5" font-family="Helvetica,sans-Serif" font-size="10.00" fill="#000000">src/engine/ui/basics</text>
<text text-anchor="middle" x="598" y="-511.5" font-family="Helvetica,sans-Serif" font-size="10.00" fill="#000000">/ButtonGroup.cxx</text>
</g>
<!-- Node1 -->
<g id="node2" class="node">
<title>Node1</title>
<g id="a_node2"><a xlink:href="ButtonGroup_8hxx.html" target="_top" xlink:title="ButtonGroup.hxx">
<polygon fill="none" stroke="#000000" points="896.5,-392.5 896.5,-411.5 995.5,-411.5 995.5,-392.5 896.5,-392.5"/>
<text text-anchor="middle" x="946" y="-399.5" font-family="Helvetica,sans-Serif" font-size="10.00" fill="#000000">ButtonGroup.hxx</text>
</a>
</g>
</g>
<!-- Node0&#45;&gt;Node1 -->
<g id="edge1" class="edge">
<title>Node0&#45;&gt;Node1</title>
<path fill="none" stroke="#191970" d="M642.4279,-504.4992C711.3043,-481.2435 842.6712,-436.8883 907.6484,-414.9492"/>
<polygon fill="#191970" stroke="#191970" points="909.1322,-418.1424 917.4871,-411.6272 906.8929,-411.5102 909.1322,-418.1424"/>
</g>
<!-- Node22 -->
<g id="node23" class="node">
<title>Node22</title>
<g id="a_node23"><a xlink:href="UIManager_8hxx.html" target="_top" xlink:title="../../UIManager.hxx">
<polygon fill="none" stroke="#000000" points="503.5,-448.5 503.5,-467.5 610.5,-467.5 610.5,-448.5 503.5,-448.5"/>
<text text-anchor="middle" x="557" y="-455.5" font-family="Helvetica,sans-Serif" font-size="10.00" fill="#000000">../../UIManager.hxx</text>
</a>
</g>
</g>
<!-- Node0&#45;&gt;Node22 -->
<g id="edge36" class="edge">
<title>Node0&#45;&gt;Node22</title>
<path fill="none" stroke="#191970" d="M587.8652,-504.2977C582.2332,-495.8498 575.1849,-485.2773 569.246,-476.369"/>
<polygon fill="#191970" stroke="#191970" points="572.0238,-474.226 563.5646,-467.8469 566.1995,-478.1089 572.0238,-474.226"/>
</g>
<!-- Node2 -->
<g id="node3" class="node">
<title>Node2</title>
<g id="a_node3"><a xlink:href="UIElement_8hxx.html" target="_top" xlink:title="UIElement.hxx">
<polygon fill="none" stroke="#000000" points="519.5,-224.5 519.5,-243.5 608.5,-243.5 608.5,-224.5 519.5,-224.5"/>
<text text-anchor="middle" x="564" y="-231.5" font-family="Helvetica,sans-Serif" font-size="10.00" fill="#000000">UIElement.hxx</text>
</a>
</g>
</g>
<!-- Node1&#45;&gt;Node2 -->
<g id="edge2" class="edge">
<title>Node1&#45;&gt;Node2</title>
<path fill="none" stroke="#191970" d="M959.3878,-392.4242C975.5762,-379.6213 999.2241,-356.1947 987,-336 959.2054,-290.0822 931.0611,-296.5456 880,-280 791.3238,-251.2658 682.8157,-240.4331 618.7798,-236.382"/>
<polygon fill="#191970" stroke="#191970" points="618.7012,-232.8711 608.5098,-235.7666 618.2824,-239.8586 618.7012,-232.8711"/>
</g>
<!-- Node20 -->
<g id="node21" class="node">
<title>Node20</title>
<g id="a_node21"><a xlink:href="Button_8hxx.html" target="_top" xlink:title="../widgets/Button.hxx">
<polygon fill="none" stroke="#000000" points="858,-336.5 858,-355.5 978,-355.5 978,-336.5 858,-336.5"/>
<text text-anchor="middle" x="918" y="-343.5" font-family="Helvetica,sans-Serif" font-size="10.00" fill="#000000">../widgets/Button.hxx</text>
</a>
</g>
</g>
<!-- Node1&#45;&gt;Node20 -->
<g id="edge31" class="edge">
<title>Node1&#45;&gt;Node20</title>
<path fill="none" stroke="#191970" d="M941.1228,-392.2455C937.3487,-384.6973 932.0079,-374.0158 927.4099,-364.8197"/>
<polygon fill="#191970" stroke="#191970" points="930.424,-363.0217 922.8213,-355.6427 924.163,-366.1522 930.424,-363.0217"/>
</g>
<!-- Node3 -->
<g id="node4" class="node">
<title>Node3</title>
<polygon fill="none" stroke="#bfbfbf" points="452,-.5 452,-19.5 496,-19.5 496,-.5 452,-.5"/>
<text text-anchor="middle" x="474" y="-7.5" font-family="Helvetica,sans-Serif" font-size="10.00" fill="#000000">string</text>
</g>
<!-- Node2&#45;&gt;Node3 -->
<g id="edge3" class="edge">
<title>Node2&#45;&gt;Node3</title>
<path fill="none" stroke="#191970" d="M565.6891,-224.3318C571.7183,-189.2706 591.3345,-70.1217 582,-56 565.3077,-30.7469 531.6274,-19.3124 506.2921,-14.1624"/>
<polygon fill="#191970" stroke="#191970" points="506.824,-10.7019 496.3616,-12.3719 505.5818,-17.5909 506.824,-10.7019"/>
</g>
<!-- Node4 -->
<g id="node5" class="node">
<title>Node4</title>
<g id="a_node5"><a xlink:href="mapEdit_8hxx.html" target="_top" xlink:title="../../basics/mapEdit.hxx">
<polygon fill="none" stroke="#000000" points="630,-56.5 630,-75.5 760,-75.5 760,-56.5 630,-56.5"/>
<text text-anchor="middle" x="695" y="-63.5" font-family="Helvetica,sans-Serif" font-size="10.00" fill="#000000">../../basics/mapEdit.hxx</text>
</a>
</g>
</g>
<!-- Node2&#45;&gt;Node4 -->
<g id="edge4" class="edge">
<title>Node2&#45;&gt;Node4</title>
<path fill="none" stroke="#191970" d="M566.4434,-224.3927C572.4588,-202.311 589.8091,-147.1456 621,-112 632.7785,-98.7281 649.3003,-87.9606 663.7452,-80.1891"/>
<polygon fill="#191970" stroke="#191970" points="665.5611,-83.1915 672.867,-75.5185 662.3708,-76.9608 665.5611,-83.1915"/>
</g>
<!-- Node5 -->
<g id="node6" class="node">
<title>Node5</title>
<g id="a_node6"><a xlink:href="ResourcesManager_8hxx.html" target="_top" xlink:title="../../ResourcesManager.hxx">
<polygon fill="none" stroke="#000000" points="376,-168.5 376,-187.5 522,-187.5 522,-168.5 376,-168.5"/>
<text text-anchor="middle" x="449" y="-175.5" font-family="Helvetica,sans-Serif" font-size="10.00" fill="#000000">../../ResourcesManager.hxx</text>
</a>
</g>
</g>
<!-- Node2&#45;&gt;Node5 -->
<g id="edge6" class="edge">
<title>Node2&#45;&gt;Node5</title>
<path fill="none" stroke="#191970" d="M544.2308,-224.3733C525.8531,-215.4241 498.2688,-201.9917 477.5107,-191.8835"/>
<polygon fill="#191970" stroke="#191970" points="479.0343,-188.7325 468.5112,-187.5011 475.9696,-195.026 479.0343,-188.7325"/>
</g>
<!-- Node8 -->
<g id="node9" class="node">
<title>Node8</title>
<polygon fill="none" stroke="#bfbfbf" points="208,-56.5 208,-75.5 252,-75.5 252,-56.5 208,-56.5"/>
<text text-anchor="middle" x="230" y="-63.5" font-family="Helvetica,sans-Serif" font-size="10.00" fill="#000000">SDL.h</text>
</g>
<!-- Node2&#45;&gt;Node8 -->
<g id="edge30" class="edge">
<title>Node2&#45;&gt;Node8</title>
<path fill="none" stroke="#191970" d="M519.2505,-229.5619C456.8859,-221.1219 343.7716,-197.3096 275,-132 260.4562,-118.1884 247.9831,-98.9178 239.8827,-84.7643"/>
<polygon fill="#191970" stroke="#191970" points="242.8957,-82.9799 235.0017,-75.9133 236.7659,-86.3602 242.8957,-82.9799"/>
</g>
<!-- Node13 -->
<g id="node14" class="node">
<title>Node13</title>
<g id="a_node14"><a xlink:href="WindowManager_8hxx.html" target="_top" xlink:title="../../WindowManager.hxx">
<polygon fill="none" stroke="#000000" points="146,-168.5 146,-187.5 282,-187.5 282,-168.5 146,-168.5"/>
<text text-anchor="middle" x="214" y="-175.5" font-family="Helvetica,sans-Serif" font-size="10.00" fill="#000000">../../WindowManager.hxx</text>
</a>
</g>
</g>
<!-- Node2&#45;&gt;Node13 -->
<g id="edge18" class="edge">
<title>Node2&#45;&gt;Node13</title>
<path fill="none" stroke="#191970" d="M519.3168,-226.8507C459.7715,-217.3234 353.7877,-200.366 283.6916,-189.1507"/>
<polygon fill="#191970" stroke="#191970" points="284.0472,-185.6631 273.6198,-187.5392 282.9412,-192.5752 284.0472,-185.6631"/>
</g>
<!-- Node15 -->
<g id="node16" class="node">
<title>Node15</title>
<g id="a_node16"><a xlink:href="signal_8hxx.html" target="_top" xlink:title="../../basics/signal.hxx">
<polygon fill="none" stroke="#000000" points="673.5,-168.5 673.5,-187.5 792.5,-187.5 792.5,-168.5 673.5,-168.5"/>
<text text-anchor="middle" x="733" y="-175.5" font-family="Helvetica,sans-Serif" font-size="10.00" fill="#000000">../../basics/signal.hxx</text>
</a>
</g>
</g>
<!-- Node2&#45;&gt;Node15 -->
<g id="edge24" class="edge">
<title>Node2&#45;&gt;Node15</title>
<path fill="none" stroke="#191970" d="M593.0521,-224.3733C621.1543,-215.0613 663.9054,-200.8953 694.7607,-190.671"/>
<polygon fill="#191970" stroke="#191970" points="695.9355,-193.969 704.327,-187.5011 693.7336,-187.3243 695.9355,-193.969"/>
</g>
<!-- Node4&#45;&gt;Node3 -->
<g id="edge5" class="edge">
<title>Node4&#45;&gt;Node3</title>
<path fill="none" stroke="#191970" d="M657.2599,-56.4369C614.6179,-45.6317 545.9527,-28.2324 505.8867,-18.0799"/>
<polygon fill="#191970" stroke="#191970" points="506.6631,-14.6661 496.1097,-15.6025 504.9436,-21.4516 506.6631,-14.6661"/>
</g>
<!-- Node6 -->
<g id="node7" class="node">
<title>Node6</title>
<polygon fill="none" stroke="#bfbfbf" points="284,-112.5 284,-131.5 344,-131.5 344,-112.5 284,-112.5"/>
<text text-anchor="middle" x="314" y="-119.5" font-family="Helvetica,sans-Serif" font-size="10.00" fill="#000000">iostream</text>
</g>
<!-- Node5&#45;&gt;Node6 -->
<g id="edge7" class="edge">
<title>Node5&#45;&gt;Node6</title>
<path fill="none" stroke="#191970" d="M425.7927,-168.3733C403.8301,-159.2629 370.6668,-145.5062 346.1599,-135.3404"/>
<polygon fill="#191970" stroke="#191970" points="347.4824,-132.0999 336.9045,-131.5011 344.8003,-138.5657 347.4824,-132.0999"/>
</g>
<!-- Node7 -->
<g id="node8" class="node">
<title>Node7</title>
<polygon fill="none" stroke="#bfbfbf" points="480.5,-56.5 480.5,-75.5 573.5,-75.5 573.5,-56.5 480.5,-56.5"/>
<text text-anchor="middle" x="527" y="-63.5" font-family="Helvetica,sans-Serif" font-size="10.00" fill="#000000">unordered_map</text>
</g>
<!-- Node5&#45;&gt;Node7 -->
<g id="edge8" class="edge">
<title>Node5&#45;&gt;Node7</title>
<path fill="none" stroke="#191970" d="M465.4611,-168.4748C478.2184,-160.3061 495.4463,-147.4288 506,-132 515.5349,-118.0605 520.9285,-99.5499 523.8549,-85.68"/>
<polygon fill="#191970" stroke="#191970" points="527.3183,-86.1988 525.7048,-75.7275 520.4362,-84.9195 527.3183,-86.1988"/>
</g>
<!-- Node5&#45;&gt;Node8 -->
<g id="edge9" class="edge">
<title>Node5&#45;&gt;Node8</title>
<path fill="none" stroke="#191970" d="M437.1786,-168.4488C419.6334,-154.6128 385.2905,-128.8142 353,-112 323.3196,-96.5449 287.2399,-83.6906 261.8559,-75.5353"/>
<polygon fill="#191970" stroke="#191970" points="262.6072,-72.1025 252.0176,-72.4375 260.5048,-78.7793 262.6072,-72.1025"/>
</g>
<!-- Node9 -->
<g id="node10" class="node">
<title>Node9</title>
<g id="a_node10"><a xlink:href="TileManager_8hxx.html" target="_top" xlink:title="TileManager.hxx">
<polygon fill="none" stroke="#000000" points="400.5,-112.5 400.5,-131.5 497.5,-131.5 497.5,-112.5 400.5,-112.5"/>
<text text-anchor="middle" x="449" y="-119.5" font-family="Helvetica,sans-Serif" font-size="10.00" fill="#000000">TileManager.hxx</text>
</a>
</g>
</g>
<!-- Node5&#45;&gt;Node9 -->
<g id="edge10" class="edge">
<title>Node5&#45;&gt;Node9</title>
<path fill="none" stroke="#191970" d="M449,-168.2455C449,-160.9382 449,-150.6944 449,-141.7046"/>
<polygon fill="#191970" stroke="#191970" points="452.5001,-141.6426 449,-131.6427 445.5001,-141.6427 452.5001,-141.6426"/>
</g>
<!-- Node9&#45;&gt;Node3 -->
<g id="edge13" class="edge">
<title>Node9&#45;&gt;Node3</title>
<path fill="none" stroke="#191970" d="M400.1673,-113.4783C361.2161,-105.5694 311.2256,-92.5367 299,-76 293.7157,-68.8523 293.572,-63.0391 299,-56 316.3072,-33.5556 396.1611,-19.8974 441.7895,-13.7904"/>
<polygon fill="#191970" stroke="#191970" points="442.3139,-17.2518 451.7834,-12.5001 441.4176,-10.3094 442.3139,-17.2518"/>
</g>
<!-- Node9&#45;&gt;Node7 -->
<g id="edge12" class="edge">
<title>Node9&#45;&gt;Node7</title>
<path fill="none" stroke="#191970" d="M462.5866,-112.2455C474.3305,-103.814 491.5199,-91.4729 505.1882,-81.6598"/>
<polygon fill="#191970" stroke="#191970" points="507.4871,-84.3179 513.5691,-75.6427 503.4046,-78.6316 507.4871,-84.3179"/>
</g>
<!-- Node9&#45;&gt;Node8 -->
<g id="edge11" class="edge">
<title>Node9&#45;&gt;Node8</title>
<path fill="none" stroke="#191970" d="M410.0165,-112.4965C372.9189,-103.3829 315.5633,-89.1109 266,-76 264.7301,-75.6641 263.4359,-75.3187 262.1291,-74.9676"/>
<polygon fill="#191970" stroke="#191970" points="262.63,-71.4763 252.0613,-72.2209 260.7875,-78.2295 262.63,-71.4763"/>
</g>
<!-- Node10 -->
<g id="node11" class="node">
<title>Node10</title>
<g id="a_node11"><a xlink:href="tileData_8hxx.html" target="_top" xlink:title="tileData.hxx">
<polygon fill="none" stroke="#000000" points="308.5,-56.5 308.5,-75.5 385.5,-75.5 385.5,-56.5 308.5,-56.5"/>
<text text-anchor="middle" x="347" y="-63.5" font-family="Helvetica,sans-Serif" font-size="10.00" fill="#000000">tileData.hxx</text>
</a>
</g>
</g>
<!-- Node9&#45;&gt;Node10 -->
<g id="edge14" class="edge">
<title>Node9&#45;&gt;Node10</title>
<path fill="none" stroke="#191970" d="M431.233,-112.2455C415.2905,-103.4928 391.6741,-90.527 373.5011,-80.5496"/>
<polygon fill="#191970" stroke="#191970" points="375.0137,-77.3873 364.5634,-75.6427 371.6448,-83.5233 375.0137,-77.3873"/>
</g>
<!-- Node11 -->
<g id="node12" class="node">
<title>Node11</title>
<polygon fill="none" stroke="#bfbfbf" points="404,-56.5 404,-75.5 462,-75.5 462,-56.5 404,-56.5"/>
<text text-anchor="middle" x="433" y="-63.5" font-family="Helvetica,sans-Serif" font-size="10.00" fill="#000000">json.hxx</text>
</g>
<!-- Node9&#45;&gt;Node11 -->
<g id="edge16" class="edge">
<title>Node9&#45;&gt;Node11</title>
<path fill="none" stroke="#191970" d="M446.213,-112.2455C444.1023,-104.8579 441.134,-94.4689 438.5453,-85.4087"/>
<polygon fill="#191970" stroke="#191970" points="441.8677,-84.2964 435.755,-75.6427 435.137,-86.2195 441.8677,-84.2964"/>
</g>
<!-- Node12 -->
<g id="node13" class="node">
<title>Node12</title>
<g id="a_node13"><a xlink:href="Singleton_8hxx.html" target="_top" xlink:title="Singleton.hxx">
<polygon fill="none" stroke="#000000" points="68.5,-56.5 68.5,-75.5 151.5,-75.5 151.5,-56.5 68.5,-56.5"/>
<text text-anchor="middle" x="110" y="-63.5" font-family="Helvetica,sans-Serif" font-size="10.00" fill="#000000">Singleton.hxx</text>
</a>
</g>
</g>
<!-- Node9&#45;&gt;Node12 -->
<g id="edge17" class="edge">
<title>Node9&#45;&gt;Node12</title>
<path fill="none" stroke="#191970" d="M400.4296,-113.9766C336.9991,-103.4984 226.424,-85.2323 161.5541,-74.5163"/>
<polygon fill="#191970" stroke="#191970" points="161.9863,-71.0403 151.5495,-72.8636 160.8453,-77.9467 161.9863,-71.0403"/>
</g>
<!-- Node10&#45;&gt;Node3 -->
<g id="edge15" class="edge">
<title>Node10&#45;&gt;Node3</title>
<path fill="none" stroke="#191970" d="M368.8321,-56.3733C389.3103,-47.3435 420.1399,-33.7494 443.1319,-23.6111"/>
<polygon fill="#191970" stroke="#191970" points="444.715,-26.7383 452.4528,-19.5011 441.8907,-20.3333 444.715,-26.7383"/>
</g>
<!-- Node13&#45;&gt;Node3 -->
<g id="edge19" class="edge">
<title>Node13&#45;&gt;Node3</title>
<path fill="none" stroke="#191970" d="M208.5613,-168.3966C196.5886,-145.8391 171.1465,-88.8996 199,-56 214.5499,-37.633 371.8823,-20.0437 441.3402,-13.1069"/>
<polygon fill="#191970" stroke="#191970" points="442.0894,-16.5501 451.6981,-12.0865 441.4031,-9.5838 442.0894,-16.5501"/>
</g>
<!-- Node13&#45;&gt;Node6 -->
<g id="edge20" class="edge">
<title>Node13&#45;&gt;Node6</title>
<path fill="none" stroke="#191970" d="M231.4187,-168.2455C247.0485,-159.4928 270.2019,-146.527 288.0185,-136.5496"/>
<polygon fill="#191970" stroke="#191970" points="289.766,-139.5825 296.7809,-131.6427 286.3457,-133.475 289.766,-139.5825"/>
</g>
<!-- Node13&#45;&gt;Node8 -->
<g id="edge22" class="edge">
<title>Node13&#45;&gt;Node8</title>
<path fill="none" stroke="#191970" d="M215.3642,-168.4509C217.9737,-150.184 223.7207,-109.9553 227.1861,-85.6976"/>
<polygon fill="#191970" stroke="#191970" points="230.6898,-85.9194 228.6393,-75.5249 223.7602,-84.9294 230.6898,-85.9194"/>
</g>
<!-- Node13&#45;&gt;Node12 -->
<g id="edge23" class="edge">
<title>Node13&#45;&gt;Node12</title>
<path fill="none" stroke="#191970" d="M203.3987,-168.4284C193.4657,-159.3248 178.3411,-145.1114 166,-132 151.1301,-116.202 135.2213,-97.2313 124.1748,-83.6911"/>
<polygon fill="#191970" stroke="#191970" points="126.6901,-81.2356 117.6776,-75.6655 121.2494,-85.6401 126.6901,-81.2356"/>
</g>
<!-- Node14 -->
<g id="node15" class="node">
<title>Node14</title>
<polygon fill="none" stroke="#bfbfbf" points="66.5,-112.5 66.5,-131.5 113.5,-131.5 113.5,-112.5 66.5,-112.5"/>
<text text-anchor="middle" x="90" y="-119.5" font-family="Helvetica,sans-Serif" font-size="10.00" fill="#000000">vector</text>
</g>
<!-- Node13&#45;&gt;Node14 -->
<g id="edge21" class="edge">
<title>Node13&#45;&gt;Node14</title>
<path fill="none" stroke="#191970" d="M192.6836,-168.3733C172.7784,-159.3838 142.8564,-145.8706 120.44,-135.7471"/>
<polygon fill="#191970" stroke="#191970" points="121.5925,-132.4272 111.0382,-131.5011 118.7113,-138.8068 121.5925,-132.4272"/>
</g>
<!-- Node15&#45;&gt;Node14 -->
<g id="edge28" class="edge">
<title>Node15&#45;&gt;Node14</title>
<path fill="none" stroke="#191970" d="M673.3734,-172.807C541.219,-161.2975 227.2172,-133.9505 123.7272,-124.9374"/>
<polygon fill="#191970" stroke="#191970" points="123.8142,-121.4318 113.5482,-124.0509 123.2067,-128.4054 123.8142,-121.4318"/>
</g>
<!-- Node16 -->
<g id="node17" class="node">
<title>Node16</title>
<polygon fill="none" stroke="#bfbfbf" points="630,-112.5 630,-131.5 688,-131.5 688,-112.5 630,-112.5"/>
<text text-anchor="middle" x="659" y="-119.5" font-family="Helvetica,sans-Serif" font-size="10.00" fill="#000000">memory</text>
</g>
<!-- Node15&#45;&gt;Node16 -->
<g id="edge25" class="edge">
<title>Node15&#45;&gt;Node16</title>
<path fill="none" stroke="#191970" d="M720.1102,-168.2455C709.0746,-159.8943 692.9708,-147.7076 680.0647,-137.9408"/>
<polygon fill="#191970" stroke="#191970" points="681.8283,-134.8862 671.7421,-131.6427 677.6041,-140.4681 681.8283,-134.8862"/>
</g>
<!-- Node17 -->
<g id="node18" class="node">
<title>Node17</title>
<polygon fill="none" stroke="#bfbfbf" points="706.5,-112.5 706.5,-131.5 771.5,-131.5 771.5,-112.5 706.5,-112.5"/>
<text text-anchor="middle" x="739" y="-119.5" font-family="Helvetica,sans-Serif" font-size="10.00" fill="#000000">functional</text>
</g>
<!-- Node15&#45;&gt;Node17 -->
<g id="edge26" class="edge">
<title>Node15&#45;&gt;Node17</title>
<path fill="none" stroke="#191970" d="M734.0451,-168.2455C734.828,-160.9382 735.9256,-150.6944 736.8888,-141.7046"/>
<polygon fill="#191970" stroke="#191970" points="740.3815,-141.9587 737.9669,-131.6427 733.4214,-141.2129 740.3815,-141.9587"/>
</g>
<!-- Node18 -->
<g id="node19" class="node">
<title>Node18</title>
<polygon fill="none" stroke="#bfbfbf" points="790,-112.5 790,-131.5 822,-131.5 822,-112.5 790,-112.5"/>
<text text-anchor="middle" x="806" y="-119.5" font-family="Helvetica,sans-Serif" font-size="10.00" fill="#000000">list</text>
</g>
<!-- Node15&#45;&gt;Node18 -->
<g id="edge27" class="edge">
<title>Node15&#45;&gt;Node18</title>
<path fill="none" stroke="#191970" d="M745.7156,-168.2455C756.602,-159.8943 772.4883,-147.7076 785.22,-137.9408"/>
<polygon fill="#191970" stroke="#191970" points="787.6261,-140.5063 793.4301,-131.6427 783.3654,-134.9523 787.6261,-140.5063"/>
</g>
<!-- Node19 -->
<g id="node20" class="node">
<title>Node19</title>
<polygon fill="none" stroke="#bfbfbf" points="840,-112.5 840,-131.5 904,-131.5 904,-112.5 840,-112.5"/>
<text text-anchor="middle" x="872" y="-119.5" font-family="Helvetica,sans-Serif" font-size="10.00" fill="#000000">algorithm</text>
</g>
<!-- Node15&#45;&gt;Node19 -->
<g id="edge29" class="edge">
<title>Node15&#45;&gt;Node19</title>
<path fill="none" stroke="#191970" d="M756.895,-168.3733C779.5082,-159.2629 813.6542,-145.5062 838.8873,-135.3404"/>
<polygon fill="#191970" stroke="#191970" points="840.4493,-138.4845 848.4169,-131.5011 837.8334,-131.9917 840.4493,-138.4845"/>
</g>
<!-- Node20&#45;&gt;Node2 -->
<g id="edge32" class="edge">
<title>Node20&#45;&gt;Node2</title>
<path fill="none" stroke="#191970" d="M911.5768,-336.4909C901.0344,-321.7196 878.5577,-293.5537 852,-280 812.238,-259.7076 690.6176,-245.5459 618.7679,-238.6966"/>
<polygon fill="#191970" stroke="#191970" points="618.8267,-235.1869 608.5439,-237.7393 618.174,-242.1564 618.8267,-235.1869"/>
</g>
<!-- Node21 -->
<g id="node22" class="node">
<title>Node21</title>
<g id="a_node22"><a xlink:href="Text_8hxx.html" target="_top" xlink:title="Text.hxx">
<polygon fill="none" stroke="#000000" points="785,-280.5 785,-299.5 843,-299.5 843,-280.5 785,-280.5"/>
<text text-anchor="middle" x="814" y="-287.5" font-family="Helvetica,sans-Serif" font-size="10.00" fill="#000000">Text.hxx</text>
</a>
</g>
</g>
<!-- Node20&#45;&gt;Node21 -->
<g id="edge33" class="edge">
<title>Node20&#45;&gt;Node21</title>
<path fill="none" stroke="#191970" d="M899.8846,-336.2455C883.555,-327.4527 859.329,-314.4079 840.7661,-304.4125"/>
<polygon fill="#191970" stroke="#191970" points="842.3719,-301.3021 831.9078,-299.6427 839.0532,-307.4654 842.3719,-301.3021"/>
</g>
<!-- Node21&#45;&gt;Node2 -->
<g id="edge35" class="edge">
<title>Node21&#45;&gt;Node2</title>
<path fill="none" stroke="#191970" d="M784.8325,-283.4665C743.6558,-274.2429 667.8054,-257.2524 616.6344,-245.7901"/>
<polygon fill="#191970" stroke="#191970" points="617.27,-242.3458 606.7468,-243.5753 615.7399,-249.1766 617.27,-242.3458"/>
</g>
<!-- Node21&#45;&gt;Node3 -->
<g id="edge34" class="edge">
<title>Node21&#45;&gt;Node3</title>
<path fill="none" stroke="#191970" d="M843.0702,-283.012C907.1689,-266.7567 1055,-224.2531 1055,-178 1055,-178 1055,-178 1055,-122 1055,-65.6607 628.3361,-23.6327 506.2665,-12.7613"/>
<polygon fill="#191970" stroke="#191970" points="506.3351,-9.2539 496.0664,-11.8626 505.7206,-16.2269 506.3351,-9.2539"/>
</g>
<!-- Node22&#45;&gt;Node1 -->
<g id="edge44" class="edge">
<title>Node22&#45;&gt;Node1</title>
<path fill="none" stroke="#191970" d="M610.518,-450.6656C674.9608,-441.7784 786.4619,-426.2243 882,-412 883.4599,-411.7826 884.9384,-411.5613 886.4297,-411.3369"/>
<polygon fill="#191970" stroke="#191970" points="887.0357,-414.7851 896.3965,-409.8227 885.9843,-407.8645 887.0357,-414.7851"/>
</g>
<!-- Node22&#45;&gt;Node2 -->
<g id="edge39" class="edge">
<title>Node22&#45;&gt;Node2</title>
<path fill="none" stroke="#191970" d="M503.2844,-451.6312C455.7504,-444.7596 391.5744,-432.0277 376,-412 335.8564,-360.378 390.9035,-322.032 441,-280 460.5613,-263.5876 486.5494,-252.7314 509.5968,-245.7111"/>
<polygon fill="#191970" stroke="#191970" points="510.6225,-249.0581 519.2668,-242.9323 508.6891,-242.3304 510.6225,-249.0581"/>
</g>
<!-- Node22&#45;&gt;Node8 -->
<g id="edge37" class="edge">
<title>Node22&#45;&gt;Node8</title>
<path fill="none" stroke="#191970" d="M503.3468,-456.4507C401.1712,-452.8458 182.7202,-441.8091 114,-412 72.9581,-394.1971 38,-390.7368 38,-346 38,-346 38,-346 38,-178 38,-147.4754 35.1966,-133.3627 57,-112 76.8834,-92.5185 153.6516,-77.7772 197.9569,-70.6815"/>
<polygon fill="#191970" stroke="#191970" points="198.5997,-74.1236 207.9406,-69.1238 197.5206,-67.2073 198.5997,-74.1236"/>
</g>
<!-- Node22&#45;&gt;Node12 -->
<g id="edge70" class="edge">
<title>Node22&#45;&gt;Node12</title>
<path fill="none" stroke="#191970" d="M503.221,-455.1551C383.1917,-448.4978 100.9155,-431.022 62,-412 25.8423,-394.326 0,-386.2462 0,-346 0,-346 0,-346 0,-178 0,-132.2337 47.3301,-98.3178 79.8977,-80.3977"/>
<polygon fill="#191970" stroke="#191970" points="81.8436,-83.3282 89.0509,-75.5625 78.574,-77.1387 81.8436,-83.3282"/>
</g>
<!-- Node22&#45;&gt;Node14 -->
<g id="edge38" class="edge">
<title>Node22&#45;&gt;Node14</title>
<path fill="none" stroke="#191970" d="M503.2233,-456.7605C377.708,-452.4122 76,-432.9198 76,-346 76,-346 76,-346 76,-234 76,-201.311 81.9446,-163.6669 86.0866,-141.4058"/>
<polygon fill="#191970" stroke="#191970" points="89.5324,-142.0207 87.9941,-131.5381 82.6597,-140.692 89.5324,-142.0207"/>
</g>
<!-- Node22&#45;&gt;Node20 -->
<g id="edge45" class="edge">
<title>Node22&#45;&gt;Node20</title>
<path fill="none" stroke="#191970" d="M610.6011,-453.0381C681.9067,-445.8204 803.6637,-431.1683 844,-412 867.8764,-400.6536 889.7351,-379.1712 903.4055,-363.7957"/>
<polygon fill="#191970" stroke="#191970" points="906.2546,-365.8503 910.1185,-355.9852 900.946,-361.2876 906.2546,-365.8503"/>
</g>
<!-- Node22&#45;&gt;Node21 -->
<g id="edge56" class="edge">
<title>Node22&#45;&gt;Node21</title>
<path fill="none" stroke="#191970" d="M610.7177,-452.8596C670.2021,-444.0333 763.786,-420.1826 810,-356 819.527,-342.7688 819.7139,-323.9035 817.9921,-309.7285"/>
<polygon fill="#191970" stroke="#191970" points="821.3994,-308.8742 816.3441,-299.5633 814.4897,-309.9946 821.3994,-308.8742"/>
</g>
<!-- Node23 -->
<g id="node24" class="node">
<title>Node23</title>
<g id="a_node24"><a xlink:href="Layout_8hxx.html" target="_top" xlink:title="ui/basics/Layout.hxx">
<polygon fill="none" stroke="#000000" points="112,-280.5 112,-299.5 228,-299.5 228,-280.5 112,-280.5"/>
<text text-anchor="middle" x="170" y="-287.5" font-family="Helvetica,sans-Serif" font-size="10.00" fill="#000000">ui/basics/Layout.hxx</text>
</a>
</g>
</g>
<!-- Node22&#45;&gt;Node23 -->
<g id="edge40" class="edge">
<title>Node22&#45;&gt;Node23</title>
<path fill="none" stroke="#191970" d="M503.2486,-454.4801C408.6347,-447.7974 220.2024,-432.1233 198,-412 169.3994,-386.0776 167.0078,-337.3938 168.2242,-310.0142"/>
<polygon fill="#191970" stroke="#191970" points="171.7378,-309.9207 168.9005,-299.7128 164.7528,-309.462 171.7378,-309.9207"/>
</g>
<!-- Node24 -->
<g id="node25" class="node">
<title>Node24</title>
<g id="a_node25"><a xlink:href="Checkbox_8hxx.html" target="_top" xlink:title="ui/widgets/Checkbox.hxx">
<polygon fill="none" stroke="#000000" points="521.5,-336.5 521.5,-355.5 660.5,-355.5 660.5,-336.5 521.5,-336.5"/>
<text text-anchor="middle" x="591" y="-343.5" font-family="Helvetica,sans-Serif" font-size="10.00" fill="#000000">ui/widgets/Checkbox.hxx</text>
</a>
</g>
</g>
<!-- Node22&#45;&gt;Node24 -->
<g id="edge46" class="edge">
<title>Node22&#45;&gt;Node24</title>
<path fill="none" stroke="#191970" d="M559.8991,-448.4863C562.7327,-439.1848 567.1673,-424.6204 571,-412 575.7294,-396.4267 581.0755,-378.7826 585.0498,-365.658"/>
<polygon fill="#191970" stroke="#191970" points="588.474,-366.4263 588.0219,-355.8411 581.7743,-364.3979 588.474,-366.4263"/>
</g>
<!-- Node25 -->
<g id="node26" class="node">
<title>Node25</title>
<g id="a_node26"><a xlink:href="Combobox_8hxx.html" target="_top" xlink:title="ui/widgets/Combobox.hxx">
<polygon fill="none" stroke="#000000" points="385.5,-392.5 385.5,-411.5 528.5,-411.5 528.5,-392.5 385.5,-392.5"/>
<text text-anchor="middle" x="457" y="-399.5" font-family="Helvetica,sans-Serif" font-size="10.00" fill="#000000">ui/widgets/Combobox.hxx</text>
</a>
</g>
</g>
<!-- Node22&#45;&gt;Node25 -->
<g id="edge48" class="edge">
<title>Node22&#45;&gt;Node25</title>
<path fill="none" stroke="#191970" d="M539.5813,-448.2455C523.9515,-439.4928 500.7981,-426.527 482.9815,-416.5496"/>
<polygon fill="#191970" stroke="#191970" points="484.6543,-413.475 474.2191,-411.6427 481.234,-419.5825 484.6543,-413.475"/>
</g>
<!-- Node26 -->
<g id="node27" class="node">
<title>Node26</title>
<g id="a_node27"><a xlink:href="TextField_8hxx.html" target="_top" xlink:title="TextField.hxx">
<polygon fill="none" stroke="#000000" points="423,-336.5 423,-355.5 503,-355.5 503,-336.5 423,-336.5"/>
<text text-anchor="middle" x="463" y="-343.5" font-family="Helvetica,sans-Serif" font-size="10.00" fill="#000000">TextField.hxx</text>
</a>
</g>
</g>
<!-- Node22&#45;&gt;Node26 -->
<g id="edge57" class="edge">
<title>Node22&#45;&gt;Node26</title>
<path fill="none" stroke="#191970" d="M556.1743,-448.0616C554.5744,-434.212 549.9726,-408.9086 537,-392 526.5007,-378.3152 510.6738,-367.6952 496.3481,-360.1248"/>
<polygon fill="#191970" stroke="#191970" points="497.7346,-356.9055 487.2219,-355.5887 494.6189,-363.1739 497.7346,-356.9055"/>
</g>
<!-- Node27 -->
<g id="node28" class="node">
<title>Node27</title>
<g id="a_node28"><a xlink:href="Frame_8hxx.html" target="_top" xlink:title="ui/widgets/Frame.hxx">
<polygon fill="none" stroke="#000000" points="207.5,-392.5 207.5,-411.5 328.5,-411.5 328.5,-392.5 207.5,-392.5"/>
<text text-anchor="middle" x="268" y="-399.5" font-family="Helvetica,sans-Serif" font-size="10.00" fill="#000000">ui/widgets/Frame.hxx</text>
</a>
</g>
</g>
<!-- Node22&#45;&gt;Node27 -->
<g id="edge54" class="edge">
<title>Node22&#45;&gt;Node27</title>
<path fill="none" stroke="#191970" d="M507.6475,-448.4369C457.6678,-438.7522 380.3502,-423.7703 327.1258,-413.4569"/>
<polygon fill="#191970" stroke="#191970" points="327.6322,-409.99 317.1489,-411.5237 326.3005,-416.8622 327.6322,-409.99"/>
</g>
<!-- Node28 -->
<g id="node29" class="node">
<title>Node28</title>
<g id="a_node29"><a xlink:href="Tooltip_8hxx.html" target="_top" xlink:title="ui/widgets/Tooltip.hxx">
<polygon fill="none" stroke="#000000" points="678.5,-336.5 678.5,-355.5 801.5,-355.5 801.5,-336.5 678.5,-336.5"/>
<text text-anchor="middle" x="740" y="-343.5" font-family="Helvetica,sans-Serif" font-size="10.00" fill="#000000">ui/widgets/Tooltip.hxx</text>
</a>
</g>
</g>
<!-- Node22&#45;&gt;Node28 -->
<g id="edge58" class="edge">
<title>Node22&#45;&gt;Node28</title>
<path fill="none" stroke="#191970" d="M572.6025,-448.4509C604.4752,-428.9441 677.2682,-384.3932 715.506,-360.9909"/>
<polygon fill="#191970" stroke="#191970" points="717.7347,-363.7304 724.437,-355.5249 714.0806,-357.7598 717.7347,-363.7304"/>
</g>
<!-- Node33 -->
<g id="node34" class="node">
<title>Node33</title>
<g id="a_node34"><a xlink:href="Slider_8hxx.html" target="_top" xlink:title="ui/widgets/Slider.hxx">
<polygon fill="none" stroke="#000000" points="1034,-280.5 1034,-299.5 1152,-299.5 1152,-280.5 1034,-280.5"/>
<text text-anchor="middle" x="1093" y="-287.5" font-family="Helvetica,sans-Serif" font-size="10.00" fill="#000000">ui/widgets/Slider.hxx</text>
</a>
</g>
</g>
<!-- Node22&#45;&gt;Node33 -->
<g id="edge67" class="edge">
<title>Node22&#45;&gt;Node33</title>
<path fill="none" stroke="#191970" d="M610.703,-454.9236C722.0589,-448.1925 970.5594,-431.2154 1004,-412 1045.12,-388.3719 1072.5656,-337.2219 1085.1308,-309.2415"/>
<polygon fill="#191970" stroke="#191970" points="1088.4742,-310.3267 1089.2155,-299.7578 1082.0452,-307.5577 1088.4742,-310.3267"/>
</g>
<!-- Node23&#45;&gt;Node2 -->
<g id="edge41" class="edge">
<title>Node23&#45;&gt;Node2</title>
<path fill="none" stroke="#191970" d="M228.1361,-281.737C303.8819,-270.9711 435.355,-252.2846 509.3459,-241.7681"/>
<polygon fill="#191970" stroke="#191970" points="509.9851,-245.2125 519.393,-240.3401 509,-238.2822 509.9851,-245.2125"/>
</g>
<!-- Node23&#45;&gt;Node3 -->
<g id="edge42" class="edge">
<title>Node23&#45;&gt;Node3</title>
<path fill="none" stroke="#191970" d="M158.4354,-280.342C118.5339,-245.9257 -7.3694,-127.5216 59,-56 84.9386,-28.0479 348.6102,-14.9686 441.6824,-11.1972"/>
<polygon fill="#191970" stroke="#191970" points="442.0562,-14.6852 451.91,-10.7926 441.7795,-7.6907 442.0562,-14.6852"/>
</g>
<!-- Node23&#45;&gt;Node14 -->
<g id="edge43" class="edge">
<title>Node23&#45;&gt;Node14</title>
<path fill="none" stroke="#191970" d="M165.4696,-280.4862C152.714,-253.6994 116.3126,-177.2565 99.1566,-141.2289"/>
<polygon fill="#191970" stroke="#191970" points="102.1393,-139.3517 94.6799,-131.8279 95.8193,-142.3613 102.1393,-139.3517"/>
</g>
<!-- Node24&#45;&gt;Node2 -->
<g id="edge47" class="edge">
<title>Node24&#45;&gt;Node2</title>
<path fill="none" stroke="#191970" d="M588.698,-336.4509C584.2744,-318.1013 574.5085,-277.5908 568.6694,-253.3693"/>
<polygon fill="#191970" stroke="#191970" points="572.0424,-252.4261 566.2962,-243.5249 565.2373,-254.0667 572.0424,-252.4261"/>
</g>
<!-- Node25&#45;&gt;Node2 -->
<g id="edge50" class="edge">
<title>Node25&#45;&gt;Node2</title>
<path fill="none" stroke="#191970" d="M443.1645,-392.4967C426.7336,-379.9635 402.8682,-357.0313 414,-336 437.6666,-291.2867 490.6976,-262.5248 526.9202,-247.3018"/>
<polygon fill="#191970" stroke="#191970" points="528.2417,-250.5428 536.1953,-243.5434 525.6128,-244.0552 528.2417,-250.5428"/>
</g>
<!-- Node25&#45;&gt;Node16 -->
<g id="edge49" class="edge">
<title>Node25&#45;&gt;Node16</title>
<path fill="none" stroke="#191970" d="M441.382,-392.4791C429.7528,-384.3972 414.7668,-371.6339 408,-356 393.3726,-322.2052 416.9751,-307.908 441,-280 497.6558,-214.1869 586.8937,-160.6835 631.5834,-136.2849"/>
<polygon fill="#191970" stroke="#191970" points="633.2723,-139.3508 640.4158,-131.5264 629.9521,-133.1882 633.2723,-139.3508"/>
</g>
<!-- Node25&#45;&gt;Node26 -->
<g id="edge51" class="edge">
<title>Node25&#45;&gt;Node26</title>
<path fill="none" stroke="#191970" d="M458.0451,-392.2455C458.828,-384.9382 459.9256,-374.6944 460.8888,-365.7046"/>
<polygon fill="#191970" stroke="#191970" points="464.3815,-365.9587 461.9669,-355.6427 457.4214,-365.2129 464.3815,-365.9587"/>
</g>
<!-- Node26&#45;&gt;Node2 -->
<g id="edge52" class="edge">
<title>Node26&#45;&gt;Node2</title>
<path fill="none" stroke="#191970" d="M471.6112,-336.4509C488.6804,-317.5227 527.0141,-275.014 548.5543,-251.1279"/>
<polygon fill="#191970" stroke="#191970" points="551.3128,-253.2952 555.4106,-243.5249 546.1144,-248.6073 551.3128,-253.2952"/>
</g>
<!-- Node26&#45;&gt;Node21 -->
<g id="edge53" class="edge">
<title>Node26&#45;&gt;Node21</title>
<path fill="none" stroke="#191970" d="M503.08,-337.65C506.0951,-337.074 509.0937,-336.5176 512,-336 605.8849,-319.2806 716.8714,-303.3545 774.6193,-295.3555"/>
<polygon fill="#191970" stroke="#191970" points="775.3386,-298.7896 784.7665,-293.9558 774.382,-291.8552 775.3386,-298.7896"/>
</g>
<!-- Node27&#45;&gt;Node2 -->
<g id="edge55" class="edge">
<title>Node27&#45;&gt;Node2</title>
<path fill="none" stroke="#191970" d="M271.0024,-392.2084C278.7396,-368.7267 301.7009,-309.0129 343,-280 369.2646,-261.5489 452.4003,-247.8767 508.8745,-240.4219"/>
<polygon fill="#191970" stroke="#191970" points="509.6202,-243.8548 519.0895,-239.1026 508.7235,-236.9125 509.6202,-243.8548"/>
</g>
<!-- Node28&#45;&gt;Node2 -->
<g id="edge59" class="edge">
<title>Node28&#45;&gt;Node2</title>
<path fill="none" stroke="#191970" d="M724.9943,-336.4509C694.3408,-316.9441 624.3322,-272.3932 587.5571,-248.9909"/>
<polygon fill="#191970" stroke="#191970" points="589.2834,-245.9409 578.9677,-243.5249 585.5252,-251.8465 589.2834,-245.9409"/>
</g>
<!-- Node28&#45;&gt;Node21 -->
<g id="edge60" class="edge">
<title>Node28&#45;&gt;Node21</title>
<path fill="none" stroke="#191970" d="M752.8898,-336.2455C763.9254,-327.8943 780.0292,-315.7076 792.9353,-305.9408"/>
<polygon fill="#191970" stroke="#191970" points="795.3959,-308.4681 801.2579,-299.6427 791.1717,-302.8862 795.3959,-308.4681"/>
</g>
<!-- Node29 -->
<g id="node30" class="node">
<title>Node29</title>
<g id="a_node30"><a xlink:href="Timer_8hxx.html" target="_top" xlink:title="../../basics/Timer.hxx">
<polygon fill="none" stroke="#000000" points="788.5,-224.5 788.5,-243.5 905.5,-243.5 905.5,-224.5 788.5,-224.5"/>
<text text-anchor="middle" x="847" y="-231.5" font-family="Helvetica,sans-Serif" font-size="10.00" fill="#000000">../../basics/Timer.hxx</text>
</a>
</g>
</g>
<!-- Node28&#45;&gt;Node29 -->
<g id="edge61" class="edge">
<title>Node28&#45;&gt;Node29</title>
<path fill="none" stroke="#191970" d="M743.5904,-336.0972C748.9698,-322.29 760.2041,-297.0366 776,-280 787.7647,-267.3113 803.738,-256.5591 817.5547,-248.6484"/>
<polygon fill="#191970" stroke="#191970" points="819.6107,-251.5128 826.6973,-243.6368 816.246,-245.3745 819.6107,-251.5128"/>
</g>
<!-- Node29&#45;&gt;Node8 -->
<g id="edge65" class="edge">
<title>Node29&#45;&gt;Node8</title>
<path fill="none" stroke="#191970" d="M842.4301,-224.2033C836.7842,-210.522 829.1692,-185.4174 840,-168 859.1029,-137.2799 893.8971,-162.7201 913,-132 917.6939,-124.4515 919.0987,-118.4667 913,-112 866.1123,-62.2827 366.9894,-82.9072 299,-76 286.9219,-74.773 273.7167,-72.9724 262.1214,-71.2361"/>
<polygon fill="#191970" stroke="#191970" points="262.4201,-67.741 252.0038,-69.6779 261.3545,-74.6594 262.4201,-67.741"/>
</g>
<!-- Node29&#45;&gt;Node15 -->
<g id="edge66" class="edge">
<title>Node29&#45;&gt;Node15</title>
<path fill="none" stroke="#191970" d="M827.4027,-224.3733C809.2669,-215.4644 782.0865,-202.1127 761.5413,-192.0203"/>
<polygon fill="#191970" stroke="#191970" points="762.8603,-188.7688 752.3416,-187.5011 759.7739,-195.0517 762.8603,-188.7688"/>
</g>
<!-- Node30 -->
<g id="node31" class="node">
<title>Node30</title>
<polygon fill="none" stroke="#bfbfbf" points="983,-168.5 983,-187.5 1027,-187.5 1027,-168.5 983,-168.5"/>
<text text-anchor="middle" x="1005" y="-175.5" font-family="Helvetica,sans-Serif" font-size="10.00" fill="#000000">ctime</text>
</g>
<!-- Node29&#45;&gt;Node30 -->
<g id="edge62" class="edge">
<title>Node29&#45;&gt;Node30</title>
<path fill="none" stroke="#191970" d="M874.1612,-224.3733C901.6274,-214.6384 944.0612,-199.5985 973.1087,-189.3032"/>
<polygon fill="#191970" stroke="#191970" points="974.5222,-192.5157 982.7784,-185.876 972.1837,-185.9178 974.5222,-192.5157"/>
</g>
<!-- Node31 -->
<g id="node32" class="node">
<title>Node31</title>
<polygon fill="none" stroke="#bfbfbf" points="849,-168.5 849,-187.5 899,-187.5 899,-168.5 849,-168.5"/>
<text text-anchor="middle" x="874" y="-175.5" font-family="Helvetica,sans-Serif" font-size="10.00" fill="#000000">chrono</text>
</g>
<!-- Node29&#45;&gt;Node31 -->
<g id="edge63" class="edge">
<title>Node29&#45;&gt;Node31</title>
<path fill="none" stroke="#191970" d="M851.703,-224.2455C855.3424,-216.6973 860.4924,-206.0158 864.9262,-196.8197"/>
<polygon fill="#191970" stroke="#191970" points="868.1605,-198.1704 869.3509,-187.6427 861.8551,-195.1303 868.1605,-198.1704"/>
</g>
<!-- Node32 -->
<g id="node33" class="node">
<title>Node32</title>
<polygon fill="none" stroke="#bfbfbf" points="917,-168.5 917,-187.5 965,-187.5 965,-168.5 917,-168.5"/>
<text text-anchor="middle" x="941" y="-175.5" font-family="Helvetica,sans-Serif" font-size="10.00" fill="#000000">thread</text>
</g>
<!-- Node29&#45;&gt;Node32 -->
<g id="edge64" class="edge">
<title>Node29&#45;&gt;Node32</title>
<path fill="none" stroke="#191970" d="M863.3736,-224.2455C877.9308,-215.5731 899.431,-202.7645 916.1152,-192.825"/>
<polygon fill="#191970" stroke="#191970" points="918.0144,-195.7676 924.8141,-187.6427 914.4317,-189.7539 918.0144,-195.7676"/>
</g>
<!-- Node33&#45;&gt;Node2 -->
<g id="edge69" class="edge">
<title>Node33&#45;&gt;Node2</title>
<path fill="none" stroke="#191970" d="M1033.6604,-281.6914C1029.0406,-281.0996 1024.4459,-280.5286 1020,-280 875.3618,-262.8035 704.4113,-246.6793 618.7366,-238.887"/>
<polygon fill="#191970" stroke="#191970" points="618.9939,-235.3961 608.7187,-237.9785 618.3617,-242.3675 618.9939,-235.3961"/>
</g>
<!-- Node33&#45;&gt;Node3 -->
<g id="edge68" class="edge">
<title>Node33&#45;&gt;Node3</title>
<path fill="none" stroke="#191970" d="M1093,-280.4116C1093,-261.0538 1093,-215.9167 1093,-178 1093,-178 1093,-178 1093,-122 1093,-110.7283 1282.4385,-142.3865 927,-56 846.82,-36.5129 596.1601,-18.218 506.388,-12.1301"/>
<polygon fill="#191970" stroke="#191970" points="506.4724,-8.6279 496.26,-11.4489 506.0026,-15.6121 506.4724,-8.6279"/>
</g>
</g>
</svg>
        <g id="navigator" transform="translate(0 0)" fill="#404254">
                <rect fill="#f2f5e9" fill-opacity="0.5" stroke="#606060" stroke-width=".5" x="0" y="0" width="60" height="60"/>
                <use id="zoomplus" xlink:href="#zoomPlus" x="17" y="9" onmousedown="handleZoom(evt,'in')"/>
                <use id="zoomminus" xlink:href="#zoomMin" x="42" y="9" onmousedown="handleZoom(evt,'out')"/>
                <use id="reset" xlink:href="#resetDef" x="30" y="36" onmousedown="handleReset()"/>
                <g id="arrowUp" xlink:href="#dirArrow" transform="translate(30 24)" onmousedown="handlePan(0,-1)">
                  <use xlink:href="#rim" fill="#404040">
                        <set attributeName="fill" to="#808080" begin="arrowUp.mouseover" end="arrowUp.mouseout"/>
                  </use>
                  <path fill="none" stroke="white" stroke-width="1.5" d="M0,-3.0v7 M-2.5,-0.5L0,-3.0L2.5,-0.5"/>
                </g>
                <g id="arrowRight" xlink:href="#dirArrow" transform="rotate(90) translate(36 -43)" onmousedown="handlePan(1,0)">
                  <use xlink:href="#rim" fill="#404040">
                        <set attributeName="fill" to="#808080" begin="arrowRight.mouseover" end="arrowRight.mouseout"/>
                  </use>
                  <path fill="none" stroke="white" stroke-width="1.5" d="M0,-3.0v7 M-2.5,-0.5L0,-3.0L2.5,-0.5"/>
                </g>
                <g id="arrowDown" xlink:href="#dirArrow" transform="rotate(180) translate(-30 -48)" onmousedown="handlePan(0,1)">
                  <use xlink:href="#rim" fill="#404040">
                        <set attributeName="fill" to="#808080" begin="arrowDown.mouseover" end="arrowDown.mouseout"/>
                  </use>
                  <path fill="none" stroke="white" stroke-width="1.5" d="M0,-3.0v7 M-2.5,-0.5L0,-3.0L2.5,-0.5"/>
                </g>
                <g id="arrowLeft" xlink:href="#dirArrow" transform="rotate(270) translate(-36 17)" onmousedown="handlePan(-1,0)">
                  <use xlink:href="#rim" fill="#404040">
                        <set attributeName="fill" to="#808080" begin="arrowLeft.mouseover" end="arrowLeft.mouseout"/>
                  </use>
                  <path fill="none" stroke="white" stroke-width="1.5" d="M0,-3.0v7 M-2.5,-0.5L0,-3.0L2.5,-0.5"/>
                </g>
        </g>
        <svg viewBox="0 0 15 15" width="100%" height="30px" preserveAspectRatio="xMaxYMin meet">
         <g id="arrow_out" transform="scale(0.3 0.3)">
          <a xlink:href="ButtonGroup_8cxx__incl_org.svg" target="_base">
           <rect id="button" ry="5" rx="5" y="6" x="6" height="38" width="38"
                fill="#f2f5e9" fill-opacity="0.5" stroke="#606060" stroke-width="1.0"/>
           <path id="arrow"
             d="M 11.500037,31.436501 C 11.940474,20.09759 22.043105,11.32322 32.158766,21.979434 L 37.068811,17.246167 C 37.068811,17.246167 37.088388,32 37.088388,32 L 22.160133,31.978069 C 22.160133,31.978069 26.997745,27.140456 26.997745,27.140456 C 18.528582,18.264221 13.291696,25.230495 11.500037,31.436501 z"
             style="fill:#404040;"/>
          </a>
         </g>
        </svg>
</svg>
