<?xml version="1.0" encoding="UTF-8" standalone="no"?>
<!DOCTYPE svg PUBLIC "-//W3C//DTD SVG 1.1//EN"
 "http://www.w3.org/Graphics/SVG/1.1/DTD/svg11.dtd">
<!-- Generated by graphviz version 2.40.1 (20161225.0304)
 -->
<!-- Title: src/engine/ui/basics/ButtonGroup.hxx Pages: 1 -->
<svg width="1030pt" height="431pt"
 viewBox="0.00 0.00 1030.00 431.00" xmlns="http://www.w3.org/2000/svg" xmlns:xlink="http://www.w3.org/1999/xlink">
<g id="graph0" class="graph" transform="scale(1 1) rotate(0) translate(4 427)">
<title>src/engine/ui/basics/ButtonGroup.hxx</title>
<!-- Node0 -->
<g id="node1" class="node">
<title>Node0</title>
<polygon fill="#bfbfbf" stroke="#000000" points="273.5,-392.5 273.5,-422.5 386.5,-422.5 386.5,-392.5 273.5,-392.5"/>
<text text-anchor="start" x="281.5" y="-410.5" font-family="Helvetica,sans-Serif" font-size="10.00" fill="#000000">src/engine/ui/basics</text>
<text text-anchor="middle" x="330" y="-399.5" font-family="Helvetica,sans-Serif" font-size="10.00" fill="#000000">/ButtonGroup.hxx</text>
</g>
<!-- Node1 -->
<g id="node2" class="node">
<title>Node1</title>
<g id="a_node2"><a xlink:href="UIElement_8hxx.html" target="_top" xlink:title="UIElement.hxx">
<polygon fill="none" stroke="#000000" points="310.5,-224.5 310.5,-243.5 399.5,-243.5 399.5,-224.5 310.5,-224.5"/>
<text text-anchor="middle" x="355" y="-231.5" font-family="Helvetica,sans-Serif" font-size="10.00" fill="#000000">UIElement.hxx</text>
</a>
</g>
</g>
<!-- Node0&#45;&gt;Node1 -->
<g id="edge1" class="edge">
<title>Node0&#45;&gt;Node1</title>
<path fill="none" stroke="#191970" d="M339.5887,-392.4025C345.3064,-382.4813 352.0162,-368.9794 355,-356 363.1114,-320.7165 360.3909,-278.1607 357.6871,-253.7739"/>
<polygon fill="#191970" stroke="#191970" points="361.1376,-253.1554 356.4469,-243.6555 354.1896,-254.0071 361.1376,-253.1554"/>
</g>
<!-- Node19 -->
<g id="node20" class="node">
<title>Node19</title>
<g id="a_node20"><a xlink:href="Button_8hxx.html" target="_top" xlink:title="../widgets/Button.hxx">
<polygon fill="none" stroke="#000000" points="226,-336.5 226,-355.5 346,-355.5 346,-336.5 226,-336.5"/>
<text text-anchor="middle" x="286" y="-343.5" font-family="Helvetica,sans-Serif" font-size="10.00" fill="#000000">../widgets/Button.hxx</text>
</a>
</g>
</g>
<!-- Node0&#45;&gt;Node19 -->
<g id="edge30" class="edge">
<title>Node0&#45;&gt;Node19</title>
<path fill="none" stroke="#191970" d="M319.1236,-392.2977C313.0159,-383.7609 305.3561,-373.0545 298.9412,-364.0883"/>
<polygon fill="#191970" stroke="#191970" points="301.7101,-361.9433 293.045,-355.8469 296.0171,-366.0163 301.7101,-361.9433"/>
</g>
<!-- Node2 -->
<g id="node3" class="node">
<title>Node2</title>
<polygon fill="none" stroke="#bfbfbf" points="222,-.5 222,-19.5 266,-19.5 266,-.5 222,-.5"/>
<text text-anchor="middle" x="244" y="-7.5" font-family="Helvetica,sans-Serif" font-size="10.00" fill="#000000">string</text>
</g>
<!-- Node1&#45;&gt;Node2 -->
<g id="edge2" class="edge">
<title>Node1&#45;&gt;Node2</title>
<path fill="none" stroke="#191970" d="M330.2334,-224.4153C283.7691,-204.8455 185.0522,-155.324 150,-76 136.6913,-45.8821 179.6623,-27.1578 211.8457,-17.6597"/>
<polygon fill="#191970" stroke="#191970" points="213.126,-20.937 221.8307,-14.8973 211.2595,-14.1904 213.126,-20.937"/>
</g>
<!-- Node3 -->
<g id="node4" class="node">
<title>Node3</title>
<g id="a_node4"><a xlink:href="mapEdit_8hxx.html" target="_top" xlink:title="../../basics/mapEdit.hxx">
<polygon fill="none" stroke="#000000" points="28,-168.5 28,-187.5 158,-187.5 158,-168.5 28,-168.5"/>
<text text-anchor="middle" x="93" y="-175.5" font-family="Helvetica,sans-Serif" font-size="10.00" fill="#000000">../../basics/mapEdit.hxx</text>
</a>
</g>
</g>
<!-- Node1&#45;&gt;Node3 -->
<g id="edge3" class="edge">
<title>Node1&#45;&gt;Node3</title>
<path fill="none" stroke="#191970" d="M310.2583,-224.4369C265.2306,-214.8127 195.7272,-199.957 147.5073,-189.6504"/>
<polygon fill="#191970" stroke="#191970" points="148.0679,-186.1912 137.5572,-187.5237 146.6047,-193.0366 148.0679,-186.1912"/>
</g>
<!-- Node4 -->
<g id="node5" class="node">
<title>Node4</title>
<g id="a_node5"><a xlink:href="ResourcesManager_8hxx.html" target="_top" xlink:title="../../ResourcesManager.hxx">
<polygon fill="none" stroke="#000000" points="282,-168.5 282,-187.5 428,-187.5 428,-168.5 282,-168.5"/>
<text text-anchor="middle" x="355" y="-175.5" font-family="Helvetica,sans-Serif" font-size="10.00" fill="#000000">../../ResourcesManager.hxx</text>
</a>
</g>
</g>
<!-- Node1&#45;&gt;Node4 -->
<g id="edge5" class="edge">
<title>Node1&#45;&gt;Node4</title>
<path fill="none" stroke="#191970" d="M355,-224.2455C355,-216.9382 355,-206.6944 355,-197.7046"/>
<polygon fill="#191970" stroke="#191970" points="358.5001,-197.6426 355,-187.6427 351.5001,-197.6427 358.5001,-197.6426"/>
</g>
<!-- Node7 -->
<g id="node8" class="node">
<title>Node7</title>
<polygon fill="none" stroke="#bfbfbf" points="481,-56.5 481,-75.5 525,-75.5 525,-56.5 481,-56.5"/>
<text text-anchor="middle" x="503" y="-63.5" font-family="Helvetica,sans-Serif" font-size="10.00" fill="#000000">SDL.h</text>
</g>
<!-- Node1&#45;&gt;Node7 -->
<g id="edge29" class="edge">
<title>Node1&#45;&gt;Node7</title>
<path fill="none" stroke="#191970" d="M379.9988,-224.4196C397.6154,-216.6879 420.8508,-204.3988 437,-188 452.6439,-172.1143 480.1869,-115.3812 494.2308,-85.2026"/>
<polygon fill="#191970" stroke="#191970" points="497.5825,-86.2925 498.5938,-75.746 491.2264,-83.36 497.5825,-86.2925"/>
</g>
<!-- Node12 -->
<g id="node13" class="node">
<title>Node12</title>
<g id="a_node13"><a xlink:href="WindowManager_8hxx.html" target="_top" xlink:title="../../WindowManager.hxx">
<polygon fill="none" stroke="#000000" points="530,-168.5 530,-187.5 666,-187.5 666,-168.5 530,-168.5"/>
<text text-anchor="middle" x="598" y="-175.5" font-family="Helvetica,sans-Serif" font-size="10.00" fill="#000000">../../WindowManager.hxx</text>
</a>
</g>
</g>
<!-- Node1&#45;&gt;Node12 -->
<g id="edge17" class="edge">
<title>Node1&#45;&gt;Node12</title>
<path fill="none" stroke="#191970" d="M396.4971,-224.4369C438.0847,-214.8529 502.1834,-200.0812 546.8831,-189.78"/>
<polygon fill="#191970" stroke="#191970" points="547.7155,-193.18 556.6741,-187.5237 546.1435,-186.3588 547.7155,-193.18"/>
</g>
<!-- Node14 -->
<g id="node15" class="node">
<title>Node14</title>
<g id="a_node15"><a xlink:href="signal_8hxx.html" target="_top" xlink:title="../../basics/signal.hxx">
<polygon fill="none" stroke="#000000" points="754.5,-168.5 754.5,-187.5 873.5,-187.5 873.5,-168.5 754.5,-168.5"/>
<text text-anchor="middle" x="814" y="-175.5" font-family="Helvetica,sans-Serif" font-size="10.00" fill="#000000">../../basics/signal.hxx</text>
</a>
</g>
</g>
<!-- Node1&#45;&gt;Node14 -->
<g id="edge23" class="edge">
<title>Node1&#45;&gt;Node14</title>
<path fill="none" stroke="#191970" d="M399.8466,-228.5285C480.0499,-218.7434 648.5779,-198.1822 744.0851,-186.5299"/>
<polygon fill="#191970" stroke="#191970" points="744.724,-189.978 754.2265,-185.2926 743.8762,-183.0295 744.724,-189.978"/>
</g>
<!-- Node3&#45;&gt;Node2 -->
<g id="edge4" class="edge">
<title>Node3&#45;&gt;Node2</title>
<path fill="none" stroke="#191970" d="M91.9645,-168.4238C90.0834,-145.925 88.6178,-89.1032 117,-56 140.79,-28.2528 182.687,-17.2413 211.8248,-12.8722"/>
<polygon fill="#191970" stroke="#191970" points="212.4668,-16.318 221.9253,-11.5444 211.5544,-9.3777 212.4668,-16.318"/>
</g>
<!-- Node5 -->
<g id="node6" class="node">
<title>Node5</title>
<polygon fill="none" stroke="#bfbfbf" points="491,-112.5 491,-131.5 551,-131.5 551,-112.5 491,-112.5"/>
<text text-anchor="middle" x="521" y="-119.5" font-family="Helvetica,sans-Serif" font-size="10.00" fill="#000000">iostream</text>
</g>
<!-- Node4&#45;&gt;Node5 -->
<g id="edge6" class="edge">
<title>Node4&#45;&gt;Node5</title>
<path fill="none" stroke="#191970" d="M383.5364,-168.3733C411.0202,-159.1016 452.7686,-145.0178 483.0452,-134.804"/>
<polygon fill="#191970" stroke="#191970" points="484.4794,-138.0141 492.836,-131.5011 482.2418,-131.3813 484.4794,-138.0141"/>
</g>
<!-- Node6 -->
<g id="node7" class="node">
<title>Node6</title>
<polygon fill="none" stroke="#bfbfbf" points="159.5,-56.5 159.5,-75.5 252.5,-75.5 252.5,-56.5 159.5,-56.5"/>
<text text-anchor="middle" x="206" y="-63.5" font-family="Helvetica,sans-Serif" font-size="10.00" fill="#000000">unordered_map</text>
</g>
<!-- Node4&#45;&gt;Node6 -->
<g id="edge7" class="edge">
<title>Node4&#45;&gt;Node6</title>
<path fill="none" stroke="#191970" d="M341.1601,-168.2754C328.1248,-159.0636 308.0997,-144.7771 291,-132 268.5689,-115.2392 243.2685,-95.4821 226.1468,-81.9817"/>
<polygon fill="#191970" stroke="#191970" points="228.0131,-78.9957 217.9972,-75.5413 223.6728,-84.4877 228.0131,-78.9957"/>
</g>
<!-- Node4&#45;&gt;Node7 -->
<g id="edge8" class="edge">
<title>Node4&#45;&gt;Node7</title>
<path fill="none" stroke="#191970" d="M367.6184,-168.4509C393.1768,-149.1094 451.2707,-105.1465 482.3984,-81.5904"/>
<polygon fill="#191970" stroke="#191970" points="484.5515,-84.3503 490.4135,-75.5249 480.3274,-78.7684 484.5515,-84.3503"/>
</g>
<!-- Node8 -->
<g id="node9" class="node">
<title>Node8</title>
<g id="a_node9"><a xlink:href="TileManager_8hxx.html" target="_top" xlink:title="TileManager.hxx">
<polygon fill="none" stroke="#000000" points="299.5,-112.5 299.5,-131.5 396.5,-131.5 396.5,-112.5 299.5,-112.5"/>
<text text-anchor="middle" x="348" y="-119.5" font-family="Helvetica,sans-Serif" font-size="10.00" fill="#000000">TileManager.hxx</text>
</a>
</g>
</g>
<!-- Node4&#45;&gt;Node8 -->
<g id="edge9" class="edge">
<title>Node4&#45;&gt;Node8</title>
<path fill="none" stroke="#191970" d="M353.7807,-168.2455C352.8673,-160.9382 351.5868,-150.6944 350.4631,-141.7046"/>
<polygon fill="#191970" stroke="#191970" points="353.9187,-141.1313 349.2053,-131.6427 346.9728,-141.9996 353.9187,-141.1313"/>
</g>
<!-- Node8&#45;&gt;Node2 -->
<g id="edge12" class="edge">
<title>Node8&#45;&gt;Node2</title>
<path fill="none" stroke="#191970" d="M349.1422,-112.45C350.2712,-98.6153 350.3409,-72.8184 338,-56 323.1285,-35.7327 296.8743,-23.9362 275.8854,-17.3743"/>
<polygon fill="#191970" stroke="#191970" points="276.6552,-13.954 266.0776,-14.5593 274.724,-20.6824 276.6552,-13.954"/>
</g>
<!-- Node8&#45;&gt;Node6 -->
<g id="edge11" class="edge">
<title>Node8&#45;&gt;Node6</title>
<path fill="none" stroke="#191970" d="M323.5893,-112.3733C300.3858,-103.2226 265.2962,-89.3844 239.4858,-79.2057"/>
<polygon fill="#191970" stroke="#191970" points="240.6789,-75.9139 230.0921,-75.5011 238.1108,-82.4258 240.6789,-75.9139"/>
</g>
<!-- Node8&#45;&gt;Node7 -->
<g id="edge10" class="edge">
<title>Node8&#45;&gt;Node7</title>
<path fill="none" stroke="#191970" d="M374.6454,-112.3733C401.4353,-102.6944 442.7403,-87.7712 471.2217,-77.4812"/>
<polygon fill="#191970" stroke="#191970" points="472.5005,-80.7407 480.7162,-74.0509 470.1219,-74.1572 472.5005,-80.7407"/>
</g>
<!-- Node9 -->
<g id="node10" class="node">
<title>Node9</title>
<g id="a_node10"><a xlink:href="tileData_8hxx.html" target="_top" xlink:title="tileData.hxx">
<polygon fill="none" stroke="#000000" points="385.5,-56.5 385.5,-75.5 462.5,-75.5 462.5,-56.5 385.5,-56.5"/>
<text text-anchor="middle" x="424" y="-63.5" font-family="Helvetica,sans-Serif" font-size="10.00" fill="#000000">tileData.hxx</text>
</a>
</g>
</g>
<!-- Node8&#45;&gt;Node9 -->
<g id="edge13" class="edge">
<title>Node8&#45;&gt;Node9</title>
<path fill="none" stroke="#191970" d="M361.2382,-112.2455C372.681,-103.814 389.4296,-91.4729 402.7475,-81.6598"/>
<polygon fill="#191970" stroke="#191970" points="404.9391,-84.3924 410.9135,-75.6427 400.7867,-78.757 404.9391,-84.3924"/>
</g>
<!-- Node10 -->
<g id="node11" class="node">
<title>Node10</title>
<polygon fill="none" stroke="#bfbfbf" points="271,-56.5 271,-75.5 329,-75.5 329,-56.5 271,-56.5"/>
<text text-anchor="middle" x="300" y="-63.5" font-family="Helvetica,sans-Serif" font-size="10.00" fill="#000000">json.hxx</text>
</g>
<!-- Node8&#45;&gt;Node10 -->
<g id="edge15" class="edge">
<title>Node8&#45;&gt;Node10</title>
<path fill="none" stroke="#191970" d="M339.639,-112.2455C332.825,-104.2958 323.0319,-92.8706 314.8848,-83.3656"/>
<polygon fill="#191970" stroke="#191970" points="317.4305,-80.9575 308.2651,-75.6427 312.1157,-85.513 317.4305,-80.9575"/>
</g>
<!-- Node11 -->
<g id="node12" class="node">
<title>Node11</title>
<g id="a_node12"><a xlink:href="Singleton_8hxx.html" target="_top" xlink:title="Singleton.hxx">
<polygon fill="none" stroke="#000000" points="543.5,-56.5 543.5,-75.5 626.5,-75.5 626.5,-56.5 543.5,-56.5"/>
<text text-anchor="middle" x="585" y="-63.5" font-family="Helvetica,sans-Serif" font-size="10.00" fill="#000000">Singleton.hxx</text>
</a>
</g>
</g>
<!-- Node8&#45;&gt;Node11 -->
<g id="edge16" class="edge">
<title>Node8&#45;&gt;Node11</title>
<path fill="none" stroke="#191970" d="M388.4725,-112.4369C428.948,-102.8731 491.2867,-88.1432 534.8703,-77.845"/>
<polygon fill="#191970" stroke="#191970" points="535.7673,-81.2295 544.6945,-75.5237 534.1576,-74.4171 535.7673,-81.2295"/>
</g>
<!-- Node9&#45;&gt;Node2 -->
<g id="edge14" class="edge">
<title>Node9&#45;&gt;Node2</title>
<path fill="none" stroke="#191970" d="M393.0569,-56.3733C360.2633,-46.1708 308.7403,-30.1414 275.6722,-19.8536"/>
<polygon fill="#191970" stroke="#191970" points="276.6317,-16.4867 266.0434,-16.8579 274.5522,-23.1707 276.6317,-16.4867"/>
</g>
<!-- Node12&#45;&gt;Node2 -->
<g id="edge18" class="edge">
<title>Node12&#45;&gt;Node2</title>
<path fill="none" stroke="#191970" d="M606.3347,-168.4744C624.9053,-146.0851 665.7832,-89.4826 636,-56 612.204,-29.2483 365.9778,-15.5169 276.3762,-11.3769"/>
<polygon fill="#191970" stroke="#191970" points="276.3989,-7.8744 266.251,-10.9193 276.0828,-14.8673 276.3989,-7.8744"/>
</g>
<!-- Node12&#45;&gt;Node5 -->
<g id="edge19" class="edge">
<title>Node12&#45;&gt;Node5</title>
<path fill="none" stroke="#191970" d="M584.5876,-168.2455C572.9943,-159.814 556.0252,-147.4729 542.5322,-137.6598"/>
<polygon fill="#191970" stroke="#191970" points="544.4047,-134.6938 534.2587,-131.6427 540.2874,-140.355 544.4047,-134.6938"/>
</g>
<!-- Node12&#45;&gt;Node7 -->
<g id="edge21" class="edge">
<title>Node12&#45;&gt;Node7</title>
<path fill="none" stroke="#191970" d="M593.8246,-168.3356C587.6882,-154.8115 575.2889,-129.8924 560,-112 550.2224,-100.5575 537.3017,-89.8627 526.2343,-81.6702"/>
<polygon fill="#191970" stroke="#191970" points="528.0201,-78.6443 517.8513,-75.67 523.9458,-84.3364 528.0201,-78.6443"/>
</g>
<!-- Node12&#45;&gt;Node11 -->
<g id="edge22" class="edge">
<title>Node12&#45;&gt;Node11</title>
<path fill="none" stroke="#191970" d="M597.5502,-168.1304C596.8929,-155.2012 595.471,-131.8414 593,-112 591.9256,-103.373 590.3473,-93.9008 588.8759,-85.8057"/>
<polygon fill="#191970" stroke="#191970" points="592.287,-85.0067 586.9931,-75.8293 585.4084,-86.305 592.287,-85.0067"/>
</g>
<!-- Node13 -->
<g id="node14" class="node">
<title>Node13</title>
<polygon fill="none" stroke="#bfbfbf" points="683.5,-112.5 683.5,-131.5 730.5,-131.5 730.5,-112.5 683.5,-112.5"/>
<text text-anchor="middle" x="707" y="-119.5" font-family="Helvetica,sans-Serif" font-size="10.00" fill="#000000">vector</text>
</g>
<!-- Node12&#45;&gt;Node13 -->
<g id="edge20" class="edge">
<title>Node12&#45;&gt;Node13</title>
<path fill="none" stroke="#191970" d="M616.9864,-168.2455C634.1792,-159.4125 659.7238,-146.2887 679.2132,-136.2758"/>
<polygon fill="#191970" stroke="#191970" points="680.9359,-139.3257 688.2312,-131.6427 677.737,-133.0993 680.9359,-139.3257"/>
</g>
<!-- Node14&#45;&gt;Node13 -->
<g id="edge27" class="edge">
<title>Node14&#45;&gt;Node13</title>
<path fill="none" stroke="#191970" d="M795.362,-168.2455C778.5614,-159.4527 753.6366,-146.4079 734.5382,-136.4125"/>
<polygon fill="#191970" stroke="#191970" points="735.9073,-133.1787 725.4244,-131.6427 732.6614,-139.3807 735.9073,-133.1787"/>
</g>
<!-- Node15 -->
<g id="node16" class="node">
<title>Node15</title>
<polygon fill="none" stroke="#bfbfbf" points="964,-112.5 964,-131.5 1022,-131.5 1022,-112.5 964,-112.5"/>
<text text-anchor="middle" x="993" y="-119.5" font-family="Helvetica,sans-Serif" font-size="10.00" fill="#000000">memory</text>
</g>
<!-- Node14&#45;&gt;Node15 -->
<g id="edge24" class="edge">
<title>Node14&#45;&gt;Node15</title>
<path fill="none" stroke="#191970" d="M844.7712,-168.3733C875.0274,-158.9076 921.3157,-144.4264 954.1055,-134.1681"/>
<polygon fill="#191970" stroke="#191970" points="955.3168,-137.4565 963.8156,-131.1303 953.2267,-130.7758 955.3168,-137.4565"/>
</g>
<!-- Node16 -->
<g id="node17" class="node">
<title>Node16</title>
<polygon fill="none" stroke="#bfbfbf" points="748.5,-112.5 748.5,-131.5 813.5,-131.5 813.5,-112.5 748.5,-112.5"/>
<text text-anchor="middle" x="781" y="-119.5" font-family="Helvetica,sans-Serif" font-size="10.00" fill="#000000">functional</text>
</g>
<!-- Node14&#45;&gt;Node16 -->
<g id="edge25" class="edge">
<title>Node14&#45;&gt;Node16</title>
<path fill="none" stroke="#191970" d="M808.2518,-168.2455C803.7565,-160.617 797.3752,-149.7881 791.9175,-140.5267"/>
<polygon fill="#191970" stroke="#191970" points="794.7747,-138.4811 786.6823,-131.6427 788.7439,-142.035 794.7747,-138.4811"/>
</g>
<!-- Node17 -->
<g id="node18" class="node">
<title>Node17</title>
<polygon fill="none" stroke="#bfbfbf" points="832,-112.5 832,-131.5 864,-131.5 864,-112.5 832,-112.5"/>
<text text-anchor="middle" x="848" y="-119.5" font-family="Helvetica,sans-Serif" font-size="10.00" fill="#000000">list</text>
</g>
<!-- Node14&#45;&gt;Node17 -->
<g id="edge26" class="edge">
<title>Node14&#45;&gt;Node17</title>
<path fill="none" stroke="#191970" d="M819.9223,-168.2455C824.6027,-160.5367 831.2673,-149.5598 836.9289,-140.2348"/>
<polygon fill="#191970" stroke="#191970" points="839.9475,-142.007 842.1455,-131.6427 833.9639,-138.3741 839.9475,-142.007"/>
</g>
<!-- Node18 -->
<g id="node19" class="node">
<title>Node18</title>
<polygon fill="none" stroke="#bfbfbf" points="882,-112.5 882,-131.5 946,-131.5 946,-112.5 882,-112.5"/>
<text text-anchor="middle" x="914" y="-119.5" font-family="Helvetica,sans-Serif" font-size="10.00" fill="#000000">algorithm</text>
</g>
<!-- Node14&#45;&gt;Node18 -->
<g id="edge28" class="edge">
<title>Node14&#45;&gt;Node18</title>
<path fill="none" stroke="#191970" d="M831.4187,-168.2455C847.0485,-159.4928 870.2019,-146.527 888.0185,-136.5496"/>
<polygon fill="#191970" stroke="#191970" points="889.766,-139.5825 896.7809,-131.6427 886.3457,-133.475 889.766,-139.5825"/>
</g>
<!-- Node19&#45;&gt;Node1 -->
<g id="edge31" class="edge">
<title>Node19&#45;&gt;Node1</title>
<path fill="none" stroke="#191970" d="M292.8555,-336.2616C299.2769,-327.04 309.0491,-312.7469 317,-300 326.814,-284.2662 337.2801,-265.9627 344.7383,-252.6274"/>
<polygon fill="#191970" stroke="#191970" points="347.9991,-253.9647 349.7946,-243.5231 341.8795,-250.566 347.9991,-253.9647"/>
</g>
<!-- Node20 -->
<g id="node21" class="node">
<title>Node20</title>
<g id="a_node21"><a xlink:href="Text_8hxx.html" target="_top" xlink:title="Text.hxx">
<polygon fill="none" stroke="#000000" points="250,-280.5 250,-299.5 308,-299.5 308,-280.5 250,-280.5"/>
<text text-anchor="middle" x="279" y="-287.5" font-family="Helvetica,sans-Serif" font-size="10.00" fill="#000000">Text.hxx</text>
</a>
</g>
</g>
<!-- Node19&#45;&gt;Node20 -->
<g id="edge32" class="edge">
<title>Node19&#45;&gt;Node20</title>
<path fill="none" stroke="#191970" d="M284.7807,-336.2455C283.8673,-328.9382 282.5868,-318.6944 281.4631,-309.7046"/>
<polygon fill="#191970" stroke="#191970" points="284.9187,-309.1313 280.2053,-299.6427 277.9728,-309.9996 284.9187,-309.1313"/>
</g>
<!-- Node20&#45;&gt;Node1 -->
<g id="edge34" class="edge">
<title>Node20&#45;&gt;Node1</title>
<path fill="none" stroke="#191970" d="M292.2382,-280.2455C303.681,-271.814 320.4296,-259.4729 333.7475,-249.6598"/>
<polygon fill="#191970" stroke="#191970" points="335.9391,-252.3924 341.9135,-243.6427 331.7867,-246.757 335.9391,-252.3924"/>
</g>
<!-- Node20&#45;&gt;Node2 -->
<g id="edge33" class="edge">
<title>Node20&#45;&gt;Node2</title>
<path fill="none" stroke="#191970" d="M249.9317,-284.7556C178.4728,-271.0396 0,-231.4342 0,-178 0,-178 0,-178 0,-122 0,-75.876 145.8326,-34.1288 212.0131,-17.5582"/>
<polygon fill="#191970" stroke="#191970" points="213.0441,-20.909 221.9163,-15.1181 211.3693,-14.1123 213.0441,-20.909"/>
</g>
</g>
</svg>
