<?xml version="1.0" encoding="UTF-8" standalone="no"?>
<!DOCTYPE svg PUBLIC "-//W3C//DTD SVG 1.1//EN"
 "http://www.w3.org/Graphics/SVG/1.1/DTD/svg11.dtd">
<!-- Generated by graphviz version 2.40.1 (20161225.0304)
 -->
<!-- Title: src/engine/ui/widgets/Button.cxx Pages: 1 -->
<!--zoomable 431 -->
<svg id="main" version="1.1" xmlns="http://www.w3.org/2000/svg" xmlns:xlink="http://www.w3.org/1999/xlink" xml:space="preserve" onload="init(evt)">
<style type="text/css"><![CDATA[
.edge:hover path { stroke: red; }
.edge:hover polygon { stroke: red; fill: red; }
]]></style>
<script type="text/javascript"><![CDATA[
var edges = document.getElementsByTagName('g');
if (edges && edges.length) {
  for (var i=0;i<edges.length;i++) {
    if (edges[i].id.substr(0,4)=='edge') {
      edges[i].setAttribute('class','edge');
    }
  }
}
]]></script>
        <defs>
                <circle id="rim" cx="0" cy="0" r="7"/>
                <circle id="rim2" cx="0" cy="0" r="3.5"/>
                <g id="zoomPlus">
                        <use xlink:href="#rim" fill="#404040">
                                <set attributeName="fill" to="#808080" begin="zoomplus.mouseover" end="zoomplus.mouseout"/>
                        </use>
                        <path d="M-4,0h8M0,-4v8" fill="none" stroke="white" stroke-width="1.5" pointer-events="none"/>
                </g>
                <g id="zoomMin">
                        <use xlink:href="#rim" fill="#404040">
                                <set attributeName="fill" to="#808080" begin="zoomminus.mouseover" end="zoomminus.mouseout"/>
                        </use>
                        <path d="M-4,0h8" fill="none" stroke="white" stroke-width="1.5" pointer-events="none"/>
                </g>
                <g id="dirArrow">
                        <path fill="none" stroke="white" stroke-width="1.5" d="M0,-3.0v7 M-2.5,-0.5L0,-3.0L2.5,-0.5"/>
                </g>
               <g id="resetDef">
                       <use xlink:href="#rim2" fill="#404040">
                               <set attributeName="fill" to="#808080" begin="reset.mouseover" end="reset.mouseout"/>
                       </use>
               </g>
        </defs>

<script type="text/javascript">
var viewWidth = 1346;
var viewHeight = 431;
var sectionId = 'dynsection-0';
</script>
<script xlink:href="svgpan.js"/>
<svg id="graph" class="graph">
<g id="viewport">
<title>src/engine/ui/widgets/Button.cxx</title>
<!-- Node0 -->
<g id="node1" class="node">
<title>Node0</title>
<polygon fill="#bfbfbf" stroke="#000000" points="427,-392.5 427,-422.5 547,-422.5 547,-392.5 427,-392.5"/>
<text text-anchor="start" x="435" y="-410.5" font-family="Helvetica,sans-Serif" font-size="10.00" fill="#000000">src/engine/ui/widgets</text>
<text text-anchor="middle" x="487" y="-399.5" font-family="Helvetica,sans-Serif" font-size="10.00" fill="#000000">/Button.cxx</text>
</g>
<!-- Node1 -->
<g id="node2" class="node">
<title>Node1</title>
<g id="a_node2"><a xlink:href="Button_8hxx.html" target="_top" xlink:title="Button.hxx">
<polygon fill="none" stroke="#000000" points="405,-336.5 405,-355.5 475,-355.5 475,-336.5 405,-336.5"/>
<text text-anchor="middle" x="440" y="-343.5" font-family="Helvetica,sans-Serif" font-size="10.00" fill="#000000">Button.hxx</text>
</a>
</g>
</g>
<!-- Node0&#45;&gt;Node1 -->
<g id="edge1" class="edge">
<title>Node0&#45;&gt;Node1</title>
<path fill="none" stroke="#191970" d="M475.382,-392.2977C468.79,-383.672 460.5052,-372.8312 453.6099,-363.8087"/>
<polygon fill="#191970" stroke="#191970" points="456.3783,-361.6671 447.5253,-355.8469 450.8165,-365.9176 456.3783,-361.6671"/>
</g>
<!-- Node21 -->
<g id="node22" class="node">
<title>Node21</title>
<g id="a_node22"><a xlink:href="LOG_8hxx.html" target="_top" xlink:title="../../basics/LOG.hxx">
<polygon fill="none" stroke="#000000" points="1048,-168.5 1048,-187.5 1158,-187.5 1158,-168.5 1048,-168.5"/>
<text text-anchor="middle" x="1103" y="-175.5" font-family="Helvetica,sans-Serif" font-size="10.00" fill="#000000">../../basics/LOG.hxx</text>
</a>
</g>
</g>
<!-- Node0&#45;&gt;Node21 -->
<g id="edge34" class="edge">
<title>Node0&#45;&gt;Node21</title>
<path fill="none" stroke="#191970" d="M527.4175,-392.4419C640.8606,-350.1769 960.8991,-230.9418 1067.7629,-191.1281"/>
<polygon fill="#191970" stroke="#191970" points="1069.2761,-194.2994 1077.4249,-187.5284 1066.8322,-187.7399 1069.2761,-194.2994"/>
</g>
<!-- Node2 -->
<g id="node3" class="node">
<title>Node2</title>
<g id="a_node3"><a xlink:href="UIElement_8hxx.html" target="_top" xlink:title="../basics/UIElement.hxx">
<polygon fill="none" stroke="#000000" points="346.5,-224.5 346.5,-243.5 477.5,-243.5 477.5,-224.5 346.5,-224.5"/>
<text text-anchor="middle" x="412" y="-231.5" font-family="Helvetica,sans-Serif" font-size="10.00" fill="#000000">../basics/UIElement.hxx</text>
</a>
</g>
</g>
<!-- Node1&#45;&gt;Node2 -->
<g id="edge2" class="edge">
<title>Node1&#45;&gt;Node2</title>
<path fill="none" stroke="#191970" d="M437.6127,-336.4509C433.0253,-318.1013 422.8977,-277.5908 416.8423,-253.3693"/>
<polygon fill="#191970" stroke="#191970" points="420.2022,-252.3774 414.3812,-243.5249 413.4112,-254.0752 420.2022,-252.3774"/>
</g>
<!-- Node20 -->
<g id="node21" class="node">
<title>Node20</title>
<g id="a_node21"><a xlink:href="Text_8hxx.html" target="_top" xlink:title="Text.hxx">
<polygon fill="none" stroke="#000000" points="354,-280.5 354,-299.5 412,-299.5 412,-280.5 354,-280.5"/>
<text text-anchor="middle" x="383" y="-287.5" font-family="Helvetica,sans-Serif" font-size="10.00" fill="#000000">Text.hxx</text>
</a>
</g>
</g>
<!-- Node1&#45;&gt;Node20 -->
<g id="edge31" class="edge">
<title>Node1&#45;&gt;Node20</title>
<path fill="none" stroke="#191970" d="M430.0714,-336.2455C421.8162,-328.1352 409.8791,-316.4075 400.0918,-306.7919"/>
<polygon fill="#191970" stroke="#191970" points="402.4011,-304.1542 392.8149,-299.6427 397.4954,-309.1476 402.4011,-304.1542"/>
</g>
<!-- Node3 -->
<g id="node4" class="node">
<title>Node3</title>
<polygon fill="none" stroke="#bfbfbf" points="236,-.5 236,-19.5 280,-19.5 280,-.5 236,-.5"/>
<text text-anchor="middle" x="258" y="-7.5" font-family="Helvetica,sans-Serif" font-size="10.00" fill="#000000">string</text>
</g>
<!-- Node2&#45;&gt;Node3 -->
<g id="edge3" class="edge">
<title>Node2&#45;&gt;Node3</title>
<path fill="none" stroke="#191970" d="M370.6346,-224.4801C307.6204,-207.3659 190.6164,-164.604 150,-76 134.2229,-41.5825 188.6069,-23.5966 225.8552,-15.5148"/>
<polygon fill="#191970" stroke="#191970" points="226.7286,-18.909 235.8342,-13.4925 225.3382,-12.0485 226.7286,-18.909"/>
</g>
<!-- Node4 -->
<g id="node5" class="node">
<title>Node4</title>
<g id="a_node5"><a xlink:href="mapEdit_8hxx.html" target="_top" xlink:title="../../basics/mapEdit.hxx">
<polygon fill="none" stroke="#000000" points="28,-168.5 28,-187.5 158,-187.5 158,-168.5 28,-168.5"/>
<text text-anchor="middle" x="93" y="-175.5" font-family="Helvetica,sans-Serif" font-size="10.00" fill="#000000">../../basics/mapEdit.hxx</text>
</a>
</g>
</g>
<!-- Node2&#45;&gt;Node4 -->
<g id="edge4" class="edge">
<title>Node2&#45;&gt;Node4</title>
<path fill="none" stroke="#191970" d="M357.5244,-224.4369C302.0125,-214.6918 215.9471,-199.5832 157.1672,-189.2645"/>
<polygon fill="#191970" stroke="#191970" points="157.7055,-185.8055 147.2509,-187.5237 156.4951,-192.7001 157.7055,-185.8055"/>
</g>
<!-- Node5 -->
<g id="node6" class="node">
<title>Node5</title>
<g id="a_node6"><a xlink:href="ResourcesManager_8hxx.html" target="_top" xlink:title="../../ResourcesManager.hxx">
<polygon fill="none" stroke="#000000" points="289,-168.5 289,-187.5 435,-187.5 435,-168.5 289,-168.5"/>
<text text-anchor="middle" x="362" y="-175.5" font-family="Helvetica,sans-Serif" font-size="10.00" fill="#000000">../../ResourcesManager.hxx</text>
</a>
</g>
</g>
<!-- Node2&#45;&gt;Node5 -->
<g id="edge6" class="edge">
<title>Node2&#45;&gt;Node5</title>
<path fill="none" stroke="#191970" d="M403.2907,-224.2455C396.1927,-216.2958 385.9916,-204.8706 377.505,-195.3656"/>
<polygon fill="#191970" stroke="#191970" points="379.8805,-192.771 370.6095,-187.6427 374.6589,-197.4331 379.8805,-192.771"/>
</g>
<!-- Node8 -->
<g id="node9" class="node">
<title>Node8</title>
<polygon fill="none" stroke="#bfbfbf" points="583,-56.5 583,-75.5 627,-75.5 627,-56.5 583,-56.5"/>
<text text-anchor="middle" x="605" y="-63.5" font-family="Helvetica,sans-Serif" font-size="10.00" fill="#000000">SDL.h</text>
</g>
<!-- Node2&#45;&gt;Node8 -->
<g id="edge30" class="edge">
<title>Node2&#45;&gt;Node8</title>
<path fill="none" stroke="#191970" d="M419.2875,-224.4004C426.0649,-215.2769 436.253,-201.0501 444,-188 463.2775,-155.5262 453.9221,-137.2548 482,-112 489.0775,-105.6341 539.2718,-87.9958 573.3121,-76.5027"/>
<polygon fill="#191970" stroke="#191970" points="574.4977,-79.7967 582.8634,-73.2956 572.2694,-73.1608 574.4977,-79.7967"/>
</g>
<!-- Node13 -->
<g id="node14" class="node">
<title>Node13</title>
<g id="a_node14"><a xlink:href="WindowManager_8hxx.html" target="_top" xlink:title="../../WindowManager.hxx">
<polygon fill="none" stroke="#000000" points="530,-168.5 530,-187.5 666,-187.5 666,-168.5 530,-168.5"/>
<text text-anchor="middle" x="598" y="-175.5" font-family="Helvetica,sans-Serif" font-size="10.00" fill="#000000">../../WindowManager.hxx</text>
</a>
</g>
</g>
<!-- Node2&#45;&gt;Node13 -->
<g id="edge18" class="edge">
<title>Node2&#45;&gt;Node13</title>
<path fill="none" stroke="#191970" d="M443.9745,-224.3733C475.1713,-214.9807 522.771,-200.6496 556.7932,-190.4064"/>
<polygon fill="#191970" stroke="#191970" points="557.8763,-193.7355 566.4427,-187.5011 555.8582,-187.0327 557.8763,-193.7355"/>
</g>
<!-- Node15 -->
<g id="node16" class="node">
<title>Node15</title>
<g id="a_node16"><a xlink:href="signal_8hxx.html" target="_top" xlink:title="../../basics/signal.hxx">
<polygon fill="none" stroke="#000000" points="755.5,-168.5 755.5,-187.5 874.5,-187.5 874.5,-168.5 755.5,-168.5"/>
<text text-anchor="middle" x="815" y="-175.5" font-family="Helvetica,sans-Serif" font-size="10.00" fill="#000000">../../basics/signal.hxx</text>
</a>
</g>
</g>
<!-- Node2&#45;&gt;Node15 -->
<g id="edge24" class="edge">
<title>Node2&#45;&gt;Node15</title>
<path fill="none" stroke="#191970" d="M477.6458,-224.878C551.1369,-214.6658 669.7575,-198.1826 744.983,-187.7294"/>
<polygon fill="#191970" stroke="#191970" points="745.8774,-191.1388 755.3005,-186.2957 744.9139,-184.2055 745.8774,-191.1388"/>
</g>
<!-- Node4&#45;&gt;Node3 -->
<g id="edge5" class="edge">
<title>Node4&#45;&gt;Node3</title>
<path fill="none" stroke="#191970" d="M91.894,-168.3623C89.8604,-145.7307 88.0893,-88.6427 117,-56 131.5515,-39.57 189.2473,-24.6238 226.1745,-16.4709"/>
<polygon fill="#191970" stroke="#191970" points="226.9481,-19.8846 235.986,-14.3559 225.473,-13.0418 226.9481,-19.8846"/>
</g>
<!-- Node6 -->
<g id="node7" class="node">
<title>Node6</title>
<polygon fill="none" stroke="#bfbfbf" points="491,-112.5 491,-131.5 551,-131.5 551,-112.5 491,-112.5"/>
<text text-anchor="middle" x="521" y="-119.5" font-family="Helvetica,sans-Serif" font-size="10.00" fill="#000000">iostream</text>
</g>
<!-- Node5&#45;&gt;Node6 -->
<g id="edge7" class="edge">
<title>Node5&#45;&gt;Node6</title>
<path fill="none" stroke="#191970" d="M389.3331,-168.3733C415.5434,-159.1419 455.2984,-145.1402 484.2668,-134.9375"/>
<polygon fill="#191970" stroke="#191970" points="485.7542,-138.1244 494.0236,-131.5011 483.4288,-131.5219 485.7542,-138.1244"/>
</g>
<!-- Node7 -->
<g id="node8" class="node">
<title>Node7</title>
<polygon fill="none" stroke="#bfbfbf" points="159.5,-56.5 159.5,-75.5 252.5,-75.5 252.5,-56.5 159.5,-56.5"/>
<text text-anchor="middle" x="206" y="-63.5" font-family="Helvetica,sans-Serif" font-size="10.00" fill="#000000">unordered_map</text>
</g>
<!-- Node5&#45;&gt;Node7 -->
<g id="edge8" class="edge">
<title>Node5&#45;&gt;Node7</title>
<path fill="none" stroke="#191970" d="M345.9769,-168.3835C331.1889,-159.3636 308.7491,-145.3074 290,-132 267.204,-115.8203 242.1323,-95.8137 225.367,-82.0953"/>
<polygon fill="#191970" stroke="#191970" points="227.3583,-79.2012 217.4131,-75.5483 222.9096,-84.6058 227.3583,-79.2012"/>
</g>
<!-- Node5&#45;&gt;Node8 -->
<g id="edge9" class="edge">
<title>Node5&#45;&gt;Node8</title>
<path fill="none" stroke="#191970" d="M372.1318,-168.2931C387.5447,-154.0231 418.3404,-127.4114 449,-112 500.2735,-86.2267 518.0544,-92.5594 573,-76 573.101,-75.9696 573.2022,-75.939 573.3035,-75.9085"/>
<polygon fill="#191970" stroke="#191970" points="574.447,-79.2188 582.9842,-72.9445 572.3976,-72.5255 574.447,-79.2188"/>
</g>
<!-- Node9 -->
<g id="node10" class="node">
<title>Node9</title>
<g id="a_node10"><a xlink:href="TileManager_8hxx.html" target="_top" xlink:title="TileManager.hxx">
<polygon fill="none" stroke="#000000" points="299.5,-112.5 299.5,-131.5 396.5,-131.5 396.5,-112.5 299.5,-112.5"/>
<text text-anchor="middle" x="348" y="-119.5" font-family="Helvetica,sans-Serif" font-size="10.00" fill="#000000">TileManager.hxx</text>
</a>
</g>
</g>
<!-- Node5&#45;&gt;Node9 -->
<g id="edge10" class="edge">
<title>Node5&#45;&gt;Node9</title>
<path fill="none" stroke="#191970" d="M359.5614,-168.2455C357.7145,-160.8579 355.1172,-150.4689 352.8522,-141.4087"/>
<polygon fill="#191970" stroke="#191970" points="356.2316,-140.4952 350.4107,-131.6427 349.4406,-142.193 356.2316,-140.4952"/>
</g>
<!-- Node9&#45;&gt;Node3 -->
<g id="edge13" class="edge">
<title>Node9&#45;&gt;Node3</title>
<path fill="none" stroke="#191970" d="M378.8688,-112.4725C410.3265,-101.1432 451.9957,-80.6341 433,-56 415.6928,-33.5556 335.8389,-19.8974 290.2105,-13.7904"/>
<polygon fill="#191970" stroke="#191970" points="290.5824,-10.3094 280.2166,-12.5001 289.6861,-17.2518 290.5824,-10.3094"/>
</g>
<!-- Node9&#45;&gt;Node7 -->
<g id="edge12" class="edge">
<title>Node9&#45;&gt;Node7</title>
<path fill="none" stroke="#191970" d="M323.5893,-112.3733C300.3858,-103.2226 265.2962,-89.3844 239.4858,-79.2057"/>
<polygon fill="#191970" stroke="#191970" points="240.6789,-75.9139 230.0921,-75.5011 238.1108,-82.4258 240.6789,-75.9139"/>
</g>
<!-- Node9&#45;&gt;Node8 -->
<g id="edge11" class="edge">
<title>Node9&#45;&gt;Node8</title>
<path fill="none" stroke="#191970" d="M396.604,-113.5333C442.3949,-105.2105 512.7708,-91.5251 573,-76 573.0986,-75.9746 573.1974,-75.949 573.2963,-75.9234"/>
<polygon fill="#191970" stroke="#191970" points="574.0205,-79.3554 582.7032,-73.2841 572.1295,-72.6157 574.0205,-79.3554"/>
</g>
<!-- Node10 -->
<g id="node11" class="node">
<title>Node10</title>
<g id="a_node11"><a xlink:href="tileData_8hxx.html" target="_top" xlink:title="tileData.hxx">
<polygon fill="none" stroke="#000000" points="347.5,-56.5 347.5,-75.5 424.5,-75.5 424.5,-56.5 347.5,-56.5"/>
<text text-anchor="middle" x="386" y="-63.5" font-family="Helvetica,sans-Serif" font-size="10.00" fill="#000000">tileData.hxx</text>
</a>
</g>
</g>
<!-- Node9&#45;&gt;Node10 -->
<g id="edge14" class="edge">
<title>Node9&#45;&gt;Node10</title>
<path fill="none" stroke="#191970" d="M354.6191,-112.2455C359.9046,-104.4564 367.4541,-93.3308 373.8238,-83.9439"/>
<polygon fill="#191970" stroke="#191970" points="376.7379,-85.8827 379.4568,-75.6427 370.9455,-81.9522 376.7379,-85.8827"/>
</g>
<!-- Node11 -->
<g id="node12" class="node">
<title>Node11</title>
<polygon fill="none" stroke="#bfbfbf" points="271,-56.5 271,-75.5 329,-75.5 329,-56.5 271,-56.5"/>
<text text-anchor="middle" x="300" y="-63.5" font-family="Helvetica,sans-Serif" font-size="10.00" fill="#000000">json.hxx</text>
</g>
<!-- Node9&#45;&gt;Node11 -->
<g id="edge16" class="edge">
<title>Node9&#45;&gt;Node11</title>
<path fill="none" stroke="#191970" d="M339.639,-112.2455C332.825,-104.2958 323.0319,-92.8706 314.8848,-83.3656"/>
<polygon fill="#191970" stroke="#191970" points="317.4305,-80.9575 308.2651,-75.6427 312.1157,-85.513 317.4305,-80.9575"/>
</g>
<!-- Node12 -->
<g id="node13" class="node">
<title>Node12</title>
<g id="a_node13"><a xlink:href="Singleton_8hxx.html" target="_top" xlink:title="Singleton.hxx">
<polygon fill="none" stroke="#000000" points="481.5,-56.5 481.5,-75.5 564.5,-75.5 564.5,-56.5 481.5,-56.5"/>
<text text-anchor="middle" x="523" y="-63.5" font-family="Helvetica,sans-Serif" font-size="10.00" fill="#000000">Singleton.hxx</text>
</a>
</g>
</g>
<!-- Node9&#45;&gt;Node12 -->
<g id="edge17" class="edge">
<title>Node9&#45;&gt;Node12</title>
<path fill="none" stroke="#191970" d="M378.0836,-112.3733C407.1834,-103.0613 451.4523,-88.8953 483.403,-78.671"/>
<polygon fill="#191970" stroke="#191970" points="484.8515,-81.8824 493.309,-75.5011 482.718,-75.2155 484.8515,-81.8824"/>
</g>
<!-- Node10&#45;&gt;Node3 -->
<g id="edge15" class="edge">
<title>Node10&#45;&gt;Node3</title>
<path fill="none" stroke="#191970" d="M363.996,-56.3733C343.3565,-47.3435 312.2842,-33.7494 289.1111,-23.6111"/>
<polygon fill="#191970" stroke="#191970" points="290.2813,-20.3028 279.7169,-19.5011 287.4755,-26.7159 290.2813,-20.3028"/>
</g>
<!-- Node13&#45;&gt;Node3 -->
<g id="edge19" class="edge">
<title>Node13&#45;&gt;Node3</title>
<path fill="none" stroke="#191970" d="M606.3251,-168.4829C624.875,-146.1119 665.7114,-89.5463 636,-56 613.1996,-30.2567 377.7519,-15.9726 290.3897,-11.5264"/>
<polygon fill="#191970" stroke="#191970" points="290.4193,-8.0236 280.2574,-11.0212 290.0707,-15.0149 290.4193,-8.0236"/>
</g>
<!-- Node13&#45;&gt;Node6 -->
<g id="edge20" class="edge">
<title>Node13&#45;&gt;Node6</title>
<path fill="none" stroke="#191970" d="M584.5876,-168.2455C572.9943,-159.814 556.0252,-147.4729 542.5322,-137.6598"/>
<polygon fill="#191970" stroke="#191970" points="544.4047,-134.6938 534.2587,-131.6427 540.2874,-140.355 544.4047,-134.6938"/>
</g>
<!-- Node13&#45;&gt;Node8 -->
<g id="edge22" class="edge">
<title>Node13&#45;&gt;Node8</title>
<path fill="none" stroke="#191970" d="M598.5968,-168.4509C599.7385,-150.184 602.2528,-109.9553 603.7689,-85.6976"/>
<polygon fill="#191970" stroke="#191970" points="607.274,-85.7238 604.4047,-75.5249 600.2876,-85.2871 607.274,-85.7238"/>
</g>
<!-- Node13&#45;&gt;Node12 -->
<g id="edge23" class="edge">
<title>Node13&#45;&gt;Node12</title>
<path fill="none" stroke="#191970" d="M593.0354,-168.3195C586.1718,-155.1999 573.1374,-131.2073 560,-112 553.2303,-102.1025 544.92,-91.6435 537.8914,-83.2037"/>
<polygon fill="#191970" stroke="#191970" points="540.5283,-80.9016 531.3946,-75.5325 535.1866,-85.4256 540.5283,-80.9016"/>
</g>
<!-- Node14 -->
<g id="node15" class="node">
<title>Node14</title>
<polygon fill="none" stroke="#bfbfbf" points="683.5,-112.5 683.5,-131.5 730.5,-131.5 730.5,-112.5 683.5,-112.5"/>
<text text-anchor="middle" x="707" y="-119.5" font-family="Helvetica,sans-Serif" font-size="10.00" fill="#000000">vector</text>
</g>
<!-- Node13&#45;&gt;Node14 -->
<g id="edge21" class="edge">
<title>Node13&#45;&gt;Node14</title>
<path fill="none" stroke="#191970" d="M616.9864,-168.2455C634.1792,-159.4125 659.7238,-146.2887 679.2132,-136.2758"/>
<polygon fill="#191970" stroke="#191970" points="680.9359,-139.3257 688.2312,-131.6427 677.737,-133.0993 680.9359,-139.3257"/>
</g>
<!-- Node15&#45;&gt;Node14 -->
<g id="edge28" class="edge">
<title>Node15&#45;&gt;Node14</title>
<path fill="none" stroke="#191970" d="M796.1878,-168.2455C779.1527,-159.4125 753.8425,-146.2887 734.5319,-136.2758"/>
<polygon fill="#191970" stroke="#191970" points="736.0853,-133.1388 725.5966,-131.6427 732.863,-139.353 736.0853,-133.1388"/>
</g>
<!-- Node16 -->
<g id="node17" class="node">
<title>Node16</title>
<polygon fill="none" stroke="#bfbfbf" points="964,-112.5 964,-131.5 1022,-131.5 1022,-112.5 964,-112.5"/>
<text text-anchor="middle" x="993" y="-119.5" font-family="Helvetica,sans-Serif" font-size="10.00" fill="#000000">memory</text>
</g>
<!-- Node15&#45;&gt;Node16 -->
<g id="edge25" class="edge">
<title>Node15&#45;&gt;Node16</title>
<path fill="none" stroke="#191970" d="M845.5993,-168.3733C875.6864,-158.9076 921.7161,-144.4264 954.3228,-134.1681"/>
<polygon fill="#191970" stroke="#191970" points="955.49,-137.4701 963.9787,-131.1303 953.3892,-130.7927 955.49,-137.4701"/>
</g>
<!-- Node17 -->
<g id="node18" class="node">
<title>Node17</title>
<polygon fill="none" stroke="#bfbfbf" points="748.5,-112.5 748.5,-131.5 813.5,-131.5 813.5,-112.5 748.5,-112.5"/>
<text text-anchor="middle" x="781" y="-119.5" font-family="Helvetica,sans-Serif" font-size="10.00" fill="#000000">functional</text>
</g>
<!-- Node15&#45;&gt;Node17 -->
<g id="edge26" class="edge">
<title>Node15&#45;&gt;Node17</title>
<path fill="none" stroke="#191970" d="M809.0777,-168.2455C804.3973,-160.5367 797.7327,-149.5598 792.0711,-140.2348"/>
<polygon fill="#191970" stroke="#191970" points="795.0361,-138.3741 786.8545,-131.6427 789.0525,-142.007 795.0361,-138.3741"/>
</g>
<!-- Node18 -->
<g id="node19" class="node">
<title>Node18</title>
<polygon fill="none" stroke="#bfbfbf" points="832,-112.5 832,-131.5 864,-131.5 864,-112.5 832,-112.5"/>
<text text-anchor="middle" x="848" y="-119.5" font-family="Helvetica,sans-Serif" font-size="10.00" fill="#000000">list</text>
</g>
<!-- Node15&#45;&gt;Node18 -->
<g id="edge27" class="edge">
<title>Node15&#45;&gt;Node18</title>
<path fill="none" stroke="#191970" d="M820.7482,-168.2455C825.2435,-160.617 831.6248,-149.7881 837.0825,-140.5267"/>
<polygon fill="#191970" stroke="#191970" points="840.2561,-142.035 842.3177,-131.6427 834.2253,-138.4811 840.2561,-142.035"/>
</g>
<!-- Node19 -->
<g id="node20" class="node">
<title>Node19</title>
<polygon fill="none" stroke="#bfbfbf" points="882,-112.5 882,-131.5 946,-131.5 946,-112.5 882,-112.5"/>
<text text-anchor="middle" x="914" y="-119.5" font-family="Helvetica,sans-Serif" font-size="10.00" fill="#000000">algorithm</text>
</g>
<!-- Node15&#45;&gt;Node19 -->
<g id="edge29" class="edge">
<title>Node15&#45;&gt;Node19</title>
<path fill="none" stroke="#191970" d="M832.2445,-168.2455C847.5761,-159.5731 870.2199,-146.7645 887.7916,-136.825"/>
<polygon fill="#191970" stroke="#191970" points="889.9724,-139.6126 896.9531,-131.6427 886.5259,-133.5198 889.9724,-139.6126"/>
</g>
<!-- Node20&#45;&gt;Node2 -->
<g id="edge33" class="edge">
<title>Node20&#45;&gt;Node2</title>
<path fill="none" stroke="#191970" d="M388.0514,-280.2455C392.0019,-272.617 397.6097,-261.7881 402.4058,-252.5267"/>
<polygon fill="#191970" stroke="#191970" points="405.5159,-254.1321 407.0065,-243.6427 399.2999,-250.9131 405.5159,-254.1321"/>
</g>
<!-- Node20&#45;&gt;Node3 -->
<g id="edge32" class="edge">
<title>Node20&#45;&gt;Node3</title>
<path fill="none" stroke="#191970" d="M353.8984,-287.8001C264.5197,-280.2536 0,-251.6943 0,-178 0,-178 0,-178 0,-122 0,-73.348 156.3241,-32.5759 225.6068,-16.8948"/>
<polygon fill="#191970" stroke="#191970" points="226.5548,-20.2695 235.5555,-14.6806 225.034,-13.4367 226.5548,-20.2695"/>
</g>
<!-- Node21&#45;&gt;Node6 -->
<g id="edge35" class="edge">
<title>Node21&#45;&gt;Node6</title>
<path fill="none" stroke="#191970" d="M1047.9848,-172.7064C931.6738,-161.515 663.1468,-135.6774 561.2258,-125.8705"/>
<polygon fill="#191970" stroke="#191970" points="561.3344,-122.3649 551.0451,-124.8909 560.6639,-129.3327 561.3344,-122.3649"/>
</g>
<!-- Node21&#45;&gt;Node8 -->
<g id="edge40" class="edge">
<title>Node21&#45;&gt;Node8</title>
<path fill="none" stroke="#191970" d="M1095.8639,-168.3258C1084.1864,-153.3283 1059.4285,-124.8579 1031,-112 960.5679,-80.1443 723.724,-69.6942 637.0894,-66.8894"/>
<polygon fill="#191970" stroke="#191970" points="637.16,-63.39 627.056,-66.5774 636.9423,-70.3866 637.16,-63.39"/>
</g>
<!-- Node22 -->
<g id="node23" class="node">
<title>Node22</title>
<polygon fill="none" stroke="#bfbfbf" points="1078,-112.5 1078,-131.5 1128,-131.5 1128,-112.5 1078,-112.5"/>
<text text-anchor="middle" x="1103" y="-119.5" font-family="Helvetica,sans-Serif" font-size="10.00" fill="#000000">chrono</text>
</g>
<!-- Node21&#45;&gt;Node22 -->
<g id="edge36" class="edge">
<title>Node21&#45;&gt;Node22</title>
<path fill="none" stroke="#191970" d="M1103,-168.2455C1103,-160.9382 1103,-150.6944 1103,-141.7046"/>
<polygon fill="#191970" stroke="#191970" points="1106.5001,-141.6426 1103,-131.6427 1099.5001,-141.6427 1106.5001,-141.6426"/>
</g>
<!-- Node23 -->
<g id="node24" class="node">
<title>Node23</title>
<polygon fill="none" stroke="#bfbfbf" points="1146,-112.5 1146,-131.5 1190,-131.5 1190,-112.5 1146,-112.5"/>
<text text-anchor="middle" x="1168" y="-119.5" font-family="Helvetica,sans-Serif" font-size="10.00" fill="#000000">ctime</text>
</g>
<!-- Node21&#45;&gt;Node23 -->
<g id="edge37" class="edge">
<title>Node21&#45;&gt;Node23</title>
<path fill="none" stroke="#191970" d="M1114.3221,-168.2455C1123.9223,-159.9746 1137.8892,-147.9416 1149.1695,-138.2232"/>
<polygon fill="#191970" stroke="#191970" points="1151.516,-140.8214 1156.8076,-131.6427 1146.947,-135.5182 1151.516,-140.8214"/>
</g>
<!-- Node24 -->
<g id="node25" class="node">
<title>Node24</title>
<polygon fill="none" stroke="#bfbfbf" points="1208.5,-112.5 1208.5,-131.5 1263.5,-131.5 1263.5,-112.5 1208.5,-112.5"/>
<text text-anchor="middle" x="1236" y="-119.5" font-family="Helvetica,sans-Serif" font-size="10.00" fill="#000000">fstream</text>
</g>
<!-- Node21&#45;&gt;Node24 -->
<g id="edge38" class="edge">
<title>Node21&#45;&gt;Node24</title>
<path fill="none" stroke="#191970" d="M1125.8635,-168.3733C1147.405,-159.3032 1179.8838,-145.6279 1203.9956,-135.4755"/>
<polygon fill="#191970" stroke="#191970" points="1205.5767,-138.6075 1213.4348,-131.5011 1202.8603,-132.156 1205.5767,-138.6075"/>
</g>
<!-- Node25 -->
<g id="node26" class="node">
<title>Node25</title>
<polygon fill="none" stroke="#bfbfbf" points="1282,-112.5 1282,-131.5 1338,-131.5 1338,-112.5 1282,-112.5"/>
<text text-anchor="middle" x="1310" y="-119.5" font-family="Helvetica,sans-Serif" font-size="10.00" fill="#000000">sstream</text>
</g>
<!-- Node21&#45;&gt;Node25 -->
<g id="edge39" class="edge">
<title>Node21&#45;&gt;Node25</title>
<path fill="none" stroke="#191970" d="M1138.5846,-168.3733C1175.8299,-158.2972 1234.0834,-142.5378 1272.1535,-132.2387"/>
<polygon fill="#191970" stroke="#191970" points="1273.1076,-135.6065 1281.8466,-129.6164 1271.2795,-128.8494 1273.1076,-135.6065"/>
</g>
</g>
</svg>
        <g id="navigator" transform="translate(0 0)" fill="#404254">
                <rect fill="#f2f5e9" fill-opacity="0.5" stroke="#606060" stroke-width=".5" x="0" y="0" width="60" height="60"/>
                <use id="zoomplus" xlink:href="#zoomPlus" x="17" y="9" onmousedown="handleZoom(evt,'in')"/>
                <use id="zoomminus" xlink:href="#zoomMin" x="42" y="9" onmousedown="handleZoom(evt,'out')"/>
                <use id="reset" xlink:href="#resetDef" x="30" y="36" onmousedown="handleReset()"/>
                <g id="arrowUp" xlink:href="#dirArrow" transform="translate(30 24)" onmousedown="handlePan(0,-1)">
                  <use xlink:href="#rim" fill="#404040">
                        <set attributeName="fill" to="#808080" begin="arrowUp.mouseover" end="arrowUp.mouseout"/>
                  </use>
                  <path fill="none" stroke="white" stroke-width="1.5" d="M0,-3.0v7 M-2.5,-0.5L0,-3.0L2.5,-0.5"/>
                </g>
                <g id="arrowRight" xlink:href="#dirArrow" transform="rotate(90) translate(36 -43)" onmousedown="handlePan(1,0)">
                  <use xlink:href="#rim" fill="#404040">
                        <set attributeName="fill" to="#808080" begin="arrowRight.mouseover" end="arrowRight.mouseout"/>
                  </use>
                  <path fill="none" stroke="white" stroke-width="1.5" d="M0,-3.0v7 M-2.5,-0.5L0,-3.0L2.5,-0.5"/>
                </g>
                <g id="arrowDown" xlink:href="#dirArrow" transform="rotate(180) translate(-30 -48)" onmousedown="handlePan(0,1)">
                  <use xlink:href="#rim" fill="#404040">
                        <set attributeName="fill" to="#808080" begin="arrowDown.mouseover" end="arrowDown.mouseout"/>
                  </use>
                  <path fill="none" stroke="white" stroke-width="1.5" d="M0,-3.0v7 M-2.5,-0.5L0,-3.0L2.5,-0.5"/>
                </g>
                <g id="arrowLeft" xlink:href="#dirArrow" transform="rotate(270) translate(-36 17)" onmousedown="handlePan(-1,0)">
                  <use xlink:href="#rim" fill="#404040">
                        <set attributeName="fill" to="#808080" begin="arrowLeft.mouseover" end="arrowLeft.mouseout"/>
                  </use>
                  <path fill="none" stroke="white" stroke-width="1.5" d="M0,-3.0v7 M-2.5,-0.5L0,-3.0L2.5,-0.5"/>
                </g>
        </g>
        <svg viewBox="0 0 15 15" width="100%" height="30px" preserveAspectRatio="xMaxYMin meet">
         <g id="arrow_out" transform="scale(0.3 0.3)">
          <a xlink:href="Button_8cxx__incl_org.svg" target="_base">
           <rect id="button" ry="5" rx="5" y="6" x="6" height="38" width="38"
                fill="#f2f5e9" fill-opacity="0.5" stroke="#606060" stroke-width="1.0"/>
           <path id="arrow"
             d="M 11.500037,31.436501 C 11.940474,20.09759 22.043105,11.32322 32.158766,21.979434 L 37.068811,17.246167 C 37.068811,17.246167 37.088388,32 37.088388,32 L 22.160133,31.978069 C 22.160133,31.978069 26.997745,27.140456 26.997745,27.140456 C 18.528582,18.264221 13.291696,25.230495 11.500037,31.436501 z"
             style="fill:#404040;"/>
          </a>
         </g>
        </svg>
</svg>
