<?xml version="1.0" encoding="UTF-8" standalone="no"?>
<!DOCTYPE svg PUBLIC "-//W3C//DTD SVG 1.1//EN"
 "http://www.w3.org/Graphics/SVG/1.1/DTD/svg11.dtd">
<!-- Generated by graphviz version 2.40.1 (20161225.0304)
 -->
<!-- Title: src/engine/basics/Camera.cxx Pages: 1 -->
<svg width="1408pt" height="420pt"
 viewBox="0.00 0.00 1407.50 420.00" xmlns="http://www.w3.org/2000/svg" xmlns:xlink="http://www.w3.org/1999/xlink">
<g id="graph0" class="graph" transform="scale(1 1) rotate(0) translate(4 416)">
<title>src/engine/basics/Camera.cxx</title>
<!-- Node0 -->
<g id="node1" class="node">
<title>Node0</title>
<polygon fill="#bfbfbf" stroke="#000000" points="146,-392.5 146,-411.5 308,-411.5 308,-392.5 146,-392.5"/>
<text text-anchor="middle" x="227" y="-399.5" font-family="Helvetica,sans-Serif" font-size="10.00" fill="#000000">src/engine/basics/Camera.cxx</text>
</g>
<!-- Node1 -->
<g id="node2" class="node">
<title>Node1</title>
<g id="a_node2"><a xlink:href="Camera_8hxx.html" target="_top" xlink:title="Camera.hxx">
<polygon fill="none" stroke="#000000" points="0,-112.5 0,-131.5 76,-131.5 76,-112.5 0,-112.5"/>
<text text-anchor="middle" x="38" y="-119.5" font-family="Helvetica,sans-Serif" font-size="10.00" fill="#000000">Camera.hxx</text>
</a>
</g>
</g>
<!-- Node0&#45;&gt;Node1 -->
<g id="edge1" class="edge">
<title>Node0&#45;&gt;Node1</title>
<path fill="none" stroke="#191970" d="M177.3201,-392.4072C125.5825,-379.1949 52,-349.8786 52,-290 52,-290 52,-290 52,-234 52,-201.311 46.0554,-163.6669 41.9134,-141.4058"/>
<polygon fill="#191970" stroke="#191970" points="45.3403,-140.692 40.0059,-131.5381 38.4676,-142.0207 45.3403,-140.692"/>
</g>
<!-- Node4 -->
<g id="node5" class="node">
<title>Node4</title>
<g id="a_node5"><a xlink:href="isoMath_8hxx.html" target="_top" xlink:title="isoMath.hxx">
<polygon fill="none" stroke="#000000" points="170,-112.5 170,-131.5 246,-131.5 246,-112.5 170,-112.5"/>
<text text-anchor="middle" x="208" y="-119.5" font-family="Helvetica,sans-Serif" font-size="10.00" fill="#000000">isoMath.hxx</text>
</a>
</g>
</g>
<!-- Node0&#45;&gt;Node4 -->
<g id="edge4" class="edge">
<title>Node0&#45;&gt;Node4</title>
<path fill="none" stroke="#191970" d="M212.5809,-392.481C188.33,-375.1955 142,-336.1351 142,-290 142,-290 142,-290 142,-234 142,-195.944 170.6331,-159.4306 190.1802,-138.9377"/>
<polygon fill="#191970" stroke="#191970" points="192.8422,-141.2238 197.396,-131.6575 187.8705,-136.2961 192.8422,-141.2238"/>
</g>
<!-- Node7 -->
<g id="node8" class="node">
<title>Node7</title>
<g id="a_node8"><a xlink:href="Settings_8hxx.html" target="_top" xlink:title="Settings.hxx">
<polygon fill="none" stroke="#000000" points="1076.5,-168.5 1076.5,-187.5 1153.5,-187.5 1153.5,-168.5 1076.5,-168.5"/>
<text text-anchor="middle" x="1115" y="-175.5" font-family="Helvetica,sans-Serif" font-size="10.00" fill="#000000">Settings.hxx</text>
</a>
</g>
</g>
<!-- Node0&#45;&gt;Node7 -->
<g id="edge9" class="edge">
<title>Node0&#45;&gt;Node7</title>
<path fill="none" stroke="#191970" d="M308.1797,-399.4414C485.6102,-392.6054 901.7124,-369.4384 1022,-300 1063.907,-275.8083 1093.1737,-224.504 1106.6337,-196.7569"/>
<polygon fill="#191970" stroke="#191970" points="1109.8062,-198.2351 1110.8716,-187.694 1103.4652,-195.27 1109.8062,-198.2351"/>
</g>
<!-- Node16 -->
<g id="node17" class="node">
<title>Node16</title>
<g id="a_node17"><a xlink:href="Engine_8hxx.html" target="_top" xlink:title="../Engine.hxx">
<polygon fill="none" stroke="#000000" points="407,-336.5 407,-355.5 487,-355.5 487,-336.5 407,-336.5"/>
<text text-anchor="middle" x="447" y="-343.5" font-family="Helvetica,sans-Serif" font-size="10.00" fill="#000000">../Engine.hxx</text>
</a>
</g>
</g>
<!-- Node0&#45;&gt;Node16 -->
<g id="edge18" class="edge">
<title>Node0&#45;&gt;Node16</title>
<path fill="none" stroke="#191970" d="M264.8193,-392.3733C302.1938,-382.8598 359.4724,-368.2797 399.8071,-358.0127"/>
<polygon fill="#191970" stroke="#191970" points="400.8466,-361.3598 409.6742,-355.5011 399.1198,-354.5761 400.8466,-361.3598"/>
</g>
<!-- Node2 -->
<g id="node3" class="node">
<title>Node2</title>
<polygon fill="none" stroke="#bfbfbf" points="290,-56.5 290,-75.5 334,-75.5 334,-56.5 290,-56.5"/>
<text text-anchor="middle" x="312" y="-63.5" font-family="Helvetica,sans-Serif" font-size="10.00" fill="#000000">SDL.h</text>
</g>
<!-- Node1&#45;&gt;Node2 -->
<g id="edge2" class="edge">
<title>Node1&#45;&gt;Node2</title>
<path fill="none" stroke="#191970" d="M76.404,-115.186C123.0528,-106.7471 204.0629,-91.5715 273,-76 275.3011,-75.4802 277.6733,-74.9237 280.0579,-74.3491"/>
<polygon fill="#191970" stroke="#191970" points="280.9187,-77.7417 289.7797,-71.9336 279.2308,-70.9483 280.9187,-77.7417"/>
</g>
<!-- Node3 -->
<g id="node4" class="node">
<title>Node3</title>
<g id="a_node4"><a xlink:href="point_8hxx.html" target="_top" xlink:title="point.hxx">
<polygon fill="none" stroke="#000000" points="111,-56.5 111,-75.5 173,-75.5 173,-56.5 111,-56.5"/>
<text text-anchor="middle" x="142" y="-63.5" font-family="Helvetica,sans-Serif" font-size="10.00" fill="#000000">point.hxx</text>
</a>
</g>
</g>
<!-- Node1&#45;&gt;Node3 -->
<g id="edge3" class="edge">
<title>Node1&#45;&gt;Node3</title>
<path fill="none" stroke="#191970" d="M56.1154,-112.2455C72.445,-103.4527 96.671,-90.4079 115.2339,-80.4125"/>
<polygon fill="#191970" stroke="#191970" points="116.9468,-83.4654 124.0922,-75.6427 113.6281,-77.3021 116.9468,-83.4654"/>
</g>
<!-- Node4&#45;&gt;Node2 -->
<g id="edge6" class="edge">
<title>Node4&#45;&gt;Node2</title>
<path fill="none" stroke="#191970" d="M226.1154,-112.2455C242.445,-103.4527 266.671,-90.4079 285.2339,-80.4125"/>
<polygon fill="#191970" stroke="#191970" points="286.9468,-83.4654 294.0922,-75.6427 283.6281,-77.3021 286.9468,-83.4654"/>
</g>
<!-- Node4&#45;&gt;Node3 -->
<g id="edge5" class="edge">
<title>Node4&#45;&gt;Node3</title>
<path fill="none" stroke="#191970" d="M196.5037,-112.2455C186.7558,-103.9746 172.5741,-91.9416 161.1202,-82.2232"/>
<polygon fill="#191970" stroke="#191970" points="163.2541,-79.4437 153.3646,-75.6427 158.7253,-84.7813 163.2541,-79.4437"/>
</g>
<!-- Node5 -->
<g id="node6" class="node">
<title>Node5</title>
<polygon fill="none" stroke="#bfbfbf" points="486.5,-56.5 486.5,-75.5 533.5,-75.5 533.5,-56.5 486.5,-56.5"/>
<text text-anchor="middle" x="510" y="-63.5" font-family="Helvetica,sans-Serif" font-size="10.00" fill="#000000">vector</text>
</g>
<!-- Node4&#45;&gt;Node5 -->
<g id="edge7" class="edge">
<title>Node4&#45;&gt;Node5</title>
<path fill="none" stroke="#191970" d="M246.167,-117.0048C296.6886,-110.0582 388.6585,-96.2555 476.45,-75.8859"/>
<polygon fill="#191970" stroke="#191970" points="477.3708,-79.265 486.3032,-73.5675 475.7674,-72.4511 477.3708,-79.265"/>
</g>
<!-- Node6 -->
<g id="node7" class="node">
<title>Node6</title>
<polygon fill="none" stroke="#bfbfbf" points="200,-56.5 200,-75.5 264,-75.5 264,-56.5 200,-56.5"/>
<text text-anchor="middle" x="232" y="-63.5" font-family="Helvetica,sans-Serif" font-size="10.00" fill="#000000">algorithm</text>
</g>
<!-- Node4&#45;&gt;Node6 -->
<g id="edge8" class="edge">
<title>Node4&#45;&gt;Node6</title>
<path fill="none" stroke="#191970" d="M212.1805,-112.2455C215.381,-104.7776 219.896,-94.2427 223.8084,-85.1137"/>
<polygon fill="#191970" stroke="#191970" points="227.1452,-86.2129 227.8674,-75.6427 220.7112,-83.4554 227.1452,-86.2129"/>
</g>
<!-- Node8 -->
<g id="node9" class="node">
<title>Node8</title>
<polygon fill="none" stroke="#bfbfbf" points="860,-.5 860,-19.5 904,-19.5 904,-.5 860,-.5"/>
<text text-anchor="middle" x="882" y="-7.5" font-family="Helvetica,sans-Serif" font-size="10.00" fill="#000000">string</text>
</g>
<!-- Node7&#45;&gt;Node8 -->
<g id="edge10" class="edge">
<title>Node7&#45;&gt;Node8</title>
<path fill="none" stroke="#191970" d="M1125.5928,-168.1723C1134.1124,-159.548 1145.5322,-146.1949 1151,-132 1163.1582,-100.4361 1176.8403,-81.8283 1155,-56 1139.571,-37.7538 983.3785,-20.0976 914.4235,-13.1249"/>
<polygon fill="#191970" stroke="#191970" points="914.4386,-9.6091 904.1405,-12.0991 913.7437,-16.5745 914.4386,-9.6091"/>
</g>
<!-- Node9 -->
<g id="node10" class="node">
<title>Node9</title>
<g id="a_node10"><a xlink:href="Singleton_8hxx.html" target="_top" xlink:title="../../util/Singleton.hxx">
<polygon fill="none" stroke="#000000" points="948,-56.5 948,-75.5 1068,-75.5 1068,-56.5 948,-56.5"/>
<text text-anchor="middle" x="1008" y="-63.5" font-family="Helvetica,sans-Serif" font-size="10.00" fill="#000000">../../util/Singleton.hxx</text>
</a>
</g>
</g>
<!-- Node7&#45;&gt;Node9 -->
<g id="edge11" class="edge">
<title>Node7&#45;&gt;Node9</title>
<path fill="none" stroke="#191970" d="M1105.8772,-168.4509C1087.7151,-149.4401 1046.828,-106.6423 1024.0653,-82.816"/>
<polygon fill="#191970" stroke="#191970" points="1026.5383,-80.3378 1017.0997,-75.5249 1021.4768,-85.1733 1026.5383,-80.3378"/>
</g>
<!-- Node10 -->
<g id="node11" class="node">
<title>Node10</title>
<g id="a_node11"><a xlink:href="Meta_8hxx.html" target="_top" xlink:title="../../util/Meta.hxx">
<polygon fill="none" stroke="#000000" points="1202,-112.5 1202,-131.5 1300,-131.5 1300,-112.5 1202,-112.5"/>
<text text-anchor="middle" x="1251" y="-119.5" font-family="Helvetica,sans-Serif" font-size="10.00" fill="#000000">../../util/Meta.hxx</text>
</a>
</g>
</g>
<!-- Node7&#45;&gt;Node10 -->
<g id="edge12" class="edge">
<title>Node7&#45;&gt;Node10</title>
<path fill="none" stroke="#191970" d="M1138.3792,-168.3733C1160.5045,-159.2629 1193.9134,-145.5062 1218.6019,-135.3404"/>
<polygon fill="#191970" stroke="#191970" points="1220.0117,-138.5451 1227.9258,-131.5011 1217.3464,-132.0723 1220.0117,-138.5451"/>
</g>
<!-- Node15 -->
<g id="node16" class="node">
<title>Node15</title>
<polygon fill="none" stroke="#bfbfbf" points="1088.5,-112.5 1088.5,-131.5 1141.5,-131.5 1141.5,-112.5 1088.5,-112.5"/>
<text text-anchor="middle" x="1115" y="-119.5" font-family="Helvetica,sans-Serif" font-size="10.00" fill="#000000">cstddef</text>
</g>
<!-- Node7&#45;&gt;Node15 -->
<g id="edge17" class="edge">
<title>Node7&#45;&gt;Node15</title>
<path fill="none" stroke="#191970" d="M1115,-168.2455C1115,-160.9382 1115,-150.6944 1115,-141.7046"/>
<polygon fill="#191970" stroke="#191970" points="1118.5001,-141.6426 1115,-131.6427 1111.5001,-141.6427 1118.5001,-141.6426"/>
</g>
<!-- Node11 -->
<g id="node12" class="node">
<title>Node11</title>
<polygon fill="none" stroke="#bfbfbf" points="1086,-56.5 1086,-75.5 1146,-75.5 1146,-56.5 1086,-56.5"/>
<text text-anchor="middle" x="1116" y="-63.5" font-family="Helvetica,sans-Serif" font-size="10.00" fill="#000000">iostream</text>
</g>
<!-- Node10&#45;&gt;Node11 -->
<g id="edge13" class="edge">
<title>Node10&#45;&gt;Node11</title>
<path fill="none" stroke="#191970" d="M1227.7927,-112.3733C1205.8301,-103.2629 1172.6668,-89.5062 1148.1599,-79.3404"/>
<polygon fill="#191970" stroke="#191970" points="1149.4824,-76.0999 1138.9045,-75.5011 1146.8003,-82.5657 1149.4824,-76.0999"/>
</g>
<!-- Node12 -->
<g id="node13" class="node">
<title>Node12</title>
<polygon fill="none" stroke="#bfbfbf" points="1261.5,-56.5 1261.5,-75.5 1330.5,-75.5 1330.5,-56.5 1261.5,-56.5"/>
<text text-anchor="middle" x="1296" y="-63.5" font-family="Helvetica,sans-Serif" font-size="10.00" fill="#000000">type_traits</text>
</g>
<!-- Node10&#45;&gt;Node12 -->
<g id="edge14" class="edge">
<title>Node10&#45;&gt;Node12</title>
<path fill="none" stroke="#191970" d="M1258.8384,-112.2455C1265.162,-104.3761 1274.2224,-93.101 1281.8136,-83.6542"/>
<polygon fill="#191970" stroke="#191970" points="1284.7158,-85.6302 1288.2514,-75.6427 1279.2592,-81.2454 1284.7158,-85.6302"/>
</g>
<!-- Node13 -->
<g id="node14" class="node">
<title>Node13</title>
<polygon fill="none" stroke="#bfbfbf" points="1348.5,-56.5 1348.5,-75.5 1399.5,-75.5 1399.5,-56.5 1348.5,-56.5"/>
<text text-anchor="middle" x="1374" y="-63.5" font-family="Helvetica,sans-Serif" font-size="10.00" fill="#000000">variant</text>
</g>
<!-- Node10&#45;&gt;Node13 -->
<g id="edge15" class="edge">
<title>Node10&#45;&gt;Node13</title>
<path fill="none" stroke="#191970" d="M1272.1445,-112.3733C1291.8892,-103.3838 1321.5698,-89.8706 1343.8055,-79.7471"/>
<polygon fill="#191970" stroke="#191970" points="1345.4806,-82.8302 1353.1315,-75.5011 1342.58,-76.4594 1345.4806,-82.8302"/>
</g>
<!-- Node14 -->
<g id="node15" class="node">
<title>Node14</title>
<polygon fill="none" stroke="#bfbfbf" points="1202.5,-56.5 1202.5,-75.5 1243.5,-75.5 1243.5,-56.5 1202.5,-56.5"/>
<text text-anchor="middle" x="1223" y="-63.5" font-family="Helvetica,sans-Serif" font-size="10.00" fill="#000000">tuple</text>
</g>
<!-- Node10&#45;&gt;Node14 -->
<g id="edge16" class="edge">
<title>Node10&#45;&gt;Node14</title>
<path fill="none" stroke="#191970" d="M1246.1228,-112.2455C1242.3487,-104.6973 1237.0079,-94.0158 1232.4099,-84.8197"/>
<polygon fill="#191970" stroke="#191970" points="1235.424,-83.0217 1227.8213,-75.6427 1229.163,-86.1522 1235.424,-83.0217"/>
</g>
<!-- Node16&#45;&gt;Node2 -->
<g id="edge19" class="edge">
<title>Node16&#45;&gt;Node2</title>
<path fill="none" stroke="#191970" d="M417.707,-336.4925C378.0024,-321.5496 312,-288.5114 312,-234 312,-234 312,-234 312,-178 312,-145.7116 312,-108.1872 312,-85.8048"/>
<polygon fill="#191970" stroke="#191970" points="315.5001,-85.5883 312,-75.5884 308.5001,-85.5884 315.5001,-85.5883"/>
</g>
<!-- Node16&#45;&gt;Node3 -->
<g id="edge26" class="edge">
<title>Node16&#45;&gt;Node3</title>
<path fill="none" stroke="#191970" d="M412.3156,-336.4955C387.4545,-328.8005 353.7701,-316.5242 327,-300 232.7688,-241.8347 188.4559,-232.9776 143,-132 136.532,-117.6317 136.7235,-99.658 138.2868,-86.0969"/>
<polygon fill="#191970" stroke="#191970" points="141.7912,-86.3268 139.8064,-75.9195 134.8679,-85.293 141.7912,-86.3268"/>
</g>
<!-- Node16&#45;&gt;Node9 -->
<g id="edge55" class="edge">
<title>Node16&#45;&gt;Node9</title>
<path fill="none" stroke="#191970" d="M487.3457,-342.2359C615.978,-329.6996 1008,-287.135 1008,-234 1008,-234 1008,-234 1008,-178 1008,-145.7116 1008,-108.1872 1008,-85.8048"/>
<polygon fill="#191970" stroke="#191970" points="1011.5001,-85.5883 1008,-75.5884 1004.5001,-85.5884 1011.5001,-85.5883"/>
</g>
<!-- Node17 -->
<g id="node18" class="node">
<title>Node17</title>
<g id="a_node18"><a xlink:href="WindowManager_8hxx.html" target="_top" xlink:title="WindowManager.hxx">
<polygon fill="none" stroke="#000000" points="862,-112.5 862,-131.5 980,-131.5 980,-112.5 862,-112.5"/>
<text text-anchor="middle" x="921" y="-119.5" font-family="Helvetica,sans-Serif" font-size="10.00" fill="#000000">WindowManager.hxx</text>
</a>
</g>
</g>
<!-- Node16&#45;&gt;Node17 -->
<g id="edge20" class="edge">
<title>Node16&#45;&gt;Node17</title>
<path fill="none" stroke="#191970" d="M487.1821,-341.926C556.9389,-333.3356 702.9377,-308.5372 807,-244 851.7353,-216.2561 890.3658,-166.4866 909.0433,-139.898"/>
<polygon fill="#191970" stroke="#191970" points="912.0125,-141.7571 914.795,-131.5342 906.2447,-137.7907 912.0125,-141.7571"/>
</g>
<!-- Node18 -->
<g id="node19" class="node">
<title>Node18</title>
<g id="a_node19"><a xlink:href="Map_8hxx.html" target="_top" xlink:title="Map.hxx">
<polygon fill="none" stroke="#000000" points="553,-280.5 553,-299.5 611,-299.5 611,-280.5 553,-280.5"/>
<text text-anchor="middle" x="582" y="-287.5" font-family="Helvetica,sans-Serif" font-size="10.00" fill="#000000">Map.hxx</text>
</a>
</g>
</g>
<!-- Node16&#45;&gt;Node18 -->
<g id="edge27" class="edge">
<title>Node16&#45;&gt;Node18</title>
<path fill="none" stroke="#191970" d="M470.2073,-336.3733C492.1699,-327.2629 525.3332,-313.5062 549.8401,-303.3404"/>
<polygon fill="#191970" stroke="#191970" points="551.1997,-306.5657 559.0955,-299.5011 548.5176,-300.0999 551.1997,-306.5657"/>
</g>
<!-- Node17&#45;&gt;Node2 -->
<g id="edge24" class="edge">
<title>Node17&#45;&gt;Node2</title>
<path fill="none" stroke="#191970" d="M861.8681,-116.2322C846.6044,-114.7953 830.1945,-113.2961 815,-112 608.6496,-94.3986 551.2226,-115.8847 344.1601,-75.8049"/>
<polygon fill="#191970" stroke="#191970" points="344.6723,-72.3387 334.1857,-73.8494 343.3255,-79.208 344.6723,-72.3387"/>
</g>
<!-- Node17&#45;&gt;Node5 -->
<g id="edge23" class="edge">
<title>Node17&#45;&gt;Node5</title>
<path fill="none" stroke="#191970" d="M861.8714,-116.0686C775.3611,-107.1854 617.4458,-90.1439 543.5228,-75.7234"/>
<polygon fill="#191970" stroke="#191970" points="544.1641,-72.2822 533.6656,-73.7071 542.7613,-79.1402 544.1641,-72.2822"/>
</g>
<!-- Node17&#45;&gt;Node8 -->
<g id="edge21" class="edge">
<title>Node17&#45;&gt;Node8</title>
<path fill="none" stroke="#191970" d="M917.6749,-112.4509C911.2565,-94.0186 897.0517,-53.2254 888.631,-29.043"/>
<polygon fill="#191970" stroke="#191970" points="891.9106,-27.8177 885.3167,-19.5249 885.2999,-30.1197 891.9106,-27.8177"/>
</g>
<!-- Node17&#45;&gt;Node9 -->
<g id="edge25" class="edge">
<title>Node17&#45;&gt;Node9</title>
<path fill="none" stroke="#191970" d="M936.1542,-112.2455C949.5027,-103.6534 969.1586,-91.0014 984.5383,-81.1018"/>
<polygon fill="#191970" stroke="#191970" points="986.5051,-83.9982 993.0194,-75.6427 982.7164,-78.1121 986.5051,-83.9982"/>
</g>
<!-- Node17&#45;&gt;Node11 -->
<g id="edge22" class="edge">
<title>Node17&#45;&gt;Node11</title>
<path fill="none" stroke="#191970" d="M954.5217,-112.3733C988.2642,-102.6831 1040.3101,-87.7366 1076.1456,-77.4454"/>
<polygon fill="#191970" stroke="#191970" points="1077.149,-80.7987 1085.7944,-74.6744 1075.2168,-74.0707 1077.149,-80.7987"/>
</g>
<!-- Node18&#45;&gt;Node5 -->
<g id="edge28" class="edge">
<title>Node18&#45;&gt;Node5</title>
<path fill="none" stroke="#191970" d="M587.7842,-280.304C599.3159,-259.7928 623.3694,-210.4072 615,-168 609.7903,-141.6028 609.8352,-132.1458 592,-112 578.7945,-97.0837 559.5429,-85.9348 543.0114,-78.3514"/>
<polygon fill="#191970" stroke="#191970" points="544.2257,-75.0631 533.6586,-74.2968 541.4415,-81.4856 544.2257,-75.0631"/>
</g>
<!-- Node19 -->
<g id="node20" class="node">
<title>Node19</title>
<g id="a_node20"><a xlink:href="MapNode_8hxx.html" target="_top" xlink:title="GameObjects/MapNode.hxx">
<polygon fill="none" stroke="#000000" points="454,-168.5 454,-187.5 606,-187.5 606,-168.5 454,-168.5"/>
<text text-anchor="middle" x="530" y="-175.5" font-family="Helvetica,sans-Serif" font-size="10.00" fill="#000000">GameObjects/MapNode.hxx</text>
</a>
</g>
</g>
<!-- Node18&#45;&gt;Node19 -->
<g id="edge29" class="edge">
<title>Node18&#45;&gt;Node19</title>
<path fill="none" stroke="#191970" d="M577.5665,-280.4509C568.9703,-261.936 549.8989,-220.8591 538.6908,-196.7187"/>
<polygon fill="#191970" stroke="#191970" points="541.808,-195.1211 534.4223,-187.5249 535.4589,-198.0689 541.808,-195.1211"/>
</g>
<!-- Node28 -->
<g id="node29" class="node">
<title>Node28</title>
<g id="a_node29"><a xlink:href="TerrainGenerator_8hxx.html" target="_top" xlink:title="map/TerrainGenerator.hxx">
<polygon fill="none" stroke="#000000" points="654.5,-224.5 654.5,-243.5 797.5,-243.5 797.5,-224.5 654.5,-224.5"/>
<text text-anchor="middle" x="726" y="-231.5" font-family="Helvetica,sans-Serif" font-size="10.00" fill="#000000">map/TerrainGenerator.hxx</text>
</a>
</g>
</g>
<!-- Node18&#45;&gt;Node28 -->
<g id="edge51" class="edge">
<title>Node18&#45;&gt;Node28</title>
<path fill="none" stroke="#191970" d="M606.7545,-280.3733C630.2849,-271.2226 665.8687,-257.3844 692.0426,-247.2057"/>
<polygon fill="#191970" stroke="#191970" points="693.5171,-250.3877 701.5685,-243.5011 690.9799,-243.8636 693.5171,-250.3877"/>
</g>
<!-- Node19&#45;&gt;Node2 -->
<g id="edge30" class="edge">
<title>Node19&#45;&gt;Node2</title>
<path fill="none" stroke="#191970" d="M466.9254,-168.4823C435.9746,-161.7407 399.1734,-150.4895 370,-132 350.5809,-119.6926 333.9236,-99 323.5071,-84.0618"/>
<polygon fill="#191970" stroke="#191970" points="326.3325,-81.9907 317.859,-75.6307 320.5169,-85.8867 326.3325,-81.9907"/>
</g>
<!-- Node19&#45;&gt;Node3 -->
<g id="edge42" class="edge">
<title>Node19&#45;&gt;Node3</title>
<path fill="none" stroke="#191970" d="M453.7608,-172.9586C352.2271,-165.572 182.8072,-150.6402 161,-132 147.8547,-120.7638 143.5057,-101.0758 142.2052,-86.1188"/>
<polygon fill="#191970" stroke="#191970" points="145.6864,-85.6418 141.7099,-75.8215 138.6945,-85.9782 145.6864,-85.6418"/>
</g>
<!-- Node19&#45;&gt;Node5 -->
<g id="edge34" class="edge">
<title>Node19&#45;&gt;Node5</title>
<path fill="none" stroke="#191970" d="M545.1929,-168.4762C562.8868,-156.1043 588.3362,-133.5339 577,-112 569.6304,-98.001 555.8636,-87.4404 542.717,-79.9918"/>
<polygon fill="#191970" stroke="#191970" points="544.2842,-76.8617 533.8009,-75.3282 541.0398,-83.0644 544.2842,-76.8617"/>
</g>
<!-- Node19&#45;&gt;Node6 -->
<g id="edge33" class="edge">
<title>Node19&#45;&gt;Node6</title>
<path fill="none" stroke="#191970" d="M471.8204,-168.4489C433.9396,-161.1029 383.9527,-149.2543 342,-132 309.3795,-118.5838 275.0201,-96.5073 253.5582,-81.6207"/>
<polygon fill="#191970" stroke="#191970" points="255.3834,-78.6252 245.1926,-75.7272 251.3519,-84.3477 255.3834,-78.6252"/>
</g>
<!-- Node19&#45;&gt;Node8 -->
<g id="edge32" class="edge">
<title>Node19&#45;&gt;Node8</title>
<path fill="none" stroke="#191970" d="M606.2069,-172.9847C678.8383,-166.9276 781.8886,-154.6118 815,-132 850.9381,-107.4578 869.4702,-57.0683 877.3005,-29.3441"/>
<polygon fill="#191970" stroke="#191970" points="880.7004,-30.1772 879.8687,-19.6151 873.9322,-28.3905 880.7004,-30.1772"/>
</g>
<!-- Node20 -->
<g id="node21" class="node">
<title>Node20</title>
<polygon fill="none" stroke="#bfbfbf" points="510,-112.5 510,-131.5 568,-131.5 568,-112.5 510,-112.5"/>
<text text-anchor="middle" x="539" y="-119.5" font-family="Helvetica,sans-Serif" font-size="10.00" fill="#000000">memory</text>
</g>
<!-- Node19&#45;&gt;Node20 -->
<g id="edge31" class="edge">
<title>Node19&#45;&gt;Node20</title>
<path fill="none" stroke="#191970" d="M531.5677,-168.2455C532.7421,-160.9382 534.3884,-150.6944 535.8332,-141.7046"/>
<polygon fill="#191970" stroke="#191970" points="539.3191,-142.0714 537.4503,-131.6427 532.4078,-140.9606 539.3191,-142.0714"/>
</g>
<!-- Node21 -->
<g id="node22" class="node">
<title>Node21</title>
<g id="a_node22"><a xlink:href="Sprite_8hxx.html" target="_top" xlink:title="../Sprite.hxx">
<polygon fill="none" stroke="#000000" points="378.5,-112.5 378.5,-131.5 453.5,-131.5 453.5,-112.5 378.5,-112.5"/>
<text text-anchor="middle" x="416" y="-119.5" font-family="Helvetica,sans-Serif" font-size="10.00" fill="#000000">../Sprite.hxx</text>
</a>
</g>
</g>
<!-- Node19&#45;&gt;Node21 -->
<g id="edge35" class="edge">
<title>Node19&#45;&gt;Node21</title>
<path fill="none" stroke="#191970" d="M510.4027,-168.3733C492.2669,-159.4644 465.0865,-146.1127 444.5413,-136.0203"/>
<polygon fill="#191970" stroke="#191970" points="445.8603,-132.7688 435.3416,-131.5011 442.7739,-139.0517 445.8603,-132.7688"/>
</g>
<!-- Node22 -->
<g id="node23" class="node">
<title>Node22</title>
<g id="a_node23"><a xlink:href="enums_8hxx.html" target="_top" xlink:title="common/enums.hxx">
<polygon fill="none" stroke="#000000" points="352,-56.5 352,-75.5 468,-75.5 468,-56.5 352,-56.5"/>
<text text-anchor="middle" x="410" y="-63.5" font-family="Helvetica,sans-Serif" font-size="10.00" fill="#000000">common/enums.hxx</text>
</a>
</g>
</g>
<!-- Node19&#45;&gt;Node22 -->
<g id="edge41" class="edge">
<title>Node19&#45;&gt;Node22</title>
<path fill="none" stroke="#191970" d="M520.6415,-168.4085C507.8542,-155.3898 484.0979,-131.5111 463,-112 452.0983,-101.9182 439.5643,-91.01 429.4231,-82.3473"/>
<polygon fill="#191970" stroke="#191970" points="431.4436,-79.4713 421.5556,-75.6662 426.9125,-84.807 431.4436,-79.4713"/>
</g>
<!-- Node24 -->
<g id="node25" class="node">
<title>Node24</title>
<g id="a_node25"><a xlink:href="TileManager_8hxx.html" target="_top" xlink:title="../TileManager.hxx">
<polygon fill="none" stroke="#000000" points="700,-112.5 700,-131.5 806,-131.5 806,-112.5 700,-112.5"/>
<text text-anchor="middle" x="753" y="-119.5" font-family="Helvetica,sans-Serif" font-size="10.00" fill="#000000">../TileManager.hxx</text>
</a>
</g>
</g>
<!-- Node19&#45;&gt;Node24 -->
<g id="edge43" class="edge">
<title>Node19&#45;&gt;Node24</title>
<path fill="none" stroke="#191970" d="M568.0817,-168.4369C606.0059,-158.9133 664.3289,-144.2672 705.3126,-133.9753"/>
<polygon fill="#191970" stroke="#191970" points="706.229,-137.3539 715.0754,-131.5237 704.524,-130.5647 706.229,-137.3539"/>
</g>
<!-- Node21&#45;&gt;Node2 -->
<g id="edge36" class="edge">
<title>Node21&#45;&gt;Node2</title>
<path fill="none" stroke="#191970" d="M397.8846,-112.2455C381.555,-103.4527 357.329,-90.4079 338.7661,-80.4125"/>
<polygon fill="#191970" stroke="#191970" points="340.3719,-77.3021 329.9078,-75.6427 337.0532,-83.4654 340.3719,-77.3021"/>
</g>
<!-- Node21&#45;&gt;Node3 -->
<g id="edge38" class="edge">
<title>Node21&#45;&gt;Node3</title>
<path fill="none" stroke="#191970" d="M378.476,-114.3309C327.3611,-103.884 236.1629,-85.245 183.2027,-74.421"/>
<polygon fill="#191970" stroke="#191970" points="183.6421,-70.9385 173.1437,-72.3651 182.2403,-77.7967 183.6421,-70.9385"/>
</g>
<!-- Node21&#45;&gt;Node5 -->
<g id="edge37" class="edge">
<title>Node21&#45;&gt;Node5</title>
<path fill="none" stroke="#191970" d="M432.3736,-112.2455C446.9308,-103.5731 468.431,-90.7645 485.1152,-80.825"/>
<polygon fill="#191970" stroke="#191970" points="487.0144,-83.7676 493.8141,-75.6427 483.4317,-77.7539 487.0144,-83.7676"/>
</g>
<!-- Node21&#45;&gt;Node22 -->
<g id="edge39" class="edge">
<title>Node21&#45;&gt;Node22</title>
<path fill="none" stroke="#191970" d="M414.9549,-112.2455C414.172,-104.9382 413.0744,-94.6944 412.1112,-85.7046"/>
<polygon fill="#191970" stroke="#191970" points="415.5786,-85.2129 411.0331,-75.6427 408.6185,-85.9587 415.5786,-85.2129"/>
</g>
<!-- Node23 -->
<g id="node24" class="node">
<title>Node23</title>
<polygon fill="none" stroke="#bfbfbf" points="382,-.5 382,-19.5 438,-19.5 438,-.5 382,-.5"/>
<text text-anchor="middle" x="410" y="-7.5" font-family="Helvetica,sans-Serif" font-size="10.00" fill="#000000">stddef.h</text>
</g>
<!-- Node22&#45;&gt;Node23 -->
<g id="edge40" class="edge">
<title>Node22&#45;&gt;Node23</title>
<path fill="none" stroke="#191970" d="M410,-56.2455C410,-48.9382 410,-38.6944 410,-29.7046"/>
<polygon fill="#191970" stroke="#191970" points="413.5001,-29.6426 410,-19.6427 406.5001,-29.6427 413.5001,-29.6426"/>
</g>
<!-- Node24&#45;&gt;Node2 -->
<g id="edge44" class="edge">
<title>Node24&#45;&gt;Node2</title>
<path fill="none" stroke="#191970" d="M699.7046,-119.4327C622.8807,-114.9846 476.5862,-103.7199 344.1232,-75.8736"/>
<polygon fill="#191970" stroke="#191970" points="344.7168,-72.4214 334.2058,-73.7517 343.2522,-79.2665 344.7168,-72.4214"/>
</g>
<!-- Node24&#45;&gt;Node8 -->
<g id="edge46" class="edge">
<title>Node24&#45;&gt;Node8</title>
<path fill="none" stroke="#191970" d="M771.1574,-112.3611C786.3492,-103.852 808.177,-90.562 825,-76 841.7147,-61.5317 857.9057,-42.0966 868.7328,-28.0674"/>
<polygon fill="#191970" stroke="#191970" points="871.7914,-29.8249 875.0246,-19.7354 866.2053,-25.6065 871.7914,-29.8249"/>
</g>
<!-- Node24&#45;&gt;Node9 -->
<g id="edge50" class="edge">
<title>Node24&#45;&gt;Node9</title>
<path fill="none" stroke="#191970" d="M796.5463,-112.4369C840.2793,-102.8328 907.7345,-88.0191 954.6542,-77.7152"/>
<polygon fill="#191970" stroke="#191970" points="955.6168,-81.0872 964.6333,-75.5237 954.1153,-74.2502 955.6168,-81.0872"/>
</g>
<!-- Node25 -->
<g id="node26" class="node">
<title>Node25</title>
<polygon fill="none" stroke="#bfbfbf" points="646.5,-56.5 646.5,-75.5 739.5,-75.5 739.5,-56.5 646.5,-56.5"/>
<text text-anchor="middle" x="693" y="-63.5" font-family="Helvetica,sans-Serif" font-size="10.00" fill="#000000">unordered_map</text>
</g>
<!-- Node24&#45;&gt;Node25 -->
<g id="edge45" class="edge">
<title>Node24&#45;&gt;Node25</title>
<path fill="none" stroke="#191970" d="M742.5488,-112.2455C733.7731,-104.0549 721.0446,-92.1749 710.686,-82.5069"/>
<polygon fill="#191970" stroke="#191970" points="713.0301,-79.9072 703.3314,-75.6427 708.2539,-85.0246 713.0301,-79.9072"/>
</g>
<!-- Node26 -->
<g id="node27" class="node">
<title>Node26</title>
<g id="a_node27"><a xlink:href="tileData_8hxx.html" target="_top" xlink:title="tileData.hxx">
<polygon fill="none" stroke="#000000" points="551.5,-56.5 551.5,-75.5 628.5,-75.5 628.5,-56.5 551.5,-56.5"/>
<text text-anchor="middle" x="590" y="-63.5" font-family="Helvetica,sans-Serif" font-size="10.00" fill="#000000">tileData.hxx</text>
</a>
</g>
</g>
<!-- Node24&#45;&gt;Node26 -->
<g id="edge47" class="edge">
<title>Node24&#45;&gt;Node26</title>
<path fill="none" stroke="#191970" d="M724.9793,-112.3733C697.9922,-103.1016 656.9983,-89.0178 627.2689,-78.804"/>
<polygon fill="#191970" stroke="#191970" points="628.2497,-75.4403 617.6551,-75.5011 625.9752,-82.0605 628.2497,-75.4403"/>
</g>
<!-- Node27 -->
<g id="node28" class="node">
<title>Node27</title>
<polygon fill="none" stroke="#bfbfbf" points="758,-56.5 758,-75.5 816,-75.5 816,-56.5 758,-56.5"/>
<text text-anchor="middle" x="787" y="-63.5" font-family="Helvetica,sans-Serif" font-size="10.00" fill="#000000">json.hxx</text>
</g>
<!-- Node24&#45;&gt;Node27 -->
<g id="edge49" class="edge">
<title>Node24&#45;&gt;Node27</title>
<path fill="none" stroke="#191970" d="M758.9223,-112.2455C763.6027,-104.5367 770.2673,-93.5598 775.9289,-84.2348"/>
<polygon fill="#191970" stroke="#191970" points="778.9475,-86.007 781.1455,-75.6427 772.9639,-82.3741 778.9475,-86.007"/>
</g>
<!-- Node26&#45;&gt;Node8 -->
<g id="edge48" class="edge">
<title>Node26&#45;&gt;Node8</title>
<path fill="none" stroke="#191970" d="M628.7597,-57.859C631.8845,-57.2228 634.9942,-56.5964 638,-56 713.709,-40.9786 802.8761,-24.4669 849.639,-15.898"/>
<polygon fill="#191970" stroke="#191970" points="850.5617,-19.2874 859.7684,-14.0446 849.3018,-12.4017 850.5617,-19.2874"/>
</g>
<!-- Node28&#45;&gt;Node5 -->
<g id="edge54" class="edge">
<title>Node28&#45;&gt;Node5</title>
<path fill="none" stroke="#191970" d="M720.1018,-224.394C702.8271,-196.3117 653.2305,-116.075 648,-112 643.7161,-108.6626 582.8758,-89.0392 543.4223,-76.5244"/>
<polygon fill="#191970" stroke="#191970" points="544.2468,-73.1143 533.6567,-73.4332 542.1343,-79.7879 544.2468,-73.1143"/>
</g>
<!-- Node28&#45;&gt;Node19 -->
<g id="edge52" class="edge">
<title>Node28&#45;&gt;Node19</title>
<path fill="none" stroke="#191970" d="M692.3064,-224.3733C659.2913,-214.9404 608.8427,-200.5265 572.9614,-190.2747"/>
<polygon fill="#191970" stroke="#191970" points="573.8307,-186.8831 563.2539,-187.5011 571.9076,-193.6137 573.8307,-186.8831"/>
</g>
<!-- Node29 -->
<g id="node30" class="node">
<title>Node29</title>
<polygon fill="none" stroke="#bfbfbf" points="707,-168.5 707,-187.5 745,-187.5 745,-168.5 707,-168.5"/>
<text text-anchor="middle" x="726" y="-175.5" font-family="Helvetica,sans-Serif" font-size="10.00" fill="#000000">map</text>
</g>
<!-- Node28&#45;&gt;Node29 -->
<g id="edge53" class="edge">
<title>Node28&#45;&gt;Node29</title>
<path fill="none" stroke="#191970" d="M726,-224.2455C726,-216.9382 726,-206.6944 726,-197.7046"/>
<polygon fill="#191970" stroke="#191970" points="729.5001,-197.6426 726,-187.6427 722.5001,-197.6427 729.5001,-197.6426"/>
</g>
</g>
</svg>
