<?xml version="1.0" encoding="UTF-8" standalone="no"?>
<!DOCTYPE svg PUBLIC "-//W3C//DTD SVG 1.1//EN"
 "http://www.w3.org/Graphics/SVG/1.1/DTD/svg11.dtd">
<!-- Generated by graphviz version 2.40.1 (20161225.0304)
 -->
<!-- Title: src/engine/ui/widgets/Checkbox.cxx Pages: 1 -->
<!--zoomable 375 -->
<svg id="main" version="1.1" xmlns="http://www.w3.org/2000/svg" xmlns:xlink="http://www.w3.org/1999/xlink" xml:space="preserve" onload="init(evt)">
<style type="text/css"><![CDATA[
.edge:hover path { stroke: red; }
.edge:hover polygon { stroke: red; fill: red; }
]]></style>
<script type="text/javascript"><![CDATA[
var edges = document.getElementsByTagName('g');
if (edges && edges.length) {
  for (var i=0;i<edges.length;i++) {
    if (edges[i].id.substr(0,4)=='edge') {
      edges[i].setAttribute('class','edge');
    }
  }
}
]]></script>
        <defs>
                <circle id="rim" cx="0" cy="0" r="7"/>
                <circle id="rim2" cx="0" cy="0" r="3.5"/>
                <g id="zoomPlus">
                        <use xlink:href="#rim" fill="#404040">
                                <set attributeName="fill" to="#808080" begin="zoomplus.mouseover" end="zoomplus.mouseout"/>
                        </use>
                        <path d="M-4,0h8M0,-4v8" fill="none" stroke="white" stroke-width="1.5" pointer-events="none"/>
                </g>
                <g id="zoomMin">
                        <use xlink:href="#rim" fill="#404040">
                                <set attributeName="fill" to="#808080" begin="zoomminus.mouseover" end="zoomminus.mouseout"/>
                        </use>
                        <path d="M-4,0h8" fill="none" stroke="white" stroke-width="1.5" pointer-events="none"/>
                </g>
                <g id="dirArrow">
                        <path fill="none" stroke="white" stroke-width="1.5" d="M0,-3.0v7 M-2.5,-0.5L0,-3.0L2.5,-0.5"/>
                </g>
               <g id="resetDef">
                       <use xlink:href="#rim2" fill="#404040">
                               <set attributeName="fill" to="#808080" begin="reset.mouseover" end="reset.mouseout"/>
                       </use>
               </g>
        </defs>

<script type="text/javascript">
var viewWidth = 953;
var viewHeight = 375;
var sectionId = 'dynsection-0';
</script>
<script xlink:href="svgpan.js"/>
<svg id="graph" class="graph">
<g id="viewport">
<title>src/engine/ui/widgets/Checkbox.cxx</title>
<!-- Node0 -->
<g id="node1" class="node">
<title>Node0</title>
<polygon fill="#bfbfbf" stroke="#000000" points="275.3732,-336.5 275.3732,-366.5 395.3732,-366.5 395.3732,-336.5 275.3732,-336.5"/>
<text text-anchor="start" x="283.3732" y="-354.5" font-family="Helvetica,sans-Serif" font-size="10.00" fill="#000000">src/engine/ui/widgets</text>
<text text-anchor="middle" x="335.3732" y="-343.5" font-family="Helvetica,sans-Serif" font-size="10.00" fill="#000000">/Checkbox.cxx</text>
</g>
<!-- Node1 -->
<g id="node2" class="node">
<title>Node1</title>
<g id="a_node2"><a xlink:href="Checkbox_8hxx.html" target="_top" xlink:title="Checkbox.hxx">
<polygon fill="none" stroke="#000000" points="292.3732,-280.5 292.3732,-299.5 378.3732,-299.5 378.3732,-280.5 292.3732,-280.5"/>
<text text-anchor="middle" x="335.3732" y="-287.5" font-family="Helvetica,sans-Serif" font-size="10.00" fill="#000000">Checkbox.hxx</text>
</a>
</g>
</g>
<!-- Node0&#45;&gt;Node1 -->
<g id="edge1" class="edge">
<title>Node0&#45;&gt;Node1</title>
<path fill="none" stroke="#191970" d="M335.3732,-336.2977C335.3732,-328.3834 335.3732,-318.6043 335.3732,-310.0759"/>
<polygon fill="#191970" stroke="#191970" points="338.8733,-309.8469 335.3732,-299.8469 331.8733,-309.847 338.8733,-309.8469"/>
</g>
<!-- Node2 -->
<g id="node3" class="node">
<title>Node2</title>
<g id="a_node3"><a xlink:href="UIElement_8hxx.html" target="_top" xlink:title="../basics/UIElement.hxx">
<polygon fill="none" stroke="#000000" points="269.8732,-224.5 269.8732,-243.5 400.8732,-243.5 400.8732,-224.5 269.8732,-224.5"/>
<text text-anchor="middle" x="335.3732" y="-231.5" font-family="Helvetica,sans-Serif" font-size="10.00" fill="#000000">../basics/UIElement.hxx</text>
</a>
</g>
</g>
<!-- Node1&#45;&gt;Node2 -->
<g id="edge2" class="edge">
<title>Node1&#45;&gt;Node2</title>
<path fill="none" stroke="#191970" d="M335.3732,-280.2455C335.3732,-272.9382 335.3732,-262.6944 335.3732,-253.7046"/>
<polygon fill="#191970" stroke="#191970" points="338.8733,-253.6426 335.3732,-243.6427 331.8733,-253.6427 338.8733,-253.6426"/>
</g>
<!-- Node3 -->
<g id="node4" class="node">
<title>Node3</title>
<polygon fill="none" stroke="#bfbfbf" points="258.3732,-.5 258.3732,-19.5 302.3732,-19.5 302.3732,-.5 258.3732,-.5"/>
<text text-anchor="middle" x="280.3732" y="-7.5" font-family="Helvetica,sans-Serif" font-size="10.00" fill="#000000">string</text>
</g>
<!-- Node2&#45;&gt;Node3 -->
<g id="edge3" class="edge">
<title>Node2&#45;&gt;Node3</title>
<path fill="none" stroke="#191970" d="M269.6045,-228.0553C188.5707,-220.0541 59.7727,-204.8635 45.3732,-188 21.5812,-160.1366 -50.6246,-175.5416 61.3732,-56 86.3999,-29.2876 193.2416,-16.9766 247.8929,-12.3391"/>
<polygon fill="#191970" stroke="#191970" points="248.4035,-15.8093 258.0876,-11.5119 247.8373,-8.8322 248.4035,-15.8093"/>
</g>
<!-- Node4 -->
<g id="node5" class="node">
<title>Node4</title>
<g id="a_node5"><a xlink:href="mapEdit_8hxx.html" target="_top" xlink:title="../../basics/mapEdit.hxx">
<polygon fill="none" stroke="#000000" points="54.3732,-168.5 54.3732,-187.5 184.3732,-187.5 184.3732,-168.5 54.3732,-168.5"/>
<text text-anchor="middle" x="119.3732" y="-175.5" font-family="Helvetica,sans-Serif" font-size="10.00" fill="#000000">../../basics/mapEdit.hxx</text>
</a>
</g>
</g>
<!-- Node2&#45;&gt;Node4 -->
<g id="edge4" class="edge">
<title>Node2&#45;&gt;Node4</title>
<path fill="none" stroke="#191970" d="M298.2415,-224.3733C261.5465,-214.8598 205.3094,-200.2797 165.7081,-190.0127"/>
<polygon fill="#191970" stroke="#191970" points="166.5788,-186.6228 156.0204,-187.5011 164.822,-193.3988 166.5788,-186.6228"/>
</g>
<!-- Node5 -->
<g id="node6" class="node">
<title>Node5</title>
<g id="a_node6"><a xlink:href="ResourcesManager_8hxx.html" target="_top" xlink:title="../../ResourcesManager.hxx">
<polygon fill="none" stroke="#000000" points="212.3732,-168.5 212.3732,-187.5 358.3732,-187.5 358.3732,-168.5 212.3732,-168.5"/>
<text text-anchor="middle" x="285.3732" y="-175.5" font-family="Helvetica,sans-Serif" font-size="10.00" fill="#000000">../../ResourcesManager.hxx</text>
</a>
</g>
</g>
<!-- Node2&#45;&gt;Node5 -->
<g id="edge6" class="edge">
<title>Node2&#45;&gt;Node5</title>
<path fill="none" stroke="#191970" d="M326.6639,-224.2455C319.5659,-216.2958 309.3648,-204.8706 300.8782,-195.3656"/>
<polygon fill="#191970" stroke="#191970" points="303.2537,-192.771 293.9828,-187.6427 298.0322,-197.4331 303.2537,-192.771"/>
</g>
<!-- Node8 -->
<g id="node9" class="node">
<title>Node8</title>
<polygon fill="none" stroke="#bfbfbf" points="404.3732,-56.5 404.3732,-75.5 448.3732,-75.5 448.3732,-56.5 404.3732,-56.5"/>
<text text-anchor="middle" x="426.3732" y="-63.5" font-family="Helvetica,sans-Serif" font-size="10.00" fill="#000000">SDL.h</text>
</g>
<!-- Node2&#45;&gt;Node8 -->
<g id="edge30" class="edge">
<title>Node2&#45;&gt;Node8</title>
<path fill="none" stroke="#191970" d="M342.7002,-224.4236C349.5055,-215.3167 359.7125,-201.101 367.3732,-188 378.3155,-169.2871 404.075,-114.3011 417.6507,-84.958"/>
<polygon fill="#191970" stroke="#191970" points="420.8878,-86.2962 421.9003,-75.7498 414.532,-83.363 420.8878,-86.2962"/>
</g>
<!-- Node13 -->
<g id="node14" class="node">
<title>Node13</title>
<g id="a_node14"><a xlink:href="WindowManager_8hxx.html" target="_top" xlink:title="../../WindowManager.hxx">
<polygon fill="none" stroke="#000000" points="453.3732,-168.5 453.3732,-187.5 589.3732,-187.5 589.3732,-168.5 453.3732,-168.5"/>
<text text-anchor="middle" x="521.3732" y="-175.5" font-family="Helvetica,sans-Serif" font-size="10.00" fill="#000000">../../WindowManager.hxx</text>
</a>
</g>
</g>
<!-- Node2&#45;&gt;Node13 -->
<g id="edge18" class="edge">
<title>Node2&#45;&gt;Node13</title>
<path fill="none" stroke="#191970" d="M367.3478,-224.3733C398.5445,-214.9807 446.1442,-200.6496 480.1664,-190.4064"/>
<polygon fill="#191970" stroke="#191970" points="481.2495,-193.7355 489.8159,-187.5011 479.2314,-187.0327 481.2495,-193.7355"/>
</g>
<!-- Node15 -->
<g id="node16" class="node">
<title>Node15</title>
<g id="a_node16"><a xlink:href="signal_8hxx.html" target="_top" xlink:title="../../basics/signal.hxx">
<polygon fill="none" stroke="#000000" points="677.8732,-168.5 677.8732,-187.5 796.8732,-187.5 796.8732,-168.5 677.8732,-168.5"/>
<text text-anchor="middle" x="737.3732" y="-175.5" font-family="Helvetica,sans-Serif" font-size="10.00" fill="#000000">../../basics/signal.hxx</text>
</a>
</g>
</g>
<!-- Node2&#45;&gt;Node15 -->
<g id="edge24" class="edge">
<title>Node2&#45;&gt;Node15</title>
<path fill="none" stroke="#191970" d="M401.3052,-224.8154C474.5943,-214.606 592.4738,-198.185 667.3677,-187.752"/>
<polygon fill="#191970" stroke="#191970" points="668.2198,-191.1672 677.6412,-186.3209 667.2539,-184.2341 668.2198,-191.1672"/>
</g>
<!-- Node4&#45;&gt;Node3 -->
<g id="edge5" class="edge">
<title>Node4&#45;&gt;Node3</title>
<path fill="none" stroke="#191970" d="M109.9735,-168.4404C89.4978,-146.4593 44.9035,-91.4908 73.3732,-56 94.9241,-29.1343 195.5533,-16.9671 248.1521,-12.3641"/>
<polygon fill="#191970" stroke="#191970" points="248.6233,-15.837 258.2978,-11.5181 248.0416,-8.8612 248.6233,-15.837"/>
</g>
<!-- Node6 -->
<g id="node7" class="node">
<title>Node6</title>
<polygon fill="none" stroke="#bfbfbf" points="414.3732,-112.5 414.3732,-131.5 474.3732,-131.5 474.3732,-112.5 414.3732,-112.5"/>
<text text-anchor="middle" x="444.3732" y="-119.5" font-family="Helvetica,sans-Serif" font-size="10.00" fill="#000000">iostream</text>
</g>
<!-- Node5&#45;&gt;Node6 -->
<g id="edge7" class="edge">
<title>Node5&#45;&gt;Node6</title>
<path fill="none" stroke="#191970" d="M312.7063,-168.3733C338.9167,-159.1419 378.6716,-145.1402 407.64,-134.9375"/>
<polygon fill="#191970" stroke="#191970" points="409.1274,-138.1244 417.3968,-131.5011 406.802,-131.5219 409.1274,-138.1244"/>
</g>
<!-- Node7 -->
<g id="node8" class="node">
<title>Node7</title>
<polygon fill="none" stroke="#bfbfbf" points="82.8732,-56.5 82.8732,-75.5 175.8732,-75.5 175.8732,-56.5 82.8732,-56.5"/>
<text text-anchor="middle" x="129.3732" y="-63.5" font-family="Helvetica,sans-Serif" font-size="10.00" fill="#000000">unordered_map</text>
</g>
<!-- Node5&#45;&gt;Node7 -->
<g id="edge8" class="edge">
<title>Node5&#45;&gt;Node7</title>
<path fill="none" stroke="#191970" d="M269.3501,-168.3835C254.5621,-159.3636 232.1224,-145.3074 213.3732,-132 190.5772,-115.8203 165.5055,-95.8137 148.7402,-82.0953"/>
<polygon fill="#191970" stroke="#191970" points="150.7315,-79.2012 140.7863,-75.5483 146.2829,-84.6058 150.7315,-79.2012"/>
</g>
<!-- Node5&#45;&gt;Node8 -->
<g id="edge9" class="edge">
<title>Node5&#45;&gt;Node8</title>
<path fill="none" stroke="#191970" d="M297.3948,-168.4509C321.6403,-149.1921 376.6181,-105.5218 406.3645,-81.8935"/>
<polygon fill="#191970" stroke="#191970" points="408.7287,-84.4854 414.3821,-75.5249 404.3748,-79.0041 408.7287,-84.4854"/>
</g>
<!-- Node9 -->
<g id="node10" class="node">
<title>Node9</title>
<g id="a_node10"><a xlink:href="TileManager_8hxx.html" target="_top" xlink:title="TileManager.hxx">
<polygon fill="none" stroke="#000000" points="222.8732,-112.5 222.8732,-131.5 319.8732,-131.5 319.8732,-112.5 222.8732,-112.5"/>
<text text-anchor="middle" x="271.3732" y="-119.5" font-family="Helvetica,sans-Serif" font-size="10.00" fill="#000000">TileManager.hxx</text>
</a>
</g>
</g>
<!-- Node5&#45;&gt;Node9 -->
<g id="edge10" class="edge">
<title>Node5&#45;&gt;Node9</title>
<path fill="none" stroke="#191970" d="M282.9346,-168.2455C281.0877,-160.8579 278.4904,-150.4689 276.2254,-141.4087"/>
<polygon fill="#191970" stroke="#191970" points="279.6048,-140.4952 273.7839,-131.6427 272.8138,-142.193 279.6048,-140.4952"/>
</g>
<!-- Node9&#45;&gt;Node3 -->
<g id="edge13" class="edge">
<title>Node9&#45;&gt;Node3</title>
<path fill="none" stroke="#191970" d="M272.1406,-112.4509C273.6084,-94.184 276.8411,-53.9553 278.7904,-29.6976"/>
<polygon fill="#191970" stroke="#191970" points="282.2955,-29.7731 279.6078,-19.5249 275.318,-29.2124 282.2955,-29.7731"/>
</g>
<!-- Node9&#45;&gt;Node7 -->
<g id="edge12" class="edge">
<title>Node9&#45;&gt;Node7</title>
<path fill="none" stroke="#191970" d="M246.9626,-112.3733C223.759,-103.2226 188.6694,-89.3844 162.859,-79.2057"/>
<polygon fill="#191970" stroke="#191970" points="164.0522,-75.9139 153.4654,-75.5011 161.484,-82.4258 164.0522,-75.9139"/>
</g>
<!-- Node9&#45;&gt;Node8 -->
<g id="edge11" class="edge">
<title>Node9&#45;&gt;Node8</title>
<path fill="none" stroke="#191970" d="M298.0187,-112.3733C324.8085,-102.6944 366.1135,-87.7712 394.5949,-77.4812"/>
<polygon fill="#191970" stroke="#191970" points="395.8738,-80.7407 404.0895,-74.0509 393.4952,-74.1572 395.8738,-80.7407"/>
</g>
<!-- Node10 -->
<g id="node11" class="node">
<title>Node10</title>
<g id="a_node11"><a xlink:href="tileData_8hxx.html" target="_top" xlink:title="tileData.hxx">
<polygon fill="none" stroke="#000000" points="308.8732,-56.5 308.8732,-75.5 385.8732,-75.5 385.8732,-56.5 308.8732,-56.5"/>
<text text-anchor="middle" x="347.3732" y="-63.5" font-family="Helvetica,sans-Serif" font-size="10.00" fill="#000000">tileData.hxx</text>
</a>
</g>
</g>
<!-- Node9&#45;&gt;Node10 -->
<g id="edge14" class="edge">
<title>Node9&#45;&gt;Node10</title>
<path fill="none" stroke="#191970" d="M284.6114,-112.2455C296.0542,-103.814 312.8028,-91.4729 326.1207,-81.6598"/>
<polygon fill="#191970" stroke="#191970" points="328.3124,-84.3924 334.2867,-75.6427 324.1599,-78.757 328.3124,-84.3924"/>
</g>
<!-- Node11 -->
<g id="node12" class="node">
<title>Node11</title>
<polygon fill="none" stroke="#bfbfbf" points="194.3732,-56.5 194.3732,-75.5 252.3732,-75.5 252.3732,-56.5 194.3732,-56.5"/>
<text text-anchor="middle" x="223.3732" y="-63.5" font-family="Helvetica,sans-Serif" font-size="10.00" fill="#000000">json.hxx</text>
</g>
<!-- Node9&#45;&gt;Node11 -->
<g id="edge16" class="edge">
<title>Node9&#45;&gt;Node11</title>
<path fill="none" stroke="#191970" d="M263.0123,-112.2455C256.1982,-104.2958 246.4051,-92.8706 238.258,-83.3656"/>
<polygon fill="#191970" stroke="#191970" points="240.8037,-80.9575 231.6384,-75.6427 235.4889,-85.513 240.8037,-80.9575"/>
</g>
<!-- Node12 -->
<g id="node13" class="node">
<title>Node12</title>
<g id="a_node13"><a xlink:href="Singleton_8hxx.html" target="_top" xlink:title="Singleton.hxx">
<polygon fill="none" stroke="#000000" points="466.8732,-56.5 466.8732,-75.5 549.8732,-75.5 549.8732,-56.5 466.8732,-56.5"/>
<text text-anchor="middle" x="508.3732" y="-63.5" font-family="Helvetica,sans-Serif" font-size="10.00" fill="#000000">Singleton.hxx</text>
</a>
</g>
</g>
<!-- Node9&#45;&gt;Node12 -->
<g id="edge17" class="edge">
<title>Node9&#45;&gt;Node12</title>
<path fill="none" stroke="#191970" d="M311.8457,-112.4369C352.3212,-102.8731 414.6599,-88.1432 458.2435,-77.845"/>
<polygon fill="#191970" stroke="#191970" points="459.1405,-81.2295 468.0677,-75.5237 457.5308,-74.4171 459.1405,-81.2295"/>
</g>
<!-- Node10&#45;&gt;Node3 -->
<g id="edge15" class="edge">
<title>Node10&#45;&gt;Node3</title>
<path fill="none" stroke="#191970" d="M335.7027,-56.2455C325.8071,-47.9746 311.4105,-35.9416 299.7831,-26.2232"/>
<polygon fill="#191970" stroke="#191970" points="301.8274,-23.3703 291.91,-19.6427 297.3382,-28.7413 301.8274,-23.3703"/>
</g>
<!-- Node13&#45;&gt;Node3 -->
<g id="edge19" class="edge">
<title>Node13&#45;&gt;Node3</title>
<path fill="none" stroke="#191970" d="M529.7476,-168.2241C547.9283,-145.7879 587.1488,-89.9283 558.3732,-56 542.572,-37.3694 382.1817,-19.8072 312.4557,-12.9885"/>
<polygon fill="#191970" stroke="#191970" points="312.7562,-9.5014 302.4662,-12.0247 312.0838,-16.469 312.7562,-9.5014"/>
</g>
<!-- Node13&#45;&gt;Node6 -->
<g id="edge20" class="edge">
<title>Node13&#45;&gt;Node6</title>
<path fill="none" stroke="#191970" d="M507.9608,-168.2455C496.3675,-159.814 479.3985,-147.4729 465.9054,-137.6598"/>
<polygon fill="#191970" stroke="#191970" points="467.7779,-134.6938 457.6319,-131.6427 463.6607,-140.355 467.7779,-134.6938"/>
</g>
<!-- Node13&#45;&gt;Node8 -->
<g id="edge22" class="edge">
<title>Node13&#45;&gt;Node8</title>
<path fill="none" stroke="#191970" d="M517.1978,-168.3356C511.0614,-154.8115 498.6622,-129.8924 483.3732,-112 473.5957,-100.5575 460.6749,-89.8627 449.6075,-81.6702"/>
<polygon fill="#191970" stroke="#191970" points="451.3933,-78.6443 441.2245,-75.67 447.3191,-84.3364 451.3933,-78.6443"/>
</g>
<!-- Node13&#45;&gt;Node12 -->
<g id="edge23" class="edge">
<title>Node13&#45;&gt;Node12</title>
<path fill="none" stroke="#191970" d="M520.9234,-168.1304C520.2661,-155.2012 518.8443,-131.8414 516.3732,-112 515.2988,-103.373 513.7205,-93.9008 512.2491,-85.8057"/>
<polygon fill="#191970" stroke="#191970" points="515.6602,-85.0067 510.3663,-75.8293 508.7816,-86.305 515.6602,-85.0067"/>
</g>
<!-- Node14 -->
<g id="node15" class="node">
<title>Node14</title>
<polygon fill="none" stroke="#bfbfbf" points="606.8732,-112.5 606.8732,-131.5 653.8732,-131.5 653.8732,-112.5 606.8732,-112.5"/>
<text text-anchor="middle" x="630.3732" y="-119.5" font-family="Helvetica,sans-Serif" font-size="10.00" fill="#000000">vector</text>
</g>
<!-- Node13&#45;&gt;Node14 -->
<g id="edge21" class="edge">
<title>Node13&#45;&gt;Node14</title>
<path fill="none" stroke="#191970" d="M540.3596,-168.2455C557.5524,-159.4125 583.097,-146.2887 602.5864,-136.2758"/>
<polygon fill="#191970" stroke="#191970" points="604.3091,-139.3257 611.6044,-131.6427 601.1102,-133.0993 604.3091,-139.3257"/>
</g>
<!-- Node15&#45;&gt;Node14 -->
<g id="edge28" class="edge">
<title>Node15&#45;&gt;Node14</title>
<path fill="none" stroke="#191970" d="M718.7352,-168.2455C701.9346,-159.4527 677.0098,-146.4079 657.9114,-136.4125"/>
<polygon fill="#191970" stroke="#191970" points="659.2805,-133.1787 648.7976,-131.6427 656.0346,-139.3807 659.2805,-133.1787"/>
</g>
<!-- Node16 -->
<g id="node17" class="node">
<title>Node16</title>
<polygon fill="none" stroke="#bfbfbf" points="887.3732,-112.5 887.3732,-131.5 945.3732,-131.5 945.3732,-112.5 887.3732,-112.5"/>
<text text-anchor="middle" x="916.3732" y="-119.5" font-family="Helvetica,sans-Serif" font-size="10.00" fill="#000000">memory</text>
</g>
<!-- Node15&#45;&gt;Node16 -->
<g id="edge25" class="edge">
<title>Node15&#45;&gt;Node16</title>
<path fill="none" stroke="#191970" d="M768.1444,-168.3733C798.4006,-158.9076 844.6889,-144.4264 877.4788,-134.1681"/>
<polygon fill="#191970" stroke="#191970" points="878.6901,-137.4565 887.1889,-131.1303 876.6,-130.7758 878.6901,-137.4565"/>
</g>
<!-- Node17 -->
<g id="node18" class="node">
<title>Node17</title>
<polygon fill="none" stroke="#bfbfbf" points="671.8732,-112.5 671.8732,-131.5 736.8732,-131.5 736.8732,-112.5 671.8732,-112.5"/>
<text text-anchor="middle" x="704.3732" y="-119.5" font-family="Helvetica,sans-Serif" font-size="10.00" fill="#000000">functional</text>
</g>
<!-- Node15&#45;&gt;Node17 -->
<g id="edge26" class="edge">
<title>Node15&#45;&gt;Node17</title>
<path fill="none" stroke="#191970" d="M731.6251,-168.2455C727.1297,-160.617 720.7484,-149.7881 715.2908,-140.5267"/>
<polygon fill="#191970" stroke="#191970" points="718.1479,-138.4811 710.0555,-131.6427 712.1171,-142.035 718.1479,-138.4811"/>
</g>
<!-- Node18 -->
<g id="node19" class="node">
<title>Node18</title>
<polygon fill="none" stroke="#bfbfbf" points="755.3732,-112.5 755.3732,-131.5 787.3732,-131.5 787.3732,-112.5 755.3732,-112.5"/>
<text text-anchor="middle" x="771.3732" y="-119.5" font-family="Helvetica,sans-Serif" font-size="10.00" fill="#000000">list</text>
</g>
<!-- Node15&#45;&gt;Node18 -->
<g id="edge27" class="edge">
<title>Node15&#45;&gt;Node18</title>
<path fill="none" stroke="#191970" d="M743.2956,-168.2455C747.9759,-160.5367 754.6405,-149.5598 760.3021,-140.2348"/>
<polygon fill="#191970" stroke="#191970" points="763.3207,-142.007 765.5187,-131.6427 757.3371,-138.3741 763.3207,-142.007"/>
</g>
<!-- Node19 -->
<g id="node20" class="node">
<title>Node19</title>
<polygon fill="none" stroke="#bfbfbf" points="805.3732,-112.5 805.3732,-131.5 869.3732,-131.5 869.3732,-112.5 805.3732,-112.5"/>
<text text-anchor="middle" x="837.3732" y="-119.5" font-family="Helvetica,sans-Serif" font-size="10.00" fill="#000000">algorithm</text>
</g>
<!-- Node15&#45;&gt;Node19 -->
<g id="edge29" class="edge">
<title>Node15&#45;&gt;Node19</title>
<path fill="none" stroke="#191970" d="M754.7919,-168.2455C770.4218,-159.4928 793.5751,-146.527 811.3918,-136.5496"/>
<polygon fill="#191970" stroke="#191970" points="813.1392,-139.5825 820.1542,-131.6427 809.719,-133.475 813.1392,-139.5825"/>
</g>
</g>
</svg>
        <g id="navigator" transform="translate(0 0)" fill="#404254">
                <rect fill="#f2f5e9" fill-opacity="0.5" stroke="#606060" stroke-width=".5" x="0" y="0" width="60" height="60"/>
                <use id="zoomplus" xlink:href="#zoomPlus" x="17" y="9" onmousedown="handleZoom(evt,'in')"/>
                <use id="zoomminus" xlink:href="#zoomMin" x="42" y="9" onmousedown="handleZoom(evt,'out')"/>
                <use id="reset" xlink:href="#resetDef" x="30" y="36" onmousedown="handleReset()"/>
                <g id="arrowUp" xlink:href="#dirArrow" transform="translate(30 24)" onmousedown="handlePan(0,-1)">
                  <use xlink:href="#rim" fill="#404040">
                        <set attributeName="fill" to="#808080" begin="arrowUp.mouseover" end="arrowUp.mouseout"/>
                  </use>
                  <path fill="none" stroke="white" stroke-width="1.5" d="M0,-3.0v7 M-2.5,-0.5L0,-3.0L2.5,-0.5"/>
                </g>
                <g id="arrowRight" xlink:href="#dirArrow" transform="rotate(90) translate(36 -43)" onmousedown="handlePan(1,0)">
                  <use xlink:href="#rim" fill="#404040">
                        <set attributeName="fill" to="#808080" begin="arrowRight.mouseover" end="arrowRight.mouseout"/>
                  </use>
                  <path fill="none" stroke="white" stroke-width="1.5" d="M0,-3.0v7 M-2.5,-0.5L0,-3.0L2.5,-0.5"/>
                </g>
                <g id="arrowDown" xlink:href="#dirArrow" transform="rotate(180) translate(-30 -48)" onmousedown="handlePan(0,1)">
                  <use xlink:href="#rim" fill="#404040">
                        <set attributeName="fill" to="#808080" begin="arrowDown.mouseover" end="arrowDown.mouseout"/>
                  </use>
                  <path fill="none" stroke="white" stroke-width="1.5" d="M0,-3.0v7 M-2.5,-0.5L0,-3.0L2.5,-0.5"/>
                </g>
                <g id="arrowLeft" xlink:href="#dirArrow" transform="rotate(270) translate(-36 17)" onmousedown="handlePan(-1,0)">
                  <use xlink:href="#rim" fill="#404040">
                        <set attributeName="fill" to="#808080" begin="arrowLeft.mouseover" end="arrowLeft.mouseout"/>
                  </use>
                  <path fill="none" stroke="white" stroke-width="1.5" d="M0,-3.0v7 M-2.5,-0.5L0,-3.0L2.5,-0.5"/>
                </g>
        </g>
        <svg viewBox="0 0 15 15" width="100%" height="30px" preserveAspectRatio="xMaxYMin meet">
         <g id="arrow_out" transform="scale(0.3 0.3)">
          <a xlink:href="Checkbox_8cxx__incl_org.svg" target="_base">
           <rect id="button" ry="5" rx="5" y="6" x="6" height="38" width="38"
                fill="#f2f5e9" fill-opacity="0.5" stroke="#606060" stroke-width="1.0"/>
           <path id="arrow"
             d="M 11.500037,31.436501 C 11.940474,20.09759 22.043105,11.32322 32.158766,21.979434 L 37.068811,17.246167 C 37.068811,17.246167 37.088388,32 37.088388,32 L 22.160133,31.978069 C 22.160133,31.978069 26.997745,27.140456 26.997745,27.140456 C 18.528582,18.264221 13.291696,25.230495 11.500037,31.436501 z"
             style="fill:#404040;"/>
          </a>
         </g>
        </svg>
</svg>
