<?xml version="1.0" encoding="UTF-8" standalone="no"?>
<!DOCTYPE svg PUBLIC "-//W3C//DTD SVG 1.1//EN"
 "http://www.w3.org/Graphics/SVG/1.1/DTD/svg11.dtd">
<!-- Generated by graphviz version 2.40.1 (20161225.0304)
 -->
<!-- Title: Map::updateAllNodes Pages: 1 -->
<svg width="658pt" height="266pt"
 viewBox="0.00 0.00 658.00 265.50" xmlns="http://www.w3.org/2000/svg" xmlns:xlink="http://www.w3.org/1999/xlink">
<g id="graph0" class="graph" transform="scale(1 1) rotate(0) translate(4 261.5)">
<title>Map::updateAllNodes</title>
<!-- Node378 -->
<g id="node1" class="node">
<title>Node378</title>
<polygon fill="#bfbfbf" stroke="#000000" points="0,-88 0,-107 120,-107 120,-88 0,-88"/>
<text text-anchor="middle" x="60" y="-95" font-family="Helvetica,sans-Serif" font-size="10.00" fill="#000000">Map::updateAllNodes</text>
</g>
<!-- Node379 -->
<g id="node2" class="node">
<title>Node379</title>
<g id="a_node2"><a xlink:href="classMap.html#a59d21f2688713fbcfe320eb1b24405ca" target="_top" xlink:title="Update mapNode and its adjacent tiles Updates mapNode height information, draws slopes for adjacent t...">
<polygon fill="none" stroke="#000000" points="156,-88 156,-107 319,-107 319,-88 156,-88"/>
<text text-anchor="middle" x="237.5" y="-95" font-family="Helvetica,sans-Serif" font-size="10.00" fill="#000000">Map::updateNeighborsOfNode</text>
</a>
</g>
</g>
<!-- Node378&#45;&gt;Node379 -->
<g id="edge1" class="edge">
<title>Node378&#45;&gt;Node379</title>
<path fill="none" stroke="#191970" d="M120.0934,-97.5C128.3342,-97.5 136.9443,-97.5 145.5944,-97.5"/>
<polygon fill="#191970" stroke="#191970" points="145.7476,-101.0001 155.7476,-97.5 145.7475,-94.0001 145.7476,-101.0001"/>
</g>
<!-- Node380 -->
<g id="node3" class="node">
<title>Node380</title>
<g id="a_node3"><a xlink:href="classMap.html#aab37e4a52faf81e9b696b8cf1bd9a690" target="_top" xlink:title="Get neighbor MapNode Objects Stores pointers to the neighboring nodes of the given coordinates in the...">
<polygon fill="none" stroke="#000000" points="374,-238 374,-257 482,-257 482,-238 374,-238"/>
<text text-anchor="middle" x="428" y="-245" font-family="Helvetica,sans-Serif" font-size="10.00" fill="#000000">Map::getNeighbors</text>
</a>
</g>
</g>
<!-- Node379&#45;&gt;Node380 -->
<g id="edge2" class="edge">
<title>Node379&#45;&gt;Node380</title>
<path fill="none" stroke="#191970" d="M243.2636,-107.1464C258.3419,-131.5137 301.5132,-195.9165 355,-228.5 358.5859,-230.6845 362.4186,-232.6198 366.3801,-234.3341"/>
<polygon fill="#191970" stroke="#191970" points="365.2116,-237.6345 375.8018,-237.9463 367.7175,-231.0984 365.2116,-237.6345"/>
</g>
<!-- Node381 -->
<g id="node4" class="node">
<title>Node381</title>
<g id="a_node4"><a xlink:href="classMap.html#a0ff55eb041cdf29aa582a21145319ce0" target="_top" xlink:title="Get elevated neighbor positions in a bitmask Checks all neighboring tiles and returns the elevated ne...">
<polygon fill="none" stroke="#000000" points="355,-188.5 355,-218.5 501,-218.5 501,-188.5 355,-188.5"/>
<text text-anchor="start" x="363" y="-206.5" font-family="Helvetica,sans-Serif" font-size="10.00" fill="#000000">Map::getElevatedNeighbor</text>
<text text-anchor="middle" x="428" y="-195.5" font-family="Helvetica,sans-Serif" font-size="10.00" fill="#000000">Bitmask</text>
</a>
</g>
</g>
<!-- Node379&#45;&gt;Node381 -->
<g id="edge3" class="edge">
<title>Node379&#45;&gt;Node381</title>
<path fill="none" stroke="#191970" d="M250.7559,-107.236C272.0195,-122.5818 315.3914,-152.7774 355,-173.5 362.4173,-177.3806 370.4519,-181.1176 378.3867,-184.5585"/>
<polygon fill="#191970" stroke="#191970" points="377.0387,-187.7885 387.6128,-188.4527 379.7609,-181.3395 377.0387,-187.7885"/>
</g>
<!-- Node382 -->
<g id="node5" class="node">
<title>Node382</title>
<g id="a_node5"><a xlink:href="classMap.html#a05e7d896dc5062af07c9b838600a068d" target="_top" xlink:title="Demolish a node Invokes the tiles demolish function. ">
<polygon fill="none" stroke="#000000" points="537,-95 537,-114 650,-114 650,-95 537,-95"/>
<text text-anchor="middle" x="593.5" y="-102" font-family="Helvetica,sans-Serif" font-size="10.00" fill="#000000">Map::demolishNode</text>
</a>
</g>
</g>
<!-- Node379&#45;&gt;Node382 -->
<g id="edge4" class="edge">
<title>Node379&#45;&gt;Node382</title>
<path fill="none" stroke="#191970" d="M312.344,-107.0298C326.4322,-109.6288 341.1032,-112.038 355,-113.5 419.5327,-120.2892 436.4105,-119.726 501,-113.5 509.3103,-112.6989 517.9831,-111.502 526.5437,-110.1701"/>
<polygon fill="#191970" stroke="#191970" points="527.1989,-113.6097 536.513,-108.5602 526.0829,-106.6992 527.1989,-113.6097"/>
</g>
<!-- Node383 -->
<g id="node6" class="node">
<title>Node383</title>
<g id="a_node6"><a xlink:href="classMap.html#a392940f84796653b8e811ed8dc296c84" target="_top" xlink:title="Get a bitmask that represents same&#45;tile neighbors Checks all neighboring tiles and returns the elevat...">
<polygon fill="none" stroke="#000000" points="357.5,-82.5 357.5,-112.5 498.5,-112.5 498.5,-82.5 357.5,-82.5"/>
<text text-anchor="start" x="365.5" y="-100.5" font-family="Helvetica,sans-Serif" font-size="10.00" fill="#000000">Map::getNeighboringTiles</text>
<text text-anchor="middle" x="428" y="-89.5" font-family="Helvetica,sans-Serif" font-size="10.00" fill="#000000">Bitmask</text>
</a>
</g>
</g>
<!-- Node379&#45;&gt;Node383 -->
<g id="edge6" class="edge">
<title>Node379&#45;&gt;Node383</title>
<path fill="none" stroke="#191970" d="M319.1182,-97.5C328.4625,-97.5 337.9856,-97.5 347.3177,-97.5"/>
<polygon fill="#191970" stroke="#191970" points="347.3514,-101.0001 357.3514,-97.5 347.3514,-94.0001 347.3514,-101.0001"/>
</g>
<!-- Node384 -->
<g id="node7" class="node">
<title>Node384</title>
<g id="a_node7"><a xlink:href="classMap.html#aba5154a4d917900679a3c0f7ec701561" target="_top" xlink:title="Increase Height Increases the height of the node and checks the surrounding tiles. Either draw a slope sprite or elevate the tile if necessary. ">
<polygon fill="none" stroke="#000000" points="370,-6 370,-25 486,-25 486,-6 370,-6"/>
<text text-anchor="middle" x="428" y="-13" font-family="Helvetica,sans-Serif" font-size="10.00" fill="#000000">Map::increaseHeight</text>
</a>
</g>
</g>
<!-- Node379&#45;&gt;Node384 -->
<g id="edge7" class="edge">
<title>Node379&#45;&gt;Node384</title>
<path fill="none" stroke="#191970" d="M245.1676,-87.9713C263.4762,-71.9203 311.4658,-42.5555 355,-25.5 356.6347,-24.8596 358.2984,-24.2341 359.9835,-23.6251"/>
<polygon fill="#191970" stroke="#191970" points="361.4489,-26.8253 369.8172,-20.3273 359.2232,-20.1886 361.4489,-26.8253"/>
</g>
<!-- Node386 -->
<g id="node9" class="node">
<title>Node386</title>
<g id="a_node9"><a xlink:href="classMap.html#afb8cc864df90d273a5074872d635dc40" target="_top" xlink:title="Decrease Height Decreases the height of the node and checks the surrounding tiles. Either draw a slope sprite or lower the tile if necessary. ">
<polygon fill="none" stroke="#000000" points="368.5,-44 368.5,-63 487.5,-63 487.5,-44 368.5,-44"/>
<text text-anchor="middle" x="428" y="-51" font-family="Helvetica,sans-Serif" font-size="10.00" fill="#000000">Map::decreaseHeight</text>
</a>
</g>
</g>
<!-- Node379&#45;&gt;Node386 -->
<g id="edge11" class="edge">
<title>Node379&#45;&gt;Node386</title>
<path fill="none" stroke="#191970" d="M259.3528,-87.9587C283.3694,-80.441 323.1824,-70.5657 358.0957,-63.1129"/>
<polygon fill="#191970" stroke="#191970" points="359.2018,-66.4573 368.2718,-60.9813 357.7666,-59.606 359.2018,-66.4573"/>
</g>
<!-- Node382&#45;&gt;Node379 -->
<g id="edge5" class="edge">
<title>Node382&#45;&gt;Node379</title>
<path fill="none" stroke="#191970" d="M580.138,-114.0657C562.2594,-121.3502 529.4984,-128.753 501,-131.5 436.4105,-137.726 419.5327,-138.2892 355,-131.5 321.7553,-128.0025 284.0796,-119.0846 260.5533,-110.6958"/>
<polygon fill="#191970" stroke="#191970" points="261.6875,-107.3817 251.0986,-107.0257 259.1543,-113.9073 261.6875,-107.3817"/>
</g>
<!-- Node384&#45;&gt;Node379 -->
<g id="edge10" class="edge">
<title>Node384&#45;&gt;Node379</title>
<path fill="none" stroke="#191970" d="M413.1329,-25.0899C398.1478,-30.3456 374.5096,-35.8567 355,-43.5 326.3978,-54.7055 295.8725,-71.2245 273.105,-83.2821"/>
<polygon fill="#191970" stroke="#191970" points="271.3826,-80.2334 264.1616,-87.9864 274.6413,-86.4287 271.3826,-80.2334"/>
</g>
<!-- Node384&#45;&gt;Node382 -->
<g id="edge9" class="edge">
<title>Node384&#45;&gt;Node382</title>
<path fill="none" stroke="#191970" d="M475.7051,-25.0206C484.3407,-27.5491 493.1039,-30.6739 501,-34.5 529.6578,-48.3864 558.204,-71.8248 575.8429,-87.7172"/>
<polygon fill="#191970" stroke="#191970" points="573.8506,-90.6404 583.5785,-94.8378 578.5914,-85.4901 573.8506,-90.6404"/>
</g>
<!-- Node385 -->
<g id="node8" class="node">
<title>Node385</title>
<g id="a_node8"><a xlink:href="classSingleton.html#af5cb1e5749949e2b68416cfb8d378044" target="_top" xlink:title="Get an instance of the singleton. ">
<polygon fill="none" stroke="#000000" points="537,-.5 537,-30.5 650,-30.5 650,-.5 537,-.5"/>
<text text-anchor="start" x="545" y="-18.5" font-family="Helvetica,sans-Serif" font-size="10.00" fill="#000000">Singleton&lt; Settings</text>
<text text-anchor="middle" x="593.5" y="-7.5" font-family="Helvetica,sans-Serif" font-size="10.00" fill="#000000"> &gt;::instance</text>
</a>
</g>
</g>
<!-- Node384&#45;&gt;Node385 -->
<g id="edge8" class="edge">
<title>Node384&#45;&gt;Node385</title>
<path fill="none" stroke="#191970" d="M486.3491,-15.5C499.4012,-15.5 513.3429,-15.5 526.7073,-15.5"/>
<polygon fill="#191970" stroke="#191970" points="526.7903,-19.0001 536.7903,-15.5 526.7903,-12.0001 526.7903,-19.0001"/>
</g>
<!-- Node386&#45;&gt;Node379 -->
<g id="edge13" class="edge">
<title>Node386&#45;&gt;Node379</title>
<path fill="none" stroke="#191970" d="M405.8824,-63.1241C384.0259,-69.9485 349.2737,-78.6925 317.0022,-85.8046"/>
<polygon fill="#191970" stroke="#191970" points="316.1146,-82.4157 307.0835,-87.9555 317.5981,-89.2567 316.1146,-82.4157"/>
</g>
<!-- Node386&#45;&gt;Node382 -->
<g id="edge12" class="edge">
<title>Node386&#45;&gt;Node382</title>
<path fill="none" stroke="#191970" d="M464.5043,-63.0707C476.2015,-66.2524 489.1828,-69.9041 501,-73.5 519.4211,-79.1054 539.7235,-85.846 556.6033,-91.6079"/>
<polygon fill="#191970" stroke="#191970" points="555.5117,-94.9336 566.1063,-94.8714 557.7853,-88.3131 555.5117,-94.9336"/>
</g>
</g>
</svg>
