<?xml version="1.0" encoding="UTF-8" standalone="no"?>
<!DOCTYPE svg PUBLIC "-//W3C//DTD SVG 1.1//EN"
 "http://www.w3.org/Graphics/SVG/1.1/DTD/svg11.dtd">
<!-- Generated by graphviz version 2.40.1 (20161225.0304)
 -->
<!-- Title: AudioMixer::onTrackFinishedFuncPtr Pages: 1 -->
<svg width="513pt" height="39pt"
 viewBox="0.00 0.00 513.00 39.00" xmlns="http://www.w3.org/2000/svg" xmlns:xlink="http://www.w3.org/1999/xlink">
<g id="graph0" class="graph" transform="scale(1 1) rotate(0) translate(4 35)">
<title>AudioMixer::onTrackFinishedFuncPtr</title>
<!-- Node42 -->
<g id="node1" class="node">
<title>Node42</title>
<polygon fill="#bfbfbf" stroke="#000000" points="0,-.5 0,-30.5 155,-30.5 155,-.5 0,-.5"/>
<text text-anchor="start" x="8" y="-18.5" font-family="Helvetica,sans-Serif" font-size="10.00" fill="#000000">AudioMixer::onTrackFinished</text>
<text text-anchor="middle" x="77.5" y="-7.5" font-family="Helvetica,sans-Serif" font-size="10.00" fill="#000000">FuncPtr</text>
</g>
<!-- Node43 -->
<g id="node2" class="node">
<title>Node43</title>
<g id="a_node2"><a xlink:href="classAudioMixer.html#a8768f4604c540f6e4730cce4ed7a85d0" target="_top" xlink:title="Loads all game sounds, can be called in new thread. ">
<polygon fill="none" stroke="#000000" points="191,-6 191,-25 337,-25 337,-6 191,-6"/>
<text text-anchor="middle" x="264" y="-13" font-family="Helvetica,sans-Serif" font-size="10.00" fill="#000000">AudioMixer::loadAllSounds</text>
</a>
</g>
</g>
<!-- Node42&#45;&gt;Node43 -->
<g id="edge1" class="edge">
<title>Node42&#45;&gt;Node43</title>
<path fill="none" stroke="#191970" d="M165.2568,-15.5C173.8268,-15.5 182.4588,-15.5 190.8621,-15.5"/>
<polygon fill="#191970" stroke="#191970" points="165.2423,-12.0001 155.2423,-15.5 165.2423,-19.0001 165.2423,-12.0001"/>
</g>
<!-- Node44 -->
<g id="node3" class="node">
<title>Node44</title>
<g id="a_node3"><a xlink:href="classAudioMixer.html#add40bb51b99554f0408efe1630bf983d" target="_top" xlink:title="AudioMixer::AudioMixer">
<polygon fill="none" stroke="#000000" points="373,-6 373,-25 505,-25 505,-6 373,-6"/>
<text text-anchor="middle" x="439" y="-13" font-family="Helvetica,sans-Serif" font-size="10.00" fill="#000000">AudioMixer::AudioMixer</text>
</a>
</g>
</g>
<!-- Node43&#45;&gt;Node44 -->
<g id="edge2" class="edge">
<title>Node43&#45;&gt;Node44</title>
<path fill="none" stroke="#191970" d="M347.224,-15.5C355.7997,-15.5 364.4304,-15.5 372.7854,-15.5"/>
<polygon fill="#191970" stroke="#191970" points="347.2018,-12.0001 337.2018,-15.5 347.2017,-19.0001 347.2018,-12.0001"/>
</g>
</g>
</svg>
