<?xml version="1.0" encoding="UTF-8" standalone="no"?>
<!DOCTYPE svg PUBLIC "-//W3C//DTD SVG 1.1//EN"
 "http://www.w3.org/Graphics/SVG/1.1/DTD/svg11.dtd">
<!-- Generated by graphviz version 2.40.1 (20161225.0304)
 -->
<!-- Title: Map::getColorOfPixelInSurface Pages: 1 -->
<svg width="1192pt" height="66pt"
 viewBox="0.00 0.00 1192.00 66.00" xmlns="http://www.w3.org/2000/svg" xmlns:xlink="http://www.w3.org/1999/xlink">
<g id="graph0" class="graph" transform="scale(1 1) rotate(0) translate(4 62)">
<title>Map::getColorOfPixelInSurface</title>
<!-- Node106 -->
<g id="node1" class="node">
<title>Node106</title>
<polygon fill="#bfbfbf" stroke="#000000" points="0,-19.5 0,-38.5 165,-38.5 165,-19.5 0,-19.5"/>
<text text-anchor="middle" x="82.5" y="-26.5" font-family="Helvetica,sans-Serif" font-size="10.00" fill="#000000">Map::getColorOfPixelInSurface</text>
</g>
<!-- Node107 -->
<g id="node2" class="node">
<title>Node107</title>
<g id="a_node2"><a xlink:href="classMap.html#a1f87a6ce8b3be8d140bcee1b1e473903" target="_top" xlink:title="Map::isClickWithinTile">
<polygon fill="none" stroke="#000000" points="201,-19.5 201,-38.5 326,-38.5 326,-19.5 201,-19.5"/>
<text text-anchor="middle" x="263.5" y="-26.5" font-family="Helvetica,sans-Serif" font-size="10.00" fill="#000000">Map::isClickWithinTile</text>
</a>
</g>
</g>
<!-- Node106&#45;&gt;Node107 -->
<g id="edge1" class="edge">
<title>Node106&#45;&gt;Node107</title>
<path fill="none" stroke="#191970" d="M175.2288,-29C183.901,-29 192.5459,-29 200.8447,-29"/>
<polygon fill="#191970" stroke="#191970" points="175.055,-25.5001 165.055,-29 175.055,-32.5001 175.055,-25.5001"/>
</g>
<!-- Node108 -->
<g id="node3" class="node">
<title>Node108</title>
<g id="a_node3"><a xlink:href="classMap.html#a8cc1c9d35ae2c3ede6bc0fcc59b9aa41" target="_top" xlink:title="Returns the node at given screencoordinates. ">
<polygon fill="none" stroke="#000000" points="362,-19.5 362,-38.5 478,-38.5 478,-19.5 362,-19.5"/>
<text text-anchor="middle" x="420" y="-26.5" font-family="Helvetica,sans-Serif" font-size="10.00" fill="#000000">Map::findNodeInMap</text>
</a>
</g>
</g>
<!-- Node107&#45;&gt;Node108 -->
<g id="edge2" class="edge">
<title>Node107&#45;&gt;Node108</title>
<path fill="none" stroke="#191970" d="M336.524,-29C345,-29 353.5581,-29 361.7982,-29"/>
<polygon fill="#191970" stroke="#191970" points="336.2528,-25.5001 326.2528,-29 336.2528,-32.5001 336.2528,-25.5001"/>
</g>
<!-- Node109 -->
<g id="node4" class="node">
<title>Node109</title>
<g id="a_node4"><a xlink:href="isoMath_8hxx.html#ad3c5f070c4a876bc6e8978635d02ce52" target="_top" xlink:title="converts screen space coordinates to isometric space coordinates. To convert screen coordinates in to...">
<polygon fill="none" stroke="#000000" points="514,-19.5 514,-38.5 684,-38.5 684,-19.5 514,-19.5"/>
<text text-anchor="middle" x="599" y="-26.5" font-family="Helvetica,sans-Serif" font-size="10.00" fill="#000000">convertScreenToIsoCoordinates</text>
</a>
</g>
</g>
<!-- Node108&#45;&gt;Node109 -->
<g id="edge3" class="edge">
<title>Node108&#45;&gt;Node109</title>
<path fill="none" stroke="#191970" d="M488.2057,-29C496.6028,-29 505.2655,-29 513.874,-29"/>
<polygon fill="#191970" stroke="#191970" points="488.1162,-25.5001 478.1162,-29 488.1161,-32.5001 488.1162,-25.5001"/>
</g>
<!-- Node110 -->
<g id="node5" class="node">
<title>Node110</title>
<g id="a_node5"><a xlink:href="classEventManager.html#a65ec91fd5016d4f9c4167fb8babed2df" target="_top" xlink:title="EventManager::checkEvents">
<polygon fill="none" stroke="#000000" points="720,-19.5 720,-38.5 874,-38.5 874,-19.5 720,-19.5"/>
<text text-anchor="middle" x="797" y="-26.5" font-family="Helvetica,sans-Serif" font-size="10.00" fill="#000000">EventManager::checkEvents</text>
</a>
</g>
</g>
<!-- Node109&#45;&gt;Node110 -->
<g id="edge4" class="edge">
<title>Node109&#45;&gt;Node110</title>
<path fill="none" stroke="#191970" d="M694.161,-29C702.7436,-29 711.3647,-29 719.7658,-29"/>
<polygon fill="#191970" stroke="#191970" points="694.1189,-25.5001 684.1189,-29 694.1189,-32.5001 694.1189,-25.5001"/>
</g>
<!-- Node111 -->
<g id="node6" class="node">
<title>Node111</title>
<g id="a_node6"><a xlink:href="classGame.html#a1c2ab25d5216b2f4b2fe41efd2c09114" target="_top" xlink:title="begins the game starts running the game ">
<polygon fill="none" stroke="#000000" points="910,-19.5 910,-38.5 978,-38.5 978,-19.5 910,-19.5"/>
<text text-anchor="middle" x="944" y="-26.5" font-family="Helvetica,sans-Serif" font-size="10.00" fill="#000000">Game::run</text>
</a>
</g>
</g>
<!-- Node110&#45;&gt;Node111 -->
<g id="edge5" class="edge">
<title>Node110&#45;&gt;Node111</title>
<path fill="none" stroke="#191970" d="M884.5248,-29C893.4338,-29 902.0572,-29 909.845,-29"/>
<polygon fill="#191970" stroke="#191970" points="884.3744,-25.5001 874.3744,-29 884.3743,-32.5001 884.3744,-25.5001"/>
</g>
<!-- Node112 -->
<g id="node7" class="node">
<title>Node112</title>
<g id="a_node7"><a xlink:href="classGame.html#ad59df6562a58a614fda24622d3715b65" target="_top" xlink:title="Game::Game">
<polygon fill="none" stroke="#000000" points="1020,-38.5 1020,-57.5 1101,-57.5 1101,-38.5 1020,-38.5"/>
<text text-anchor="middle" x="1060.5" y="-45.5" font-family="Helvetica,sans-Serif" font-size="10.00" fill="#000000">Game::Game</text>
</a>
</g>
</g>
<!-- Node111&#45;&gt;Node112 -->
<g id="edge6" class="edge">
<title>Node111&#45;&gt;Node112</title>
<path fill="none" stroke="#191970" d="M988.0985,-36.192C998.4513,-37.8805 1009.439,-39.6725 1019.6427,-41.3366"/>
<polygon fill="#191970" stroke="#191970" points="988.4428,-32.702 978.0098,-34.5467 987.316,-39.6107 988.4428,-32.702"/>
</g>
<!-- Node113 -->
<g id="node8" class="node">
<title>Node113</title>
<g id="a_node8"><a xlink:href="main_8cxx.html#af582d708d899e67ead623eac34a22387" target="_top" xlink:title="protected_main">
<polygon fill="none" stroke="#000000" points="1014,-.5 1014,-19.5 1107,-19.5 1107,-.5 1014,-.5"/>
<text text-anchor="middle" x="1060.5" y="-7.5" font-family="Helvetica,sans-Serif" font-size="10.00" fill="#000000">protected_main</text>
</a>
</g>
</g>
<!-- Node111&#45;&gt;Node113 -->
<g id="edge7" class="edge">
<title>Node111&#45;&gt;Node113</title>
<path fill="none" stroke="#191970" d="M987.9884,-21.8259C996.382,-20.457 1005.1965,-19.0195 1013.6749,-17.6367"/>
<polygon fill="#191970" stroke="#191970" points="987.316,-18.3893 978.0098,-23.4533 988.4428,-25.298 987.316,-18.3893"/>
</g>
<!-- Node114 -->
<g id="node9" class="node">
<title>Node114</title>
<g id="a_node9"><a xlink:href="main_8cxx.html#a3c04138a5bfe5d72780bb7e82a18e627" target="_top" xlink:title="main">
<polygon fill="none" stroke="#000000" points="1143,-.5 1143,-19.5 1184,-19.5 1184,-.5 1143,-.5"/>
<text text-anchor="middle" x="1163.5" y="-7.5" font-family="Helvetica,sans-Serif" font-size="10.00" fill="#000000">main</text>
</a>
</g>
</g>
<!-- Node113&#45;&gt;Node114 -->
<g id="edge8" class="edge">
<title>Node113&#45;&gt;Node114</title>
<path fill="none" stroke="#191970" d="M1117.2133,-10C1126.4322,-10 1135.4259,-10 1142.9965,-10"/>
<polygon fill="#191970" stroke="#191970" points="1117.1782,-6.5001 1107.1782,-10 1117.1781,-13.5001 1117.1782,-6.5001"/>
</g>
</g>
</svg>
