<?xml version="1.0" encoding="UTF-8" standalone="no"?>
<!DOCTYPE svg PUBLIC "-//W3C//DTD SVG 1.1//EN"
 "http://www.w3.org/Graphics/SVG/1.1/DTD/svg11.dtd">
<!-- Generated by graphviz version 2.40.1 (20161225.0304)
 -->
<!-- Title: EventManager Pages: 1 -->
<svg width="858pt" height="956pt"
 viewBox="0.00 0.00 857.50 956.00" xmlns="http://www.w3.org/2000/svg" xmlns:xlink="http://www.w3.org/1999/xlink">
<g id="graph0" class="graph" transform="scale(1 1) rotate(0) translate(4 952)">
<title>EventManager</title>
<!-- Node3 -->
<g id="node1" class="node">
<title>Node3</title>
<polygon fill="#bfbfbf" stroke="#000000" points="201.5,-.5 201.5,-134.5 325.5,-134.5 325.5,-.5 201.5,-.5"/>
<text text-anchor="middle" x="263.5" y="-122.5" font-family="Helvetica,sans-Serif" font-size="10.00" fill="#000000">EventManager</text>
<polyline fill="none" stroke="#000000" points="201.5,-115.5 325.5,-115.5 "/>
<text text-anchor="start" x="209.5" y="-103.5" font-family="Helvetica,sans-Serif" font-size="10.00" fill="#000000">&#45; m_panning</text>
<text text-anchor="start" x="209.5" y="-92.5" font-family="Helvetica,sans-Serif" font-size="10.00" fill="#000000">&#45; m_skipLeftClick</text>
<text text-anchor="start" x="209.5" y="-81.5" font-family="Helvetica,sans-Serif" font-size="10.00" fill="#000000">&#45; m_tileInfoMode</text>
<text text-anchor="start" x="209.5" y="-70.5" font-family="Helvetica,sans-Serif" font-size="10.00" fill="#000000">&#45; m_highlightedNodes</text>
<text text-anchor="start" x="209.5" y="-59.5" font-family="Helvetica,sans-Serif" font-size="10.00" fill="#000000">&#45; timers</text>
<polyline fill="none" stroke="#000000" points="201.5,-52.5 325.5,-52.5 "/>
<text text-anchor="start" x="209.5" y="-40.5" font-family="Helvetica,sans-Serif" font-size="10.00" fill="#000000">+ EventManager()</text>
<text text-anchor="start" x="209.5" y="-29.5" font-family="Helvetica,sans-Serif" font-size="10.00" fill="#000000">+ ~EventManager()</text>
<text text-anchor="start" x="209.5" y="-18.5" font-family="Helvetica,sans-Serif" font-size="10.00" fill="#000000">+ checkEvents()</text>
<text text-anchor="start" x="209.5" y="-7.5" font-family="Helvetica,sans-Serif" font-size="10.00" fill="#000000">+ registerTimer()</text>
</g>
<!-- Node4 -->
<g id="node2" class="node">
<title>Node4</title>
<g id="a_node2"><a xlink:href="classSingleton.html" target="_top" xlink:title="{Singleton\&lt; EventManager \&gt;\n||+ instance()\l# Singleton()\l# ~Singleton()\l}">
<polygon fill="none" stroke="#000000" points="0,-643.5 0,-722.5 155,-722.5 155,-643.5 0,-643.5"/>
<text text-anchor="middle" x="77.5" y="-710.5" font-family="Helvetica,sans-Serif" font-size="10.00" fill="#000000">Singleton&lt; EventManager &gt;</text>
<polyline fill="none" stroke="#000000" points="0,-703.5 155,-703.5 "/>
<text text-anchor="middle" x="77.5" y="-691.5" font-family="Helvetica,sans-Serif" font-size="10.00" fill="#000000"> </text>
<polyline fill="none" stroke="#000000" points="0,-684.5 155,-684.5 "/>
<text text-anchor="start" x="8" y="-672.5" font-family="Helvetica,sans-Serif" font-size="10.00" fill="#000000">+ instance()</text>
<text text-anchor="start" x="8" y="-661.5" font-family="Helvetica,sans-Serif" font-size="10.00" fill="#000000"># Singleton()</text>
<text text-anchor="start" x="8" y="-650.5" font-family="Helvetica,sans-Serif" font-size="10.00" fill="#000000"># ~Singleton()</text>
</a>
</g>
</g>
<!-- Node4&#45;&gt;Node3 -->
<g id="edge1" class="edge">
<title>Node4&#45;&gt;Node3</title>
<path fill="none" stroke="#191970" d="M69.5196,-633.5111C58.5738,-552.0528 45.594,-386.0932 96.5,-259 118.5609,-203.9223 163.5385,-153.8585 201.2628,-118.7434"/>
<polygon fill="none" stroke="#191970" points="66.0632,-634.0672 70.9077,-643.4896 72.9964,-633.1027 66.0632,-634.0672"/>
</g>
<!-- Node5 -->
<g id="node3" class="node">
<title>Node5</title>
<g id="a_node3"><a xlink:href="classSingleton.html" target="_top" xlink:title="Abstract Singleton implementation. ">
<polygon fill="none" stroke="#000000" points="91,-868.5 91,-947.5 182,-947.5 182,-868.5 91,-868.5"/>
<text text-anchor="middle" x="136.5" y="-935.5" font-family="Helvetica,sans-Serif" font-size="10.00" fill="#000000">Singleton&lt; T &gt;</text>
<polyline fill="none" stroke="#000000" points="91,-928.5 182,-928.5 "/>
<text text-anchor="middle" x="136.5" y="-916.5" font-family="Helvetica,sans-Serif" font-size="10.00" fill="#000000"> </text>
<polyline fill="none" stroke="#000000" points="91,-909.5 182,-909.5 "/>
<text text-anchor="start" x="99" y="-897.5" font-family="Helvetica,sans-Serif" font-size="10.00" fill="#000000">+ instance()</text>
<text text-anchor="start" x="99" y="-886.5" font-family="Helvetica,sans-Serif" font-size="10.00" fill="#000000"># Singleton()</text>
<text text-anchor="start" x="99" y="-875.5" font-family="Helvetica,sans-Serif" font-size="10.00" fill="#000000"># ~Singleton()</text>
</a>
</g>
</g>
<!-- Node5&#45;&gt;Node4 -->
<g id="edge2" class="edge">
<title>Node5&#45;&gt;Node4</title>
<path fill="none" stroke="#ffa500" d="M84.3045,-866.3119C80.3924,-861.2239 77.0025,-855.7679 74.5,-850 56.8411,-809.2992 61.3617,-757.5974 67.858,-722.5822"/>
<polygon fill="#ffa500" stroke="#ffa500" points="81.6889,-868.639 90.8295,-873.9963 87.0248,-864.1081 81.6889,-868.639"/>
<text text-anchor="middle" x="122.5" y="-842" font-family="Helvetica,sans-Serif" font-size="10.00" fill="#000000"> &lt; EventManager &gt;</text>
</g>
<!-- Node7 -->
<g id="node5" class="node">
<title>Node7</title>
<g id="a_node5"><a xlink:href="classSingleton.html" target="_top" xlink:title="{Singleton\&lt; UIManager \&gt;\n||+ instance()\l# Singleton()\l# ~Singleton()\l}">
<polygon fill="none" stroke="#000000" points="127,-741.5 127,-820.5 264,-820.5 264,-741.5 127,-741.5"/>
<text text-anchor="middle" x="195.5" y="-808.5" font-family="Helvetica,sans-Serif" font-size="10.00" fill="#000000">Singleton&lt; UIManager &gt;</text>
<polyline fill="none" stroke="#000000" points="127,-801.5 264,-801.5 "/>
<text text-anchor="middle" x="195.5" y="-789.5" font-family="Helvetica,sans-Serif" font-size="10.00" fill="#000000"> </text>
<polyline fill="none" stroke="#000000" points="127,-782.5 264,-782.5 "/>
<text text-anchor="start" x="135" y="-770.5" font-family="Helvetica,sans-Serif" font-size="10.00" fill="#000000">+ instance()</text>
<text text-anchor="start" x="135" y="-759.5" font-family="Helvetica,sans-Serif" font-size="10.00" fill="#000000"># Singleton()</text>
<text text-anchor="start" x="135" y="-748.5" font-family="Helvetica,sans-Serif" font-size="10.00" fill="#000000"># ~Singleton()</text>
</a>
</g>
</g>
<!-- Node5&#45;&gt;Node7 -->
<g id="edge5" class="edge">
<title>Node5&#45;&gt;Node7</title>
<path fill="none" stroke="#ffa500" d="M169.6794,-859.4816C171.4021,-856.3243 173.0266,-853.1483 174.5,-850 178.7992,-840.8137 182.4802,-830.5328 185.5038,-820.7697"/>
<polygon fill="#ffa500" stroke="#ffa500" points="166.5635,-857.8791 164.6082,-868.292 172.6302,-861.3712 166.5635,-857.8791"/>
<text text-anchor="middle" x="219" y="-842" font-family="Helvetica,sans-Serif" font-size="10.00" fill="#000000"> &lt; UIManager &gt;</text>
</g>
<!-- Node6 -->
<g id="node4" class="node">
<title>Node6</title>
<g id="a_node4"><a xlink:href="classUIManager.html" target="_top" xlink:title="Draws the UI to the screen Parses UiLayout.json file and instantiates UI widgets accordingly. Also takes care of layouting. ">
<polygon fill="none" stroke="#000000" points="106,-259.5 106,-624.5 285,-624.5 285,-259.5 106,-259.5"/>
<text text-anchor="middle" x="195.5" y="-612.5" font-family="Helvetica,sans-Serif" font-size="10.00" fill="#000000">UIManager</text>
<polyline fill="none" stroke="#000000" points="106,-605.5 285,-605.5 "/>
<text text-anchor="start" x="114" y="-593.5" font-family="Helvetica,sans-Serif" font-size="10.00" fill="#000000">+ Singleton&lt; UIManager &gt;</text>
<text text-anchor="start" x="114" y="-582.5" font-family="Helvetica,sans-Serif" font-size="10.00" fill="#000000">&#45; buildMenuLayout</text>
<text text-anchor="start" x="114" y="-571.5" font-family="Helvetica,sans-Serif" font-size="10.00" fill="#000000">&#45; m_uiElements</text>
<text text-anchor="start" x="114" y="-560.5" font-family="Helvetica,sans-Serif" font-size="10.00" fill="#000000">&#45; m_uiElementsForEventHandling</text>
<text text-anchor="start" x="114" y="-549.5" font-family="Helvetica,sans-Serif" font-size="10.00" fill="#000000">&#45; m_uiGroups</text>
<text text-anchor="start" x="114" y="-538.5" font-family="Helvetica,sans-Serif" font-size="10.00" fill="#000000">&#45; m_layoutGroups</text>
<text text-anchor="start" x="114" y="-527.5" font-family="Helvetica,sans-Serif" font-size="10.00" fill="#000000">&#45; m_buttonGroups</text>
<text text-anchor="start" x="114" y="-516.5" font-family="Helvetica,sans-Serif" font-size="10.00" fill="#000000">&#45; m_tooltip</text>
<text text-anchor="start" x="114" y="-505.5" font-family="Helvetica,sans-Serif" font-size="10.00" fill="#000000">&#45; m_fpsCounter</text>
<text text-anchor="start" x="114" y="-494.5" font-family="Helvetica,sans-Serif" font-size="10.00" fill="#000000">&#45; m_showDebugMenu</text>
<polyline fill="none" stroke="#000000" points="106,-487.5 285,-487.5 "/>
<text text-anchor="start" x="114" y="-475.5" font-family="Helvetica,sans-Serif" font-size="10.00" fill="#000000">+ init()</text>
<text text-anchor="start" x="114" y="-464.5" font-family="Helvetica,sans-Serif" font-size="10.00" fill="#000000">+ initializeDollarVariables()</text>
<text text-anchor="start" x="114" y="-453.5" font-family="Helvetica,sans-Serif" font-size="10.00" fill="#000000">+ drawUI()</text>
<text text-anchor="start" x="114" y="-442.5" font-family="Helvetica,sans-Serif" font-size="10.00" fill="#000000">+ toggleGroupVisibility()</text>
<text text-anchor="start" x="114" y="-431.5" font-family="Helvetica,sans-Serif" font-size="10.00" fill="#000000">+ toggleDebugMenu()</text>
<text text-anchor="start" x="114" y="-420.5" font-family="Helvetica,sans-Serif" font-size="10.00" fill="#000000">+ setFPSCounterText()</text>
<text text-anchor="start" x="114" y="-409.5" font-family="Helvetica,sans-Serif" font-size="10.00" fill="#000000">+ setBuildMenuPosition()</text>
<text text-anchor="start" x="114" y="-398.5" font-family="Helvetica,sans-Serif" font-size="10.00" fill="#000000">+ getAllUiElements()</text>
<text text-anchor="start" x="114" y="-387.5" font-family="Helvetica,sans-Serif" font-size="10.00" fill="#000000">+ getAllUiElementsForEvent</text>
<text text-anchor="start" x="114" y="-376.5" font-family="Helvetica,sans-Serif" font-size="10.00" fill="#000000">Handling()</text>
<text text-anchor="start" x="114" y="-365.5" font-family="Helvetica,sans-Serif" font-size="10.00" fill="#000000">+ getUiElementsOfGroup()</text>
<text text-anchor="start" x="114" y="-354.5" font-family="Helvetica,sans-Serif" font-size="10.00" fill="#000000">and 7 more...</text>
<text text-anchor="start" x="114" y="-343.5" font-family="Helvetica,sans-Serif" font-size="10.00" fill="#000000">&#45; UIManager()</text>
<text text-anchor="start" x="114" y="-332.5" font-family="Helvetica,sans-Serif" font-size="10.00" fill="#000000">&#45; ~UIManager()</text>
<text text-anchor="start" x="114" y="-321.5" font-family="Helvetica,sans-Serif" font-size="10.00" fill="#000000">&#45; setCallbackFunctions()</text>
<text text-anchor="start" x="114" y="-310.5" font-family="Helvetica,sans-Serif" font-size="10.00" fill="#000000">&#45; scaleCenterButtonImage()</text>
<text text-anchor="start" x="114" y="-299.5" font-family="Helvetica,sans-Serif" font-size="10.00" fill="#000000">&#45; createBuildMenu()</text>
<text text-anchor="start" x="114" y="-288.5" font-family="Helvetica,sans-Serif" font-size="10.00" fill="#000000">&#45; setBuildMenuLayout()</text>
<text text-anchor="start" x="114" y="-277.5" font-family="Helvetica,sans-Serif" font-size="10.00" fill="#000000">&#45; setupButtonTileImage()</text>
<text text-anchor="start" x="114" y="-266.5" font-family="Helvetica,sans-Serif" font-size="10.00" fill="#000000">&#45; addToLayoutGroup()</text>
</a>
</g>
</g>
<!-- Node6&#45;&gt;Node3 -->
<g id="edge3" class="edge">
<title>Node6&#45;&gt;Node3</title>
<path fill="none" stroke="#404040" d="M206.6584,-259.3325C211.1953,-223.713 217.5641,-186.9132 226.5,-153 227.1027,-150.7126 227.7573,-148.4075 228.4559,-146.0943"/>
<polygon fill="none" stroke="#404040" points="228.5201,-145.8994 226.6008,-138.9484 232.279,-134.5033 234.1982,-141.4544 228.5201,-145.8994"/>
<text text-anchor="middle" x="263" y="-194.5" font-family="Helvetica,sans-Serif" font-size="10.00" fill="#000000"> &#45;m_uiManager</text>
</g>
<!-- Node7&#45;&gt;Node6 -->
<g id="edge4" class="edge">
<title>Node7&#45;&gt;Node6</title>
<path fill="none" stroke="#191970" d="M195.5,-731.245C195.5,-702.3395 195.5,-663.9378 195.5,-624.5896"/>
<polygon fill="none" stroke="#191970" points="192.0001,-731.4489 195.5,-741.4489 199.0001,-731.449 192.0001,-731.4489"/>
</g>
<!-- Node8 -->
<g id="node6" class="node">
<title>Node8</title>
<g id="a_node6"><a xlink:href="structPoint.html" target="_top" xlink:title="{Point\n|+ x\l+ y\l+ z\l+ height\l|}">
<polygon fill="none" stroke="#000000" points="303,-397 303,-487 362,-487 362,-397 303,-397"/>
<text text-anchor="middle" x="332.5" y="-475" font-family="Helvetica,sans-Serif" font-size="10.00" fill="#000000">Point</text>
<polyline fill="none" stroke="#000000" points="303,-468 362,-468 "/>
<text text-anchor="start" x="311" y="-456" font-family="Helvetica,sans-Serif" font-size="10.00" fill="#000000">+ x</text>
<text text-anchor="start" x="311" y="-445" font-family="Helvetica,sans-Serif" font-size="10.00" fill="#000000">+ y</text>
<text text-anchor="start" x="311" y="-434" font-family="Helvetica,sans-Serif" font-size="10.00" fill="#000000">+ z</text>
<text text-anchor="start" x="311" y="-423" font-family="Helvetica,sans-Serif" font-size="10.00" fill="#000000">+ height</text>
<polyline fill="none" stroke="#000000" points="303,-416 362,-416 "/>
<text text-anchor="middle" x="332.5" y="-404" font-family="Helvetica,sans-Serif" font-size="10.00" fill="#000000"> </text>
</a>
</g>
</g>
<!-- Node8&#45;&gt;Node3 -->
<g id="edge6" class="edge">
<title>Node8&#45;&gt;Node3</title>
<path fill="none" stroke="#404040" d="M331.3008,-396.7147C328.8787,-339.1922 321.567,-237.2706 299.5,-153 298.9033,-150.7213 298.2573,-148.424 297.5696,-146.1175"/>
<polygon fill="none" stroke="#404040" points="297.5211,-145.9679 291.8648,-141.495 293.8182,-134.5535 299.4745,-139.0264 297.5211,-145.9679"/>
<text text-anchor="middle" x="369" y="-205.5" font-family="Helvetica,sans-Serif" font-size="10.00" fill="#000000"> &#45;pinchCenterCoords</text>
<text text-anchor="middle" x="369" y="-194.5" font-family="Helvetica,sans-Serif" font-size="10.00" fill="#000000">&#45;m_highlitNode</text>
<text text-anchor="middle" x="369" y="-183.5" font-family="Helvetica,sans-Serif" font-size="10.00" fill="#000000">&#45;m_clickDownCoords</text>
</g>
<!-- Node9 -->
<g id="node7" class="node">
<title>Node9</title>
<g id="a_node7"><a xlink:href="classUIElement.html" target="_top" xlink:title="Base class for UI Elements Provides functions and variables for derived user interface elements...">
<polygon fill="none" stroke="#000000" points="515,-276 515,-608 670,-608 670,-276 515,-276"/>
<text text-anchor="middle" x="592.5" y="-596" font-family="Helvetica,sans-Serif" font-size="10.00" fill="#000000">UIElement</text>
<polyline fill="none" stroke="#000000" points="515,-589 670,-589 "/>
<text text-anchor="start" x="523" y="-577" font-family="Helvetica,sans-Serif" font-size="10.00" fill="#000000"># m_texture</text>
<text text-anchor="start" x="523" y="-566" font-family="Helvetica,sans-Serif" font-size="10.00" fill="#000000"># m_uiElementRect</text>
<text text-anchor="start" x="523" y="-555" font-family="Helvetica,sans-Serif" font-size="10.00" fill="#000000"># m_uiElementClipRect</text>
<text text-anchor="start" x="523" y="-544" font-family="Helvetica,sans-Serif" font-size="10.00" fill="#000000"># m_uiTextureRect</text>
<text text-anchor="start" x="523" y="-533" font-family="Helvetica,sans-Serif" font-size="10.00" fill="#000000">&#45; m_renderer</text>
<text text-anchor="start" x="523" y="-522" font-family="Helvetica,sans-Serif" font-size="10.00" fill="#000000">&#45; m_window</text>
<text text-anchor="start" x="523" y="-511" font-family="Helvetica,sans-Serif" font-size="10.00" fill="#000000">&#45; m_buttonState</text>
<text text-anchor="start" x="523" y="-500" font-family="Helvetica,sans-Serif" font-size="10.00" fill="#000000">&#45; m_visible</text>
<text text-anchor="start" x="523" y="-489" font-family="Helvetica,sans-Serif" font-size="10.00" fill="#000000">&#45; m_directTexture</text>
<polyline fill="none" stroke="#000000" points="515,-482 670,-482 "/>
<text text-anchor="start" x="523" y="-470" font-family="Helvetica,sans-Serif" font-size="10.00" fill="#000000">+ UIElement()</text>
<text text-anchor="start" x="523" y="-459" font-family="Helvetica,sans-Serif" font-size="10.00" fill="#000000">+ UIElement()</text>
<text text-anchor="start" x="523" y="-448" font-family="Helvetica,sans-Serif" font-size="10.00" fill="#000000">+ ~UIElement()</text>
<text text-anchor="start" x="523" y="-437" font-family="Helvetica,sans-Serif" font-size="10.00" fill="#000000">+ registerCallbackFunction()</text>
<text text-anchor="start" x="523" y="-426" font-family="Helvetica,sans-Serif" font-size="10.00" fill="#000000">+ registerCallbackFunction()</text>
<text text-anchor="start" x="523" y="-415" font-family="Helvetica,sans-Serif" font-size="10.00" fill="#000000">+ registerCallbackFunction()</text>
<text text-anchor="start" x="523" y="-404" font-family="Helvetica,sans-Serif" font-size="10.00" fill="#000000">+ onMouseButtonUp()</text>
<text text-anchor="start" x="523" y="-393" font-family="Helvetica,sans-Serif" font-size="10.00" fill="#000000">+ onMouseButtonDown()</text>
<text text-anchor="start" x="523" y="-382" font-family="Helvetica,sans-Serif" font-size="10.00" fill="#000000">+ onMouseEnter()</text>
<text text-anchor="start" x="523" y="-371" font-family="Helvetica,sans-Serif" font-size="10.00" fill="#000000">+ onMouseLeave()</text>
<text text-anchor="start" x="523" y="-360" font-family="Helvetica,sans-Serif" font-size="10.00" fill="#000000">and 24 more...</text>
<text text-anchor="start" x="523" y="-349" font-family="Helvetica,sans-Serif" font-size="10.00" fill="#000000"># renderTexture()</text>
<text text-anchor="start" x="523" y="-338" font-family="Helvetica,sans-Serif" font-size="10.00" fill="#000000"># drawSolidRect()</text>
<text text-anchor="start" x="523" y="-327" font-family="Helvetica,sans-Serif" font-size="10.00" fill="#000000"># drawLine()</text>
<text text-anchor="start" x="523" y="-316" font-family="Helvetica,sans-Serif" font-size="10.00" fill="#000000"># drawTextFrame()</text>
<text text-anchor="start" x="523" y="-305" font-family="Helvetica,sans-Serif" font-size="10.00" fill="#000000"># drawButtonFrame()</text>
<text text-anchor="start" x="523" y="-294" font-family="Helvetica,sans-Serif" font-size="10.00" fill="#000000"># drawFrame()</text>
<text text-anchor="start" x="523" y="-283" font-family="Helvetica,sans-Serif" font-size="10.00" fill="#000000"># changeTexture()</text>
</a>
</g>
</g>
<!-- Node9&#45;&gt;Node3 -->
<g id="edge7" class="edge">
<title>Node9&#45;&gt;Node3</title>
<path fill="none" stroke="#404040" d="M514.9199,-350.837C490.0881,-317.9316 464.4185,-279.4004 446.5,-241 429.4528,-204.4668 449.3384,-184.7543 424.5,-153 402.3581,-124.693 368.1814,-104.6757 337.0031,-91.1635"/>
<polygon fill="none" stroke="#404040" points="336.7675,-91.0661 329.6938,-92.4671 325.6799,-86.4764 332.7536,-85.0754 336.7675,-91.0661"/>
<text text-anchor="middle" x="507.5" y="-194.5" font-family="Helvetica,sans-Serif" font-size="10.00" fill="#000000"> &#45;m_lastHoveredElement</text>
</g>
<!-- Node10 -->
<g id="node8" class="node">
<title>Node10</title>
<g id="a_node8"><a xlink:href="structUIElement_1_1ElementData.html" target="_top" xlink:title="{UIElement::ElementData\n|+ isToggleButton\l|}">
<polygon fill="none" stroke="#000000" points="590,-39 590,-96 727,-96 727,-39 590,-39"/>
<text text-anchor="middle" x="658.5" y="-84" font-family="Helvetica,sans-Serif" font-size="10.00" fill="#000000">UIElement::ElementData</text>
<polyline fill="none" stroke="#000000" points="590,-77 727,-77 "/>
<text text-anchor="start" x="598" y="-65" font-family="Helvetica,sans-Serif" font-size="10.00" fill="#000000">+ isToggleButton</text>
<polyline fill="none" stroke="#000000" points="590,-58 727,-58 "/>
<text text-anchor="middle" x="658.5" y="-46" font-family="Helvetica,sans-Serif" font-size="10.00" fill="#000000"> </text>
</a>
</g>
</g>
<!-- Node9&#45;&gt;Node10 -->
<g id="edge10" class="edge">
<title>Node9&#45;&gt;Node10</title>
<path fill="none" stroke="#404040" d="M571.2359,-275.9709C571.2384,-234.8584 575.8817,-191.5595 589.5,-153 595.6417,-135.61 606.9868,-119.1597 618.7286,-105.4198"/>
<polygon fill="none" stroke="#404040" points="618.8443,-105.2909 619.8769,-98.1541 626.8619,-96.3624 625.8293,-103.4992 618.8443,-105.2909"/>
<text text-anchor="middle" x="611" y="-194.5" font-family="Helvetica,sans-Serif" font-size="10.00" fill="#000000"> +parent</text>
</g>
<!-- Node10&#45;&gt;Node9 -->
<g id="edge8" class="edge">
<title>Node10&#45;&gt;Node9</title>
<path fill="none" stroke="#404040" d="M655.6586,-96.1686C652.0565,-130.6668 645.2484,-190.2842 636.5,-241 635.1996,-248.5389 633.8088,-256.2232 632.3518,-263.9756"/>
<polygon fill="none" stroke="#404040" points="632.3478,-263.9973 635.1492,-270.642 630.0931,-275.7836 627.2917,-269.1389 632.3478,-263.9973"/>
<text text-anchor="middle" x="686.5" y="-194.5" font-family="Helvetica,sans-Serif" font-size="10.00" fill="#000000"> #elementData</text>
</g>
<!-- Node11 -->
<g id="node9" class="node">
<title>Node11</title>
<polygon fill="none" stroke="#bfbfbf" points="735.5,-413.5 735.5,-470.5 779.5,-470.5 779.5,-413.5 735.5,-413.5"/>
<text text-anchor="middle" x="757.5" y="-458.5" font-family="Helvetica,sans-Serif" font-size="10.00" fill="#000000">string</text>
<polyline fill="none" stroke="#bfbfbf" points="735.5,-451.5 779.5,-451.5 "/>
<text text-anchor="middle" x="757.5" y="-439.5" font-family="Helvetica,sans-Serif" font-size="10.00" fill="#000000"> </text>
<polyline fill="none" stroke="#bfbfbf" points="735.5,-432.5 779.5,-432.5 "/>
<text text-anchor="middle" x="757.5" y="-420.5" font-family="Helvetica,sans-Serif" font-size="10.00" fill="#000000"> </text>
</g>
<!-- Node11&#45;&gt;Node10 -->
<g id="edge9" class="edge">
<title>Node11&#45;&gt;Node10</title>
<path fill="none" stroke="#404040" d="M759.948,-413.1949C763.3638,-359.6665 765.4833,-242.2022 728.5,-153 721.3364,-135.7217 709.4757,-119.2025 697.5348,-105.3705"/>
<polygon fill="none" stroke="#404040" points="697.3462,-105.1612 690.3579,-103.3824 689.312,-96.2475 696.3003,-98.0263 697.3462,-105.1612"/>
<text text-anchor="middle" x="800.5" y="-233" font-family="Helvetica,sans-Serif" font-size="10.00" fill="#000000"> +actionParameter</text>
<text text-anchor="middle" x="800.5" y="-222" font-family="Helvetica,sans-Serif" font-size="10.00" fill="#000000">+buildMenuID</text>
<text text-anchor="middle" x="800.5" y="-211" font-family="Helvetica,sans-Serif" font-size="10.00" fill="#000000">+actionID</text>
<text text-anchor="middle" x="800.5" y="-200" font-family="Helvetica,sans-Serif" font-size="10.00" fill="#000000">+text</text>
<text text-anchor="middle" x="800.5" y="-189" font-family="Helvetica,sans-Serif" font-size="10.00" fill="#000000">+elementID</text>
<text text-anchor="middle" x="800.5" y="-178" font-family="Helvetica,sans-Serif" font-size="10.00" fill="#000000">+layoutGroupName</text>
<text text-anchor="middle" x="800.5" y="-167" font-family="Helvetica,sans-Serif" font-size="10.00" fill="#000000">+tooltipText</text>
<text text-anchor="middle" x="800.5" y="-156" font-family="Helvetica,sans-Serif" font-size="10.00" fill="#000000">+textureID</text>
</g>
</g>
</svg>
