<?xml version="1.0" encoding="UTF-8" standalone="no"?>
<!DOCTYPE svg PUBLIC "-//W3C//DTD SVG 1.1//EN"
 "http://www.w3.org/Graphics/SVG/1.1/DTD/svg11.dtd">
<!-- Generated by graphviz version 2.40.1 (20161225.0304)
 -->
<!-- Title: Engine::loadGame Pages: 1 -->
<svg width="813pt" height="104pt"
 viewBox="0.00 0.00 813.00 104.00" xmlns="http://www.w3.org/2000/svg" xmlns:xlink="http://www.w3.org/1999/xlink">
<g id="graph0" class="graph" transform="scale(1 1) rotate(0) translate(4 100)">
<title>Engine::loadGame</title>
<!-- Node79 -->
<g id="node1" class="node">
<title>Node79</title>
<polygon fill="#bfbfbf" stroke="#000000" points="0,-38.5 0,-57.5 106,-57.5 106,-38.5 0,-38.5"/>
<text text-anchor="middle" x="53" y="-45.5" font-family="Helvetica,sans-Serif" font-size="10.00" fill="#000000">Engine::loadGame</text>
</g>
<!-- Node80 -->
<g id="node2" class="node">
<title>Node80</title>
<g id="a_node2"><a xlink:href="classEngine.html#a0ba57971ffb5173ecc425461f65a4cd8" target="_top" xlink:title="Quits the game Sets m_running to false and quitting the game. ">
<polygon fill="none" stroke="#000000" points="142,-38.5 142,-57.5 246,-57.5 246,-38.5 142,-38.5"/>
<text text-anchor="middle" x="194" y="-45.5" font-family="Helvetica,sans-Serif" font-size="10.00" fill="#000000">Engine::quitGame</text>
</a>
</g>
</g>
<!-- Node79&#45;&gt;Node80 -->
<g id="edge1" class="edge">
<title>Node79&#45;&gt;Node80</title>
<path fill="none" stroke="#191970" d="M116.4467,-48C124.8417,-48 133.3713,-48 141.5532,-48"/>
<polygon fill="#191970" stroke="#191970" points="116.3061,-44.5001 106.3061,-48 116.306,-51.5001 116.3061,-44.5001"/>
</g>
<!-- Node86 -->
<g id="node8" class="node">
<title>Node86</title>
<g id="a_node8"><a xlink:href="classUIManager.html#aa78e356fc3b356d790c848319d1c387e" target="_top" xlink:title="UIManager::setCallbackFunctions">
<polygon fill="none" stroke="#000000" points="282,-.5 282,-19.5 460,-19.5 460,-.5 282,-.5"/>
<text text-anchor="middle" x="371" y="-7.5" font-family="Helvetica,sans-Serif" font-size="10.00" fill="#000000">UIManager::setCallbackFunctions</text>
</a>
</g>
</g>
<!-- Node79&#45;&gt;Node86 -->
<g id="edge11" class="edge">
<title>Node79&#45;&gt;Node86</title>
<path fill="none" stroke="#191970" d="M102.2955,-36.3055C115.1604,-33.5759 129.0501,-30.9115 142,-29 187.8791,-22.2277 239.3124,-17.6881 281.7948,-14.7499"/>
<polygon fill="#191970" stroke="#191970" points="101.262,-32.9485 92.2354,-38.4955 102.751,-39.7883 101.262,-32.9485"/>
</g>
<!-- Node87 -->
<g id="node9" class="node">
<title>Node87</title>
<g id="a_node9"><a xlink:href="classGame.html#a5ed7fc5be77080f7f6dd5363f7f007a1" target="_top" xlink:title="initializes and displays the main menu initializes and displays the main menu ">
<polygon fill="none" stroke="#000000" points="496,-76.5 496,-95.5 599,-95.5 599,-76.5 496,-76.5"/>
<text text-anchor="middle" x="547.5" y="-83.5" font-family="Helvetica,sans-Serif" font-size="10.00" fill="#000000">Game::mainMenu</text>
</a>
</g>
</g>
<!-- Node79&#45;&gt;Node87 -->
<g id="edge12" class="edge">
<title>Node79&#45;&gt;Node87</title>
<path fill="none" stroke="#191970" d="M104.97,-59.6554C117.0945,-62.2187 129.9766,-64.817 142,-67 203.9062,-78.24 219.2559,-83.3204 282,-88 360.892,-93.884 380.8941,-88.9039 460,-88 471.5474,-87.868 483.9503,-87.6382 495.6831,-87.3801"/>
<polygon fill="#191970" stroke="#191970" points="105.5104,-56.1919 94.9992,-57.5204 104.0446,-63.0367 105.5104,-56.1919"/>
</g>
<!-- Node81 -->
<g id="node3" class="node">
<title>Node81</title>
<g id="a_node3"><a xlink:href="classEventManager.html#a65ec91fd5016d4f9c4167fb8babed2df" target="_top" xlink:title="EventManager::checkEvents">
<polygon fill="none" stroke="#000000" points="294,-38.5 294,-57.5 448,-57.5 448,-38.5 294,-38.5"/>
<text text-anchor="middle" x="371" y="-45.5" font-family="Helvetica,sans-Serif" font-size="10.00" fill="#000000">EventManager::checkEvents</text>
</a>
</g>
</g>
<!-- Node80&#45;&gt;Node81 -->
<g id="edge2" class="edge">
<title>Node80&#45;&gt;Node81</title>
<path fill="none" stroke="#191970" d="M256.2045,-48C268.4088,-48 281.347,-48 293.9686,-48"/>
<polygon fill="#191970" stroke="#191970" points="256.1485,-44.5001 246.1485,-48 256.1485,-51.5001 256.1485,-44.5001"/>
</g>
<!-- Node80&#45;&gt;Node86 -->
<g id="edge7" class="edge">
<title>Node80&#45;&gt;Node86</title>
<path fill="none" stroke="#191970" d="M248.3541,-36.2438C259.4832,-33.8425 271.119,-31.3361 282,-29 296.3662,-25.9156 312.0401,-22.5648 326.1756,-19.5481"/>
<polygon fill="#191970" stroke="#191970" points="247.3484,-32.8802 238.3121,-38.4116 248.8256,-39.7226 247.3484,-32.8802"/>
</g>
<!-- Node80&#45;&gt;Node87 -->
<g id="edge8" class="edge">
<title>Node80&#45;&gt;Node87</title>
<path fill="none" stroke="#191970" d="M242.3582,-59.724C255.1802,-62.4798 269.0588,-65.1493 282,-67 355.8802,-77.5653 442.209,-82.3619 495.8766,-84.4634"/>
<polygon fill="#191970" stroke="#191970" points="242.8595,-56.2504 232.3398,-57.5094 241.3486,-63.0854 242.8595,-56.2504"/>
</g>
<!-- Node82 -->
<g id="node4" class="node">
<title>Node82</title>
<g id="a_node4"><a xlink:href="classGame.html#a1c2ab25d5216b2f4b2fe41efd2c09114" target="_top" xlink:title="begins the game starts running the game ">
<polygon fill="none" stroke="#000000" points="513.5,-38.5 513.5,-57.5 581.5,-57.5 581.5,-38.5 513.5,-38.5"/>
<text text-anchor="middle" x="547.5" y="-45.5" font-family="Helvetica,sans-Serif" font-size="10.00" fill="#000000">Game::run</text>
</a>
</g>
</g>
<!-- Node81&#45;&gt;Node82 -->
<g id="edge3" class="edge">
<title>Node81&#45;&gt;Node82</title>
<path fill="none" stroke="#191970" d="M458.3664,-48C477.9355,-48 497.5625,-48 513.398,-48"/>
<polygon fill="#191970" stroke="#191970" points="458.1587,-44.5001 448.1587,-48 458.1587,-51.5001 458.1587,-44.5001"/>
</g>
<!-- Node83 -->
<g id="node5" class="node">
<title>Node83</title>
<g id="a_node5"><a xlink:href="classGame.html#ad59df6562a58a614fda24622d3715b65" target="_top" xlink:title="Game::Game">
<polygon fill="none" stroke="#000000" points="641,-76.5 641,-95.5 722,-95.5 722,-76.5 641,-76.5"/>
<text text-anchor="middle" x="681.5" y="-83.5" font-family="Helvetica,sans-Serif" font-size="10.00" fill="#000000">Game::Game</text>
</a>
</g>
</g>
<!-- Node82&#45;&gt;Node83 -->
<g id="edge4" class="edge">
<title>Node82&#45;&gt;Node83</title>
<path fill="none" stroke="#191970" d="M590.9383,-60.3183C609.3491,-65.5393 630.4798,-71.5316 647.697,-76.4141"/>
<polygon fill="#191970" stroke="#191970" points="591.8894,-56.9501 581.3139,-57.589 589.9796,-63.6845 591.8894,-56.9501"/>
</g>
<!-- Node84 -->
<g id="node6" class="node">
<title>Node84</title>
<g id="a_node6"><a xlink:href="main_8cxx.html#af582d708d899e67ead623eac34a22387" target="_top" xlink:title="protected_main">
<polygon fill="none" stroke="#000000" points="635,-38.5 635,-57.5 728,-57.5 728,-38.5 635,-38.5"/>
<text text-anchor="middle" x="681.5" y="-45.5" font-family="Helvetica,sans-Serif" font-size="10.00" fill="#000000">protected_main</text>
</a>
</g>
</g>
<!-- Node82&#45;&gt;Node84 -->
<g id="edge5" class="edge">
<title>Node82&#45;&gt;Node84</title>
<path fill="none" stroke="#191970" d="M591.8611,-48C605.6278,-48 620.8396,-48 634.7626,-48"/>
<polygon fill="#191970" stroke="#191970" points="591.6606,-44.5001 581.6606,-48 591.6605,-51.5001 591.6606,-44.5001"/>
</g>
<!-- Node85 -->
<g id="node7" class="node">
<title>Node85</title>
<g id="a_node7"><a xlink:href="main_8cxx.html#a3c04138a5bfe5d72780bb7e82a18e627" target="_top" xlink:title="main">
<polygon fill="none" stroke="#000000" points="764,-38.5 764,-57.5 805,-57.5 805,-38.5 764,-38.5"/>
<text text-anchor="middle" x="784.5" y="-45.5" font-family="Helvetica,sans-Serif" font-size="10.00" fill="#000000">main</text>
</a>
</g>
</g>
<!-- Node84&#45;&gt;Node85 -->
<g id="edge6" class="edge">
<title>Node84&#45;&gt;Node85</title>
<path fill="none" stroke="#191970" d="M738.2133,-48C747.4322,-48 756.4259,-48 763.9965,-48"/>
<polygon fill="#191970" stroke="#191970" points="738.1782,-44.5001 728.1782,-48 738.1781,-51.5001 738.1782,-44.5001"/>
</g>
<!-- Node87&#45;&gt;Node83 -->
<g id="edge9" class="edge">
<title>Node87&#45;&gt;Node83</title>
<path fill="none" stroke="#191970" d="M609.3832,-86C619.9831,-86 630.7548,-86 640.6287,-86"/>
<polygon fill="#191970" stroke="#191970" points="609.3079,-82.5001 599.3079,-86 609.3079,-89.5001 609.3079,-82.5001"/>
</g>
<!-- Node87&#45;&gt;Node84 -->
<g id="edge10" class="edge">
<title>Node87&#45;&gt;Node84</title>
<path fill="none" stroke="#191970" d="M590.9383,-73.6817C609.3491,-68.4607 630.4798,-62.4684 647.697,-57.5859"/>
<polygon fill="#191970" stroke="#191970" points="589.9796,-70.3155 581.3139,-76.411 591.8894,-77.0499 589.9796,-70.3155"/>
</g>
</g>
</svg>
