<?xml version="1.0" encoding="UTF-8" standalone="no"?>
<!DOCTYPE svg PUBLIC "-//W3C//DTD SVG 1.1//EN"
 "http://www.w3.org/Graphics/SVG/1.1/DTD/svg11.dtd">
<!-- Generated by graphviz version 2.40.1 (20161225.0304)
 -->
<!-- Title: Map::getNodeInformation Pages: 1 -->
<svg width="980pt" height="66pt"
 viewBox="0.00 0.00 980.00 66.00" xmlns="http://www.w3.org/2000/svg" xmlns:xlink="http://www.w3.org/1999/xlink">
<g id="graph0" class="graph" transform="scale(1 1) rotate(0) translate(4 62)">
<title>Map::getNodeInformation</title>
<!-- Node191 -->
<g id="node1" class="node">
<title>Node191</title>
<polygon fill="#bfbfbf" stroke="#000000" points="0,-19.5 0,-38.5 141,-38.5 141,-19.5 0,-19.5"/>
<text text-anchor="middle" x="70.5" y="-26.5" font-family="Helvetica,sans-Serif" font-size="10.00" fill="#000000">Map::getNodeInformation</text>
</g>
<!-- Node192 -->
<g id="node2" class="node">
<title>Node192</title>
<g id="a_node2"><a xlink:href="classEventManager.html#a65ec91fd5016d4f9c4167fb8babed2df" target="_top" xlink:title="EventManager::checkEvents">
<polygon fill="none" stroke="#000000" points="508,-19.5 508,-38.5 662,-38.5 662,-19.5 508,-19.5"/>
<text text-anchor="middle" x="585" y="-26.5" font-family="Helvetica,sans-Serif" font-size="10.00" fill="#000000">EventManager::checkEvents</text>
</a>
</g>
</g>
<!-- Node191&#45;&gt;Node192 -->
<g id="edge1" class="edge">
<title>Node191&#45;&gt;Node192</title>
<path fill="none" stroke="#191970" d="M151.3437,-29C248.9815,-29 412.0213,-29 507.9345,-29"/>
<polygon fill="#191970" stroke="#191970" points="151.2294,-25.5001 141.2293,-29 151.2293,-32.5001 151.2294,-25.5001"/>
</g>
<!-- Node197 -->
<g id="node7" class="node">
<title>Node197</title>
<g id="a_node7"><a xlink:href="classMap.html#a779c939483a52b32a3959b99af95e67a" target="_top" xlink:title="Set the Tile ID Of Node object Also invokes all necessary texture updates (auto&#45;tiling, slopes, ...) ">
<polygon fill="none" stroke="#000000" points="177,-.5 177,-19.5 300,-19.5 300,-.5 177,-.5"/>
<text text-anchor="middle" x="238.5" y="-7.5" font-family="Helvetica,sans-Serif" font-size="10.00" fill="#000000">Map::setTileIDOfNode</text>
</a>
</g>
</g>
<!-- Node191&#45;&gt;Node197 -->
<g id="edge6" class="edge">
<title>Node191&#45;&gt;Node197</title>
<path fill="none" stroke="#191970" d="M151.3114,-19.8606C159.9095,-18.8882 168.5521,-17.9108 176.8783,-16.9691"/>
<polygon fill="#191970" stroke="#191970" points="150.8035,-16.3957 141.2602,-20.9974 151.5902,-23.3513 150.8035,-16.3957"/>
</g>
<!-- Node193 -->
<g id="node3" class="node">
<title>Node193</title>
<g id="a_node3"><a xlink:href="classGame.html#a1c2ab25d5216b2f4b2fe41efd2c09114" target="_top" xlink:title="begins the game starts running the game ">
<polygon fill="none" stroke="#000000" points="698,-19.5 698,-38.5 766,-38.5 766,-19.5 698,-19.5"/>
<text text-anchor="middle" x="732" y="-26.5" font-family="Helvetica,sans-Serif" font-size="10.00" fill="#000000">Game::run</text>
</a>
</g>
</g>
<!-- Node192&#45;&gt;Node193 -->
<g id="edge2" class="edge">
<title>Node192&#45;&gt;Node193</title>
<path fill="none" stroke="#191970" d="M672.5248,-29C681.4338,-29 690.0572,-29 697.845,-29"/>
<polygon fill="#191970" stroke="#191970" points="672.3744,-25.5001 662.3744,-29 672.3743,-32.5001 672.3744,-25.5001"/>
</g>
<!-- Node194 -->
<g id="node4" class="node">
<title>Node194</title>
<g id="a_node4"><a xlink:href="classGame.html#ad59df6562a58a614fda24622d3715b65" target="_top" xlink:title="Game::Game">
<polygon fill="none" stroke="#000000" points="808,-38.5 808,-57.5 889,-57.5 889,-38.5 808,-38.5"/>
<text text-anchor="middle" x="848.5" y="-45.5" font-family="Helvetica,sans-Serif" font-size="10.00" fill="#000000">Game::Game</text>
</a>
</g>
</g>
<!-- Node193&#45;&gt;Node194 -->
<g id="edge3" class="edge">
<title>Node193&#45;&gt;Node194</title>
<path fill="none" stroke="#191970" d="M776.0985,-36.192C786.4513,-37.8805 797.439,-39.6725 807.6427,-41.3366"/>
<polygon fill="#191970" stroke="#191970" points="776.4428,-32.702 766.0098,-34.5467 775.316,-39.6107 776.4428,-32.702"/>
</g>
<!-- Node195 -->
<g id="node5" class="node">
<title>Node195</title>
<g id="a_node5"><a xlink:href="main_8cxx.html#af582d708d899e67ead623eac34a22387" target="_top" xlink:title="protected_main">
<polygon fill="none" stroke="#000000" points="802,-.5 802,-19.5 895,-19.5 895,-.5 802,-.5"/>
<text text-anchor="middle" x="848.5" y="-7.5" font-family="Helvetica,sans-Serif" font-size="10.00" fill="#000000">protected_main</text>
</a>
</g>
</g>
<!-- Node193&#45;&gt;Node195 -->
<g id="edge4" class="edge">
<title>Node193&#45;&gt;Node195</title>
<path fill="none" stroke="#191970" d="M775.9884,-21.8259C784.382,-20.457 793.1965,-19.0195 801.6749,-17.6367"/>
<polygon fill="#191970" stroke="#191970" points="775.316,-18.3893 766.0098,-23.4533 776.4428,-25.298 775.316,-18.3893"/>
</g>
<!-- Node196 -->
<g id="node6" class="node">
<title>Node196</title>
<g id="a_node6"><a xlink:href="main_8cxx.html#a3c04138a5bfe5d72780bb7e82a18e627" target="_top" xlink:title="main">
<polygon fill="none" stroke="#000000" points="931,-.5 931,-19.5 972,-19.5 972,-.5 931,-.5"/>
<text text-anchor="middle" x="951.5" y="-7.5" font-family="Helvetica,sans-Serif" font-size="10.00" fill="#000000">main</text>
</a>
</g>
</g>
<!-- Node195&#45;&gt;Node196 -->
<g id="edge5" class="edge">
<title>Node195&#45;&gt;Node196</title>
<path fill="none" stroke="#191970" d="M905.2133,-10C914.4322,-10 923.4259,-10 930.9965,-10"/>
<polygon fill="#191970" stroke="#191970" points="905.1782,-6.5001 895.1782,-10 905.1781,-13.5001 905.1782,-6.5001"/>
</g>
<!-- Node198 -->
<g id="node8" class="node">
<title>Node198</title>
<g id="a_node8"><a xlink:href="classEngine.html#a8a53c5e52734a5158b317851361b83f2" target="_top" xlink:title="Engine::setTileIDOfNode">
<polygon fill="none" stroke="#000000" points="336,-.5 336,-19.5 472,-19.5 472,-.5 336,-.5"/>
<text text-anchor="middle" x="404" y="-7.5" font-family="Helvetica,sans-Serif" font-size="10.00" fill="#000000">Engine::setTileIDOfNode</text>
</a>
</g>
</g>
<!-- Node197&#45;&gt;Node198 -->
<g id="edge7" class="edge">
<title>Node197&#45;&gt;Node198</title>
<path fill="none" stroke="#191970" d="M310.3736,-10C318.858,-10 327.4976,-10 335.9273,-10"/>
<polygon fill="#191970" stroke="#191970" points="310.1261,-6.5001 300.1261,-10 310.1261,-13.5001 310.1261,-6.5001"/>
</g>
<!-- Node198&#45;&gt;Node192 -->
<g id="edge8" class="edge">
<title>Node198&#45;&gt;Node192</title>
<path fill="none" stroke="#191970" d="M482.3623,-18.2259C490.7925,-19.1108 499.3658,-20.0108 507.7824,-20.8943"/>
<polygon fill="#191970" stroke="#191970" points="482.4812,-14.7192 472.1704,-17.156 481.7504,-21.681 482.4812,-14.7192"/>
</g>
</g>
</svg>
