<?xml version="1.0" encoding="UTF-8" standalone="no"?>
<!DOCTYPE svg PUBLIC "-//W3C//DTD SVG 1.1//EN"
 "http://www.w3.org/Graphics/SVG/1.1/DTD/svg11.dtd">
<!-- Generated by graphviz version 2.40.1 (20161225.0304)
 -->
<!-- Title: Game::mainMenu Pages: 1 -->
<svg width="317pt" height="66pt"
 viewBox="0.00 0.00 317.00 66.00" xmlns="http://www.w3.org/2000/svg" xmlns:xlink="http://www.w3.org/1999/xlink">
<g id="graph0" class="graph" transform="scale(1 1) rotate(0) translate(4 62)">
<title>Game::mainMenu</title>
<!-- Node140 -->
<g id="node1" class="node">
<title>Node140</title>
<polygon fill="#bfbfbf" stroke="#000000" points="0,-19.5 0,-38.5 103,-38.5 103,-19.5 0,-19.5"/>
<text text-anchor="middle" x="51.5" y="-26.5" font-family="Helvetica,sans-Serif" font-size="10.00" fill="#000000">Game::mainMenu</text>
</g>
<!-- Node141 -->
<g id="node2" class="node">
<title>Node141</title>
<g id="a_node2"><a xlink:href="classGame.html#ad59df6562a58a614fda24622d3715b65" target="_top" xlink:title="Game::Game">
<polygon fill="none" stroke="#000000" points="145,-38.5 145,-57.5 226,-57.5 226,-38.5 145,-38.5"/>
<text text-anchor="middle" x="185.5" y="-45.5" font-family="Helvetica,sans-Serif" font-size="10.00" fill="#000000">Game::Game</text>
</a>
</g>
</g>
<!-- Node140&#45;&gt;Node141 -->
<g id="edge1" class="edge">
<title>Node140&#45;&gt;Node141</title>
<path fill="none" stroke="#191970" d="M113.3832,-37.7745C123.9831,-39.2774 134.7548,-40.8048 144.6287,-42.2048"/>
<polygon fill="#191970" stroke="#191970" points="113.7003,-34.2845 103.3079,-36.3459 112.7175,-41.2152 113.7003,-34.2845"/>
</g>
<!-- Node142 -->
<g id="node3" class="node">
<title>Node142</title>
<g id="a_node3"><a xlink:href="main_8cxx.html#af582d708d899e67ead623eac34a22387" target="_top" xlink:title="protected_main">
<polygon fill="none" stroke="#000000" points="139,-.5 139,-19.5 232,-19.5 232,-.5 139,-.5"/>
<text text-anchor="middle" x="185.5" y="-7.5" font-family="Helvetica,sans-Serif" font-size="10.00" fill="#000000">protected_main</text>
</a>
</g>
</g>
<!-- Node140&#45;&gt;Node142 -->
<g id="edge2" class="edge">
<title>Node140&#45;&gt;Node142</title>
<path fill="none" stroke="#191970" d="M113.2457,-20.245C121.7846,-19.0343 130.438,-17.8073 138.6465,-16.6434"/>
<polygon fill="#191970" stroke="#191970" points="112.7175,-16.7848 103.3079,-21.6541 113.7003,-23.7155 112.7175,-16.7848"/>
</g>
<!-- Node143 -->
<g id="node4" class="node">
<title>Node143</title>
<g id="a_node4"><a xlink:href="main_8cxx.html#a3c04138a5bfe5d72780bb7e82a18e627" target="_top" xlink:title="main">
<polygon fill="none" stroke="#000000" points="268,-.5 268,-19.5 309,-19.5 309,-.5 268,-.5"/>
<text text-anchor="middle" x="288.5" y="-7.5" font-family="Helvetica,sans-Serif" font-size="10.00" fill="#000000">main</text>
</a>
</g>
</g>
<!-- Node142&#45;&gt;Node143 -->
<g id="edge3" class="edge">
<title>Node142&#45;&gt;Node143</title>
<path fill="none" stroke="#191970" d="M242.2133,-10C251.4322,-10 260.4259,-10 267.9965,-10"/>
<polygon fill="#191970" stroke="#191970" points="242.1782,-6.5001 232.1782,-10 242.1781,-13.5001 242.1782,-6.5001"/>
</g>
</g>
</svg>
