<?xml version="1.0" encoding="UTF-8" standalone="no"?>
<!DOCTYPE svg PUBLIC "-//W3C//DTD SVG 1.1//EN"
 "http://www.w3.org/Graphics/SVG/1.1/DTD/svg11.dtd">
<!-- Generated by graphviz version 2.40.1 (20161225.0304)
 -->
<!-- Title: UIManager::getAllUiElementsForEventHandling Pages: 1 -->
<!--zoomable 66 -->
<svg id="main" version="1.1" xmlns="http://www.w3.org/2000/svg" xmlns:xlink="http://www.w3.org/1999/xlink" xml:space="preserve" onload="init(evt)">
<style type="text/css"><![CDATA[
.edge:hover path { stroke: red; }
.edge:hover polygon { stroke: red; fill: red; }
]]></style>
<script type="text/javascript"><![CDATA[
var edges = document.getElementsByTagName('g');
if (edges && edges.length) {
  for (var i=0;i<edges.length;i++) {
    if (edges[i].id.substr(0,4)=='edge') {
      edges[i].setAttribute('class','edge');
    }
  }
}
]]></script>
        <defs>
                <circle id="rim" cx="0" cy="0" r="7"/>
                <circle id="rim2" cx="0" cy="0" r="3.5"/>
                <g id="zoomPlus">
                        <use xlink:href="#rim" fill="#404040">
                                <set attributeName="fill" to="#808080" begin="zoomplus.mouseover" end="zoomplus.mouseout"/>
                        </use>
                        <path d="M-4,0h8M0,-4v8" fill="none" stroke="white" stroke-width="1.5" pointer-events="none"/>
                </g>
                <g id="zoomMin">
                        <use xlink:href="#rim" fill="#404040">
                                <set attributeName="fill" to="#808080" begin="zoomminus.mouseover" end="zoomminus.mouseout"/>
                        </use>
                        <path d="M-4,0h8" fill="none" stroke="white" stroke-width="1.5" pointer-events="none"/>
                </g>
                <g id="dirArrow">
                        <path fill="none" stroke="white" stroke-width="1.5" d="M0,-3.0v7 M-2.5,-0.5L0,-3.0L2.5,-0.5"/>
                </g>
               <g id="resetDef">
                       <use xlink:href="#rim2" fill="#404040">
                               <set attributeName="fill" to="#808080" begin="reset.mouseover" end="reset.mouseout"/>
                       </use>
               </g>
        </defs>

<script type="text/javascript">
var viewWidth = 668;
var viewHeight = 66;
var sectionId = 'dynsection-12';
</script>
<script xlink:href="svgpan.js"/>
<svg id="graph" class="graph">
<g id="viewport">
<title>UIManager::getAllUiElementsForEventHandling</title>
<!-- Node94 -->
<g id="node1" class="node">
<title>Node94</title>
<polygon fill="#bfbfbf" stroke="#000000" points="0,-14 0,-44 160,-44 160,-14 0,-14"/>
<text text-anchor="start" x="8" y="-32" font-family="Helvetica,sans-Serif" font-size="10.00" fill="#000000">UIManager::getAllUiElements</text>
<text text-anchor="middle" x="80" y="-21" font-family="Helvetica,sans-Serif" font-size="10.00" fill="#000000">ForEventHandling</text>
</g>
<!-- Node95 -->
<g id="node2" class="node">
<title>Node95</title>
<g id="a_node2"><a xlink:href="classEventManager.html#a65ec91fd5016d4f9c4167fb8babed2df" target="_top" xlink:title="EventManager::checkEvents">
<polygon fill="none" stroke="#000000" points="196,-19.5 196,-38.5 350,-38.5 350,-19.5 196,-19.5"/>
<text text-anchor="middle" x="273" y="-26.5" font-family="Helvetica,sans-Serif" font-size="10.00" fill="#000000">EventManager::checkEvents</text>
</a>
</g>
</g>
<!-- Node94&#45;&gt;Node95 -->
<g id="edge1" class="edge">
<title>Node94&#45;&gt;Node95</title>
<path fill="none" stroke="#191970" d="M170.1979,-29C178.778,-29 187.4247,-29 195.8654,-29"/>
<polygon fill="#191970" stroke="#191970" points="170.1727,-25.5001 160.1727,-29 170.1726,-32.5001 170.1727,-25.5001"/>
</g>
<!-- Node96 -->
<g id="node3" class="node">
<title>Node96</title>
<g id="a_node3"><a xlink:href="classGame.html#a1c2ab25d5216b2f4b2fe41efd2c09114" target="_top" xlink:title="begins the game starts running the game ">
<polygon fill="none" stroke="#000000" points="386,-19.5 386,-38.5 454,-38.5 454,-19.5 386,-19.5"/>
<text text-anchor="middle" x="420" y="-26.5" font-family="Helvetica,sans-Serif" font-size="10.00" fill="#000000">Game::run</text>
</a>
</g>
</g>
<!-- Node95&#45;&gt;Node96 -->
<g id="edge2" class="edge">
<title>Node95&#45;&gt;Node96</title>
<path fill="none" stroke="#191970" d="M360.5248,-29C369.4338,-29 378.0572,-29 385.845,-29"/>
<polygon fill="#191970" stroke="#191970" points="360.3744,-25.5001 350.3744,-29 360.3743,-32.5001 360.3744,-25.5001"/>
</g>
<!-- Node97 -->
<g id="node4" class="node">
<title>Node97</title>
<g id="a_node4"><a xlink:href="classGame.html#ad59df6562a58a614fda24622d3715b65" target="_top" xlink:title="Game::Game">
<polygon fill="none" stroke="#000000" points="496,-38.5 496,-57.5 577,-57.5 577,-38.5 496,-38.5"/>
<text text-anchor="middle" x="536.5" y="-45.5" font-family="Helvetica,sans-Serif" font-size="10.00" fill="#000000">Game::Game</text>
</a>
</g>
</g>
<!-- Node96&#45;&gt;Node97 -->
<g id="edge3" class="edge">
<title>Node96&#45;&gt;Node97</title>
<path fill="none" stroke="#191970" d="M464.0985,-36.192C474.4513,-37.8805 485.439,-39.6725 495.6427,-41.3366"/>
<polygon fill="#191970" stroke="#191970" points="464.4428,-32.702 454.0098,-34.5467 463.316,-39.6107 464.4428,-32.702"/>
</g>
<!-- Node98 -->
<g id="node5" class="node">
<title>Node98</title>
<g id="a_node5"><a xlink:href="main_8cxx.html#af582d708d899e67ead623eac34a22387" target="_top" xlink:title="protected_main">
<polygon fill="none" stroke="#000000" points="490,-.5 490,-19.5 583,-19.5 583,-.5 490,-.5"/>
<text text-anchor="middle" x="536.5" y="-7.5" font-family="Helvetica,sans-Serif" font-size="10.00" fill="#000000">protected_main</text>
</a>
</g>
</g>
<!-- Node96&#45;&gt;Node98 -->
<g id="edge4" class="edge">
<title>Node96&#45;&gt;Node98</title>
<path fill="none" stroke="#191970" d="M463.9884,-21.8259C472.382,-20.457 481.1965,-19.0195 489.6749,-17.6367"/>
<polygon fill="#191970" stroke="#191970" points="463.316,-18.3893 454.0098,-23.4533 464.4428,-25.298 463.316,-18.3893"/>
</g>
<!-- Node99 -->
<g id="node6" class="node">
<title>Node99</title>
<g id="a_node6"><a xlink:href="main_8cxx.html#a3c04138a5bfe5d72780bb7e82a18e627" target="_top" xlink:title="main">
<polygon fill="none" stroke="#000000" points="619,-.5 619,-19.5 660,-19.5 660,-.5 619,-.5"/>
<text text-anchor="middle" x="639.5" y="-7.5" font-family="Helvetica,sans-Serif" font-size="10.00" fill="#000000">main</text>
</a>
</g>
</g>
<!-- Node98&#45;&gt;Node99 -->
<g id="edge5" class="edge">
<title>Node98&#45;&gt;Node99</title>
<path fill="none" stroke="#191970" d="M593.2133,-10C602.4322,-10 611.4259,-10 618.9965,-10"/>
<polygon fill="#191970" stroke="#191970" points="593.1782,-6.5001 583.1782,-10 593.1781,-13.5001 593.1782,-6.5001"/>
</g>
</g>
</svg>
        <g id="navigator" transform="translate(0 0)" fill="#404254">
                <rect fill="#f2f5e9" fill-opacity="0.5" stroke="#606060" stroke-width=".5" x="0" y="0" width="60" height="60"/>
                <use id="zoomplus" xlink:href="#zoomPlus" x="17" y="9" onmousedown="handleZoom(evt,'in')"/>
                <use id="zoomminus" xlink:href="#zoomMin" x="42" y="9" onmousedown="handleZoom(evt,'out')"/>
                <use id="reset" xlink:href="#resetDef" x="30" y="36" onmousedown="handleReset()"/>
                <g id="arrowUp" xlink:href="#dirArrow" transform="translate(30 24)" onmousedown="handlePan(0,-1)">
                  <use xlink:href="#rim" fill="#404040">
                        <set attributeName="fill" to="#808080" begin="arrowUp.mouseover" end="arrowUp.mouseout"/>
                  </use>
                  <path fill="none" stroke="white" stroke-width="1.5" d="M0,-3.0v7 M-2.5,-0.5L0,-3.0L2.5,-0.5"/>
                </g>
                <g id="arrowRight" xlink:href="#dirArrow" transform="rotate(90) translate(36 -43)" onmousedown="handlePan(1,0)">
                  <use xlink:href="#rim" fill="#404040">
                        <set attributeName="fill" to="#808080" begin="arrowRight.mouseover" end="arrowRight.mouseout"/>
                  </use>
                  <path fill="none" stroke="white" stroke-width="1.5" d="M0,-3.0v7 M-2.5,-0.5L0,-3.0L2.5,-0.5"/>
                </g>
                <g id="arrowDown" xlink:href="#dirArrow" transform="rotate(180) translate(-30 -48)" onmousedown="handlePan(0,1)">
                  <use xlink:href="#rim" fill="#404040">
                        <set attributeName="fill" to="#808080" begin="arrowDown.mouseover" end="arrowDown.mouseout"/>
                  </use>
                  <path fill="none" stroke="white" stroke-width="1.5" d="M0,-3.0v7 M-2.5,-0.5L0,-3.0L2.5,-0.5"/>
                </g>
                <g id="arrowLeft" xlink:href="#dirArrow" transform="rotate(270) translate(-36 17)" onmousedown="handlePan(-1,0)">
                  <use xlink:href="#rim" fill="#404040">
                        <set attributeName="fill" to="#808080" begin="arrowLeft.mouseover" end="arrowLeft.mouseout"/>
                  </use>
                  <path fill="none" stroke="white" stroke-width="1.5" d="M0,-3.0v7 M-2.5,-0.5L0,-3.0L2.5,-0.5"/>
                </g>
        </g>
        <svg viewBox="0 0 15 15" width="100%" height="30px" preserveAspectRatio="xMaxYMin meet">
         <g id="arrow_out" transform="scale(0.3 0.3)">
          <a xlink:href="classUIManager_a6440fcefe6e6a9ceedfca28543488abf_icgraph_org.svg" target="_base">
           <rect id="button" ry="5" rx="5" y="6" x="6" height="38" width="38"
                fill="#f2f5e9" fill-opacity="0.5" stroke="#606060" stroke-width="1.0"/>
           <path id="arrow"
             d="M 11.500037,31.436501 C 11.940474,20.09759 22.043105,11.32322 32.158766,21.979434 L 37.068811,17.246167 C 37.068811,17.246167 37.088388,32 37.088388,32 L 22.160133,31.978069 C 22.160133,31.978069 26.997745,27.140456 26.997745,27.140456 C 18.528582,18.264221 13.291696,25.230495 11.500037,31.436501 z"
             style="fill:#404040;"/>
          </a>
         </g>
        </svg>
</svg>
