<?xml version="1.0" encoding="UTF-8" standalone="no"?>
<!DOCTYPE svg PUBLIC "-//W3C//DTD SVG 1.1//EN"
 "http://www.w3.org/Graphics/SVG/1.1/DTD/svg11.dtd">
<!-- Generated by graphviz version 2.40.1 (20161225.0304)
 -->
<!-- Title: EventManager::registerTimer Pages: 1 -->
<svg width="624pt" height="85pt"
 viewBox="0.00 0.00 624.00 85.00" xmlns="http://www.w3.org/2000/svg" xmlns:xlink="http://www.w3.org/1999/xlink">
<g id="graph0" class="graph" transform="scale(1 1) rotate(0) translate(4 81)">
<title>EventManager::registerTimer</title>
<!-- Node73 -->
<g id="node1" class="node">
<title>Node73</title>
<polygon fill="#bfbfbf" stroke="#000000" points="0,-38.5 0,-57.5 158,-57.5 158,-38.5 0,-38.5"/>
<text text-anchor="middle" x="79" y="-45.5" font-family="Helvetica,sans-Serif" font-size="10.00" fill="#000000">EventManager::registerTimer</text>
</g>
<!-- Node74 -->
<g id="node2" class="node">
<title>Node74</title>
<g id="a_node2"><a xlink:href="classTimer.html#a3a8b5272198d029779dc9302a54305a8" target="_top" xlink:title="Start / Reset the timer Starts or restarts the timer. If the timer is already running, it will be stopped and restarted. ">
<polygon fill="none" stroke="#000000" points="194,-38.5 194,-57.5 268,-57.5 268,-38.5 194,-38.5"/>
<text text-anchor="middle" x="231" y="-45.5" font-family="Helvetica,sans-Serif" font-size="10.00" fill="#000000">Timer::start</text>
</a>
</g>
</g>
<!-- Node73&#45;&gt;Node74 -->
<g id="edge1" class="edge">
<title>Node73&#45;&gt;Node74</title>
<path fill="none" stroke="#191970" d="M168.2423,-48C177.1408,-48 185.7895,-48 193.6798,-48"/>
<polygon fill="#191970" stroke="#191970" points="168.1164,-44.5001 158.1164,-48 168.1164,-51.5001 168.1164,-44.5001"/>
</g>
<!-- Node75 -->
<g id="node3" class="node">
<title>Node75</title>
<g id="a_node3"><a xlink:href="classTooltip.html#ac48e36748acaf4cdd9838288f7732cc2" target="_top" xlink:title="starts the countdown to when the Tooltip appears starts the timer for the countdown to when the Toolt...">
<polygon fill="none" stroke="#000000" points="304,-57.5 304,-76.5 410,-76.5 410,-57.5 304,-57.5"/>
<text text-anchor="middle" x="357" y="-64.5" font-family="Helvetica,sans-Serif" font-size="10.00" fill="#000000">Tooltip::startTimer</text>
</a>
</g>
</g>
<!-- Node74&#45;&gt;Node75 -->
<g id="edge2" class="edge">
<title>Node74&#45;&gt;Node75</title>
<path fill="none" stroke="#191970" d="M278.1033,-55.1029C286.4846,-56.3667 295.2676,-57.6911 303.8043,-58.9784"/>
<polygon fill="#191970" stroke="#191970" points="278.5328,-51.6282 268.1227,-53.5979 277.489,-58.5499 278.5328,-51.6282"/>
</g>
<!-- Node76 -->
<g id="node4" class="node">
<title>Node76</title>
<g id="a_node4"><a xlink:href="classGame.html#a1c2ab25d5216b2f4b2fe41efd2c09114" target="_top" xlink:title="begins the game starts running the game ">
<polygon fill="none" stroke="#000000" points="323,-19.5 323,-38.5 391,-38.5 391,-19.5 323,-19.5"/>
<text text-anchor="middle" x="357" y="-26.5" font-family="Helvetica,sans-Serif" font-size="10.00" fill="#000000">Game::run</text>
</a>
</g>
</g>
<!-- Node74&#45;&gt;Node76 -->
<g id="edge3" class="edge">
<title>Node74&#45;&gt;Node76</title>
<path fill="none" stroke="#191970" d="M278.1284,-40.8933C292.9332,-38.6609 308.9889,-36.2398 322.726,-34.1683"/>
<polygon fill="#191970" stroke="#191970" points="277.489,-37.4501 268.1227,-42.4021 278.5328,-44.3718 277.489,-37.4501"/>
</g>
<!-- Node77 -->
<g id="node5" class="node">
<title>Node77</title>
<g id="a_node5"><a xlink:href="classGame.html#ad59df6562a58a614fda24622d3715b65" target="_top" xlink:title="Game::Game">
<polygon fill="none" stroke="#000000" points="452,-38.5 452,-57.5 533,-57.5 533,-38.5 452,-38.5"/>
<text text-anchor="middle" x="492.5" y="-45.5" font-family="Helvetica,sans-Serif" font-size="10.00" fill="#000000">Game::Game</text>
</a>
</g>
</g>
<!-- Node76&#45;&gt;Node77 -->
<g id="edge4" class="edge">
<title>Node76&#45;&gt;Node77</title>
<path fill="none" stroke="#191970" d="M401.4617,-35.2345C417.5977,-37.4971 435.7403,-40.0411 451.5583,-42.2591"/>
<polygon fill="#191970" stroke="#191970" points="401.5815,-31.7171 391.1924,-33.7945 400.6094,-38.6493 401.5815,-31.7171"/>
</g>
<!-- Node78 -->
<g id="node6" class="node">
<title>Node78</title>
<g id="a_node6"><a xlink:href="main_8cxx.html#af582d708d899e67ead623eac34a22387" target="_top" xlink:title="protected_main">
<polygon fill="none" stroke="#000000" points="446,-.5 446,-19.5 539,-19.5 539,-.5 446,-.5"/>
<text text-anchor="middle" x="492.5" y="-7.5" font-family="Helvetica,sans-Serif" font-size="10.00" fill="#000000">protected_main</text>
</a>
</g>
</g>
<!-- Node76&#45;&gt;Node78 -->
<g id="edge5" class="edge">
<title>Node76&#45;&gt;Node78</title>
<path fill="none" stroke="#191970" d="M401.251,-22.7951C415.5083,-20.7959 431.3504,-18.5745 445.7797,-16.5512"/>
<polygon fill="#191970" stroke="#191970" points="400.6094,-19.3507 391.1924,-24.2055 401.5815,-26.2829 400.6094,-19.3507"/>
</g>
<!-- Node79 -->
<g id="node7" class="node">
<title>Node79</title>
<g id="a_node7"><a xlink:href="main_8cxx.html#a3c04138a5bfe5d72780bb7e82a18e627" target="_top" xlink:title="main">
<polygon fill="none" stroke="#000000" points="575,-.5 575,-19.5 616,-19.5 616,-.5 575,-.5"/>
<text text-anchor="middle" x="595.5" y="-7.5" font-family="Helvetica,sans-Serif" font-size="10.00" fill="#000000">main</text>
</a>
</g>
</g>
<!-- Node78&#45;&gt;Node79 -->
<g id="edge6" class="edge">
<title>Node78&#45;&gt;Node79</title>
<path fill="none" stroke="#191970" d="M549.2133,-10C558.4322,-10 567.4259,-10 574.9965,-10"/>
<polygon fill="#191970" stroke="#191970" points="549.1782,-6.5001 539.1782,-10 549.1781,-13.5001 549.1782,-6.5001"/>
</g>
</g>
</svg>
