<?xml version="1.0" encoding="UTF-8" standalone="no"?>
<!DOCTYPE svg PUBLIC "-//W3C//DTD SVG 1.1//EN"
 "http://www.w3.org/Graphics/SVG/1.1/DTD/svg11.dtd">
<!-- Generated by graphviz version 2.40.1 (20161225.0304)
 -->
<!-- Title: MapNode::setTileID Pages: 1 -->
<svg width="486pt" height="144pt"
 viewBox="0.00 0.00 486.00 144.00" xmlns="http://www.w3.org/2000/svg" xmlns:xlink="http://www.w3.org/1999/xlink">
<g id="graph0" class="graph" transform="scale(1 1) rotate(0) translate(4 140)">
<title>MapNode::setTileID</title>
<!-- Node69 -->
<g id="node1" class="node">
<title>Node69</title>
<polygon fill="#bfbfbf" stroke="#000000" points="0,-86 0,-105 112,-105 112,-86 0,-86"/>
<text text-anchor="middle" x="56" y="-93" font-family="Helvetica,sans-Serif" font-size="10.00" fill="#000000">MapNode::setTileID</text>
</g>
<!-- Node70 -->
<g id="node2" class="node">
<title>Node70</title>
<g id="a_node2"><a xlink:href="classSingleton.html#af5cb1e5749949e2b68416cfb8d378044" target="_top" xlink:title="Get an instance of the singleton. ">
<polygon fill="none" stroke="#000000" points="334,-105.5 334,-135.5 468,-135.5 468,-105.5 334,-105.5"/>
<text text-anchor="start" x="342" y="-123.5" font-family="Helvetica,sans-Serif" font-size="10.00" fill="#000000">Singleton&lt; TileManager</text>
<text text-anchor="middle" x="401" y="-112.5" font-family="Helvetica,sans-Serif" font-size="10.00" fill="#000000"> &gt;::instance</text>
</a>
</g>
</g>
<!-- Node69&#45;&gt;Node70 -->
<g id="edge1" class="edge">
<title>Node69&#45;&gt;Node70</title>
<path fill="none" stroke="#191970" d="M94.2467,-105.0049C110.683,-108.6707 130.1756,-112.4649 148,-114.5 206.7058,-121.2029 273.5528,-122.5191 323.7861,-122.2585"/>
<polygon fill="#191970" stroke="#191970" points="323.9499,-125.7574 333.9237,-122.1834 323.898,-118.7576 323.9499,-125.7574"/>
</g>
<!-- Node71 -->
<g id="node3" class="node">
<title>Node71</title>
<g id="a_node3"><a xlink:href="classTileManager.html#a0635992377296446c67c5d41b48e8826" target="_top" xlink:title="TileManager::getTileData">
<polygon fill="none" stroke="#000000" points="148,-86 148,-105 288,-105 288,-86 148,-86"/>
<text text-anchor="middle" x="218" y="-93" font-family="Helvetica,sans-Serif" font-size="10.00" fill="#000000">TileManager::getTileData</text>
</a>
</g>
</g>
<!-- Node69&#45;&gt;Node71 -->
<g id="edge2" class="edge">
<title>Node69&#45;&gt;Node71</title>
<path fill="none" stroke="#191970" d="M112.2051,-95.5C120.4812,-95.5 129.1395,-95.5 137.7859,-95.5"/>
<polygon fill="#191970" stroke="#191970" points="137.9069,-99.0001 147.9069,-95.5 137.9068,-92.0001 137.9069,-99.0001"/>
</g>
<!-- Node72 -->
<g id="node4" class="node">
<title>Node72</title>
<g id="a_node4"><a xlink:href="classMapNode.html#a0951fd739ee0a3e0263ef412596811dd" target="_top" xlink:title="MapNode::updateTexture">
<polygon fill="none" stroke="#000000" points="149,-48 149,-67 287,-67 287,-48 149,-48"/>
<text text-anchor="middle" x="218" y="-55" font-family="Helvetica,sans-Serif" font-size="10.00" fill="#000000">MapNode::updateTexture</text>
</a>
</g>
</g>
<!-- Node69&#45;&gt;Node72 -->
<g id="edge3" class="edge">
<title>Node69&#45;&gt;Node72</title>
<path fill="none" stroke="#191970" d="M96.8794,-85.911C118.3534,-80.8739 144.8605,-74.6562 167.597,-69.3229"/>
<polygon fill="#191970" stroke="#191970" points="168.4781,-72.7113 177.4145,-67.0201 166.8795,-65.8963 168.4781,-72.7113"/>
</g>
<!-- Node72&#45;&gt;Node70 -->
<g id="edge4" class="edge">
<title>Node72&#45;&gt;Node70</title>
<path fill="none" stroke="#191970" d="M256.0006,-67.026C266.4392,-69.8562 277.714,-73.1121 288,-76.5 300.8106,-80.7194 329.1053,-91.7376 354.1749,-101.6918"/>
<polygon fill="#191970" stroke="#191970" points="353.0008,-104.9915 363.5862,-105.4384 355.5899,-98.4879 353.0008,-104.9915"/>
</g>
<!-- Node73 -->
<g id="node5" class="node">
<title>Node73</title>
<g id="a_node5"><a xlink:href="classTileManager.html#a519b2d5c91877025a2faa0dff3ba099c" target="_top" xlink:title="TileManager::calculateSlope\lOrientation">
<polygon fill="none" stroke="#000000" points="324,-49.5 324,-79.5 478,-79.5 478,-49.5 324,-49.5"/>
<text text-anchor="start" x="332" y="-67.5" font-family="Helvetica,sans-Serif" font-size="10.00" fill="#000000">TileManager::calculateSlope</text>
<text text-anchor="middle" x="401" y="-56.5" font-family="Helvetica,sans-Serif" font-size="10.00" fill="#000000">Orientation</text>
</a>
</g>
</g>
<!-- Node72&#45;&gt;Node73 -->
<g id="edge5" class="edge">
<title>Node72&#45;&gt;Node73</title>
<path fill="none" stroke="#191970" d="M287.1845,-60.1464C295.8621,-60.4783 304.825,-60.8212 313.7342,-61.162"/>
<polygon fill="#191970" stroke="#191970" points="313.6256,-64.6603 323.7521,-61.5452 313.8932,-57.6654 313.6256,-64.6603"/>
</g>
<!-- Node74 -->
<g id="node6" class="node">
<title>Node74</title>
<g id="a_node6"><a xlink:href="classTileManager.html#ae1ac0c18d79cc2e1de86416d07d1591b" target="_top" xlink:title="TileManager::calculateTile\lOrientation">
<polygon fill="none" stroke="#000000" points="328.5,-.5 328.5,-30.5 473.5,-30.5 473.5,-.5 328.5,-.5"/>
<text text-anchor="start" x="336.5" y="-18.5" font-family="Helvetica,sans-Serif" font-size="10.00" fill="#000000">TileManager::calculateTile</text>
<text text-anchor="middle" x="401" y="-7.5" font-family="Helvetica,sans-Serif" font-size="10.00" fill="#000000">Orientation</text>
</a>
</g>
</g>
<!-- Node72&#45;&gt;Node74 -->
<g id="edge6" class="edge">
<title>Node72&#45;&gt;Node74</title>
<path fill="none" stroke="#191970" d="M259.5255,-47.9695C279.0919,-43.4789 303.0562,-37.9789 325.6613,-32.7908"/>
<polygon fill="#191970" stroke="#191970" points="326.6252,-36.1607 335.5889,-30.5124 325.0593,-29.3381 326.6252,-36.1607"/>
</g>
</g>
</svg>
