<?xml version="1.0" encoding="UTF-8" standalone="no"?>
<!DOCTYPE svg PUBLIC "-//W3C//DTD SVG 1.1//EN"
 "http://www.w3.org/Graphics/SVG/1.1/DTD/svg11.dtd">
<!-- Generated by graphviz version 2.40.1 (20161225.0304)
 -->
<!-- Title: Camera::decreaseZoomLevel Pages: 1 -->
<svg width="849pt" height="66pt"
 viewBox="0.00 0.00 849.00 66.00" xmlns="http://www.w3.org/2000/svg" xmlns:xlink="http://www.w3.org/1999/xlink">
<g id="graph0" class="graph" transform="scale(1 1) rotate(0) translate(4 62)">
<title>Camera::decreaseZoomLevel</title>
<!-- Node36 -->
<g id="node1" class="node">
<title>Node36</title>
<polygon fill="#bfbfbf" stroke="#000000" points="0,-19.5 0,-38.5 160,-38.5 160,-19.5 0,-19.5"/>
<text text-anchor="middle" x="80" y="-26.5" font-family="Helvetica,sans-Serif" font-size="10.00" fill="#000000">Camera::decreaseZoomLevel</text>
</g>
<!-- Node37 -->
<g id="node2" class="node">
<title>Node37</title>
<g id="a_node2"><a xlink:href="classCamera.html#a1f8ecd427814c5a4970223c2d13b9310" target="_top" xlink:title="Camera::setPinchDistance">
<polygon fill="none" stroke="#000000" points="196,-38.5 196,-57.5 341,-57.5 341,-38.5 196,-38.5"/>
<text text-anchor="middle" x="268.5" y="-45.5" font-family="Helvetica,sans-Serif" font-size="10.00" fill="#000000">Camera::setPinchDistance</text>
</a>
</g>
</g>
<!-- Node36&#45;&gt;Node37 -->
<g id="edge1" class="edge">
<title>Node36&#45;&gt;Node37</title>
<path fill="none" stroke="#191970" d="M170.2454,-38.0964C178.8223,-38.9609 187.4436,-39.8299 195.8243,-40.6746"/>
<polygon fill="#191970" stroke="#191970" points="170.5149,-34.6059 160.2143,-37.0853 169.8128,-41.5706 170.5149,-34.6059"/>
</g>
<!-- Node38 -->
<g id="node3" class="node">
<title>Node38</title>
<g id="a_node3"><a xlink:href="classEventManager.html#a65ec91fd5016d4f9c4167fb8babed2df" target="_top" xlink:title="EventManager::checkEvents">
<polygon fill="none" stroke="#000000" points="377,-19.5 377,-38.5 531,-38.5 531,-19.5 377,-19.5"/>
<text text-anchor="middle" x="454" y="-26.5" font-family="Helvetica,sans-Serif" font-size="10.00" fill="#000000">EventManager::checkEvents</text>
</a>
</g>
</g>
<!-- Node36&#45;&gt;Node38 -->
<g id="edge7" class="edge">
<title>Node36&#45;&gt;Node38</title>
<path fill="none" stroke="#191970" d="M170.5706,-29C233.6383,-29 316.8519,-29 376.779,-29"/>
<polygon fill="#191970" stroke="#191970" points="170.2324,-25.5001 160.2324,-29 170.2323,-32.5001 170.2324,-25.5001"/>
</g>
<!-- Node37&#45;&gt;Node38 -->
<g id="edge2" class="edge">
<title>Node37&#45;&gt;Node38</title>
<path fill="none" stroke="#191970" d="M351.0525,-39.5445C359.6638,-38.6625 368.3938,-37.7683 376.9407,-36.8929"/>
<polygon fill="#191970" stroke="#191970" points="350.6074,-36.0717 341.0161,-40.5725 351.3207,-43.0352 350.6074,-36.0717"/>
</g>
<!-- Node39 -->
<g id="node4" class="node">
<title>Node39</title>
<g id="a_node4"><a xlink:href="classGame.html#a1c2ab25d5216b2f4b2fe41efd2c09114" target="_top" xlink:title="begins the game starts running the game ">
<polygon fill="none" stroke="#000000" points="567,-19.5 567,-38.5 635,-38.5 635,-19.5 567,-19.5"/>
<text text-anchor="middle" x="601" y="-26.5" font-family="Helvetica,sans-Serif" font-size="10.00" fill="#000000">Game::run</text>
</a>
</g>
</g>
<!-- Node38&#45;&gt;Node39 -->
<g id="edge3" class="edge">
<title>Node38&#45;&gt;Node39</title>
<path fill="none" stroke="#191970" d="M541.5248,-29C550.4338,-29 559.0572,-29 566.845,-29"/>
<polygon fill="#191970" stroke="#191970" points="541.3744,-25.5001 531.3744,-29 541.3743,-32.5001 541.3744,-25.5001"/>
</g>
<!-- Node40 -->
<g id="node5" class="node">
<title>Node40</title>
<g id="a_node5"><a xlink:href="classGame.html#ad59df6562a58a614fda24622d3715b65" target="_top" xlink:title="Game::Game">
<polygon fill="none" stroke="#000000" points="677,-38.5 677,-57.5 758,-57.5 758,-38.5 677,-38.5"/>
<text text-anchor="middle" x="717.5" y="-45.5" font-family="Helvetica,sans-Serif" font-size="10.00" fill="#000000">Game::Game</text>
</a>
</g>
</g>
<!-- Node39&#45;&gt;Node40 -->
<g id="edge4" class="edge">
<title>Node39&#45;&gt;Node40</title>
<path fill="none" stroke="#191970" d="M645.0985,-36.192C655.4513,-37.8805 666.439,-39.6725 676.6427,-41.3366"/>
<polygon fill="#191970" stroke="#191970" points="645.4428,-32.702 635.0098,-34.5467 644.316,-39.6107 645.4428,-32.702"/>
</g>
<!-- Node41 -->
<g id="node6" class="node">
<title>Node41</title>
<g id="a_node6"><a xlink:href="main_8cxx.html#af582d708d899e67ead623eac34a22387" target="_top" xlink:title="protected_main">
<polygon fill="none" stroke="#000000" points="671,-.5 671,-19.5 764,-19.5 764,-.5 671,-.5"/>
<text text-anchor="middle" x="717.5" y="-7.5" font-family="Helvetica,sans-Serif" font-size="10.00" fill="#000000">protected_main</text>
</a>
</g>
</g>
<!-- Node39&#45;&gt;Node41 -->
<g id="edge5" class="edge">
<title>Node39&#45;&gt;Node41</title>
<path fill="none" stroke="#191970" d="M644.9884,-21.8259C653.382,-20.457 662.1965,-19.0195 670.6749,-17.6367"/>
<polygon fill="#191970" stroke="#191970" points="644.316,-18.3893 635.0098,-23.4533 645.4428,-25.298 644.316,-18.3893"/>
</g>
<!-- Node42 -->
<g id="node7" class="node">
<title>Node42</title>
<g id="a_node7"><a xlink:href="main_8cxx.html#a3c04138a5bfe5d72780bb7e82a18e627" target="_top" xlink:title="main">
<polygon fill="none" stroke="#000000" points="800,-.5 800,-19.5 841,-19.5 841,-.5 800,-.5"/>
<text text-anchor="middle" x="820.5" y="-7.5" font-family="Helvetica,sans-Serif" font-size="10.00" fill="#000000">main</text>
</a>
</g>
</g>
<!-- Node41&#45;&gt;Node42 -->
<g id="edge6" class="edge">
<title>Node41&#45;&gt;Node42</title>
<path fill="none" stroke="#191970" d="M774.2133,-10C783.4322,-10 792.4259,-10 799.9965,-10"/>
<polygon fill="#191970" stroke="#191970" points="774.1782,-6.5001 764.1782,-10 774.1781,-13.5001 774.1782,-6.5001"/>
</g>
</g>
</svg>
