<?xml version="1.0" encoding="UTF-8" standalone="no"?>
<!DOCTYPE svg PUBLIC "-//W3C//DTD SVG 1.1//EN"
 "http://www.w3.org/Graphics/SVG/1.1/DTD/svg11.dtd">
<!-- Generated by graphviz version 2.40.1 (20161225.0304)
 -->
<!-- Title: MapNode::demolishNode Pages: 1 -->
<svg width="514pt" height="214pt"
 viewBox="0.00 0.00 514.00 213.50" xmlns="http://www.w3.org/2000/svg" xmlns:xlink="http://www.w3.org/1999/xlink">
<g id="graph0" class="graph" transform="scale(1 1) rotate(0) translate(4 209.5)">
<title>MapNode::demolishNode</title>
<!-- Node17 -->
<g id="node1" class="node">
<title>Node17</title>
<polygon fill="#bfbfbf" stroke="#000000" points="0,-102 0,-121 139,-121 139,-102 0,-102"/>
<text text-anchor="middle" x="69.5" y="-109" font-family="Helvetica,sans-Serif" font-size="10.00" fill="#000000">MapNode::demolishNode</text>
</g>
<!-- Node18 -->
<g id="node2" class="node">
<title>Node18</title>
<g id="a_node2"><a xlink:href="classMapLayers.html#a1d810628821913c499b8348107b66891" target="_top" xlink:title="Check if given Layer is being drawn. ">
<polygon fill="none" stroke="#000000" points="175,-148 175,-167 316,-167 316,-148 175,-148"/>
<text text-anchor="middle" x="245.5" y="-155" font-family="Helvetica,sans-Serif" font-size="10.00" fill="#000000">MapLayers::isLayerActive</text>
</a>
</g>
</g>
<!-- Node17&#45;&gt;Node18 -->
<g id="edge1" class="edge">
<title>Node17&#45;&gt;Node18</title>
<path fill="none" stroke="#191970" d="M105.9673,-121.0312C132.9875,-128.0933 170.0157,-137.7711 199.1377,-145.3826"/>
<polygon fill="#191970" stroke="#191970" points="198.5193,-148.8385 209.0794,-147.981 200.2895,-142.066 198.5193,-148.8385"/>
</g>
<!-- Node21 -->
<g id="node5" class="node">
<title>Node21</title>
<g id="a_node5"><a xlink:href="classMapNode.html#a0951fd739ee0a3e0263ef412596811dd" target="_top" xlink:title="MapNode::updateTexture">
<polygon fill="none" stroke="#000000" points="176.5,-80 176.5,-99 314.5,-99 314.5,-80 176.5,-80"/>
<text text-anchor="middle" x="245.5" y="-87" font-family="Helvetica,sans-Serif" font-size="10.00" fill="#000000">MapNode::updateTexture</text>
</a>
</g>
</g>
<!-- Node17&#45;&gt;Node21 -->
<g id="edge4" class="edge">
<title>Node17&#45;&gt;Node21</title>
<path fill="none" stroke="#191970" d="M139.0599,-102.805C147.9957,-101.688 157.1971,-100.5379 166.2728,-99.4034"/>
<polygon fill="#191970" stroke="#191970" points="166.9567,-102.8452 176.4453,-98.1318 166.0884,-95.8993 166.9567,-102.8452"/>
</g>
<!-- Node19 -->
<g id="node3" class="node">
<title>Node19</title>
<g id="a_node3"><a xlink:href="classMapLayers.html#a53d7fcd90e70eaf36239d7a75c0c5dda" target="_top" xlink:title="MapLayers::MapLayers">
<polygon fill="none" stroke="#000000" points="365,-186 365,-205 493,-205 493,-186 365,-186"/>
<text text-anchor="middle" x="429" y="-193" font-family="Helvetica,sans-Serif" font-size="10.00" fill="#000000">MapLayers::MapLayers</text>
</a>
</g>
</g>
<!-- Node18&#45;&gt;Node19 -->
<g id="edge2" class="edge">
<title>Node18&#45;&gt;Node19</title>
<path fill="none" stroke="#191970" d="M291.8048,-167.089C316.4559,-172.1939 346.9625,-178.5113 372.9447,-183.8918"/>
<polygon fill="#191970" stroke="#191970" points="372.5262,-187.3793 383.0282,-185.9799 373.9457,-180.5248 372.5262,-187.3793"/>
</g>
<!-- Node20 -->
<g id="node4" class="node">
<title>Node20</title>
<g id="a_node4"><a xlink:href="classMapLayers.html#aa7fa21110e27ec69f131692b0a510d66" target="_top" xlink:title="MapLayers::~MapLayers">
<polygon fill="none" stroke="#000000" points="361,-148 361,-167 497,-167 497,-148 361,-148"/>
<text text-anchor="middle" x="429" y="-155" font-family="Helvetica,sans-Serif" font-size="10.00" fill="#000000">MapLayers::~MapLayers</text>
</a>
</g>
</g>
<!-- Node18&#45;&gt;Node20 -->
<g id="edge3" class="edge">
<title>Node18&#45;&gt;Node20</title>
<path fill="none" stroke="#191970" d="M316.1834,-157.5C327.5062,-157.5 339.2814,-157.5 350.7677,-157.5"/>
<polygon fill="#191970" stroke="#191970" points="350.7687,-161.0001 360.7687,-157.5 350.7686,-154.0001 350.7687,-161.0001"/>
</g>
<!-- Node22 -->
<g id="node6" class="node">
<title>Node22</title>
<g id="a_node6"><a xlink:href="classSingleton.html#af5cb1e5749949e2b68416cfb8d378044" target="_top" xlink:title="Get an instance of the singleton. ">
<polygon fill="none" stroke="#000000" points="362,-98.5 362,-128.5 496,-128.5 496,-98.5 362,-98.5"/>
<text text-anchor="start" x="370" y="-116.5" font-family="Helvetica,sans-Serif" font-size="10.00" fill="#000000">Singleton&lt; TileManager</text>
<text text-anchor="middle" x="429" y="-105.5" font-family="Helvetica,sans-Serif" font-size="10.00" fill="#000000"> &gt;::instance</text>
</a>
</g>
</g>
<!-- Node21&#45;&gt;Node22 -->
<g id="edge5" class="edge">
<title>Node21&#45;&gt;Node22</title>
<path fill="none" stroke="#191970" d="M314.612,-98.5392C326.6764,-100.1171 339.2978,-101.7678 351.5689,-103.3728"/>
<polygon fill="#191970" stroke="#191970" points="351.4048,-106.881 361.7743,-104.7075 352.3127,-99.9402 351.4048,-106.881"/>
</g>
<!-- Node23 -->
<g id="node7" class="node">
<title>Node23</title>
<g id="a_node7"><a xlink:href="classTileManager.html#a519b2d5c91877025a2faa0dff3ba099c" target="_top" xlink:title="TileManager::calculateSlope\lOrientation">
<polygon fill="none" stroke="#000000" points="352,-49.5 352,-79.5 506,-79.5 506,-49.5 352,-49.5"/>
<text text-anchor="start" x="360" y="-67.5" font-family="Helvetica,sans-Serif" font-size="10.00" fill="#000000">TileManager::calculateSlope</text>
<text text-anchor="middle" x="429" y="-56.5" font-family="Helvetica,sans-Serif" font-size="10.00" fill="#000000">Orientation</text>
</a>
</g>
</g>
<!-- Node21&#45;&gt;Node23 -->
<g id="edge6" class="edge">
<title>Node21&#45;&gt;Node23</title>
<path fill="none" stroke="#191970" d="M314.612,-80.0842C323.5651,-78.8644 332.8249,-77.6029 342.0206,-76.35"/>
<polygon fill="#191970" stroke="#191970" points="342.5203,-79.8144 351.9563,-74.9964 341.5753,-72.8785 342.5203,-79.8144"/>
</g>
<!-- Node24 -->
<g id="node8" class="node">
<title>Node24</title>
<g id="a_node8"><a xlink:href="classTileManager.html#ae1ac0c18d79cc2e1de86416d07d1591b" target="_top" xlink:title="TileManager::calculateTile\lOrientation">
<polygon fill="none" stroke="#000000" points="356.5,-.5 356.5,-30.5 501.5,-30.5 501.5,-.5 356.5,-.5"/>
<text text-anchor="start" x="364.5" y="-18.5" font-family="Helvetica,sans-Serif" font-size="10.00" fill="#000000">TileManager::calculateTile</text>
<text text-anchor="middle" x="429" y="-7.5" font-family="Helvetica,sans-Serif" font-size="10.00" fill="#000000">Orientation</text>
</a>
</g>
</g>
<!-- Node21&#45;&gt;Node24 -->
<g id="edge7" class="edge">
<title>Node21&#45;&gt;Node24</title>
<path fill="none" stroke="#191970" d="M264.4475,-79.9611C285.521,-69.5464 320.722,-52.7244 352,-40.5 357.8417,-38.2169 363.9866,-35.9701 370.1514,-33.8163"/>
<polygon fill="#191970" stroke="#191970" points="371.4822,-37.0603 379.8146,-30.5165 369.2201,-30.4359 371.4822,-37.0603"/>
</g>
</g>
</svg>
