<?xml version="1.0" encoding="UTF-8" standalone="no"?>
<!DOCTYPE svg PUBLIC "-//W3C//DTD SVG 1.1//EN"
 "http://www.w3.org/Graphics/SVG/1.1/DTD/svg11.dtd">
<!-- Generated by graphviz version 2.40.1 (20161225.0304)
 -->
<!-- Title: Map::unHighlightNode Pages: 1 -->
<svg width="633pt" height="66pt"
 viewBox="0.00 0.00 633.00 66.00" xmlns="http://www.w3.org/2000/svg" xmlns:xlink="http://www.w3.org/1999/xlink">
<g id="graph0" class="graph" transform="scale(1 1) rotate(0) translate(4 62)">
<title>Map::unHighlightNode</title>
<!-- Node372 -->
<g id="node1" class="node">
<title>Node372</title>
<polygon fill="#bfbfbf" stroke="#000000" points="0,-19.5 0,-38.5 125,-38.5 125,-19.5 0,-19.5"/>
<text text-anchor="middle" x="62.5" y="-26.5" font-family="Helvetica,sans-Serif" font-size="10.00" fill="#000000">Map::unHighlightNode</text>
</g>
<!-- Node373 -->
<g id="node2" class="node">
<title>Node373</title>
<g id="a_node2"><a xlink:href="classEventManager.html#a65ec91fd5016d4f9c4167fb8babed2df" target="_top" xlink:title="EventManager::checkEvents">
<polygon fill="none" stroke="#000000" points="161,-19.5 161,-38.5 315,-38.5 315,-19.5 161,-19.5"/>
<text text-anchor="middle" x="238" y="-26.5" font-family="Helvetica,sans-Serif" font-size="10.00" fill="#000000">EventManager::checkEvents</text>
</a>
</g>
</g>
<!-- Node372&#45;&gt;Node373 -->
<g id="edge1" class="edge">
<title>Node372&#45;&gt;Node373</title>
<path fill="none" stroke="#191970" d="M135.4777,-29C143.8621,-29 152.4318,-29 160.8685,-29"/>
<polygon fill="#191970" stroke="#191970" points="135.3639,-25.5001 125.3638,-29 135.3638,-32.5001 135.3639,-25.5001"/>
</g>
<!-- Node374 -->
<g id="node3" class="node">
<title>Node374</title>
<g id="a_node3"><a xlink:href="classGame.html#a1c2ab25d5216b2f4b2fe41efd2c09114" target="_top" xlink:title="begins the game starts running the game ">
<polygon fill="none" stroke="#000000" points="351,-19.5 351,-38.5 419,-38.5 419,-19.5 351,-19.5"/>
<text text-anchor="middle" x="385" y="-26.5" font-family="Helvetica,sans-Serif" font-size="10.00" fill="#000000">Game::run</text>
</a>
</g>
</g>
<!-- Node373&#45;&gt;Node374 -->
<g id="edge2" class="edge">
<title>Node373&#45;&gt;Node374</title>
<path fill="none" stroke="#191970" d="M325.5248,-29C334.4338,-29 343.0572,-29 350.845,-29"/>
<polygon fill="#191970" stroke="#191970" points="325.3744,-25.5001 315.3744,-29 325.3743,-32.5001 325.3744,-25.5001"/>
</g>
<!-- Node375 -->
<g id="node4" class="node">
<title>Node375</title>
<g id="a_node4"><a xlink:href="classGame.html#ad59df6562a58a614fda24622d3715b65" target="_top" xlink:title="Game::Game">
<polygon fill="none" stroke="#000000" points="461,-38.5 461,-57.5 542,-57.5 542,-38.5 461,-38.5"/>
<text text-anchor="middle" x="501.5" y="-45.5" font-family="Helvetica,sans-Serif" font-size="10.00" fill="#000000">Game::Game</text>
</a>
</g>
</g>
<!-- Node374&#45;&gt;Node375 -->
<g id="edge3" class="edge">
<title>Node374&#45;&gt;Node375</title>
<path fill="none" stroke="#191970" d="M429.0985,-36.192C439.4513,-37.8805 450.439,-39.6725 460.6427,-41.3366"/>
<polygon fill="#191970" stroke="#191970" points="429.4428,-32.702 419.0098,-34.5467 428.316,-39.6107 429.4428,-32.702"/>
</g>
<!-- Node376 -->
<g id="node5" class="node">
<title>Node376</title>
<g id="a_node5"><a xlink:href="main_8cxx.html#af582d708d899e67ead623eac34a22387" target="_top" xlink:title="protected_main">
<polygon fill="none" stroke="#000000" points="455,-.5 455,-19.5 548,-19.5 548,-.5 455,-.5"/>
<text text-anchor="middle" x="501.5" y="-7.5" font-family="Helvetica,sans-Serif" font-size="10.00" fill="#000000">protected_main</text>
</a>
</g>
</g>
<!-- Node374&#45;&gt;Node376 -->
<g id="edge4" class="edge">
<title>Node374&#45;&gt;Node376</title>
<path fill="none" stroke="#191970" d="M428.9884,-21.8259C437.382,-20.457 446.1965,-19.0195 454.6749,-17.6367"/>
<polygon fill="#191970" stroke="#191970" points="428.316,-18.3893 419.0098,-23.4533 429.4428,-25.298 428.316,-18.3893"/>
</g>
<!-- Node377 -->
<g id="node6" class="node">
<title>Node377</title>
<g id="a_node6"><a xlink:href="main_8cxx.html#a3c04138a5bfe5d72780bb7e82a18e627" target="_top" xlink:title="main">
<polygon fill="none" stroke="#000000" points="584,-.5 584,-19.5 625,-19.5 625,-.5 584,-.5"/>
<text text-anchor="middle" x="604.5" y="-7.5" font-family="Helvetica,sans-Serif" font-size="10.00" fill="#000000">main</text>
</a>
</g>
</g>
<!-- Node376&#45;&gt;Node377 -->
<g id="edge5" class="edge">
<title>Node376&#45;&gt;Node377</title>
<path fill="none" stroke="#191970" d="M558.2133,-10C567.4322,-10 576.4259,-10 583.9965,-10"/>
<polygon fill="#191970" stroke="#191970" points="558.1782,-6.5001 548.1782,-10 558.1781,-13.5001 558.1782,-6.5001"/>
</g>
</g>
</svg>
