<?xml version="1.0" encoding="UTF-8" standalone="no"?>
<!DOCTYPE svg PUBLIC "-//W3C//DTD SVG 1.1//EN"
 "http://www.w3.org/Graphics/SVG/1.1/DTD/svg11.dtd">
<!-- Generated by graphviz version 2.40.1 (20161225.0304)
 -->
<!-- Title: Map::setTileIDOfNode Pages: 1 -->
<svg width="1162pt" height="373pt"
 viewBox="0.00 0.00 1162.00 373.00" xmlns="http://www.w3.org/2000/svg" xmlns:xlink="http://www.w3.org/1999/xlink">
<g id="graph0" class="graph" transform="scale(1 1) rotate(0) translate(4 369)">
<title>Map::setTileIDOfNode</title>
<!-- Node341 -->
<g id="node1" class="node">
<title>Node341</title>
<polygon fill="#bfbfbf" stroke="#000000" points="0,-114.5 0,-133.5 123,-133.5 123,-114.5 0,-114.5"/>
<text text-anchor="middle" x="61.5" y="-121.5" font-family="Helvetica,sans-Serif" font-size="10.00" fill="#000000">Map::setTileIDOfNode</text>
</g>
<!-- Node342 -->
<g id="node2" class="node">
<title>Node342</title>
<g id="a_node2"><a xlink:href="classMap.html#ab33e202107202756f4e9f196f0037d99" target="_top" xlink:title="Map::checkTileIDIsEmpty">
<polygon fill="none" stroke="#000000" points="159.5,-345.5 159.5,-364.5 299.5,-364.5 299.5,-345.5 159.5,-345.5"/>
<text text-anchor="middle" x="229.5" y="-352.5" font-family="Helvetica,sans-Serif" font-size="10.00" fill="#000000">Map::checkTileIDIsEmpty</text>
</a>
</g>
</g>
<!-- Node341&#45;&gt;Node342 -->
<g id="edge1" class="edge">
<title>Node341&#45;&gt;Node342</title>
<path fill="none" stroke="#191970" d="M63.3014,-133.8483C69.8322,-166.7645 95.3202,-274.0849 159,-331 163.5083,-335.0294 168.7221,-338.3875 174.2332,-341.1851"/>
<polygon fill="#191970" stroke="#191970" points="173.1559,-344.5358 183.7167,-345.3838 175.9898,-338.135 173.1559,-344.5358"/>
</g>
<!-- Node343 -->
<g id="node3" class="node">
<title>Node343</title>
<g id="a_node3"><a xlink:href="classMap.html#a59d21f2688713fbcfe320eb1b24405ca" target="_top" xlink:title="Update mapNode and its adjacent tiles Updates mapNode height information, draws slopes for adjacent t...">
<polygon fill="none" stroke="#000000" points="660,-122.5 660,-141.5 823,-141.5 823,-122.5 660,-122.5"/>
<text text-anchor="middle" x="741.5" y="-129.5" font-family="Helvetica,sans-Serif" font-size="10.00" fill="#000000">Map::updateNeighborsOfNode</text>
</a>
</g>
</g>
<!-- Node341&#45;&gt;Node343 -->
<g id="edge2" class="edge">
<title>Node341&#45;&gt;Node343</title>
<path fill="none" stroke="#191970" d="M123.0448,-124.7241C242.9694,-126.1349 508.5048,-129.2589 649.4498,-130.9171"/>
<polygon fill="#191970" stroke="#191970" points="649.7525,-134.4208 659.793,-131.0387 649.8349,-127.4212 649.7525,-134.4208"/>
</g>
<!-- Node346 -->
<g id="node6" class="node">
<title>Node346</title>
<g id="a_node6"><a xlink:href="classMap.html#a05e7d896dc5062af07c9b838600a068d" target="_top" xlink:title="Demolish a node Invokes the tiles demolish function. ">
<polygon fill="none" stroke="#000000" points="1041,-122.5 1041,-141.5 1154,-141.5 1154,-122.5 1041,-122.5"/>
<text text-anchor="middle" x="1097.5" y="-129.5" font-family="Helvetica,sans-Serif" font-size="10.00" fill="#000000">Map::demolishNode</text>
</a>
</g>
</g>
<!-- Node341&#45;&gt;Node346 -->
<g id="edge15" class="edge">
<title>Node341&#45;&gt;Node346</title>
<path fill="none" stroke="#191970" d="M69.1781,-133.5357C84.5416,-152.1062 120.8764,-193.5297 159,-219 251.0521,-280.4998 277.2941,-317 388,-317 388,-317 388,-317 741.5,-317 858.9152,-317 905.9711,-361.084 1005,-298 1058.4597,-263.9448 1083.7767,-187.509 1093.0822,-151.4859"/>
<polygon fill="#191970" stroke="#191970" points="1096.5008,-152.24 1095.4696,-141.6954 1089.7001,-150.5816 1096.5008,-152.24"/>
</g>
<!-- Node351 -->
<g id="node11" class="node">
<title>Node351</title>
<g id="a_node11"><a xlink:href="classMap.html#ab69938ac0e56eb0da1d1701221f3d185" target="_top" xlink:title="Refresh all the map tile textures. ">
<polygon fill="none" stroke="#000000" points="191,-76.5 191,-95.5 268,-95.5 268,-76.5 191,-76.5"/>
<text text-anchor="middle" x="229.5" y="-83.5" font-family="Helvetica,sans-Serif" font-size="10.00" fill="#000000">Map::refresh</text>
</a>
</g>
</g>
<!-- Node341&#45;&gt;Node351 -->
<g id="edge16" class="edge">
<title>Node341&#45;&gt;Node351</title>
<path fill="none" stroke="#191970" d="M103.8935,-114.411C127.3877,-109.0968 156.6914,-102.4686 181.084,-96.9512"/>
<polygon fill="#191970" stroke="#191970" points="181.8772,-100.3603 190.8586,-94.7403 180.3328,-93.5328 181.8772,-100.3603"/>
</g>
<!-- Node352 -->
<g id="node12" class="node">
<title>Node352</title>
<g id="a_node12"><a xlink:href="classMap.html#ae48ef4fa6a6f73d886211bca59123151" target="_top" xlink:title="Map::saveMapToFile">
<polygon fill="none" stroke="#000000" points="173,-38.5 173,-57.5 286,-57.5 286,-38.5 173,-38.5"/>
<text text-anchor="middle" x="229.5" y="-45.5" font-family="Helvetica,sans-Serif" font-size="10.00" fill="#000000">Map::saveMapToFile</text>
</a>
</g>
</g>
<!-- Node341&#45;&gt;Node352 -->
<g id="edge17" class="edge">
<title>Node341&#45;&gt;Node352</title>
<path fill="none" stroke="#191970" d="M75.0987,-114.4683C93.406,-102.0146 127.3442,-80.2401 159,-67 164.7559,-64.5926 170.9046,-62.4085 177.0821,-60.451"/>
<polygon fill="#191970" stroke="#191970" points="178.1802,-63.7759 186.7613,-57.5617 176.1779,-57.0683 178.1802,-63.7759"/>
</g>
<!-- Node354 -->
<g id="node14" class="node">
<title>Node354</title>
<g id="a_node14"><a xlink:href="classMap.html#afefe996cc1f62b61ec60d0ae415953bf" target="_top" xlink:title="Map::loadMapFromFile">
<polygon fill="none" stroke="#000000" points="167,-190.5 167,-209.5 292,-209.5 292,-190.5 167,-190.5"/>
<text text-anchor="middle" x="229.5" y="-197.5" font-family="Helvetica,sans-Serif" font-size="10.00" fill="#000000">Map::loadMapFromFile</text>
</a>
</g>
</g>
<!-- Node341&#45;&gt;Node354 -->
<g id="edge19" class="edge">
<title>Node341&#45;&gt;Node354</title>
<path fill="none" stroke="#191970" d="M82.7773,-133.6255C112.1895,-146.931 165.438,-171.0196 199.0557,-186.2276"/>
<polygon fill="#191970" stroke="#191970" points="197.8418,-189.5198 208.3954,-190.4527 200.727,-183.1421 197.8418,-189.5198"/>
</g>
<!-- Node362 -->
<g id="node22" class="node">
<title>Node362</title>
<g id="a_node22"><a xlink:href="classMap.html#a0241b997090783e5d13667114731a592" target="_top" xlink:title="Debug MapNodeData to Console Used as Tile&#45;Inspector until we implement a GUI variant. ">
<polygon fill="none" stroke="#000000" points="159,-.5 159,-19.5 300,-19.5 300,-.5 159,-.5"/>
<text text-anchor="middle" x="229.5" y="-7.5" font-family="Helvetica,sans-Serif" font-size="10.00" fill="#000000">Map::getNodeInformation</text>
</a>
</g>
</g>
<!-- Node341&#45;&gt;Node362 -->
<g id="edge29" class="edge">
<title>Node341&#45;&gt;Node362</title>
<path fill="none" stroke="#191970" d="M68.6486,-114.2745C83.3458,-94.9919 118.9565,-51.8122 159,-29 162.8843,-26.7872 167.0363,-24.8235 171.3085,-23.0822"/>
<polygon fill="#191970" stroke="#191970" points="172.6047,-26.335 180.7959,-19.6153 170.2021,-19.7602 172.6047,-26.335"/>
</g>
<!-- Node344 -->
<g id="node4" class="node">
<title>Node344</title>
<g id="a_node4"><a xlink:href="classMap.html#aab37e4a52faf81e9b696b8cf1bd9a690" target="_top" xlink:title="Get neighbor MapNode Objects Stores pointers to the neighboring nodes of the given coordinates in the...">
<polygon fill="none" stroke="#000000" points="878,-219.5 878,-238.5 986,-238.5 986,-219.5 878,-219.5"/>
<text text-anchor="middle" x="932" y="-226.5" font-family="Helvetica,sans-Serif" font-size="10.00" fill="#000000">Map::getNeighbors</text>
</a>
</g>
</g>
<!-- Node343&#45;&gt;Node344 -->
<g id="edge3" class="edge">
<title>Node343&#45;&gt;Node344</title>
<path fill="none" stroke="#191970" d="M753.0716,-141.6106C773.3059,-157.9552 816.9753,-191.2163 859,-210 864.3615,-212.3964 870.0846,-214.5363 875.8782,-216.4359"/>
<polygon fill="#191970" stroke="#191970" points="875.0575,-219.8446 885.6434,-219.409 877.0963,-213.1481 875.0575,-219.8446"/>
</g>
<!-- Node345 -->
<g id="node5" class="node">
<title>Node345</title>
<g id="a_node5"><a xlink:href="classMap.html#a0ff55eb041cdf29aa582a21145319ce0" target="_top" xlink:title="Get elevated neighbor positions in a bitmask Checks all neighboring tiles and returns the elevated ne...">
<polygon fill="none" stroke="#000000" points="859,-170 859,-200 1005,-200 1005,-170 859,-170"/>
<text text-anchor="start" x="867" y="-188" font-family="Helvetica,sans-Serif" font-size="10.00" fill="#000000">Map::getElevatedNeighbor</text>
<text text-anchor="middle" x="932" y="-177" font-family="Helvetica,sans-Serif" font-size="10.00" fill="#000000">Bitmask</text>
</a>
</g>
</g>
<!-- Node343&#45;&gt;Node345 -->
<g id="edge4" class="edge">
<title>Node343&#45;&gt;Node345</title>
<path fill="none" stroke="#191970" d="M775.9981,-141.5979C801.6368,-148.731 837.3544,-158.6681 868.1442,-167.2343"/>
<polygon fill="#191970" stroke="#191970" points="867.3765,-170.6536 877.9487,-169.9621 869.2528,-163.9098 867.3765,-170.6536"/>
</g>
<!-- Node343&#45;&gt;Node346 -->
<g id="edge5" class="edge">
<title>Node343&#45;&gt;Node346</title>
<path fill="none" stroke="#191970" d="M823.1736,-126.2191C886.0139,-124.8134 971.7754,-124.937 1030.5855,-126.5898"/>
<polygon fill="#191970" stroke="#191970" points="1030.7742,-130.0971 1040.8764,-126.9041 1030.9879,-123.1004 1030.7742,-130.0971"/>
</g>
<!-- Node347 -->
<g id="node7" class="node">
<title>Node347</title>
<g id="a_node7"><a xlink:href="classMap.html#a392940f84796653b8e811ed8dc296c84" target="_top" xlink:title="Get a bitmask that represents same&#45;tile neighbors Checks all neighboring tiles and returns the elevat...">
<polygon fill="none" stroke="#000000" points="861.5,-258 861.5,-288 1002.5,-288 1002.5,-258 861.5,-258"/>
<text text-anchor="start" x="869.5" y="-276" font-family="Helvetica,sans-Serif" font-size="10.00" fill="#000000">Map::getNeighboringTiles</text>
<text text-anchor="middle" x="932" y="-265" font-family="Helvetica,sans-Serif" font-size="10.00" fill="#000000">Bitmask</text>
</a>
</g>
</g>
<!-- Node343&#45;&gt;Node347 -->
<g id="edge7" class="edge">
<title>Node343&#45;&gt;Node347</title>
<path fill="none" stroke="#191970" d="M748.657,-141.5617C765.5163,-163.455 810.0145,-217.6653 859,-248 862.3634,-250.0828 865.9222,-252.0178 869.5866,-253.8113"/>
<polygon fill="#191970" stroke="#191970" points="868.3059,-257.0729 878.8617,-257.9817 871.1766,-250.6886 868.3059,-257.0729"/>
</g>
<!-- Node348 -->
<g id="node8" class="node">
<title>Node348</title>
<g id="a_node8"><a xlink:href="classMap.html#aba5154a4d917900679a3c0f7ec701561" target="_top" xlink:title="Increase Height Increases the height of the node and checks the surrounding tiles. Either draw a slope sprite or elevate the tile if necessary. ">
<polygon fill="none" stroke="#000000" points="874,-37.5 874,-56.5 990,-56.5 990,-37.5 874,-37.5"/>
<text text-anchor="middle" x="932" y="-44.5" font-family="Helvetica,sans-Serif" font-size="10.00" fill="#000000">Map::increaseHeight</text>
</a>
</g>
</g>
<!-- Node343&#45;&gt;Node348 -->
<g id="edge8" class="edge">
<title>Node343&#45;&gt;Node348</title>
<path fill="none" stroke="#191970" d="M748.8591,-122.4557C766.8761,-105.8539 814.9487,-74.7585 859,-57 860.6283,-56.3436 862.2863,-55.7038 863.9664,-55.082"/>
<polygon fill="#191970" stroke="#191970" points="865.4478,-58.2745 873.7773,-51.727 863.1827,-51.651 865.4478,-58.2745"/>
</g>
<!-- Node350 -->
<g id="node10" class="node">
<title>Node350</title>
<g id="a_node10"><a xlink:href="classMap.html#afb8cc864df90d273a5074872d635dc40" target="_top" xlink:title="Decrease Height Decreases the height of the node and checks the surrounding tiles. Either draw a slope sprite or lower the tile if necessary. ">
<polygon fill="none" stroke="#000000" points="872.5,-75.5 872.5,-94.5 991.5,-94.5 991.5,-75.5 872.5,-75.5"/>
<text text-anchor="middle" x="932" y="-82.5" font-family="Helvetica,sans-Serif" font-size="10.00" fill="#000000">Map::decreaseHeight</text>
</a>
</g>
</g>
<!-- Node343&#45;&gt;Node350 -->
<g id="edge12" class="edge">
<title>Node343&#45;&gt;Node350</title>
<path fill="none" stroke="#191970" d="M762.2495,-122.4791C786.225,-114.5147 826.9434,-103.7606 862.4907,-95.6233"/>
<polygon fill="#191970" stroke="#191970" points="863.3739,-99.0122 872.3615,-93.4021 861.837,-92.1829 863.3739,-99.0122"/>
</g>
<!-- Node346&#45;&gt;Node343 -->
<g id="edge6" class="edge">
<title>Node346&#45;&gt;Node343</title>
<path fill="none" stroke="#191970" d="M1040.8764,-137.0959C985.1383,-138.9438 899.0815,-139.2434 833.5132,-137.9946"/>
<polygon fill="#191970" stroke="#191970" points="833.2438,-134.4884 823.1736,-137.7809 833.0991,-141.4869 833.2438,-134.4884"/>
</g>
<!-- Node348&#45;&gt;Node343 -->
<g id="edge11" class="edge">
<title>Node348&#45;&gt;Node343</title>
<path fill="none" stroke="#191970" d="M917.1009,-56.5093C902.0909,-61.7024 878.4336,-67.1657 859,-75 829.6285,-86.8406 798.4693,-104.6103 775.6233,-117.3993"/>
<polygon fill="#191970" stroke="#191970" points="773.7182,-114.4539 766.6801,-122.3733 777.1206,-120.5714 773.7182,-114.4539"/>
</g>
<!-- Node348&#45;&gt;Node346 -->
<g id="edge10" class="edge">
<title>Node348&#45;&gt;Node346</title>
<path fill="none" stroke="#191970" d="M979.2316,-56.5903C988,-59.1217 996.9324,-62.2297 1005,-66 1032.9535,-79.0638 1061.2778,-100.8008 1079.0856,-115.7365"/>
<polygon fill="#191970" stroke="#191970" points="1077.0618,-118.6113 1086.935,-122.4545 1081.6134,-113.2931 1077.0618,-118.6113"/>
</g>
<!-- Node349 -->
<g id="node9" class="node">
<title>Node349</title>
<g id="a_node9"><a xlink:href="classSingleton.html#af5cb1e5749949e2b68416cfb8d378044" target="_top" xlink:title="Get an instance of the singleton. ">
<polygon fill="none" stroke="#000000" points="1041,-32 1041,-62 1154,-62 1154,-32 1041,-32"/>
<text text-anchor="start" x="1049" y="-50" font-family="Helvetica,sans-Serif" font-size="10.00" fill="#000000">Singleton&lt; Settings</text>
<text text-anchor="middle" x="1097.5" y="-39" font-family="Helvetica,sans-Serif" font-size="10.00" fill="#000000"> &gt;::instance</text>
</a>
</g>
</g>
<!-- Node348&#45;&gt;Node349 -->
<g id="edge9" class="edge">
<title>Node348&#45;&gt;Node349</title>
<path fill="none" stroke="#191970" d="M990.3491,-47C1003.4012,-47 1017.3429,-47 1030.7073,-47"/>
<polygon fill="#191970" stroke="#191970" points="1030.7903,-50.5001 1040.7903,-47 1030.7903,-43.5001 1030.7903,-50.5001"/>
</g>
<!-- Node350&#45;&gt;Node343 -->
<g id="edge14" class="edge">
<title>Node350&#45;&gt;Node343</title>
<path fill="none" stroke="#191970" d="M910.9361,-94.6252C888.0934,-102.1904 850.3211,-112.2364 816.2304,-120.1714"/>
<polygon fill="#191970" stroke="#191970" points="815.2265,-116.8106 806.2604,-122.4551 816.7895,-123.6339 815.2265,-116.8106"/>
</g>
<!-- Node350&#45;&gt;Node346 -->
<g id="edge13" class="edge">
<title>Node350&#45;&gt;Node346</title>
<path fill="none" stroke="#191970" d="M965.4914,-94.5112C990.9802,-101.7497 1026.2726,-111.7723 1053.9533,-119.6333"/>
<polygon fill="#191970" stroke="#191970" points="1053.199,-123.0574 1063.7748,-122.4224 1055.1114,-116.3237 1053.199,-123.0574"/>
</g>
<!-- Node353 -->
<g id="node13" class="node">
<title>Node353</title>
<g id="a_node13"><a xlink:href="compression_8hxx.html#a2b136078ca5d23222e9c24092a9918fa" target="_top" xlink:title="Compress a given string with zlib Compress the given string. Returns an empty string if something wen...">
<polygon fill="none" stroke="#000000" points="342,-38.5 342,-57.5 434,-57.5 434,-38.5 342,-38.5"/>
<text text-anchor="middle" x="388" y="-45.5" font-family="Helvetica,sans-Serif" font-size="10.00" fill="#000000">compressString</text>
</a>
</g>
</g>
<!-- Node352&#45;&gt;Node353 -->
<g id="edge18" class="edge">
<title>Node352&#45;&gt;Node353</title>
<path fill="none" stroke="#191970" d="M286.2744,-48C301.0698,-48 317.0046,-48 331.7716,-48"/>
<polygon fill="#191970" stroke="#191970" points="331.78,-51.5001 341.78,-48 331.7799,-44.5001 331.78,-51.5001"/>
</g>
<!-- Node355 -->
<g id="node15" class="node">
<title>Node355</title>
<g id="a_node15"><a xlink:href="compression_8hxx.html#a25f341059256700f2f3ffd62d8113956" target="_top" xlink:title="decompresses given string Decompresses a given string. ">
<polygon fill="none" stroke="#000000" points="336,-228.5 336,-247.5 440,-247.5 440,-228.5 336,-228.5"/>
<text text-anchor="middle" x="388" y="-235.5" font-family="Helvetica,sans-Serif" font-size="10.00" fill="#000000">decompressString</text>
</a>
</g>
</g>
<!-- Node354&#45;&gt;Node355 -->
<g id="edge20" class="edge">
<title>Node354&#45;&gt;Node355</title>
<path fill="none" stroke="#191970" d="M269.4962,-209.589C290.412,-214.6035 316.2081,-220.7881 338.3864,-226.1053"/>
<polygon fill="#191970" stroke="#191970" points="337.7509,-229.552 348.2914,-228.4799 339.383,-222.7449 337.7509,-229.552"/>
</g>
<!-- Node356 -->
<g id="node16" class="node">
<title>Node356</title>
<g id="a_node16"><a xlink:href="classMap.html#a1197ab65e40dd20b891ba165471e3163" target="_top" xlink:title="Map::Map">
<polygon fill="none" stroke="#000000" points="356.5,-190.5 356.5,-209.5 419.5,-209.5 419.5,-190.5 356.5,-190.5"/>
<text text-anchor="middle" x="388" y="-197.5" font-family="Helvetica,sans-Serif" font-size="10.00" fill="#000000">Map::Map</text>
</a>
</g>
</g>
<!-- Node354&#45;&gt;Node356 -->
<g id="edge21" class="edge">
<title>Node354&#45;&gt;Node356</title>
<path fill="none" stroke="#191970" d="M292.1434,-200C310.1728,-200 329.4028,-200 345.8704,-200"/>
<polygon fill="#191970" stroke="#191970" points="346.2527,-203.5001 356.2526,-200 346.2526,-196.5001 346.2527,-203.5001"/>
</g>
<!-- Node357 -->
<g id="node17" class="node">
<title>Node357</title>
<g id="a_node17"><a xlink:href="classMap.html#a482ac34426e8aa66abb46f60ec329402" target="_top" xlink:title="Initialize the Map with node objects Initialize the Map with node objects. ">
<polygon fill="none" stroke="#000000" points="348.5,-266.5 348.5,-285.5 427.5,-285.5 427.5,-266.5 348.5,-266.5"/>
<text text-anchor="middle" x="388" y="-273.5" font-family="Helvetica,sans-Serif" font-size="10.00" fill="#000000">Map::initMap</text>
</a>
</g>
</g>
<!-- Node354&#45;&gt;Node357 -->
<g id="edge22" class="edge">
<title>Node354&#45;&gt;Node357</title>
<path fill="none" stroke="#191970" d="M245.7404,-209.6236C266.3186,-221.5984 303.0772,-242.2634 336,-257 340.4796,-259.0051 345.241,-260.9663 349.9936,-262.8212"/>
<polygon fill="#191970" stroke="#191970" points="349.0516,-266.2065 359.6434,-266.4597 351.5213,-259.6566 349.0516,-266.2065"/>
</g>
<!-- Node361 -->
<g id="node21" class="node">
<title>Node361</title>
<g id="a_node21"><a xlink:href="classMap.html#a481b37ba71ef0e51e836fc42805762dd" target="_top" xlink:title="Update all mapNodes Updates all mapNode and its adjacent tiles regarding height information, draws slopes for adjacent tiles and sets tiling for mapNode sprite if applicable. ">
<polygon fill="none" stroke="#000000" points="490,-152.5 490,-171.5 610,-171.5 610,-152.5 490,-152.5"/>
<text text-anchor="middle" x="550" y="-159.5" font-family="Helvetica,sans-Serif" font-size="10.00" fill="#000000">Map::updateAllNodes</text>
</a>
</g>
</g>
<!-- Node354&#45;&gt;Node361 -->
<g id="edge28" class="edge">
<title>Node354&#45;&gt;Node361</title>
<path fill="none" stroke="#191970" d="M277.6044,-190.4919C295.8393,-187.1317 316.8247,-183.5567 336,-181 383.8178,-174.6244 437.9413,-169.8413 479.7937,-166.6689"/>
<polygon fill="#191970" stroke="#191970" points="480.1732,-170.1504 489.8855,-165.917 479.6531,-163.1697 480.1732,-170.1504"/>
</g>
<!-- Node358 -->
<g id="node18" class="node">
<title>Node358</title>
<g id="a_node18"><a xlink:href="classMapLayers.html#a54ce1eeef2a8998a728ac7074efe8787" target="_top" xlink:title="Enable Drawing Layer Enable Drawing Layer (use bitwise OR to add layer) ">
<polygon fill="none" stroke="#000000" points="482.5,-219.5 482.5,-238.5 617.5,-238.5 617.5,-219.5 482.5,-219.5"/>
<text text-anchor="middle" x="550" y="-226.5" font-family="Helvetica,sans-Serif" font-size="10.00" fill="#000000">MapLayers::enableLayer</text>
</a>
</g>
</g>
<!-- Node357&#45;&gt;Node358 -->
<g id="edge23" class="edge">
<title>Node357&#45;&gt;Node358</title>
<path fill="none" stroke="#191970" d="M418.4689,-266.3747C435.376,-261.1035 456.8067,-254.5364 476,-249 485.0147,-246.3997 494.6765,-243.7147 503.9452,-241.189"/>
<polygon fill="#191970" stroke="#191970" points="505.0607,-244.5131 513.7992,-238.5224 503.2322,-237.7562 505.0607,-244.5131"/>
</g>
<!-- Node359 -->
<g id="node19" class="node">
<title>Node359</title>
<g id="a_node19"><a xlink:href="classTerrainGenerator.html#adcc251757a1f3a06471a49f17886b8ce" target="_top" xlink:title="TerrainGenerator::generate\lTerrain">
<polygon fill="none" stroke="#000000" points="476,-258 476,-288 624,-288 624,-258 476,-258"/>
<text text-anchor="start" x="484" y="-276" font-family="Helvetica,sans-Serif" font-size="10.00" fill="#000000">TerrainGenerator::generate</text>
<text text-anchor="middle" x="550" y="-265" font-family="Helvetica,sans-Serif" font-size="10.00" fill="#000000">Terrain</text>
</a>
</g>
</g>
<!-- Node357&#45;&gt;Node359 -->
<g id="edge24" class="edge">
<title>Node357&#45;&gt;Node359</title>
<path fill="none" stroke="#191970" d="M427.6297,-275.2661C439.2742,-275.0505 452.4781,-274.806 465.7975,-274.5593"/>
<polygon fill="#191970" stroke="#191970" points="466.0482,-278.0554 475.9817,-274.3707 465.9185,-271.0566 466.0482,-278.0554"/>
</g>
<!-- Node357&#45;&gt;Node361 -->
<g id="edge26" class="edge">
<title>Node357&#45;&gt;Node361</title>
<path fill="none" stroke="#191970" d="M422.6935,-266.4586C428.7759,-263.9321 434.8107,-260.8134 440,-257 461.2031,-241.4188 456.6811,-227.8641 476,-210 490.1523,-196.9134 508.2781,-185.0913 523.0483,-176.4541"/>
<polygon fill="#191970" stroke="#191970" points="524.7853,-179.4927 531.7457,-171.5049 521.3233,-173.4087 524.7853,-179.4927"/>
</g>
<!-- Node360 -->
<g id="node20" class="node">
<title>Node360</title>
<g id="a_node20"><a xlink:href="classTerrainGenerator.html#ac94cfaeb9dc89453018399361da5174a" target="_top" xlink:title="TerrainGenerator::loadTerrain\lDataFromJSON">
<polygon fill="none" stroke="#000000" points="662.5,-258 662.5,-288 820.5,-288 820.5,-258 662.5,-258"/>
<text text-anchor="start" x="670.5" y="-276" font-family="Helvetica,sans-Serif" font-size="10.00" fill="#000000">TerrainGenerator::loadTerrain</text>
<text text-anchor="middle" x="741.5" y="-265" font-family="Helvetica,sans-Serif" font-size="10.00" fill="#000000">DataFromJSON</text>
</a>
</g>
</g>
<!-- Node359&#45;&gt;Node360 -->
<g id="edge25" class="edge">
<title>Node359&#45;&gt;Node360</title>
<path fill="none" stroke="#191970" d="M624.0389,-273C633.2368,-273 642.7168,-273 652.1147,-273"/>
<polygon fill="#191970" stroke="#191970" points="652.263,-276.5001 662.263,-273 652.2629,-269.5001 652.263,-276.5001"/>
</g>
<!-- Node361&#45;&gt;Node343 -->
<g id="edge27" class="edge">
<title>Node361&#45;&gt;Node343</title>
<path fill="none" stroke="#191970" d="M610.0664,-152.5901C629.3026,-149.5766 650.7811,-146.2118 670.7091,-143.09"/>
<polygon fill="#191970" stroke="#191970" points="671.3207,-146.5369 680.6584,-141.5313 670.2372,-139.6213 671.3207,-146.5369"/>
</g>
</g>
</svg>
