<?xml version="1.0" encoding="UTF-8" standalone="no"?>
<!DOCTYPE svg PUBLIC "-//W3C//DTD SVG 1.1//EN"
 "http://www.w3.org/Graphics/SVG/1.1/DTD/svg11.dtd">
<!-- Generated by graphviz version 2.40.1 (20161225.0304)
 -->
<!-- Title: MapLayers::toggleLayer Pages: 1 -->
<svg width="641pt" height="66pt"
 viewBox="0.00 0.00 641.00 66.00" xmlns="http://www.w3.org/2000/svg" xmlns:xlink="http://www.w3.org/1999/xlink">
<g id="graph0" class="graph" transform="scale(1 1) rotate(0) translate(4 62)">
<title>MapLayers::toggleLayer</title>
<!-- Node72 -->
<g id="node1" class="node">
<title>Node72</title>
<polygon fill="#bfbfbf" stroke="#000000" points="0,-19.5 0,-38.5 133,-38.5 133,-19.5 0,-19.5"/>
<text text-anchor="middle" x="66.5" y="-26.5" font-family="Helvetica,sans-Serif" font-size="10.00" fill="#000000">MapLayers::toggleLayer</text>
</g>
<!-- Node73 -->
<g id="node2" class="node">
<title>Node73</title>
<g id="a_node2"><a xlink:href="classEventManager.html#a65ec91fd5016d4f9c4167fb8babed2df" target="_top" xlink:title="EventManager::checkEvents">
<polygon fill="none" stroke="#000000" points="169,-19.5 169,-38.5 323,-38.5 323,-19.5 169,-19.5"/>
<text text-anchor="middle" x="246" y="-26.5" font-family="Helvetica,sans-Serif" font-size="10.00" fill="#000000">EventManager::checkEvents</text>
</a>
</g>
</g>
<!-- Node72&#45;&gt;Node73 -->
<g id="edge1" class="edge">
<title>Node72&#45;&gt;Node73</title>
<path fill="none" stroke="#191970" d="M143.3269,-29C151.8053,-29 160.4408,-29 168.9222,-29"/>
<polygon fill="#191970" stroke="#191970" points="143.0841,-25.5001 133.0841,-29 143.0841,-32.5001 143.0841,-25.5001"/>
</g>
<!-- Node74 -->
<g id="node3" class="node">
<title>Node74</title>
<g id="a_node3"><a xlink:href="classGame.html#a1c2ab25d5216b2f4b2fe41efd2c09114" target="_top" xlink:title="begins the game starts running the game ">
<polygon fill="none" stroke="#000000" points="359,-19.5 359,-38.5 427,-38.5 427,-19.5 359,-19.5"/>
<text text-anchor="middle" x="393" y="-26.5" font-family="Helvetica,sans-Serif" font-size="10.00" fill="#000000">Game::run</text>
</a>
</g>
</g>
<!-- Node73&#45;&gt;Node74 -->
<g id="edge2" class="edge">
<title>Node73&#45;&gt;Node74</title>
<path fill="none" stroke="#191970" d="M333.5248,-29C342.4338,-29 351.0572,-29 358.845,-29"/>
<polygon fill="#191970" stroke="#191970" points="333.3744,-25.5001 323.3744,-29 333.3743,-32.5001 333.3744,-25.5001"/>
</g>
<!-- Node75 -->
<g id="node4" class="node">
<title>Node75</title>
<g id="a_node4"><a xlink:href="classGame.html#ad59df6562a58a614fda24622d3715b65" target="_top" xlink:title="Game::Game">
<polygon fill="none" stroke="#000000" points="469,-38.5 469,-57.5 550,-57.5 550,-38.5 469,-38.5"/>
<text text-anchor="middle" x="509.5" y="-45.5" font-family="Helvetica,sans-Serif" font-size="10.00" fill="#000000">Game::Game</text>
</a>
</g>
</g>
<!-- Node74&#45;&gt;Node75 -->
<g id="edge3" class="edge">
<title>Node74&#45;&gt;Node75</title>
<path fill="none" stroke="#191970" d="M437.0985,-36.192C447.4513,-37.8805 458.439,-39.6725 468.6427,-41.3366"/>
<polygon fill="#191970" stroke="#191970" points="437.4428,-32.702 427.0098,-34.5467 436.316,-39.6107 437.4428,-32.702"/>
</g>
<!-- Node76 -->
<g id="node5" class="node">
<title>Node76</title>
<g id="a_node5"><a xlink:href="main_8cxx.html#af582d708d899e67ead623eac34a22387" target="_top" xlink:title="protected_main">
<polygon fill="none" stroke="#000000" points="463,-.5 463,-19.5 556,-19.5 556,-.5 463,-.5"/>
<text text-anchor="middle" x="509.5" y="-7.5" font-family="Helvetica,sans-Serif" font-size="10.00" fill="#000000">protected_main</text>
</a>
</g>
</g>
<!-- Node74&#45;&gt;Node76 -->
<g id="edge4" class="edge">
<title>Node74&#45;&gt;Node76</title>
<path fill="none" stroke="#191970" d="M436.9884,-21.8259C445.382,-20.457 454.1965,-19.0195 462.6749,-17.6367"/>
<polygon fill="#191970" stroke="#191970" points="436.316,-18.3893 427.0098,-23.4533 437.4428,-25.298 436.316,-18.3893"/>
</g>
<!-- Node77 -->
<g id="node6" class="node">
<title>Node77</title>
<g id="a_node6"><a xlink:href="main_8cxx.html#a3c04138a5bfe5d72780bb7e82a18e627" target="_top" xlink:title="main">
<polygon fill="none" stroke="#000000" points="592,-.5 592,-19.5 633,-19.5 633,-.5 592,-.5"/>
<text text-anchor="middle" x="612.5" y="-7.5" font-family="Helvetica,sans-Serif" font-size="10.00" fill="#000000">main</text>
</a>
</g>
</g>
<!-- Node76&#45;&gt;Node77 -->
<g id="edge5" class="edge">
<title>Node76&#45;&gt;Node77</title>
<path fill="none" stroke="#191970" d="M566.2133,-10C575.4322,-10 584.4259,-10 591.9965,-10"/>
<polygon fill="#191970" stroke="#191970" points="566.1782,-6.5001 556.1782,-10 566.1781,-13.5001 566.1782,-6.5001"/>
</g>
</g>
</svg>
