<?xml version="1.0" encoding="UTF-8" standalone="no"?>
<!DOCTYPE svg PUBLIC "-//W3C//DTD SVG 1.1//EN"
 "http://www.w3.org/Graphics/SVG/1.1/DTD/svg11.dtd">
<!-- Generated by graphviz version 2.40.1 (20161225.0304)
 -->
<!-- Title: ResourcesManager::getTileSurface Pages: 1 -->
<svg width="1175pt" height="66pt"
 viewBox="0.00 0.00 1175.00 66.00" xmlns="http://www.w3.org/2000/svg" xmlns:xlink="http://www.w3.org/1999/xlink">
<g id="graph0" class="graph" transform="scale(1 1) rotate(0) translate(4 62)">
<title>ResourcesManager::getTileSurface</title>
<!-- Node35 -->
<g id="node1" class="node">
<title>Node35</title>
<polygon fill="#bfbfbf" stroke="#000000" points="0,-14 0,-44 148,-44 148,-14 0,-14"/>
<text text-anchor="start" x="8" y="-32" font-family="Helvetica,sans-Serif" font-size="10.00" fill="#000000">ResourcesManager::getTile</text>
<text text-anchor="middle" x="74" y="-21" font-family="Helvetica,sans-Serif" font-size="10.00" fill="#000000">Surface</text>
</g>
<!-- Node36 -->
<g id="node2" class="node">
<title>Node36</title>
<g id="a_node2"><a xlink:href="classMap.html#a1f87a6ce8b3be8d140bcee1b1e473903" target="_top" xlink:title="Map::isClickWithinTile">
<polygon fill="none" stroke="#000000" points="184,-19.5 184,-38.5 309,-38.5 309,-19.5 184,-19.5"/>
<text text-anchor="middle" x="246.5" y="-26.5" font-family="Helvetica,sans-Serif" font-size="10.00" fill="#000000">Map::isClickWithinTile</text>
</a>
</g>
</g>
<!-- Node35&#45;&gt;Node36 -->
<g id="edge1" class="edge">
<title>Node35&#45;&gt;Node36</title>
<path fill="none" stroke="#191970" d="M158.2262,-29C166.832,-29 175.4647,-29 183.7813,-29"/>
<polygon fill="#191970" stroke="#191970" points="158.1567,-25.5001 148.1566,-29 158.1566,-32.5001 158.1567,-25.5001"/>
</g>
<!-- Node37 -->
<g id="node3" class="node">
<title>Node37</title>
<g id="a_node3"><a xlink:href="classMap.html#a8cc1c9d35ae2c3ede6bc0fcc59b9aa41" target="_top" xlink:title="Returns the node at given screencoordinates. ">
<polygon fill="none" stroke="#000000" points="345,-19.5 345,-38.5 461,-38.5 461,-19.5 345,-19.5"/>
<text text-anchor="middle" x="403" y="-26.5" font-family="Helvetica,sans-Serif" font-size="10.00" fill="#000000">Map::findNodeInMap</text>
</a>
</g>
</g>
<!-- Node36&#45;&gt;Node37 -->
<g id="edge2" class="edge">
<title>Node36&#45;&gt;Node37</title>
<path fill="none" stroke="#191970" d="M319.524,-29C328,-29 336.5581,-29 344.7982,-29"/>
<polygon fill="#191970" stroke="#191970" points="319.2528,-25.5001 309.2528,-29 319.2528,-32.5001 319.2528,-25.5001"/>
</g>
<!-- Node38 -->
<g id="node4" class="node">
<title>Node38</title>
<g id="a_node4"><a xlink:href="isoMath_8hxx.html#ad3c5f070c4a876bc6e8978635d02ce52" target="_top" xlink:title="converts screen space coordinates to isometric space coordinates. To convert screen coordinates in to...">
<polygon fill="none" stroke="#000000" points="497,-19.5 497,-38.5 667,-38.5 667,-19.5 497,-19.5"/>
<text text-anchor="middle" x="582" y="-26.5" font-family="Helvetica,sans-Serif" font-size="10.00" fill="#000000">convertScreenToIsoCoordinates</text>
</a>
</g>
</g>
<!-- Node37&#45;&gt;Node38 -->
<g id="edge3" class="edge">
<title>Node37&#45;&gt;Node38</title>
<path fill="none" stroke="#191970" d="M471.2057,-29C479.6028,-29 488.2655,-29 496.874,-29"/>
<polygon fill="#191970" stroke="#191970" points="471.1162,-25.5001 461.1162,-29 471.1161,-32.5001 471.1162,-25.5001"/>
</g>
<!-- Node39 -->
<g id="node5" class="node">
<title>Node39</title>
<g id="a_node5"><a xlink:href="classEventManager.html#a65ec91fd5016d4f9c4167fb8babed2df" target="_top" xlink:title="EventManager::checkEvents">
<polygon fill="none" stroke="#000000" points="703,-19.5 703,-38.5 857,-38.5 857,-19.5 703,-19.5"/>
<text text-anchor="middle" x="780" y="-26.5" font-family="Helvetica,sans-Serif" font-size="10.00" fill="#000000">EventManager::checkEvents</text>
</a>
</g>
</g>
<!-- Node38&#45;&gt;Node39 -->
<g id="edge4" class="edge">
<title>Node38&#45;&gt;Node39</title>
<path fill="none" stroke="#191970" d="M677.161,-29C685.7436,-29 694.3647,-29 702.7658,-29"/>
<polygon fill="#191970" stroke="#191970" points="677.1189,-25.5001 667.1189,-29 677.1189,-32.5001 677.1189,-25.5001"/>
</g>
<!-- Node40 -->
<g id="node6" class="node">
<title>Node40</title>
<g id="a_node6"><a xlink:href="classGame.html#a1c2ab25d5216b2f4b2fe41efd2c09114" target="_top" xlink:title="begins the game starts running the game ">
<polygon fill="none" stroke="#000000" points="893,-19.5 893,-38.5 961,-38.5 961,-19.5 893,-19.5"/>
<text text-anchor="middle" x="927" y="-26.5" font-family="Helvetica,sans-Serif" font-size="10.00" fill="#000000">Game::run</text>
</a>
</g>
</g>
<!-- Node39&#45;&gt;Node40 -->
<g id="edge5" class="edge">
<title>Node39&#45;&gt;Node40</title>
<path fill="none" stroke="#191970" d="M867.5248,-29C876.4338,-29 885.0572,-29 892.845,-29"/>
<polygon fill="#191970" stroke="#191970" points="867.3744,-25.5001 857.3744,-29 867.3743,-32.5001 867.3744,-25.5001"/>
</g>
<!-- Node41 -->
<g id="node7" class="node">
<title>Node41</title>
<g id="a_node7"><a xlink:href="classGame.html#ad59df6562a58a614fda24622d3715b65" target="_top" xlink:title="Game::Game">
<polygon fill="none" stroke="#000000" points="1003,-38.5 1003,-57.5 1084,-57.5 1084,-38.5 1003,-38.5"/>
<text text-anchor="middle" x="1043.5" y="-45.5" font-family="Helvetica,sans-Serif" font-size="10.00" fill="#000000">Game::Game</text>
</a>
</g>
</g>
<!-- Node40&#45;&gt;Node41 -->
<g id="edge6" class="edge">
<title>Node40&#45;&gt;Node41</title>
<path fill="none" stroke="#191970" d="M971.0985,-36.192C981.4513,-37.8805 992.439,-39.6725 1002.6427,-41.3366"/>
<polygon fill="#191970" stroke="#191970" points="971.4428,-32.702 961.0098,-34.5467 970.316,-39.6107 971.4428,-32.702"/>
</g>
<!-- Node42 -->
<g id="node8" class="node">
<title>Node42</title>
<g id="a_node8"><a xlink:href="main_8cxx.html#af582d708d899e67ead623eac34a22387" target="_top" xlink:title="protected_main">
<polygon fill="none" stroke="#000000" points="997,-.5 997,-19.5 1090,-19.5 1090,-.5 997,-.5"/>
<text text-anchor="middle" x="1043.5" y="-7.5" font-family="Helvetica,sans-Serif" font-size="10.00" fill="#000000">protected_main</text>
</a>
</g>
</g>
<!-- Node40&#45;&gt;Node42 -->
<g id="edge7" class="edge">
<title>Node40&#45;&gt;Node42</title>
<path fill="none" stroke="#191970" d="M970.9884,-21.8259C979.382,-20.457 988.1965,-19.0195 996.6749,-17.6367"/>
<polygon fill="#191970" stroke="#191970" points="970.316,-18.3893 961.0098,-23.4533 971.4428,-25.298 970.316,-18.3893"/>
</g>
<!-- Node43 -->
<g id="node9" class="node">
<title>Node43</title>
<g id="a_node9"><a xlink:href="main_8cxx.html#a3c04138a5bfe5d72780bb7e82a18e627" target="_top" xlink:title="main">
<polygon fill="none" stroke="#000000" points="1126,-.5 1126,-19.5 1167,-19.5 1167,-.5 1126,-.5"/>
<text text-anchor="middle" x="1146.5" y="-7.5" font-family="Helvetica,sans-Serif" font-size="10.00" fill="#000000">main</text>
</a>
</g>
</g>
<!-- Node42&#45;&gt;Node43 -->
<g id="edge8" class="edge">
<title>Node42&#45;&gt;Node43</title>
<path fill="none" stroke="#191970" d="M1100.2133,-10C1109.4322,-10 1118.4259,-10 1125.9965,-10"/>
<polygon fill="#191970" stroke="#191970" points="1100.1782,-6.5001 1090.1782,-10 1100.1781,-13.5001 1100.1782,-6.5001"/>
</g>
</g>
</svg>
