<?xml version="1.0" encoding="UTF-8" standalone="no"?>
<!DOCTYPE svg PUBLIC "-//W3C//DTD SVG 1.1//EN"
 "http://www.w3.org/Graphics/SVG/1.1/DTD/svg11.dtd">
<!-- Generated by graphviz version 2.40.1 (20161225.0304)
 -->
<!-- Title: Camera::increaseZoomLevel Pages: 1 -->
<svg width="846pt" height="66pt"
 viewBox="0.00 0.00 846.00 66.00" xmlns="http://www.w3.org/2000/svg" xmlns:xlink="http://www.w3.org/1999/xlink">
<g id="graph0" class="graph" transform="scale(1 1) rotate(0) translate(4 62)">
<title>Camera::increaseZoomLevel</title>
<!-- Node49 -->
<g id="node1" class="node">
<title>Node49</title>
<polygon fill="#bfbfbf" stroke="#000000" points="0,-19.5 0,-38.5 157,-38.5 157,-19.5 0,-19.5"/>
<text text-anchor="middle" x="78.5" y="-26.5" font-family="Helvetica,sans-Serif" font-size="10.00" fill="#000000">Camera::increaseZoomLevel</text>
</g>
<!-- Node50 -->
<g id="node2" class="node">
<title>Node50</title>
<g id="a_node2"><a xlink:href="classCamera.html#a1f8ecd427814c5a4970223c2d13b9310" target="_top" xlink:title="Camera::setPinchDistance">
<polygon fill="none" stroke="#000000" points="193,-38.5 193,-57.5 338,-57.5 338,-38.5 193,-38.5"/>
<text text-anchor="middle" x="265.5" y="-45.5" font-family="Helvetica,sans-Serif" font-size="10.00" fill="#000000">Camera::setPinchDistance</text>
</a>
</g>
</g>
<!-- Node49&#45;&gt;Node50 -->
<g id="edge1" class="edge">
<title>Node49&#45;&gt;Node50</title>
<path fill="none" stroke="#191970" d="M167.2595,-38.0183C175.8106,-38.8872 184.4147,-39.7614 192.7847,-40.6118"/>
<polygon fill="#191970" stroke="#191970" points="167.5655,-34.5315 157.2629,-37.0026 166.8578,-41.4956 167.5655,-34.5315"/>
</g>
<!-- Node51 -->
<g id="node3" class="node">
<title>Node51</title>
<g id="a_node3"><a xlink:href="classEventManager.html#a65ec91fd5016d4f9c4167fb8babed2df" target="_top" xlink:title="EventManager::checkEvents">
<polygon fill="none" stroke="#000000" points="374,-19.5 374,-38.5 528,-38.5 528,-19.5 374,-19.5"/>
<text text-anchor="middle" x="451" y="-26.5" font-family="Helvetica,sans-Serif" font-size="10.00" fill="#000000">EventManager::checkEvents</text>
</a>
</g>
</g>
<!-- Node49&#45;&gt;Node51 -->
<g id="edge7" class="edge">
<title>Node49&#45;&gt;Node51</title>
<path fill="none" stroke="#191970" d="M167.3462,-29C230.2347,-29 313.7409,-29 373.8416,-29"/>
<polygon fill="#191970" stroke="#191970" points="167.0425,-25.5001 157.0425,-29 167.0425,-32.5001 167.0425,-25.5001"/>
</g>
<!-- Node50&#45;&gt;Node51 -->
<g id="edge2" class="edge">
<title>Node50&#45;&gt;Node51</title>
<path fill="none" stroke="#191970" d="M348.0525,-39.5445C356.6638,-38.6625 365.3938,-37.7683 373.9407,-36.8929"/>
<polygon fill="#191970" stroke="#191970" points="347.6074,-36.0717 338.0161,-40.5725 348.3207,-43.0352 347.6074,-36.0717"/>
</g>
<!-- Node52 -->
<g id="node4" class="node">
<title>Node52</title>
<g id="a_node4"><a xlink:href="classGame.html#a1c2ab25d5216b2f4b2fe41efd2c09114" target="_top" xlink:title="begins the game starts running the game ">
<polygon fill="none" stroke="#000000" points="564,-19.5 564,-38.5 632,-38.5 632,-19.5 564,-19.5"/>
<text text-anchor="middle" x="598" y="-26.5" font-family="Helvetica,sans-Serif" font-size="10.00" fill="#000000">Game::run</text>
</a>
</g>
</g>
<!-- Node51&#45;&gt;Node52 -->
<g id="edge3" class="edge">
<title>Node51&#45;&gt;Node52</title>
<path fill="none" stroke="#191970" d="M538.5248,-29C547.4338,-29 556.0572,-29 563.845,-29"/>
<polygon fill="#191970" stroke="#191970" points="538.3744,-25.5001 528.3744,-29 538.3743,-32.5001 538.3744,-25.5001"/>
</g>
<!-- Node53 -->
<g id="node5" class="node">
<title>Node53</title>
<g id="a_node5"><a xlink:href="classGame.html#ad59df6562a58a614fda24622d3715b65" target="_top" xlink:title="Game::Game">
<polygon fill="none" stroke="#000000" points="674,-38.5 674,-57.5 755,-57.5 755,-38.5 674,-38.5"/>
<text text-anchor="middle" x="714.5" y="-45.5" font-family="Helvetica,sans-Serif" font-size="10.00" fill="#000000">Game::Game</text>
</a>
</g>
</g>
<!-- Node52&#45;&gt;Node53 -->
<g id="edge4" class="edge">
<title>Node52&#45;&gt;Node53</title>
<path fill="none" stroke="#191970" d="M642.0985,-36.192C652.4513,-37.8805 663.439,-39.6725 673.6427,-41.3366"/>
<polygon fill="#191970" stroke="#191970" points="642.4428,-32.702 632.0098,-34.5467 641.316,-39.6107 642.4428,-32.702"/>
</g>
<!-- Node54 -->
<g id="node6" class="node">
<title>Node54</title>
<g id="a_node6"><a xlink:href="main_8cxx.html#af582d708d899e67ead623eac34a22387" target="_top" xlink:title="protected_main">
<polygon fill="none" stroke="#000000" points="668,-.5 668,-19.5 761,-19.5 761,-.5 668,-.5"/>
<text text-anchor="middle" x="714.5" y="-7.5" font-family="Helvetica,sans-Serif" font-size="10.00" fill="#000000">protected_main</text>
</a>
</g>
</g>
<!-- Node52&#45;&gt;Node54 -->
<g id="edge5" class="edge">
<title>Node52&#45;&gt;Node54</title>
<path fill="none" stroke="#191970" d="M641.9884,-21.8259C650.382,-20.457 659.1965,-19.0195 667.6749,-17.6367"/>
<polygon fill="#191970" stroke="#191970" points="641.316,-18.3893 632.0098,-23.4533 642.4428,-25.298 641.316,-18.3893"/>
</g>
<!-- Node55 -->
<g id="node7" class="node">
<title>Node55</title>
<g id="a_node7"><a xlink:href="main_8cxx.html#a3c04138a5bfe5d72780bb7e82a18e627" target="_top" xlink:title="main">
<polygon fill="none" stroke="#000000" points="797,-.5 797,-19.5 838,-19.5 838,-.5 797,-.5"/>
<text text-anchor="middle" x="817.5" y="-7.5" font-family="Helvetica,sans-Serif" font-size="10.00" fill="#000000">main</text>
</a>
</g>
</g>
<!-- Node54&#45;&gt;Node55 -->
<g id="edge6" class="edge">
<title>Node54&#45;&gt;Node55</title>
<path fill="none" stroke="#191970" d="M771.2133,-10C780.4322,-10 789.4259,-10 796.9965,-10"/>
<polygon fill="#191970" stroke="#191970" points="771.1782,-6.5001 761.1782,-10 771.1781,-13.5001 771.1782,-6.5001"/>
</g>
</g>
</svg>
