<?xml version="1.0" encoding="UTF-8" standalone="no"?>
<!DOCTYPE svg PUBLIC "-//W3C//DTD SVG 1.1//EN"
 "http://www.w3.org/Graphics/SVG/1.1/DTD/svg11.dtd">
<!-- Generated by graphviz version 2.40.1 (20161225.0304)
 -->
<!-- Title: MapNode::updateTexture Pages: 1 -->
<svg width="471pt" height="120pt"
 viewBox="0.00 0.00 471.00 119.61" xmlns="http://www.w3.org/2000/svg" xmlns:xlink="http://www.w3.org/1999/xlink">
<g id="graph0" class="graph" transform="scale(1 1) rotate(0) translate(4 115.611)">
<title>MapNode::updateTexture</title>
<!-- Node81 -->
<g id="node1" class="node">
<title>Node81</title>
<polygon fill="#bfbfbf" stroke="#000000" points="0,-57.5 0,-76.5 138,-76.5 138,-57.5 0,-57.5"/>
<text text-anchor="middle" x="69" y="-64.5" font-family="Helvetica,sans-Serif" font-size="10.00" fill="#000000">MapNode::updateTexture</text>
</g>
<!-- Node82 -->
<g id="node2" class="node">
<title>Node82</title>
<g id="a_node2"><a xlink:href="classMapNode.html#ac2fd11448837a8b56a58601238e824b2" target="_top" xlink:title="MapNode::MapNode">
<polygon fill="none" stroke="#000000" points="349,-76.5 349,-95.5 463,-95.5 463,-76.5 349,-76.5"/>
<text text-anchor="middle" x="406" y="-83.5" font-family="Helvetica,sans-Serif" font-size="10.00" fill="#000000">MapNode::MapNode</text>
</a>
</g>
</g>
<!-- Node81&#45;&gt;Node82 -->
<g id="edge1" class="edge">
<title>Node81&#45;&gt;Node82</title>
<path fill="none" stroke="#191970" d="M98.1224,-80.6421C118.7885,-89.5438 147.4605,-100.3453 174,-105 234.849,-115.6721 251.5356,-111.2144 313,-105 331.3632,-103.1434 351.4594,-99.2746 368.2574,-95.5096"/>
<polygon fill="#191970" stroke="#191970" points="99.5078,-77.4278 88.9464,-76.5876 96.6787,-83.8307 99.5078,-77.4278"/>
</g>
<!-- Node83 -->
<g id="node3" class="node">
<title>Node83</title>
<g id="a_node3"><a xlink:href="classMapNode.html#a56edbdd0e77eeeb82db4d5884c96048b" target="_top" xlink:title="MapNode::setBitmask">
<polygon fill="none" stroke="#000000" points="181.5,-76.5 181.5,-95.5 305.5,-95.5 305.5,-76.5 181.5,-76.5"/>
<text text-anchor="middle" x="243.5" y="-83.5" font-family="Helvetica,sans-Serif" font-size="10.00" fill="#000000">MapNode::setBitmask</text>
</a>
</g>
</g>
<!-- Node81&#45;&gt;Node83 -->
<g id="edge2" class="edge">
<title>Node81&#45;&gt;Node83</title>
<path fill="none" stroke="#191970" d="M148.3436,-75.6391C159.4451,-76.8479 170.7186,-78.0754 181.4375,-79.2425"/>
<polygon fill="#191970" stroke="#191970" points="148.5378,-72.1397 138.2177,-74.5366 147.78,-79.0985 148.5378,-72.1397"/>
</g>
<!-- Node84 -->
<g id="node4" class="node">
<title>Node84</title>
<g id="a_node4"><a xlink:href="classMapNode.html#a397a62e9263feef6c9c85b4e17ef31cb" target="_top" xlink:title="MapNode::setTileID">
<polygon fill="none" stroke="#000000" points="187.5,-38.5 187.5,-57.5 299.5,-57.5 299.5,-38.5 187.5,-38.5"/>
<text text-anchor="middle" x="243.5" y="-45.5" font-family="Helvetica,sans-Serif" font-size="10.00" fill="#000000">MapNode::setTileID</text>
</a>
</g>
</g>
<!-- Node81&#45;&gt;Node84 -->
<g id="edge3" class="edge">
<title>Node81&#45;&gt;Node84</title>
<path fill="none" stroke="#191970" d="M148.2213,-58.3742C161.392,-56.9401 174.8088,-55.4793 187.2575,-54.1238"/>
<polygon fill="#191970" stroke="#191970" points="147.78,-54.9015 138.2177,-59.4634 148.5378,-61.8603 147.78,-54.9015"/>
</g>
<!-- Node85 -->
<g id="node5" class="node">
<title>Node85</title>
<g id="a_node5"><a xlink:href="classMapNode.html#a604f1e438222bd6d77a6d59a7b39276a" target="_top" xlink:title="MapNode::demolishNode">
<polygon fill="none" stroke="#000000" points="174,-.5 174,-19.5 313,-19.5 313,-.5 174,-.5"/>
<text text-anchor="middle" x="243.5" y="-7.5" font-family="Helvetica,sans-Serif" font-size="10.00" fill="#000000">MapNode::demolishNode</text>
</a>
</g>
</g>
<!-- Node81&#45;&gt;Node85 -->
<g id="edge5" class="edge">
<title>Node81&#45;&gt;Node85</title>
<path fill="none" stroke="#191970" d="M103.3286,-53.7868C123.7244,-46.1347 150.1787,-36.5532 174,-29 184.4928,-25.6729 195.9843,-22.3881 206.5479,-19.5096"/>
<polygon fill="#191970" stroke="#191970" points="101.9588,-50.5627 93.8409,-57.3709 104.4326,-57.1111 101.9588,-50.5627"/>
</g>
<!-- Node84&#45;&gt;Node82 -->
<g id="edge4" class="edge">
<title>Node84&#45;&gt;Node82</title>
<path fill="none" stroke="#191970" d="M294.3714,-59.8961C317.2124,-65.2374 343.7953,-71.4537 365.2893,-76.4799"/>
<polygon fill="#191970" stroke="#191970" points="295.0399,-56.4581 284.5056,-57.589 293.4459,-63.2742 295.0399,-56.4581"/>
</g>
</g>
</svg>
