<?xml version="1.0" encoding="UTF-8" standalone="no"?>
<!DOCTYPE svg PUBLIC "-//W3C//DTD SVG 1.1//EN"
 "http://www.w3.org/Graphics/SVG/1.1/DTD/svg11.dtd">
<!-- Generated by graphviz version 2.40.1 (20161225.0304)
 -->
<!-- Title: Map::increaseHeight Pages: 1 -->
<!--zoomable 369 -->
<svg id="main" version="1.1" xmlns="http://www.w3.org/2000/svg" xmlns:xlink="http://www.w3.org/1999/xlink" xml:space="preserve" onload="init(evt)">
<style type="text/css"><![CDATA[
.edge:hover path { stroke: red; }
.edge:hover polygon { stroke: red; fill: red; }
]]></style>
<script type="text/javascript"><![CDATA[
var edges = document.getElementsByTagName('g');
if (edges && edges.length) {
  for (var i=0;i<edges.length;i++) {
    if (edges[i].id.substr(0,4)=='edge') {
      edges[i].setAttribute('class','edge');
    }
  }
}
]]></script>
        <defs>
                <circle id="rim" cx="0" cy="0" r="7"/>
                <circle id="rim2" cx="0" cy="0" r="3.5"/>
                <g id="zoomPlus">
                        <use xlink:href="#rim" fill="#404040">
                                <set attributeName="fill" to="#808080" begin="zoomplus.mouseover" end="zoomplus.mouseout"/>
                        </use>
                        <path d="M-4,0h8M0,-4v8" fill="none" stroke="white" stroke-width="1.5" pointer-events="none"/>
                </g>
                <g id="zoomMin">
                        <use xlink:href="#rim" fill="#404040">
                                <set attributeName="fill" to="#808080" begin="zoomminus.mouseover" end="zoomminus.mouseout"/>
                        </use>
                        <path d="M-4,0h8" fill="none" stroke="white" stroke-width="1.5" pointer-events="none"/>
                </g>
                <g id="dirArrow">
                        <path fill="none" stroke="white" stroke-width="1.5" d="M0,-3.0v7 M-2.5,-0.5L0,-3.0L2.5,-0.5"/>
                </g>
               <g id="resetDef">
                       <use xlink:href="#rim2" fill="#404040">
                               <set attributeName="fill" to="#808080" begin="reset.mouseover" end="reset.mouseout"/>
                       </use>
               </g>
        </defs>

<script type="text/javascript">
var viewWidth = 1660;
var viewHeight = 369;
var sectionId = 'dynsection-17';
</script>
<script xlink:href="svgpan.js"/>
<svg id="graph" class="graph">
<g id="viewport">
<title>Map::increaseHeight</title>
<!-- Node215 -->
<g id="node1" class="node">
<title>Node215</title>
<polygon fill="#bfbfbf" stroke="#000000" points="0,-271.2254 0,-290.2254 116,-290.2254 116,-271.2254 0,-271.2254"/>
<text text-anchor="middle" x="58" y="-278.2254" font-family="Helvetica,sans-Serif" font-size="10.00" fill="#000000">Map::increaseHeight</text>
</g>
<!-- Node216 -->
<g id="node2" class="node">
<title>Node216</title>
<g id="a_node2"><a xlink:href="classEngine.html#a4851ae1ff696c893741167fc0194fd77" target="_top" xlink:title="Increase Height Increases the height of the given map node Calls the according function of the Map ob...">
<polygon fill="none" stroke="#000000" points="169,-176.2254 169,-195.2254 298,-195.2254 298,-176.2254 169,-176.2254"/>
<text text-anchor="middle" x="233.5" y="-183.2254" font-family="Helvetica,sans-Serif" font-size="10.00" fill="#000000">Engine::increaseHeight</text>
</a>
</g>
</g>
<!-- Node215&#45;&gt;Node216 -->
<g id="edge1" class="edge">
<title>Node215&#45;&gt;Node216</title>
<path fill="none" stroke="#191970" d="M84.8395,-266.1969C121.2046,-246.5121 185.1148,-211.9168 215.9201,-195.2416"/>
<polygon fill="#191970" stroke="#191970" points="82.9218,-263.2551 75.7937,-271.0935 86.2541,-269.411 82.9218,-263.2551"/>
</g>
<!-- Node222 -->
<g id="node8" class="node">
<title>Node222</title>
<g id="a_node8"><a xlink:href="classMap.html#a59d21f2688713fbcfe320eb1b24405ca" target="_top" xlink:title="Update mapNode and its adjacent tiles Updates mapNode height information, draws slopes for adjacent t...">
<polygon fill="none" stroke="#000000" points="152,-271.2254 152,-290.2254 315,-290.2254 315,-271.2254 152,-271.2254"/>
<text text-anchor="middle" x="233.5" y="-278.2254" font-family="Helvetica,sans-Serif" font-size="10.00" fill="#000000">Map::updateNeighborsOfNode</text>
</a>
</g>
</g>
<!-- Node215&#45;&gt;Node222 -->
<g id="edge7" class="edge">
<title>Node215&#45;&gt;Node222</title>
<path fill="none" stroke="#191970" d="M126.4608,-274.1225C134.7938,-273.9935 143.3711,-273.9494 151.8713,-273.99"/>
<polygon fill="#191970" stroke="#191970" points="126.3673,-270.6236 116.439,-274.3219 126.5066,-277.6222 126.3673,-270.6236"/>
</g>
<!-- Node217 -->
<g id="node3" class="node">
<title>Node217</title>
<g id="a_node3"><a xlink:href="classEventManager.html#a65ec91fd5016d4f9c4167fb8babed2df" target="_top" xlink:title="EventManager::checkEvents">
<polygon fill="none" stroke="#000000" points="1176,-246.2254 1176,-265.2254 1330,-265.2254 1330,-246.2254 1176,-246.2254"/>
<text text-anchor="middle" x="1253" y="-253.2254" font-family="Helvetica,sans-Serif" font-size="10.00" fill="#000000">EventManager::checkEvents</text>
</a>
</g>
</g>
<!-- Node216&#45;&gt;Node217 -->
<g id="edge2" class="edge">
<title>Node216&#45;&gt;Node217</title>
<path fill="none" stroke="#191970" d="M288.6104,-174.2054C343.6241,-163.3346 430.7281,-147.8214 507,-141.7254 559.7208,-137.5117 573.2913,-137.3631 626,-141.7254 701.4387,-147.9689 720.0958,-153.3504 794,-169.7254 810.2126,-173.3176 813.8104,-176.0309 830,-179.7254 956.5734,-208.6097 1106.5016,-233.3395 1189.5628,-246.2185"/>
<polygon fill="#191970" stroke="#191970" points="287.8435,-170.7893 278.7214,-176.1778 289.2129,-177.6541 287.8435,-170.7893"/>
</g>
<!-- Node218 -->
<g id="node4" class="node">
<title>Node218</title>
<g id="a_node4"><a xlink:href="classGame.html#a1c2ab25d5216b2f4b2fe41efd2c09114" target="_top" xlink:title="begins the game starts running the game ">
<polygon fill="none" stroke="#000000" points="1378,-151.2254 1378,-170.2254 1446,-170.2254 1446,-151.2254 1378,-151.2254"/>
<text text-anchor="middle" x="1412" y="-158.2254" font-family="Helvetica,sans-Serif" font-size="10.00" fill="#000000">Game::run</text>
</a>
</g>
</g>
<!-- Node217&#45;&gt;Node218 -->
<g id="edge3" class="edge">
<title>Node217&#45;&gt;Node218</title>
<path fill="none" stroke="#191970" d="M1277.714,-240.9592C1310.6333,-221.2904 1367.9507,-187.0442 1395.8366,-170.3828"/>
<polygon fill="#191970" stroke="#191970" points="1275.91,-237.9598 1269.1208,-246.0935 1279.5004,-243.9689 1275.91,-237.9598"/>
</g>
<!-- Node219 -->
<g id="node5" class="node">
<title>Node219</title>
<g id="a_node5"><a xlink:href="classGame.html#ad59df6562a58a614fda24622d3715b65" target="_top" xlink:title="Game::Game">
<polygon fill="none" stroke="#000000" points="1488,-170.2254 1488,-189.2254 1569,-189.2254 1569,-170.2254 1488,-170.2254"/>
<text text-anchor="middle" x="1528.5" y="-177.2254" font-family="Helvetica,sans-Serif" font-size="10.00" fill="#000000">Game::Game</text>
</a>
</g>
</g>
<!-- Node218&#45;&gt;Node219 -->
<g id="edge4" class="edge">
<title>Node218&#45;&gt;Node219</title>
<path fill="none" stroke="#191970" d="M1456.0985,-167.9174C1466.4513,-169.6059 1477.439,-171.3979 1487.6427,-173.062"/>
<polygon fill="#191970" stroke="#191970" points="1456.4428,-164.4274 1446.0098,-166.2721 1455.316,-171.3361 1456.4428,-164.4274"/>
</g>
<!-- Node220 -->
<g id="node6" class="node">
<title>Node220</title>
<g id="a_node6"><a xlink:href="main_8cxx.html#af582d708d899e67ead623eac34a22387" target="_top" xlink:title="protected_main">
<polygon fill="none" stroke="#000000" points="1482,-132.2254 1482,-151.2254 1575,-151.2254 1575,-132.2254 1482,-132.2254"/>
<text text-anchor="middle" x="1528.5" y="-139.2254" font-family="Helvetica,sans-Serif" font-size="10.00" fill="#000000">protected_main</text>
</a>
</g>
</g>
<!-- Node218&#45;&gt;Node220 -->
<g id="edge5" class="edge">
<title>Node218&#45;&gt;Node220</title>
<path fill="none" stroke="#191970" d="M1455.9884,-153.5513C1464.382,-152.1824 1473.1965,-150.7449 1481.6749,-149.3621"/>
<polygon fill="#191970" stroke="#191970" points="1455.316,-150.1147 1446.0098,-155.1787 1456.4428,-157.0234 1455.316,-150.1147"/>
</g>
<!-- Node221 -->
<g id="node7" class="node">
<title>Node221</title>
<g id="a_node7"><a xlink:href="main_8cxx.html#a3c04138a5bfe5d72780bb7e82a18e627" target="_top" xlink:title="main">
<polygon fill="none" stroke="#000000" points="1611,-132.2254 1611,-151.2254 1652,-151.2254 1652,-132.2254 1611,-132.2254"/>
<text text-anchor="middle" x="1631.5" y="-139.2254" font-family="Helvetica,sans-Serif" font-size="10.00" fill="#000000">main</text>
</a>
</g>
</g>
<!-- Node220&#45;&gt;Node221 -->
<g id="edge6" class="edge">
<title>Node220&#45;&gt;Node221</title>
<path fill="none" stroke="#191970" d="M1585.2133,-141.7254C1594.4322,-141.7254 1603.4259,-141.7254 1610.9965,-141.7254"/>
<polygon fill="#191970" stroke="#191970" points="1585.1782,-138.2255 1575.1782,-141.7254 1585.1781,-145.2255 1585.1782,-138.2255"/>
</g>
<!-- Node222&#45;&gt;Node215 -->
<g id="edge8" class="edge">
<title>Node222&#45;&gt;Node215</title>
<path fill="none" stroke="#191970" d="M141.7669,-287.4692C133.1624,-287.4425 124.6092,-287.3291 116.439,-287.1289"/>
<polygon fill="#191970" stroke="#191970" points="141.8743,-290.9692 151.8713,-287.4608 141.8684,-283.9692 141.8743,-290.9692"/>
</g>
<!-- Node223 -->
<g id="node9" class="node">
<title>Node223</title>
<g id="a_node9"><a xlink:href="classMap.html#afb8cc864df90d273a5074872d635dc40" target="_top" xlink:title="Decrease Height Decreases the height of the node and checks the surrounding tiles. Either draw a slope sprite or lower the tile if necessary. ">
<polygon fill="none" stroke="#000000" points="507,-267.2254 507,-286.2254 626,-286.2254 626,-267.2254 507,-267.2254"/>
<text text-anchor="middle" x="566.5" y="-274.2254" font-family="Helvetica,sans-Serif" font-size="10.00" fill="#000000">Map::decreaseHeight</text>
</a>
</g>
</g>
<!-- Node222&#45;&gt;Node223 -->
<g id="edge9" class="edge">
<title>Node222&#45;&gt;Node223</title>
<path fill="none" stroke="#191970" d="M325.6456,-273.5064C383.5481,-271.7483 456.5489,-271.1364 506.9212,-272.1238"/>
<polygon fill="#191970" stroke="#191970" points="325.2701,-270.0165 315.3875,-273.8353 325.4945,-277.0129 325.2701,-270.0165"/>
</g>
<!-- Node225 -->
<g id="node11" class="node">
<title>Node225</title>
<g id="a_node11"><a xlink:href="classMap.html#a481b37ba71ef0e51e836fc42805762dd" target="_top" xlink:title="Update all mapNodes Updates all mapNode and its adjacent tiles regarding height information, draws slopes for adjacent tiles and sets tiling for mapNode sprite if applicable. ">
<polygon fill="none" stroke="#000000" points="351,-186.2254 351,-205.2254 471,-205.2254 471,-186.2254 351,-186.2254"/>
<text text-anchor="middle" x="411" y="-193.2254" font-family="Helvetica,sans-Serif" font-size="10.00" fill="#000000">Map::updateAllNodes</text>
</a>
</g>
</g>
<!-- Node222&#45;&gt;Node225 -->
<g id="edge13" class="edge">
<title>Node222&#45;&gt;Node225</title>
<path fill="none" stroke="#191970" d="M259.7637,-266.144C283.3371,-253.285 319.0451,-234.3681 351,-219.7254 362.1172,-214.6312 374.6448,-209.524 385.3663,-205.3385"/>
<polygon fill="#191970" stroke="#191970" points="257.8368,-263.2089 250.7526,-271.087 261.2034,-269.3462 257.8368,-263.2089"/>
</g>
<!-- Node234 -->
<g id="node20" class="node">
<title>Node234</title>
<g id="a_node20"><a xlink:href="classMap.html#a779c939483a52b32a3959b99af95e67a" target="_top" xlink:title="Set the Tile ID Of Node object Also invokes all necessary texture updates (auto&#45;tiling, slopes, ...) ">
<polygon fill="none" stroke="#000000" points="831.5,-227.2254 831.5,-246.2254 954.5,-246.2254 954.5,-227.2254 831.5,-227.2254"/>
<text text-anchor="middle" x="893" y="-234.2254" font-family="Helvetica,sans-Serif" font-size="10.00" fill="#000000">Map::setTileIDOfNode</text>
</a>
</g>
</g>
<!-- Node222&#45;&gt;Node234 -->
<g id="edge43" class="edge">
<title>Node222&#45;&gt;Node234</title>
<path fill="none" stroke="#191970" d="M325.2003,-272.3332C378.2796,-267.646 446.3764,-261.9226 507,-257.7254 621.4891,-249.7988 755.2543,-243.0918 831.4609,-239.5118"/>
<polygon fill="#191970" stroke="#191970" points="324.7826,-268.8564 315.1307,-273.2259 325.4008,-275.8291 324.7826,-268.8564"/>
</g>
<!-- Node236 -->
<g id="node22" class="node">
<title>Node236</title>
<g id="a_node22"><a xlink:href="classMap.html#a05e7d896dc5062af07c9b838600a068d" target="_top" xlink:title="Demolish a node Invokes the tiles demolish function. ">
<polygon fill="none" stroke="#000000" points="354.5,-318.2254 354.5,-337.2254 467.5,-337.2254 467.5,-318.2254 354.5,-318.2254"/>
<text text-anchor="middle" x="411" y="-325.2254" font-family="Helvetica,sans-Serif" font-size="10.00" fill="#000000">Map::demolishNode</text>
</a>
</g>
</g>
<!-- Node222&#45;&gt;Node236 -->
<g id="edge35" class="edge">
<title>Node222&#45;&gt;Node236</title>
<path fill="none" stroke="#191970" d="M304.1881,-292.8186C335.7023,-300.7186 370.3892,-310.6371 391.4315,-318.1209"/>
<polygon fill="#191970" stroke="#191970" points="304.636,-289.3244 294.089,-290.3303 302.9612,-296.1211 304.636,-289.3244"/>
</g>
<!-- Node223&#45;&gt;Node222 -->
<g id="edge12" class="edge">
<title>Node223&#45;&gt;Node222</title>
<path fill="none" stroke="#191970" d="M496.6223,-283.1811C443.7476,-285.224 370.9934,-286.1946 315.3875,-285.6482"/>
<polygon fill="#191970" stroke="#191970" points="497.0732,-286.6656 506.9212,-282.7584 496.7861,-279.6715 497.0732,-286.6656"/>
</g>
<!-- Node224 -->
<g id="node10" class="node">
<title>Node224</title>
<g id="a_node10"><a xlink:href="classEngine.html#a13572fdd7f6470dca48a14497f58980e" target="_top" xlink:title="Decrease Height Decreases the height of the given map node Calls the according function of the Map ob...">
<polygon fill="none" stroke="#000000" points="662,-266.2254 662,-285.2254 794,-285.2254 794,-266.2254 662,-266.2254"/>
<text text-anchor="middle" x="728" y="-273.2254" font-family="Helvetica,sans-Serif" font-size="10.00" fill="#000000">Engine::decreaseHeight</text>
</a>
</g>
</g>
<!-- Node223&#45;&gt;Node224 -->
<g id="edge10" class="edge">
<title>Node223&#45;&gt;Node224</title>
<path fill="none" stroke="#191970" d="M636.3603,-276.2928C644.7945,-276.2406 653.3902,-276.1874 661.7702,-276.1355"/>
<polygon fill="#191970" stroke="#191970" points="636.1559,-272.7939 626.1778,-276.3559 636.1993,-279.7938 636.1559,-272.7939"/>
</g>
<!-- Node224&#45;&gt;Node217 -->
<g id="edge11" class="edge">
<title>Node224&#45;&gt;Node217</title>
<path fill="none" stroke="#191970" d="M804.491,-272.8115C903.8292,-269.0271 1076.2652,-262.4582 1175.9008,-258.6625"/>
<polygon fill="#191970" stroke="#191970" points="804.0851,-269.3243 794.2256,-273.2025 804.3516,-276.3192 804.0851,-269.3243"/>
</g>
<!-- Node226 -->
<g id="node12" class="node">
<title>Node226</title>
<g id="a_node12"><a xlink:href="classMap.html#a482ac34426e8aa66abb46f60ec329402" target="_top" xlink:title="Initialize the Map with node objects Initialize the Map with node objects. ">
<polygon fill="none" stroke="#000000" points="527,-151.2254 527,-170.2254 606,-170.2254 606,-151.2254 527,-151.2254"/>
<text text-anchor="middle" x="566.5" y="-158.2254" font-family="Helvetica,sans-Serif" font-size="10.00" fill="#000000">Map::initMap</text>
</a>
</g>
</g>
<!-- Node225&#45;&gt;Node226 -->
<g id="edge14" class="edge">
<title>Node225&#45;&gt;Node226</title>
<path fill="none" stroke="#191970" d="M463.4426,-183.9216C484.2186,-179.2453 507.7006,-173.96 526.9969,-169.6168"/>
<polygon fill="#191970" stroke="#191970" points="462.4784,-180.551 453.4911,-186.1615 464.0156,-187.3801 462.4784,-180.551"/>
</g>
<!-- Node231 -->
<g id="node17" class="node">
<title>Node231</title>
<g id="a_node17"><a xlink:href="classMap.html#afefe996cc1f62b61ec60d0ae415953bf" target="_top" xlink:title="Map::loadMapFromFile">
<polygon fill="none" stroke="#000000" points="665.5,-179.2254 665.5,-198.2254 790.5,-198.2254 790.5,-179.2254 665.5,-179.2254"/>
<text text-anchor="middle" x="728" y="-186.2254" font-family="Helvetica,sans-Serif" font-size="10.00" fill="#000000">Map::loadMapFromFile</text>
</a>
</g>
</g>
<!-- Node225&#45;&gt;Node231 -->
<g id="edge34" class="edge">
<title>Node225&#45;&gt;Node231</title>
<path fill="none" stroke="#191970" d="M481.4075,-194.1707C536.5082,-192.9539 612.4233,-191.2776 665.4146,-190.1074"/>
<polygon fill="#191970" stroke="#191970" points="481.2917,-190.6723 471.3714,-194.3923 481.4463,-197.6706 481.2917,-190.6723"/>
</g>
<!-- Node227 -->
<g id="node13" class="node">
<title>Node227</title>
<g id="a_node13"><a xlink:href="classEngine.html#a260d4834150eae6eec2bde34df6dc827" target="_top" xlink:title="Creates a new game Creates a new game. ">
<polygon fill="none" stroke="#000000" points="840.5,-37.2254 840.5,-56.2254 945.5,-56.2254 945.5,-37.2254 840.5,-37.2254"/>
<text text-anchor="middle" x="893" y="-44.2254" font-family="Helvetica,sans-Serif" font-size="10.00" fill="#000000">Engine::newGame</text>
</a>
</g>
</g>
<!-- Node226&#45;&gt;Node227 -->
<g id="edge15" class="edge">
<title>Node226&#45;&gt;Node227</title>
<path fill="none" stroke="#191970" d="M603.3823,-147.8477C669.5516,-124.7442 806.978,-76.7606 865.5724,-56.302"/>
<polygon fill="#191970" stroke="#191970" points="602.0629,-144.6011 593.7756,-151.2019 604.3705,-151.2098 602.0629,-144.6011"/>
</g>
<!-- Node226&#45;&gt;Node231 -->
<g id="edge23" class="edge">
<title>Node226&#45;&gt;Node231</title>
<path fill="none" stroke="#191970" d="M616.0288,-169.3124C634.0689,-172.4401 654.5663,-175.9939 673.0488,-179.1983"/>
<polygon fill="#191970" stroke="#191970" points="616.4583,-165.8348 606.0073,-167.575 615.2624,-172.7319 616.4583,-165.8348"/>
</g>
<!-- Node227&#45;&gt;Node218 -->
<g id="edge22" class="edge">
<title>Node227&#45;&gt;Node218</title>
<path fill="none" stroke="#191970" d="M927.7831,-33.8955C946.5229,-27.6603 970.2102,-20.8512 992,-17.7254 1147.4206,4.5698 1210.5117,20.0853 1342,-65.7254 1375.6269,-87.6707 1398.7953,-131.6995 1407.8083,-151.1325"/>
<polygon fill="#191970" stroke="#191970" points="926.5254,-30.6265 918.1982,-37.1769 928.7928,-37.2491 926.5254,-30.6265"/>
</g>
<!-- Node228 -->
<g id="node14" class="node">
<title>Node228</title>
<g id="a_node14"><a xlink:href="classEngine.html#af7de8d74b0cfacaf06df53e7caf11538" target="_top" xlink:title="Engine::saveGame">
<polygon fill="none" stroke="#000000" points="1006,-37.2254 1006,-56.2254 1114,-56.2254 1114,-37.2254 1006,-37.2254"/>
<text text-anchor="middle" x="1060" y="-44.2254" font-family="Helvetica,sans-Serif" font-size="10.00" fill="#000000">Engine::saveGame</text>
</a>
</g>
</g>
<!-- Node227&#45;&gt;Node228 -->
<g id="edge16" class="edge">
<title>Node227&#45;&gt;Node228</title>
<path fill="none" stroke="#191970" d="M955.8901,-46.7254C972.3065,-46.7254 989.8565,-46.7254 1005.7799,-46.7254"/>
<polygon fill="#191970" stroke="#191970" points="955.8399,-43.2255 945.8398,-46.7254 955.8398,-50.2255 955.8399,-43.2255"/>
</g>
<!-- Node229 -->
<g id="node15" class="node">
<title>Node229</title>
<g id="a_node15"><a xlink:href="classUIManager.html#aa78e356fc3b356d790c848319d1c387e" target="_top" xlink:title="UIManager::setCallbackFunctions">
<polygon fill="none" stroke="#000000" points="1164,-75.2254 1164,-94.2254 1342,-94.2254 1342,-75.2254 1164,-75.2254"/>
<text text-anchor="middle" x="1253" y="-82.2254" font-family="Helvetica,sans-Serif" font-size="10.00" fill="#000000">UIManager::setCallbackFunctions</text>
</a>
</g>
</g>
<!-- Node227&#45;&gt;Node229 -->
<g id="edge18" class="edge">
<title>Node227&#45;&gt;Node229</title>
<path fill="none" stroke="#191970" d="M939.7227,-34.9828C987.5335,-24.817 1063.7187,-13.7609 1128,-27.7254 1169.9535,-36.8394 1214.708,-61.3168 1237.5834,-75.0469"/>
<polygon fill="#191970" stroke="#191970" points="938.6859,-31.6272 929.6726,-37.1959 940.1913,-38.4634 938.6859,-31.6272"/>
</g>
<!-- Node230 -->
<g id="node16" class="node">
<title>Node230</title>
<g id="a_node16"><a xlink:href="classGame.html#a5ed7fc5be77080f7f6dd5363f7f007a1" target="_top" xlink:title="initializes and displays the main menu initializes and displays the main menu ">
<polygon fill="none" stroke="#000000" points="1201.5,-151.2254 1201.5,-170.2254 1304.5,-170.2254 1304.5,-151.2254 1201.5,-151.2254"/>
<text text-anchor="middle" x="1253" y="-158.2254" font-family="Helvetica,sans-Serif" font-size="10.00" fill="#000000">Game::mainMenu</text>
</a>
</g>
</g>
<!-- Node227&#45;&gt;Node230 -->
<g id="edge19" class="edge">
<title>Node227&#45;&gt;Node230</title>
<path fill="none" stroke="#191970" d="M932.7717,-59.3198C1005.3789,-82.3121 1157.8866,-130.6061 1222.7582,-151.1488"/>
<polygon fill="#191970" stroke="#191970" points="933.6643,-55.9312 923.0742,-56.2489 931.551,-62.6046 933.6643,-55.9312"/>
</g>
<!-- Node228&#45;&gt;Node229 -->
<g id="edge17" class="edge">
<title>Node228&#45;&gt;Node229</title>
<path fill="none" stroke="#191970" d="M1118.6016,-58.2635C1146.1289,-63.6834 1178.5476,-70.0664 1204.6482,-75.2054"/>
<polygon fill="#191970" stroke="#191970" points="1119.1898,-54.8122 1108.702,-56.3144 1117.8375,-61.6804 1119.1898,-54.8122"/>
</g>
<!-- Node230&#45;&gt;Node219 -->
<g id="edge20" class="edge">
<title>Node230&#45;&gt;Node219</title>
<path fill="none" stroke="#191970" d="M1313.9441,-171.8718C1334.2452,-175.0807 1357.0283,-178.1407 1378,-179.7254 1415.1272,-182.531 1457.5536,-182.2131 1487.8759,-181.3798"/>
<polygon fill="#191970" stroke="#191970" points="1314.3195,-168.387 1303.8878,-170.239 1313.1975,-175.2965 1314.3195,-168.387"/>
</g>
<!-- Node230&#45;&gt;Node220 -->
<g id="edge21" class="edge">
<title>Node230&#45;&gt;Node220</title>
<path fill="none" stroke="#191970" d="M1313.9441,-149.579C1334.2452,-146.3701 1357.0283,-143.3102 1378,-141.7254 1412.7823,-139.097 1452.2157,-139.21 1481.9902,-139.9199"/>
<polygon fill="#191970" stroke="#191970" points="1313.1975,-146.1543 1303.8878,-151.2119 1314.3195,-153.0639 1313.1975,-146.1543"/>
</g>
<!-- Node232 -->
<g id="node18" class="node">
<title>Node232</title>
<g id="a_node18"><a xlink:href="classEngine.html#a83b7dbeee899b36a13d5b07c7ad87ebc" target="_top" xlink:title="Loads a saved game Loads a saved Game. ">
<polygon fill="none" stroke="#000000" points="840,-151.2254 840,-170.2254 946,-170.2254 946,-151.2254 840,-151.2254"/>
<text text-anchor="middle" x="893" y="-158.2254" font-family="Helvetica,sans-Serif" font-size="10.00" fill="#000000">Engine::loadGame</text>
</a>
</g>
</g>
<!-- Node231&#45;&gt;Node232 -->
<g id="edge24" class="edge">
<title>Node231&#45;&gt;Node232</title>
<path fill="none" stroke="#191970" d="M794.1921,-177.4928C809.4155,-174.9094 825.4105,-172.1951 839.9905,-169.721"/>
<polygon fill="#191970" stroke="#191970" points="793.5956,-174.0439 784.3222,-179.1677 794.7668,-180.9452 793.5956,-174.0439"/>
</g>
<!-- Node231&#45;&gt;Node234 -->
<g id="edge31" class="edge">
<title>Node231&#45;&gt;Node234</title>
<path fill="none" stroke="#191970" d="M770.8607,-201.194C798.7037,-209.2937 834.4483,-219.6922 860.0635,-227.1439"/>
<polygon fill="#191970" stroke="#191970" points="771.5733,-197.7562 760.9936,-198.3236 769.6179,-204.4776 771.5733,-197.7562"/>
</g>
<!-- Node232&#45;&gt;Node229 -->
<g id="edge29" class="edge">
<title>Node232&#45;&gt;Node229</title>
<path fill="none" stroke="#191970" d="M948.3598,-149.0383C1019.6245,-133.9936 1142.0938,-108.1389 1207.9553,-94.2348"/>
<polygon fill="#191970" stroke="#191970" points="947.2911,-145.6867 938.2297,-151.1769 948.7371,-152.5358 947.2911,-145.6867"/>
</g>
<!-- Node232&#45;&gt;Node230 -->
<g id="edge30" class="edge">
<title>Node232&#45;&gt;Node230</title>
<path fill="none" stroke="#191970" d="M943.1611,-172.2634C958.7242,-175.3265 975.993,-178.2033 992,-179.7254 1052.173,-185.4474 1067.7274,-184.28 1128,-179.7254 1152.5148,-177.8729 1179.505,-174.0046 1202.1122,-170.239"/>
<polygon fill="#191970" stroke="#191970" points="943.708,-168.803 933.2105,-170.2361 942.3104,-175.6621 943.708,-168.803"/>
</g>
<!-- Node233 -->
<g id="node19" class="node">
<title>Node233</title>
<g id="a_node19"><a xlink:href="classEngine.html#a0ba57971ffb5173ecc425461f65a4cd8" target="_top" xlink:title="Quits the game Sets m_running to false and quitting the game. ">
<polygon fill="none" stroke="#000000" points="1008,-151.2254 1008,-170.2254 1112,-170.2254 1112,-151.2254 1008,-151.2254"/>
<text text-anchor="middle" x="1060" y="-158.2254" font-family="Helvetica,sans-Serif" font-size="10.00" fill="#000000">Engine::quitGame</text>
</a>
</g>
</g>
<!-- Node232&#45;&gt;Node233 -->
<g id="edge25" class="edge">
<title>Node232&#45;&gt;Node233</title>
<path fill="none" stroke="#191970" d="M956.6404,-160.7254C973.5312,-160.7254 991.5728,-160.7254 1007.7774,-160.7254"/>
<polygon fill="#191970" stroke="#191970" points="956.299,-157.2255 946.299,-160.7254 956.299,-164.2255 956.299,-157.2255"/>
</g>
<!-- Node233&#45;&gt;Node217 -->
<g id="edge26" class="edge">
<title>Node233&#45;&gt;Node217</title>
<path fill="none" stroke="#191970" d="M1088.7537,-174.8788C1128.6083,-194.4964 1199.5738,-229.4275 1233.6672,-246.2092"/>
<polygon fill="#191970" stroke="#191970" points="1090.0857,-171.6334 1079.568,-170.3573 1086.9943,-177.9138 1090.0857,-171.6334"/>
</g>
<!-- Node233&#45;&gt;Node229 -->
<g id="edge27" class="edge">
<title>Node233&#45;&gt;Node229</title>
<path fill="none" stroke="#191970" d="M1097.8128,-147.7943C1107.6783,-144.3074 1118.2708,-140.4627 1128,-136.7254 1164.4223,-122.7342 1206.1683,-105.0234 1231.0193,-94.2997"/>
<polygon fill="#191970" stroke="#191970" points="1096.529,-144.5354 1088.2485,-151.1448 1098.8434,-151.1418 1096.529,-144.5354"/>
</g>
<!-- Node233&#45;&gt;Node230 -->
<g id="edge28" class="edge">
<title>Node233&#45;&gt;Node230</title>
<path fill="none" stroke="#191970" d="M1122.5372,-160.7254C1148.0304,-160.7254 1177.1483,-160.7254 1201.3984,-160.7254"/>
<polygon fill="#191970" stroke="#191970" points="1122.2286,-157.2255 1112.2286,-160.7254 1122.2285,-164.2255 1122.2286,-157.2255"/>
</g>
<!-- Node235 -->
<g id="node21" class="node">
<title>Node235</title>
<g id="a_node21"><a xlink:href="classEngine.html#a8a53c5e52734a5158b317851361b83f2" target="_top" xlink:title="Engine::setTileIDOfNode">
<polygon fill="none" stroke="#000000" points="992,-303.2254 992,-322.2254 1128,-322.2254 1128,-303.2254 992,-303.2254"/>
<text text-anchor="middle" x="1060" y="-310.2254" font-family="Helvetica,sans-Serif" font-size="10.00" fill="#000000">Engine::setTileIDOfNode</text>
</a>
</g>
</g>
<!-- Node234&#45;&gt;Node235 -->
<g id="edge32" class="edge">
<title>Node234&#45;&gt;Node235</title>
<path fill="none" stroke="#191970" d="M923.46,-250.5874C956.9539,-265.8302 1009.877,-289.915 1039.0211,-303.1781"/>
<polygon fill="#191970" stroke="#191970" points="924.7022,-247.3074 914.1507,-246.3509 921.8027,-253.6787 924.7022,-247.3074"/>
</g>
<!-- Node235&#45;&gt;Node217 -->
<g id="edge33" class="edge">
<title>Node235&#45;&gt;Node217</title>
<path fill="none" stroke="#191970" d="M1101.9351,-300.3404C1137.5685,-289.8166 1187.9873,-274.9261 1220.5907,-265.297"/>
<polygon fill="#191970" stroke="#191970" points="1100.903,-296.9957 1092.3039,-303.1849 1102.8857,-303.7091 1100.903,-296.9957"/>
</g>
<!-- Node236&#45;&gt;Node215 -->
<g id="edge39" class="edge">
<title>Node236&#45;&gt;Node215</title>
<path fill="none" stroke="#191970" d="M344.2915,-322.2094C291.8539,-317.4649 217.0522,-309.7944 152,-299.7254 135.2174,-297.1277 116.8857,-293.5838 100.9036,-290.26"/>
<polygon fill="#191970" stroke="#191970" points="344.1994,-325.715 354.4713,-323.1191 344.8225,-318.7428 344.1994,-325.715"/>
</g>
<!-- Node236&#45;&gt;Node222 -->
<g id="edge41" class="edge">
<title>Node236&#45;&gt;Node222</title>
<path fill="none" stroke="#191970" d="M344.2929,-316.6236C311.6403,-308.5468 274.7377,-298.0555 252.8335,-290.2463"/>
<polygon fill="#191970" stroke="#191970" points="343.7251,-320.0874 354.2688,-319.047 345.3776,-313.2852 343.7251,-320.0874"/>
</g>
<!-- Node236&#45;&gt;Node223 -->
<g id="edge40" class="edge">
<title>Node236&#45;&gt;Node223</title>
<path fill="none" stroke="#191970" d="M449.8288,-314.9906C476.9787,-306.0861 512.6613,-294.3831 537.3828,-286.2751"/>
<polygon fill="#191970" stroke="#191970" points="448.6596,-311.6905 440.2484,-318.1327 450.8411,-318.3419 448.6596,-311.6905"/>
</g>
<!-- Node236&#45;&gt;Node234 -->
<g id="edge42" class="edge">
<title>Node236&#45;&gt;Node234</title>
<path fill="none" stroke="#191970" d="M477.8397,-325.5112C571.5491,-321.8025 736.9128,-312.8832 794,-294.7254 827.9793,-283.9176 862.8424,-259.8672 880.7407,-246.3772"/>
<polygon fill="#191970" stroke="#191970" points="477.4699,-322.0228 467.6126,-325.9065 477.7403,-329.0175 477.4699,-322.0228"/>
</g>
<!-- Node237 -->
<g id="node23" class="node">
<title>Node237</title>
<g id="a_node23"><a xlink:href="classEngine.html#addfc50e21da201426444d8b4a07b3976" target="_top" xlink:title="Engine::demolishNode">
<polygon fill="none" stroke="#000000" points="830,-341.2254 830,-360.2254 956,-360.2254 956,-341.2254 830,-341.2254"/>
<text text-anchor="middle" x="893" y="-348.2254" font-family="Helvetica,sans-Serif" font-size="10.00" fill="#000000">Engine::demolishNode</text>
</a>
</g>
</g>
<!-- Node236&#45;&gt;Node237 -->
<g id="edge36" class="edge">
<title>Node236&#45;&gt;Node237</title>
<path fill="none" stroke="#191970" d="M477.8574,-330.9157C570.9565,-335.3582 738.4512,-343.3507 829.6424,-347.7021"/>
<polygon fill="#191970" stroke="#191970" points="477.8644,-327.4121 467.7089,-330.4314 477.5307,-334.4042 477.8644,-327.4121"/>
</g>
<!-- Node237&#45;&gt;Node217 -->
<g id="edge38" class="edge">
<title>Node237&#45;&gt;Node217</title>
<path fill="none" stroke="#191970" d="M966.5302,-353.418C1013.7388,-353.0622 1075.7636,-348.6587 1128,-331.7254 1173.904,-316.8448 1220.5245,-282.1886 1241.5121,-265.308"/>
<polygon fill="#191970" stroke="#191970" points="966.3818,-349.9181 956.3875,-353.4343 966.3931,-356.9181 966.3818,-349.9181"/>
</g>
<!-- Node237&#45;&gt;Node235 -->
<g id="edge37" class="edge">
<title>Node237&#45;&gt;Node235</title>
<path fill="none" stroke="#191970" d="M944.9646,-338.9011C968.5086,-333.5438 995.9737,-327.2943 1018.1619,-322.2455"/>
<polygon fill="#191970" stroke="#191970" points="944.1153,-335.5048 935.1412,-341.1364 945.6685,-342.3304 944.1153,-335.5048"/>
</g>
</g>
</svg>
        <g id="navigator" transform="translate(0 0)" fill="#404254">
                <rect fill="#f2f5e9" fill-opacity="0.5" stroke="#606060" stroke-width=".5" x="0" y="0" width="60" height="60"/>
                <use id="zoomplus" xlink:href="#zoomPlus" x="17" y="9" onmousedown="handleZoom(evt,'in')"/>
                <use id="zoomminus" xlink:href="#zoomMin" x="42" y="9" onmousedown="handleZoom(evt,'out')"/>
                <use id="reset" xlink:href="#resetDef" x="30" y="36" onmousedown="handleReset()"/>
                <g id="arrowUp" xlink:href="#dirArrow" transform="translate(30 24)" onmousedown="handlePan(0,-1)">
                  <use xlink:href="#rim" fill="#404040">
                        <set attributeName="fill" to="#808080" begin="arrowUp.mouseover" end="arrowUp.mouseout"/>
                  </use>
                  <path fill="none" stroke="white" stroke-width="1.5" d="M0,-3.0v7 M-2.5,-0.5L0,-3.0L2.5,-0.5"/>
                </g>
                <g id="arrowRight" xlink:href="#dirArrow" transform="rotate(90) translate(36 -43)" onmousedown="handlePan(1,0)">
                  <use xlink:href="#rim" fill="#404040">
                        <set attributeName="fill" to="#808080" begin="arrowRight.mouseover" end="arrowRight.mouseout"/>
                  </use>
                  <path fill="none" stroke="white" stroke-width="1.5" d="M0,-3.0v7 M-2.5,-0.5L0,-3.0L2.5,-0.5"/>
                </g>
                <g id="arrowDown" xlink:href="#dirArrow" transform="rotate(180) translate(-30 -48)" onmousedown="handlePan(0,1)">
                  <use xlink:href="#rim" fill="#404040">
                        <set attributeName="fill" to="#808080" begin="arrowDown.mouseover" end="arrowDown.mouseout"/>
                  </use>
                  <path fill="none" stroke="white" stroke-width="1.5" d="M0,-3.0v7 M-2.5,-0.5L0,-3.0L2.5,-0.5"/>
                </g>
                <g id="arrowLeft" xlink:href="#dirArrow" transform="rotate(270) translate(-36 17)" onmousedown="handlePan(-1,0)">
                  <use xlink:href="#rim" fill="#404040">
                        <set attributeName="fill" to="#808080" begin="arrowLeft.mouseover" end="arrowLeft.mouseout"/>
                  </use>
                  <path fill="none" stroke="white" stroke-width="1.5" d="M0,-3.0v7 M-2.5,-0.5L0,-3.0L2.5,-0.5"/>
                </g>
        </g>
        <svg viewBox="0 0 15 15" width="100%" height="30px" preserveAspectRatio="xMaxYMin meet">
         <g id="arrow_out" transform="scale(0.3 0.3)">
          <a xlink:href="classMap_aba5154a4d917900679a3c0f7ec701561_icgraph_org.svg" target="_base">
           <rect id="button" ry="5" rx="5" y="6" x="6" height="38" width="38"
                fill="#f2f5e9" fill-opacity="0.5" stroke="#606060" stroke-width="1.0"/>
           <path id="arrow"
             d="M 11.500037,31.436501 C 11.940474,20.09759 22.043105,11.32322 32.158766,21.979434 L 37.068811,17.246167 C 37.068811,17.246167 37.088388,32 37.088388,32 L 22.160133,31.978069 C 22.160133,31.978069 26.997745,27.140456 26.997745,27.140456 C 18.528582,18.264221 13.291696,25.230495 11.500037,31.436501 z"
             style="fill:#404040;"/>
          </a>
         </g>
        </svg>
</svg>
