<?xml version="1.0" encoding="UTF-8" standalone="no"?>
<!DOCTYPE svg PUBLIC "-//W3C//DTD SVG 1.1//EN"
 "http://www.w3.org/Graphics/SVG/1.1/DTD/svg11.dtd">
<!-- Generated by graphviz version 2.40.1 (20161225.0304)
 -->
<!-- Title: MapLayers::MapLayers Pages: 1 -->
<svg width="1391pt" height="256pt"
 viewBox="0.00 0.00 1391.00 256.00" xmlns="http://www.w3.org/2000/svg" xmlns:xlink="http://www.w3.org/1999/xlink">
<g id="graph0" class="graph" transform="scale(1 1) rotate(0) translate(4 252)">
<title>MapLayers::MapLayers</title>
<!-- Node1 -->
<g id="node1" class="node">
<title>Node1</title>
<polygon fill="#bfbfbf" stroke="#000000" points="0,-114.5 0,-133.5 128,-133.5 128,-114.5 0,-114.5"/>
<text text-anchor="middle" x="64" y="-121.5" font-family="Helvetica,sans-Serif" font-size="10.00" fill="#000000">MapLayers::MapLayers</text>
</g>
<!-- Node2 -->
<g id="node2" class="node">
<title>Node2</title>
<g id="a_node2"><a xlink:href="classMapLayers.html#a1d810628821913c499b8348107b66891" target="_top" xlink:title="Check if given Layer is being drawn. ">
<polygon fill="none" stroke="#000000" points="164,-114.5 164,-133.5 305,-133.5 305,-114.5 164,-114.5"/>
<text text-anchor="middle" x="234.5" y="-121.5" font-family="Helvetica,sans-Serif" font-size="10.00" fill="#000000">MapLayers::isLayerActive</text>
</a>
</g>
</g>
<!-- Node1&#45;&gt;Node2 -->
<g id="edge1" class="edge">
<title>Node1&#45;&gt;Node2</title>
<path fill="none" stroke="#191970" d="M138.6319,-124C147.0476,-124 155.6035,-124 163.9647,-124"/>
<polygon fill="#191970" stroke="#191970" points="138.4588,-120.5001 128.4587,-124 138.4587,-127.5001 138.4588,-120.5001"/>
</g>
<!-- Node3 -->
<g id="node3" class="node">
<title>Node3</title>
<g id="a_node3"><a xlink:href="classMapNode.html#a0b089ef93b46bbfed8ccf71dc516c4ef" target="_top" xlink:title="MapNode::getActiveMapNodeData">
<polygon fill="none" stroke="#000000" points="341,-228.5 341,-247.5 525,-247.5 525,-228.5 341,-228.5"/>
<text text-anchor="middle" x="433" y="-235.5" font-family="Helvetica,sans-Serif" font-size="10.00" fill="#000000">MapNode::getActiveMapNodeData</text>
</a>
</g>
</g>
<!-- Node2&#45;&gt;Node3 -->
<g id="edge2" class="edge">
<title>Node2&#45;&gt;Node3</title>
<path fill="none" stroke="#191970" d="M248.7399,-141.3976C267.5203,-163.1131 302.7003,-199.7363 341,-219 348.7222,-222.884 357.1901,-225.9742 365.7642,-228.4328"/>
<polygon fill="#191970" stroke="#191970" points="251.288,-138.9903 242.1589,-133.6134 245.9423,-143.5097 251.288,-138.9903"/>
</g>
<!-- Node4 -->
<g id="node4" class="node">
<title>Node4</title>
<g id="a_node4"><a xlink:href="classMapNode.html#a604f1e438222bd6d77a6d59a7b39276a" target="_top" xlink:title="MapNode::demolishNode">
<polygon fill="none" stroke="#000000" points="363.5,-190.5 363.5,-209.5 502.5,-209.5 502.5,-190.5 363.5,-190.5"/>
<text text-anchor="middle" x="433" y="-197.5" font-family="Helvetica,sans-Serif" font-size="10.00" fill="#000000">MapNode::demolishNode</text>
</a>
</g>
</g>
<!-- Node2&#45;&gt;Node4 -->
<g id="edge3" class="edge">
<title>Node2&#45;&gt;Node4</title>
<path fill="none" stroke="#191970" d="M257.5687,-138.8705C278.5521,-151.7719 310.7707,-170.0497 341,-181 351.4273,-184.7772 362.8063,-187.8883 373.8957,-190.4207"/>
<polygon fill="#191970" stroke="#191970" points="259.3693,-135.8686 249.0341,-133.5374 255.6598,-141.8049 259.3693,-135.8686"/>
</g>
<!-- Node5 -->
<g id="node5" class="node">
<title>Node5</title>
<g id="a_node5"><a xlink:href="classMap.html#a1f87a6ce8b3be8d140bcee1b1e473903" target="_top" xlink:title="Map::isClickWithinTile">
<polygon fill="none" stroke="#000000" points="370.5,-152.5 370.5,-171.5 495.5,-171.5 495.5,-152.5 370.5,-152.5"/>
<text text-anchor="middle" x="433" y="-159.5" font-family="Helvetica,sans-Serif" font-size="10.00" fill="#000000">Map::isClickWithinTile</text>
</a>
</g>
</g>
<!-- Node2&#45;&gt;Node5 -->
<g id="edge4" class="edge">
<title>Node2&#45;&gt;Node5</title>
<path fill="none" stroke="#191970" d="M294.517,-135.4894C322.8396,-140.9114 356.2423,-147.3058 383.1458,-152.4561"/>
<polygon fill="#191970" stroke="#191970" points="294.8135,-131.9827 284.3337,-133.54 293.4973,-138.8578 294.8135,-131.9827"/>
</g>
<!-- Node13 -->
<g id="node13" class="node">
<title>Node13</title>
<g id="a_node13"><a xlink:href="classSprite.html#abdf111e2030274680af0f00f296d8605" target="_top" xlink:title="Sprite::render">
<polygon fill="none" stroke="#000000" points="391.5,-114.5 391.5,-133.5 474.5,-133.5 474.5,-114.5 391.5,-114.5"/>
<text text-anchor="middle" x="433" y="-121.5" font-family="Helvetica,sans-Serif" font-size="10.00" fill="#000000">Sprite::render</text>
</a>
</g>
</g>
<!-- Node2&#45;&gt;Node13 -->
<g id="edge12" class="edge">
<title>Node2&#45;&gt;Node13</title>
<path fill="none" stroke="#191970" d="M315.3176,-124C341.3972,-124 369.2366,-124 391.2877,-124"/>
<polygon fill="#191970" stroke="#191970" points="315.0426,-120.5001 305.0426,-124 315.0426,-127.5001 315.0426,-120.5001"/>
</g>
<!-- Node14 -->
<g id="node14" class="node">
<title>Node14</title>
<g id="a_node14"><a xlink:href="classSprite.html#a87428873289f8ec84f4b75d9162c9d7c" target="_top" xlink:title="Sprite::getActiveClipRect">
<polygon fill="none" stroke="#000000" points="364.5,-76.5 364.5,-95.5 501.5,-95.5 501.5,-76.5 364.5,-76.5"/>
<text text-anchor="middle" x="433" y="-83.5" font-family="Helvetica,sans-Serif" font-size="10.00" fill="#000000">Sprite::getActiveClipRect</text>
</a>
</g>
</g>
<!-- Node2&#45;&gt;Node14 -->
<g id="edge13" class="edge">
<title>Node2&#45;&gt;Node14</title>
<path fill="none" stroke="#191970" d="M294.517,-112.5106C322.8396,-107.0886 356.2423,-100.6942 383.1458,-95.5439"/>
<polygon fill="#191970" stroke="#191970" points="293.4973,-109.1422 284.3337,-114.46 294.8135,-116.0173 293.4973,-109.1422"/>
</g>
<!-- Node15 -->
<g id="node15" class="node">
<title>Node15</title>
<g id="a_node15"><a xlink:href="classSprite.html#a7376c698bf914312fbcc7c2b8180cbed" target="_top" xlink:title="Sprite::isLayerUsed">
<polygon fill="none" stroke="#000000" points="377.5,-38.5 377.5,-57.5 488.5,-57.5 488.5,-38.5 377.5,-38.5"/>
<text text-anchor="middle" x="433" y="-45.5" font-family="Helvetica,sans-Serif" font-size="10.00" fill="#000000">Sprite::isLayerUsed</text>
</a>
</g>
</g>
<!-- Node2&#45;&gt;Node15 -->
<g id="edge14" class="edge">
<title>Node2&#45;&gt;Node15</title>
<path fill="none" stroke="#191970" d="M257.5687,-109.1295C278.5521,-96.2281 310.7707,-77.9503 341,-67 352.5007,-62.834 365.1591,-59.4782 377.3098,-56.8155"/>
<polygon fill="#191970" stroke="#191970" points="255.6598,-106.1951 249.0341,-114.4626 259.3693,-112.1314 255.6598,-106.1951"/>
</g>
<!-- Node16 -->
<g id="node16" class="node">
<title>Node16</title>
<g id="a_node16"><a xlink:href="classSprite.html#aedfac1c3b8a22c5ae4d97bd9586a6a26" target="_top" xlink:title="Sprite::getActiveDestRect">
<polygon fill="none" stroke="#000000" points="362.5,-.5 362.5,-19.5 503.5,-19.5 503.5,-.5 362.5,-.5"/>
<text text-anchor="middle" x="433" y="-7.5" font-family="Helvetica,sans-Serif" font-size="10.00" fill="#000000">Sprite::getActiveDestRect</text>
</a>
</g>
</g>
<!-- Node2&#45;&gt;Node16 -->
<g id="edge15" class="edge">
<title>Node2&#45;&gt;Node16</title>
<path fill="none" stroke="#191970" d="M248.7399,-106.6024C267.5203,-84.8869 302.7003,-48.2637 341,-29 348.7222,-25.116 357.1901,-22.0258 365.7642,-19.5672"/>
<polygon fill="#191970" stroke="#191970" points="245.9423,-104.4903 242.1589,-114.3866 251.288,-109.0097 245.9423,-104.4903"/>
</g>
<!-- Node6 -->
<g id="node6" class="node">
<title>Node6</title>
<g id="a_node6"><a xlink:href="classMap.html#a8cc1c9d35ae2c3ede6bc0fcc59b9aa41" target="_top" xlink:title="Returns the node at given screencoordinates. ">
<polygon fill="none" stroke="#000000" points="561,-152.5 561,-171.5 677,-171.5 677,-152.5 561,-152.5"/>
<text text-anchor="middle" x="619" y="-159.5" font-family="Helvetica,sans-Serif" font-size="10.00" fill="#000000">Map::findNodeInMap</text>
</a>
</g>
</g>
<!-- Node5&#45;&gt;Node6 -->
<g id="edge5" class="edge">
<title>Node5&#45;&gt;Node6</title>
<path fill="none" stroke="#191970" d="M505.7508,-162C524.0593,-162 543.4683,-162 560.9493,-162"/>
<polygon fill="#191970" stroke="#191970" points="505.7118,-158.5001 495.7118,-162 505.7118,-165.5001 505.7118,-158.5001"/>
</g>
<!-- Node7 -->
<g id="node7" class="node">
<title>Node7</title>
<g id="a_node7"><a xlink:href="isoMath_8hxx.html#ad3c5f070c4a876bc6e8978635d02ce52" target="_top" xlink:title="converts screen space coordinates to isometric space coordinates. To convert screen coordinates in to...">
<polygon fill="none" stroke="#000000" points="713,-152.5 713,-171.5 883,-171.5 883,-152.5 713,-152.5"/>
<text text-anchor="middle" x="798" y="-159.5" font-family="Helvetica,sans-Serif" font-size="10.00" fill="#000000">convertScreenToIsoCoordinates</text>
</a>
</g>
</g>
<!-- Node6&#45;&gt;Node7 -->
<g id="edge6" class="edge">
<title>Node6&#45;&gt;Node7</title>
<path fill="none" stroke="#191970" d="M687.2057,-162C695.6028,-162 704.2655,-162 712.874,-162"/>
<polygon fill="#191970" stroke="#191970" points="687.1162,-158.5001 677.1162,-162 687.1161,-165.5001 687.1162,-158.5001"/>
</g>
<!-- Node8 -->
<g id="node8" class="node">
<title>Node8</title>
<g id="a_node8"><a xlink:href="classEventManager.html#a65ec91fd5016d4f9c4167fb8babed2df" target="_top" xlink:title="EventManager::checkEvents">
<polygon fill="none" stroke="#000000" points="919,-152.5 919,-171.5 1073,-171.5 1073,-152.5 919,-152.5"/>
<text text-anchor="middle" x="996" y="-159.5" font-family="Helvetica,sans-Serif" font-size="10.00" fill="#000000">EventManager::checkEvents</text>
</a>
</g>
</g>
<!-- Node7&#45;&gt;Node8 -->
<g id="edge7" class="edge">
<title>Node7&#45;&gt;Node8</title>
<path fill="none" stroke="#191970" d="M893.161,-162C901.7436,-162 910.3647,-162 918.7658,-162"/>
<polygon fill="#191970" stroke="#191970" points="893.1189,-158.5001 883.1189,-162 893.1189,-165.5001 893.1189,-158.5001"/>
</g>
<!-- Node9 -->
<g id="node9" class="node">
<title>Node9</title>
<g id="a_node9"><a xlink:href="classGame.html#a1c2ab25d5216b2f4b2fe41efd2c09114" target="_top" xlink:title="begins the game starts running the game ">
<polygon fill="none" stroke="#000000" points="1109,-152.5 1109,-171.5 1177,-171.5 1177,-152.5 1109,-152.5"/>
<text text-anchor="middle" x="1143" y="-159.5" font-family="Helvetica,sans-Serif" font-size="10.00" fill="#000000">Game::run</text>
</a>
</g>
</g>
<!-- Node8&#45;&gt;Node9 -->
<g id="edge8" class="edge">
<title>Node8&#45;&gt;Node9</title>
<path fill="none" stroke="#191970" d="M1083.5248,-162C1092.4338,-162 1101.0572,-162 1108.845,-162"/>
<polygon fill="#191970" stroke="#191970" points="1083.3744,-158.5001 1073.3744,-162 1083.3743,-165.5001 1083.3744,-158.5001"/>
</g>
<!-- Node10 -->
<g id="node10" class="node">
<title>Node10</title>
<g id="a_node10"><a xlink:href="classGame.html#ad59df6562a58a614fda24622d3715b65" target="_top" xlink:title="Game::Game">
<polygon fill="none" stroke="#000000" points="1219,-171.5 1219,-190.5 1300,-190.5 1300,-171.5 1219,-171.5"/>
<text text-anchor="middle" x="1259.5" y="-178.5" font-family="Helvetica,sans-Serif" font-size="10.00" fill="#000000">Game::Game</text>
</a>
</g>
</g>
<!-- Node9&#45;&gt;Node10 -->
<g id="edge9" class="edge">
<title>Node9&#45;&gt;Node10</title>
<path fill="none" stroke="#191970" d="M1187.0985,-169.192C1197.4513,-170.8805 1208.439,-172.6725 1218.6427,-174.3366"/>
<polygon fill="#191970" stroke="#191970" points="1187.4428,-165.702 1177.0098,-167.5467 1186.316,-172.6107 1187.4428,-165.702"/>
</g>
<!-- Node11 -->
<g id="node11" class="node">
<title>Node11</title>
<g id="a_node11"><a xlink:href="main_8cxx.html#af582d708d899e67ead623eac34a22387" target="_top" xlink:title="protected_main">
<polygon fill="none" stroke="#000000" points="1213,-133.5 1213,-152.5 1306,-152.5 1306,-133.5 1213,-133.5"/>
<text text-anchor="middle" x="1259.5" y="-140.5" font-family="Helvetica,sans-Serif" font-size="10.00" fill="#000000">protected_main</text>
</a>
</g>
</g>
<!-- Node9&#45;&gt;Node11 -->
<g id="edge10" class="edge">
<title>Node9&#45;&gt;Node11</title>
<path fill="none" stroke="#191970" d="M1186.9884,-154.8259C1195.382,-153.457 1204.1965,-152.0195 1212.6749,-150.6367"/>
<polygon fill="#191970" stroke="#191970" points="1186.316,-151.3893 1177.0098,-156.4533 1187.4428,-158.298 1186.316,-151.3893"/>
</g>
<!-- Node12 -->
<g id="node12" class="node">
<title>Node12</title>
<g id="a_node12"><a xlink:href="main_8cxx.html#a3c04138a5bfe5d72780bb7e82a18e627" target="_top" xlink:title="main">
<polygon fill="none" stroke="#000000" points="1342,-133.5 1342,-152.5 1383,-152.5 1383,-133.5 1342,-133.5"/>
<text text-anchor="middle" x="1362.5" y="-140.5" font-family="Helvetica,sans-Serif" font-size="10.00" fill="#000000">main</text>
</a>
</g>
</g>
<!-- Node11&#45;&gt;Node12 -->
<g id="edge11" class="edge">
<title>Node11&#45;&gt;Node12</title>
<path fill="none" stroke="#191970" d="M1316.2133,-143C1325.4322,-143 1334.4259,-143 1341.9965,-143"/>
<polygon fill="#191970" stroke="#191970" points="1316.1782,-139.5001 1306.1782,-143 1316.1781,-146.5001 1316.1782,-139.5001"/>
</g>
</g>
</svg>
