<?xml version="1.0" encoding="UTF-8" standalone="no"?>
<!DOCTYPE svg PUBLIC "-//W3C//DTD SVG 1.1//EN"
 "http://www.w3.org/Graphics/SVG/1.1/DTD/svg11.dtd">
<!-- Generated by graphviz version 2.40.1 (20161225.0304)
 -->
<!-- Title: UIElement::getUiElementRect Pages: 1 -->
<!--zoomable 246 -->
<svg id="main" version="1.1" xmlns="http://www.w3.org/2000/svg" xmlns:xlink="http://www.w3.org/1999/xlink" xml:space="preserve" onload="init(evt)">
<style type="text/css"><![CDATA[
.edge:hover path { stroke: red; }
.edge:hover polygon { stroke: red; fill: red; }
]]></style>
<script type="text/javascript"><![CDATA[
var edges = document.getElementsByTagName('g');
if (edges && edges.length) {
  for (var i=0;i<edges.length;i++) {
    if (edges[i].id.substr(0,4)=='edge') {
      edges[i].setAttribute('class','edge');
    }
  }
}
]]></script>
        <defs>
                <circle id="rim" cx="0" cy="0" r="7"/>
                <circle id="rim2" cx="0" cy="0" r="3.5"/>
                <g id="zoomPlus">
                        <use xlink:href="#rim" fill="#404040">
                                <set attributeName="fill" to="#808080" begin="zoomplus.mouseover" end="zoomplus.mouseout"/>
                        </use>
                        <path d="M-4,0h8M0,-4v8" fill="none" stroke="white" stroke-width="1.5" pointer-events="none"/>
                </g>
                <g id="zoomMin">
                        <use xlink:href="#rim" fill="#404040">
                                <set attributeName="fill" to="#808080" begin="zoomminus.mouseover" end="zoomminus.mouseout"/>
                        </use>
                        <path d="M-4,0h8" fill="none" stroke="white" stroke-width="1.5" pointer-events="none"/>
                </g>
                <g id="dirArrow">
                        <path fill="none" stroke="white" stroke-width="1.5" d="M0,-3.0v7 M-2.5,-0.5L0,-3.0L2.5,-0.5"/>
                </g>
               <g id="resetDef">
                       <use xlink:href="#rim2" fill="#404040">
                               <set attributeName="fill" to="#808080" begin="reset.mouseover" end="reset.mouseout"/>
                       </use>
               </g>
        </defs>

<script type="text/javascript">
var viewWidth = 998;
var viewHeight = 246;
var sectionId = 'dynsection-18';
</script>
<script xlink:href="svgpan.js"/>
<svg id="graph" class="graph">
<g id="viewport">
<title>UIElement::getUiElementRect</title>
<!-- Node124 -->
<g id="node1" class="node">
<title>Node124</title>
<polygon fill="#bfbfbf" stroke="#000000" points="0,-101.5 0,-120.5 161,-120.5 161,-101.5 0,-101.5"/>
<text text-anchor="middle" x="80.5" y="-108.5" font-family="Helvetica,sans-Serif" font-size="10.00" fill="#000000">UIElement::getUiElementRect</text>
</g>
<!-- Node125 -->
<g id="node2" class="node">
<title>Node125</title>
<g id="a_node2"><a xlink:href="classLayout.html#a99004e4afcea6a945e3890b19cce6236" target="_top" xlink:title="Arrange Elements that are aligned to a parent This is a seperate function, so it can recurse if a par...">
<polygon fill="none" stroke="#000000" points="197,-161.5 197,-180.5 361,-180.5 361,-161.5 197,-161.5"/>
<text text-anchor="middle" x="279" y="-168.5" font-family="Helvetica,sans-Serif" font-size="10.00" fill="#000000">Layout::arrangeChildElements</text>
</a>
</g>
</g>
<!-- Node124&#45;&gt;Node125 -->
<g id="edge1" class="edge">
<title>Node124&#45;&gt;Node125</title>
<path fill="none" stroke="#191970" d="M114.8945,-124.233C137.9203,-132.8116 169.0221,-143.8626 197,-152 208.7867,-155.4282 221.667,-158.6523 233.6542,-161.4371"/>
<polygon fill="#191970" stroke="#191970" points="115.8312,-120.8461 105.2391,-120.6045 113.3687,-127.3987 115.8312,-120.8461"/>
</g>
<!-- Node133 -->
<g id="node10" class="node">
<title>Node133</title>
<g id="a_node10"><a xlink:href="classTextField.html#abe03b4b6ebf469645940cfa018bcdca2" target="_top" xlink:title="TextField::addText">
<polygon fill="none" stroke="#000000" points="227,-123.5 227,-142.5 331,-142.5 331,-123.5 227,-123.5"/>
<text text-anchor="middle" x="279" y="-130.5" font-family="Helvetica,sans-Serif" font-size="10.00" fill="#000000">TextField::addText</text>
</a>
</g>
</g>
<!-- Node124&#45;&gt;Node133 -->
<g id="edge11" class="edge">
<title>Node124&#45;&gt;Node133</title>
<path fill="none" stroke="#191970" d="M171.4152,-121.0762C190.3956,-123.1799 209.7853,-125.3289 226.7816,-127.2126"/>
<polygon fill="#191970" stroke="#191970" points="171.5623,-117.5712 161.2375,-119.9482 170.7911,-124.5286 171.5623,-117.5712"/>
</g>
<!-- Node134 -->
<g id="node11" class="node">
<title>Node134</title>
<g id="a_node11"><a xlink:href="classUIManager.html#a007e9b56a4835b98db2b203df96ea79d" target="_top" xlink:title="Draws the tile (defined by the string, tiledata pair) onto the button. ">
<polygon fill="none" stroke="#000000" points="203,-74 203,-104 355,-104 355,-74 203,-74"/>
<text text-anchor="start" x="211" y="-92" font-family="Helvetica,sans-Serif" font-size="10.00" fill="#000000">UIManager::setupButtonTile</text>
<text text-anchor="middle" x="279" y="-81" font-family="Helvetica,sans-Serif" font-size="10.00" fill="#000000">Image</text>
</a>
</g>
</g>
<!-- Node124&#45;&gt;Node134 -->
<g id="edge12" class="edge">
<title>Node124&#45;&gt;Node134</title>
<path fill="none" stroke="#191970" d="M171.2904,-100.9376C181.833,-99.7691 192.5038,-98.5865 202.8224,-97.4429"/>
<polygon fill="#191970" stroke="#191970" points="170.7911,-97.4714 161.2375,-102.0518 171.5623,-104.4288 170.7911,-97.4714"/>
</g>
<!-- Node136 -->
<g id="node13" class="node">
<title>Node136</title>
<g id="a_node13"><a xlink:href="classGame.html#a5ed7fc5be77080f7f6dd5363f7f007a1" target="_top" xlink:title="initializes and displays the main menu initializes and displays the main menu ">
<polygon fill="none" stroke="#000000" points="227.5,-35.5 227.5,-54.5 330.5,-54.5 330.5,-35.5 227.5,-35.5"/>
<text text-anchor="middle" x="279" y="-42.5" font-family="Helvetica,sans-Serif" font-size="10.00" fill="#000000">Game::mainMenu</text>
</a>
</g>
</g>
<!-- Node124&#45;&gt;Node136 -->
<g id="edge14" class="edge">
<title>Node124&#45;&gt;Node136</title>
<path fill="none" stroke="#191970" d="M111.4181,-97.4508C134.6584,-87.5966 167.4419,-74.3916 197,-65 209.1499,-61.1396 222.5122,-57.5931 234.8596,-54.5932"/>
<polygon fill="#191970" stroke="#191970" points="109.8954,-94.2953 102.0794,-101.448 112.6499,-100.7306 109.8954,-94.2953"/>
</g>
<!-- Node126 -->
<g id="node3" class="node">
<title>Node126</title>
<g id="a_node3"><a xlink:href="classLayout.html#afa734c5af10f59f3dadb066054fe81ab" target="_top" xlink:title="Arrange the layout elements. ">
<polygon fill="none" stroke="#000000" points="406,-161.5 406,-180.5 545,-180.5 545,-161.5 406,-161.5"/>
<text text-anchor="middle" x="475.5" y="-168.5" font-family="Helvetica,sans-Serif" font-size="10.00" fill="#000000">Layout::arrangeElements</text>
</a>
</g>
</g>
<!-- Node125&#45;&gt;Node126 -->
<g id="edge2" class="edge">
<title>Node125&#45;&gt;Node126</title>
<path fill="none" stroke="#191970" d="M371.335,-171C382.9242,-171 394.6236,-171 405.785,-171"/>
<polygon fill="#191970" stroke="#191970" points="371.1952,-167.5001 361.1951,-171 371.1951,-174.5001 371.1952,-167.5001"/>
</g>
<!-- Node127 -->
<g id="node4" class="node">
<title>Node127</title>
<g id="a_node4"><a xlink:href="UIManager_8cxx.html#a93ebc51d97942bf4e32123b5c61c4141" target="_top" xlink:title="BETTER_ENUM">
<polygon fill="none" stroke="#000000" points="638.5,-218.5 638.5,-237.5 727.5,-237.5 727.5,-218.5 638.5,-218.5"/>
<text text-anchor="middle" x="683" y="-225.5" font-family="Helvetica,sans-Serif" font-size="10.00" fill="#000000">BETTER_ENUM</text>
</a>
</g>
</g>
<!-- Node126&#45;&gt;Node127 -->
<g id="edge3" class="edge">
<title>Node126&#45;&gt;Node127</title>
<path fill="none" stroke="#191970" d="M511.06,-184.0157C533.4997,-191.9253 563.2071,-201.8443 590,-209 605.6029,-213.1671 622.8885,-216.9282 638.282,-219.9834"/>
<polygon fill="#191970" stroke="#191970" points="512.2031,-180.7075 501.6084,-180.6517 509.8559,-187.3022 512.2031,-180.7075"/>
</g>
<!-- Node128 -->
<g id="node5" class="node">
<title>Node128</title>
<g id="a_node5"><a xlink:href="classUIManager.html#a3ccb2fc669262f18ebdcdf3d5c43a3e8" target="_top" xlink:title="CallbackFunction that sets the Build Menu Position Used as callback function for the ComboBox that ho...">
<polygon fill="none" stroke="#000000" points="593,-180.5 593,-199.5 773,-199.5 773,-180.5 593,-180.5"/>
<text text-anchor="middle" x="683" y="-187.5" font-family="Helvetica,sans-Serif" font-size="10.00" fill="#000000">UIManager::setBuildMenuPosition</text>
</a>
</g>
</g>
<!-- Node126&#45;&gt;Node128 -->
<g id="edge4" class="edge">
<title>Node126&#45;&gt;Node128</title>
<path fill="none" stroke="#191970" d="M555.3597,-178.3125C567.6397,-179.4369 580.3919,-180.6046 592.8763,-181.7477"/>
<polygon fill="#191970" stroke="#191970" points="555.4493,-174.8061 545.1717,-177.3796 554.8109,-181.7769 555.4493,-174.8061"/>
</g>
<!-- Node130 -->
<g id="node7" class="node">
<title>Node130</title>
<g id="a_node7"><a xlink:href="classUIManager.html#ac927e1cd3dea979202ea9dbf1195b583" target="_top" xlink:title="UIManager::changeResolution">
<polygon fill="none" stroke="#000000" points="602.5,-104.5 602.5,-123.5 763.5,-123.5 763.5,-104.5 602.5,-104.5"/>
<text text-anchor="middle" x="683" y="-111.5" font-family="Helvetica,sans-Serif" font-size="10.00" fill="#000000">UIManager::changeResolution</text>
</a>
</g>
</g>
<!-- Node126&#45;&gt;Node130 -->
<g id="edge6" class="edge">
<title>Node126&#45;&gt;Node130</title>
<path fill="none" stroke="#191970" d="M511.06,-157.9843C533.4997,-150.0747 563.2071,-140.1557 590,-133 603.0555,-129.5132 617.2891,-126.3107 630.6066,-123.5682"/>
<polygon fill="#191970" stroke="#191970" points="509.8559,-154.6978 501.6084,-161.3483 512.2031,-161.2925 509.8559,-154.6978"/>
</g>
<!-- Node132 -->
<g id="node9" class="node">
<title>Node132</title>
<g id="a_node9"><a xlink:href="classUIManager.html#af2ffb4ee45e57152164643ef6cddda37" target="_top" xlink:title="UIManager::changeFullScreenMode">
<polygon fill="none" stroke="#000000" points="590,-142.5 590,-161.5 776,-161.5 776,-142.5 590,-142.5"/>
<text text-anchor="middle" x="683" y="-149.5" font-family="Helvetica,sans-Serif" font-size="10.00" fill="#000000">UIManager::changeFullScreenMode</text>
</a>
</g>
</g>
<!-- Node126&#45;&gt;Node132 -->
<g id="edge9" class="edge">
<title>Node126&#45;&gt;Node132</title>
<path fill="none" stroke="#191970" d="M555.4163,-163.6824C566.7115,-162.6481 578.4051,-161.5774 589.9215,-160.5229"/>
<polygon fill="#191970" stroke="#191970" points="554.8109,-160.2231 545.1717,-164.6204 555.4493,-167.1939 554.8109,-160.2231"/>
</g>
<!-- Node129 -->
<g id="node6" class="node">
<title>Node129</title>
<g id="a_node6"><a xlink:href="classUIManager.html#a5c4cb8e02504ffa0d3faf45181feab9d" target="_top" xlink:title="Fill UI Widgets whose ID start with a $ with data Used for filling widgets with data, like BuildMenu Position combobox, Screen Resolution ComboBox and so on. ">
<polygon fill="none" stroke="#000000" points="828,-140 828,-170 974,-170 974,-140 828,-140"/>
<text text-anchor="start" x="836" y="-158" font-family="Helvetica,sans-Serif" font-size="10.00" fill="#000000">UIManager::initializeDollar</text>
<text text-anchor="middle" x="901" y="-147" font-family="Helvetica,sans-Serif" font-size="10.00" fill="#000000">Variables</text>
</a>
</g>
</g>
<!-- Node128&#45;&gt;Node129 -->
<g id="edge5" class="edge">
<title>Node128&#45;&gt;Node129</title>
<path fill="none" stroke="#191970" d="M752.378,-178.8613C776.3995,-175.0047 803.3928,-170.6709 827.7179,-166.7655"/>
<polygon fill="#191970" stroke="#191970" points="751.6002,-175.4413 742.2815,-180.4823 752.7099,-182.3528 751.6002,-175.4413"/>
</g>
<!-- Node130&#45;&gt;Node129 -->
<g id="edge8" class="edge">
<title>Node130&#45;&gt;Node129</title>
<path fill="none" stroke="#191970" d="M743.7056,-125.4171C769.8423,-130.3327 800.6226,-136.1217 827.9923,-141.2692"/>
<polygon fill="#191970" stroke="#191970" points="744.0362,-121.918 733.5615,-123.5093 742.7423,-128.7974 744.0362,-121.918"/>
</g>
<!-- Node131 -->
<g id="node8" class="node">
<title>Node131</title>
<g id="a_node8"><a xlink:href="classUIManager.html#aa78e356fc3b356d790c848319d1c387e" target="_top" xlink:title="UIManager::setCallbackFunctions">
<polygon fill="none" stroke="#000000" points="812,-101.5 812,-120.5 990,-120.5 990,-101.5 812,-101.5"/>
<text text-anchor="middle" x="901" y="-108.5" font-family="Helvetica,sans-Serif" font-size="10.00" fill="#000000">UIManager::setCallbackFunctions</text>
</a>
</g>
</g>
<!-- Node130&#45;&gt;Node131 -->
<g id="edge7" class="edge">
<title>Node130&#45;&gt;Node131</title>
<path fill="none" stroke="#191970" d="M773.6341,-112.7527C786.309,-112.5783 799.3251,-112.3992 811.9699,-112.2252"/>
<polygon fill="#191970" stroke="#191970" points="773.5066,-109.2541 763.5558,-112.8914 773.603,-116.2534 773.5066,-109.2541"/>
</g>
<!-- Node132&#45;&gt;Node129 -->
<g id="edge10" class="edge">
<title>Node132&#45;&gt;Node129</title>
<path fill="none" stroke="#191970" d="M786.3047,-153.4216C800.3906,-153.6155 814.6036,-153.8111 827.9995,-153.9954"/>
<polygon fill="#191970" stroke="#191970" points="786.1312,-149.919 776.084,-153.281 786.0348,-156.9183 786.1312,-149.919"/>
</g>
<!-- Node135 -->
<g id="node12" class="node">
<title>Node135</title>
<g id="a_node12"><a xlink:href="classUIManager.html#aae7a89e9d50bb6192e4140e07bd5f94b" target="_top" xlink:title="UIManager::createBuildMenu">
<polygon fill="none" stroke="#000000" points="397,-79.5 397,-98.5 554,-98.5 554,-79.5 397,-79.5"/>
<text text-anchor="middle" x="475.5" y="-86.5" font-family="Helvetica,sans-Serif" font-size="10.00" fill="#000000">UIManager::createBuildMenu</text>
</a>
</g>
</g>
<!-- Node134&#45;&gt;Node135 -->
<g id="edge13" class="edge">
<title>Node134&#45;&gt;Node135</title>
<path fill="none" stroke="#191970" d="M365.5416,-89C375.9061,-89 386.4469,-89 396.6938,-89"/>
<polygon fill="#191970" stroke="#191970" points="365.2533,-85.5001 355.2533,-89 365.2532,-92.5001 365.2533,-85.5001"/>
</g>
<!-- Node137 -->
<g id="node14" class="node">
<title>Node137</title>
<g id="a_node14"><a xlink:href="classGame.html#ad59df6562a58a614fda24622d3715b65" target="_top" xlink:title="Game::Game">
<polygon fill="none" stroke="#000000" points="435,-38.5 435,-57.5 516,-57.5 516,-38.5 435,-38.5"/>
<text text-anchor="middle" x="475.5" y="-45.5" font-family="Helvetica,sans-Serif" font-size="10.00" fill="#000000">Game::Game</text>
</a>
</g>
</g>
<!-- Node136&#45;&gt;Node137 -->
<g id="edge15" class="edge">
<title>Node136&#45;&gt;Node137</title>
<path fill="none" stroke="#191970" d="M340.7904,-45.9434C371.4417,-46.4113 407.6098,-46.9635 434.7478,-47.3778"/>
<polygon fill="#191970" stroke="#191970" points="340.6804,-42.4414 330.6281,-45.7882 340.5734,-49.4406 340.6804,-42.4414"/>
</g>
<!-- Node138 -->
<g id="node15" class="node">
<title>Node138</title>
<g id="a_node15"><a xlink:href="main_8cxx.html#af582d708d899e67ead623eac34a22387" target="_top" xlink:title="protected_main">
<polygon fill="none" stroke="#000000" points="429,-.5 429,-19.5 522,-19.5 522,-.5 429,-.5"/>
<text text-anchor="middle" x="475.5" y="-7.5" font-family="Helvetica,sans-Serif" font-size="10.00" fill="#000000">protected_main</text>
</a>
</g>
</g>
<!-- Node136&#45;&gt;Node138 -->
<g id="edge16" class="edge">
<title>Node136&#45;&gt;Node138</title>
<path fill="none" stroke="#191970" d="M340.5109,-34.0439C369.0768,-28.9558 402.4835,-23.0055 428.9167,-18.2973"/>
<polygon fill="#191970" stroke="#191970" points="339.8593,-30.6047 330.6281,-35.8042 341.0869,-37.4963 339.8593,-30.6047"/>
</g>
<!-- Node139 -->
<g id="node16" class="node">
<title>Node139</title>
<g id="a_node16"><a xlink:href="main_8cxx.html#a3c04138a5bfe5d72780bb7e82a18e627" target="_top" xlink:title="main">
<polygon fill="none" stroke="#000000" points="662.5,-.5 662.5,-19.5 703.5,-19.5 703.5,-.5 662.5,-.5"/>
<text text-anchor="middle" x="683" y="-7.5" font-family="Helvetica,sans-Serif" font-size="10.00" fill="#000000">main</text>
</a>
</g>
</g>
<!-- Node138&#45;&gt;Node139 -->
<g id="edge17" class="edge">
<title>Node138&#45;&gt;Node139</title>
<path fill="none" stroke="#191970" d="M532.1659,-10C575.3508,-10 632.3489,-10 662.4052,-10"/>
<polygon fill="#191970" stroke="#191970" points="532.0671,-6.5001 522.0671,-10 532.067,-13.5001 532.0671,-6.5001"/>
</g>
</g>
</svg>
        <g id="navigator" transform="translate(0 0)" fill="#404254">
                <rect fill="#f2f5e9" fill-opacity="0.5" stroke="#606060" stroke-width=".5" x="0" y="0" width="60" height="60"/>
                <use id="zoomplus" xlink:href="#zoomPlus" x="17" y="9" onmousedown="handleZoom(evt,'in')"/>
                <use id="zoomminus" xlink:href="#zoomMin" x="42" y="9" onmousedown="handleZoom(evt,'out')"/>
                <use id="reset" xlink:href="#resetDef" x="30" y="36" onmousedown="handleReset()"/>
                <g id="arrowUp" xlink:href="#dirArrow" transform="translate(30 24)" onmousedown="handlePan(0,-1)">
                  <use xlink:href="#rim" fill="#404040">
                        <set attributeName="fill" to="#808080" begin="arrowUp.mouseover" end="arrowUp.mouseout"/>
                  </use>
                  <path fill="none" stroke="white" stroke-width="1.5" d="M0,-3.0v7 M-2.5,-0.5L0,-3.0L2.5,-0.5"/>
                </g>
                <g id="arrowRight" xlink:href="#dirArrow" transform="rotate(90) translate(36 -43)" onmousedown="handlePan(1,0)">
                  <use xlink:href="#rim" fill="#404040">
                        <set attributeName="fill" to="#808080" begin="arrowRight.mouseover" end="arrowRight.mouseout"/>
                  </use>
                  <path fill="none" stroke="white" stroke-width="1.5" d="M0,-3.0v7 M-2.5,-0.5L0,-3.0L2.5,-0.5"/>
                </g>
                <g id="arrowDown" xlink:href="#dirArrow" transform="rotate(180) translate(-30 -48)" onmousedown="handlePan(0,1)">
                  <use xlink:href="#rim" fill="#404040">
                        <set attributeName="fill" to="#808080" begin="arrowDown.mouseover" end="arrowDown.mouseout"/>
                  </use>
                  <path fill="none" stroke="white" stroke-width="1.5" d="M0,-3.0v7 M-2.5,-0.5L0,-3.0L2.5,-0.5"/>
                </g>
                <g id="arrowLeft" xlink:href="#dirArrow" transform="rotate(270) translate(-36 17)" onmousedown="handlePan(-1,0)">
                  <use xlink:href="#rim" fill="#404040">
                        <set attributeName="fill" to="#808080" begin="arrowLeft.mouseover" end="arrowLeft.mouseout"/>
                  </use>
                  <path fill="none" stroke="white" stroke-width="1.5" d="M0,-3.0v7 M-2.5,-0.5L0,-3.0L2.5,-0.5"/>
                </g>
        </g>
        <svg viewBox="0 0 15 15" width="100%" height="30px" preserveAspectRatio="xMaxYMin meet">
         <g id="arrow_out" transform="scale(0.3 0.3)">
          <a xlink:href="classUIElement_ad1c0d7431b71bdd9a3704a6d5c8a4643_icgraph_org.svg" target="_base">
           <rect id="button" ry="5" rx="5" y="6" x="6" height="38" width="38"
                fill="#f2f5e9" fill-opacity="0.5" stroke="#606060" stroke-width="1.0"/>
           <path id="arrow"
             d="M 11.500037,31.436501 C 11.940474,20.09759 22.043105,11.32322 32.158766,21.979434 L 37.068811,17.246167 C 37.068811,17.246167 37.088388,32 37.088388,32 L 22.160133,31.978069 C 22.160133,31.978069 26.997745,27.140456 26.997745,27.140456 C 18.528582,18.264221 13.291696,25.230495 11.500037,31.436501 z"
             style="fill:#404040;"/>
          </a>
         </g>
        </svg>
</svg>
