<?xml version="1.0" encoding="UTF-8" standalone="no"?>
<!DOCTYPE svg PUBLIC "-//W3C//DTD SVG 1.1//EN"
 "http://www.w3.org/Graphics/SVG/1.1/DTD/svg11.dtd">
<!-- Generated by graphviz version 2.40.1 (20161225.0304)
 -->
<!-- Title: Map::getNeighboringTilesBitmask Pages: 1 -->
<svg width="1685pt" height="369pt"
 viewBox="0.00 0.00 1685.00 368.73" xmlns="http://www.w3.org/2000/svg" xmlns:xlink="http://www.w3.org/1999/xlink">
<g id="graph0" class="graph" transform="scale(1 1) rotate(0) translate(4 364.7254)">
<title>Map::getNeighboringTilesBitmask</title>
<!-- Node141 -->
<g id="node1" class="node">
<title>Node141</title>
<polygon fill="#bfbfbf" stroke="#000000" points="0,-244.7254 0,-274.7254 141,-274.7254 141,-244.7254 0,-244.7254"/>
<text text-anchor="start" x="8" y="-262.7254" font-family="Helvetica,sans-Serif" font-size="10.00" fill="#000000">Map::getNeighboringTiles</text>
<text text-anchor="middle" x="70.5" y="-251.7254" font-family="Helvetica,sans-Serif" font-size="10.00" fill="#000000">Bitmask</text>
</g>
<!-- Node142 -->
<g id="node2" class="node">
<title>Node142</title>
<g id="a_node2"><a xlink:href="classMap.html#a59d21f2688713fbcfe320eb1b24405ca" target="_top" xlink:title="Update mapNode and its adjacent tiles Updates mapNode height information, draws slopes for adjacent t...">
<polygon fill="none" stroke="#000000" points="177,-250.2254 177,-269.2254 340,-269.2254 340,-250.2254 177,-250.2254"/>
<text text-anchor="middle" x="258.5" y="-257.2254" font-family="Helvetica,sans-Serif" font-size="10.00" fill="#000000">Map::updateNeighborsOfNode</text>
</a>
</g>
</g>
<!-- Node141&#45;&gt;Node142 -->
<g id="edge1" class="edge">
<title>Node141&#45;&gt;Node142</title>
<path fill="none" stroke="#191970" d="M151.2689,-259.7254C159.7304,-259.7254 168.3378,-259.7254 176.8094,-259.7254"/>
<polygon fill="#191970" stroke="#191970" points="151.0392,-256.2255 141.0391,-259.7254 151.0391,-263.2255 151.0392,-256.2255"/>
</g>
<!-- Node143 -->
<g id="node3" class="node">
<title>Node143</title>
<g id="a_node3"><a xlink:href="classMap.html#aba5154a4d917900679a3c0f7ec701561" target="_top" xlink:title="Increase Height Increases the height of the node and checks the surrounding tiles. Either draw a slope sprite or elevate the tile if necessary. ">
<polygon fill="none" stroke="#000000" points="533.5,-189.2254 533.5,-208.2254 649.5,-208.2254 649.5,-189.2254 533.5,-189.2254"/>
<text text-anchor="middle" x="591.5" y="-196.2254" font-family="Helvetica,sans-Serif" font-size="10.00" fill="#000000">Map::increaseHeight</text>
</a>
</g>
</g>
<!-- Node142&#45;&gt;Node143 -->
<g id="edge2" class="edge">
<title>Node142&#45;&gt;Node143</title>
<path fill="none" stroke="#191970" d="M280.402,-245.8653C303.8281,-236.1114 342.1833,-224.6333 376,-217.7254 428.6742,-206.9654 489.4796,-199.5086 533.0429,-196.5638"/>
<polygon fill="#191970" stroke="#191970" points="278.7377,-242.7758 271.046,-250.0619 281.6026,-249.1627 278.7377,-242.7758"/>
</g>
<!-- Node150 -->
<g id="node10" class="node">
<title>Node150</title>
<g id="a_node10"><a xlink:href="classMap.html#afb8cc864df90d273a5074872d635dc40" target="_top" xlink:title="Decrease Height Decreases the height of the node and checks the surrounding tiles. Either draw a slope sprite or lower the tile if necessary. ">
<polygon fill="none" stroke="#000000" points="532,-341.2254 532,-360.2254 651,-360.2254 651,-341.2254 532,-341.2254"/>
<text text-anchor="middle" x="591.5" y="-348.2254" font-family="Helvetica,sans-Serif" font-size="10.00" fill="#000000">Map::decreaseHeight</text>
</a>
</g>
</g>
<!-- Node142&#45;&gt;Node150 -->
<g id="edge10" class="edge">
<title>Node142&#45;&gt;Node150</title>
<path fill="none" stroke="#191970" d="M320.855,-272.1662C338.5953,-277.5571 357.9908,-283.6058 376,-288.7254 447.3399,-309.0057 533.2422,-328.7543 571.4684,-341.1303"/>
<polygon fill="#191970" stroke="#191970" points="321.7737,-268.7876 311.1889,-269.249 319.7511,-275.4891 321.7737,-268.7876"/>
</g>
<!-- Node152 -->
<g id="node12" class="node">
<title>Node152</title>
<g id="a_node12"><a xlink:href="classMap.html#a481b37ba71ef0e51e836fc42805762dd" target="_top" xlink:title="Update all mapNodes Updates all mapNode and its adjacent tiles regarding height information, draws slopes for adjacent tiles and sets tiling for mapNode sprite if applicable. ">
<polygon fill="none" stroke="#000000" points="376,-137.2254 376,-156.2254 496,-156.2254 496,-137.2254 376,-137.2254"/>
<text text-anchor="middle" x="436" y="-144.2254" font-family="Helvetica,sans-Serif" font-size="10.00" fill="#000000">Map::updateAllNodes</text>
</a>
</g>
</g>
<!-- Node142&#45;&gt;Node152 -->
<g id="edge14" class="edge">
<title>Node142&#45;&gt;Node152</title>
<path fill="none" stroke="#191970" d="M276.7989,-243.3715C299.0331,-224.1119 338.2674,-192.0489 376,-170.7254 385.865,-165.1505 397.2852,-160.2388 407.4979,-156.3348"/>
<polygon fill="#191970" stroke="#191970" points="274.3617,-240.8535 269.1484,-250.077 278.9757,-246.1177 274.3617,-240.8535"/>
</g>
<!-- Node161 -->
<g id="node21" class="node">
<title>Node161</title>
<g id="a_node21"><a xlink:href="classMap.html#a779c939483a52b32a3959b99af95e67a" target="_top" xlink:title="Set the Tile ID Of Node object Also invokes all necessary texture updates (auto&#45;tiling, slopes, ...) ">
<polygon fill="none" stroke="#000000" points="856.5,-265.2254 856.5,-284.2254 979.5,-284.2254 979.5,-265.2254 856.5,-265.2254"/>
<text text-anchor="middle" x="918" y="-272.2254" font-family="Helvetica,sans-Serif" font-size="10.00" fill="#000000">Map::setTileIDOfNode</text>
</a>
</g>
</g>
<!-- Node142&#45;&gt;Node161 -->
<g id="edge44" class="edge">
<title>Node142&#45;&gt;Node161</title>
<path fill="none" stroke="#191970" d="M350.2408,-258.9978C394.3211,-258.8342 447.9039,-258.9067 496,-259.7254 639.618,-262.1702 675.4607,-265.3815 819,-270.7254 831.1187,-271.1766 844.0708,-271.6826 856.4782,-272.1791"/>
<polygon fill="#191970" stroke="#191970" points="350.1052,-255.4982 340.1199,-259.04 350.1345,-262.4981 350.1052,-255.4982"/>
</g>
<!-- Node163 -->
<g id="node23" class="node">
<title>Node163</title>
<g id="a_node23"><a xlink:href="classMap.html#a05e7d896dc5062af07c9b838600a068d" target="_top" xlink:title="Demolish a node Invokes the tiles demolish function. ">
<polygon fill="none" stroke="#000000" points="379.5,-269.2254 379.5,-288.2254 492.5,-288.2254 492.5,-269.2254 379.5,-269.2254"/>
<text text-anchor="middle" x="436" y="-276.2254" font-family="Helvetica,sans-Serif" font-size="10.00" fill="#000000">Map::demolishNode</text>
</a>
</g>
</g>
<!-- Node142&#45;&gt;Node163 -->
<g id="edge36" class="edge">
<title>Node142&#45;&gt;Node163</title>
<path fill="none" stroke="#191970" d="M350.3782,-262.814C367.606,-264.6992 384.6764,-266.907 398.9885,-269.1591"/>
<polygon fill="#191970" stroke="#191970" points="350.5484,-259.3126 340.2362,-261.7434 349.8135,-266.2739 350.5484,-259.3126"/>
</g>
<!-- Node143&#45;&gt;Node142 -->
<g id="edge9" class="edge">
<title>Node143&#45;&gt;Node142</title>
<path fill="none" stroke="#191970" d="M544.9332,-209.7769C501.0685,-216.1259 433.6622,-223.9465 376,-235.7254 356.4857,-239.7117 335.4601,-245.2198 316.6641,-250.1492"/>
<polygon fill="#191970" stroke="#191970" points="545.6361,-213.211 555.0119,-208.2771 544.6056,-206.2872 545.6361,-213.211"/>
</g>
<!-- Node144 -->
<g id="node4" class="node">
<title>Node144</title>
<g id="a_node4"><a xlink:href="classEngine.html#a4851ae1ff696c893741167fc0194fd77" target="_top" xlink:title="Increase Height Increases the height of the given map node Calls the according function of the Map ob...">
<polygon fill="none" stroke="#000000" points="688.5,-189.2254 688.5,-208.2254 817.5,-208.2254 817.5,-189.2254 688.5,-189.2254"/>
<text text-anchor="middle" x="753" y="-196.2254" font-family="Helvetica,sans-Serif" font-size="10.00" fill="#000000">Engine::increaseHeight</text>
</a>
</g>
</g>
<!-- Node143&#45;&gt;Node144 -->
<g id="edge3" class="edge">
<title>Node143&#45;&gt;Node144</title>
<path fill="none" stroke="#191970" d="M659.9542,-198.7254C669.4139,-198.7254 679.1042,-198.7254 688.4892,-198.7254"/>
<polygon fill="#191970" stroke="#191970" points="659.8052,-195.2255 649.8052,-198.7254 659.8052,-202.2255 659.8052,-195.2255"/>
</g>
<!-- Node145 -->
<g id="node5" class="node">
<title>Node145</title>
<g id="a_node5"><a xlink:href="classEventManager.html#a65ec91fd5016d4f9c4167fb8babed2df" target="_top" xlink:title="EventManager::checkEvents">
<polygon fill="none" stroke="#000000" points="1201,-246.2254 1201,-265.2254 1355,-265.2254 1355,-246.2254 1201,-246.2254"/>
<text text-anchor="middle" x="1278" y="-253.2254" font-family="Helvetica,sans-Serif" font-size="10.00" fill="#000000">EventManager::checkEvents</text>
</a>
</g>
</g>
<!-- Node144&#45;&gt;Node145 -->
<g id="edge4" class="edge">
<title>Node144&#45;&gt;Node145</title>
<path fill="none" stroke="#191970" d="M827.8667,-206.8538C926.9116,-217.6072 1100.6216,-236.4672 1200.8157,-247.3454"/>
<polygon fill="#191970" stroke="#191970" points="827.9578,-203.3432 817.6384,-205.7433 827.2021,-210.3023 827.9578,-203.3432"/>
</g>
<!-- Node146 -->
<g id="node6" class="node">
<title>Node146</title>
<g id="a_node6"><a xlink:href="classGame.html#a1c2ab25d5216b2f4b2fe41efd2c09114" target="_top" xlink:title="begins the game starts running the game ">
<polygon fill="none" stroke="#000000" points="1403,-151.2254 1403,-170.2254 1471,-170.2254 1471,-151.2254 1403,-151.2254"/>
<text text-anchor="middle" x="1437" y="-158.2254" font-family="Helvetica,sans-Serif" font-size="10.00" fill="#000000">Game::run</text>
</a>
</g>
</g>
<!-- Node145&#45;&gt;Node146 -->
<g id="edge5" class="edge">
<title>Node145&#45;&gt;Node146</title>
<path fill="none" stroke="#191970" d="M1302.714,-240.9592C1335.6333,-221.2904 1392.9507,-187.0442 1420.8366,-170.3828"/>
<polygon fill="#191970" stroke="#191970" points="1300.91,-237.9598 1294.1208,-246.0935 1304.5004,-243.9689 1300.91,-237.9598"/>
</g>
<!-- Node147 -->
<g id="node7" class="node">
<title>Node147</title>
<g id="a_node7"><a xlink:href="classGame.html#ad59df6562a58a614fda24622d3715b65" target="_top" xlink:title="Game::Game">
<polygon fill="none" stroke="#000000" points="1513,-132.2254 1513,-151.2254 1594,-151.2254 1594,-132.2254 1513,-132.2254"/>
<text text-anchor="middle" x="1553.5" y="-139.2254" font-family="Helvetica,sans-Serif" font-size="10.00" fill="#000000">Game::Game</text>
</a>
</g>
</g>
<!-- Node146&#45;&gt;Node147 -->
<g id="edge6" class="edge">
<title>Node146&#45;&gt;Node147</title>
<path fill="none" stroke="#191970" d="M1481.0985,-153.5334C1491.4513,-151.8449 1502.439,-150.053 1512.6427,-148.3888"/>
<polygon fill="#191970" stroke="#191970" points="1480.316,-150.1147 1471.0098,-155.1787 1481.4428,-157.0234 1480.316,-150.1147"/>
</g>
<!-- Node148 -->
<g id="node8" class="node">
<title>Node148</title>
<g id="a_node8"><a xlink:href="main_8cxx.html#af582d708d899e67ead623eac34a22387" target="_top" xlink:title="protected_main">
<polygon fill="none" stroke="#000000" points="1507,-170.2254 1507,-189.2254 1600,-189.2254 1600,-170.2254 1507,-170.2254"/>
<text text-anchor="middle" x="1553.5" y="-177.2254" font-family="Helvetica,sans-Serif" font-size="10.00" fill="#000000">protected_main</text>
</a>
</g>
</g>
<!-- Node146&#45;&gt;Node148 -->
<g id="edge7" class="edge">
<title>Node146&#45;&gt;Node148</title>
<path fill="none" stroke="#191970" d="M1480.9884,-167.8995C1489.382,-169.2684 1498.1965,-170.706 1506.6749,-172.0887"/>
<polygon fill="#191970" stroke="#191970" points="1481.4428,-164.4274 1471.0098,-166.2721 1480.316,-171.3361 1481.4428,-164.4274"/>
</g>
<!-- Node149 -->
<g id="node9" class="node">
<title>Node149</title>
<g id="a_node9"><a xlink:href="main_8cxx.html#a3c04138a5bfe5d72780bb7e82a18e627" target="_top" xlink:title="main">
<polygon fill="none" stroke="#000000" points="1636,-170.2254 1636,-189.2254 1677,-189.2254 1677,-170.2254 1636,-170.2254"/>
<text text-anchor="middle" x="1656.5" y="-177.2254" font-family="Helvetica,sans-Serif" font-size="10.00" fill="#000000">main</text>
</a>
</g>
</g>
<!-- Node148&#45;&gt;Node149 -->
<g id="edge8" class="edge">
<title>Node148&#45;&gt;Node149</title>
<path fill="none" stroke="#191970" d="M1610.2133,-179.7254C1619.4322,-179.7254 1628.4259,-179.7254 1635.9965,-179.7254"/>
<polygon fill="#191970" stroke="#191970" points="1610.1782,-176.2255 1600.1782,-179.7254 1610.1781,-183.2255 1610.1782,-176.2255"/>
</g>
<!-- Node150&#45;&gt;Node142 -->
<g id="edge13" class="edge">
<title>Node150&#45;&gt;Node142</title>
<path fill="none" stroke="#191970" d="M521.8097,-342.729C479.448,-333.9853 424.3759,-320.4776 376,-306.7254 337.0235,-295.6453 291.5538,-280.2134 270.423,-269.2731"/>
<polygon fill="#191970" stroke="#191970" points="521.2475,-346.1861 531.7429,-344.7378 522.6351,-339.325 521.2475,-346.1861"/>
</g>
<!-- Node151 -->
<g id="node11" class="node">
<title>Node151</title>
<g id="a_node11"><a xlink:href="classEngine.html#a13572fdd7f6470dca48a14497f58980e" target="_top" xlink:title="Decrease Height Decreases the height of the given map node Calls the according function of the Map ob...">
<polygon fill="none" stroke="#000000" points="687,-341.2254 687,-360.2254 819,-360.2254 819,-341.2254 687,-341.2254"/>
<text text-anchor="middle" x="753" y="-348.2254" font-family="Helvetica,sans-Serif" font-size="10.00" fill="#000000">Engine::decreaseHeight</text>
</a>
</g>
</g>
<!-- Node150&#45;&gt;Node151 -->
<g id="edge11" class="edge">
<title>Node150&#45;&gt;Node151</title>
<path fill="none" stroke="#191970" d="M661.3603,-350.7254C669.7945,-350.7254 678.3902,-350.7254 686.7702,-350.7254"/>
<polygon fill="#191970" stroke="#191970" points="661.1778,-347.2255 651.1778,-350.7254 661.1778,-354.2255 661.1778,-347.2255"/>
</g>
<!-- Node151&#45;&gt;Node145 -->
<g id="edge12" class="edge">
<title>Node151&#45;&gt;Node145</title>
<path fill="none" stroke="#191970" d="M829.2427,-351.9187C910.8134,-351.3469 1043.2787,-345.063 1153,-314.7254 1194.4017,-303.278 1239.0191,-278.9935 1262.1136,-265.4206"/>
<polygon fill="#191970" stroke="#191970" points="829.0464,-348.4194 819.0614,-351.9621 829.0763,-355.4193 829.0464,-348.4194"/>
</g>
<!-- Node153 -->
<g id="node13" class="node">
<title>Node153</title>
<g id="a_node13"><a xlink:href="classMap.html#a482ac34426e8aa66abb46f60ec329402" target="_top" xlink:title="Initialize the Map with node objects Initialize the Map with node objects. ">
<polygon fill="none" stroke="#000000" points="552,-113.2254 552,-132.2254 631,-132.2254 631,-113.2254 552,-113.2254"/>
<text text-anchor="middle" x="591.5" y="-120.2254" font-family="Helvetica,sans-Serif" font-size="10.00" fill="#000000">Map::initMap</text>
</a>
</g>
</g>
<!-- Node152&#45;&gt;Node153 -->
<g id="edge15" class="edge">
<title>Node152&#45;&gt;Node153</title>
<path fill="none" stroke="#191970" d="M506.2752,-135.8791C521.8573,-133.4741 537.8436,-131.0068 551.6994,-128.8683"/>
<polygon fill="#191970" stroke="#191970" points="505.4694,-132.4619 496.1204,-137.4464 506.5372,-139.38 505.4694,-132.4619"/>
</g>
<!-- Node158 -->
<g id="node18" class="node">
<title>Node158</title>
<g id="a_node18"><a xlink:href="classMap.html#afefe996cc1f62b61ec60d0ae415953bf" target="_top" xlink:title="Map::loadMapFromFile">
<polygon fill="none" stroke="#000000" points="690.5,-151.2254 690.5,-170.2254 815.5,-170.2254 815.5,-151.2254 690.5,-151.2254"/>
<text text-anchor="middle" x="753" y="-158.2254" font-family="Helvetica,sans-Serif" font-size="10.00" fill="#000000">Map::loadMapFromFile</text>
</a>
</g>
</g>
<!-- Node152&#45;&gt;Node158 -->
<g id="edge35" class="edge">
<title>Node152&#45;&gt;Node158</title>
<path fill="none" stroke="#191970" d="M506.4075,-149.8349C561.5082,-152.2684 637.4233,-155.6211 690.4146,-157.9614"/>
<polygon fill="#191970" stroke="#191970" points="506.5161,-146.3364 496.3714,-149.3917 506.2072,-153.3295 506.5161,-146.3364"/>
</g>
<!-- Node154 -->
<g id="node14" class="node">
<title>Node154</title>
<g id="a_node14"><a xlink:href="classEngine.html#a260d4834150eae6eec2bde34df6dc827" target="_top" xlink:title="Creates a new game Creates a new game. ">
<polygon fill="none" stroke="#000000" points="865.5,-37.2254 865.5,-56.2254 970.5,-56.2254 970.5,-37.2254 865.5,-37.2254"/>
<text text-anchor="middle" x="918" y="-44.2254" font-family="Helvetica,sans-Serif" font-size="10.00" fill="#000000">Engine::newGame</text>
</a>
</g>
</g>
<!-- Node153&#45;&gt;Node154 -->
<g id="edge16" class="edge">
<title>Node153&#45;&gt;Node154</title>
<path fill="none" stroke="#191970" d="M641.1438,-111.1697C705.6509,-96.1543 817.095,-70.2133 877.0301,-56.2621"/>
<polygon fill="#191970" stroke="#191970" points="640.155,-107.8062 631.2089,-113.4823 641.742,-114.624 640.155,-107.8062"/>
</g>
<!-- Node153&#45;&gt;Node158 -->
<g id="edge24" class="edge">
<title>Node153&#45;&gt;Node158</title>
<path fill="none" stroke="#191970" d="M640.8995,-134.3488C663.8405,-139.7467 690.778,-146.0849 712.4967,-151.1952"/>
<polygon fill="#191970" stroke="#191970" points="641.5432,-130.9048 631.0073,-132.0213 639.9399,-137.7187 641.5432,-130.9048"/>
</g>
<!-- Node154&#45;&gt;Node146 -->
<g id="edge23" class="edge">
<title>Node154&#45;&gt;Node146</title>
<path fill="none" stroke="#191970" d="M952.7831,-33.8955C971.5229,-27.6603 995.2102,-20.8512 1017,-17.7254 1172.4206,4.5698 1235.5117,20.0853 1367,-65.7254 1400.6269,-87.6707 1423.7953,-131.6995 1432.8083,-151.1325"/>
<polygon fill="#191970" stroke="#191970" points="951.5254,-30.6265 943.1982,-37.1769 953.7928,-37.2491 951.5254,-30.6265"/>
</g>
<!-- Node155 -->
<g id="node15" class="node">
<title>Node155</title>
<g id="a_node15"><a xlink:href="classEngine.html#af7de8d74b0cfacaf06df53e7caf11538" target="_top" xlink:title="Engine::saveGame">
<polygon fill="none" stroke="#000000" points="1031,-37.2254 1031,-56.2254 1139,-56.2254 1139,-37.2254 1031,-37.2254"/>
<text text-anchor="middle" x="1085" y="-44.2254" font-family="Helvetica,sans-Serif" font-size="10.00" fill="#000000">Engine::saveGame</text>
</a>
</g>
</g>
<!-- Node154&#45;&gt;Node155 -->
<g id="edge17" class="edge">
<title>Node154&#45;&gt;Node155</title>
<path fill="none" stroke="#191970" d="M980.8901,-46.7254C997.3065,-46.7254 1014.8565,-46.7254 1030.7799,-46.7254"/>
<polygon fill="#191970" stroke="#191970" points="980.8399,-43.2255 970.8398,-46.7254 980.8398,-50.2255 980.8399,-43.2255"/>
</g>
<!-- Node156 -->
<g id="node16" class="node">
<title>Node156</title>
<g id="a_node16"><a xlink:href="classUIManager.html#aa78e356fc3b356d790c848319d1c387e" target="_top" xlink:title="UIManager::setCallbackFunctions">
<polygon fill="none" stroke="#000000" points="1189,-75.2254 1189,-94.2254 1367,-94.2254 1367,-75.2254 1189,-75.2254"/>
<text text-anchor="middle" x="1278" y="-82.2254" font-family="Helvetica,sans-Serif" font-size="10.00" fill="#000000">UIManager::setCallbackFunctions</text>
</a>
</g>
</g>
<!-- Node154&#45;&gt;Node156 -->
<g id="edge19" class="edge">
<title>Node154&#45;&gt;Node156</title>
<path fill="none" stroke="#191970" d="M964.7227,-34.9828C1012.5335,-24.817 1088.7187,-13.7609 1153,-27.7254 1194.9535,-36.8394 1239.708,-61.3168 1262.5834,-75.0469"/>
<polygon fill="#191970" stroke="#191970" points="963.6859,-31.6272 954.6726,-37.1959 965.1913,-38.4634 963.6859,-31.6272"/>
</g>
<!-- Node157 -->
<g id="node17" class="node">
<title>Node157</title>
<g id="a_node17"><a xlink:href="classGame.html#a5ed7fc5be77080f7f6dd5363f7f007a1" target="_top" xlink:title="initializes and displays the main menu initializes and displays the main menu ">
<polygon fill="none" stroke="#000000" points="1226.5,-151.2254 1226.5,-170.2254 1329.5,-170.2254 1329.5,-151.2254 1226.5,-151.2254"/>
<text text-anchor="middle" x="1278" y="-158.2254" font-family="Helvetica,sans-Serif" font-size="10.00" fill="#000000">Game::mainMenu</text>
</a>
</g>
</g>
<!-- Node154&#45;&gt;Node157 -->
<g id="edge20" class="edge">
<title>Node154&#45;&gt;Node157</title>
<path fill="none" stroke="#191970" d="M957.7717,-59.3198C1030.3789,-82.3121 1182.8866,-130.6061 1247.7582,-151.1488"/>
<polygon fill="#191970" stroke="#191970" points="958.6643,-55.9312 948.0742,-56.2489 956.551,-62.6046 958.6643,-55.9312"/>
</g>
<!-- Node155&#45;&gt;Node156 -->
<g id="edge18" class="edge">
<title>Node155&#45;&gt;Node156</title>
<path fill="none" stroke="#191970" d="M1143.6016,-58.2635C1171.1289,-63.6834 1203.5476,-70.0664 1229.6482,-75.2054"/>
<polygon fill="#191970" stroke="#191970" points="1144.1898,-54.8122 1133.702,-56.3144 1142.8375,-61.6804 1144.1898,-54.8122"/>
</g>
<!-- Node157&#45;&gt;Node147 -->
<g id="edge21" class="edge">
<title>Node157&#45;&gt;Node147</title>
<path fill="none" stroke="#191970" d="M1338.9441,-149.579C1359.2452,-146.3701 1382.0283,-143.3102 1403,-141.7254 1440.1272,-138.9198 1482.5536,-139.2377 1512.8759,-140.071"/>
<polygon fill="#191970" stroke="#191970" points="1338.1975,-146.1543 1328.8878,-151.2119 1339.3195,-153.0639 1338.1975,-146.1543"/>
</g>
<!-- Node157&#45;&gt;Node148 -->
<g id="edge22" class="edge">
<title>Node157&#45;&gt;Node148</title>
<path fill="none" stroke="#191970" d="M1338.9441,-171.8718C1359.2452,-175.0807 1382.0283,-178.1407 1403,-179.7254 1437.7823,-182.3538 1477.2157,-182.2408 1506.9902,-181.5309"/>
<polygon fill="#191970" stroke="#191970" points="1339.3195,-168.387 1328.8878,-170.239 1338.1975,-175.2965 1339.3195,-168.387"/>
</g>
<!-- Node159 -->
<g id="node19" class="node">
<title>Node159</title>
<g id="a_node19"><a xlink:href="classEngine.html#a83b7dbeee899b36a13d5b07c7ad87ebc" target="_top" xlink:title="Loads a saved game Loads a saved Game. ">
<polygon fill="none" stroke="#000000" points="865,-151.2254 865,-170.2254 971,-170.2254 971,-151.2254 865,-151.2254"/>
<text text-anchor="middle" x="918" y="-158.2254" font-family="Helvetica,sans-Serif" font-size="10.00" fill="#000000">Engine::loadGame</text>
</a>
</g>
</g>
<!-- Node158&#45;&gt;Node159 -->
<g id="edge25" class="edge">
<title>Node158&#45;&gt;Node159</title>
<path fill="none" stroke="#191970" d="M826.1678,-160.7254C839.1476,-160.7254 852.4396,-160.7254 864.7363,-160.7254"/>
<polygon fill="#191970" stroke="#191970" points="825.8502,-157.2255 815.8501,-160.7254 825.8501,-164.2255 825.8502,-157.2255"/>
</g>
<!-- Node158&#45;&gt;Node161 -->
<g id="edge32" class="edge">
<title>Node158&#45;&gt;Node161</title>
<path fill="none" stroke="#191970" d="M807.2103,-173.9574C811.3016,-175.6675 815.2803,-177.5831 819,-179.7254 859.2519,-202.9081 895.6239,-245.8939 910.672,-265.063"/>
<polygon fill="#191970" stroke="#191970" points="808.1207,-170.5609 797.5284,-170.3297 805.6646,-177.1159 808.1207,-170.5609"/>
</g>
<!-- Node159&#45;&gt;Node156 -->
<g id="edge30" class="edge">
<title>Node159&#45;&gt;Node156</title>
<path fill="none" stroke="#191970" d="M973.3598,-149.0383C1044.6245,-133.9936 1167.0938,-108.1389 1232.9553,-94.2348"/>
<polygon fill="#191970" stroke="#191970" points="972.2911,-145.6867 963.2297,-151.1769 973.7371,-152.5358 972.2911,-145.6867"/>
</g>
<!-- Node159&#45;&gt;Node157 -->
<g id="edge31" class="edge">
<title>Node159&#45;&gt;Node157</title>
<path fill="none" stroke="#191970" d="M981.5221,-160.7254C1051.2454,-160.7254 1161.8354,-160.7254 1226.4148,-160.7254"/>
<polygon fill="#191970" stroke="#191970" points="981.1193,-157.2255 971.1192,-160.7254 981.1192,-164.2255 981.1193,-157.2255"/>
</g>
<!-- Node160 -->
<g id="node20" class="node">
<title>Node160</title>
<g id="a_node20"><a xlink:href="classEngine.html#a0ba57971ffb5173ecc425461f65a4cd8" target="_top" xlink:title="Quits the game Sets m_running to false and quitting the game. ">
<polygon fill="none" stroke="#000000" points="1033,-189.2254 1033,-208.2254 1137,-208.2254 1137,-189.2254 1033,-189.2254"/>
<text text-anchor="middle" x="1085" y="-196.2254" font-family="Helvetica,sans-Serif" font-size="10.00" fill="#000000">Engine::quitGame</text>
</a>
</g>
</g>
<!-- Node159&#45;&gt;Node160 -->
<g id="edge26" class="edge">
<title>Node159&#45;&gt;Node160</title>
<path fill="none" stroke="#191970" d="M969.9646,-172.5497C993.5086,-177.907 1020.9737,-184.1565 1043.1619,-189.2054"/>
<polygon fill="#191970" stroke="#191970" points="970.6685,-169.1205 960.1412,-170.3144 969.1153,-175.946 970.6685,-169.1205"/>
</g>
<!-- Node160&#45;&gt;Node145 -->
<g id="edge27" class="edge">
<title>Node160&#45;&gt;Node145</title>
<path fill="none" stroke="#191970" d="M1126.9351,-211.1104C1162.5685,-221.6342 1212.9873,-236.5248 1245.5907,-246.1538"/>
<polygon fill="#191970" stroke="#191970" points="1127.8857,-207.7417 1117.3039,-208.2659 1125.903,-214.4551 1127.8857,-207.7417"/>
</g>
<!-- Node160&#45;&gt;Node156 -->
<g id="edge28" class="edge">
<title>Node160&#45;&gt;Node156</title>
<path fill="none" stroke="#191970" d="M1109.7686,-184.0953C1149.8907,-160.3962 1228.0043,-114.2565 1261.787,-94.302"/>
<polygon fill="#191970" stroke="#191970" points="1107.9532,-181.1025 1101.1231,-189.2019 1111.5133,-187.1296 1107.9532,-181.1025"/>
</g>
<!-- Node160&#45;&gt;Node157 -->
<g id="edge29" class="edge">
<title>Node160&#45;&gt;Node157</title>
<path fill="none" stroke="#191970" d="M1143.6016,-187.1873C1171.1289,-181.7674 1203.5476,-175.3844 1229.6482,-170.2455"/>
<polygon fill="#191970" stroke="#191970" points="1142.8375,-183.7704 1133.702,-189.1364 1144.1898,-190.6386 1142.8375,-183.7704"/>
</g>
<!-- Node162 -->
<g id="node22" class="node">
<title>Node162</title>
<g id="a_node22"><a xlink:href="classEngine.html#a8a53c5e52734a5158b317851361b83f2" target="_top" xlink:title="Engine::setTileIDOfNode">
<polygon fill="none" stroke="#000000" points="1017,-265.2254 1017,-284.2254 1153,-284.2254 1153,-265.2254 1017,-265.2254"/>
<text text-anchor="middle" x="1085" y="-272.2254" font-family="Helvetica,sans-Serif" font-size="10.00" fill="#000000">Engine::setTileIDOfNode</text>
</a>
</g>
</g>
<!-- Node161&#45;&gt;Node162 -->
<g id="edge33" class="edge">
<title>Node161&#45;&gt;Node162</title>
<path fill="none" stroke="#191970" d="M989.7426,-274.7254C998.7182,-274.7254 1007.8787,-274.7254 1016.7981,-274.7254"/>
<polygon fill="#191970" stroke="#191970" points="989.7102,-271.2255 979.7102,-274.7254 989.7101,-278.2255 989.7102,-271.2255"/>
</g>
<!-- Node162&#45;&gt;Node145 -->
<g id="edge34" class="edge">
<title>Node162&#45;&gt;Node145</title>
<path fill="none" stroke="#191970" d="M1163.292,-267.0179C1175.6288,-265.8034 1188.3776,-264.5483 1200.6918,-263.3361"/>
<polygon fill="#191970" stroke="#191970" points="1162.6535,-263.5637 1153.0446,-268.0267 1163.3394,-270.5301 1162.6535,-263.5637"/>
</g>
<!-- Node163&#45;&gt;Node142 -->
<g id="edge42" class="edge">
<title>Node163&#45;&gt;Node142</title>
<path fill="none" stroke="#191970" d="M369.1569,-278.1342C344.1229,-275.8881 316.6084,-272.6192 295.2781,-269.2549"/>
<polygon fill="#191970" stroke="#191970" points="369.0792,-281.6402 379.3403,-279.0019 369.6736,-274.6654 369.0792,-281.6402"/>
</g>
<!-- Node163&#45;&gt;Node143 -->
<g id="edge40" class="edge">
<title>Node163&#45;&gt;Node143</title>
<path fill="none" stroke="#191970" d="M463.8604,-264.3921C495.2913,-248.2218 545.5528,-222.3638 572.6765,-208.4095"/>
<polygon fill="#191970" stroke="#191970" points="462.048,-261.3884 454.7569,-269.0755 465.2503,-267.613 462.048,-261.3884"/>
</g>
<!-- Node163&#45;&gt;Node150 -->
<g id="edge41" class="edge">
<title>Node163&#45;&gt;Node150</title>
<path fill="none" stroke="#191970" d="M463.202,-293.0573C482.2708,-302.9232 508.4577,-316.1124 532,-326.7254 543.1699,-331.7608 555.7262,-336.9001 566.4152,-341.1243"/>
<polygon fill="#191970" stroke="#191970" points="464.6801,-289.881 454.1936,-288.3698 461.4489,-296.0906 464.6801,-289.881"/>
</g>
<!-- Node163&#45;&gt;Node161 -->
<g id="edge43" class="edge">
<title>Node163&#45;&gt;Node161</title>
<path fill="none" stroke="#191970" d="M502.915,-278.1701C596.5564,-277.393 765.3818,-275.9919 856.1945,-275.2383"/>
<polygon fill="#191970" stroke="#191970" points="502.6795,-274.6718 492.7089,-278.2548 502.7376,-281.6716 502.6795,-274.6718"/>
</g>
<!-- Node164 -->
<g id="node24" class="node">
<title>Node164</title>
<g id="a_node24"><a xlink:href="classEngine.html#addfc50e21da201426444d8b4a07b3976" target="_top" xlink:title="Engine::demolishNode">
<polygon fill="none" stroke="#000000" points="855,-303.2254 855,-322.2254 981,-322.2254 981,-303.2254 855,-303.2254"/>
<text text-anchor="middle" x="918" y="-310.2254" font-family="Helvetica,sans-Serif" font-size="10.00" fill="#000000">Engine::demolishNode</text>
</a>
</g>
</g>
<!-- Node163&#45;&gt;Node164 -->
<g id="edge37" class="edge">
<title>Node163&#45;&gt;Node164</title>
<path fill="none" stroke="#191970" d="M502.6728,-287.648C512.4959,-288.7916 522.5026,-289.8622 532,-290.7254 645.4729,-301.0393 778.1789,-307.3482 854.7194,-310.4286"/>
<polygon fill="#191970" stroke="#191970" points="502.8765,-284.1475 492.5317,-286.4356 502.0455,-291.098 502.8765,-284.1475"/>
</g>
<!-- Node164&#45;&gt;Node145 -->
<g id="edge39" class="edge">
<title>Node164&#45;&gt;Node145</title>
<path fill="none" stroke="#191970" d="M991.3445,-310.8354C1037.9714,-308.6415 1099.4287,-303.9116 1153,-293.7254 1187.984,-287.0735 1227.0721,-274.2882 1252.0725,-265.3944"/>
<polygon fill="#191970" stroke="#191970" points="991.1647,-307.3399 981.3292,-311.2786 991.4742,-314.333 991.1647,-307.3399"/>
</g>
<!-- Node164&#45;&gt;Node162 -->
<g id="edge38" class="edge">
<title>Node164&#45;&gt;Node162</title>
<path fill="none" stroke="#191970" d="M969.9646,-300.9011C993.5086,-295.5438 1020.9737,-289.2943 1043.1619,-284.2455"/>
<polygon fill="#191970" stroke="#191970" points="969.1153,-297.5048 960.1412,-303.1364 970.6685,-304.3304 969.1153,-297.5048"/>
</g>
</g>
</svg>
