<?xml version="1.0" encoding="UTF-8" standalone="no"?>
<!DOCTYPE svg PUBLIC "-//W3C//DTD SVG 1.1//EN"
 "http://www.w3.org/Graphics/SVG/1.1/DTD/svg11.dtd">
<!-- Generated by graphviz version 2.40.1 (20161225.0304)
 -->
<!-- Title: UIElement::setVisibility Pages: 1 -->
<!--zoomable 256 -->
<svg id="main" version="1.1" xmlns="http://www.w3.org/2000/svg" xmlns:xlink="http://www.w3.org/1999/xlink" xml:space="preserve" onload="init(evt)">
<style type="text/css"><![CDATA[
.edge:hover path { stroke: red; }
.edge:hover polygon { stroke: red; fill: red; }
]]></style>
<script type="text/javascript"><![CDATA[
var edges = document.getElementsByTagName('g');
if (edges && edges.length) {
  for (var i=0;i<edges.length;i++) {
    if (edges[i].id.substr(0,4)=='edge') {
      edges[i].setAttribute('class','edge');
    }
  }
}
]]></script>
        <defs>
                <circle id="rim" cx="0" cy="0" r="7"/>
                <circle id="rim2" cx="0" cy="0" r="3.5"/>
                <g id="zoomPlus">
                        <use xlink:href="#rim" fill="#404040">
                                <set attributeName="fill" to="#808080" begin="zoomplus.mouseover" end="zoomplus.mouseout"/>
                        </use>
                        <path d="M-4,0h8M0,-4v8" fill="none" stroke="white" stroke-width="1.5" pointer-events="none"/>
                </g>
                <g id="zoomMin">
                        <use xlink:href="#rim" fill="#404040">
                                <set attributeName="fill" to="#808080" begin="zoomminus.mouseover" end="zoomminus.mouseout"/>
                        </use>
                        <path d="M-4,0h8" fill="none" stroke="white" stroke-width="1.5" pointer-events="none"/>
                </g>
                <g id="dirArrow">
                        <path fill="none" stroke="white" stroke-width="1.5" d="M0,-3.0v7 M-2.5,-0.5L0,-3.0L2.5,-0.5"/>
                </g>
               <g id="resetDef">
                       <use xlink:href="#rim2" fill="#404040">
                               <set attributeName="fill" to="#808080" begin="reset.mouseover" end="reset.mouseout"/>
                       </use>
               </g>
        </defs>

<script type="text/javascript">
var viewWidth = 912;
var viewHeight = 256;
var sectionId = 'dynsection-39';
</script>
<script xlink:href="svgpan.js"/>
<svg id="graph" class="graph">
<g id="viewport">
<title>UIElement::setVisibility</title>
<!-- Node285 -->
<g id="node1" class="node">
<title>Node285</title>
<polygon fill="#bfbfbf" stroke="#000000" points="0,-114.5 0,-133.5 131,-133.5 131,-114.5 0,-114.5"/>
<text text-anchor="middle" x="65.5" y="-121.5" font-family="Helvetica,sans-Serif" font-size="10.00" fill="#000000">UIElement::setVisibility</text>
</g>
<!-- Node286 -->
<g id="node2" class="node">
<title>Node286</title>
<g id="a_node2"><a xlink:href="classTooltip.html#a46a4bafd52456186b1fc7f48a554f8ef" target="_top" xlink:title="Tooltip::Tooltip">
<polygon fill="none" stroke="#000000" points="426.5,-209.5 426.5,-228.5 513.5,-228.5 513.5,-209.5 426.5,-209.5"/>
<text text-anchor="middle" x="470" y="-216.5" font-family="Helvetica,sans-Serif" font-size="10.00" fill="#000000">Tooltip::Tooltip</text>
</a>
</g>
</g>
<!-- Node285&#45;&gt;Node286 -->
<g id="edge1" class="edge">
<title>Node285&#45;&gt;Node286</title>
<path fill="none" stroke="#191970" d="M86.7828,-139.2049C106.5697,-152.526 137.3702,-171.2393 167,-181 256.0014,-210.3188 366.5424,-217.2668 426.4535,-218.7589"/>
<polygon fill="#191970" stroke="#191970" points="88.7331,-136.2984 78.5103,-133.5154 84.7664,-142.066 88.7331,-136.2984"/>
</g>
<!-- Node287 -->
<g id="node3" class="node">
<title>Node287</title>
<g id="a_node3"><a xlink:href="classTooltip.html#ac48e36748acaf4cdd9838288f7732cc2" target="_top" xlink:title="starts the countdown to when the Tooltip appears starts the timer for the countdown to when the Toolt...">
<polygon fill="none" stroke="#000000" points="203,-152.5 203,-171.5 309,-171.5 309,-152.5 203,-152.5"/>
<text text-anchor="middle" x="256" y="-159.5" font-family="Helvetica,sans-Serif" font-size="10.00" fill="#000000">Tooltip::startTimer</text>
</a>
</g>
</g>
<!-- Node285&#45;&gt;Node287 -->
<g id="edge2" class="edge">
<title>Node285&#45;&gt;Node287</title>
<path fill="none" stroke="#191970" d="M123.7003,-135.6095C150.7938,-141.014 182.625,-147.3635 208.2745,-152.4799"/>
<polygon fill="#191970" stroke="#191970" points="124.0627,-132.1129 113.5712,-133.589 122.6933,-138.9777 124.0627,-132.1129"/>
</g>
<!-- Node288 -->
<g id="node4" class="node">
<title>Node288</title>
<g id="a_node4"><a xlink:href="classTooltip.html#ab7c16dc309b2b97523e842c57b0534eb" target="_top" xlink:title="makes the Tooltip visible makes the Tooltip visible ">
<polygon fill="none" stroke="#000000" points="199.5,-228.5 199.5,-247.5 312.5,-247.5 312.5,-228.5 199.5,-228.5"/>
<text text-anchor="middle" x="256" y="-235.5" font-family="Helvetica,sans-Serif" font-size="10.00" fill="#000000">Tooltip::showTooltip</text>
</a>
</g>
</g>
<!-- Node285&#45;&gt;Node288 -->
<g id="edge3" class="edge">
<title>Node285&#45;&gt;Node288</title>
<path fill="none" stroke="#191970" d="M80.3563,-141.3478C98.7069,-161.6936 131.8343,-195.0435 167,-214 178.5513,-220.2269 191.8339,-224.9271 204.5536,-228.4397"/>
<polygon fill="#191970" stroke="#191970" points="82.8894,-138.9287 73.6463,-133.7504 77.6428,-143.5626 82.8894,-138.9287"/>
</g>
<!-- Node289 -->
<g id="node5" class="node">
<title>Node289</title>
<g id="a_node5"><a xlink:href="classTooltip.html#ad451a89f3aaaa61d6cef9ea4ba590c68" target="_top" xlink:title="resets the Tooltip Hides and deactivates the Tooltip and stops the timer ">
<polygon fill="none" stroke="#000000" points="216,-114.5 216,-133.5 296,-133.5 296,-114.5 216,-114.5"/>
<text text-anchor="middle" x="256" y="-121.5" font-family="Helvetica,sans-Serif" font-size="10.00" fill="#000000">Tooltip::reset</text>
</a>
</g>
</g>
<!-- Node285&#45;&gt;Node289 -->
<g id="edge5" class="edge">
<title>Node285&#45;&gt;Node289</title>
<path fill="none" stroke="#191970" d="M141.1134,-124C166.6679,-124 194.1937,-124 215.8944,-124"/>
<polygon fill="#191970" stroke="#191970" points="141.0593,-120.5001 131.0593,-124 141.0593,-127.5001 141.0593,-120.5001"/>
</g>
<!-- Node290 -->
<g id="node6" class="node">
<title>Node290</title>
<g id="a_node6"><a xlink:href="classUIManager.html#a23bbbe53c18c31ff1c68c105dfa0dbd3" target="_top" xlink:title="Callback function for toggling the visibility of an UiGroup Callback function for Ui Widgets with the...">
<polygon fill="none" stroke="#000000" points="167,-76.5 167,-95.5 345,-95.5 345,-76.5 167,-76.5"/>
<text text-anchor="middle" x="256" y="-83.5" font-family="Helvetica,sans-Serif" font-size="10.00" fill="#000000">UIManager::toggleGroupVisibility</text>
</a>
</g>
</g>
<!-- Node285&#45;&gt;Node290 -->
<g id="edge6" class="edge">
<title>Node285&#45;&gt;Node290</title>
<path fill="none" stroke="#191970" d="M123.7003,-112.3905C150.7938,-106.986 182.625,-100.6365 208.2745,-95.5201"/>
<polygon fill="#191970" stroke="#191970" points="122.6933,-109.0223 113.5712,-114.411 124.0627,-115.8871 122.6933,-109.0223"/>
</g>
<!-- Node297 -->
<g id="node13" class="node">
<title>Node297</title>
<g id="a_node13"><a xlink:href="classUIManager.html#aae7a89e9d50bb6192e4140e07bd5f94b" target="_top" xlink:title="UIManager::createBuildMenu">
<polygon fill="none" stroke="#000000" points="177.5,-.5 177.5,-19.5 334.5,-19.5 334.5,-.5 177.5,-.5"/>
<text text-anchor="middle" x="256" y="-7.5" font-family="Helvetica,sans-Serif" font-size="10.00" fill="#000000">UIManager::createBuildMenu</text>
</a>
</g>
</g>
<!-- Node285&#45;&gt;Node297 -->
<g id="edge13" class="edge">
<title>Node285&#45;&gt;Node297</title>
<path fill="none" stroke="#191970" d="M80.3563,-106.6522C98.7069,-86.3064 131.8343,-52.9565 167,-34 178.5513,-27.7731 191.8339,-23.0729 204.5536,-19.5603"/>
<polygon fill="#191970" stroke="#191970" points="77.6428,-104.4374 73.6463,-114.2496 82.8894,-109.0713 77.6428,-104.4374"/>
</g>
<!-- Node298 -->
<g id="node14" class="node">
<title>Node298</title>
<g id="a_node14"><a xlink:href="classGame.html#a5ed7fc5be77080f7f6dd5363f7f007a1" target="_top" xlink:title="initializes and displays the main menu initializes and displays the main menu ">
<polygon fill="none" stroke="#000000" points="595,-57.5 595,-76.5 698,-76.5 698,-57.5 595,-57.5"/>
<text text-anchor="middle" x="646.5" y="-64.5" font-family="Helvetica,sans-Serif" font-size="10.00" fill="#000000">Game::mainMenu</text>
</a>
</g>
</g>
<!-- Node285&#45;&gt;Node298 -->
<g id="edge14" class="edge">
<title>Node285&#45;&gt;Node298</title>
<path fill="none" stroke="#191970" d="M85.8655,-108.3798C105.4427,-94.4228 136.4802,-74.9832 167,-67 318.208,-27.4476 505.5348,-45.9105 594.6707,-58.5663"/>
<polygon fill="#191970" stroke="#191970" points="83.7195,-105.6132 77.7201,-114.3458 87.8558,-111.2605 83.7195,-105.6132"/>
</g>
<!-- Node288&#45;&gt;Node286 -->
<g id="edge4" class="edge">
<title>Node288&#45;&gt;Node286</title>
<path fill="none" stroke="#191970" d="M322.774,-232.0715C356.5673,-229.0711 396.6258,-225.5145 426.4198,-222.8693"/>
<polygon fill="#191970" stroke="#191970" points="322.1572,-228.6124 312.5059,-232.9831 322.7763,-235.5849 322.1572,-228.6124"/>
</g>
<!-- Node291 -->
<g id="node7" class="node">
<title>Node291</title>
<g id="a_node7"><a xlink:href="classEventManager.html#a65ec91fd5016d4f9c4167fb8babed2df" target="_top" xlink:title="EventManager::checkEvents">
<polygon fill="none" stroke="#000000" points="393,-114.5 393,-133.5 547,-133.5 547,-114.5 393,-114.5"/>
<text text-anchor="middle" x="470" y="-121.5" font-family="Helvetica,sans-Serif" font-size="10.00" fill="#000000">EventManager::checkEvents</text>
</a>
</g>
</g>
<!-- Node290&#45;&gt;Node291 -->
<g id="edge7" class="edge">
<title>Node290&#45;&gt;Node291</title>
<path fill="none" stroke="#191970" d="M319.9013,-97.347C350.6053,-102.7991 386.9942,-109.2607 416.2529,-114.4561"/>
<polygon fill="#191970" stroke="#191970" points="320.1829,-93.8423 309.725,-95.54 318.959,-100.7345 320.1829,-93.8423"/>
</g>
<!-- Node296 -->
<g id="node12" class="node">
<title>Node296</title>
<g id="a_node12"><a xlink:href="classUIManager.html#aa78e356fc3b356d790c848319d1c387e" target="_top" xlink:title="UIManager::setCallbackFunctions">
<polygon fill="none" stroke="#000000" points="381,-76.5 381,-95.5 559,-95.5 559,-76.5 381,-76.5"/>
<text text-anchor="middle" x="470" y="-83.5" font-family="Helvetica,sans-Serif" font-size="10.00" fill="#000000">UIManager::setCallbackFunctions</text>
</a>
</g>
</g>
<!-- Node290&#45;&gt;Node296 -->
<g id="edge12" class="edge">
<title>Node290&#45;&gt;Node296</title>
<path fill="none" stroke="#191970" d="M355.2299,-86C363.8066,-86 372.4503,-86 380.9388,-86"/>
<polygon fill="#191970" stroke="#191970" points="355.2057,-82.5001 345.2057,-86 355.2056,-89.5001 355.2057,-82.5001"/>
</g>
<!-- Node292 -->
<g id="node8" class="node">
<title>Node292</title>
<g id="a_node8"><a xlink:href="classGame.html#a1c2ab25d5216b2f4b2fe41efd2c09114" target="_top" xlink:title="begins the game starts running the game ">
<polygon fill="none" stroke="#000000" points="612.5,-95.5 612.5,-114.5 680.5,-114.5 680.5,-95.5 612.5,-95.5"/>
<text text-anchor="middle" x="646.5" y="-102.5" font-family="Helvetica,sans-Serif" font-size="10.00" fill="#000000">Game::run</text>
</a>
</g>
</g>
<!-- Node291&#45;&gt;Node292 -->
<g id="edge8" class="edge">
<title>Node291&#45;&gt;Node292</title>
<path fill="none" stroke="#191970" d="M557.3664,-114.5951C576.9355,-112.4885 596.5625,-110.3757 612.398,-108.671"/>
<polygon fill="#191970" stroke="#191970" points="556.7266,-111.1437 547.1587,-115.694 557.4759,-118.1035 556.7266,-111.1437"/>
</g>
<!-- Node293 -->
<g id="node9" class="node">
<title>Node293</title>
<g id="a_node9"><a xlink:href="classGame.html#ad59df6562a58a614fda24622d3715b65" target="_top" xlink:title="Game::Game">
<polygon fill="none" stroke="#000000" points="740,-95.5 740,-114.5 821,-114.5 821,-95.5 740,-95.5"/>
<text text-anchor="middle" x="780.5" y="-102.5" font-family="Helvetica,sans-Serif" font-size="10.00" fill="#000000">Game::Game</text>
</a>
</g>
</g>
<!-- Node292&#45;&gt;Node293 -->
<g id="edge9" class="edge">
<title>Node292&#45;&gt;Node293</title>
<path fill="none" stroke="#191970" d="M690.721,-105C706.5165,-105 724.2293,-105 739.7213,-105"/>
<polygon fill="#191970" stroke="#191970" points="690.6606,-101.5001 680.6606,-105 690.6605,-108.5001 690.6606,-101.5001"/>
</g>
<!-- Node294 -->
<g id="node10" class="node">
<title>Node294</title>
<g id="a_node10"><a xlink:href="main_8cxx.html#af582d708d899e67ead623eac34a22387" target="_top" xlink:title="protected_main">
<polygon fill="none" stroke="#000000" points="734,-57.5 734,-76.5 827,-76.5 827,-57.5 734,-57.5"/>
<text text-anchor="middle" x="780.5" y="-64.5" font-family="Helvetica,sans-Serif" font-size="10.00" fill="#000000">protected_main</text>
</a>
</g>
</g>
<!-- Node292&#45;&gt;Node294 -->
<g id="edge10" class="edge">
<title>Node292&#45;&gt;Node294</title>
<path fill="none" stroke="#191970" d="M689.9383,-92.6817C708.3491,-87.4607 729.4798,-81.4684 746.697,-76.5859"/>
<polygon fill="#191970" stroke="#191970" points="688.9796,-89.3155 680.3139,-95.411 690.8894,-96.0499 688.9796,-89.3155"/>
</g>
<!-- Node295 -->
<g id="node11" class="node">
<title>Node295</title>
<g id="a_node11"><a xlink:href="main_8cxx.html#a3c04138a5bfe5d72780bb7e82a18e627" target="_top" xlink:title="main">
<polygon fill="none" stroke="#000000" points="863,-57.5 863,-76.5 904,-76.5 904,-57.5 863,-57.5"/>
<text text-anchor="middle" x="883.5" y="-64.5" font-family="Helvetica,sans-Serif" font-size="10.00" fill="#000000">main</text>
</a>
</g>
</g>
<!-- Node294&#45;&gt;Node295 -->
<g id="edge11" class="edge">
<title>Node294&#45;&gt;Node295</title>
<path fill="none" stroke="#191970" d="M837.2133,-67C846.4322,-67 855.4259,-67 862.9965,-67"/>
<polygon fill="#191970" stroke="#191970" points="837.1782,-63.5001 827.1782,-67 837.1781,-70.5001 837.1782,-63.5001"/>
</g>
<!-- Node298&#45;&gt;Node293 -->
<g id="edge15" class="edge">
<title>Node298&#45;&gt;Node293</title>
<path fill="none" stroke="#191970" d="M689.9383,-79.3183C708.3491,-84.5393 729.4798,-90.5316 746.697,-95.4141"/>
<polygon fill="#191970" stroke="#191970" points="690.8894,-75.9501 680.3139,-76.589 688.9796,-82.6845 690.8894,-75.9501"/>
</g>
<!-- Node298&#45;&gt;Node294 -->
<g id="edge16" class="edge">
<title>Node298&#45;&gt;Node294</title>
<path fill="none" stroke="#191970" d="M708.5242,-67C716.9726,-67 725.5272,-67 733.6465,-67"/>
<polygon fill="#191970" stroke="#191970" points="708.3079,-63.5001 698.3079,-67 708.3079,-70.5001 708.3079,-63.5001"/>
</g>
</g>
</svg>
        <g id="navigator" transform="translate(0 0)" fill="#404254">
                <rect fill="#f2f5e9" fill-opacity="0.5" stroke="#606060" stroke-width=".5" x="0" y="0" width="60" height="60"/>
                <use id="zoomplus" xlink:href="#zoomPlus" x="17" y="9" onmousedown="handleZoom(evt,'in')"/>
                <use id="zoomminus" xlink:href="#zoomMin" x="42" y="9" onmousedown="handleZoom(evt,'out')"/>
                <use id="reset" xlink:href="#resetDef" x="30" y="36" onmousedown="handleReset()"/>
                <g id="arrowUp" xlink:href="#dirArrow" transform="translate(30 24)" onmousedown="handlePan(0,-1)">
                  <use xlink:href="#rim" fill="#404040">
                        <set attributeName="fill" to="#808080" begin="arrowUp.mouseover" end="arrowUp.mouseout"/>
                  </use>
                  <path fill="none" stroke="white" stroke-width="1.5" d="M0,-3.0v7 M-2.5,-0.5L0,-3.0L2.5,-0.5"/>
                </g>
                <g id="arrowRight" xlink:href="#dirArrow" transform="rotate(90) translate(36 -43)" onmousedown="handlePan(1,0)">
                  <use xlink:href="#rim" fill="#404040">
                        <set attributeName="fill" to="#808080" begin="arrowRight.mouseover" end="arrowRight.mouseout"/>
                  </use>
                  <path fill="none" stroke="white" stroke-width="1.5" d="M0,-3.0v7 M-2.5,-0.5L0,-3.0L2.5,-0.5"/>
                </g>
                <g id="arrowDown" xlink:href="#dirArrow" transform="rotate(180) translate(-30 -48)" onmousedown="handlePan(0,1)">
                  <use xlink:href="#rim" fill="#404040">
                        <set attributeName="fill" to="#808080" begin="arrowDown.mouseover" end="arrowDown.mouseout"/>
                  </use>
                  <path fill="none" stroke="white" stroke-width="1.5" d="M0,-3.0v7 M-2.5,-0.5L0,-3.0L2.5,-0.5"/>
                </g>
                <g id="arrowLeft" xlink:href="#dirArrow" transform="rotate(270) translate(-36 17)" onmousedown="handlePan(-1,0)">
                  <use xlink:href="#rim" fill="#404040">
                        <set attributeName="fill" to="#808080" begin="arrowLeft.mouseover" end="arrowLeft.mouseout"/>
                  </use>
                  <path fill="none" stroke="white" stroke-width="1.5" d="M0,-3.0v7 M-2.5,-0.5L0,-3.0L2.5,-0.5"/>
                </g>
        </g>
        <svg viewBox="0 0 15 15" width="100%" height="30px" preserveAspectRatio="xMaxYMin meet">
         <g id="arrow_out" transform="scale(0.3 0.3)">
          <a xlink:href="classUIElement_a440d645aa10dbf7d3c763ba6e1fc33a6_icgraph_org.svg" target="_base">
           <rect id="button" ry="5" rx="5" y="6" x="6" height="38" width="38"
                fill="#f2f5e9" fill-opacity="0.5" stroke="#606060" stroke-width="1.0"/>
           <path id="arrow"
             d="M 11.500037,31.436501 C 11.940474,20.09759 22.043105,11.32322 32.158766,21.979434 L 37.068811,17.246167 C 37.068811,17.246167 37.088388,32 37.088388,32 L 22.160133,31.978069 C 22.160133,31.978069 26.997745,27.140456 26.997745,27.140456 C 18.528582,18.264221 13.291696,25.230495 11.500037,31.436501 z"
             style="fill:#404040;"/>
          </a>
         </g>
        </svg>
</svg>
