<?xml version="1.0" encoding="UTF-8" standalone="no"?>
<!DOCTYPE svg PUBLIC "-//W3C//DTD SVG 1.1//EN"
 "http://www.w3.org/Graphics/SVG/1.1/DTD/svg11.dtd">
<!-- Generated by graphviz version 2.40.1 (20161225.0304)
 -->
<!-- Title: Map::demolishNode Pages: 1 -->
<svg width="651pt" height="203pt"
 viewBox="0.00 0.00 651.00 203.00" xmlns="http://www.w3.org/2000/svg" xmlns:xlink="http://www.w3.org/1999/xlink">
<g id="graph0" class="graph" transform="scale(1 1) rotate(0) translate(4 199)">
<title>Map::demolishNode</title>
<!-- Node58 -->
<g id="node1" class="node">
<title>Node58</title>
<polygon fill="#bfbfbf" stroke="#000000" points="0,-57.5 0,-76.5 113,-76.5 113,-57.5 0,-57.5"/>
<text text-anchor="middle" x="56.5" y="-64.5" font-family="Helvetica,sans-Serif" font-size="10.00" fill="#000000">Map::demolishNode</text>
</g>
<!-- Node59 -->
<g id="node2" class="node">
<title>Node59</title>
<g id="a_node2"><a xlink:href="classMap.html#a59d21f2688713fbcfe320eb1b24405ca" target="_top" xlink:title="Update mapNode and its adjacent tiles Updates mapNode height information, draws slopes for adjacent t...">
<polygon fill="none" stroke="#000000" points="149,-76.5 149,-95.5 312,-95.5 312,-76.5 149,-76.5"/>
<text text-anchor="middle" x="230.5" y="-83.5" font-family="Helvetica,sans-Serif" font-size="10.00" fill="#000000">Map::updateNeighborsOfNode</text>
</a>
</g>
</g>
<!-- Node58&#45;&gt;Node59 -->
<g id="edge1" class="edge">
<title>Node58&#45;&gt;Node59</title>
<path fill="none" stroke="#191970" d="M113.4741,-66.8421C136.4903,-68.7649 162.7023,-71.7419 184.4762,-74.9395"/>
<polygon fill="#191970" stroke="#191970" points="184.0416,-78.4137 194.457,-76.4721 185.104,-71.4948 184.0416,-78.4137"/>
</g>
<!-- Node59&#45;&gt;Node58 -->
<g id="edge4" class="edge">
<title>Node59&#45;&gt;Node58</title>
<path fill="none" stroke="#191970" d="M148.931,-83.8313C133.0073,-82.1613 116.84,-80.162 102.574,-78.0678"/>
<polygon fill="#191970" stroke="#191970" points="102.9682,-74.5874 92.5529,-76.5295 101.9061,-81.5064 102.9682,-74.5874"/>
</g>
<!-- Node60 -->
<g id="node3" class="node">
<title>Node60</title>
<g id="a_node3"><a xlink:href="classMap.html#aab37e4a52faf81e9b696b8cf1bd9a690" target="_top" xlink:title="Get neighbor MapNode Objects Stores pointers to the neighboring nodes of the given coordinates in the...">
<polygon fill="none" stroke="#000000" points="367,-175.5 367,-194.5 475,-194.5 475,-175.5 367,-175.5"/>
<text text-anchor="middle" x="421" y="-182.5" font-family="Helvetica,sans-Serif" font-size="10.00" fill="#000000">Map::getNeighbors</text>
</a>
</g>
</g>
<!-- Node59&#45;&gt;Node60 -->
<g id="edge2" class="edge">
<title>Node59&#45;&gt;Node60</title>
<path fill="none" stroke="#191970" d="M241.7051,-95.6086C261.725,-112.3022 305.5298,-146.7177 348,-166 353.3473,-168.4278 359.0613,-170.588 364.8493,-172.5"/>
<polygon fill="#191970" stroke="#191970" points="364.0219,-175.907 374.6084,-175.4866 366.0704,-169.2134 364.0219,-175.907"/>
</g>
<!-- Node61 -->
<g id="node4" class="node">
<title>Node61</title>
<g id="a_node4"><a xlink:href="classMap.html#a0ff55eb041cdf29aa582a21145319ce0" target="_top" xlink:title="Get elevated neighbor positions in a bitmask Checks all neighboring tiles and returns the elevated ne...">
<polygon fill="none" stroke="#000000" points="348,-126 348,-156 494,-156 494,-126 348,-126"/>
<text text-anchor="start" x="356" y="-144" font-family="Helvetica,sans-Serif" font-size="10.00" fill="#000000">Map::getElevatedNeighbor</text>
<text text-anchor="middle" x="421" y="-133" font-family="Helvetica,sans-Serif" font-size="10.00" fill="#000000">Bitmask</text>
</a>
</g>
</g>
<!-- Node59&#45;&gt;Node61 -->
<g id="edge3" class="edge">
<title>Node59&#45;&gt;Node61</title>
<path fill="none" stroke="#191970" d="M263.6826,-95.5803C289.9596,-103.1668 327.3993,-113.9762 359.1624,-123.1466"/>
<polygon fill="#191970" stroke="#191970" points="358.2406,-126.5234 368.8191,-125.9346 360.1824,-119.7981 358.2406,-126.5234"/>
</g>
<!-- Node62 -->
<g id="node5" class="node">
<title>Node62</title>
<g id="a_node5"><a xlink:href="classMap.html#a392940f84796653b8e811ed8dc296c84" target="_top" xlink:title="Get a bitmask that represents same&#45;tile neighbors Checks all neighboring tiles and returns the elevat...">
<polygon fill="none" stroke="#000000" points="350.5,-77 350.5,-107 491.5,-107 491.5,-77 350.5,-77"/>
<text text-anchor="start" x="358.5" y="-95" font-family="Helvetica,sans-Serif" font-size="10.00" fill="#000000">Map::getNeighboringTiles</text>
<text text-anchor="middle" x="421" y="-84" font-family="Helvetica,sans-Serif" font-size="10.00" fill="#000000">Bitmask</text>
</a>
</g>
</g>
<!-- Node59&#45;&gt;Node62 -->
<g id="edge5" class="edge">
<title>Node59&#45;&gt;Node62</title>
<path fill="none" stroke="#191970" d="M312.1182,-88.5707C321.4625,-88.865 330.9856,-89.1649 340.3177,-89.4588"/>
<polygon fill="#191970" stroke="#191970" points="340.2461,-92.9582 350.3514,-89.7748 340.4666,-85.9617 340.2461,-92.9582"/>
</g>
<!-- Node63 -->
<g id="node6" class="node">
<title>Node63</title>
<g id="a_node6"><a xlink:href="classMap.html#aba5154a4d917900679a3c0f7ec701561" target="_top" xlink:title="Increase Height Increases the height of the node and checks the surrounding tiles. Either draw a slope sprite or elevate the tile if necessary. ">
<polygon fill="none" stroke="#000000" points="363,-38.5 363,-57.5 479,-57.5 479,-38.5 363,-38.5"/>
<text text-anchor="middle" x="421" y="-45.5" font-family="Helvetica,sans-Serif" font-size="10.00" fill="#000000">Map::increaseHeight</text>
</a>
</g>
</g>
<!-- Node59&#45;&gt;Node63 -->
<g id="edge6" class="edge">
<title>Node59&#45;&gt;Node63</title>
<path fill="none" stroke="#191970" d="M255.0146,-76.4076C279.7092,-69.6369 318.9363,-61.2138 353.0567,-55.0558"/>
<polygon fill="#191970" stroke="#191970" points="353.7534,-58.487 362.9929,-53.3022 352.5368,-51.5936 353.7534,-58.487"/>
</g>
<!-- Node65 -->
<g id="node8" class="node">
<title>Node65</title>
<g id="a_node8"><a xlink:href="classMap.html#afb8cc864df90d273a5074872d635dc40" target="_top" xlink:title="Decrease Height Decreases the height of the node and checks the surrounding tiles. Either draw a slope sprite or lower the tile if necessary. ">
<polygon fill="none" stroke="#000000" points="361.5,-.5 361.5,-19.5 480.5,-19.5 480.5,-.5 361.5,-.5"/>
<text text-anchor="middle" x="421" y="-7.5" font-family="Helvetica,sans-Serif" font-size="10.00" fill="#000000">Map::decreaseHeight</text>
</a>
</g>
</g>
<!-- Node59&#45;&gt;Node65 -->
<g id="edge10" class="edge">
<title>Node59&#45;&gt;Node65</title>
<path fill="none" stroke="#191970" d="M239.0851,-76.3292C258.1469,-61.3918 305.6653,-35.6044 348,-20 349.2096,-19.5542 350.4341,-19.1145 351.6705,-18.6818"/>
<polygon fill="#191970" stroke="#191970" points="352.9253,-21.9537 361.3358,-15.5105 350.743,-15.3026 352.9253,-21.9537"/>
</g>
<!-- Node63&#45;&gt;Node58 -->
<g id="edge8" class="edge">
<title>Node63&#45;&gt;Node58</title>
<path fill="none" stroke="#191970" d="M362.8058,-51.0334C297.5468,-54.4351 191.8945,-59.9424 123.3117,-63.5174"/>
<polygon fill="#191970" stroke="#191970" points="122.8574,-60.0362 113.0532,-64.0521 123.2219,-67.0267 122.8574,-60.0362"/>
</g>
<!-- Node63&#45;&gt;Node59 -->
<g id="edge9" class="edge">
<title>Node63&#45;&gt;Node59</title>
<path fill="none" stroke="#191970" d="M396.8126,-57.5025C377.6554,-62.7712 349.6076,-69.0552 321.9828,-74.4968"/>
<polygon fill="#191970" stroke="#191970" points="320.9942,-71.1231 311.8417,-76.46 322.3247,-77.9955 320.9942,-71.1231"/>
</g>
<!-- Node64 -->
<g id="node7" class="node">
<title>Node64</title>
<g id="a_node7"><a xlink:href="classSingleton.html#af5cb1e5749949e2b68416cfb8d378044" target="_top" xlink:title="Get an instance of the singleton. ">
<polygon fill="none" stroke="#000000" points="530,-33 530,-63 643,-63 643,-33 530,-33"/>
<text text-anchor="start" x="538" y="-51" font-family="Helvetica,sans-Serif" font-size="10.00" fill="#000000">Singleton&lt; Settings</text>
<text text-anchor="middle" x="586.5" y="-40" font-family="Helvetica,sans-Serif" font-size="10.00" fill="#000000"> &gt;::instance</text>
</a>
</g>
</g>
<!-- Node63&#45;&gt;Node64 -->
<g id="edge7" class="edge">
<title>Node63&#45;&gt;Node64</title>
<path fill="none" stroke="#191970" d="M479.3491,-48C492.4012,-48 506.3429,-48 519.7073,-48"/>
<polygon fill="#191970" stroke="#191970" points="519.7903,-51.5001 529.7903,-48 519.7903,-44.5001 519.7903,-51.5001"/>
</g>
<!-- Node65&#45;&gt;Node58 -->
<g id="edge11" class="edge">
<title>Node65&#45;&gt;Node58</title>
<path fill="none" stroke="#191970" d="M361.477,-18.1294C306.3071,-25.8122 221.9904,-37.9298 149,-50 138.3931,-51.754 127.1233,-53.7304 116.2332,-55.6987"/>
<polygon fill="#191970" stroke="#191970" points="115.5788,-52.2602 106.3689,-57.4974 116.8345,-59.1466 115.5788,-52.2602"/>
</g>
<!-- Node65&#45;&gt;Node59 -->
<g id="edge12" class="edge">
<title>Node65&#45;&gt;Node59</title>
<path fill="none" stroke="#191970" d="M406.7525,-19.5554C391.8515,-25.0031 367.9061,-30.6627 348,-38 321.3812,-47.8115 292.7131,-61.649 270.3581,-72.182"/>
<polygon fill="#191970" stroke="#191970" points="268.7625,-69.0643 261.1882,-76.4725 271.7291,-75.4046 268.7625,-69.0643"/>
</g>
</g>
</svg>
