<?xml version="1.0" encoding="UTF-8" standalone="no"?>
<!DOCTYPE svg PUBLIC "-//W3C//DTD SVG 1.1//EN"
 "http://www.w3.org/Graphics/SVG/1.1/DTD/svg11.dtd">
<!-- Generated by graphviz version 2.40.1 (20161225.0304)
 -->
<!-- Title: MapNode::MapNode Pages: 1 -->
<svg width="636pt" height="150pt"
 viewBox="0.00 0.00 636.00 150.00" xmlns="http://www.w3.org/2000/svg" xmlns:xlink="http://www.w3.org/1999/xlink">
<g id="graph0" class="graph" transform="scale(1 1) rotate(0) translate(4 146)">
<title>MapNode::MapNode</title>
<!-- Node0 -->
<g id="node1" class="node">
<title>Node0</title>
<polygon fill="#bfbfbf" stroke="#000000" points="0,-67 0,-86 114,-86 114,-67 0,-67"/>
<text text-anchor="middle" x="57" y="-74" font-family="Helvetica,sans-Serif" font-size="10.00" fill="#000000">MapNode::MapNode</text>
</g>
<!-- Node1 -->
<g id="node2" class="node">
<title>Node1</title>
<g id="a_node2"><a xlink:href="classMapNode.html#a397a62e9263feef6c9c85b4e17ef31cb" target="_top" xlink:title="MapNode::setTileID">
<polygon fill="none" stroke="#000000" points="150,-86 150,-105 262,-105 262,-86 150,-86"/>
<text text-anchor="middle" x="206" y="-93" font-family="Helvetica,sans-Serif" font-size="10.00" fill="#000000">MapNode::setTileID</text>
</a>
</g>
</g>
<!-- Node0&#45;&gt;Node1 -->
<g id="edge1" class="edge">
<title>Node0&#45;&gt;Node1</title>
<path fill="none" stroke="#191970" d="M114.1812,-83.7916C122.5572,-84.8596 131.2425,-85.9672 139.7808,-87.0559"/>
<polygon fill="#191970" stroke="#191970" points="139.3469,-90.5289 149.7093,-88.322 140.2324,-83.5851 139.3469,-90.5289"/>
</g>
<!-- Node4 -->
<g id="node5" class="node">
<title>Node4</title>
<g id="a_node5"><a xlink:href="classMapNode.html#a0951fd739ee0a3e0263ef412596811dd" target="_top" xlink:title="MapNode::updateTexture">
<polygon fill="none" stroke="#000000" points="299,-48 299,-67 437,-67 437,-48 299,-48"/>
<text text-anchor="middle" x="368" y="-55" font-family="Helvetica,sans-Serif" font-size="10.00" fill="#000000">MapNode::updateTexture</text>
</a>
</g>
</g>
<!-- Node0&#45;&gt;Node4 -->
<g id="edge8" class="edge">
<title>Node0&#45;&gt;Node4</title>
<path fill="none" stroke="#191970" d="M114.0422,-73.0151C163.0718,-70.0197 234.2859,-65.669 288.8338,-62.3365"/>
<polygon fill="#191970" stroke="#191970" points="289.0482,-65.83 298.8161,-61.7267 288.6212,-58.8431 289.0482,-65.83"/>
</g>
<!-- Node2 -->
<g id="node3" class="node">
<title>Node2</title>
<g id="a_node3"><a xlink:href="classSingleton.html#af5cb1e5749949e2b68416cfb8d378044" target="_top" xlink:title="Get an instance of the singleton. ">
<polygon fill="none" stroke="#000000" points="484,-111.5 484,-141.5 618,-141.5 618,-111.5 484,-111.5"/>
<text text-anchor="start" x="492" y="-129.5" font-family="Helvetica,sans-Serif" font-size="10.00" fill="#000000">Singleton&lt; TileManager</text>
<text text-anchor="middle" x="551" y="-118.5" font-family="Helvetica,sans-Serif" font-size="10.00" fill="#000000"> &gt;::instance</text>
</a>
</g>
</g>
<!-- Node1&#45;&gt;Node2 -->
<g id="edge2" class="edge">
<title>Node1&#45;&gt;Node2</title>
<path fill="none" stroke="#191970" d="M245.6232,-105.0965C261.7737,-108.6375 280.6864,-112.3152 298,-114.5 356.6717,-121.9038 423.5204,-124.8404 473.7631,-125.96"/>
<polygon fill="#191970" stroke="#191970" points="473.8335,-129.4621 483.9027,-126.1664 473.976,-122.4635 473.8335,-129.4621"/>
</g>
<!-- Node3 -->
<g id="node4" class="node">
<title>Node3</title>
<g id="a_node4"><a xlink:href="classTileManager.html#a0635992377296446c67c5d41b48e8826" target="_top" xlink:title="TileManager::getTileData">
<polygon fill="none" stroke="#000000" points="298,-86 298,-105 438,-105 438,-86 298,-86"/>
<text text-anchor="middle" x="368" y="-93" font-family="Helvetica,sans-Serif" font-size="10.00" fill="#000000">TileManager::getTileData</text>
</a>
</g>
</g>
<!-- Node1&#45;&gt;Node3 -->
<g id="edge3" class="edge">
<title>Node1&#45;&gt;Node3</title>
<path fill="none" stroke="#191970" d="M262.2051,-95.5C270.4812,-95.5 279.1395,-95.5 287.7859,-95.5"/>
<polygon fill="#191970" stroke="#191970" points="287.9069,-99.0001 297.9069,-95.5 287.9068,-92.0001 287.9069,-99.0001"/>
</g>
<!-- Node1&#45;&gt;Node4 -->
<g id="edge4" class="edge">
<title>Node1&#45;&gt;Node4</title>
<path fill="none" stroke="#191970" d="M246.8794,-85.911C268.3534,-80.8739 294.8605,-74.6562 317.597,-69.3229"/>
<polygon fill="#191970" stroke="#191970" points="318.4781,-72.7113 327.4145,-67.0201 316.8795,-65.8963 318.4781,-72.7113"/>
</g>
<!-- Node4&#45;&gt;Node2 -->
<g id="edge5" class="edge">
<title>Node4&#45;&gt;Node2</title>
<path fill="none" stroke="#191970" d="M407.2009,-67.0171C417.328,-69.781 428.1494,-73.0065 438,-76.5 462.8337,-85.3073 489.8494,-97.1729 511.2369,-107.1349"/>
<polygon fill="#191970" stroke="#191970" points="509.7981,-110.326 520.3367,-111.4164 512.7783,-103.992 509.7981,-110.326"/>
</g>
<!-- Node5 -->
<g id="node6" class="node">
<title>Node5</title>
<g id="a_node6"><a xlink:href="classTileManager.html#a519b2d5c91877025a2faa0dff3ba099c" target="_top" xlink:title="TileManager::calculateSlope\lOrientation">
<polygon fill="none" stroke="#000000" points="474,-49.5 474,-79.5 628,-79.5 628,-49.5 474,-49.5"/>
<text text-anchor="start" x="482" y="-67.5" font-family="Helvetica,sans-Serif" font-size="10.00" fill="#000000">TileManager::calculateSlope</text>
<text text-anchor="middle" x="551" y="-56.5" font-family="Helvetica,sans-Serif" font-size="10.00" fill="#000000">Orientation</text>
</a>
</g>
</g>
<!-- Node4&#45;&gt;Node5 -->
<g id="edge6" class="edge">
<title>Node4&#45;&gt;Node5</title>
<path fill="none" stroke="#191970" d="M437.1845,-60.1464C445.8621,-60.4783 454.825,-60.8212 463.7342,-61.162"/>
<polygon fill="#191970" stroke="#191970" points="463.6256,-64.6603 473.7521,-61.5452 463.8932,-57.6654 463.6256,-64.6603"/>
</g>
<!-- Node6 -->
<g id="node7" class="node">
<title>Node6</title>
<g id="a_node7"><a xlink:href="classTileManager.html#ae1ac0c18d79cc2e1de86416d07d1591b" target="_top" xlink:title="TileManager::calculateTile\lOrientation">
<polygon fill="none" stroke="#000000" points="478.5,-.5 478.5,-30.5 623.5,-30.5 623.5,-.5 478.5,-.5"/>
<text text-anchor="start" x="486.5" y="-18.5" font-family="Helvetica,sans-Serif" font-size="10.00" fill="#000000">TileManager::calculateTile</text>
<text text-anchor="middle" x="551" y="-7.5" font-family="Helvetica,sans-Serif" font-size="10.00" fill="#000000">Orientation</text>
</a>
</g>
</g>
<!-- Node4&#45;&gt;Node6 -->
<g id="edge7" class="edge">
<title>Node4&#45;&gt;Node6</title>
<path fill="none" stroke="#191970" d="M409.5255,-47.9695C429.0919,-43.4789 453.0562,-37.9789 475.6613,-32.7908"/>
<polygon fill="#191970" stroke="#191970" points="476.6252,-36.1607 485.5889,-30.5124 475.0593,-29.3381 476.6252,-36.1607"/>
</g>
</g>
</svg>
