<?xml version="1.0" encoding="UTF-8" standalone="no"?>
<!DOCTYPE svg PUBLIC "-//W3C//DTD SVG 1.1//EN"
 "http://www.w3.org/Graphics/SVG/1.1/DTD/svg11.dtd">
<!-- Generated by graphviz version 2.40.1 (20161225.0304)
 -->
<!-- Title: Text::createTextTexture Pages: 1 -->
<svg width="620pt" height="161pt"
 viewBox="0.00 0.00 620.00 161.00" xmlns="http://www.w3.org/2000/svg" xmlns:xlink="http://www.w3.org/1999/xlink">
<g id="graph0" class="graph" transform="scale(1 1) rotate(0) translate(4 157)">
<title>Text::createTextTexture</title>
<!-- Node15 -->
<g id="node1" class="node">
<title>Node15</title>
<polygon fill="#bfbfbf" stroke="#000000" points="0,-57.5 0,-76.5 130,-76.5 130,-57.5 0,-57.5"/>
<text text-anchor="middle" x="65" y="-64.5" font-family="Helvetica,sans-Serif" font-size="10.00" fill="#000000">Text::createTextTexture</text>
</g>
<!-- Node16 -->
<g id="node2" class="node">
<title>Node16</title>
<g id="a_node2"><a xlink:href="classText.html#a14b9f0937696af5fd95317eb8313bf92" target="_top" xlink:title="sets the text for this text widget. ">
<polygon fill="none" stroke="#000000" points="177,-76.5 177,-95.5 255,-95.5 255,-76.5 177,-76.5"/>
<text text-anchor="middle" x="216" y="-83.5" font-family="Helvetica,sans-Serif" font-size="10.00" fill="#000000">Text::setText</text>
</a>
</g>
</g>
<!-- Node15&#45;&gt;Node16 -->
<g id="edge1" class="edge">
<title>Node15&#45;&gt;Node16</title>
<path fill="none" stroke="#191970" d="M140.3934,-76.4866C152.9475,-78.0662 165.5056,-79.6464 176.6792,-81.0523"/>
<polygon fill="#191970" stroke="#191970" points="140.7113,-72.9991 130.3526,-75.2232 139.8374,-79.9443 140.7113,-72.9991"/>
</g>
<!-- Node24 -->
<g id="node10" class="node">
<title>Node24</title>
<g id="a_node10"><a xlink:href="classText.html#af6db01e16738de0391ad928c54334f0e" target="_top" xlink:title="gets the Font size of this element gets the font size of the element ">
<polygon fill="none" stroke="#000000" points="166,-38.5 166,-57.5 266,-57.5 266,-38.5 166,-38.5"/>
<text text-anchor="middle" x="216" y="-45.5" font-family="Helvetica,sans-Serif" font-size="10.00" fill="#000000">Text::getFontSize</text>
</a>
</g>
</g>
<!-- Node15&#45;&gt;Node24 -->
<g id="edge10" class="edge">
<title>Node15&#45;&gt;Node24</title>
<path fill="none" stroke="#191970" d="M140.3595,-57.5177C148.9072,-56.4421 157.4573,-55.3663 165.5716,-54.3453"/>
<polygon fill="#191970" stroke="#191970" points="139.8374,-54.0557 130.3526,-58.7768 140.7113,-61.0009 139.8374,-54.0557"/>
</g>
<!-- Node17 -->
<g id="node3" class="node">
<title>Node17</title>
<g id="a_node3"><a xlink:href="classText.html#a398a47abd355749d9e99bf74aa6a4a8d" target="_top" xlink:title="Sets the Font size of this element. ">
<polygon fill="none" stroke="#000000" points="304.5,-133.5 304.5,-152.5 403.5,-152.5 403.5,-133.5 304.5,-133.5"/>
<text text-anchor="middle" x="354" y="-140.5" font-family="Helvetica,sans-Serif" font-size="10.00" fill="#000000">Text::setFontSize</text>
</a>
</g>
</g>
<!-- Node16&#45;&gt;Node17 -->
<g id="edge2" class="edge">
<title>Node16&#45;&gt;Node17</title>
<path fill="none" stroke="#191970" d="M248.634,-99.4793C273.9136,-109.9208 308.3112,-124.1285 330.8265,-133.4284"/>
<polygon fill="#191970" stroke="#191970" points="249.6769,-96.1233 239.0981,-95.5405 247.0045,-102.5931 249.6769,-96.1233"/>
</g>
<!-- Node18 -->
<g id="node4" class="node">
<title>Node18</title>
<g id="a_node4"><a xlink:href="classText.html#ab3e26143fccc52699bcc5149cae852bc" target="_top" xlink:title="default Constructor ">
<polygon fill="none" stroke="#000000" points="457,-114.5 457,-133.5 520,-133.5 520,-114.5 457,-114.5"/>
<text text-anchor="middle" x="488.5" y="-121.5" font-family="Helvetica,sans-Serif" font-size="10.00" fill="#000000">Text::Text</text>
</a>
</g>
</g>
<!-- Node16&#45;&gt;Node18 -->
<g id="edge4" class="edge">
<title>Node16&#45;&gt;Node18</title>
<path fill="none" stroke="#191970" d="M265.0128,-92.8348C320.5859,-100.5845 409.5734,-112.9937 456.7472,-119.5721"/>
<polygon fill="#191970" stroke="#191970" points="265.4302,-89.3592 255.0426,-91.4445 264.4633,-96.2921 265.4302,-89.3592"/>
</g>
<!-- Node19 -->
<g id="node5" class="node">
<title>Node19</title>
<g id="a_node5"><a xlink:href="classTextField.html#abe03b4b6ebf469645940cfa018bcdca2" target="_top" xlink:title="TextField::addText">
<polygon fill="none" stroke="#000000" points="302,-57.5 302,-76.5 406,-76.5 406,-57.5 302,-57.5"/>
<text text-anchor="middle" x="354" y="-64.5" font-family="Helvetica,sans-Serif" font-size="10.00" fill="#000000">TextField::addText</text>
</a>
</g>
</g>
<!-- Node16&#45;&gt;Node19 -->
<g id="edge5" class="edge">
<title>Node16&#45;&gt;Node19</title>
<path fill="none" stroke="#191970" d="M265.3293,-79.2083C277.1749,-77.5774 289.8645,-75.8302 301.8343,-74.1822"/>
<polygon fill="#191970" stroke="#191970" points="264.6053,-75.7749 255.1761,-80.6062 265.5601,-82.7094 264.6053,-75.7749"/>
</g>
<!-- Node20 -->
<g id="node6" class="node">
<title>Node20</title>
<g id="a_node6"><a xlink:href="classGame.html#a5ed7fc5be77080f7f6dd5363f7f007a1" target="_top" xlink:title="initializes and displays the main menu initializes and displays the main menu ">
<polygon fill="none" stroke="#000000" points="302.5,-19.5 302.5,-38.5 405.5,-38.5 405.5,-19.5 302.5,-19.5"/>
<text text-anchor="middle" x="354" y="-26.5" font-family="Helvetica,sans-Serif" font-size="10.00" fill="#000000">Game::mainMenu</text>
</a>
</g>
</g>
<!-- Node16&#45;&gt;Node20 -->
<g id="edge6" class="edge">
<title>Node16&#45;&gt;Node20</title>
<path fill="none" stroke="#191970" d="M252.3585,-72.7841C256.9856,-70.9268 261.6286,-68.9752 266,-67 282.4868,-59.5506 285.4657,-55.3435 302,-48 309.5544,-44.6448 317.9015,-41.3997 325.6563,-38.5693"/>
<polygon fill="#191970" stroke="#191970" points="251.0218,-69.5485 242.9753,-76.4409 253.5637,-76.0707 251.0218,-69.5485"/>
</g>
<!-- Node17&#45;&gt;Node18 -->
<g id="edge3" class="edge">
<title>Node17&#45;&gt;Node18</title>
<path fill="none" stroke="#191970" d="M413.8689,-134.5427C428.7207,-132.4447 444.0586,-130.278 456.9378,-128.4586"/>
<polygon fill="#191970" stroke="#191970" points="413.1128,-131.1147 403.7007,-135.9791 414.092,-138.0458 413.1128,-131.1147"/>
</g>
<!-- Node21 -->
<g id="node7" class="node">
<title>Node21</title>
<g id="a_node7"><a xlink:href="classGame.html#ad59df6562a58a614fda24622d3715b65" target="_top" xlink:title="Game::Game">
<polygon fill="none" stroke="#000000" points="448,-38.5 448,-57.5 529,-57.5 529,-38.5 448,-38.5"/>
<text text-anchor="middle" x="488.5" y="-45.5" font-family="Helvetica,sans-Serif" font-size="10.00" fill="#000000">Game::Game</text>
</a>
</g>
</g>
<!-- Node20&#45;&gt;Node21 -->
<g id="edge7" class="edge">
<title>Node20&#45;&gt;Node21</title>
<path fill="none" stroke="#191970" d="M415.5321,-37.6923C426.4269,-39.2313 437.5232,-40.7988 447.6663,-42.2317"/>
<polygon fill="#191970" stroke="#191970" points="416.0078,-34.2248 405.6166,-36.2916 415.0286,-41.156 416.0078,-34.2248"/>
</g>
<!-- Node22 -->
<g id="node8" class="node">
<title>Node22</title>
<g id="a_node8"><a xlink:href="main_8cxx.html#af582d708d899e67ead623eac34a22387" target="_top" xlink:title="protected_main">
<polygon fill="none" stroke="#000000" points="442,-.5 442,-19.5 535,-19.5 535,-.5 442,-.5"/>
<text text-anchor="middle" x="488.5" y="-7.5" font-family="Helvetica,sans-Serif" font-size="10.00" fill="#000000">protected_main</text>
</a>
</g>
</g>
<!-- Node20&#45;&gt;Node22 -->
<g id="edge8" class="edge">
<title>Node20&#45;&gt;Node22</title>
<path fill="none" stroke="#191970" d="M415.745,-20.2777C424.4515,-19.0477 433.2819,-17.8003 441.6472,-16.6186"/>
<polygon fill="#191970" stroke="#191970" points="415.0287,-16.844 405.6166,-21.7084 416.0078,-23.7752 415.0287,-16.844"/>
</g>
<!-- Node23 -->
<g id="node9" class="node">
<title>Node23</title>
<g id="a_node9"><a xlink:href="main_8cxx.html#a3c04138a5bfe5d72780bb7e82a18e627" target="_top" xlink:title="main">
<polygon fill="none" stroke="#000000" points="571,-.5 571,-19.5 612,-19.5 612,-.5 571,-.5"/>
<text text-anchor="middle" x="591.5" y="-7.5" font-family="Helvetica,sans-Serif" font-size="10.00" fill="#000000">main</text>
</a>
</g>
</g>
<!-- Node22&#45;&gt;Node23 -->
<g id="edge9" class="edge">
<title>Node22&#45;&gt;Node23</title>
<path fill="none" stroke="#191970" d="M545.2133,-10C554.4322,-10 563.4259,-10 570.9965,-10"/>
<polygon fill="#191970" stroke="#191970" points="545.1782,-6.5001 535.1782,-10 545.1781,-13.5001 545.1782,-6.5001"/>
</g>
</g>
</svg>
