<?xml version="1.0" encoding="UTF-8" standalone="no"?>
<!DOCTYPE svg PUBLIC "-//W3C//DTD SVG 1.1//EN"
 "http://www.w3.org/Graphics/SVG/1.1/DTD/svg11.dtd">
<!-- Generated by graphviz version 2.40.1 (20161225.0304)
 -->
<!-- Title: MapNode::setBitmask Pages: 1 -->
<svg width="496pt" height="137pt"
 viewBox="0.00 0.00 496.00 137.00" xmlns="http://www.w3.org/2000/svg" xmlns:xlink="http://www.w3.org/1999/xlink">
<g id="graph0" class="graph" transform="scale(1 1) rotate(0) translate(4 133)">
<title>MapNode::setBitmask</title>
<!-- Node61 -->
<g id="node1" class="node">
<title>Node61</title>
<polygon fill="#bfbfbf" stroke="#000000" points="0,-55 0,-74 124,-74 124,-55 0,-55"/>
<text text-anchor="middle" x="62" y="-62" font-family="Helvetica,sans-Serif" font-size="10.00" fill="#000000">MapNode::setBitmask</text>
</g>
<!-- Node62 -->
<g id="node2" class="node">
<title>Node62</title>
<g id="a_node2"><a xlink:href="classMapNode.html#a0951fd739ee0a3e0263ef412596811dd" target="_top" xlink:title="MapNode::updateTexture">
<polygon fill="none" stroke="#000000" points="160,-55 160,-74 298,-74 298,-55 160,-55"/>
<text text-anchor="middle" x="229" y="-62" font-family="Helvetica,sans-Serif" font-size="10.00" fill="#000000">MapNode::updateTexture</text>
</a>
</g>
</g>
<!-- Node61&#45;&gt;Node62 -->
<g id="edge1" class="edge">
<title>Node61&#45;&gt;Node62</title>
<path fill="none" stroke="#191970" d="M124.1846,-64.5C132.5163,-64.5 141.1514,-64.5 149.727,-64.5"/>
<polygon fill="#191970" stroke="#191970" points="149.7448,-68.0001 159.7447,-64.5 149.7447,-61.0001 149.7448,-68.0001"/>
</g>
<!-- Node63 -->
<g id="node3" class="node">
<title>Node63</title>
<g id="a_node3"><a xlink:href="classSingleton.html#af5cb1e5749949e2b68416cfb8d378044" target="_top" xlink:title="Get an instance of the singleton. ">
<polygon fill="none" stroke="#000000" points="344,-98.5 344,-128.5 478,-128.5 478,-98.5 344,-98.5"/>
<text text-anchor="start" x="352" y="-116.5" font-family="Helvetica,sans-Serif" font-size="10.00" fill="#000000">Singleton&lt; TileManager</text>
<text text-anchor="middle" x="411" y="-105.5" font-family="Helvetica,sans-Serif" font-size="10.00" fill="#000000"> &gt;::instance</text>
</a>
</g>
</g>
<!-- Node62&#45;&gt;Node63 -->
<g id="edge2" class="edge">
<title>Node62&#45;&gt;Node63</title>
<path fill="none" stroke="#191970" d="M264.5235,-74.064C287.4647,-80.2405 318.0125,-88.4649 345.2737,-95.8045"/>
<polygon fill="#191970" stroke="#191970" points="344.5823,-99.2429 355.1484,-98.463 346.4022,-92.4836 344.5823,-99.2429"/>
</g>
<!-- Node64 -->
<g id="node4" class="node">
<title>Node64</title>
<g id="a_node4"><a xlink:href="classTileManager.html#a519b2d5c91877025a2faa0dff3ba099c" target="_top" xlink:title="TileManager::calculateSlope\lOrientation">
<polygon fill="none" stroke="#000000" points="334,-49.5 334,-79.5 488,-79.5 488,-49.5 334,-49.5"/>
<text text-anchor="start" x="342" y="-67.5" font-family="Helvetica,sans-Serif" font-size="10.00" fill="#000000">TileManager::calculateSlope</text>
<text text-anchor="middle" x="411" y="-56.5" font-family="Helvetica,sans-Serif" font-size="10.00" fill="#000000">Orientation</text>
</a>
</g>
</g>
<!-- Node62&#45;&gt;Node64 -->
<g id="edge3" class="edge">
<title>Node62&#45;&gt;Node64</title>
<path fill="none" stroke="#191970" d="M298.0659,-64.5C306.45,-64.5 315.0983,-64.5 323.7024,-64.5"/>
<polygon fill="#191970" stroke="#191970" points="323.7641,-68.0001 333.7641,-64.5 323.764,-61.0001 323.7641,-68.0001"/>
</g>
<!-- Node65 -->
<g id="node5" class="node">
<title>Node65</title>
<g id="a_node5"><a xlink:href="classTileManager.html#ae1ac0c18d79cc2e1de86416d07d1591b" target="_top" xlink:title="TileManager::calculateTile\lOrientation">
<polygon fill="none" stroke="#000000" points="338.5,-.5 338.5,-30.5 483.5,-30.5 483.5,-.5 338.5,-.5"/>
<text text-anchor="start" x="346.5" y="-18.5" font-family="Helvetica,sans-Serif" font-size="10.00" fill="#000000">TileManager::calculateTile</text>
<text text-anchor="middle" x="411" y="-7.5" font-family="Helvetica,sans-Serif" font-size="10.00" fill="#000000">Orientation</text>
</a>
</g>
</g>
<!-- Node62&#45;&gt;Node65 -->
<g id="edge4" class="edge">
<title>Node62&#45;&gt;Node65</title>
<path fill="none" stroke="#191970" d="M264.5235,-54.936C287.4647,-48.7595 318.0125,-40.5351 345.2737,-33.1955"/>
<polygon fill="#191970" stroke="#191970" points="346.4022,-36.5164 355.1484,-30.537 344.5823,-29.7571 346.4022,-36.5164"/>
</g>
</g>
</svg>
