<?xml version="1.0" encoding="UTF-8" standalone="no"?>
<!DOCTYPE svg PUBLIC "-//W3C//DTD SVG 1.1//EN"
 "http://www.w3.org/Graphics/SVG/1.1/DTD/svg11.dtd">
<!-- Generated by graphviz version 2.40.1 (20161225.0304)
 -->
<!-- Title: UIElement::isMouseOverHoverableArea Pages: 1 -->
<svg width="1243pt" height="199pt"
 viewBox="0.00 0.00 1243.00 199.00" xmlns="http://www.w3.org/2000/svg" xmlns:xlink="http://www.w3.org/1999/xlink">
<g id="graph0" class="graph" transform="scale(1 1) rotate(0) translate(4 195)">
<title>UIElement::isMouseOverHoverableArea</title>
<!-- Node164 -->
<g id="node1" class="node">
<title>Node164</title>
<polygon fill="#bfbfbf" stroke="#000000" points="0,-133.5 0,-152.5 209,-152.5 209,-133.5 0,-133.5"/>
<text text-anchor="middle" x="104.5" y="-140.5" font-family="Helvetica,sans-Serif" font-size="10.00" fill="#000000">UIElement::isMouseOverHoverableArea</text>
</g>
<!-- Node165 -->
<g id="node2" class="node">
<title>Node165</title>
<g id="a_node2"><a xlink:href="classEventManager.html#a65ec91fd5016d4f9c4167fb8babed2df" target="_top" xlink:title="EventManager::checkEvents">
<polygon fill="none" stroke="#000000" points="248.5,-171.5 248.5,-190.5 402.5,-190.5 402.5,-171.5 248.5,-171.5"/>
<text text-anchor="middle" x="325.5" y="-178.5" font-family="Helvetica,sans-Serif" font-size="10.00" fill="#000000">EventManager::checkEvents</text>
</a>
</g>
</g>
<!-- Node164&#45;&gt;Node165 -->
<g id="edge1" class="edge">
<title>Node164&#45;&gt;Node165</title>
<path fill="none" stroke="#191970" d="M170.0782,-154.2759C201.873,-159.7429 239.6477,-166.2381 269.9948,-171.4561"/>
<polygon fill="#191970" stroke="#191970" points="170.4309,-150.7852 159.9824,-152.54 169.2446,-157.684 170.4309,-150.7852"/>
</g>
<!-- Node170 -->
<g id="node7" class="node">
<title>Node170</title>
<g id="a_node7"><a xlink:href="classUIElement.html#ad1c0d7431b71bdd9a3704a6d5c8a4643" target="_top" xlink:title="Get the position and the size of this ui element Gets the position and the size of this ui element...">
<polygon fill="none" stroke="#000000" points="245,-95.5 245,-114.5 406,-114.5 406,-95.5 245,-95.5"/>
<text text-anchor="middle" x="325.5" y="-102.5" font-family="Helvetica,sans-Serif" font-size="10.00" fill="#000000">UIElement::getUiElementRect</text>
</a>
</g>
</g>
<!-- Node164&#45;&gt;Node170 -->
<g id="edge6" class="edge">
<title>Node164&#45;&gt;Node170</title>
<path fill="none" stroke="#191970" d="M170.0782,-131.7241C201.873,-126.2571 239.6477,-119.7619 269.9948,-114.5439"/>
<polygon fill="#191970" stroke="#191970" points="169.2446,-128.316 159.9824,-133.46 170.4309,-135.2148 169.2446,-128.316"/>
</g>
<!-- Node182 -->
<g id="node19" class="node">
<title>Node182</title>
<g id="a_node19"><a xlink:href="classGame.html#a5ed7fc5be77080f7f6dd5363f7f007a1" target="_top" xlink:title="initializes and displays the main menu initializes and displays the main menu ">
<polygon fill="none" stroke="#000000" points="472.5,-133.5 472.5,-152.5 575.5,-152.5 575.5,-133.5 472.5,-133.5"/>
<text text-anchor="middle" x="524" y="-140.5" font-family="Helvetica,sans-Serif" font-size="10.00" fill="#000000">Game::mainMenu</text>
</a>
</g>
</g>
<!-- Node164&#45;&gt;Node182 -->
<g id="edge23" class="edge">
<title>Node164&#45;&gt;Node182</title>
<path fill="none" stroke="#191970" d="M219.2169,-143C301.9085,-143 409.589,-143 472.3309,-143"/>
<polygon fill="#191970" stroke="#191970" points="219.0055,-139.5001 209.0054,-143 219.0054,-146.5001 219.0055,-139.5001"/>
</g>
<!-- Node166 -->
<g id="node3" class="node">
<title>Node166</title>
<g id="a_node3"><a xlink:href="classGame.html#a1c2ab25d5216b2f4b2fe41efd2c09114" target="_top" xlink:title="begins the game starts running the game ">
<polygon fill="none" stroke="#000000" points="490,-171.5 490,-190.5 558,-190.5 558,-171.5 490,-171.5"/>
<text text-anchor="middle" x="524" y="-178.5" font-family="Helvetica,sans-Serif" font-size="10.00" fill="#000000">Game::run</text>
</a>
</g>
</g>
<!-- Node165&#45;&gt;Node166 -->
<g id="edge2" class="edge">
<title>Node165&#45;&gt;Node166</title>
<path fill="none" stroke="#191970" d="M412.8822,-181C440.0942,-181 468.5137,-181 489.7994,-181"/>
<polygon fill="#191970" stroke="#191970" points="412.5294,-177.5001 402.5294,-181 412.5294,-184.5001 412.5294,-177.5001"/>
</g>
<!-- Node167 -->
<g id="node4" class="node">
<title>Node167</title>
<g id="a_node4"><a xlink:href="classGame.html#ad59df6562a58a614fda24622d3715b65" target="_top" xlink:title="Game::Game">
<polygon fill="none" stroke="#000000" points="680,-171.5 680,-190.5 761,-190.5 761,-171.5 680,-171.5"/>
<text text-anchor="middle" x="720.5" y="-178.5" font-family="Helvetica,sans-Serif" font-size="10.00" fill="#000000">Game::Game</text>
</a>
</g>
</g>
<!-- Node166&#45;&gt;Node167 -->
<g id="edge3" class="edge">
<title>Node166&#45;&gt;Node167</title>
<path fill="none" stroke="#191970" d="M568.6324,-181C602.0688,-181 647.4476,-181 679.8745,-181"/>
<polygon fill="#191970" stroke="#191970" points="568.2277,-177.5001 558.2277,-181 568.2277,-184.5001 568.2277,-177.5001"/>
</g>
<!-- Node168 -->
<g id="node5" class="node">
<title>Node168</title>
<g id="a_node5"><a xlink:href="main_8cxx.html#af582d708d899e67ead623eac34a22387" target="_top" xlink:title="protected_main">
<polygon fill="none" stroke="#000000" points="674,-133.5 674,-152.5 767,-152.5 767,-133.5 674,-133.5"/>
<text text-anchor="middle" x="720.5" y="-140.5" font-family="Helvetica,sans-Serif" font-size="10.00" fill="#000000">protected_main</text>
</a>
</g>
</g>
<!-- Node166&#45;&gt;Node168 -->
<g id="edge4" class="edge">
<title>Node166&#45;&gt;Node168</title>
<path fill="none" stroke="#191970" d="M568.4436,-172.4053C599.8553,-166.3308 641.8769,-158.2045 673.7843,-152.0341"/>
<polygon fill="#191970" stroke="#191970" points="567.3812,-169.0458 558.2277,-174.3809 568.7103,-175.9185 567.3812,-169.0458"/>
</g>
<!-- Node169 -->
<g id="node6" class="node">
<title>Node169</title>
<g id="a_node6"><a xlink:href="main_8cxx.html#a3c04138a5bfe5d72780bb7e82a18e627" target="_top" xlink:title="main">
<polygon fill="none" stroke="#000000" points="907.5,-152.5 907.5,-171.5 948.5,-171.5 948.5,-152.5 907.5,-152.5"/>
<text text-anchor="middle" x="928" y="-159.5" font-family="Helvetica,sans-Serif" font-size="10.00" fill="#000000">main</text>
</a>
</g>
</g>
<!-- Node168&#45;&gt;Node169 -->
<g id="edge5" class="edge">
<title>Node168&#45;&gt;Node169</title>
<path fill="none" stroke="#191970" d="M777.1659,-148.1887C820.3508,-152.143 877.3489,-157.3621 907.4052,-160.1142"/>
<polygon fill="#191970" stroke="#191970" points="777.3446,-144.6905 767.0671,-147.264 776.7062,-151.6613 777.3446,-144.6905"/>
</g>
<!-- Node171 -->
<g id="node8" class="node">
<title>Node171</title>
<g id="a_node8"><a xlink:href="classLayout.html#a99004e4afcea6a945e3890b19cce6236" target="_top" xlink:title="Arrange Elements that are aligned to a parent This is a seperate function, so it can recurse if a par...">
<polygon fill="none" stroke="#000000" points="442,-95.5 442,-114.5 606,-114.5 606,-95.5 442,-95.5"/>
<text text-anchor="middle" x="524" y="-102.5" font-family="Helvetica,sans-Serif" font-size="10.00" fill="#000000">Layout::arrangeChildElements</text>
</a>
</g>
</g>
<!-- Node170&#45;&gt;Node171 -->
<g id="edge7" class="edge">
<title>Node170&#45;&gt;Node171</title>
<path fill="none" stroke="#191970" d="M416.456,-105C424.8794,-105 433.3831,-105 441.722,-105"/>
<polygon fill="#191970" stroke="#191970" points="416.2376,-101.5001 406.2375,-105 416.2375,-108.5001 416.2376,-101.5001"/>
</g>
<!-- Node179 -->
<g id="node16" class="node">
<title>Node179</title>
<g id="a_node16"><a xlink:href="classTextField.html#abe03b4b6ebf469645940cfa018bcdca2" target="_top" xlink:title="TextField::addText">
<polygon fill="none" stroke="#000000" points="472,-57.5 472,-76.5 576,-76.5 576,-57.5 472,-57.5"/>
<text text-anchor="middle" x="524" y="-64.5" font-family="Helvetica,sans-Serif" font-size="10.00" fill="#000000">TextField::addText</text>
</a>
</g>
</g>
<!-- Node170&#45;&gt;Node179 -->
<g id="edge17" class="edge">
<title>Node170&#45;&gt;Node179</title>
<path fill="none" stroke="#191970" d="M385.517,-93.5106C413.8396,-88.0886 447.2423,-81.6942 474.1458,-76.5439"/>
<polygon fill="#191970" stroke="#191970" points="384.4973,-90.1422 375.3337,-95.46 385.8135,-97.0173 384.4973,-90.1422"/>
</g>
<!-- Node180 -->
<g id="node17" class="node">
<title>Node180</title>
<g id="a_node17"><a xlink:href="classUIManager.html#a007e9b56a4835b98db2b203df96ea79d" target="_top" xlink:title="Draws the tile (defined by the string, tiledata pair) onto the button. ">
<polygon fill="none" stroke="#000000" points="448,-8 448,-38 600,-38 600,-8 448,-8"/>
<text text-anchor="start" x="456" y="-26" font-family="Helvetica,sans-Serif" font-size="10.00" fill="#000000">UIManager::setupButtonTile</text>
<text text-anchor="middle" x="524" y="-15" font-family="Helvetica,sans-Serif" font-size="10.00" fill="#000000">Image</text>
</a>
</g>
</g>
<!-- Node170&#45;&gt;Node180 -->
<g id="edge18" class="edge">
<title>Node170&#45;&gt;Node180</title>
<path fill="none" stroke="#191970" d="M351.7708,-90.6483C375.0348,-78.3043 410.1482,-60.5552 442,-48 451,-44.4524 460.7161,-41.0946 470.2045,-38.0589"/>
<polygon fill="#191970" stroke="#191970" points="350.0327,-87.6088 342.8693,-95.415 353.3372,-93.7797 350.0327,-87.6088"/>
</g>
<!-- Node170&#45;&gt;Node182 -->
<g id="edge20" class="edge">
<title>Node170&#45;&gt;Node182</title>
<path fill="none" stroke="#191970" d="M385.517,-116.4894C413.8396,-121.9114 447.2423,-128.3058 474.1458,-133.4561"/>
<polygon fill="#191970" stroke="#191970" points="385.8135,-112.9827 375.3337,-114.54 384.4973,-119.8578 385.8135,-112.9827"/>
</g>
<!-- Node172 -->
<g id="node9" class="node">
<title>Node172</title>
<g id="a_node9"><a xlink:href="classLayout.html#afa734c5af10f59f3dadb066054fe81ab" target="_top" xlink:title="Arrange the layout elements. ">
<polygon fill="none" stroke="#000000" points="651,-76.5 651,-95.5 790,-95.5 790,-76.5 651,-76.5"/>
<text text-anchor="middle" x="720.5" y="-83.5" font-family="Helvetica,sans-Serif" font-size="10.00" fill="#000000">Layout::arrangeElements</text>
</a>
</g>
</g>
<!-- Node171&#45;&gt;Node172 -->
<g id="edge8" class="edge">
<title>Node171&#45;&gt;Node172</title>
<path fill="none" stroke="#191970" d="M616.335,-96.0719C627.9242,-94.9514 639.6236,-93.8201 650.785,-92.7409"/>
<polygon fill="#191970" stroke="#191970" points="615.8118,-92.6061 606.1951,-97.0524 616.4856,-99.5736 615.8118,-92.6061"/>
</g>
<!-- Node173 -->
<g id="node10" class="node">
<title>Node173</title>
<g id="a_node10"><a xlink:href="UIManager_8cxx.html#a93ebc51d97942bf4e32123b5c61c4141" target="_top" xlink:title="BETTER_ENUM">
<polygon fill="none" stroke="#000000" points="883.5,-.5 883.5,-19.5 972.5,-19.5 972.5,-.5 883.5,-.5"/>
<text text-anchor="middle" x="928" y="-7.5" font-family="Helvetica,sans-Serif" font-size="10.00" fill="#000000">BETTER_ENUM</text>
</a>
</g>
</g>
<!-- Node172&#45;&gt;Node173 -->
<g id="edge9" class="edge">
<title>Node172&#45;&gt;Node173</title>
<path fill="none" stroke="#191970" d="M745.5354,-71.1482C768.1965,-58.293 802.8515,-40.0732 835,-29 850.4252,-23.6869 867.8282,-19.6417 883.3725,-16.6783"/>
<polygon fill="#191970" stroke="#191970" points="743.52,-68.2698 736.6001,-76.2926 747.0128,-74.3362 743.52,-68.2698"/>
</g>
<!-- Node174 -->
<g id="node11" class="node">
<title>Node174</title>
<g id="a_node11"><a xlink:href="classUIManager.html#a3ccb2fc669262f18ebdcdf3d5c43a3e8" target="_top" xlink:title="CallbackFunction that sets the Build Menu Position Used as callback function for the ComboBox that ho...">
<polygon fill="none" stroke="#000000" points="838,-38.5 838,-57.5 1018,-57.5 1018,-38.5 838,-38.5"/>
<text text-anchor="middle" x="928" y="-45.5" font-family="Helvetica,sans-Serif" font-size="10.00" fill="#000000">UIManager::setBuildMenuPosition</text>
</a>
</g>
</g>
<!-- Node172&#45;&gt;Node174 -->
<g id="edge10" class="edge">
<title>Node172&#45;&gt;Node174</title>
<path fill="none" stroke="#191970" d="M782.4603,-74.653C812.2318,-69.2009 847.5154,-62.7393 875.8854,-57.5439"/>
<polygon fill="#191970" stroke="#191970" points="781.7991,-71.2158 772.5932,-76.46 783.0601,-78.1013 781.7991,-71.2158"/>
</g>
<!-- Node176 -->
<g id="node13" class="node">
<title>Node176</title>
<g id="a_node13"><a xlink:href="classUIManager.html#ac927e1cd3dea979202ea9dbf1195b583" target="_top" xlink:title="UIManager::changeResolution">
<polygon fill="none" stroke="#000000" points="847.5,-114.5 847.5,-133.5 1008.5,-133.5 1008.5,-114.5 847.5,-114.5"/>
<text text-anchor="middle" x="928" y="-121.5" font-family="Helvetica,sans-Serif" font-size="10.00" fill="#000000">UIManager::changeResolution</text>
</a>
</g>
</g>
<!-- Node172&#45;&gt;Node176 -->
<g id="edge12" class="edge">
<title>Node172&#45;&gt;Node176</title>
<path fill="none" stroke="#191970" d="M782.4603,-97.347C812.2318,-102.7991 847.5154,-109.2607 875.8854,-114.4561"/>
<polygon fill="#191970" stroke="#191970" points="783.0601,-93.8987 772.5932,-95.54 781.7991,-100.7842 783.0601,-93.8987"/>
</g>
<!-- Node178 -->
<g id="node15" class="node">
<title>Node178</title>
<g id="a_node15"><a xlink:href="classUIManager.html#af2ffb4ee45e57152164643ef6cddda37" target="_top" xlink:title="UIManager::changeFullScreenMode">
<polygon fill="none" stroke="#000000" points="835,-76.5 835,-95.5 1021,-95.5 1021,-76.5 835,-76.5"/>
<text text-anchor="middle" x="928" y="-83.5" font-family="Helvetica,sans-Serif" font-size="10.00" fill="#000000">UIManager::changeFullScreenMode</text>
</a>
</g>
</g>
<!-- Node172&#45;&gt;Node178 -->
<g id="edge15" class="edge">
<title>Node172&#45;&gt;Node178</title>
<path fill="none" stroke="#191970" d="M800.4163,-86C811.7115,-86 823.4051,-86 834.9215,-86"/>
<polygon fill="#191970" stroke="#191970" points="800.1718,-82.5001 790.1717,-86 800.1717,-89.5001 800.1718,-82.5001"/>
</g>
<!-- Node175 -->
<g id="node12" class="node">
<title>Node175</title>
<g id="a_node12"><a xlink:href="classUIManager.html#a5c4cb8e02504ffa0d3faf45181feab9d" target="_top" xlink:title="Fill UI Widgets whose ID start with a $ with data Used for filling widgets with data, like BuildMenu Position combobox, Screen Resolution ComboBox and so on. ">
<polygon fill="none" stroke="#000000" points="1073,-68 1073,-98 1219,-98 1219,-68 1073,-68"/>
<text text-anchor="start" x="1081" y="-86" font-family="Helvetica,sans-Serif" font-size="10.00" fill="#000000">UIManager::initializeDollar</text>
<text text-anchor="middle" x="1146" y="-75" font-family="Helvetica,sans-Serif" font-size="10.00" fill="#000000">Variables</text>
</a>
</g>
</g>
<!-- Node174&#45;&gt;Node175 -->
<g id="edge11" class="edge">
<title>Node174&#45;&gt;Node175</title>
<path fill="none" stroke="#191970" d="M997.378,-59.1387C1021.3995,-62.9953 1048.3928,-67.3291 1072.7179,-71.2345"/>
<polygon fill="#191970" stroke="#191970" points="997.7099,-55.6472 987.2815,-57.5177 996.6002,-62.5587 997.7099,-55.6472"/>
</g>
<!-- Node176&#45;&gt;Node175 -->
<g id="edge14" class="edge">
<title>Node176&#45;&gt;Node175</title>
<path fill="none" stroke="#191970" d="M988.7056,-112.5829C1014.8423,-107.6673 1045.6226,-101.8783 1072.9923,-96.7308"/>
<polygon fill="#191970" stroke="#191970" points="987.7423,-109.2026 978.5615,-114.4907 989.0362,-116.082 987.7423,-109.2026"/>
</g>
<!-- Node177 -->
<g id="node14" class="node">
<title>Node177</title>
<g id="a_node14"><a xlink:href="classUIManager.html#aa78e356fc3b356d790c848319d1c387e" target="_top" xlink:title="UIManager::setCallbackFunctions">
<polygon fill="none" stroke="#000000" points="1057,-117.5 1057,-136.5 1235,-136.5 1235,-117.5 1057,-117.5"/>
<text text-anchor="middle" x="1146" y="-124.5" font-family="Helvetica,sans-Serif" font-size="10.00" fill="#000000">UIManager::setCallbackFunctions</text>
</a>
</g>
</g>
<!-- Node176&#45;&gt;Node177 -->
<g id="edge13" class="edge">
<title>Node176&#45;&gt;Node177</title>
<path fill="none" stroke="#191970" d="M1018.6341,-125.2473C1031.309,-125.4217 1044.3251,-125.6008 1056.9699,-125.7748"/>
<polygon fill="#191970" stroke="#191970" points="1018.603,-121.7466 1008.5558,-125.1086 1018.5066,-128.7459 1018.603,-121.7466"/>
</g>
<!-- Node178&#45;&gt;Node175 -->
<g id="edge16" class="edge">
<title>Node178&#45;&gt;Node175</title>
<path fill="none" stroke="#191970" d="M1031.3047,-84.5784C1045.3906,-84.3845 1059.6036,-84.1889 1072.9995,-84.0046"/>
<polygon fill="#191970" stroke="#191970" points="1031.0348,-81.0817 1021.084,-84.719 1031.1312,-88.081 1031.0348,-81.0817"/>
</g>
<!-- Node181 -->
<g id="node18" class="node">
<title>Node181</title>
<g id="a_node18"><a xlink:href="classUIManager.html#aae7a89e9d50bb6192e4140e07bd5f94b" target="_top" xlink:title="UIManager::createBuildMenu">
<polygon fill="none" stroke="#000000" points="642,-13.5 642,-32.5 799,-32.5 799,-13.5 642,-13.5"/>
<text text-anchor="middle" x="720.5" y="-20.5" font-family="Helvetica,sans-Serif" font-size="10.00" fill="#000000">UIManager::createBuildMenu</text>
</a>
</g>
</g>
<!-- Node180&#45;&gt;Node181 -->
<g id="edge19" class="edge">
<title>Node180&#45;&gt;Node181</title>
<path fill="none" stroke="#191970" d="M610.5416,-23C620.9061,-23 631.4469,-23 641.6938,-23"/>
<polygon fill="#191970" stroke="#191970" points="610.2533,-19.5001 600.2533,-23 610.2532,-26.5001 610.2533,-19.5001"/>
</g>
<!-- Node182&#45;&gt;Node167 -->
<g id="edge21" class="edge">
<title>Node182&#45;&gt;Node167</title>
<path fill="none" stroke="#191970" d="M583.2174,-154.4517C614.4057,-160.483 651.8603,-167.7262 679.7632,-173.1221"/>
<polygon fill="#191970" stroke="#191970" points="583.8143,-151.0024 573.3316,-152.54 582.4852,-157.875 583.8143,-151.0024"/>
</g>
<!-- Node182&#45;&gt;Node168 -->
<g id="edge22" class="edge">
<title>Node182&#45;&gt;Node168</title>
<path fill="none" stroke="#191970" d="M585.8854,-143C614.3685,-143 647.5989,-143 673.9167,-143"/>
<polygon fill="#191970" stroke="#191970" points="585.6281,-139.5001 575.6281,-143 585.628,-146.5001 585.6281,-139.5001"/>
</g>
</g>
</svg>
