<?xml version="1.0" encoding="UTF-8" standalone="no"?>
<!DOCTYPE svg PUBLIC "-//W3C//DTD SVG 1.1//EN"
 "http://www.w3.org/Graphics/SVG/1.1/DTD/svg11.dtd">
<!-- Generated by graphviz version 2.40.1 (20161225.0304)
 -->
<!-- Title: Engine::demolishNode Pages: 1 -->
<svg width="806pt" height="66pt"
 viewBox="0.00 0.00 806.00 66.00" xmlns="http://www.w3.org/2000/svg" xmlns:xlink="http://www.w3.org/1999/xlink">
<g id="graph0" class="graph" transform="scale(1 1) rotate(0) translate(4 62)">
<title>Engine::demolishNode</title>
<!-- Node30 -->
<g id="node1" class="node">
<title>Node30</title>
<polygon fill="#bfbfbf" stroke="#000000" points="0,-19.5 0,-38.5 126,-38.5 126,-19.5 0,-19.5"/>
<text text-anchor="middle" x="63" y="-26.5" font-family="Helvetica,sans-Serif" font-size="10.00" fill="#000000">Engine::demolishNode</text>
</g>
<!-- Node31 -->
<g id="node2" class="node">
<title>Node31</title>
<g id="a_node2"><a xlink:href="classEngine.html#a8a53c5e52734a5158b317851361b83f2" target="_top" xlink:title="Engine::setTileIDOfNode">
<polygon fill="none" stroke="#000000" points="162,-38.5 162,-57.5 298,-57.5 298,-38.5 162,-38.5"/>
<text text-anchor="middle" x="230" y="-45.5" font-family="Helvetica,sans-Serif" font-size="10.00" fill="#000000">Engine::setTileIDOfNode</text>
</a>
</g>
</g>
<!-- Node30&#45;&gt;Node31 -->
<g id="edge1" class="edge">
<title>Node30&#45;&gt;Node31</title>
<path fill="none" stroke="#191970" d="M136.3452,-37.3447C144.7919,-38.3057 153.3793,-39.2827 161.7548,-40.2356"/>
<polygon fill="#191970" stroke="#191970" points="136.4671,-33.836 126.1355,-36.1831 135.6758,-40.7912 136.4671,-33.836"/>
</g>
<!-- Node32 -->
<g id="node3" class="node">
<title>Node32</title>
<g id="a_node3"><a xlink:href="classEventManager.html#a65ec91fd5016d4f9c4167fb8babed2df" target="_top" xlink:title="EventManager::checkEvents">
<polygon fill="none" stroke="#000000" points="334,-19.5 334,-38.5 488,-38.5 488,-19.5 334,-19.5"/>
<text text-anchor="middle" x="411" y="-26.5" font-family="Helvetica,sans-Serif" font-size="10.00" fill="#000000">EventManager::checkEvents</text>
</a>
</g>
</g>
<!-- Node30&#45;&gt;Node32 -->
<g id="edge7" class="edge">
<title>Node30&#45;&gt;Node32</title>
<path fill="none" stroke="#191970" d="M136.2038,-29C194.1615,-29 274.8924,-29 333.8519,-29"/>
<polygon fill="#191970" stroke="#191970" points="136.0202,-25.5001 126.0202,-29 136.0201,-32.5001 136.0202,-25.5001"/>
</g>
<!-- Node31&#45;&gt;Node32 -->
<g id="edge2" class="edge">
<title>Node31&#45;&gt;Node32</title>
<path fill="none" stroke="#191970" d="M308.3623,-39.7741C316.7925,-38.8892 325.3658,-37.9892 333.7824,-37.1057"/>
<polygon fill="#191970" stroke="#191970" points="307.7504,-36.319 298.1704,-40.844 308.4812,-43.2808 307.7504,-36.319"/>
</g>
<!-- Node33 -->
<g id="node4" class="node">
<title>Node33</title>
<g id="a_node4"><a xlink:href="classGame.html#a1c2ab25d5216b2f4b2fe41efd2c09114" target="_top" xlink:title="begins the game starts running the game ">
<polygon fill="none" stroke="#000000" points="524,-19.5 524,-38.5 592,-38.5 592,-19.5 524,-19.5"/>
<text text-anchor="middle" x="558" y="-26.5" font-family="Helvetica,sans-Serif" font-size="10.00" fill="#000000">Game::run</text>
</a>
</g>
</g>
<!-- Node32&#45;&gt;Node33 -->
<g id="edge3" class="edge">
<title>Node32&#45;&gt;Node33</title>
<path fill="none" stroke="#191970" d="M498.5248,-29C507.4338,-29 516.0572,-29 523.845,-29"/>
<polygon fill="#191970" stroke="#191970" points="498.3744,-25.5001 488.3744,-29 498.3743,-32.5001 498.3744,-25.5001"/>
</g>
<!-- Node34 -->
<g id="node5" class="node">
<title>Node34</title>
<g id="a_node5"><a xlink:href="classGame.html#ad59df6562a58a614fda24622d3715b65" target="_top" xlink:title="Game::Game">
<polygon fill="none" stroke="#000000" points="634,-38.5 634,-57.5 715,-57.5 715,-38.5 634,-38.5"/>
<text text-anchor="middle" x="674.5" y="-45.5" font-family="Helvetica,sans-Serif" font-size="10.00" fill="#000000">Game::Game</text>
</a>
</g>
</g>
<!-- Node33&#45;&gt;Node34 -->
<g id="edge4" class="edge">
<title>Node33&#45;&gt;Node34</title>
<path fill="none" stroke="#191970" d="M602.0985,-36.192C612.4513,-37.8805 623.439,-39.6725 633.6427,-41.3366"/>
<polygon fill="#191970" stroke="#191970" points="602.4428,-32.702 592.0098,-34.5467 601.316,-39.6107 602.4428,-32.702"/>
</g>
<!-- Node35 -->
<g id="node6" class="node">
<title>Node35</title>
<g id="a_node6"><a xlink:href="main_8cxx.html#af582d708d899e67ead623eac34a22387" target="_top" xlink:title="protected_main">
<polygon fill="none" stroke="#000000" points="628,-.5 628,-19.5 721,-19.5 721,-.5 628,-.5"/>
<text text-anchor="middle" x="674.5" y="-7.5" font-family="Helvetica,sans-Serif" font-size="10.00" fill="#000000">protected_main</text>
</a>
</g>
</g>
<!-- Node33&#45;&gt;Node35 -->
<g id="edge5" class="edge">
<title>Node33&#45;&gt;Node35</title>
<path fill="none" stroke="#191970" d="M601.9884,-21.8259C610.382,-20.457 619.1965,-19.0195 627.6749,-17.6367"/>
<polygon fill="#191970" stroke="#191970" points="601.316,-18.3893 592.0098,-23.4533 602.4428,-25.298 601.316,-18.3893"/>
</g>
<!-- Node36 -->
<g id="node7" class="node">
<title>Node36</title>
<g id="a_node7"><a xlink:href="main_8cxx.html#a3c04138a5bfe5d72780bb7e82a18e627" target="_top" xlink:title="main">
<polygon fill="none" stroke="#000000" points="757,-.5 757,-19.5 798,-19.5 798,-.5 757,-.5"/>
<text text-anchor="middle" x="777.5" y="-7.5" font-family="Helvetica,sans-Serif" font-size="10.00" fill="#000000">main</text>
</a>
</g>
</g>
<!-- Node35&#45;&gt;Node36 -->
<g id="edge6" class="edge">
<title>Node35&#45;&gt;Node36</title>
<path fill="none" stroke="#191970" d="M731.2133,-10C740.4322,-10 749.4259,-10 756.9965,-10"/>
<polygon fill="#191970" stroke="#191970" points="731.1782,-6.5001 721.1782,-10 731.1781,-13.5001 731.1782,-6.5001"/>
</g>
</g>
</svg>
