<?xml version="1.0" encoding="UTF-8" standalone="no"?>
<!DOCTYPE svg PUBLIC "-//W3C//DTD SVG 1.1//EN"
 "http://www.w3.org/Graphics/SVG/1.1/DTD/svg11.dtd">
<!-- Generated by graphviz version 2.40.1 (20161225.0304)
 -->
<!-- Title: Map::demolishNode Pages: 1 -->
<!--zoomable 417 -->
<svg id="main" version="1.1" xmlns="http://www.w3.org/2000/svg" xmlns:xlink="http://www.w3.org/1999/xlink" xml:space="preserve" onload="init(evt)">
<style type="text/css"><![CDATA[
.edge:hover path { stroke: red; }
.edge:hover polygon { stroke: red; fill: red; }
]]></style>
<script type="text/javascript"><![CDATA[
var edges = document.getElementsByTagName('g');
if (edges && edges.length) {
  for (var i=0;i<edges.length;i++) {
    if (edges[i].id.substr(0,4)=='edge') {
      edges[i].setAttribute('class','edge');
    }
  }
}
]]></script>
        <defs>
                <circle id="rim" cx="0" cy="0" r="7"/>
                <circle id="rim2" cx="0" cy="0" r="3.5"/>
                <g id="zoomPlus">
                        <use xlink:href="#rim" fill="#404040">
                                <set attributeName="fill" to="#808080" begin="zoomplus.mouseover" end="zoomplus.mouseout"/>
                        </use>
                        <path d="M-4,0h8M0,-4v8" fill="none" stroke="white" stroke-width="1.5" pointer-events="none"/>
                </g>
                <g id="zoomMin">
                        <use xlink:href="#rim" fill="#404040">
                                <set attributeName="fill" to="#808080" begin="zoomminus.mouseover" end="zoomminus.mouseout"/>
                        </use>
                        <path d="M-4,0h8" fill="none" stroke="white" stroke-width="1.5" pointer-events="none"/>
                </g>
                <g id="dirArrow">
                        <path fill="none" stroke="white" stroke-width="1.5" d="M0,-3.0v7 M-2.5,-0.5L0,-3.0L2.5,-0.5"/>
                </g>
               <g id="resetDef">
                       <use xlink:href="#rim2" fill="#404040">
                               <set attributeName="fill" to="#808080" begin="reset.mouseover" end="reset.mouseout"/>
                       </use>
               </g>
        </defs>

<script type="text/javascript">
var viewWidth = 1819;
var viewHeight = 417;
var sectionId = 'dynsection-6';
</script>
<script xlink:href="svgpan.js"/>
<svg id="graph" class="graph">
<g id="viewport">
<title>Map::demolishNode</title>
<!-- Node66 -->
<g id="node1" class="node">
<title>Node66</title>
<polygon fill="#bfbfbf" stroke="#000000" points="0,-99.7323 0,-118.7323 113,-118.7323 113,-99.7323 0,-99.7323"/>
<text text-anchor="middle" x="56.5" y="-106.7323" font-family="Helvetica,sans-Serif" font-size="10.00" fill="#000000">Map::demolishNode</text>
</g>
<!-- Node67 -->
<g id="node2" class="node">
<title>Node67</title>
<g id="a_node2"><a xlink:href="classEngine.html#addfc50e21da201426444d8b4a07b3976" target="_top" xlink:title="Engine::demolishNode">
<polygon fill="none" stroke="#000000" points="989,-28.7323 989,-47.7323 1115,-47.7323 1115,-28.7323 989,-28.7323"/>
<text text-anchor="middle" x="1052" y="-35.7323" font-family="Helvetica,sans-Serif" font-size="10.00" fill="#000000">Engine::demolishNode</text>
</a>
</g>
</g>
<!-- Node66&#45;&gt;Node67 -->
<g id="edge1" class="edge">
<title>Node66&#45;&gt;Node67</title>
<path fill="none" stroke="#191970" d="M73.2751,-92.1406C90.624,-75.5574 119.2968,-51.0713 149,-38.2323 245.513,3.4846 277.3569,-.2323 382.5,-.2323 382.5,-.2323 382.5,-.2323 722,-.2323 821.337,-.2323 936.3965,-17.436 1001.048,-28.6924"/>
<polygon fill="#191970" stroke="#191970" points="70.3994,-90.0588 65.7131,-99.5609 75.3021,-95.0552 70.3994,-90.0588"/>
</g>
<!-- Node74 -->
<g id="node9" class="node">
<title>Node74</title>
<g id="a_node9"><a xlink:href="classMap.html#aba5154a4d917900679a3c0f7ec701561" target="_top" xlink:title="Increase Height Increases the height of the node and checks the surrounding tiles. Either draw a slope sprite or elevate the tile if necessary. ">
<polygon fill="none" stroke="#000000" points="149,-76.7323 149,-95.7323 265,-95.7323 265,-76.7323 149,-76.7323"/>
<text text-anchor="middle" x="207" y="-83.7323" font-family="Helvetica,sans-Serif" font-size="10.00" fill="#000000">Map::increaseHeight</text>
</a>
</g>
</g>
<!-- Node66&#45;&gt;Node74 -->
<g id="edge9" class="edge">
<title>Node66&#45;&gt;Node74</title>
<path fill="none" stroke="#191970" d="M123.5571,-98.9844C131.9658,-97.6993 140.5126,-96.3932 148.7707,-95.1311"/>
<polygon fill="#191970" stroke="#191970" points="122.7541,-95.5664 113.3976,-100.537 123.8116,-102.486 122.7541,-95.5664"/>
</g>
<!-- Node76 -->
<g id="node11" class="node">
<title>Node76</title>
<g id="a_node11"><a xlink:href="classMap.html#a59d21f2688713fbcfe320eb1b24405ca" target="_top" xlink:title="Update mapNode and its adjacent tiles Updates mapNode height information, draws slopes for adjacent t...">
<polygon fill="none" stroke="#000000" points="301,-123.7323 301,-142.7323 464,-142.7323 464,-123.7323 301,-123.7323"/>
<text text-anchor="middle" x="382.5" y="-130.7323" font-family="Helvetica,sans-Serif" font-size="10.00" fill="#000000">Map::updateNeighborsOfNode</text>
</a>
</g>
</g>
<!-- Node66&#45;&gt;Node76 -->
<g id="edge42" class="edge">
<title>Node66&#45;&gt;Node76</title>
<path fill="none" stroke="#191970" d="M123.3147,-108.5788C182.7028,-111.2919 268.6135,-117.7105 324.9974,-123.7085"/>
<polygon fill="#191970" stroke="#191970" points="123.4265,-105.0805 113.2849,-108.1459 123.1246,-112.0739 123.4265,-105.0805"/>
</g>
<!-- Node77 -->
<g id="node12" class="node">
<title>Node77</title>
<g id="a_node12"><a xlink:href="classMap.html#afb8cc864df90d273a5074872d635dc40" target="_top" xlink:title="Decrease Height Decreases the height of the node and checks the surrounding tiles. Either draw a slope sprite or lower the tile if necessary. ">
<polygon fill="none" stroke="#000000" points="500.5,-180.7323 500.5,-199.7323 619.5,-199.7323 619.5,-180.7323 500.5,-180.7323"/>
<text text-anchor="middle" x="560" y="-187.7323" font-family="Helvetica,sans-Serif" font-size="10.00" fill="#000000">Map::decreaseHeight</text>
</a>
</g>
</g>
<!-- Node66&#45;&gt;Node77 -->
<g id="edge41" class="edge">
<title>Node66&#45;&gt;Node77</title>
<path fill="none" stroke="#191970" d="M88.6155,-122.7164C106.1674,-129.5662 128.4584,-137.4341 149,-142.2323 271.9477,-170.9512 419.7927,-182.8608 500.4028,-187.5054"/>
<polygon fill="#191970" stroke="#191970" points="89.463,-119.2863 78.8779,-118.8318 86.8693,-125.7881 89.463,-119.2863"/>
</g>
<!-- Node88 -->
<g id="node23" class="node">
<title>Node88</title>
<g id="a_node23"><a xlink:href="classMap.html#a779c939483a52b32a3959b99af95e67a" target="_top" xlink:title="Set the Tile ID Of Node object Also invokes all necessary texture updates (auto&#45;tiling, slopes, ...) ">
<polygon fill="none" stroke="#000000" points="990.5,-104.7323 990.5,-123.7323 1113.5,-123.7323 1113.5,-104.7323 990.5,-104.7323"/>
<text text-anchor="middle" x="1052" y="-111.7323" font-family="Helvetica,sans-Serif" font-size="10.00" fill="#000000">Map::setTileIDOfNode</text>
</a>
</g>
</g>
<!-- Node66&#45;&gt;Node88 -->
<g id="edge43" class="edge">
<title>Node66&#45;&gt;Node88</title>
<path fill="none" stroke="#191970" d="M82.595,-94.8037C100.6957,-85.4482 125.6544,-73.8165 149,-67.2323 249.6488,-38.8461 277.9249,-38.2323 382.5,-38.2323 382.5,-38.2323 382.5,-38.2323 722,-38.2323 825.0134,-38.2323 854.6559,-26.5699 953,-57.2323 986.8915,-67.7992 1021.7896,-91.4567 1039.7169,-104.7321"/>
<polygon fill="#191970" stroke="#191970" points="80.5019,-91.9513 73.2984,-99.7205 83.7746,-98.1391 80.5019,-91.9513"/>
</g>
<!-- Node68 -->
<g id="node3" class="node">
<title>Node68</title>
<g id="a_node3"><a xlink:href="classEngine.html#a8a53c5e52734a5158b317851361b83f2" target="_top" xlink:title="Engine::setTileIDOfNode">
<polygon fill="none" stroke="#000000" points="1151,-104.7323 1151,-123.7323 1287,-123.7323 1287,-104.7323 1151,-104.7323"/>
<text text-anchor="middle" x="1219" y="-111.7323" font-family="Helvetica,sans-Serif" font-size="10.00" fill="#000000">Engine::setTileIDOfNode</text>
</a>
</g>
</g>
<!-- Node67&#45;&gt;Node68 -->
<g id="edge2" class="edge">
<title>Node67&#45;&gt;Node68</title>
<path fill="none" stroke="#191970" d="M1082.46,-52.0943C1115.9539,-67.3371 1168.877,-91.4219 1198.0211,-104.685"/>
<polygon fill="#191970" stroke="#191970" points="1083.7022,-48.8143 1073.1507,-47.8578 1080.8027,-55.1856 1083.7022,-48.8143"/>
</g>
<!-- Node69 -->
<g id="node4" class="node">
<title>Node69</title>
<g id="a_node4"><a xlink:href="classEventManager.html#a65ec91fd5016d4f9c4167fb8babed2df" target="_top" xlink:title="EventManager::checkEvents">
<polygon fill="none" stroke="#000000" points="1335,-123.7323 1335,-142.7323 1489,-142.7323 1489,-123.7323 1335,-123.7323"/>
<text text-anchor="middle" x="1412" y="-130.7323" font-family="Helvetica,sans-Serif" font-size="10.00" fill="#000000">EventManager::checkEvents</text>
</a>
</g>
</g>
<!-- Node67&#45;&gt;Node69 -->
<g id="edge8" class="edge">
<title>Node67&#45;&gt;Node69</title>
<path fill="none" stroke="#191970" d="M1125.4123,-37.9908C1172.5735,-39.7062 1234.59,-45.4921 1287,-62.2323 1331.4582,-76.4326 1377.6638,-107.7717 1399.3418,-123.6338"/>
<polygon fill="#191970" stroke="#191970" points="1125.3843,-34.4883 1115.2805,-37.6762 1125.167,-41.4849 1125.3843,-34.4883"/>
</g>
<!-- Node68&#45;&gt;Node69 -->
<g id="edge3" class="edge">
<title>Node68&#45;&gt;Node69</title>
<path fill="none" stroke="#191970" d="M1297.292,-121.9398C1309.6288,-123.1543 1322.3776,-124.4094 1334.6918,-125.6217"/>
<polygon fill="#191970" stroke="#191970" points="1297.3394,-118.4276 1287.0446,-120.931 1296.6535,-125.394 1297.3394,-118.4276"/>
</g>
<!-- Node70 -->
<g id="node5" class="node">
<title>Node70</title>
<g id="a_node5"><a xlink:href="classGame.html#a1c2ab25d5216b2f4b2fe41efd2c09114" target="_top" xlink:title="begins the game starts running the game ">
<polygon fill="none" stroke="#000000" points="1537,-218.7323 1537,-237.7323 1605,-237.7323 1605,-218.7323 1537,-218.7323"/>
<text text-anchor="middle" x="1571" y="-225.7323" font-family="Helvetica,sans-Serif" font-size="10.00" fill="#000000">Game::run</text>
</a>
</g>
</g>
<!-- Node69&#45;&gt;Node70 -->
<g id="edge4" class="edge">
<title>Node69&#45;&gt;Node70</title>
<path fill="none" stroke="#191970" d="M1436.714,-147.9985C1469.6333,-167.6673 1526.9507,-201.9136 1554.8366,-218.5749"/>
<polygon fill="#191970" stroke="#191970" points="1438.5004,-144.9888 1428.1208,-142.8642 1434.91,-150.9979 1438.5004,-144.9888"/>
</g>
<!-- Node71 -->
<g id="node6" class="node">
<title>Node71</title>
<g id="a_node6"><a xlink:href="classGame.html#ad59df6562a58a614fda24622d3715b65" target="_top" xlink:title="Game::Game">
<polygon fill="none" stroke="#000000" points="1647,-199.7323 1647,-218.7323 1728,-218.7323 1728,-199.7323 1647,-199.7323"/>
<text text-anchor="middle" x="1687.5" y="-206.7323" font-family="Helvetica,sans-Serif" font-size="10.00" fill="#000000">Game::Game</text>
</a>
</g>
</g>
<!-- Node70&#45;&gt;Node71 -->
<g id="edge5" class="edge">
<title>Node70&#45;&gt;Node71</title>
<path fill="none" stroke="#191970" d="M1615.0985,-221.0403C1625.4513,-219.3518 1636.439,-217.5599 1646.6427,-215.8957"/>
<polygon fill="#191970" stroke="#191970" points="1614.316,-217.6216 1605.0098,-222.6856 1615.4428,-224.5303 1614.316,-217.6216"/>
</g>
<!-- Node72 -->
<g id="node7" class="node">
<title>Node72</title>
<g id="a_node7"><a xlink:href="main_8cxx.html#af582d708d899e67ead623eac34a22387" target="_top" xlink:title="protected_main">
<polygon fill="none" stroke="#000000" points="1641,-237.7323 1641,-256.7323 1734,-256.7323 1734,-237.7323 1641,-237.7323"/>
<text text-anchor="middle" x="1687.5" y="-244.7323" font-family="Helvetica,sans-Serif" font-size="10.00" fill="#000000">protected_main</text>
</a>
</g>
</g>
<!-- Node70&#45;&gt;Node72 -->
<g id="edge6" class="edge">
<title>Node70&#45;&gt;Node72</title>
<path fill="none" stroke="#191970" d="M1614.9884,-235.4064C1623.382,-236.7753 1632.1965,-238.2129 1640.6749,-239.5956"/>
<polygon fill="#191970" stroke="#191970" points="1615.4428,-231.9343 1605.0098,-233.779 1614.316,-238.8431 1615.4428,-231.9343"/>
</g>
<!-- Node73 -->
<g id="node8" class="node">
<title>Node73</title>
<g id="a_node8"><a xlink:href="main_8cxx.html#a3c04138a5bfe5d72780bb7e82a18e627" target="_top" xlink:title="main">
<polygon fill="none" stroke="#000000" points="1770,-237.7323 1770,-256.7323 1811,-256.7323 1811,-237.7323 1770,-237.7323"/>
<text text-anchor="middle" x="1790.5" y="-244.7323" font-family="Helvetica,sans-Serif" font-size="10.00" fill="#000000">main</text>
</a>
</g>
</g>
<!-- Node72&#45;&gt;Node73 -->
<g id="edge7" class="edge">
<title>Node72&#45;&gt;Node73</title>
<path fill="none" stroke="#191970" d="M1744.2133,-247.2323C1753.4322,-247.2323 1762.4259,-247.2323 1769.9965,-247.2323"/>
<polygon fill="#191970" stroke="#191970" points="1744.1782,-243.7324 1734.1782,-247.2323 1744.1781,-250.7324 1744.1782,-243.7324"/>
</g>
<!-- Node75 -->
<g id="node10" class="node">
<title>Node75</title>
<g id="a_node10"><a xlink:href="classEngine.html#a4851ae1ff696c893741167fc0194fd77" target="_top" xlink:title="Increase Height Increases the height of the given map node Calls the according function of the Map ob...">
<polygon fill="none" stroke="#000000" points="824,-66.7323 824,-85.7323 953,-85.7323 953,-66.7323 824,-66.7323"/>
<text text-anchor="middle" x="888.5" y="-73.7323" font-family="Helvetica,sans-Serif" font-size="10.00" fill="#000000">Engine::increaseHeight</text>
</a>
</g>
</g>
<!-- Node74&#45;&gt;Node75 -->
<g id="edge10" class="edge">
<title>Node74&#45;&gt;Node75</title>
<path fill="none" stroke="#191970" d="M275.4723,-85.2276C407.3842,-83.292 695.0672,-79.0706 823.8799,-77.1805"/>
<polygon fill="#191970" stroke="#191970" points="275.0518,-81.7333 265.1043,-85.3797 275.1546,-88.7325 275.0518,-81.7333"/>
</g>
<!-- Node74&#45;&gt;Node76 -->
<g id="edge12" class="edge">
<title>Node74&#45;&gt;Node76</title>
<path fill="none" stroke="#191970" d="M275.5379,-97.9831C307.0878,-105.9461 342.1221,-116.0577 363.2217,-123.6528"/>
<polygon fill="#191970" stroke="#191970" points="275.9874,-94.4886 265.439,-95.4791 274.3027,-101.2829 275.9874,-94.4886"/>
</g>
<!-- Node75&#45;&gt;Node69 -->
<g id="edge11" class="edge">
<title>Node75&#45;&gt;Node69</title>
<path fill="none" stroke="#191970" d="M963.269,-74.3171C1043.8023,-73.5251 1175.41,-75.9183 1287,-95.2323 1322.5361,-101.3829 1362.1493,-114.5521 1387.0669,-123.6488"/>
<polygon fill="#191970" stroke="#191970" points="963.1798,-70.8178 953.2217,-74.4351 963.2621,-77.8173 963.1798,-70.8178"/>
</g>
<!-- Node76&#45;&gt;Node66 -->
<g id="edge39" class="edge">
<title>Node76&#45;&gt;Node66</title>
<path fill="none" stroke="#191970" d="M290.6055,-132.6104C233.5984,-129.4504 162.1589,-123.8989 113.2849,-118.6796"/>
<polygon fill="#191970" stroke="#191970" points="290.5364,-136.1116 300.7098,-133.1531 290.9119,-129.1217 290.5364,-136.1116"/>
</g>
<!-- Node76&#45;&gt;Node74 -->
<g id="edge13" class="edge">
<title>Node76&#45;&gt;Node74</title>
<path fill="none" stroke="#191970" d="M312.8837,-121.2089C281.5353,-113.2681 246.9582,-103.2686 226.1157,-95.7532"/>
<polygon fill="#191970" stroke="#191970" points="312.3775,-124.6896 322.9268,-123.7089 314.0685,-117.8969 312.3775,-124.6896"/>
</g>
<!-- Node76&#45;&gt;Node77 -->
<g id="edge14" class="edge">
<title>Node76&#45;&gt;Node77</title>
<path fill="none" stroke="#191970" d="M447.8844,-145.7602C464.8491,-150.9415 483.1014,-156.8242 500,-162.2323 517.483,-167.8274 537.8594,-174.2616 549.8023,-180.5675"/>
<polygon fill="#191970" stroke="#191970" points="448.6492,-142.3353 438.0646,-142.7996 446.6285,-149.0373 448.6492,-142.3353"/>
</g>
<!-- Node79 -->
<g id="node14" class="node">
<title>Node79</title>
<g id="a_node14"><a xlink:href="classMap.html#a481b37ba71ef0e51e836fc42805762dd" target="_top" xlink:title="Update all mapNodes Updates all mapNode and its adjacent tiles regarding height information, draws slopes for adjacent tiles and sets tiling for mapNode sprite if applicable. ">
<polygon fill="none" stroke="#000000" points="500,-142.7323 500,-161.7323 620,-161.7323 620,-142.7323 500,-142.7323"/>
<text text-anchor="middle" x="560" y="-149.7323" font-family="Helvetica,sans-Serif" font-size="10.00" fill="#000000">Map::updateAllNodes</text>
</a>
</g>
</g>
<!-- Node76&#45;&gt;Node79 -->
<g id="edge18" class="edge">
<title>Node76&#45;&gt;Node79</title>
<path fill="none" stroke="#191970" d="M474.3911,-143.0685C483.0427,-143.9946 491.6544,-144.9164 499.8969,-145.7987"/>
<polygon fill="#191970" stroke="#191970" points="474.552,-139.5659 464.2362,-141.9815 473.8069,-146.5261 474.552,-139.5659"/>
</g>
<!-- Node76&#45;&gt;Node88 -->
<g id="edge40" class="edge">
<title>Node76&#45;&gt;Node88</title>
<path fill="none" stroke="#191970" d="M474.4447,-130.623C613.1878,-126.6855 872.3728,-119.33 990.4982,-115.9777"/>
<polygon fill="#191970" stroke="#191970" points="474.1556,-127.1297 464.2589,-130.912 474.3542,-134.1269 474.1556,-127.1297"/>
</g>
<!-- Node77&#45;&gt;Node76 -->
<g id="edge17" class="edge">
<title>Node77&#45;&gt;Node76</title>
<path fill="none" stroke="#191970" d="M491.4501,-177.4899C454.5758,-165.6375 414.9536,-152.5062 395.1847,-142.8548"/>
<polygon fill="#191970" stroke="#191970" points="490.6624,-180.9128 501.2536,-180.6333 492.7998,-174.2471 490.6624,-180.9128"/>
</g>
<!-- Node78 -->
<g id="node13" class="node">
<title>Node78</title>
<g id="a_node13"><a xlink:href="classEngine.html#a13572fdd7f6470dca48a14497f58980e" target="_top" xlink:title="Decrease Height Decreases the height of the given map node Calls the according function of the Map ob...">
<polygon fill="none" stroke="#000000" points="656,-218.7323 656,-237.7323 788,-237.7323 788,-218.7323 656,-218.7323"/>
<text text-anchor="middle" x="722" y="-225.7323" font-family="Helvetica,sans-Serif" font-size="10.00" fill="#000000">Engine::decreaseHeight</text>
</a>
</g>
</g>
<!-- Node77&#45;&gt;Node78 -->
<g id="edge15" class="edge">
<title>Node77&#45;&gt;Node78</title>
<path fill="none" stroke="#191970" d="M610.7148,-202.1284C633.4856,-207.4697 659.9867,-213.686 681.4145,-218.7123"/>
<polygon fill="#191970" stroke="#191970" points="611.4145,-198.6976 600.8794,-199.8213 609.8159,-205.5126 611.4145,-198.6976"/>
</g>
<!-- Node78&#45;&gt;Node69 -->
<g id="edge16" class="edge">
<title>Node78&#45;&gt;Node69</title>
<path fill="none" stroke="#191970" d="M798.4332,-217.7089C933.6998,-199.0852 1213.1927,-160.6043 1342.9797,-142.7351"/>
<polygon fill="#191970" stroke="#191970" points="797.5892,-214.292 788.1601,-219.1233 798.5441,-221.2266 797.5892,-214.292"/>
</g>
<!-- Node80 -->
<g id="node15" class="node">
<title>Node80</title>
<g id="a_node15"><a xlink:href="classMap.html#a482ac34426e8aa66abb46f60ec329402" target="_top" xlink:title="Initialize the Map with node objects Initialize the Map with node objects. ">
<polygon fill="none" stroke="#000000" points="682.5,-180.7323 682.5,-199.7323 761.5,-199.7323 761.5,-180.7323 682.5,-180.7323"/>
<text text-anchor="middle" x="722" y="-187.7323" font-family="Helvetica,sans-Serif" font-size="10.00" fill="#000000">Map::initMap</text>
</a>
</g>
</g>
<!-- Node79&#45;&gt;Node80 -->
<g id="edge19" class="edge">
<title>Node79&#45;&gt;Node80</title>
<path fill="none" stroke="#191970" d="M610.8302,-164.1554C633.8734,-169.5606 660.7174,-175.8574 682.2537,-180.9091"/>
<polygon fill="#191970" stroke="#191970" points="611.4145,-160.6976 600.8794,-161.8213 609.8159,-167.5126 611.4145,-160.6976"/>
</g>
<!-- Node85 -->
<g id="node20" class="node">
<title>Node85</title>
<g id="a_node20"><a xlink:href="classMap.html#afefe996cc1f62b61ec60d0ae415953bf" target="_top" xlink:title="Map::loadMapFromFile">
<polygon fill="none" stroke="#000000" points="826,-142.7323 826,-161.7323 951,-161.7323 951,-142.7323 826,-142.7323"/>
<text text-anchor="middle" x="888.5" y="-149.7323" font-family="Helvetica,sans-Serif" font-size="10.00" fill="#000000">Map::loadMapFromFile</text>
</a>
</g>
</g>
<!-- Node79&#45;&gt;Node85 -->
<g id="edge38" class="edge">
<title>Node79&#45;&gt;Node85</title>
<path fill="none" stroke="#191970" d="M630.4418,-152.2323C688.4838,-152.2323 770.0366,-152.2323 825.8355,-152.2323"/>
<polygon fill="#191970" stroke="#191970" points="630.252,-148.7324 620.252,-152.2323 630.2519,-155.7324 630.252,-148.7324"/>
</g>
<!-- Node81 -->
<g id="node16" class="node">
<title>Node81</title>
<g id="a_node16"><a xlink:href="classEngine.html#a260d4834150eae6eec2bde34df6dc827" target="_top" xlink:title="Creates a new game Creates a new game. ">
<polygon fill="none" stroke="#000000" points="999.5,-332.7323 999.5,-351.7323 1104.5,-351.7323 1104.5,-332.7323 999.5,-332.7323"/>
<text text-anchor="middle" x="1052" y="-339.7323" font-family="Helvetica,sans-Serif" font-size="10.00" fill="#000000">Engine::newGame</text>
</a>
</g>
</g>
<!-- Node80&#45;&gt;Node81 -->
<g id="edge20" class="edge">
<title>Node80&#45;&gt;Node81</title>
<path fill="none" stroke="#191970" d="M769.53,-202.7592C775.8026,-204.7483 782.0988,-206.9197 788,-209.2323 885.4775,-247.4317 995.2428,-309.2071 1035.8131,-332.7273"/>
<polygon fill="#191970" stroke="#191970" points="770.3381,-199.3468 759.7525,-199.7894 768.3036,-206.0447 770.3381,-199.3468"/>
</g>
<!-- Node80&#45;&gt;Node85 -->
<g id="edge28" class="edge">
<title>Node80&#45;&gt;Node85</title>
<path fill="none" stroke="#191970" d="M771.8042,-178.8656C795.6533,-173.4225 823.8948,-166.977 846.6211,-161.7903"/>
<polygon fill="#191970" stroke="#191970" points="770.8514,-175.493 761.8809,-181.1304 772.409,-182.3175 770.8514,-175.493"/>
</g>
<!-- Node81&#45;&gt;Node70 -->
<g id="edge27" class="edge">
<title>Node81&#45;&gt;Node70</title>
<path fill="none" stroke="#191970" d="M1072.0583,-358.0362C1091.1224,-371.9756 1121.2271,-391.2738 1151,-399.2323 1209.3942,-414.8416 1227.4333,-409.4956 1287,-399.2323 1386.4654,-382.0946 1419.9539,-383.387 1501,-323.2323 1533.0788,-299.4226 1556.9026,-256.765 1566.4348,-237.7879"/>
<polygon fill="#191970" stroke="#191970" points="1073.9724,-355.0964 1063.8766,-351.883 1069.7649,-360.6909 1073.9724,-355.0964"/>
</g>
<!-- Node82 -->
<g id="node17" class="node">
<title>Node82</title>
<g id="a_node17"><a xlink:href="classEngine.html#af7de8d74b0cfacaf06df53e7caf11538" target="_top" xlink:title="Engine::saveGame">
<polygon fill="none" stroke="#000000" points="1165,-370.7323 1165,-389.7323 1273,-389.7323 1273,-370.7323 1165,-370.7323"/>
<text text-anchor="middle" x="1219" y="-377.7323" font-family="Helvetica,sans-Serif" font-size="10.00" fill="#000000">Engine::saveGame</text>
</a>
</g>
</g>
<!-- Node81&#45;&gt;Node82 -->
<g id="edge21" class="edge">
<title>Node81&#45;&gt;Node82</title>
<path fill="none" stroke="#191970" d="M1103.9646,-354.0566C1127.5086,-359.4139 1154.9737,-365.6634 1177.1619,-370.7123"/>
<polygon fill="#191970" stroke="#191970" points="1104.6685,-350.6274 1094.1412,-351.8213 1103.1153,-357.4529 1104.6685,-350.6274"/>
</g>
<!-- Node83 -->
<g id="node18" class="node">
<title>Node83</title>
<g id="a_node18"><a xlink:href="classUIManager.html#aa78e356fc3b356d790c848319d1c387e" target="_top" xlink:title="UIManager::setCallbackFunctions">
<polygon fill="none" stroke="#000000" points="1323,-294.7323 1323,-313.7323 1501,-313.7323 1501,-294.7323 1323,-294.7323"/>
<text text-anchor="middle" x="1412" y="-301.7323" font-family="Helvetica,sans-Serif" font-size="10.00" fill="#000000">UIManager::setCallbackFunctions</text>
</a>
</g>
</g>
<!-- Node81&#45;&gt;Node83 -->
<g id="edge23" class="edge">
<title>Node81&#45;&gt;Node83</title>
<path fill="none" stroke="#191970" d="M1114.8489,-335.9818C1162.1885,-331.233 1228.685,-324.4756 1287,-318.2323 1300.2449,-316.8143 1314.2751,-315.2772 1327.9642,-313.7582"/>
<polygon fill="#191970" stroke="#191970" points="1114.3497,-332.5142 1104.7484,-336.9938 1115.0475,-339.4794 1114.3497,-332.5142"/>
</g>
<!-- Node84 -->
<g id="node19" class="node">
<title>Node84</title>
<g id="a_node19"><a xlink:href="classGame.html#a5ed7fc5be77080f7f6dd5363f7f007a1" target="_top" xlink:title="initializes and displays the main menu initializes and displays the main menu ">
<polygon fill="none" stroke="#000000" points="1360.5,-218.7323 1360.5,-237.7323 1463.5,-237.7323 1463.5,-218.7323 1360.5,-218.7323"/>
<text text-anchor="middle" x="1412" y="-225.7323" font-family="Helvetica,sans-Serif" font-size="10.00" fill="#000000">Game::mainMenu</text>
</a>
</g>
</g>
<!-- Node81&#45;&gt;Node84 -->
<g id="edge24" class="edge">
<title>Node81&#45;&gt;Node84</title>
<path fill="none" stroke="#191970" d="M1091.7717,-329.6379C1164.3789,-306.6456 1316.8866,-258.3516 1381.7582,-237.8089"/>
<polygon fill="#191970" stroke="#191970" points="1090.551,-326.3531 1082.0742,-332.7088 1092.6643,-333.0265 1090.551,-326.3531"/>
</g>
<!-- Node82&#45;&gt;Node83 -->
<g id="edge22" class="edge">
<title>Node82&#45;&gt;Node83</title>
<path fill="none" stroke="#191970" d="M1256.8128,-367.3012C1266.6783,-363.8143 1277.2708,-359.9696 1287,-356.2323 1323.4223,-342.2411 1365.1683,-324.5303 1390.0193,-313.8066"/>
<polygon fill="#191970" stroke="#191970" points="1255.529,-364.0423 1247.2485,-370.6517 1257.8434,-370.6487 1255.529,-364.0423"/>
</g>
<!-- Node84&#45;&gt;Node71 -->
<g id="edge25" class="edge">
<title>Node84&#45;&gt;Node71</title>
<path fill="none" stroke="#191970" d="M1472.9441,-217.0859C1493.2452,-213.877 1516.0283,-210.8171 1537,-209.2323 1574.1272,-206.4268 1616.5536,-206.7446 1646.8759,-207.5779"/>
<polygon fill="#191970" stroke="#191970" points="1472.1975,-213.6612 1462.8878,-218.7188 1473.3195,-220.5708 1472.1975,-213.6612"/>
</g>
<!-- Node84&#45;&gt;Node72 -->
<g id="edge26" class="edge">
<title>Node84&#45;&gt;Node72</title>
<path fill="none" stroke="#191970" d="M1472.9441,-239.3787C1493.2452,-242.5876 1516.0283,-245.6476 1537,-247.2323 1571.7823,-249.8607 1611.2157,-249.7477 1640.9902,-249.0378"/>
<polygon fill="#191970" stroke="#191970" points="1473.3195,-235.8939 1462.8878,-237.7459 1472.1975,-242.8034 1473.3195,-235.8939"/>
</g>
<!-- Node86 -->
<g id="node21" class="node">
<title>Node86</title>
<g id="a_node21"><a xlink:href="classEngine.html#a83b7dbeee899b36a13d5b07c7ad87ebc" target="_top" xlink:title="Loads a saved game Loads a saved Game. ">
<polygon fill="none" stroke="#000000" points="999,-208.7323 999,-227.7323 1105,-227.7323 1105,-208.7323 999,-208.7323"/>
<text text-anchor="middle" x="1052" y="-215.7323" font-family="Helvetica,sans-Serif" font-size="10.00" fill="#000000">Engine::loadGame</text>
</a>
</g>
</g>
<!-- Node85&#45;&gt;Node86 -->
<g id="edge29" class="edge">
<title>Node85&#45;&gt;Node86</title>
<path fill="none" stroke="#191970" d="M924.3903,-165.2606C933.7363,-168.7424 943.772,-172.5602 953,-176.2323 979.7147,-186.863 1010.1142,-199.9025 1030.0977,-208.6057"/>
<polygon fill="#191970" stroke="#191970" points="925.5565,-161.9603 914.9633,-161.7741 923.1283,-168.5256 925.5565,-161.9603"/>
</g>
<!-- Node85&#45;&gt;Node88 -->
<g id="edge36" class="edge">
<title>Node85&#45;&gt;Node88</title>
<path fill="none" stroke="#191970" d="M939.6844,-140.3362C962.6661,-134.9949 989.4125,-128.7786 1011.0387,-123.7524"/>
<polygon fill="#191970" stroke="#191970" points="938.706,-136.9703 929.758,-142.6433 940.2907,-143.7885 938.706,-136.9703"/>
</g>
<!-- Node86&#45;&gt;Node83 -->
<g id="edge34" class="edge">
<title>Node86&#45;&gt;Node83</title>
<path fill="none" stroke="#191970" d="M1101.6655,-230.0968C1173.7841,-247.3252 1306.0799,-278.9292 1372.1942,-294.7231"/>
<polygon fill="#191970" stroke="#191970" points="1102.4414,-226.6838 1091.9018,-227.7644 1100.8149,-233.4922 1102.4414,-226.6838"/>
</g>
<!-- Node86&#45;&gt;Node84 -->
<g id="edge35" class="edge">
<title>Node86&#45;&gt;Node84</title>
<path fill="none" stroke="#191970" d="M1115.5221,-219.9968C1185.2454,-221.9336 1295.8354,-225.0055 1360.4148,-226.7994"/>
<polygon fill="#191970" stroke="#191970" points="1115.2126,-216.487 1105.1192,-219.7078 1115.0182,-223.4843 1115.2126,-216.487"/>
</g>
<!-- Node87 -->
<g id="node22" class="node">
<title>Node87</title>
<g id="a_node22"><a xlink:href="classEngine.html#a0ba57971ffb5173ecc425461f65a4cd8" target="_top" xlink:title="Quits the game Sets m_running to false and quitting the game. ">
<polygon fill="none" stroke="#000000" points="1167,-180.7323 1167,-199.7323 1271,-199.7323 1271,-180.7323 1167,-180.7323"/>
<text text-anchor="middle" x="1219" y="-187.7323" font-family="Helvetica,sans-Serif" font-size="10.00" fill="#000000">Engine::quitGame</text>
</a>
</g>
</g>
<!-- Node86&#45;&gt;Node87 -->
<g id="edge30" class="edge">
<title>Node86&#45;&gt;Node87</title>
<path fill="none" stroke="#191970" d="M1115.1627,-207.6422C1132.1906,-204.7872 1150.42,-201.7308 1166.7774,-198.9882"/>
<polygon fill="#191970" stroke="#191970" points="1114.5826,-204.1905 1105.299,-209.2959 1115.7401,-211.0941 1114.5826,-204.1905"/>
</g>
<!-- Node87&#45;&gt;Node69 -->
<g id="edge31" class="edge">
<title>Node87&#45;&gt;Node69</title>
<path fill="none" stroke="#191970" d="M1260.9351,-177.8473C1296.5685,-167.3235 1346.9873,-152.433 1379.5907,-142.804"/>
<polygon fill="#191970" stroke="#191970" points="1259.903,-174.5026 1251.3039,-180.6918 1261.8857,-181.216 1259.903,-174.5026"/>
</g>
<!-- Node87&#45;&gt;Node83 -->
<g id="edge32" class="edge">
<title>Node87&#45;&gt;Node83</title>
<path fill="none" stroke="#191970" d="M1243.7686,-204.8624C1283.8907,-228.5615 1362.0043,-274.7012 1395.787,-294.6557"/>
<polygon fill="#191970" stroke="#191970" points="1245.5133,-201.8281 1235.1231,-199.7558 1241.9532,-207.8552 1245.5133,-201.8281"/>
</g>
<!-- Node87&#45;&gt;Node84 -->
<g id="edge33" class="edge">
<title>Node87&#45;&gt;Node84</title>
<path fill="none" stroke="#191970" d="M1277.6016,-201.7704C1305.1289,-207.1903 1337.5476,-213.5733 1363.6482,-218.7123"/>
<polygon fill="#191970" stroke="#191970" points="1278.1898,-198.3191 1267.702,-199.8213 1276.8375,-205.1873 1278.1898,-198.3191"/>
</g>
<!-- Node88&#45;&gt;Node68 -->
<g id="edge37" class="edge">
<title>Node88&#45;&gt;Node68</title>
<path fill="none" stroke="#191970" d="M1123.7426,-114.2323C1132.7182,-114.2323 1141.8787,-114.2323 1150.7981,-114.2323"/>
<polygon fill="#191970" stroke="#191970" points="1123.7102,-110.7324 1113.7102,-114.2323 1123.7101,-117.7324 1123.7102,-110.7324"/>
</g>
</g>
</svg>
        <g id="navigator" transform="translate(0 0)" fill="#404254">
                <rect fill="#f2f5e9" fill-opacity="0.5" stroke="#606060" stroke-width=".5" x="0" y="0" width="60" height="60"/>
                <use id="zoomplus" xlink:href="#zoomPlus" x="17" y="9" onmousedown="handleZoom(evt,'in')"/>
                <use id="zoomminus" xlink:href="#zoomMin" x="42" y="9" onmousedown="handleZoom(evt,'out')"/>
                <use id="reset" xlink:href="#resetDef" x="30" y="36" onmousedown="handleReset()"/>
                <g id="arrowUp" xlink:href="#dirArrow" transform="translate(30 24)" onmousedown="handlePan(0,-1)">
                  <use xlink:href="#rim" fill="#404040">
                        <set attributeName="fill" to="#808080" begin="arrowUp.mouseover" end="arrowUp.mouseout"/>
                  </use>
                  <path fill="none" stroke="white" stroke-width="1.5" d="M0,-3.0v7 M-2.5,-0.5L0,-3.0L2.5,-0.5"/>
                </g>
                <g id="arrowRight" xlink:href="#dirArrow" transform="rotate(90) translate(36 -43)" onmousedown="handlePan(1,0)">
                  <use xlink:href="#rim" fill="#404040">
                        <set attributeName="fill" to="#808080" begin="arrowRight.mouseover" end="arrowRight.mouseout"/>
                  </use>
                  <path fill="none" stroke="white" stroke-width="1.5" d="M0,-3.0v7 M-2.5,-0.5L0,-3.0L2.5,-0.5"/>
                </g>
                <g id="arrowDown" xlink:href="#dirArrow" transform="rotate(180) translate(-30 -48)" onmousedown="handlePan(0,1)">
                  <use xlink:href="#rim" fill="#404040">
                        <set attributeName="fill" to="#808080" begin="arrowDown.mouseover" end="arrowDown.mouseout"/>
                  </use>
                  <path fill="none" stroke="white" stroke-width="1.5" d="M0,-3.0v7 M-2.5,-0.5L0,-3.0L2.5,-0.5"/>
                </g>
                <g id="arrowLeft" xlink:href="#dirArrow" transform="rotate(270) translate(-36 17)" onmousedown="handlePan(-1,0)">
                  <use xlink:href="#rim" fill="#404040">
                        <set attributeName="fill" to="#808080" begin="arrowLeft.mouseover" end="arrowLeft.mouseout"/>
                  </use>
                  <path fill="none" stroke="white" stroke-width="1.5" d="M0,-3.0v7 M-2.5,-0.5L0,-3.0L2.5,-0.5"/>
                </g>
        </g>
        <svg viewBox="0 0 15 15" width="100%" height="30px" preserveAspectRatio="xMaxYMin meet">
         <g id="arrow_out" transform="scale(0.3 0.3)">
          <a xlink:href="classMap_a05e7d896dc5062af07c9b838600a068d_icgraph_org.svg" target="_base">
           <rect id="button" ry="5" rx="5" y="6" x="6" height="38" width="38"
                fill="#f2f5e9" fill-opacity="0.5" stroke="#606060" stroke-width="1.0"/>
           <path id="arrow"
             d="M 11.500037,31.436501 C 11.940474,20.09759 22.043105,11.32322 32.158766,21.979434 L 37.068811,17.246167 C 37.068811,17.246167 37.088388,32 37.088388,32 L 22.160133,31.978069 C 22.160133,31.978069 26.997745,27.140456 26.997745,27.140456 C 18.528582,18.264221 13.291696,25.230495 11.500037,31.436501 z"
             style="fill:#404040;"/>
          </a>
         </g>
        </svg>
</svg>
