<?xml version="1.0" encoding="UTF-8" standalone="no"?>
<!DOCTYPE svg PUBLIC "-//W3C//DTD SVG 1.1//EN"
 "http://www.w3.org/Graphics/SVG/1.1/DTD/svg11.dtd">
<!-- Generated by graphviz version 2.40.1 (20161225.0304)
 -->
<!-- Title: MessageQueue::push Pages: 1 -->
<svg width="469pt" height="66pt"
 viewBox="0.00 0.00 469.00 66.00" xmlns="http://www.w3.org/2000/svg" xmlns:xlink="http://www.w3.org/1999/xlink">
<g id="graph0" class="graph" transform="scale(1 1) rotate(0) translate(4 62)">
<title>MessageQueue::push</title>
<!-- Node17 -->
<g id="node1" class="node">
<title>Node17</title>
<polygon fill="#bfbfbf" stroke="#000000" points="0,-19.5 0,-38.5 120,-38.5 120,-19.5 0,-19.5"/>
<text text-anchor="middle" x="60" y="-26.5" font-family="Helvetica,sans-Serif" font-size="10.00" fill="#000000">MessageQueue::push</text>
</g>
<!-- Node18 -->
<g id="node2" class="node">
<title>Node18</title>
<g id="a_node2"><a xlink:href="classGame.html#aee1b95e6fd0cb0f441c3b7cef73b1abe" target="_top" xlink:title="ends the game shuts down the game ">
<polygon fill="none" stroke="#000000" points="156,-19.5 156,-38.5 255,-38.5 255,-19.5 156,-19.5"/>
<text text-anchor="middle" x="205.5" y="-26.5" font-family="Helvetica,sans-Serif" font-size="10.00" fill="#000000">Game::shutdown</text>
</a>
</g>
</g>
<!-- Node17&#45;&gt;Node18 -->
<g id="edge1" class="edge">
<title>Node17&#45;&gt;Node18</title>
<path fill="none" stroke="#191970" d="M130.1417,-29C138.8079,-29 147.5236,-29 155.796,-29"/>
<polygon fill="#191970" stroke="#191970" points="130.0205,-25.5001 120.0205,-29 130.0204,-32.5001 130.0205,-25.5001"/>
</g>
<!-- Node19 -->
<g id="node3" class="node">
<title>Node19</title>
<g id="a_node3"><a xlink:href="classGame.html#ad59df6562a58a614fda24622d3715b65" target="_top" xlink:title="Game::Game">
<polygon fill="none" stroke="#000000" points="297,-38.5 297,-57.5 378,-57.5 378,-38.5 297,-38.5"/>
<text text-anchor="middle" x="337.5" y="-45.5" font-family="Helvetica,sans-Serif" font-size="10.00" fill="#000000">Game::Game</text>
</a>
</g>
</g>
<!-- Node18&#45;&gt;Node19 -->
<g id="edge2" class="edge">
<title>Node18&#45;&gt;Node19</title>
<path fill="none" stroke="#191970" d="M265.1625,-37.5878C275.8433,-39.1252 286.7476,-40.6947 296.7426,-42.1334"/>
<polygon fill="#191970" stroke="#191970" points="265.4241,-34.0895 255.0275,-36.129 264.4268,-41.018 265.4241,-34.0895"/>
</g>
<!-- Node20 -->
<g id="node4" class="node">
<title>Node20</title>
<g id="a_node4"><a xlink:href="main_8cxx.html#af582d708d899e67ead623eac34a22387" target="_top" xlink:title="protected_main">
<polygon fill="none" stroke="#000000" points="291,-.5 291,-19.5 384,-19.5 384,-.5 291,-.5"/>
<text text-anchor="middle" x="337.5" y="-7.5" font-family="Helvetica,sans-Serif" font-size="10.00" fill="#000000">protected_main</text>
</a>
</g>
</g>
<!-- Node18&#45;&gt;Node20 -->
<g id="edge3" class="edge">
<title>Node18&#45;&gt;Node20</title>
<path fill="none" stroke="#191970" d="M265.043,-20.4294C273.6632,-19.1886 282.4317,-17.9265 290.7527,-16.7288"/>
<polygon fill="#191970" stroke="#191970" points="264.4268,-16.982 255.0275,-21.871 265.4241,-23.9105 264.4268,-16.982"/>
</g>
<!-- Node21 -->
<g id="node5" class="node">
<title>Node21</title>
<g id="a_node5"><a xlink:href="main_8cxx.html#a3c04138a5bfe5d72780bb7e82a18e627" target="_top" xlink:title="main">
<polygon fill="none" stroke="#000000" points="420,-.5 420,-19.5 461,-19.5 461,-.5 420,-.5"/>
<text text-anchor="middle" x="440.5" y="-7.5" font-family="Helvetica,sans-Serif" font-size="10.00" fill="#000000">main</text>
</a>
</g>
</g>
<!-- Node20&#45;&gt;Node21 -->
<g id="edge4" class="edge">
<title>Node20&#45;&gt;Node21</title>
<path fill="none" stroke="#191970" d="M394.2133,-10C403.4322,-10 412.4259,-10 419.9965,-10"/>
<polygon fill="#191970" stroke="#191970" points="394.1782,-6.5001 384.1782,-10 394.1781,-13.5001 394.1782,-6.5001"/>
</g>
</g>
</svg>
