<?xml version="1.0" encoding="UTF-8" standalone="no"?>
<!DOCTYPE svg PUBLIC "-//W3C//DTD SVG 1.1//EN"
 "http://www.w3.org/Graphics/SVG/1.1/DTD/svg11.dtd">
<!-- Generated by graphviz version 2.40.1 (20161225.0304)
 -->
<!-- Title: Engine::quitGame Pages: 1 -->
<svg width="671pt" height="104pt"
 viewBox="0.00 0.00 671.00 104.00" xmlns="http://www.w3.org/2000/svg" xmlns:xlink="http://www.w3.org/1999/xlink">
<g id="graph0" class="graph" transform="scale(1 1) rotate(0) translate(4 100)">
<title>Engine::quitGame</title>
<!-- Node130 -->
<g id="node1" class="node">
<title>Node130</title>
<polygon fill="#bfbfbf" stroke="#000000" points="0,-38.5 0,-57.5 104,-57.5 104,-38.5 0,-38.5"/>
<text text-anchor="middle" x="52" y="-45.5" font-family="Helvetica,sans-Serif" font-size="10.00" fill="#000000">Engine::quitGame</text>
</g>
<!-- Node131 -->
<g id="node2" class="node">
<title>Node131</title>
<g id="a_node2"><a xlink:href="classEventManager.html#a65ec91fd5016d4f9c4167fb8babed2df" target="_top" xlink:title="EventManager::checkEvents">
<polygon fill="none" stroke="#000000" points="152,-76.5 152,-95.5 306,-95.5 306,-76.5 152,-76.5"/>
<text text-anchor="middle" x="229" y="-83.5" font-family="Helvetica,sans-Serif" font-size="10.00" fill="#000000">EventManager::checkEvents</text>
</a>
</g>
</g>
<!-- Node130&#45;&gt;Node131 -->
<g id="edge1" class="edge">
<title>Node130&#45;&gt;Node131</title>
<path fill="none" stroke="#191970" d="M106.7423,-59.7526C131.77,-65.1258 161.0348,-71.4086 184.6566,-76.4799"/>
<polygon fill="#191970" stroke="#191970" points="107.1765,-56.2661 96.6646,-57.589 105.7071,-63.1102 107.1765,-56.2661"/>
</g>
<!-- Node136 -->
<g id="node7" class="node">
<title>Node136</title>
<g id="a_node7"><a xlink:href="classUIManager.html#aa78e356fc3b356d790c848319d1c387e" target="_top" xlink:title="UIManager::setCallbackFunctions">
<polygon fill="none" stroke="#000000" points="140,-.5 140,-19.5 318,-19.5 318,-.5 140,-.5"/>
<text text-anchor="middle" x="229" y="-7.5" font-family="Helvetica,sans-Serif" font-size="10.00" fill="#000000">UIManager::setCallbackFunctions</text>
</a>
</g>
</g>
<!-- Node130&#45;&gt;Node136 -->
<g id="edge6" class="edge">
<title>Node130&#45;&gt;Node136</title>
<path fill="none" stroke="#191970" d="M106.7423,-36.2474C131.77,-30.8742 161.0348,-24.5914 184.6566,-19.5201"/>
<polygon fill="#191970" stroke="#191970" points="105.7071,-32.8898 96.6646,-38.411 107.1765,-39.7339 105.7071,-32.8898"/>
</g>
<!-- Node137 -->
<g id="node8" class="node">
<title>Node137</title>
<g id="a_node8"><a xlink:href="classGame.html#a5ed7fc5be77080f7f6dd5363f7f007a1" target="_top" xlink:title="initializes and displays the main menu initializes and displays the main menu ">
<polygon fill="none" stroke="#000000" points="354,-38.5 354,-57.5 457,-57.5 457,-38.5 354,-38.5"/>
<text text-anchor="middle" x="405.5" y="-45.5" font-family="Helvetica,sans-Serif" font-size="10.00" fill="#000000">Game::mainMenu</text>
</a>
</g>
</g>
<!-- Node130&#45;&gt;Node137 -->
<g id="edge7" class="edge">
<title>Node130&#45;&gt;Node137</title>
<path fill="none" stroke="#191970" d="M114.3301,-48C182.4844,-48 290.4438,-48 353.9887,-48"/>
<polygon fill="#191970" stroke="#191970" points="114.1602,-44.5001 104.1601,-48 114.1601,-51.5001 114.1602,-44.5001"/>
</g>
<!-- Node132 -->
<g id="node3" class="node">
<title>Node132</title>
<g id="a_node3"><a xlink:href="classGame.html#a1c2ab25d5216b2f4b2fe41efd2c09114" target="_top" xlink:title="begins the game starts running the game ">
<polygon fill="none" stroke="#000000" points="371.5,-76.5 371.5,-95.5 439.5,-95.5 439.5,-76.5 371.5,-76.5"/>
<text text-anchor="middle" x="405.5" y="-83.5" font-family="Helvetica,sans-Serif" font-size="10.00" fill="#000000">Game::run</text>
</a>
</g>
</g>
<!-- Node131&#45;&gt;Node132 -->
<g id="edge2" class="edge">
<title>Node131&#45;&gt;Node132</title>
<path fill="none" stroke="#191970" d="M316.3664,-86C335.9355,-86 355.5625,-86 371.398,-86"/>
<polygon fill="#191970" stroke="#191970" points="316.1587,-82.5001 306.1587,-86 316.1587,-89.5001 316.1587,-82.5001"/>
</g>
<!-- Node133 -->
<g id="node4" class="node">
<title>Node133</title>
<g id="a_node4"><a xlink:href="classGame.html#ad59df6562a58a614fda24622d3715b65" target="_top" xlink:title="Game::Game">
<polygon fill="none" stroke="#000000" points="499,-76.5 499,-95.5 580,-95.5 580,-76.5 499,-76.5"/>
<text text-anchor="middle" x="539.5" y="-83.5" font-family="Helvetica,sans-Serif" font-size="10.00" fill="#000000">Game::Game</text>
</a>
</g>
</g>
<!-- Node132&#45;&gt;Node133 -->
<g id="edge3" class="edge">
<title>Node132&#45;&gt;Node133</title>
<path fill="none" stroke="#191970" d="M449.721,-86C465.5165,-86 483.2293,-86 498.7213,-86"/>
<polygon fill="#191970" stroke="#191970" points="449.6606,-82.5001 439.6606,-86 449.6605,-89.5001 449.6606,-82.5001"/>
</g>
<!-- Node134 -->
<g id="node5" class="node">
<title>Node134</title>
<g id="a_node5"><a xlink:href="main_8cxx.html#af582d708d899e67ead623eac34a22387" target="_top" xlink:title="protected_main">
<polygon fill="none" stroke="#000000" points="493,-38.5 493,-57.5 586,-57.5 586,-38.5 493,-38.5"/>
<text text-anchor="middle" x="539.5" y="-45.5" font-family="Helvetica,sans-Serif" font-size="10.00" fill="#000000">protected_main</text>
</a>
</g>
</g>
<!-- Node132&#45;&gt;Node134 -->
<g id="edge4" class="edge">
<title>Node132&#45;&gt;Node134</title>
<path fill="none" stroke="#191970" d="M448.9383,-73.6817C467.3491,-68.4607 488.4798,-62.4684 505.697,-57.5859"/>
<polygon fill="#191970" stroke="#191970" points="447.9796,-70.3155 439.3139,-76.411 449.8894,-77.0499 447.9796,-70.3155"/>
</g>
<!-- Node135 -->
<g id="node6" class="node">
<title>Node135</title>
<g id="a_node6"><a xlink:href="main_8cxx.html#a3c04138a5bfe5d72780bb7e82a18e627" target="_top" xlink:title="main">
<polygon fill="none" stroke="#000000" points="622,-38.5 622,-57.5 663,-57.5 663,-38.5 622,-38.5"/>
<text text-anchor="middle" x="642.5" y="-45.5" font-family="Helvetica,sans-Serif" font-size="10.00" fill="#000000">main</text>
</a>
</g>
</g>
<!-- Node134&#45;&gt;Node135 -->
<g id="edge5" class="edge">
<title>Node134&#45;&gt;Node135</title>
<path fill="none" stroke="#191970" d="M596.2133,-48C605.4322,-48 614.4259,-48 621.9965,-48"/>
<polygon fill="#191970" stroke="#191970" points="596.1782,-44.5001 586.1782,-48 596.1781,-51.5001 596.1782,-44.5001"/>
</g>
<!-- Node137&#45;&gt;Node133 -->
<g id="edge8" class="edge">
<title>Node137&#45;&gt;Node133</title>
<path fill="none" stroke="#191970" d="M448.9383,-60.3183C467.3491,-65.5393 488.4798,-71.5316 505.697,-76.4141"/>
<polygon fill="#191970" stroke="#191970" points="449.8894,-56.9501 439.3139,-57.589 447.9796,-63.6845 449.8894,-56.9501"/>
</g>
<!-- Node137&#45;&gt;Node134 -->
<g id="edge9" class="edge">
<title>Node137&#45;&gt;Node134</title>
<path fill="none" stroke="#191970" d="M467.5242,-48C475.9726,-48 484.5272,-48 492.6465,-48"/>
<polygon fill="#191970" stroke="#191970" points="467.3079,-44.5001 457.3079,-48 467.3079,-51.5001 467.3079,-44.5001"/>
</g>
</g>
</svg>
