<?xml version="1.0" encoding="UTF-8" standalone="no"?>
<!DOCTYPE svg PUBLIC "-//W3C//DTD SVG 1.1//EN"
 "http://www.w3.org/Graphics/SVG/1.1/DTD/svg11.dtd">
<!-- Generated by graphviz version 2.40.1 (20161225.0304)
 -->
<!-- Title: Engine::newGame Pages: 1 -->
<svg width="548pt" height="123pt"
 viewBox="0.00 0.00 548.00 123.00" xmlns="http://www.w3.org/2000/svg" xmlns:xlink="http://www.w3.org/1999/xlink">
<g id="graph0" class="graph" transform="scale(1 1) rotate(0) translate(4 119)">
<title>Engine::newGame</title>
<!-- Node102 -->
<g id="node1" class="node">
<title>Node102</title>
<polygon fill="#bfbfbf" stroke="#000000" points="0,-57.5 0,-76.5 105,-76.5 105,-57.5 0,-57.5"/>
<text text-anchor="middle" x="52.5" y="-64.5" font-family="Helvetica,sans-Serif" font-size="10.00" fill="#000000">Engine::newGame</text>
</g>
<!-- Node103 -->
<g id="node2" class="node">
<title>Node103</title>
<g id="a_node2"><a xlink:href="classEngine.html#af7de8d74b0cfacaf06df53e7caf11538" target="_top" xlink:title="Engine::saveGame">
<polygon fill="none" stroke="#000000" points="141,-76.5 141,-95.5 249,-95.5 249,-76.5 141,-76.5"/>
<text text-anchor="middle" x="195" y="-83.5" font-family="Helvetica,sans-Serif" font-size="10.00" fill="#000000">Engine::saveGame</text>
</a>
</g>
</g>
<!-- Node102&#45;&gt;Node103 -->
<g id="edge1" class="edge">
<title>Node102&#45;&gt;Node103</title>
<path fill="none" stroke="#191970" d="M115.3389,-75.3785C123.7778,-76.5037 132.3763,-77.6502 140.652,-78.7536"/>
<polygon fill="#191970" stroke="#191970" points="115.5318,-71.8733 105.1569,-74.0209 114.6066,-78.8119 115.5318,-71.8733"/>
</g>
<!-- Node104 -->
<g id="node3" class="node">
<title>Node104</title>
<g id="a_node3"><a xlink:href="classUIManager.html#aa78e356fc3b356d790c848319d1c387e" target="_top" xlink:title="UIManager::setCallbackFunctions">
<polygon fill="none" stroke="#000000" points="285,-95.5 285,-114.5 463,-114.5 463,-95.5 285,-95.5"/>
<text text-anchor="middle" x="374" y="-102.5" font-family="Helvetica,sans-Serif" font-size="10.00" fill="#000000">UIManager::setCallbackFunctions</text>
</a>
</g>
</g>
<!-- Node102&#45;&gt;Node104 -->
<g id="edge3" class="edge">
<title>Node102&#45;&gt;Node104</title>
<path fill="none" stroke="#191970" d="M77.9833,-81.2323C95.1946,-90.0057 118.7509,-100.4253 141,-105 187.8536,-114.6337 241.1365,-115.3675 284.9122,-113.3679"/>
<polygon fill="#191970" stroke="#191970" points="79.603,-78.1297 69.1228,-76.5752 76.3462,-84.3259 79.603,-78.1297"/>
</g>
<!-- Node105 -->
<g id="node4" class="node">
<title>Node105</title>
<g id="a_node4"><a xlink:href="classGame.html#a5ed7fc5be77080f7f6dd5363f7f007a1" target="_top" xlink:title="initializes and displays the main menu initializes and displays the main menu ">
<polygon fill="none" stroke="#000000" points="143.5,-38.5 143.5,-57.5 246.5,-57.5 246.5,-38.5 143.5,-38.5"/>
<text text-anchor="middle" x="195" y="-45.5" font-family="Helvetica,sans-Serif" font-size="10.00" fill="#000000">Game::mainMenu</text>
</a>
</g>
</g>
<!-- Node102&#45;&gt;Node105 -->
<g id="edge4" class="edge">
<title>Node102&#45;&gt;Node105</title>
<path fill="none" stroke="#191970" d="M115.1522,-58.6464C124.4637,-57.4048 133.9741,-56.1368 143.0345,-54.9287"/>
<polygon fill="#191970" stroke="#191970" points="114.6066,-55.1881 105.1569,-59.9791 115.5318,-62.1267 114.6066,-55.1881"/>
</g>
<!-- Node109 -->
<g id="node8" class="node">
<title>Node109</title>
<g id="a_node8"><a xlink:href="classGame.html#a1c2ab25d5216b2f4b2fe41efd2c09114" target="_top" xlink:title="begins the game starts running the game ">
<polygon fill="none" stroke="#000000" points="161,-.5 161,-19.5 229,-19.5 229,-.5 161,-.5"/>
<text text-anchor="middle" x="195" y="-7.5" font-family="Helvetica,sans-Serif" font-size="10.00" fill="#000000">Game::run</text>
</a>
</g>
</g>
<!-- Node102&#45;&gt;Node109 -->
<g id="edge8" class="edge">
<title>Node102&#45;&gt;Node109</title>
<path fill="none" stroke="#191970" d="M83.1902,-53.2196C100.125,-45.7683 121.5973,-36.5691 141,-29 149.3329,-25.7493 158.481,-22.4359 166.8411,-19.5057"/>
<polygon fill="#191970" stroke="#191970" points="81.5208,-50.131 73.7934,-57.3793 84.3543,-56.5318 81.5208,-50.131"/>
</g>
<!-- Node103&#45;&gt;Node104 -->
<g id="edge2" class="edge">
<title>Node103&#45;&gt;Node104</title>
<path fill="none" stroke="#191970" d="M259.2103,-92.8156C267.5722,-93.7032 276.2549,-94.6248 284.9322,-95.5459"/>
<polygon fill="#191970" stroke="#191970" points="259.5053,-89.3274 249.1917,-91.7522 258.7663,-96.2882 259.5053,-89.3274"/>
</g>
<!-- Node106 -->
<g id="node5" class="node">
<title>Node106</title>
<g id="a_node5"><a xlink:href="classGame.html#ad59df6562a58a614fda24622d3715b65" target="_top" xlink:title="Game::Game">
<polygon fill="none" stroke="#000000" points="333.5,-.5 333.5,-19.5 414.5,-19.5 414.5,-.5 333.5,-.5"/>
<text text-anchor="middle" x="374" y="-7.5" font-family="Helvetica,sans-Serif" font-size="10.00" fill="#000000">Game::Game</text>
</a>
</g>
</g>
<!-- Node105&#45;&gt;Node106 -->
<g id="edge5" class="edge">
<title>Node105&#45;&gt;Node106</title>
<path fill="none" stroke="#191970" d="M250.2069,-36.2801C277.0832,-30.5745 308.8205,-23.837 333.4311,-18.6124"/>
<polygon fill="#191970" stroke="#191970" points="249.2244,-32.9106 240.1693,-38.411 250.6781,-39.758 249.2244,-32.9106"/>
</g>
<!-- Node107 -->
<g id="node6" class="node">
<title>Node107</title>
<g id="a_node6"><a xlink:href="main_8cxx.html#af582d708d899e67ead623eac34a22387" target="_top" xlink:title="protected_main">
<polygon fill="none" stroke="#000000" points="327.5,-38.5 327.5,-57.5 420.5,-57.5 420.5,-38.5 327.5,-38.5"/>
<text text-anchor="middle" x="374" y="-45.5" font-family="Helvetica,sans-Serif" font-size="10.00" fill="#000000">protected_main</text>
</a>
</g>
</g>
<!-- Node105&#45;&gt;Node107 -->
<g id="edge6" class="edge">
<title>Node105&#45;&gt;Node107</title>
<path fill="none" stroke="#191970" d="M256.8215,-48C279.908,-48 305.7198,-48 327.2292,-48"/>
<polygon fill="#191970" stroke="#191970" points="256.7743,-44.5001 246.7742,-48 256.7742,-51.5001 256.7743,-44.5001"/>
</g>
<!-- Node108 -->
<g id="node7" class="node">
<title>Node108</title>
<g id="a_node7"><a xlink:href="main_8cxx.html#a3c04138a5bfe5d72780bb7e82a18e627" target="_top" xlink:title="main">
<polygon fill="none" stroke="#000000" points="499,-38.5 499,-57.5 540,-57.5 540,-38.5 499,-38.5"/>
<text text-anchor="middle" x="519.5" y="-45.5" font-family="Helvetica,sans-Serif" font-size="10.00" fill="#000000">main</text>
</a>
</g>
</g>
<!-- Node107&#45;&gt;Node108 -->
<g id="edge7" class="edge">
<title>Node107&#45;&gt;Node108</title>
<path fill="none" stroke="#191970" d="M430.8931,-48C454.7718,-48 481.0463,-48 498.7355,-48"/>
<polygon fill="#191970" stroke="#191970" points="430.838,-44.5001 420.838,-48 430.838,-51.5001 430.838,-44.5001"/>
</g>
<!-- Node109&#45;&gt;Node106 -->
<g id="edge9" class="edge">
<title>Node109&#45;&gt;Node106</title>
<path fill="none" stroke="#191970" d="M239.2915,-10C268.1123,-10 305.415,-10 333.4564,-10"/>
<polygon fill="#191970" stroke="#191970" points="239.0899,-6.5001 229.0899,-10 239.0898,-13.5001 239.0899,-6.5001"/>
</g>
<!-- Node109&#45;&gt;Node107 -->
<g id="edge10" class="edge">
<title>Node109&#45;&gt;Node107</title>
<path fill="none" stroke="#191970" d="M239.1828,-19.3796C266.5838,-25.1966 301.6831,-32.6478 329.1988,-38.4891"/>
<polygon fill="#191970" stroke="#191970" points="239.5987,-15.89 229.0899,-17.237 238.145,-22.7374 239.5987,-15.89"/>
</g>
</g>
</svg>
