<?xml version="1.0" encoding="UTF-8" standalone="no"?>
<!DOCTYPE svg PUBLIC "-//W3C//DTD SVG 1.1//EN"
 "http://www.w3.org/Graphics/SVG/1.1/DTD/svg11.dtd">
<!-- Generated by graphviz version 2.40.1 (20161225.0304)
 -->
<!-- Title: Map::Map Pages: 1 -->
<svg width="1122pt" height="131pt"
 viewBox="0.00 0.00 1122.00 131.44" xmlns="http://www.w3.org/2000/svg" xmlns:xlink="http://www.w3.org/1999/xlink">
<g id="graph0" class="graph" transform="scale(1 1) rotate(0) translate(4 127.4359)">
<title>Map::Map</title>
<!-- Node1 -->
<g id="node1" class="node">
<title>Node1</title>
<polygon fill="#bfbfbf" stroke="#000000" points="0,-65.9359 0,-84.9359 63,-84.9359 63,-65.9359 0,-65.9359"/>
<text text-anchor="middle" x="31.5" y="-72.9359" font-family="Helvetica,sans-Serif" font-size="10.00" fill="#000000">Map::Map</text>
</g>
<!-- Node2 -->
<g id="node2" class="node">
<title>Node2</title>
<g id="a_node2"><a xlink:href="classMap.html#afefe996cc1f62b61ec60d0ae415953bf" target="_top" xlink:title="Map::loadMapFromFile">
<polygon fill="none" stroke="#000000" points="99,-65.9359 99,-84.9359 224,-84.9359 224,-65.9359 99,-65.9359"/>
<text text-anchor="middle" x="161.5" y="-72.9359" font-family="Helvetica,sans-Serif" font-size="10.00" fill="#000000">Map::loadMapFromFile</text>
</a>
</g>
</g>
<!-- Node1&#45;&gt;Node2 -->
<g id="edge1" class="edge">
<title>Node1&#45;&gt;Node2</title>
<path fill="none" stroke="#191970" d="M73.5382,-75.4359C81.5999,-75.4359 90.2024,-75.4359 98.7528,-75.4359"/>
<polygon fill="#191970" stroke="#191970" points="73.3016,-71.936 63.3016,-75.4359 73.3015,-78.936 73.3016,-71.936"/>
</g>
<!-- Node3 -->
<g id="node3" class="node">
<title>Node3</title>
<g id="a_node3"><a xlink:href="classEngine.html#a83b7dbeee899b36a13d5b07c7ad87ebc" target="_top" xlink:title="Loads a saved game Loads a saved Game. ">
<polygon fill="none" stroke="#000000" points="268.5,-46.9359 268.5,-65.9359 374.5,-65.9359 374.5,-46.9359 268.5,-46.9359"/>
<text text-anchor="middle" x="321.5" y="-53.9359" font-family="Helvetica,sans-Serif" font-size="10.00" fill="#000000">Engine::loadGame</text>
</a>
</g>
</g>
<!-- Node2&#45;&gt;Node3 -->
<g id="edge2" class="edge">
<title>Node2&#45;&gt;Node3</title>
<path fill="none" stroke="#191970" d="M234.3143,-66.7892C245.8222,-65.4226 257.53,-64.0323 268.4749,-62.7326"/>
<polygon fill="#191970" stroke="#191970" points="233.7945,-63.3262 224.277,-67.9811 234.62,-70.2774 233.7945,-63.3262"/>
</g>
<!-- Node12 -->
<g id="node12" class="node">
<title>Node12</title>
<g id="a_node12"><a xlink:href="classMap.html#a779c939483a52b32a3959b99af95e67a" target="_top" xlink:title="Set the Tile ID Of Node object Also invokes all necessary texture updates (auto&#45;tiling, slopes, ...) ">
<polygon fill="none" stroke="#000000" points="260,-93.9359 260,-112.9359 383,-112.9359 383,-93.9359 260,-93.9359"/>
<text text-anchor="middle" x="321.5" y="-100.9359" font-family="Helvetica,sans-Serif" font-size="10.00" fill="#000000">Map::setTileIDOfNode</text>
</a>
</g>
</g>
<!-- Node2&#45;&gt;Node12 -->
<g id="edge15" class="edge">
<title>Node2&#45;&gt;Node12</title>
<path fill="none" stroke="#191970" d="M226.327,-86.7806C239.8694,-89.1505 254.014,-91.6258 267.1307,-93.9213"/>
<polygon fill="#191970" stroke="#191970" points="226.5691,-83.2699 216.1154,-84.9936 225.3624,-90.1651 226.5691,-83.2699"/>
</g>
<!-- Node4 -->
<g id="node4" class="node">
<title>Node4</title>
<g id="a_node4"><a xlink:href="classEngine.html#a0ba57971ffb5173ecc425461f65a4cd8" target="_top" xlink:title="Quits the game Sets m_running to false and quitting the game. ">
<polygon fill="none" stroke="#000000" points="435,-65.9359 435,-84.9359 539,-84.9359 539,-65.9359 435,-65.9359"/>
<text text-anchor="middle" x="487" y="-72.9359" font-family="Helvetica,sans-Serif" font-size="10.00" fill="#000000">Engine::quitGame</text>
</a>
</g>
</g>
<!-- Node3&#45;&gt;Node4 -->
<g id="edge3" class="edge">
<title>Node3&#45;&gt;Node4</title>
<path fill="none" stroke="#191970" d="M384.9079,-63.7153C401.4475,-65.6141 419.0792,-67.6383 434.9541,-69.4608"/>
<polygon fill="#191970" stroke="#191970" points="385.1102,-60.2157 374.7762,-62.5522 384.3118,-67.17 385.1102,-60.2157"/>
</g>
<!-- Node10 -->
<g id="node10" class="node">
<title>Node10</title>
<g id="a_node10"><a xlink:href="classUIManager.html#aa78e356fc3b356d790c848319d1c387e" target="_top" xlink:title="UIManager::setCallbackFunctions">
<polygon fill="none" stroke="#000000" points="591,-27.9359 591,-46.9359 769,-46.9359 769,-27.9359 591,-27.9359"/>
<text text-anchor="middle" x="680" y="-34.9359" font-family="Helvetica,sans-Serif" font-size="10.00" fill="#000000">UIManager::setCallbackFunctions</text>
</a>
</g>
</g>
<!-- Node3&#45;&gt;Node10 -->
<g id="edge13" class="edge">
<title>Node3&#45;&gt;Node10</title>
<path fill="none" stroke="#191970" d="M384.7817,-53.082C442.003,-50.0494 526.8502,-45.5526 590.9178,-42.1571"/>
<polygon fill="#191970" stroke="#191970" points="384.5847,-49.5875 374.784,-53.6119 384.9552,-56.5777 384.5847,-49.5875"/>
</g>
<!-- Node11 -->
<g id="node11" class="node">
<title>Node11</title>
<g id="a_node11"><a xlink:href="classGame.html#a5ed7fc5be77080f7f6dd5363f7f007a1" target="_top" xlink:title="initializes and displays the main menu initializes and displays the main menu ">
<polygon fill="none" stroke="#000000" points="805,-65.9359 805,-84.9359 908,-84.9359 908,-65.9359 805,-65.9359"/>
<text text-anchor="middle" x="856.5" y="-72.9359" font-family="Helvetica,sans-Serif" font-size="10.00" fill="#000000">Game::mainMenu</text>
</a>
</g>
</g>
<!-- Node3&#45;&gt;Node11 -->
<g id="edge14" class="edge">
<title>Node3&#45;&gt;Node11</title>
<path fill="none" stroke="#191970" d="M359.9262,-43.8781C438.5531,-20.1837 622.7164,25.0083 769,-18.4359 800.2834,-27.7266 830.8332,-52.1322 846.215,-65.8042"/>
<polygon fill="#191970" stroke="#191970" points="358.5192,-40.6488 349.9868,-46.9296 360.5737,-47.3405 358.5192,-40.6488"/>
</g>
<!-- Node5 -->
<g id="node5" class="node">
<title>Node5</title>
<g id="a_node5"><a xlink:href="classEventManager.html#a65ec91fd5016d4f9c4167fb8babed2df" target="_top" xlink:title="EventManager::checkEvents">
<polygon fill="none" stroke="#000000" points="603,-103.9359 603,-122.9359 757,-122.9359 757,-103.9359 603,-103.9359"/>
<text text-anchor="middle" x="680" y="-110.9359" font-family="Helvetica,sans-Serif" font-size="10.00" fill="#000000">EventManager::checkEvents</text>
</a>
</g>
</g>
<!-- Node4&#45;&gt;Node5 -->
<g id="edge4" class="edge">
<title>Node4&#45;&gt;Node5</title>
<path fill="none" stroke="#191970" d="M545.6016,-86.974C573.1289,-92.3939 605.5476,-98.7769 631.6482,-103.9158"/>
<polygon fill="#191970" stroke="#191970" points="546.1898,-83.5227 535.702,-85.0249 544.8375,-90.3909 546.1898,-83.5227"/>
</g>
<!-- Node4&#45;&gt;Node10 -->
<g id="edge9" class="edge">
<title>Node4&#45;&gt;Node10</title>
<path fill="none" stroke="#191970" d="M545.6016,-63.8977C573.1289,-58.4779 605.5476,-52.0949 631.6482,-46.9559"/>
<polygon fill="#191970" stroke="#191970" points="544.8375,-60.4809 535.702,-65.8469 546.1898,-67.349 544.8375,-60.4809"/>
</g>
<!-- Node4&#45;&gt;Node11 -->
<g id="edge10" class="edge">
<title>Node4&#45;&gt;Node11</title>
<path fill="none" stroke="#191970" d="M549.4215,-75.4359C621.2761,-75.4359 737.9682,-75.4359 804.9062,-75.4359"/>
<polygon fill="#191970" stroke="#191970" points="549.1567,-71.936 539.1566,-75.4359 549.1566,-78.936 549.1567,-71.936"/>
</g>
<!-- Node6 -->
<g id="node6" class="node">
<title>Node6</title>
<g id="a_node6"><a xlink:href="classGame.html#a1c2ab25d5216b2f4b2fe41efd2c09114" target="_top" xlink:title="begins the game starts running the game ">
<polygon fill="none" stroke="#000000" points="822.5,-103.9359 822.5,-122.9359 890.5,-122.9359 890.5,-103.9359 822.5,-103.9359"/>
<text text-anchor="middle" x="856.5" y="-110.9359" font-family="Helvetica,sans-Serif" font-size="10.00" fill="#000000">Game::run</text>
</a>
</g>
</g>
<!-- Node5&#45;&gt;Node6 -->
<g id="edge5" class="edge">
<title>Node5&#45;&gt;Node6</title>
<path fill="none" stroke="#191970" d="M767.3664,-113.4359C786.9355,-113.4359 806.5625,-113.4359 822.398,-113.4359"/>
<polygon fill="#191970" stroke="#191970" points="767.1587,-109.936 757.1587,-113.4359 767.1587,-116.936 767.1587,-109.936"/>
</g>
<!-- Node7 -->
<g id="node7" class="node">
<title>Node7</title>
<g id="a_node7"><a xlink:href="classGame.html#ad59df6562a58a614fda24622d3715b65" target="_top" xlink:title="Game::Game">
<polygon fill="none" stroke="#000000" points="950,-65.9359 950,-84.9359 1031,-84.9359 1031,-65.9359 950,-65.9359"/>
<text text-anchor="middle" x="990.5" y="-72.9359" font-family="Helvetica,sans-Serif" font-size="10.00" fill="#000000">Game::Game</text>
</a>
</g>
</g>
<!-- Node6&#45;&gt;Node7 -->
<g id="edge6" class="edge">
<title>Node6&#45;&gt;Node7</title>
<path fill="none" stroke="#191970" d="M899.9383,-101.1176C918.3491,-95.8966 939.4798,-89.9043 956.697,-85.0218"/>
<polygon fill="#191970" stroke="#191970" points="898.9796,-97.7513 890.3139,-103.8469 900.8894,-104.4858 898.9796,-97.7513"/>
</g>
<!-- Node8 -->
<g id="node8" class="node">
<title>Node8</title>
<g id="a_node8"><a xlink:href="main_8cxx.html#af582d708d899e67ead623eac34a22387" target="_top" xlink:title="protected_main">
<polygon fill="none" stroke="#000000" points="944,-103.9359 944,-122.9359 1037,-122.9359 1037,-103.9359 944,-103.9359"/>
<text text-anchor="middle" x="990.5" y="-110.9359" font-family="Helvetica,sans-Serif" font-size="10.00" fill="#000000">protected_main</text>
</a>
</g>
</g>
<!-- Node6&#45;&gt;Node8 -->
<g id="edge7" class="edge">
<title>Node6&#45;&gt;Node8</title>
<path fill="none" stroke="#191970" d="M900.8611,-113.4359C914.6278,-113.4359 929.8396,-113.4359 943.7626,-113.4359"/>
<polygon fill="#191970" stroke="#191970" points="900.6606,-109.936 890.6606,-113.4359 900.6605,-116.936 900.6606,-109.936"/>
</g>
<!-- Node9 -->
<g id="node9" class="node">
<title>Node9</title>
<g id="a_node9"><a xlink:href="main_8cxx.html#a3c04138a5bfe5d72780bb7e82a18e627" target="_top" xlink:title="main">
<polygon fill="none" stroke="#000000" points="1073,-103.9359 1073,-122.9359 1114,-122.9359 1114,-103.9359 1073,-103.9359"/>
<text text-anchor="middle" x="1093.5" y="-110.9359" font-family="Helvetica,sans-Serif" font-size="10.00" fill="#000000">main</text>
</a>
</g>
</g>
<!-- Node8&#45;&gt;Node9 -->
<g id="edge8" class="edge">
<title>Node8&#45;&gt;Node9</title>
<path fill="none" stroke="#191970" d="M1047.2133,-113.4359C1056.4322,-113.4359 1065.4259,-113.4359 1072.9965,-113.4359"/>
<polygon fill="#191970" stroke="#191970" points="1047.1782,-109.936 1037.1782,-113.4359 1047.1781,-116.936 1047.1782,-109.936"/>
</g>
<!-- Node11&#45;&gt;Node7 -->
<g id="edge11" class="edge">
<title>Node11&#45;&gt;Node7</title>
<path fill="none" stroke="#191970" d="M918.3832,-75.4359C928.9831,-75.4359 939.7548,-75.4359 949.6287,-75.4359"/>
<polygon fill="#191970" stroke="#191970" points="918.3079,-71.936 908.3079,-75.4359 918.3079,-78.936 918.3079,-71.936"/>
</g>
<!-- Node11&#45;&gt;Node8 -->
<g id="edge12" class="edge">
<title>Node11&#45;&gt;Node8</title>
<path fill="none" stroke="#191970" d="M899.9383,-87.7542C918.3491,-92.9752 939.4798,-98.9675 956.697,-103.8499"/>
<polygon fill="#191970" stroke="#191970" points="900.8894,-84.386 890.3139,-85.0249 898.9796,-91.1204 900.8894,-84.386"/>
</g>
<!-- Node13 -->
<g id="node13" class="node">
<title>Node13</title>
<g id="a_node13"><a xlink:href="classEngine.html#a8a53c5e52734a5158b317851361b83f2" target="_top" xlink:title="Engine::setTileIDOfNode">
<polygon fill="none" stroke="#000000" points="419,-103.9359 419,-122.9359 555,-122.9359 555,-103.9359 419,-103.9359"/>
<text text-anchor="middle" x="487" y="-110.9359" font-family="Helvetica,sans-Serif" font-size="10.00" fill="#000000">Engine::setTileIDOfNode</text>
</a>
</g>
</g>
<!-- Node12&#45;&gt;Node13 -->
<g id="edge16" class="edge">
<title>Node12&#45;&gt;Node13</title>
<path fill="none" stroke="#191970" d="M393.3736,-107.7787C401.858,-108.2914 410.4976,-108.8134 418.9273,-109.3227"/>
<polygon fill="#191970" stroke="#191970" points="393.319,-104.2691 383.1261,-107.1595 392.8968,-111.2564 393.319,-104.2691"/>
</g>
<!-- Node13&#45;&gt;Node5 -->
<g id="edge17" class="edge">
<title>Node13&#45;&gt;Node5</title>
<path fill="none" stroke="#191970" d="M565.292,-113.4359C577.6288,-113.4359 590.3776,-113.4359 602.6918,-113.4359"/>
<polygon fill="#191970" stroke="#191970" points="565.0446,-109.936 555.0446,-113.4359 565.0445,-116.936 565.0446,-109.936"/>
</g>
</g>
</svg>
