<?xml version="1.0" encoding="UTF-8" standalone="no"?>
<!DOCTYPE svg PUBLIC "-//W3C//DTD SVG 1.1//EN"
 "http://www.w3.org/Graphics/SVG/1.1/DTD/svg11.dtd">
<!-- Generated by graphviz version 2.40.1 (20161225.0304)
 -->
<!-- Title: UIManager::toggleGroupVisibility Pages: 1 -->
<svg width="710pt" height="85pt"
 viewBox="0.00 0.00 710.00 85.00" xmlns="http://www.w3.org/2000/svg" xmlns:xlink="http://www.w3.org/1999/xlink">
<g id="graph0" class="graph" transform="scale(1 1) rotate(0) translate(4 81)">
<title>UIManager::toggleGroupVisibility</title>
<!-- Node264 -->
<g id="node1" class="node">
<title>Node264</title>
<polygon fill="#bfbfbf" stroke="#000000" points="0,-19.5 0,-38.5 178,-38.5 178,-19.5 0,-19.5"/>
<text text-anchor="middle" x="89" y="-26.5" font-family="Helvetica,sans-Serif" font-size="10.00" fill="#000000">UIManager::toggleGroupVisibility</text>
</g>
<!-- Node265 -->
<g id="node2" class="node">
<title>Node265</title>
<g id="a_node2"><a xlink:href="classEventManager.html#a65ec91fd5016d4f9c4167fb8babed2df" target="_top" xlink:title="EventManager::checkEvents">
<polygon fill="none" stroke="#000000" points="226,-38.5 226,-57.5 380,-57.5 380,-38.5 226,-38.5"/>
<text text-anchor="middle" x="303" y="-45.5" font-family="Helvetica,sans-Serif" font-size="10.00" fill="#000000">EventManager::checkEvents</text>
</a>
</g>
</g>
<!-- Node264&#45;&gt;Node265 -->
<g id="edge1" class="edge">
<title>Node264&#45;&gt;Node265</title>
<path fill="none" stroke="#191970" d="M188.2788,-37.8145C200.8944,-38.9346 213.6539,-40.0674 225.851,-41.1503"/>
<polygon fill="#191970" stroke="#191970" points="188.476,-34.3183 178.2057,-36.9201 187.8569,-41.2909 188.476,-34.3183"/>
</g>
<!-- Node270 -->
<g id="node7" class="node">
<title>Node270</title>
<g id="a_node7"><a xlink:href="classUIManager.html#aa78e356fc3b356d790c848319d1c387e" target="_top" xlink:title="UIManager::setCallbackFunctions">
<polygon fill="none" stroke="#000000" points="214,-.5 214,-19.5 392,-19.5 392,-.5 214,-.5"/>
<text text-anchor="middle" x="303" y="-7.5" font-family="Helvetica,sans-Serif" font-size="10.00" fill="#000000">UIManager::setCallbackFunctions</text>
</a>
</g>
</g>
<!-- Node264&#45;&gt;Node270 -->
<g id="edge6" class="edge">
<title>Node264&#45;&gt;Node270</title>
<path fill="none" stroke="#191970" d="M188.2299,-20.1899C196.8066,-19.4284 205.4503,-18.661 213.9388,-17.9073"/>
<polygon fill="#191970" stroke="#191970" points="187.8569,-16.7091 178.2057,-21.0799 188.476,-23.6817 187.8569,-16.7091"/>
</g>
<!-- Node266 -->
<g id="node3" class="node">
<title>Node266</title>
<g id="a_node3"><a xlink:href="classGame.html#a1c2ab25d5216b2f4b2fe41efd2c09114" target="_top" xlink:title="begins the game starts running the game ">
<polygon fill="none" stroke="#000000" points="428,-38.5 428,-57.5 496,-57.5 496,-38.5 428,-38.5"/>
<text text-anchor="middle" x="462" y="-45.5" font-family="Helvetica,sans-Serif" font-size="10.00" fill="#000000">Game::run</text>
</a>
</g>
</g>
<!-- Node265&#45;&gt;Node266 -->
<g id="edge2" class="edge">
<title>Node265&#45;&gt;Node266</title>
<path fill="none" stroke="#191970" d="M390.3849,-48C403.6982,-48 416.7136,-48 427.918,-48"/>
<polygon fill="#191970" stroke="#191970" points="390.1712,-44.5001 380.1712,-48 390.1712,-51.5001 390.1712,-44.5001"/>
</g>
<!-- Node267 -->
<g id="node4" class="node">
<title>Node267</title>
<g id="a_node4"><a xlink:href="classGame.html#ad59df6562a58a614fda24622d3715b65" target="_top" xlink:title="Game::Game">
<polygon fill="none" stroke="#000000" points="538,-57.5 538,-76.5 619,-76.5 619,-57.5 538,-57.5"/>
<text text-anchor="middle" x="578.5" y="-64.5" font-family="Helvetica,sans-Serif" font-size="10.00" fill="#000000">Game::Game</text>
</a>
</g>
</g>
<!-- Node266&#45;&gt;Node267 -->
<g id="edge3" class="edge">
<title>Node266&#45;&gt;Node267</title>
<path fill="none" stroke="#191970" d="M506.0985,-55.192C516.4513,-56.8805 527.439,-58.6725 537.6427,-60.3366"/>
<polygon fill="#191970" stroke="#191970" points="506.4428,-51.702 496.0098,-53.5467 505.316,-58.6107 506.4428,-51.702"/>
</g>
<!-- Node268 -->
<g id="node5" class="node">
<title>Node268</title>
<g id="a_node5"><a xlink:href="main_8cxx.html#af582d708d899e67ead623eac34a22387" target="_top" xlink:title="protected_main">
<polygon fill="none" stroke="#000000" points="532,-19.5 532,-38.5 625,-38.5 625,-19.5 532,-19.5"/>
<text text-anchor="middle" x="578.5" y="-26.5" font-family="Helvetica,sans-Serif" font-size="10.00" fill="#000000">protected_main</text>
</a>
</g>
</g>
<!-- Node266&#45;&gt;Node268 -->
<g id="edge4" class="edge">
<title>Node266&#45;&gt;Node268</title>
<path fill="none" stroke="#191970" d="M505.9884,-40.8259C514.382,-39.457 523.1965,-38.0195 531.6749,-36.6367"/>
<polygon fill="#191970" stroke="#191970" points="505.316,-37.3893 496.0098,-42.4533 506.4428,-44.298 505.316,-37.3893"/>
</g>
<!-- Node269 -->
<g id="node6" class="node">
<title>Node269</title>
<g id="a_node6"><a xlink:href="main_8cxx.html#a3c04138a5bfe5d72780bb7e82a18e627" target="_top" xlink:title="main">
<polygon fill="none" stroke="#000000" points="661,-19.5 661,-38.5 702,-38.5 702,-19.5 661,-19.5"/>
<text text-anchor="middle" x="681.5" y="-26.5" font-family="Helvetica,sans-Serif" font-size="10.00" fill="#000000">main</text>
</a>
</g>
</g>
<!-- Node268&#45;&gt;Node269 -->
<g id="edge5" class="edge">
<title>Node268&#45;&gt;Node269</title>
<path fill="none" stroke="#191970" d="M635.2133,-29C644.4322,-29 653.4259,-29 660.9965,-29"/>
<polygon fill="#191970" stroke="#191970" points="635.1782,-25.5001 625.1782,-29 635.1781,-32.5001 635.1782,-25.5001"/>
</g>
</g>
</svg>
