<?xml version="1.0" encoding="UTF-8" standalone="no"?>
<!DOCTYPE svg PUBLIC "-//W3C//DTD SVG 1.1//EN"
 "http://www.w3.org/Graphics/SVG/1.1/DTD/svg11.dtd">
<!-- Generated by graphviz version 2.40.1 (20161225.0304)
 -->
<!-- Title: Engine::increaseHeight Pages: 1 -->
<svg width="819pt" height="165pt"
 viewBox="0.00 0.00 819.00 165.00" xmlns="http://www.w3.org/2000/svg" xmlns:xlink="http://www.w3.org/1999/xlink">
<g id="graph0" class="graph" transform="scale(1 1) rotate(0) translate(4 161)">
<title>Engine::increaseHeight</title>
<!-- Node41 -->
<g id="node1" class="node">
<title>Node41</title>
<polygon fill="#bfbfbf" stroke="#000000" points="0,-47.5 0,-66.5 129,-66.5 129,-47.5 0,-47.5"/>
<text text-anchor="middle" x="64.5" y="-54.5" font-family="Helvetica,sans-Serif" font-size="10.00" fill="#000000">Engine::increaseHeight</text>
</g>
<!-- Node42 -->
<g id="node2" class="node">
<title>Node42</title>
<g id="a_node2"><a xlink:href="classMap.html#aba5154a4d917900679a3c0f7ec701561" target="_top" xlink:title="Increase Height Increases the height of the node and checks the surrounding tiles. Either draw a slope sprite or elevate the tile if necessary. ">
<polygon fill="none" stroke="#000000" points="165,-47.5 165,-66.5 281,-66.5 281,-47.5 165,-47.5"/>
<text text-anchor="middle" x="223" y="-54.5" font-family="Helvetica,sans-Serif" font-size="10.00" fill="#000000">Map::increaseHeight</text>
</a>
</g>
</g>
<!-- Node41&#45;&gt;Node42 -->
<g id="edge1" class="edge">
<title>Node41&#45;&gt;Node42</title>
<path fill="none" stroke="#191970" d="M129.4253,-57C137.7521,-57 146.2972,-57 154.6761,-57"/>
<polygon fill="#191970" stroke="#191970" points="154.7883,-60.5001 164.7883,-57 154.7883,-53.5001 154.7883,-60.5001"/>
</g>
<!-- Node43 -->
<g id="node3" class="node">
<title>Node43</title>
<g id="a_node3"><a xlink:href="classSingleton.html#af5cb1e5749949e2b68416cfb8d378044" target="_top" xlink:title="Get an instance of the singleton. ">
<polygon fill="none" stroke="#000000" points="317,-95 317,-125 430,-125 430,-95 317,-95"/>
<text text-anchor="start" x="325" y="-113" font-family="Helvetica,sans-Serif" font-size="10.00" fill="#000000">Singleton&lt; Settings</text>
<text text-anchor="middle" x="373.5" y="-102" font-family="Helvetica,sans-Serif" font-size="10.00" fill="#000000"> &gt;::instance</text>
</a>
</g>
</g>
<!-- Node42&#45;&gt;Node43 -->
<g id="edge2" class="edge">
<title>Node42&#45;&gt;Node43</title>
<path fill="none" stroke="#191970" d="M250.2544,-66.5979C269.9835,-73.5457 297.267,-83.1538 321.1491,-91.5641"/>
<polygon fill="#191970" stroke="#191970" points="320.2033,-94.9417 330.7981,-94.9621 322.5285,-88.3391 320.2033,-94.9417"/>
</g>
<!-- Node44 -->
<g id="node4" class="node">
<title>Node44</title>
<g id="a_node4"><a xlink:href="classMap.html#a05e7d896dc5062af07c9b838600a068d" target="_top" xlink:title="Demolish a node Invokes the tiles demolish function. ">
<polygon fill="none" stroke="#000000" points="317,-.5 317,-19.5 430,-19.5 430,-.5 317,-.5"/>
<text text-anchor="middle" x="373.5" y="-7.5" font-family="Helvetica,sans-Serif" font-size="10.00" fill="#000000">Map::demolishNode</text>
</a>
</g>
</g>
<!-- Node42&#45;&gt;Node44 -->
<g id="edge3" class="edge">
<title>Node42&#45;&gt;Node44</title>
<path fill="none" stroke="#191970" d="M253.4559,-47.4888C276.4313,-40.3138 308.1659,-30.4034 333.2361,-22.5741"/>
<polygon fill="#191970" stroke="#191970" points="334.3294,-25.8994 342.8315,-19.5776 332.2427,-19.2177 334.3294,-25.8994"/>
</g>
<!-- Node45 -->
<g id="node5" class="node">
<title>Node45</title>
<g id="a_node5"><a xlink:href="classMap.html#a59d21f2688713fbcfe320eb1b24405ca" target="_top" xlink:title="Update mapNode and its adjacent tiles Updates mapNode height information, draws slopes for adjacent t...">
<polygon fill="none" stroke="#000000" points="466,-44.5 466,-63.5 629,-63.5 629,-44.5 466,-44.5"/>
<text text-anchor="middle" x="547.5" y="-51.5" font-family="Helvetica,sans-Serif" font-size="10.00" fill="#000000">Map::updateNeighborsOfNode</text>
</a>
</g>
</g>
<!-- Node42&#45;&gt;Node45 -->
<g id="edge13" class="edge">
<title>Node42&#45;&gt;Node45</title>
<path fill="none" stroke="#191970" d="M281.0141,-51.1478C329.4963,-49.1255 399.5119,-48.1999 455.61,-48.6986"/>
<polygon fill="#191970" stroke="#191970" points="455.8777,-52.2016 465.9144,-48.8084 455.9523,-45.202 455.8777,-52.2016"/>
</g>
<!-- Node44&#45;&gt;Node45 -->
<g id="edge4" class="edge">
<title>Node44&#45;&gt;Node45</title>
<path fill="none" stroke="#191970" d="M430.4741,-18.028C459.6133,-24.649 493.8745,-33.6956 517.7675,-41.2507"/>
<polygon fill="#191970" stroke="#191970" points="516.7347,-44.5954 527.3274,-44.3859 518.9161,-37.9439 516.7347,-44.5954"/>
</g>
<!-- Node45&#45;&gt;Node42 -->
<g id="edge9" class="edge">
<title>Node45&#45;&gt;Node42</title>
<path fill="none" stroke="#191970" d="M465.9144,-60.7002C412.0237,-62.3697 342.209,-62.9068 291.2635,-61.9899"/>
<polygon fill="#191970" stroke="#191970" points="291.0838,-58.4855 281.0141,-61.7795 290.9402,-65.4841 291.0838,-58.4855"/>
</g>
<!-- Node45&#45;&gt;Node44 -->
<g id="edge7" class="edge">
<title>Node45&#45;&gt;Node44</title>
<path fill="none" stroke="#191970" d="M483.7508,-44.4105C456.2006,-37.9743 425.2933,-29.7252 403.2291,-22.7482"/>
<polygon fill="#191970" stroke="#191970" points="404.0528,-19.3349 393.46,-19.5413 401.8695,-25.9857 404.0528,-19.3349"/>
</g>
<!-- Node46 -->
<g id="node6" class="node">
<title>Node46</title>
<g id="a_node6"><a xlink:href="classMap.html#aab37e4a52faf81e9b696b8cf1bd9a690" target="_top" xlink:title="Get neighbor MapNode Objects Stores pointers to the neighboring nodes of the given coordinates in the...">
<polygon fill="none" stroke="#000000" points="684,-137.5 684,-156.5 792,-156.5 792,-137.5 684,-137.5"/>
<text text-anchor="middle" x="738" y="-144.5" font-family="Helvetica,sans-Serif" font-size="10.00" fill="#000000">Map::getNeighbors</text>
</a>
</g>
</g>
<!-- Node45&#45;&gt;Node46 -->
<g id="edge5" class="edge">
<title>Node45&#45;&gt;Node46</title>
<path fill="none" stroke="#191970" d="M559.8203,-63.579C580.4666,-79.1988 623.8462,-110.1949 665,-128 670.6791,-130.457 676.7486,-132.6543 682.871,-134.6041"/>
<polygon fill="#191970" stroke="#191970" points="681.9039,-137.9679 692.4868,-137.4659 683.9007,-131.2587 681.9039,-137.9679"/>
</g>
<!-- Node47 -->
<g id="node7" class="node">
<title>Node47</title>
<g id="a_node7"><a xlink:href="classMap.html#a0ff55eb041cdf29aa582a21145319ce0" target="_top" xlink:title="Get elevated neighbor positions in a bitmask Checks all neighboring tiles and returns the elevated ne...">
<polygon fill="none" stroke="#000000" points="665,-88 665,-118 811,-118 811,-88 665,-88"/>
<text text-anchor="start" x="673" y="-106" font-family="Helvetica,sans-Serif" font-size="10.00" fill="#000000">Map::getElevatedNeighbor</text>
<text text-anchor="middle" x="738" y="-95" font-family="Helvetica,sans-Serif" font-size="10.00" fill="#000000">Bitmask</text>
</a>
</g>
</g>
<!-- Node45&#45;&gt;Node47 -->
<g id="edge6" class="edge">
<title>Node45&#45;&gt;Node47</title>
<path fill="none" stroke="#191970" d="M584.6825,-63.564C608.8005,-69.7676 640.9504,-78.0371 669.5793,-85.401"/>
<polygon fill="#191970" stroke="#191970" points="668.9833,-88.8615 679.54,-87.963 670.7271,-82.0822 668.9833,-88.8615"/>
</g>
<!-- Node48 -->
<g id="node8" class="node">
<title>Node48</title>
<g id="a_node8"><a xlink:href="classMap.html#a392940f84796653b8e811ed8dc296c84" target="_top" xlink:title="Get a bitmask that represents same&#45;tile neighbors Checks all neighboring tiles and returns the elevat...">
<polygon fill="none" stroke="#000000" points="667.5,-39 667.5,-69 808.5,-69 808.5,-39 667.5,-39"/>
<text text-anchor="start" x="675.5" y="-57" font-family="Helvetica,sans-Serif" font-size="10.00" fill="#000000">Map::getNeighboringTiles</text>
<text text-anchor="middle" x="738" y="-46" font-family="Helvetica,sans-Serif" font-size="10.00" fill="#000000">Bitmask</text>
</a>
</g>
</g>
<!-- Node45&#45;&gt;Node48 -->
<g id="edge8" class="edge">
<title>Node45&#45;&gt;Node48</title>
<path fill="none" stroke="#191970" d="M629.1182,-54C638.4625,-54 647.9856,-54 657.3177,-54"/>
<polygon fill="#191970" stroke="#191970" points="657.3514,-57.5001 667.3514,-54 657.3514,-50.5001 657.3514,-57.5001"/>
</g>
<!-- Node49 -->
<g id="node9" class="node">
<title>Node49</title>
<g id="a_node9"><a xlink:href="classMap.html#afb8cc864df90d273a5074872d635dc40" target="_top" xlink:title="Decrease Height Decreases the height of the node and checks the surrounding tiles. Either draw a slope sprite or lower the tile if necessary. ">
<polygon fill="none" stroke="#000000" points="678.5,-.5 678.5,-19.5 797.5,-19.5 797.5,-.5 678.5,-.5"/>
<text text-anchor="middle" x="738" y="-7.5" font-family="Helvetica,sans-Serif" font-size="10.00" fill="#000000">Map::decreaseHeight</text>
</a>
</g>
</g>
<!-- Node45&#45;&gt;Node49 -->
<g id="edge10" class="edge">
<title>Node45&#45;&gt;Node49</title>
<path fill="none" stroke="#191970" d="M569.3528,-44.4587C593.3694,-36.941 633.1824,-27.0657 668.0957,-19.6129"/>
<polygon fill="#191970" stroke="#191970" points="669.2018,-22.9573 678.2718,-17.4813 667.7666,-16.106 669.2018,-22.9573"/>
</g>
<!-- Node49&#45;&gt;Node44 -->
<g id="edge11" class="edge">
<title>Node49&#45;&gt;Node44</title>
<path fill="none" stroke="#191970" d="M678.2829,-10C612.8882,-10 508.2839,-10 440.2339,-10"/>
<polygon fill="#191970" stroke="#191970" points="440.0532,-6.5001 430.0532,-10 440.0532,-13.5001 440.0532,-6.5001"/>
</g>
<!-- Node49&#45;&gt;Node45 -->
<g id="edge12" class="edge">
<title>Node49&#45;&gt;Node45</title>
<path fill="none" stroke="#191970" d="M715.8824,-19.6241C694.0259,-26.4485 659.2737,-35.1925 627.0022,-42.3046"/>
<polygon fill="#191970" stroke="#191970" points="626.1146,-38.9157 617.0835,-44.4555 627.5981,-45.7567 626.1146,-38.9157"/>
</g>
</g>
</svg>
