<?xml version="1.0" encoding="UTF-8" standalone="no"?>
<!DOCTYPE svg PUBLIC "-//W3C//DTD SVG 1.1//EN"
 "http://www.w3.org/Graphics/SVG/1.1/DTD/svg11.dtd">
<!-- Generated by graphviz version 2.40.1 (20161225.0304)
 -->
<!-- Title: Sprite::render Pages: 1 -->
<svg width="454pt" height="97pt"
 viewBox="0.00 0.00 454.00 96.50" xmlns="http://www.w3.org/2000/svg" xmlns:xlink="http://www.w3.org/1999/xlink">
<g id="graph0" class="graph" transform="scale(1 1) rotate(0) translate(4 92.5)">
<title>Sprite::render</title>
<!-- Node30 -->
<g id="node1" class="node">
<title>Node30</title>
<polygon fill="#bfbfbf" stroke="#000000" points="0,-28 0,-47 83,-47 83,-28 0,-28"/>
<text text-anchor="middle" x="41.5" y="-35" font-family="Helvetica,sans-Serif" font-size="10.00" fill="#000000">Sprite::render</text>
</g>
<!-- Node31 -->
<g id="node2" class="node">
<title>Node31</title>
<g id="a_node2"><a xlink:href="classMapLayers.html#a1d810628821913c499b8348107b66891" target="_top" xlink:title="Check if given Layer is being drawn. ">
<polygon fill="none" stroke="#000000" points="126,-50 126,-69 267,-69 267,-50 126,-50"/>
<text text-anchor="middle" x="196.5" y="-57" font-family="Helvetica,sans-Serif" font-size="10.00" fill="#000000">MapLayers::isLayerActive</text>
</a>
</g>
</g>
<!-- Node30&#45;&gt;Node31 -->
<g id="edge1" class="edge">
<title>Node30&#45;&gt;Node31</title>
<path fill="none" stroke="#191970" d="M83.0372,-43.3956C94.2877,-44.9924 106.8374,-46.7737 119.3741,-48.5531"/>
<polygon fill="#191970" stroke="#191970" points="119.0078,-52.0361 129.4004,-49.9762 119.9915,-45.1056 119.0078,-52.0361"/>
</g>
<!-- Node34 -->
<g id="node5" class="node">
<title>Node34</title>
<g id="a_node5"><a xlink:href="classSingleton.html#af5cb1e5749949e2b68416cfb8d378044" target="_top" xlink:title="Get an instance of the singleton. ">
<polygon fill="none" stroke="#000000" points="119,-.5 119,-30.5 274,-30.5 274,-.5 119,-.5"/>
<text text-anchor="start" x="127" y="-18.5" font-family="Helvetica,sans-Serif" font-size="10.00" fill="#000000">Singleton&lt; WindowManager</text>
<text text-anchor="middle" x="196.5" y="-7.5" font-family="Helvetica,sans-Serif" font-size="10.00" fill="#000000"> &gt;::instance</text>
</a>
</g>
</g>
<!-- Node30&#45;&gt;Node34 -->
<g id="edge4" class="edge">
<title>Node30&#45;&gt;Node34</title>
<path fill="none" stroke="#191970" d="M83.0372,-31.6044C91.1162,-30.4577 99.8652,-29.2159 108.7982,-27.948"/>
<polygon fill="#191970" stroke="#191970" points="109.5272,-31.3797 118.9361,-26.5091 108.5435,-24.4491 109.5272,-31.3797"/>
</g>
<!-- Node32 -->
<g id="node3" class="node">
<title>Node32</title>
<g id="a_node3"><a xlink:href="classMapLayers.html#a53d7fcd90e70eaf36239d7a75c0c5dda" target="_top" xlink:title="MapLayers::MapLayers">
<polygon fill="none" stroke="#000000" points="314,-69 314,-88 442,-88 442,-69 314,-69"/>
<text text-anchor="middle" x="378" y="-76" font-family="Helvetica,sans-Serif" font-size="10.00" fill="#000000">MapLayers::MapLayers</text>
</a>
</g>
</g>
<!-- Node31&#45;&gt;Node32 -->
<g id="edge2" class="edge">
<title>Node31&#45;&gt;Node32</title>
<path fill="none" stroke="#191970" d="M267.1923,-66.9003C279.1677,-68.1539 291.6336,-69.4589 303.6982,-70.7219"/>
<polygon fill="#191970" stroke="#191970" points="303.4084,-74.2106 313.7185,-71.7708 304.1373,-67.2486 303.4084,-74.2106"/>
</g>
<!-- Node33 -->
<g id="node4" class="node">
<title>Node33</title>
<g id="a_node4"><a xlink:href="classMapLayers.html#aa7fa21110e27ec69f131692b0a510d66" target="_top" xlink:title="MapLayers::~MapLayers">
<polygon fill="none" stroke="#000000" points="310,-31 310,-50 446,-50 446,-31 310,-31"/>
<text text-anchor="middle" x="378" y="-38" font-family="Helvetica,sans-Serif" font-size="10.00" fill="#000000">MapLayers::~MapLayers</text>
</a>
</g>
</g>
<!-- Node31&#45;&gt;Node33 -->
<g id="edge3" class="edge">
<title>Node31&#45;&gt;Node33</title>
<path fill="none" stroke="#191970" d="M267.1923,-52.0997C277.8279,-50.9863 288.8503,-49.8325 299.6349,-48.7035"/>
<polygon fill="#191970" stroke="#191970" points="300.3003,-52.1531 309.8815,-47.6309 299.5715,-45.1911 300.3003,-52.1531"/>
</g>
</g>
</svg>
