<?xml version="1.0" encoding="UTF-8" standalone="no"?>
<!DOCTYPE svg PUBLIC "-//W3C//DTD SVG 1.1//EN"
 "http://www.w3.org/Graphics/SVG/1.1/DTD/svg11.dtd">
<!-- Generated by graphviz version 2.40.1 (20161225.0304)
 -->
<!-- Title: Map::loadMapFromFile Pages: 1 -->
<!--zoomable 266 -->
<svg id="main" version="1.1" xmlns="http://www.w3.org/2000/svg" xmlns:xlink="http://www.w3.org/1999/xlink" xml:space="preserve" onload="init(evt)">
<style type="text/css"><![CDATA[
.edge:hover path { stroke: red; }
.edge:hover polygon { stroke: red; fill: red; }
]]></style>
<script type="text/javascript"><![CDATA[
var edges = document.getElementsByTagName('g');
if (edges && edges.length) {
  for (var i=0;i<edges.length;i++) {
    if (edges[i].id.substr(0,4)=='edge') {
      edges[i].setAttribute('class','edge');
    }
  }
}
]]></script>
        <defs>
                <circle id="rim" cx="0" cy="0" r="7"/>
                <circle id="rim2" cx="0" cy="0" r="3.5"/>
                <g id="zoomPlus">
                        <use xlink:href="#rim" fill="#404040">
                                <set attributeName="fill" to="#808080" begin="zoomplus.mouseover" end="zoomplus.mouseout"/>
                        </use>
                        <path d="M-4,0h8M0,-4v8" fill="none" stroke="white" stroke-width="1.5" pointer-events="none"/>
                </g>
                <g id="zoomMin">
                        <use xlink:href="#rim" fill="#404040">
                                <set attributeName="fill" to="#808080" begin="zoomminus.mouseover" end="zoomminus.mouseout"/>
                        </use>
                        <path d="M-4,0h8" fill="none" stroke="white" stroke-width="1.5" pointer-events="none"/>
                </g>
                <g id="dirArrow">
                        <path fill="none" stroke="white" stroke-width="1.5" d="M0,-3.0v7 M-2.5,-0.5L0,-3.0L2.5,-0.5"/>
                </g>
               <g id="resetDef">
                       <use xlink:href="#rim2" fill="#404040">
                               <set attributeName="fill" to="#808080" begin="reset.mouseover" end="reset.mouseout"/>
                       </use>
               </g>
        </defs>

<script type="text/javascript">
var viewWidth = 987;
var viewHeight = 266;
var sectionId = 'dynsection-22';
</script>
<script xlink:href="svgpan.js"/>
<svg id="graph" class="graph">
<g id="viewport">
<title>Map::loadMapFromFile</title>
<!-- Node281 -->
<g id="node1" class="node">
<title>Node281</title>
<polygon fill="#bfbfbf" stroke="#000000" points="0,-149 0,-168 125,-168 125,-149 0,-149"/>
<text text-anchor="middle" x="62.5" y="-156" font-family="Helvetica,sans-Serif" font-size="10.00" fill="#000000">Map::loadMapFromFile</text>
</g>
<!-- Node282 -->
<g id="node2" class="node">
<title>Node282</title>
<g id="a_node2"><a xlink:href="compression_8hxx.html#a25f341059256700f2f3ffd62d8113956" target="_top" xlink:title="decompresses given string Decompresses a given string. ">
<polygon fill="none" stroke="#000000" points="161,-206 161,-225 265,-225 265,-206 161,-206"/>
<text text-anchor="middle" x="213" y="-213" font-family="Helvetica,sans-Serif" font-size="10.00" fill="#000000">decompressString</text>
</a>
</g>
</g>
<!-- Node281&#45;&gt;Node282 -->
<g id="edge1" class="edge">
<title>Node281&#45;&gt;Node282</title>
<path fill="none" stroke="#191970" d="M87.1463,-168.1486C107.0423,-175.9037 135.7763,-187.0272 161,-196.5 166.1738,-198.443 171.6468,-200.4718 177.0236,-202.4497"/>
<polygon fill="#191970" stroke="#191970" points="175.9187,-205.7723 186.5125,-205.9255 178.3265,-199.1994 175.9187,-205.7723"/>
</g>
<!-- Node283 -->
<g id="node3" class="node">
<title>Node283</title>
<g id="a_node3"><a xlink:href="classMap.html#a1197ab65e40dd20b891ba165471e3163" target="_top" xlink:title="Map::Map">
<polygon fill="none" stroke="#000000" points="181.5,-168 181.5,-187 244.5,-187 244.5,-168 181.5,-168"/>
<text text-anchor="middle" x="213" y="-175" font-family="Helvetica,sans-Serif" font-size="10.00" fill="#000000">Map::Map</text>
</a>
</g>
</g>
<!-- Node281&#45;&gt;Node283 -->
<g id="edge2" class="edge">
<title>Node281&#45;&gt;Node283</title>
<path fill="none" stroke="#191970" d="M125.0181,-166.3926C140.6151,-168.3617 156.9636,-170.4256 171.2777,-172.2327"/>
<polygon fill="#191970" stroke="#191970" points="170.9415,-175.718 181.3012,-173.4982 171.8183,-168.7731 170.9415,-175.718"/>
</g>
<!-- Node284 -->
<g id="node4" class="node">
<title>Node284</title>
<g id="a_node4"><a xlink:href="classMap.html#a482ac34426e8aa66abb46f60ec329402" target="_top" xlink:title="Initialize the Map with node objects Initialize the Map with node objects. ">
<polygon fill="none" stroke="#000000" points="173.5,-130 173.5,-149 252.5,-149 252.5,-130 173.5,-130"/>
<text text-anchor="middle" x="213" y="-137" font-family="Helvetica,sans-Serif" font-size="10.00" fill="#000000">Map::initMap</text>
</a>
</g>
</g>
<!-- Node281&#45;&gt;Node284 -->
<g id="edge3" class="edge">
<title>Node281&#45;&gt;Node284</title>
<path fill="none" stroke="#191970" d="M125.0181,-150.6074C137.7632,-148.9983 151.0102,-147.326 163.2388,-145.7821"/>
<polygon fill="#191970" stroke="#191970" points="163.7551,-149.2448 173.2379,-144.5198 162.8783,-142.3 163.7551,-149.2448"/>
</g>
<!-- Node288 -->
<g id="node8" class="node">
<title>Node288</title>
<g id="a_node8"><a xlink:href="classMap.html#a481b37ba71ef0e51e836fc42805762dd" target="_top" xlink:title="Update all mapNodes Updates all mapNode and its adjacent tiles regarding height information, draws slopes for adjacent tiles and sets tiling for mapNode sprite if applicable. ">
<polygon fill="none" stroke="#000000" points="315,-88 315,-107 435,-107 435,-88 315,-88"/>
<text text-anchor="middle" x="375" y="-95" font-family="Helvetica,sans-Serif" font-size="10.00" fill="#000000">Map::updateAllNodes</text>
</a>
</g>
</g>
<!-- Node281&#45;&gt;Node288 -->
<g id="edge21" class="edge">
<title>Node281&#45;&gt;Node288</title>
<path fill="none" stroke="#191970" d="M82.7511,-148.8857C102.3212,-140.0316 133.0319,-127.274 161,-120.5 208.1383,-109.0828 262.4896,-103.3305 304.6217,-100.4337"/>
<polygon fill="#191970" stroke="#191970" points="305.0312,-103.9146 314.7833,-99.7738 304.5775,-96.9293 305.0312,-103.9146"/>
</g>
<!-- Node285 -->
<g id="node5" class="node">
<title>Node285</title>
<g id="a_node5"><a xlink:href="classMapLayers.html#a54ce1eeef2a8998a728ac7074efe8787" target="_top" xlink:title="Enable Drawing Layer Enable Drawing Layer (use bitwise OR to add layer) ">
<polygon fill="none" stroke="#000000" points="307.5,-176 307.5,-195 442.5,-195 442.5,-176 307.5,-176"/>
<text text-anchor="middle" x="375" y="-183" font-family="Helvetica,sans-Serif" font-size="10.00" fill="#000000">MapLayers::enableLayer</text>
</a>
</g>
</g>
<!-- Node284&#45;&gt;Node285 -->
<g id="edge4" class="edge">
<title>Node284&#45;&gt;Node285</title>
<path fill="none" stroke="#191970" d="M243.037,-149.0937C259.9975,-154.4156 281.6182,-161.0416 301,-166.5 309.2588,-168.8259 318.0688,-171.1895 326.624,-173.4232"/>
<polygon fill="#191970" stroke="#191970" points="325.9442,-176.8625 336.5018,-175.9758 327.6956,-170.0851 325.9442,-176.8625"/>
</g>
<!-- Node286 -->
<g id="node6" class="node">
<title>Node286</title>
<g id="a_node6"><a xlink:href="classTerrainGenerator.html#adcc251757a1f3a06471a49f17886b8ce" target="_top" xlink:title="TerrainGenerator::generate\lTerrain">
<polygon fill="none" stroke="#000000" points="301,-126.5 301,-156.5 449,-156.5 449,-126.5 301,-126.5"/>
<text text-anchor="start" x="309" y="-144.5" font-family="Helvetica,sans-Serif" font-size="10.00" fill="#000000">TerrainGenerator::generate</text>
<text text-anchor="middle" x="375" y="-133.5" font-family="Helvetica,sans-Serif" font-size="10.00" fill="#000000">Terrain</text>
</a>
</g>
</g>
<!-- Node284&#45;&gt;Node286 -->
<g id="edge5" class="edge">
<title>Node284&#45;&gt;Node286</title>
<path fill="none" stroke="#191970" d="M252.6297,-139.9893C264.2742,-140.133 277.4781,-140.296 290.7975,-140.4605"/>
<polygon fill="#191970" stroke="#191970" points="290.9392,-143.9624 300.9817,-140.5862 291.0257,-136.9629 290.9392,-143.9624"/>
</g>
<!-- Node284&#45;&gt;Node288 -->
<g id="edge7" class="edge">
<title>Node284&#45;&gt;Node288</title>
<path fill="none" stroke="#191970" d="M249.3834,-129.9531C265.2343,-125.8036 284.0321,-120.8957 301,-116.5 309.6761,-114.2524 318.9275,-111.8676 327.8462,-109.5746"/>
<polygon fill="#191970" stroke="#191970" points="328.9109,-112.9148 337.7258,-107.037 327.1694,-106.1349 328.9109,-112.9148"/>
</g>
<!-- Node287 -->
<g id="node7" class="node">
<title>Node287</title>
<g id="a_node7"><a xlink:href="classTerrainGenerator.html#ac94cfaeb9dc89453018399361da5174a" target="_top" xlink:title="TerrainGenerator::loadTerrain\lDataFromJSON">
<polygon fill="none" stroke="#000000" points="487.5,-126.5 487.5,-156.5 645.5,-156.5 645.5,-126.5 487.5,-126.5"/>
<text text-anchor="start" x="495.5" y="-144.5" font-family="Helvetica,sans-Serif" font-size="10.00" fill="#000000">TerrainGenerator::loadTerrain</text>
<text text-anchor="middle" x="566.5" y="-133.5" font-family="Helvetica,sans-Serif" font-size="10.00" fill="#000000">DataFromJSON</text>
</a>
</g>
</g>
<!-- Node286&#45;&gt;Node287 -->
<g id="edge6" class="edge">
<title>Node286&#45;&gt;Node287</title>
<path fill="none" stroke="#191970" d="M449.0389,-141.5C458.2368,-141.5 467.7168,-141.5 477.1147,-141.5"/>
<polygon fill="#191970" stroke="#191970" points="477.263,-145.0001 487.263,-141.5 477.2629,-138.0001 477.263,-145.0001"/>
</g>
<!-- Node289 -->
<g id="node9" class="node">
<title>Node289</title>
<g id="a_node9"><a xlink:href="classMap.html#a59d21f2688713fbcfe320eb1b24405ca" target="_top" xlink:title="Update mapNode and its adjacent tiles Updates mapNode height information, draws slopes for adjacent t...">
<polygon fill="none" stroke="#000000" points="485,-88 485,-107 648,-107 648,-88 485,-88"/>
<text text-anchor="middle" x="566.5" y="-95" font-family="Helvetica,sans-Serif" font-size="10.00" fill="#000000">Map::updateNeighborsOfNode</text>
</a>
</g>
</g>
<!-- Node288&#45;&gt;Node289 -->
<g id="edge8" class="edge">
<title>Node288&#45;&gt;Node289</title>
<path fill="none" stroke="#191970" d="M435.0664,-97.5C447.6532,-97.5 461.2,-97.5 474.6442,-97.5"/>
<polygon fill="#191970" stroke="#191970" points="474.8876,-101.0001 484.8876,-97.5 474.8875,-94.0001 474.8876,-101.0001"/>
</g>
<!-- Node290 -->
<g id="node10" class="node">
<title>Node290</title>
<g id="a_node10"><a xlink:href="classMap.html#aab37e4a52faf81e9b696b8cf1bd9a690" target="_top" xlink:title="Get neighbor MapNode Objects Stores pointers to the neighboring nodes of the given coordinates in the...">
<polygon fill="none" stroke="#000000" points="703,-238 703,-257 811,-257 811,-238 703,-238"/>
<text text-anchor="middle" x="757" y="-245" font-family="Helvetica,sans-Serif" font-size="10.00" fill="#000000">Map::getNeighbors</text>
</a>
</g>
</g>
<!-- Node289&#45;&gt;Node290 -->
<g id="edge9" class="edge">
<title>Node289&#45;&gt;Node290</title>
<path fill="none" stroke="#191970" d="M633.9187,-107.036C639.0435,-109.5506 643.8326,-112.6609 648,-116.5 686.4554,-151.9261 646.0009,-192.5849 684,-228.5 686.9147,-231.2549 690.1768,-233.6225 693.6614,-235.6562"/>
<polygon fill="#191970" stroke="#191970" points="692.1863,-238.8307 702.7104,-240.0537 695.246,-232.5348 692.1863,-238.8307"/>
</g>
<!-- Node291 -->
<g id="node11" class="node">
<title>Node291</title>
<g id="a_node11"><a xlink:href="classMap.html#a0ff55eb041cdf29aa582a21145319ce0" target="_top" xlink:title="Get elevated neighbor positions in a bitmask Checks all neighboring tiles and returns the elevated ne...">
<polygon fill="none" stroke="#000000" points="684,-188.5 684,-218.5 830,-218.5 830,-188.5 684,-188.5"/>
<text text-anchor="start" x="692" y="-206.5" font-family="Helvetica,sans-Serif" font-size="10.00" fill="#000000">Map::getElevatedNeighbor</text>
<text text-anchor="middle" x="757" y="-195.5" font-family="Helvetica,sans-Serif" font-size="10.00" fill="#000000">Bitmask</text>
</a>
</g>
</g>
<!-- Node289&#45;&gt;Node291 -->
<g id="edge10" class="edge">
<title>Node289&#45;&gt;Node291</title>
<path fill="none" stroke="#191970" d="M630.0572,-107.0601C636.4336,-109.5312 642.5539,-112.6263 648,-116.5 672.4165,-133.867 661.058,-154.2272 684,-173.5 688.5703,-177.3394 693.699,-180.7408 699.0638,-183.7421"/>
<polygon fill="#191970" stroke="#191970" points="697.7585,-187.005 708.2581,-188.4221 700.9339,-180.7666 697.7585,-187.005"/>
</g>
<!-- Node292 -->
<g id="node12" class="node">
<title>Node292</title>
<g id="a_node12"><a xlink:href="classMap.html#a05e7d896dc5062af07c9b838600a068d" target="_top" xlink:title="Demolish a node Invokes the tiles demolish function. ">
<polygon fill="none" stroke="#000000" points="866,-95 866,-114 979,-114 979,-95 866,-95"/>
<text text-anchor="middle" x="922.5" y="-102" font-family="Helvetica,sans-Serif" font-size="10.00" fill="#000000">Map::demolishNode</text>
</a>
</g>
</g>
<!-- Node289&#45;&gt;Node292 -->
<g id="edge11" class="edge">
<title>Node289&#45;&gt;Node292</title>
<path fill="none" stroke="#191970" d="M645.4876,-107.0146C658.296,-109.2247 671.4675,-111.2332 684,-112.5 748.5599,-119.026 765.3789,-118.3888 830,-112.5 838.4149,-111.7332 847.2075,-110.5817 855.8814,-109.3067"/>
<polygon fill="#191970" stroke="#191970" points="856.6204,-112.7346 865.9795,-107.769 855.5665,-105.8144 856.6204,-112.7346"/>
</g>
<!-- Node293 -->
<g id="node13" class="node">
<title>Node293</title>
<g id="a_node13"><a xlink:href="classMap.html#a392940f84796653b8e811ed8dc296c84" target="_top" xlink:title="Get a bitmask that represents same&#45;tile neighbors Checks all neighboring tiles and returns the elevat...">
<polygon fill="none" stroke="#000000" points="686.5,-82.5 686.5,-112.5 827.5,-112.5 827.5,-82.5 686.5,-82.5"/>
<text text-anchor="start" x="694.5" y="-100.5" font-family="Helvetica,sans-Serif" font-size="10.00" fill="#000000">Map::getNeighboringTiles</text>
<text text-anchor="middle" x="757" y="-89.5" font-family="Helvetica,sans-Serif" font-size="10.00" fill="#000000">Bitmask</text>
</a>
</g>
</g>
<!-- Node289&#45;&gt;Node293 -->
<g id="edge13" class="edge">
<title>Node289&#45;&gt;Node293</title>
<path fill="none" stroke="#191970" d="M648.1182,-97.5C657.4625,-97.5 666.9856,-97.5 676.3177,-97.5"/>
<polygon fill="#191970" stroke="#191970" points="676.3514,-101.0001 686.3514,-97.5 676.3514,-94.0001 676.3514,-101.0001"/>
</g>
<!-- Node294 -->
<g id="node14" class="node">
<title>Node294</title>
<g id="a_node14"><a xlink:href="classMap.html#aba5154a4d917900679a3c0f7ec701561" target="_top" xlink:title="Increase Height Increases the height of the node and checks the surrounding tiles. Either draw a slope sprite or elevate the tile if necessary. ">
<polygon fill="none" stroke="#000000" points="699,-6 699,-25 815,-25 815,-6 699,-6"/>
<text text-anchor="middle" x="757" y="-13" font-family="Helvetica,sans-Serif" font-size="10.00" fill="#000000">Map::increaseHeight</text>
</a>
</g>
</g>
<!-- Node289&#45;&gt;Node294 -->
<g id="edge14" class="edge">
<title>Node289&#45;&gt;Node294</title>
<path fill="none" stroke="#191970" d="M574.1676,-87.9713C592.4762,-71.9203 640.4658,-42.5555 684,-25.5 685.6347,-24.8596 687.2984,-24.2341 688.9835,-23.6251"/>
<polygon fill="#191970" stroke="#191970" points="690.4489,-26.8253 698.8172,-20.3273 688.2232,-20.1886 690.4489,-26.8253"/>
</g>
<!-- Node296 -->
<g id="node16" class="node">
<title>Node296</title>
<g id="a_node16"><a xlink:href="classMap.html#afb8cc864df90d273a5074872d635dc40" target="_top" xlink:title="Decrease Height Decreases the height of the node and checks the surrounding tiles. Either draw a slope sprite or lower the tile if necessary. ">
<polygon fill="none" stroke="#000000" points="697.5,-44 697.5,-63 816.5,-63 816.5,-44 697.5,-44"/>
<text text-anchor="middle" x="757" y="-51" font-family="Helvetica,sans-Serif" font-size="10.00" fill="#000000">Map::decreaseHeight</text>
</a>
</g>
</g>
<!-- Node289&#45;&gt;Node296 -->
<g id="edge18" class="edge">
<title>Node289&#45;&gt;Node296</title>
<path fill="none" stroke="#191970" d="M588.3528,-87.9587C612.3694,-80.441 652.1824,-70.5657 687.0957,-63.1129"/>
<polygon fill="#191970" stroke="#191970" points="688.2018,-66.4573 697.2718,-60.9813 686.7666,-59.606 688.2018,-66.4573"/>
</g>
<!-- Node292&#45;&gt;Node289 -->
<g id="edge12" class="edge">
<title>Node292&#45;&gt;Node289</title>
<path fill="none" stroke="#191970" d="M908.506,-114.1163C890.484,-121.0741 858.1308,-127.9365 830,-130.5 765.3789,-136.3888 748.5599,-137.026 684,-130.5 650.9783,-127.162 613.5209,-118.6751 589.9562,-110.573"/>
<polygon fill="#191970" stroke="#191970" points="591.0591,-107.2487 580.4668,-107.0193 588.6041,-113.8041 591.0591,-107.2487"/>
</g>
<!-- Node294&#45;&gt;Node289 -->
<g id="edge17" class="edge">
<title>Node294&#45;&gt;Node289</title>
<path fill="none" stroke="#191970" d="M742.1329,-25.0899C727.1478,-30.3456 703.5096,-35.8567 684,-43.5 655.3978,-54.7055 624.8725,-71.2245 602.105,-83.2821"/>
<polygon fill="#191970" stroke="#191970" points="600.3826,-80.2334 593.1616,-87.9864 603.6413,-86.4287 600.3826,-80.2334"/>
</g>
<!-- Node294&#45;&gt;Node292 -->
<g id="edge16" class="edge">
<title>Node294&#45;&gt;Node292</title>
<path fill="none" stroke="#191970" d="M804.7051,-25.0206C813.3407,-27.5491 822.1039,-30.6739 830,-34.5 858.6578,-48.3864 887.204,-71.8248 904.8429,-87.7172"/>
<polygon fill="#191970" stroke="#191970" points="902.8506,-90.6404 912.5785,-94.8378 907.5914,-85.4901 902.8506,-90.6404"/>
</g>
<!-- Node295 -->
<g id="node15" class="node">
<title>Node295</title>
<g id="a_node15"><a xlink:href="classSingleton.html#af5cb1e5749949e2b68416cfb8d378044" target="_top" xlink:title="Get an instance of the singleton. ">
<polygon fill="none" stroke="#000000" points="866,-.5 866,-30.5 979,-30.5 979,-.5 866,-.5"/>
<text text-anchor="start" x="874" y="-18.5" font-family="Helvetica,sans-Serif" font-size="10.00" fill="#000000">Singleton&lt; Settings</text>
<text text-anchor="middle" x="922.5" y="-7.5" font-family="Helvetica,sans-Serif" font-size="10.00" fill="#000000"> &gt;::instance</text>
</a>
</g>
</g>
<!-- Node294&#45;&gt;Node295 -->
<g id="edge15" class="edge">
<title>Node294&#45;&gt;Node295</title>
<path fill="none" stroke="#191970" d="M815.3491,-15.5C828.4012,-15.5 842.3429,-15.5 855.7073,-15.5"/>
<polygon fill="#191970" stroke="#191970" points="855.7903,-19.0001 865.7903,-15.5 855.7903,-12.0001 855.7903,-19.0001"/>
</g>
<!-- Node296&#45;&gt;Node289 -->
<g id="edge20" class="edge">
<title>Node296&#45;&gt;Node289</title>
<path fill="none" stroke="#191970" d="M734.8824,-63.1241C713.0259,-69.9485 678.2737,-78.6925 646.0022,-85.8046"/>
<polygon fill="#191970" stroke="#191970" points="645.1146,-82.4157 636.0835,-87.9555 646.5981,-89.2567 645.1146,-82.4157"/>
</g>
<!-- Node296&#45;&gt;Node292 -->
<g id="edge19" class="edge">
<title>Node296&#45;&gt;Node292</title>
<path fill="none" stroke="#191970" d="M796.1799,-63.094C807.1709,-65.9487 819.095,-69.2001 830,-72.5 849.0345,-78.2599 869.9972,-85.4411 887.147,-91.5404"/>
<polygon fill="#191970" stroke="#191970" points="886.1661,-94.9068 896.7606,-94.9876 888.5289,-88.3176 886.1661,-94.9068"/>
</g>
</g>
</svg>
        <g id="navigator" transform="translate(0 0)" fill="#404254">
                <rect fill="#f2f5e9" fill-opacity="0.5" stroke="#606060" stroke-width=".5" x="0" y="0" width="60" height="60"/>
                <use id="zoomplus" xlink:href="#zoomPlus" x="17" y="9" onmousedown="handleZoom(evt,'in')"/>
                <use id="zoomminus" xlink:href="#zoomMin" x="42" y="9" onmousedown="handleZoom(evt,'out')"/>
                <use id="reset" xlink:href="#resetDef" x="30" y="36" onmousedown="handleReset()"/>
                <g id="arrowUp" xlink:href="#dirArrow" transform="translate(30 24)" onmousedown="handlePan(0,-1)">
                  <use xlink:href="#rim" fill="#404040">
                        <set attributeName="fill" to="#808080" begin="arrowUp.mouseover" end="arrowUp.mouseout"/>
                  </use>
                  <path fill="none" stroke="white" stroke-width="1.5" d="M0,-3.0v7 M-2.5,-0.5L0,-3.0L2.5,-0.5"/>
                </g>
                <g id="arrowRight" xlink:href="#dirArrow" transform="rotate(90) translate(36 -43)" onmousedown="handlePan(1,0)">
                  <use xlink:href="#rim" fill="#404040">
                        <set attributeName="fill" to="#808080" begin="arrowRight.mouseover" end="arrowRight.mouseout"/>
                  </use>
                  <path fill="none" stroke="white" stroke-width="1.5" d="M0,-3.0v7 M-2.5,-0.5L0,-3.0L2.5,-0.5"/>
                </g>
                <g id="arrowDown" xlink:href="#dirArrow" transform="rotate(180) translate(-30 -48)" onmousedown="handlePan(0,1)">
                  <use xlink:href="#rim" fill="#404040">
                        <set attributeName="fill" to="#808080" begin="arrowDown.mouseover" end="arrowDown.mouseout"/>
                  </use>
                  <path fill="none" stroke="white" stroke-width="1.5" d="M0,-3.0v7 M-2.5,-0.5L0,-3.0L2.5,-0.5"/>
                </g>
                <g id="arrowLeft" xlink:href="#dirArrow" transform="rotate(270) translate(-36 17)" onmousedown="handlePan(-1,0)">
                  <use xlink:href="#rim" fill="#404040">
                        <set attributeName="fill" to="#808080" begin="arrowLeft.mouseover" end="arrowLeft.mouseout"/>
                  </use>
                  <path fill="none" stroke="white" stroke-width="1.5" d="M0,-3.0v7 M-2.5,-0.5L0,-3.0L2.5,-0.5"/>
                </g>
        </g>
        <svg viewBox="0 0 15 15" width="100%" height="30px" preserveAspectRatio="xMaxYMin meet">
         <g id="arrow_out" transform="scale(0.3 0.3)">
          <a xlink:href="classMap_afefe996cc1f62b61ec60d0ae415953bf_cgraph_org.svg" target="_base">
           <rect id="button" ry="5" rx="5" y="6" x="6" height="38" width="38"
                fill="#f2f5e9" fill-opacity="0.5" stroke="#606060" stroke-width="1.0"/>
           <path id="arrow"
             d="M 11.500037,31.436501 C 11.940474,20.09759 22.043105,11.32322 32.158766,21.979434 L 37.068811,17.246167 C 37.068811,17.246167 37.088388,32 37.088388,32 L 22.160133,31.978069 C 22.160133,31.978069 26.997745,27.140456 26.997745,27.140456 C 18.528582,18.264221 13.291696,25.230495 11.500037,31.436501 z"
             style="fill:#404040;"/>
          </a>
         </g>
        </svg>
</svg>
