<?xml version="1.0" encoding="UTF-8" standalone="no"?>
<!DOCTYPE svg PUBLIC "-//W3C//DTD SVG 1.1//EN"
 "http://www.w3.org/Graphics/SVG/1.1/DTD/svg11.dtd">
<!-- Generated by graphviz version 2.40.1 (20161225.0304)
 -->
<!-- Title: UIElement::onMouseEnter Pages: 1 -->
<svg width="496pt" height="66pt"
 viewBox="0.00 0.00 496.00 66.00" xmlns="http://www.w3.org/2000/svg" xmlns:xlink="http://www.w3.org/1999/xlink">
<g id="graph0" class="graph" transform="scale(1 1) rotate(0) translate(4 62)">
<title>UIElement::onMouseEnter</title>
<!-- Node196 -->
<g id="node1" class="node">
<title>Node196</title>
<polygon fill="#bfbfbf" stroke="#000000" points="0,-19.5 0,-38.5 143,-38.5 143,-19.5 0,-19.5"/>
<text text-anchor="middle" x="71.5" y="-26.5" font-family="Helvetica,sans-Serif" font-size="10.00" fill="#000000">UIElement::onMouseEnter</text>
</g>
<!-- Node197 -->
<g id="node2" class="node">
<title>Node197</title>
<g id="a_node2"><a xlink:href="classGame.html#a5ed7fc5be77080f7f6dd5363f7f007a1" target="_top" xlink:title="initializes and displays the main menu initializes and displays the main menu ">
<polygon fill="none" stroke="#000000" points="179,-19.5 179,-38.5 282,-38.5 282,-19.5 179,-19.5"/>
<text text-anchor="middle" x="230.5" y="-26.5" font-family="Helvetica,sans-Serif" font-size="10.00" fill="#000000">Game::mainMenu</text>
</a>
</g>
</g>
<!-- Node196&#45;&gt;Node197 -->
<g id="edge1" class="edge">
<title>Node196&#45;&gt;Node197</title>
<path fill="none" stroke="#191970" d="M153.2798,-29C161.9646,-29 170.6131,-29 178.8103,-29"/>
<polygon fill="#191970" stroke="#191970" points="153.0927,-25.5001 143.0927,-29 153.0927,-32.5001 153.0927,-25.5001"/>
</g>
<!-- Node198 -->
<g id="node3" class="node">
<title>Node198</title>
<g id="a_node3"><a xlink:href="classGame.html#ad59df6562a58a614fda24622d3715b65" target="_top" xlink:title="Game::Game">
<polygon fill="none" stroke="#000000" points="324,-38.5 324,-57.5 405,-57.5 405,-38.5 324,-38.5"/>
<text text-anchor="middle" x="364.5" y="-45.5" font-family="Helvetica,sans-Serif" font-size="10.00" fill="#000000">Game::Game</text>
</a>
</g>
</g>
<!-- Node197&#45;&gt;Node198 -->
<g id="edge2" class="edge">
<title>Node197&#45;&gt;Node198</title>
<path fill="none" stroke="#191970" d="M292.3832,-37.7745C302.9831,-39.2774 313.7548,-40.8048 323.6287,-42.2048"/>
<polygon fill="#191970" stroke="#191970" points="292.7003,-34.2845 282.3079,-36.3459 291.7175,-41.2152 292.7003,-34.2845"/>
</g>
<!-- Node199 -->
<g id="node4" class="node">
<title>Node199</title>
<g id="a_node4"><a xlink:href="main_8cxx.html#af582d708d899e67ead623eac34a22387" target="_top" xlink:title="protected_main">
<polygon fill="none" stroke="#000000" points="318,-.5 318,-19.5 411,-19.5 411,-.5 318,-.5"/>
<text text-anchor="middle" x="364.5" y="-7.5" font-family="Helvetica,sans-Serif" font-size="10.00" fill="#000000">protected_main</text>
</a>
</g>
</g>
<!-- Node197&#45;&gt;Node199 -->
<g id="edge3" class="edge">
<title>Node197&#45;&gt;Node199</title>
<path fill="none" stroke="#191970" d="M292.2457,-20.245C300.7846,-19.0343 309.438,-17.8073 317.6465,-16.6434"/>
<polygon fill="#191970" stroke="#191970" points="291.7175,-16.7848 282.3079,-21.6541 292.7003,-23.7155 291.7175,-16.7848"/>
</g>
<!-- Node200 -->
<g id="node5" class="node">
<title>Node200</title>
<g id="a_node5"><a xlink:href="main_8cxx.html#a3c04138a5bfe5d72780bb7e82a18e627" target="_top" xlink:title="main">
<polygon fill="none" stroke="#000000" points="447,-.5 447,-19.5 488,-19.5 488,-.5 447,-.5"/>
<text text-anchor="middle" x="467.5" y="-7.5" font-family="Helvetica,sans-Serif" font-size="10.00" fill="#000000">main</text>
</a>
</g>
</g>
<!-- Node199&#45;&gt;Node200 -->
<g id="edge4" class="edge">
<title>Node199&#45;&gt;Node200</title>
<path fill="none" stroke="#191970" d="M421.2133,-10C430.4322,-10 439.4259,-10 446.9965,-10"/>
<polygon fill="#191970" stroke="#191970" points="421.1782,-6.5001 411.1782,-10 421.1781,-13.5001 421.1782,-6.5001"/>
</g>
</g>
</svg>
