<?xml version="1.0" encoding="UTF-8" standalone="no"?>
<!DOCTYPE svg PUBLIC "-//W3C//DTD SVG 1.1//EN"
 "http://www.w3.org/Graphics/SVG/1.1/DTD/svg11.dtd">
<!-- Generated by graphviz version 2.40.1 (20161225.0304)
 -->
<!-- Title: UIElement::setTextureID Pages: 1 -->
<svg width="601pt" height="132pt"
 viewBox="0.00 0.00 601.00 132.00" xmlns="http://www.w3.org/2000/svg" xmlns:xlink="http://www.w3.org/1999/xlink">
<g id="graph0" class="graph" transform="scale(1 1) rotate(0) translate(4 128)">
<title>UIElement::setTextureID</title>
<!-- Node261 -->
<g id="node1" class="node">
<title>Node261</title>
<polygon fill="#bfbfbf" stroke="#000000" points="0,-60.5 0,-79.5 135,-79.5 135,-60.5 0,-60.5"/>
<text text-anchor="middle" x="67.5" y="-67.5" font-family="Helvetica,sans-Serif" font-size="10.00" fill="#000000">UIElement::setTextureID</text>
</g>
<!-- Node262 -->
<g id="node2" class="node">
<title>Node262</title>
<g id="a_node2"><a xlink:href="classUIElement.html#a9c4439b91bcb765d0616616fbfe2a44a" target="_top" xlink:title="Get the uiElements tooltip text Get the tooltip text for this ui element. Tooltip is shown when hover...">
<polygon fill="none" stroke="#000000" points="172,-104.5 172,-123.5 322,-123.5 322,-104.5 172,-104.5"/>
<text text-anchor="middle" x="247" y="-111.5" font-family="Helvetica,sans-Serif" font-size="10.00" fill="#000000">UIElement::setUIElementID</text>
</a>
</g>
</g>
<!-- Node261&#45;&gt;Node262 -->
<g id="edge1" class="edge">
<title>Node261&#45;&gt;Node262</title>
<path fill="none" stroke="#191970" d="M116.3281,-81.969C145.1802,-89.0414 181.2116,-97.8736 208.1272,-104.4713"/>
<polygon fill="#191970" stroke="#191970" points="116.9946,-78.5288 106.4488,-79.5473 115.328,-85.3276 116.9946,-78.5288"/>
</g>
<!-- Node264 -->
<g id="node4" class="node">
<title>Node264</title>
<g id="a_node4"><a xlink:href="classUIManager.html#a007e9b56a4835b98db2b203df96ea79d" target="_top" xlink:title="Draws the tile (defined by the string, tiledata pair) onto the button. ">
<polygon fill="none" stroke="#000000" points="171,-55 171,-85 323,-85 323,-55 171,-55"/>
<text text-anchor="start" x="179" y="-73" font-family="Helvetica,sans-Serif" font-size="10.00" fill="#000000">UIManager::setupButtonTile</text>
<text text-anchor="middle" x="247" y="-62" font-family="Helvetica,sans-Serif" font-size="10.00" fill="#000000">Image</text>
</a>
</g>
</g>
<!-- Node261&#45;&gt;Node264 -->
<g id="edge3" class="edge">
<title>Node261&#45;&gt;Node264</title>
<path fill="none" stroke="#191970" d="M145.3008,-70C153.7342,-70 162.3109,-70 170.7259,-70"/>
<polygon fill="#191970" stroke="#191970" points="145.1055,-66.5001 135.1055,-70 145.1054,-73.5001 145.1055,-66.5001"/>
</g>
<!-- Node265 -->
<g id="node5" class="node">
<title>Node265</title>
<g id="a_node5"><a xlink:href="classGame.html#a5ed7fc5be77080f7f6dd5363f7f007a1" target="_top" xlink:title="initializes and displays the main menu initializes and displays the main menu ">
<polygon fill="none" stroke="#000000" points="195.5,-16.5 195.5,-35.5 298.5,-35.5 298.5,-16.5 195.5,-16.5"/>
<text text-anchor="middle" x="247" y="-23.5" font-family="Helvetica,sans-Serif" font-size="10.00" fill="#000000">Game::mainMenu</text>
</a>
</g>
</g>
<!-- Node261&#45;&gt;Node265 -->
<g id="edge5" class="edge">
<title>Node261&#45;&gt;Node265</title>
<path fill="none" stroke="#191970" d="M116.3281,-58.031C145.1802,-50.9586 181.2116,-42.1264 208.1272,-35.5287"/>
<polygon fill="#191970" stroke="#191970" points="115.328,-54.6724 106.4488,-60.4527 116.9946,-61.4712 115.328,-54.6724"/>
</g>
<!-- Node263 -->
<g id="node3" class="node">
<title>Node263</title>
<g id="a_node3"><a xlink:href="classUIManager.html#aae7a89e9d50bb6192e4140e07bd5f94b" target="_top" xlink:title="UIManager::createBuildMenu">
<polygon fill="none" stroke="#000000" points="359,-90.5 359,-109.5 516,-109.5 516,-90.5 359,-90.5"/>
<text text-anchor="middle" x="437.5" y="-97.5" font-family="Helvetica,sans-Serif" font-size="10.00" fill="#000000">UIManager::createBuildMenu</text>
</a>
</g>
</g>
<!-- Node262&#45;&gt;Node263 -->
<g id="edge2" class="edge">
<title>Node262&#45;&gt;Node263</title>
<path fill="none" stroke="#191970" d="M332.01,-107.7525C340.9212,-107.0977 349.9534,-106.4339 358.7896,-105.7845"/>
<polygon fill="#191970" stroke="#191970" points="331.7337,-104.2633 322.0172,-108.4869 332.2468,-111.2445 331.7337,-104.2633"/>
</g>
<!-- Node264&#45;&gt;Node263 -->
<g id="edge4" class="edge">
<title>Node264&#45;&gt;Node263</title>
<path fill="none" stroke="#191970" d="M333.2788,-83.5872C348.057,-85.9145 363.1258,-88.2875 377.0452,-90.4796"/>
<polygon fill="#191970" stroke="#191970" points="333.5347,-80.0845 323.1119,-81.9861 332.4457,-86.9992 333.5347,-80.0845"/>
</g>
<!-- Node266 -->
<g id="node6" class="node">
<title>Node266</title>
<g id="a_node6"><a xlink:href="classGame.html#ad59df6562a58a614fda24622d3715b65" target="_top" xlink:title="Game::Game">
<polygon fill="none" stroke="#000000" points="397,-38.5 397,-57.5 478,-57.5 478,-38.5 397,-38.5"/>
<text text-anchor="middle" x="437.5" y="-45.5" font-family="Helvetica,sans-Serif" font-size="10.00" fill="#000000">Game::Game</text>
</a>
</g>
</g>
<!-- Node265&#45;&gt;Node266 -->
<g id="edge6" class="edge">
<title>Node265&#45;&gt;Node266</title>
<path fill="none" stroke="#191970" d="M308.554,-33.1086C337.45,-36.4457 371.0956,-40.3313 396.7718,-43.2965"/>
<polygon fill="#191970" stroke="#191970" points="308.8876,-29.6239 298.552,-31.9535 308.0845,-36.5777 308.8876,-29.6239"/>
</g>
<!-- Node267 -->
<g id="node7" class="node">
<title>Node267</title>
<g id="a_node7"><a xlink:href="main_8cxx.html#af582d708d899e67ead623eac34a22387" target="_top" xlink:title="protected_main">
<polygon fill="none" stroke="#000000" points="391,-.5 391,-19.5 484,-19.5 484,-.5 391,-.5"/>
<text text-anchor="middle" x="437.5" y="-7.5" font-family="Helvetica,sans-Serif" font-size="10.00" fill="#000000">protected_main</text>
</a>
</g>
</g>
<!-- Node265&#45;&gt;Node267 -->
<g id="edge7" class="edge">
<title>Node265&#45;&gt;Node267</title>
<path fill="none" stroke="#191970" d="M308.5661,-20.8291C335.2673,-18.5865 366.0221,-16.0034 390.7965,-13.9226"/>
<polygon fill="#191970" stroke="#191970" points="308.224,-17.3454 298.552,-21.6702 308.8099,-24.3209 308.224,-17.3454"/>
</g>
<!-- Node268 -->
<g id="node8" class="node">
<title>Node268</title>
<g id="a_node8"><a xlink:href="main_8cxx.html#a3c04138a5bfe5d72780bb7e82a18e627" target="_top" xlink:title="main">
<polygon fill="none" stroke="#000000" points="552,-.5 552,-19.5 593,-19.5 593,-.5 552,-.5"/>
<text text-anchor="middle" x="572.5" y="-7.5" font-family="Helvetica,sans-Serif" font-size="10.00" fill="#000000">main</text>
</a>
</g>
</g>
<!-- Node267&#45;&gt;Node268 -->
<g id="edge8" class="edge">
<title>Node267&#45;&gt;Node268</title>
<path fill="none" stroke="#191970" d="M494.4949,-10C514.8277,-10 536.4643,-10 551.7793,-10"/>
<polygon fill="#191970" stroke="#191970" points="494.3376,-6.5001 484.3376,-10 494.3375,-13.5001 494.3376,-6.5001"/>
</g>
</g>
</svg>
