<?xml version="1.0" encoding="UTF-8" standalone="no"?>
<!DOCTYPE svg PUBLIC "-//W3C//DTD SVG 1.1//EN"
 "http://www.w3.org/Graphics/SVG/1.1/DTD/svg11.dtd">
<!-- Generated by graphviz version 2.40.1 (20161225.0304)
 -->
<!-- Title: MapNode::checkTileIsEmpty Pages: 1 -->
<svg width="533pt" height="86pt"
 viewBox="0.00 0.00 533.00 85.50" xmlns="http://www.w3.org/2000/svg" xmlns:xlink="http://www.w3.org/1999/xlink">
<g id="graph0" class="graph" transform="scale(1 1) rotate(0) translate(4 81.5)">
<title>MapNode::checkTileIsEmpty</title>
<!-- Node10 -->
<g id="node1" class="node">
<title>Node10</title>
<polygon fill="#bfbfbf" stroke="#000000" points="0,-22.5 0,-41.5 155,-41.5 155,-22.5 0,-22.5"/>
<text text-anchor="middle" x="77.5" y="-29.5" font-family="Helvetica,sans-Serif" font-size="10.00" fill="#000000">MapNode::checkTileIsEmpty</text>
</g>
<!-- Node11 -->
<g id="node2" class="node">
<title>Node11</title>
<g id="a_node2"><a xlink:href="classSingleton.html#af5cb1e5749949e2b68416cfb8d378044" target="_top" xlink:title="Get an instance of the singleton. ">
<polygon fill="none" stroke="#000000" points="388,-47 388,-77 522,-77 522,-47 388,-47"/>
<text text-anchor="start" x="396" y="-65" font-family="Helvetica,sans-Serif" font-size="10.00" fill="#000000">Singleton&lt; TileManager</text>
<text text-anchor="middle" x="455" y="-54" font-family="Helvetica,sans-Serif" font-size="10.00" fill="#000000"> &gt;::instance</text>
</a>
</g>
</g>
<!-- Node10&#45;&gt;Node11 -->
<g id="edge1" class="edge">
<title>Node10&#45;&gt;Node11</title>
<path fill="none" stroke="#191970" d="M126.2024,-41.5173C146.2028,-45.0691 169.638,-48.7756 191,-51 253.5581,-57.514 324.8343,-60.2057 377.5454,-61.301"/>
<polygon fill="#191970" stroke="#191970" points="377.7663,-64.8058 387.832,-61.4994 377.9014,-57.8071 377.7663,-64.8058"/>
</g>
<!-- Node12 -->
<g id="node3" class="node">
<title>Node12</title>
<g id="a_node3"><a xlink:href="classTileManager.html#a0635992377296446c67c5d41b48e8826" target="_top" xlink:title="TileManager::getTileData">
<polygon fill="none" stroke="#000000" points="385,-.5 385,-19.5 525,-19.5 525,-.5 385,-.5"/>
<text text-anchor="middle" x="455" y="-7.5" font-family="Helvetica,sans-Serif" font-size="10.00" fill="#000000">TileManager::getTileData</text>
</a>
</g>
</g>
<!-- Node10&#45;&gt;Node12 -->
<g id="edge2" class="edge">
<title>Node10&#45;&gt;Node12</title>
<path fill="none" stroke="#191970" d="M124.505,-22.4573C144.8567,-18.7608 169.0098,-14.9537 191,-13 252.4222,-7.5429 322.1953,-6.9929 374.5797,-7.6995"/>
<polygon fill="#191970" stroke="#191970" points="374.7646,-11.2026 384.8171,-7.8565 374.872,-4.2035 374.7646,-11.2026"/>
</g>
<!-- Node13 -->
<g id="node4" class="node">
<title>Node13</title>
<g id="a_node4"><a xlink:href="classMapNode.html#a02266c320280e682f9d04021fd99b081" target="_top" xlink:title="tileID placeable on slope tile. check if tileID is placeable on slope. ">
<polygon fill="none" stroke="#000000" points="191,-22.5 191,-41.5 349,-41.5 349,-22.5 191,-22.5"/>
<text text-anchor="middle" x="270" y="-29.5" font-family="Helvetica,sans-Serif" font-size="10.00" fill="#000000">MapNode::isPlacableOnSlope</text>
</a>
</g>
</g>
<!-- Node10&#45;&gt;Node13 -->
<g id="edge3" class="edge">
<title>Node10&#45;&gt;Node13</title>
<path fill="none" stroke="#191970" d="M155.2422,-32C163.5509,-32 172.0508,-32 180.4814,-32"/>
<polygon fill="#191970" stroke="#191970" points="180.7132,-35.5001 190.7132,-32 180.7131,-28.5001 180.7132,-35.5001"/>
</g>
<!-- Node13&#45;&gt;Node11 -->
<g id="edge4" class="edge">
<title>Node13&#45;&gt;Node11</title>
<path fill="none" stroke="#191970" d="M328.7893,-41.5334C344.3852,-44.0625 361.4623,-46.8317 377.8749,-49.4932"/>
<polygon fill="#191970" stroke="#191970" points="377.5577,-52.9874 387.989,-51.1334 378.6783,-46.0777 377.5577,-52.9874"/>
</g>
<!-- Node13&#45;&gt;Node12 -->
<g id="edge5" class="edge">
<title>Node13&#45;&gt;Node12</title>
<path fill="none" stroke="#191970" d="M349.2617,-22.5743C357.7908,-21.56 366.4732,-20.5275 375.0107,-19.5122"/>
<polygon fill="#191970" stroke="#191970" points="375.432,-22.9869 384.9487,-18.3304 374.6053,-16.0359 375.432,-22.9869"/>
</g>
</g>
</svg>
