<?xml version="1.0" encoding="UTF-8" standalone="no"?>
<!DOCTYPE svg PUBLIC "-//W3C//DTD SVG 1.1//EN"
 "http://www.w3.org/Graphics/SVG/1.1/DTD/svg11.dtd">
<!-- Generated by graphviz version 2.40.1 (20161225.0304)
 -->
<!-- Title: Map::isClickWithinTile Pages: 1 -->
<svg width="506pt" height="165pt"
 viewBox="0.00 0.00 506.00 165.00" xmlns="http://www.w3.org/2000/svg" xmlns:xlink="http://www.w3.org/1999/xlink">
<g id="graph0" class="graph" transform="scale(1 1) rotate(0) translate(4 161)">
<title>Map::isClickWithinTile</title>
<!-- Node266 -->
<g id="node1" class="node">
<title>Node266</title>
<polygon fill="#bfbfbf" stroke="#000000" points="0,-88 0,-107 125,-107 125,-88 0,-88"/>
<text text-anchor="middle" x="62.5" y="-95" font-family="Helvetica,sans-Serif" font-size="10.00" fill="#000000">Map::isClickWithinTile</text>
</g>
<!-- Node267 -->
<g id="node2" class="node">
<title>Node267</title>
<g id="a_node2"><a xlink:href="classSingleton.html#af5cb1e5749949e2b68416cfb8d378044" target="_top" xlink:title="Get an instance of the singleton. ">
<polygon fill="none" stroke="#000000" points="187,-126.5 187,-156.5 300,-156.5 300,-126.5 187,-126.5"/>
<text text-anchor="start" x="195" y="-144.5" font-family="Helvetica,sans-Serif" font-size="10.00" fill="#000000">Singleton&lt; Settings</text>
<text text-anchor="middle" x="243.5" y="-133.5" font-family="Helvetica,sans-Serif" font-size="10.00" fill="#000000"> &gt;::instance</text>
</a>
</g>
</g>
<!-- Node266&#45;&gt;Node267 -->
<g id="edge1" class="edge">
<title>Node266&#45;&gt;Node267</title>
<path fill="none" stroke="#191970" d="M125.0434,-106.2487C147.9785,-111.3257 173.5699,-117.6804 195.081,-123.6752"/>
<polygon fill="#191970" stroke="#191970" points="194.3912,-127.1179 204.9675,-126.4899 196.308,-120.3854 194.3912,-127.1179"/>
</g>
<!-- Node266&#45;&gt;Node267 -->
<g id="edge6" class="edge">
<title>Node266&#45;&gt;Node267</title>
<path fill="none" stroke="#191970" d="M83.263,-107.0413C105.984,-114.5267 143.5851,-124.3496 176.6544,-131.791"/>
<polygon fill="#191970" stroke="#191970" points="176.2311,-135.2817 186.7503,-134.0187 177.7394,-128.4461 176.2311,-135.2817"/>
</g>
<!-- Node268 -->
<g id="node3" class="node">
<title>Node268</title>
<g id="a_node3"><a xlink:href="classMapLayers.html#a1d810628821913c499b8348107b66891" target="_top" xlink:title="Check if given Layer is being drawn. ">
<polygon fill="none" stroke="#000000" points="173,-88 173,-107 314,-107 314,-88 173,-88"/>
<text text-anchor="middle" x="243.5" y="-95" font-family="Helvetica,sans-Serif" font-size="10.00" fill="#000000">MapLayers::isLayerActive</text>
</a>
</g>
</g>
<!-- Node266&#45;&gt;Node268 -->
<g id="edge2" class="edge">
<title>Node266&#45;&gt;Node268</title>
<path fill="none" stroke="#191970" d="M125.0434,-97.5C137.2182,-97.5 150.1416,-97.5 162.8058,-97.5"/>
<polygon fill="#191970" stroke="#191970" points="162.8875,-101.0001 172.8874,-97.5 162.8874,-94.0001 162.8875,-101.0001"/>
</g>
<!-- Node271 -->
<g id="node6" class="node">
<title>Node271</title>
<g id="a_node6"><a xlink:href="classMap.html#a09ba2fb8fa1748f0effd3ce50ce6cf89" target="_top" xlink:title="Map::getColorOfPixelInSurface">
<polygon fill="none" stroke="#000000" points="161,-50 161,-69 326,-69 326,-50 161,-50"/>
<text text-anchor="middle" x="243.5" y="-57" font-family="Helvetica,sans-Serif" font-size="10.00" fill="#000000">Map::getColorOfPixelInSurface</text>
</a>
</g>
</g>
<!-- Node266&#45;&gt;Node271 -->
<g id="edge5" class="edge">
<title>Node266&#45;&gt;Node271</title>
<path fill="none" stroke="#191970" d="M108.1739,-87.911C132.4892,-82.8061 162.5802,-76.4887 188.2084,-71.1082"/>
<polygon fill="#191970" stroke="#191970" points="189.087,-74.5001 198.1545,-69.0201 187.6487,-67.6495 189.087,-74.5001"/>
</g>
<!-- Node272 -->
<g id="node7" class="node">
<title>Node272</title>
<g id="a_node7"><a xlink:href="classResourcesManager.html#ad84710588e607e440931c6956a14aac7" target="_top" xlink:title="ResourcesManager::getTile\lSurface">
<polygon fill="none" stroke="#000000" points="169.5,-.5 169.5,-30.5 317.5,-30.5 317.5,-.5 169.5,-.5"/>
<text text-anchor="start" x="177.5" y="-18.5" font-family="Helvetica,sans-Serif" font-size="10.00" fill="#000000">ResourcesManager::getTile</text>
<text text-anchor="middle" x="243.5" y="-7.5" font-family="Helvetica,sans-Serif" font-size="10.00" fill="#000000">Surface</text>
</a>
</g>
</g>
<!-- Node266&#45;&gt;Node272 -->
<g id="edge7" class="edge">
<title>Node266&#45;&gt;Node272</title>
<path fill="none" stroke="#191970" d="M76.637,-87.9141C95.2921,-75.5995 129.4631,-54.185 161,-40.5 166.3651,-38.1719 172.0147,-35.972 177.7368,-33.9154"/>
<polygon fill="#191970" stroke="#191970" points="179.08,-37.1547 187.3978,-30.5924 176.8031,-30.5354 179.08,-37.1547"/>
</g>
<!-- Node269 -->
<g id="node4" class="node">
<title>Node269</title>
<g id="a_node4"><a xlink:href="classMapLayers.html#a53d7fcd90e70eaf36239d7a75c0c5dda" target="_top" xlink:title="MapLayers::MapLayers">
<polygon fill="none" stroke="#000000" points="366,-107 366,-126 494,-126 494,-107 366,-107"/>
<text text-anchor="middle" x="430" y="-114" font-family="Helvetica,sans-Serif" font-size="10.00" fill="#000000">MapLayers::MapLayers</text>
</a>
</g>
</g>
<!-- Node268&#45;&gt;Node269 -->
<g id="edge3" class="edge">
<title>Node268&#45;&gt;Node269</title>
<path fill="none" stroke="#191970" d="M314.0077,-104.6831C327.5705,-106.0648 341.8168,-107.5162 355.5013,-108.9103"/>
<polygon fill="#191970" stroke="#191970" points="355.5324,-112.4315 365.8356,-109.9631 356.2419,-105.4676 355.5324,-112.4315"/>
</g>
<!-- Node270 -->
<g id="node5" class="node">
<title>Node270</title>
<g id="a_node5"><a xlink:href="classMapLayers.html#aa7fa21110e27ec69f131692b0a510d66" target="_top" xlink:title="MapLayers::~MapLayers">
<polygon fill="none" stroke="#000000" points="362,-69 362,-88 498,-88 498,-69 362,-69"/>
<text text-anchor="middle" x="430" y="-76" font-family="Helvetica,sans-Serif" font-size="10.00" fill="#000000">MapLayers::~MapLayers</text>
</a>
</g>
</g>
<!-- Node268&#45;&gt;Node270 -->
<g id="edge4" class="edge">
<title>Node268&#45;&gt;Node270</title>
<path fill="none" stroke="#191970" d="M314.0077,-90.3169C326.3794,-89.0565 339.3199,-87.7382 351.8838,-86.4582"/>
<polygon fill="#191970" stroke="#191970" points="352.2673,-89.9374 361.8611,-85.4418 351.5578,-82.9734 352.2673,-89.9374"/>
</g>
</g>
</svg>
