<?xml version="1.0" encoding="UTF-8" standalone="no"?>
<!DOCTYPE svg PUBLIC "-//W3C//DTD SVG 1.1//EN"
 "http://www.w3.org/Graphics/SVG/1.1/DTD/svg11.dtd">
<!-- Generated by graphviz version 2.40.1 (20161225.0304)
 -->
<!-- Title: UIManager::startTooltip Pages: 1 -->
<svg width="638pt" height="66pt"
 viewBox="0.00 0.00 638.00 66.00" xmlns="http://www.w3.org/2000/svg" xmlns:xlink="http://www.w3.org/1999/xlink">
<g id="graph0" class="graph" transform="scale(1 1) rotate(0) translate(4 62)">
<title>UIManager::startTooltip</title>
<!-- Node240 -->
<g id="node1" class="node">
<title>Node240</title>
<polygon fill="#bfbfbf" stroke="#000000" points="0,-19.5 0,-38.5 130,-38.5 130,-19.5 0,-19.5"/>
<text text-anchor="middle" x="65" y="-26.5" font-family="Helvetica,sans-Serif" font-size="10.00" fill="#000000">UIManager::startTooltip</text>
</g>
<!-- Node241 -->
<g id="node2" class="node">
<title>Node241</title>
<g id="a_node2"><a xlink:href="classEventManager.html#a65ec91fd5016d4f9c4167fb8babed2df" target="_top" xlink:title="EventManager::checkEvents">
<polygon fill="none" stroke="#000000" points="166,-19.5 166,-38.5 320,-38.5 320,-19.5 166,-19.5"/>
<text text-anchor="middle" x="243" y="-26.5" font-family="Helvetica,sans-Serif" font-size="10.00" fill="#000000">EventManager::checkEvents</text>
</a>
</g>
</g>
<!-- Node240&#45;&gt;Node241 -->
<g id="edge1" class="edge">
<title>Node240&#45;&gt;Node241</title>
<path fill="none" stroke="#191970" d="M140.2206,-29C148.6716,-29 157.2924,-29 165.7684,-29"/>
<polygon fill="#191970" stroke="#191970" points="140.0177,-25.5001 130.0177,-29 140.0176,-32.5001 140.0177,-25.5001"/>
</g>
<!-- Node242 -->
<g id="node3" class="node">
<title>Node242</title>
<g id="a_node3"><a xlink:href="classGame.html#a1c2ab25d5216b2f4b2fe41efd2c09114" target="_top" xlink:title="begins the game starts running the game ">
<polygon fill="none" stroke="#000000" points="356,-19.5 356,-38.5 424,-38.5 424,-19.5 356,-19.5"/>
<text text-anchor="middle" x="390" y="-26.5" font-family="Helvetica,sans-Serif" font-size="10.00" fill="#000000">Game::run</text>
</a>
</g>
</g>
<!-- Node241&#45;&gt;Node242 -->
<g id="edge2" class="edge">
<title>Node241&#45;&gt;Node242</title>
<path fill="none" stroke="#191970" d="M330.5248,-29C339.4338,-29 348.0572,-29 355.845,-29"/>
<polygon fill="#191970" stroke="#191970" points="330.3744,-25.5001 320.3744,-29 330.3743,-32.5001 330.3744,-25.5001"/>
</g>
<!-- Node243 -->
<g id="node4" class="node">
<title>Node243</title>
<g id="a_node4"><a xlink:href="classGame.html#ad59df6562a58a614fda24622d3715b65" target="_top" xlink:title="Game::Game">
<polygon fill="none" stroke="#000000" points="466,-38.5 466,-57.5 547,-57.5 547,-38.5 466,-38.5"/>
<text text-anchor="middle" x="506.5" y="-45.5" font-family="Helvetica,sans-Serif" font-size="10.00" fill="#000000">Game::Game</text>
</a>
</g>
</g>
<!-- Node242&#45;&gt;Node243 -->
<g id="edge3" class="edge">
<title>Node242&#45;&gt;Node243</title>
<path fill="none" stroke="#191970" d="M434.0985,-36.192C444.4513,-37.8805 455.439,-39.6725 465.6427,-41.3366"/>
<polygon fill="#191970" stroke="#191970" points="434.4428,-32.702 424.0098,-34.5467 433.316,-39.6107 434.4428,-32.702"/>
</g>
<!-- Node244 -->
<g id="node5" class="node">
<title>Node244</title>
<g id="a_node5"><a xlink:href="main_8cxx.html#af582d708d899e67ead623eac34a22387" target="_top" xlink:title="protected_main">
<polygon fill="none" stroke="#000000" points="460,-.5 460,-19.5 553,-19.5 553,-.5 460,-.5"/>
<text text-anchor="middle" x="506.5" y="-7.5" font-family="Helvetica,sans-Serif" font-size="10.00" fill="#000000">protected_main</text>
</a>
</g>
</g>
<!-- Node242&#45;&gt;Node244 -->
<g id="edge4" class="edge">
<title>Node242&#45;&gt;Node244</title>
<path fill="none" stroke="#191970" d="M433.9884,-21.8259C442.382,-20.457 451.1965,-19.0195 459.6749,-17.6367"/>
<polygon fill="#191970" stroke="#191970" points="433.316,-18.3893 424.0098,-23.4533 434.4428,-25.298 433.316,-18.3893"/>
</g>
<!-- Node245 -->
<g id="node6" class="node">
<title>Node245</title>
<g id="a_node6"><a xlink:href="main_8cxx.html#a3c04138a5bfe5d72780bb7e82a18e627" target="_top" xlink:title="main">
<polygon fill="none" stroke="#000000" points="589,-.5 589,-19.5 630,-19.5 630,-.5 589,-.5"/>
<text text-anchor="middle" x="609.5" y="-7.5" font-family="Helvetica,sans-Serif" font-size="10.00" fill="#000000">main</text>
</a>
</g>
</g>
<!-- Node244&#45;&gt;Node245 -->
<g id="edge5" class="edge">
<title>Node244&#45;&gt;Node245</title>
<path fill="none" stroke="#191970" d="M563.2133,-10C572.4322,-10 581.4259,-10 588.9965,-10"/>
<polygon fill="#191970" stroke="#191970" points="563.1782,-6.5001 553.1782,-10 563.1781,-13.5001 563.1782,-6.5001"/>
</g>
</g>
</svg>
