<?xml version="1.0" encoding="UTF-8" standalone="no"?>
<!DOCTYPE svg PUBLIC "-//W3C//DTD SVG 1.1//EN"
 "http://www.w3.org/Graphics/SVG/1.1/DTD/svg11.dtd">
<!-- Generated by graphviz version 2.40.1 (20161225.0304)
 -->
<!-- Title: Game::mainMenu Pages: 1 -->
<!--zoomable 632 -->
<svg id="main" version="1.1" xmlns="http://www.w3.org/2000/svg" xmlns:xlink="http://www.w3.org/1999/xlink" xml:space="preserve" onload="init(evt)">
<style type="text/css"><![CDATA[
.edge:hover path { stroke: red; }
.edge:hover polygon { stroke: red; fill: red; }
]]></style>
<script type="text/javascript"><![CDATA[
var edges = document.getElementsByTagName('g');
if (edges && edges.length) {
  for (var i=0;i<edges.length;i++) {
    if (edges[i].id.substr(0,4)=='edge') {
      edges[i].setAttribute('class','edge');
    }
  }
}
]]></script>
        <defs>
                <circle id="rim" cx="0" cy="0" r="7"/>
                <circle id="rim2" cx="0" cy="0" r="3.5"/>
                <g id="zoomPlus">
                        <use xlink:href="#rim" fill="#404040">
                                <set attributeName="fill" to="#808080" begin="zoomplus.mouseover" end="zoomplus.mouseout"/>
                        </use>
                        <path d="M-4,0h8M0,-4v8" fill="none" stroke="white" stroke-width="1.5" pointer-events="none"/>
                </g>
                <g id="zoomMin">
                        <use xlink:href="#rim" fill="#404040">
                                <set attributeName="fill" to="#808080" begin="zoomminus.mouseover" end="zoomminus.mouseout"/>
                        </use>
                        <path d="M-4,0h8" fill="none" stroke="white" stroke-width="1.5" pointer-events="none"/>
                </g>
                <g id="dirArrow">
                        <path fill="none" stroke="white" stroke-width="1.5" d="M0,-3.0v7 M-2.5,-0.5L0,-3.0L2.5,-0.5"/>
                </g>
               <g id="resetDef">
                       <use xlink:href="#rim2" fill="#404040">
                               <set attributeName="fill" to="#808080" begin="reset.mouseover" end="reset.mouseout"/>
                       </use>
               </g>
        </defs>

<script type="text/javascript">
var viewWidth = 1568;
var viewHeight = 632;
var sectionId = 'dynsection-5';
</script>
<script xlink:href="svgpan.js"/>
<svg id="graph" class="graph">
<g id="viewport">
<title>Game::mainMenu</title>
<!-- Node105 -->
<g id="node1" class="node">
<title>Node105</title>
<polygon fill="#bfbfbf" stroke="#000000" points="0,-308 0,-327 103,-327 103,-308 0,-308"/>
<text text-anchor="middle" x="51.5" y="-315" font-family="Helvetica,sans-Serif" font-size="10.00" fill="#000000">Game::mainMenu</text>
</g>
<!-- Node106 -->
<g id="node2" class="node">
<title>Node106</title>
<g id="a_node2"><a xlink:href="classSingleton.html#af5cb1e5749949e2b68416cfb8d378044" target="_top" xlink:title="Get an instance of the singleton. ">
<polygon fill="none" stroke="#000000" points="1447,-510.5 1447,-540.5 1560,-540.5 1560,-510.5 1447,-510.5"/>
<text text-anchor="start" x="1455" y="-528.5" font-family="Helvetica,sans-Serif" font-size="10.00" fill="#000000">Singleton&lt; Settings</text>
<text text-anchor="middle" x="1503.5" y="-517.5" font-family="Helvetica,sans-Serif" font-size="10.00" fill="#000000"> &gt;::instance</text>
</a>
</g>
</g>
<!-- Node105&#45;&gt;Node106 -->
<g id="edge1" class="edge">
<title>Node105&#45;&gt;Node106</title>
<path fill="none" stroke="#191970" d="M55.4609,-327.3929C63.7803,-356.783 86.7912,-434.0124 139,-470.5 249.6589,-547.8371 305.4947,-507.5 440.5,-507.5 440.5,-507.5 440.5,-507.5 1147.5,-507.5 1248.2334,-507.5 1365,-507.5 1436.5539,-512.1451"/>
<polygon fill="#191970" stroke="#191970" points="1436.5545,-515.6537 1446.7756,-512.8646 1437.0461,-508.671 1436.5545,-515.6537"/>
</g>
<!-- Node105&#45;&gt;Node106 -->
<g id="edge16" class="edge">
<title>Node105&#45;&gt;Node106</title>
<path fill="none" stroke="#191970" d="M53.2304,-327.3289C59.0733,-357.3081 81.051,-448.0007 139,-488.5 249.6589,-565.8371 305.4947,-525.5 440.5,-525.5 440.5,-525.5 440.5,-525.5 1147.5,-525.5 1248.2334,-525.5 1365,-525.5 1436.5539,-525.5"/>
<polygon fill="#191970" stroke="#191970" points="1436.7757,-529.0001 1446.7756,-525.5 1436.7756,-522.0001 1436.7757,-529.0001"/>
</g>
<!-- Node105&#45;&gt;Node106 -->
<g id="edge46" class="edge">
<title>Node105&#45;&gt;Node106</title>
<path fill="none" stroke="#191970" d="M52.2254,-327.3669C56.1433,-362.223 76.9508,-463.1352 139,-506.5 249.6589,-583.8371 305.4947,-543.5 440.5,-543.5 440.5,-543.5 440.5,-543.5 1147.5,-543.5 1248.2334,-543.5 1365,-543.5 1436.5539,-538.8549"/>
<polygon fill="#191970" stroke="#191970" points="1437.0461,-542.329 1446.7756,-538.1354 1436.5545,-535.3463 1437.0461,-542.329"/>
</g>
<!-- Node107 -->
<g id="node3" class="node">
<title>Node107</title>
<g id="a_node3"><a xlink:href="classUIElement.html#a452ffed1ff191ababc8c15d4c455f6c2" target="_top" xlink:title="Set the uiElements sprite ID Set the sprite ID this ui element. The texture will be retrieved from th...">
<polygon fill="none" stroke="#000000" points="152,-308 152,-327 287,-327 287,-308 152,-308"/>
<text text-anchor="middle" x="219.5" y="-315" font-family="Helvetica,sans-Serif" font-size="10.00" fill="#000000">UIElement::setTextureID</text>
</a>
</g>
</g>
<!-- Node105&#45;&gt;Node107 -->
<g id="edge2" class="edge">
<title>Node105&#45;&gt;Node107</title>
<path fill="none" stroke="#191970" d="M103.2764,-317.5C115.3722,-317.5 128.5187,-317.5 141.4747,-317.5"/>
<polygon fill="#191970" stroke="#191970" points="141.8007,-321.0001 151.8006,-317.5 141.8006,-314.0001 141.8007,-321.0001"/>
</g>
<!-- Node109 -->
<g id="node5" class="node">
<title>Node109</title>
<g id="a_node5"><a xlink:href="classUIElement.html#a440d645aa10dbf7d3c763ba6e1fc33a6" target="_top" xlink:title="Sets the UI Elements visibility. Set the UI Elements visibility. ">
<polygon fill="none" stroke="#000000" points="154,-460 154,-479 285,-479 285,-460 154,-460"/>
<text text-anchor="middle" x="219.5" y="-467" font-family="Helvetica,sans-Serif" font-size="10.00" fill="#000000">UIElement::setVisibility</text>
</a>
</g>
</g>
<!-- Node105&#45;&gt;Node109 -->
<g id="edge5" class="edge">
<title>Node105&#45;&gt;Node109</title>
<path fill="none" stroke="#191970" d="M54.8702,-327.0042C64.1164,-351.6323 92.3429,-417.867 139,-450.5 141.8517,-452.4945 144.8849,-454.2817 148.0396,-455.8829"/>
<polygon fill="#191970" stroke="#191970" points="146.6402,-459.0909 157.2025,-459.9208 149.463,-452.6853 146.6402,-459.0909"/>
</g>
<!-- Node110 -->
<g id="node6" class="node">
<title>Node110</title>
<g id="a_node6"><a xlink:href="classUIElement.html#a4c86f107c0e436dbeea3a899fc42fa48" target="_top" xlink:title="Sets the x,y position of this ui element Sets the x,y position of the ui element. ...">
<polygon fill="none" stroke="#000000" points="155.5,-422 155.5,-441 283.5,-441 283.5,-422 155.5,-422"/>
<text text-anchor="middle" x="219.5" y="-429" font-family="Helvetica,sans-Serif" font-size="10.00" fill="#000000">UIElement::setPosition</text>
</a>
</g>
</g>
<!-- Node105&#45;&gt;Node110 -->
<g id="edge6" class="edge">
<title>Node105&#45;&gt;Node110</title>
<path fill="none" stroke="#191970" d="M57.4144,-327.0534C69.9253,-346.4138 101.0612,-390.3155 139,-412.5 142.8699,-414.7629 146.993,-416.7564 151.2502,-418.5126"/>
<polygon fill="#191970" stroke="#191970" points="150.1438,-421.8348 160.7375,-421.9907 152.5532,-415.2625 150.1438,-421.8348"/>
</g>
<!-- Node111 -->
<g id="node7" class="node">
<title>Node111</title>
<g id="a_node7"><a xlink:href="classUIElement.html#ad1c0d7431b71bdd9a3704a6d5c8a4643" target="_top" xlink:title="Get the position and the size of this ui element Gets the position and the size of this ui element...">
<polygon fill="none" stroke="#000000" points="139,-384 139,-403 300,-403 300,-384 139,-384"/>
<text text-anchor="middle" x="219.5" y="-391" font-family="Helvetica,sans-Serif" font-size="10.00" fill="#000000">UIElement::getUiElementRect</text>
</a>
</g>
</g>
<!-- Node105&#45;&gt;Node111 -->
<g id="edge7" class="edge">
<title>Node105&#45;&gt;Node111</title>
<path fill="none" stroke="#191970" d="M65.174,-327.0805C81.9275,-338.4686 111.4847,-357.4435 139,-369.5 149.0223,-373.8915 160.0849,-377.7705 170.717,-381.0601"/>
<polygon fill="#191970" stroke="#191970" points="169.7352,-384.4195 180.3179,-383.9132 171.7293,-377.7096 169.7352,-384.4195"/>
</g>
<!-- Node113 -->
<g id="node9" class="node">
<title>Node113</title>
<g id="a_node9"><a xlink:href="classUIElement.html#a570841bf8b7970ca935b1a00e571036a" target="_top" xlink:title="Handling for the hovering event Check, if the mouse cursor is hovering over the element. virtual function to provide custom handling if necessary (e.g. Combobox) Per default, it&#39;s the same implementation as isMouseOver. ">
<polygon fill="none" stroke="#000000" points="336,-384 336,-403 545,-403 545,-384 336,-384"/>
<text text-anchor="middle" x="440.5" y="-391" font-family="Helvetica,sans-Serif" font-size="10.00" fill="#000000">UIElement::isMouseOverHoverableArea</text>
</a>
</g>
</g>
<!-- Node105&#45;&gt;Node113 -->
<g id="edge47" class="edge">
<title>Node105&#45;&gt;Node113</title>
<path fill="none" stroke="#191970" d="M94.6281,-327.0736C108.7537,-330.1534 124.5331,-333.5344 139,-336.5 221.1837,-353.3468 316.3509,-371.0369 377.4267,-382.1575"/>
<polygon fill="#191970" stroke="#191970" points="376.8372,-385.6076 387.3019,-383.9524 378.089,-378.7205 376.8372,-385.6076"/>
</g>
<!-- Node114 -->
<g id="node10" class="node">
<title>Node114</title>
<g id="a_node10"><a xlink:href="classText.html#a14b9f0937696af5fd95317eb8313bf92" target="_top" xlink:title="sets the text for this text widget. ">
<polygon fill="none" stroke="#000000" points="604.5,-572 604.5,-591 682.5,-591 682.5,-572 604.5,-572"/>
<text text-anchor="middle" x="643.5" y="-579" font-family="Helvetica,sans-Serif" font-size="10.00" fill="#000000">Text::setText</text>
</a>
</g>
</g>
<!-- Node105&#45;&gt;Node114 -->
<g id="edge10" class="edge">
<title>Node105&#45;&gt;Node114</title>
<path fill="none" stroke="#191970" d="M53.5614,-327.2516C62.5013,-368.5497 99.2601,-528.2587 139,-557.5 279.9144,-661.1874 507.6256,-617.8299 601.2433,-593.6517"/>
<polygon fill="#191970" stroke="#191970" points="602.4208,-596.9608 611.1948,-591.0222 600.6324,-590.193 602.4208,-596.9608"/>
</g>
<!-- Node116 -->
<g id="node12" class="node">
<title>Node116</title>
<g id="a_node12"><a xlink:href="classButton.html#ac6a233c876164a52d54ef7f1b3fb78d1" target="_top" xlink:title="Sets the button&#39;s text sets the button&#39;s text to the string passed as an argument. ">
<polygon fill="none" stroke="#000000" points="174.5,-232 174.5,-251 264.5,-251 264.5,-232 174.5,-232"/>
<text text-anchor="middle" x="219.5" y="-239" font-family="Helvetica,sans-Serif" font-size="10.00" fill="#000000">Button::setText</text>
</a>
</g>
</g>
<!-- Node105&#45;&gt;Node116 -->
<g id="edge14" class="edge">
<title>Node105&#45;&gt;Node116</title>
<path fill="none" stroke="#191970" d="M65.174,-307.9195C81.9275,-296.5314 111.4847,-277.5565 139,-265.5 149.0223,-261.1085 160.0849,-257.2295 170.717,-253.9399"/>
<polygon fill="#191970" stroke="#191970" points="171.7293,-257.2904 180.3179,-251.0868 169.7352,-250.5805 171.7293,-257.2904"/>
</g>
<!-- Node118 -->
<g id="node14" class="node">
<title>Node118</title>
<g id="a_node14"><a xlink:href="classEngine.html#a260d4834150eae6eec2bde34df6dc827" target="_top" xlink:title="Creates a new game Creates a new game. ">
<polygon fill="none" stroke="#000000" points="591,-270 591,-289 696,-289 696,-270 591,-270"/>
<text text-anchor="middle" x="643.5" y="-277" font-family="Helvetica,sans-Serif" font-size="10.00" fill="#000000">Engine::newGame</text>
</a>
</g>
</g>
<!-- Node105&#45;&gt;Node118 -->
<g id="edge17" class="edge">
<title>Node105&#45;&gt;Node118</title>
<path fill="none" stroke="#191970" d="M88.7197,-307.9025C104.1683,-304.3159 122.3439,-300.6053 139,-298.5 297.1513,-278.5097 485.223,-277.3334 580.8784,-278.3283"/>
<polygon fill="#191970" stroke="#191970" points="580.9208,-281.829 590.9607,-278.4449 581.0018,-274.8294 580.9208,-281.829"/>
</g>
<!-- Node131 -->
<g id="node27" class="node">
<title>Node131</title>
<g id="a_node27"><a xlink:href="classEngine.html#a83b7dbeee899b36a13d5b07c7ad87ebc" target="_top" xlink:title="Loads a saved game Loads a saved Game. ">
<polygon fill="none" stroke="#000000" points="387.5,-172 387.5,-191 493.5,-191 493.5,-172 387.5,-172"/>
<text text-anchor="middle" x="440.5" y="-179" font-family="Helvetica,sans-Serif" font-size="10.00" fill="#000000">Engine::loadGame</text>
</a>
</g>
</g>
<!-- Node105&#45;&gt;Node131 -->
<g id="edge37" class="edge">
<title>Node105&#45;&gt;Node131</title>
<path fill="none" stroke="#191970" d="M54.3697,-307.7589C62.5636,-281.9478 88.7748,-211.9004 139,-184.5 220.6178,-139.9734 334.1118,-155.7877 395.9635,-169.6472"/>
<polygon fill="#191970" stroke="#191970" points="395.2661,-173.0783 405.7989,-171.9329 396.8508,-166.26 395.2661,-173.0783"/>
</g>
<!-- Node135 -->
<g id="node31" class="node">
<title>Node135</title>
<g id="a_node31"><a xlink:href="classEngine.html#a0ba57971ffb5173ecc425461f65a4cd8" target="_top" xlink:title="Quits the game Sets m_running to false and quitting the game. ">
<polygon fill="none" stroke="#000000" points="167.5,-194 167.5,-213 271.5,-213 271.5,-194 167.5,-194"/>
<text text-anchor="middle" x="219.5" y="-201" font-family="Helvetica,sans-Serif" font-size="10.00" fill="#000000">Engine::quitGame</text>
</a>
</g>
</g>
<!-- Node105&#45;&gt;Node135 -->
<g id="edge43" class="edge">
<title>Node105&#45;&gt;Node135</title>
<path fill="none" stroke="#191970" d="M57.4144,-307.9466C69.9253,-288.5862 101.0612,-244.6845 139,-222.5 144.7467,-219.1396 151.052,-216.3733 157.525,-214.0959"/>
<polygon fill="#191970" stroke="#191970" points="158.5897,-217.4302 167.0834,-211.0971 156.4942,-210.7512 158.5897,-217.4302"/>
</g>
<!-- Node136 -->
<g id="node32" class="node">
<title>Node136</title>
<g id="a_node32"><a xlink:href="classImage.html#aea00862523c7a5c9551655f2660d91a8" target="_top" xlink:title="sets the opacity of the image ">
<polygon fill="none" stroke="#000000" points="166.5,-118 166.5,-137 272.5,-137 272.5,-118 166.5,-118"/>
<text text-anchor="middle" x="219.5" y="-125" font-family="Helvetica,sans-Serif" font-size="10.00" fill="#000000">Image::setOpacity</text>
</a>
</g>
</g>
<!-- Node105&#45;&gt;Node136 -->
<g id="edge45" class="edge">
<title>Node105&#45;&gt;Node136</title>
<path fill="none" stroke="#191970" d="M53.7369,-307.9603C60.8849,-279.6101 85.8853,-195.1344 139,-151.5 144.2998,-147.1462 150.3693,-143.582 156.7467,-140.6644"/>
<polygon fill="#191970" stroke="#191970" points="158.2878,-143.817 166.2571,-136.8356 155.6735,-137.3235 158.2878,-143.817"/>
</g>
<!-- Node137 -->
<g id="node33" class="node">
<title>Node137</title>
<g id="a_node33"><a xlink:href="classUIElement.html#a43b9f5f4be71c672ca8ed528fce1dfc5" target="_top" xlink:title="UIElement::onMouseLeave">
<polygon fill="none" stroke="#000000" points="146.5,-80 146.5,-99 292.5,-99 292.5,-80 146.5,-80"/>
<text text-anchor="middle" x="219.5" y="-87" font-family="Helvetica,sans-Serif" font-size="10.00" fill="#000000">UIElement::onMouseLeave</text>
</a>
</g>
</g>
<!-- Node105&#45;&gt;Node137 -->
<g id="edge48" class="edge">
<title>Node105&#45;&gt;Node137</title>
<path fill="none" stroke="#191970" d="M52.4936,-307.8105C56.4516,-274.4571 74.1811,-163.4346 139,-108.5 140.965,-106.8347 143.0498,-105.3094 145.2281,-103.9128"/>
<polygon fill="#191970" stroke="#191970" points="146.9124,-106.981 154.037,-99.1394 143.5773,-100.8265 146.9124,-106.981"/>
</g>
<!-- Node138 -->
<g id="node34" class="node">
<title>Node138</title>
<g id="a_node34"><a xlink:href="classUIElement.html#a8e089719777f393d720e3cb1708f8070" target="_top" xlink:title="UIElement::onMouseMove">
<polygon fill="none" stroke="#000000" points="148,-42 148,-61 291,-61 291,-42 148,-42"/>
<text text-anchor="middle" x="219.5" y="-49" font-family="Helvetica,sans-Serif" font-size="10.00" fill="#000000">UIElement::onMouseMove</text>
</a>
</g>
</g>
<!-- Node105&#45;&gt;Node138 -->
<g id="edge49" class="edge">
<title>Node105&#45;&gt;Node138</title>
<path fill="none" stroke="#191970" d="M51.7953,-307.9343C53.4738,-271.0992 64.6595,-137.1708 139,-70.5 140.7372,-68.942 142.5782,-67.5053 144.5028,-66.1807"/>
<polygon fill="#191970" stroke="#191970" points="146.4858,-69.0781 153.4145,-61.0629 142.9997,-63.0078 146.4858,-69.0781"/>
</g>
<!-- Node139 -->
<g id="node35" class="node">
<title>Node139</title>
<g id="a_node35"><a xlink:href="classUIElement.html#aaf7e8be5b7a5668c0b8aab27d01d6a30" target="_top" xlink:title="UIElement::onMouseEnter">
<polygon fill="none" stroke="#000000" points="148,-4 148,-23 291,-23 291,-4 148,-4"/>
<text text-anchor="middle" x="219.5" y="-11" font-family="Helvetica,sans-Serif" font-size="10.00" fill="#000000">UIElement::onMouseEnter</text>
</a>
</g>
</g>
<!-- Node105&#45;&gt;Node139 -->
<g id="edge50" class="edge">
<title>Node105&#45;&gt;Node139</title>
<path fill="none" stroke="#191970" d="M53.1683,-307.7251C61.1125,-262.2925 96.4882,-72.2907 139,-32.5 140.5333,-31.0649 142.1541,-29.7317 143.8474,-28.4936"/>
<polygon fill="#191970" stroke="#191970" points="146.0951,-31.2252 152.8491,-23.0622 142.4787,-25.2317 146.0951,-31.2252"/>
</g>
<!-- Node107&#45;&gt;Node106 -->
<g id="edge3" class="edge">
<title>Node107&#45;&gt;Node106</title>
<path fill="none" stroke="#191970" d="M287.0594,-317.5C370.7299,-317.5 517.625,-317.5 643.5,-317.5 643.5,-317.5 643.5,-317.5 1147.5,-317.5 1293.1632,-317.5 1432.193,-448.9253 1483.0974,-502.8382"/>
<polygon fill="#191970" stroke="#191970" points="1480.582,-505.2729 1489.9587,-510.2053 1485.7045,-500.502 1480.582,-505.2729"/>
</g>
<!-- Node108 -->
<g id="node4" class="node">
<title>Node108</title>
<g id="a_node4"><a xlink:href="classResourcesManager.html#aae2a2032792aaa57862eb9c494ae1cf2" target="_top" xlink:title="ResourcesManager::getUITexture">
<polygon fill="none" stroke="#000000" points="352.5,-346 352.5,-365 528.5,-365 528.5,-346 352.5,-346"/>
<text text-anchor="middle" x="440.5" y="-353" font-family="Helvetica,sans-Serif" font-size="10.00" fill="#000000">ResourcesManager::getUITexture</text>
</a>
</g>
</g>
<!-- Node107&#45;&gt;Node108 -->
<g id="edge4" class="edge">
<title>Node107&#45;&gt;Node108</title>
<path fill="none" stroke="#191970" d="M274.9824,-327.04C305.3257,-332.2574 343.1001,-338.7525 374.8979,-344.22"/>
<polygon fill="#191970" stroke="#191970" points="374.5463,-347.7108 384.9948,-345.9561 375.7326,-340.8121 374.5463,-347.7108"/>
</g>
<!-- Node112 -->
<g id="node8" class="node">
<title>Node112</title>
<g id="a_node8"><a xlink:href="classUIElement.html#aa7f624963eaeb31043d74219ee24386c" target="_top" xlink:title="Checks if the mouse cursor is over the current UI Element Check if the coordinates match the ones sto...">
<polygon fill="none" stroke="#000000" points="372,-422 372,-441 509,-441 509,-422 372,-422"/>
<text text-anchor="middle" x="440.5" y="-429" font-family="Helvetica,sans-Serif" font-size="10.00" fill="#000000">UIElement::isMouseOver</text>
</a>
</g>
</g>
<!-- Node111&#45;&gt;Node112 -->
<g id="edge8" class="edge">
<title>Node111&#45;&gt;Node112</title>
<path fill="none" stroke="#191970" d="M274.9824,-403.04C305.3257,-408.2574 343.1001,-414.7525 374.8979,-420.22"/>
<polygon fill="#191970" stroke="#191970" points="374.5463,-423.7108 384.9948,-421.9561 375.7326,-416.8121 374.5463,-423.7108"/>
</g>
<!-- Node111&#45;&gt;Node113 -->
<g id="edge9" class="edge">
<title>Node111&#45;&gt;Node113</title>
<path fill="none" stroke="#191970" d="M300.2242,-393.5C308.5549,-393.5 317.1296,-393.5 325.7389,-393.5"/>
<polygon fill="#191970" stroke="#191970" points="325.8488,-397.0001 335.8487,-393.5 325.8487,-390.0001 325.8488,-397.0001"/>
</g>
<!-- Node115 -->
<g id="node11" class="node">
<title>Node115</title>
<g id="a_node11"><a xlink:href="classText.html#a3bf5a064fd37d06b8d3dc5a700556897" target="_top" xlink:title="Draws a text string to the screen Draws a text string to the screen. This could either be a standalon...">
<polygon fill="none" stroke="#000000" points="1273,-572 1273,-591 1403,-591 1403,-572 1273,-572"/>
<text text-anchor="middle" x="1338" y="-579" font-family="Helvetica,sans-Serif" font-size="10.00" fill="#000000">Text::createTextTexture</text>
</a>
</g>
</g>
<!-- Node114&#45;&gt;Node115 -->
<g id="edge11" class="edge">
<title>Node114&#45;&gt;Node115</title>
<path fill="none" stroke="#191970" d="M682.8292,-581.5C794.5678,-581.5 1115.3195,-581.5 1262.5177,-581.5"/>
<polygon fill="#191970" stroke="#191970" points="1262.8108,-585.0001 1272.8107,-581.5 1262.8107,-578.0001 1262.8108,-585.0001"/>
</g>
<!-- Node115&#45;&gt;Node106 -->
<g id="edge12" class="edge">
<title>Node115&#45;&gt;Node106</title>
<path fill="none" stroke="#191970" d="M1348.901,-571.8001C1363.1849,-564.3407 1389.0045,-555.9198 1411,-548.5 1419.5136,-545.6281 1428.4564,-542.5774 1437.2879,-539.6236"/>
<polygon fill="#191970" stroke="#191970" points="1438.4113,-542.9386 1446.8018,-536.4695 1436.2084,-536.2942 1438.4113,-542.9386"/>
</g>
<!-- Node115&#45;&gt;Node106 -->
<g id="edge13" class="edge">
<title>Node115&#45;&gt;Node106</title>
<path fill="none" stroke="#191970" d="M1394.6198,-571.9409C1400.1587,-570.1403 1405.6907,-568.291 1411,-566.5 1431.2425,-559.6715 1453.9113,-551.8324 1471.7415,-544.5562"/>
<polygon fill="#191970" stroke="#191970" points="1473.2662,-547.7114 1481.1033,-540.5818 1470.5307,-541.268 1473.2662,-547.7114"/>
</g>
<!-- Node117 -->
<g id="node13" class="node">
<title>Node117</title>
<g id="a_node13"><a xlink:href="classButton.html#af1d30ec3cf56aec6aabbd319e2be8359" target="_top" xlink:title="Button::centerTextLabel">
<polygon fill="none" stroke="#000000" points="374.5,-232 374.5,-251 506.5,-251 506.5,-232 374.5,-232"/>
<text text-anchor="middle" x="440.5" y="-239" font-family="Helvetica,sans-Serif" font-size="10.00" fill="#000000">Button::centerTextLabel</text>
</a>
</g>
</g>
<!-- Node116&#45;&gt;Node117 -->
<g id="edge15" class="edge">
<title>Node116&#45;&gt;Node117</title>
<path fill="none" stroke="#191970" d="M264.7559,-241.5C293.3667,-241.5 331.0692,-241.5 364.2149,-241.5"/>
<polygon fill="#191970" stroke="#191970" points="364.3401,-245.0001 374.3401,-241.5 364.3401,-238.0001 364.3401,-245.0001"/>
</g>
<!-- Node118&#45;&gt;Node106 -->
<g id="edge18" class="edge">
<title>Node118&#45;&gt;Node106</title>
<path fill="none" stroke="#191970" d="M696.0276,-279.5C758.123,-279.5 864.5829,-279.5 956,-279.5 956,-279.5 956,-279.5 1147.5,-279.5 1265.0959,-279.5 1316.2167,-233.8946 1411,-303.5 1475.9411,-351.1903 1495.5367,-453.1225 1501.2493,-500.4261"/>
<polygon fill="#191970" stroke="#191970" points="1497.7775,-500.8753 1502.3464,-510.4343 1504.7358,-500.1125 1497.7775,-500.8753"/>
</g>
<!-- Node119 -->
<g id="node15" class="node">
<title>Node119</title>
<g id="a_node15"><a xlink:href="classMap.html#a482ac34426e8aa66abb46f60ec329402" target="_top" xlink:title="Initialize the Map with node objects Initialize the Map with node objects. ">
<polygon fill="none" stroke="#000000" points="754.5,-226 754.5,-245 833.5,-245 833.5,-226 754.5,-226"/>
<text text-anchor="middle" x="794" y="-233" font-family="Helvetica,sans-Serif" font-size="10.00" fill="#000000">Map::initMap</text>
</a>
</g>
</g>
<!-- Node118&#45;&gt;Node119 -->
<g id="edge19" class="edge">
<title>Node118&#45;&gt;Node119</title>
<path fill="none" stroke="#191970" d="M676.1563,-269.9527C698.2447,-263.4949 727.6338,-254.9028 751.5366,-247.9146"/>
<polygon fill="#191970" stroke="#191970" points="752.7914,-251.1943 761.4075,-245.0287 750.8271,-244.4755 752.7914,-251.1943"/>
</g>
<!-- Node120 -->
<g id="node16" class="node">
<title>Node120</title>
<g id="a_node16"><a xlink:href="classMapLayers.html#a54ce1eeef2a8998a728ac7074efe8787" target="_top" xlink:title="Enable Drawing Layer Enable Drawing Layer (use bitwise OR to add layer) ">
<polygon fill="none" stroke="#000000" points="888.5,-182 888.5,-201 1023.5,-201 1023.5,-182 888.5,-182"/>
<text text-anchor="middle" x="956" y="-189" font-family="Helvetica,sans-Serif" font-size="10.00" fill="#000000">MapLayers::enableLayer</text>
</a>
</g>
</g>
<!-- Node119&#45;&gt;Node120 -->
<g id="edge20" class="edge">
<title>Node119&#45;&gt;Node120</title>
<path fill="none" stroke="#191970" d="M826.9574,-225.9221C843.4573,-221.1818 863.7551,-215.433 882,-210.5 890.4658,-208.2111 899.4947,-205.8371 908.2312,-203.5747"/>
<polygon fill="#191970" stroke="#191970" points="909.1139,-206.9616 917.9251,-201.0782 907.3681,-200.1828 909.1139,-206.9616"/>
</g>
<!-- Node121 -->
<g id="node17" class="node">
<title>Node121</title>
<g id="a_node17"><a xlink:href="classTerrainGenerator.html#adcc251757a1f3a06471a49f17886b8ce" target="_top" xlink:title="TerrainGenerator::generate\lTerrain">
<polygon fill="none" stroke="#000000" points="882,-220.5 882,-250.5 1030,-250.5 1030,-220.5 882,-220.5"/>
<text text-anchor="start" x="890" y="-238.5" font-family="Helvetica,sans-Serif" font-size="10.00" fill="#000000">TerrainGenerator::generate</text>
<text text-anchor="middle" x="956" y="-227.5" font-family="Helvetica,sans-Serif" font-size="10.00" fill="#000000">Terrain</text>
</a>
</g>
</g>
<!-- Node119&#45;&gt;Node121 -->
<g id="edge21" class="edge">
<title>Node119&#45;&gt;Node121</title>
<path fill="none" stroke="#191970" d="M833.6297,-235.5C845.2742,-235.5 858.4781,-235.5 871.7975,-235.5"/>
<polygon fill="#191970" stroke="#191970" points="871.9817,-239.0001 881.9817,-235.5 871.9816,-232.0001 871.9817,-239.0001"/>
</g>
<!-- Node123 -->
<g id="node19" class="node">
<title>Node123</title>
<g id="a_node19"><a xlink:href="classMap.html#a481b37ba71ef0e51e836fc42805762dd" target="_top" xlink:title="Update all mapNodes Updates all mapNode and its adjacent tiles regarding height information, draws slopes for adjacent tiles and sets tiling for mapNode sprite if applicable. ">
<polygon fill="none" stroke="#000000" points="896,-144 896,-163 1016,-163 1016,-144 896,-144"/>
<text text-anchor="middle" x="956" y="-151" font-family="Helvetica,sans-Serif" font-size="10.00" fill="#000000">Map::updateAllNodes</text>
</a>
</g>
</g>
<!-- Node119&#45;&gt;Node123 -->
<g id="edge23" class="edge">
<title>Node119&#45;&gt;Node123</title>
<path fill="none" stroke="#191970" d="M828.3218,-225.9338C834.5054,-223.4002 840.6719,-220.2853 846,-216.5 866.5981,-201.8665 860.7032,-186.0965 882,-172.5 885.3015,-170.3922 888.8261,-168.5179 892.4783,-166.8512"/>
<polygon fill="#191970" stroke="#191970" points="893.7901,-170.0961 901.7652,-163.1213 891.1812,-163.6004 893.7901,-170.0961"/>
</g>
<!-- Node122 -->
<g id="node18" class="node">
<title>Node122</title>
<g id="a_node18"><a xlink:href="classTerrainGenerator.html#ac94cfaeb9dc89453018399361da5174a" target="_top" xlink:title="TerrainGenerator::loadTerrain\lDataFromJSON">
<polygon fill="none" stroke="#000000" points="1068.5,-220.5 1068.5,-250.5 1226.5,-250.5 1226.5,-220.5 1068.5,-220.5"/>
<text text-anchor="start" x="1076.5" y="-238.5" font-family="Helvetica,sans-Serif" font-size="10.00" fill="#000000">TerrainGenerator::loadTerrain</text>
<text text-anchor="middle" x="1147.5" y="-227.5" font-family="Helvetica,sans-Serif" font-size="10.00" fill="#000000">DataFromJSON</text>
</a>
</g>
</g>
<!-- Node121&#45;&gt;Node122 -->
<g id="edge22" class="edge">
<title>Node121&#45;&gt;Node122</title>
<path fill="none" stroke="#191970" d="M1030.0389,-235.5C1039.2368,-235.5 1048.7168,-235.5 1058.1147,-235.5"/>
<polygon fill="#191970" stroke="#191970" points="1058.263,-239.0001 1068.263,-235.5 1058.2629,-232.0001 1058.263,-239.0001"/>
</g>
<!-- Node124 -->
<g id="node20" class="node">
<title>Node124</title>
<g id="a_node20"><a xlink:href="classMap.html#a59d21f2688713fbcfe320eb1b24405ca" target="_top" xlink:title="Update mapNode and its adjacent tiles Updates mapNode height information, draws slopes for adjacent t...">
<polygon fill="none" stroke="#000000" points="1066,-144 1066,-163 1229,-163 1229,-144 1066,-144"/>
<text text-anchor="middle" x="1147.5" y="-151" font-family="Helvetica,sans-Serif" font-size="10.00" fill="#000000">Map::updateNeighborsOfNode</text>
</a>
</g>
</g>
<!-- Node123&#45;&gt;Node124 -->
<g id="edge24" class="edge">
<title>Node123&#45;&gt;Node124</title>
<path fill="none" stroke="#191970" d="M1016.0664,-153.5C1028.6532,-153.5 1042.2,-153.5 1055.6442,-153.5"/>
<polygon fill="#191970" stroke="#191970" points="1055.8876,-157.0001 1065.8876,-153.5 1055.8875,-150.0001 1055.8876,-157.0001"/>
</g>
<!-- Node125 -->
<g id="node21" class="node">
<title>Node125</title>
<g id="a_node21"><a xlink:href="classMap.html#aab37e4a52faf81e9b696b8cf1bd9a690" target="_top" xlink:title="Get neighbor MapNode Objects Stores pointers to the neighboring nodes of the given coordinates in the...">
<polygon fill="none" stroke="#000000" points="1284,-50 1284,-69 1392,-69 1392,-50 1284,-50"/>
<text text-anchor="middle" x="1338" y="-57" font-family="Helvetica,sans-Serif" font-size="10.00" fill="#000000">Map::getNeighbors</text>
</a>
</g>
</g>
<!-- Node124&#45;&gt;Node125 -->
<g id="edge25" class="edge">
<title>Node124&#45;&gt;Node125</title>
<path fill="none" stroke="#191970" d="M1161.4197,-143.8254C1182.8756,-129.2377 1225.6727,-101.4156 1265,-83.5 1274.1965,-79.3105 1284.3421,-75.499 1294.0699,-72.2087"/>
<polygon fill="#191970" stroke="#191970" points="1295.1864,-75.526 1303.6079,-69.0973 1293.0155,-68.8712 1295.1864,-75.526"/>
</g>
<!-- Node126 -->
<g id="node22" class="node">
<title>Node126</title>
<g id="a_node22"><a xlink:href="classMap.html#a0ff55eb041cdf29aa582a21145319ce0" target="_top" xlink:title="Get elevated neighbor positions in a bitmask Checks all neighboring tiles and returns the elevated ne...">
<polygon fill="none" stroke="#000000" points="1265,-.5 1265,-30.5 1411,-30.5 1411,-.5 1265,-.5"/>
<text text-anchor="start" x="1273" y="-18.5" font-family="Helvetica,sans-Serif" font-size="10.00" fill="#000000">Map::getElevatedNeighbor</text>
<text text-anchor="middle" x="1338" y="-7.5" font-family="Helvetica,sans-Serif" font-size="10.00" fill="#000000">Bitmask</text>
</a>
</g>
</g>
<!-- Node124&#45;&gt;Node126 -->
<g id="edge26" class="edge">
<title>Node124&#45;&gt;Node126</title>
<path fill="none" stroke="#191970" d="M1154.9716,-143.8767C1172.1446,-122.3696 1216.6821,-69.9853 1265,-40.5 1268.377,-38.4393 1271.9462,-36.5213 1275.6185,-34.7405"/>
<polygon fill="#191970" stroke="#191970" points="1277.2033,-37.8661 1284.9081,-30.5937 1274.3499,-31.474 1277.2033,-37.8661"/>
</g>
<!-- Node127 -->
<g id="node23" class="node">
<title>Node127</title>
<g id="a_node23"><a xlink:href="classMap.html#a05e7d896dc5062af07c9b838600a068d" target="_top" xlink:title="Demolish a node Invokes the tiles demolish function. ">
<polygon fill="none" stroke="#000000" points="1447,-121 1447,-140 1560,-140 1560,-121 1447,-121"/>
<text text-anchor="middle" x="1503.5" y="-128" font-family="Helvetica,sans-Serif" font-size="10.00" fill="#000000">Map::demolishNode</text>
</a>
</g>
</g>
<!-- Node124&#45;&gt;Node127 -->
<g id="edge27" class="edge">
<title>Node124&#45;&gt;Node127</title>
<path fill="none" stroke="#191970" d="M1164.1389,-143.96C1186.8212,-136.4905 1228.7733,-128.716 1265,-125.5 1322.8372,-120.3655 1388.864,-119.6555 1436.7596,-121.5422"/>
<polygon fill="#191970" stroke="#191970" points="1436.8534,-125.0498 1446.9995,-121.9988 1437.1653,-118.0567 1436.8534,-125.0498"/>
</g>
<!-- Node128 -->
<g id="node24" class="node">
<title>Node128</title>
<g id="a_node24"><a xlink:href="classMap.html#a392940f84796653b8e811ed8dc296c84" target="_top" xlink:title="Get a bitmask that represents same&#45;tile neighbors Checks all neighboring tiles and returns the elevat...">
<polygon fill="none" stroke="#000000" points="1267.5,-182.5 1267.5,-212.5 1408.5,-212.5 1408.5,-182.5 1267.5,-182.5"/>
<text text-anchor="start" x="1275.5" y="-200.5" font-family="Helvetica,sans-Serif" font-size="10.00" fill="#000000">Map::getNeighboringTiles</text>
<text text-anchor="middle" x="1338" y="-189.5" font-family="Helvetica,sans-Serif" font-size="10.00" fill="#000000">Bitmask</text>
</a>
</g>
</g>
<!-- Node124&#45;&gt;Node128 -->
<g id="edge29" class="edge">
<title>Node124&#45;&gt;Node128</title>
<path fill="none" stroke="#191970" d="M1188.8357,-163.0473C1210.4752,-168.0455 1237.6505,-174.3222 1262.8573,-180.1442"/>
<polygon fill="#191970" stroke="#191970" points="1262.2427,-183.5943 1272.7738,-182.4346 1263.818,-176.7739 1262.2427,-183.5943"/>
</g>
<!-- Node129 -->
<g id="node25" class="node">
<title>Node129</title>
<g id="a_node25"><a xlink:href="classMap.html#aba5154a4d917900679a3c0f7ec701561" target="_top" xlink:title="Increase Height Increases the height of the node and checks the surrounding tiles. Either draw a slope sprite or elevate the tile if necessary. ">
<polygon fill="none" stroke="#000000" points="1280,-232 1280,-251 1396,-251 1396,-232 1280,-232"/>
<text text-anchor="middle" x="1338" y="-239" font-family="Helvetica,sans-Serif" font-size="10.00" fill="#000000">Map::increaseHeight</text>
</a>
</g>
</g>
<!-- Node124&#45;&gt;Node129 -->
<g id="edge30" class="edge">
<title>Node124&#45;&gt;Node129</title>
<path fill="none" stroke="#191970" d="M1171.7518,-163.0657C1194.8661,-176.1684 1231.0779,-198.3169 1265,-212.5 1280.8043,-219.1079 1299.4419,-224.1721 1313.9293,-228.7397"/>
<polygon fill="#191970" stroke="#191970" points="1313.0512,-232.1366 1323.645,-231.9929 1315.2738,-225.4988 1313.0512,-232.1366"/>
</g>
<!-- Node130 -->
<g id="node26" class="node">
<title>Node130</title>
<g id="a_node26"><a xlink:href="classMap.html#afb8cc864df90d273a5074872d635dc40" target="_top" xlink:title="Decrease Height Decreases the height of the node and checks the surrounding tiles. Either draw a slope sprite or lower the tile if necessary. ">
<polygon fill="none" stroke="#000000" points="1278.5,-144 1278.5,-163 1397.5,-163 1397.5,-144 1278.5,-144"/>
<text text-anchor="middle" x="1338" y="-151" font-family="Helvetica,sans-Serif" font-size="10.00" fill="#000000">Map::decreaseHeight</text>
</a>
</g>
</g>
<!-- Node124&#45;&gt;Node130 -->
<g id="edge34" class="edge">
<title>Node124&#45;&gt;Node130</title>
<path fill="none" stroke="#191970" d="M1229.1182,-146.8118C1242.1864,-146.6926 1255.6042,-146.7459 1268.36,-146.9717"/>
<polygon fill="#191970" stroke="#191970" points="1268.3552,-150.4723 1278.4287,-147.1898 1268.5069,-143.474 1268.3552,-150.4723"/>
</g>
<!-- Node127&#45;&gt;Node124 -->
<g id="edge28" class="edge">
<title>Node127&#45;&gt;Node124</title>
<path fill="none" stroke="#191970" d="M1446.9995,-136.3415C1398.5976,-137.5751 1327.081,-137.9888 1265,-143.5 1256.6412,-144.242 1247.9777,-145.2268 1239.3163,-146.3226"/>
<polygon fill="#191970" stroke="#191970" points="1238.6286,-142.8827 1229.1681,-147.6521 1239.538,-149.8234 1238.6286,-142.8827"/>
</g>
<!-- Node129&#45;&gt;Node106 -->
<g id="edge31" class="edge">
<title>Node129&#45;&gt;Node106</title>
<path fill="none" stroke="#191970" d="M1387.7811,-251.0671C1396.3145,-254.4995 1404.5082,-259.1632 1411,-265.5 1478.2359,-331.1302 1496.7417,-448.7864 1501.7206,-500.2445"/>
<polygon fill="#191970" stroke="#191970" points="1498.2555,-500.7981 1502.612,-510.4558 1505.229,-500.1893 1498.2555,-500.7981"/>
</g>
<!-- Node129&#45;&gt;Node124 -->
<g id="edge33" class="edge">
<title>Node129&#45;&gt;Node124</title>
<path fill="none" stroke="#191970" d="M1279.7584,-235.9806C1274.71,-234.3156 1269.7282,-232.4769 1265,-230.5 1226.2031,-214.2787 1184.4112,-187.6383 1162.644,-169.9343"/>
<polygon fill="#191970" stroke="#191970" points="1164.6963,-167.0814 1154.8474,-163.1762 1160.1114,-172.3709 1164.6963,-167.0814"/>
</g>
<!-- Node129&#45;&gt;Node127 -->
<g id="edge32" class="edge">
<title>Node129&#45;&gt;Node127</title>
<path fill="none" stroke="#191970" d="M1386.5244,-231.9527C1394.9907,-229.2519 1403.4836,-225.8268 1411,-221.5 1444.1417,-202.4222 1474.0025,-168.6337 1490.3616,-148.0316"/>
<polygon fill="#191970" stroke="#191970" points="1493.1565,-150.1388 1496.5162,-140.0908 1487.6237,-145.8506 1493.1565,-150.1388"/>
</g>
<!-- Node130&#45;&gt;Node124 -->
<g id="edge36" class="edge">
<title>Node130&#45;&gt;Node124</title>
<path fill="none" stroke="#191970" d="M1278.4287,-159.8102C1265.977,-160.1314 1252.5744,-160.2767 1239.2627,-160.246"/>
<polygon fill="#191970" stroke="#191970" points="1239.138,-156.7453 1229.1182,-160.1882 1239.098,-163.7452 1239.138,-156.7453"/>
</g>
<!-- Node130&#45;&gt;Node127 -->
<g id="edge35" class="edge">
<title>Node130&#45;&gt;Node127</title>
<path fill="none" stroke="#191970" d="M1397.7493,-145.1965C1410.3884,-143.44 1423.8051,-141.5754 1436.6864,-139.7853"/>
<polygon fill="#191970" stroke="#191970" points="1437.4541,-143.2123 1446.8771,-138.369 1436.4905,-136.2789 1437.4541,-143.2123"/>
</g>
<!-- Node132 -->
<g id="node28" class="node">
<title>Node132</title>
<g id="a_node28"><a xlink:href="classMap.html#afefe996cc1f62b61ec60d0ae415953bf" target="_top" xlink:title="Map::loadMapFromFile">
<polygon fill="none" stroke="#000000" points="581,-172 581,-191 706,-191 706,-172 581,-172"/>
<text text-anchor="middle" x="643.5" y="-179" font-family="Helvetica,sans-Serif" font-size="10.00" fill="#000000">Map::loadMapFromFile</text>
</a>
</g>
</g>
<!-- Node131&#45;&gt;Node132 -->
<g id="edge38" class="edge">
<title>Node131&#45;&gt;Node132</title>
<path fill="none" stroke="#191970" d="M493.5707,-181.5C517.0083,-181.5 544.9458,-181.5 570.3174,-181.5"/>
<polygon fill="#191970" stroke="#191970" points="570.6397,-185.0001 580.6397,-181.5 570.6397,-178.0001 570.6397,-185.0001"/>
</g>
<!-- Node132&#45;&gt;Node119 -->
<g id="edge41" class="edge">
<title>Node132&#45;&gt;Node119</title>
<path fill="none" stroke="#191970" d="M670.0599,-191.0298C694.4857,-199.7939 730.906,-212.8616 757.9522,-222.5659"/>
<polygon fill="#191970" stroke="#191970" points="756.8584,-225.8919 767.4529,-225.9748 759.2225,-219.3031 756.8584,-225.8919"/>
</g>
<!-- Node132&#45;&gt;Node123 -->
<g id="edge42" class="edge">
<title>Node132&#45;&gt;Node123</title>
<path fill="none" stroke="#191970" d="M660.6293,-171.9112C679.7739,-161.7897 712.0295,-146.4885 742,-140.5 794.8826,-129.9334 856.4523,-135.4912 899.9374,-142.3066"/>
<polygon fill="#191970" stroke="#191970" points="899.5988,-145.7978 910.0334,-143.9624 900.7317,-138.89 899.5988,-145.7978"/>
</g>
<!-- Node133 -->
<g id="node29" class="node">
<title>Node133</title>
<g id="a_node29"><a xlink:href="compression_8hxx.html#a25f341059256700f2f3ffd62d8113956" target="_top" xlink:title="decompresses given string Decompresses a given string. ">
<polygon fill="none" stroke="#000000" points="742,-188 742,-207 846,-207 846,-188 742,-188"/>
<text text-anchor="middle" x="794" y="-195" font-family="Helvetica,sans-Serif" font-size="10.00" fill="#000000">decompressString</text>
</a>
</g>
</g>
<!-- Node132&#45;&gt;Node133 -->
<g id="edge39" class="edge">
<title>Node132&#45;&gt;Node133</title>
<path fill="none" stroke="#191970" d="M706.0181,-188.1464C714.5157,-189.0498 723.2363,-189.977 731.7295,-190.8799"/>
<polygon fill="#191970" stroke="#191970" points="731.6323,-194.3892 741.9463,-191.966 732.3724,-187.4284 731.6323,-194.3892"/>
</g>
<!-- Node134 -->
<g id="node30" class="node">
<title>Node134</title>
<g id="a_node30"><a xlink:href="classMap.html#a1197ab65e40dd20b891ba165471e3163" target="_top" xlink:title="Map::Map">
<polygon fill="none" stroke="#000000" points="762.5,-150 762.5,-169 825.5,-169 825.5,-150 762.5,-150"/>
<text text-anchor="middle" x="794" y="-157" font-family="Helvetica,sans-Serif" font-size="10.00" fill="#000000">Map::Map</text>
</a>
</g>
</g>
<!-- Node132&#45;&gt;Node134 -->
<g id="edge40" class="edge">
<title>Node132&#45;&gt;Node134</title>
<path fill="none" stroke="#191970" d="M706.0181,-172.3611C721.6151,-170.0812 737.9636,-167.6914 752.2777,-165.5989"/>
<polygon fill="#191970" stroke="#191970" points="752.9126,-169.0434 762.3012,-164.1337 751.9,-162.117 752.9126,-169.0434"/>
</g>
<!-- Node135&#45;&gt;Node131 -->
<g id="edge44" class="edge">
<title>Node135&#45;&gt;Node131</title>
<path fill="none" stroke="#191970" d="M271.5941,-198.3142C303.166,-195.1713 343.6649,-191.1397 377.0915,-187.8122"/>
<polygon fill="#191970" stroke="#191970" points="377.6164,-191.2773 387.2205,-186.8038 376.923,-184.3117 377.6164,-191.2773"/>
</g>
</g>
</svg>
        <g id="navigator" transform="translate(0 0)" fill="#404254">
                <rect fill="#f2f5e9" fill-opacity="0.5" stroke="#606060" stroke-width=".5" x="0" y="0" width="60" height="60"/>
                <use id="zoomplus" xlink:href="#zoomPlus" x="17" y="9" onmousedown="handleZoom(evt,'in')"/>
                <use id="zoomminus" xlink:href="#zoomMin" x="42" y="9" onmousedown="handleZoom(evt,'out')"/>
                <use id="reset" xlink:href="#resetDef" x="30" y="36" onmousedown="handleReset()"/>
                <g id="arrowUp" xlink:href="#dirArrow" transform="translate(30 24)" onmousedown="handlePan(0,-1)">
                  <use xlink:href="#rim" fill="#404040">
                        <set attributeName="fill" to="#808080" begin="arrowUp.mouseover" end="arrowUp.mouseout"/>
                  </use>
                  <path fill="none" stroke="white" stroke-width="1.5" d="M0,-3.0v7 M-2.5,-0.5L0,-3.0L2.5,-0.5"/>
                </g>
                <g id="arrowRight" xlink:href="#dirArrow" transform="rotate(90) translate(36 -43)" onmousedown="handlePan(1,0)">
                  <use xlink:href="#rim" fill="#404040">
                        <set attributeName="fill" to="#808080" begin="arrowRight.mouseover" end="arrowRight.mouseout"/>
                  </use>
                  <path fill="none" stroke="white" stroke-width="1.5" d="M0,-3.0v7 M-2.5,-0.5L0,-3.0L2.5,-0.5"/>
                </g>
                <g id="arrowDown" xlink:href="#dirArrow" transform="rotate(180) translate(-30 -48)" onmousedown="handlePan(0,1)">
                  <use xlink:href="#rim" fill="#404040">
                        <set attributeName="fill" to="#808080" begin="arrowDown.mouseover" end="arrowDown.mouseout"/>
                  </use>
                  <path fill="none" stroke="white" stroke-width="1.5" d="M0,-3.0v7 M-2.5,-0.5L0,-3.0L2.5,-0.5"/>
                </g>
                <g id="arrowLeft" xlink:href="#dirArrow" transform="rotate(270) translate(-36 17)" onmousedown="handlePan(-1,0)">
                  <use xlink:href="#rim" fill="#404040">
                        <set attributeName="fill" to="#808080" begin="arrowLeft.mouseover" end="arrowLeft.mouseout"/>
                  </use>
                  <path fill="none" stroke="white" stroke-width="1.5" d="M0,-3.0v7 M-2.5,-0.5L0,-3.0L2.5,-0.5"/>
                </g>
        </g>
        <svg viewBox="0 0 15 15" width="100%" height="30px" preserveAspectRatio="xMaxYMin meet">
         <g id="arrow_out" transform="scale(0.3 0.3)">
          <a xlink:href="classGame_a5ed7fc5be77080f7f6dd5363f7f007a1_cgraph_org.svg" target="_base">
           <rect id="button" ry="5" rx="5" y="6" x="6" height="38" width="38"
                fill="#f2f5e9" fill-opacity="0.5" stroke="#606060" stroke-width="1.0"/>
           <path id="arrow"
             d="M 11.500037,31.436501 C 11.940474,20.09759 22.043105,11.32322 32.158766,21.979434 L 37.068811,17.246167 C 37.068811,17.246167 37.088388,32 37.088388,32 L 22.160133,31.978069 C 22.160133,31.978069 26.997745,27.140456 26.997745,27.140456 C 18.528582,18.264221 13.291696,25.230495 11.500037,31.436501 z"
             style="fill:#404040;"/>
          </a>
         </g>
        </svg>
</svg>
