<?xml version="1.0" encoding="UTF-8" standalone="no"?>
<!DOCTYPE svg PUBLIC "-//W3C//DTD SVG 1.1//EN"
 "http://www.w3.org/Graphics/SVG/1.1/DTD/svg11.dtd">
<!-- Generated by graphviz version 2.40.1 (20161225.0304)
 -->
<!-- Title: Map::saveMapToFile Pages: 1 -->
<svg width="994pt" height="85pt"
 viewBox="0.00 0.00 994.00 85.00" xmlns="http://www.w3.org/2000/svg" xmlns:xlink="http://www.w3.org/1999/xlink">
<g id="graph0" class="graph" transform="scale(1 1) rotate(0) translate(4 81)">
<title>Map::saveMapToFile</title>
<!-- Node331 -->
<g id="node1" class="node">
<title>Node331</title>
<polygon fill="#bfbfbf" stroke="#000000" points="0,-38.5 0,-57.5 113,-57.5 113,-38.5 0,-38.5"/>
<text text-anchor="middle" x="56.5" y="-45.5" font-family="Helvetica,sans-Serif" font-size="10.00" fill="#000000">Map::saveMapToFile</text>
</g>
<!-- Node332 -->
<g id="node2" class="node">
<title>Node332</title>
<g id="a_node2"><a xlink:href="classEngine.html#af7de8d74b0cfacaf06df53e7caf11538" target="_top" xlink:title="Engine::saveGame">
<polygon fill="none" stroke="#000000" points="156.5,-57.5 156.5,-76.5 264.5,-76.5 264.5,-57.5 156.5,-57.5"/>
<text text-anchor="middle" x="210.5" y="-64.5" font-family="Helvetica,sans-Serif" font-size="10.00" fill="#000000">Engine::saveGame</text>
</a>
</g>
</g>
<!-- Node331&#45;&gt;Node332 -->
<g id="edge1" class="edge">
<title>Node331&#45;&gt;Node332</title>
<path fill="none" stroke="#191970" d="M123.4182,-56.2561C134.4346,-57.6153 145.7311,-59.009 156.3847,-60.3234"/>
<polygon fill="#191970" stroke="#191970" points="123.7597,-52.7718 113.4064,-55.0209 122.9025,-59.7191 123.7597,-52.7718"/>
</g>
<!-- Node334 -->
<g id="node4" class="node">
<title>Node334</title>
<g id="a_node4"><a xlink:href="classMap.html#a779c939483a52b32a3959b99af95e67a" target="_top" xlink:title="Set the Tile ID Of Node object Also invokes all necessary texture updates (auto&#45;tiling, slopes, ...) ">
<polygon fill="none" stroke="#000000" points="149,-19.5 149,-38.5 272,-38.5 272,-19.5 149,-19.5"/>
<text text-anchor="middle" x="210.5" y="-26.5" font-family="Helvetica,sans-Serif" font-size="10.00" fill="#000000">Map::setTileIDOfNode</text>
</a>
</g>
</g>
<!-- Node331&#45;&gt;Node334 -->
<g id="edge3" class="edge">
<title>Node331&#45;&gt;Node334</title>
<path fill="none" stroke="#191970" d="M123.5725,-39.7248C131.9951,-38.6857 140.5788,-37.6266 148.9115,-36.5986"/>
<polygon fill="#191970" stroke="#191970" points="122.9025,-36.2809 113.4064,-40.9791 123.7597,-43.2282 122.9025,-36.2809"/>
</g>
<!-- Node333 -->
<g id="node3" class="node">
<title>Node333</title>
<g id="a_node3"><a xlink:href="classUIManager.html#aa78e356fc3b356d790c848319d1c387e" target="_top" xlink:title="UIManager::setCallbackFunctions">
<polygon fill="none" stroke="#000000" points="308,-57.5 308,-76.5 486,-76.5 486,-57.5 308,-57.5"/>
<text text-anchor="middle" x="397" y="-64.5" font-family="Helvetica,sans-Serif" font-size="10.00" fill="#000000">UIManager::setCallbackFunctions</text>
</a>
</g>
</g>
<!-- Node332&#45;&gt;Node333 -->
<g id="edge2" class="edge">
<title>Node332&#45;&gt;Node333</title>
<path fill="none" stroke="#191970" d="M274.755,-67C285.4513,-67 296.7128,-67 307.8947,-67"/>
<polygon fill="#191970" stroke="#191970" points="274.6941,-63.5001 264.694,-67 274.694,-70.5001 274.6941,-63.5001"/>
</g>
<!-- Node335 -->
<g id="node5" class="node">
<title>Node335</title>
<g id="a_node5"><a xlink:href="classEngine.html#a8a53c5e52734a5158b317851361b83f2" target="_top" xlink:title="Engine::setTileIDOfNode">
<polygon fill="none" stroke="#000000" points="329,-19.5 329,-38.5 465,-38.5 465,-19.5 329,-19.5"/>
<text text-anchor="middle" x="397" y="-26.5" font-family="Helvetica,sans-Serif" font-size="10.00" fill="#000000">Engine::setTileIDOfNode</text>
</a>
</g>
</g>
<!-- Node334&#45;&gt;Node335 -->
<g id="edge4" class="edge">
<title>Node334&#45;&gt;Node335</title>
<path fill="none" stroke="#191970" d="M282.4595,-29C297.6613,-29 313.6606,-29 328.7217,-29"/>
<polygon fill="#191970" stroke="#191970" points="282.084,-25.5001 272.0839,-29 282.0839,-32.5001 282.084,-25.5001"/>
</g>
<!-- Node336 -->
<g id="node6" class="node">
<title>Node336</title>
<g id="a_node6"><a xlink:href="classEventManager.html#a65ec91fd5016d4f9c4167fb8babed2df" target="_top" xlink:title="EventManager::checkEvents">
<polygon fill="none" stroke="#000000" points="522,-19.5 522,-38.5 676,-38.5 676,-19.5 522,-19.5"/>
<text text-anchor="middle" x="599" y="-26.5" font-family="Helvetica,sans-Serif" font-size="10.00" fill="#000000">EventManager::checkEvents</text>
</a>
</g>
</g>
<!-- Node335&#45;&gt;Node336 -->
<g id="edge5" class="edge">
<title>Node335&#45;&gt;Node336</title>
<path fill="none" stroke="#191970" d="M475.501,-29C490.7072,-29 506.6301,-29 521.7943,-29"/>
<polygon fill="#191970" stroke="#191970" points="475.1064,-25.5001 465.1064,-29 475.1063,-32.5001 475.1064,-25.5001"/>
</g>
<!-- Node337 -->
<g id="node7" class="node">
<title>Node337</title>
<g id="a_node7"><a xlink:href="classGame.html#a1c2ab25d5216b2f4b2fe41efd2c09114" target="_top" xlink:title="begins the game starts running the game ">
<polygon fill="none" stroke="#000000" points="712,-19.5 712,-38.5 780,-38.5 780,-19.5 712,-19.5"/>
<text text-anchor="middle" x="746" y="-26.5" font-family="Helvetica,sans-Serif" font-size="10.00" fill="#000000">Game::run</text>
</a>
</g>
</g>
<!-- Node336&#45;&gt;Node337 -->
<g id="edge6" class="edge">
<title>Node336&#45;&gt;Node337</title>
<path fill="none" stroke="#191970" d="M686.5248,-29C695.4338,-29 704.0572,-29 711.845,-29"/>
<polygon fill="#191970" stroke="#191970" points="686.3744,-25.5001 676.3744,-29 686.3743,-32.5001 686.3744,-25.5001"/>
</g>
<!-- Node338 -->
<g id="node8" class="node">
<title>Node338</title>
<g id="a_node8"><a xlink:href="classGame.html#ad59df6562a58a614fda24622d3715b65" target="_top" xlink:title="Game::Game">
<polygon fill="none" stroke="#000000" points="822,-38.5 822,-57.5 903,-57.5 903,-38.5 822,-38.5"/>
<text text-anchor="middle" x="862.5" y="-45.5" font-family="Helvetica,sans-Serif" font-size="10.00" fill="#000000">Game::Game</text>
</a>
</g>
</g>
<!-- Node337&#45;&gt;Node338 -->
<g id="edge7" class="edge">
<title>Node337&#45;&gt;Node338</title>
<path fill="none" stroke="#191970" d="M790.0985,-36.192C800.4513,-37.8805 811.439,-39.6725 821.6427,-41.3366"/>
<polygon fill="#191970" stroke="#191970" points="790.4428,-32.702 780.0098,-34.5467 789.316,-39.6107 790.4428,-32.702"/>
</g>
<!-- Node339 -->
<g id="node9" class="node">
<title>Node339</title>
<g id="a_node9"><a xlink:href="main_8cxx.html#af582d708d899e67ead623eac34a22387" target="_top" xlink:title="protected_main">
<polygon fill="none" stroke="#000000" points="816,-.5 816,-19.5 909,-19.5 909,-.5 816,-.5"/>
<text text-anchor="middle" x="862.5" y="-7.5" font-family="Helvetica,sans-Serif" font-size="10.00" fill="#000000">protected_main</text>
</a>
</g>
</g>
<!-- Node337&#45;&gt;Node339 -->
<g id="edge8" class="edge">
<title>Node337&#45;&gt;Node339</title>
<path fill="none" stroke="#191970" d="M789.9884,-21.8259C798.382,-20.457 807.1965,-19.0195 815.6749,-17.6367"/>
<polygon fill="#191970" stroke="#191970" points="789.316,-18.3893 780.0098,-23.4533 790.4428,-25.298 789.316,-18.3893"/>
</g>
<!-- Node340 -->
<g id="node10" class="node">
<title>Node340</title>
<g id="a_node10"><a xlink:href="main_8cxx.html#a3c04138a5bfe5d72780bb7e82a18e627" target="_top" xlink:title="main">
<polygon fill="none" stroke="#000000" points="945,-.5 945,-19.5 986,-19.5 986,-.5 945,-.5"/>
<text text-anchor="middle" x="965.5" y="-7.5" font-family="Helvetica,sans-Serif" font-size="10.00" fill="#000000">main</text>
</a>
</g>
</g>
<!-- Node339&#45;&gt;Node340 -->
<g id="edge9" class="edge">
<title>Node339&#45;&gt;Node340</title>
<path fill="none" stroke="#191970" d="M919.2133,-10C928.4322,-10 937.4259,-10 944.9965,-10"/>
<polygon fill="#191970" stroke="#191970" points="919.1782,-6.5001 909.1782,-10 919.1781,-13.5001 919.1782,-6.5001"/>
</g>
</g>
</svg>
