<?xml version="1.0" encoding="UTF-8" standalone="no"?>
<!DOCTYPE svg PUBLIC "-//W3C//DTD SVG 1.1//EN"
 "http://www.w3.org/Graphics/SVG/1.1/DTD/svg11.dtd">
<!-- Generated by graphviz version 2.40.1 (20161225.0304)
 -->
<!-- Title: Camera::setPinchDistance Pages: 1 -->
<svg width="653pt" height="66pt"
 viewBox="0.00 0.00 653.00 66.00" xmlns="http://www.w3.org/2000/svg" xmlns:xlink="http://www.w3.org/1999/xlink">
<g id="graph0" class="graph" transform="scale(1 1) rotate(0) translate(4 62)">
<title>Camera::setPinchDistance</title>
<!-- Node64 -->
<g id="node1" class="node">
<title>Node64</title>
<polygon fill="#bfbfbf" stroke="#000000" points="0,-19.5 0,-38.5 145,-38.5 145,-19.5 0,-19.5"/>
<text text-anchor="middle" x="72.5" y="-26.5" font-family="Helvetica,sans-Serif" font-size="10.00" fill="#000000">Camera::setPinchDistance</text>
</g>
<!-- Node65 -->
<g id="node2" class="node">
<title>Node65</title>
<g id="a_node2"><a xlink:href="classEventManager.html#a65ec91fd5016d4f9c4167fb8babed2df" target="_top" xlink:title="EventManager::checkEvents">
<polygon fill="none" stroke="#000000" points="181,-19.5 181,-38.5 335,-38.5 335,-19.5 181,-19.5"/>
<text text-anchor="middle" x="258" y="-26.5" font-family="Helvetica,sans-Serif" font-size="10.00" fill="#000000">EventManager::checkEvents</text>
</a>
</g>
</g>
<!-- Node64&#45;&gt;Node65 -->
<g id="edge1" class="edge">
<title>Node64&#45;&gt;Node65</title>
<path fill="none" stroke="#191970" d="M155.0525,-29C163.6638,-29 172.3938,-29 180.9407,-29"/>
<polygon fill="#191970" stroke="#191970" points="155.0162,-25.5001 145.0161,-29 155.0161,-32.5001 155.0162,-25.5001"/>
</g>
<!-- Node66 -->
<g id="node3" class="node">
<title>Node66</title>
<g id="a_node3"><a xlink:href="classGame.html#a1c2ab25d5216b2f4b2fe41efd2c09114" target="_top" xlink:title="begins the game starts running the game ">
<polygon fill="none" stroke="#000000" points="371,-19.5 371,-38.5 439,-38.5 439,-19.5 371,-19.5"/>
<text text-anchor="middle" x="405" y="-26.5" font-family="Helvetica,sans-Serif" font-size="10.00" fill="#000000">Game::run</text>
</a>
</g>
</g>
<!-- Node65&#45;&gt;Node66 -->
<g id="edge2" class="edge">
<title>Node65&#45;&gt;Node66</title>
<path fill="none" stroke="#191970" d="M345.5248,-29C354.4338,-29 363.0572,-29 370.845,-29"/>
<polygon fill="#191970" stroke="#191970" points="345.3744,-25.5001 335.3744,-29 345.3743,-32.5001 345.3744,-25.5001"/>
</g>
<!-- Node67 -->
<g id="node4" class="node">
<title>Node67</title>
<g id="a_node4"><a xlink:href="classGame.html#ad59df6562a58a614fda24622d3715b65" target="_top" xlink:title="Game::Game">
<polygon fill="none" stroke="#000000" points="481,-38.5 481,-57.5 562,-57.5 562,-38.5 481,-38.5"/>
<text text-anchor="middle" x="521.5" y="-45.5" font-family="Helvetica,sans-Serif" font-size="10.00" fill="#000000">Game::Game</text>
</a>
</g>
</g>
<!-- Node66&#45;&gt;Node67 -->
<g id="edge3" class="edge">
<title>Node66&#45;&gt;Node67</title>
<path fill="none" stroke="#191970" d="M449.0985,-36.192C459.4513,-37.8805 470.439,-39.6725 480.6427,-41.3366"/>
<polygon fill="#191970" stroke="#191970" points="449.4428,-32.702 439.0098,-34.5467 448.316,-39.6107 449.4428,-32.702"/>
</g>
<!-- Node68 -->
<g id="node5" class="node">
<title>Node68</title>
<g id="a_node5"><a xlink:href="main_8cxx.html#af582d708d899e67ead623eac34a22387" target="_top" xlink:title="protected_main">
<polygon fill="none" stroke="#000000" points="475,-.5 475,-19.5 568,-19.5 568,-.5 475,-.5"/>
<text text-anchor="middle" x="521.5" y="-7.5" font-family="Helvetica,sans-Serif" font-size="10.00" fill="#000000">protected_main</text>
</a>
</g>
</g>
<!-- Node66&#45;&gt;Node68 -->
<g id="edge4" class="edge">
<title>Node66&#45;&gt;Node68</title>
<path fill="none" stroke="#191970" d="M448.9884,-21.8259C457.382,-20.457 466.1965,-19.0195 474.6749,-17.6367"/>
<polygon fill="#191970" stroke="#191970" points="448.316,-18.3893 439.0098,-23.4533 449.4428,-25.298 448.316,-18.3893"/>
</g>
<!-- Node69 -->
<g id="node6" class="node">
<title>Node69</title>
<g id="a_node6"><a xlink:href="main_8cxx.html#a3c04138a5bfe5d72780bb7e82a18e627" target="_top" xlink:title="main">
<polygon fill="none" stroke="#000000" points="604,-.5 604,-19.5 645,-19.5 645,-.5 604,-.5"/>
<text text-anchor="middle" x="624.5" y="-7.5" font-family="Helvetica,sans-Serif" font-size="10.00" fill="#000000">main</text>
</a>
</g>
</g>
<!-- Node68&#45;&gt;Node69 -->
<g id="edge5" class="edge">
<title>Node68&#45;&gt;Node69</title>
<path fill="none" stroke="#191970" d="M578.2133,-10C587.4322,-10 596.4259,-10 603.9965,-10"/>
<polygon fill="#191970" stroke="#191970" points="578.1782,-6.5001 568.1782,-10 578.1781,-13.5001 578.1782,-6.5001"/>
</g>
</g>
</svg>
