<?xml version="1.0" encoding="UTF-8" standalone="no"?>
<!DOCTYPE svg PUBLIC "-//W3C//DTD SVG 1.1//EN"
 "http://www.w3.org/Graphics/SVG/1.1/DTD/svg11.dtd">
<!-- Generated by graphviz version 2.40.1 (20161225.0304)
 -->
<!-- Title: UIManager::toggleDebugMenu Pages: 1 -->
<svg width="672pt" height="66pt"
 viewBox="0.00 0.00 672.00 66.00" xmlns="http://www.w3.org/2000/svg" xmlns:xlink="http://www.w3.org/1999/xlink">
<g id="graph0" class="graph" transform="scale(1 1) rotate(0) translate(4 62)">
<title>UIManager::toggleDebugMenu</title>
<!-- Node254 -->
<g id="node1" class="node">
<title>Node254</title>
<polygon fill="#bfbfbf" stroke="#000000" points="0,-19.5 0,-38.5 164,-38.5 164,-19.5 0,-19.5"/>
<text text-anchor="middle" x="82" y="-26.5" font-family="Helvetica,sans-Serif" font-size="10.00" fill="#000000">UIManager::toggleDebugMenu</text>
</g>
<!-- Node255 -->
<g id="node2" class="node">
<title>Node255</title>
<g id="a_node2"><a xlink:href="classEventManager.html#a65ec91fd5016d4f9c4167fb8babed2df" target="_top" xlink:title="EventManager::checkEvents">
<polygon fill="none" stroke="#000000" points="200,-19.5 200,-38.5 354,-38.5 354,-19.5 200,-19.5"/>
<text text-anchor="middle" x="277" y="-26.5" font-family="Helvetica,sans-Serif" font-size="10.00" fill="#000000">EventManager::checkEvents</text>
</a>
</g>
</g>
<!-- Node254&#45;&gt;Node255 -->
<g id="edge1" class="edge">
<title>Node254&#45;&gt;Node255</title>
<path fill="none" stroke="#191970" d="M174.2019,-29C182.8151,-29 191.4836,-29 199.9374,-29"/>
<polygon fill="#191970" stroke="#191970" points="174.1324,-25.5001 164.1324,-29 174.1324,-32.5001 174.1324,-25.5001"/>
</g>
<!-- Node256 -->
<g id="node3" class="node">
<title>Node256</title>
<g id="a_node3"><a xlink:href="classGame.html#a1c2ab25d5216b2f4b2fe41efd2c09114" target="_top" xlink:title="begins the game starts running the game ">
<polygon fill="none" stroke="#000000" points="390,-19.5 390,-38.5 458,-38.5 458,-19.5 390,-19.5"/>
<text text-anchor="middle" x="424" y="-26.5" font-family="Helvetica,sans-Serif" font-size="10.00" fill="#000000">Game::run</text>
</a>
</g>
</g>
<!-- Node255&#45;&gt;Node256 -->
<g id="edge2" class="edge">
<title>Node255&#45;&gt;Node256</title>
<path fill="none" stroke="#191970" d="M364.5248,-29C373.4338,-29 382.0572,-29 389.845,-29"/>
<polygon fill="#191970" stroke="#191970" points="364.3744,-25.5001 354.3744,-29 364.3743,-32.5001 364.3744,-25.5001"/>
</g>
<!-- Node257 -->
<g id="node4" class="node">
<title>Node257</title>
<g id="a_node4"><a xlink:href="classGame.html#ad59df6562a58a614fda24622d3715b65" target="_top" xlink:title="Game::Game">
<polygon fill="none" stroke="#000000" points="500,-38.5 500,-57.5 581,-57.5 581,-38.5 500,-38.5"/>
<text text-anchor="middle" x="540.5" y="-45.5" font-family="Helvetica,sans-Serif" font-size="10.00" fill="#000000">Game::Game</text>
</a>
</g>
</g>
<!-- Node256&#45;&gt;Node257 -->
<g id="edge3" class="edge">
<title>Node256&#45;&gt;Node257</title>
<path fill="none" stroke="#191970" d="M468.0985,-36.192C478.4513,-37.8805 489.439,-39.6725 499.6427,-41.3366"/>
<polygon fill="#191970" stroke="#191970" points="468.4428,-32.702 458.0098,-34.5467 467.316,-39.6107 468.4428,-32.702"/>
</g>
<!-- Node258 -->
<g id="node5" class="node">
<title>Node258</title>
<g id="a_node5"><a xlink:href="main_8cxx.html#af582d708d899e67ead623eac34a22387" target="_top" xlink:title="protected_main">
<polygon fill="none" stroke="#000000" points="494,-.5 494,-19.5 587,-19.5 587,-.5 494,-.5"/>
<text text-anchor="middle" x="540.5" y="-7.5" font-family="Helvetica,sans-Serif" font-size="10.00" fill="#000000">protected_main</text>
</a>
</g>
</g>
<!-- Node256&#45;&gt;Node258 -->
<g id="edge4" class="edge">
<title>Node256&#45;&gt;Node258</title>
<path fill="none" stroke="#191970" d="M467.9884,-21.8259C476.382,-20.457 485.1965,-19.0195 493.6749,-17.6367"/>
<polygon fill="#191970" stroke="#191970" points="467.316,-18.3893 458.0098,-23.4533 468.4428,-25.298 467.316,-18.3893"/>
</g>
<!-- Node259 -->
<g id="node6" class="node">
<title>Node259</title>
<g id="a_node6"><a xlink:href="main_8cxx.html#a3c04138a5bfe5d72780bb7e82a18e627" target="_top" xlink:title="main">
<polygon fill="none" stroke="#000000" points="623,-.5 623,-19.5 664,-19.5 664,-.5 623,-.5"/>
<text text-anchor="middle" x="643.5" y="-7.5" font-family="Helvetica,sans-Serif" font-size="10.00" fill="#000000">main</text>
</a>
</g>
</g>
<!-- Node258&#45;&gt;Node259 -->
<g id="edge5" class="edge">
<title>Node258&#45;&gt;Node259</title>
<path fill="none" stroke="#191970" d="M597.2133,-10C606.4322,-10 615.4259,-10 622.9965,-10"/>
<polygon fill="#191970" stroke="#191970" points="597.1782,-6.5001 587.1782,-10 597.1781,-13.5001 597.1782,-6.5001"/>
</g>
</g>
</svg>
