<?xml version="1.0" encoding="UTF-8" standalone="no"?>
<!DOCTYPE svg PUBLIC "-//W3C//DTD SVG 1.1//EN"
 "http://www.w3.org/Graphics/SVG/1.1/DTD/svg11.dtd">
<!-- Generated by graphviz version 2.40.1 (20161225.0304)
 -->
<!-- Title: Map::increaseHeight Pages: 1 -->
<!--zoomable 165 -->
<svg id="main" version="1.1" xmlns="http://www.w3.org/2000/svg" xmlns:xlink="http://www.w3.org/1999/xlink" xml:space="preserve" onload="init(evt)">
<style type="text/css"><![CDATA[
.edge:hover path { stroke: red; }
.edge:hover polygon { stroke: red; fill: red; }
]]></style>
<script type="text/javascript"><![CDATA[
var edges = document.getElementsByTagName('g');
if (edges && edges.length) {
  for (var i=0;i<edges.length;i++) {
    if (edges[i].id.substr(0,4)=='edge') {
      edges[i].setAttribute('class','edge');
    }
  }
}
]]></script>
        <defs>
                <circle id="rim" cx="0" cy="0" r="7"/>
                <circle id="rim2" cx="0" cy="0" r="3.5"/>
                <g id="zoomPlus">
                        <use xlink:href="#rim" fill="#404040">
                                <set attributeName="fill" to="#808080" begin="zoomplus.mouseover" end="zoomplus.mouseout"/>
                        </use>
                        <path d="M-4,0h8M0,-4v8" fill="none" stroke="white" stroke-width="1.5" pointer-events="none"/>
                </g>
                <g id="zoomMin">
                        <use xlink:href="#rim" fill="#404040">
                                <set attributeName="fill" to="#808080" begin="zoomminus.mouseover" end="zoomminus.mouseout"/>
                        </use>
                        <path d="M-4,0h8" fill="none" stroke="white" stroke-width="1.5" pointer-events="none"/>
                </g>
                <g id="dirArrow">
                        <path fill="none" stroke="white" stroke-width="1.5" d="M0,-3.0v7 M-2.5,-0.5L0,-3.0L2.5,-0.5"/>
                </g>
               <g id="resetDef">
                       <use xlink:href="#rim2" fill="#404040">
                               <set attributeName="fill" to="#808080" begin="reset.mouseover" end="reset.mouseout"/>
                       </use>
               </g>
        </defs>

<script type="text/javascript">
var viewWidth = 654;
var viewHeight = 165;
var sectionId = 'dynsection-16';
</script>
<script xlink:href="svgpan.js"/>
<svg id="graph" class="graph">
<g id="viewport">
<title>Map::increaseHeight</title>
<!-- Node207 -->
<g id="node1" class="node">
<title>Node207</title>
<polygon fill="#bfbfbf" stroke="#000000" points="0,-47.5 0,-66.5 116,-66.5 116,-47.5 0,-47.5"/>
<text text-anchor="middle" x="58" y="-54.5" font-family="Helvetica,sans-Serif" font-size="10.00" fill="#000000">Map::increaseHeight</text>
</g>
<!-- Node208 -->
<g id="node2" class="node">
<title>Node208</title>
<g id="a_node2"><a xlink:href="classSingleton.html#af5cb1e5749949e2b68416cfb8d378044" target="_top" xlink:title="Get an instance of the singleton. ">
<polygon fill="none" stroke="#000000" points="152,-95 152,-125 265,-125 265,-95 152,-95"/>
<text text-anchor="start" x="160" y="-113" font-family="Helvetica,sans-Serif" font-size="10.00" fill="#000000">Singleton&lt; Settings</text>
<text text-anchor="middle" x="208.5" y="-102" font-family="Helvetica,sans-Serif" font-size="10.00" fill="#000000"> &gt;::instance</text>
</a>
</g>
</g>
<!-- Node207&#45;&gt;Node208 -->
<g id="edge1" class="edge">
<title>Node207&#45;&gt;Node208</title>
<path fill="none" stroke="#191970" d="M85.2544,-66.5979C104.9835,-73.5457 132.267,-83.1538 156.1491,-91.5641"/>
<polygon fill="#191970" stroke="#191970" points="155.2033,-94.9417 165.7981,-94.9621 157.5285,-88.3391 155.2033,-94.9417"/>
</g>
<!-- Node209 -->
<g id="node3" class="node">
<title>Node209</title>
<g id="a_node3"><a xlink:href="classMap.html#a05e7d896dc5062af07c9b838600a068d" target="_top" xlink:title="Demolish a node Invokes the tiles demolish function. ">
<polygon fill="none" stroke="#000000" points="152,-.5 152,-19.5 265,-19.5 265,-.5 152,-.5"/>
<text text-anchor="middle" x="208.5" y="-7.5" font-family="Helvetica,sans-Serif" font-size="10.00" fill="#000000">Map::demolishNode</text>
</a>
</g>
</g>
<!-- Node207&#45;&gt;Node209 -->
<g id="edge2" class="edge">
<title>Node207&#45;&gt;Node209</title>
<path fill="none" stroke="#191970" d="M88.4559,-47.4888C111.4313,-40.3138 143.1659,-30.4034 168.2361,-22.5741"/>
<polygon fill="#191970" stroke="#191970" points="169.3294,-25.8994 177.8315,-19.5776 167.2427,-19.2177 169.3294,-25.8994"/>
</g>
<!-- Node210 -->
<g id="node4" class="node">
<title>Node210</title>
<g id="a_node4"><a xlink:href="classMap.html#a59d21f2688713fbcfe320eb1b24405ca" target="_top" xlink:title="Update mapNode and its adjacent tiles Updates mapNode height information, draws slopes for adjacent t...">
<polygon fill="none" stroke="#000000" points="301,-44.5 301,-63.5 464,-63.5 464,-44.5 301,-44.5"/>
<text text-anchor="middle" x="382.5" y="-51.5" font-family="Helvetica,sans-Serif" font-size="10.00" fill="#000000">Map::updateNeighborsOfNode</text>
</a>
</g>
</g>
<!-- Node207&#45;&gt;Node210 -->
<g id="edge12" class="edge">
<title>Node207&#45;&gt;Node210</title>
<path fill="none" stroke="#191970" d="M116.0141,-51.1478C164.4963,-49.1255 234.5119,-48.1999 290.61,-48.6986"/>
<polygon fill="#191970" stroke="#191970" points="290.8777,-52.2016 300.9144,-48.8084 290.9523,-45.202 290.8777,-52.2016"/>
</g>
<!-- Node209&#45;&gt;Node210 -->
<g id="edge3" class="edge">
<title>Node209&#45;&gt;Node210</title>
<path fill="none" stroke="#191970" d="M265.4741,-18.028C294.6133,-24.649 328.8745,-33.6956 352.7675,-41.2507"/>
<polygon fill="#191970" stroke="#191970" points="351.7347,-44.5954 362.3274,-44.3859 353.9161,-37.9439 351.7347,-44.5954"/>
</g>
<!-- Node210&#45;&gt;Node207 -->
<g id="edge8" class="edge">
<title>Node210&#45;&gt;Node207</title>
<path fill="none" stroke="#191970" d="M300.9144,-60.7002C247.0237,-62.3697 177.209,-62.9068 126.2635,-61.9899"/>
<polygon fill="#191970" stroke="#191970" points="126.0838,-58.4855 116.0141,-61.7795 125.9402,-65.4841 126.0838,-58.4855"/>
</g>
<!-- Node210&#45;&gt;Node209 -->
<g id="edge6" class="edge">
<title>Node210&#45;&gt;Node209</title>
<path fill="none" stroke="#191970" d="M318.7508,-44.4105C291.2006,-37.9743 260.2933,-29.7252 238.2291,-22.7482"/>
<polygon fill="#191970" stroke="#191970" points="239.0528,-19.3349 228.46,-19.5413 236.8695,-25.9857 239.0528,-19.3349"/>
</g>
<!-- Node211 -->
<g id="node5" class="node">
<title>Node211</title>
<g id="a_node5"><a xlink:href="classMap.html#aab37e4a52faf81e9b696b8cf1bd9a690" target="_top" xlink:title="Get neighbor MapNode Objects Stores pointers to the neighboring nodes of the given coordinates in the...">
<polygon fill="none" stroke="#000000" points="519,-137.5 519,-156.5 627,-156.5 627,-137.5 519,-137.5"/>
<text text-anchor="middle" x="573" y="-144.5" font-family="Helvetica,sans-Serif" font-size="10.00" fill="#000000">Map::getNeighbors</text>
</a>
</g>
</g>
<!-- Node210&#45;&gt;Node211 -->
<g id="edge4" class="edge">
<title>Node210&#45;&gt;Node211</title>
<path fill="none" stroke="#191970" d="M394.8203,-63.579C415.4666,-79.1988 458.8462,-110.1949 500,-128 505.6791,-130.457 511.7486,-132.6543 517.871,-134.6041"/>
<polygon fill="#191970" stroke="#191970" points="516.9039,-137.9679 527.4868,-137.4659 518.9007,-131.2587 516.9039,-137.9679"/>
</g>
<!-- Node212 -->
<g id="node6" class="node">
<title>Node212</title>
<g id="a_node6"><a xlink:href="classMap.html#a0ff55eb041cdf29aa582a21145319ce0" target="_top" xlink:title="Get elevated neighbor positions in a bitmask Checks all neighboring tiles and returns the elevated ne...">
<polygon fill="none" stroke="#000000" points="500,-88 500,-118 646,-118 646,-88 500,-88"/>
<text text-anchor="start" x="508" y="-106" font-family="Helvetica,sans-Serif" font-size="10.00" fill="#000000">Map::getElevatedNeighbor</text>
<text text-anchor="middle" x="573" y="-95" font-family="Helvetica,sans-Serif" font-size="10.00" fill="#000000">Bitmask</text>
</a>
</g>
</g>
<!-- Node210&#45;&gt;Node212 -->
<g id="edge5" class="edge">
<title>Node210&#45;&gt;Node212</title>
<path fill="none" stroke="#191970" d="M419.6825,-63.564C443.8005,-69.7676 475.9504,-78.0371 504.5793,-85.401"/>
<polygon fill="#191970" stroke="#191970" points="503.9833,-88.8615 514.54,-87.963 505.7271,-82.0822 503.9833,-88.8615"/>
</g>
<!-- Node213 -->
<g id="node7" class="node">
<title>Node213</title>
<g id="a_node7"><a xlink:href="classMap.html#a392940f84796653b8e811ed8dc296c84" target="_top" xlink:title="Get a bitmask that represents same&#45;tile neighbors Checks all neighboring tiles and returns the elevat...">
<polygon fill="none" stroke="#000000" points="502.5,-39 502.5,-69 643.5,-69 643.5,-39 502.5,-39"/>
<text text-anchor="start" x="510.5" y="-57" font-family="Helvetica,sans-Serif" font-size="10.00" fill="#000000">Map::getNeighboringTiles</text>
<text text-anchor="middle" x="573" y="-46" font-family="Helvetica,sans-Serif" font-size="10.00" fill="#000000">Bitmask</text>
</a>
</g>
</g>
<!-- Node210&#45;&gt;Node213 -->
<g id="edge7" class="edge">
<title>Node210&#45;&gt;Node213</title>
<path fill="none" stroke="#191970" d="M464.1182,-54C473.4625,-54 482.9856,-54 492.3177,-54"/>
<polygon fill="#191970" stroke="#191970" points="492.3514,-57.5001 502.3514,-54 492.3514,-50.5001 492.3514,-57.5001"/>
</g>
<!-- Node214 -->
<g id="node8" class="node">
<title>Node214</title>
<g id="a_node8"><a xlink:href="classMap.html#afb8cc864df90d273a5074872d635dc40" target="_top" xlink:title="Decrease Height Decreases the height of the node and checks the surrounding tiles. Either draw a slope sprite or lower the tile if necessary. ">
<polygon fill="none" stroke="#000000" points="513.5,-.5 513.5,-19.5 632.5,-19.5 632.5,-.5 513.5,-.5"/>
<text text-anchor="middle" x="573" y="-7.5" font-family="Helvetica,sans-Serif" font-size="10.00" fill="#000000">Map::decreaseHeight</text>
</a>
</g>
</g>
<!-- Node210&#45;&gt;Node214 -->
<g id="edge9" class="edge">
<title>Node210&#45;&gt;Node214</title>
<path fill="none" stroke="#191970" d="M404.3528,-44.4587C428.3694,-36.941 468.1824,-27.0657 503.0957,-19.6129"/>
<polygon fill="#191970" stroke="#191970" points="504.2018,-22.9573 513.2718,-17.4813 502.7666,-16.106 504.2018,-22.9573"/>
</g>
<!-- Node214&#45;&gt;Node209 -->
<g id="edge10" class="edge">
<title>Node214&#45;&gt;Node209</title>
<path fill="none" stroke="#191970" d="M513.2829,-10C447.8882,-10 343.2839,-10 275.2339,-10"/>
<polygon fill="#191970" stroke="#191970" points="275.0532,-6.5001 265.0532,-10 275.0532,-13.5001 275.0532,-6.5001"/>
</g>
<!-- Node214&#45;&gt;Node210 -->
<g id="edge11" class="edge">
<title>Node214&#45;&gt;Node210</title>
<path fill="none" stroke="#191970" d="M550.8824,-19.6241C529.0259,-26.4485 494.2737,-35.1925 462.0022,-42.3046"/>
<polygon fill="#191970" stroke="#191970" points="461.1146,-38.9157 452.0835,-44.4555 462.5981,-45.7567 461.1146,-38.9157"/>
</g>
</g>
</svg>
        <g id="navigator" transform="translate(0 0)" fill="#404254">
                <rect fill="#f2f5e9" fill-opacity="0.5" stroke="#606060" stroke-width=".5" x="0" y="0" width="60" height="60"/>
                <use id="zoomplus" xlink:href="#zoomPlus" x="17" y="9" onmousedown="handleZoom(evt,'in')"/>
                <use id="zoomminus" xlink:href="#zoomMin" x="42" y="9" onmousedown="handleZoom(evt,'out')"/>
                <use id="reset" xlink:href="#resetDef" x="30" y="36" onmousedown="handleReset()"/>
                <g id="arrowUp" xlink:href="#dirArrow" transform="translate(30 24)" onmousedown="handlePan(0,-1)">
                  <use xlink:href="#rim" fill="#404040">
                        <set attributeName="fill" to="#808080" begin="arrowUp.mouseover" end="arrowUp.mouseout"/>
                  </use>
                  <path fill="none" stroke="white" stroke-width="1.5" d="M0,-3.0v7 M-2.5,-0.5L0,-3.0L2.5,-0.5"/>
                </g>
                <g id="arrowRight" xlink:href="#dirArrow" transform="rotate(90) translate(36 -43)" onmousedown="handlePan(1,0)">
                  <use xlink:href="#rim" fill="#404040">
                        <set attributeName="fill" to="#808080" begin="arrowRight.mouseover" end="arrowRight.mouseout"/>
                  </use>
                  <path fill="none" stroke="white" stroke-width="1.5" d="M0,-3.0v7 M-2.5,-0.5L0,-3.0L2.5,-0.5"/>
                </g>
                <g id="arrowDown" xlink:href="#dirArrow" transform="rotate(180) translate(-30 -48)" onmousedown="handlePan(0,1)">
                  <use xlink:href="#rim" fill="#404040">
                        <set attributeName="fill" to="#808080" begin="arrowDown.mouseover" end="arrowDown.mouseout"/>
                  </use>
                  <path fill="none" stroke="white" stroke-width="1.5" d="M0,-3.0v7 M-2.5,-0.5L0,-3.0L2.5,-0.5"/>
                </g>
                <g id="arrowLeft" xlink:href="#dirArrow" transform="rotate(270) translate(-36 17)" onmousedown="handlePan(-1,0)">
                  <use xlink:href="#rim" fill="#404040">
                        <set attributeName="fill" to="#808080" begin="arrowLeft.mouseover" end="arrowLeft.mouseout"/>
                  </use>
                  <path fill="none" stroke="white" stroke-width="1.5" d="M0,-3.0v7 M-2.5,-0.5L0,-3.0L2.5,-0.5"/>
                </g>
        </g>
        <svg viewBox="0 0 15 15" width="100%" height="30px" preserveAspectRatio="xMaxYMin meet">
         <g id="arrow_out" transform="scale(0.3 0.3)">
          <a xlink:href="classMap_aba5154a4d917900679a3c0f7ec701561_cgraph_org.svg" target="_base">
           <rect id="button" ry="5" rx="5" y="6" x="6" height="38" width="38"
                fill="#f2f5e9" fill-opacity="0.5" stroke="#606060" stroke-width="1.0"/>
           <path id="arrow"
             d="M 11.500037,31.436501 C 11.940474,20.09759 22.043105,11.32322 32.158766,21.979434 L 37.068811,17.246167 C 37.068811,17.246167 37.088388,32 37.088388,32 L 22.160133,31.978069 C 22.160133,31.978069 26.997745,27.140456 26.997745,27.140456 C 18.528582,18.264221 13.291696,25.230495 11.500037,31.436501 z"
             style="fill:#404040;"/>
          </a>
         </g>
        </svg>
</svg>
