<?xml version="1.0" encoding="UTF-8" standalone="no"?>
<!DOCTYPE svg PUBLIC "-//W3C//DTD SVG 1.1//EN"
 "http://www.w3.org/Graphics/SVG/1.1/DTD/svg11.dtd">
<!-- Generated by graphviz version 2.40.1 (20161225.0304)
 -->
<!-- Title: TerrainGenerator::loadTerrainDataFromJSON Pages: 1 -->
<!--zoomable 251 -->
<svg id="main" version="1.1" xmlns="http://www.w3.org/2000/svg" xmlns:xlink="http://www.w3.org/1999/xlink" xml:space="preserve" onload="init(evt)">
<style type="text/css"><![CDATA[
.edge:hover path { stroke: red; }
.edge:hover polygon { stroke: red; fill: red; }
]]></style>
<script type="text/javascript"><![CDATA[
var edges = document.getElementsByTagName('g');
if (edges && edges.length) {
  for (var i=0;i<edges.length;i++) {
    if (edges[i].id.substr(0,4)=='edge') {
      edges[i].setAttribute('class','edge');
    }
  }
}
]]></script>
        <defs>
                <circle id="rim" cx="0" cy="0" r="7"/>
                <circle id="rim2" cx="0" cy="0" r="3.5"/>
                <g id="zoomPlus">
                        <use xlink:href="#rim" fill="#404040">
                                <set attributeName="fill" to="#808080" begin="zoomplus.mouseover" end="zoomplus.mouseout"/>
                        </use>
                        <path d="M-4,0h8M0,-4v8" fill="none" stroke="white" stroke-width="1.5" pointer-events="none"/>
                </g>
                <g id="zoomMin">
                        <use xlink:href="#rim" fill="#404040">
                                <set attributeName="fill" to="#808080" begin="zoomminus.mouseover" end="zoomminus.mouseout"/>
                        </use>
                        <path d="M-4,0h8" fill="none" stroke="white" stroke-width="1.5" pointer-events="none"/>
                </g>
                <g id="dirArrow">
                        <path fill="none" stroke="white" stroke-width="1.5" d="M0,-3.0v7 M-2.5,-0.5L0,-3.0L2.5,-0.5"/>
                </g>
               <g id="resetDef">
                       <use xlink:href="#rim2" fill="#404040">
                               <set attributeName="fill" to="#808080" begin="reset.mouseover" end="reset.mouseout"/>
                       </use>
               </g>
        </defs>

<script type="text/javascript">
var viewWidth = 1481;
var viewHeight = 251;
var sectionId = 'dynsection-3';
</script>
<script xlink:href="svgpan.js"/>
<svg id="graph" class="graph">
<g id="viewport">
<title>TerrainGenerator::loadTerrainDataFromJSON</title>
<!-- Node23 -->
<g id="node1" class="node">
<title>Node23</title>
<polygon fill="#bfbfbf" stroke="#000000" points="0,-90 0,-120 158,-120 158,-90 0,-90"/>
<text text-anchor="start" x="8" y="-108" font-family="Helvetica,sans-Serif" font-size="10.00" fill="#000000">TerrainGenerator::loadTerrain</text>
<text text-anchor="middle" x="79" y="-97" font-family="Helvetica,sans-Serif" font-size="10.00" fill="#000000">DataFromJSON</text>
</g>
<!-- Node24 -->
<g id="node2" class="node">
<title>Node24</title>
<g id="a_node2"><a xlink:href="classTerrainGenerator.html#adcc251757a1f3a06471a49f17886b8ce" target="_top" xlink:title="TerrainGenerator::generate\lTerrain">
<polygon fill="none" stroke="#000000" points="194,-90 194,-120 342,-120 342,-90 194,-90"/>
<text text-anchor="start" x="202" y="-108" font-family="Helvetica,sans-Serif" font-size="10.00" fill="#000000">TerrainGenerator::generate</text>
<text text-anchor="middle" x="268" y="-97" font-family="Helvetica,sans-Serif" font-size="10.00" fill="#000000">Terrain</text>
</a>
</g>
</g>
<!-- Node23&#45;&gt;Node24 -->
<g id="edge1" class="edge">
<title>Node23&#45;&gt;Node24</title>
<path fill="none" stroke="#191970" d="M168.1054,-105C176.7024,-105 185.359,-105 193.7896,-105"/>
<polygon fill="#191970" stroke="#191970" points="168.058,-101.5001 158.0579,-105 168.0579,-108.5001 168.058,-101.5001"/>
</g>
<!-- Node25 -->
<g id="node3" class="node">
<title>Node25</title>
<g id="a_node3"><a xlink:href="classMap.html#a482ac34426e8aa66abb46f60ec329402" target="_top" xlink:title="Initialize the Map with node objects Initialize the Map with node objects. ">
<polygon fill="none" stroke="#000000" points="378,-95.5 378,-114.5 457,-114.5 457,-95.5 378,-95.5"/>
<text text-anchor="middle" x="417.5" y="-102.5" font-family="Helvetica,sans-Serif" font-size="10.00" fill="#000000">Map::initMap</text>
</a>
</g>
</g>
<!-- Node24&#45;&gt;Node25 -->
<g id="edge2" class="edge">
<title>Node24&#45;&gt;Node25</title>
<path fill="none" stroke="#191970" d="M352.3874,-105C361.2662,-105 369.9604,-105 377.9578,-105"/>
<polygon fill="#191970" stroke="#191970" points="352.312,-101.5001 342.312,-105 352.312,-108.5001 352.312,-101.5001"/>
</g>
<!-- Node26 -->
<g id="node4" class="node">
<title>Node26</title>
<g id="a_node4"><a xlink:href="classEngine.html#a260d4834150eae6eec2bde34df6dc827" target="_top" xlink:title="Creates a new game Creates a new game. ">
<polygon fill="none" stroke="#000000" points="663,-190.5 663,-209.5 768,-209.5 768,-190.5 663,-190.5"/>
<text text-anchor="middle" x="715.5" y="-197.5" font-family="Helvetica,sans-Serif" font-size="10.00" fill="#000000">Engine::newGame</text>
</a>
</g>
</g>
<!-- Node25&#45;&gt;Node26 -->
<g id="edge3" class="edge">
<title>Node25&#45;&gt;Node26</title>
<path fill="none" stroke="#191970" d="M457.012,-117.5961C517.4411,-136.8604 631.4896,-173.2182 685.5821,-190.4624"/>
<polygon fill="#191970" stroke="#191970" points="458.0285,-114.2467 447.4378,-114.5439 455.9023,-120.916 458.0285,-114.2467"/>
</g>
<!-- Node34 -->
<g id="node12" class="node">
<title>Node34</title>
<g id="a_node12"><a xlink:href="classMap.html#afefe996cc1f62b61ec60d0ae415953bf" target="_top" xlink:title="Map::loadMapFromFile">
<polygon fill="none" stroke="#000000" points="493,-76.5 493,-95.5 618,-95.5 618,-76.5 493,-76.5"/>
<text text-anchor="middle" x="555.5" y="-83.5" font-family="Helvetica,sans-Serif" font-size="10.00" fill="#000000">Map::loadMapFromFile</text>
</a>
</g>
</g>
<!-- Node25&#45;&gt;Node34 -->
<g id="edge14" class="edge">
<title>Node25&#45;&gt;Node34</title>
<path fill="none" stroke="#191970" d="M466.9946,-98.1855C475.3506,-97.0351 484.1224,-95.8274 492.7621,-94.6378"/>
<polygon fill="#191970" stroke="#191970" points="466.4744,-94.724 457.0453,-99.5554 467.4292,-101.6586 466.4744,-94.724"/>
</g>
<!-- Node27 -->
<g id="node5" class="node">
<title>Node27</title>
<g id="a_node5"><a xlink:href="classEngine.html#af7de8d74b0cfacaf06df53e7caf11538" target="_top" xlink:title="Engine::saveGame">
<polygon fill="none" stroke="#000000" points="827,-190.5 827,-209.5 935,-209.5 935,-190.5 827,-190.5"/>
<text text-anchor="middle" x="881" y="-197.5" font-family="Helvetica,sans-Serif" font-size="10.00" fill="#000000">Engine::saveGame</text>
</a>
</g>
</g>
<!-- Node26&#45;&gt;Node27 -->
<g id="edge4" class="edge">
<title>Node26&#45;&gt;Node27</title>
<path fill="none" stroke="#191970" d="M778.6194,-200C794.5588,-200 811.5294,-200 826.9755,-200"/>
<polygon fill="#191970" stroke="#191970" points="778.3203,-196.5001 768.3203,-200 778.3202,-203.5001 778.3203,-196.5001"/>
</g>
<!-- Node28 -->
<g id="node6" class="node">
<title>Node28</title>
<g id="a_node6"><a xlink:href="classUIManager.html#aa78e356fc3b356d790c848319d1c387e" target="_top" xlink:title="UIManager::setCallbackFunctions">
<polygon fill="none" stroke="#000000" points="985,-152.5 985,-171.5 1163,-171.5 1163,-152.5 985,-152.5"/>
<text text-anchor="middle" x="1074" y="-159.5" font-family="Helvetica,sans-Serif" font-size="10.00" fill="#000000">UIManager::setCallbackFunctions</text>
</a>
</g>
</g>
<!-- Node26&#45;&gt;Node28 -->
<g id="edge6" class="edge">
<title>Node26&#45;&gt;Node28</title>
<path fill="none" stroke="#191970" d="M762.3372,-211.794C809.8669,-221.9062 885.3115,-232.8357 949,-219 990.9535,-209.886 1035.708,-185.4086 1058.5834,-171.6785"/>
<polygon fill="#191970" stroke="#191970" points="762.8602,-208.3253 752.3412,-209.5913 761.3538,-215.1613 762.8602,-208.3253"/>
</g>
<!-- Node29 -->
<g id="node7" class="node">
<title>Node29</title>
<g id="a_node7"><a xlink:href="classGame.html#a5ed7fc5be77080f7f6dd5363f7f007a1" target="_top" xlink:title="initializes and displays the main menu initializes and displays the main menu ">
<polygon fill="none" stroke="#000000" points="1022.5,-76.5 1022.5,-95.5 1125.5,-95.5 1125.5,-76.5 1022.5,-76.5"/>
<text text-anchor="middle" x="1074" y="-83.5" font-family="Helvetica,sans-Serif" font-size="10.00" fill="#000000">Game::mainMenu</text>
</a>
</g>
</g>
<!-- Node26&#45;&gt;Node29 -->
<g id="edge7" class="edge">
<title>Node26&#45;&gt;Node29</title>
<path fill="none" stroke="#191970" d="M755.106,-187.4056C827.4107,-164.4133 979.2829,-116.1193 1043.8842,-95.5766"/>
<polygon fill="#191970" stroke="#191970" points="753.918,-184.1106 745.4489,-190.4765 756.0393,-190.7815 753.918,-184.1106"/>
</g>
<!-- Node33 -->
<g id="node11" class="node">
<title>Node33</title>
<g id="a_node11"><a xlink:href="classGame.html#a1c2ab25d5216b2f4b2fe41efd2c09114" target="_top" xlink:title="begins the game starts running the game ">
<polygon fill="none" stroke="#000000" points="1199,-76.5 1199,-95.5 1267,-95.5 1267,-76.5 1199,-76.5"/>
<text text-anchor="middle" x="1233" y="-83.5" font-family="Helvetica,sans-Serif" font-size="10.00" fill="#000000">Game::run</text>
</a>
</g>
</g>
<!-- Node26&#45;&gt;Node33 -->
<g id="edge11" class="edge">
<title>Node26&#45;&gt;Node33</title>
<path fill="none" stroke="#191970" d="M744.3755,-213.7361C763.3911,-222.0031 789.1009,-231.7288 813,-236 872.5017,-246.6341 889.0331,-243.5828 949,-236 1046.4263,-223.6805 1081.6008,-235.9347 1163,-181 1196.2836,-158.5376 1219.6344,-114.7835 1228.7518,-95.5076"/>
<polygon fill="#191970" stroke="#191970" points="745.6444,-210.4696 735.0868,-209.5826 742.787,-216.8599 745.6444,-210.4696"/>
</g>
<!-- Node27&#45;&gt;Node28 -->
<g id="edge5" class="edge">
<title>Node27&#45;&gt;Node28</title>
<path fill="none" stroke="#191970" d="M939.6016,-188.4619C967.1289,-183.042 999.5476,-176.659 1025.6482,-171.5201"/>
<polygon fill="#191970" stroke="#191970" points="938.8375,-185.045 929.702,-190.411 940.1898,-191.9132 938.8375,-185.045"/>
</g>
<!-- Node30 -->
<g id="node8" class="node">
<title>Node30</title>
<g id="a_node8"><a xlink:href="classGame.html#ad59df6562a58a614fda24622d3715b65" target="_top" xlink:title="Game::Game">
<polygon fill="none" stroke="#000000" points="1309,-95.5 1309,-114.5 1390,-114.5 1390,-95.5 1309,-95.5"/>
<text text-anchor="middle" x="1349.5" y="-102.5" font-family="Helvetica,sans-Serif" font-size="10.00" fill="#000000">Game::Game</text>
</a>
</g>
</g>
<!-- Node29&#45;&gt;Node30 -->
<g id="edge8" class="edge">
<title>Node29&#45;&gt;Node30</title>
<path fill="none" stroke="#191970" d="M1134.9441,-97.1464C1155.2452,-100.3553 1178.0283,-103.4153 1199,-105 1236.1272,-107.8056 1278.5536,-107.4877 1308.8759,-106.6544"/>
<polygon fill="#191970" stroke="#191970" points="1135.3195,-93.6616 1124.8878,-95.5136 1134.1975,-100.5711 1135.3195,-93.6616"/>
</g>
<!-- Node31 -->
<g id="node9" class="node">
<title>Node31</title>
<g id="a_node9"><a xlink:href="main_8cxx.html#af582d708d899e67ead623eac34a22387" target="_top" xlink:title="protected_main">
<polygon fill="none" stroke="#000000" points="1303,-57.5 1303,-76.5 1396,-76.5 1396,-57.5 1303,-57.5"/>
<text text-anchor="middle" x="1349.5" y="-64.5" font-family="Helvetica,sans-Serif" font-size="10.00" fill="#000000">protected_main</text>
</a>
</g>
</g>
<!-- Node29&#45;&gt;Node31 -->
<g id="edge9" class="edge">
<title>Node29&#45;&gt;Node31</title>
<path fill="none" stroke="#191970" d="M1134.9441,-74.8536C1155.2452,-71.6447 1178.0283,-68.5847 1199,-67 1233.7823,-64.3716 1273.2157,-64.4846 1302.9902,-65.1945"/>
<polygon fill="#191970" stroke="#191970" points="1134.1975,-71.4289 1124.8878,-76.4864 1135.3195,-78.3384 1134.1975,-71.4289"/>
</g>
<!-- Node32 -->
<g id="node10" class="node">
<title>Node32</title>
<g id="a_node10"><a xlink:href="main_8cxx.html#a3c04138a5bfe5d72780bb7e82a18e627" target="_top" xlink:title="main">
<polygon fill="none" stroke="#000000" points="1432,-57.5 1432,-76.5 1473,-76.5 1473,-57.5 1432,-57.5"/>
<text text-anchor="middle" x="1452.5" y="-64.5" font-family="Helvetica,sans-Serif" font-size="10.00" fill="#000000">main</text>
</a>
</g>
</g>
<!-- Node31&#45;&gt;Node32 -->
<g id="edge10" class="edge">
<title>Node31&#45;&gt;Node32</title>
<path fill="none" stroke="#191970" d="M1406.2133,-67C1415.4322,-67 1424.4259,-67 1431.9965,-67"/>
<polygon fill="#191970" stroke="#191970" points="1406.1782,-63.5001 1396.1782,-67 1406.1781,-70.5001 1406.1782,-63.5001"/>
</g>
<!-- Node33&#45;&gt;Node30 -->
<g id="edge12" class="edge">
<title>Node33&#45;&gt;Node30</title>
<path fill="none" stroke="#191970" d="M1277.0985,-93.192C1287.4513,-94.8805 1298.439,-96.6725 1308.6427,-98.3366"/>
<polygon fill="#191970" stroke="#191970" points="1277.4428,-89.702 1267.0098,-91.5467 1276.316,-96.6107 1277.4428,-89.702"/>
</g>
<!-- Node33&#45;&gt;Node31 -->
<g id="edge13" class="edge">
<title>Node33&#45;&gt;Node31</title>
<path fill="none" stroke="#191970" d="M1276.9884,-78.8259C1285.382,-77.457 1294.1965,-76.0195 1302.6749,-74.6367"/>
<polygon fill="#191970" stroke="#191970" points="1276.316,-75.3893 1267.0098,-80.4533 1277.4428,-82.298 1276.316,-75.3893"/>
</g>
<!-- Node35 -->
<g id="node13" class="node">
<title>Node35</title>
<g id="a_node13"><a xlink:href="classEngine.html#a83b7dbeee899b36a13d5b07c7ad87ebc" target="_top" xlink:title="Loads a saved game Loads a saved Game. ">
<polygon fill="none" stroke="#000000" points="662.5,-76.5 662.5,-95.5 768.5,-95.5 768.5,-76.5 662.5,-76.5"/>
<text text-anchor="middle" x="715.5" y="-83.5" font-family="Helvetica,sans-Serif" font-size="10.00" fill="#000000">Engine::loadGame</text>
</a>
</g>
</g>
<!-- Node34&#45;&gt;Node35 -->
<g id="edge15" class="edge">
<title>Node34&#45;&gt;Node35</title>
<path fill="none" stroke="#191970" d="M628.3143,-86C639.8222,-86 651.53,-86 662.4749,-86"/>
<polygon fill="#191970" stroke="#191970" points="628.2771,-82.5001 618.277,-86 628.277,-89.5001 628.2771,-82.5001"/>
</g>
<!-- Node38 -->
<g id="node16" class="node">
<title>Node38</title>
<g id="a_node16"><a xlink:href="classMap.html#a779c939483a52b32a3959b99af95e67a" target="_top" xlink:title="Set the Tile ID Of Node object Also invokes all necessary texture updates (auto&#45;tiling, slopes, ...) ">
<polygon fill="none" stroke="#000000" points="654,-19.5 654,-38.5 777,-38.5 777,-19.5 654,-19.5"/>
<text text-anchor="middle" x="715.5" y="-26.5" font-family="Helvetica,sans-Serif" font-size="10.00" fill="#000000">Map::setTileIDOfNode</text>
</a>
</g>
</g>
<!-- Node34&#45;&gt;Node38 -->
<g id="edge23" class="edge">
<title>Node34&#45;&gt;Node38</title>
<path fill="none" stroke="#191970" d="M591.7904,-73.0715C621.2302,-62.5836 662.0655,-48.0361 688.6322,-38.5716"/>
<polygon fill="#191970" stroke="#191970" points="590.5259,-69.8065 582.2804,-76.4595 592.8751,-76.4005 590.5259,-69.8065"/>
</g>
<!-- Node35&#45;&gt;Node28 -->
<g id="edge21" class="edge">
<title>Node35&#45;&gt;Node28</title>
<path fill="none" stroke="#191970" d="M770.6291,-97.6871C841.5968,-112.7318 963.5559,-138.5865 1029.143,-152.4906"/>
<polygon fill="#191970" stroke="#191970" points="771.0497,-94.1985 760.5413,-95.5485 769.598,-101.0463 771.0497,-94.1985"/>
</g>
<!-- Node35&#45;&gt;Node29 -->
<g id="edge22" class="edge">
<title>Node35&#45;&gt;Node29</title>
<path fill="none" stroke="#191970" d="M779.1405,-86C848.5338,-86 958.2452,-86 1022.461,-86"/>
<polygon fill="#191970" stroke="#191970" points="778.784,-82.5001 768.784,-86 778.7839,-89.5001 778.784,-82.5001"/>
</g>
<!-- Node36 -->
<g id="node14" class="node">
<title>Node36</title>
<g id="a_node14"><a xlink:href="classEngine.html#a0ba57971ffb5173ecc425461f65a4cd8" target="_top" xlink:title="Quits the game Sets m_running to false and quitting the game. ">
<polygon fill="none" stroke="#000000" points="829,-38.5 829,-57.5 933,-57.5 933,-38.5 829,-38.5"/>
<text text-anchor="middle" x="881" y="-45.5" font-family="Helvetica,sans-Serif" font-size="10.00" fill="#000000">Engine::quitGame</text>
</a>
</g>
</g>
<!-- Node35&#45;&gt;Node36 -->
<g id="edge16" class="edge">
<title>Node35&#45;&gt;Node36</title>
<path fill="none" stroke="#191970" d="M767.3105,-74.1039C790.5733,-68.7626 817.6469,-62.5463 839.5377,-57.5201"/>
<polygon fill="#191970" stroke="#191970" points="766.2258,-70.7618 757.2626,-76.411 767.7923,-77.5843 766.2258,-70.7618"/>
</g>
<!-- Node36&#45;&gt;Node28 -->
<g id="edge19" class="edge">
<title>Node36&#45;&gt;Node28</title>
<path fill="none" stroke="#191970" d="M905.7686,-62.6301C945.8907,-86.3292 1024.0043,-132.4689 1057.787,-152.4234"/>
<polygon fill="#191970" stroke="#191970" points="907.5133,-59.5958 897.1231,-57.5235 903.9532,-65.6229 907.5133,-59.5958"/>
</g>
<!-- Node36&#45;&gt;Node29 -->
<g id="edge20" class="edge">
<title>Node36&#45;&gt;Node29</title>
<path fill="none" stroke="#191970" d="M939.6016,-59.5381C967.1289,-64.958 999.5476,-71.341 1025.6482,-76.4799"/>
<polygon fill="#191970" stroke="#191970" points="940.1898,-56.0868 929.702,-57.589 938.8375,-62.955 940.1898,-56.0868"/>
</g>
<!-- Node37 -->
<g id="node15" class="node">
<title>Node37</title>
<g id="a_node15"><a xlink:href="classEventManager.html#a65ec91fd5016d4f9c4167fb8babed2df" target="_top" xlink:title="EventManager::checkEvents">
<polygon fill="none" stroke="#000000" points="997,-38.5 997,-57.5 1151,-57.5 1151,-38.5 997,-38.5"/>
<text text-anchor="middle" x="1074" y="-45.5" font-family="Helvetica,sans-Serif" font-size="10.00" fill="#000000">EventManager::checkEvents</text>
</a>
</g>
</g>
<!-- Node36&#45;&gt;Node37 -->
<g id="edge17" class="edge">
<title>Node36&#45;&gt;Node37</title>
<path fill="none" stroke="#191970" d="M943.5536,-48C960.5044,-48 979.0568,-48 996.7146,-48"/>
<polygon fill="#191970" stroke="#191970" points="943.2286,-44.5001 933.2286,-48 943.2285,-51.5001 943.2286,-44.5001"/>
</g>
<!-- Node37&#45;&gt;Node33 -->
<g id="edge18" class="edge">
<title>Node37&#45;&gt;Node33</title>
<path fill="none" stroke="#191970" d="M1131.2283,-59.7338C1141.8154,-62.0415 1152.7599,-64.5192 1163,-67 1174.8713,-69.876 1187.7963,-73.3003 1199.2721,-76.4446"/>
<polygon fill="#191970" stroke="#191970" points="1131.7348,-56.2627 1121.222,-57.5786 1130.2609,-63.1058 1131.7348,-56.2627"/>
</g>
<!-- Node39 -->
<g id="node17" class="node">
<title>Node39</title>
<g id="a_node17"><a xlink:href="classEngine.html#a8a53c5e52734a5158b317851361b83f2" target="_top" xlink:title="Engine::setTileIDOfNode">
<polygon fill="none" stroke="#000000" points="813,-.5 813,-19.5 949,-19.5 949,-.5 813,-.5"/>
<text text-anchor="middle" x="881" y="-7.5" font-family="Helvetica,sans-Serif" font-size="10.00" fill="#000000">Engine::setTileIDOfNode</text>
</a>
</g>
</g>
<!-- Node38&#45;&gt;Node39 -->
<g id="edge24" class="edge">
<title>Node38&#45;&gt;Node39</title>
<path fill="none" stroke="#191970" d="M787.094,-20.7808C795.6681,-19.7964 804.405,-18.7934 812.9273,-17.815"/>
<polygon fill="#191970" stroke="#191970" points="786.6616,-17.3073 777.1261,-21.9251 787.4601,-24.2616 786.6616,-17.3073"/>
</g>
<!-- Node39&#45;&gt;Node37 -->
<g id="edge25" class="edge">
<title>Node39&#45;&gt;Node37</title>
<path fill="none" stroke="#191970" d="M939.6016,-21.5381C967.1289,-26.958 999.5476,-33.341 1025.6482,-38.4799"/>
<polygon fill="#191970" stroke="#191970" points="940.1898,-18.0868 929.702,-19.589 938.8375,-24.955 940.1898,-18.0868"/>
</g>
</g>
</svg>
        <g id="navigator" transform="translate(0 0)" fill="#404254">
                <rect fill="#f2f5e9" fill-opacity="0.5" stroke="#606060" stroke-width=".5" x="0" y="0" width="60" height="60"/>
                <use id="zoomplus" xlink:href="#zoomPlus" x="17" y="9" onmousedown="handleZoom(evt,'in')"/>
                <use id="zoomminus" xlink:href="#zoomMin" x="42" y="9" onmousedown="handleZoom(evt,'out')"/>
                <use id="reset" xlink:href="#resetDef" x="30" y="36" onmousedown="handleReset()"/>
                <g id="arrowUp" xlink:href="#dirArrow" transform="translate(30 24)" onmousedown="handlePan(0,-1)">
                  <use xlink:href="#rim" fill="#404040">
                        <set attributeName="fill" to="#808080" begin="arrowUp.mouseover" end="arrowUp.mouseout"/>
                  </use>
                  <path fill="none" stroke="white" stroke-width="1.5" d="M0,-3.0v7 M-2.5,-0.5L0,-3.0L2.5,-0.5"/>
                </g>
                <g id="arrowRight" xlink:href="#dirArrow" transform="rotate(90) translate(36 -43)" onmousedown="handlePan(1,0)">
                  <use xlink:href="#rim" fill="#404040">
                        <set attributeName="fill" to="#808080" begin="arrowRight.mouseover" end="arrowRight.mouseout"/>
                  </use>
                  <path fill="none" stroke="white" stroke-width="1.5" d="M0,-3.0v7 M-2.5,-0.5L0,-3.0L2.5,-0.5"/>
                </g>
                <g id="arrowDown" xlink:href="#dirArrow" transform="rotate(180) translate(-30 -48)" onmousedown="handlePan(0,1)">
                  <use xlink:href="#rim" fill="#404040">
                        <set attributeName="fill" to="#808080" begin="arrowDown.mouseover" end="arrowDown.mouseout"/>
                  </use>
                  <path fill="none" stroke="white" stroke-width="1.5" d="M0,-3.0v7 M-2.5,-0.5L0,-3.0L2.5,-0.5"/>
                </g>
                <g id="arrowLeft" xlink:href="#dirArrow" transform="rotate(270) translate(-36 17)" onmousedown="handlePan(-1,0)">
                  <use xlink:href="#rim" fill="#404040">
                        <set attributeName="fill" to="#808080" begin="arrowLeft.mouseover" end="arrowLeft.mouseout"/>
                  </use>
                  <path fill="none" stroke="white" stroke-width="1.5" d="M0,-3.0v7 M-2.5,-0.5L0,-3.0L2.5,-0.5"/>
                </g>
        </g>
        <svg viewBox="0 0 15 15" width="100%" height="30px" preserveAspectRatio="xMaxYMin meet">
         <g id="arrow_out" transform="scale(0.3 0.3)">
          <a xlink:href="classTerrainGenerator_ac94cfaeb9dc89453018399361da5174a_icgraph_org.svg" target="_base">
           <rect id="button" ry="5" rx="5" y="6" x="6" height="38" width="38"
                fill="#f2f5e9" fill-opacity="0.5" stroke="#606060" stroke-width="1.0"/>
           <path id="arrow"
             d="M 11.500037,31.436501 C 11.940474,20.09759 22.043105,11.32322 32.158766,21.979434 L 37.068811,17.246167 C 37.068811,17.246167 37.088388,32 37.088388,32 L 22.160133,31.978069 C 22.160133,31.978069 26.997745,27.140456 26.997745,27.140456 C 18.528582,18.264221 13.291696,25.230495 11.500037,31.436501 z"
             style="fill:#404040;"/>
          </a>
         </g>
        </svg>
</svg>
