<?xml version="1.0" encoding="UTF-8" standalone="no"?>
<!DOCTYPE svg PUBLIC "-//W3C//DTD SVG 1.1//EN"
 "http://www.w3.org/Graphics/SVG/1.1/DTD/svg11.dtd">
<!-- Generated by graphviz version 2.40.1 (20161225.0304)
 -->
<!-- Title: Map::updateAllNodes Pages: 1 -->
<svg width="1259pt" height="251pt"
 viewBox="0.00 0.00 1259.00 251.02" xmlns="http://www.w3.org/2000/svg" xmlns:xlink="http://www.w3.org/1999/xlink">
<g id="graph0" class="graph" transform="scale(1 1) rotate(0) translate(4 247.022)">
<title>Map::updateAllNodes</title>
<!-- Node387 -->
<g id="node1" class="node">
<title>Node387</title>
<polygon fill="#bfbfbf" stroke="#000000" points="0,-95.5 0,-114.5 120,-114.5 120,-95.5 0,-95.5"/>
<text text-anchor="middle" x="60" y="-102.5" font-family="Helvetica,sans-Serif" font-size="10.00" fill="#000000">Map::updateAllNodes</text>
</g>
<!-- Node388 -->
<g id="node2" class="node">
<title>Node388</title>
<g id="a_node2"><a xlink:href="classMap.html#a482ac34426e8aa66abb46f60ec329402" target="_top" xlink:title="Initialize the Map with node objects Initialize the Map with node objects. ">
<polygon fill="none" stroke="#000000" points="156,-114.5 156,-133.5 235,-133.5 235,-114.5 156,-114.5"/>
<text text-anchor="middle" x="195.5" y="-121.5" font-family="Helvetica,sans-Serif" font-size="10.00" fill="#000000">Map::initMap</text>
</a>
</g>
</g>
<!-- Node387&#45;&gt;Node388 -->
<g id="edge1" class="edge">
<title>Node387&#45;&gt;Node388</title>
<path fill="none" stroke="#191970" d="M130.4014,-114.8718C139.0797,-116.0887 147.6998,-117.2974 155.6912,-118.418"/>
<polygon fill="#191970" stroke="#191970" points="130.6105,-111.3669 120.2214,-113.4443 129.6384,-118.2991 130.6105,-111.3669"/>
</g>
<!-- Node397 -->
<g id="node11" class="node">
<title>Node397</title>
<g id="a_node11"><a xlink:href="classMap.html#afefe996cc1f62b61ec60d0ae415953bf" target="_top" xlink:title="Map::loadMapFromFile">
<polygon fill="none" stroke="#000000" points="271,-76.5 271,-95.5 396,-95.5 396,-76.5 271,-76.5"/>
<text text-anchor="middle" x="333.5" y="-83.5" font-family="Helvetica,sans-Serif" font-size="10.00" fill="#000000">Map::loadMapFromFile</text>
</a>
</g>
</g>
<!-- Node387&#45;&gt;Node397 -->
<g id="edge25" class="edge">
<title>Node387&#45;&gt;Node397</title>
<path fill="none" stroke="#191970" d="M130.2178,-100.122C173.6176,-97.107 228.8383,-93.2708 270.7697,-90.3579"/>
<polygon fill="#191970" stroke="#191970" points="129.7541,-96.6457 120.0207,-100.8304 130.2393,-103.6288 129.7541,-96.6457"/>
</g>
<!-- Node389 -->
<g id="node3" class="node">
<title>Node389</title>
<g id="a_node3"><a xlink:href="classEngine.html#a260d4834150eae6eec2bde34df6dc827" target="_top" xlink:title="Creates a new game Creates a new game. ">
<polygon fill="none" stroke="#000000" points="441,-190.5 441,-209.5 546,-209.5 546,-190.5 441,-190.5"/>
<text text-anchor="middle" x="493.5" y="-197.5" font-family="Helvetica,sans-Serif" font-size="10.00" fill="#000000">Engine::newGame</text>
</a>
</g>
</g>
<!-- Node388&#45;&gt;Node389 -->
<g id="edge2" class="edge">
<title>Node388&#45;&gt;Node389</title>
<path fill="none" stroke="#191970" d="M242.7707,-136.0556C301.8745,-151.1291 401.8479,-176.6256 455.9786,-190.4308"/>
<polygon fill="#191970" stroke="#191970" points="243.495,-132.6284 232.9402,-133.5485 241.765,-139.4113 243.495,-132.6284"/>
</g>
<!-- Node388&#45;&gt;Node397 -->
<g id="edge13" class="edge">
<title>Node388&#45;&gt;Node397</title>
<path fill="none" stroke="#191970" d="M239.973,-111.7538C258.9946,-106.516 280.8751,-100.4909 298.6879,-95.5859"/>
<polygon fill="#191970" stroke="#191970" points="239.0352,-108.3817 230.3232,-114.411 240.8936,-115.1305 239.0352,-108.3817"/>
</g>
<!-- Node390 -->
<g id="node4" class="node">
<title>Node390</title>
<g id="a_node4"><a xlink:href="classEngine.html#af7de8d74b0cfacaf06df53e7caf11538" target="_top" xlink:title="Engine::saveGame">
<polygon fill="none" stroke="#000000" points="605,-190.5 605,-209.5 713,-209.5 713,-190.5 605,-190.5"/>
<text text-anchor="middle" x="659" y="-197.5" font-family="Helvetica,sans-Serif" font-size="10.00" fill="#000000">Engine::saveGame</text>
</a>
</g>
</g>
<!-- Node389&#45;&gt;Node390 -->
<g id="edge3" class="edge">
<title>Node389&#45;&gt;Node390</title>
<path fill="none" stroke="#191970" d="M556.6194,-200C572.5588,-200 589.5294,-200 604.9755,-200"/>
<polygon fill="#191970" stroke="#191970" points="556.3203,-196.5001 546.3203,-200 556.3202,-203.5001 556.3203,-196.5001"/>
</g>
<!-- Node391 -->
<g id="node5" class="node">
<title>Node391</title>
<g id="a_node5"><a xlink:href="classUIManager.html#aa78e356fc3b356d790c848319d1c387e" target="_top" xlink:title="UIManager::setCallbackFunctions">
<polygon fill="none" stroke="#000000" points="763,-152.5 763,-171.5 941,-171.5 941,-152.5 763,-152.5"/>
<text text-anchor="middle" x="852" y="-159.5" font-family="Helvetica,sans-Serif" font-size="10.00" fill="#000000">UIManager::setCallbackFunctions</text>
</a>
</g>
</g>
<!-- Node389&#45;&gt;Node391 -->
<g id="edge5" class="edge">
<title>Node389&#45;&gt;Node391</title>
<path fill="none" stroke="#191970" d="M540.3372,-211.794C587.8669,-221.9062 663.3115,-232.8357 727,-219 768.9535,-209.886 813.708,-185.4086 836.5834,-171.6785"/>
<polygon fill="#191970" stroke="#191970" points="540.8602,-208.3253 530.3412,-209.5913 539.3538,-215.1613 540.8602,-208.3253"/>
</g>
<!-- Node392 -->
<g id="node6" class="node">
<title>Node392</title>
<g id="a_node6"><a xlink:href="classGame.html#a5ed7fc5be77080f7f6dd5363f7f007a1" target="_top" xlink:title="initializes and displays the main menu initializes and displays the main menu ">
<polygon fill="none" stroke="#000000" points="800.5,-76.5 800.5,-95.5 903.5,-95.5 903.5,-76.5 800.5,-76.5"/>
<text text-anchor="middle" x="852" y="-83.5" font-family="Helvetica,sans-Serif" font-size="10.00" fill="#000000">Game::mainMenu</text>
</a>
</g>
</g>
<!-- Node389&#45;&gt;Node392 -->
<g id="edge6" class="edge">
<title>Node389&#45;&gt;Node392</title>
<path fill="none" stroke="#191970" d="M533.106,-187.4056C605.4107,-164.4133 757.2829,-116.1193 821.8842,-95.5766"/>
<polygon fill="#191970" stroke="#191970" points="531.918,-184.1106 523.4489,-190.4765 534.0393,-190.7815 531.918,-184.1106"/>
</g>
<!-- Node396 -->
<g id="node10" class="node">
<title>Node396</title>
<g id="a_node10"><a xlink:href="classGame.html#a1c2ab25d5216b2f4b2fe41efd2c09114" target="_top" xlink:title="begins the game starts running the game ">
<polygon fill="none" stroke="#000000" points="977,-76.5 977,-95.5 1045,-95.5 1045,-76.5 977,-76.5"/>
<text text-anchor="middle" x="1011" y="-83.5" font-family="Helvetica,sans-Serif" font-size="10.00" fill="#000000">Game::run</text>
</a>
</g>
</g>
<!-- Node389&#45;&gt;Node396 -->
<g id="edge10" class="edge">
<title>Node389&#45;&gt;Node396</title>
<path fill="none" stroke="#191970" d="M522.3755,-213.7361C541.3911,-222.0031 567.1009,-231.7288 591,-236 650.5017,-246.6341 667.0331,-243.5828 727,-236 824.4263,-223.6805 859.6008,-235.9347 941,-181 974.2836,-158.5376 997.6344,-114.7835 1006.7518,-95.5076"/>
<polygon fill="#191970" stroke="#191970" points="523.6444,-210.4696 513.0868,-209.5826 520.787,-216.8599 523.6444,-210.4696"/>
</g>
<!-- Node390&#45;&gt;Node391 -->
<g id="edge4" class="edge">
<title>Node390&#45;&gt;Node391</title>
<path fill="none" stroke="#191970" d="M717.6016,-188.4619C745.1289,-183.042 777.5476,-176.659 803.6482,-171.5201"/>
<polygon fill="#191970" stroke="#191970" points="716.8375,-185.045 707.702,-190.411 718.1898,-191.9132 716.8375,-185.045"/>
</g>
<!-- Node393 -->
<g id="node7" class="node">
<title>Node393</title>
<g id="a_node7"><a xlink:href="classGame.html#ad59df6562a58a614fda24622d3715b65" target="_top" xlink:title="Game::Game">
<polygon fill="none" stroke="#000000" points="1087,-95.5 1087,-114.5 1168,-114.5 1168,-95.5 1087,-95.5"/>
<text text-anchor="middle" x="1127.5" y="-102.5" font-family="Helvetica,sans-Serif" font-size="10.00" fill="#000000">Game::Game</text>
</a>
</g>
</g>
<!-- Node392&#45;&gt;Node393 -->
<g id="edge7" class="edge">
<title>Node392&#45;&gt;Node393</title>
<path fill="none" stroke="#191970" d="M912.9441,-97.1464C933.2452,-100.3553 956.0283,-103.4153 977,-105 1014.1272,-107.8056 1056.5536,-107.4877 1086.8759,-106.6544"/>
<polygon fill="#191970" stroke="#191970" points="913.3195,-93.6616 902.8878,-95.5136 912.1975,-100.5711 913.3195,-93.6616"/>
</g>
<!-- Node394 -->
<g id="node8" class="node">
<title>Node394</title>
<g id="a_node8"><a xlink:href="main_8cxx.html#af582d708d899e67ead623eac34a22387" target="_top" xlink:title="protected_main">
<polygon fill="none" stroke="#000000" points="1081,-57.5 1081,-76.5 1174,-76.5 1174,-57.5 1081,-57.5"/>
<text text-anchor="middle" x="1127.5" y="-64.5" font-family="Helvetica,sans-Serif" font-size="10.00" fill="#000000">protected_main</text>
</a>
</g>
</g>
<!-- Node392&#45;&gt;Node394 -->
<g id="edge8" class="edge">
<title>Node392&#45;&gt;Node394</title>
<path fill="none" stroke="#191970" d="M912.9441,-74.8536C933.2452,-71.6447 956.0283,-68.5847 977,-67 1011.7823,-64.3716 1051.2157,-64.4846 1080.9902,-65.1945"/>
<polygon fill="#191970" stroke="#191970" points="912.1975,-71.4289 902.8878,-76.4864 913.3195,-78.3384 912.1975,-71.4289"/>
</g>
<!-- Node395 -->
<g id="node9" class="node">
<title>Node395</title>
<g id="a_node9"><a xlink:href="main_8cxx.html#a3c04138a5bfe5d72780bb7e82a18e627" target="_top" xlink:title="main">
<polygon fill="none" stroke="#000000" points="1210,-57.5 1210,-76.5 1251,-76.5 1251,-57.5 1210,-57.5"/>
<text text-anchor="middle" x="1230.5" y="-64.5" font-family="Helvetica,sans-Serif" font-size="10.00" fill="#000000">main</text>
</a>
</g>
</g>
<!-- Node394&#45;&gt;Node395 -->
<g id="edge9" class="edge">
<title>Node394&#45;&gt;Node395</title>
<path fill="none" stroke="#191970" d="M1184.2133,-67C1193.4322,-67 1202.4259,-67 1209.9965,-67"/>
<polygon fill="#191970" stroke="#191970" points="1184.1782,-63.5001 1174.1782,-67 1184.1781,-70.5001 1184.1782,-63.5001"/>
</g>
<!-- Node396&#45;&gt;Node393 -->
<g id="edge11" class="edge">
<title>Node396&#45;&gt;Node393</title>
<path fill="none" stroke="#191970" d="M1055.0985,-93.192C1065.4513,-94.8805 1076.439,-96.6725 1086.6427,-98.3366"/>
<polygon fill="#191970" stroke="#191970" points="1055.4428,-89.702 1045.0098,-91.5467 1054.316,-96.6107 1055.4428,-89.702"/>
</g>
<!-- Node396&#45;&gt;Node394 -->
<g id="edge12" class="edge">
<title>Node396&#45;&gt;Node394</title>
<path fill="none" stroke="#191970" d="M1054.9884,-78.8259C1063.382,-77.457 1072.1965,-76.0195 1080.6749,-74.6367"/>
<polygon fill="#191970" stroke="#191970" points="1054.316,-75.3893 1045.0098,-80.4533 1055.4428,-82.298 1054.316,-75.3893"/>
</g>
<!-- Node398 -->
<g id="node12" class="node">
<title>Node398</title>
<g id="a_node12"><a xlink:href="classEngine.html#a83b7dbeee899b36a13d5b07c7ad87ebc" target="_top" xlink:title="Loads a saved game Loads a saved Game. ">
<polygon fill="none" stroke="#000000" points="440.5,-76.5 440.5,-95.5 546.5,-95.5 546.5,-76.5 440.5,-76.5"/>
<text text-anchor="middle" x="493.5" y="-83.5" font-family="Helvetica,sans-Serif" font-size="10.00" fill="#000000">Engine::loadGame</text>
</a>
</g>
</g>
<!-- Node397&#45;&gt;Node398 -->
<g id="edge14" class="edge">
<title>Node397&#45;&gt;Node398</title>
<path fill="none" stroke="#191970" d="M406.3143,-86C417.8222,-86 429.53,-86 440.4749,-86"/>
<polygon fill="#191970" stroke="#191970" points="406.2771,-82.5001 396.277,-86 406.277,-89.5001 406.2771,-82.5001"/>
</g>
<!-- Node401 -->
<g id="node15" class="node">
<title>Node401</title>
<g id="a_node15"><a xlink:href="classMap.html#a779c939483a52b32a3959b99af95e67a" target="_top" xlink:title="Set the Tile ID Of Node object Also invokes all necessary texture updates (auto&#45;tiling, slopes, ...) ">
<polygon fill="none" stroke="#000000" points="432,-19.5 432,-38.5 555,-38.5 555,-19.5 432,-19.5"/>
<text text-anchor="middle" x="493.5" y="-26.5" font-family="Helvetica,sans-Serif" font-size="10.00" fill="#000000">Map::setTileIDOfNode</text>
</a>
</g>
</g>
<!-- Node397&#45;&gt;Node401 -->
<g id="edge22" class="edge">
<title>Node397&#45;&gt;Node401</title>
<path fill="none" stroke="#191970" d="M369.7904,-73.0715C399.2302,-62.5836 440.0655,-48.0361 466.6322,-38.5716"/>
<polygon fill="#191970" stroke="#191970" points="368.5259,-69.8065 360.2804,-76.4595 370.8751,-76.4005 368.5259,-69.8065"/>
</g>
<!-- Node398&#45;&gt;Node391 -->
<g id="edge20" class="edge">
<title>Node398&#45;&gt;Node391</title>
<path fill="none" stroke="#191970" d="M548.6291,-97.6871C619.5968,-112.7318 741.5559,-138.5865 807.143,-152.4906"/>
<polygon fill="#191970" stroke="#191970" points="549.0497,-94.1985 538.5413,-95.5485 547.598,-101.0463 549.0497,-94.1985"/>
</g>
<!-- Node398&#45;&gt;Node392 -->
<g id="edge21" class="edge">
<title>Node398&#45;&gt;Node392</title>
<path fill="none" stroke="#191970" d="M557.1405,-86C626.5338,-86 736.2452,-86 800.461,-86"/>
<polygon fill="#191970" stroke="#191970" points="556.784,-82.5001 546.784,-86 556.7839,-89.5001 556.784,-82.5001"/>
</g>
<!-- Node399 -->
<g id="node13" class="node">
<title>Node399</title>
<g id="a_node13"><a xlink:href="classEngine.html#a0ba57971ffb5173ecc425461f65a4cd8" target="_top" xlink:title="Quits the game Sets m_running to false and quitting the game. ">
<polygon fill="none" stroke="#000000" points="607,-38.5 607,-57.5 711,-57.5 711,-38.5 607,-38.5"/>
<text text-anchor="middle" x="659" y="-45.5" font-family="Helvetica,sans-Serif" font-size="10.00" fill="#000000">Engine::quitGame</text>
</a>
</g>
</g>
<!-- Node398&#45;&gt;Node399 -->
<g id="edge15" class="edge">
<title>Node398&#45;&gt;Node399</title>
<path fill="none" stroke="#191970" d="M545.3105,-74.1039C568.5733,-68.7626 595.6469,-62.5463 617.5377,-57.5201"/>
<polygon fill="#191970" stroke="#191970" points="544.2258,-70.7618 535.2626,-76.411 545.7923,-77.5843 544.2258,-70.7618"/>
</g>
<!-- Node399&#45;&gt;Node391 -->
<g id="edge18" class="edge">
<title>Node399&#45;&gt;Node391</title>
<path fill="none" stroke="#191970" d="M683.7686,-62.6301C723.8907,-86.3292 802.0043,-132.4689 835.787,-152.4234"/>
<polygon fill="#191970" stroke="#191970" points="685.5133,-59.5958 675.1231,-57.5235 681.9532,-65.6229 685.5133,-59.5958"/>
</g>
<!-- Node399&#45;&gt;Node392 -->
<g id="edge19" class="edge">
<title>Node399&#45;&gt;Node392</title>
<path fill="none" stroke="#191970" d="M717.6016,-59.5381C745.1289,-64.958 777.5476,-71.341 803.6482,-76.4799"/>
<polygon fill="#191970" stroke="#191970" points="718.1898,-56.0868 707.702,-57.589 716.8375,-62.955 718.1898,-56.0868"/>
</g>
<!-- Node400 -->
<g id="node14" class="node">
<title>Node400</title>
<g id="a_node14"><a xlink:href="classEventManager.html#a65ec91fd5016d4f9c4167fb8babed2df" target="_top" xlink:title="EventManager::checkEvents">
<polygon fill="none" stroke="#000000" points="775,-38.5 775,-57.5 929,-57.5 929,-38.5 775,-38.5"/>
<text text-anchor="middle" x="852" y="-45.5" font-family="Helvetica,sans-Serif" font-size="10.00" fill="#000000">EventManager::checkEvents</text>
</a>
</g>
</g>
<!-- Node399&#45;&gt;Node400 -->
<g id="edge16" class="edge">
<title>Node399&#45;&gt;Node400</title>
<path fill="none" stroke="#191970" d="M721.5536,-48C738.5044,-48 757.0568,-48 774.7146,-48"/>
<polygon fill="#191970" stroke="#191970" points="721.2286,-44.5001 711.2286,-48 721.2285,-51.5001 721.2286,-44.5001"/>
</g>
<!-- Node400&#45;&gt;Node396 -->
<g id="edge17" class="edge">
<title>Node400&#45;&gt;Node396</title>
<path fill="none" stroke="#191970" d="M909.2283,-59.7338C919.8154,-62.0415 930.7599,-64.5192 941,-67 952.8713,-69.876 965.7963,-73.3003 977.2721,-76.4446"/>
<polygon fill="#191970" stroke="#191970" points="909.7348,-56.2627 899.222,-57.5786 908.2609,-63.1058 909.7348,-56.2627"/>
</g>
<!-- Node402 -->
<g id="node16" class="node">
<title>Node402</title>
<g id="a_node16"><a xlink:href="classEngine.html#a8a53c5e52734a5158b317851361b83f2" target="_top" xlink:title="Engine::setTileIDOfNode">
<polygon fill="none" stroke="#000000" points="591,-.5 591,-19.5 727,-19.5 727,-.5 591,-.5"/>
<text text-anchor="middle" x="659" y="-7.5" font-family="Helvetica,sans-Serif" font-size="10.00" fill="#000000">Engine::setTileIDOfNode</text>
</a>
</g>
</g>
<!-- Node401&#45;&gt;Node402 -->
<g id="edge23" class="edge">
<title>Node401&#45;&gt;Node402</title>
<path fill="none" stroke="#191970" d="M565.094,-20.7808C573.6681,-19.7964 582.405,-18.7934 590.9273,-17.815"/>
<polygon fill="#191970" stroke="#191970" points="564.6616,-17.3073 555.1261,-21.9251 565.4601,-24.2616 564.6616,-17.3073"/>
</g>
<!-- Node402&#45;&gt;Node400 -->
<g id="edge24" class="edge">
<title>Node402&#45;&gt;Node400</title>
<path fill="none" stroke="#191970" d="M717.6016,-21.5381C745.1289,-26.958 777.5476,-33.341 803.6482,-38.4799"/>
<polygon fill="#191970" stroke="#191970" points="718.1898,-18.0868 707.702,-19.589 716.8375,-24.955 718.1898,-18.0868"/>
</g>
</g>
</svg>
