<?xml version="1.0" encoding="UTF-8" standalone="no"?>
<!DOCTYPE svg PUBLIC "-//W3C//DTD SVG 1.1//EN"
 "http://www.w3.org/Graphics/SVG/1.1/DTD/svg11.dtd">
<!-- Generated by graphviz version 2.40.1 (20161225.0304)
 -->
<!-- Title: Game::run Pages: 1 -->
<svg width="282pt" height="66pt"
 viewBox="0.00 0.00 282.00 66.00" xmlns="http://www.w3.org/2000/svg" xmlns:xlink="http://www.w3.org/1999/xlink">
<g id="graph0" class="graph" transform="scale(1 1) rotate(0) translate(4 62)">
<title>Game::run</title>
<!-- Node218 -->
<g id="node1" class="node">
<title>Node218</title>
<polygon fill="#bfbfbf" stroke="#000000" points="0,-19.5 0,-38.5 68,-38.5 68,-19.5 0,-19.5"/>
<text text-anchor="middle" x="34" y="-26.5" font-family="Helvetica,sans-Serif" font-size="10.00" fill="#000000">Game::run</text>
</g>
<!-- Node219 -->
<g id="node2" class="node">
<title>Node219</title>
<g id="a_node2"><a xlink:href="classGame.html#ad59df6562a58a614fda24622d3715b65" target="_top" xlink:title="Game::Game">
<polygon fill="none" stroke="#000000" points="110,-38.5 110,-57.5 191,-57.5 191,-38.5 110,-38.5"/>
<text text-anchor="middle" x="150.5" y="-45.5" font-family="Helvetica,sans-Serif" font-size="10.00" fill="#000000">Game::Game</text>
</a>
</g>
</g>
<!-- Node218&#45;&gt;Node219 -->
<g id="edge1" class="edge">
<title>Node218&#45;&gt;Node219</title>
<path fill="none" stroke="#191970" d="M78.0985,-36.192C88.4513,-37.8805 99.439,-39.6725 109.6427,-41.3366"/>
<polygon fill="#191970" stroke="#191970" points="78.4428,-32.702 68.0098,-34.5467 77.316,-39.6107 78.4428,-32.702"/>
</g>
<!-- Node220 -->
<g id="node3" class="node">
<title>Node220</title>
<g id="a_node3"><a xlink:href="main_8cxx.html#af582d708d899e67ead623eac34a22387" target="_top" xlink:title="protected_main">
<polygon fill="none" stroke="#000000" points="104,-.5 104,-19.5 197,-19.5 197,-.5 104,-.5"/>
<text text-anchor="middle" x="150.5" y="-7.5" font-family="Helvetica,sans-Serif" font-size="10.00" fill="#000000">protected_main</text>
</a>
</g>
</g>
<!-- Node218&#45;&gt;Node220 -->
<g id="edge2" class="edge">
<title>Node218&#45;&gt;Node220</title>
<path fill="none" stroke="#191970" d="M77.9884,-21.8259C86.382,-20.457 95.1965,-19.0195 103.6749,-17.6367"/>
<polygon fill="#191970" stroke="#191970" points="77.316,-18.3893 68.0098,-23.4533 78.4428,-25.298 77.316,-18.3893"/>
</g>
<!-- Node221 -->
<g id="node4" class="node">
<title>Node221</title>
<g id="a_node4"><a xlink:href="main_8cxx.html#a3c04138a5bfe5d72780bb7e82a18e627" target="_top" xlink:title="main">
<polygon fill="none" stroke="#000000" points="233,-.5 233,-19.5 274,-19.5 274,-.5 233,-.5"/>
<text text-anchor="middle" x="253.5" y="-7.5" font-family="Helvetica,sans-Serif" font-size="10.00" fill="#000000">main</text>
</a>
</g>
</g>
<!-- Node220&#45;&gt;Node221 -->
<g id="edge3" class="edge">
<title>Node220&#45;&gt;Node221</title>
<path fill="none" stroke="#191970" d="M207.2133,-10C216.4322,-10 225.4259,-10 232.9965,-10"/>
<polygon fill="#191970" stroke="#191970" points="207.1782,-6.5001 197.1782,-10 207.1781,-13.5001 207.1782,-6.5001"/>
</g>
</g>
</svg>
