<?xml version="1.0" encoding="UTF-8" standalone="no"?>
<!DOCTYPE svg PUBLIC "-//W3C//DTD SVG 1.1//EN"
 "http://www.w3.org/Graphics/SVG/1.1/DTD/svg11.dtd">
<!-- Generated by graphviz version 2.40.1 (20161225.0304)
 -->
<!-- Title: Engine::setTileIDOfNode Pages: 1 -->
<!--zoomable 370 -->
<svg id="main" version="1.1" xmlns="http://www.w3.org/2000/svg" xmlns:xlink="http://www.w3.org/1999/xlink" xml:space="preserve" onload="init(evt)">
<style type="text/css"><![CDATA[
.edge:hover path { stroke: red; }
.edge:hover polygon { stroke: red; fill: red; }
]]></style>
<script type="text/javascript"><![CDATA[
var edges = document.getElementsByTagName('g');
if (edges && edges.length) {
  for (var i=0;i<edges.length;i++) {
    if (edges[i].id.substr(0,4)=='edge') {
      edges[i].setAttribute('class','edge');
    }
  }
}
]]></script>
        <defs>
                <circle id="rim" cx="0" cy="0" r="7"/>
                <circle id="rim2" cx="0" cy="0" r="3.5"/>
                <g id="zoomPlus">
                        <use xlink:href="#rim" fill="#404040">
                                <set attributeName="fill" to="#808080" begin="zoomplus.mouseover" end="zoomplus.mouseout"/>
                        </use>
                        <path d="M-4,0h8M0,-4v8" fill="none" stroke="white" stroke-width="1.5" pointer-events="none"/>
                </g>
                <g id="zoomMin">
                        <use xlink:href="#rim" fill="#404040">
                                <set attributeName="fill" to="#808080" begin="zoomminus.mouseover" end="zoomminus.mouseout"/>
                        </use>
                        <path d="M-4,0h8" fill="none" stroke="white" stroke-width="1.5" pointer-events="none"/>
                </g>
                <g id="dirArrow">
                        <path fill="none" stroke="white" stroke-width="1.5" d="M0,-3.0v7 M-2.5,-0.5L0,-3.0L2.5,-0.5"/>
                </g>
               <g id="resetDef">
                       <use xlink:href="#rim2" fill="#404040">
                               <set attributeName="fill" to="#808080" begin="reset.mouseover" end="reset.mouseout"/>
                       </use>
               </g>
        </defs>

<script type="text/javascript">
var viewWidth = 1337;
var viewHeight = 370;
var sectionId = 'dynsection-17';
</script>
<script xlink:href="svgpan.js"/>
<svg id="graph" class="graph">
<g id="viewport">
<title>Engine::setTileIDOfNode</title>
<!-- Node157 -->
<g id="node1" class="node">
<title>Node157</title>
<polygon fill="#bfbfbf" stroke="#000000" points="0,-67.4373 0,-86.4373 136,-86.4373 136,-67.4373 0,-67.4373"/>
<text text-anchor="middle" x="68" y="-74.4373" font-family="Helvetica,sans-Serif" font-size="10.00" fill="#000000">Engine::setTileIDOfNode</text>
</g>
<!-- Node158 -->
<g id="node2" class="node">
<title>Node158</title>
<g id="a_node2"><a xlink:href="classMap.html#a779c939483a52b32a3959b99af95e67a" target="_top" xlink:title="Set the Tile ID Of Node object Also invokes all necessary texture updates (auto&#45;tiling, slopes, ...) ">
<polygon fill="none" stroke="#000000" points="173.5,-124.4373 173.5,-143.4373 296.5,-143.4373 296.5,-124.4373 173.5,-124.4373"/>
<text text-anchor="middle" x="235" y="-131.4373" font-family="Helvetica,sans-Serif" font-size="10.00" fill="#000000">Map::setTileIDOfNode</text>
</a>
</g>
</g>
<!-- Node157&#45;&gt;Node158 -->
<g id="edge1" class="edge">
<title>Node157&#45;&gt;Node158</title>
<path fill="none" stroke="#191970" d="M95.952,-86.4778C123.7688,-95.9722 166.6378,-110.6041 197.4212,-121.111"/>
<polygon fill="#191970" stroke="#191970" points="196.3622,-124.4478 206.9568,-124.3657 198.6234,-117.823 196.3622,-124.4478"/>
</g>
<!-- Node180 -->
<g id="node24" class="node">
<title>Node180</title>
<g id="a_node24"><a xlink:href="classEngine.html#addfc50e21da201426444d8b4a07b3976" target="_top" xlink:title="Engine::demolishNode">
<polygon fill="none" stroke="#000000" points="172,-48.4373 172,-67.4373 298,-67.4373 298,-48.4373 172,-48.4373"/>
<text text-anchor="middle" x="235" y="-55.4373" font-family="Helvetica,sans-Serif" font-size="10.00" fill="#000000">Engine::demolishNode</text>
</a>
</g>
</g>
<!-- Node157&#45;&gt;Node180 -->
<g id="edge31" class="edge">
<title>Node157&#45;&gt;Node180</title>
<path fill="none" stroke="#191970" d="M136.4071,-69.1545C144.7322,-68.2073 153.2643,-67.2366 161.6575,-66.2817"/>
<polygon fill="#191970" stroke="#191970" points="162.2629,-69.7355 171.8031,-65.1274 161.4715,-62.7803 162.2629,-69.7355"/>
</g>
<!-- Node159 -->
<g id="node3" class="node">
<title>Node159</title>
<g id="a_node3"><a xlink:href="classMap.html#ab33e202107202756f4e9f196f0037d99" target="_top" xlink:title="Map::checkTileIDIsEmpty">
<polygon fill="none" stroke="#000000" points="334.5,-295.4373 334.5,-314.4373 474.5,-314.4373 474.5,-295.4373 334.5,-295.4373"/>
<text text-anchor="middle" x="404.5" y="-302.4373" font-family="Helvetica,sans-Serif" font-size="10.00" fill="#000000">Map::checkTileIDIsEmpty</text>
</a>
</g>
</g>
<!-- Node158&#45;&gt;Node159 -->
<g id="edge2" class="edge">
<title>Node158&#45;&gt;Node159</title>
<path fill="none" stroke="#191970" d="M238.9329,-143.7785C249.9074,-170.0093 283.4163,-242.2346 334,-280.9373 339.5193,-285.1603 345.8288,-288.6679 352.3534,-291.5745"/>
<polygon fill="#191970" stroke="#191970" points="351.4143,-294.9677 361.9996,-295.4161 354.0043,-288.4645 351.4143,-294.9677"/>
</g>
<!-- Node160 -->
<g id="node4" class="node">
<title>Node160</title>
<g id="a_node4"><a xlink:href="classMap.html#a59d21f2688713fbcfe320eb1b24405ca" target="_top" xlink:title="Update mapNode and its adjacent tiles Updates mapNode height information, draws slopes for adjacent t...">
<polygon fill="none" stroke="#000000" points="835,-219.4373 835,-238.4373 998,-238.4373 998,-219.4373 835,-219.4373"/>
<text text-anchor="middle" x="916.5" y="-226.4373" font-family="Helvetica,sans-Serif" font-size="10.00" fill="#000000">Map::updateNeighborsOfNode</text>
</a>
</g>
</g>
<!-- Node158&#45;&gt;Node160 -->
<g id="edge3" class="edge">
<title>Node158&#45;&gt;Node160</title>
<path fill="none" stroke="#191970" d="M259.3101,-143.5776C279.2893,-151.4257 308.3738,-162.6799 334,-171.9373 412.1223,-200.159 429.9441,-213.7853 511,-231.9373 572.1135,-245.6233 588.4741,-244.376 651,-247.9373 716.6713,-251.6778 733.4334,-253.2042 799,-247.9373 818.5552,-246.3665 839.766,-243.3477 858.7151,-240.1709"/>
<polygon fill="#191970" stroke="#191970" points="859.4304,-243.5992 868.6899,-238.4502 858.2405,-236.7011 859.4304,-243.5992"/>
</g>
<!-- Node163 -->
<g id="node7" class="node">
<title>Node163</title>
<g id="a_node7"><a xlink:href="classMap.html#a05e7d896dc5062af07c9b838600a068d" target="_top" xlink:title="Demolish a node Invokes the tiles demolish function. ">
<polygon fill="none" stroke="#000000" points="1216,-129.4373 1216,-148.4373 1329,-148.4373 1329,-129.4373 1216,-129.4373"/>
<text text-anchor="middle" x="1272.5" y="-136.4373" font-family="Helvetica,sans-Serif" font-size="10.00" fill="#000000">Map::demolishNode</text>
</a>
</g>
</g>
<!-- Node158&#45;&gt;Node163 -->
<g id="edge16" class="edge">
<title>Node158&#45;&gt;Node163</title>
<path fill="none" stroke="#191970" d="M296.5533,-124.5956C352.4163,-116.3242 437.1048,-104.2998 511,-95.9373 605.8796,-85.2001 629.5148,-76.9373 725,-76.9373 725,-76.9373 725,-76.9373 916.5,-76.9373 1033.9152,-76.9373 1066.3392,-66.4831 1180,-95.9373 1204.0874,-102.1794 1229.5989,-114.523 1247.715,-124.39"/>
<polygon fill="#191970" stroke="#191970" points="1246.0305,-127.458 1256.4677,-129.2786 1249.4439,-121.3466 1246.0305,-127.458"/>
</g>
<!-- Node168 -->
<g id="node12" class="node">
<title>Node168</title>
<g id="a_node12"><a xlink:href="classMap.html#ab69938ac0e56eb0da1d1701221f3d185" target="_top" xlink:title="Refresh all the map tile textures. ">
<polygon fill="none" stroke="#000000" points="366,-67.4373 366,-86.4373 443,-86.4373 443,-67.4373 366,-67.4373"/>
<text text-anchor="middle" x="404.5" y="-74.4373" font-family="Helvetica,sans-Serif" font-size="10.00" fill="#000000">Map::refresh</text>
</a>
</g>
</g>
<!-- Node158&#45;&gt;Node168 -->
<g id="edge17" class="edge">
<title>Node158&#45;&gt;Node168</title>
<path fill="none" stroke="#191970" d="M263.3705,-124.3968C291.6037,-114.9025 335.1144,-100.2705 366.3587,-89.7636"/>
<polygon fill="#191970" stroke="#191970" points="367.6742,-93.0139 376.037,-86.509 365.4429,-86.379 367.6742,-93.0139"/>
</g>
<!-- Node169 -->
<g id="node13" class="node">
<title>Node169</title>
<g id="a_node13"><a xlink:href="classMap.html#ae48ef4fa6a6f73d886211bca59123151" target="_top" xlink:title="Map::saveMapToFile">
<polygon fill="none" stroke="#000000" points="348,-29.4373 348,-48.4373 461,-48.4373 461,-29.4373 348,-29.4373"/>
<text text-anchor="middle" x="404.5" y="-36.4373" font-family="Helvetica,sans-Serif" font-size="10.00" fill="#000000">Map::saveMapToFile</text>
</a>
</g>
</g>
<!-- Node158&#45;&gt;Node169 -->
<g id="edge18" class="edge">
<title>Node158&#45;&gt;Node169</title>
<path fill="none" stroke="#191970" d="M244.7824,-124.2624C261.5934,-108.1667 297.6744,-75.8888 334,-57.9373 338.8298,-55.5505 343.9991,-53.4325 349.2619,-51.5599"/>
<polygon fill="#191970" stroke="#191970" points="350.3646,-54.8818 358.783,-48.4491 348.1905,-48.2279 350.3646,-54.8818"/>
</g>
<!-- Node171 -->
<g id="node15" class="node">
<title>Node171</title>
<g id="a_node15"><a xlink:href="classMap.html#afefe996cc1f62b61ec60d0ae415953bf" target="_top" xlink:title="Map::loadMapFromFile">
<polygon fill="none" stroke="#000000" points="342,-143.4373 342,-162.4373 467,-162.4373 467,-143.4373 342,-143.4373"/>
<text text-anchor="middle" x="404.5" y="-150.4373" font-family="Helvetica,sans-Serif" font-size="10.00" fill="#000000">Map::loadMapFromFile</text>
</a>
</g>
</g>
<!-- Node158&#45;&gt;Node171 -->
<g id="edge20" class="edge">
<title>Node158&#45;&gt;Node171</title>
<path fill="none" stroke="#191970" d="M296.6729,-140.8505C308.0206,-142.1225 319.9658,-143.4615 331.6066,-144.7664"/>
<polygon fill="#191970" stroke="#191970" points="331.4077,-148.2659 341.7354,-145.9018 332.1875,-141.3095 331.4077,-148.2659"/>
</g>
<!-- Node179 -->
<g id="node23" class="node">
<title>Node179</title>
<g id="a_node23"><a xlink:href="classMap.html#a0241b997090783e5d13667114731a592" target="_top" xlink:title="Debug MapNodeData to Console Used as Tile&#45;Inspector until we implement a GUI variant. ">
<polygon fill="none" stroke="#000000" points="334,-333.4373 334,-352.4373 475,-352.4373 475,-333.4373 334,-333.4373"/>
<text text-anchor="middle" x="404.5" y="-340.4373" font-family="Helvetica,sans-Serif" font-size="10.00" fill="#000000">Map::getNodeInformation</text>
</a>
</g>
</g>
<!-- Node158&#45;&gt;Node179 -->
<g id="edge30" class="edge">
<title>Node158&#45;&gt;Node179</title>
<path fill="none" stroke="#191970" d="M237.1093,-143.5759C244.4593,-174.8081 271.9493,-274.0819 334,-323.9373 336.2697,-325.761 338.6997,-327.4103 341.2429,-328.902"/>
<polygon fill="#191970" stroke="#191970" points="339.7456,-332.0663 350.2574,-333.3901 342.8655,-325.8 339.7456,-332.0663"/>
</g>
<!-- Node161 -->
<g id="node5" class="node">
<title>Node161</title>
<g id="a_node5"><a xlink:href="classMap.html#aab37e4a52faf81e9b696b8cf1bd9a690" target="_top" xlink:title="Get neighbor MapNode Objects Stores pointers to the neighboring nodes of the given coordinates in the...">
<polygon fill="none" stroke="#000000" points="1053,-249.4373 1053,-268.4373 1161,-268.4373 1161,-249.4373 1053,-249.4373"/>
<text text-anchor="middle" x="1107" y="-256.4373" font-family="Helvetica,sans-Serif" font-size="10.00" fill="#000000">Map::getNeighbors</text>
</a>
</g>
</g>
<!-- Node160&#45;&gt;Node161 -->
<g id="edge4" class="edge">
<title>Node160&#45;&gt;Node161</title>
<path fill="none" stroke="#191970" d="M977.0371,-238.4707C998.0108,-241.7737 1021.5859,-245.4863 1042.841,-248.8335"/>
<polygon fill="#191970" stroke="#191970" points="1042.3226,-252.295 1052.7454,-250.3933 1043.4116,-245.3802 1042.3226,-252.295"/>
</g>
<!-- Node162 -->
<g id="node6" class="node">
<title>Node162</title>
<g id="a_node6"><a xlink:href="classMap.html#a0ff55eb041cdf29aa582a21145319ce0" target="_top" xlink:title="Get elevated neighbor positions in a bitmask Checks all neighboring tiles and returns the elevated ne...">
<polygon fill="none" stroke="#000000" points="1034,-199.9373 1034,-229.9373 1180,-229.9373 1180,-199.9373 1034,-199.9373"/>
<text text-anchor="start" x="1042" y="-217.9373" font-family="Helvetica,sans-Serif" font-size="10.00" fill="#000000">Map::getElevatedNeighbor</text>
<text text-anchor="middle" x="1107" y="-206.9373" font-family="Helvetica,sans-Serif" font-size="10.00" fill="#000000">Bitmask</text>
</a>
</g>
</g>
<!-- Node160&#45;&gt;Node162 -->
<g id="edge5" class="edge">
<title>Node160&#45;&gt;Node162</title>
<path fill="none" stroke="#191970" d="M998.1182,-222.9391C1006.6831,-222.3097 1015.3981,-221.6692 1023.9785,-221.0386"/>
<polygon fill="#191970" stroke="#191970" points="1024.2557,-224.5278 1033.9723,-220.3042 1023.7426,-217.5466 1024.2557,-224.5278"/>
</g>
<!-- Node160&#45;&gt;Node163 -->
<g id="edge6" class="edge">
<title>Node160&#45;&gt;Node163</title>
<path fill="none" stroke="#191970" d="M928.3935,-219.2834C949.4788,-208.1787 994.8802,-192.5004 1034,-181.9373 1091.4862,-166.415 1157.7148,-152.2672 1205.7723,-144.1491"/>
<polygon fill="#191970" stroke="#191970" points="1206.442,-147.586 1215.7417,-142.5099 1205.3063,-140.6787 1206.442,-147.586"/>
</g>
<!-- Node164 -->
<g id="node8" class="node">
<title>Node164</title>
<g id="a_node8"><a xlink:href="classMap.html#a392940f84796653b8e811ed8dc296c84" target="_top" xlink:title="Get a bitmask that represents same&#45;tile neighbors Checks all neighboring tiles and returns the elevat...">
<polygon fill="none" stroke="#000000" points="1036.5,-287.9373 1036.5,-317.9373 1177.5,-317.9373 1177.5,-287.9373 1036.5,-287.9373"/>
<text text-anchor="start" x="1044.5" y="-305.9373" font-family="Helvetica,sans-Serif" font-size="10.00" fill="#000000">Map::getNeighboringTiles</text>
<text text-anchor="middle" x="1107" y="-294.9373" font-family="Helvetica,sans-Serif" font-size="10.00" fill="#000000">Bitmask</text>
</a>
</g>
</g>
<!-- Node160&#45;&gt;Node164 -->
<g id="edge8" class="edge">
<title>Node160&#45;&gt;Node164</title>
<path fill="none" stroke="#191970" d="M938.4174,-238.5806C961.8901,-248.7896 1000.3152,-265.1612 1034,-277.9373 1039.8361,-280.1509 1045.966,-282.3868 1052.0895,-284.5637"/>
<polygon fill="#191970" stroke="#191970" points="1051.0687,-287.9147 1061.6636,-287.9241 1053.3871,-281.3097 1051.0687,-287.9147"/>
</g>
<!-- Node165 -->
<g id="node9" class="node">
<title>Node165</title>
<g id="a_node9"><a xlink:href="classMap.html#aba5154a4d917900679a3c0f7ec701561" target="_top" xlink:title="Increase Height Increases the height of the node and checks the surrounding tiles. Either draw a slope sprite or elevate the tile if necessary. ">
<polygon fill="none" stroke="#000000" points="1049,-337.4373 1049,-356.4373 1165,-356.4373 1165,-337.4373 1049,-337.4373"/>
<text text-anchor="middle" x="1107" y="-344.4373" font-family="Helvetica,sans-Serif" font-size="10.00" fill="#000000">Map::increaseHeight</text>
</a>
</g>
</g>
<!-- Node160&#45;&gt;Node165 -->
<g id="edge9" class="edge">
<title>Node160&#45;&gt;Node165</title>
<path fill="none" stroke="#191970" d="M930.4855,-238.5413C951.0415,-257.3383 991.5905,-296.999 1034,-318.9373 1048.1334,-326.2485 1065.2959,-330.8997 1079.4281,-334.7313"/>
<polygon fill="#191970" stroke="#191970" points="1078.5252,-338.1129 1089.0962,-337.4027 1080.3896,-331.3657 1078.5252,-338.1129"/>
</g>
<!-- Node167 -->
<g id="node11" class="node">
<title>Node167</title>
<g id="a_node11"><a xlink:href="classMap.html#afb8cc864df90d273a5074872d635dc40" target="_top" xlink:title="Decrease Height Decreases the height of the node and checks the surrounding tiles. Either draw a slope sprite or lower the tile if necessary. ">
<polygon fill="none" stroke="#000000" points="1047.5,-105.4373 1047.5,-124.4373 1166.5,-124.4373 1166.5,-105.4373 1047.5,-105.4373"/>
<text text-anchor="middle" x="1107" y="-112.4373" font-family="Helvetica,sans-Serif" font-size="10.00" fill="#000000">Map::decreaseHeight</text>
</a>
</g>
</g>
<!-- Node160&#45;&gt;Node167 -->
<g id="edge13" class="edge">
<title>Node160&#45;&gt;Node167</title>
<path fill="none" stroke="#191970" d="M923.9281,-219.1321C938.5406,-205.8246 971.8724,-183.899 998,-162.9373 1014.93,-149.3547 1015.2704,-140.9061 1034,-129.9373 1035.3311,-129.1578 1036.6908,-128.3997 1038.074,-127.6636"/>
<polygon fill="#191970" stroke="#191970" points="1039.9961,-130.6226 1047.4855,-123.1287 1036.9575,-124.3165 1039.9961,-130.6226"/>
</g>
<!-- Node163&#45;&gt;Node160 -->
<g id="edge7" class="edge">
<title>Node163&#45;&gt;Node160</title>
<path fill="none" stroke="#191970" d="M1249.2945,-148.4732C1206.4455,-160.276 1112.1452,-178.8367 1034,-199.9373 1015.6626,-204.8888 995.945,-210.9641 977.9986,-216.4195"/>
<polygon fill="#191970" stroke="#191970" points="976.7882,-213.129 968.2306,-219.3754 978.8157,-219.8289 976.7882,-213.129"/>
</g>
<!-- Node165&#45;&gt;Node160 -->
<g id="edge12" class="edge">
<title>Node165&#45;&gt;Node160</title>
<path fill="none" stroke="#191970" d="M1048.7267,-343.29C1043.6336,-341.4627 1038.6527,-339.3441 1034,-336.9373 989.4767,-313.9055 947.004,-271.3406 927.563,-246.7708"/>
<polygon fill="#191970" stroke="#191970" points="930.2607,-244.5333 921.4815,-238.6024 924.646,-248.7137 930.2607,-244.5333"/>
</g>
<!-- Node165&#45;&gt;Node163 -->
<g id="edge11" class="edge">
<title>Node165&#45;&gt;Node163</title>
<path fill="none" stroke="#191970" d="M1163.9917,-337.4113C1169.7573,-334.9372 1175.2339,-331.8321 1180,-327.9373 1235.0966,-282.9127 1259.8998,-196.9945 1268.6124,-158.4725"/>
<polygon fill="#191970" stroke="#191970" points="1272.0688,-159.0458 1270.7358,-148.5351 1265.2234,-157.583 1272.0688,-159.0458"/>
</g>
<!-- Node166 -->
<g id="node10" class="node">
<title>Node166</title>
<g id="a_node10"><a xlink:href="classSingleton.html#af5cb1e5749949e2b68416cfb8d378044" target="_top" xlink:title="Get an instance of the singleton. ">
<polygon fill="none" stroke="#000000" points="1216,-331.9373 1216,-361.9373 1329,-361.9373 1329,-331.9373 1216,-331.9373"/>
<text text-anchor="start" x="1224" y="-349.9373" font-family="Helvetica,sans-Serif" font-size="10.00" fill="#000000">Singleton&lt; Settings</text>
<text text-anchor="middle" x="1272.5" y="-338.9373" font-family="Helvetica,sans-Serif" font-size="10.00" fill="#000000"> &gt;::instance</text>
</a>
</g>
</g>
<!-- Node165&#45;&gt;Node166 -->
<g id="edge10" class="edge">
<title>Node165&#45;&gt;Node166</title>
<path fill="none" stroke="#191970" d="M1165.3491,-346.9373C1178.4012,-346.9373 1192.3429,-346.9373 1205.7073,-346.9373"/>
<polygon fill="#191970" stroke="#191970" points="1205.7903,-350.4374 1215.7903,-346.9373 1205.7903,-343.4374 1205.7903,-350.4374"/>
</g>
<!-- Node167&#45;&gt;Node160 -->
<g id="edge15" class="edge">
<title>Node167&#45;&gt;Node160</title>
<path fill="none" stroke="#191970" d="M1092.5269,-124.464C1077.2287,-130.223 1052.7647,-136.948 1034,-147.9373 1015.2704,-158.9061 1014.93,-167.3547 998,-180.9373 983.3895,-192.6591 966.5263,-204.6822 951.9433,-213.9614"/>
<polygon fill="#191970" stroke="#191970" points="949.8709,-211.1274 943.1985,-219.3572 953.5467,-217.0847 949.8709,-211.1274"/>
</g>
<!-- Node167&#45;&gt;Node163 -->
<g id="edge14" class="edge">
<title>Node167&#45;&gt;Node163</title>
<path fill="none" stroke="#191970" d="M1166.7493,-123.6019C1179.3884,-125.4347 1192.8051,-127.3804 1205.6864,-129.2483"/>
<polygon fill="#191970" stroke="#191970" points="1205.4783,-132.7547 1215.8771,-130.7261 1206.4829,-125.8271 1205.4783,-132.7547"/>
</g>
<!-- Node170 -->
<g id="node14" class="node">
<title>Node170</title>
<g id="a_node14"><a xlink:href="compression_8hxx.html#a2b136078ca5d23222e9c24092a9918fa" target="_top" xlink:title="Compress a given string with zlib Compress the given string. Returns an empty string if something wen...">
<polygon fill="none" stroke="#000000" points="517,-29.4373 517,-48.4373 609,-48.4373 609,-29.4373 517,-29.4373"/>
<text text-anchor="middle" x="563" y="-36.4373" font-family="Helvetica,sans-Serif" font-size="10.00" fill="#000000">compressString</text>
</a>
</g>
</g>
<!-- Node169&#45;&gt;Node170 -->
<g id="edge19" class="edge">
<title>Node169&#45;&gt;Node170</title>
<path fill="none" stroke="#191970" d="M461.2744,-38.9373C476.0698,-38.9373 492.0046,-38.9373 506.7716,-38.9373"/>
<polygon fill="#191970" stroke="#191970" points="506.78,-42.4374 516.78,-38.9373 506.7799,-35.4374 506.78,-42.4374"/>
</g>
<!-- Node172 -->
<g id="node16" class="node">
<title>Node172</title>
<g id="a_node16"><a xlink:href="compression_8hxx.html#a25f341059256700f2f3ffd62d8113956" target="_top" xlink:title="decompresses given string Decompresses a given string. ">
<polygon fill="none" stroke="#000000" points="511,-143.4373 511,-162.4373 615,-162.4373 615,-143.4373 511,-143.4373"/>
<text text-anchor="middle" x="563" y="-150.4373" font-family="Helvetica,sans-Serif" font-size="10.00" fill="#000000">decompressString</text>
</a>
</g>
</g>
<!-- Node171&#45;&gt;Node172 -->
<g id="edge21" class="edge">
<title>Node171&#45;&gt;Node172</title>
<path fill="none" stroke="#191970" d="M467.1434,-152.9373C478.0942,-152.9373 489.4879,-152.9373 500.4366,-152.9373"/>
<polygon fill="#191970" stroke="#191970" points="500.7684,-156.4374 510.7684,-152.9373 500.7683,-149.4374 500.7684,-156.4374"/>
</g>
<!-- Node173 -->
<g id="node17" class="node">
<title>Node173</title>
<g id="a_node17"><a xlink:href="classMap.html#a1197ab65e40dd20b891ba165471e3163" target="_top" xlink:title="Map::Map">
<polygon fill="none" stroke="#000000" points="531.5,-105.4373 531.5,-124.4373 594.5,-124.4373 594.5,-105.4373 531.5,-105.4373"/>
<text text-anchor="middle" x="563" y="-112.4373" font-family="Helvetica,sans-Serif" font-size="10.00" fill="#000000">Map::Map</text>
</a>
</g>
</g>
<!-- Node171&#45;&gt;Node173 -->
<g id="edge22" class="edge">
<title>Node171&#45;&gt;Node173</title>
<path fill="none" stroke="#191970" d="M444.4962,-143.3483C468.0078,-137.7115 497.6861,-130.5962 521.4604,-124.8964"/>
<polygon fill="#191970" stroke="#191970" points="522.3442,-128.2837 531.2526,-122.5487 520.7122,-121.4766 522.3442,-128.2837"/>
</g>
<!-- Node174 -->
<g id="node18" class="node">
<title>Node174</title>
<g id="a_node18"><a xlink:href="classMap.html#a482ac34426e8aa66abb46f60ec329402" target="_top" xlink:title="Initialize the Map with node objects Initialize the Map with node objects. ">
<polygon fill="none" stroke="#000000" points="523.5,-181.4373 523.5,-200.4373 602.5,-200.4373 602.5,-181.4373 523.5,-181.4373"/>
<text text-anchor="middle" x="563" y="-188.4373" font-family="Helvetica,sans-Serif" font-size="10.00" fill="#000000">Map::initMap</text>
</a>
</g>
</g>
<!-- Node171&#45;&gt;Node174 -->
<g id="edge23" class="edge">
<title>Node171&#45;&gt;Node174</title>
<path fill="none" stroke="#191970" d="M444.4962,-162.5263C465.412,-167.5408 491.2081,-173.7254 513.3864,-179.0426"/>
<polygon fill="#191970" stroke="#191970" points="512.7509,-182.4893 523.2914,-181.4173 514.383,-175.6822 512.7509,-182.4893"/>
</g>
<!-- Node178 -->
<g id="node22" class="node">
<title>Node178</title>
<g id="a_node22"><a xlink:href="classMap.html#a481b37ba71ef0e51e836fc42805762dd" target="_top" xlink:title="Update all mapNodes Updates all mapNode and its adjacent tiles regarding height information, draws slopes for adjacent tiles and sets tiling for mapNode sprite if applicable. ">
<polygon fill="none" stroke="#000000" points="665,-219.4373 665,-238.4373 785,-238.4373 785,-219.4373 665,-219.4373"/>
<text text-anchor="middle" x="725" y="-226.4373" font-family="Helvetica,sans-Serif" font-size="10.00" fill="#000000">Map::updateAllNodes</text>
</a>
</g>
</g>
<!-- Node171&#45;&gt;Node178 -->
<g id="edge29" class="edge">
<title>Node171&#45;&gt;Node178</title>
<path fill="none" stroke="#191970" d="M418.1737,-162.6148C437.7141,-175.8758 475.2298,-199.2636 511,-209.9373 557.5569,-223.8298 612.1407,-228.5037 654.5289,-229.7436"/>
<polygon fill="#191970" stroke="#191970" points="654.6745,-233.2478 664.7539,-229.9835 654.8388,-226.2498 654.6745,-233.2478"/>
</g>
<!-- Node175 -->
<g id="node19" class="node">
<title>Node175</title>
<g id="a_node19"><a xlink:href="classMapLayers.html#a54ce1eeef2a8998a728ac7074efe8787" target="_top" xlink:title="Enable Drawing Layer Enable Drawing Layer (use bitwise OR to add layer) ">
<polygon fill="none" stroke="#000000" points="657.5,-181.4373 657.5,-200.4373 792.5,-200.4373 792.5,-181.4373 657.5,-181.4373"/>
<text text-anchor="middle" x="725" y="-188.4373" font-family="Helvetica,sans-Serif" font-size="10.00" fill="#000000">MapLayers::enableLayer</text>
</a>
</g>
</g>
<!-- Node174&#45;&gt;Node175 -->
<g id="edge24" class="edge">
<title>Node174&#45;&gt;Node175</title>
<path fill="none" stroke="#191970" d="M602.6297,-190.9373C616.1535,-190.9373 631.7805,-190.9373 647.2493,-190.9373"/>
<polygon fill="#191970" stroke="#191970" points="647.368,-194.4374 657.3679,-190.9373 647.3679,-187.4374 647.368,-194.4374"/>
</g>
<!-- Node176 -->
<g id="node20" class="node">
<title>Node176</title>
<g id="a_node20"><a xlink:href="classTerrainGenerator.html#adcc251757a1f3a06471a49f17886b8ce" target="_top" xlink:title="TerrainGenerator::generate\lTerrain">
<polygon fill="none" stroke="#000000" points="651,-131.9373 651,-161.9373 799,-161.9373 799,-131.9373 651,-131.9373"/>
<text text-anchor="start" x="659" y="-149.9373" font-family="Helvetica,sans-Serif" font-size="10.00" fill="#000000">TerrainGenerator::generate</text>
<text text-anchor="middle" x="725" y="-138.9373" font-family="Helvetica,sans-Serif" font-size="10.00" fill="#000000">Terrain</text>
</a>
</g>
</g>
<!-- Node174&#45;&gt;Node176 -->
<g id="edge25" class="edge">
<title>Node174&#45;&gt;Node176</title>
<path fill="none" stroke="#191970" d="M598.1516,-181.39C616.1466,-176.5024 638.6432,-170.3923 659.674,-164.6802"/>
<polygon fill="#191970" stroke="#191970" points="660.7991,-168.0015 669.5321,-162.0027 658.9643,-161.2462 660.7991,-168.0015"/>
</g>
<!-- Node174&#45;&gt;Node178 -->
<g id="edge27" class="edge">
<title>Node174&#45;&gt;Node178</title>
<path fill="none" stroke="#191970" d="M602.6297,-200.2332C624.2528,-205.3053 651.2527,-211.6386 674.3855,-217.0648"/>
<polygon fill="#191970" stroke="#191970" points="673.8362,-220.5309 684.3713,-219.4071 675.4349,-213.7158 673.8362,-220.5309"/>
</g>
<!-- Node177 -->
<g id="node21" class="node">
<title>Node177</title>
<g id="a_node21"><a xlink:href="classTerrainGenerator.html#ac94cfaeb9dc89453018399361da5174a" target="_top" xlink:title="TerrainGenerator::loadTerrain\lDataFromJSON">
<polygon fill="none" stroke="#000000" points="837.5,-131.9373 837.5,-161.9373 995.5,-161.9373 995.5,-131.9373 837.5,-131.9373"/>
<text text-anchor="start" x="845.5" y="-149.9373" font-family="Helvetica,sans-Serif" font-size="10.00" fill="#000000">TerrainGenerator::loadTerrain</text>
<text text-anchor="middle" x="916.5" y="-138.9373" font-family="Helvetica,sans-Serif" font-size="10.00" fill="#000000">DataFromJSON</text>
</a>
</g>
</g>
<!-- Node176&#45;&gt;Node177 -->
<g id="edge26" class="edge">
<title>Node176&#45;&gt;Node177</title>
<path fill="none" stroke="#191970" d="M799.0389,-146.9373C808.2368,-146.9373 817.7168,-146.9373 827.1147,-146.9373"/>
<polygon fill="#191970" stroke="#191970" points="827.263,-150.4374 837.263,-146.9373 827.2629,-143.4374 827.263,-150.4374"/>
</g>
<!-- Node178&#45;&gt;Node160 -->
<g id="edge28" class="edge">
<title>Node178&#45;&gt;Node160</title>
<path fill="none" stroke="#191970" d="M785.0664,-228.9373C797.6532,-228.9373 811.2,-228.9373 824.6442,-228.9373"/>
<polygon fill="#191970" stroke="#191970" points="824.8876,-232.4374 834.8876,-228.9373 824.8875,-225.4374 824.8876,-232.4374"/>
</g>
<!-- Node180&#45;&gt;Node163 -->
<g id="edge32" class="edge">
<title>Node180&#45;&gt;Node163</title>
<path fill="none" stroke="#191970" d="M254.9495,-48.3433C274.5779,-39.3731 305.6428,-26.4168 334,-19.9373 433.5615,2.812 460.8725,-.9373 563,-.9373 563,-.9373 563,-.9373 916.5,-.9373 1037.7879,-.9373 1070.5259,-19.7245 1180,-71.9373 1207.9931,-85.2884 1236.3087,-107.3349 1254.1036,-122.468"/>
<polygon fill="#191970" stroke="#191970" points="1252.0997,-125.3631 1261.9466,-129.2733 1256.6873,-120.076 1252.0997,-125.3631"/>
</g>
</g>
</svg>
        <g id="navigator" transform="translate(0 0)" fill="#404254">
                <rect fill="#f2f5e9" fill-opacity="0.5" stroke="#606060" stroke-width=".5" x="0" y="0" width="60" height="60"/>
                <use id="zoomplus" xlink:href="#zoomPlus" x="17" y="9" onmousedown="handleZoom(evt,'in')"/>
                <use id="zoomminus" xlink:href="#zoomMin" x="42" y="9" onmousedown="handleZoom(evt,'out')"/>
                <use id="reset" xlink:href="#resetDef" x="30" y="36" onmousedown="handleReset()"/>
                <g id="arrowUp" xlink:href="#dirArrow" transform="translate(30 24)" onmousedown="handlePan(0,-1)">
                  <use xlink:href="#rim" fill="#404040">
                        <set attributeName="fill" to="#808080" begin="arrowUp.mouseover" end="arrowUp.mouseout"/>
                  </use>
                  <path fill="none" stroke="white" stroke-width="1.5" d="M0,-3.0v7 M-2.5,-0.5L0,-3.0L2.5,-0.5"/>
                </g>
                <g id="arrowRight" xlink:href="#dirArrow" transform="rotate(90) translate(36 -43)" onmousedown="handlePan(1,0)">
                  <use xlink:href="#rim" fill="#404040">
                        <set attributeName="fill" to="#808080" begin="arrowRight.mouseover" end="arrowRight.mouseout"/>
                  </use>
                  <path fill="none" stroke="white" stroke-width="1.5" d="M0,-3.0v7 M-2.5,-0.5L0,-3.0L2.5,-0.5"/>
                </g>
                <g id="arrowDown" xlink:href="#dirArrow" transform="rotate(180) translate(-30 -48)" onmousedown="handlePan(0,1)">
                  <use xlink:href="#rim" fill="#404040">
                        <set attributeName="fill" to="#808080" begin="arrowDown.mouseover" end="arrowDown.mouseout"/>
                  </use>
                  <path fill="none" stroke="white" stroke-width="1.5" d="M0,-3.0v7 M-2.5,-0.5L0,-3.0L2.5,-0.5"/>
                </g>
                <g id="arrowLeft" xlink:href="#dirArrow" transform="rotate(270) translate(-36 17)" onmousedown="handlePan(-1,0)">
                  <use xlink:href="#rim" fill="#404040">
                        <set attributeName="fill" to="#808080" begin="arrowLeft.mouseover" end="arrowLeft.mouseout"/>
                  </use>
                  <path fill="none" stroke="white" stroke-width="1.5" d="M0,-3.0v7 M-2.5,-0.5L0,-3.0L2.5,-0.5"/>
                </g>
        </g>
        <svg viewBox="0 0 15 15" width="100%" height="30px" preserveAspectRatio="xMaxYMin meet">
         <g id="arrow_out" transform="scale(0.3 0.3)">
          <a xlink:href="classEngine_a8a53c5e52734a5158b317851361b83f2_cgraph_org.svg" target="_base">
           <rect id="button" ry="5" rx="5" y="6" x="6" height="38" width="38"
                fill="#f2f5e9" fill-opacity="0.5" stroke="#606060" stroke-width="1.0"/>
           <path id="arrow"
             d="M 11.500037,31.436501 C 11.940474,20.09759 22.043105,11.32322 32.158766,21.979434 L 37.068811,17.246167 C 37.068811,17.246167 37.088388,32 37.088388,32 L 22.160133,31.978069 C 22.160133,31.978069 26.997745,27.140456 26.997745,27.140456 C 18.528582,18.264221 13.291696,25.230495 11.500037,31.436501 z"
             style="fill:#404040;"/>
          </a>
         </g>
        </svg>
</svg>
