<?xml version="1.0" encoding="UTF-8" standalone="no"?>
<!DOCTYPE svg PUBLIC "-//W3C//DTD SVG 1.1//EN"
 "http://www.w3.org/Graphics/SVG/1.1/DTD/svg11.dtd">
<!-- Generated by graphviz version 2.40.1 (20161225.0304)
 -->
<!-- Title: Camera::centerScreenOnMapCenter Pages: 1 -->
<svg width="476pt" height="66pt"
 viewBox="0.00 0.00 476.00 66.00" xmlns="http://www.w3.org/2000/svg" xmlns:xlink="http://www.w3.org/1999/xlink">
<g id="graph0" class="graph" transform="scale(1 1) rotate(0) translate(4 62)">
<title>Camera::centerScreenOnMapCenter</title>
<!-- Node10 -->
<g id="node1" class="node">
<title>Node10</title>
<polygon fill="#bfbfbf" stroke="#000000" points="0,-14 0,-44 158,-44 158,-14 0,-14"/>
<text text-anchor="start" x="8" y="-32" font-family="Helvetica,sans-Serif" font-size="10.00" fill="#000000">Camera::centerScreenOnMap</text>
<text text-anchor="middle" x="79" y="-21" font-family="Helvetica,sans-Serif" font-size="10.00" fill="#000000">Center</text>
</g>
<!-- Node11 -->
<g id="node2" class="node">
<title>Node11</title>
<g id="a_node2"><a xlink:href="classGame.html#a1c2ab25d5216b2f4b2fe41efd2c09114" target="_top" xlink:title="begins the game starts running the game ">
<polygon fill="none" stroke="#000000" points="194,-19.5 194,-38.5 262,-38.5 262,-19.5 194,-19.5"/>
<text text-anchor="middle" x="228" y="-26.5" font-family="Helvetica,sans-Serif" font-size="10.00" fill="#000000">Game::run</text>
</a>
</g>
</g>
<!-- Node10&#45;&gt;Node11 -->
<g id="edge1" class="edge">
<title>Node10&#45;&gt;Node11</title>
<path fill="none" stroke="#191970" d="M168.4911,-29C177.4313,-29 186.071,-29 193.866,-29"/>
<polygon fill="#191970" stroke="#191970" points="168.2988,-25.5001 158.2988,-29 168.2988,-32.5001 168.2988,-25.5001"/>
</g>
<!-- Node12 -->
<g id="node3" class="node">
<title>Node12</title>
<g id="a_node3"><a xlink:href="classGame.html#ad59df6562a58a614fda24622d3715b65" target="_top" xlink:title="Game::Game">
<polygon fill="none" stroke="#000000" points="304,-38.5 304,-57.5 385,-57.5 385,-38.5 304,-38.5"/>
<text text-anchor="middle" x="344.5" y="-45.5" font-family="Helvetica,sans-Serif" font-size="10.00" fill="#000000">Game::Game</text>
</a>
</g>
</g>
<!-- Node11&#45;&gt;Node12 -->
<g id="edge2" class="edge">
<title>Node11&#45;&gt;Node12</title>
<path fill="none" stroke="#191970" d="M272.0985,-36.192C282.4513,-37.8805 293.439,-39.6725 303.6427,-41.3366"/>
<polygon fill="#191970" stroke="#191970" points="272.4428,-32.702 262.0098,-34.5467 271.316,-39.6107 272.4428,-32.702"/>
</g>
<!-- Node13 -->
<g id="node4" class="node">
<title>Node13</title>
<g id="a_node4"><a xlink:href="main_8cxx.html#af582d708d899e67ead623eac34a22387" target="_top" xlink:title="protected_main">
<polygon fill="none" stroke="#000000" points="298,-.5 298,-19.5 391,-19.5 391,-.5 298,-.5"/>
<text text-anchor="middle" x="344.5" y="-7.5" font-family="Helvetica,sans-Serif" font-size="10.00" fill="#000000">protected_main</text>
</a>
</g>
</g>
<!-- Node11&#45;&gt;Node13 -->
<g id="edge3" class="edge">
<title>Node11&#45;&gt;Node13</title>
<path fill="none" stroke="#191970" d="M271.9884,-21.8259C280.382,-20.457 289.1965,-19.0195 297.6749,-17.6367"/>
<polygon fill="#191970" stroke="#191970" points="271.316,-18.3893 262.0098,-23.4533 272.4428,-25.298 271.316,-18.3893"/>
</g>
<!-- Node14 -->
<g id="node5" class="node">
<title>Node14</title>
<g id="a_node5"><a xlink:href="main_8cxx.html#a3c04138a5bfe5d72780bb7e82a18e627" target="_top" xlink:title="main">
<polygon fill="none" stroke="#000000" points="427,-.5 427,-19.5 468,-19.5 468,-.5 427,-.5"/>
<text text-anchor="middle" x="447.5" y="-7.5" font-family="Helvetica,sans-Serif" font-size="10.00" fill="#000000">main</text>
</a>
</g>
</g>
<!-- Node13&#45;&gt;Node14 -->
<g id="edge4" class="edge">
<title>Node13&#45;&gt;Node14</title>
<path fill="none" stroke="#191970" d="M401.2133,-10C410.4322,-10 419.4259,-10 426.9965,-10"/>
<polygon fill="#191970" stroke="#191970" points="401.1782,-6.5001 391.1782,-10 401.1781,-13.5001 401.1782,-6.5001"/>
</g>
</g>
</svg>
