<?xml version="1.0" encoding="UTF-8" standalone="no"?>
<!DOCTYPE svg PUBLIC "-//W3C//DTD SVG 1.1//EN"
 "http://www.w3.org/Graphics/SVG/1.1/DTD/svg11.dtd">
<!-- Generated by graphviz version 2.40.1 (20161225.0304)
 -->
<!-- Title: Map::isClickWithinTile Pages: 1 -->
<svg width="991pt" height="66pt"
 viewBox="0.00 0.00 991.00 66.00" xmlns="http://www.w3.org/2000/svg" xmlns:xlink="http://www.w3.org/1999/xlink">
<g id="graph0" class="graph" transform="scale(1 1) rotate(0) translate(4 62)">
<title>Map::isClickWithinTile</title>
<!-- Node273 -->
<g id="node1" class="node">
<title>Node273</title>
<polygon fill="#bfbfbf" stroke="#000000" points="0,-19.5 0,-38.5 125,-38.5 125,-19.5 0,-19.5"/>
<text text-anchor="middle" x="62.5" y="-26.5" font-family="Helvetica,sans-Serif" font-size="10.00" fill="#000000">Map::isClickWithinTile</text>
</g>
<!-- Node274 -->
<g id="node2" class="node">
<title>Node274</title>
<g id="a_node2"><a xlink:href="classMap.html#a8cc1c9d35ae2c3ede6bc0fcc59b9aa41" target="_top" xlink:title="Returns the node at given screencoordinates. ">
<polygon fill="none" stroke="#000000" points="161,-19.5 161,-38.5 277,-38.5 277,-19.5 161,-19.5"/>
<text text-anchor="middle" x="219" y="-26.5" font-family="Helvetica,sans-Serif" font-size="10.00" fill="#000000">Map::findNodeInMap</text>
</a>
</g>
</g>
<!-- Node273&#45;&gt;Node274 -->
<g id="edge1" class="edge">
<title>Node273&#45;&gt;Node274</title>
<path fill="none" stroke="#191970" d="M135.524,-29C144,-29 152.5581,-29 160.7982,-29"/>
<polygon fill="#191970" stroke="#191970" points="135.2528,-25.5001 125.2528,-29 135.2528,-32.5001 135.2528,-25.5001"/>
</g>
<!-- Node275 -->
<g id="node3" class="node">
<title>Node275</title>
<g id="a_node3"><a xlink:href="isoMath_8hxx.html#ad3c5f070c4a876bc6e8978635d02ce52" target="_top" xlink:title="converts screen space coordinates to isometric space coordinates. To convert screen coordinates in to...">
<polygon fill="none" stroke="#000000" points="313,-19.5 313,-38.5 483,-38.5 483,-19.5 313,-19.5"/>
<text text-anchor="middle" x="398" y="-26.5" font-family="Helvetica,sans-Serif" font-size="10.00" fill="#000000">convertScreenToIsoCoordinates</text>
</a>
</g>
</g>
<!-- Node274&#45;&gt;Node275 -->
<g id="edge2" class="edge">
<title>Node274&#45;&gt;Node275</title>
<path fill="none" stroke="#191970" d="M287.2057,-29C295.6028,-29 304.2655,-29 312.874,-29"/>
<polygon fill="#191970" stroke="#191970" points="287.1162,-25.5001 277.1162,-29 287.1161,-32.5001 287.1162,-25.5001"/>
</g>
<!-- Node276 -->
<g id="node4" class="node">
<title>Node276</title>
<g id="a_node4"><a xlink:href="classEventManager.html#a65ec91fd5016d4f9c4167fb8babed2df" target="_top" xlink:title="EventManager::checkEvents">
<polygon fill="none" stroke="#000000" points="519,-19.5 519,-38.5 673,-38.5 673,-19.5 519,-19.5"/>
<text text-anchor="middle" x="596" y="-26.5" font-family="Helvetica,sans-Serif" font-size="10.00" fill="#000000">EventManager::checkEvents</text>
</a>
</g>
</g>
<!-- Node275&#45;&gt;Node276 -->
<g id="edge3" class="edge">
<title>Node275&#45;&gt;Node276</title>
<path fill="none" stroke="#191970" d="M493.161,-29C501.7436,-29 510.3647,-29 518.7658,-29"/>
<polygon fill="#191970" stroke="#191970" points="493.1189,-25.5001 483.1189,-29 493.1189,-32.5001 493.1189,-25.5001"/>
</g>
<!-- Node277 -->
<g id="node5" class="node">
<title>Node277</title>
<g id="a_node5"><a xlink:href="classGame.html#a1c2ab25d5216b2f4b2fe41efd2c09114" target="_top" xlink:title="begins the game starts running the game ">
<polygon fill="none" stroke="#000000" points="709,-19.5 709,-38.5 777,-38.5 777,-19.5 709,-19.5"/>
<text text-anchor="middle" x="743" y="-26.5" font-family="Helvetica,sans-Serif" font-size="10.00" fill="#000000">Game::run</text>
</a>
</g>
</g>
<!-- Node276&#45;&gt;Node277 -->
<g id="edge4" class="edge">
<title>Node276&#45;&gt;Node277</title>
<path fill="none" stroke="#191970" d="M683.5248,-29C692.4338,-29 701.0572,-29 708.845,-29"/>
<polygon fill="#191970" stroke="#191970" points="683.3744,-25.5001 673.3744,-29 683.3743,-32.5001 683.3744,-25.5001"/>
</g>
<!-- Node278 -->
<g id="node6" class="node">
<title>Node278</title>
<g id="a_node6"><a xlink:href="classGame.html#ad59df6562a58a614fda24622d3715b65" target="_top" xlink:title="Game::Game">
<polygon fill="none" stroke="#000000" points="819,-38.5 819,-57.5 900,-57.5 900,-38.5 819,-38.5"/>
<text text-anchor="middle" x="859.5" y="-45.5" font-family="Helvetica,sans-Serif" font-size="10.00" fill="#000000">Game::Game</text>
</a>
</g>
</g>
<!-- Node277&#45;&gt;Node278 -->
<g id="edge5" class="edge">
<title>Node277&#45;&gt;Node278</title>
<path fill="none" stroke="#191970" d="M787.0985,-36.192C797.4513,-37.8805 808.439,-39.6725 818.6427,-41.3366"/>
<polygon fill="#191970" stroke="#191970" points="787.4428,-32.702 777.0098,-34.5467 786.316,-39.6107 787.4428,-32.702"/>
</g>
<!-- Node279 -->
<g id="node7" class="node">
<title>Node279</title>
<g id="a_node7"><a xlink:href="main_8cxx.html#af582d708d899e67ead623eac34a22387" target="_top" xlink:title="protected_main">
<polygon fill="none" stroke="#000000" points="813,-.5 813,-19.5 906,-19.5 906,-.5 813,-.5"/>
<text text-anchor="middle" x="859.5" y="-7.5" font-family="Helvetica,sans-Serif" font-size="10.00" fill="#000000">protected_main</text>
</a>
</g>
</g>
<!-- Node277&#45;&gt;Node279 -->
<g id="edge6" class="edge">
<title>Node277&#45;&gt;Node279</title>
<path fill="none" stroke="#191970" d="M786.9884,-21.8259C795.382,-20.457 804.1965,-19.0195 812.6749,-17.6367"/>
<polygon fill="#191970" stroke="#191970" points="786.316,-18.3893 777.0098,-23.4533 787.4428,-25.298 786.316,-18.3893"/>
</g>
<!-- Node280 -->
<g id="node8" class="node">
<title>Node280</title>
<g id="a_node8"><a xlink:href="main_8cxx.html#a3c04138a5bfe5d72780bb7e82a18e627" target="_top" xlink:title="main">
<polygon fill="none" stroke="#000000" points="942,-.5 942,-19.5 983,-19.5 983,-.5 942,-.5"/>
<text text-anchor="middle" x="962.5" y="-7.5" font-family="Helvetica,sans-Serif" font-size="10.00" fill="#000000">main</text>
</a>
</g>
</g>
<!-- Node279&#45;&gt;Node280 -->
<g id="edge7" class="edge">
<title>Node279&#45;&gt;Node280</title>
<path fill="none" stroke="#191970" d="M916.2133,-10C925.4322,-10 934.4259,-10 941.9965,-10"/>
<polygon fill="#191970" stroke="#191970" points="916.1782,-6.5001 906.1782,-10 916.1781,-13.5001 916.1782,-6.5001"/>
</g>
</g>
</svg>
