<?xml version="1.0" encoding="UTF-8" standalone="no"?>
<!DOCTYPE svg PUBLIC "-//W3C//DTD SVG 1.1//EN"
 "http://www.w3.org/Graphics/SVG/1.1/DTD/svg11.dtd">
<!-- Generated by graphviz version 2.40.1 (20161225.0304)
 -->
<!-- Title: Engine::saveGame Pages: 1 -->
<!--zoomable 288 -->
<svg id="main" version="1.1" xmlns="http://www.w3.org/2000/svg" xmlns:xlink="http://www.w3.org/1999/xlink" xml:space="preserve" onload="init(evt)">
<style type="text/css"><![CDATA[
.edge:hover path { stroke: red; }
.edge:hover polygon { stroke: red; fill: red; }
]]></style>
<script type="text/javascript"><![CDATA[
var edges = document.getElementsByTagName('g');
if (edges && edges.length) {
  for (var i=0;i<edges.length;i++) {
    if (edges[i].id.substr(0,4)=='edge') {
      edges[i].setAttribute('class','edge');
    }
  }
}
]]></script>
        <defs>
                <circle id="rim" cx="0" cy="0" r="7"/>
                <circle id="rim2" cx="0" cy="0" r="3.5"/>
                <g id="zoomPlus">
                        <use xlink:href="#rim" fill="#404040">
                                <set attributeName="fill" to="#808080" begin="zoomplus.mouseover" end="zoomplus.mouseout"/>
                        </use>
                        <path d="M-4,0h8M0,-4v8" fill="none" stroke="white" stroke-width="1.5" pointer-events="none"/>
                </g>
                <g id="zoomMin">
                        <use xlink:href="#rim" fill="#404040">
                                <set attributeName="fill" to="#808080" begin="zoomminus.mouseover" end="zoomminus.mouseout"/>
                        </use>
                        <path d="M-4,0h8" fill="none" stroke="white" stroke-width="1.5" pointer-events="none"/>
                </g>
                <g id="dirArrow">
                        <path fill="none" stroke="white" stroke-width="1.5" d="M0,-3.0v7 M-2.5,-0.5L0,-3.0L2.5,-0.5"/>
                </g>
               <g id="resetDef">
                       <use xlink:href="#rim2" fill="#404040">
                               <set attributeName="fill" to="#808080" begin="reset.mouseover" end="reset.mouseout"/>
                       </use>
               </g>
        </defs>

<script type="text/javascript">
var viewWidth = 1107;
var viewHeight = 288;
var sectionId = 'dynsection-15';
</script>
<script xlink:href="svgpan.js"/>
<svg id="graph" class="graph">
<g id="viewport">
<title>Engine::saveGame</title>
<!-- Node138 -->
<g id="node1" class="node">
<title>Node138</title>
<polygon fill="#bfbfbf" stroke="#000000" points="0,-79.5 0,-98.5 108,-98.5 108,-79.5 0,-79.5"/>
<text text-anchor="middle" x="54" y="-86.5" font-family="Helvetica,sans-Serif" font-size="10.00" fill="#000000">Engine::saveGame</text>
</g>
<!-- Node139 -->
<g id="node2" class="node">
<title>Node139</title>
<g id="a_node2"><a xlink:href="classMap.html#ae48ef4fa6a6f73d886211bca59123151" target="_top" xlink:title="Map::saveMapToFile">
<polygon fill="none" stroke="#000000" points="144,-98.5 144,-117.5 257,-117.5 257,-98.5 144,-98.5"/>
<text text-anchor="middle" x="200.5" y="-105.5" font-family="Helvetica,sans-Serif" font-size="10.00" fill="#000000">Map::saveMapToFile</text>
</a>
</g>
</g>
<!-- Node138&#45;&gt;Node139 -->
<g id="edge1" class="edge">
<title>Node138&#45;&gt;Node139</title>
<path fill="none" stroke="#191970" d="M108.135,-96.0209C116.4539,-97.0998 125.1266,-98.2246 133.6813,-99.3341"/>
<polygon fill="#191970" stroke="#191970" points="133.2743,-102.8105 143.6414,-100.6258 134.1746,-95.8687 133.2743,-102.8105"/>
</g>
<!-- Node141 -->
<g id="node4" class="node">
<title>Node141</title>
<g id="a_node4"><a xlink:href="classEngine.html#a260d4834150eae6eec2bde34df6dc827" target="_top" xlink:title="Creates a new game Creates a new game. ">
<polygon fill="none" stroke="#000000" points="148,-60.5 148,-79.5 253,-79.5 253,-60.5 148,-60.5"/>
<text text-anchor="middle" x="200.5" y="-67.5" font-family="Helvetica,sans-Serif" font-size="10.00" fill="#000000">Engine::newGame</text>
</a>
</g>
</g>
<!-- Node138&#45;&gt;Node141 -->
<g id="edge3" class="edge">
<title>Node138&#45;&gt;Node141</title>
<path fill="none" stroke="#191970" d="M108.135,-81.9791C117.6931,-80.7395 127.7181,-79.4393 137.4948,-78.1713"/>
<polygon fill="#191970" stroke="#191970" points="138.0965,-81.6227 147.5632,-76.8655 137.1961,-74.6808 138.0965,-81.6227"/>
</g>
<!-- Node140 -->
<g id="node3" class="node">
<title>Node140</title>
<g id="a_node3"><a xlink:href="compression_8hxx.html#a2b136078ca5d23222e9c24092a9918fa" target="_top" xlink:title="Compress a given string with zlib Compress the given string. Returns an empty string if something wen...">
<polygon fill="none" stroke="#000000" points="293,-98.5 293,-117.5 385,-117.5 385,-98.5 293,-98.5"/>
<text text-anchor="middle" x="339" y="-105.5" font-family="Helvetica,sans-Serif" font-size="10.00" fill="#000000">compressString</text>
</a>
</g>
</g>
<!-- Node139&#45;&gt;Node140 -->
<g id="edge2" class="edge">
<title>Node139&#45;&gt;Node140</title>
<path fill="none" stroke="#191970" d="M257.2329,-108C265.6243,-108 274.2693,-108 282.6528,-108"/>
<polygon fill="#191970" stroke="#191970" points="282.7146,-111.5001 292.7145,-108 282.7145,-104.5001 282.7146,-111.5001"/>
</g>
<!-- Node142 -->
<g id="node5" class="node">
<title>Node142</title>
<g id="a_node5"><a xlink:href="classSingleton.html#af5cb1e5749949e2b68416cfb8d378044" target="_top" xlink:title="Get an instance of the singleton. ">
<polygon fill="none" stroke="#000000" points="986,-4 986,-34 1099,-34 1099,-4 986,-4"/>
<text text-anchor="start" x="994" y="-22" font-family="Helvetica,sans-Serif" font-size="10.00" fill="#000000">Singleton&lt; Settings</text>
<text text-anchor="middle" x="1042.5" y="-11" font-family="Helvetica,sans-Serif" font-size="10.00" fill="#000000"> &gt;::instance</text>
</a>
</g>
</g>
<!-- Node141&#45;&gt;Node142 -->
<g id="edge4" class="edge">
<title>Node141&#45;&gt;Node142</title>
<path fill="none" stroke="#191970" d="M224.0961,-60.4136C273.4848,-41.2423 391.7335,0 495,0 495,0 495,0 686.5,0 787.3768,0 904.1042,-7.7013 975.6106,-13.2978"/>
<polygon fill="#191970" stroke="#191970" points="975.5802,-16.8062 985.8254,-14.107 976.1331,-9.8281 975.5802,-16.8062"/>
</g>
<!-- Node143 -->
<g id="node6" class="node">
<title>Node143</title>
<g id="a_node6"><a xlink:href="classMap.html#a482ac34426e8aa66abb46f60ec329402" target="_top" xlink:title="Initialize the Map with node objects Initialize the Map with node objects. ">
<polygon fill="none" stroke="#000000" points="299.5,-60.5 299.5,-79.5 378.5,-79.5 378.5,-60.5 299.5,-60.5"/>
<text text-anchor="middle" x="339" y="-67.5" font-family="Helvetica,sans-Serif" font-size="10.00" fill="#000000">Map::initMap</text>
</a>
</g>
</g>
<!-- Node141&#45;&gt;Node143 -->
<g id="edge5" class="edge">
<title>Node141&#45;&gt;Node143</title>
<path fill="none" stroke="#191970" d="M253.256,-70C265.0812,-70 277.5876,-70 289.2843,-70"/>
<polygon fill="#191970" stroke="#191970" points="289.3173,-73.5001 299.3173,-70 289.3172,-66.5001 289.3173,-73.5001"/>
</g>
<!-- Node144 -->
<g id="node7" class="node">
<title>Node144</title>
<g id="a_node7"><a xlink:href="classMapLayers.html#a54ce1eeef2a8998a728ac7074efe8787" target="_top" xlink:title="Enable Drawing Layer Enable Drawing Layer (use bitwise OR to add layer) ">
<polygon fill="none" stroke="#000000" points="427.5,-82.5 427.5,-101.5 562.5,-101.5 562.5,-82.5 427.5,-82.5"/>
<text text-anchor="middle" x="495" y="-89.5" font-family="Helvetica,sans-Serif" font-size="10.00" fill="#000000">MapLayers::enableLayer</text>
</a>
</g>
</g>
<!-- Node143&#45;&gt;Node144 -->
<g id="edge6" class="edge">
<title>Node143&#45;&gt;Node144</title>
<path fill="none" stroke="#191970" d="M378.769,-75.6085C390.5664,-77.2722 403.9139,-79.1545 417.2516,-81.0355"/>
<polygon fill="#191970" stroke="#191970" points="417.0324,-84.5391 427.4232,-82.4699 418.01,-77.6077 417.0324,-84.5391"/>
</g>
<!-- Node145 -->
<g id="node8" class="node">
<title>Node145</title>
<g id="a_node8"><a xlink:href="classTerrainGenerator.html#adcc251757a1f3a06471a49f17886b8ce" target="_top" xlink:title="TerrainGenerator::generate\lTerrain">
<polygon fill="none" stroke="#000000" points="421,-33 421,-63 569,-63 569,-33 421,-33"/>
<text text-anchor="start" x="429" y="-51" font-family="Helvetica,sans-Serif" font-size="10.00" fill="#000000">TerrainGenerator::generate</text>
<text text-anchor="middle" x="495" y="-40" font-family="Helvetica,sans-Serif" font-size="10.00" fill="#000000">Terrain</text>
</a>
</g>
</g>
<!-- Node143&#45;&gt;Node145 -->
<g id="edge7" class="edge">
<title>Node143&#45;&gt;Node145</title>
<path fill="none" stroke="#191970" d="M378.769,-64.3915C388.5832,-63.0075 399.4702,-61.4722 410.5319,-59.9122"/>
<polygon fill="#191970" stroke="#191970" points="411.3007,-63.3385 420.7139,-58.4762 410.3231,-56.4071 411.3007,-63.3385"/>
</g>
<!-- Node147 -->
<g id="node10" class="node">
<title>Node147</title>
<g id="a_node10"><a xlink:href="classMap.html#a481b37ba71ef0e51e836fc42805762dd" target="_top" xlink:title="Update all mapNodes Updates all mapNode and its adjacent tiles regarding height information, draws slopes for adjacent tiles and sets tiling for mapNode sprite if applicable. ">
<polygon fill="none" stroke="#000000" points="435,-123.5 435,-142.5 555,-142.5 555,-123.5 435,-123.5"/>
<text text-anchor="middle" x="495" y="-130.5" font-family="Helvetica,sans-Serif" font-size="10.00" fill="#000000">Map::updateAllNodes</text>
</a>
</g>
</g>
<!-- Node143&#45;&gt;Node147 -->
<g id="edge9" class="edge">
<title>Node143&#45;&gt;Node147</title>
<path fill="none" stroke="#191970" d="M364.15,-79.5548C371.0103,-82.3851 378.3753,-85.6338 385,-89 401.7169,-97.4942 403.8691,-103.3752 421,-111 429.007,-114.5638 437.7517,-117.7424 446.3347,-120.5001"/>
<polygon fill="#191970" stroke="#191970" points="445.3221,-123.8503 455.9087,-123.4328 447.3724,-117.1573 445.3221,-123.8503"/>
</g>
<!-- Node146 -->
<g id="node9" class="node">
<title>Node146</title>
<g id="a_node9"><a xlink:href="classTerrainGenerator.html#ac94cfaeb9dc89453018399361da5174a" target="_top" xlink:title="TerrainGenerator::loadTerrain\lDataFromJSON">
<polygon fill="none" stroke="#000000" points="607.5,-33 607.5,-63 765.5,-63 765.5,-33 607.5,-33"/>
<text text-anchor="start" x="615.5" y="-51" font-family="Helvetica,sans-Serif" font-size="10.00" fill="#000000">TerrainGenerator::loadTerrain</text>
<text text-anchor="middle" x="686.5" y="-40" font-family="Helvetica,sans-Serif" font-size="10.00" fill="#000000">DataFromJSON</text>
</a>
</g>
</g>
<!-- Node145&#45;&gt;Node146 -->
<g id="edge8" class="edge">
<title>Node145&#45;&gt;Node146</title>
<path fill="none" stroke="#191970" d="M569.0389,-48C578.2368,-48 587.7168,-48 597.1147,-48"/>
<polygon fill="#191970" stroke="#191970" points="597.263,-51.5001 607.263,-48 597.2629,-44.5001 597.263,-51.5001"/>
</g>
<!-- Node148 -->
<g id="node11" class="node">
<title>Node148</title>
<g id="a_node11"><a xlink:href="classMap.html#a59d21f2688713fbcfe320eb1b24405ca" target="_top" xlink:title="Update mapNode and its adjacent tiles Updates mapNode height information, draws slopes for adjacent t...">
<polygon fill="none" stroke="#000000" points="605,-125.5 605,-144.5 768,-144.5 768,-125.5 605,-125.5"/>
<text text-anchor="middle" x="686.5" y="-132.5" font-family="Helvetica,sans-Serif" font-size="10.00" fill="#000000">Map::updateNeighborsOfNode</text>
</a>
</g>
</g>
<!-- Node147&#45;&gt;Node148 -->
<g id="edge10" class="edge">
<title>Node147&#45;&gt;Node148</title>
<path fill="none" stroke="#191970" d="M555.0664,-133.6273C567.6532,-133.7588 581.2,-133.9003 594.6442,-134.0407"/>
<polygon fill="#191970" stroke="#191970" points="594.8515,-137.5429 604.8876,-134.1477 594.9247,-130.5433 594.8515,-137.5429"/>
</g>
<!-- Node149 -->
<g id="node12" class="node">
<title>Node149</title>
<g id="a_node12"><a xlink:href="classMap.html#aab37e4a52faf81e9b696b8cf1bd9a690" target="_top" xlink:title="Get neighbor MapNode Objects Stores pointers to the neighboring nodes of the given coordinates in the...">
<polygon fill="none" stroke="#000000" points="823,-222.5 823,-241.5 931,-241.5 931,-222.5 823,-222.5"/>
<text text-anchor="middle" x="877" y="-229.5" font-family="Helvetica,sans-Serif" font-size="10.00" fill="#000000">Map::getNeighbors</text>
</a>
</g>
</g>
<!-- Node148&#45;&gt;Node149 -->
<g id="edge11" class="edge">
<title>Node148&#45;&gt;Node149</title>
<path fill="none" stroke="#191970" d="M698.0716,-144.6106C718.3059,-160.9552 761.9753,-194.2163 804,-213 809.3615,-215.3964 815.0846,-217.5363 820.8782,-219.4359"/>
<polygon fill="#191970" stroke="#191970" points="820.0575,-222.8446 830.6434,-222.409 822.0963,-216.1481 820.0575,-222.8446"/>
</g>
<!-- Node150 -->
<g id="node13" class="node">
<title>Node150</title>
<g id="a_node13"><a xlink:href="classMap.html#a0ff55eb041cdf29aa582a21145319ce0" target="_top" xlink:title="Get elevated neighbor positions in a bitmask Checks all neighboring tiles and returns the elevated ne...">
<polygon fill="none" stroke="#000000" points="804,-173 804,-203 950,-203 950,-173 804,-173"/>
<text text-anchor="start" x="812" y="-191" font-family="Helvetica,sans-Serif" font-size="10.00" fill="#000000">Map::getElevatedNeighbor</text>
<text text-anchor="middle" x="877" y="-180" font-family="Helvetica,sans-Serif" font-size="10.00" fill="#000000">Bitmask</text>
</a>
</g>
</g>
<!-- Node148&#45;&gt;Node150 -->
<g id="edge12" class="edge">
<title>Node148&#45;&gt;Node150</title>
<path fill="none" stroke="#191970" d="M720.9981,-144.5979C746.6368,-151.731 782.3544,-161.6681 813.1442,-170.2343"/>
<polygon fill="#191970" stroke="#191970" points="812.3765,-173.6536 822.9487,-172.9621 814.2528,-166.9098 812.3765,-173.6536"/>
</g>
<!-- Node151 -->
<g id="node14" class="node">
<title>Node151</title>
<g id="a_node14"><a xlink:href="classMap.html#a05e7d896dc5062af07c9b838600a068d" target="_top" xlink:title="Demolish a node Invokes the tiles demolish function. ">
<polygon fill="none" stroke="#000000" points="986,-125.5 986,-144.5 1099,-144.5 1099,-125.5 986,-125.5"/>
<text text-anchor="middle" x="1042.5" y="-132.5" font-family="Helvetica,sans-Serif" font-size="10.00" fill="#000000">Map::demolishNode</text>
</a>
</g>
</g>
<!-- Node148&#45;&gt;Node151 -->
<g id="edge13" class="edge">
<title>Node148&#45;&gt;Node151</title>
<path fill="none" stroke="#191970" d="M768.1736,-129.2191C831.0139,-127.8134 916.7754,-127.937 975.5855,-129.5898"/>
<polygon fill="#191970" stroke="#191970" points="975.7742,-133.0971 985.8764,-129.9041 975.9879,-126.1004 975.7742,-133.0971"/>
</g>
<!-- Node152 -->
<g id="node15" class="node">
<title>Node152</title>
<g id="a_node15"><a xlink:href="classMap.html#a392940f84796653b8e811ed8dc296c84" target="_top" xlink:title="Get a bitmask that represents same&#45;tile neighbors Checks all neighboring tiles and returns the elevat...">
<polygon fill="none" stroke="#000000" points="806.5,-67 806.5,-97 947.5,-97 947.5,-67 806.5,-67"/>
<text text-anchor="start" x="814.5" y="-85" font-family="Helvetica,sans-Serif" font-size="10.00" fill="#000000">Map::getNeighboringTiles</text>
<text text-anchor="middle" x="877" y="-74" font-family="Helvetica,sans-Serif" font-size="10.00" fill="#000000">Bitmask</text>
</a>
</g>
</g>
<!-- Node148&#45;&gt;Node152 -->
<g id="edge15" class="edge">
<title>Node148&#45;&gt;Node152</title>
<path fill="none" stroke="#191970" d="M720.9981,-125.4021C746.6368,-118.269 782.3544,-108.3319 813.1442,-99.7657"/>
<polygon fill="#191970" stroke="#191970" points="814.2528,-103.0902 822.9487,-97.0379 812.3765,-96.3464 814.2528,-103.0902"/>
</g>
<!-- Node153 -->
<g id="node16" class="node">
<title>Node153</title>
<g id="a_node16"><a xlink:href="classMap.html#aba5154a4d917900679a3c0f7ec701561" target="_top" xlink:title="Increase Height Increases the height of the node and checks the surrounding tiles. Either draw a slope sprite or elevate the tile if necessary. ">
<polygon fill="none" stroke="#000000" points="819,-28.5 819,-47.5 935,-47.5 935,-28.5 819,-28.5"/>
<text text-anchor="middle" x="877" y="-35.5" font-family="Helvetica,sans-Serif" font-size="10.00" fill="#000000">Map::increaseHeight</text>
</a>
</g>
</g>
<!-- Node148&#45;&gt;Node153 -->
<g id="edge16" class="edge">
<title>Node148&#45;&gt;Node153</title>
<path fill="none" stroke="#191970" d="M692.9548,-125.3891C710.0263,-106.9291 758.202,-69.6589 804,-49 805.6058,-48.2756 807.2437,-47.5723 808.9058,-46.891"/>
<polygon fill="#191970" stroke="#191970" points="810.5043,-50.0295 818.6363,-43.2383 808.0442,-43.476 810.5043,-50.0295"/>
</g>
<!-- Node154 -->
<g id="node17" class="node">
<title>Node154</title>
<g id="a_node17"><a xlink:href="classMap.html#afb8cc864df90d273a5074872d635dc40" target="_top" xlink:title="Decrease Height Decreases the height of the node and checks the surrounding tiles. Either draw a slope sprite or lower the tile if necessary. ">
<polygon fill="none" stroke="#000000" points="817.5,-260.5 817.5,-279.5 936.5,-279.5 936.5,-260.5 817.5,-260.5"/>
<text text-anchor="middle" x="877" y="-267.5" font-family="Helvetica,sans-Serif" font-size="10.00" fill="#000000">Map::decreaseHeight</text>
</a>
</g>
</g>
<!-- Node148&#45;&gt;Node154 -->
<g id="edge20" class="edge">
<title>Node148&#45;&gt;Node154</title>
<path fill="none" stroke="#191970" d="M697.6538,-144.819C716.6224,-166.3574 757.6453,-215.6557 804,-242 817.3372,-249.5798 833.7534,-254.2011 847.6383,-257.8466"/>
<polygon fill="#191970" stroke="#191970" points="847.1092,-261.3261 857.6699,-260.4769 848.8847,-254.555 847.1092,-261.3261"/>
</g>
<!-- Node151&#45;&gt;Node148 -->
<g id="edge14" class="edge">
<title>Node151&#45;&gt;Node148</title>
<path fill="none" stroke="#191970" d="M985.8764,-140.0959C930.1383,-141.9438 844.0815,-142.2434 778.5132,-140.9946"/>
<polygon fill="#191970" stroke="#191970" points="778.2438,-137.4884 768.1736,-140.7809 778.0991,-144.4869 778.2438,-137.4884"/>
</g>
<!-- Node153&#45;&gt;Node142 -->
<g id="edge17" class="edge">
<title>Node153&#45;&gt;Node142</title>
<path fill="none" stroke="#191970" d="M935.3491,-31.3013C948.4012,-29.8029 962.3429,-28.2023 975.7073,-26.668"/>
<polygon fill="#191970" stroke="#191970" points="976.2548,-30.1283 985.7903,-25.5105 975.4563,-23.174 976.2548,-30.1283"/>
</g>
<!-- Node153&#45;&gt;Node148 -->
<g id="edge19" class="edge">
<title>Node153&#45;&gt;Node148</title>
<path fill="none" stroke="#191970" d="M861.7036,-47.5816C846.5933,-52.7743 823.0456,-58.4088 804,-67 771.8122,-81.5195 738.4499,-104.2443 715.5368,-119.6213"/>
<polygon fill="#191970" stroke="#191970" points="713.3693,-116.8598 706.9917,-125.3201 717.2532,-122.6835 713.3693,-116.8598"/>
</g>
<!-- Node153&#45;&gt;Node151 -->
<g id="edge18" class="edge">
<title>Node153&#45;&gt;Node151</title>
<path fill="none" stroke="#191970" d="M923.6949,-47.5943C932.6909,-50.3227 941.8445,-53.7457 950,-58 980.203,-73.755 1009.4518,-100.6718 1026.7125,-118.144"/>
<polygon fill="#191970" stroke="#191970" points="1024.2928,-120.6767 1033.7599,-125.4332 1029.3253,-115.8111 1024.2928,-120.6767"/>
</g>
<!-- Node154&#45;&gt;Node148 -->
<g id="edge22" class="edge">
<title>Node154&#45;&gt;Node148</title>
<path fill="none" stroke="#191970" d="M817.3828,-266.3051C812.7325,-264.4931 808.2127,-262.3941 804,-260 756.2922,-232.8867 714.2318,-181.4596 696.0494,-153.4787"/>
<polygon fill="#191970" stroke="#191970" points="698.8463,-151.3435 690.6437,-144.6376 692.8741,-154.995 698.8463,-151.3435"/>
</g>
<!-- Node154&#45;&gt;Node151 -->
<g id="edge21" class="edge">
<title>Node154&#45;&gt;Node151</title>
<path fill="none" stroke="#191970" d="M930.5492,-260.3756C937.3933,-257.9252 944.0698,-254.8526 950,-251 988.5188,-225.9762 1018.2587,-179.527 1032.7593,-153.6447"/>
<polygon fill="#191970" stroke="#191970" points="1036.0164,-154.9811 1037.7132,-144.523 1029.865,-151.6403 1036.0164,-154.9811"/>
</g>
</g>
</svg>
        <g id="navigator" transform="translate(0 0)" fill="#404254">
                <rect fill="#f2f5e9" fill-opacity="0.5" stroke="#606060" stroke-width=".5" x="0" y="0" width="60" height="60"/>
                <use id="zoomplus" xlink:href="#zoomPlus" x="17" y="9" onmousedown="handleZoom(evt,'in')"/>
                <use id="zoomminus" xlink:href="#zoomMin" x="42" y="9" onmousedown="handleZoom(evt,'out')"/>
                <use id="reset" xlink:href="#resetDef" x="30" y="36" onmousedown="handleReset()"/>
                <g id="arrowUp" xlink:href="#dirArrow" transform="translate(30 24)" onmousedown="handlePan(0,-1)">
                  <use xlink:href="#rim" fill="#404040">
                        <set attributeName="fill" to="#808080" begin="arrowUp.mouseover" end="arrowUp.mouseout"/>
                  </use>
                  <path fill="none" stroke="white" stroke-width="1.5" d="M0,-3.0v7 M-2.5,-0.5L0,-3.0L2.5,-0.5"/>
                </g>
                <g id="arrowRight" xlink:href="#dirArrow" transform="rotate(90) translate(36 -43)" onmousedown="handlePan(1,0)">
                  <use xlink:href="#rim" fill="#404040">
                        <set attributeName="fill" to="#808080" begin="arrowRight.mouseover" end="arrowRight.mouseout"/>
                  </use>
                  <path fill="none" stroke="white" stroke-width="1.5" d="M0,-3.0v7 M-2.5,-0.5L0,-3.0L2.5,-0.5"/>
                </g>
                <g id="arrowDown" xlink:href="#dirArrow" transform="rotate(180) translate(-30 -48)" onmousedown="handlePan(0,1)">
                  <use xlink:href="#rim" fill="#404040">
                        <set attributeName="fill" to="#808080" begin="arrowDown.mouseover" end="arrowDown.mouseout"/>
                  </use>
                  <path fill="none" stroke="white" stroke-width="1.5" d="M0,-3.0v7 M-2.5,-0.5L0,-3.0L2.5,-0.5"/>
                </g>
                <g id="arrowLeft" xlink:href="#dirArrow" transform="rotate(270) translate(-36 17)" onmousedown="handlePan(-1,0)">
                  <use xlink:href="#rim" fill="#404040">
                        <set attributeName="fill" to="#808080" begin="arrowLeft.mouseover" end="arrowLeft.mouseout"/>
                  </use>
                  <path fill="none" stroke="white" stroke-width="1.5" d="M0,-3.0v7 M-2.5,-0.5L0,-3.0L2.5,-0.5"/>
                </g>
        </g>
        <svg viewBox="0 0 15 15" width="100%" height="30px" preserveAspectRatio="xMaxYMin meet">
         <g id="arrow_out" transform="scale(0.3 0.3)">
          <a xlink:href="classEngine_af7de8d74b0cfacaf06df53e7caf11538_cgraph_org.svg" target="_base">
           <rect id="button" ry="5" rx="5" y="6" x="6" height="38" width="38"
                fill="#f2f5e9" fill-opacity="0.5" stroke="#606060" stroke-width="1.0"/>
           <path id="arrow"
             d="M 11.500037,31.436501 C 11.940474,20.09759 22.043105,11.32322 32.158766,21.979434 L 37.068811,17.246167 C 37.068811,17.246167 37.088388,32 37.088388,32 L 22.160133,31.978069 C 22.160133,31.978069 26.997745,27.140456 26.997745,27.140456 C 18.528582,18.264221 13.291696,25.230495 11.500037,31.436501 z"
             style="fill:#404040;"/>
          </a>
         </g>
        </svg>
</svg>
