<?xml version="1.0" encoding="UTF-8" standalone="no"?>
<!DOCTYPE svg PUBLIC "-//W3C//DTD SVG 1.1//EN"
 "http://www.w3.org/Graphics/SVG/1.1/DTD/svg11.dtd">
<!-- Generated by graphviz version 2.40.1 (20161225.0304)
 -->
<!-- Title: UIElement::onMouseLeave Pages: 1 -->
<svg width="689pt" height="66pt"
 viewBox="0.00 0.00 689.00 66.00" xmlns="http://www.w3.org/2000/svg" xmlns:xlink="http://www.w3.org/1999/xlink">
<g id="graph0" class="graph" transform="scale(1 1) rotate(0) translate(4 62)">
<title>UIElement::onMouseLeave</title>
<!-- Node202 -->
<g id="node1" class="node">
<title>Node202</title>
<polygon fill="#bfbfbf" stroke="#000000" points="0,-19.5 0,-38.5 146,-38.5 146,-19.5 0,-19.5"/>
<text text-anchor="middle" x="73" y="-26.5" font-family="Helvetica,sans-Serif" font-size="10.00" fill="#000000">UIElement::onMouseLeave</text>
</g>
<!-- Node203 -->
<g id="node2" class="node">
<title>Node203</title>
<g id="a_node2"><a xlink:href="classEventManager.html#a65ec91fd5016d4f9c4167fb8babed2df" target="_top" xlink:title="EventManager::checkEvents">
<polygon fill="none" stroke="#000000" points="182,-38.5 182,-57.5 336,-57.5 336,-38.5 182,-38.5"/>
<text text-anchor="middle" x="259" y="-45.5" font-family="Helvetica,sans-Serif" font-size="10.00" fill="#000000">EventManager::checkEvents</text>
</a>
</g>
</g>
<!-- Node202&#45;&gt;Node203 -->
<g id="edge1" class="edge">
<title>Node202&#45;&gt;Node203</title>
<path fill="none" stroke="#191970" d="M156.1954,-37.4985C164.7301,-38.3703 173.3762,-39.2535 181.8418,-40.1182"/>
<polygon fill="#191970" stroke="#191970" points="156.5491,-34.0165 146.2451,-36.482 155.8377,-40.9802 156.5491,-34.0165"/>
</g>
<!-- Node208 -->
<g id="node7" class="node">
<title>Node208</title>
<g id="a_node7"><a xlink:href="classGame.html#a5ed7fc5be77080f7f6dd5363f7f007a1" target="_top" xlink:title="initializes and displays the main menu initializes and displays the main menu ">
<polygon fill="none" stroke="#000000" points="372,-.5 372,-19.5 475,-19.5 475,-.5 372,-.5"/>
<text text-anchor="middle" x="423.5" y="-7.5" font-family="Helvetica,sans-Serif" font-size="10.00" fill="#000000">Game::mainMenu</text>
</a>
</g>
</g>
<!-- Node202&#45;&gt;Node208 -->
<g id="edge6" class="edge">
<title>Node202&#45;&gt;Node208</title>
<path fill="none" stroke="#191970" d="M156.1533,-24.4924C223.0984,-20.8634 315.0893,-15.8768 371.8484,-12.7999"/>
<polygon fill="#191970" stroke="#191970" points="155.8455,-21.0039 146.0496,-25.0401 156.2245,-27.9936 155.8455,-21.0039"/>
</g>
<!-- Node204 -->
<g id="node3" class="node">
<title>Node204</title>
<g id="a_node3"><a xlink:href="classGame.html#a1c2ab25d5216b2f4b2fe41efd2c09114" target="_top" xlink:title="begins the game starts running the game ">
<polygon fill="none" stroke="#000000" points="389.5,-38.5 389.5,-57.5 457.5,-57.5 457.5,-38.5 389.5,-38.5"/>
<text text-anchor="middle" x="423.5" y="-45.5" font-family="Helvetica,sans-Serif" font-size="10.00" fill="#000000">Game::run</text>
</a>
</g>
</g>
<!-- Node203&#45;&gt;Node204 -->
<g id="edge2" class="edge">
<title>Node203&#45;&gt;Node204</title>
<path fill="none" stroke="#191970" d="M346.8489,-48C361.8719,-48 376.6447,-48 389.15,-48"/>
<polygon fill="#191970" stroke="#191970" points="346.4331,-44.5001 336.4331,-48 346.4331,-51.5001 346.4331,-44.5001"/>
</g>
<!-- Node205 -->
<g id="node4" class="node">
<title>Node205</title>
<g id="a_node4"><a xlink:href="classGame.html#ad59df6562a58a614fda24622d3715b65" target="_top" xlink:title="Game::Game">
<polygon fill="none" stroke="#000000" points="517,-38.5 517,-57.5 598,-57.5 598,-38.5 517,-38.5"/>
<text text-anchor="middle" x="557.5" y="-45.5" font-family="Helvetica,sans-Serif" font-size="10.00" fill="#000000">Game::Game</text>
</a>
</g>
</g>
<!-- Node204&#45;&gt;Node205 -->
<g id="edge3" class="edge">
<title>Node204&#45;&gt;Node205</title>
<path fill="none" stroke="#191970" d="M467.721,-48C483.5165,-48 501.2293,-48 516.7213,-48"/>
<polygon fill="#191970" stroke="#191970" points="467.6606,-44.5001 457.6606,-48 467.6605,-51.5001 467.6606,-44.5001"/>
</g>
<!-- Node206 -->
<g id="node5" class="node">
<title>Node206</title>
<g id="a_node5"><a xlink:href="main_8cxx.html#af582d708d899e67ead623eac34a22387" target="_top" xlink:title="protected_main">
<polygon fill="none" stroke="#000000" points="511,-.5 511,-19.5 604,-19.5 604,-.5 511,-.5"/>
<text text-anchor="middle" x="557.5" y="-7.5" font-family="Helvetica,sans-Serif" font-size="10.00" fill="#000000">protected_main</text>
</a>
</g>
</g>
<!-- Node204&#45;&gt;Node206 -->
<g id="edge4" class="edge">
<title>Node204&#45;&gt;Node206</title>
<path fill="none" stroke="#191970" d="M466.9383,-35.6817C485.3491,-30.4607 506.4798,-24.4684 523.697,-19.5859"/>
<polygon fill="#191970" stroke="#191970" points="465.9796,-32.3155 457.3139,-38.411 467.8894,-39.0499 465.9796,-32.3155"/>
</g>
<!-- Node207 -->
<g id="node6" class="node">
<title>Node207</title>
<g id="a_node6"><a xlink:href="main_8cxx.html#a3c04138a5bfe5d72780bb7e82a18e627" target="_top" xlink:title="main">
<polygon fill="none" stroke="#000000" points="640,-.5 640,-19.5 681,-19.5 681,-.5 640,-.5"/>
<text text-anchor="middle" x="660.5" y="-7.5" font-family="Helvetica,sans-Serif" font-size="10.00" fill="#000000">main</text>
</a>
</g>
</g>
<!-- Node206&#45;&gt;Node207 -->
<g id="edge5" class="edge">
<title>Node206&#45;&gt;Node207</title>
<path fill="none" stroke="#191970" d="M614.2133,-10C623.4322,-10 632.4259,-10 639.9965,-10"/>
<polygon fill="#191970" stroke="#191970" points="614.1782,-6.5001 604.1782,-10 614.1781,-13.5001 614.1782,-6.5001"/>
</g>
<!-- Node208&#45;&gt;Node205 -->
<g id="edge7" class="edge">
<title>Node208&#45;&gt;Node205</title>
<path fill="none" stroke="#191970" d="M466.9383,-22.3183C485.3491,-27.5393 506.4798,-33.5316 523.697,-38.4141"/>
<polygon fill="#191970" stroke="#191970" points="467.8894,-18.9501 457.3139,-19.589 465.9796,-25.6845 467.8894,-18.9501"/>
</g>
<!-- Node208&#45;&gt;Node206 -->
<g id="edge8" class="edge">
<title>Node208&#45;&gt;Node206</title>
<path fill="none" stroke="#191970" d="M485.5242,-10C493.9726,-10 502.5272,-10 510.6465,-10"/>
<polygon fill="#191970" stroke="#191970" points="485.3079,-6.5001 475.3079,-10 485.3079,-13.5001 485.3079,-6.5001"/>
</g>
</g>
</svg>
