<?xml version="1.0" encoding="UTF-8" standalone="no"?>
<!DOCTYPE svg PUBLIC "-//W3C//DTD SVG 1.1//EN"
 "http://www.w3.org/Graphics/SVG/1.1/DTD/svg11.dtd">
<!-- Generated by graphviz version 2.40.1 (20161225.0304)
 -->
<!-- Title: LOG::getTimeStamp Pages: 1 -->
<svg width="404pt" height="66pt"
 viewBox="0.00 0.00 404.00 66.00" xmlns="http://www.w3.org/2000/svg" xmlns:xlink="http://www.w3.org/1999/xlink">
<g id="graph0" class="graph" transform="scale(1 1) rotate(0) translate(4 62)">
<title>LOG::getTimeStamp</title>
<!-- Node9 -->
<g id="node1" class="node">
<title>Node9</title>
<polygon fill="#bfbfbf" stroke="#000000" points="0,-19.5 0,-38.5 115,-38.5 115,-19.5 0,-19.5"/>
<text text-anchor="middle" x="57.5" y="-26.5" font-family="Helvetica,sans-Serif" font-size="10.00" fill="#000000">LOG::getTimeStamp</text>
</g>
<!-- Node10 -->
<g id="node2" class="node">
<title>Node10</title>
<g id="a_node2"><a xlink:href="classLOG.html#a78bfdfa3de93d15a713b9de2488f8218" target="_top" xlink:title="LOG::LOG">
<polygon fill="none" stroke="#000000" points="173.5,-38.5 173.5,-57.5 236.5,-57.5 236.5,-38.5 173.5,-38.5"/>
<text text-anchor="middle" x="205" y="-45.5" font-family="Helvetica,sans-Serif" font-size="10.00" fill="#000000">LOG::LOG</text>
</a>
</g>
</g>
<!-- Node9&#45;&gt;Node10 -->
<g id="edge1" class="edge">
<title>Node9&#45;&gt;Node10</title>
<path fill="none" stroke="#191970" d="M125.6369,-37.777C142.2501,-39.917 159.2454,-42.1062 173.2245,-43.9069"/>
<polygon fill="#191970" stroke="#191970" points="125.7378,-34.2611 115.3726,-36.4548 124.8434,-41.2038 125.7378,-34.2611"/>
</g>
<!-- Node11 -->
<g id="node3" class="node">
<title>Node11</title>
<g id="a_node3"><a xlink:href="classLOG.html#a6fc1e3db47b4b54e899cf480f8a2306f" target="_top" xlink:title="Write log message to error.log file Write log message to error.log file. ">
<polygon fill="none" stroke="#000000" points="151,-.5 151,-19.5 259,-19.5 259,-.5 151,-.5"/>
<text text-anchor="middle" x="205" y="-7.5" font-family="Helvetica,sans-Serif" font-size="10.00" fill="#000000">LOG::writeErrorLog</text>
</a>
</g>
</g>
<!-- Node9&#45;&gt;Node11 -->
<g id="edge2" class="edge">
<title>Node9&#45;&gt;Node11</title>
<path fill="none" stroke="#191970" d="M125.5598,-20.233C133.9763,-19.1488 142.4922,-18.0518 150.6656,-16.999"/>
<polygon fill="#191970" stroke="#191970" points="124.8434,-16.7962 115.3726,-21.5452 125.7378,-23.7389 124.8434,-16.7962"/>
</g>
<!-- Node12 -->
<g id="node4" class="node">
<title>Node12</title>
<g id="a_node4"><a xlink:href="classLOG.html#ada24e4a188406cd1e46d08c0f71c1958" target="_top" xlink:title="LOG::operator\&lt;\&lt;">
<polygon fill="none" stroke="#000000" points="295,-.5 295,-19.5 396,-19.5 396,-.5 295,-.5"/>
<text text-anchor="middle" x="345.5" y="-7.5" font-family="Helvetica,sans-Serif" font-size="10.00" fill="#000000">LOG::operator&lt;&lt;</text>
</a>
</g>
</g>
<!-- Node11&#45;&gt;Node12 -->
<g id="edge3" class="edge">
<title>Node11&#45;&gt;Node12</title>
<path fill="none" stroke="#191970" d="M269.4858,-10C277.891,-10 286.407,-10 294.5481,-10"/>
<polygon fill="#191970" stroke="#191970" points="269.321,-6.5001 259.321,-10 269.3209,-13.5001 269.321,-6.5001"/>
</g>
</g>
</svg>
