<?xml version="1.0" encoding="UTF-8" standalone="no"?>
<!DOCTYPE svg PUBLIC "-//W3C//DTD SVG 1.1//EN"
 "http://www.w3.org/Graphics/SVG/1.1/DTD/svg11.dtd">
<!-- Generated by graphviz version 2.40.1 (20161225.0304)
 -->
<!-- Title: WindowManager::toggleFullScreen Pages: 1 -->
<svg width="831pt" height="66pt"
 viewBox="0.00 0.00 831.00 66.00" xmlns="http://www.w3.org/2000/svg" xmlns:xlink="http://www.w3.org/1999/xlink">
<g id="graph0" class="graph" transform="scale(1 1) rotate(0) translate(4 62)">
<title>WindowManager::toggleFullScreen</title>
<!-- Node40 -->
<g id="node1" class="node">
<title>Node40</title>
<polygon fill="#bfbfbf" stroke="#000000" points="0,-14 0,-44 151,-44 151,-14 0,-14"/>
<text text-anchor="start" x="8" y="-32" font-family="Helvetica,sans-Serif" font-size="10.00" fill="#000000">WindowManager::toggleFull</text>
<text text-anchor="middle" x="75.5" y="-21" font-family="Helvetica,sans-Serif" font-size="10.00" fill="#000000">Screen</text>
</g>
<!-- Node41 -->
<g id="node2" class="node">
<title>Node41</title>
<g id="a_node2"><a xlink:href="classEngine.html#aed0b02ad4a43a8fc71b4084a2b45b612" target="_top" xlink:title="Toggle Fullscreen Mode Toggle Fullscreen Mode. ">
<polygon fill="none" stroke="#000000" points="187,-19.5 187,-38.5 323,-38.5 323,-19.5 187,-19.5"/>
<text text-anchor="middle" x="255" y="-26.5" font-family="Helvetica,sans-Serif" font-size="10.00" fill="#000000">Engine::toggleFullScreen</text>
</a>
</g>
</g>
<!-- Node40&#45;&gt;Node41 -->
<g id="edge1" class="edge">
<title>Node40&#45;&gt;Node41</title>
<path fill="none" stroke="#191970" d="M161.1897,-29C169.8172,-29 178.4948,-29 186.9028,-29"/>
<polygon fill="#191970" stroke="#191970" points="161.104,-25.5001 151.1039,-29 161.1039,-32.5001 161.104,-25.5001"/>
</g>
<!-- Node42 -->
<g id="node3" class="node">
<title>Node42</title>
<g id="a_node3"><a xlink:href="classEventManager.html#a65ec91fd5016d4f9c4167fb8babed2df" target="_top" xlink:title="EventManager::checkEvents">
<polygon fill="none" stroke="#000000" points="359,-19.5 359,-38.5 513,-38.5 513,-19.5 359,-19.5"/>
<text text-anchor="middle" x="436" y="-26.5" font-family="Helvetica,sans-Serif" font-size="10.00" fill="#000000">EventManager::checkEvents</text>
</a>
</g>
</g>
<!-- Node41&#45;&gt;Node42 -->
<g id="edge2" class="edge">
<title>Node41&#45;&gt;Node42</title>
<path fill="none" stroke="#191970" d="M333.3623,-29C341.7925,-29 350.3658,-29 358.7824,-29"/>
<polygon fill="#191970" stroke="#191970" points="333.1705,-25.5001 323.1704,-29 333.1704,-32.5001 333.1705,-25.5001"/>
</g>
<!-- Node43 -->
<g id="node4" class="node">
<title>Node43</title>
<g id="a_node4"><a xlink:href="classGame.html#a1c2ab25d5216b2f4b2fe41efd2c09114" target="_top" xlink:title="begins the game starts running the game ">
<polygon fill="none" stroke="#000000" points="549,-19.5 549,-38.5 617,-38.5 617,-19.5 549,-19.5"/>
<text text-anchor="middle" x="583" y="-26.5" font-family="Helvetica,sans-Serif" font-size="10.00" fill="#000000">Game::run</text>
</a>
</g>
</g>
<!-- Node42&#45;&gt;Node43 -->
<g id="edge3" class="edge">
<title>Node42&#45;&gt;Node43</title>
<path fill="none" stroke="#191970" d="M523.5248,-29C532.4338,-29 541.0572,-29 548.845,-29"/>
<polygon fill="#191970" stroke="#191970" points="523.3744,-25.5001 513.3744,-29 523.3743,-32.5001 523.3744,-25.5001"/>
</g>
<!-- Node44 -->
<g id="node5" class="node">
<title>Node44</title>
<g id="a_node5"><a xlink:href="classGame.html#ad59df6562a58a614fda24622d3715b65" target="_top" xlink:title="Game::Game">
<polygon fill="none" stroke="#000000" points="659,-38.5 659,-57.5 740,-57.5 740,-38.5 659,-38.5"/>
<text text-anchor="middle" x="699.5" y="-45.5" font-family="Helvetica,sans-Serif" font-size="10.00" fill="#000000">Game::Game</text>
</a>
</g>
</g>
<!-- Node43&#45;&gt;Node44 -->
<g id="edge4" class="edge">
<title>Node43&#45;&gt;Node44</title>
<path fill="none" stroke="#191970" d="M627.0985,-36.192C637.4513,-37.8805 648.439,-39.6725 658.6427,-41.3366"/>
<polygon fill="#191970" stroke="#191970" points="627.4428,-32.702 617.0098,-34.5467 626.316,-39.6107 627.4428,-32.702"/>
</g>
<!-- Node45 -->
<g id="node6" class="node">
<title>Node45</title>
<g id="a_node6"><a xlink:href="main_8cxx.html#af582d708d899e67ead623eac34a22387" target="_top" xlink:title="protected_main">
<polygon fill="none" stroke="#000000" points="653,-.5 653,-19.5 746,-19.5 746,-.5 653,-.5"/>
<text text-anchor="middle" x="699.5" y="-7.5" font-family="Helvetica,sans-Serif" font-size="10.00" fill="#000000">protected_main</text>
</a>
</g>
</g>
<!-- Node43&#45;&gt;Node45 -->
<g id="edge5" class="edge">
<title>Node43&#45;&gt;Node45</title>
<path fill="none" stroke="#191970" d="M626.9884,-21.8259C635.382,-20.457 644.1965,-19.0195 652.6749,-17.6367"/>
<polygon fill="#191970" stroke="#191970" points="626.316,-18.3893 617.0098,-23.4533 627.4428,-25.298 626.316,-18.3893"/>
</g>
<!-- Node46 -->
<g id="node7" class="node">
<title>Node46</title>
<g id="a_node7"><a xlink:href="main_8cxx.html#a3c04138a5bfe5d72780bb7e82a18e627" target="_top" xlink:title="main">
<polygon fill="none" stroke="#000000" points="782,-.5 782,-19.5 823,-19.5 823,-.5 782,-.5"/>
<text text-anchor="middle" x="802.5" y="-7.5" font-family="Helvetica,sans-Serif" font-size="10.00" fill="#000000">main</text>
</a>
</g>
</g>
<!-- Node45&#45;&gt;Node46 -->
<g id="edge6" class="edge">
<title>Node45&#45;&gt;Node46</title>
<path fill="none" stroke="#191970" d="M756.2133,-10C765.4322,-10 774.4259,-10 781.9965,-10"/>
<polygon fill="#191970" stroke="#191970" points="756.1782,-6.5001 746.1782,-10 756.1781,-13.5001 756.1782,-6.5001"/>
</g>
</g>
</svg>
