<?xml version="1.0" encoding="UTF-8" standalone="no"?>
<!DOCTYPE svg PUBLIC "-//W3C//DTD SVG 1.1//EN"
 "http://www.w3.org/Graphics/SVG/1.1/DTD/svg11.dtd">
<!-- Generated by graphviz version 2.40.1 (20161225.0304)
 -->
<!-- Title: Text::Text Pages: 1 -->
<svg width="698pt" height="142pt"
 viewBox="0.00 0.00 698.00 142.00" xmlns="http://www.w3.org/2000/svg" xmlns:xlink="http://www.w3.org/1999/xlink">
<g id="graph0" class="graph" transform="scale(1 1) rotate(0) translate(4 138)">
<title>Text::Text</title>
<!-- Node0 -->
<g id="node1" class="node">
<title>Node0</title>
<polygon fill="#bfbfbf" stroke="#000000" points="0,-57.5 0,-76.5 63,-76.5 63,-57.5 0,-57.5"/>
<text text-anchor="middle" x="31.5" y="-64.5" font-family="Helvetica,sans-Serif" font-size="10.00" fill="#000000">Text::Text</text>
</g>
<!-- Node1 -->
<g id="node2" class="node">
<title>Node1</title>
<g id="a_node2"><a xlink:href="classText.html#a342401fbc97a2b4c902c076e86ba43bd" target="_top" xlink:title="Destructor. ">
<polygon fill="none" stroke="#000000" points="113,-114.5 113,-133.5 184,-133.5 184,-114.5 113,-114.5"/>
<text text-anchor="middle" x="148.5" y="-121.5" font-family="Helvetica,sans-Serif" font-size="10.00" fill="#000000">Text::~Text</text>
</a>
</g>
</g>
<!-- Node0&#45;&gt;Node1 -->
<g id="edge1" class="edge">
<title>Node0&#45;&gt;Node1</title>
<path fill="none" stroke="#191970" d="M46.9772,-76.5723C60.4418,-84.6897 80.6242,-96.3576 99,-105 103.1415,-106.9478 107.5414,-108.8557 111.9431,-110.6657"/>
<polygon fill="#191970" stroke="#191970" points="110.8966,-114.0158 121.4826,-114.4492 113.4774,-107.5089 110.8966,-114.0158"/>
</g>
<!-- Node2 -->
<g id="node3" class="node">
<title>Node2</title>
<g id="a_node3"><a xlink:href="classText.html#a8f486a54a21fafc7a5dfb75975f1621f" target="_top" xlink:title="implements draw function. Renders the SDL_Texture generated from the TTF. ">
<polygon fill="none" stroke="#000000" points="115,-76.5 115,-95.5 182,-95.5 182,-76.5 115,-76.5"/>
<text text-anchor="middle" x="148.5" y="-83.5" font-family="Helvetica,sans-Serif" font-size="10.00" fill="#000000">Text::draw</text>
</a>
</g>
</g>
<!-- Node0&#45;&gt;Node2 -->
<g id="edge2" class="edge">
<title>Node0&#45;&gt;Node2</title>
<path fill="none" stroke="#191970" d="M63.1619,-72.1417C75.8892,-74.2085 90.7803,-76.6267 104.5285,-78.8593"/>
<polygon fill="#191970" stroke="#191970" points="104.3325,-82.3733 114.7642,-80.5215 105.4546,-75.4638 104.3325,-82.3733"/>
</g>
<!-- Node5 -->
<g id="node6" class="node">
<title>Node5</title>
<g id="a_node6"><a xlink:href="classText.html#a14b9f0937696af5fd95317eb8313bf92" target="_top" xlink:title="sets the text for this text widget. ">
<polygon fill="none" stroke="#000000" points="265.5,-10.5 265.5,-29.5 343.5,-29.5 343.5,-10.5 265.5,-10.5"/>
<text text-anchor="middle" x="304.5" y="-17.5" font-family="Helvetica,sans-Serif" font-size="10.00" fill="#000000">Text::setText</text>
</a>
</g>
</g>
<!-- Node0&#45;&gt;Node5 -->
<g id="edge5" class="edge">
<title>Node0&#45;&gt;Node5</title>
<path fill="none" stroke="#191970" d="M63.0833,-61.5626C110.2542,-53.4416 199.5185,-38.0737 255.2903,-28.472"/>
<polygon fill="#191970" stroke="#191970" points="256.0355,-31.8953 265.2967,-26.7493 254.8478,-24.9968 256.0355,-31.8953"/>
</g>
<!-- Node8 -->
<g id="node9" class="node">
<title>Node8</title>
<g id="a_node9"><a xlink:href="classText.html#a398a47abd355749d9e99bf74aa6a4a8d" target="_top" xlink:title="Sets the Font size of this element. ">
<polygon fill="none" stroke="#000000" points="99,-.5 99,-19.5 198,-19.5 198,-.5 99,-.5"/>
<text text-anchor="middle" x="148.5" y="-7.5" font-family="Helvetica,sans-Serif" font-size="10.00" fill="#000000">Text::setFontSize</text>
</a>
</g>
</g>
<!-- Node0&#45;&gt;Node8 -->
<g id="edge9" class="edge">
<title>Node0&#45;&gt;Node8</title>
<path fill="none" stroke="#191970" d="M50.987,-57.4522C64.465,-50.8536 82.8152,-41.8798 99,-34 105.5771,-30.7978 112.6496,-27.3634 119.3323,-24.1223"/>
<polygon fill="#191970" stroke="#191970" points="121.2693,-27.073 128.7413,-19.5617 118.2161,-20.774 121.2693,-27.073"/>
</g>
<!-- Node3 -->
<g id="node4" class="node">
<title>Node3</title>
<g id="a_node4"><a xlink:href="classUIElement.html#abba9217ad94f67e16654cf236577b6c2" target="_top" xlink:title="Check the UI Elements visibility. Check if the UI Element is visibile. ">
<polygon fill="none" stroke="#000000" points="247,-95.5 247,-114.5 362,-114.5 362,-95.5 247,-95.5"/>
<text text-anchor="middle" x="304.5" y="-102.5" font-family="Helvetica,sans-Serif" font-size="10.00" fill="#000000">UIElement::isVisible</text>
</a>
</g>
</g>
<!-- Node2&#45;&gt;Node3 -->
<g id="edge3" class="edge">
<title>Node2&#45;&gt;Node3</title>
<path fill="none" stroke="#191970" d="M182.3497,-90.1227C198.3011,-92.0655 217.9258,-94.4557 236.7415,-96.7474"/>
<polygon fill="#191970" stroke="#191970" points="236.4321,-100.2355 246.7819,-97.9702 237.2784,-93.2868 236.4321,-100.2355"/>
</g>
<!-- Node4 -->
<g id="node5" class="node">
<title>Node4</title>
<g id="a_node5"><a xlink:href="classUIElement.html#a0a6d27dea5d855c208e9bd9043b7ea62" target="_top" xlink:title="UIElement::renderTexture">
<polygon fill="none" stroke="#000000" points="234,-57.5 234,-76.5 375,-76.5 375,-57.5 234,-57.5"/>
<text text-anchor="middle" x="304.5" y="-64.5" font-family="Helvetica,sans-Serif" font-size="10.00" fill="#000000">UIElement::renderTexture</text>
</a>
</g>
</g>
<!-- Node2&#45;&gt;Node4 -->
<g id="edge4" class="edge">
<title>Node2&#45;&gt;Node4</title>
<path fill="none" stroke="#191970" d="M182.3497,-81.8773C194.6544,-80.3786 209.1448,-78.6138 223.7636,-76.8333"/>
<polygon fill="#191970" stroke="#191970" points="224.376,-80.2846 233.8794,-75.6012 223.5296,-73.336 224.376,-80.2846"/>
</g>
<!-- Node6 -->
<g id="node7" class="node">
<title>Node6</title>
<g id="a_node7"><a xlink:href="classText.html#a3bf5a064fd37d06b8d3dc5a700556897" target="_top" xlink:title="Draws a text string to the screen Draws a text string to the screen. This could either be a standalon...">
<polygon fill="none" stroke="#000000" points="411,-10.5 411,-29.5 541,-29.5 541,-10.5 411,-10.5"/>
<text text-anchor="middle" x="476" y="-17.5" font-family="Helvetica,sans-Serif" font-size="10.00" fill="#000000">Text::createTextTexture</text>
</a>
</g>
</g>
<!-- Node5&#45;&gt;Node6 -->
<g id="edge6" class="edge">
<title>Node5&#45;&gt;Node6</title>
<path fill="none" stroke="#191970" d="M343.8456,-20C360.7723,-20 381.1512,-20 400.7824,-20"/>
<polygon fill="#191970" stroke="#191970" points="400.9579,-23.5001 410.9578,-20 400.9578,-16.5001 400.9579,-23.5001"/>
</g>
<!-- Node7 -->
<g id="node8" class="node">
<title>Node7</title>
<g id="a_node8"><a xlink:href="classSingleton.html#af5cb1e5749949e2b68416cfb8d378044" target="_top" xlink:title="Get an instance of the singleton. ">
<polygon fill="none" stroke="#000000" points="577,-5 577,-35 690,-35 690,-5 577,-5"/>
<text text-anchor="start" x="585" y="-23" font-family="Helvetica,sans-Serif" font-size="10.00" fill="#000000">Singleton&lt; Settings</text>
<text text-anchor="middle" x="633.5" y="-12" font-family="Helvetica,sans-Serif" font-size="10.00" fill="#000000"> &gt;::instance</text>
</a>
</g>
</g>
<!-- Node6&#45;&gt;Node7 -->
<g id="edge7" class="edge">
<title>Node6&#45;&gt;Node7</title>
<path fill="none" stroke="#191970" d="M541.4259,-13.3366C549.7178,-13.2279 558.2128,-13.2215 566.5285,-13.3176"/>
<polygon fill="#191970" stroke="#191970" points="566.4999,-16.8175 576.5571,-13.4855 566.6172,-9.8185 566.4999,-16.8175"/>
</g>
<!-- Node6&#45;&gt;Node7 -->
<g id="edge8" class="edge">
<title>Node6&#45;&gt;Node7</title>
<path fill="none" stroke="#191970" d="M541.4259,-26.6634C549.7178,-26.7721 558.2128,-26.7785 566.5285,-26.6824"/>
<polygon fill="#191970" stroke="#191970" points="566.6172,-30.1815 576.5571,-26.5145 566.4999,-23.1825 566.6172,-30.1815"/>
</g>
<!-- Node8&#45;&gt;Node5 -->
<g id="edge10" class="edge">
<title>Node8&#45;&gt;Node5</title>
<path fill="none" stroke="#191970" d="M198.2883,-13.1916C216.4861,-14.3581 237.0516,-15.6764 255.206,-16.8401"/>
<polygon fill="#191970" stroke="#191970" points="255.0924,-20.3399 265.2959,-17.4869 255.5403,-13.3543 255.0924,-20.3399"/>
</g>
</g>
</svg>
