<?xml version="1.0" encoding="UTF-8" standalone="no"?>
<!DOCTYPE svg PUBLIC "-//W3C//DTD SVG 1.1//EN"
 "http://www.w3.org/Graphics/SVG/1.1/DTD/svg11.dtd">
<!-- Generated by graphviz version 2.40.1 (20161225.0304)
 -->
<!-- Title: TerrainGenerator::generateTerrain Pages: 1 -->
<!--zoomable 251 -->
<svg id="main" version="1.1" xmlns="http://www.w3.org/2000/svg" xmlns:xlink="http://www.w3.org/1999/xlink" xml:space="preserve" onload="init(evt)">
<style type="text/css"><![CDATA[
.edge:hover path { stroke: red; }
.edge:hover polygon { stroke: red; fill: red; }
]]></style>
<script type="text/javascript"><![CDATA[
var edges = document.getElementsByTagName('g');
if (edges && edges.length) {
  for (var i=0;i<edges.length;i++) {
    if (edges[i].id.substr(0,4)=='edge') {
      edges[i].setAttribute('class','edge');
    }
  }
}
]]></script>
        <defs>
                <circle id="rim" cx="0" cy="0" r="7"/>
                <circle id="rim2" cx="0" cy="0" r="3.5"/>
                <g id="zoomPlus">
                        <use xlink:href="#rim" fill="#404040">
                                <set attributeName="fill" to="#808080" begin="zoomplus.mouseover" end="zoomplus.mouseout"/>
                        </use>
                        <path d="M-4,0h8M0,-4v8" fill="none" stroke="white" stroke-width="1.5" pointer-events="none"/>
                </g>
                <g id="zoomMin">
                        <use xlink:href="#rim" fill="#404040">
                                <set attributeName="fill" to="#808080" begin="zoomminus.mouseover" end="zoomminus.mouseout"/>
                        </use>
                        <path d="M-4,0h8" fill="none" stroke="white" stroke-width="1.5" pointer-events="none"/>
                </g>
                <g id="dirArrow">
                        <path fill="none" stroke="white" stroke-width="1.5" d="M0,-3.0v7 M-2.5,-0.5L0,-3.0L2.5,-0.5"/>
                </g>
               <g id="resetDef">
                       <use xlink:href="#rim2" fill="#404040">
                               <set attributeName="fill" to="#808080" begin="reset.mouseover" end="reset.mouseout"/>
                       </use>
               </g>
        </defs>

<script type="text/javascript">
var viewWidth = 1287;
var viewHeight = 251;
var sectionId = 'dynsection-2';
</script>
<script xlink:href="svgpan.js"/>
<svg id="graph" class="graph">
<g id="viewport">
<title>TerrainGenerator::generateTerrain</title>
<!-- Node6 -->
<g id="node1" class="node">
<title>Node6</title>
<polygon fill="#bfbfbf" stroke="#000000" points="0,-90 0,-120 148,-120 148,-90 0,-90"/>
<text text-anchor="start" x="8" y="-108" font-family="Helvetica,sans-Serif" font-size="10.00" fill="#000000">TerrainGenerator::generate</text>
<text text-anchor="middle" x="74" y="-97" font-family="Helvetica,sans-Serif" font-size="10.00" fill="#000000">Terrain</text>
</g>
<!-- Node7 -->
<g id="node2" class="node">
<title>Node7</title>
<g id="a_node2"><a xlink:href="classMap.html#a482ac34426e8aa66abb46f60ec329402" target="_top" xlink:title="Initialize the Map with node objects Initialize the Map with node objects. ">
<polygon fill="none" stroke="#000000" points="184,-95.5 184,-114.5 263,-114.5 263,-95.5 184,-95.5"/>
<text text-anchor="middle" x="223.5" y="-102.5" font-family="Helvetica,sans-Serif" font-size="10.00" fill="#000000">Map::initMap</text>
</a>
</g>
</g>
<!-- Node6&#45;&gt;Node7 -->
<g id="edge1" class="edge">
<title>Node6&#45;&gt;Node7</title>
<path fill="none" stroke="#191970" d="M158.3874,-105C167.2662,-105 175.9604,-105 183.9578,-105"/>
<polygon fill="#191970" stroke="#191970" points="158.312,-101.5001 148.312,-105 158.312,-108.5001 158.312,-101.5001"/>
</g>
<!-- Node8 -->
<g id="node3" class="node">
<title>Node8</title>
<g id="a_node3"><a xlink:href="classEngine.html#a260d4834150eae6eec2bde34df6dc827" target="_top" xlink:title="Creates a new game Creates a new game. ">
<polygon fill="none" stroke="#000000" points="469,-190.5 469,-209.5 574,-209.5 574,-190.5 469,-190.5"/>
<text text-anchor="middle" x="521.5" y="-197.5" font-family="Helvetica,sans-Serif" font-size="10.00" fill="#000000">Engine::newGame</text>
</a>
</g>
</g>
<!-- Node7&#45;&gt;Node8 -->
<g id="edge2" class="edge">
<title>Node7&#45;&gt;Node8</title>
<path fill="none" stroke="#191970" d="M263.012,-117.5961C323.4411,-136.8604 437.4896,-173.2182 491.5821,-190.4624"/>
<polygon fill="#191970" stroke="#191970" points="264.0285,-114.2467 253.4378,-114.5439 261.9023,-120.916 264.0285,-114.2467"/>
</g>
<!-- Node16 -->
<g id="node11" class="node">
<title>Node16</title>
<g id="a_node11"><a xlink:href="classMap.html#afefe996cc1f62b61ec60d0ae415953bf" target="_top" xlink:title="Map::loadMapFromFile">
<polygon fill="none" stroke="#000000" points="299,-76.5 299,-95.5 424,-95.5 424,-76.5 299,-76.5"/>
<text text-anchor="middle" x="361.5" y="-83.5" font-family="Helvetica,sans-Serif" font-size="10.00" fill="#000000">Map::loadMapFromFile</text>
</a>
</g>
</g>
<!-- Node7&#45;&gt;Node16 -->
<g id="edge13" class="edge">
<title>Node7&#45;&gt;Node16</title>
<path fill="none" stroke="#191970" d="M272.9946,-98.1855C281.3506,-97.0351 290.1224,-95.8274 298.7621,-94.6378"/>
<polygon fill="#191970" stroke="#191970" points="272.4744,-94.724 263.0453,-99.5554 273.4292,-101.6586 272.4744,-94.724"/>
</g>
<!-- Node9 -->
<g id="node4" class="node">
<title>Node9</title>
<g id="a_node4"><a xlink:href="classEngine.html#af7de8d74b0cfacaf06df53e7caf11538" target="_top" xlink:title="Engine::saveGame">
<polygon fill="none" stroke="#000000" points="633,-190.5 633,-209.5 741,-209.5 741,-190.5 633,-190.5"/>
<text text-anchor="middle" x="687" y="-197.5" font-family="Helvetica,sans-Serif" font-size="10.00" fill="#000000">Engine::saveGame</text>
</a>
</g>
</g>
<!-- Node8&#45;&gt;Node9 -->
<g id="edge3" class="edge">
<title>Node8&#45;&gt;Node9</title>
<path fill="none" stroke="#191970" d="M584.6194,-200C600.5588,-200 617.5294,-200 632.9755,-200"/>
<polygon fill="#191970" stroke="#191970" points="584.3203,-196.5001 574.3203,-200 584.3202,-203.5001 584.3203,-196.5001"/>
</g>
<!-- Node10 -->
<g id="node5" class="node">
<title>Node10</title>
<g id="a_node5"><a xlink:href="classUIManager.html#aa78e356fc3b356d790c848319d1c387e" target="_top" xlink:title="UIManager::setCallbackFunctions">
<polygon fill="none" stroke="#000000" points="791,-152.5 791,-171.5 969,-171.5 969,-152.5 791,-152.5"/>
<text text-anchor="middle" x="880" y="-159.5" font-family="Helvetica,sans-Serif" font-size="10.00" fill="#000000">UIManager::setCallbackFunctions</text>
</a>
</g>
</g>
<!-- Node8&#45;&gt;Node10 -->
<g id="edge5" class="edge">
<title>Node8&#45;&gt;Node10</title>
<path fill="none" stroke="#191970" d="M568.3372,-211.794C615.8669,-221.9062 691.3115,-232.8357 755,-219 796.9535,-209.886 841.708,-185.4086 864.5834,-171.6785"/>
<polygon fill="#191970" stroke="#191970" points="568.8602,-208.3253 558.3412,-209.5913 567.3538,-215.1613 568.8602,-208.3253"/>
</g>
<!-- Node11 -->
<g id="node6" class="node">
<title>Node11</title>
<g id="a_node6"><a xlink:href="classGame.html#a5ed7fc5be77080f7f6dd5363f7f007a1" target="_top" xlink:title="initializes and displays the main menu initializes and displays the main menu ">
<polygon fill="none" stroke="#000000" points="828.5,-76.5 828.5,-95.5 931.5,-95.5 931.5,-76.5 828.5,-76.5"/>
<text text-anchor="middle" x="880" y="-83.5" font-family="Helvetica,sans-Serif" font-size="10.00" fill="#000000">Game::mainMenu</text>
</a>
</g>
</g>
<!-- Node8&#45;&gt;Node11 -->
<g id="edge6" class="edge">
<title>Node8&#45;&gt;Node11</title>
<path fill="none" stroke="#191970" d="M561.106,-187.4056C633.4107,-164.4133 785.2829,-116.1193 849.8842,-95.5766"/>
<polygon fill="#191970" stroke="#191970" points="559.918,-184.1106 551.4489,-190.4765 562.0393,-190.7815 559.918,-184.1106"/>
</g>
<!-- Node15 -->
<g id="node10" class="node">
<title>Node15</title>
<g id="a_node10"><a xlink:href="classGame.html#a1c2ab25d5216b2f4b2fe41efd2c09114" target="_top" xlink:title="begins the game starts running the game ">
<polygon fill="none" stroke="#000000" points="1005,-76.5 1005,-95.5 1073,-95.5 1073,-76.5 1005,-76.5"/>
<text text-anchor="middle" x="1039" y="-83.5" font-family="Helvetica,sans-Serif" font-size="10.00" fill="#000000">Game::run</text>
</a>
</g>
</g>
<!-- Node8&#45;&gt;Node15 -->
<g id="edge10" class="edge">
<title>Node8&#45;&gt;Node15</title>
<path fill="none" stroke="#191970" d="M550.3755,-213.7361C569.3911,-222.0031 595.1009,-231.7288 619,-236 678.5017,-246.6341 695.0331,-243.5828 755,-236 852.4263,-223.6805 887.6008,-235.9347 969,-181 1002.2836,-158.5376 1025.6344,-114.7835 1034.7518,-95.5076"/>
<polygon fill="#191970" stroke="#191970" points="551.6444,-210.4696 541.0868,-209.5826 548.787,-216.8599 551.6444,-210.4696"/>
</g>
<!-- Node9&#45;&gt;Node10 -->
<g id="edge4" class="edge">
<title>Node9&#45;&gt;Node10</title>
<path fill="none" stroke="#191970" d="M745.6016,-188.4619C773.1289,-183.042 805.5476,-176.659 831.6482,-171.5201"/>
<polygon fill="#191970" stroke="#191970" points="744.8375,-185.045 735.702,-190.411 746.1898,-191.9132 744.8375,-185.045"/>
</g>
<!-- Node12 -->
<g id="node7" class="node">
<title>Node12</title>
<g id="a_node7"><a xlink:href="classGame.html#ad59df6562a58a614fda24622d3715b65" target="_top" xlink:title="Game::Game">
<polygon fill="none" stroke="#000000" points="1115,-95.5 1115,-114.5 1196,-114.5 1196,-95.5 1115,-95.5"/>
<text text-anchor="middle" x="1155.5" y="-102.5" font-family="Helvetica,sans-Serif" font-size="10.00" fill="#000000">Game::Game</text>
</a>
</g>
</g>
<!-- Node11&#45;&gt;Node12 -->
<g id="edge7" class="edge">
<title>Node11&#45;&gt;Node12</title>
<path fill="none" stroke="#191970" d="M940.9441,-97.1464C961.2452,-100.3553 984.0283,-103.4153 1005,-105 1042.1272,-107.8056 1084.5536,-107.4877 1114.8759,-106.6544"/>
<polygon fill="#191970" stroke="#191970" points="941.3195,-93.6616 930.8878,-95.5136 940.1975,-100.5711 941.3195,-93.6616"/>
</g>
<!-- Node13 -->
<g id="node8" class="node">
<title>Node13</title>
<g id="a_node8"><a xlink:href="main_8cxx.html#af582d708d899e67ead623eac34a22387" target="_top" xlink:title="protected_main">
<polygon fill="none" stroke="#000000" points="1109,-57.5 1109,-76.5 1202,-76.5 1202,-57.5 1109,-57.5"/>
<text text-anchor="middle" x="1155.5" y="-64.5" font-family="Helvetica,sans-Serif" font-size="10.00" fill="#000000">protected_main</text>
</a>
</g>
</g>
<!-- Node11&#45;&gt;Node13 -->
<g id="edge8" class="edge">
<title>Node11&#45;&gt;Node13</title>
<path fill="none" stroke="#191970" d="M940.9441,-74.8536C961.2452,-71.6447 984.0283,-68.5847 1005,-67 1039.7823,-64.3716 1079.2157,-64.4846 1108.9902,-65.1945"/>
<polygon fill="#191970" stroke="#191970" points="940.1975,-71.4289 930.8878,-76.4864 941.3195,-78.3384 940.1975,-71.4289"/>
</g>
<!-- Node14 -->
<g id="node9" class="node">
<title>Node14</title>
<g id="a_node9"><a xlink:href="main_8cxx.html#a3c04138a5bfe5d72780bb7e82a18e627" target="_top" xlink:title="main">
<polygon fill="none" stroke="#000000" points="1238,-57.5 1238,-76.5 1279,-76.5 1279,-57.5 1238,-57.5"/>
<text text-anchor="middle" x="1258.5" y="-64.5" font-family="Helvetica,sans-Serif" font-size="10.00" fill="#000000">main</text>
</a>
</g>
</g>
<!-- Node13&#45;&gt;Node14 -->
<g id="edge9" class="edge">
<title>Node13&#45;&gt;Node14</title>
<path fill="none" stroke="#191970" d="M1212.2133,-67C1221.4322,-67 1230.4259,-67 1237.9965,-67"/>
<polygon fill="#191970" stroke="#191970" points="1212.1782,-63.5001 1202.1782,-67 1212.1781,-70.5001 1212.1782,-63.5001"/>
</g>
<!-- Node15&#45;&gt;Node12 -->
<g id="edge11" class="edge">
<title>Node15&#45;&gt;Node12</title>
<path fill="none" stroke="#191970" d="M1083.0985,-93.192C1093.4513,-94.8805 1104.439,-96.6725 1114.6427,-98.3366"/>
<polygon fill="#191970" stroke="#191970" points="1083.4428,-89.702 1073.0098,-91.5467 1082.316,-96.6107 1083.4428,-89.702"/>
</g>
<!-- Node15&#45;&gt;Node13 -->
<g id="edge12" class="edge">
<title>Node15&#45;&gt;Node13</title>
<path fill="none" stroke="#191970" d="M1082.9884,-78.8259C1091.382,-77.457 1100.1965,-76.0195 1108.6749,-74.6367"/>
<polygon fill="#191970" stroke="#191970" points="1082.316,-75.3893 1073.0098,-80.4533 1083.4428,-82.298 1082.316,-75.3893"/>
</g>
<!-- Node17 -->
<g id="node12" class="node">
<title>Node17</title>
<g id="a_node12"><a xlink:href="classEngine.html#a83b7dbeee899b36a13d5b07c7ad87ebc" target="_top" xlink:title="Loads a saved game Loads a saved Game. ">
<polygon fill="none" stroke="#000000" points="468.5,-76.5 468.5,-95.5 574.5,-95.5 574.5,-76.5 468.5,-76.5"/>
<text text-anchor="middle" x="521.5" y="-83.5" font-family="Helvetica,sans-Serif" font-size="10.00" fill="#000000">Engine::loadGame</text>
</a>
</g>
</g>
<!-- Node16&#45;&gt;Node17 -->
<g id="edge14" class="edge">
<title>Node16&#45;&gt;Node17</title>
<path fill="none" stroke="#191970" d="M434.3143,-86C445.8222,-86 457.53,-86 468.4749,-86"/>
<polygon fill="#191970" stroke="#191970" points="434.2771,-82.5001 424.277,-86 434.277,-89.5001 434.2771,-82.5001"/>
</g>
<!-- Node20 -->
<g id="node15" class="node">
<title>Node20</title>
<g id="a_node15"><a xlink:href="classMap.html#a779c939483a52b32a3959b99af95e67a" target="_top" xlink:title="Set the Tile ID Of Node object Also invokes all necessary texture updates (auto&#45;tiling, slopes, ...) ">
<polygon fill="none" stroke="#000000" points="460,-19.5 460,-38.5 583,-38.5 583,-19.5 460,-19.5"/>
<text text-anchor="middle" x="521.5" y="-26.5" font-family="Helvetica,sans-Serif" font-size="10.00" fill="#000000">Map::setTileIDOfNode</text>
</a>
</g>
</g>
<!-- Node16&#45;&gt;Node20 -->
<g id="edge22" class="edge">
<title>Node16&#45;&gt;Node20</title>
<path fill="none" stroke="#191970" d="M397.7904,-73.0715C427.2302,-62.5836 468.0655,-48.0361 494.6322,-38.5716"/>
<polygon fill="#191970" stroke="#191970" points="396.5259,-69.8065 388.2804,-76.4595 398.8751,-76.4005 396.5259,-69.8065"/>
</g>
<!-- Node17&#45;&gt;Node10 -->
<g id="edge20" class="edge">
<title>Node17&#45;&gt;Node10</title>
<path fill="none" stroke="#191970" d="M576.6291,-97.6871C647.5968,-112.7318 769.5559,-138.5865 835.143,-152.4906"/>
<polygon fill="#191970" stroke="#191970" points="577.0497,-94.1985 566.5413,-95.5485 575.598,-101.0463 577.0497,-94.1985"/>
</g>
<!-- Node17&#45;&gt;Node11 -->
<g id="edge21" class="edge">
<title>Node17&#45;&gt;Node11</title>
<path fill="none" stroke="#191970" d="M585.1405,-86C654.5338,-86 764.2452,-86 828.461,-86"/>
<polygon fill="#191970" stroke="#191970" points="584.784,-82.5001 574.784,-86 584.7839,-89.5001 584.784,-82.5001"/>
</g>
<!-- Node18 -->
<g id="node13" class="node">
<title>Node18</title>
<g id="a_node13"><a xlink:href="classEngine.html#a0ba57971ffb5173ecc425461f65a4cd8" target="_top" xlink:title="Quits the game Sets m_running to false and quitting the game. ">
<polygon fill="none" stroke="#000000" points="635,-38.5 635,-57.5 739,-57.5 739,-38.5 635,-38.5"/>
<text text-anchor="middle" x="687" y="-45.5" font-family="Helvetica,sans-Serif" font-size="10.00" fill="#000000">Engine::quitGame</text>
</a>
</g>
</g>
<!-- Node17&#45;&gt;Node18 -->
<g id="edge15" class="edge">
<title>Node17&#45;&gt;Node18</title>
<path fill="none" stroke="#191970" d="M573.3105,-74.1039C596.5733,-68.7626 623.6469,-62.5463 645.5377,-57.5201"/>
<polygon fill="#191970" stroke="#191970" points="572.2258,-70.7618 563.2626,-76.411 573.7923,-77.5843 572.2258,-70.7618"/>
</g>
<!-- Node18&#45;&gt;Node10 -->
<g id="edge18" class="edge">
<title>Node18&#45;&gt;Node10</title>
<path fill="none" stroke="#191970" d="M711.7686,-62.6301C751.8907,-86.3292 830.0043,-132.4689 863.787,-152.4234"/>
<polygon fill="#191970" stroke="#191970" points="713.5133,-59.5958 703.1231,-57.5235 709.9532,-65.6229 713.5133,-59.5958"/>
</g>
<!-- Node18&#45;&gt;Node11 -->
<g id="edge19" class="edge">
<title>Node18&#45;&gt;Node11</title>
<path fill="none" stroke="#191970" d="M745.6016,-59.5381C773.1289,-64.958 805.5476,-71.341 831.6482,-76.4799"/>
<polygon fill="#191970" stroke="#191970" points="746.1898,-56.0868 735.702,-57.589 744.8375,-62.955 746.1898,-56.0868"/>
</g>
<!-- Node19 -->
<g id="node14" class="node">
<title>Node19</title>
<g id="a_node14"><a xlink:href="classEventManager.html#a65ec91fd5016d4f9c4167fb8babed2df" target="_top" xlink:title="EventManager::checkEvents">
<polygon fill="none" stroke="#000000" points="803,-38.5 803,-57.5 957,-57.5 957,-38.5 803,-38.5"/>
<text text-anchor="middle" x="880" y="-45.5" font-family="Helvetica,sans-Serif" font-size="10.00" fill="#000000">EventManager::checkEvents</text>
</a>
</g>
</g>
<!-- Node18&#45;&gt;Node19 -->
<g id="edge16" class="edge">
<title>Node18&#45;&gt;Node19</title>
<path fill="none" stroke="#191970" d="M749.5536,-48C766.5044,-48 785.0568,-48 802.7146,-48"/>
<polygon fill="#191970" stroke="#191970" points="749.2286,-44.5001 739.2286,-48 749.2285,-51.5001 749.2286,-44.5001"/>
</g>
<!-- Node19&#45;&gt;Node15 -->
<g id="edge17" class="edge">
<title>Node19&#45;&gt;Node15</title>
<path fill="none" stroke="#191970" d="M937.2283,-59.7338C947.8154,-62.0415 958.7599,-64.5192 969,-67 980.8713,-69.876 993.7963,-73.3003 1005.2721,-76.4446"/>
<polygon fill="#191970" stroke="#191970" points="937.7348,-56.2627 927.222,-57.5786 936.2609,-63.1058 937.7348,-56.2627"/>
</g>
<!-- Node21 -->
<g id="node16" class="node">
<title>Node21</title>
<g id="a_node16"><a xlink:href="classEngine.html#a8a53c5e52734a5158b317851361b83f2" target="_top" xlink:title="Engine::setTileIDOfNode">
<polygon fill="none" stroke="#000000" points="619,-.5 619,-19.5 755,-19.5 755,-.5 619,-.5"/>
<text text-anchor="middle" x="687" y="-7.5" font-family="Helvetica,sans-Serif" font-size="10.00" fill="#000000">Engine::setTileIDOfNode</text>
</a>
</g>
</g>
<!-- Node20&#45;&gt;Node21 -->
<g id="edge23" class="edge">
<title>Node20&#45;&gt;Node21</title>
<path fill="none" stroke="#191970" d="M593.094,-20.7808C601.6681,-19.7964 610.405,-18.7934 618.9273,-17.815"/>
<polygon fill="#191970" stroke="#191970" points="592.6616,-17.3073 583.1261,-21.9251 593.4601,-24.2616 592.6616,-17.3073"/>
</g>
<!-- Node21&#45;&gt;Node19 -->
<g id="edge24" class="edge">
<title>Node21&#45;&gt;Node19</title>
<path fill="none" stroke="#191970" d="M745.6016,-21.5381C773.1289,-26.958 805.5476,-33.341 831.6482,-38.4799"/>
<polygon fill="#191970" stroke="#191970" points="746.1898,-18.0868 735.702,-19.589 744.8375,-24.955 746.1898,-18.0868"/>
</g>
</g>
</svg>
        <g id="navigator" transform="translate(0 0)" fill="#404254">
                <rect fill="#f2f5e9" fill-opacity="0.5" stroke="#606060" stroke-width=".5" x="0" y="0" width="60" height="60"/>
                <use id="zoomplus" xlink:href="#zoomPlus" x="17" y="9" onmousedown="handleZoom(evt,'in')"/>
                <use id="zoomminus" xlink:href="#zoomMin" x="42" y="9" onmousedown="handleZoom(evt,'out')"/>
                <use id="reset" xlink:href="#resetDef" x="30" y="36" onmousedown="handleReset()"/>
                <g id="arrowUp" xlink:href="#dirArrow" transform="translate(30 24)" onmousedown="handlePan(0,-1)">
                  <use xlink:href="#rim" fill="#404040">
                        <set attributeName="fill" to="#808080" begin="arrowUp.mouseover" end="arrowUp.mouseout"/>
                  </use>
                  <path fill="none" stroke="white" stroke-width="1.5" d="M0,-3.0v7 M-2.5,-0.5L0,-3.0L2.5,-0.5"/>
                </g>
                <g id="arrowRight" xlink:href="#dirArrow" transform="rotate(90) translate(36 -43)" onmousedown="handlePan(1,0)">
                  <use xlink:href="#rim" fill="#404040">
                        <set attributeName="fill" to="#808080" begin="arrowRight.mouseover" end="arrowRight.mouseout"/>
                  </use>
                  <path fill="none" stroke="white" stroke-width="1.5" d="M0,-3.0v7 M-2.5,-0.5L0,-3.0L2.5,-0.5"/>
                </g>
                <g id="arrowDown" xlink:href="#dirArrow" transform="rotate(180) translate(-30 -48)" onmousedown="handlePan(0,1)">
                  <use xlink:href="#rim" fill="#404040">
                        <set attributeName="fill" to="#808080" begin="arrowDown.mouseover" end="arrowDown.mouseout"/>
                  </use>
                  <path fill="none" stroke="white" stroke-width="1.5" d="M0,-3.0v7 M-2.5,-0.5L0,-3.0L2.5,-0.5"/>
                </g>
                <g id="arrowLeft" xlink:href="#dirArrow" transform="rotate(270) translate(-36 17)" onmousedown="handlePan(-1,0)">
                  <use xlink:href="#rim" fill="#404040">
                        <set attributeName="fill" to="#808080" begin="arrowLeft.mouseover" end="arrowLeft.mouseout"/>
                  </use>
                  <path fill="none" stroke="white" stroke-width="1.5" d="M0,-3.0v7 M-2.5,-0.5L0,-3.0L2.5,-0.5"/>
                </g>
        </g>
        <svg viewBox="0 0 15 15" width="100%" height="30px" preserveAspectRatio="xMaxYMin meet">
         <g id="arrow_out" transform="scale(0.3 0.3)">
          <a xlink:href="classTerrainGenerator_adcc251757a1f3a06471a49f17886b8ce_icgraph_org.svg" target="_base">
           <rect id="button" ry="5" rx="5" y="6" x="6" height="38" width="38"
                fill="#f2f5e9" fill-opacity="0.5" stroke="#606060" stroke-width="1.0"/>
           <path id="arrow"
             d="M 11.500037,31.436501 C 11.940474,20.09759 22.043105,11.32322 32.158766,21.979434 L 37.068811,17.246167 C 37.068811,17.246167 37.088388,32 37.088388,32 L 22.160133,31.978069 C 22.160133,31.978069 26.997745,27.140456 26.997745,27.140456 C 18.528582,18.264221 13.291696,25.230495 11.500037,31.436501 z"
             style="fill:#404040;"/>
          </a>
         </g>
        </svg>
</svg>
