<?xml version="1.0" encoding="UTF-8" standalone="no"?>
<!DOCTYPE svg PUBLIC "-//W3C//DTD SVG 1.1//EN"
 "http://www.w3.org/Graphics/SVG/1.1/DTD/svg11.dtd">
<!-- Generated by graphviz version 2.40.1 (20161225.0304)
 -->
<!-- Title: Engine::newGame Pages: 1 -->
<svg width="942pt" height="268pt"
 viewBox="0.00 0.00 942.00 267.63" xmlns="http://www.w3.org/2000/svg" xmlns:xlink="http://www.w3.org/1999/xlink">
<g id="graph0" class="graph" transform="scale(1 1) rotate(0) translate(4 263.6317)">
<title>Engine::newGame</title>
<!-- Node88 -->
<g id="node1" class="node">
<title>Node88</title>
<polygon fill="#bfbfbf" stroke="#000000" points="0,-171.1317 0,-190.1317 105,-190.1317 105,-171.1317 0,-171.1317"/>
<text text-anchor="middle" x="52.5" y="-178.1317" font-family="Helvetica,sans-Serif" font-size="10.00" fill="#000000">Engine::newGame</text>
</g>
<!-- Node89 -->
<g id="node2" class="node">
<title>Node89</title>
<g id="a_node2"><a xlink:href="classSingleton.html#af5cb1e5749949e2b68416cfb8d378044" target="_top" xlink:title="Get an instance of the singleton. ">
<polygon fill="none" stroke="#000000" points="821,-225.6317 821,-255.6317 934,-255.6317 934,-225.6317 821,-225.6317"/>
<text text-anchor="start" x="829" y="-243.6317" font-family="Helvetica,sans-Serif" font-size="10.00" fill="#000000">Singleton&lt; Settings</text>
<text text-anchor="middle" x="877.5" y="-232.6317" font-family="Helvetica,sans-Serif" font-size="10.00" fill="#000000"> &gt;::instance</text>
</a>
</g>
</g>
<!-- Node88&#45;&gt;Node89 -->
<g id="edge1" class="edge">
<title>Node88&#45;&gt;Node89</title>
<path fill="none" stroke="#191970" d="M71.8117,-190.161C116.2324,-211.1726 229.5669,-259.6317 330,-259.6317 330,-259.6317 330,-259.6317 521.5,-259.6317 622.3768,-259.6317 739.1042,-251.9304 810.6106,-246.334"/>
<polygon fill="#191970" stroke="#191970" points="811.1331,-249.8037 820.8254,-245.5247 810.5802,-242.8255 811.1331,-249.8037"/>
</g>
<!-- Node90 -->
<g id="node3" class="node">
<title>Node90</title>
<g id="a_node3"><a xlink:href="classMap.html#a482ac34426e8aa66abb46f60ec329402" target="_top" xlink:title="Initialize the Map with node objects Initialize the Map with node objects. ">
<polygon fill="none" stroke="#000000" points="141,-108.1317 141,-127.1317 220,-127.1317 220,-108.1317 141,-108.1317"/>
<text text-anchor="middle" x="180.5" y="-115.1317" font-family="Helvetica,sans-Serif" font-size="10.00" fill="#000000">Map::initMap</text>
</a>
</g>
</g>
<!-- Node88&#45;&gt;Node90 -->
<g id="edge2" class="edge">
<title>Node88&#45;&gt;Node90</title>
<path fill="none" stroke="#191970" d="M71.9404,-171.0634C93.1794,-160.6099 127.4158,-143.7591 151.759,-131.7777"/>
<polygon fill="#191970" stroke="#191970" points="153.4501,-134.8464 160.8766,-127.2901 150.3588,-128.5659 153.4501,-134.8464"/>
</g>
<!-- Node91 -->
<g id="node4" class="node">
<title>Node91</title>
<g id="a_node4"><a xlink:href="classMapLayers.html#a54ce1eeef2a8998a728ac7074efe8787" target="_top" xlink:title="Enable Drawing Layer Enable Drawing Layer (use bitwise OR to add layer) ">
<polygon fill="none" stroke="#000000" points="262.5,-89.1317 262.5,-108.1317 397.5,-108.1317 397.5,-89.1317 262.5,-89.1317"/>
<text text-anchor="middle" x="330" y="-96.1317" font-family="Helvetica,sans-Serif" font-size="10.00" fill="#000000">MapLayers::enableLayer</text>
</a>
</g>
</g>
<!-- Node90&#45;&gt;Node91 -->
<g id="edge3" class="edge">
<title>Node90&#45;&gt;Node91</title>
<path fill="none" stroke="#191970" d="M220.1708,-112.59C230.1052,-111.3274 241.1088,-109.929 252.202,-108.5191"/>
<polygon fill="#191970" stroke="#191970" points="252.9078,-111.9577 262.3867,-107.2247 252.0252,-105.0135 252.9078,-111.9577"/>
</g>
<!-- Node92 -->
<g id="node5" class="node">
<title>Node92</title>
<g id="a_node5"><a xlink:href="classTerrainGenerator.html#adcc251757a1f3a06471a49f17886b8ce" target="_top" xlink:title="TerrainGenerator::generate\lTerrain">
<polygon fill="none" stroke="#000000" points="256,-39.6317 256,-69.6317 404,-69.6317 404,-39.6317 256,-39.6317"/>
<text text-anchor="start" x="264" y="-57.6317" font-family="Helvetica,sans-Serif" font-size="10.00" fill="#000000">TerrainGenerator::generate</text>
<text text-anchor="middle" x="330" y="-46.6317" font-family="Helvetica,sans-Serif" font-size="10.00" fill="#000000">Terrain</text>
</a>
</g>
</g>
<!-- Node90&#45;&gt;Node92 -->
<g id="edge4" class="edge">
<title>Node90&#45;&gt;Node92</title>
<path fill="none" stroke="#191970" d="M197.8675,-108.0118C212.9628,-99.8646 235.5571,-88.1798 256,-79.6317 261.3699,-77.3864 267.0194,-75.1912 272.7037,-73.0924"/>
<polygon fill="#191970" stroke="#191970" points="274.0318,-76.3344 282.2596,-69.6596 271.6652,-69.7465 274.0318,-76.3344"/>
</g>
<!-- Node94 -->
<g id="node7" class="node">
<title>Node94</title>
<g id="a_node7"><a xlink:href="classMap.html#a481b37ba71ef0e51e836fc42805762dd" target="_top" xlink:title="Update all mapNodes Updates all mapNode and its adjacent tiles regarding height information, draws slopes for adjacent tiles and sets tiling for mapNode sprite if applicable. ">
<polygon fill="none" stroke="#000000" points="270,-127.1317 270,-146.1317 390,-146.1317 390,-127.1317 270,-127.1317"/>
<text text-anchor="middle" x="330" y="-134.1317" font-family="Helvetica,sans-Serif" font-size="10.00" fill="#000000">Map::updateAllNodes</text>
</a>
</g>
</g>
<!-- Node90&#45;&gt;Node94 -->
<g id="edge6" class="edge">
<title>Node90&#45;&gt;Node94</title>
<path fill="none" stroke="#191970" d="M220.1708,-122.6735C232.303,-124.2154 246.0296,-125.9599 259.5668,-127.6804"/>
<polygon fill="#191970" stroke="#191970" points="259.4908,-131.1988 269.8523,-128.9876 260.3734,-124.2546 259.4908,-131.1988"/>
</g>
<!-- Node93 -->
<g id="node6" class="node">
<title>Node93</title>
<g id="a_node6"><a xlink:href="classTerrainGenerator.html#ac94cfaeb9dc89453018399361da5174a" target="_top" xlink:title="TerrainGenerator::loadTerrain\lDataFromJSON">
<polygon fill="none" stroke="#000000" points="442.5,-39.6317 442.5,-69.6317 600.5,-69.6317 600.5,-39.6317 442.5,-39.6317"/>
<text text-anchor="start" x="450.5" y="-57.6317" font-family="Helvetica,sans-Serif" font-size="10.00" fill="#000000">TerrainGenerator::loadTerrain</text>
<text text-anchor="middle" x="521.5" y="-46.6317" font-family="Helvetica,sans-Serif" font-size="10.00" fill="#000000">DataFromJSON</text>
</a>
</g>
</g>
<!-- Node92&#45;&gt;Node93 -->
<g id="edge5" class="edge">
<title>Node92&#45;&gt;Node93</title>
<path fill="none" stroke="#191970" d="M404.0389,-54.6317C413.2368,-54.6317 422.7168,-54.6317 432.1147,-54.6317"/>
<polygon fill="#191970" stroke="#191970" points="432.263,-58.1318 442.263,-54.6317 432.2629,-51.1318 432.263,-58.1318"/>
</g>
<!-- Node95 -->
<g id="node8" class="node">
<title>Node95</title>
<g id="a_node8"><a xlink:href="classMap.html#a59d21f2688713fbcfe320eb1b24405ca" target="_top" xlink:title="Update mapNode and its adjacent tiles Updates mapNode height information, draws slopes for adjacent t...">
<polygon fill="none" stroke="#000000" points="440,-108.1317 440,-127.1317 603,-127.1317 603,-108.1317 440,-108.1317"/>
<text text-anchor="middle" x="521.5" y="-115.1317" font-family="Helvetica,sans-Serif" font-size="10.00" fill="#000000">Map::updateNeighborsOfNode</text>
</a>
</g>
</g>
<!-- Node94&#45;&gt;Node95 -->
<g id="edge7" class="edge">
<title>Node94&#45;&gt;Node95</title>
<path fill="none" stroke="#191970" d="M390.0664,-130.6722C402.6532,-129.4233 416.2,-128.0793 429.6442,-126.7454"/>
<polygon fill="#191970" stroke="#191970" points="430.282,-130.1994 439.8876,-125.7291 429.5908,-123.2336 430.282,-130.1994"/>
</g>
<!-- Node96 -->
<g id="node9" class="node">
<title>Node96</title>
<g id="a_node9"><a xlink:href="classMap.html#aab37e4a52faf81e9b696b8cf1bd9a690" target="_top" xlink:title="Get neighbor MapNode Objects Stores pointers to the neighboring nodes of the given coordinates in the...">
<polygon fill="none" stroke="#000000" points="658,-174.1317 658,-193.1317 766,-193.1317 766,-174.1317 658,-174.1317"/>
<text text-anchor="middle" x="712" y="-181.1317" font-family="Helvetica,sans-Serif" font-size="10.00" fill="#000000">Map::getNeighbors</text>
</a>
</g>
</g>
<!-- Node95&#45;&gt;Node96 -->
<g id="edge8" class="edge">
<title>Node95&#45;&gt;Node96</title>
<path fill="none" stroke="#191970" d="M543.284,-127.3059C566.6454,-137.4526 604.9784,-153.4492 639,-164.6317 646.348,-167.047 654.1911,-169.3591 661.9098,-171.4871"/>
<polygon fill="#191970" stroke="#191970" points="661.0082,-174.8689 671.5735,-174.078 662.821,-168.1077 661.0082,-174.8689"/>
</g>
<!-- Node97 -->
<g id="node10" class="node">
<title>Node97</title>
<g id="a_node10"><a xlink:href="classMap.html#a0ff55eb041cdf29aa582a21145319ce0" target="_top" xlink:title="Get elevated neighbor positions in a bitmask Checks all neighboring tiles and returns the elevated ne...">
<polygon fill="none" stroke="#000000" points="639,-124.6317 639,-154.6317 785,-154.6317 785,-124.6317 639,-124.6317"/>
<text text-anchor="start" x="647" y="-142.6317" font-family="Helvetica,sans-Serif" font-size="10.00" fill="#000000">Map::getElevatedNeighbor</text>
<text text-anchor="middle" x="712" y="-131.6317" font-family="Helvetica,sans-Serif" font-size="10.00" fill="#000000">Bitmask</text>
</a>
</g>
</g>
<!-- Node95&#45;&gt;Node97 -->
<g id="edge9" class="edge">
<title>Node95&#45;&gt;Node97</title>
<path fill="none" stroke="#191970" d="M603.1182,-127.0575C611.6831,-128.0466 620.3981,-129.053 628.9785,-130.044"/>
<polygon fill="#191970" stroke="#191970" points="628.6368,-133.5277 638.9723,-131.1981 629.4399,-126.5739 628.6368,-133.5277"/>
</g>
<!-- Node98 -->
<g id="node11" class="node">
<title>Node98</title>
<g id="a_node11"><a xlink:href="classMap.html#a05e7d896dc5062af07c9b838600a068d" target="_top" xlink:title="Demolish a node Invokes the tiles demolish function. ">
<polygon fill="none" stroke="#000000" points="821,-38.1317 821,-57.1317 934,-57.1317 934,-38.1317 821,-38.1317"/>
<text text-anchor="middle" x="877.5" y="-45.1317" font-family="Helvetica,sans-Serif" font-size="10.00" fill="#000000">Map::demolishNode</text>
</a>
</g>
</g>
<!-- Node95&#45;&gt;Node98 -->
<g id="edge10" class="edge">
<title>Node95&#45;&gt;Node98</title>
<path fill="none" stroke="#191970" d="M533.6691,-108.0456C550.6485,-99.5227 581.7494,-87.7422 603,-69.6317 624.3939,-51.3992 614.1015,-30.6774 639,-17.6317 711.0539,20.1211 812.3201,-12.1184 856.0288,-33.4218"/>
<polygon fill="#191970" stroke="#191970" points="854.4321,-36.5363 864.9207,-38.0326 857.6545,-30.3221 854.4321,-36.5363"/>
</g>
<!-- Node99 -->
<g id="node12" class="node">
<title>Node99</title>
<g id="a_node12"><a xlink:href="classMap.html#a392940f84796653b8e811ed8dc296c84" target="_top" xlink:title="Get a bitmask that represents same&#45;tile neighbors Checks all neighboring tiles and returns the elevat...">
<polygon fill="none" stroke="#000000" points="641.5,-36.6317 641.5,-66.6317 782.5,-66.6317 782.5,-36.6317 641.5,-36.6317"/>
<text text-anchor="start" x="649.5" y="-54.6317" font-family="Helvetica,sans-Serif" font-size="10.00" fill="#000000">Map::getNeighboringTiles</text>
<text text-anchor="middle" x="712" y="-43.6317" font-family="Helvetica,sans-Serif" font-size="10.00" fill="#000000">Bitmask</text>
</a>
</g>
</g>
<!-- Node95&#45;&gt;Node99 -->
<g id="edge12" class="edge">
<title>Node95&#45;&gt;Node99</title>
<path fill="none" stroke="#191970" d="M549.0241,-107.9772C572.8265,-99.6402 608.1661,-87.2909 639,-76.6317 645.2949,-74.4556 651.8982,-72.1818 658.4526,-69.9303"/>
<polygon fill="#191970" stroke="#191970" points="659.6563,-73.2176 667.979,-66.6615 657.3844,-66.5965 659.6563,-73.2176"/>
</g>
<!-- Node100 -->
<g id="node13" class="node">
<title>Node100</title>
<g id="a_node13"><a xlink:href="classMap.html#aba5154a4d917900679a3c0f7ec701561" target="_top" xlink:title="Increase Height Increases the height of the node and checks the surrounding tiles. Either draw a slope sprite or elevate the tile if necessary. ">
<polygon fill="none" stroke="#000000" points="654,-212.1317 654,-231.1317 770,-231.1317 770,-212.1317 654,-212.1317"/>
<text text-anchor="middle" x="712" y="-219.1317" font-family="Helvetica,sans-Serif" font-size="10.00" fill="#000000">Map::increaseHeight</text>
</a>
</g>
</g>
<!-- Node95&#45;&gt;Node100 -->
<g id="edge13" class="edge">
<title>Node95&#45;&gt;Node100</title>
<path fill="none" stroke="#191970" d="M538.8789,-127.1329C560.7121,-143.5172 600.0556,-175.2764 639,-193.6317 653.6798,-200.5507 671.2531,-205.2232 685.4788,-209.2239"/>
<polygon fill="#191970" stroke="#191970" points="684.5767,-212.6065 695.1564,-212.0407 686.533,-205.8854 684.5767,-212.6065"/>
</g>
<!-- Node101 -->
<g id="node14" class="node">
<title>Node101</title>
<g id="a_node14"><a xlink:href="classMap.html#afb8cc864df90d273a5074872d635dc40" target="_top" xlink:title="Decrease Height Decreases the height of the node and checks the surrounding tiles. Either draw a slope sprite or lower the tile if necessary. ">
<polygon fill="none" stroke="#000000" points="652.5,-86.1317 652.5,-105.1317 771.5,-105.1317 771.5,-86.1317 652.5,-86.1317"/>
<text text-anchor="middle" x="712" y="-93.1317" font-family="Helvetica,sans-Serif" font-size="10.00" fill="#000000">Map::decreaseHeight</text>
</a>
</g>
</g>
<!-- Node95&#45;&gt;Node101 -->
<g id="edge17" class="edge">
<title>Node95&#45;&gt;Node101</title>
<path fill="none" stroke="#191970" d="M557.3316,-108.0823C581.2418,-104.0661 613.4693,-99.9717 642.3176,-97.15"/>
<polygon fill="#191970" stroke="#191970" points="642.7324,-100.6266 652.3615,-96.2072 642.0781,-93.6572 642.7324,-100.6266"/>
</g>
<!-- Node98&#45;&gt;Node95 -->
<g id="edge11" class="edge">
<title>Node98&#45;&gt;Node95</title>
<path fill="none" stroke="#191970" d="M838.2024,-38.0122C788.7214,-23.4584 702.5123,-2.3543 639,-35.6317 614.1015,-48.6774 624.3939,-69.3992 603,-87.6317 595.9861,-93.6092 587.8991,-98.8971 579.601,-103.3883"/>
<polygon fill="#191970" stroke="#191970" points="577.9118,-100.3202 570.5546,-107.9441 581.0603,-106.5722 577.9118,-100.3202"/>
</g>
<!-- Node100&#45;&gt;Node89 -->
<g id="edge14" class="edge">
<title>Node100&#45;&gt;Node89</title>
<path fill="none" stroke="#191970" d="M770.3491,-228.3304C783.4012,-229.8289 797.3429,-231.4294 810.7073,-232.9637"/>
<polygon fill="#191970" stroke="#191970" points="810.4563,-236.4578 820.7903,-234.1213 811.2548,-229.5035 810.4563,-236.4578"/>
</g>
<!-- Node100&#45;&gt;Node95 -->
<g id="edge16" class="edge">
<title>Node100&#45;&gt;Node95</title>
<path fill="none" stroke="#191970" d="M653.9098,-217.6138C648.7783,-215.8643 643.7384,-213.8651 639,-211.6317 596.9953,-191.834 554.5262,-156.443 534.0649,-134.8379"/>
<polygon fill="#191970" stroke="#191970" points="536.6114,-132.4346 527.3474,-127.2938 531.3836,-137.0897 536.6114,-132.4346"/>
</g>
<!-- Node100&#45;&gt;Node98 -->
<g id="edge15" class="edge">
<title>Node100&#45;&gt;Node98</title>
<path fill="none" stroke="#191970" d="M767.9325,-212.0074C774.0248,-209.5559 779.8671,-206.4829 785,-202.6317 832.0679,-167.3171 859.8538,-100.4171 871.3212,-67.2665"/>
<polygon fill="#191970" stroke="#191970" points="874.7634,-68.0057 874.5888,-57.4123 868.1192,-65.8024 874.7634,-68.0057"/>
</g>
<!-- Node101&#45;&gt;Node95 -->
<g id="edge19" class="edge">
<title>Node101&#45;&gt;Node95</title>
<path fill="none" stroke="#191970" d="M676.4607,-105.1321C658.4335,-108.1682 635.6241,-111.2522 613.0884,-113.8002"/>
<polygon fill="#191970" stroke="#191970" points="612.6767,-110.3242 603.1182,-114.8942 613.4403,-117.2825 612.6767,-110.3242"/>
</g>
<!-- Node101&#45;&gt;Node98 -->
<g id="edge18" class="edge">
<title>Node101&#45;&gt;Node98</title>
<path fill="none" stroke="#191970" d="M747.6976,-86.0549C759.5826,-82.8122 772.8786,-79.1261 785,-75.6317 802.0894,-70.7052 820.8856,-65.0579 837.0451,-60.1314"/>
<polygon fill="#191970" stroke="#191970" points="838.1883,-63.4419 846.7272,-57.1699 836.1408,-56.748 838.1883,-63.4419"/>
</g>
</g>
</svg>
