<?xml version="1.0" encoding="UTF-8" standalone="no"?>
<!DOCTYPE svg PUBLIC "-//W3C//DTD SVG 1.1//EN"
 "http://www.w3.org/Graphics/SVG/1.1/DTD/svg11.dtd">
<!-- Generated by graphviz version 2.40.1 (20161225.0304)
 -->
<!-- Title: UIManager::drawUI Pages: 1 -->
<svg width="428pt" height="66pt"
 viewBox="0.00 0.00 428.00 66.00" xmlns="http://www.w3.org/2000/svg" xmlns:xlink="http://www.w3.org/1999/xlink">
<g id="graph0" class="graph" transform="scale(1 1) rotate(0) translate(4 62)">
<title>UIManager::drawUI</title>
<!-- Node70 -->
<g id="node1" class="node">
<title>Node70</title>
<polygon fill="#bfbfbf" stroke="#000000" points="0,-19.5 0,-38.5 110,-38.5 110,-19.5 0,-19.5"/>
<text text-anchor="middle" x="55" y="-26.5" font-family="Helvetica,sans-Serif" font-size="10.00" fill="#000000">UIManager::drawUI</text>
</g>
<!-- Node71 -->
<g id="node2" class="node">
<title>Node71</title>
<g id="a_node2"><a xlink:href="classGame.html#a1c2ab25d5216b2f4b2fe41efd2c09114" target="_top" xlink:title="begins the game starts running the game ">
<polygon fill="none" stroke="#000000" points="146,-19.5 146,-38.5 214,-38.5 214,-19.5 146,-19.5"/>
<text text-anchor="middle" x="180" y="-26.5" font-family="Helvetica,sans-Serif" font-size="10.00" fill="#000000">Game::run</text>
</a>
</g>
</g>
<!-- Node70&#45;&gt;Node71 -->
<g id="edge1" class="edge">
<title>Node70&#45;&gt;Node71</title>
<path fill="none" stroke="#191970" d="M120.2152,-29C129.1005,-29 137.9124,-29 145.9309,-29"/>
<polygon fill="#191970" stroke="#191970" points="120.1907,-25.5001 110.1907,-29 120.1906,-32.5001 120.1907,-25.5001"/>
</g>
<!-- Node72 -->
<g id="node3" class="node">
<title>Node72</title>
<g id="a_node3"><a xlink:href="classGame.html#ad59df6562a58a614fda24622d3715b65" target="_top" xlink:title="Game::Game">
<polygon fill="none" stroke="#000000" points="256,-38.5 256,-57.5 337,-57.5 337,-38.5 256,-38.5"/>
<text text-anchor="middle" x="296.5" y="-45.5" font-family="Helvetica,sans-Serif" font-size="10.00" fill="#000000">Game::Game</text>
</a>
</g>
</g>
<!-- Node71&#45;&gt;Node72 -->
<g id="edge2" class="edge">
<title>Node71&#45;&gt;Node72</title>
<path fill="none" stroke="#191970" d="M224.0985,-36.192C234.4513,-37.8805 245.439,-39.6725 255.6427,-41.3366"/>
<polygon fill="#191970" stroke="#191970" points="224.4428,-32.702 214.0098,-34.5467 223.316,-39.6107 224.4428,-32.702"/>
</g>
<!-- Node73 -->
<g id="node4" class="node">
<title>Node73</title>
<g id="a_node4"><a xlink:href="main_8cxx.html#af582d708d899e67ead623eac34a22387" target="_top" xlink:title="protected_main">
<polygon fill="none" stroke="#000000" points="250,-.5 250,-19.5 343,-19.5 343,-.5 250,-.5"/>
<text text-anchor="middle" x="296.5" y="-7.5" font-family="Helvetica,sans-Serif" font-size="10.00" fill="#000000">protected_main</text>
</a>
</g>
</g>
<!-- Node71&#45;&gt;Node73 -->
<g id="edge3" class="edge">
<title>Node71&#45;&gt;Node73</title>
<path fill="none" stroke="#191970" d="M223.9884,-21.8259C232.382,-20.457 241.1965,-19.0195 249.6749,-17.6367"/>
<polygon fill="#191970" stroke="#191970" points="223.316,-18.3893 214.0098,-23.4533 224.4428,-25.298 223.316,-18.3893"/>
</g>
<!-- Node74 -->
<g id="node5" class="node">
<title>Node74</title>
<g id="a_node5"><a xlink:href="main_8cxx.html#a3c04138a5bfe5d72780bb7e82a18e627" target="_top" xlink:title="main">
<polygon fill="none" stroke="#000000" points="379,-.5 379,-19.5 420,-19.5 420,-.5 379,-.5"/>
<text text-anchor="middle" x="399.5" y="-7.5" font-family="Helvetica,sans-Serif" font-size="10.00" fill="#000000">main</text>
</a>
</g>
</g>
<!-- Node73&#45;&gt;Node74 -->
<g id="edge4" class="edge">
<title>Node73&#45;&gt;Node74</title>
<path fill="none" stroke="#191970" d="M353.2133,-10C362.4322,-10 371.4259,-10 378.9965,-10"/>
<polygon fill="#191970" stroke="#191970" points="353.1782,-6.5001 343.1782,-10 353.1781,-13.5001 353.1782,-6.5001"/>
</g>
</g>
</svg>
