<?xml version="1.0" encoding="UTF-8" standalone="no"?>
<!DOCTYPE svg PUBLIC "-//W3C//DTD SVG 1.1//EN"
 "http://www.w3.org/Graphics/SVG/1.1/DTD/svg11.dtd">
<!-- Generated by graphviz version 2.40.1 (20161225.0304)
 -->
<!-- Title: EventManager::checkEvents Pages: 1 -->
<svg width="472pt" height="66pt"
 viewBox="0.00 0.00 472.00 66.00" xmlns="http://www.w3.org/2000/svg" xmlns:xlink="http://www.w3.org/1999/xlink">
<g id="graph0" class="graph" transform="scale(1 1) rotate(0) translate(4 62)">
<title>EventManager::checkEvents</title>
<!-- Node67 -->
<g id="node1" class="node">
<title>Node67</title>
<polygon fill="#bfbfbf" stroke="#000000" points="0,-19.5 0,-38.5 154,-38.5 154,-19.5 0,-19.5"/>
<text text-anchor="middle" x="77" y="-26.5" font-family="Helvetica,sans-Serif" font-size="10.00" fill="#000000">EventManager::checkEvents</text>
</g>
<!-- Node68 -->
<g id="node2" class="node">
<title>Node68</title>
<g id="a_node2"><a xlink:href="classGame.html#a1c2ab25d5216b2f4b2fe41efd2c09114" target="_top" xlink:title="begins the game starts running the game ">
<polygon fill="none" stroke="#000000" points="190,-19.5 190,-38.5 258,-38.5 258,-19.5 190,-19.5"/>
<text text-anchor="middle" x="224" y="-26.5" font-family="Helvetica,sans-Serif" font-size="10.00" fill="#000000">Game::run</text>
</a>
</g>
</g>
<!-- Node67&#45;&gt;Node68 -->
<g id="edge1" class="edge">
<title>Node67&#45;&gt;Node68</title>
<path fill="none" stroke="#191970" d="M164.5248,-29C173.4338,-29 182.0572,-29 189.845,-29"/>
<polygon fill="#191970" stroke="#191970" points="164.3744,-25.5001 154.3744,-29 164.3743,-32.5001 164.3744,-25.5001"/>
</g>
<!-- Node69 -->
<g id="node3" class="node">
<title>Node69</title>
<g id="a_node3"><a xlink:href="classGame.html#ad59df6562a58a614fda24622d3715b65" target="_top" xlink:title="Game::Game">
<polygon fill="none" stroke="#000000" points="300,-38.5 300,-57.5 381,-57.5 381,-38.5 300,-38.5"/>
<text text-anchor="middle" x="340.5" y="-45.5" font-family="Helvetica,sans-Serif" font-size="10.00" fill="#000000">Game::Game</text>
</a>
</g>
</g>
<!-- Node68&#45;&gt;Node69 -->
<g id="edge2" class="edge">
<title>Node68&#45;&gt;Node69</title>
<path fill="none" stroke="#191970" d="M268.0985,-36.192C278.4513,-37.8805 289.439,-39.6725 299.6427,-41.3366"/>
<polygon fill="#191970" stroke="#191970" points="268.4428,-32.702 258.0098,-34.5467 267.316,-39.6107 268.4428,-32.702"/>
</g>
<!-- Node70 -->
<g id="node4" class="node">
<title>Node70</title>
<g id="a_node4"><a xlink:href="main_8cxx.html#af582d708d899e67ead623eac34a22387" target="_top" xlink:title="protected_main">
<polygon fill="none" stroke="#000000" points="294,-.5 294,-19.5 387,-19.5 387,-.5 294,-.5"/>
<text text-anchor="middle" x="340.5" y="-7.5" font-family="Helvetica,sans-Serif" font-size="10.00" fill="#000000">protected_main</text>
</a>
</g>
</g>
<!-- Node68&#45;&gt;Node70 -->
<g id="edge3" class="edge">
<title>Node68&#45;&gt;Node70</title>
<path fill="none" stroke="#191970" d="M267.9884,-21.8259C276.382,-20.457 285.1965,-19.0195 293.6749,-17.6367"/>
<polygon fill="#191970" stroke="#191970" points="267.316,-18.3893 258.0098,-23.4533 268.4428,-25.298 267.316,-18.3893"/>
</g>
<!-- Node71 -->
<g id="node5" class="node">
<title>Node71</title>
<g id="a_node5"><a xlink:href="main_8cxx.html#a3c04138a5bfe5d72780bb7e82a18e627" target="_top" xlink:title="main">
<polygon fill="none" stroke="#000000" points="423,-.5 423,-19.5 464,-19.5 464,-.5 423,-.5"/>
<text text-anchor="middle" x="443.5" y="-7.5" font-family="Helvetica,sans-Serif" font-size="10.00" fill="#000000">main</text>
</a>
</g>
</g>
<!-- Node70&#45;&gt;Node71 -->
<g id="edge4" class="edge">
<title>Node70&#45;&gt;Node71</title>
<path fill="none" stroke="#191970" d="M397.2133,-10C406.4322,-10 415.4259,-10 422.9965,-10"/>
<polygon fill="#191970" stroke="#191970" points="397.1782,-6.5001 387.1782,-10 397.1781,-13.5001 397.1782,-6.5001"/>
</g>
</g>
</svg>
