<?xml version="1.0" encoding="UTF-8" standalone="no"?>
<!DOCTYPE svg PUBLIC "-//W3C//DTD SVG 1.1//EN"
 "http://www.w3.org/Graphics/SVG/1.1/DTD/svg11.dtd">
<!-- Generated by graphviz version 2.40.1 (20161225.0304)
 -->
<!-- Title: Map::setTileIDOfNode Pages: 1 -->
<svg width="803pt" height="66pt"
 viewBox="0.00 0.00 803.00 66.00" xmlns="http://www.w3.org/2000/svg" xmlns:xlink="http://www.w3.org/1999/xlink">
<g id="graph0" class="graph" transform="scale(1 1) rotate(0) translate(4 62)">
<title>Map::setTileIDOfNode</title>
<!-- Node363 -->
<g id="node1" class="node">
<title>Node363</title>
<polygon fill="#bfbfbf" stroke="#000000" points="0,-19.5 0,-38.5 123,-38.5 123,-19.5 0,-19.5"/>
<text text-anchor="middle" x="61.5" y="-26.5" font-family="Helvetica,sans-Serif" font-size="10.00" fill="#000000">Map::setTileIDOfNode</text>
</g>
<!-- Node364 -->
<g id="node2" class="node">
<title>Node364</title>
<g id="a_node2"><a xlink:href="classEngine.html#a8a53c5e52734a5158b317851361b83f2" target="_top" xlink:title="Engine::setTileIDOfNode">
<polygon fill="none" stroke="#000000" points="159,-19.5 159,-38.5 295,-38.5 295,-19.5 159,-19.5"/>
<text text-anchor="middle" x="227" y="-26.5" font-family="Helvetica,sans-Serif" font-size="10.00" fill="#000000">Engine::setTileIDOfNode</text>
</a>
</g>
</g>
<!-- Node363&#45;&gt;Node364 -->
<g id="edge1" class="edge">
<title>Node363&#45;&gt;Node364</title>
<path fill="none" stroke="#191970" d="M133.3736,-29C141.858,-29 150.4976,-29 158.9273,-29"/>
<polygon fill="#191970" stroke="#191970" points="133.1261,-25.5001 123.1261,-29 133.1261,-32.5001 133.1261,-25.5001"/>
</g>
<!-- Node365 -->
<g id="node3" class="node">
<title>Node365</title>
<g id="a_node3"><a xlink:href="classEventManager.html#a65ec91fd5016d4f9c4167fb8babed2df" target="_top" xlink:title="EventManager::checkEvents">
<polygon fill="none" stroke="#000000" points="331,-19.5 331,-38.5 485,-38.5 485,-19.5 331,-19.5"/>
<text text-anchor="middle" x="408" y="-26.5" font-family="Helvetica,sans-Serif" font-size="10.00" fill="#000000">EventManager::checkEvents</text>
</a>
</g>
</g>
<!-- Node364&#45;&gt;Node365 -->
<g id="edge2" class="edge">
<title>Node364&#45;&gt;Node365</title>
<path fill="none" stroke="#191970" d="M305.3623,-29C313.7925,-29 322.3658,-29 330.7824,-29"/>
<polygon fill="#191970" stroke="#191970" points="305.1705,-25.5001 295.1704,-29 305.1704,-32.5001 305.1705,-25.5001"/>
</g>
<!-- Node366 -->
<g id="node4" class="node">
<title>Node366</title>
<g id="a_node4"><a xlink:href="classGame.html#a1c2ab25d5216b2f4b2fe41efd2c09114" target="_top" xlink:title="begins the game starts running the game ">
<polygon fill="none" stroke="#000000" points="521,-19.5 521,-38.5 589,-38.5 589,-19.5 521,-19.5"/>
<text text-anchor="middle" x="555" y="-26.5" font-family="Helvetica,sans-Serif" font-size="10.00" fill="#000000">Game::run</text>
</a>
</g>
</g>
<!-- Node365&#45;&gt;Node366 -->
<g id="edge3" class="edge">
<title>Node365&#45;&gt;Node366</title>
<path fill="none" stroke="#191970" d="M495.5248,-29C504.4338,-29 513.0572,-29 520.845,-29"/>
<polygon fill="#191970" stroke="#191970" points="495.3744,-25.5001 485.3744,-29 495.3743,-32.5001 495.3744,-25.5001"/>
</g>
<!-- Node367 -->
<g id="node5" class="node">
<title>Node367</title>
<g id="a_node5"><a xlink:href="classGame.html#ad59df6562a58a614fda24622d3715b65" target="_top" xlink:title="Game::Game">
<polygon fill="none" stroke="#000000" points="631,-38.5 631,-57.5 712,-57.5 712,-38.5 631,-38.5"/>
<text text-anchor="middle" x="671.5" y="-45.5" font-family="Helvetica,sans-Serif" font-size="10.00" fill="#000000">Game::Game</text>
</a>
</g>
</g>
<!-- Node366&#45;&gt;Node367 -->
<g id="edge4" class="edge">
<title>Node366&#45;&gt;Node367</title>
<path fill="none" stroke="#191970" d="M599.0985,-36.192C609.4513,-37.8805 620.439,-39.6725 630.6427,-41.3366"/>
<polygon fill="#191970" stroke="#191970" points="599.4428,-32.702 589.0098,-34.5467 598.316,-39.6107 599.4428,-32.702"/>
</g>
<!-- Node368 -->
<g id="node6" class="node">
<title>Node368</title>
<g id="a_node6"><a xlink:href="main_8cxx.html#af582d708d899e67ead623eac34a22387" target="_top" xlink:title="protected_main">
<polygon fill="none" stroke="#000000" points="625,-.5 625,-19.5 718,-19.5 718,-.5 625,-.5"/>
<text text-anchor="middle" x="671.5" y="-7.5" font-family="Helvetica,sans-Serif" font-size="10.00" fill="#000000">protected_main</text>
</a>
</g>
</g>
<!-- Node366&#45;&gt;Node368 -->
<g id="edge5" class="edge">
<title>Node366&#45;&gt;Node368</title>
<path fill="none" stroke="#191970" d="M598.9884,-21.8259C607.382,-20.457 616.1965,-19.0195 624.6749,-17.6367"/>
<polygon fill="#191970" stroke="#191970" points="598.316,-18.3893 589.0098,-23.4533 599.4428,-25.298 598.316,-18.3893"/>
</g>
<!-- Node369 -->
<g id="node7" class="node">
<title>Node369</title>
<g id="a_node7"><a xlink:href="main_8cxx.html#a3c04138a5bfe5d72780bb7e82a18e627" target="_top" xlink:title="main">
<polygon fill="none" stroke="#000000" points="754,-.5 754,-19.5 795,-19.5 795,-.5 754,-.5"/>
<text text-anchor="middle" x="774.5" y="-7.5" font-family="Helvetica,sans-Serif" font-size="10.00" fill="#000000">main</text>
</a>
</g>
</g>
<!-- Node368&#45;&gt;Node369 -->
<g id="edge6" class="edge">
<title>Node368&#45;&gt;Node369</title>
<path fill="none" stroke="#191970" d="M728.2133,-10C737.4322,-10 746.4259,-10 753.9965,-10"/>
<polygon fill="#191970" stroke="#191970" points="728.1782,-6.5001 718.1782,-10 728.1781,-13.5001 728.1782,-6.5001"/>
</g>
</g>
</svg>
