<?xml version="1.0" encoding="UTF-8" standalone="no"?>
<!DOCTYPE svg PUBLIC "-//W3C//DTD SVG 1.1//EN"
 "http://www.w3.org/Graphics/SVG/1.1/DTD/svg11.dtd">
<!-- Generated by graphviz version 2.40.1 (20161225.0304)
 -->
<!-- Title: Engine::quitGame Pages: 1 -->
<svg width="1269pt" height="266pt"
 viewBox="0.00 0.00 1269.00 265.50" xmlns="http://www.w3.org/2000/svg" xmlns:xlink="http://www.w3.org/1999/xlink">
<g id="graph0" class="graph" transform="scale(1 1) rotate(0) translate(4 261.5)">
<title>Engine::quitGame</title>
<!-- Node112 -->
<g id="node1" class="node">
<title>Node112</title>
<polygon fill="#bfbfbf" stroke="#000000" points="0,-149 0,-168 104,-168 104,-149 0,-149"/>
<text text-anchor="middle" x="52" y="-156" font-family="Helvetica,sans-Serif" font-size="10.00" fill="#000000">Engine::quitGame</text>
</g>
<!-- Node113 -->
<g id="node2" class="node">
<title>Node113</title>
<g id="a_node2"><a xlink:href="classEngine.html#a83b7dbeee899b36a13d5b07c7ad87ebc" target="_top" xlink:title="Loads a saved game Loads a saved Game. ">
<polygon fill="none" stroke="#000000" points="140,-149 140,-168 246,-168 246,-149 140,-149"/>
<text text-anchor="middle" x="193" y="-156" font-family="Helvetica,sans-Serif" font-size="10.00" fill="#000000">Engine::loadGame</text>
</a>
</g>
</g>
<!-- Node112&#45;&gt;Node113 -->
<g id="edge1" class="edge">
<title>Node112&#45;&gt;Node113</title>
<path fill="none" stroke="#191970" d="M104.1026,-158.5C112.3568,-158.5 120.9729,-158.5 129.4534,-158.5"/>
<polygon fill="#191970" stroke="#191970" points="129.6971,-162.0001 139.6971,-158.5 129.6971,-155.0001 129.6971,-162.0001"/>
</g>
<!-- Node114 -->
<g id="node3" class="node">
<title>Node114</title>
<g id="a_node3"><a xlink:href="classMap.html#afefe996cc1f62b61ec60d0ae415953bf" target="_top" xlink:title="Map::loadMapFromFile">
<polygon fill="none" stroke="#000000" points="282,-149 282,-168 407,-168 407,-149 282,-149"/>
<text text-anchor="middle" x="344.5" y="-156" font-family="Helvetica,sans-Serif" font-size="10.00" fill="#000000">Map::loadMapFromFile</text>
</a>
</g>
</g>
<!-- Node113&#45;&gt;Node114 -->
<g id="edge2" class="edge">
<title>Node113&#45;&gt;Node114</title>
<path fill="none" stroke="#191970" d="M246.4132,-158.5C254.6794,-158.5 263.3353,-158.5 271.9364,-158.5"/>
<polygon fill="#191970" stroke="#191970" points="271.9814,-162.0001 281.9814,-158.5 271.9814,-155.0001 271.9814,-162.0001"/>
</g>
<!-- Node115 -->
<g id="node4" class="node">
<title>Node115</title>
<g id="a_node4"><a xlink:href="compression_8hxx.html#a25f341059256700f2f3ffd62d8113956" target="_top" xlink:title="decompresses given string Decompresses a given string. ">
<polygon fill="none" stroke="#000000" points="443,-206 443,-225 547,-225 547,-206 443,-206"/>
<text text-anchor="middle" x="495" y="-213" font-family="Helvetica,sans-Serif" font-size="10.00" fill="#000000">decompressString</text>
</a>
</g>
</g>
<!-- Node114&#45;&gt;Node115 -->
<g id="edge3" class="edge">
<title>Node114&#45;&gt;Node115</title>
<path fill="none" stroke="#191970" d="M369.1463,-168.1486C389.0423,-175.9037 417.7763,-187.0272 443,-196.5 448.1738,-198.443 453.6468,-200.4718 459.0236,-202.4497"/>
<polygon fill="#191970" stroke="#191970" points="457.9187,-205.7723 468.5125,-205.9255 460.3265,-199.1994 457.9187,-205.7723"/>
</g>
<!-- Node116 -->
<g id="node5" class="node">
<title>Node116</title>
<g id="a_node5"><a xlink:href="classMap.html#a1197ab65e40dd20b891ba165471e3163" target="_top" xlink:title="Map::Map">
<polygon fill="none" stroke="#000000" points="463.5,-168 463.5,-187 526.5,-187 526.5,-168 463.5,-168"/>
<text text-anchor="middle" x="495" y="-175" font-family="Helvetica,sans-Serif" font-size="10.00" fill="#000000">Map::Map</text>
</a>
</g>
</g>
<!-- Node114&#45;&gt;Node116 -->
<g id="edge4" class="edge">
<title>Node114&#45;&gt;Node116</title>
<path fill="none" stroke="#191970" d="M407.0181,-166.3926C422.6151,-168.3617 438.9636,-170.4256 453.2777,-172.2327"/>
<polygon fill="#191970" stroke="#191970" points="452.9415,-175.718 463.3012,-173.4982 453.8183,-168.7731 452.9415,-175.718"/>
</g>
<!-- Node117 -->
<g id="node6" class="node">
<title>Node117</title>
<g id="a_node6"><a xlink:href="classMap.html#a482ac34426e8aa66abb46f60ec329402" target="_top" xlink:title="Initialize the Map with node objects Initialize the Map with node objects. ">
<polygon fill="none" stroke="#000000" points="455.5,-130 455.5,-149 534.5,-149 534.5,-130 455.5,-130"/>
<text text-anchor="middle" x="495" y="-137" font-family="Helvetica,sans-Serif" font-size="10.00" fill="#000000">Map::initMap</text>
</a>
</g>
</g>
<!-- Node114&#45;&gt;Node117 -->
<g id="edge5" class="edge">
<title>Node114&#45;&gt;Node117</title>
<path fill="none" stroke="#191970" d="M407.0181,-150.6074C419.7632,-148.9983 433.0102,-147.326 445.2388,-145.7821"/>
<polygon fill="#191970" stroke="#191970" points="445.7551,-149.2448 455.2379,-144.5198 444.8783,-142.3 445.7551,-149.2448"/>
</g>
<!-- Node121 -->
<g id="node10" class="node">
<title>Node121</title>
<g id="a_node10"><a xlink:href="classMap.html#a481b37ba71ef0e51e836fc42805762dd" target="_top" xlink:title="Update all mapNodes Updates all mapNode and its adjacent tiles regarding height information, draws slopes for adjacent tiles and sets tiling for mapNode sprite if applicable. ">
<polygon fill="none" stroke="#000000" points="597,-88 597,-107 717,-107 717,-88 597,-88"/>
<text text-anchor="middle" x="657" y="-95" font-family="Helvetica,sans-Serif" font-size="10.00" fill="#000000">Map::updateAllNodes</text>
</a>
</g>
</g>
<!-- Node114&#45;&gt;Node121 -->
<g id="edge23" class="edge">
<title>Node114&#45;&gt;Node121</title>
<path fill="none" stroke="#191970" d="M364.7511,-148.8857C384.3212,-140.0316 415.0319,-127.274 443,-120.5 490.1383,-109.0828 544.4896,-103.3305 586.6217,-100.4337"/>
<polygon fill="#191970" stroke="#191970" points="587.0312,-103.9146 596.7833,-99.7738 586.5775,-96.9293 587.0312,-103.9146"/>
</g>
<!-- Node118 -->
<g id="node7" class="node">
<title>Node118</title>
<g id="a_node7"><a xlink:href="classMapLayers.html#a54ce1eeef2a8998a728ac7074efe8787" target="_top" xlink:title="Enable Drawing Layer Enable Drawing Layer (use bitwise OR to add layer) ">
<polygon fill="none" stroke="#000000" points="589.5,-176 589.5,-195 724.5,-195 724.5,-176 589.5,-176"/>
<text text-anchor="middle" x="657" y="-183" font-family="Helvetica,sans-Serif" font-size="10.00" fill="#000000">MapLayers::enableLayer</text>
</a>
</g>
</g>
<!-- Node117&#45;&gt;Node118 -->
<g id="edge6" class="edge">
<title>Node117&#45;&gt;Node118</title>
<path fill="none" stroke="#191970" d="M525.037,-149.0937C541.9975,-154.4156 563.6182,-161.0416 583,-166.5 591.2588,-168.8259 600.0688,-171.1895 608.624,-173.4232"/>
<polygon fill="#191970" stroke="#191970" points="607.9442,-176.8625 618.5018,-175.9758 609.6956,-170.0851 607.9442,-176.8625"/>
</g>
<!-- Node119 -->
<g id="node8" class="node">
<title>Node119</title>
<g id="a_node8"><a xlink:href="classTerrainGenerator.html#adcc251757a1f3a06471a49f17886b8ce" target="_top" xlink:title="TerrainGenerator::generate\lTerrain">
<polygon fill="none" stroke="#000000" points="583,-126.5 583,-156.5 731,-156.5 731,-126.5 583,-126.5"/>
<text text-anchor="start" x="591" y="-144.5" font-family="Helvetica,sans-Serif" font-size="10.00" fill="#000000">TerrainGenerator::generate</text>
<text text-anchor="middle" x="657" y="-133.5" font-family="Helvetica,sans-Serif" font-size="10.00" fill="#000000">Terrain</text>
</a>
</g>
</g>
<!-- Node117&#45;&gt;Node119 -->
<g id="edge7" class="edge">
<title>Node117&#45;&gt;Node119</title>
<path fill="none" stroke="#191970" d="M534.6297,-139.9893C546.2742,-140.133 559.4781,-140.296 572.7975,-140.4605"/>
<polygon fill="#191970" stroke="#191970" points="572.9392,-143.9624 582.9817,-140.5862 573.0257,-136.9629 572.9392,-143.9624"/>
</g>
<!-- Node117&#45;&gt;Node121 -->
<g id="edge9" class="edge">
<title>Node117&#45;&gt;Node121</title>
<path fill="none" stroke="#191970" d="M531.3834,-129.9531C547.2343,-125.8036 566.0321,-120.8957 583,-116.5 591.6761,-114.2524 600.9275,-111.8676 609.8462,-109.5746"/>
<polygon fill="#191970" stroke="#191970" points="610.9109,-112.9148 619.7258,-107.037 609.1694,-106.1349 610.9109,-112.9148"/>
</g>
<!-- Node120 -->
<g id="node9" class="node">
<title>Node120</title>
<g id="a_node9"><a xlink:href="classTerrainGenerator.html#ac94cfaeb9dc89453018399361da5174a" target="_top" xlink:title="TerrainGenerator::loadTerrain\lDataFromJSON">
<polygon fill="none" stroke="#000000" points="769.5,-126.5 769.5,-156.5 927.5,-156.5 927.5,-126.5 769.5,-126.5"/>
<text text-anchor="start" x="777.5" y="-144.5" font-family="Helvetica,sans-Serif" font-size="10.00" fill="#000000">TerrainGenerator::loadTerrain</text>
<text text-anchor="middle" x="848.5" y="-133.5" font-family="Helvetica,sans-Serif" font-size="10.00" fill="#000000">DataFromJSON</text>
</a>
</g>
</g>
<!-- Node119&#45;&gt;Node120 -->
<g id="edge8" class="edge">
<title>Node119&#45;&gt;Node120</title>
<path fill="none" stroke="#191970" d="M731.0389,-141.5C740.2368,-141.5 749.7168,-141.5 759.1147,-141.5"/>
<polygon fill="#191970" stroke="#191970" points="759.263,-145.0001 769.263,-141.5 759.2629,-138.0001 759.263,-145.0001"/>
</g>
<!-- Node122 -->
<g id="node11" class="node">
<title>Node122</title>
<g id="a_node11"><a xlink:href="classMap.html#a59d21f2688713fbcfe320eb1b24405ca" target="_top" xlink:title="Update mapNode and its adjacent tiles Updates mapNode height information, draws slopes for adjacent t...">
<polygon fill="none" stroke="#000000" points="767,-88 767,-107 930,-107 930,-88 767,-88"/>
<text text-anchor="middle" x="848.5" y="-95" font-family="Helvetica,sans-Serif" font-size="10.00" fill="#000000">Map::updateNeighborsOfNode</text>
</a>
</g>
</g>
<!-- Node121&#45;&gt;Node122 -->
<g id="edge10" class="edge">
<title>Node121&#45;&gt;Node122</title>
<path fill="none" stroke="#191970" d="M717.0664,-97.5C729.6532,-97.5 743.2,-97.5 756.6442,-97.5"/>
<polygon fill="#191970" stroke="#191970" points="756.8876,-101.0001 766.8876,-97.5 756.8875,-94.0001 756.8876,-101.0001"/>
</g>
<!-- Node123 -->
<g id="node12" class="node">
<title>Node123</title>
<g id="a_node12"><a xlink:href="classMap.html#aab37e4a52faf81e9b696b8cf1bd9a690" target="_top" xlink:title="Get neighbor MapNode Objects Stores pointers to the neighboring nodes of the given coordinates in the...">
<polygon fill="none" stroke="#000000" points="985,-238 985,-257 1093,-257 1093,-238 985,-238"/>
<text text-anchor="middle" x="1039" y="-245" font-family="Helvetica,sans-Serif" font-size="10.00" fill="#000000">Map::getNeighbors</text>
</a>
</g>
</g>
<!-- Node122&#45;&gt;Node123 -->
<g id="edge11" class="edge">
<title>Node122&#45;&gt;Node123</title>
<path fill="none" stroke="#191970" d="M915.9187,-107.036C921.0435,-109.5506 925.8326,-112.6609 930,-116.5 968.4554,-151.9261 928.0009,-192.5849 966,-228.5 968.9147,-231.2549 972.1768,-233.6225 975.6614,-235.6562"/>
<polygon fill="#191970" stroke="#191970" points="974.1863,-238.8307 984.7104,-240.0537 977.246,-232.5348 974.1863,-238.8307"/>
</g>
<!-- Node124 -->
<g id="node13" class="node">
<title>Node124</title>
<g id="a_node13"><a xlink:href="classMap.html#a0ff55eb041cdf29aa582a21145319ce0" target="_top" xlink:title="Get elevated neighbor positions in a bitmask Checks all neighboring tiles and returns the elevated ne...">
<polygon fill="none" stroke="#000000" points="966,-188.5 966,-218.5 1112,-218.5 1112,-188.5 966,-188.5"/>
<text text-anchor="start" x="974" y="-206.5" font-family="Helvetica,sans-Serif" font-size="10.00" fill="#000000">Map::getElevatedNeighbor</text>
<text text-anchor="middle" x="1039" y="-195.5" font-family="Helvetica,sans-Serif" font-size="10.00" fill="#000000">Bitmask</text>
</a>
</g>
</g>
<!-- Node122&#45;&gt;Node124 -->
<g id="edge12" class="edge">
<title>Node122&#45;&gt;Node124</title>
<path fill="none" stroke="#191970" d="M912.0572,-107.0601C918.4336,-109.5312 924.5539,-112.6263 930,-116.5 954.4165,-133.867 943.058,-154.2272 966,-173.5 970.5703,-177.3394 975.699,-180.7408 981.0638,-183.7421"/>
<polygon fill="#191970" stroke="#191970" points="979.7585,-187.005 990.2581,-188.4221 982.9339,-180.7666 979.7585,-187.005"/>
</g>
<!-- Node125 -->
<g id="node14" class="node">
<title>Node125</title>
<g id="a_node14"><a xlink:href="classMap.html#a05e7d896dc5062af07c9b838600a068d" target="_top" xlink:title="Demolish a node Invokes the tiles demolish function. ">
<polygon fill="none" stroke="#000000" points="1148,-95 1148,-114 1261,-114 1261,-95 1148,-95"/>
<text text-anchor="middle" x="1204.5" y="-102" font-family="Helvetica,sans-Serif" font-size="10.00" fill="#000000">Map::demolishNode</text>
</a>
</g>
</g>
<!-- Node122&#45;&gt;Node125 -->
<g id="edge13" class="edge">
<title>Node122&#45;&gt;Node125</title>
<path fill="none" stroke="#191970" d="M927.4876,-107.0146C940.296,-109.2247 953.4675,-111.2332 966,-112.5 1030.5599,-119.026 1047.3789,-118.3888 1112,-112.5 1120.4149,-111.7332 1129.2075,-110.5817 1137.8814,-109.3067"/>
<polygon fill="#191970" stroke="#191970" points="1138.6204,-112.7346 1147.9795,-107.769 1137.5665,-105.8144 1138.6204,-112.7346"/>
</g>
<!-- Node126 -->
<g id="node15" class="node">
<title>Node126</title>
<g id="a_node15"><a xlink:href="classMap.html#a392940f84796653b8e811ed8dc296c84" target="_top" xlink:title="Get a bitmask that represents same&#45;tile neighbors Checks all neighboring tiles and returns the elevat...">
<polygon fill="none" stroke="#000000" points="968.5,-82.5 968.5,-112.5 1109.5,-112.5 1109.5,-82.5 968.5,-82.5"/>
<text text-anchor="start" x="976.5" y="-100.5" font-family="Helvetica,sans-Serif" font-size="10.00" fill="#000000">Map::getNeighboringTiles</text>
<text text-anchor="middle" x="1039" y="-89.5" font-family="Helvetica,sans-Serif" font-size="10.00" fill="#000000">Bitmask</text>
</a>
</g>
</g>
<!-- Node122&#45;&gt;Node126 -->
<g id="edge15" class="edge">
<title>Node122&#45;&gt;Node126</title>
<path fill="none" stroke="#191970" d="M930.1182,-97.5C939.4625,-97.5 948.9856,-97.5 958.3177,-97.5"/>
<polygon fill="#191970" stroke="#191970" points="958.3514,-101.0001 968.3514,-97.5 958.3514,-94.0001 958.3514,-101.0001"/>
</g>
<!-- Node127 -->
<g id="node16" class="node">
<title>Node127</title>
<g id="a_node16"><a xlink:href="classMap.html#aba5154a4d917900679a3c0f7ec701561" target="_top" xlink:title="Increase Height Increases the height of the node and checks the surrounding tiles. Either draw a slope sprite or elevate the tile if necessary. ">
<polygon fill="none" stroke="#000000" points="981,-6 981,-25 1097,-25 1097,-6 981,-6"/>
<text text-anchor="middle" x="1039" y="-13" font-family="Helvetica,sans-Serif" font-size="10.00" fill="#000000">Map::increaseHeight</text>
</a>
</g>
</g>
<!-- Node122&#45;&gt;Node127 -->
<g id="edge16" class="edge">
<title>Node122&#45;&gt;Node127</title>
<path fill="none" stroke="#191970" d="M856.1676,-87.9713C874.4762,-71.9203 922.4658,-42.5555 966,-25.5 967.6347,-24.8596 969.2984,-24.2341 970.9835,-23.6251"/>
<polygon fill="#191970" stroke="#191970" points="972.4489,-26.8253 980.8172,-20.3273 970.2232,-20.1886 972.4489,-26.8253"/>
</g>
<!-- Node129 -->
<g id="node18" class="node">
<title>Node129</title>
<g id="a_node18"><a xlink:href="classMap.html#afb8cc864df90d273a5074872d635dc40" target="_top" xlink:title="Decrease Height Decreases the height of the node and checks the surrounding tiles. Either draw a slope sprite or lower the tile if necessary. ">
<polygon fill="none" stroke="#000000" points="979.5,-44 979.5,-63 1098.5,-63 1098.5,-44 979.5,-44"/>
<text text-anchor="middle" x="1039" y="-51" font-family="Helvetica,sans-Serif" font-size="10.00" fill="#000000">Map::decreaseHeight</text>
</a>
</g>
</g>
<!-- Node122&#45;&gt;Node129 -->
<g id="edge20" class="edge">
<title>Node122&#45;&gt;Node129</title>
<path fill="none" stroke="#191970" d="M870.3528,-87.9587C894.3694,-80.441 934.1824,-70.5657 969.0957,-63.1129"/>
<polygon fill="#191970" stroke="#191970" points="970.2018,-66.4573 979.2718,-60.9813 968.7666,-59.606 970.2018,-66.4573"/>
</g>
<!-- Node125&#45;&gt;Node122 -->
<g id="edge14" class="edge">
<title>Node125&#45;&gt;Node122</title>
<path fill="none" stroke="#191970" d="M1190.506,-114.1163C1172.484,-121.0741 1140.1308,-127.9365 1112,-130.5 1047.3789,-136.3888 1030.5599,-137.026 966,-130.5 932.9783,-127.162 895.5209,-118.6751 871.9562,-110.573"/>
<polygon fill="#191970" stroke="#191970" points="873.0591,-107.2487 862.4668,-107.0193 870.6041,-113.8041 873.0591,-107.2487"/>
</g>
<!-- Node127&#45;&gt;Node122 -->
<g id="edge19" class="edge">
<title>Node127&#45;&gt;Node122</title>
<path fill="none" stroke="#191970" d="M1024.1329,-25.0899C1009.1478,-30.3456 985.5096,-35.8567 966,-43.5 937.3978,-54.7055 906.8725,-71.2245 884.105,-83.2821"/>
<polygon fill="#191970" stroke="#191970" points="882.3826,-80.2334 875.1616,-87.9864 885.6413,-86.4287 882.3826,-80.2334"/>
</g>
<!-- Node127&#45;&gt;Node125 -->
<g id="edge18" class="edge">
<title>Node127&#45;&gt;Node125</title>
<path fill="none" stroke="#191970" d="M1086.7051,-25.0206C1095.3407,-27.5491 1104.1039,-30.6739 1112,-34.5 1140.6578,-48.3864 1169.204,-71.8248 1186.8429,-87.7172"/>
<polygon fill="#191970" stroke="#191970" points="1184.8506,-90.6404 1194.5785,-94.8378 1189.5914,-85.4901 1184.8506,-90.6404"/>
</g>
<!-- Node128 -->
<g id="node17" class="node">
<title>Node128</title>
<g id="a_node17"><a xlink:href="classSingleton.html#af5cb1e5749949e2b68416cfb8d378044" target="_top" xlink:title="Get an instance of the singleton. ">
<polygon fill="none" stroke="#000000" points="1148,-.5 1148,-30.5 1261,-30.5 1261,-.5 1148,-.5"/>
<text text-anchor="start" x="1156" y="-18.5" font-family="Helvetica,sans-Serif" font-size="10.00" fill="#000000">Singleton&lt; Settings</text>
<text text-anchor="middle" x="1204.5" y="-7.5" font-family="Helvetica,sans-Serif" font-size="10.00" fill="#000000"> &gt;::instance</text>
</a>
</g>
</g>
<!-- Node127&#45;&gt;Node128 -->
<g id="edge17" class="edge">
<title>Node127&#45;&gt;Node128</title>
<path fill="none" stroke="#191970" d="M1097.3491,-15.5C1110.4012,-15.5 1124.3429,-15.5 1137.7073,-15.5"/>
<polygon fill="#191970" stroke="#191970" points="1137.7903,-19.0001 1147.7903,-15.5 1137.7903,-12.0001 1137.7903,-19.0001"/>
</g>
<!-- Node129&#45;&gt;Node122 -->
<g id="edge22" class="edge">
<title>Node129&#45;&gt;Node122</title>
<path fill="none" stroke="#191970" d="M1016.8824,-63.1241C995.0259,-69.9485 960.2737,-78.6925 928.0022,-85.8046"/>
<polygon fill="#191970" stroke="#191970" points="927.1146,-82.4157 918.0835,-87.9555 928.5981,-89.2567 927.1146,-82.4157"/>
</g>
<!-- Node129&#45;&gt;Node125 -->
<g id="edge21" class="edge">
<title>Node129&#45;&gt;Node125</title>
<path fill="none" stroke="#191970" d="M1078.1799,-63.094C1089.1709,-65.9487 1101.095,-69.2001 1112,-72.5 1131.0345,-78.2599 1151.9972,-85.4411 1169.147,-91.5404"/>
<polygon fill="#191970" stroke="#191970" points="1168.1661,-94.9068 1178.7606,-94.9876 1170.5289,-88.3176 1168.1661,-94.9068"/>
</g>
</g>
</svg>
