<?xml version="1.0" encoding="UTF-8" standalone="no"?>
<!DOCTYPE svg PUBLIC "-//W3C//DTD SVG 1.1//EN"
 "http://www.w3.org/Graphics/SVG/1.1/DTD/svg11.dtd">
<!-- Generated by graphviz version 2.40.1 (20161225.0304)
 -->
<!-- Title: Map::refresh Pages: 1 -->
<svg width="1174pt" height="230pt"
 viewBox="0.00 0.00 1174.00 229.50" xmlns="http://www.w3.org/2000/svg" xmlns:xlink="http://www.w3.org/1999/xlink">
<g id="graph0" class="graph" transform="scale(1 1) rotate(0) translate(4 225.5)">
<title>Map::refresh</title>
<!-- Node310 -->
<g id="node1" class="node">
<title>Node310</title>
<polygon fill="#bfbfbf" stroke="#000000" points="0,-126 0,-145 77,-145 77,-126 0,-126"/>
<text text-anchor="middle" x="38.5" y="-133" font-family="Helvetica,sans-Serif" font-size="10.00" fill="#000000">Map::refresh</text>
</g>
<!-- Node311 -->
<g id="node2" class="node">
<title>Node311</title>
<g id="a_node2"><a xlink:href="classCamera.html#a0a8ee04ccb4f4cc9af52a964cf225f66" target="_top" xlink:title="Increases the zoom level of the camera Increases the zoom level of the camera. ">
<polygon fill="none" stroke="#000000" points="313.5,-126 313.5,-145 470.5,-145 470.5,-126 313.5,-126"/>
<text text-anchor="middle" x="392" y="-133" font-family="Helvetica,sans-Serif" font-size="10.00" fill="#000000">Camera::increaseZoomLevel</text>
</a>
</g>
</g>
<!-- Node310&#45;&gt;Node311 -->
<g id="edge1" class="edge">
<title>Node310&#45;&gt;Node311</title>
<path fill="none" stroke="#191970" d="M87.0633,-135.5C145.4175,-135.5 244.1065,-135.5 313.3694,-135.5"/>
<polygon fill="#191970" stroke="#191970" points="87.0037,-132.0001 77.0036,-135.5 87.0036,-139.0001 87.0037,-132.0001"/>
</g>
<!-- Node313 -->
<g id="node4" class="node">
<title>Node313</title>
<g id="a_node4"><a xlink:href="classEventManager.html#a65ec91fd5016d4f9c4167fb8babed2df" target="_top" xlink:title="EventManager::checkEvents">
<polygon fill="none" stroke="#000000" points="702,-107 702,-126 856,-126 856,-107 702,-107"/>
<text text-anchor="middle" x="779" y="-114" font-family="Helvetica,sans-Serif" font-size="10.00" fill="#000000">EventManager::checkEvents</text>
</a>
</g>
</g>
<!-- Node310&#45;&gt;Node313 -->
<g id="edge18" class="edge">
<title>Node310&#45;&gt;Node313</title>
<path fill="none" stroke="#191970" d="M87.2376,-145.8188C95.7885,-147.2967 104.6282,-148.614 113,-149.5 357.4453,-175.3694 422.6174,-174.9617 666,-140.5 691.0205,-136.9572 718.7856,-131.0879 740.5323,-126.0405"/>
<polygon fill="#191970" stroke="#191970" points="87.8422,-142.3715 77.3774,-144.0265 86.5902,-149.2586 87.8422,-142.3715"/>
</g>
<!-- Node318 -->
<g id="node9" class="node">
<title>Node318</title>
<g id="a_node9"><a xlink:href="classCamera.html#aeea39f352d5873495dea6f376cf3207e" target="_top" xlink:title="Decreases the zoom level of the camera Decreases the zoom level of the camera. ">
<polygon fill="none" stroke="#000000" points="312,-50 312,-69 472,-69 472,-50 312,-50"/>
<text text-anchor="middle" x="392" y="-57" font-family="Helvetica,sans-Serif" font-size="10.00" fill="#000000">Camera::decreaseZoomLevel</text>
</a>
</g>
</g>
<!-- Node310&#45;&gt;Node318 -->
<g id="edge9" class="edge">
<title>Node310&#45;&gt;Node318</title>
<path fill="none" stroke="#191970" d="M54.823,-118.3821C68.8409,-104.9165 90.3258,-87.0488 113,-78.5 176.8266,-54.4357 254.6317,-51.0627 311.8465,-52.9175"/>
<polygon fill="#191970" stroke="#191970" points="52.0938,-116.1606 47.4797,-125.698 57.0343,-121.1196 52.0938,-116.1606"/>
</g>
<!-- Node319 -->
<g id="node10" class="node">
<title>Node319</title>
<g id="a_node10"><a xlink:href="classCamera.html#adfb240823ff20b97b69459490dbd8dc3" target="_top" xlink:title="Centers camera on given isometric coordinates Centers the camera on the given isometric coordinates...">
<polygon fill="none" stroke="#000000" points="113,-88 113,-107 276,-107 276,-88 113,-88"/>
<text text-anchor="middle" x="194.5" y="-95" font-family="Helvetica,sans-Serif" font-size="10.00" fill="#000000">Camera::centerScreenOnPoint</text>
</a>
</g>
</g>
<!-- Node310&#45;&gt;Node319 -->
<g id="edge12" class="edge">
<title>Node310&#45;&gt;Node319</title>
<path fill="none" stroke="#191970" d="M86.874,-123.7166C108.8622,-118.3605 134.5397,-112.1057 155.2982,-107.0491"/>
<polygon fill="#191970" stroke="#191970" points="85.9493,-120.3394 77.0618,-126.1067 87.6061,-127.1405 85.9493,-120.3394"/>
</g>
<!-- Node321 -->
<g id="node12" class="node">
<title>Node321</title>
<g id="a_node12"><a xlink:href="classMap.html#a779c939483a52b32a3959b99af95e67a" target="_top" xlink:title="Set the Tile ID Of Node object Also invokes all necessary texture updates (auto&#45;tiling, slopes, ...) ">
<polygon fill="none" stroke="#000000" points="133,-202 133,-221 256,-221 256,-202 133,-202"/>
<text text-anchor="middle" x="194.5" y="-209" font-family="Helvetica,sans-Serif" font-size="10.00" fill="#000000">Map::setTileIDOfNode</text>
</a>
</g>
</g>
<!-- Node310&#45;&gt;Node321 -->
<g id="edge19" class="edge">
<title>Node310&#45;&gt;Node321</title>
<path fill="none" stroke="#191970" d="M58.0259,-151.7749C72.453,-163.1182 92.9846,-177.8838 113,-187.5 125.3646,-193.4404 139.5013,-198.2321 152.4909,-201.9257"/>
<polygon fill="#191970" stroke="#191970" points="59.8768,-148.7719 49.8911,-145.231 55.4892,-154.2262 59.8768,-148.7719"/>
</g>
<!-- Node312 -->
<g id="node3" class="node">
<title>Node312</title>
<g id="a_node3"><a xlink:href="classCamera.html#a1f8ecd427814c5a4970223c2d13b9310" target="_top" xlink:title="Camera::setPinchDistance">
<polygon fill="none" stroke="#000000" points="514.5,-88 514.5,-107 659.5,-107 659.5,-88 514.5,-88"/>
<text text-anchor="middle" x="587" y="-95" font-family="Helvetica,sans-Serif" font-size="10.00" fill="#000000">Camera::setPinchDistance</text>
</a>
</g>
</g>
<!-- Node311&#45;&gt;Node312 -->
<g id="edge2" class="edge">
<title>Node311&#45;&gt;Node312</title>
<path fill="none" stroke="#191970" d="M450.9588,-124.0106C478.782,-118.5886 511.5957,-112.1942 538.0248,-107.0439"/>
<polygon fill="#191970" stroke="#191970" points="450.1009,-120.6118 440.955,-125.96 451.4399,-127.4826 450.1009,-120.6118"/>
</g>
<!-- Node311&#45;&gt;Node313 -->
<g id="edge8" class="edge">
<title>Node311&#45;&gt;Node313</title>
<path fill="none" stroke="#191970" d="M480.8735,-131.1367C547.6684,-127.8574 638.2485,-123.4103 701.9795,-120.2814"/>
<polygon fill="#191970" stroke="#191970" points="480.598,-127.6459 470.7817,-131.6322 480.9413,-134.6375 480.598,-127.6459"/>
</g>
<!-- Node312&#45;&gt;Node313 -->
<g id="edge3" class="edge">
<title>Node312&#45;&gt;Node313</title>
<path fill="none" stroke="#191970" d="M669.7207,-105.6859C680.3799,-106.7407 691.2617,-107.8176 701.8269,-108.8631"/>
<polygon fill="#191970" stroke="#191970" points="669.8831,-102.185 659.587,-104.6831 669.1937,-109.1509 669.8831,-102.185"/>
</g>
<!-- Node314 -->
<g id="node5" class="node">
<title>Node314</title>
<g id="a_node5"><a xlink:href="classGame.html#a1c2ab25d5216b2f4b2fe41efd2c09114" target="_top" xlink:title="begins the game starts running the game ">
<polygon fill="none" stroke="#000000" points="892,-66 892,-85 960,-85 960,-66 892,-66"/>
<text text-anchor="middle" x="926" y="-73" font-family="Helvetica,sans-Serif" font-size="10.00" fill="#000000">Game::run</text>
</a>
</g>
</g>
<!-- Node313&#45;&gt;Node314 -->
<g id="edge4" class="edge">
<title>Node313&#45;&gt;Node314</title>
<path fill="none" stroke="#191970" d="M822.8958,-104.2569C844.9621,-98.1024 871.3026,-90.7557 891.8363,-85.0286"/>
<polygon fill="#191970" stroke="#191970" points="821.7863,-100.9327 813.0942,-106.9907 823.6669,-107.6754 821.7863,-100.9327"/>
</g>
<!-- Node315 -->
<g id="node6" class="node">
<title>Node315</title>
<g id="a_node6"><a xlink:href="classGame.html#ad59df6562a58a614fda24622d3715b65" target="_top" xlink:title="Game::Game">
<polygon fill="none" stroke="#000000" points="1002,-85 1002,-104 1083,-104 1083,-85 1002,-85"/>
<text text-anchor="middle" x="1042.5" y="-92" font-family="Helvetica,sans-Serif" font-size="10.00" fill="#000000">Game::Game</text>
</a>
</g>
</g>
<!-- Node314&#45;&gt;Node315 -->
<g id="edge5" class="edge">
<title>Node314&#45;&gt;Node315</title>
<path fill="none" stroke="#191970" d="M970.0985,-82.692C980.4513,-84.3805 991.439,-86.1725 1001.6427,-87.8366"/>
<polygon fill="#191970" stroke="#191970" points="970.4428,-79.202 960.0098,-81.0467 969.316,-86.1107 970.4428,-79.202"/>
</g>
<!-- Node316 -->
<g id="node7" class="node">
<title>Node316</title>
<g id="a_node7"><a xlink:href="main_8cxx.html#af582d708d899e67ead623eac34a22387" target="_top" xlink:title="protected_main">
<polygon fill="none" stroke="#000000" points="996,-47 996,-66 1089,-66 1089,-47 996,-47"/>
<text text-anchor="middle" x="1042.5" y="-54" font-family="Helvetica,sans-Serif" font-size="10.00" fill="#000000">protected_main</text>
</a>
</g>
</g>
<!-- Node314&#45;&gt;Node316 -->
<g id="edge6" class="edge">
<title>Node314&#45;&gt;Node316</title>
<path fill="none" stroke="#191970" d="M969.9884,-68.3259C978.382,-66.957 987.1965,-65.5195 995.6749,-64.1367"/>
<polygon fill="#191970" stroke="#191970" points="969.316,-64.8893 960.0098,-69.9533 970.4428,-71.798 969.316,-64.8893"/>
</g>
<!-- Node317 -->
<g id="node8" class="node">
<title>Node317</title>
<g id="a_node8"><a xlink:href="main_8cxx.html#a3c04138a5bfe5d72780bb7e82a18e627" target="_top" xlink:title="main">
<polygon fill="none" stroke="#000000" points="1125,-47 1125,-66 1166,-66 1166,-47 1125,-47"/>
<text text-anchor="middle" x="1145.5" y="-54" font-family="Helvetica,sans-Serif" font-size="10.00" fill="#000000">main</text>
</a>
</g>
</g>
<!-- Node316&#45;&gt;Node317 -->
<g id="edge7" class="edge">
<title>Node316&#45;&gt;Node317</title>
<path fill="none" stroke="#191970" d="M1099.2133,-56.5C1108.4322,-56.5 1117.4259,-56.5 1124.9965,-56.5"/>
<polygon fill="#191970" stroke="#191970" points="1099.1782,-53.0001 1089.1782,-56.5 1099.1781,-60.0001 1099.1782,-53.0001"/>
</g>
<!-- Node318&#45;&gt;Node312 -->
<g id="edge10" class="edge">
<title>Node318&#45;&gt;Node312</title>
<path fill="none" stroke="#191970" d="M450.9588,-70.9894C478.782,-76.4114 511.5957,-82.8058 538.0248,-87.9561"/>
<polygon fill="#191970" stroke="#191970" points="451.4399,-67.5174 440.955,-69.04 450.1009,-74.3882 451.4399,-67.5174"/>
</g>
<!-- Node318&#45;&gt;Node313 -->
<g id="edge11" class="edge">
<title>Node318&#45;&gt;Node313</title>
<path fill="none" stroke="#191970" d="M482.3441,-59.9912C536.1334,-61.7109 605.484,-66.4332 666,-78.5 698.0709,-84.8949 733.5983,-97.8711 756.0991,-106.8688"/>
<polygon fill="#191970" stroke="#191970" points="482.242,-56.4868 472.1446,-59.695 482.0387,-63.4839 482.242,-56.4868"/>
</g>
<!-- Node319&#45;&gt;Node311 -->
<g id="edge13" class="edge">
<title>Node319&#45;&gt;Node311</title>
<path fill="none" stroke="#191970" d="M254.2147,-108.9894C282.3946,-114.4114 315.629,-120.8058 342.3969,-125.9561"/>
<polygon fill="#191970" stroke="#191970" points="254.5639,-105.4925 244.0827,-107.04 253.2412,-112.3664 254.5639,-105.4925"/>
</g>
<!-- Node319&#45;&gt;Node312 -->
<g id="edge15" class="edge">
<title>Node319&#45;&gt;Node312</title>
<path fill="none" stroke="#191970" d="M286.3678,-97.5C355.8384,-97.5 449.9227,-97.5 514.224,-97.5"/>
<polygon fill="#191970" stroke="#191970" points="286.3031,-94.0001 276.3031,-97.5 286.3031,-101.0001 286.3031,-94.0001"/>
</g>
<!-- Node319&#45;&gt;Node318 -->
<g id="edge14" class="edge">
<title>Node319&#45;&gt;Node318</title>
<path fill="none" stroke="#191970" d="M254.2147,-86.0106C282.3946,-80.5886 315.629,-74.1942 342.3969,-69.0439"/>
<polygon fill="#191970" stroke="#191970" points="253.2412,-82.6336 244.0827,-87.96 254.5639,-89.5075 253.2412,-82.6336"/>
</g>
<!-- Node320 -->
<g id="node11" class="node">
<title>Node320</title>
<g id="a_node11"><a xlink:href="classCamera.html#af29da768f8948f3afbf0a9b43530eb1d" target="_top" xlink:title="Centers camera on the middle of the map Centers the camera on the middle of the map. ">
<polygon fill="none" stroke="#000000" points="508,-.5 508,-30.5 666,-30.5 666,-.5 508,-.5"/>
<text text-anchor="start" x="516" y="-18.5" font-family="Helvetica,sans-Serif" font-size="10.00" fill="#000000">Camera::centerScreenOnMap</text>
<text text-anchor="middle" x="587" y="-7.5" font-family="Helvetica,sans-Serif" font-size="10.00" fill="#000000">Center</text>
</a>
</g>
</g>
<!-- Node319&#45;&gt;Node320 -->
<g id="edge16" class="edge">
<title>Node319&#45;&gt;Node320</title>
<path fill="none" stroke="#191970" d="M218.4836,-82.6544C241.5383,-69.1767 277.8254,-50.0008 312,-40.5 376.3171,-22.6193 452.0303,-16.7939 507.7119,-15.1995"/>
<polygon fill="#191970" stroke="#191970" points="216.5464,-79.7344 209.748,-87.8604 220.13,-85.7476 216.5464,-79.7344"/>
</g>
<!-- Node320&#45;&gt;Node314 -->
<g id="edge17" class="edge">
<title>Node320&#45;&gt;Node314</title>
<path fill="none" stroke="#191970" d="M676.2863,-31.3029C746.8907,-43.7992 841.6287,-60.567 891.6803,-69.4257"/>
<polygon fill="#191970" stroke="#191970" points="676.5096,-27.7881 666.0526,-29.4916 675.2895,-34.681 676.5096,-27.7881"/>
</g>
<!-- Node322 -->
<g id="node13" class="node">
<title>Node322</title>
<g id="a_node13"><a xlink:href="classEngine.html#a8a53c5e52734a5158b317851361b83f2" target="_top" xlink:title="Engine::setTileIDOfNode">
<polygon fill="none" stroke="#000000" points="519,-202 519,-221 655,-221 655,-202 519,-202"/>
<text text-anchor="middle" x="587" y="-209" font-family="Helvetica,sans-Serif" font-size="10.00" fill="#000000">Engine::setTileIDOfNode</text>
</a>
</g>
</g>
<!-- Node321&#45;&gt;Node322 -->
<g id="edge20" class="edge">
<title>Node321&#45;&gt;Node322</title>
<path fill="none" stroke="#191970" d="M266.5856,-211.5C338.4889,-211.5 448.1286,-211.5 518.6786,-211.5"/>
<polygon fill="#191970" stroke="#191970" points="266.2599,-208.0001 256.2599,-211.5 266.2599,-215.0001 266.2599,-208.0001"/>
</g>
<!-- Node322&#45;&gt;Node313 -->
<g id="edge21" class="edge">
<title>Node322&#45;&gt;Node313</title>
<path fill="none" stroke="#191970" d="M635.5854,-198.9665C645.8188,-195.7133 656.4135,-191.8729 666,-187.5 704.5757,-169.9036 745.7434,-141.1834 766.0851,-126.2348"/>
<polygon fill="#191970" stroke="#191970" points="634.4778,-195.645 625.9293,-201.9038 636.5151,-202.342 634.4778,-195.645"/>
</g>
</g>
</svg>
