<?xml version="1.0" encoding="UTF-8" standalone="no"?>
<!DOCTYPE svg PUBLIC "-//W3C//DTD SVG 1.1//EN"
 "http://www.w3.org/Graphics/SVG/1.1/DTD/svg11.dtd">
<!-- Generated by graphviz version 2.40.1 (20161225.0304)
 -->
<!-- Title: Map::getNeighbors Pages: 1 -->
<!--zoomable 369 -->
<svg id="main" version="1.1" xmlns="http://www.w3.org/2000/svg" xmlns:xlink="http://www.w3.org/1999/xlink" xml:space="preserve" onload="init(evt)">
<style type="text/css"><![CDATA[
.edge:hover path { stroke: red; }
.edge:hover polygon { stroke: red; fill: red; }
]]></style>
<script type="text/javascript"><![CDATA[
var edges = document.getElementsByTagName('g');
if (edges && edges.length) {
  for (var i=0;i<edges.length;i++) {
    if (edges[i].id.substr(0,4)=='edge') {
      edges[i].setAttribute('class','edge');
    }
  }
}
]]></script>
        <defs>
                <circle id="rim" cx="0" cy="0" r="7"/>
                <circle id="rim2" cx="0" cy="0" r="3.5"/>
                <g id="zoomPlus">
                        <use xlink:href="#rim" fill="#404040">
                                <set attributeName="fill" to="#808080" begin="zoomplus.mouseover" end="zoomplus.mouseout"/>
                        </use>
                        <path d="M-4,0h8M0,-4v8" fill="none" stroke="white" stroke-width="1.5" pointer-events="none"/>
                </g>
                <g id="zoomMin">
                        <use xlink:href="#rim" fill="#404040">
                                <set attributeName="fill" to="#808080" begin="zoomminus.mouseover" end="zoomminus.mouseout"/>
                        </use>
                        <path d="M-4,0h8" fill="none" stroke="white" stroke-width="1.5" pointer-events="none"/>
                </g>
                <g id="dirArrow">
                        <path fill="none" stroke="white" stroke-width="1.5" d="M0,-3.0v7 M-2.5,-0.5L0,-3.0L2.5,-0.5"/>
                </g>
               <g id="resetDef">
                       <use xlink:href="#rim2" fill="#404040">
                               <set attributeName="fill" to="#808080" begin="reset.mouseover" end="reset.mouseout"/>
                       </use>
               </g>
        </defs>

<script type="text/javascript">
var viewWidth = 1652;
var viewHeight = 369;
var sectionId = 'dynsection-12';
</script>
<script xlink:href="svgpan.js"/>
<svg id="graph" class="graph">
<g id="viewport">
<title>Map::getNeighbors</title>
<!-- Node166 -->
<g id="node1" class="node">
<title>Node166</title>
<polygon fill="#bfbfbf" stroke="#000000" points="0,-250.2254 0,-269.2254 108,-269.2254 108,-250.2254 0,-250.2254"/>
<text text-anchor="middle" x="54" y="-257.2254" font-family="Helvetica,sans-Serif" font-size="10.00" fill="#000000">Map::getNeighbors</text>
</g>
<!-- Node167 -->
<g id="node2" class="node">
<title>Node167</title>
<g id="a_node2"><a xlink:href="classMap.html#a59d21f2688713fbcfe320eb1b24405ca" target="_top" xlink:title="Update mapNode and its adjacent tiles Updates mapNode height information, draws slopes for adjacent t...">
<polygon fill="none" stroke="#000000" points="144,-250.2254 144,-269.2254 307,-269.2254 307,-250.2254 144,-250.2254"/>
<text text-anchor="middle" x="225.5" y="-257.2254" font-family="Helvetica,sans-Serif" font-size="10.00" fill="#000000">Map::updateNeighborsOfNode</text>
</a>
</g>
</g>
<!-- Node166&#45;&gt;Node167 -->
<g id="edge1" class="edge">
<title>Node166&#45;&gt;Node167</title>
<path fill="none" stroke="#191970" d="M118.5132,-259.7254C126.7421,-259.7254 135.2495,-259.7254 143.7055,-259.7254"/>
<polygon fill="#191970" stroke="#191970" points="118.2637,-256.2255 108.2637,-259.7254 118.2636,-263.2255 118.2637,-256.2255"/>
</g>
<!-- Node168 -->
<g id="node3" class="node">
<title>Node168</title>
<g id="a_node3"><a xlink:href="classMap.html#aba5154a4d917900679a3c0f7ec701561" target="_top" xlink:title="Increase Height Increases the height of the node and checks the surrounding tiles. Either draw a slope sprite or elevate the tile if necessary. ">
<polygon fill="none" stroke="#000000" points="500.5,-189.2254 500.5,-208.2254 616.5,-208.2254 616.5,-189.2254 500.5,-189.2254"/>
<text text-anchor="middle" x="558.5" y="-196.2254" font-family="Helvetica,sans-Serif" font-size="10.00" fill="#000000">Map::increaseHeight</text>
</a>
</g>
</g>
<!-- Node167&#45;&gt;Node168 -->
<g id="edge2" class="edge">
<title>Node167&#45;&gt;Node168</title>
<path fill="none" stroke="#191970" d="M247.402,-245.8653C270.8281,-236.1114 309.1833,-224.6333 343,-217.7254 395.6742,-206.9654 456.4796,-199.5086 500.0429,-196.5638"/>
<polygon fill="#191970" stroke="#191970" points="245.7377,-242.7758 238.046,-250.0619 248.6026,-249.1627 245.7377,-242.7758"/>
</g>
<!-- Node175 -->
<g id="node10" class="node">
<title>Node175</title>
<g id="a_node10"><a xlink:href="classMap.html#afb8cc864df90d273a5074872d635dc40" target="_top" xlink:title="Decrease Height Decreases the height of the node and checks the surrounding tiles. Either draw a slope sprite or lower the tile if necessary. ">
<polygon fill="none" stroke="#000000" points="499,-341.2254 499,-360.2254 618,-360.2254 618,-341.2254 499,-341.2254"/>
<text text-anchor="middle" x="558.5" y="-348.2254" font-family="Helvetica,sans-Serif" font-size="10.00" fill="#000000">Map::decreaseHeight</text>
</a>
</g>
</g>
<!-- Node167&#45;&gt;Node175 -->
<g id="edge10" class="edge">
<title>Node167&#45;&gt;Node175</title>
<path fill="none" stroke="#191970" d="M287.855,-272.1662C305.5953,-277.5571 324.9908,-283.6058 343,-288.7254 414.3399,-309.0057 500.2422,-328.7543 538.4684,-341.1303"/>
<polygon fill="#191970" stroke="#191970" points="288.7737,-268.7876 278.1889,-269.249 286.7511,-275.4891 288.7737,-268.7876"/>
</g>
<!-- Node177 -->
<g id="node12" class="node">
<title>Node177</title>
<g id="a_node12"><a xlink:href="classMap.html#a481b37ba71ef0e51e836fc42805762dd" target="_top" xlink:title="Update all mapNodes Updates all mapNode and its adjacent tiles regarding height information, draws slopes for adjacent tiles and sets tiling for mapNode sprite if applicable. ">
<polygon fill="none" stroke="#000000" points="343,-137.2254 343,-156.2254 463,-156.2254 463,-137.2254 343,-137.2254"/>
<text text-anchor="middle" x="403" y="-144.2254" font-family="Helvetica,sans-Serif" font-size="10.00" fill="#000000">Map::updateAllNodes</text>
</a>
</g>
</g>
<!-- Node167&#45;&gt;Node177 -->
<g id="edge14" class="edge">
<title>Node167&#45;&gt;Node177</title>
<path fill="none" stroke="#191970" d="M243.7989,-243.3715C266.0331,-224.1119 305.2674,-192.0489 343,-170.7254 352.865,-165.1505 364.2852,-160.2388 374.4979,-156.3348"/>
<polygon fill="#191970" stroke="#191970" points="241.3617,-240.8535 236.1484,-250.077 245.9757,-246.1177 241.3617,-240.8535"/>
</g>
<!-- Node186 -->
<g id="node21" class="node">
<title>Node186</title>
<g id="a_node21"><a xlink:href="classMap.html#a779c939483a52b32a3959b99af95e67a" target="_top" xlink:title="Set the Tile ID Of Node object Also invokes all necessary texture updates (auto&#45;tiling, slopes, ...) ">
<polygon fill="none" stroke="#000000" points="823.5,-265.2254 823.5,-284.2254 946.5,-284.2254 946.5,-265.2254 823.5,-265.2254"/>
<text text-anchor="middle" x="885" y="-272.2254" font-family="Helvetica,sans-Serif" font-size="10.00" fill="#000000">Map::setTileIDOfNode</text>
</a>
</g>
</g>
<!-- Node167&#45;&gt;Node186 -->
<g id="edge44" class="edge">
<title>Node167&#45;&gt;Node186</title>
<path fill="none" stroke="#191970" d="M317.2408,-258.9978C361.3211,-258.8342 414.9039,-258.9067 463,-259.7254 606.618,-262.1702 642.4607,-265.3815 786,-270.7254 798.1187,-271.1766 811.0708,-271.6826 823.4782,-272.1791"/>
<polygon fill="#191970" stroke="#191970" points="317.1052,-255.4982 307.1199,-259.04 317.1345,-262.4981 317.1052,-255.4982"/>
</g>
<!-- Node188 -->
<g id="node23" class="node">
<title>Node188</title>
<g id="a_node23"><a xlink:href="classMap.html#a05e7d896dc5062af07c9b838600a068d" target="_top" xlink:title="Demolish a node Invokes the tiles demolish function. ">
<polygon fill="none" stroke="#000000" points="346.5,-269.2254 346.5,-288.2254 459.5,-288.2254 459.5,-269.2254 346.5,-269.2254"/>
<text text-anchor="middle" x="403" y="-276.2254" font-family="Helvetica,sans-Serif" font-size="10.00" fill="#000000">Map::demolishNode</text>
</a>
</g>
</g>
<!-- Node167&#45;&gt;Node188 -->
<g id="edge36" class="edge">
<title>Node167&#45;&gt;Node188</title>
<path fill="none" stroke="#191970" d="M317.3782,-262.814C334.606,-264.6992 351.6764,-266.907 365.9885,-269.1591"/>
<polygon fill="#191970" stroke="#191970" points="317.5484,-259.3126 307.2362,-261.7434 316.8135,-266.2739 317.5484,-259.3126"/>
</g>
<!-- Node168&#45;&gt;Node167 -->
<g id="edge9" class="edge">
<title>Node168&#45;&gt;Node167</title>
<path fill="none" stroke="#191970" d="M511.9332,-209.7769C468.0685,-216.1259 400.6622,-223.9465 343,-235.7254 323.4857,-239.7117 302.4601,-245.2198 283.6641,-250.1492"/>
<polygon fill="#191970" stroke="#191970" points="512.6361,-213.211 522.0119,-208.2771 511.6056,-206.2872 512.6361,-213.211"/>
</g>
<!-- Node169 -->
<g id="node4" class="node">
<title>Node169</title>
<g id="a_node4"><a xlink:href="classEngine.html#a4851ae1ff696c893741167fc0194fd77" target="_top" xlink:title="Increase Height Increases the height of the given map node Calls the according function of the Map ob...">
<polygon fill="none" stroke="#000000" points="655.5,-189.2254 655.5,-208.2254 784.5,-208.2254 784.5,-189.2254 655.5,-189.2254"/>
<text text-anchor="middle" x="720" y="-196.2254" font-family="Helvetica,sans-Serif" font-size="10.00" fill="#000000">Engine::increaseHeight</text>
</a>
</g>
</g>
<!-- Node168&#45;&gt;Node169 -->
<g id="edge3" class="edge">
<title>Node168&#45;&gt;Node169</title>
<path fill="none" stroke="#191970" d="M626.9542,-198.7254C636.4139,-198.7254 646.1042,-198.7254 655.4892,-198.7254"/>
<polygon fill="#191970" stroke="#191970" points="626.8052,-195.2255 616.8052,-198.7254 626.8052,-202.2255 626.8052,-195.2255"/>
</g>
<!-- Node170 -->
<g id="node5" class="node">
<title>Node170</title>
<g id="a_node5"><a xlink:href="classEventManager.html#a65ec91fd5016d4f9c4167fb8babed2df" target="_top" xlink:title="EventManager::checkEvents">
<polygon fill="none" stroke="#000000" points="1168,-246.2254 1168,-265.2254 1322,-265.2254 1322,-246.2254 1168,-246.2254"/>
<text text-anchor="middle" x="1245" y="-253.2254" font-family="Helvetica,sans-Serif" font-size="10.00" fill="#000000">EventManager::checkEvents</text>
</a>
</g>
</g>
<!-- Node169&#45;&gt;Node170 -->
<g id="edge4" class="edge">
<title>Node169&#45;&gt;Node170</title>
<path fill="none" stroke="#191970" d="M794.8667,-206.8538C893.9116,-217.6072 1067.6216,-236.4672 1167.8157,-247.3454"/>
<polygon fill="#191970" stroke="#191970" points="794.9578,-203.3432 784.6384,-205.7433 794.2021,-210.3023 794.9578,-203.3432"/>
</g>
<!-- Node171 -->
<g id="node6" class="node">
<title>Node171</title>
<g id="a_node6"><a xlink:href="classGame.html#a1c2ab25d5216b2f4b2fe41efd2c09114" target="_top" xlink:title="begins the game starts running the game ">
<polygon fill="none" stroke="#000000" points="1370,-151.2254 1370,-170.2254 1438,-170.2254 1438,-151.2254 1370,-151.2254"/>
<text text-anchor="middle" x="1404" y="-158.2254" font-family="Helvetica,sans-Serif" font-size="10.00" fill="#000000">Game::run</text>
</a>
</g>
</g>
<!-- Node170&#45;&gt;Node171 -->
<g id="edge5" class="edge">
<title>Node170&#45;&gt;Node171</title>
<path fill="none" stroke="#191970" d="M1269.714,-240.9592C1302.6333,-221.2904 1359.9507,-187.0442 1387.8366,-170.3828"/>
<polygon fill="#191970" stroke="#191970" points="1267.91,-237.9598 1261.1208,-246.0935 1271.5004,-243.9689 1267.91,-237.9598"/>
</g>
<!-- Node172 -->
<g id="node7" class="node">
<title>Node172</title>
<g id="a_node7"><a xlink:href="classGame.html#ad59df6562a58a614fda24622d3715b65" target="_top" xlink:title="Game::Game">
<polygon fill="none" stroke="#000000" points="1480,-132.2254 1480,-151.2254 1561,-151.2254 1561,-132.2254 1480,-132.2254"/>
<text text-anchor="middle" x="1520.5" y="-139.2254" font-family="Helvetica,sans-Serif" font-size="10.00" fill="#000000">Game::Game</text>
</a>
</g>
</g>
<!-- Node171&#45;&gt;Node172 -->
<g id="edge6" class="edge">
<title>Node171&#45;&gt;Node172</title>
<path fill="none" stroke="#191970" d="M1448.0985,-153.5334C1458.4513,-151.8449 1469.439,-150.053 1479.6427,-148.3888"/>
<polygon fill="#191970" stroke="#191970" points="1447.316,-150.1147 1438.0098,-155.1787 1448.4428,-157.0234 1447.316,-150.1147"/>
</g>
<!-- Node173 -->
<g id="node8" class="node">
<title>Node173</title>
<g id="a_node8"><a xlink:href="main_8cxx.html#af582d708d899e67ead623eac34a22387" target="_top" xlink:title="protected_main">
<polygon fill="none" stroke="#000000" points="1474,-170.2254 1474,-189.2254 1567,-189.2254 1567,-170.2254 1474,-170.2254"/>
<text text-anchor="middle" x="1520.5" y="-177.2254" font-family="Helvetica,sans-Serif" font-size="10.00" fill="#000000">protected_main</text>
</a>
</g>
</g>
<!-- Node171&#45;&gt;Node173 -->
<g id="edge7" class="edge">
<title>Node171&#45;&gt;Node173</title>
<path fill="none" stroke="#191970" d="M1447.9884,-167.8995C1456.382,-169.2684 1465.1965,-170.706 1473.6749,-172.0887"/>
<polygon fill="#191970" stroke="#191970" points="1448.4428,-164.4274 1438.0098,-166.2721 1447.316,-171.3361 1448.4428,-164.4274"/>
</g>
<!-- Node174 -->
<g id="node9" class="node">
<title>Node174</title>
<g id="a_node9"><a xlink:href="main_8cxx.html#a3c04138a5bfe5d72780bb7e82a18e627" target="_top" xlink:title="main">
<polygon fill="none" stroke="#000000" points="1603,-170.2254 1603,-189.2254 1644,-189.2254 1644,-170.2254 1603,-170.2254"/>
<text text-anchor="middle" x="1623.5" y="-177.2254" font-family="Helvetica,sans-Serif" font-size="10.00" fill="#000000">main</text>
</a>
</g>
</g>
<!-- Node173&#45;&gt;Node174 -->
<g id="edge8" class="edge">
<title>Node173&#45;&gt;Node174</title>
<path fill="none" stroke="#191970" d="M1577.2133,-179.7254C1586.4322,-179.7254 1595.4259,-179.7254 1602.9965,-179.7254"/>
<polygon fill="#191970" stroke="#191970" points="1577.1782,-176.2255 1567.1782,-179.7254 1577.1781,-183.2255 1577.1782,-176.2255"/>
</g>
<!-- Node175&#45;&gt;Node167 -->
<g id="edge13" class="edge">
<title>Node175&#45;&gt;Node167</title>
<path fill="none" stroke="#191970" d="M488.8097,-342.729C446.448,-333.9853 391.3759,-320.4776 343,-306.7254 304.0235,-295.6453 258.5538,-280.2134 237.423,-269.2731"/>
<polygon fill="#191970" stroke="#191970" points="488.2475,-346.1861 498.7429,-344.7378 489.6351,-339.325 488.2475,-346.1861"/>
</g>
<!-- Node176 -->
<g id="node11" class="node">
<title>Node176</title>
<g id="a_node11"><a xlink:href="classEngine.html#a13572fdd7f6470dca48a14497f58980e" target="_top" xlink:title="Decrease Height Decreases the height of the given map node Calls the according function of the Map ob...">
<polygon fill="none" stroke="#000000" points="654,-341.2254 654,-360.2254 786,-360.2254 786,-341.2254 654,-341.2254"/>
<text text-anchor="middle" x="720" y="-348.2254" font-family="Helvetica,sans-Serif" font-size="10.00" fill="#000000">Engine::decreaseHeight</text>
</a>
</g>
</g>
<!-- Node175&#45;&gt;Node176 -->
<g id="edge11" class="edge">
<title>Node175&#45;&gt;Node176</title>
<path fill="none" stroke="#191970" d="M628.3603,-350.7254C636.7945,-350.7254 645.3902,-350.7254 653.7702,-350.7254"/>
<polygon fill="#191970" stroke="#191970" points="628.1778,-347.2255 618.1778,-350.7254 628.1778,-354.2255 628.1778,-347.2255"/>
</g>
<!-- Node176&#45;&gt;Node170 -->
<g id="edge12" class="edge">
<title>Node176&#45;&gt;Node170</title>
<path fill="none" stroke="#191970" d="M796.2427,-351.9187C877.8134,-351.3469 1010.2787,-345.063 1120,-314.7254 1161.4017,-303.278 1206.0191,-278.9935 1229.1136,-265.4206"/>
<polygon fill="#191970" stroke="#191970" points="796.0464,-348.4194 786.0614,-351.9621 796.0763,-355.4193 796.0464,-348.4194"/>
</g>
<!-- Node178 -->
<g id="node13" class="node">
<title>Node178</title>
<g id="a_node13"><a xlink:href="classMap.html#a482ac34426e8aa66abb46f60ec329402" target="_top" xlink:title="Initialize the Map with node objects Initialize the Map with node objects. ">
<polygon fill="none" stroke="#000000" points="519,-113.2254 519,-132.2254 598,-132.2254 598,-113.2254 519,-113.2254"/>
<text text-anchor="middle" x="558.5" y="-120.2254" font-family="Helvetica,sans-Serif" font-size="10.00" fill="#000000">Map::initMap</text>
</a>
</g>
</g>
<!-- Node177&#45;&gt;Node178 -->
<g id="edge15" class="edge">
<title>Node177&#45;&gt;Node178</title>
<path fill="none" stroke="#191970" d="M473.2752,-135.8791C488.8573,-133.4741 504.8436,-131.0068 518.6994,-128.8683"/>
<polygon fill="#191970" stroke="#191970" points="472.4694,-132.4619 463.1204,-137.4464 473.5372,-139.38 472.4694,-132.4619"/>
</g>
<!-- Node183 -->
<g id="node18" class="node">
<title>Node183</title>
<g id="a_node18"><a xlink:href="classMap.html#afefe996cc1f62b61ec60d0ae415953bf" target="_top" xlink:title="Map::loadMapFromFile">
<polygon fill="none" stroke="#000000" points="657.5,-151.2254 657.5,-170.2254 782.5,-170.2254 782.5,-151.2254 657.5,-151.2254"/>
<text text-anchor="middle" x="720" y="-158.2254" font-family="Helvetica,sans-Serif" font-size="10.00" fill="#000000">Map::loadMapFromFile</text>
</a>
</g>
</g>
<!-- Node177&#45;&gt;Node183 -->
<g id="edge35" class="edge">
<title>Node177&#45;&gt;Node183</title>
<path fill="none" stroke="#191970" d="M473.4075,-149.8349C528.5082,-152.2684 604.4233,-155.6211 657.4146,-157.9614"/>
<polygon fill="#191970" stroke="#191970" points="473.5161,-146.3364 463.3714,-149.3917 473.2072,-153.3295 473.5161,-146.3364"/>
</g>
<!-- Node179 -->
<g id="node14" class="node">
<title>Node179</title>
<g id="a_node14"><a xlink:href="classEngine.html#a260d4834150eae6eec2bde34df6dc827" target="_top" xlink:title="Creates a new game Creates a new game. ">
<polygon fill="none" stroke="#000000" points="832.5,-37.2254 832.5,-56.2254 937.5,-56.2254 937.5,-37.2254 832.5,-37.2254"/>
<text text-anchor="middle" x="885" y="-44.2254" font-family="Helvetica,sans-Serif" font-size="10.00" fill="#000000">Engine::newGame</text>
</a>
</g>
</g>
<!-- Node178&#45;&gt;Node179 -->
<g id="edge16" class="edge">
<title>Node178&#45;&gt;Node179</title>
<path fill="none" stroke="#191970" d="M608.1438,-111.1697C672.6509,-96.1543 784.095,-70.2133 844.0301,-56.2621"/>
<polygon fill="#191970" stroke="#191970" points="607.155,-107.8062 598.2089,-113.4823 608.742,-114.624 607.155,-107.8062"/>
</g>
<!-- Node178&#45;&gt;Node183 -->
<g id="edge24" class="edge">
<title>Node178&#45;&gt;Node183</title>
<path fill="none" stroke="#191970" d="M607.8995,-134.3488C630.8405,-139.7467 657.778,-146.0849 679.4967,-151.1952"/>
<polygon fill="#191970" stroke="#191970" points="608.5432,-130.9048 598.0073,-132.0213 606.9399,-137.7187 608.5432,-130.9048"/>
</g>
<!-- Node179&#45;&gt;Node171 -->
<g id="edge23" class="edge">
<title>Node179&#45;&gt;Node171</title>
<path fill="none" stroke="#191970" d="M919.7831,-33.8955C938.5229,-27.6603 962.2102,-20.8512 984,-17.7254 1139.4206,4.5698 1202.5117,20.0853 1334,-65.7254 1367.6269,-87.6707 1390.7953,-131.6995 1399.8083,-151.1325"/>
<polygon fill="#191970" stroke="#191970" points="918.5254,-30.6265 910.1982,-37.1769 920.7928,-37.2491 918.5254,-30.6265"/>
</g>
<!-- Node180 -->
<g id="node15" class="node">
<title>Node180</title>
<g id="a_node15"><a xlink:href="classEngine.html#af7de8d74b0cfacaf06df53e7caf11538" target="_top" xlink:title="Engine::saveGame">
<polygon fill="none" stroke="#000000" points="998,-37.2254 998,-56.2254 1106,-56.2254 1106,-37.2254 998,-37.2254"/>
<text text-anchor="middle" x="1052" y="-44.2254" font-family="Helvetica,sans-Serif" font-size="10.00" fill="#000000">Engine::saveGame</text>
</a>
</g>
</g>
<!-- Node179&#45;&gt;Node180 -->
<g id="edge17" class="edge">
<title>Node179&#45;&gt;Node180</title>
<path fill="none" stroke="#191970" d="M947.8901,-46.7254C964.3065,-46.7254 981.8565,-46.7254 997.7799,-46.7254"/>
<polygon fill="#191970" stroke="#191970" points="947.8399,-43.2255 937.8398,-46.7254 947.8398,-50.2255 947.8399,-43.2255"/>
</g>
<!-- Node181 -->
<g id="node16" class="node">
<title>Node181</title>
<g id="a_node16"><a xlink:href="classUIManager.html#aa78e356fc3b356d790c848319d1c387e" target="_top" xlink:title="UIManager::setCallbackFunctions">
<polygon fill="none" stroke="#000000" points="1156,-75.2254 1156,-94.2254 1334,-94.2254 1334,-75.2254 1156,-75.2254"/>
<text text-anchor="middle" x="1245" y="-82.2254" font-family="Helvetica,sans-Serif" font-size="10.00" fill="#000000">UIManager::setCallbackFunctions</text>
</a>
</g>
</g>
<!-- Node179&#45;&gt;Node181 -->
<g id="edge19" class="edge">
<title>Node179&#45;&gt;Node181</title>
<path fill="none" stroke="#191970" d="M931.7227,-34.9828C979.5335,-24.817 1055.7187,-13.7609 1120,-27.7254 1161.9535,-36.8394 1206.708,-61.3168 1229.5834,-75.0469"/>
<polygon fill="#191970" stroke="#191970" points="930.6859,-31.6272 921.6726,-37.1959 932.1913,-38.4634 930.6859,-31.6272"/>
</g>
<!-- Node182 -->
<g id="node17" class="node">
<title>Node182</title>
<g id="a_node17"><a xlink:href="classGame.html#a5ed7fc5be77080f7f6dd5363f7f007a1" target="_top" xlink:title="initializes and displays the main menu initializes and displays the main menu ">
<polygon fill="none" stroke="#000000" points="1193.5,-151.2254 1193.5,-170.2254 1296.5,-170.2254 1296.5,-151.2254 1193.5,-151.2254"/>
<text text-anchor="middle" x="1245" y="-158.2254" font-family="Helvetica,sans-Serif" font-size="10.00" fill="#000000">Game::mainMenu</text>
</a>
</g>
</g>
<!-- Node179&#45;&gt;Node182 -->
<g id="edge20" class="edge">
<title>Node179&#45;&gt;Node182</title>
<path fill="none" stroke="#191970" d="M924.7717,-59.3198C997.3789,-82.3121 1149.8866,-130.6061 1214.7582,-151.1488"/>
<polygon fill="#191970" stroke="#191970" points="925.6643,-55.9312 915.0742,-56.2489 923.551,-62.6046 925.6643,-55.9312"/>
</g>
<!-- Node180&#45;&gt;Node181 -->
<g id="edge18" class="edge">
<title>Node180&#45;&gt;Node181</title>
<path fill="none" stroke="#191970" d="M1110.6016,-58.2635C1138.1289,-63.6834 1170.5476,-70.0664 1196.6482,-75.2054"/>
<polygon fill="#191970" stroke="#191970" points="1111.1898,-54.8122 1100.702,-56.3144 1109.8375,-61.6804 1111.1898,-54.8122"/>
</g>
<!-- Node182&#45;&gt;Node172 -->
<g id="edge21" class="edge">
<title>Node182&#45;&gt;Node172</title>
<path fill="none" stroke="#191970" d="M1305.9441,-149.579C1326.2452,-146.3701 1349.0283,-143.3102 1370,-141.7254 1407.1272,-138.9198 1449.5536,-139.2377 1479.8759,-140.071"/>
<polygon fill="#191970" stroke="#191970" points="1305.1975,-146.1543 1295.8878,-151.2119 1306.3195,-153.0639 1305.1975,-146.1543"/>
</g>
<!-- Node182&#45;&gt;Node173 -->
<g id="edge22" class="edge">
<title>Node182&#45;&gt;Node173</title>
<path fill="none" stroke="#191970" d="M1305.9441,-171.8718C1326.2452,-175.0807 1349.0283,-178.1407 1370,-179.7254 1404.7823,-182.3538 1444.2157,-182.2408 1473.9902,-181.5309"/>
<polygon fill="#191970" stroke="#191970" points="1306.3195,-168.387 1295.8878,-170.239 1305.1975,-175.2965 1306.3195,-168.387"/>
</g>
<!-- Node184 -->
<g id="node19" class="node">
<title>Node184</title>
<g id="a_node19"><a xlink:href="classEngine.html#a83b7dbeee899b36a13d5b07c7ad87ebc" target="_top" xlink:title="Loads a saved game Loads a saved Game. ">
<polygon fill="none" stroke="#000000" points="832,-151.2254 832,-170.2254 938,-170.2254 938,-151.2254 832,-151.2254"/>
<text text-anchor="middle" x="885" y="-158.2254" font-family="Helvetica,sans-Serif" font-size="10.00" fill="#000000">Engine::loadGame</text>
</a>
</g>
</g>
<!-- Node183&#45;&gt;Node184 -->
<g id="edge25" class="edge">
<title>Node183&#45;&gt;Node184</title>
<path fill="none" stroke="#191970" d="M793.1678,-160.7254C806.1476,-160.7254 819.4396,-160.7254 831.7363,-160.7254"/>
<polygon fill="#191970" stroke="#191970" points="792.8502,-157.2255 782.8501,-160.7254 792.8501,-164.2255 792.8502,-157.2255"/>
</g>
<!-- Node183&#45;&gt;Node186 -->
<g id="edge32" class="edge">
<title>Node183&#45;&gt;Node186</title>
<path fill="none" stroke="#191970" d="M774.2103,-173.9574C778.3016,-175.6675 782.2803,-177.5831 786,-179.7254 826.2519,-202.9081 862.6239,-245.8939 877.672,-265.063"/>
<polygon fill="#191970" stroke="#191970" points="775.1207,-170.5609 764.5284,-170.3297 772.6646,-177.1159 775.1207,-170.5609"/>
</g>
<!-- Node184&#45;&gt;Node181 -->
<g id="edge30" class="edge">
<title>Node184&#45;&gt;Node181</title>
<path fill="none" stroke="#191970" d="M940.3598,-149.0383C1011.6245,-133.9936 1134.0938,-108.1389 1199.9553,-94.2348"/>
<polygon fill="#191970" stroke="#191970" points="939.2911,-145.6867 930.2297,-151.1769 940.7371,-152.5358 939.2911,-145.6867"/>
</g>
<!-- Node184&#45;&gt;Node182 -->
<g id="edge31" class="edge">
<title>Node184&#45;&gt;Node182</title>
<path fill="none" stroke="#191970" d="M948.5221,-160.7254C1018.2454,-160.7254 1128.8354,-160.7254 1193.4148,-160.7254"/>
<polygon fill="#191970" stroke="#191970" points="948.1193,-157.2255 938.1192,-160.7254 948.1192,-164.2255 948.1193,-157.2255"/>
</g>
<!-- Node185 -->
<g id="node20" class="node">
<title>Node185</title>
<g id="a_node20"><a xlink:href="classEngine.html#a0ba57971ffb5173ecc425461f65a4cd8" target="_top" xlink:title="Quits the game Sets m_running to false and quitting the game. ">
<polygon fill="none" stroke="#000000" points="1000,-189.2254 1000,-208.2254 1104,-208.2254 1104,-189.2254 1000,-189.2254"/>
<text text-anchor="middle" x="1052" y="-196.2254" font-family="Helvetica,sans-Serif" font-size="10.00" fill="#000000">Engine::quitGame</text>
</a>
</g>
</g>
<!-- Node184&#45;&gt;Node185 -->
<g id="edge26" class="edge">
<title>Node184&#45;&gt;Node185</title>
<path fill="none" stroke="#191970" d="M936.9646,-172.5497C960.5086,-177.907 987.9737,-184.1565 1010.1619,-189.2054"/>
<polygon fill="#191970" stroke="#191970" points="937.6685,-169.1205 927.1412,-170.3144 936.1153,-175.946 937.6685,-169.1205"/>
</g>
<!-- Node185&#45;&gt;Node170 -->
<g id="edge27" class="edge">
<title>Node185&#45;&gt;Node170</title>
<path fill="none" stroke="#191970" d="M1093.9351,-211.1104C1129.5685,-221.6342 1179.9873,-236.5248 1212.5907,-246.1538"/>
<polygon fill="#191970" stroke="#191970" points="1094.8857,-207.7417 1084.3039,-208.2659 1092.903,-214.4551 1094.8857,-207.7417"/>
</g>
<!-- Node185&#45;&gt;Node181 -->
<g id="edge28" class="edge">
<title>Node185&#45;&gt;Node181</title>
<path fill="none" stroke="#191970" d="M1076.7686,-184.0953C1116.8907,-160.3962 1195.0043,-114.2565 1228.787,-94.302"/>
<polygon fill="#191970" stroke="#191970" points="1074.9532,-181.1025 1068.1231,-189.2019 1078.5133,-187.1296 1074.9532,-181.1025"/>
</g>
<!-- Node185&#45;&gt;Node182 -->
<g id="edge29" class="edge">
<title>Node185&#45;&gt;Node182</title>
<path fill="none" stroke="#191970" d="M1110.6016,-187.1873C1138.1289,-181.7674 1170.5476,-175.3844 1196.6482,-170.2455"/>
<polygon fill="#191970" stroke="#191970" points="1109.8375,-183.7704 1100.702,-189.1364 1111.1898,-190.6386 1109.8375,-183.7704"/>
</g>
<!-- Node187 -->
<g id="node22" class="node">
<title>Node187</title>
<g id="a_node22"><a xlink:href="classEngine.html#a8a53c5e52734a5158b317851361b83f2" target="_top" xlink:title="Engine::setTileIDOfNode">
<polygon fill="none" stroke="#000000" points="984,-265.2254 984,-284.2254 1120,-284.2254 1120,-265.2254 984,-265.2254"/>
<text text-anchor="middle" x="1052" y="-272.2254" font-family="Helvetica,sans-Serif" font-size="10.00" fill="#000000">Engine::setTileIDOfNode</text>
</a>
</g>
</g>
<!-- Node186&#45;&gt;Node187 -->
<g id="edge33" class="edge">
<title>Node186&#45;&gt;Node187</title>
<path fill="none" stroke="#191970" d="M956.7426,-274.7254C965.7182,-274.7254 974.8787,-274.7254 983.7981,-274.7254"/>
<polygon fill="#191970" stroke="#191970" points="956.7102,-271.2255 946.7102,-274.7254 956.7101,-278.2255 956.7102,-271.2255"/>
</g>
<!-- Node187&#45;&gt;Node170 -->
<g id="edge34" class="edge">
<title>Node187&#45;&gt;Node170</title>
<path fill="none" stroke="#191970" d="M1130.292,-267.0179C1142.6288,-265.8034 1155.3776,-264.5483 1167.6918,-263.3361"/>
<polygon fill="#191970" stroke="#191970" points="1129.6535,-263.5637 1120.0446,-268.0267 1130.3394,-270.5301 1129.6535,-263.5637"/>
</g>
<!-- Node188&#45;&gt;Node167 -->
<g id="edge42" class="edge">
<title>Node188&#45;&gt;Node167</title>
<path fill="none" stroke="#191970" d="M336.1569,-278.1342C311.1229,-275.8881 283.6084,-272.6192 262.2781,-269.2549"/>
<polygon fill="#191970" stroke="#191970" points="336.0792,-281.6402 346.3403,-279.0019 336.6736,-274.6654 336.0792,-281.6402"/>
</g>
<!-- Node188&#45;&gt;Node168 -->
<g id="edge40" class="edge">
<title>Node188&#45;&gt;Node168</title>
<path fill="none" stroke="#191970" d="M430.8604,-264.3921C462.2913,-248.2218 512.5528,-222.3638 539.6765,-208.4095"/>
<polygon fill="#191970" stroke="#191970" points="429.048,-261.3884 421.7569,-269.0755 432.2503,-267.613 429.048,-261.3884"/>
</g>
<!-- Node188&#45;&gt;Node175 -->
<g id="edge41" class="edge">
<title>Node188&#45;&gt;Node175</title>
<path fill="none" stroke="#191970" d="M430.202,-293.0573C449.2708,-302.9232 475.4577,-316.1124 499,-326.7254 510.1699,-331.7608 522.7262,-336.9001 533.4152,-341.1243"/>
<polygon fill="#191970" stroke="#191970" points="431.6801,-289.881 421.1936,-288.3698 428.4489,-296.0906 431.6801,-289.881"/>
</g>
<!-- Node188&#45;&gt;Node186 -->
<g id="edge43" class="edge">
<title>Node188&#45;&gt;Node186</title>
<path fill="none" stroke="#191970" d="M469.915,-278.1701C563.5564,-277.393 732.3818,-275.9919 823.1945,-275.2383"/>
<polygon fill="#191970" stroke="#191970" points="469.6795,-274.6718 459.7089,-278.2548 469.7376,-281.6716 469.6795,-274.6718"/>
</g>
<!-- Node189 -->
<g id="node24" class="node">
<title>Node189</title>
<g id="a_node24"><a xlink:href="classEngine.html#addfc50e21da201426444d8b4a07b3976" target="_top" xlink:title="Engine::demolishNode">
<polygon fill="none" stroke="#000000" points="822,-303.2254 822,-322.2254 948,-322.2254 948,-303.2254 822,-303.2254"/>
<text text-anchor="middle" x="885" y="-310.2254" font-family="Helvetica,sans-Serif" font-size="10.00" fill="#000000">Engine::demolishNode</text>
</a>
</g>
</g>
<!-- Node188&#45;&gt;Node189 -->
<g id="edge37" class="edge">
<title>Node188&#45;&gt;Node189</title>
<path fill="none" stroke="#191970" d="M469.6728,-287.648C479.4959,-288.7916 489.5026,-289.8622 499,-290.7254 612.4729,-301.0393 745.1789,-307.3482 821.7194,-310.4286"/>
<polygon fill="#191970" stroke="#191970" points="469.8765,-284.1475 459.5317,-286.4356 469.0455,-291.098 469.8765,-284.1475"/>
</g>
<!-- Node189&#45;&gt;Node170 -->
<g id="edge39" class="edge">
<title>Node189&#45;&gt;Node170</title>
<path fill="none" stroke="#191970" d="M958.3445,-310.8354C1004.9714,-308.6415 1066.4287,-303.9116 1120,-293.7254 1154.984,-287.0735 1194.0721,-274.2882 1219.0725,-265.3944"/>
<polygon fill="#191970" stroke="#191970" points="958.1647,-307.3399 948.3292,-311.2786 958.4742,-314.333 958.1647,-307.3399"/>
</g>
<!-- Node189&#45;&gt;Node187 -->
<g id="edge38" class="edge">
<title>Node189&#45;&gt;Node187</title>
<path fill="none" stroke="#191970" d="M936.9646,-300.9011C960.5086,-295.5438 987.9737,-289.2943 1010.1619,-284.2455"/>
<polygon fill="#191970" stroke="#191970" points="936.1153,-297.5048 927.1412,-303.1364 937.6685,-304.3304 936.1153,-297.5048"/>
</g>
</g>
</svg>
        <g id="navigator" transform="translate(0 0)" fill="#404254">
                <rect fill="#f2f5e9" fill-opacity="0.5" stroke="#606060" stroke-width=".5" x="0" y="0" width="60" height="60"/>
                <use id="zoomplus" xlink:href="#zoomPlus" x="17" y="9" onmousedown="handleZoom(evt,'in')"/>
                <use id="zoomminus" xlink:href="#zoomMin" x="42" y="9" onmousedown="handleZoom(evt,'out')"/>
                <use id="reset" xlink:href="#resetDef" x="30" y="36" onmousedown="handleReset()"/>
                <g id="arrowUp" xlink:href="#dirArrow" transform="translate(30 24)" onmousedown="handlePan(0,-1)">
                  <use xlink:href="#rim" fill="#404040">
                        <set attributeName="fill" to="#808080" begin="arrowUp.mouseover" end="arrowUp.mouseout"/>
                  </use>
                  <path fill="none" stroke="white" stroke-width="1.5" d="M0,-3.0v7 M-2.5,-0.5L0,-3.0L2.5,-0.5"/>
                </g>
                <g id="arrowRight" xlink:href="#dirArrow" transform="rotate(90) translate(36 -43)" onmousedown="handlePan(1,0)">
                  <use xlink:href="#rim" fill="#404040">
                        <set attributeName="fill" to="#808080" begin="arrowRight.mouseover" end="arrowRight.mouseout"/>
                  </use>
                  <path fill="none" stroke="white" stroke-width="1.5" d="M0,-3.0v7 M-2.5,-0.5L0,-3.0L2.5,-0.5"/>
                </g>
                <g id="arrowDown" xlink:href="#dirArrow" transform="rotate(180) translate(-30 -48)" onmousedown="handlePan(0,1)">
                  <use xlink:href="#rim" fill="#404040">
                        <set attributeName="fill" to="#808080" begin="arrowDown.mouseover" end="arrowDown.mouseout"/>
                  </use>
                  <path fill="none" stroke="white" stroke-width="1.5" d="M0,-3.0v7 M-2.5,-0.5L0,-3.0L2.5,-0.5"/>
                </g>
                <g id="arrowLeft" xlink:href="#dirArrow" transform="rotate(270) translate(-36 17)" onmousedown="handlePan(-1,0)">
                  <use xlink:href="#rim" fill="#404040">
                        <set attributeName="fill" to="#808080" begin="arrowLeft.mouseover" end="arrowLeft.mouseout"/>
                  </use>
                  <path fill="none" stroke="white" stroke-width="1.5" d="M0,-3.0v7 M-2.5,-0.5L0,-3.0L2.5,-0.5"/>
                </g>
        </g>
        <svg viewBox="0 0 15 15" width="100%" height="30px" preserveAspectRatio="xMaxYMin meet">
         <g id="arrow_out" transform="scale(0.3 0.3)">
          <a xlink:href="classMap_aab37e4a52faf81e9b696b8cf1bd9a690_icgraph_org.svg" target="_base">
           <rect id="button" ry="5" rx="5" y="6" x="6" height="38" width="38"
                fill="#f2f5e9" fill-opacity="0.5" stroke="#606060" stroke-width="1.0"/>
           <path id="arrow"
             d="M 11.500037,31.436501 C 11.940474,20.09759 22.043105,11.32322 32.158766,21.979434 L 37.068811,17.246167 C 37.068811,17.246167 37.088388,32 37.088388,32 L 22.160133,31.978069 C 22.160133,31.978069 26.997745,27.140456 26.997745,27.140456 C 18.528582,18.264221 13.291696,25.230495 11.500037,31.436501 z"
             style="fill:#404040;"/>
          </a>
         </g>
        </svg>
</svg>
