<?xml version="1.0" encoding="UTF-8" standalone="no"?>
<!DOCTYPE svg PUBLIC "-//W3C//DTD SVG 1.1//EN"
 "http://www.w3.org/Graphics/SVG/1.1/DTD/svg11.dtd">
<!-- Generated by graphviz version 2.40.1 (20161225.0304)
 -->
<!-- Title: MapLayers::~MapLayers Pages: 1 -->
<svg width="1399pt" height="256pt"
 viewBox="0.00 0.00 1399.00 256.00" xmlns="http://www.w3.org/2000/svg" xmlns:xlink="http://www.w3.org/1999/xlink">
<g id="graph0" class="graph" transform="scale(1 1) rotate(0) translate(4 252)">
<title>MapLayers::~MapLayers</title>
<!-- Node18 -->
<g id="node1" class="node">
<title>Node18</title>
<polygon fill="#bfbfbf" stroke="#000000" points="0,-114.5 0,-133.5 136,-133.5 136,-114.5 0,-114.5"/>
<text text-anchor="middle" x="68" y="-121.5" font-family="Helvetica,sans-Serif" font-size="10.00" fill="#000000">MapLayers::~MapLayers</text>
</g>
<!-- Node19 -->
<g id="node2" class="node">
<title>Node19</title>
<g id="a_node2"><a xlink:href="classMapLayers.html#a1d810628821913c499b8348107b66891" target="_top" xlink:title="Check if given Layer is being drawn. ">
<polygon fill="none" stroke="#000000" points="172,-114.5 172,-133.5 313,-133.5 313,-114.5 172,-114.5"/>
<text text-anchor="middle" x="242.5" y="-121.5" font-family="Helvetica,sans-Serif" font-size="10.00" fill="#000000">MapLayers::isLayerActive</text>
</a>
</g>
</g>
<!-- Node18&#45;&gt;Node19 -->
<g id="edge1" class="edge">
<title>Node18&#45;&gt;Node19</title>
<path fill="none" stroke="#191970" d="M146.4272,-124C154.8613,-124 163.4066,-124 171.7433,-124"/>
<polygon fill="#191970" stroke="#191970" points="146.216,-120.5001 136.216,-124 146.2159,-127.5001 146.216,-120.5001"/>
</g>
<!-- Node20 -->
<g id="node3" class="node">
<title>Node20</title>
<g id="a_node3"><a xlink:href="classMapNode.html#a0b089ef93b46bbfed8ccf71dc516c4ef" target="_top" xlink:title="MapNode::getActiveMapNodeData">
<polygon fill="none" stroke="#000000" points="349,-228.5 349,-247.5 533,-247.5 533,-228.5 349,-228.5"/>
<text text-anchor="middle" x="441" y="-235.5" font-family="Helvetica,sans-Serif" font-size="10.00" fill="#000000">MapNode::getActiveMapNodeData</text>
</a>
</g>
</g>
<!-- Node19&#45;&gt;Node20 -->
<g id="edge2" class="edge">
<title>Node19&#45;&gt;Node20</title>
<path fill="none" stroke="#191970" d="M256.7399,-141.3976C275.5203,-163.1131 310.7003,-199.7363 349,-219 356.7222,-222.884 365.1901,-225.9742 373.7642,-228.4328"/>
<polygon fill="#191970" stroke="#191970" points="259.288,-138.9903 250.1589,-133.6134 253.9423,-143.5097 259.288,-138.9903"/>
</g>
<!-- Node21 -->
<g id="node4" class="node">
<title>Node21</title>
<g id="a_node4"><a xlink:href="classMapNode.html#a604f1e438222bd6d77a6d59a7b39276a" target="_top" xlink:title="MapNode::demolishNode">
<polygon fill="none" stroke="#000000" points="371.5,-190.5 371.5,-209.5 510.5,-209.5 510.5,-190.5 371.5,-190.5"/>
<text text-anchor="middle" x="441" y="-197.5" font-family="Helvetica,sans-Serif" font-size="10.00" fill="#000000">MapNode::demolishNode</text>
</a>
</g>
</g>
<!-- Node19&#45;&gt;Node21 -->
<g id="edge3" class="edge">
<title>Node19&#45;&gt;Node21</title>
<path fill="none" stroke="#191970" d="M265.5687,-138.8705C286.5521,-151.7719 318.7707,-170.0497 349,-181 359.4273,-184.7772 370.8063,-187.8883 381.8957,-190.4207"/>
<polygon fill="#191970" stroke="#191970" points="267.3693,-135.8686 257.0341,-133.5374 263.6598,-141.8049 267.3693,-135.8686"/>
</g>
<!-- Node22 -->
<g id="node5" class="node">
<title>Node22</title>
<g id="a_node5"><a xlink:href="classMap.html#a1f87a6ce8b3be8d140bcee1b1e473903" target="_top" xlink:title="Map::isClickWithinTile">
<polygon fill="none" stroke="#000000" points="378.5,-152.5 378.5,-171.5 503.5,-171.5 503.5,-152.5 378.5,-152.5"/>
<text text-anchor="middle" x="441" y="-159.5" font-family="Helvetica,sans-Serif" font-size="10.00" fill="#000000">Map::isClickWithinTile</text>
</a>
</g>
</g>
<!-- Node19&#45;&gt;Node22 -->
<g id="edge4" class="edge">
<title>Node19&#45;&gt;Node22</title>
<path fill="none" stroke="#191970" d="M302.517,-135.4894C330.8396,-140.9114 364.2423,-147.3058 391.1458,-152.4561"/>
<polygon fill="#191970" stroke="#191970" points="302.8135,-131.9827 292.3337,-133.54 301.4973,-138.8578 302.8135,-131.9827"/>
</g>
<!-- Node30 -->
<g id="node13" class="node">
<title>Node30</title>
<g id="a_node13"><a xlink:href="classSprite.html#abdf111e2030274680af0f00f296d8605" target="_top" xlink:title="Sprite::render">
<polygon fill="none" stroke="#000000" points="399.5,-114.5 399.5,-133.5 482.5,-133.5 482.5,-114.5 399.5,-114.5"/>
<text text-anchor="middle" x="441" y="-121.5" font-family="Helvetica,sans-Serif" font-size="10.00" fill="#000000">Sprite::render</text>
</a>
</g>
</g>
<!-- Node19&#45;&gt;Node30 -->
<g id="edge12" class="edge">
<title>Node19&#45;&gt;Node30</title>
<path fill="none" stroke="#191970" d="M323.3176,-124C349.3972,-124 377.2366,-124 399.2877,-124"/>
<polygon fill="#191970" stroke="#191970" points="323.0426,-120.5001 313.0426,-124 323.0426,-127.5001 323.0426,-120.5001"/>
</g>
<!-- Node31 -->
<g id="node14" class="node">
<title>Node31</title>
<g id="a_node14"><a xlink:href="classSprite.html#a87428873289f8ec84f4b75d9162c9d7c" target="_top" xlink:title="Sprite::getActiveClipRect">
<polygon fill="none" stroke="#000000" points="372.5,-76.5 372.5,-95.5 509.5,-95.5 509.5,-76.5 372.5,-76.5"/>
<text text-anchor="middle" x="441" y="-83.5" font-family="Helvetica,sans-Serif" font-size="10.00" fill="#000000">Sprite::getActiveClipRect</text>
</a>
</g>
</g>
<!-- Node19&#45;&gt;Node31 -->
<g id="edge13" class="edge">
<title>Node19&#45;&gt;Node31</title>
<path fill="none" stroke="#191970" d="M302.517,-112.5106C330.8396,-107.0886 364.2423,-100.6942 391.1458,-95.5439"/>
<polygon fill="#191970" stroke="#191970" points="301.4973,-109.1422 292.3337,-114.46 302.8135,-116.0173 301.4973,-109.1422"/>
</g>
<!-- Node32 -->
<g id="node15" class="node">
<title>Node32</title>
<g id="a_node15"><a xlink:href="classSprite.html#a7376c698bf914312fbcc7c2b8180cbed" target="_top" xlink:title="Sprite::isLayerUsed">
<polygon fill="none" stroke="#000000" points="385.5,-38.5 385.5,-57.5 496.5,-57.5 496.5,-38.5 385.5,-38.5"/>
<text text-anchor="middle" x="441" y="-45.5" font-family="Helvetica,sans-Serif" font-size="10.00" fill="#000000">Sprite::isLayerUsed</text>
</a>
</g>
</g>
<!-- Node19&#45;&gt;Node32 -->
<g id="edge14" class="edge">
<title>Node19&#45;&gt;Node32</title>
<path fill="none" stroke="#191970" d="M265.5687,-109.1295C286.5521,-96.2281 318.7707,-77.9503 349,-67 360.5007,-62.834 373.1591,-59.4782 385.3098,-56.8155"/>
<polygon fill="#191970" stroke="#191970" points="263.6598,-106.1951 257.0341,-114.4626 267.3693,-112.1314 263.6598,-106.1951"/>
</g>
<!-- Node33 -->
<g id="node16" class="node">
<title>Node33</title>
<g id="a_node16"><a xlink:href="classSprite.html#aedfac1c3b8a22c5ae4d97bd9586a6a26" target="_top" xlink:title="Sprite::getActiveDestRect">
<polygon fill="none" stroke="#000000" points="370.5,-.5 370.5,-19.5 511.5,-19.5 511.5,-.5 370.5,-.5"/>
<text text-anchor="middle" x="441" y="-7.5" font-family="Helvetica,sans-Serif" font-size="10.00" fill="#000000">Sprite::getActiveDestRect</text>
</a>
</g>
</g>
<!-- Node19&#45;&gt;Node33 -->
<g id="edge15" class="edge">
<title>Node19&#45;&gt;Node33</title>
<path fill="none" stroke="#191970" d="M256.7399,-106.6024C275.5203,-84.8869 310.7003,-48.2637 349,-29 356.7222,-25.116 365.1901,-22.0258 373.7642,-19.5672"/>
<polygon fill="#191970" stroke="#191970" points="253.9423,-104.4903 250.1589,-114.3866 259.288,-109.0097 253.9423,-104.4903"/>
</g>
<!-- Node23 -->
<g id="node6" class="node">
<title>Node23</title>
<g id="a_node6"><a xlink:href="classMap.html#a8cc1c9d35ae2c3ede6bc0fcc59b9aa41" target="_top" xlink:title="Returns the node at given screencoordinates. ">
<polygon fill="none" stroke="#000000" points="569,-152.5 569,-171.5 685,-171.5 685,-152.5 569,-152.5"/>
<text text-anchor="middle" x="627" y="-159.5" font-family="Helvetica,sans-Serif" font-size="10.00" fill="#000000">Map::findNodeInMap</text>
</a>
</g>
</g>
<!-- Node22&#45;&gt;Node23 -->
<g id="edge5" class="edge">
<title>Node22&#45;&gt;Node23</title>
<path fill="none" stroke="#191970" d="M513.7508,-162C532.0593,-162 551.4683,-162 568.9493,-162"/>
<polygon fill="#191970" stroke="#191970" points="513.7118,-158.5001 503.7118,-162 513.7118,-165.5001 513.7118,-158.5001"/>
</g>
<!-- Node24 -->
<g id="node7" class="node">
<title>Node24</title>
<g id="a_node7"><a xlink:href="isoMath_8hxx.html#ad3c5f070c4a876bc6e8978635d02ce52" target="_top" xlink:title="converts screen space coordinates to isometric space coordinates. To convert screen coordinates in to...">
<polygon fill="none" stroke="#000000" points="721,-152.5 721,-171.5 891,-171.5 891,-152.5 721,-152.5"/>
<text text-anchor="middle" x="806" y="-159.5" font-family="Helvetica,sans-Serif" font-size="10.00" fill="#000000">convertScreenToIsoCoordinates</text>
</a>
</g>
</g>
<!-- Node23&#45;&gt;Node24 -->
<g id="edge6" class="edge">
<title>Node23&#45;&gt;Node24</title>
<path fill="none" stroke="#191970" d="M695.2057,-162C703.6028,-162 712.2655,-162 720.874,-162"/>
<polygon fill="#191970" stroke="#191970" points="695.1162,-158.5001 685.1162,-162 695.1161,-165.5001 695.1162,-158.5001"/>
</g>
<!-- Node25 -->
<g id="node8" class="node">
<title>Node25</title>
<g id="a_node8"><a xlink:href="classEventManager.html#a65ec91fd5016d4f9c4167fb8babed2df" target="_top" xlink:title="EventManager::checkEvents">
<polygon fill="none" stroke="#000000" points="927,-152.5 927,-171.5 1081,-171.5 1081,-152.5 927,-152.5"/>
<text text-anchor="middle" x="1004" y="-159.5" font-family="Helvetica,sans-Serif" font-size="10.00" fill="#000000">EventManager::checkEvents</text>
</a>
</g>
</g>
<!-- Node24&#45;&gt;Node25 -->
<g id="edge7" class="edge">
<title>Node24&#45;&gt;Node25</title>
<path fill="none" stroke="#191970" d="M901.161,-162C909.7436,-162 918.3647,-162 926.7658,-162"/>
<polygon fill="#191970" stroke="#191970" points="901.1189,-158.5001 891.1189,-162 901.1189,-165.5001 901.1189,-158.5001"/>
</g>
<!-- Node26 -->
<g id="node9" class="node">
<title>Node26</title>
<g id="a_node9"><a xlink:href="classGame.html#a1c2ab25d5216b2f4b2fe41efd2c09114" target="_top" xlink:title="begins the game starts running the game ">
<polygon fill="none" stroke="#000000" points="1117,-152.5 1117,-171.5 1185,-171.5 1185,-152.5 1117,-152.5"/>
<text text-anchor="middle" x="1151" y="-159.5" font-family="Helvetica,sans-Serif" font-size="10.00" fill="#000000">Game::run</text>
</a>
</g>
</g>
<!-- Node25&#45;&gt;Node26 -->
<g id="edge8" class="edge">
<title>Node25&#45;&gt;Node26</title>
<path fill="none" stroke="#191970" d="M1091.5248,-162C1100.4338,-162 1109.0572,-162 1116.845,-162"/>
<polygon fill="#191970" stroke="#191970" points="1091.3744,-158.5001 1081.3744,-162 1091.3743,-165.5001 1091.3744,-158.5001"/>
</g>
<!-- Node27 -->
<g id="node10" class="node">
<title>Node27</title>
<g id="a_node10"><a xlink:href="classGame.html#ad59df6562a58a614fda24622d3715b65" target="_top" xlink:title="Game::Game">
<polygon fill="none" stroke="#000000" points="1227,-171.5 1227,-190.5 1308,-190.5 1308,-171.5 1227,-171.5"/>
<text text-anchor="middle" x="1267.5" y="-178.5" font-family="Helvetica,sans-Serif" font-size="10.00" fill="#000000">Game::Game</text>
</a>
</g>
</g>
<!-- Node26&#45;&gt;Node27 -->
<g id="edge9" class="edge">
<title>Node26&#45;&gt;Node27</title>
<path fill="none" stroke="#191970" d="M1195.0985,-169.192C1205.4513,-170.8805 1216.439,-172.6725 1226.6427,-174.3366"/>
<polygon fill="#191970" stroke="#191970" points="1195.4428,-165.702 1185.0098,-167.5467 1194.316,-172.6107 1195.4428,-165.702"/>
</g>
<!-- Node28 -->
<g id="node11" class="node">
<title>Node28</title>
<g id="a_node11"><a xlink:href="main_8cxx.html#af582d708d899e67ead623eac34a22387" target="_top" xlink:title="protected_main">
<polygon fill="none" stroke="#000000" points="1221,-133.5 1221,-152.5 1314,-152.5 1314,-133.5 1221,-133.5"/>
<text text-anchor="middle" x="1267.5" y="-140.5" font-family="Helvetica,sans-Serif" font-size="10.00" fill="#000000">protected_main</text>
</a>
</g>
</g>
<!-- Node26&#45;&gt;Node28 -->
<g id="edge10" class="edge">
<title>Node26&#45;&gt;Node28</title>
<path fill="none" stroke="#191970" d="M1194.9884,-154.8259C1203.382,-153.457 1212.1965,-152.0195 1220.6749,-150.6367"/>
<polygon fill="#191970" stroke="#191970" points="1194.316,-151.3893 1185.0098,-156.4533 1195.4428,-158.298 1194.316,-151.3893"/>
</g>
<!-- Node29 -->
<g id="node12" class="node">
<title>Node29</title>
<g id="a_node12"><a xlink:href="main_8cxx.html#a3c04138a5bfe5d72780bb7e82a18e627" target="_top" xlink:title="main">
<polygon fill="none" stroke="#000000" points="1350,-133.5 1350,-152.5 1391,-152.5 1391,-133.5 1350,-133.5"/>
<text text-anchor="middle" x="1370.5" y="-140.5" font-family="Helvetica,sans-Serif" font-size="10.00" fill="#000000">main</text>
</a>
</g>
</g>
<!-- Node28&#45;&gt;Node29 -->
<g id="edge11" class="edge">
<title>Node28&#45;&gt;Node29</title>
<path fill="none" stroke="#191970" d="M1324.2133,-143C1333.4322,-143 1342.4259,-143 1349.9965,-143"/>
<polygon fill="#191970" stroke="#191970" points="1324.1782,-139.5001 1314.1782,-143 1324.1781,-146.5001 1324.1782,-139.5001"/>
</g>
</g>
</svg>
