<?xml version="1.0" encoding="UTF-8" standalone="no"?>
<!DOCTYPE svg PUBLIC "-//W3C//DTD SVG 1.1//EN"
 "http://www.w3.org/Graphics/SVG/1.1/DTD/svg11.dtd">
<!-- Generated by graphviz version 2.40.1 (20161225.0304)
 -->
<!-- Title: Map::loadMapFromFile Pages: 1 -->
<!--zoomable 131 -->
<svg id="main" version="1.1" xmlns="http://www.w3.org/2000/svg" xmlns:xlink="http://www.w3.org/1999/xlink" xml:space="preserve" onload="init(evt)">
<style type="text/css"><![CDATA[
.edge:hover path { stroke: red; }
.edge:hover polygon { stroke: red; fill: red; }
]]></style>
<script type="text/javascript"><![CDATA[
var edges = document.getElementsByTagName('g');
if (edges && edges.length) {
  for (var i=0;i<edges.length;i++) {
    if (edges[i].id.substr(0,4)=='edge') {
      edges[i].setAttribute('class','edge');
    }
  }
}
]]></script>
        <defs>
                <circle id="rim" cx="0" cy="0" r="7"/>
                <circle id="rim2" cx="0" cy="0" r="3.5"/>
                <g id="zoomPlus">
                        <use xlink:href="#rim" fill="#404040">
                                <set attributeName="fill" to="#808080" begin="zoomplus.mouseover" end="zoomplus.mouseout"/>
                        </use>
                        <path d="M-4,0h8M0,-4v8" fill="none" stroke="white" stroke-width="1.5" pointer-events="none"/>
                </g>
                <g id="zoomMin">
                        <use xlink:href="#rim" fill="#404040">
                                <set attributeName="fill" to="#808080" begin="zoomminus.mouseover" end="zoomminus.mouseout"/>
                        </use>
                        <path d="M-4,0h8" fill="none" stroke="white" stroke-width="1.5" pointer-events="none"/>
                </g>
                <g id="dirArrow">
                        <path fill="none" stroke="white" stroke-width="1.5" d="M0,-3.0v7 M-2.5,-0.5L0,-3.0L2.5,-0.5"/>
                </g>
               <g id="resetDef">
                       <use xlink:href="#rim2" fill="#404040">
                               <set attributeName="fill" to="#808080" begin="reset.mouseover" end="reset.mouseout"/>
                       </use>
               </g>
        </defs>

<script type="text/javascript">
var viewWidth = 1023;
var viewHeight = 131;
var sectionId = 'dynsection-23';
</script>
<script xlink:href="svgpan.js"/>
<svg id="graph" class="graph">
<g id="viewport">
<title>Map::loadMapFromFile</title>
<!-- Node297 -->
<g id="node1" class="node">
<title>Node297</title>
<polygon fill="#bfbfbf" stroke="#000000" points="0,-65.9359 0,-84.9359 125,-84.9359 125,-65.9359 0,-65.9359"/>
<text text-anchor="middle" x="62.5" y="-72.9359" font-family="Helvetica,sans-Serif" font-size="10.00" fill="#000000">Map::loadMapFromFile</text>
</g>
<!-- Node298 -->
<g id="node2" class="node">
<title>Node298</title>
<g id="a_node2"><a xlink:href="classEngine.html#a83b7dbeee899b36a13d5b07c7ad87ebc" target="_top" xlink:title="Loads a saved game Loads a saved Game. ">
<polygon fill="none" stroke="#000000" points="169.5,-46.9359 169.5,-65.9359 275.5,-65.9359 275.5,-46.9359 169.5,-46.9359"/>
<text text-anchor="middle" x="222.5" y="-53.9359" font-family="Helvetica,sans-Serif" font-size="10.00" fill="#000000">Engine::loadGame</text>
</a>
</g>
</g>
<!-- Node297&#45;&gt;Node298 -->
<g id="edge1" class="edge">
<title>Node297&#45;&gt;Node298</title>
<path fill="none" stroke="#191970" d="M135.3143,-66.7892C146.8222,-65.4226 158.53,-64.0323 169.4749,-62.7326"/>
<polygon fill="#191970" stroke="#191970" points="134.7945,-63.3262 125.277,-67.9811 135.62,-70.2774 134.7945,-63.3262"/>
</g>
<!-- Node307 -->
<g id="node11" class="node">
<title>Node307</title>
<g id="a_node11"><a xlink:href="classMap.html#a779c939483a52b32a3959b99af95e67a" target="_top" xlink:title="Set the Tile ID Of Node object Also invokes all necessary texture updates (auto&#45;tiling, slopes, ...) ">
<polygon fill="none" stroke="#000000" points="161,-93.9359 161,-112.9359 284,-112.9359 284,-93.9359 161,-93.9359"/>
<text text-anchor="middle" x="222.5" y="-100.9359" font-family="Helvetica,sans-Serif" font-size="10.00" fill="#000000">Map::setTileIDOfNode</text>
</a>
</g>
</g>
<!-- Node297&#45;&gt;Node307 -->
<g id="edge14" class="edge">
<title>Node297&#45;&gt;Node307</title>
<path fill="none" stroke="#191970" d="M127.327,-86.7806C140.8694,-89.1505 155.014,-91.6258 168.1307,-93.9213"/>
<polygon fill="#191970" stroke="#191970" points="127.5691,-83.2699 117.1154,-84.9936 126.3624,-90.1651 127.5691,-83.2699"/>
</g>
<!-- Node299 -->
<g id="node3" class="node">
<title>Node299</title>
<g id="a_node3"><a xlink:href="classEngine.html#a0ba57971ffb5173ecc425461f65a4cd8" target="_top" xlink:title="Quits the game Sets m_running to false and quitting the game. ">
<polygon fill="none" stroke="#000000" points="336,-65.9359 336,-84.9359 440,-84.9359 440,-65.9359 336,-65.9359"/>
<text text-anchor="middle" x="388" y="-72.9359" font-family="Helvetica,sans-Serif" font-size="10.00" fill="#000000">Engine::quitGame</text>
</a>
</g>
</g>
<!-- Node298&#45;&gt;Node299 -->
<g id="edge2" class="edge">
<title>Node298&#45;&gt;Node299</title>
<path fill="none" stroke="#191970" d="M285.9079,-63.7153C302.4475,-65.6141 320.0792,-67.6383 335.9541,-69.4608"/>
<polygon fill="#191970" stroke="#191970" points="286.1102,-60.2157 275.7762,-62.5522 285.3118,-67.17 286.1102,-60.2157"/>
</g>
<!-- Node305 -->
<g id="node9" class="node">
<title>Node305</title>
<g id="a_node9"><a xlink:href="classUIManager.html#aa78e356fc3b356d790c848319d1c387e" target="_top" xlink:title="UIManager::setCallbackFunctions">
<polygon fill="none" stroke="#000000" points="492,-27.9359 492,-46.9359 670,-46.9359 670,-27.9359 492,-27.9359"/>
<text text-anchor="middle" x="581" y="-34.9359" font-family="Helvetica,sans-Serif" font-size="10.00" fill="#000000">UIManager::setCallbackFunctions</text>
</a>
</g>
</g>
<!-- Node298&#45;&gt;Node305 -->
<g id="edge12" class="edge">
<title>Node298&#45;&gt;Node305</title>
<path fill="none" stroke="#191970" d="M285.7817,-53.082C343.003,-50.0494 427.8502,-45.5526 491.9178,-42.1571"/>
<polygon fill="#191970" stroke="#191970" points="285.5847,-49.5875 275.784,-53.6119 285.9552,-56.5777 285.5847,-49.5875"/>
</g>
<!-- Node306 -->
<g id="node10" class="node">
<title>Node306</title>
<g id="a_node10"><a xlink:href="classGame.html#a5ed7fc5be77080f7f6dd5363f7f007a1" target="_top" xlink:title="initializes and displays the main menu initializes and displays the main menu ">
<polygon fill="none" stroke="#000000" points="706,-65.9359 706,-84.9359 809,-84.9359 809,-65.9359 706,-65.9359"/>
<text text-anchor="middle" x="757.5" y="-72.9359" font-family="Helvetica,sans-Serif" font-size="10.00" fill="#000000">Game::mainMenu</text>
</a>
</g>
</g>
<!-- Node298&#45;&gt;Node306 -->
<g id="edge13" class="edge">
<title>Node298&#45;&gt;Node306</title>
<path fill="none" stroke="#191970" d="M260.9262,-43.8781C339.5531,-20.1837 523.7164,25.0083 670,-18.4359 701.2834,-27.7266 731.8332,-52.1322 747.215,-65.8042"/>
<polygon fill="#191970" stroke="#191970" points="259.5192,-40.6488 250.9868,-46.9296 261.5737,-47.3405 259.5192,-40.6488"/>
</g>
<!-- Node300 -->
<g id="node4" class="node">
<title>Node300</title>
<g id="a_node4"><a xlink:href="classEventManager.html#a65ec91fd5016d4f9c4167fb8babed2df" target="_top" xlink:title="EventManager::checkEvents">
<polygon fill="none" stroke="#000000" points="504,-103.9359 504,-122.9359 658,-122.9359 658,-103.9359 504,-103.9359"/>
<text text-anchor="middle" x="581" y="-110.9359" font-family="Helvetica,sans-Serif" font-size="10.00" fill="#000000">EventManager::checkEvents</text>
</a>
</g>
</g>
<!-- Node299&#45;&gt;Node300 -->
<g id="edge3" class="edge">
<title>Node299&#45;&gt;Node300</title>
<path fill="none" stroke="#191970" d="M446.6016,-86.974C474.1289,-92.3939 506.5476,-98.7769 532.6482,-103.9158"/>
<polygon fill="#191970" stroke="#191970" points="447.1898,-83.5227 436.702,-85.0249 445.8375,-90.3909 447.1898,-83.5227"/>
</g>
<!-- Node299&#45;&gt;Node305 -->
<g id="edge8" class="edge">
<title>Node299&#45;&gt;Node305</title>
<path fill="none" stroke="#191970" d="M446.6016,-63.8977C474.1289,-58.4779 506.5476,-52.0949 532.6482,-46.9559"/>
<polygon fill="#191970" stroke="#191970" points="445.8375,-60.4809 436.702,-65.8469 447.1898,-67.349 445.8375,-60.4809"/>
</g>
<!-- Node299&#45;&gt;Node306 -->
<g id="edge9" class="edge">
<title>Node299&#45;&gt;Node306</title>
<path fill="none" stroke="#191970" d="M450.4215,-75.4359C522.2761,-75.4359 638.9682,-75.4359 705.9062,-75.4359"/>
<polygon fill="#191970" stroke="#191970" points="450.1567,-71.936 440.1566,-75.4359 450.1566,-78.936 450.1567,-71.936"/>
</g>
<!-- Node301 -->
<g id="node5" class="node">
<title>Node301</title>
<g id="a_node5"><a xlink:href="classGame.html#a1c2ab25d5216b2f4b2fe41efd2c09114" target="_top" xlink:title="begins the game starts running the game ">
<polygon fill="none" stroke="#000000" points="723.5,-103.9359 723.5,-122.9359 791.5,-122.9359 791.5,-103.9359 723.5,-103.9359"/>
<text text-anchor="middle" x="757.5" y="-110.9359" font-family="Helvetica,sans-Serif" font-size="10.00" fill="#000000">Game::run</text>
</a>
</g>
</g>
<!-- Node300&#45;&gt;Node301 -->
<g id="edge4" class="edge">
<title>Node300&#45;&gt;Node301</title>
<path fill="none" stroke="#191970" d="M668.3664,-113.4359C687.9355,-113.4359 707.5625,-113.4359 723.398,-113.4359"/>
<polygon fill="#191970" stroke="#191970" points="668.1587,-109.936 658.1587,-113.4359 668.1587,-116.936 668.1587,-109.936"/>
</g>
<!-- Node302 -->
<g id="node6" class="node">
<title>Node302</title>
<g id="a_node6"><a xlink:href="classGame.html#ad59df6562a58a614fda24622d3715b65" target="_top" xlink:title="Game::Game">
<polygon fill="none" stroke="#000000" points="851,-65.9359 851,-84.9359 932,-84.9359 932,-65.9359 851,-65.9359"/>
<text text-anchor="middle" x="891.5" y="-72.9359" font-family="Helvetica,sans-Serif" font-size="10.00" fill="#000000">Game::Game</text>
</a>
</g>
</g>
<!-- Node301&#45;&gt;Node302 -->
<g id="edge5" class="edge">
<title>Node301&#45;&gt;Node302</title>
<path fill="none" stroke="#191970" d="M800.9383,-101.1176C819.3491,-95.8966 840.4798,-89.9043 857.697,-85.0218"/>
<polygon fill="#191970" stroke="#191970" points="799.9796,-97.7513 791.3139,-103.8469 801.8894,-104.4858 799.9796,-97.7513"/>
</g>
<!-- Node303 -->
<g id="node7" class="node">
<title>Node303</title>
<g id="a_node7"><a xlink:href="main_8cxx.html#af582d708d899e67ead623eac34a22387" target="_top" xlink:title="protected_main">
<polygon fill="none" stroke="#000000" points="845,-103.9359 845,-122.9359 938,-122.9359 938,-103.9359 845,-103.9359"/>
<text text-anchor="middle" x="891.5" y="-110.9359" font-family="Helvetica,sans-Serif" font-size="10.00" fill="#000000">protected_main</text>
</a>
</g>
</g>
<!-- Node301&#45;&gt;Node303 -->
<g id="edge6" class="edge">
<title>Node301&#45;&gt;Node303</title>
<path fill="none" stroke="#191970" d="M801.8611,-113.4359C815.6278,-113.4359 830.8396,-113.4359 844.7626,-113.4359"/>
<polygon fill="#191970" stroke="#191970" points="801.6606,-109.936 791.6606,-113.4359 801.6605,-116.936 801.6606,-109.936"/>
</g>
<!-- Node304 -->
<g id="node8" class="node">
<title>Node304</title>
<g id="a_node8"><a xlink:href="main_8cxx.html#a3c04138a5bfe5d72780bb7e82a18e627" target="_top" xlink:title="main">
<polygon fill="none" stroke="#000000" points="974,-103.9359 974,-122.9359 1015,-122.9359 1015,-103.9359 974,-103.9359"/>
<text text-anchor="middle" x="994.5" y="-110.9359" font-family="Helvetica,sans-Serif" font-size="10.00" fill="#000000">main</text>
</a>
</g>
</g>
<!-- Node303&#45;&gt;Node304 -->
<g id="edge7" class="edge">
<title>Node303&#45;&gt;Node304</title>
<path fill="none" stroke="#191970" d="M948.2133,-113.4359C957.4322,-113.4359 966.4259,-113.4359 973.9965,-113.4359"/>
<polygon fill="#191970" stroke="#191970" points="948.1782,-109.936 938.1782,-113.4359 948.1781,-116.936 948.1782,-109.936"/>
</g>
<!-- Node306&#45;&gt;Node302 -->
<g id="edge10" class="edge">
<title>Node306&#45;&gt;Node302</title>
<path fill="none" stroke="#191970" d="M819.3832,-75.4359C829.9831,-75.4359 840.7548,-75.4359 850.6287,-75.4359"/>
<polygon fill="#191970" stroke="#191970" points="819.3079,-71.936 809.3079,-75.4359 819.3079,-78.936 819.3079,-71.936"/>
</g>
<!-- Node306&#45;&gt;Node303 -->
<g id="edge11" class="edge">
<title>Node306&#45;&gt;Node303</title>
<path fill="none" stroke="#191970" d="M800.9383,-87.7542C819.3491,-92.9752 840.4798,-98.9675 857.697,-103.8499"/>
<polygon fill="#191970" stroke="#191970" points="801.8894,-84.386 791.3139,-85.0249 799.9796,-91.1204 801.8894,-84.386"/>
</g>
<!-- Node308 -->
<g id="node12" class="node">
<title>Node308</title>
<g id="a_node12"><a xlink:href="classEngine.html#a8a53c5e52734a5158b317851361b83f2" target="_top" xlink:title="Engine::setTileIDOfNode">
<polygon fill="none" stroke="#000000" points="320,-103.9359 320,-122.9359 456,-122.9359 456,-103.9359 320,-103.9359"/>
<text text-anchor="middle" x="388" y="-110.9359" font-family="Helvetica,sans-Serif" font-size="10.00" fill="#000000">Engine::setTileIDOfNode</text>
</a>
</g>
</g>
<!-- Node307&#45;&gt;Node308 -->
<g id="edge15" class="edge">
<title>Node307&#45;&gt;Node308</title>
<path fill="none" stroke="#191970" d="M294.3736,-107.7787C302.858,-108.2914 311.4976,-108.8134 319.9273,-109.3227"/>
<polygon fill="#191970" stroke="#191970" points="294.319,-104.2691 284.1261,-107.1595 293.8968,-111.2564 294.319,-104.2691"/>
</g>
<!-- Node308&#45;&gt;Node300 -->
<g id="edge16" class="edge">
<title>Node308&#45;&gt;Node300</title>
<path fill="none" stroke="#191970" d="M466.292,-113.4359C478.6288,-113.4359 491.3776,-113.4359 503.6918,-113.4359"/>
<polygon fill="#191970" stroke="#191970" points="466.0446,-109.936 456.0446,-113.4359 466.0445,-116.936 466.0446,-109.936"/>
</g>
</g>
</svg>
        <g id="navigator" transform="translate(0 0)" fill="#404254">
                <rect fill="#f2f5e9" fill-opacity="0.5" stroke="#606060" stroke-width=".5" x="0" y="0" width="60" height="60"/>
                <use id="zoomplus" xlink:href="#zoomPlus" x="17" y="9" onmousedown="handleZoom(evt,'in')"/>
                <use id="zoomminus" xlink:href="#zoomMin" x="42" y="9" onmousedown="handleZoom(evt,'out')"/>
                <use id="reset" xlink:href="#resetDef" x="30" y="36" onmousedown="handleReset()"/>
                <g id="arrowUp" xlink:href="#dirArrow" transform="translate(30 24)" onmousedown="handlePan(0,-1)">
                  <use xlink:href="#rim" fill="#404040">
                        <set attributeName="fill" to="#808080" begin="arrowUp.mouseover" end="arrowUp.mouseout"/>
                  </use>
                  <path fill="none" stroke="white" stroke-width="1.5" d="M0,-3.0v7 M-2.5,-0.5L0,-3.0L2.5,-0.5"/>
                </g>
                <g id="arrowRight" xlink:href="#dirArrow" transform="rotate(90) translate(36 -43)" onmousedown="handlePan(1,0)">
                  <use xlink:href="#rim" fill="#404040">
                        <set attributeName="fill" to="#808080" begin="arrowRight.mouseover" end="arrowRight.mouseout"/>
                  </use>
                  <path fill="none" stroke="white" stroke-width="1.5" d="M0,-3.0v7 M-2.5,-0.5L0,-3.0L2.5,-0.5"/>
                </g>
                <g id="arrowDown" xlink:href="#dirArrow" transform="rotate(180) translate(-30 -48)" onmousedown="handlePan(0,1)">
                  <use xlink:href="#rim" fill="#404040">
                        <set attributeName="fill" to="#808080" begin="arrowDown.mouseover" end="arrowDown.mouseout"/>
                  </use>
                  <path fill="none" stroke="white" stroke-width="1.5" d="M0,-3.0v7 M-2.5,-0.5L0,-3.0L2.5,-0.5"/>
                </g>
                <g id="arrowLeft" xlink:href="#dirArrow" transform="rotate(270) translate(-36 17)" onmousedown="handlePan(-1,0)">
                  <use xlink:href="#rim" fill="#404040">
                        <set attributeName="fill" to="#808080" begin="arrowLeft.mouseover" end="arrowLeft.mouseout"/>
                  </use>
                  <path fill="none" stroke="white" stroke-width="1.5" d="M0,-3.0v7 M-2.5,-0.5L0,-3.0L2.5,-0.5"/>
                </g>
        </g>
        <svg viewBox="0 0 15 15" width="100%" height="30px" preserveAspectRatio="xMaxYMin meet">
         <g id="arrow_out" transform="scale(0.3 0.3)">
          <a xlink:href="classMap_afefe996cc1f62b61ec60d0ae415953bf_icgraph_org.svg" target="_base">
           <rect id="button" ry="5" rx="5" y="6" x="6" height="38" width="38"
                fill="#f2f5e9" fill-opacity="0.5" stroke="#606060" stroke-width="1.0"/>
           <path id="arrow"
             d="M 11.500037,31.436501 C 11.940474,20.09759 22.043105,11.32322 32.158766,21.979434 L 37.068811,17.246167 C 37.068811,17.246167 37.088388,32 37.088388,32 L 22.160133,31.978069 C 22.160133,31.978069 26.997745,27.140456 26.997745,27.140456 C 18.528582,18.264221 13.291696,25.230495 11.500037,31.436501 z"
             style="fill:#404040;"/>
          </a>
         </g>
        </svg>
</svg>
