<?xml version="1.0" encoding="UTF-8" standalone="no"?>
<!DOCTYPE svg PUBLIC "-//W3C//DTD SVG 1.1//EN"
 "http://www.w3.org/Graphics/SVG/1.1/DTD/svg11.dtd">
<!-- Generated by graphviz version 2.40.1 (20161225.0304)
 -->
<!-- Title: Map::renderMap Pages: 1 -->
<svg width="413pt" height="66pt"
 viewBox="0.00 0.00 413.00 66.00" xmlns="http://www.w3.org/2000/svg" xmlns:xlink="http://www.w3.org/1999/xlink">
<g id="graph0" class="graph" transform="scale(1 1) rotate(0) translate(4 62)">
<title>Map::renderMap</title>
<!-- Node324 -->
<g id="node1" class="node">
<title>Node324</title>
<polygon fill="#bfbfbf" stroke="#000000" points="0,-19.5 0,-38.5 95,-38.5 95,-19.5 0,-19.5"/>
<text text-anchor="middle" x="47.5" y="-26.5" font-family="Helvetica,sans-Serif" font-size="10.00" fill="#000000">Map::renderMap</text>
</g>
<!-- Node325 -->
<g id="node2" class="node">
<title>Node325</title>
<g id="a_node2"><a xlink:href="classGame.html#a1c2ab25d5216b2f4b2fe41efd2c09114" target="_top" xlink:title="begins the game starts running the game ">
<polygon fill="none" stroke="#000000" points="131,-19.5 131,-38.5 199,-38.5 199,-19.5 131,-19.5"/>
<text text-anchor="middle" x="165" y="-26.5" font-family="Helvetica,sans-Serif" font-size="10.00" fill="#000000">Game::run</text>
</a>
</g>
</g>
<!-- Node324&#45;&gt;Node325 -->
<g id="edge1" class="edge">
<title>Node324&#45;&gt;Node325</title>
<path fill="none" stroke="#191970" d="M105.4728,-29C114.1937,-29 122.9375,-29 130.9352,-29"/>
<polygon fill="#191970" stroke="#191970" points="105.2918,-25.5001 95.2917,-29 105.2917,-32.5001 105.2918,-25.5001"/>
</g>
<!-- Node326 -->
<g id="node3" class="node">
<title>Node326</title>
<g id="a_node3"><a xlink:href="classGame.html#ad59df6562a58a614fda24622d3715b65" target="_top" xlink:title="Game::Game">
<polygon fill="none" stroke="#000000" points="241,-38.5 241,-57.5 322,-57.5 322,-38.5 241,-38.5"/>
<text text-anchor="middle" x="281.5" y="-45.5" font-family="Helvetica,sans-Serif" font-size="10.00" fill="#000000">Game::Game</text>
</a>
</g>
</g>
<!-- Node325&#45;&gt;Node326 -->
<g id="edge2" class="edge">
<title>Node325&#45;&gt;Node326</title>
<path fill="none" stroke="#191970" d="M209.0985,-36.192C219.4513,-37.8805 230.439,-39.6725 240.6427,-41.3366"/>
<polygon fill="#191970" stroke="#191970" points="209.4428,-32.702 199.0098,-34.5467 208.316,-39.6107 209.4428,-32.702"/>
</g>
<!-- Node327 -->
<g id="node4" class="node">
<title>Node327</title>
<g id="a_node4"><a xlink:href="main_8cxx.html#af582d708d899e67ead623eac34a22387" target="_top" xlink:title="protected_main">
<polygon fill="none" stroke="#000000" points="235,-.5 235,-19.5 328,-19.5 328,-.5 235,-.5"/>
<text text-anchor="middle" x="281.5" y="-7.5" font-family="Helvetica,sans-Serif" font-size="10.00" fill="#000000">protected_main</text>
</a>
</g>
</g>
<!-- Node325&#45;&gt;Node327 -->
<g id="edge3" class="edge">
<title>Node325&#45;&gt;Node327</title>
<path fill="none" stroke="#191970" d="M208.9884,-21.8259C217.382,-20.457 226.1965,-19.0195 234.6749,-17.6367"/>
<polygon fill="#191970" stroke="#191970" points="208.316,-18.3893 199.0098,-23.4533 209.4428,-25.298 208.316,-18.3893"/>
</g>
<!-- Node328 -->
<g id="node5" class="node">
<title>Node328</title>
<g id="a_node5"><a xlink:href="main_8cxx.html#a3c04138a5bfe5d72780bb7e82a18e627" target="_top" xlink:title="main">
<polygon fill="none" stroke="#000000" points="364,-.5 364,-19.5 405,-19.5 405,-.5 364,-.5"/>
<text text-anchor="middle" x="384.5" y="-7.5" font-family="Helvetica,sans-Serif" font-size="10.00" fill="#000000">main</text>
</a>
</g>
</g>
<!-- Node327&#45;&gt;Node328 -->
<g id="edge4" class="edge">
<title>Node327&#45;&gt;Node328</title>
<path fill="none" stroke="#191970" d="M338.2133,-10C347.4322,-10 356.4259,-10 363.9965,-10"/>
<polygon fill="#191970" stroke="#191970" points="338.1782,-6.5001 328.1782,-10 338.1781,-13.5001 338.1782,-6.5001"/>
</g>
</g>
</svg>
