<?xml version="1.0" encoding="UTF-8" standalone="no"?>
<!DOCTYPE svg PUBLIC "-//W3C//DTD SVG 1.1//EN"
 "http://www.w3.org/Graphics/SVG/1.1/DTD/svg11.dtd">
<!-- Generated by graphviz version 2.40.1 (20161225.0304)
 -->
<!-- Title: UIManager::getAllUiElements Pages: 1 -->
<svg width="668pt" height="97pt"
 viewBox="0.00 0.00 668.00 96.50" xmlns="http://www.w3.org/2000/svg" xmlns:xlink="http://www.w3.org/1999/xlink">
<g id="graph0" class="graph" transform="scale(1 1) rotate(0) translate(4 92.5)">
<title>UIManager::getAllUiElements</title>
<!-- Node86 -->
<g id="node1" class="node">
<title>Node86</title>
<polygon fill="#bfbfbf" stroke="#000000" points="0,-28 0,-47 160,-47 160,-28 0,-28"/>
<text text-anchor="middle" x="80" y="-35" font-family="Helvetica,sans-Serif" font-size="10.00" fill="#000000">UIManager::getAllUiElements</text>
</g>
<!-- Node87 -->
<g id="node2" class="node">
<title>Node87</title>
<g id="a_node2"><a xlink:href="classEventManager.html#a65ec91fd5016d4f9c4167fb8babed2df" target="_top" xlink:title="EventManager::checkEvents">
<polygon fill="none" stroke="#000000" points="196,-50 196,-69 350,-69 350,-50 196,-50"/>
<text text-anchor="middle" x="273" y="-57" font-family="Helvetica,sans-Serif" font-size="10.00" fill="#000000">EventManager::checkEvents</text>
</a>
</g>
</g>
<!-- Node86&#45;&gt;Node87 -->
<g id="edge1" class="edge">
<title>Node86&#45;&gt;Node87</title>
<path fill="none" stroke="#191970" d="M170.1979,-47.7816C178.778,-48.7597 187.4247,-49.7453 195.8654,-50.7075"/>
<polygon fill="#191970" stroke="#191970" points="170.5048,-44.294 160.1727,-46.6389 169.7119,-51.249 170.5048,-44.294"/>
</g>
<!-- Node92 -->
<g id="node7" class="node">
<title>Node92</title>
<g id="a_node7"><a xlink:href="classUIManager.html#a5c4cb8e02504ffa0d3faf45181feab9d" target="_top" xlink:title="Fill UI Widgets whose ID start with a $ with data Used for filling widgets with data, like BuildMenu Position combobox, Screen Resolution ComboBox and so on. ">
<polygon fill="none" stroke="#000000" points="200,-.5 200,-30.5 346,-30.5 346,-.5 200,-.5"/>
<text text-anchor="start" x="208" y="-18.5" font-family="Helvetica,sans-Serif" font-size="10.00" fill="#000000">UIManager::initializeDollar</text>
<text text-anchor="middle" x="273" y="-7.5" font-family="Helvetica,sans-Serif" font-size="10.00" fill="#000000">Variables</text>
</a>
</g>
</g>
<!-- Node86&#45;&gt;Node92 -->
<g id="edge6" class="edge">
<title>Node86&#45;&gt;Node92</title>
<path fill="none" stroke="#191970" d="M170.4114,-27.194C180.2829,-26.0688 190.2396,-24.9338 199.8662,-23.8365"/>
<polygon fill="#191970" stroke="#191970" points="169.7119,-23.751 160.1727,-28.3611 170.5048,-30.706 169.7119,-23.751"/>
</g>
<!-- Node88 -->
<g id="node3" class="node">
<title>Node88</title>
<g id="a_node3"><a xlink:href="classGame.html#a1c2ab25d5216b2f4b2fe41efd2c09114" target="_top" xlink:title="begins the game starts running the game ">
<polygon fill="none" stroke="#000000" points="386,-50 386,-69 454,-69 454,-50 386,-50"/>
<text text-anchor="middle" x="420" y="-57" font-family="Helvetica,sans-Serif" font-size="10.00" fill="#000000">Game::run</text>
</a>
</g>
</g>
<!-- Node87&#45;&gt;Node88 -->
<g id="edge2" class="edge">
<title>Node87&#45;&gt;Node88</title>
<path fill="none" stroke="#191970" d="M360.5248,-59.5C369.4338,-59.5 378.0572,-59.5 385.845,-59.5"/>
<polygon fill="#191970" stroke="#191970" points="360.3744,-56.0001 350.3744,-59.5 360.3743,-63.0001 360.3744,-56.0001"/>
</g>
<!-- Node89 -->
<g id="node4" class="node">
<title>Node89</title>
<g id="a_node4"><a xlink:href="classGame.html#ad59df6562a58a614fda24622d3715b65" target="_top" xlink:title="Game::Game">
<polygon fill="none" stroke="#000000" points="496,-69 496,-88 577,-88 577,-69 496,-69"/>
<text text-anchor="middle" x="536.5" y="-76" font-family="Helvetica,sans-Serif" font-size="10.00" fill="#000000">Game::Game</text>
</a>
</g>
</g>
<!-- Node88&#45;&gt;Node89 -->
<g id="edge3" class="edge">
<title>Node88&#45;&gt;Node89</title>
<path fill="none" stroke="#191970" d="M464.0985,-66.692C474.4513,-68.3805 485.439,-70.1725 495.6427,-71.8366"/>
<polygon fill="#191970" stroke="#191970" points="464.4428,-63.202 454.0098,-65.0467 463.316,-70.1107 464.4428,-63.202"/>
</g>
<!-- Node90 -->
<g id="node5" class="node">
<title>Node90</title>
<g id="a_node5"><a xlink:href="main_8cxx.html#af582d708d899e67ead623eac34a22387" target="_top" xlink:title="protected_main">
<polygon fill="none" stroke="#000000" points="490,-31 490,-50 583,-50 583,-31 490,-31"/>
<text text-anchor="middle" x="536.5" y="-38" font-family="Helvetica,sans-Serif" font-size="10.00" fill="#000000">protected_main</text>
</a>
</g>
</g>
<!-- Node88&#45;&gt;Node90 -->
<g id="edge4" class="edge">
<title>Node88&#45;&gt;Node90</title>
<path fill="none" stroke="#191970" d="M463.9884,-52.3259C472.382,-50.957 481.1965,-49.5195 489.6749,-48.1367"/>
<polygon fill="#191970" stroke="#191970" points="463.316,-48.8893 454.0098,-53.9533 464.4428,-55.798 463.316,-48.8893"/>
</g>
<!-- Node91 -->
<g id="node6" class="node">
<title>Node91</title>
<g id="a_node6"><a xlink:href="main_8cxx.html#a3c04138a5bfe5d72780bb7e82a18e627" target="_top" xlink:title="main">
<polygon fill="none" stroke="#000000" points="619,-31 619,-50 660,-50 660,-31 619,-31"/>
<text text-anchor="middle" x="639.5" y="-38" font-family="Helvetica,sans-Serif" font-size="10.00" fill="#000000">main</text>
</a>
</g>
</g>
<!-- Node90&#45;&gt;Node91 -->
<g id="edge5" class="edge">
<title>Node90&#45;&gt;Node91</title>
<path fill="none" stroke="#191970" d="M593.2133,-40.5C602.4322,-40.5 611.4259,-40.5 618.9965,-40.5"/>
<polygon fill="#191970" stroke="#191970" points="593.1782,-37.0001 583.1782,-40.5 593.1781,-44.0001 593.1782,-37.0001"/>
</g>
</g>
</svg>
