<?xml version="1.0" encoding="UTF-8" standalone="no"?>
<!DOCTYPE svg PUBLIC "-//W3C//DTD SVG 1.1//EN"
 "http://www.w3.org/Graphics/SVG/1.1/DTD/svg11.dtd">
<!-- Generated by graphviz version 2.40.1 (20161225.0304)
 -->
<!-- Title: Sprite::isLayerUsed Pages: 1 -->
<svg width="468pt" height="66pt"
 viewBox="0.00 0.00 468.00 66.00" xmlns="http://www.w3.org/2000/svg" xmlns:xlink="http://www.w3.org/1999/xlink">
<g id="graph0" class="graph" transform="scale(1 1) rotate(0) translate(4 62)">
<title>Sprite::isLayerUsed</title>
<!-- Node21 -->
<g id="node1" class="node">
<title>Node21</title>
<polygon fill="#bfbfbf" stroke="#000000" points="0,-19.5 0,-38.5 111,-38.5 111,-19.5 0,-19.5"/>
<text text-anchor="middle" x="55.5" y="-26.5" font-family="Helvetica,sans-Serif" font-size="10.00" fill="#000000">Sprite::isLayerUsed</text>
</g>
<!-- Node22 -->
<g id="node2" class="node">
<title>Node22</title>
<g id="a_node2"><a xlink:href="classMapLayers.html#a1d810628821913c499b8348107b66891" target="_top" xlink:title="Check if given Layer is being drawn. ">
<polygon fill="none" stroke="#000000" points="147,-19.5 147,-38.5 288,-38.5 288,-19.5 147,-19.5"/>
<text text-anchor="middle" x="217.5" y="-26.5" font-family="Helvetica,sans-Serif" font-size="10.00" fill="#000000">MapLayers::isLayerActive</text>
</a>
</g>
</g>
<!-- Node21&#45;&gt;Node22 -->
<g id="edge1" class="edge">
<title>Node21&#45;&gt;Node22</title>
<path fill="none" stroke="#191970" d="M111.2512,-29C119.4742,-29 128.0828,-29 136.6887,-29"/>
<polygon fill="#191970" stroke="#191970" points="136.7667,-32.5001 146.7666,-29 136.7666,-25.5001 136.7667,-32.5001"/>
</g>
<!-- Node23 -->
<g id="node3" class="node">
<title>Node23</title>
<g id="a_node3"><a xlink:href="classMapLayers.html#a53d7fcd90e70eaf36239d7a75c0c5dda" target="_top" xlink:title="MapLayers::MapLayers">
<polygon fill="none" stroke="#000000" points="328,-38.5 328,-57.5 456,-57.5 456,-38.5 328,-38.5"/>
<text text-anchor="middle" x="392" y="-45.5" font-family="Helvetica,sans-Serif" font-size="10.00" fill="#000000">MapLayers::MapLayers</text>
</a>
</g>
</g>
<!-- Node22&#45;&gt;Node23 -->
<g id="edge2" class="edge">
<title>Node22&#45;&gt;Node23</title>
<path fill="none" stroke="#191970" d="M288.2243,-36.7006C297.9706,-37.7618 308.0026,-38.8542 317.8093,-39.9219"/>
<polygon fill="#191970" stroke="#191970" points="317.6059,-43.4204 327.926,-41.0235 318.3637,-36.4615 317.6059,-43.4204"/>
</g>
<!-- Node24 -->
<g id="node4" class="node">
<title>Node24</title>
<g id="a_node4"><a xlink:href="classMapLayers.html#aa7fa21110e27ec69f131692b0a510d66" target="_top" xlink:title="MapLayers::~MapLayers">
<polygon fill="none" stroke="#000000" points="324,-.5 324,-19.5 460,-19.5 460,-.5 324,-.5"/>
<text text-anchor="middle" x="392" y="-7.5" font-family="Helvetica,sans-Serif" font-size="10.00" fill="#000000">MapLayers::~MapLayers</text>
</a>
</g>
</g>
<!-- Node22&#45;&gt;Node24 -->
<g id="edge3" class="edge">
<title>Node22&#45;&gt;Node24</title>
<path fill="none" stroke="#191970" d="M288.2243,-21.2994C296.5528,-20.3925 305.0898,-19.463 313.5167,-18.5455"/>
<polygon fill="#191970" stroke="#191970" points="314.1572,-21.9965 323.7195,-17.4345 313.3994,-15.0376 314.1572,-21.9965"/>
</g>
</g>
</svg>
