<?xml version="1.0" encoding="UTF-8" standalone="no"?>
<!DOCTYPE svg PUBLIC "-//W3C//DTD SVG 1.1//EN"
 "http://www.w3.org/Graphics/SVG/1.1/DTD/svg11.dtd">
<!-- Generated by graphviz version 2.40.1 (20161225.0304)
 -->
<!-- Title: WindowManager::setWindowTitle Pages: 1 -->
<svg width="502pt" height="66pt"
 viewBox="0.00 0.00 502.00 66.00" xmlns="http://www.w3.org/2000/svg" xmlns:xlink="http://www.w3.org/1999/xlink">
<g id="graph0" class="graph" transform="scale(1 1) rotate(0) translate(4 62)">
<title>WindowManager::setWindowTitle</title>
<!-- Node33 -->
<g id="node1" class="node">
<title>Node33</title>
<polygon fill="#bfbfbf" stroke="#000000" points="0,-14 0,-44 158,-44 158,-14 0,-14"/>
<text text-anchor="start" x="8" y="-32" font-family="Helvetica,sans-Serif" font-size="10.00" fill="#000000">WindowManager::setWindow</text>
<text text-anchor="middle" x="79" y="-21" font-family="Helvetica,sans-Serif" font-size="10.00" fill="#000000">Title</text>
</g>
<!-- Node34 -->
<g id="node2" class="node">
<title>Node34</title>
<g id="a_node2"><a xlink:href="classGame.html#afa220e533b80333d5b3c8dbba01fdd16" target="_top" xlink:title="starts setting up the game starts game initialization. ">
<polygon fill="none" stroke="#000000" points="194,-19.5 194,-38.5 288,-38.5 288,-19.5 194,-19.5"/>
<text text-anchor="middle" x="241" y="-26.5" font-family="Helvetica,sans-Serif" font-size="10.00" fill="#000000">Game::initialize</text>
</a>
</g>
</g>
<!-- Node33&#45;&gt;Node34 -->
<g id="edge1" class="edge">
<title>Node33&#45;&gt;Node34</title>
<path fill="none" stroke="#191970" d="M168.1066,-29C176.9392,-29 185.642,-29 193.7891,-29"/>
<polygon fill="#191970" stroke="#191970" points="168.1018,-25.5001 158.1017,-29 168.1017,-32.5001 168.1018,-25.5001"/>
</g>
<!-- Node35 -->
<g id="node3" class="node">
<title>Node35</title>
<g id="a_node3"><a xlink:href="classGame.html#ad59df6562a58a614fda24622d3715b65" target="_top" xlink:title="Game::Game">
<polygon fill="none" stroke="#000000" points="330,-38.5 330,-57.5 411,-57.5 411,-38.5 330,-38.5"/>
<text text-anchor="middle" x="370.5" y="-45.5" font-family="Helvetica,sans-Serif" font-size="10.00" fill="#000000">Game::Game</text>
</a>
</g>
</g>
<!-- Node34&#45;&gt;Node35 -->
<g id="edge2" class="edge">
<title>Node34&#45;&gt;Node35</title>
<path fill="none" stroke="#191970" d="M298.1569,-37.386C308.754,-38.9407 319.6263,-40.5359 329.6171,-42.0017"/>
<polygon fill="#191970" stroke="#191970" points="298.521,-33.902 288.1188,-35.9132 297.5048,-40.8278 298.521,-33.902"/>
</g>
<!-- Node36 -->
<g id="node4" class="node">
<title>Node36</title>
<g id="a_node4"><a xlink:href="main_8cxx.html#af582d708d899e67ead623eac34a22387" target="_top" xlink:title="protected_main">
<polygon fill="none" stroke="#000000" points="324,-.5 324,-19.5 417,-19.5 417,-.5 324,-.5"/>
<text text-anchor="middle" x="370.5" y="-7.5" font-family="Helvetica,sans-Serif" font-size="10.00" fill="#000000">protected_main</text>
</a>
</g>
</g>
<!-- Node34&#45;&gt;Node36 -->
<g id="edge3" class="edge">
<title>Node34&#45;&gt;Node36</title>
<path fill="none" stroke="#191970" d="M298.0384,-20.6314C306.5907,-19.3767 315.325,-18.0952 323.6331,-16.8762"/>
<polygon fill="#191970" stroke="#191970" points="297.5048,-17.1722 288.1188,-22.0868 298.521,-24.098 297.5048,-17.1722"/>
</g>
<!-- Node37 -->
<g id="node5" class="node">
<title>Node37</title>
<g id="a_node5"><a xlink:href="main_8cxx.html#a3c04138a5bfe5d72780bb7e82a18e627" target="_top" xlink:title="main">
<polygon fill="none" stroke="#000000" points="453,-.5 453,-19.5 494,-19.5 494,-.5 453,-.5"/>
<text text-anchor="middle" x="473.5" y="-7.5" font-family="Helvetica,sans-Serif" font-size="10.00" fill="#000000">main</text>
</a>
</g>
</g>
<!-- Node36&#45;&gt;Node37 -->
<g id="edge4" class="edge">
<title>Node36&#45;&gt;Node37</title>
<path fill="none" stroke="#191970" d="M427.2133,-10C436.4322,-10 445.4259,-10 452.9965,-10"/>
<polygon fill="#191970" stroke="#191970" points="427.1782,-6.5001 417.1782,-10 427.1781,-13.5001 427.1782,-6.5001"/>
</g>
</g>
</svg>
