<?xml version="1.0" encoding="UTF-8" standalone="no"?>
<!DOCTYPE svg PUBLIC "-//W3C//DTD SVG 1.1//EN"
 "http://www.w3.org/Graphics/SVG/1.1/DTD/svg11.dtd">
<!-- Generated by graphviz version 2.40.1 (20161225.0304)
 -->
<!-- Title: Map::highlightNode Pages: 1 -->
<svg width="619pt" height="66pt"
 viewBox="0.00 0.00 619.00 66.00" xmlns="http://www.w3.org/2000/svg" xmlns:xlink="http://www.w3.org/1999/xlink">
<g id="graph0" class="graph" transform="scale(1 1) rotate(0) translate(4 62)">
<title>Map::highlightNode</title>
<!-- Node201 -->
<g id="node1" class="node">
<title>Node201</title>
<polygon fill="#bfbfbf" stroke="#000000" points="0,-19.5 0,-38.5 111,-38.5 111,-19.5 0,-19.5"/>
<text text-anchor="middle" x="55.5" y="-26.5" font-family="Helvetica,sans-Serif" font-size="10.00" fill="#000000">Map::highlightNode</text>
</g>
<!-- Node202 -->
<g id="node2" class="node">
<title>Node202</title>
<g id="a_node2"><a xlink:href="classEventManager.html#a65ec91fd5016d4f9c4167fb8babed2df" target="_top" xlink:title="EventManager::checkEvents">
<polygon fill="none" stroke="#000000" points="147,-19.5 147,-38.5 301,-38.5 301,-19.5 147,-19.5"/>
<text text-anchor="middle" x="224" y="-26.5" font-family="Helvetica,sans-Serif" font-size="10.00" fill="#000000">EventManager::checkEvents</text>
</a>
</g>
</g>
<!-- Node201&#45;&gt;Node202 -->
<g id="edge1" class="edge">
<title>Node201&#45;&gt;Node202</title>
<path fill="none" stroke="#191970" d="M121.2077,-29C129.5855,-29 138.2206,-29 146.759,-29"/>
<polygon fill="#191970" stroke="#191970" points="121.1402,-25.5001 111.1402,-29 121.1402,-32.5001 121.1402,-25.5001"/>
</g>
<!-- Node203 -->
<g id="node3" class="node">
<title>Node203</title>
<g id="a_node3"><a xlink:href="classGame.html#a1c2ab25d5216b2f4b2fe41efd2c09114" target="_top" xlink:title="begins the game starts running the game ">
<polygon fill="none" stroke="#000000" points="337,-19.5 337,-38.5 405,-38.5 405,-19.5 337,-19.5"/>
<text text-anchor="middle" x="371" y="-26.5" font-family="Helvetica,sans-Serif" font-size="10.00" fill="#000000">Game::run</text>
</a>
</g>
</g>
<!-- Node202&#45;&gt;Node203 -->
<g id="edge2" class="edge">
<title>Node202&#45;&gt;Node203</title>
<path fill="none" stroke="#191970" d="M311.5248,-29C320.4338,-29 329.0572,-29 336.845,-29"/>
<polygon fill="#191970" stroke="#191970" points="311.3744,-25.5001 301.3744,-29 311.3743,-32.5001 311.3744,-25.5001"/>
</g>
<!-- Node204 -->
<g id="node4" class="node">
<title>Node204</title>
<g id="a_node4"><a xlink:href="classGame.html#ad59df6562a58a614fda24622d3715b65" target="_top" xlink:title="Game::Game">
<polygon fill="none" stroke="#000000" points="447,-38.5 447,-57.5 528,-57.5 528,-38.5 447,-38.5"/>
<text text-anchor="middle" x="487.5" y="-45.5" font-family="Helvetica,sans-Serif" font-size="10.00" fill="#000000">Game::Game</text>
</a>
</g>
</g>
<!-- Node203&#45;&gt;Node204 -->
<g id="edge3" class="edge">
<title>Node203&#45;&gt;Node204</title>
<path fill="none" stroke="#191970" d="M415.0985,-36.192C425.4513,-37.8805 436.439,-39.6725 446.6427,-41.3366"/>
<polygon fill="#191970" stroke="#191970" points="415.4428,-32.702 405.0098,-34.5467 414.316,-39.6107 415.4428,-32.702"/>
</g>
<!-- Node205 -->
<g id="node5" class="node">
<title>Node205</title>
<g id="a_node5"><a xlink:href="main_8cxx.html#af582d708d899e67ead623eac34a22387" target="_top" xlink:title="protected_main">
<polygon fill="none" stroke="#000000" points="441,-.5 441,-19.5 534,-19.5 534,-.5 441,-.5"/>
<text text-anchor="middle" x="487.5" y="-7.5" font-family="Helvetica,sans-Serif" font-size="10.00" fill="#000000">protected_main</text>
</a>
</g>
</g>
<!-- Node203&#45;&gt;Node205 -->
<g id="edge4" class="edge">
<title>Node203&#45;&gt;Node205</title>
<path fill="none" stroke="#191970" d="M414.9884,-21.8259C423.382,-20.457 432.1965,-19.0195 440.6749,-17.6367"/>
<polygon fill="#191970" stroke="#191970" points="414.316,-18.3893 405.0098,-23.4533 415.4428,-25.298 414.316,-18.3893"/>
</g>
<!-- Node206 -->
<g id="node6" class="node">
<title>Node206</title>
<g id="a_node6"><a xlink:href="main_8cxx.html#a3c04138a5bfe5d72780bb7e82a18e627" target="_top" xlink:title="main">
<polygon fill="none" stroke="#000000" points="570,-.5 570,-19.5 611,-19.5 611,-.5 570,-.5"/>
<text text-anchor="middle" x="590.5" y="-7.5" font-family="Helvetica,sans-Serif" font-size="10.00" fill="#000000">main</text>
</a>
</g>
</g>
<!-- Node205&#45;&gt;Node206 -->
<g id="edge5" class="edge">
<title>Node205&#45;&gt;Node206</title>
<path fill="none" stroke="#191970" d="M544.2133,-10C553.4322,-10 562.4259,-10 569.9965,-10"/>
<polygon fill="#191970" stroke="#191970" points="544.1782,-6.5001 534.1782,-10 544.1781,-13.5001 544.1782,-6.5001"/>
</g>
</g>
</svg>
