<?xml version="1.0" encoding="UTF-8" standalone="no"?>
<!DOCTYPE svg PUBLIC "-//W3C//DTD SVG 1.1//EN"
 "http://www.w3.org/Graphics/SVG/1.1/DTD/svg11.dtd">
<!-- Generated by graphviz version 2.40.1 (20161225.0304)
 -->
<!-- Title: Map::initMap Pages: 1 -->
<!--zoomable 266 -->
<svg id="main" version="1.1" xmlns="http://www.w3.org/2000/svg" xmlns:xlink="http://www.w3.org/1999/xlink" xml:space="preserve" onload="init(evt)">
<style type="text/css"><![CDATA[
.edge:hover path { stroke: red; }
.edge:hover polygon { stroke: red; fill: red; }
]]></style>
<script type="text/javascript"><![CDATA[
var edges = document.getElementsByTagName('g');
if (edges && edges.length) {
  for (var i=0;i<edges.length;i++) {
    if (edges[i].id.substr(0,4)=='edge') {
      edges[i].setAttribute('class','edge');
    }
  }
}
]]></script>
        <defs>
                <circle id="rim" cx="0" cy="0" r="7"/>
                <circle id="rim2" cx="0" cy="0" r="3.5"/>
                <g id="zoomPlus">
                        <use xlink:href="#rim" fill="#404040">
                                <set attributeName="fill" to="#808080" begin="zoomplus.mouseover" end="zoomplus.mouseout"/>
                        </use>
                        <path d="M-4,0h8M0,-4v8" fill="none" stroke="white" stroke-width="1.5" pointer-events="none"/>
                </g>
                <g id="zoomMin">
                        <use xlink:href="#rim" fill="#404040">
                                <set attributeName="fill" to="#808080" begin="zoomminus.mouseover" end="zoomminus.mouseout"/>
                        </use>
                        <path d="M-4,0h8" fill="none" stroke="white" stroke-width="1.5" pointer-events="none"/>
                </g>
                <g id="dirArrow">
                        <path fill="none" stroke="white" stroke-width="1.5" d="M0,-3.0v7 M-2.5,-0.5L0,-3.0L2.5,-0.5"/>
                </g>
               <g id="resetDef">
                       <use xlink:href="#rim2" fill="#404040">
                               <set attributeName="fill" to="#808080" begin="reset.mouseover" end="reset.mouseout"/>
                       </use>
               </g>
        </defs>

<script type="text/javascript">
var viewWidth = 801;
var viewHeight = 266;
var sectionId = 'dynsection-18';
</script>
<script xlink:href="svgpan.js"/>
<svg id="graph" class="graph">
<g id="viewport">
<title>Map::initMap</title>
<!-- Node238 -->
<g id="node1" class="node">
<title>Node238</title>
<polygon fill="#bfbfbf" stroke="#000000" points="0,-132 0,-151 79,-151 79,-132 0,-132"/>
<text text-anchor="middle" x="39.5" y="-139" font-family="Helvetica,sans-Serif" font-size="10.00" fill="#000000">Map::initMap</text>
</g>
<!-- Node239 -->
<g id="node2" class="node">
<title>Node239</title>
<g id="a_node2"><a xlink:href="classMapLayers.html#a54ce1eeef2a8998a728ac7074efe8787" target="_top" xlink:title="Enable Drawing Layer Enable Drawing Layer (use bitwise OR to add layer) ">
<polygon fill="none" stroke="#000000" points="121.5,-176 121.5,-195 256.5,-195 256.5,-176 121.5,-176"/>
<text text-anchor="middle" x="189" y="-183" font-family="Helvetica,sans-Serif" font-size="10.00" fill="#000000">MapLayers::enableLayer</text>
</a>
</g>
</g>
<!-- Node238&#45;&gt;Node239 -->
<g id="edge1" class="edge">
<title>Node238&#45;&gt;Node239</title>
<path fill="none" stroke="#191970" d="M66.9697,-151.0982C81.2257,-155.9515 98.9694,-161.7939 115,-166.5 123.0497,-168.8631 131.639,-171.2184 140.0098,-173.4254"/>
<polygon fill="#191970" stroke="#191970" points="139.1319,-176.8134 149.6907,-175.9397 140.8916,-170.0382 139.1319,-176.8134"/>
</g>
<!-- Node240 -->
<g id="node3" class="node">
<title>Node240</title>
<g id="a_node3"><a xlink:href="classTerrainGenerator.html#adcc251757a1f3a06471a49f17886b8ce" target="_top" xlink:title="TerrainGenerator::generate\lTerrain">
<polygon fill="none" stroke="#000000" points="115,-126.5 115,-156.5 263,-156.5 263,-126.5 115,-126.5"/>
<text text-anchor="start" x="123" y="-144.5" font-family="Helvetica,sans-Serif" font-size="10.00" fill="#000000">TerrainGenerator::generate</text>
<text text-anchor="middle" x="189" y="-133.5" font-family="Helvetica,sans-Serif" font-size="10.00" fill="#000000">Terrain</text>
</a>
</g>
</g>
<!-- Node238&#45;&gt;Node240 -->
<g id="edge2" class="edge">
<title>Node238&#45;&gt;Node240</title>
<path fill="none" stroke="#191970" d="M79.1708,-141.5C87.1528,-141.5 95.825,-141.5 104.6793,-141.5"/>
<polygon fill="#191970" stroke="#191970" points="104.7265,-145.0001 114.7265,-141.5 104.7264,-138.0001 104.7265,-145.0001"/>
</g>
<!-- Node242 -->
<g id="node5" class="node">
<title>Node242</title>
<g id="a_node5"><a xlink:href="classMap.html#a481b37ba71ef0e51e836fc42805762dd" target="_top" xlink:title="Update all mapNodes Updates all mapNode and its adjacent tiles regarding height information, draws slopes for adjacent tiles and sets tiling for mapNode sprite if applicable. ">
<polygon fill="none" stroke="#000000" points="129,-88 129,-107 249,-107 249,-88 129,-88"/>
<text text-anchor="middle" x="189" y="-95" font-family="Helvetica,sans-Serif" font-size="10.00" fill="#000000">Map::updateAllNodes</text>
</a>
</g>
</g>
<!-- Node238&#45;&gt;Node242 -->
<g id="edge4" class="edge">
<title>Node238&#45;&gt;Node242</title>
<path fill="none" stroke="#191970" d="M68.4492,-131.9704C82.4639,-127.4409 99.561,-122.0379 115,-117.5 123.9077,-114.8818 133.4562,-112.2053 142.6346,-109.6967"/>
<polygon fill="#191970" stroke="#191970" points="143.6641,-113.044 152.4011,-107.0512 141.8338,-106.2875 143.6641,-113.044"/>
</g>
<!-- Node241 -->
<g id="node4" class="node">
<title>Node241</title>
<g id="a_node4"><a xlink:href="classTerrainGenerator.html#ac94cfaeb9dc89453018399361da5174a" target="_top" xlink:title="TerrainGenerator::loadTerrain\lDataFromJSON">
<polygon fill="none" stroke="#000000" points="301.5,-126.5 301.5,-156.5 459.5,-156.5 459.5,-126.5 301.5,-126.5"/>
<text text-anchor="start" x="309.5" y="-144.5" font-family="Helvetica,sans-Serif" font-size="10.00" fill="#000000">TerrainGenerator::loadTerrain</text>
<text text-anchor="middle" x="380.5" y="-133.5" font-family="Helvetica,sans-Serif" font-size="10.00" fill="#000000">DataFromJSON</text>
</a>
</g>
</g>
<!-- Node240&#45;&gt;Node241 -->
<g id="edge3" class="edge">
<title>Node240&#45;&gt;Node241</title>
<path fill="none" stroke="#191970" d="M263.0389,-141.5C272.2368,-141.5 281.7168,-141.5 291.1147,-141.5"/>
<polygon fill="#191970" stroke="#191970" points="291.263,-145.0001 301.263,-141.5 291.2629,-138.0001 291.263,-145.0001"/>
</g>
<!-- Node243 -->
<g id="node6" class="node">
<title>Node243</title>
<g id="a_node6"><a xlink:href="classMap.html#a59d21f2688713fbcfe320eb1b24405ca" target="_top" xlink:title="Update mapNode and its adjacent tiles Updates mapNode height information, draws slopes for adjacent t...">
<polygon fill="none" stroke="#000000" points="299,-88 299,-107 462,-107 462,-88 299,-88"/>
<text text-anchor="middle" x="380.5" y="-95" font-family="Helvetica,sans-Serif" font-size="10.00" fill="#000000">Map::updateNeighborsOfNode</text>
</a>
</g>
</g>
<!-- Node242&#45;&gt;Node243 -->
<g id="edge5" class="edge">
<title>Node242&#45;&gt;Node243</title>
<path fill="none" stroke="#191970" d="M249.0664,-97.5C261.6532,-97.5 275.2,-97.5 288.6442,-97.5"/>
<polygon fill="#191970" stroke="#191970" points="288.8876,-101.0001 298.8876,-97.5 288.8875,-94.0001 288.8876,-101.0001"/>
</g>
<!-- Node244 -->
<g id="node7" class="node">
<title>Node244</title>
<g id="a_node7"><a xlink:href="classMap.html#aab37e4a52faf81e9b696b8cf1bd9a690" target="_top" xlink:title="Get neighbor MapNode Objects Stores pointers to the neighboring nodes of the given coordinates in the...">
<polygon fill="none" stroke="#000000" points="517,-238 517,-257 625,-257 625,-238 517,-238"/>
<text text-anchor="middle" x="571" y="-245" font-family="Helvetica,sans-Serif" font-size="10.00" fill="#000000">Map::getNeighbors</text>
</a>
</g>
</g>
<!-- Node243&#45;&gt;Node244 -->
<g id="edge6" class="edge">
<title>Node243&#45;&gt;Node244</title>
<path fill="none" stroke="#191970" d="M446.3448,-107.1385C452.0651,-109.838 457.4115,-113.2347 462,-117.5 499.9862,-152.8105 460.2616,-192.9248 498,-228.5 500.9183,-231.251 504.1831,-233.6158 507.6698,-235.6473"/>
<polygon fill="#191970" stroke="#191970" points="506.1978,-238.8233 516.7224,-240.0409 509.2542,-232.5258 506.1978,-238.8233"/>
</g>
<!-- Node245 -->
<g id="node8" class="node">
<title>Node245</title>
<g id="a_node8"><a xlink:href="classMap.html#a0ff55eb041cdf29aa582a21145319ce0" target="_top" xlink:title="Get elevated neighbor positions in a bitmask Checks all neighboring tiles and returns the elevated ne...">
<polygon fill="none" stroke="#000000" points="498,-188.5 498,-218.5 644,-218.5 644,-188.5 498,-188.5"/>
<text text-anchor="start" x="506" y="-206.5" font-family="Helvetica,sans-Serif" font-size="10.00" fill="#000000">Map::getElevatedNeighbor</text>
<text text-anchor="middle" x="571" y="-195.5" font-family="Helvetica,sans-Serif" font-size="10.00" fill="#000000">Bitmask</text>
</a>
</g>
</g>
<!-- Node243&#45;&gt;Node245 -->
<g id="edge7" class="edge">
<title>Node243&#45;&gt;Node245</title>
<path fill="none" stroke="#191970" d="M441.9519,-107.1291C449.0806,-109.7914 455.9529,-113.1825 462,-117.5 486.0803,-134.693 475.2688,-154.5593 498,-173.5 502.5857,-177.321 507.7245,-180.7103 513.0955,-183.7042"/>
<polygon fill="#191970" stroke="#191970" points="511.7958,-186.9695 522.2969,-188.3757 514.9647,-180.7279 511.7958,-186.9695"/>
</g>
<!-- Node246 -->
<g id="node9" class="node">
<title>Node246</title>
<g id="a_node9"><a xlink:href="classMap.html#a05e7d896dc5062af07c9b838600a068d" target="_top" xlink:title="Demolish a node Invokes the tiles demolish function. ">
<polygon fill="none" stroke="#000000" points="680,-95 680,-114 793,-114 793,-95 680,-95"/>
<text text-anchor="middle" x="736.5" y="-102" font-family="Helvetica,sans-Serif" font-size="10.00" fill="#000000">Map::demolishNode</text>
</a>
</g>
</g>
<!-- Node243&#45;&gt;Node246 -->
<g id="edge8" class="edge">
<title>Node243&#45;&gt;Node246</title>
<path fill="none" stroke="#191970" d="M455.344,-107.0298C469.4322,-109.6288 484.1032,-112.038 498,-113.5 562.5327,-120.2892 579.4105,-119.726 644,-113.5 652.3103,-112.6989 660.9831,-111.502 669.5437,-110.1701"/>
<polygon fill="#191970" stroke="#191970" points="670.1989,-113.6097 679.513,-108.5602 669.0829,-106.6992 670.1989,-113.6097"/>
</g>
<!-- Node247 -->
<g id="node10" class="node">
<title>Node247</title>
<g id="a_node10"><a xlink:href="classMap.html#a392940f84796653b8e811ed8dc296c84" target="_top" xlink:title="Get a bitmask that represents same&#45;tile neighbors Checks all neighboring tiles and returns the elevat...">
<polygon fill="none" stroke="#000000" points="500.5,-82.5 500.5,-112.5 641.5,-112.5 641.5,-82.5 500.5,-82.5"/>
<text text-anchor="start" x="508.5" y="-100.5" font-family="Helvetica,sans-Serif" font-size="10.00" fill="#000000">Map::getNeighboringTiles</text>
<text text-anchor="middle" x="571" y="-89.5" font-family="Helvetica,sans-Serif" font-size="10.00" fill="#000000">Bitmask</text>
</a>
</g>
</g>
<!-- Node243&#45;&gt;Node247 -->
<g id="edge10" class="edge">
<title>Node243&#45;&gt;Node247</title>
<path fill="none" stroke="#191970" d="M462.1182,-97.5C471.4625,-97.5 480.9856,-97.5 490.3177,-97.5"/>
<polygon fill="#191970" stroke="#191970" points="490.3514,-101.0001 500.3514,-97.5 490.3514,-94.0001 490.3514,-101.0001"/>
</g>
<!-- Node248 -->
<g id="node11" class="node">
<title>Node248</title>
<g id="a_node11"><a xlink:href="classMap.html#aba5154a4d917900679a3c0f7ec701561" target="_top" xlink:title="Increase Height Increases the height of the node and checks the surrounding tiles. Either draw a slope sprite or elevate the tile if necessary. ">
<polygon fill="none" stroke="#000000" points="513,-6 513,-25 629,-25 629,-6 513,-6"/>
<text text-anchor="middle" x="571" y="-13" font-family="Helvetica,sans-Serif" font-size="10.00" fill="#000000">Map::increaseHeight</text>
</a>
</g>
</g>
<!-- Node243&#45;&gt;Node248 -->
<g id="edge11" class="edge">
<title>Node243&#45;&gt;Node248</title>
<path fill="none" stroke="#191970" d="M388.1676,-87.9713C406.4762,-71.9203 454.4658,-42.5555 498,-25.5 499.6347,-24.8596 501.2984,-24.2341 502.9835,-23.6251"/>
<polygon fill="#191970" stroke="#191970" points="504.4489,-26.8253 512.8172,-20.3273 502.2232,-20.1886 504.4489,-26.8253"/>
</g>
<!-- Node250 -->
<g id="node13" class="node">
<title>Node250</title>
<g id="a_node13"><a xlink:href="classMap.html#afb8cc864df90d273a5074872d635dc40" target="_top" xlink:title="Decrease Height Decreases the height of the node and checks the surrounding tiles. Either draw a slope sprite or lower the tile if necessary. ">
<polygon fill="none" stroke="#000000" points="511.5,-44 511.5,-63 630.5,-63 630.5,-44 511.5,-44"/>
<text text-anchor="middle" x="571" y="-51" font-family="Helvetica,sans-Serif" font-size="10.00" fill="#000000">Map::decreaseHeight</text>
</a>
</g>
</g>
<!-- Node243&#45;&gt;Node250 -->
<g id="edge15" class="edge">
<title>Node243&#45;&gt;Node250</title>
<path fill="none" stroke="#191970" d="M402.3528,-87.9587C426.3694,-80.441 466.1824,-70.5657 501.0957,-63.1129"/>
<polygon fill="#191970" stroke="#191970" points="502.2018,-66.4573 511.2718,-60.9813 500.7666,-59.606 502.2018,-66.4573"/>
</g>
<!-- Node246&#45;&gt;Node243 -->
<g id="edge9" class="edge">
<title>Node246&#45;&gt;Node243</title>
<path fill="none" stroke="#191970" d="M723.138,-114.0657C705.2594,-121.3502 672.4984,-128.753 644,-131.5 579.4105,-137.726 562.5327,-138.2892 498,-131.5 464.7553,-128.0025 427.0796,-119.0846 403.5533,-110.6958"/>
<polygon fill="#191970" stroke="#191970" points="404.6875,-107.3817 394.0986,-107.0257 402.1543,-113.9073 404.6875,-107.3817"/>
</g>
<!-- Node248&#45;&gt;Node243 -->
<g id="edge14" class="edge">
<title>Node248&#45;&gt;Node243</title>
<path fill="none" stroke="#191970" d="M556.1329,-25.0899C541.1478,-30.3456 517.5096,-35.8567 498,-43.5 469.3978,-54.7055 438.8725,-71.2245 416.105,-83.2821"/>
<polygon fill="#191970" stroke="#191970" points="414.3826,-80.2334 407.1616,-87.9864 417.6413,-86.4287 414.3826,-80.2334"/>
</g>
<!-- Node248&#45;&gt;Node246 -->
<g id="edge13" class="edge">
<title>Node248&#45;&gt;Node246</title>
<path fill="none" stroke="#191970" d="M618.7051,-25.0206C627.3407,-27.5491 636.1039,-30.6739 644,-34.5 672.6578,-48.3864 701.204,-71.8248 718.8429,-87.7172"/>
<polygon fill="#191970" stroke="#191970" points="716.8506,-90.6404 726.5785,-94.8378 721.5914,-85.4901 716.8506,-90.6404"/>
</g>
<!-- Node249 -->
<g id="node12" class="node">
<title>Node249</title>
<g id="a_node12"><a xlink:href="classSingleton.html#af5cb1e5749949e2b68416cfb8d378044" target="_top" xlink:title="Get an instance of the singleton. ">
<polygon fill="none" stroke="#000000" points="680,-.5 680,-30.5 793,-30.5 793,-.5 680,-.5"/>
<text text-anchor="start" x="688" y="-18.5" font-family="Helvetica,sans-Serif" font-size="10.00" fill="#000000">Singleton&lt; Settings</text>
<text text-anchor="middle" x="736.5" y="-7.5" font-family="Helvetica,sans-Serif" font-size="10.00" fill="#000000"> &gt;::instance</text>
</a>
</g>
</g>
<!-- Node248&#45;&gt;Node249 -->
<g id="edge12" class="edge">
<title>Node248&#45;&gt;Node249</title>
<path fill="none" stroke="#191970" d="M629.3491,-15.5C642.4012,-15.5 656.3429,-15.5 669.7073,-15.5"/>
<polygon fill="#191970" stroke="#191970" points="669.7903,-19.0001 679.7903,-15.5 669.7903,-12.0001 669.7903,-19.0001"/>
</g>
<!-- Node250&#45;&gt;Node243 -->
<g id="edge17" class="edge">
<title>Node250&#45;&gt;Node243</title>
<path fill="none" stroke="#191970" d="M548.8824,-63.1241C527.0259,-69.9485 492.2737,-78.6925 460.0022,-85.8046"/>
<polygon fill="#191970" stroke="#191970" points="459.1146,-82.4157 450.0835,-87.9555 460.5981,-89.2567 459.1146,-82.4157"/>
</g>
<!-- Node250&#45;&gt;Node246 -->
<g id="edge16" class="edge">
<title>Node250&#45;&gt;Node246</title>
<path fill="none" stroke="#191970" d="M607.5043,-63.0707C619.2015,-66.2524 632.1828,-69.9041 644,-73.5 662.4211,-79.1054 682.7235,-85.846 699.6033,-91.6079"/>
<polygon fill="#191970" stroke="#191970" points="698.5117,-94.9336 709.1063,-94.8714 700.7853,-88.3131 698.5117,-94.9336"/>
</g>
</g>
</svg>
        <g id="navigator" transform="translate(0 0)" fill="#404254">
                <rect fill="#f2f5e9" fill-opacity="0.5" stroke="#606060" stroke-width=".5" x="0" y="0" width="60" height="60"/>
                <use id="zoomplus" xlink:href="#zoomPlus" x="17" y="9" onmousedown="handleZoom(evt,'in')"/>
                <use id="zoomminus" xlink:href="#zoomMin" x="42" y="9" onmousedown="handleZoom(evt,'out')"/>
                <use id="reset" xlink:href="#resetDef" x="30" y="36" onmousedown="handleReset()"/>
                <g id="arrowUp" xlink:href="#dirArrow" transform="translate(30 24)" onmousedown="handlePan(0,-1)">
                  <use xlink:href="#rim" fill="#404040">
                        <set attributeName="fill" to="#808080" begin="arrowUp.mouseover" end="arrowUp.mouseout"/>
                  </use>
                  <path fill="none" stroke="white" stroke-width="1.5" d="M0,-3.0v7 M-2.5,-0.5L0,-3.0L2.5,-0.5"/>
                </g>
                <g id="arrowRight" xlink:href="#dirArrow" transform="rotate(90) translate(36 -43)" onmousedown="handlePan(1,0)">
                  <use xlink:href="#rim" fill="#404040">
                        <set attributeName="fill" to="#808080" begin="arrowRight.mouseover" end="arrowRight.mouseout"/>
                  </use>
                  <path fill="none" stroke="white" stroke-width="1.5" d="M0,-3.0v7 M-2.5,-0.5L0,-3.0L2.5,-0.5"/>
                </g>
                <g id="arrowDown" xlink:href="#dirArrow" transform="rotate(180) translate(-30 -48)" onmousedown="handlePan(0,1)">
                  <use xlink:href="#rim" fill="#404040">
                        <set attributeName="fill" to="#808080" begin="arrowDown.mouseover" end="arrowDown.mouseout"/>
                  </use>
                  <path fill="none" stroke="white" stroke-width="1.5" d="M0,-3.0v7 M-2.5,-0.5L0,-3.0L2.5,-0.5"/>
                </g>
                <g id="arrowLeft" xlink:href="#dirArrow" transform="rotate(270) translate(-36 17)" onmousedown="handlePan(-1,0)">
                  <use xlink:href="#rim" fill="#404040">
                        <set attributeName="fill" to="#808080" begin="arrowLeft.mouseover" end="arrowLeft.mouseout"/>
                  </use>
                  <path fill="none" stroke="white" stroke-width="1.5" d="M0,-3.0v7 M-2.5,-0.5L0,-3.0L2.5,-0.5"/>
                </g>
        </g>
        <svg viewBox="0 0 15 15" width="100%" height="30px" preserveAspectRatio="xMaxYMin meet">
         <g id="arrow_out" transform="scale(0.3 0.3)">
          <a xlink:href="classMap_a482ac34426e8aa66abb46f60ec329402_cgraph_org.svg" target="_base">
           <rect id="button" ry="5" rx="5" y="6" x="6" height="38" width="38"
                fill="#f2f5e9" fill-opacity="0.5" stroke="#606060" stroke-width="1.0"/>
           <path id="arrow"
             d="M 11.500037,31.436501 C 11.940474,20.09759 22.043105,11.32322 32.158766,21.979434 L 37.068811,17.246167 C 37.068811,17.246167 37.088388,32 37.088388,32 L 22.160133,31.978069 C 22.160133,31.978069 26.997745,27.140456 26.997745,27.140456 C 18.528582,18.264221 13.291696,25.230495 11.500037,31.436501 z"
             style="fill:#404040;"/>
          </a>
         </g>
        </svg>
</svg>
