<?xml version="1.0" encoding="UTF-8" standalone="no"?>
<!DOCTYPE svg PUBLIC "-//W3C//DTD SVG 1.1//EN"
 "http://www.w3.org/Graphics/SVG/1.1/DTD/svg11.dtd">
<!-- Generated by graphviz version 2.40.1 (20161225.0304)
 -->
<!-- Title: AudioMixer::loadAllSounds Pages: 1 -->
<svg width="494pt" height="140pt"
 viewBox="0.00 0.00 494.00 140.00" xmlns="http://www.w3.org/2000/svg" xmlns:xlink="http://www.w3.org/1999/xlink">
<g id="graph0" class="graph" transform="scale(1 1) rotate(0) translate(4 136)">
<title>AudioMixer::loadAllSounds</title>
<!-- Node25 -->
<g id="node1" class="node">
<title>Node25</title>
<polygon fill="#bfbfbf" stroke="#000000" points="0,-69 0,-88 146,-88 146,-69 0,-69"/>
<text text-anchor="middle" x="73" y="-76" font-family="Helvetica,sans-Serif" font-size="10.00" fill="#000000">AudioMixer::loadAllSounds</text>
</g>
<!-- Node26 -->
<g id="node2" class="node">
<title>Node26</title>
<g id="a_node2"><a xlink:href="classSingleton.html#af5cb1e5749949e2b68416cfb8d378044" target="_top" xlink:title="Get an instance of the singleton. ">
<polygon fill="none" stroke="#000000" points="373,-101.5 373,-131.5 486,-131.5 486,-101.5 373,-101.5"/>
<text text-anchor="start" x="381" y="-119.5" font-family="Helvetica,sans-Serif" font-size="10.00" fill="#000000">Singleton&lt; Settings</text>
<text text-anchor="middle" x="429.5" y="-108.5" font-family="Helvetica,sans-Serif" font-size="10.00" fill="#000000"> &gt;::instance</text>
</a>
</g>
</g>
<!-- Node25&#45;&gt;Node26 -->
<g id="edge1" class="edge">
<title>Node25&#45;&gt;Node26</title>
<path fill="none" stroke="#191970" d="M93.748,-88.0899C115.2771,-97.4724 150.1874,-111.1137 182,-116.5 242.4436,-126.734 312.3874,-125.561 362.469,-122.5169"/>
<polygon fill="#191970" stroke="#191970" points="362.7751,-126.0045 372.5275,-121.8642 362.3218,-119.0191 362.7751,-126.0045"/>
</g>
<!-- Node27 -->
<g id="node3" class="node">
<title>Node27</title>
<g id="a_node3"><a xlink:href="classAudioMixer.html#a796bf8b85793a12857d2b92d3cd41d23" target="_top" xlink:title="Loads all sounds into the AudioMixer. ">
<polygon fill="none" stroke="#000000" points="183,-88 183,-107 336,-107 336,-88 183,-88"/>
<text text-anchor="middle" x="259.5" y="-95" font-family="Helvetica,sans-Serif" font-size="10.00" fill="#000000">AudioMixer::loadSoundtrack</text>
</a>
</g>
</g>
<!-- Node25&#45;&gt;Node27 -->
<g id="edge2" class="edge">
<title>Node25&#45;&gt;Node27</title>
<path fill="none" stroke="#191970" d="M146.1745,-85.9548C154.9236,-86.8461 163.9202,-87.7626 172.8361,-88.671"/>
<polygon fill="#191970" stroke="#191970" points="172.5474,-92.1596 182.8507,-89.6912 173.2569,-85.1956 172.5474,-92.1596"/>
</g>
<!-- Node28 -->
<g id="node4" class="node">
<title>Node28</title>
<g id="a_node4"><a xlink:href="classAudioMixer.html#a1e99011921698de1ae9aa2afc2789166" target="_top" xlink:title="Called whenever a Channel has finished playing. ">
<polygon fill="none" stroke="#000000" points="182,-50 182,-69 337,-69 337,-50 182,-50"/>
<text text-anchor="middle" x="259.5" y="-57" font-family="Helvetica,sans-Serif" font-size="10.00" fill="#000000">AudioMixer::onTrackFinished</text>
</a>
</g>
</g>
<!-- Node25&#45;&gt;Node28 -->
<g id="edge4" class="edge">
<title>Node25&#45;&gt;Node28</title>
<path fill="none" stroke="#191970" d="M146.1745,-71.0452C154.6094,-70.1859 163.2745,-69.3031 171.8755,-68.4269"/>
<polygon fill="#191970" stroke="#191970" points="172.3315,-71.8986 181.9252,-67.4031 171.622,-64.9347 172.3315,-71.8986"/>
</g>
<!-- Node29 -->
<g id="node5" class="node">
<title>Node29</title>
<g id="a_node5"><a xlink:href="classAudioMixer.html#a8e10448151f086ed146a48b5872f64aa" target="_top" xlink:title="AudioMixer::onTrackFinished\lFuncPtr">
<polygon fill="none" stroke="#000000" points="182,-.5 182,-30.5 337,-30.5 337,-.5 182,-.5"/>
<text text-anchor="start" x="190" y="-18.5" font-family="Helvetica,sans-Serif" font-size="10.00" fill="#000000">AudioMixer::onTrackFinished</text>
<text text-anchor="middle" x="259.5" y="-7.5" font-family="Helvetica,sans-Serif" font-size="10.00" fill="#000000">FuncPtr</text>
</a>
</g>
</g>
<!-- Node25&#45;&gt;Node29 -->
<g id="edge5" class="edge">
<title>Node25&#45;&gt;Node29</title>
<path fill="none" stroke="#191970" d="M99.8166,-68.9548C121.8434,-61.1619 153.8807,-49.9355 182,-40.5 188.5738,-38.2941 195.4735,-36.0159 202.3327,-33.7739"/>
<polygon fill="#191970" stroke="#191970" points="203.8842,-36.9498 212.3109,-30.5277 201.7186,-30.2932 203.8842,-36.9498"/>
</g>
<!-- Node27&#45;&gt;Node26 -->
<g id="edge3" class="edge">
<title>Node27&#45;&gt;Node26</title>
<path fill="none" stroke="#191970" d="M336.0456,-106.0551C344.977,-107.0533 354.0342,-108.0656 362.8174,-109.0472"/>
<polygon fill="#191970" stroke="#191970" points="362.6514,-112.5504 372.9783,-110.1829 363.4289,-105.5937 362.6514,-112.5504"/>
</g>
</g>
</svg>
