<?xml version="1.0" encoding="UTF-8" standalone="no"?>
<!DOCTYPE svg PUBLIC "-//W3C//DTD SVG 1.1//EN"
 "http://www.w3.org/Graphics/SVG/1.1/DTD/svg11.dtd">
<!-- Generated by graphviz version 2.40.1 (20161225.0304)
 -->
<!-- Title: Engine::demolishNode Pages: 1 -->
<svg width="813pt" height="203pt"
 viewBox="0.00 0.00 813.00 203.00" xmlns="http://www.w3.org/2000/svg" xmlns:xlink="http://www.w3.org/1999/xlink">
<g id="graph0" class="graph" transform="scale(1 1) rotate(0) translate(4 199)">
<title>Engine::demolishNode</title>
<!-- Node21 -->
<g id="node1" class="node">
<title>Node21</title>
<polygon fill="#bfbfbf" stroke="#000000" points="0,-57.5 0,-76.5 126,-76.5 126,-57.5 0,-57.5"/>
<text text-anchor="middle" x="63" y="-64.5" font-family="Helvetica,sans-Serif" font-size="10.00" fill="#000000">Engine::demolishNode</text>
</g>
<!-- Node22 -->
<g id="node2" class="node">
<title>Node22</title>
<g id="a_node2"><a xlink:href="classMap.html#a05e7d896dc5062af07c9b838600a068d" target="_top" xlink:title="Demolish a node Invokes the tiles demolish function. ">
<polygon fill="none" stroke="#000000" points="162,-57.5 162,-76.5 275,-76.5 275,-57.5 162,-57.5"/>
<text text-anchor="middle" x="218.5" y="-64.5" font-family="Helvetica,sans-Serif" font-size="10.00" fill="#000000">Map::demolishNode</text>
</a>
</g>
</g>
<!-- Node21&#45;&gt;Node22 -->
<g id="edge1" class="edge">
<title>Node21&#45;&gt;Node22</title>
<path fill="none" stroke="#191970" d="M126.2478,-67C134.6168,-67 143.2182,-67 151.6454,-67"/>
<polygon fill="#191970" stroke="#191970" points="151.811,-70.5001 161.811,-67 151.8109,-63.5001 151.811,-70.5001"/>
</g>
<!-- Node23 -->
<g id="node3" class="node">
<title>Node23</title>
<g id="a_node3"><a xlink:href="classMap.html#a59d21f2688713fbcfe320eb1b24405ca" target="_top" xlink:title="Update mapNode and its adjacent tiles Updates mapNode height information, draws slopes for adjacent t...">
<polygon fill="none" stroke="#000000" points="311,-76.5 311,-95.5 474,-95.5 474,-76.5 311,-76.5"/>
<text text-anchor="middle" x="392.5" y="-83.5" font-family="Helvetica,sans-Serif" font-size="10.00" fill="#000000">Map::updateNeighborsOfNode</text>
</a>
</g>
</g>
<!-- Node22&#45;&gt;Node23 -->
<g id="edge2" class="edge">
<title>Node22&#45;&gt;Node23</title>
<path fill="none" stroke="#191970" d="M275.4741,-66.8421C298.4903,-68.7649 324.7023,-71.7419 346.4762,-74.9395"/>
<polygon fill="#191970" stroke="#191970" points="346.0416,-78.4137 356.457,-76.4721 347.104,-71.4948 346.0416,-78.4137"/>
</g>
<!-- Node23&#45;&gt;Node22 -->
<g id="edge5" class="edge">
<title>Node23&#45;&gt;Node22</title>
<path fill="none" stroke="#191970" d="M310.931,-83.8313C295.0073,-82.1613 278.84,-80.162 264.574,-78.0678"/>
<polygon fill="#191970" stroke="#191970" points="264.9682,-74.5874 254.5529,-76.5295 263.9061,-81.5064 264.9682,-74.5874"/>
</g>
<!-- Node24 -->
<g id="node4" class="node">
<title>Node24</title>
<g id="a_node4"><a xlink:href="classMap.html#aab37e4a52faf81e9b696b8cf1bd9a690" target="_top" xlink:title="Get neighbor MapNode Objects Stores pointers to the neighboring nodes of the given coordinates in the...">
<polygon fill="none" stroke="#000000" points="529,-175.5 529,-194.5 637,-194.5 637,-175.5 529,-175.5"/>
<text text-anchor="middle" x="583" y="-182.5" font-family="Helvetica,sans-Serif" font-size="10.00" fill="#000000">Map::getNeighbors</text>
</a>
</g>
</g>
<!-- Node23&#45;&gt;Node24 -->
<g id="edge3" class="edge">
<title>Node23&#45;&gt;Node24</title>
<path fill="none" stroke="#191970" d="M403.7051,-95.6086C423.725,-112.3022 467.5298,-146.7177 510,-166 515.3473,-168.4278 521.0613,-170.588 526.8493,-172.5"/>
<polygon fill="#191970" stroke="#191970" points="526.0219,-175.907 536.6084,-175.4866 528.0704,-169.2134 526.0219,-175.907"/>
</g>
<!-- Node25 -->
<g id="node5" class="node">
<title>Node25</title>
<g id="a_node5"><a xlink:href="classMap.html#a0ff55eb041cdf29aa582a21145319ce0" target="_top" xlink:title="Get elevated neighbor positions in a bitmask Checks all neighboring tiles and returns the elevated ne...">
<polygon fill="none" stroke="#000000" points="510,-126 510,-156 656,-156 656,-126 510,-126"/>
<text text-anchor="start" x="518" y="-144" font-family="Helvetica,sans-Serif" font-size="10.00" fill="#000000">Map::getElevatedNeighbor</text>
<text text-anchor="middle" x="583" y="-133" font-family="Helvetica,sans-Serif" font-size="10.00" fill="#000000">Bitmask</text>
</a>
</g>
</g>
<!-- Node23&#45;&gt;Node25 -->
<g id="edge4" class="edge">
<title>Node23&#45;&gt;Node25</title>
<path fill="none" stroke="#191970" d="M425.6826,-95.5803C451.9596,-103.1668 489.3993,-113.9762 521.1624,-123.1466"/>
<polygon fill="#191970" stroke="#191970" points="520.2406,-126.5234 530.8191,-125.9346 522.1824,-119.7981 520.2406,-126.5234"/>
</g>
<!-- Node26 -->
<g id="node6" class="node">
<title>Node26</title>
<g id="a_node6"><a xlink:href="classMap.html#a392940f84796653b8e811ed8dc296c84" target="_top" xlink:title="Get a bitmask that represents same&#45;tile neighbors Checks all neighboring tiles and returns the elevat...">
<polygon fill="none" stroke="#000000" points="512.5,-77 512.5,-107 653.5,-107 653.5,-77 512.5,-77"/>
<text text-anchor="start" x="520.5" y="-95" font-family="Helvetica,sans-Serif" font-size="10.00" fill="#000000">Map::getNeighboringTiles</text>
<text text-anchor="middle" x="583" y="-84" font-family="Helvetica,sans-Serif" font-size="10.00" fill="#000000">Bitmask</text>
</a>
</g>
</g>
<!-- Node23&#45;&gt;Node26 -->
<g id="edge6" class="edge">
<title>Node23&#45;&gt;Node26</title>
<path fill="none" stroke="#191970" d="M474.1182,-88.5707C483.4625,-88.865 492.9856,-89.1649 502.3177,-89.4588"/>
<polygon fill="#191970" stroke="#191970" points="502.2461,-92.9582 512.3514,-89.7748 502.4666,-85.9617 502.2461,-92.9582"/>
</g>
<!-- Node27 -->
<g id="node7" class="node">
<title>Node27</title>
<g id="a_node7"><a xlink:href="classMap.html#aba5154a4d917900679a3c0f7ec701561" target="_top" xlink:title="Increase Height Increases the height of the node and checks the surrounding tiles. Either draw a slope sprite or elevate the tile if necessary. ">
<polygon fill="none" stroke="#000000" points="525,-38.5 525,-57.5 641,-57.5 641,-38.5 525,-38.5"/>
<text text-anchor="middle" x="583" y="-45.5" font-family="Helvetica,sans-Serif" font-size="10.00" fill="#000000">Map::increaseHeight</text>
</a>
</g>
</g>
<!-- Node23&#45;&gt;Node27 -->
<g id="edge7" class="edge">
<title>Node23&#45;&gt;Node27</title>
<path fill="none" stroke="#191970" d="M417.0146,-76.4076C441.7092,-69.6369 480.9363,-61.2138 515.0567,-55.0558"/>
<polygon fill="#191970" stroke="#191970" points="515.7534,-58.487 524.9929,-53.3022 514.5368,-51.5936 515.7534,-58.487"/>
</g>
<!-- Node29 -->
<g id="node9" class="node">
<title>Node29</title>
<g id="a_node9"><a xlink:href="classMap.html#afb8cc864df90d273a5074872d635dc40" target="_top" xlink:title="Decrease Height Decreases the height of the node and checks the surrounding tiles. Either draw a slope sprite or lower the tile if necessary. ">
<polygon fill="none" stroke="#000000" points="523.5,-.5 523.5,-19.5 642.5,-19.5 642.5,-.5 523.5,-.5"/>
<text text-anchor="middle" x="583" y="-7.5" font-family="Helvetica,sans-Serif" font-size="10.00" fill="#000000">Map::decreaseHeight</text>
</a>
</g>
</g>
<!-- Node23&#45;&gt;Node29 -->
<g id="edge11" class="edge">
<title>Node23&#45;&gt;Node29</title>
<path fill="none" stroke="#191970" d="M401.0851,-76.3292C420.1469,-61.3918 467.6653,-35.6044 510,-20 511.2096,-19.5542 512.4341,-19.1145 513.6705,-18.6818"/>
<polygon fill="#191970" stroke="#191970" points="514.9253,-21.9537 523.3358,-15.5105 512.743,-15.3026 514.9253,-21.9537"/>
</g>
<!-- Node27&#45;&gt;Node22 -->
<g id="edge9" class="edge">
<title>Node27&#45;&gt;Node22</title>
<path fill="none" stroke="#191970" d="M524.8058,-51.0334C459.5468,-54.4351 353.8945,-59.9424 285.3117,-63.5174"/>
<polygon fill="#191970" stroke="#191970" points="284.8574,-60.0362 275.0532,-64.0521 285.2219,-67.0267 284.8574,-60.0362"/>
</g>
<!-- Node27&#45;&gt;Node23 -->
<g id="edge10" class="edge">
<title>Node27&#45;&gt;Node23</title>
<path fill="none" stroke="#191970" d="M558.8126,-57.5025C539.6554,-62.7712 511.6076,-69.0552 483.9828,-74.4968"/>
<polygon fill="#191970" stroke="#191970" points="482.9942,-71.1231 473.8417,-76.46 484.3247,-77.9955 482.9942,-71.1231"/>
</g>
<!-- Node28 -->
<g id="node8" class="node">
<title>Node28</title>
<g id="a_node8"><a xlink:href="classSingleton.html#af5cb1e5749949e2b68416cfb8d378044" target="_top" xlink:title="Get an instance of the singleton. ">
<polygon fill="none" stroke="#000000" points="692,-33 692,-63 805,-63 805,-33 692,-33"/>
<text text-anchor="start" x="700" y="-51" font-family="Helvetica,sans-Serif" font-size="10.00" fill="#000000">Singleton&lt; Settings</text>
<text text-anchor="middle" x="748.5" y="-40" font-family="Helvetica,sans-Serif" font-size="10.00" fill="#000000"> &gt;::instance</text>
</a>
</g>
</g>
<!-- Node27&#45;&gt;Node28 -->
<g id="edge8" class="edge">
<title>Node27&#45;&gt;Node28</title>
<path fill="none" stroke="#191970" d="M641.3491,-48C654.4012,-48 668.3429,-48 681.7073,-48"/>
<polygon fill="#191970" stroke="#191970" points="681.7903,-51.5001 691.7903,-48 681.7903,-44.5001 681.7903,-51.5001"/>
</g>
<!-- Node29&#45;&gt;Node22 -->
<g id="edge12" class="edge">
<title>Node29&#45;&gt;Node22</title>
<path fill="none" stroke="#191970" d="M523.477,-18.1294C468.3071,-25.8122 383.9904,-37.9298 311,-50 300.3931,-51.754 289.1233,-53.7304 278.2332,-55.6987"/>
<polygon fill="#191970" stroke="#191970" points="277.5788,-52.2602 268.3689,-57.4974 278.8345,-59.1466 277.5788,-52.2602"/>
</g>
<!-- Node29&#45;&gt;Node23 -->
<g id="edge13" class="edge">
<title>Node29&#45;&gt;Node23</title>
<path fill="none" stroke="#191970" d="M568.7525,-19.5554C553.8515,-25.0031 529.9061,-30.6627 510,-38 483.3812,-47.8115 454.7131,-61.649 432.3581,-72.182"/>
<polygon fill="#191970" stroke="#191970" points="430.7625,-69.0643 423.1882,-76.4725 433.7291,-75.4046 430.7625,-69.0643"/>
</g>
</g>
</svg>
