<?xml version="1.0" encoding="UTF-8" standalone="no"?>
<!DOCTYPE svg PUBLIC "-//W3C//DTD SVG 1.1//EN"
 "http://www.w3.org/Graphics/SVG/1.1/DTD/svg11.dtd">
<!-- Generated by graphviz version 2.40.1 (20161225.0304)
 -->
<!-- Title: Map::initMap Pages: 1 -->
<!--zoomable 251 -->
<svg id="main" version="1.1" xmlns="http://www.w3.org/2000/svg" xmlns:xlink="http://www.w3.org/1999/xlink" xml:space="preserve" onload="init(evt)">
<style type="text/css"><![CDATA[
.edge:hover path { stroke: red; }
.edge:hover polygon { stroke: red; fill: red; }
]]></style>
<script type="text/javascript"><![CDATA[
var edges = document.getElementsByTagName('g');
if (edges && edges.length) {
  for (var i=0;i<edges.length;i++) {
    if (edges[i].id.substr(0,4)=='edge') {
      edges[i].setAttribute('class','edge');
    }
  }
}
]]></script>
        <defs>
                <circle id="rim" cx="0" cy="0" r="7"/>
                <circle id="rim2" cx="0" cy="0" r="3.5"/>
                <g id="zoomPlus">
                        <use xlink:href="#rim" fill="#404040">
                                <set attributeName="fill" to="#808080" begin="zoomplus.mouseover" end="zoomplus.mouseout"/>
                        </use>
                        <path d="M-4,0h8M0,-4v8" fill="none" stroke="white" stroke-width="1.5" pointer-events="none"/>
                </g>
                <g id="zoomMin">
                        <use xlink:href="#rim" fill="#404040">
                                <set attributeName="fill" to="#808080" begin="zoomminus.mouseover" end="zoomminus.mouseout"/>
                        </use>
                        <path d="M-4,0h8" fill="none" stroke="white" stroke-width="1.5" pointer-events="none"/>
                </g>
                <g id="dirArrow">
                        <path fill="none" stroke="white" stroke-width="1.5" d="M0,-3.0v7 M-2.5,-0.5L0,-3.0L2.5,-0.5"/>
                </g>
               <g id="resetDef">
                       <use xlink:href="#rim2" fill="#404040">
                               <set attributeName="fill" to="#808080" begin="reset.mouseover" end="reset.mouseout"/>
                       </use>
               </g>
        </defs>

<script type="text/javascript">
var viewWidth = 1103;
var viewHeight = 251;
var sectionId = 'dynsection-19';
</script>
<script xlink:href="svgpan.js"/>
<svg id="graph" class="graph">
<g id="viewport">
<title>Map::initMap</title>
<!-- Node251 -->
<g id="node1" class="node">
<title>Node251</title>
<polygon fill="#bfbfbf" stroke="#000000" points="0,-95.5 0,-114.5 79,-114.5 79,-95.5 0,-95.5"/>
<text text-anchor="middle" x="39.5" y="-102.5" font-family="Helvetica,sans-Serif" font-size="10.00" fill="#000000">Map::initMap</text>
</g>
<!-- Node252 -->
<g id="node2" class="node">
<title>Node252</title>
<g id="a_node2"><a xlink:href="classEngine.html#a260d4834150eae6eec2bde34df6dc827" target="_top" xlink:title="Creates a new game Creates a new game. ">
<polygon fill="none" stroke="#000000" points="285,-190.5 285,-209.5 390,-209.5 390,-190.5 285,-190.5"/>
<text text-anchor="middle" x="337.5" y="-197.5" font-family="Helvetica,sans-Serif" font-size="10.00" fill="#000000">Engine::newGame</text>
</a>
</g>
</g>
<!-- Node251&#45;&gt;Node252 -->
<g id="edge1" class="edge">
<title>Node251&#45;&gt;Node252</title>
<path fill="none" stroke="#191970" d="M79.012,-117.5961C139.4411,-136.8604 253.4896,-173.2182 307.5821,-190.4624"/>
<polygon fill="#191970" stroke="#191970" points="80.0285,-114.2467 69.4378,-114.5439 77.9023,-120.916 80.0285,-114.2467"/>
</g>
<!-- Node260 -->
<g id="node10" class="node">
<title>Node260</title>
<g id="a_node10"><a xlink:href="classMap.html#afefe996cc1f62b61ec60d0ae415953bf" target="_top" xlink:title="Map::loadMapFromFile">
<polygon fill="none" stroke="#000000" points="115,-76.5 115,-95.5 240,-95.5 240,-76.5 115,-76.5"/>
<text text-anchor="middle" x="177.5" y="-83.5" font-family="Helvetica,sans-Serif" font-size="10.00" fill="#000000">Map::loadMapFromFile</text>
</a>
</g>
</g>
<!-- Node251&#45;&gt;Node260 -->
<g id="edge12" class="edge">
<title>Node251&#45;&gt;Node260</title>
<path fill="none" stroke="#191970" d="M88.9946,-98.1855C97.3506,-97.0351 106.1224,-95.8274 114.7621,-94.6378"/>
<polygon fill="#191970" stroke="#191970" points="88.4744,-94.724 79.0453,-99.5554 89.4292,-101.6586 88.4744,-94.724"/>
</g>
<!-- Node253 -->
<g id="node3" class="node">
<title>Node253</title>
<g id="a_node3"><a xlink:href="classEngine.html#af7de8d74b0cfacaf06df53e7caf11538" target="_top" xlink:title="Engine::saveGame">
<polygon fill="none" stroke="#000000" points="449,-190.5 449,-209.5 557,-209.5 557,-190.5 449,-190.5"/>
<text text-anchor="middle" x="503" y="-197.5" font-family="Helvetica,sans-Serif" font-size="10.00" fill="#000000">Engine::saveGame</text>
</a>
</g>
</g>
<!-- Node252&#45;&gt;Node253 -->
<g id="edge2" class="edge">
<title>Node252&#45;&gt;Node253</title>
<path fill="none" stroke="#191970" d="M400.6194,-200C416.5588,-200 433.5294,-200 448.9755,-200"/>
<polygon fill="#191970" stroke="#191970" points="400.3203,-196.5001 390.3203,-200 400.3202,-203.5001 400.3203,-196.5001"/>
</g>
<!-- Node254 -->
<g id="node4" class="node">
<title>Node254</title>
<g id="a_node4"><a xlink:href="classUIManager.html#aa78e356fc3b356d790c848319d1c387e" target="_top" xlink:title="UIManager::setCallbackFunctions">
<polygon fill="none" stroke="#000000" points="607,-152.5 607,-171.5 785,-171.5 785,-152.5 607,-152.5"/>
<text text-anchor="middle" x="696" y="-159.5" font-family="Helvetica,sans-Serif" font-size="10.00" fill="#000000">UIManager::setCallbackFunctions</text>
</a>
</g>
</g>
<!-- Node252&#45;&gt;Node254 -->
<g id="edge4" class="edge">
<title>Node252&#45;&gt;Node254</title>
<path fill="none" stroke="#191970" d="M384.3372,-211.794C431.8669,-221.9062 507.3115,-232.8357 571,-219 612.9535,-209.886 657.708,-185.4086 680.5834,-171.6785"/>
<polygon fill="#191970" stroke="#191970" points="384.8602,-208.3253 374.3412,-209.5913 383.3538,-215.1613 384.8602,-208.3253"/>
</g>
<!-- Node255 -->
<g id="node5" class="node">
<title>Node255</title>
<g id="a_node5"><a xlink:href="classGame.html#a5ed7fc5be77080f7f6dd5363f7f007a1" target="_top" xlink:title="initializes and displays the main menu initializes and displays the main menu ">
<polygon fill="none" stroke="#000000" points="644.5,-76.5 644.5,-95.5 747.5,-95.5 747.5,-76.5 644.5,-76.5"/>
<text text-anchor="middle" x="696" y="-83.5" font-family="Helvetica,sans-Serif" font-size="10.00" fill="#000000">Game::mainMenu</text>
</a>
</g>
</g>
<!-- Node252&#45;&gt;Node255 -->
<g id="edge5" class="edge">
<title>Node252&#45;&gt;Node255</title>
<path fill="none" stroke="#191970" d="M377.106,-187.4056C449.4107,-164.4133 601.2829,-116.1193 665.8842,-95.5766"/>
<polygon fill="#191970" stroke="#191970" points="375.918,-184.1106 367.4489,-190.4765 378.0393,-190.7815 375.918,-184.1106"/>
</g>
<!-- Node259 -->
<g id="node9" class="node">
<title>Node259</title>
<g id="a_node9"><a xlink:href="classGame.html#a1c2ab25d5216b2f4b2fe41efd2c09114" target="_top" xlink:title="begins the game starts running the game ">
<polygon fill="none" stroke="#000000" points="821,-76.5 821,-95.5 889,-95.5 889,-76.5 821,-76.5"/>
<text text-anchor="middle" x="855" y="-83.5" font-family="Helvetica,sans-Serif" font-size="10.00" fill="#000000">Game::run</text>
</a>
</g>
</g>
<!-- Node252&#45;&gt;Node259 -->
<g id="edge9" class="edge">
<title>Node252&#45;&gt;Node259</title>
<path fill="none" stroke="#191970" d="M366.3755,-213.7361C385.3911,-222.0031 411.1009,-231.7288 435,-236 494.5017,-246.6341 511.0331,-243.5828 571,-236 668.4263,-223.6805 703.6008,-235.9347 785,-181 818.2836,-158.5376 841.6344,-114.7835 850.7518,-95.5076"/>
<polygon fill="#191970" stroke="#191970" points="367.6444,-210.4696 357.0868,-209.5826 364.787,-216.8599 367.6444,-210.4696"/>
</g>
<!-- Node253&#45;&gt;Node254 -->
<g id="edge3" class="edge">
<title>Node253&#45;&gt;Node254</title>
<path fill="none" stroke="#191970" d="M561.6016,-188.4619C589.1289,-183.042 621.5476,-176.659 647.6482,-171.5201"/>
<polygon fill="#191970" stroke="#191970" points="560.8375,-185.045 551.702,-190.411 562.1898,-191.9132 560.8375,-185.045"/>
</g>
<!-- Node256 -->
<g id="node6" class="node">
<title>Node256</title>
<g id="a_node6"><a xlink:href="classGame.html#ad59df6562a58a614fda24622d3715b65" target="_top" xlink:title="Game::Game">
<polygon fill="none" stroke="#000000" points="931,-95.5 931,-114.5 1012,-114.5 1012,-95.5 931,-95.5"/>
<text text-anchor="middle" x="971.5" y="-102.5" font-family="Helvetica,sans-Serif" font-size="10.00" fill="#000000">Game::Game</text>
</a>
</g>
</g>
<!-- Node255&#45;&gt;Node256 -->
<g id="edge6" class="edge">
<title>Node255&#45;&gt;Node256</title>
<path fill="none" stroke="#191970" d="M756.9441,-97.1464C777.2452,-100.3553 800.0283,-103.4153 821,-105 858.1272,-107.8056 900.5536,-107.4877 930.8759,-106.6544"/>
<polygon fill="#191970" stroke="#191970" points="757.3195,-93.6616 746.8878,-95.5136 756.1975,-100.5711 757.3195,-93.6616"/>
</g>
<!-- Node257 -->
<g id="node7" class="node">
<title>Node257</title>
<g id="a_node7"><a xlink:href="main_8cxx.html#af582d708d899e67ead623eac34a22387" target="_top" xlink:title="protected_main">
<polygon fill="none" stroke="#000000" points="925,-57.5 925,-76.5 1018,-76.5 1018,-57.5 925,-57.5"/>
<text text-anchor="middle" x="971.5" y="-64.5" font-family="Helvetica,sans-Serif" font-size="10.00" fill="#000000">protected_main</text>
</a>
</g>
</g>
<!-- Node255&#45;&gt;Node257 -->
<g id="edge7" class="edge">
<title>Node255&#45;&gt;Node257</title>
<path fill="none" stroke="#191970" d="M756.9441,-74.8536C777.2452,-71.6447 800.0283,-68.5847 821,-67 855.7823,-64.3716 895.2157,-64.4846 924.9902,-65.1945"/>
<polygon fill="#191970" stroke="#191970" points="756.1975,-71.4289 746.8878,-76.4864 757.3195,-78.3384 756.1975,-71.4289"/>
</g>
<!-- Node258 -->
<g id="node8" class="node">
<title>Node258</title>
<g id="a_node8"><a xlink:href="main_8cxx.html#a3c04138a5bfe5d72780bb7e82a18e627" target="_top" xlink:title="main">
<polygon fill="none" stroke="#000000" points="1054,-57.5 1054,-76.5 1095,-76.5 1095,-57.5 1054,-57.5"/>
<text text-anchor="middle" x="1074.5" y="-64.5" font-family="Helvetica,sans-Serif" font-size="10.00" fill="#000000">main</text>
</a>
</g>
</g>
<!-- Node257&#45;&gt;Node258 -->
<g id="edge8" class="edge">
<title>Node257&#45;&gt;Node258</title>
<path fill="none" stroke="#191970" d="M1028.2133,-67C1037.4322,-67 1046.4259,-67 1053.9965,-67"/>
<polygon fill="#191970" stroke="#191970" points="1028.1782,-63.5001 1018.1782,-67 1028.1781,-70.5001 1028.1782,-63.5001"/>
</g>
<!-- Node259&#45;&gt;Node256 -->
<g id="edge10" class="edge">
<title>Node259&#45;&gt;Node256</title>
<path fill="none" stroke="#191970" d="M899.0985,-93.192C909.4513,-94.8805 920.439,-96.6725 930.6427,-98.3366"/>
<polygon fill="#191970" stroke="#191970" points="899.4428,-89.702 889.0098,-91.5467 898.316,-96.6107 899.4428,-89.702"/>
</g>
<!-- Node259&#45;&gt;Node257 -->
<g id="edge11" class="edge">
<title>Node259&#45;&gt;Node257</title>
<path fill="none" stroke="#191970" d="M898.9884,-78.8259C907.382,-77.457 916.1965,-76.0195 924.6749,-74.6367"/>
<polygon fill="#191970" stroke="#191970" points="898.316,-75.3893 889.0098,-80.4533 899.4428,-82.298 898.316,-75.3893"/>
</g>
<!-- Node261 -->
<g id="node11" class="node">
<title>Node261</title>
<g id="a_node11"><a xlink:href="classEngine.html#a83b7dbeee899b36a13d5b07c7ad87ebc" target="_top" xlink:title="Loads a saved game Loads a saved Game. ">
<polygon fill="none" stroke="#000000" points="284.5,-76.5 284.5,-95.5 390.5,-95.5 390.5,-76.5 284.5,-76.5"/>
<text text-anchor="middle" x="337.5" y="-83.5" font-family="Helvetica,sans-Serif" font-size="10.00" fill="#000000">Engine::loadGame</text>
</a>
</g>
</g>
<!-- Node260&#45;&gt;Node261 -->
<g id="edge13" class="edge">
<title>Node260&#45;&gt;Node261</title>
<path fill="none" stroke="#191970" d="M250.3143,-86C261.8222,-86 273.53,-86 284.4749,-86"/>
<polygon fill="#191970" stroke="#191970" points="250.2771,-82.5001 240.277,-86 250.277,-89.5001 250.2771,-82.5001"/>
</g>
<!-- Node264 -->
<g id="node14" class="node">
<title>Node264</title>
<g id="a_node14"><a xlink:href="classMap.html#a779c939483a52b32a3959b99af95e67a" target="_top" xlink:title="Set the Tile ID Of Node object Also invokes all necessary texture updates (auto&#45;tiling, slopes, ...) ">
<polygon fill="none" stroke="#000000" points="276,-19.5 276,-38.5 399,-38.5 399,-19.5 276,-19.5"/>
<text text-anchor="middle" x="337.5" y="-26.5" font-family="Helvetica,sans-Serif" font-size="10.00" fill="#000000">Map::setTileIDOfNode</text>
</a>
</g>
</g>
<!-- Node260&#45;&gt;Node264 -->
<g id="edge21" class="edge">
<title>Node260&#45;&gt;Node264</title>
<path fill="none" stroke="#191970" d="M213.7904,-73.0715C243.2302,-62.5836 284.0655,-48.0361 310.6322,-38.5716"/>
<polygon fill="#191970" stroke="#191970" points="212.5259,-69.8065 204.2804,-76.4595 214.8751,-76.4005 212.5259,-69.8065"/>
</g>
<!-- Node261&#45;&gt;Node254 -->
<g id="edge19" class="edge">
<title>Node261&#45;&gt;Node254</title>
<path fill="none" stroke="#191970" d="M392.6291,-97.6871C463.5968,-112.7318 585.5559,-138.5865 651.143,-152.4906"/>
<polygon fill="#191970" stroke="#191970" points="393.0497,-94.1985 382.5413,-95.5485 391.598,-101.0463 393.0497,-94.1985"/>
</g>
<!-- Node261&#45;&gt;Node255 -->
<g id="edge20" class="edge">
<title>Node261&#45;&gt;Node255</title>
<path fill="none" stroke="#191970" d="M401.1405,-86C470.5338,-86 580.2452,-86 644.461,-86"/>
<polygon fill="#191970" stroke="#191970" points="400.784,-82.5001 390.784,-86 400.7839,-89.5001 400.784,-82.5001"/>
</g>
<!-- Node262 -->
<g id="node12" class="node">
<title>Node262</title>
<g id="a_node12"><a xlink:href="classEngine.html#a0ba57971ffb5173ecc425461f65a4cd8" target="_top" xlink:title="Quits the game Sets m_running to false and quitting the game. ">
<polygon fill="none" stroke="#000000" points="451,-38.5 451,-57.5 555,-57.5 555,-38.5 451,-38.5"/>
<text text-anchor="middle" x="503" y="-45.5" font-family="Helvetica,sans-Serif" font-size="10.00" fill="#000000">Engine::quitGame</text>
</a>
</g>
</g>
<!-- Node261&#45;&gt;Node262 -->
<g id="edge14" class="edge">
<title>Node261&#45;&gt;Node262</title>
<path fill="none" stroke="#191970" d="M389.3105,-74.1039C412.5733,-68.7626 439.6469,-62.5463 461.5377,-57.5201"/>
<polygon fill="#191970" stroke="#191970" points="388.2258,-70.7618 379.2626,-76.411 389.7923,-77.5843 388.2258,-70.7618"/>
</g>
<!-- Node262&#45;&gt;Node254 -->
<g id="edge17" class="edge">
<title>Node262&#45;&gt;Node254</title>
<path fill="none" stroke="#191970" d="M527.7686,-62.6301C567.8907,-86.3292 646.0043,-132.4689 679.787,-152.4234"/>
<polygon fill="#191970" stroke="#191970" points="529.5133,-59.5958 519.1231,-57.5235 525.9532,-65.6229 529.5133,-59.5958"/>
</g>
<!-- Node262&#45;&gt;Node255 -->
<g id="edge18" class="edge">
<title>Node262&#45;&gt;Node255</title>
<path fill="none" stroke="#191970" d="M561.6016,-59.5381C589.1289,-64.958 621.5476,-71.341 647.6482,-76.4799"/>
<polygon fill="#191970" stroke="#191970" points="562.1898,-56.0868 551.702,-57.589 560.8375,-62.955 562.1898,-56.0868"/>
</g>
<!-- Node263 -->
<g id="node13" class="node">
<title>Node263</title>
<g id="a_node13"><a xlink:href="classEventManager.html#a65ec91fd5016d4f9c4167fb8babed2df" target="_top" xlink:title="EventManager::checkEvents">
<polygon fill="none" stroke="#000000" points="619,-38.5 619,-57.5 773,-57.5 773,-38.5 619,-38.5"/>
<text text-anchor="middle" x="696" y="-45.5" font-family="Helvetica,sans-Serif" font-size="10.00" fill="#000000">EventManager::checkEvents</text>
</a>
</g>
</g>
<!-- Node262&#45;&gt;Node263 -->
<g id="edge15" class="edge">
<title>Node262&#45;&gt;Node263</title>
<path fill="none" stroke="#191970" d="M565.5536,-48C582.5044,-48 601.0568,-48 618.7146,-48"/>
<polygon fill="#191970" stroke="#191970" points="565.2286,-44.5001 555.2286,-48 565.2285,-51.5001 565.2286,-44.5001"/>
</g>
<!-- Node263&#45;&gt;Node259 -->
<g id="edge16" class="edge">
<title>Node263&#45;&gt;Node259</title>
<path fill="none" stroke="#191970" d="M753.2283,-59.7338C763.8154,-62.0415 774.7599,-64.5192 785,-67 796.8713,-69.876 809.7963,-73.3003 821.2721,-76.4446"/>
<polygon fill="#191970" stroke="#191970" points="753.7348,-56.2627 743.222,-57.5786 752.2609,-63.1058 753.7348,-56.2627"/>
</g>
<!-- Node265 -->
<g id="node15" class="node">
<title>Node265</title>
<g id="a_node15"><a xlink:href="classEngine.html#a8a53c5e52734a5158b317851361b83f2" target="_top" xlink:title="Engine::setTileIDOfNode">
<polygon fill="none" stroke="#000000" points="435,-.5 435,-19.5 571,-19.5 571,-.5 435,-.5"/>
<text text-anchor="middle" x="503" y="-7.5" font-family="Helvetica,sans-Serif" font-size="10.00" fill="#000000">Engine::setTileIDOfNode</text>
</a>
</g>
</g>
<!-- Node264&#45;&gt;Node265 -->
<g id="edge22" class="edge">
<title>Node264&#45;&gt;Node265</title>
<path fill="none" stroke="#191970" d="M409.094,-20.7808C417.6681,-19.7964 426.405,-18.7934 434.9273,-17.815"/>
<polygon fill="#191970" stroke="#191970" points="408.6616,-17.3073 399.1261,-21.9251 409.4601,-24.2616 408.6616,-17.3073"/>
</g>
<!-- Node265&#45;&gt;Node263 -->
<g id="edge23" class="edge">
<title>Node265&#45;&gt;Node263</title>
<path fill="none" stroke="#191970" d="M561.6016,-21.5381C589.1289,-26.958 621.5476,-33.341 647.6482,-38.4799"/>
<polygon fill="#191970" stroke="#191970" points="562.1898,-18.0868 551.702,-19.589 560.8375,-24.955 562.1898,-18.0868"/>
</g>
</g>
</svg>
        <g id="navigator" transform="translate(0 0)" fill="#404254">
                <rect fill="#f2f5e9" fill-opacity="0.5" stroke="#606060" stroke-width=".5" x="0" y="0" width="60" height="60"/>
                <use id="zoomplus" xlink:href="#zoomPlus" x="17" y="9" onmousedown="handleZoom(evt,'in')"/>
                <use id="zoomminus" xlink:href="#zoomMin" x="42" y="9" onmousedown="handleZoom(evt,'out')"/>
                <use id="reset" xlink:href="#resetDef" x="30" y="36" onmousedown="handleReset()"/>
                <g id="arrowUp" xlink:href="#dirArrow" transform="translate(30 24)" onmousedown="handlePan(0,-1)">
                  <use xlink:href="#rim" fill="#404040">
                        <set attributeName="fill" to="#808080" begin="arrowUp.mouseover" end="arrowUp.mouseout"/>
                  </use>
                  <path fill="none" stroke="white" stroke-width="1.5" d="M0,-3.0v7 M-2.5,-0.5L0,-3.0L2.5,-0.5"/>
                </g>
                <g id="arrowRight" xlink:href="#dirArrow" transform="rotate(90) translate(36 -43)" onmousedown="handlePan(1,0)">
                  <use xlink:href="#rim" fill="#404040">
                        <set attributeName="fill" to="#808080" begin="arrowRight.mouseover" end="arrowRight.mouseout"/>
                  </use>
                  <path fill="none" stroke="white" stroke-width="1.5" d="M0,-3.0v7 M-2.5,-0.5L0,-3.0L2.5,-0.5"/>
                </g>
                <g id="arrowDown" xlink:href="#dirArrow" transform="rotate(180) translate(-30 -48)" onmousedown="handlePan(0,1)">
                  <use xlink:href="#rim" fill="#404040">
                        <set attributeName="fill" to="#808080" begin="arrowDown.mouseover" end="arrowDown.mouseout"/>
                  </use>
                  <path fill="none" stroke="white" stroke-width="1.5" d="M0,-3.0v7 M-2.5,-0.5L0,-3.0L2.5,-0.5"/>
                </g>
                <g id="arrowLeft" xlink:href="#dirArrow" transform="rotate(270) translate(-36 17)" onmousedown="handlePan(-1,0)">
                  <use xlink:href="#rim" fill="#404040">
                        <set attributeName="fill" to="#808080" begin="arrowLeft.mouseover" end="arrowLeft.mouseout"/>
                  </use>
                  <path fill="none" stroke="white" stroke-width="1.5" d="M0,-3.0v7 M-2.5,-0.5L0,-3.0L2.5,-0.5"/>
                </g>
        </g>
        <svg viewBox="0 0 15 15" width="100%" height="30px" preserveAspectRatio="xMaxYMin meet">
         <g id="arrow_out" transform="scale(0.3 0.3)">
          <a xlink:href="classMap_a482ac34426e8aa66abb46f60ec329402_icgraph_org.svg" target="_base">
           <rect id="button" ry="5" rx="5" y="6" x="6" height="38" width="38"
                fill="#f2f5e9" fill-opacity="0.5" stroke="#606060" stroke-width="1.0"/>
           <path id="arrow"
             d="M 11.500037,31.436501 C 11.940474,20.09759 22.043105,11.32322 32.158766,21.979434 L 37.068811,17.246167 C 37.068811,17.246167 37.088388,32 37.088388,32 L 22.160133,31.978069 C 22.160133,31.978069 26.997745,27.140456 26.997745,27.140456 C 18.528582,18.264221 13.291696,25.230495 11.500037,31.436501 z"
             style="fill:#404040;"/>
          </a>
         </g>
        </svg>
</svg>
