<?xml version="1.0" encoding="UTF-8" standalone="no"?>
<!DOCTYPE svg PUBLIC "-//W3C//DTD SVG 1.1//EN"
 "http://www.w3.org/Graphics/SVG/1.1/DTD/svg11.dtd">
<!-- Generated by graphviz version 2.40.1 (20161225.0304)
 -->
<!-- Title: Text::setText Pages: 1 -->
<svg width="432pt" height="161pt"
 viewBox="0.00 0.00 432.00 161.00" xmlns="http://www.w3.org/2000/svg" xmlns:xlink="http://www.w3.org/1999/xlink">
<g id="graph0" class="graph" transform="scale(1 1) rotate(0) translate(4 157)">
<title>Text::setText</title>
<!-- Node43 -->
<g id="node1" class="node">
<title>Node43</title>
<polygon fill="#bfbfbf" stroke="#000000" points="0,-76.5 0,-95.5 78,-95.5 78,-76.5 0,-76.5"/>
<text text-anchor="middle" x="39" y="-83.5" font-family="Helvetica,sans-Serif" font-size="10.00" fill="#000000">Text::setText</text>
</g>
<!-- Node44 -->
<g id="node2" class="node">
<title>Node44</title>
<g id="a_node2"><a xlink:href="classText.html#a398a47abd355749d9e99bf74aa6a4a8d" target="_top" xlink:title="Sets the Font size of this element. ">
<polygon fill="none" stroke="#000000" points="116.5,-133.5 116.5,-152.5 215.5,-152.5 215.5,-133.5 116.5,-133.5"/>
<text text-anchor="middle" x="166" y="-140.5" font-family="Helvetica,sans-Serif" font-size="10.00" fill="#000000">Text::setFontSize</text>
</a>
</g>
</g>
<!-- Node43&#45;&gt;Node44 -->
<g id="edge1" class="edge">
<title>Node43&#45;&gt;Node44</title>
<path fill="none" stroke="#191970" d="M69.6524,-99.7574C92.8567,-110.1719 124.1364,-124.2108 144.6737,-133.4284"/>
<polygon fill="#191970" stroke="#191970" points="70.8134,-96.4421 60.2569,-95.5405 67.947,-102.8284 70.8134,-96.4421"/>
</g>
<!-- Node45 -->
<g id="node3" class="node">
<title>Node45</title>
<g id="a_node3"><a xlink:href="classText.html#ab3e26143fccc52699bcc5149cae852bc" target="_top" xlink:title="default Constructor ">
<polygon fill="none" stroke="#000000" points="269,-114.5 269,-133.5 332,-133.5 332,-114.5 269,-114.5"/>
<text text-anchor="middle" x="300.5" y="-121.5" font-family="Helvetica,sans-Serif" font-size="10.00" fill="#000000">Text::Text</text>
</a>
</g>
</g>
<!-- Node43&#45;&gt;Node45 -->
<g id="edge3" class="edge">
<title>Node43&#45;&gt;Node45</title>
<path fill="none" stroke="#191970" d="M88.3355,-93.1692C141.3439,-100.8721 224.006,-112.8842 268.899,-119.4079"/>
<polygon fill="#191970" stroke="#191970" points="88.5486,-89.6635 78.1492,-91.689 87.5419,-96.5907 88.5486,-89.6635"/>
</g>
<!-- Node46 -->
<g id="node4" class="node">
<title>Node46</title>
<g id="a_node4"><a xlink:href="classTextField.html#abe03b4b6ebf469645940cfa018bcdca2" target="_top" xlink:title="TextField::addText">
<polygon fill="none" stroke="#000000" points="114,-57.5 114,-76.5 218,-76.5 218,-57.5 114,-57.5"/>
<text text-anchor="middle" x="166" y="-64.5" font-family="Helvetica,sans-Serif" font-size="10.00" fill="#000000">TextField::addText</text>
</a>
</g>
</g>
<!-- Node43&#45;&gt;Node46 -->
<g id="edge4" class="edge">
<title>Node43&#45;&gt;Node46</title>
<path fill="none" stroke="#191970" d="M88.1317,-78.6496C96.5,-77.3976 105.2195,-76.0931 113.6669,-74.8294"/>
<polygon fill="#191970" stroke="#191970" points="87.5125,-75.2032 78.1405,-80.1443 88.5483,-82.1261 87.5125,-75.2032"/>
</g>
<!-- Node47 -->
<g id="node5" class="node">
<title>Node47</title>
<g id="a_node5"><a xlink:href="classGame.html#a5ed7fc5be77080f7f6dd5363f7f007a1" target="_top" xlink:title="initializes and displays the main menu initializes and displays the main menu ">
<polygon fill="none" stroke="#000000" points="114.5,-19.5 114.5,-38.5 217.5,-38.5 217.5,-19.5 114.5,-19.5"/>
<text text-anchor="middle" x="166" y="-26.5" font-family="Helvetica,sans-Serif" font-size="10.00" fill="#000000">Game::mainMenu</text>
</a>
</g>
</g>
<!-- Node43&#45;&gt;Node47 -->
<g id="edge5" class="edge">
<title>Node43&#45;&gt;Node47</title>
<path fill="none" stroke="#191970" d="M65.4693,-71.6205C79.6656,-64.1564 97.5733,-55.1326 114,-48 121.6702,-44.6696 130.1327,-41.4084 137.9632,-38.5541"/>
<polygon fill="#191970" stroke="#191970" points="63.4846,-68.7117 56.2979,-76.4964 66.7706,-74.8925 63.4846,-68.7117"/>
</g>
<!-- Node44&#45;&gt;Node45 -->
<g id="edge2" class="edge">
<title>Node44&#45;&gt;Node45</title>
<path fill="none" stroke="#191970" d="M225.8689,-134.5427C240.7207,-132.4447 256.0586,-130.278 268.9378,-128.4586"/>
<polygon fill="#191970" stroke="#191970" points="225.1128,-131.1147 215.7007,-135.9791 226.092,-138.0458 225.1128,-131.1147"/>
</g>
<!-- Node48 -->
<g id="node6" class="node">
<title>Node48</title>
<g id="a_node6"><a xlink:href="classGame.html#ad59df6562a58a614fda24622d3715b65" target="_top" xlink:title="Game::Game">
<polygon fill="none" stroke="#000000" points="260,-38.5 260,-57.5 341,-57.5 341,-38.5 260,-38.5"/>
<text text-anchor="middle" x="300.5" y="-45.5" font-family="Helvetica,sans-Serif" font-size="10.00" fill="#000000">Game::Game</text>
</a>
</g>
</g>
<!-- Node47&#45;&gt;Node48 -->
<g id="edge6" class="edge">
<title>Node47&#45;&gt;Node48</title>
<path fill="none" stroke="#191970" d="M227.5321,-37.6923C238.4269,-39.2313 249.5232,-40.7988 259.6663,-42.2317"/>
<polygon fill="#191970" stroke="#191970" points="228.0078,-34.2248 217.6166,-36.2916 227.0286,-41.156 228.0078,-34.2248"/>
</g>
<!-- Node49 -->
<g id="node7" class="node">
<title>Node49</title>
<g id="a_node7"><a xlink:href="main_8cxx.html#af582d708d899e67ead623eac34a22387" target="_top" xlink:title="protected_main">
<polygon fill="none" stroke="#000000" points="254,-.5 254,-19.5 347,-19.5 347,-.5 254,-.5"/>
<text text-anchor="middle" x="300.5" y="-7.5" font-family="Helvetica,sans-Serif" font-size="10.00" fill="#000000">protected_main</text>
</a>
</g>
</g>
<!-- Node47&#45;&gt;Node49 -->
<g id="edge7" class="edge">
<title>Node47&#45;&gt;Node49</title>
<path fill="none" stroke="#191970" d="M227.745,-20.2777C236.4515,-19.0477 245.2819,-17.8003 253.6472,-16.6186"/>
<polygon fill="#191970" stroke="#191970" points="227.0287,-16.844 217.6166,-21.7084 228.0078,-23.7752 227.0287,-16.844"/>
</g>
<!-- Node50 -->
<g id="node8" class="node">
<title>Node50</title>
<g id="a_node8"><a xlink:href="main_8cxx.html#a3c04138a5bfe5d72780bb7e82a18e627" target="_top" xlink:title="main">
<polygon fill="none" stroke="#000000" points="383,-.5 383,-19.5 424,-19.5 424,-.5 383,-.5"/>
<text text-anchor="middle" x="403.5" y="-7.5" font-family="Helvetica,sans-Serif" font-size="10.00" fill="#000000">main</text>
</a>
</g>
</g>
<!-- Node49&#45;&gt;Node50 -->
<g id="edge8" class="edge">
<title>Node49&#45;&gt;Node50</title>
<path fill="none" stroke="#191970" d="M357.2133,-10C366.4322,-10 375.4259,-10 382.9965,-10"/>
<polygon fill="#191970" stroke="#191970" points="357.1782,-6.5001 347.1782,-10 357.1781,-13.5001 357.1782,-6.5001"/>
</g>
</g>
</svg>
