<?xml version="1.0" encoding="UTF-8" standalone="no"?>
<!DOCTYPE svg PUBLIC "-//W3C//DTD SVG 1.1//EN"
 "http://www.w3.org/Graphics/SVG/1.1/DTD/svg11.dtd">
<!-- Generated by graphviz version 2.40.1 (20161225.0304)
 -->
<!-- Title: Map::getElevatedNeighborBitmask Pages: 1 -->
<svg width="1690pt" height="369pt"
 viewBox="0.00 0.00 1690.00 368.73" xmlns="http://www.w3.org/2000/svg" xmlns:xlink="http://www.w3.org/1999/xlink">
<g id="graph0" class="graph" transform="scale(1 1) rotate(0) translate(4 364.7254)">
<title>Map::getElevatedNeighborBitmask</title>
<!-- Node116 -->
<g id="node1" class="node">
<title>Node116</title>
<polygon fill="#bfbfbf" stroke="#000000" points="0,-244.7254 0,-274.7254 146,-274.7254 146,-244.7254 0,-244.7254"/>
<text text-anchor="start" x="8" y="-262.7254" font-family="Helvetica,sans-Serif" font-size="10.00" fill="#000000">Map::getElevatedNeighbor</text>
<text text-anchor="middle" x="73" y="-251.7254" font-family="Helvetica,sans-Serif" font-size="10.00" fill="#000000">Bitmask</text>
</g>
<!-- Node117 -->
<g id="node2" class="node">
<title>Node117</title>
<g id="a_node2"><a xlink:href="classMap.html#a59d21f2688713fbcfe320eb1b24405ca" target="_top" xlink:title="Update mapNode and its adjacent tiles Updates mapNode height information, draws slopes for adjacent t...">
<polygon fill="none" stroke="#000000" points="182,-250.2254 182,-269.2254 345,-269.2254 345,-250.2254 182,-250.2254"/>
<text text-anchor="middle" x="263.5" y="-257.2254" font-family="Helvetica,sans-Serif" font-size="10.00" fill="#000000">Map::updateNeighborsOfNode</text>
</a>
</g>
</g>
<!-- Node116&#45;&gt;Node117 -->
<g id="edge1" class="edge">
<title>Node116&#45;&gt;Node117</title>
<path fill="none" stroke="#191970" d="M156.3065,-259.7254C164.7342,-259.7254 173.2887,-259.7254 181.7004,-259.7254"/>
<polygon fill="#191970" stroke="#191970" points="156.1075,-256.2255 146.1075,-259.7254 156.1074,-263.2255 156.1075,-256.2255"/>
</g>
<!-- Node118 -->
<g id="node3" class="node">
<title>Node118</title>
<g id="a_node3"><a xlink:href="classMap.html#aba5154a4d917900679a3c0f7ec701561" target="_top" xlink:title="Increase Height Increases the height of the node and checks the surrounding tiles. Either draw a slope sprite or elevate the tile if necessary. ">
<polygon fill="none" stroke="#000000" points="538.5,-189.2254 538.5,-208.2254 654.5,-208.2254 654.5,-189.2254 538.5,-189.2254"/>
<text text-anchor="middle" x="596.5" y="-196.2254" font-family="Helvetica,sans-Serif" font-size="10.00" fill="#000000">Map::increaseHeight</text>
</a>
</g>
</g>
<!-- Node117&#45;&gt;Node118 -->
<g id="edge2" class="edge">
<title>Node117&#45;&gt;Node118</title>
<path fill="none" stroke="#191970" d="M285.402,-245.8653C308.8281,-236.1114 347.1833,-224.6333 381,-217.7254 433.6742,-206.9654 494.4796,-199.5086 538.0429,-196.5638"/>
<polygon fill="#191970" stroke="#191970" points="283.7377,-242.7758 276.046,-250.0619 286.6026,-249.1627 283.7377,-242.7758"/>
</g>
<!-- Node125 -->
<g id="node10" class="node">
<title>Node125</title>
<g id="a_node10"><a xlink:href="classMap.html#afb8cc864df90d273a5074872d635dc40" target="_top" xlink:title="Decrease Height Decreases the height of the node and checks the surrounding tiles. Either draw a slope sprite or lower the tile if necessary. ">
<polygon fill="none" stroke="#000000" points="537,-341.2254 537,-360.2254 656,-360.2254 656,-341.2254 537,-341.2254"/>
<text text-anchor="middle" x="596.5" y="-348.2254" font-family="Helvetica,sans-Serif" font-size="10.00" fill="#000000">Map::decreaseHeight</text>
</a>
</g>
</g>
<!-- Node117&#45;&gt;Node125 -->
<g id="edge10" class="edge">
<title>Node117&#45;&gt;Node125</title>
<path fill="none" stroke="#191970" d="M325.855,-272.1662C343.5953,-277.5571 362.9908,-283.6058 381,-288.7254 452.3399,-309.0057 538.2422,-328.7543 576.4684,-341.1303"/>
<polygon fill="#191970" stroke="#191970" points="326.7737,-268.7876 316.1889,-269.249 324.7511,-275.4891 326.7737,-268.7876"/>
</g>
<!-- Node127 -->
<g id="node12" class="node">
<title>Node127</title>
<g id="a_node12"><a xlink:href="classMap.html#a481b37ba71ef0e51e836fc42805762dd" target="_top" xlink:title="Update all mapNodes Updates all mapNode and its adjacent tiles regarding height information, draws slopes for adjacent tiles and sets tiling for mapNode sprite if applicable. ">
<polygon fill="none" stroke="#000000" points="381,-137.2254 381,-156.2254 501,-156.2254 501,-137.2254 381,-137.2254"/>
<text text-anchor="middle" x="441" y="-144.2254" font-family="Helvetica,sans-Serif" font-size="10.00" fill="#000000">Map::updateAllNodes</text>
</a>
</g>
</g>
<!-- Node117&#45;&gt;Node127 -->
<g id="edge14" class="edge">
<title>Node117&#45;&gt;Node127</title>
<path fill="none" stroke="#191970" d="M281.7989,-243.3715C304.0331,-224.1119 343.2674,-192.0489 381,-170.7254 390.865,-165.1505 402.2852,-160.2388 412.4979,-156.3348"/>
<polygon fill="#191970" stroke="#191970" points="279.3617,-240.8535 274.1484,-250.077 283.9757,-246.1177 279.3617,-240.8535"/>
</g>
<!-- Node136 -->
<g id="node21" class="node">
<title>Node136</title>
<g id="a_node21"><a xlink:href="classMap.html#a779c939483a52b32a3959b99af95e67a" target="_top" xlink:title="Set the Tile ID Of Node object Also invokes all necessary texture updates (auto&#45;tiling, slopes, ...) ">
<polygon fill="none" stroke="#000000" points="861.5,-265.2254 861.5,-284.2254 984.5,-284.2254 984.5,-265.2254 861.5,-265.2254"/>
<text text-anchor="middle" x="923" y="-272.2254" font-family="Helvetica,sans-Serif" font-size="10.00" fill="#000000">Map::setTileIDOfNode</text>
</a>
</g>
</g>
<!-- Node117&#45;&gt;Node136 -->
<g id="edge44" class="edge">
<title>Node117&#45;&gt;Node136</title>
<path fill="none" stroke="#191970" d="M355.2408,-258.9978C399.3211,-258.8342 452.9039,-258.9067 501,-259.7254 644.618,-262.1702 680.4607,-265.3815 824,-270.7254 836.1187,-271.1766 849.0708,-271.6826 861.4782,-272.1791"/>
<polygon fill="#191970" stroke="#191970" points="355.1052,-255.4982 345.1199,-259.04 355.1345,-262.4981 355.1052,-255.4982"/>
</g>
<!-- Node138 -->
<g id="node23" class="node">
<title>Node138</title>
<g id="a_node23"><a xlink:href="classMap.html#a05e7d896dc5062af07c9b838600a068d" target="_top" xlink:title="Demolish a node Invokes the tiles demolish function. ">
<polygon fill="none" stroke="#000000" points="384.5,-269.2254 384.5,-288.2254 497.5,-288.2254 497.5,-269.2254 384.5,-269.2254"/>
<text text-anchor="middle" x="441" y="-276.2254" font-family="Helvetica,sans-Serif" font-size="10.00" fill="#000000">Map::demolishNode</text>
</a>
</g>
</g>
<!-- Node117&#45;&gt;Node138 -->
<g id="edge36" class="edge">
<title>Node117&#45;&gt;Node138</title>
<path fill="none" stroke="#191970" d="M355.3782,-262.814C372.606,-264.6992 389.6764,-266.907 403.9885,-269.1591"/>
<polygon fill="#191970" stroke="#191970" points="355.5484,-259.3126 345.2362,-261.7434 354.8135,-266.2739 355.5484,-259.3126"/>
</g>
<!-- Node118&#45;&gt;Node117 -->
<g id="edge9" class="edge">
<title>Node118&#45;&gt;Node117</title>
<path fill="none" stroke="#191970" d="M549.9332,-209.7769C506.0685,-216.1259 438.6622,-223.9465 381,-235.7254 361.4857,-239.7117 340.4601,-245.2198 321.6641,-250.1492"/>
<polygon fill="#191970" stroke="#191970" points="550.6361,-213.211 560.0119,-208.2771 549.6056,-206.2872 550.6361,-213.211"/>
</g>
<!-- Node119 -->
<g id="node4" class="node">
<title>Node119</title>
<g id="a_node4"><a xlink:href="classEngine.html#a4851ae1ff696c893741167fc0194fd77" target="_top" xlink:title="Increase Height Increases the height of the given map node Calls the according function of the Map ob...">
<polygon fill="none" stroke="#000000" points="693.5,-189.2254 693.5,-208.2254 822.5,-208.2254 822.5,-189.2254 693.5,-189.2254"/>
<text text-anchor="middle" x="758" y="-196.2254" font-family="Helvetica,sans-Serif" font-size="10.00" fill="#000000">Engine::increaseHeight</text>
</a>
</g>
</g>
<!-- Node118&#45;&gt;Node119 -->
<g id="edge3" class="edge">
<title>Node118&#45;&gt;Node119</title>
<path fill="none" stroke="#191970" d="M664.9542,-198.7254C674.4139,-198.7254 684.1042,-198.7254 693.4892,-198.7254"/>
<polygon fill="#191970" stroke="#191970" points="664.8052,-195.2255 654.8052,-198.7254 664.8052,-202.2255 664.8052,-195.2255"/>
</g>
<!-- Node120 -->
<g id="node5" class="node">
<title>Node120</title>
<g id="a_node5"><a xlink:href="classEventManager.html#a65ec91fd5016d4f9c4167fb8babed2df" target="_top" xlink:title="EventManager::checkEvents">
<polygon fill="none" stroke="#000000" points="1206,-246.2254 1206,-265.2254 1360,-265.2254 1360,-246.2254 1206,-246.2254"/>
<text text-anchor="middle" x="1283" y="-253.2254" font-family="Helvetica,sans-Serif" font-size="10.00" fill="#000000">EventManager::checkEvents</text>
</a>
</g>
</g>
<!-- Node119&#45;&gt;Node120 -->
<g id="edge4" class="edge">
<title>Node119&#45;&gt;Node120</title>
<path fill="none" stroke="#191970" d="M832.8667,-206.8538C931.9116,-217.6072 1105.6216,-236.4672 1205.8157,-247.3454"/>
<polygon fill="#191970" stroke="#191970" points="832.9578,-203.3432 822.6384,-205.7433 832.2021,-210.3023 832.9578,-203.3432"/>
</g>
<!-- Node121 -->
<g id="node6" class="node">
<title>Node121</title>
<g id="a_node6"><a xlink:href="classGame.html#a1c2ab25d5216b2f4b2fe41efd2c09114" target="_top" xlink:title="begins the game starts running the game ">
<polygon fill="none" stroke="#000000" points="1408,-151.2254 1408,-170.2254 1476,-170.2254 1476,-151.2254 1408,-151.2254"/>
<text text-anchor="middle" x="1442" y="-158.2254" font-family="Helvetica,sans-Serif" font-size="10.00" fill="#000000">Game::run</text>
</a>
</g>
</g>
<!-- Node120&#45;&gt;Node121 -->
<g id="edge5" class="edge">
<title>Node120&#45;&gt;Node121</title>
<path fill="none" stroke="#191970" d="M1307.714,-240.9592C1340.6333,-221.2904 1397.9507,-187.0442 1425.8366,-170.3828"/>
<polygon fill="#191970" stroke="#191970" points="1305.91,-237.9598 1299.1208,-246.0935 1309.5004,-243.9689 1305.91,-237.9598"/>
</g>
<!-- Node122 -->
<g id="node7" class="node">
<title>Node122</title>
<g id="a_node7"><a xlink:href="classGame.html#ad59df6562a58a614fda24622d3715b65" target="_top" xlink:title="Game::Game">
<polygon fill="none" stroke="#000000" points="1518,-132.2254 1518,-151.2254 1599,-151.2254 1599,-132.2254 1518,-132.2254"/>
<text text-anchor="middle" x="1558.5" y="-139.2254" font-family="Helvetica,sans-Serif" font-size="10.00" fill="#000000">Game::Game</text>
</a>
</g>
</g>
<!-- Node121&#45;&gt;Node122 -->
<g id="edge6" class="edge">
<title>Node121&#45;&gt;Node122</title>
<path fill="none" stroke="#191970" d="M1486.0985,-153.5334C1496.4513,-151.8449 1507.439,-150.053 1517.6427,-148.3888"/>
<polygon fill="#191970" stroke="#191970" points="1485.316,-150.1147 1476.0098,-155.1787 1486.4428,-157.0234 1485.316,-150.1147"/>
</g>
<!-- Node123 -->
<g id="node8" class="node">
<title>Node123</title>
<g id="a_node8"><a xlink:href="main_8cxx.html#af582d708d899e67ead623eac34a22387" target="_top" xlink:title="protected_main">
<polygon fill="none" stroke="#000000" points="1512,-170.2254 1512,-189.2254 1605,-189.2254 1605,-170.2254 1512,-170.2254"/>
<text text-anchor="middle" x="1558.5" y="-177.2254" font-family="Helvetica,sans-Serif" font-size="10.00" fill="#000000">protected_main</text>
</a>
</g>
</g>
<!-- Node121&#45;&gt;Node123 -->
<g id="edge7" class="edge">
<title>Node121&#45;&gt;Node123</title>
<path fill="none" stroke="#191970" d="M1485.9884,-167.8995C1494.382,-169.2684 1503.1965,-170.706 1511.6749,-172.0887"/>
<polygon fill="#191970" stroke="#191970" points="1486.4428,-164.4274 1476.0098,-166.2721 1485.316,-171.3361 1486.4428,-164.4274"/>
</g>
<!-- Node124 -->
<g id="node9" class="node">
<title>Node124</title>
<g id="a_node9"><a xlink:href="main_8cxx.html#a3c04138a5bfe5d72780bb7e82a18e627" target="_top" xlink:title="main">
<polygon fill="none" stroke="#000000" points="1641,-170.2254 1641,-189.2254 1682,-189.2254 1682,-170.2254 1641,-170.2254"/>
<text text-anchor="middle" x="1661.5" y="-177.2254" font-family="Helvetica,sans-Serif" font-size="10.00" fill="#000000">main</text>
</a>
</g>
</g>
<!-- Node123&#45;&gt;Node124 -->
<g id="edge8" class="edge">
<title>Node123&#45;&gt;Node124</title>
<path fill="none" stroke="#191970" d="M1615.2133,-179.7254C1624.4322,-179.7254 1633.4259,-179.7254 1640.9965,-179.7254"/>
<polygon fill="#191970" stroke="#191970" points="1615.1782,-176.2255 1605.1782,-179.7254 1615.1781,-183.2255 1615.1782,-176.2255"/>
</g>
<!-- Node125&#45;&gt;Node117 -->
<g id="edge13" class="edge">
<title>Node125&#45;&gt;Node117</title>
<path fill="none" stroke="#191970" d="M526.8097,-342.729C484.448,-333.9853 429.3759,-320.4776 381,-306.7254 342.0235,-295.6453 296.5538,-280.2134 275.423,-269.2731"/>
<polygon fill="#191970" stroke="#191970" points="526.2475,-346.1861 536.7429,-344.7378 527.6351,-339.325 526.2475,-346.1861"/>
</g>
<!-- Node126 -->
<g id="node11" class="node">
<title>Node126</title>
<g id="a_node11"><a xlink:href="classEngine.html#a13572fdd7f6470dca48a14497f58980e" target="_top" xlink:title="Decrease Height Decreases the height of the given map node Calls the according function of the Map ob...">
<polygon fill="none" stroke="#000000" points="692,-341.2254 692,-360.2254 824,-360.2254 824,-341.2254 692,-341.2254"/>
<text text-anchor="middle" x="758" y="-348.2254" font-family="Helvetica,sans-Serif" font-size="10.00" fill="#000000">Engine::decreaseHeight</text>
</a>
</g>
</g>
<!-- Node125&#45;&gt;Node126 -->
<g id="edge11" class="edge">
<title>Node125&#45;&gt;Node126</title>
<path fill="none" stroke="#191970" d="M666.3603,-350.7254C674.7945,-350.7254 683.3902,-350.7254 691.7702,-350.7254"/>
<polygon fill="#191970" stroke="#191970" points="666.1778,-347.2255 656.1778,-350.7254 666.1778,-354.2255 666.1778,-347.2255"/>
</g>
<!-- Node126&#45;&gt;Node120 -->
<g id="edge12" class="edge">
<title>Node126&#45;&gt;Node120</title>
<path fill="none" stroke="#191970" d="M834.2427,-351.9187C915.8134,-351.3469 1048.2787,-345.063 1158,-314.7254 1199.4017,-303.278 1244.0191,-278.9935 1267.1136,-265.4206"/>
<polygon fill="#191970" stroke="#191970" points="834.0464,-348.4194 824.0614,-351.9621 834.0763,-355.4193 834.0464,-348.4194"/>
</g>
<!-- Node128 -->
<g id="node13" class="node">
<title>Node128</title>
<g id="a_node13"><a xlink:href="classMap.html#a482ac34426e8aa66abb46f60ec329402" target="_top" xlink:title="Initialize the Map with node objects Initialize the Map with node objects. ">
<polygon fill="none" stroke="#000000" points="557,-113.2254 557,-132.2254 636,-132.2254 636,-113.2254 557,-113.2254"/>
<text text-anchor="middle" x="596.5" y="-120.2254" font-family="Helvetica,sans-Serif" font-size="10.00" fill="#000000">Map::initMap</text>
</a>
</g>
</g>
<!-- Node127&#45;&gt;Node128 -->
<g id="edge15" class="edge">
<title>Node127&#45;&gt;Node128</title>
<path fill="none" stroke="#191970" d="M511.2752,-135.8791C526.8573,-133.4741 542.8436,-131.0068 556.6994,-128.8683"/>
<polygon fill="#191970" stroke="#191970" points="510.4694,-132.4619 501.1204,-137.4464 511.5372,-139.38 510.4694,-132.4619"/>
</g>
<!-- Node133 -->
<g id="node18" class="node">
<title>Node133</title>
<g id="a_node18"><a xlink:href="classMap.html#afefe996cc1f62b61ec60d0ae415953bf" target="_top" xlink:title="Map::loadMapFromFile">
<polygon fill="none" stroke="#000000" points="695.5,-151.2254 695.5,-170.2254 820.5,-170.2254 820.5,-151.2254 695.5,-151.2254"/>
<text text-anchor="middle" x="758" y="-158.2254" font-family="Helvetica,sans-Serif" font-size="10.00" fill="#000000">Map::loadMapFromFile</text>
</a>
</g>
</g>
<!-- Node127&#45;&gt;Node133 -->
<g id="edge35" class="edge">
<title>Node127&#45;&gt;Node133</title>
<path fill="none" stroke="#191970" d="M511.4075,-149.8349C566.5082,-152.2684 642.4233,-155.6211 695.4146,-157.9614"/>
<polygon fill="#191970" stroke="#191970" points="511.5161,-146.3364 501.3714,-149.3917 511.2072,-153.3295 511.5161,-146.3364"/>
</g>
<!-- Node129 -->
<g id="node14" class="node">
<title>Node129</title>
<g id="a_node14"><a xlink:href="classEngine.html#a260d4834150eae6eec2bde34df6dc827" target="_top" xlink:title="Creates a new game Creates a new game. ">
<polygon fill="none" stroke="#000000" points="870.5,-37.2254 870.5,-56.2254 975.5,-56.2254 975.5,-37.2254 870.5,-37.2254"/>
<text text-anchor="middle" x="923" y="-44.2254" font-family="Helvetica,sans-Serif" font-size="10.00" fill="#000000">Engine::newGame</text>
</a>
</g>
</g>
<!-- Node128&#45;&gt;Node129 -->
<g id="edge16" class="edge">
<title>Node128&#45;&gt;Node129</title>
<path fill="none" stroke="#191970" d="M646.1438,-111.1697C710.6509,-96.1543 822.095,-70.2133 882.0301,-56.2621"/>
<polygon fill="#191970" stroke="#191970" points="645.155,-107.8062 636.2089,-113.4823 646.742,-114.624 645.155,-107.8062"/>
</g>
<!-- Node128&#45;&gt;Node133 -->
<g id="edge24" class="edge">
<title>Node128&#45;&gt;Node133</title>
<path fill="none" stroke="#191970" d="M645.8995,-134.3488C668.8405,-139.7467 695.778,-146.0849 717.4967,-151.1952"/>
<polygon fill="#191970" stroke="#191970" points="646.5432,-130.9048 636.0073,-132.0213 644.9399,-137.7187 646.5432,-130.9048"/>
</g>
<!-- Node129&#45;&gt;Node121 -->
<g id="edge23" class="edge">
<title>Node129&#45;&gt;Node121</title>
<path fill="none" stroke="#191970" d="M957.7831,-33.8955C976.5229,-27.6603 1000.2102,-20.8512 1022,-17.7254 1177.4206,4.5698 1240.5117,20.0853 1372,-65.7254 1405.6269,-87.6707 1428.7953,-131.6995 1437.8083,-151.1325"/>
<polygon fill="#191970" stroke="#191970" points="956.5254,-30.6265 948.1982,-37.1769 958.7928,-37.2491 956.5254,-30.6265"/>
</g>
<!-- Node130 -->
<g id="node15" class="node">
<title>Node130</title>
<g id="a_node15"><a xlink:href="classEngine.html#af7de8d74b0cfacaf06df53e7caf11538" target="_top" xlink:title="Engine::saveGame">
<polygon fill="none" stroke="#000000" points="1036,-37.2254 1036,-56.2254 1144,-56.2254 1144,-37.2254 1036,-37.2254"/>
<text text-anchor="middle" x="1090" y="-44.2254" font-family="Helvetica,sans-Serif" font-size="10.00" fill="#000000">Engine::saveGame</text>
</a>
</g>
</g>
<!-- Node129&#45;&gt;Node130 -->
<g id="edge17" class="edge">
<title>Node129&#45;&gt;Node130</title>
<path fill="none" stroke="#191970" d="M985.8901,-46.7254C1002.3065,-46.7254 1019.8565,-46.7254 1035.7799,-46.7254"/>
<polygon fill="#191970" stroke="#191970" points="985.8399,-43.2255 975.8398,-46.7254 985.8398,-50.2255 985.8399,-43.2255"/>
</g>
<!-- Node131 -->
<g id="node16" class="node">
<title>Node131</title>
<g id="a_node16"><a xlink:href="classUIManager.html#aa78e356fc3b356d790c848319d1c387e" target="_top" xlink:title="UIManager::setCallbackFunctions">
<polygon fill="none" stroke="#000000" points="1194,-75.2254 1194,-94.2254 1372,-94.2254 1372,-75.2254 1194,-75.2254"/>
<text text-anchor="middle" x="1283" y="-82.2254" font-family="Helvetica,sans-Serif" font-size="10.00" fill="#000000">UIManager::setCallbackFunctions</text>
</a>
</g>
</g>
<!-- Node129&#45;&gt;Node131 -->
<g id="edge19" class="edge">
<title>Node129&#45;&gt;Node131</title>
<path fill="none" stroke="#191970" d="M969.7227,-34.9828C1017.5335,-24.817 1093.7187,-13.7609 1158,-27.7254 1199.9535,-36.8394 1244.708,-61.3168 1267.5834,-75.0469"/>
<polygon fill="#191970" stroke="#191970" points="968.6859,-31.6272 959.6726,-37.1959 970.1913,-38.4634 968.6859,-31.6272"/>
</g>
<!-- Node132 -->
<g id="node17" class="node">
<title>Node132</title>
<g id="a_node17"><a xlink:href="classGame.html#a5ed7fc5be77080f7f6dd5363f7f007a1" target="_top" xlink:title="initializes and displays the main menu initializes and displays the main menu ">
<polygon fill="none" stroke="#000000" points="1231.5,-151.2254 1231.5,-170.2254 1334.5,-170.2254 1334.5,-151.2254 1231.5,-151.2254"/>
<text text-anchor="middle" x="1283" y="-158.2254" font-family="Helvetica,sans-Serif" font-size="10.00" fill="#000000">Game::mainMenu</text>
</a>
</g>
</g>
<!-- Node129&#45;&gt;Node132 -->
<g id="edge20" class="edge">
<title>Node129&#45;&gt;Node132</title>
<path fill="none" stroke="#191970" d="M962.7717,-59.3198C1035.3789,-82.3121 1187.8866,-130.6061 1252.7582,-151.1488"/>
<polygon fill="#191970" stroke="#191970" points="963.6643,-55.9312 953.0742,-56.2489 961.551,-62.6046 963.6643,-55.9312"/>
</g>
<!-- Node130&#45;&gt;Node131 -->
<g id="edge18" class="edge">
<title>Node130&#45;&gt;Node131</title>
<path fill="none" stroke="#191970" d="M1148.6016,-58.2635C1176.1289,-63.6834 1208.5476,-70.0664 1234.6482,-75.2054"/>
<polygon fill="#191970" stroke="#191970" points="1149.1898,-54.8122 1138.702,-56.3144 1147.8375,-61.6804 1149.1898,-54.8122"/>
</g>
<!-- Node132&#45;&gt;Node122 -->
<g id="edge21" class="edge">
<title>Node132&#45;&gt;Node122</title>
<path fill="none" stroke="#191970" d="M1343.9441,-149.579C1364.2452,-146.3701 1387.0283,-143.3102 1408,-141.7254 1445.1272,-138.9198 1487.5536,-139.2377 1517.8759,-140.071"/>
<polygon fill="#191970" stroke="#191970" points="1343.1975,-146.1543 1333.8878,-151.2119 1344.3195,-153.0639 1343.1975,-146.1543"/>
</g>
<!-- Node132&#45;&gt;Node123 -->
<g id="edge22" class="edge">
<title>Node132&#45;&gt;Node123</title>
<path fill="none" stroke="#191970" d="M1343.9441,-171.8718C1364.2452,-175.0807 1387.0283,-178.1407 1408,-179.7254 1442.7823,-182.3538 1482.2157,-182.2408 1511.9902,-181.5309"/>
<polygon fill="#191970" stroke="#191970" points="1344.3195,-168.387 1333.8878,-170.239 1343.1975,-175.2965 1344.3195,-168.387"/>
</g>
<!-- Node134 -->
<g id="node19" class="node">
<title>Node134</title>
<g id="a_node19"><a xlink:href="classEngine.html#a83b7dbeee899b36a13d5b07c7ad87ebc" target="_top" xlink:title="Loads a saved game Loads a saved Game. ">
<polygon fill="none" stroke="#000000" points="870,-151.2254 870,-170.2254 976,-170.2254 976,-151.2254 870,-151.2254"/>
<text text-anchor="middle" x="923" y="-158.2254" font-family="Helvetica,sans-Serif" font-size="10.00" fill="#000000">Engine::loadGame</text>
</a>
</g>
</g>
<!-- Node133&#45;&gt;Node134 -->
<g id="edge25" class="edge">
<title>Node133&#45;&gt;Node134</title>
<path fill="none" stroke="#191970" d="M831.1678,-160.7254C844.1476,-160.7254 857.4396,-160.7254 869.7363,-160.7254"/>
<polygon fill="#191970" stroke="#191970" points="830.8502,-157.2255 820.8501,-160.7254 830.8501,-164.2255 830.8502,-157.2255"/>
</g>
<!-- Node133&#45;&gt;Node136 -->
<g id="edge32" class="edge">
<title>Node133&#45;&gt;Node136</title>
<path fill="none" stroke="#191970" d="M812.2103,-173.9574C816.3016,-175.6675 820.2803,-177.5831 824,-179.7254 864.2519,-202.9081 900.6239,-245.8939 915.672,-265.063"/>
<polygon fill="#191970" stroke="#191970" points="813.1207,-170.5609 802.5284,-170.3297 810.6646,-177.1159 813.1207,-170.5609"/>
</g>
<!-- Node134&#45;&gt;Node131 -->
<g id="edge30" class="edge">
<title>Node134&#45;&gt;Node131</title>
<path fill="none" stroke="#191970" d="M978.3598,-149.0383C1049.6245,-133.9936 1172.0938,-108.1389 1237.9553,-94.2348"/>
<polygon fill="#191970" stroke="#191970" points="977.2911,-145.6867 968.2297,-151.1769 978.7371,-152.5358 977.2911,-145.6867"/>
</g>
<!-- Node134&#45;&gt;Node132 -->
<g id="edge31" class="edge">
<title>Node134&#45;&gt;Node132</title>
<path fill="none" stroke="#191970" d="M986.5221,-160.7254C1056.2454,-160.7254 1166.8354,-160.7254 1231.4148,-160.7254"/>
<polygon fill="#191970" stroke="#191970" points="986.1193,-157.2255 976.1192,-160.7254 986.1192,-164.2255 986.1193,-157.2255"/>
</g>
<!-- Node135 -->
<g id="node20" class="node">
<title>Node135</title>
<g id="a_node20"><a xlink:href="classEngine.html#a0ba57971ffb5173ecc425461f65a4cd8" target="_top" xlink:title="Quits the game Sets m_running to false and quitting the game. ">
<polygon fill="none" stroke="#000000" points="1038,-189.2254 1038,-208.2254 1142,-208.2254 1142,-189.2254 1038,-189.2254"/>
<text text-anchor="middle" x="1090" y="-196.2254" font-family="Helvetica,sans-Serif" font-size="10.00" fill="#000000">Engine::quitGame</text>
</a>
</g>
</g>
<!-- Node134&#45;&gt;Node135 -->
<g id="edge26" class="edge">
<title>Node134&#45;&gt;Node135</title>
<path fill="none" stroke="#191970" d="M974.9646,-172.5497C998.5086,-177.907 1025.9737,-184.1565 1048.1619,-189.2054"/>
<polygon fill="#191970" stroke="#191970" points="975.6685,-169.1205 965.1412,-170.3144 974.1153,-175.946 975.6685,-169.1205"/>
</g>
<!-- Node135&#45;&gt;Node120 -->
<g id="edge27" class="edge">
<title>Node135&#45;&gt;Node120</title>
<path fill="none" stroke="#191970" d="M1131.9351,-211.1104C1167.5685,-221.6342 1217.9873,-236.5248 1250.5907,-246.1538"/>
<polygon fill="#191970" stroke="#191970" points="1132.8857,-207.7417 1122.3039,-208.2659 1130.903,-214.4551 1132.8857,-207.7417"/>
</g>
<!-- Node135&#45;&gt;Node131 -->
<g id="edge28" class="edge">
<title>Node135&#45;&gt;Node131</title>
<path fill="none" stroke="#191970" d="M1114.7686,-184.0953C1154.8907,-160.3962 1233.0043,-114.2565 1266.787,-94.302"/>
<polygon fill="#191970" stroke="#191970" points="1112.9532,-181.1025 1106.1231,-189.2019 1116.5133,-187.1296 1112.9532,-181.1025"/>
</g>
<!-- Node135&#45;&gt;Node132 -->
<g id="edge29" class="edge">
<title>Node135&#45;&gt;Node132</title>
<path fill="none" stroke="#191970" d="M1148.6016,-187.1873C1176.1289,-181.7674 1208.5476,-175.3844 1234.6482,-170.2455"/>
<polygon fill="#191970" stroke="#191970" points="1147.8375,-183.7704 1138.702,-189.1364 1149.1898,-190.6386 1147.8375,-183.7704"/>
</g>
<!-- Node137 -->
<g id="node22" class="node">
<title>Node137</title>
<g id="a_node22"><a xlink:href="classEngine.html#a8a53c5e52734a5158b317851361b83f2" target="_top" xlink:title="Engine::setTileIDOfNode">
<polygon fill="none" stroke="#000000" points="1022,-265.2254 1022,-284.2254 1158,-284.2254 1158,-265.2254 1022,-265.2254"/>
<text text-anchor="middle" x="1090" y="-272.2254" font-family="Helvetica,sans-Serif" font-size="10.00" fill="#000000">Engine::setTileIDOfNode</text>
</a>
</g>
</g>
<!-- Node136&#45;&gt;Node137 -->
<g id="edge33" class="edge">
<title>Node136&#45;&gt;Node137</title>
<path fill="none" stroke="#191970" d="M994.7426,-274.7254C1003.7182,-274.7254 1012.8787,-274.7254 1021.7981,-274.7254"/>
<polygon fill="#191970" stroke="#191970" points="994.7102,-271.2255 984.7102,-274.7254 994.7101,-278.2255 994.7102,-271.2255"/>
</g>
<!-- Node137&#45;&gt;Node120 -->
<g id="edge34" class="edge">
<title>Node137&#45;&gt;Node120</title>
<path fill="none" stroke="#191970" d="M1168.292,-267.0179C1180.6288,-265.8034 1193.3776,-264.5483 1205.6918,-263.3361"/>
<polygon fill="#191970" stroke="#191970" points="1167.6535,-263.5637 1158.0446,-268.0267 1168.3394,-270.5301 1167.6535,-263.5637"/>
</g>
<!-- Node138&#45;&gt;Node117 -->
<g id="edge42" class="edge">
<title>Node138&#45;&gt;Node117</title>
<path fill="none" stroke="#191970" d="M374.1569,-278.1342C349.1229,-275.8881 321.6084,-272.6192 300.2781,-269.2549"/>
<polygon fill="#191970" stroke="#191970" points="374.0792,-281.6402 384.3403,-279.0019 374.6736,-274.6654 374.0792,-281.6402"/>
</g>
<!-- Node138&#45;&gt;Node118 -->
<g id="edge40" class="edge">
<title>Node138&#45;&gt;Node118</title>
<path fill="none" stroke="#191970" d="M468.8604,-264.3921C500.2913,-248.2218 550.5528,-222.3638 577.6765,-208.4095"/>
<polygon fill="#191970" stroke="#191970" points="467.048,-261.3884 459.7569,-269.0755 470.2503,-267.613 467.048,-261.3884"/>
</g>
<!-- Node138&#45;&gt;Node125 -->
<g id="edge41" class="edge">
<title>Node138&#45;&gt;Node125</title>
<path fill="none" stroke="#191970" d="M468.202,-293.0573C487.2708,-302.9232 513.4577,-316.1124 537,-326.7254 548.1699,-331.7608 560.7262,-336.9001 571.4152,-341.1243"/>
<polygon fill="#191970" stroke="#191970" points="469.6801,-289.881 459.1936,-288.3698 466.4489,-296.0906 469.6801,-289.881"/>
</g>
<!-- Node138&#45;&gt;Node136 -->
<g id="edge43" class="edge">
<title>Node138&#45;&gt;Node136</title>
<path fill="none" stroke="#191970" d="M507.915,-278.1701C601.5564,-277.393 770.3818,-275.9919 861.1945,-275.2383"/>
<polygon fill="#191970" stroke="#191970" points="507.6795,-274.6718 497.7089,-278.2548 507.7376,-281.6716 507.6795,-274.6718"/>
</g>
<!-- Node139 -->
<g id="node24" class="node">
<title>Node139</title>
<g id="a_node24"><a xlink:href="classEngine.html#addfc50e21da201426444d8b4a07b3976" target="_top" xlink:title="Engine::demolishNode">
<polygon fill="none" stroke="#000000" points="860,-303.2254 860,-322.2254 986,-322.2254 986,-303.2254 860,-303.2254"/>
<text text-anchor="middle" x="923" y="-310.2254" font-family="Helvetica,sans-Serif" font-size="10.00" fill="#000000">Engine::demolishNode</text>
</a>
</g>
</g>
<!-- Node138&#45;&gt;Node139 -->
<g id="edge37" class="edge">
<title>Node138&#45;&gt;Node139</title>
<path fill="none" stroke="#191970" d="M507.6728,-287.648C517.4959,-288.7916 527.5026,-289.8622 537,-290.7254 650.4729,-301.0393 783.1789,-307.3482 859.7194,-310.4286"/>
<polygon fill="#191970" stroke="#191970" points="507.8765,-284.1475 497.5317,-286.4356 507.0455,-291.098 507.8765,-284.1475"/>
</g>
<!-- Node139&#45;&gt;Node120 -->
<g id="edge39" class="edge">
<title>Node139&#45;&gt;Node120</title>
<path fill="none" stroke="#191970" d="M996.3445,-310.8354C1042.9714,-308.6415 1104.4287,-303.9116 1158,-293.7254 1192.984,-287.0735 1232.0721,-274.2882 1257.0725,-265.3944"/>
<polygon fill="#191970" stroke="#191970" points="996.1647,-307.3399 986.3292,-311.2786 996.4742,-314.333 996.1647,-307.3399"/>
</g>
<!-- Node139&#45;&gt;Node137 -->
<g id="edge38" class="edge">
<title>Node139&#45;&gt;Node137</title>
<path fill="none" stroke="#191970" d="M974.9646,-300.9011C998.5086,-295.5438 1025.9737,-289.2943 1048.1619,-284.2455"/>
<polygon fill="#191970" stroke="#191970" points="974.1153,-297.5048 965.1412,-303.1364 975.6685,-304.3304 974.1153,-297.5048"/>
</g>
</g>
</svg>
