<?xml version="1.0" encoding="UTF-8" standalone="no"?>
<!DOCTYPE svg PUBLIC "-//W3C//DTD SVG 1.1//EN"
 "http://www.w3.org/Graphics/SVG/1.1/DTD/svg11.dtd">
<!-- Generated by graphviz version 2.40.1 (20161225.0304)
 -->
<!-- Title: Map::checkTileIDIsEmpty Pages: 1 -->
<svg width="979pt" height="66pt"
 viewBox="0.00 0.00 979.00 66.00" xmlns="http://www.w3.org/2000/svg" xmlns:xlink="http://www.w3.org/1999/xlink">
<g id="graph0" class="graph" transform="scale(1 1) rotate(0) translate(4 62)">
<title>Map::checkTileIDIsEmpty</title>
<!-- Node19 -->
<g id="node1" class="node">
<title>Node19</title>
<polygon fill="#bfbfbf" stroke="#000000" points="0,-19.5 0,-38.5 140,-38.5 140,-19.5 0,-19.5"/>
<text text-anchor="middle" x="70" y="-26.5" font-family="Helvetica,sans-Serif" font-size="10.00" fill="#000000">Map::checkTileIDIsEmpty</text>
</g>
<!-- Node20 -->
<g id="node2" class="node">
<title>Node20</title>
<g id="a_node2"><a xlink:href="classEventManager.html#a65ec91fd5016d4f9c4167fb8babed2df" target="_top" xlink:title="EventManager::checkEvents">
<polygon fill="none" stroke="#000000" points="507,-19.5 507,-38.5 661,-38.5 661,-19.5 507,-19.5"/>
<text text-anchor="middle" x="584" y="-26.5" font-family="Helvetica,sans-Serif" font-size="10.00" fill="#000000">EventManager::checkEvents</text>
</a>
</g>
</g>
<!-- Node19&#45;&gt;Node20 -->
<g id="edge1" class="edge">
<title>Node19&#45;&gt;Node20</title>
<path fill="none" stroke="#191970" d="M150.2132,-29C247.6327,-29 410.8078,-29 506.8323,-29"/>
<polygon fill="#191970" stroke="#191970" points="150.1233,-25.5001 140.1233,-29 150.1233,-32.5001 150.1233,-25.5001"/>
</g>
<!-- Node25 -->
<g id="node7" class="node">
<title>Node25</title>
<g id="a_node7"><a xlink:href="classMap.html#a779c939483a52b32a3959b99af95e67a" target="_top" xlink:title="Set the Tile ID Of Node object Also invokes all necessary texture updates (auto&#45;tiling, slopes, ...) ">
<polygon fill="none" stroke="#000000" points="176,-.5 176,-19.5 299,-19.5 299,-.5 176,-.5"/>
<text text-anchor="middle" x="237.5" y="-7.5" font-family="Helvetica,sans-Serif" font-size="10.00" fill="#000000">Map::setTileIDOfNode</text>
</a>
</g>
</g>
<!-- Node19&#45;&gt;Node25 -->
<g id="edge6" class="edge">
<title>Node19&#45;&gt;Node25</title>
<path fill="none" stroke="#191970" d="M150.1926,-19.9035C158.8591,-18.9205 167.5765,-17.9316 175.9727,-16.9792"/>
<polygon fill="#191970" stroke="#191970" points="149.6063,-16.4475 140.0646,-21.0524 150.3954,-23.4029 149.6063,-16.4475"/>
</g>
<!-- Node21 -->
<g id="node3" class="node">
<title>Node21</title>
<g id="a_node3"><a xlink:href="classGame.html#a1c2ab25d5216b2f4b2fe41efd2c09114" target="_top" xlink:title="begins the game starts running the game ">
<polygon fill="none" stroke="#000000" points="697,-19.5 697,-38.5 765,-38.5 765,-19.5 697,-19.5"/>
<text text-anchor="middle" x="731" y="-26.5" font-family="Helvetica,sans-Serif" font-size="10.00" fill="#000000">Game::run</text>
</a>
</g>
</g>
<!-- Node20&#45;&gt;Node21 -->
<g id="edge2" class="edge">
<title>Node20&#45;&gt;Node21</title>
<path fill="none" stroke="#191970" d="M671.5248,-29C680.4338,-29 689.0572,-29 696.845,-29"/>
<polygon fill="#191970" stroke="#191970" points="671.3744,-25.5001 661.3744,-29 671.3743,-32.5001 671.3744,-25.5001"/>
</g>
<!-- Node22 -->
<g id="node4" class="node">
<title>Node22</title>
<g id="a_node4"><a xlink:href="classGame.html#ad59df6562a58a614fda24622d3715b65" target="_top" xlink:title="Game::Game">
<polygon fill="none" stroke="#000000" points="807,-38.5 807,-57.5 888,-57.5 888,-38.5 807,-38.5"/>
<text text-anchor="middle" x="847.5" y="-45.5" font-family="Helvetica,sans-Serif" font-size="10.00" fill="#000000">Game::Game</text>
</a>
</g>
</g>
<!-- Node21&#45;&gt;Node22 -->
<g id="edge3" class="edge">
<title>Node21&#45;&gt;Node22</title>
<path fill="none" stroke="#191970" d="M775.0985,-36.192C785.4513,-37.8805 796.439,-39.6725 806.6427,-41.3366"/>
<polygon fill="#191970" stroke="#191970" points="775.4428,-32.702 765.0098,-34.5467 774.316,-39.6107 775.4428,-32.702"/>
</g>
<!-- Node23 -->
<g id="node5" class="node">
<title>Node23</title>
<g id="a_node5"><a xlink:href="main_8cxx.html#af582d708d899e67ead623eac34a22387" target="_top" xlink:title="protected_main">
<polygon fill="none" stroke="#000000" points="801,-.5 801,-19.5 894,-19.5 894,-.5 801,-.5"/>
<text text-anchor="middle" x="847.5" y="-7.5" font-family="Helvetica,sans-Serif" font-size="10.00" fill="#000000">protected_main</text>
</a>
</g>
</g>
<!-- Node21&#45;&gt;Node23 -->
<g id="edge4" class="edge">
<title>Node21&#45;&gt;Node23</title>
<path fill="none" stroke="#191970" d="M774.9884,-21.8259C783.382,-20.457 792.1965,-19.0195 800.6749,-17.6367"/>
<polygon fill="#191970" stroke="#191970" points="774.316,-18.3893 765.0098,-23.4533 775.4428,-25.298 774.316,-18.3893"/>
</g>
<!-- Node24 -->
<g id="node6" class="node">
<title>Node24</title>
<g id="a_node6"><a xlink:href="main_8cxx.html#a3c04138a5bfe5d72780bb7e82a18e627" target="_top" xlink:title="main">
<polygon fill="none" stroke="#000000" points="930,-.5 930,-19.5 971,-19.5 971,-.5 930,-.5"/>
<text text-anchor="middle" x="950.5" y="-7.5" font-family="Helvetica,sans-Serif" font-size="10.00" fill="#000000">main</text>
</a>
</g>
</g>
<!-- Node23&#45;&gt;Node24 -->
<g id="edge5" class="edge">
<title>Node23&#45;&gt;Node24</title>
<path fill="none" stroke="#191970" d="M904.2133,-10C913.4322,-10 922.4259,-10 929.9965,-10"/>
<polygon fill="#191970" stroke="#191970" points="904.1782,-6.5001 894.1782,-10 904.1781,-13.5001 904.1782,-6.5001"/>
</g>
<!-- Node26 -->
<g id="node8" class="node">
<title>Node26</title>
<g id="a_node8"><a xlink:href="classEngine.html#a8a53c5e52734a5158b317851361b83f2" target="_top" xlink:title="Engine::setTileIDOfNode">
<polygon fill="none" stroke="#000000" points="335,-.5 335,-19.5 471,-19.5 471,-.5 335,-.5"/>
<text text-anchor="middle" x="403" y="-7.5" font-family="Helvetica,sans-Serif" font-size="10.00" fill="#000000">Engine::setTileIDOfNode</text>
</a>
</g>
</g>
<!-- Node25&#45;&gt;Node26 -->
<g id="edge7" class="edge">
<title>Node25&#45;&gt;Node26</title>
<path fill="none" stroke="#191970" d="M309.3736,-10C317.858,-10 326.4976,-10 334.9273,-10"/>
<polygon fill="#191970" stroke="#191970" points="309.1261,-6.5001 299.1261,-10 309.1261,-13.5001 309.1261,-6.5001"/>
</g>
<!-- Node26&#45;&gt;Node20 -->
<g id="edge8" class="edge">
<title>Node26&#45;&gt;Node20</title>
<path fill="none" stroke="#191970" d="M481.3623,-18.2259C489.7925,-19.1108 498.3658,-20.0108 506.7824,-20.8943"/>
<polygon fill="#191970" stroke="#191970" points="481.4812,-14.7192 471.1704,-17.156 480.7504,-21.681 481.4812,-14.7192"/>
</g>
</g>
</svg>
