<?xml version="1.0" encoding="UTF-8" standalone="no"?>
<!DOCTYPE svg PUBLIC "-//W3C//DTD SVG 1.1//EN"
 "http://www.w3.org/Graphics/SVG/1.1/DTD/svg11.dtd">
<!-- Generated by graphviz version 2.40.1 (20161225.0304)
 -->
<!-- Title: MessageQueue::wakeCondition Pages: 1 -->
<svg width="366pt" height="110pt"
 viewBox="0.00 0.00 366.00 110.00" xmlns="http://www.w3.org/2000/svg" xmlns:xlink="http://www.w3.org/1999/xlink">
<g id="graph0" class="graph" transform="scale(1 1) rotate(0) translate(4 106)">
<title>MessageQueue::wakeCondition</title>
<!-- Node23 -->
<g id="node1" class="node">
<title>Node23</title>
<polygon fill="#bfbfbf" stroke="#000000" points="0,-41.5 0,-60.5 170,-60.5 170,-41.5 0,-41.5"/>
<text text-anchor="middle" x="85" y="-48.5" font-family="Helvetica,sans-Serif" font-size="10.00" fill="#000000">MessageQueue::wakeCondition</text>
</g>
<!-- Node24 -->
<g id="node2" class="node">
<title>Node24</title>
<g id="a_node2"><a xlink:href="classMessageQueue.html#ab96b913f05b4ea1b3c1ac1c8ac3cb78a" target="_top" xlink:title="MessageQueue\&lt; typename\l VariantType\&lt; GameEvents\l \&gt;::type \&gt;::peek">
<polygon fill="none" stroke="#000000" points="206,-60.5 206,-101.5 358,-101.5 358,-60.5 206,-60.5"/>
<text text-anchor="start" x="214" y="-89.5" font-family="Helvetica,sans-Serif" font-size="10.00" fill="#000000">MessageQueue&lt; typename</text>
<text text-anchor="start" x="214" y="-78.5" font-family="Helvetica,sans-Serif" font-size="10.00" fill="#000000"> VariantType&lt; GameEvents</text>
<text text-anchor="middle" x="282" y="-67.5" font-family="Helvetica,sans-Serif" font-size="10.00" fill="#000000"> &gt;::type &gt;::peek</text>
</a>
</g>
</g>
<!-- Node23&#45;&gt;Node24 -->
<g id="edge1" class="edge">
<title>Node23&#45;&gt;Node24</title>
<path fill="none" stroke="#191970" d="M157.7338,-62.0762C173.383,-64.4593 189.9655,-66.9846 205.7444,-69.3875"/>
<polygon fill="#191970" stroke="#191970" points="158.0157,-58.5789 147.6027,-60.5334 156.9618,-65.4991 158.0157,-58.5789"/>
</g>
<!-- Node25 -->
<g id="node3" class="node">
<title>Node25</title>
<g id="a_node3"><a xlink:href="classMessageQueue.html#aac168320314e624c72c8a7c65f672b70" target="_top" xlink:title="MessageQueue\&lt; typename\l VariantType\&lt; GameEvents\l \&gt;::type \&gt;::getEnumerable">
<polygon fill="none" stroke="#000000" points="206,-.5 206,-41.5 358,-41.5 358,-.5 206,-.5"/>
<text text-anchor="start" x="214" y="-29.5" font-family="Helvetica,sans-Serif" font-size="10.00" fill="#000000">MessageQueue&lt; typename</text>
<text text-anchor="start" x="214" y="-18.5" font-family="Helvetica,sans-Serif" font-size="10.00" fill="#000000"> VariantType&lt; GameEvents</text>
<text text-anchor="middle" x="282" y="-7.5" font-family="Helvetica,sans-Serif" font-size="10.00" fill="#000000"> &gt;::type &gt;::getEnumerable</text>
</a>
</g>
</g>
<!-- Node23&#45;&gt;Node25 -->
<g id="edge2" class="edge">
<title>Node23&#45;&gt;Node25</title>
<path fill="none" stroke="#191970" d="M157.7338,-39.9238C173.383,-37.5407 189.9655,-35.0154 205.7444,-32.6125"/>
<polygon fill="#191970" stroke="#191970" points="156.9618,-36.5009 147.6027,-41.4666 158.0157,-43.4211 156.9618,-36.5009"/>
</g>
</g>
</svg>
