<?xml version="1.0" encoding="UTF-8" standalone="no"?>
<!DOCTYPE svg PUBLIC "-//W3C//DTD SVG 1.1//EN"
 "http://www.w3.org/Graphics/SVG/1.1/DTD/svg11.dtd">
<!-- Generated by graphviz version 2.40.1 (20161225.0304)
 -->
<!-- Title: Map::decreaseHeight Pages: 1 -->
<!--zoomable 171 -->
<svg id="main" version="1.1" xmlns="http://www.w3.org/2000/svg" xmlns:xlink="http://www.w3.org/1999/xlink" xml:space="preserve" onload="init(evt)">
<style type="text/css"><![CDATA[
.edge:hover path { stroke: red; }
.edge:hover polygon { stroke: red; fill: red; }
]]></style>
<script type="text/javascript"><![CDATA[
var edges = document.getElementsByTagName('g');
if (edges && edges.length) {
  for (var i=0;i<edges.length;i++) {
    if (edges[i].id.substr(0,4)=='edge') {
      edges[i].setAttribute('class','edge');
    }
  }
}
]]></script>
        <defs>
                <circle id="rim" cx="0" cy="0" r="7"/>
                <circle id="rim2" cx="0" cy="0" r="3.5"/>
                <g id="zoomPlus">
                        <use xlink:href="#rim" fill="#404040">
                                <set attributeName="fill" to="#808080" begin="zoomplus.mouseover" end="zoomplus.mouseout"/>
                        </use>
                        <path d="M-4,0h8M0,-4v8" fill="none" stroke="white" stroke-width="1.5" pointer-events="none"/>
                </g>
                <g id="zoomMin">
                        <use xlink:href="#rim" fill="#404040">
                                <set attributeName="fill" to="#808080" begin="zoomminus.mouseover" end="zoomminus.mouseout"/>
                        </use>
                        <path d="M-4,0h8" fill="none" stroke="white" stroke-width="1.5" pointer-events="none"/>
                </g>
                <g id="dirArrow">
                        <path fill="none" stroke="white" stroke-width="1.5" d="M0,-3.0v7 M-2.5,-0.5L0,-3.0L2.5,-0.5"/>
                </g>
               <g id="resetDef">
                       <use xlink:href="#rim2" fill="#404040">
                               <set attributeName="fill" to="#808080" begin="reset.mouseover" end="reset.mouseout"/>
                       </use>
               </g>
        </defs>

<script type="text/javascript">
var viewWidth = 806;
var viewHeight = 171;
var sectionId = 'dynsection-3';
</script>
<script xlink:href="svgpan.js"/>
<svg id="graph" class="graph">
<g id="viewport">
<title>Map::decreaseHeight</title>
<!-- Node27 -->
<g id="node1" class="node">
<title>Node27</title>
<polygon fill="#bfbfbf" stroke="#000000" points="0,-53 0,-72 119,-72 119,-53 0,-53"/>
<text text-anchor="middle" x="59.5" y="-60" font-family="Helvetica,sans-Serif" font-size="10.00" fill="#000000">Map::decreaseHeight</text>
</g>
<!-- Node28 -->
<g id="node2" class="node">
<title>Node28</title>
<g id="a_node2"><a xlink:href="classMap.html#a05e7d896dc5062af07c9b838600a068d" target="_top" xlink:title="Demolish a node Invokes the tiles demolish function. ">
<polygon fill="none" stroke="#000000" points="155,-6 155,-25 268,-25 268,-6 155,-6"/>
<text text-anchor="middle" x="211.5" y="-13" font-family="Helvetica,sans-Serif" font-size="10.00" fill="#000000">Map::demolishNode</text>
</a>
</g>
</g>
<!-- Node27&#45;&gt;Node28 -->
<g id="edge1" class="edge">
<title>Node27&#45;&gt;Node28</title>
<path fill="none" stroke="#191970" d="M90.2595,-52.9888C113.4638,-45.8138 145.5147,-35.9034 170.8348,-28.0741"/>
<polygon fill="#191970" stroke="#191970" points="172.006,-31.3755 180.5258,-25.0776 169.9381,-24.6879 172.006,-31.3755"/>
</g>
<!-- Node29 -->
<g id="node3" class="node">
<title>Node29</title>
<g id="a_node3"><a xlink:href="classMap.html#a59d21f2688713fbcfe320eb1b24405ca" target="_top" xlink:title="Update mapNode and its adjacent tiles Updates mapNode height information, draws slopes for adjacent t...">
<polygon fill="none" stroke="#000000" points="304,-50 304,-69 467,-69 467,-50 304,-50"/>
<text text-anchor="middle" x="385.5" y="-57" font-family="Helvetica,sans-Serif" font-size="10.00" fill="#000000">Map::updateNeighborsOfNode</text>
</a>
</g>
</g>
<!-- Node27&#45;&gt;Node29 -->
<g id="edge12" class="edge">
<title>Node27&#45;&gt;Node29</title>
<path fill="none" stroke="#191970" d="M119.2934,-56.5857C168.0921,-54.6003 237.8557,-53.6992 293.7236,-54.2034"/>
<polygon fill="#191970" stroke="#191970" points="293.9484,-57.7059 303.9855,-54.314 294.0238,-50.7064 293.9484,-57.7059"/>
</g>
<!-- Node28&#45;&gt;Node29 -->
<g id="edge2" class="edge">
<title>Node28&#45;&gt;Node29</title>
<path fill="none" stroke="#191970" d="M268.4741,-23.528C297.6133,-30.149 331.8745,-39.1956 355.7675,-46.7507"/>
<polygon fill="#191970" stroke="#191970" points="354.7347,-50.0954 365.3274,-49.8859 356.9161,-43.4439 354.7347,-50.0954"/>
</g>
<!-- Node29&#45;&gt;Node27 -->
<g id="edge11" class="edge">
<title>Node29&#45;&gt;Node27</title>
<path fill="none" stroke="#191970" d="M303.9855,-66.1863C250.3185,-67.8501 180.7854,-68.3985 129.6,-67.5166"/>
<polygon fill="#191970" stroke="#191970" points="129.3604,-64.0113 119.2934,-67.3138 129.2226,-71.0099 129.3604,-64.0113"/>
</g>
<!-- Node29&#45;&gt;Node28 -->
<g id="edge5" class="edge">
<title>Node29&#45;&gt;Node28</title>
<path fill="none" stroke="#191970" d="M321.7508,-49.9105C294.2006,-43.4743 263.2933,-35.2252 241.2291,-28.2482"/>
<polygon fill="#191970" stroke="#191970" points="242.0528,-24.8349 231.46,-25.0413 239.8695,-31.4857 242.0528,-24.8349"/>
</g>
<!-- Node30 -->
<g id="node4" class="node">
<title>Node30</title>
<g id="a_node4"><a xlink:href="classMap.html#aab37e4a52faf81e9b696b8cf1bd9a690" target="_top" xlink:title="Get neighbor MapNode Objects Stores pointers to the neighboring nodes of the given coordinates in the...">
<polygon fill="none" stroke="#000000" points="522,-143 522,-162 630,-162 630,-143 522,-143"/>
<text text-anchor="middle" x="576" y="-150" font-family="Helvetica,sans-Serif" font-size="10.00" fill="#000000">Map::getNeighbors</text>
</a>
</g>
</g>
<!-- Node29&#45;&gt;Node30 -->
<g id="edge3" class="edge">
<title>Node29&#45;&gt;Node30</title>
<path fill="none" stroke="#191970" d="M397.8203,-69.079C418.4666,-84.6988 461.8462,-115.6949 503,-133.5 508.6791,-135.957 514.7486,-138.1543 520.871,-140.1041"/>
<polygon fill="#191970" stroke="#191970" points="519.9039,-143.4679 530.4868,-142.9659 521.9007,-136.7587 519.9039,-143.4679"/>
</g>
<!-- Node31 -->
<g id="node5" class="node">
<title>Node31</title>
<g id="a_node5"><a xlink:href="classMap.html#a0ff55eb041cdf29aa582a21145319ce0" target="_top" xlink:title="Get elevated neighbor positions in a bitmask Checks all neighboring tiles and returns the elevated ne...">
<polygon fill="none" stroke="#000000" points="503,-93.5 503,-123.5 649,-123.5 649,-93.5 503,-93.5"/>
<text text-anchor="start" x="511" y="-111.5" font-family="Helvetica,sans-Serif" font-size="10.00" fill="#000000">Map::getElevatedNeighbor</text>
<text text-anchor="middle" x="576" y="-100.5" font-family="Helvetica,sans-Serif" font-size="10.00" fill="#000000">Bitmask</text>
</a>
</g>
</g>
<!-- Node29&#45;&gt;Node31 -->
<g id="edge4" class="edge">
<title>Node29&#45;&gt;Node31</title>
<path fill="none" stroke="#191970" d="M422.6825,-69.064C446.8005,-75.2676 478.9504,-83.5371 507.5793,-90.901"/>
<polygon fill="#191970" stroke="#191970" points="506.9833,-94.3615 517.54,-93.463 508.7271,-87.5822 506.9833,-94.3615"/>
</g>
<!-- Node32 -->
<g id="node6" class="node">
<title>Node32</title>
<g id="a_node6"><a xlink:href="classMap.html#a392940f84796653b8e811ed8dc296c84" target="_top" xlink:title="Get a bitmask that represents same&#45;tile neighbors Checks all neighboring tiles and returns the elevat...">
<polygon fill="none" stroke="#000000" points="505.5,-44.5 505.5,-74.5 646.5,-74.5 646.5,-44.5 505.5,-44.5"/>
<text text-anchor="start" x="513.5" y="-62.5" font-family="Helvetica,sans-Serif" font-size="10.00" fill="#000000">Map::getNeighboringTiles</text>
<text text-anchor="middle" x="576" y="-51.5" font-family="Helvetica,sans-Serif" font-size="10.00" fill="#000000">Bitmask</text>
</a>
</g>
</g>
<!-- Node29&#45;&gt;Node32 -->
<g id="edge6" class="edge">
<title>Node29&#45;&gt;Node32</title>
<path fill="none" stroke="#191970" d="M467.1182,-59.5C476.4625,-59.5 485.9856,-59.5 495.3177,-59.5"/>
<polygon fill="#191970" stroke="#191970" points="495.3514,-63.0001 505.3514,-59.5 495.3514,-56.0001 495.3514,-63.0001"/>
</g>
<!-- Node33 -->
<g id="node7" class="node">
<title>Node33</title>
<g id="a_node7"><a xlink:href="classMap.html#aba5154a4d917900679a3c0f7ec701561" target="_top" xlink:title="Increase Height Increases the height of the node and checks the surrounding tiles. Either draw a slope sprite or elevate the tile if necessary. ">
<polygon fill="none" stroke="#000000" points="518,-6 518,-25 634,-25 634,-6 518,-6"/>
<text text-anchor="middle" x="576" y="-13" font-family="Helvetica,sans-Serif" font-size="10.00" fill="#000000">Map::increaseHeight</text>
</a>
</g>
</g>
<!-- Node29&#45;&gt;Node33 -->
<g id="edge7" class="edge">
<title>Node29&#45;&gt;Node33</title>
<path fill="none" stroke="#191970" d="M407.3528,-49.9587C431.8298,-42.2969 472.7146,-32.1862 508.0981,-24.687"/>
<polygon fill="#191970" stroke="#191970" points="508.8363,-28.1085 517.9139,-22.6453 507.4107,-21.2551 508.8363,-28.1085"/>
</g>
<!-- Node33&#45;&gt;Node28 -->
<g id="edge9" class="edge">
<title>Node33&#45;&gt;Node28</title>
<path fill="none" stroke="#191970" d="M517.8058,-15.5C452.5468,-15.5 346.8945,-15.5 278.3117,-15.5"/>
<polygon fill="#191970" stroke="#191970" points="278.0532,-12.0001 268.0532,-15.5 278.0532,-19.0001 278.0532,-12.0001"/>
</g>
<!-- Node33&#45;&gt;Node29 -->
<g id="edge10" class="edge">
<title>Node33&#45;&gt;Node29</title>
<path fill="none" stroke="#191970" d="M553.8824,-25.1241C532.0259,-31.9485 497.2737,-40.6925 465.0022,-47.8046"/>
<polygon fill="#191970" stroke="#191970" points="464.1146,-44.4157 455.0835,-49.9555 465.5981,-51.2567 464.1146,-44.4157"/>
</g>
<!-- Node34 -->
<g id="node8" class="node">
<title>Node34</title>
<g id="a_node8"><a xlink:href="classSingleton.html#af5cb1e5749949e2b68416cfb8d378044" target="_top" xlink:title="Get an instance of the singleton. ">
<polygon fill="none" stroke="#000000" points="685,-.5 685,-30.5 798,-30.5 798,-.5 685,-.5"/>
<text text-anchor="start" x="693" y="-18.5" font-family="Helvetica,sans-Serif" font-size="10.00" fill="#000000">Singleton&lt; Settings</text>
<text text-anchor="middle" x="741.5" y="-7.5" font-family="Helvetica,sans-Serif" font-size="10.00" fill="#000000"> &gt;::instance</text>
</a>
</g>
</g>
<!-- Node33&#45;&gt;Node34 -->
<g id="edge8" class="edge">
<title>Node33&#45;&gt;Node34</title>
<path fill="none" stroke="#191970" d="M634.3491,-15.5C647.4012,-15.5 661.3429,-15.5 674.7073,-15.5"/>
<polygon fill="#191970" stroke="#191970" points="674.7903,-19.0001 684.7903,-15.5 674.7903,-12.0001 674.7903,-19.0001"/>
</g>
</g>
</svg>
        <g id="navigator" transform="translate(0 0)" fill="#404254">
                <rect fill="#f2f5e9" fill-opacity="0.5" stroke="#606060" stroke-width=".5" x="0" y="0" width="60" height="60"/>
                <use id="zoomplus" xlink:href="#zoomPlus" x="17" y="9" onmousedown="handleZoom(evt,'in')"/>
                <use id="zoomminus" xlink:href="#zoomMin" x="42" y="9" onmousedown="handleZoom(evt,'out')"/>
                <use id="reset" xlink:href="#resetDef" x="30" y="36" onmousedown="handleReset()"/>
                <g id="arrowUp" xlink:href="#dirArrow" transform="translate(30 24)" onmousedown="handlePan(0,-1)">
                  <use xlink:href="#rim" fill="#404040">
                        <set attributeName="fill" to="#808080" begin="arrowUp.mouseover" end="arrowUp.mouseout"/>
                  </use>
                  <path fill="none" stroke="white" stroke-width="1.5" d="M0,-3.0v7 M-2.5,-0.5L0,-3.0L2.5,-0.5"/>
                </g>
                <g id="arrowRight" xlink:href="#dirArrow" transform="rotate(90) translate(36 -43)" onmousedown="handlePan(1,0)">
                  <use xlink:href="#rim" fill="#404040">
                        <set attributeName="fill" to="#808080" begin="arrowRight.mouseover" end="arrowRight.mouseout"/>
                  </use>
                  <path fill="none" stroke="white" stroke-width="1.5" d="M0,-3.0v7 M-2.5,-0.5L0,-3.0L2.5,-0.5"/>
                </g>
                <g id="arrowDown" xlink:href="#dirArrow" transform="rotate(180) translate(-30 -48)" onmousedown="handlePan(0,1)">
                  <use xlink:href="#rim" fill="#404040">
                        <set attributeName="fill" to="#808080" begin="arrowDown.mouseover" end="arrowDown.mouseout"/>
                  </use>
                  <path fill="none" stroke="white" stroke-width="1.5" d="M0,-3.0v7 M-2.5,-0.5L0,-3.0L2.5,-0.5"/>
                </g>
                <g id="arrowLeft" xlink:href="#dirArrow" transform="rotate(270) translate(-36 17)" onmousedown="handlePan(-1,0)">
                  <use xlink:href="#rim" fill="#404040">
                        <set attributeName="fill" to="#808080" begin="arrowLeft.mouseover" end="arrowLeft.mouseout"/>
                  </use>
                  <path fill="none" stroke="white" stroke-width="1.5" d="M0,-3.0v7 M-2.5,-0.5L0,-3.0L2.5,-0.5"/>
                </g>
        </g>
        <svg viewBox="0 0 15 15" width="100%" height="30px" preserveAspectRatio="xMaxYMin meet">
         <g id="arrow_out" transform="scale(0.3 0.3)">
          <a xlink:href="classMap_afb8cc864df90d273a5074872d635dc40_cgraph_org.svg" target="_base">
           <rect id="button" ry="5" rx="5" y="6" x="6" height="38" width="38"
                fill="#f2f5e9" fill-opacity="0.5" stroke="#606060" stroke-width="1.0"/>
           <path id="arrow"
             d="M 11.500037,31.436501 C 11.940474,20.09759 22.043105,11.32322 32.158766,21.979434 L 37.068811,17.246167 C 37.068811,17.246167 37.088388,32 37.088388,32 L 22.160133,31.978069 C 22.160133,31.978069 26.997745,27.140456 26.997745,27.140456 C 18.528582,18.264221 13.291696,25.230495 11.500037,31.436501 z"
             style="fill:#404040;"/>
          </a>
         </g>
        </svg>
</svg>
