<?xml version="1.0" encoding="UTF-8" standalone="no"?>
<!DOCTYPE svg PUBLIC "-//W3C//DTD SVG 1.1//EN"
 "http://www.w3.org/Graphics/SVG/1.1/DTD/svg11.dtd">
<!-- Generated by graphviz version 2.40.1 (20161225.0304)
 -->
<!-- Title: Button::checkState Pages: 1 -->
<svg width="855pt" height="85pt"
 viewBox="0.00 0.00 855.00 85.00" xmlns="http://www.w3.org/2000/svg" xmlns:xlink="http://www.w3.org/1999/xlink">
<g id="graph0" class="graph" transform="scale(1 1) rotate(0) translate(4 81)">
<title>Button::checkState</title>
<!-- Node15 -->
<g id="node1" class="node">
<title>Node15</title>
<polygon fill="#bfbfbf" stroke="#000000" points="0,-19.5 0,-38.5 109,-38.5 109,-19.5 0,-19.5"/>
<text text-anchor="middle" x="54.5" y="-26.5" font-family="Helvetica,sans-Serif" font-size="10.00" fill="#000000">Button::checkState</text>
</g>
<!-- Node16 -->
<g id="node2" class="node">
<title>Node16</title>
<g id="a_node2"><a xlink:href="classUIManager.html#a23bbbe53c18c31ff1c68c105dfa0dbd3" target="_top" xlink:title="Callback function for toggling the visibility of an UiGroup Callback function for Ui Widgets with the...">
<polygon fill="none" stroke="#000000" points="145,-38.5 145,-57.5 323,-57.5 323,-38.5 145,-38.5"/>
<text text-anchor="middle" x="234" y="-45.5" font-family="Helvetica,sans-Serif" font-size="10.00" fill="#000000">UIManager::toggleGroupVisibility</text>
</a>
</g>
</g>
<!-- Node15&#45;&gt;Node16 -->
<g id="edge1" class="edge">
<title>Node15&#45;&gt;Node16</title>
<path fill="none" stroke="#191970" d="M119.5459,-35.8851C127.7545,-36.754 136.2621,-37.6545 144.7636,-38.5544"/>
<polygon fill="#191970" stroke="#191970" points="119.6442,-32.376 109.3313,-34.8039 118.9073,-39.3371 119.6442,-32.376"/>
</g>
<!-- Node22 -->
<g id="node8" class="node">
<title>Node22</title>
<g id="a_node8"><a xlink:href="classUIManager.html#aa78e356fc3b356d790c848319d1c387e" target="_top" xlink:title="UIManager::setCallbackFunctions">
<polygon fill="none" stroke="#000000" points="359,-.5 359,-19.5 537,-19.5 537,-.5 359,-.5"/>
<text text-anchor="middle" x="448" y="-7.5" font-family="Helvetica,sans-Serif" font-size="10.00" fill="#000000">UIManager::setCallbackFunctions</text>
</a>
</g>
</g>
<!-- Node15&#45;&gt;Node22 -->
<g id="edge8" class="edge">
<title>Node15&#45;&gt;Node22</title>
<path fill="none" stroke="#191970" d="M119.3877,-25.8669C184.7618,-22.7104 286.1235,-17.8161 358.9853,-14.298"/>
<polygon fill="#191970" stroke="#191970" points="119.034,-22.3798 109.2145,-26.3581 119.3717,-29.3717 119.034,-22.3798"/>
</g>
<!-- Node17 -->
<g id="node3" class="node">
<title>Node17</title>
<g id="a_node3"><a xlink:href="classEventManager.html#a65ec91fd5016d4f9c4167fb8babed2df" target="_top" xlink:title="EventManager::checkEvents">
<polygon fill="none" stroke="#000000" points="371,-38.5 371,-57.5 525,-57.5 525,-38.5 371,-38.5"/>
<text text-anchor="middle" x="448" y="-45.5" font-family="Helvetica,sans-Serif" font-size="10.00" fill="#000000">EventManager::checkEvents</text>
</a>
</g>
</g>
<!-- Node16&#45;&gt;Node17 -->
<g id="edge2" class="edge">
<title>Node16&#45;&gt;Node17</title>
<path fill="none" stroke="#191970" d="M333.2788,-48C345.8944,-48 358.6539,-48 370.851,-48"/>
<polygon fill="#191970" stroke="#191970" points="333.2057,-44.5001 323.2057,-48 333.2056,-51.5001 333.2057,-44.5001"/>
</g>
<!-- Node16&#45;&gt;Node22 -->
<g id="edge7" class="edge">
<title>Node16&#45;&gt;Node22</title>
<path fill="none" stroke="#191970" d="M297.9013,-36.653C328.6053,-31.2009 364.9942,-24.7393 394.2529,-19.5439"/>
<polygon fill="#191970" stroke="#191970" points="296.959,-33.2655 287.725,-38.46 298.1829,-40.1577 296.959,-33.2655"/>
</g>
<!-- Node18 -->
<g id="node4" class="node">
<title>Node18</title>
<g id="a_node4"><a xlink:href="classGame.html#a1c2ab25d5216b2f4b2fe41efd2c09114" target="_top" xlink:title="begins the game starts running the game ">
<polygon fill="none" stroke="#000000" points="573,-38.5 573,-57.5 641,-57.5 641,-38.5 573,-38.5"/>
<text text-anchor="middle" x="607" y="-45.5" font-family="Helvetica,sans-Serif" font-size="10.00" fill="#000000">Game::run</text>
</a>
</g>
</g>
<!-- Node17&#45;&gt;Node18 -->
<g id="edge3" class="edge">
<title>Node17&#45;&gt;Node18</title>
<path fill="none" stroke="#191970" d="M535.3849,-48C548.6982,-48 561.7136,-48 572.918,-48"/>
<polygon fill="#191970" stroke="#191970" points="535.1712,-44.5001 525.1712,-48 535.1712,-51.5001 535.1712,-44.5001"/>
</g>
<!-- Node19 -->
<g id="node5" class="node">
<title>Node19</title>
<g id="a_node5"><a xlink:href="classGame.html#ad59df6562a58a614fda24622d3715b65" target="_top" xlink:title="Game::Game">
<polygon fill="none" stroke="#000000" points="683,-57.5 683,-76.5 764,-76.5 764,-57.5 683,-57.5"/>
<text text-anchor="middle" x="723.5" y="-64.5" font-family="Helvetica,sans-Serif" font-size="10.00" fill="#000000">Game::Game</text>
</a>
</g>
</g>
<!-- Node18&#45;&gt;Node19 -->
<g id="edge4" class="edge">
<title>Node18&#45;&gt;Node19</title>
<path fill="none" stroke="#191970" d="M651.0985,-55.192C661.4513,-56.8805 672.439,-58.6725 682.6427,-60.3366"/>
<polygon fill="#191970" stroke="#191970" points="651.4428,-51.702 641.0098,-53.5467 650.316,-58.6107 651.4428,-51.702"/>
</g>
<!-- Node20 -->
<g id="node6" class="node">
<title>Node20</title>
<g id="a_node6"><a xlink:href="main_8cxx.html#af582d708d899e67ead623eac34a22387" target="_top" xlink:title="protected_main">
<polygon fill="none" stroke="#000000" points="677,-19.5 677,-38.5 770,-38.5 770,-19.5 677,-19.5"/>
<text text-anchor="middle" x="723.5" y="-26.5" font-family="Helvetica,sans-Serif" font-size="10.00" fill="#000000">protected_main</text>
</a>
</g>
</g>
<!-- Node18&#45;&gt;Node20 -->
<g id="edge5" class="edge">
<title>Node18&#45;&gt;Node20</title>
<path fill="none" stroke="#191970" d="M650.9884,-40.8259C659.382,-39.457 668.1965,-38.0195 676.6749,-36.6367"/>
<polygon fill="#191970" stroke="#191970" points="650.316,-37.3893 641.0098,-42.4533 651.4428,-44.298 650.316,-37.3893"/>
</g>
<!-- Node21 -->
<g id="node7" class="node">
<title>Node21</title>
<g id="a_node7"><a xlink:href="main_8cxx.html#a3c04138a5bfe5d72780bb7e82a18e627" target="_top" xlink:title="main">
<polygon fill="none" stroke="#000000" points="806,-19.5 806,-38.5 847,-38.5 847,-19.5 806,-19.5"/>
<text text-anchor="middle" x="826.5" y="-26.5" font-family="Helvetica,sans-Serif" font-size="10.00" fill="#000000">main</text>
</a>
</g>
</g>
<!-- Node20&#45;&gt;Node21 -->
<g id="edge6" class="edge">
<title>Node20&#45;&gt;Node21</title>
<path fill="none" stroke="#191970" d="M780.2133,-29C789.4322,-29 798.4259,-29 805.9965,-29"/>
<polygon fill="#191970" stroke="#191970" points="780.1782,-25.5001 770.1782,-29 780.1781,-32.5001 780.1782,-25.5001"/>
</g>
</g>
</svg>
