<?xml version="1.0" encoding="UTF-8" standalone="no"?>
<!DOCTYPE svg PUBLIC "-//W3C//DTD SVG 1.1//EN"
 "http://www.w3.org/Graphics/SVG/1.1/DTD/svg11.dtd">
<!-- Generated by graphviz version 2.40.1 (20161225.0304)
 -->
<!-- Title: Text::setText Pages: 1 -->
<svg width="401pt" height="39pt"
 viewBox="0.00 0.00 401.00 39.00" xmlns="http://www.w3.org/2000/svg" xmlns:xlink="http://www.w3.org/1999/xlink">
<g id="graph0" class="graph" transform="scale(1 1) rotate(0) translate(4 35)">
<title>Text::setText</title>
<!-- Node40 -->
<g id="node1" class="node">
<title>Node40</title>
<polygon fill="#bfbfbf" stroke="#000000" points="0,-6 0,-25 78,-25 78,-6 0,-6"/>
<text text-anchor="middle" x="39" y="-13" font-family="Helvetica,sans-Serif" font-size="10.00" fill="#000000">Text::setText</text>
</g>
<!-- Node41 -->
<g id="node2" class="node">
<title>Node41</title>
<g id="a_node2"><a xlink:href="classText.html#a3bf5a064fd37d06b8d3dc5a700556897" target="_top" xlink:title="Draws a text string to the screen Draws a text string to the screen. This could either be a standalon...">
<polygon fill="none" stroke="#000000" points="114,-6 114,-25 244,-25 244,-6 114,-6"/>
<text text-anchor="middle" x="179" y="-13" font-family="Helvetica,sans-Serif" font-size="10.00" fill="#000000">Text::createTextTexture</text>
</a>
</g>
</g>
<!-- Node40&#45;&gt;Node41 -->
<g id="edge1" class="edge">
<title>Node40&#45;&gt;Node41</title>
<path fill="none" stroke="#191970" d="M78.3704,-15.5C86.3341,-15.5 94.9567,-15.5 103.6902,-15.5"/>
<polygon fill="#191970" stroke="#191970" points="103.9607,-19.0001 113.9606,-15.5 103.9606,-12.0001 103.9607,-19.0001"/>
</g>
<!-- Node42 -->
<g id="node3" class="node">
<title>Node42</title>
<g id="a_node3"><a xlink:href="classSingleton.html#af5cb1e5749949e2b68416cfb8d378044" target="_top" xlink:title="Get an instance of the singleton. ">
<polygon fill="none" stroke="#000000" points="280,-.5 280,-30.5 393,-30.5 393,-.5 280,-.5"/>
<text text-anchor="start" x="288" y="-18.5" font-family="Helvetica,sans-Serif" font-size="10.00" fill="#000000">Singleton&lt; Settings</text>
<text text-anchor="middle" x="336.5" y="-7.5" font-family="Helvetica,sans-Serif" font-size="10.00" fill="#000000"> &gt;::instance</text>
</a>
</g>
</g>
<!-- Node41&#45;&gt;Node42 -->
<g id="edge2" class="edge">
<title>Node41&#45;&gt;Node42</title>
<path fill="none" stroke="#191970" d="M244.4259,-8.8366C252.7178,-8.7279 261.2128,-8.7215 269.5285,-8.8176"/>
<polygon fill="#191970" stroke="#191970" points="269.4999,-12.3175 279.5571,-8.9855 269.6172,-5.3185 269.4999,-12.3175"/>
</g>
<!-- Node41&#45;&gt;Node42 -->
<g id="edge3" class="edge">
<title>Node41&#45;&gt;Node42</title>
<path fill="none" stroke="#191970" d="M244.4259,-22.1634C252.7178,-22.2721 261.2128,-22.2785 269.5285,-22.1824"/>
<polygon fill="#191970" stroke="#191970" points="269.6172,-25.6815 279.5571,-22.0145 269.4999,-18.6825 269.6172,-25.6815"/>
</g>
</g>
</svg>
