<?xml version="1.0" encoding="UTF-8" standalone="no"?>
<!DOCTYPE svg PUBLIC "-//W3C//DTD SVG 1.1//EN"
 "http://www.w3.org/Graphics/SVG/1.1/DTD/svg11.dtd">
<!-- Generated by graphviz version 2.40.1 (20161225.0304)
 -->
<!-- Title: Engine::decreaseHeight Pages: 1 -->
<svg width="974pt" height="171pt"
 viewBox="0.00 0.00 974.00 170.50" xmlns="http://www.w3.org/2000/svg" xmlns:xlink="http://www.w3.org/1999/xlink">
<g id="graph0" class="graph" transform="scale(1 1) rotate(0) translate(4 166.5)">
<title>Engine::decreaseHeight</title>
<!-- Node6 -->
<g id="node1" class="node">
<title>Node6</title>
<polygon fill="#bfbfbf" stroke="#000000" points="0,-53 0,-72 132,-72 132,-53 0,-53"/>
<text text-anchor="middle" x="66" y="-60" font-family="Helvetica,sans-Serif" font-size="10.00" fill="#000000">Engine::decreaseHeight</text>
</g>
<!-- Node7 -->
<g id="node2" class="node">
<title>Node7</title>
<g id="a_node2"><a xlink:href="classMap.html#afb8cc864df90d273a5074872d635dc40" target="_top" xlink:title="Decrease Height Decreases the height of the node and checks the surrounding tiles. Either draw a slope sprite or lower the tile if necessary. ">
<polygon fill="none" stroke="#000000" points="168,-53 168,-72 287,-72 287,-53 168,-53"/>
<text text-anchor="middle" x="227.5" y="-60" font-family="Helvetica,sans-Serif" font-size="10.00" fill="#000000">Map::decreaseHeight</text>
</a>
</g>
</g>
<!-- Node6&#45;&gt;Node7 -->
<g id="edge1" class="edge">
<title>Node6&#45;&gt;Node7</title>
<path fill="none" stroke="#191970" d="M132.1542,-62.5C140.5767,-62.5 149.2183,-62.5 157.6959,-62.5"/>
<polygon fill="#191970" stroke="#191970" points="157.9297,-66.0001 167.9297,-62.5 157.9296,-59.0001 157.9297,-66.0001"/>
</g>
<!-- Node8 -->
<g id="node3" class="node">
<title>Node8</title>
<g id="a_node3"><a xlink:href="classMap.html#a05e7d896dc5062af07c9b838600a068d" target="_top" xlink:title="Demolish a node Invokes the tiles demolish function. ">
<polygon fill="none" stroke="#000000" points="323,-6 323,-25 436,-25 436,-6 323,-6"/>
<text text-anchor="middle" x="379.5" y="-13" font-family="Helvetica,sans-Serif" font-size="10.00" fill="#000000">Map::demolishNode</text>
</a>
</g>
</g>
<!-- Node7&#45;&gt;Node8 -->
<g id="edge2" class="edge">
<title>Node7&#45;&gt;Node8</title>
<path fill="none" stroke="#191970" d="M258.2595,-52.9888C281.4638,-45.8138 313.5147,-35.9034 338.8348,-28.0741"/>
<polygon fill="#191970" stroke="#191970" points="340.006,-31.3755 348.5258,-25.0776 337.9381,-24.6879 340.006,-31.3755"/>
</g>
<!-- Node9 -->
<g id="node4" class="node">
<title>Node9</title>
<g id="a_node4"><a xlink:href="classMap.html#a59d21f2688713fbcfe320eb1b24405ca" target="_top" xlink:title="Update mapNode and its adjacent tiles Updates mapNode height information, draws slopes for adjacent t...">
<polygon fill="none" stroke="#000000" points="472,-50 472,-69 635,-69 635,-50 472,-50"/>
<text text-anchor="middle" x="553.5" y="-57" font-family="Helvetica,sans-Serif" font-size="10.00" fill="#000000">Map::updateNeighborsOfNode</text>
</a>
</g>
</g>
<!-- Node7&#45;&gt;Node9 -->
<g id="edge13" class="edge">
<title>Node7&#45;&gt;Node9</title>
<path fill="none" stroke="#191970" d="M287.2934,-56.5857C336.0921,-54.6003 405.8557,-53.6992 461.7236,-54.2034"/>
<polygon fill="#191970" stroke="#191970" points="461.9484,-57.7059 471.9855,-54.314 462.0238,-50.7064 461.9484,-57.7059"/>
</g>
<!-- Node8&#45;&gt;Node9 -->
<g id="edge3" class="edge">
<title>Node8&#45;&gt;Node9</title>
<path fill="none" stroke="#191970" d="M436.4741,-23.528C465.6133,-30.149 499.8745,-39.1956 523.7675,-46.7507"/>
<polygon fill="#191970" stroke="#191970" points="522.7347,-50.0954 533.3274,-49.8859 524.9161,-43.4439 522.7347,-50.0954"/>
</g>
<!-- Node9&#45;&gt;Node7 -->
<g id="edge12" class="edge">
<title>Node9&#45;&gt;Node7</title>
<path fill="none" stroke="#191970" d="M471.9855,-66.1863C418.3185,-67.8501 348.7854,-68.3985 297.6,-67.5166"/>
<polygon fill="#191970" stroke="#191970" points="297.3604,-64.0113 287.2934,-67.3138 297.2226,-71.0099 297.3604,-64.0113"/>
</g>
<!-- Node9&#45;&gt;Node8 -->
<g id="edge6" class="edge">
<title>Node9&#45;&gt;Node8</title>
<path fill="none" stroke="#191970" d="M489.7508,-49.9105C462.2006,-43.4743 431.2933,-35.2252 409.2291,-28.2482"/>
<polygon fill="#191970" stroke="#191970" points="410.0528,-24.8349 399.46,-25.0413 407.8695,-31.4857 410.0528,-24.8349"/>
</g>
<!-- Node10 -->
<g id="node5" class="node">
<title>Node10</title>
<g id="a_node5"><a xlink:href="classMap.html#aab37e4a52faf81e9b696b8cf1bd9a690" target="_top" xlink:title="Get neighbor MapNode Objects Stores pointers to the neighboring nodes of the given coordinates in the...">
<polygon fill="none" stroke="#000000" points="690,-143 690,-162 798,-162 798,-143 690,-143"/>
<text text-anchor="middle" x="744" y="-150" font-family="Helvetica,sans-Serif" font-size="10.00" fill="#000000">Map::getNeighbors</text>
</a>
</g>
</g>
<!-- Node9&#45;&gt;Node10 -->
<g id="edge4" class="edge">
<title>Node9&#45;&gt;Node10</title>
<path fill="none" stroke="#191970" d="M565.8203,-69.079C586.4666,-84.6988 629.8462,-115.6949 671,-133.5 676.6791,-135.957 682.7486,-138.1543 688.871,-140.1041"/>
<polygon fill="#191970" stroke="#191970" points="687.9039,-143.4679 698.4868,-142.9659 689.9007,-136.7587 687.9039,-143.4679"/>
</g>
<!-- Node11 -->
<g id="node6" class="node">
<title>Node11</title>
<g id="a_node6"><a xlink:href="classMap.html#a0ff55eb041cdf29aa582a21145319ce0" target="_top" xlink:title="Get elevated neighbor positions in a bitmask Checks all neighboring tiles and returns the elevated ne...">
<polygon fill="none" stroke="#000000" points="671,-93.5 671,-123.5 817,-123.5 817,-93.5 671,-93.5"/>
<text text-anchor="start" x="679" y="-111.5" font-family="Helvetica,sans-Serif" font-size="10.00" fill="#000000">Map::getElevatedNeighbor</text>
<text text-anchor="middle" x="744" y="-100.5" font-family="Helvetica,sans-Serif" font-size="10.00" fill="#000000">Bitmask</text>
</a>
</g>
</g>
<!-- Node9&#45;&gt;Node11 -->
<g id="edge5" class="edge">
<title>Node9&#45;&gt;Node11</title>
<path fill="none" stroke="#191970" d="M590.6825,-69.064C614.8005,-75.2676 646.9504,-83.5371 675.5793,-90.901"/>
<polygon fill="#191970" stroke="#191970" points="674.9833,-94.3615 685.54,-93.463 676.7271,-87.5822 674.9833,-94.3615"/>
</g>
<!-- Node12 -->
<g id="node7" class="node">
<title>Node12</title>
<g id="a_node7"><a xlink:href="classMap.html#a392940f84796653b8e811ed8dc296c84" target="_top" xlink:title="Get a bitmask that represents same&#45;tile neighbors Checks all neighboring tiles and returns the elevat...">
<polygon fill="none" stroke="#000000" points="673.5,-44.5 673.5,-74.5 814.5,-74.5 814.5,-44.5 673.5,-44.5"/>
<text text-anchor="start" x="681.5" y="-62.5" font-family="Helvetica,sans-Serif" font-size="10.00" fill="#000000">Map::getNeighboringTiles</text>
<text text-anchor="middle" x="744" y="-51.5" font-family="Helvetica,sans-Serif" font-size="10.00" fill="#000000">Bitmask</text>
</a>
</g>
</g>
<!-- Node9&#45;&gt;Node12 -->
<g id="edge7" class="edge">
<title>Node9&#45;&gt;Node12</title>
<path fill="none" stroke="#191970" d="M635.1182,-59.5C644.4625,-59.5 653.9856,-59.5 663.3177,-59.5"/>
<polygon fill="#191970" stroke="#191970" points="663.3514,-63.0001 673.3514,-59.5 663.3514,-56.0001 663.3514,-63.0001"/>
</g>
<!-- Node13 -->
<g id="node8" class="node">
<title>Node13</title>
<g id="a_node8"><a xlink:href="classMap.html#aba5154a4d917900679a3c0f7ec701561" target="_top" xlink:title="Increase Height Increases the height of the node and checks the surrounding tiles. Either draw a slope sprite or elevate the tile if necessary. ">
<polygon fill="none" stroke="#000000" points="686,-6 686,-25 802,-25 802,-6 686,-6"/>
<text text-anchor="middle" x="744" y="-13" font-family="Helvetica,sans-Serif" font-size="10.00" fill="#000000">Map::increaseHeight</text>
</a>
</g>
</g>
<!-- Node9&#45;&gt;Node13 -->
<g id="edge8" class="edge">
<title>Node9&#45;&gt;Node13</title>
<path fill="none" stroke="#191970" d="M575.3528,-49.9587C599.8298,-42.2969 640.7146,-32.1862 676.0981,-24.687"/>
<polygon fill="#191970" stroke="#191970" points="676.8363,-28.1085 685.9139,-22.6453 675.4107,-21.2551 676.8363,-28.1085"/>
</g>
<!-- Node13&#45;&gt;Node8 -->
<g id="edge10" class="edge">
<title>Node13&#45;&gt;Node8</title>
<path fill="none" stroke="#191970" d="M685.8058,-15.5C620.5468,-15.5 514.8945,-15.5 446.3117,-15.5"/>
<polygon fill="#191970" stroke="#191970" points="446.0532,-12.0001 436.0532,-15.5 446.0532,-19.0001 446.0532,-12.0001"/>
</g>
<!-- Node13&#45;&gt;Node9 -->
<g id="edge11" class="edge">
<title>Node13&#45;&gt;Node9</title>
<path fill="none" stroke="#191970" d="M721.8824,-25.1241C700.0259,-31.9485 665.2737,-40.6925 633.0022,-47.8046"/>
<polygon fill="#191970" stroke="#191970" points="632.1146,-44.4157 623.0835,-49.9555 633.5981,-51.2567 632.1146,-44.4157"/>
</g>
<!-- Node14 -->
<g id="node9" class="node">
<title>Node14</title>
<g id="a_node9"><a xlink:href="classSingleton.html#af5cb1e5749949e2b68416cfb8d378044" target="_top" xlink:title="Get an instance of the singleton. ">
<polygon fill="none" stroke="#000000" points="853,-.5 853,-30.5 966,-30.5 966,-.5 853,-.5"/>
<text text-anchor="start" x="861" y="-18.5" font-family="Helvetica,sans-Serif" font-size="10.00" fill="#000000">Singleton&lt; Settings</text>
<text text-anchor="middle" x="909.5" y="-7.5" font-family="Helvetica,sans-Serif" font-size="10.00" fill="#000000"> &gt;::instance</text>
</a>
</g>
</g>
<!-- Node13&#45;&gt;Node14 -->
<g id="edge9" class="edge">
<title>Node13&#45;&gt;Node14</title>
<path fill="none" stroke="#191970" d="M802.3491,-15.5C815.4012,-15.5 829.3429,-15.5 842.7073,-15.5"/>
<polygon fill="#191970" stroke="#191970" points="842.7903,-19.0001 852.7903,-15.5 842.7903,-12.0001 842.7903,-19.0001"/>
</g>
</g>
</svg>
