<?xml version="1.0" encoding="UTF-8" standalone="no"?>
<!DOCTYPE svg PUBLIC "-//W3C//DTD SVG 1.1//EN"
 "http://www.w3.org/Graphics/SVG/1.1/DTD/svg11.dtd">
<!-- Generated by graphviz version 2.40.1 (20161225.0304)
 -->
<!-- Title: Engine::loadGame Pages: 1 -->
<!--zoomable 266 -->
<svg id="main" version="1.1" xmlns="http://www.w3.org/2000/svg" xmlns:xlink="http://www.w3.org/1999/xlink" xml:space="preserve" onload="init(evt)">
<style type="text/css"><![CDATA[
.edge:hover path { stroke: red; }
.edge:hover polygon { stroke: red; fill: red; }
]]></style>
<script type="text/javascript"><![CDATA[
var edges = document.getElementsByTagName('g');
if (edges && edges.length) {
  for (var i=0;i<edges.length;i++) {
    if (edges[i].id.substr(0,4)=='edge') {
      edges[i].setAttribute('class','edge');
    }
  }
}
]]></script>
        <defs>
                <circle id="rim" cx="0" cy="0" r="7"/>
                <circle id="rim2" cx="0" cy="0" r="3.5"/>
                <g id="zoomPlus">
                        <use xlink:href="#rim" fill="#404040">
                                <set attributeName="fill" to="#808080" begin="zoomplus.mouseover" end="zoomplus.mouseout"/>
                        </use>
                        <path d="M-4,0h8M0,-4v8" fill="none" stroke="white" stroke-width="1.5" pointer-events="none"/>
                </g>
                <g id="zoomMin">
                        <use xlink:href="#rim" fill="#404040">
                                <set attributeName="fill" to="#808080" begin="zoomminus.mouseover" end="zoomminus.mouseout"/>
                        </use>
                        <path d="M-4,0h8" fill="none" stroke="white" stroke-width="1.5" pointer-events="none"/>
                </g>
                <g id="dirArrow">
                        <path fill="none" stroke="white" stroke-width="1.5" d="M0,-3.0v7 M-2.5,-0.5L0,-3.0L2.5,-0.5"/>
                </g>
               <g id="resetDef">
                       <use xlink:href="#rim2" fill="#404040">
                               <set attributeName="fill" to="#808080" begin="reset.mouseover" end="reset.mouseout"/>
                       </use>
               </g>
        </defs>

<script type="text/javascript">
var viewWidth = 1129;
var viewHeight = 266;
var sectionId = 'dynsection-9';
</script>
<script xlink:href="svgpan.js"/>
<svg id="graph" class="graph">
<g id="viewport">
<title>Engine::loadGame</title>
<!-- Node62 -->
<g id="node1" class="node">
<title>Node62</title>
<polygon fill="#bfbfbf" stroke="#000000" points="0,-149 0,-168 106,-168 106,-149 0,-149"/>
<text text-anchor="middle" x="53" y="-156" font-family="Helvetica,sans-Serif" font-size="10.00" fill="#000000">Engine::loadGame</text>
</g>
<!-- Node63 -->
<g id="node2" class="node">
<title>Node63</title>
<g id="a_node2"><a xlink:href="classMap.html#afefe996cc1f62b61ec60d0ae415953bf" target="_top" xlink:title="Map::loadMapFromFile">
<polygon fill="none" stroke="#000000" points="142,-149 142,-168 267,-168 267,-149 142,-149"/>
<text text-anchor="middle" x="204.5" y="-156" font-family="Helvetica,sans-Serif" font-size="10.00" fill="#000000">Map::loadMapFromFile</text>
</a>
</g>
</g>
<!-- Node62&#45;&gt;Node63 -->
<g id="edge1" class="edge">
<title>Node62&#45;&gt;Node63</title>
<path fill="none" stroke="#191970" d="M106.4132,-158.5C114.6794,-158.5 123.3353,-158.5 131.9364,-158.5"/>
<polygon fill="#191970" stroke="#191970" points="131.9814,-162.0001 141.9814,-158.5 131.9814,-155.0001 131.9814,-162.0001"/>
</g>
<!-- Node64 -->
<g id="node3" class="node">
<title>Node64</title>
<g id="a_node3"><a xlink:href="compression_8hxx.html#a25f341059256700f2f3ffd62d8113956" target="_top" xlink:title="decompresses given string Decompresses a given string. ">
<polygon fill="none" stroke="#000000" points="303,-206 303,-225 407,-225 407,-206 303,-206"/>
<text text-anchor="middle" x="355" y="-213" font-family="Helvetica,sans-Serif" font-size="10.00" fill="#000000">decompressString</text>
</a>
</g>
</g>
<!-- Node63&#45;&gt;Node64 -->
<g id="edge2" class="edge">
<title>Node63&#45;&gt;Node64</title>
<path fill="none" stroke="#191970" d="M229.1463,-168.1486C249.0423,-175.9037 277.7763,-187.0272 303,-196.5 308.1738,-198.443 313.6468,-200.4718 319.0236,-202.4497"/>
<polygon fill="#191970" stroke="#191970" points="317.9187,-205.7723 328.5125,-205.9255 320.3265,-199.1994 317.9187,-205.7723"/>
</g>
<!-- Node65 -->
<g id="node4" class="node">
<title>Node65</title>
<g id="a_node4"><a xlink:href="classMap.html#a1197ab65e40dd20b891ba165471e3163" target="_top" xlink:title="Map::Map">
<polygon fill="none" stroke="#000000" points="323.5,-168 323.5,-187 386.5,-187 386.5,-168 323.5,-168"/>
<text text-anchor="middle" x="355" y="-175" font-family="Helvetica,sans-Serif" font-size="10.00" fill="#000000">Map::Map</text>
</a>
</g>
</g>
<!-- Node63&#45;&gt;Node65 -->
<g id="edge3" class="edge">
<title>Node63&#45;&gt;Node65</title>
<path fill="none" stroke="#191970" d="M267.0181,-166.3926C282.6151,-168.3617 298.9636,-170.4256 313.2777,-172.2327"/>
<polygon fill="#191970" stroke="#191970" points="312.9415,-175.718 323.3012,-173.4982 313.8183,-168.7731 312.9415,-175.718"/>
</g>
<!-- Node66 -->
<g id="node5" class="node">
<title>Node66</title>
<g id="a_node5"><a xlink:href="classMap.html#a482ac34426e8aa66abb46f60ec329402" target="_top" xlink:title="Initialize the Map with node objects Initialize the Map with node objects. ">
<polygon fill="none" stroke="#000000" points="315.5,-130 315.5,-149 394.5,-149 394.5,-130 315.5,-130"/>
<text text-anchor="middle" x="355" y="-137" font-family="Helvetica,sans-Serif" font-size="10.00" fill="#000000">Map::initMap</text>
</a>
</g>
</g>
<!-- Node63&#45;&gt;Node66 -->
<g id="edge4" class="edge">
<title>Node63&#45;&gt;Node66</title>
<path fill="none" stroke="#191970" d="M267.0181,-150.6074C279.7632,-148.9983 293.0102,-147.326 305.2388,-145.7821"/>
<polygon fill="#191970" stroke="#191970" points="305.7551,-149.2448 315.2379,-144.5198 304.8783,-142.3 305.7551,-149.2448"/>
</g>
<!-- Node70 -->
<g id="node9" class="node">
<title>Node70</title>
<g id="a_node9"><a xlink:href="classMap.html#a481b37ba71ef0e51e836fc42805762dd" target="_top" xlink:title="Update all mapNodes Updates all mapNode and its adjacent tiles regarding height information, draws slopes for adjacent tiles and sets tiling for mapNode sprite if applicable. ">
<polygon fill="none" stroke="#000000" points="457,-88 457,-107 577,-107 577,-88 457,-88"/>
<text text-anchor="middle" x="517" y="-95" font-family="Helvetica,sans-Serif" font-size="10.00" fill="#000000">Map::updateAllNodes</text>
</a>
</g>
</g>
<!-- Node63&#45;&gt;Node70 -->
<g id="edge22" class="edge">
<title>Node63&#45;&gt;Node70</title>
<path fill="none" stroke="#191970" d="M224.7511,-148.8857C244.3212,-140.0316 275.0319,-127.274 303,-120.5 350.1383,-109.0828 404.4896,-103.3305 446.6217,-100.4337"/>
<polygon fill="#191970" stroke="#191970" points="447.0312,-103.9146 456.7833,-99.7738 446.5775,-96.9293 447.0312,-103.9146"/>
</g>
<!-- Node67 -->
<g id="node6" class="node">
<title>Node67</title>
<g id="a_node6"><a xlink:href="classMapLayers.html#a54ce1eeef2a8998a728ac7074efe8787" target="_top" xlink:title="Enable Drawing Layer Enable Drawing Layer (use bitwise OR to add layer) ">
<polygon fill="none" stroke="#000000" points="449.5,-176 449.5,-195 584.5,-195 584.5,-176 449.5,-176"/>
<text text-anchor="middle" x="517" y="-183" font-family="Helvetica,sans-Serif" font-size="10.00" fill="#000000">MapLayers::enableLayer</text>
</a>
</g>
</g>
<!-- Node66&#45;&gt;Node67 -->
<g id="edge5" class="edge">
<title>Node66&#45;&gt;Node67</title>
<path fill="none" stroke="#191970" d="M385.037,-149.0937C401.9975,-154.4156 423.6182,-161.0416 443,-166.5 451.2588,-168.8259 460.0688,-171.1895 468.624,-173.4232"/>
<polygon fill="#191970" stroke="#191970" points="467.9442,-176.8625 478.5018,-175.9758 469.6956,-170.0851 467.9442,-176.8625"/>
</g>
<!-- Node68 -->
<g id="node7" class="node">
<title>Node68</title>
<g id="a_node7"><a xlink:href="classTerrainGenerator.html#adcc251757a1f3a06471a49f17886b8ce" target="_top" xlink:title="TerrainGenerator::generate\lTerrain">
<polygon fill="none" stroke="#000000" points="443,-126.5 443,-156.5 591,-156.5 591,-126.5 443,-126.5"/>
<text text-anchor="start" x="451" y="-144.5" font-family="Helvetica,sans-Serif" font-size="10.00" fill="#000000">TerrainGenerator::generate</text>
<text text-anchor="middle" x="517" y="-133.5" font-family="Helvetica,sans-Serif" font-size="10.00" fill="#000000">Terrain</text>
</a>
</g>
</g>
<!-- Node66&#45;&gt;Node68 -->
<g id="edge6" class="edge">
<title>Node66&#45;&gt;Node68</title>
<path fill="none" stroke="#191970" d="M394.6297,-139.9893C406.2742,-140.133 419.4781,-140.296 432.7975,-140.4605"/>
<polygon fill="#191970" stroke="#191970" points="432.9392,-143.9624 442.9817,-140.5862 433.0257,-136.9629 432.9392,-143.9624"/>
</g>
<!-- Node66&#45;&gt;Node70 -->
<g id="edge8" class="edge">
<title>Node66&#45;&gt;Node70</title>
<path fill="none" stroke="#191970" d="M391.3834,-129.9531C407.2343,-125.8036 426.0321,-120.8957 443,-116.5 451.6761,-114.2524 460.9275,-111.8676 469.8462,-109.5746"/>
<polygon fill="#191970" stroke="#191970" points="470.9109,-112.9148 479.7258,-107.037 469.1694,-106.1349 470.9109,-112.9148"/>
</g>
<!-- Node69 -->
<g id="node8" class="node">
<title>Node69</title>
<g id="a_node8"><a xlink:href="classTerrainGenerator.html#ac94cfaeb9dc89453018399361da5174a" target="_top" xlink:title="TerrainGenerator::loadTerrain\lDataFromJSON">
<polygon fill="none" stroke="#000000" points="629.5,-126.5 629.5,-156.5 787.5,-156.5 787.5,-126.5 629.5,-126.5"/>
<text text-anchor="start" x="637.5" y="-144.5" font-family="Helvetica,sans-Serif" font-size="10.00" fill="#000000">TerrainGenerator::loadTerrain</text>
<text text-anchor="middle" x="708.5" y="-133.5" font-family="Helvetica,sans-Serif" font-size="10.00" fill="#000000">DataFromJSON</text>
</a>
</g>
</g>
<!-- Node68&#45;&gt;Node69 -->
<g id="edge7" class="edge">
<title>Node68&#45;&gt;Node69</title>
<path fill="none" stroke="#191970" d="M591.0389,-141.5C600.2368,-141.5 609.7168,-141.5 619.1147,-141.5"/>
<polygon fill="#191970" stroke="#191970" points="619.263,-145.0001 629.263,-141.5 619.2629,-138.0001 619.263,-145.0001"/>
</g>
<!-- Node71 -->
<g id="node10" class="node">
<title>Node71</title>
<g id="a_node10"><a xlink:href="classMap.html#a59d21f2688713fbcfe320eb1b24405ca" target="_top" xlink:title="Update mapNode and its adjacent tiles Updates mapNode height information, draws slopes for adjacent t...">
<polygon fill="none" stroke="#000000" points="627,-88 627,-107 790,-107 790,-88 627,-88"/>
<text text-anchor="middle" x="708.5" y="-95" font-family="Helvetica,sans-Serif" font-size="10.00" fill="#000000">Map::updateNeighborsOfNode</text>
</a>
</g>
</g>
<!-- Node70&#45;&gt;Node71 -->
<g id="edge9" class="edge">
<title>Node70&#45;&gt;Node71</title>
<path fill="none" stroke="#191970" d="M577.0664,-97.5C589.6532,-97.5 603.2,-97.5 616.6442,-97.5"/>
<polygon fill="#191970" stroke="#191970" points="616.8876,-101.0001 626.8876,-97.5 616.8875,-94.0001 616.8876,-101.0001"/>
</g>
<!-- Node72 -->
<g id="node11" class="node">
<title>Node72</title>
<g id="a_node11"><a xlink:href="classMap.html#aab37e4a52faf81e9b696b8cf1bd9a690" target="_top" xlink:title="Get neighbor MapNode Objects Stores pointers to the neighboring nodes of the given coordinates in the...">
<polygon fill="none" stroke="#000000" points="845,-238 845,-257 953,-257 953,-238 845,-238"/>
<text text-anchor="middle" x="899" y="-245" font-family="Helvetica,sans-Serif" font-size="10.00" fill="#000000">Map::getNeighbors</text>
</a>
</g>
</g>
<!-- Node71&#45;&gt;Node72 -->
<g id="edge10" class="edge">
<title>Node71&#45;&gt;Node72</title>
<path fill="none" stroke="#191970" d="M775.9187,-107.036C781.0435,-109.5506 785.8326,-112.6609 790,-116.5 828.4554,-151.9261 788.0009,-192.5849 826,-228.5 828.9147,-231.2549 832.1768,-233.6225 835.6614,-235.6562"/>
<polygon fill="#191970" stroke="#191970" points="834.1863,-238.8307 844.7104,-240.0537 837.246,-232.5348 834.1863,-238.8307"/>
</g>
<!-- Node73 -->
<g id="node12" class="node">
<title>Node73</title>
<g id="a_node12"><a xlink:href="classMap.html#a0ff55eb041cdf29aa582a21145319ce0" target="_top" xlink:title="Get elevated neighbor positions in a bitmask Checks all neighboring tiles and returns the elevated ne...">
<polygon fill="none" stroke="#000000" points="826,-188.5 826,-218.5 972,-218.5 972,-188.5 826,-188.5"/>
<text text-anchor="start" x="834" y="-206.5" font-family="Helvetica,sans-Serif" font-size="10.00" fill="#000000">Map::getElevatedNeighbor</text>
<text text-anchor="middle" x="899" y="-195.5" font-family="Helvetica,sans-Serif" font-size="10.00" fill="#000000">Bitmask</text>
</a>
</g>
</g>
<!-- Node71&#45;&gt;Node73 -->
<g id="edge11" class="edge">
<title>Node71&#45;&gt;Node73</title>
<path fill="none" stroke="#191970" d="M772.0572,-107.0601C778.4336,-109.5312 784.5539,-112.6263 790,-116.5 814.4165,-133.867 803.058,-154.2272 826,-173.5 830.5703,-177.3394 835.699,-180.7408 841.0638,-183.7421"/>
<polygon fill="#191970" stroke="#191970" points="839.7585,-187.005 850.2581,-188.4221 842.9339,-180.7666 839.7585,-187.005"/>
</g>
<!-- Node74 -->
<g id="node13" class="node">
<title>Node74</title>
<g id="a_node13"><a xlink:href="classMap.html#a05e7d896dc5062af07c9b838600a068d" target="_top" xlink:title="Demolish a node Invokes the tiles demolish function. ">
<polygon fill="none" stroke="#000000" points="1008,-95 1008,-114 1121,-114 1121,-95 1008,-95"/>
<text text-anchor="middle" x="1064.5" y="-102" font-family="Helvetica,sans-Serif" font-size="10.00" fill="#000000">Map::demolishNode</text>
</a>
</g>
</g>
<!-- Node71&#45;&gt;Node74 -->
<g id="edge12" class="edge">
<title>Node71&#45;&gt;Node74</title>
<path fill="none" stroke="#191970" d="M787.4876,-107.0146C800.296,-109.2247 813.4675,-111.2332 826,-112.5 890.5599,-119.026 907.3789,-118.3888 972,-112.5 980.4149,-111.7332 989.2075,-110.5817 997.8814,-109.3067"/>
<polygon fill="#191970" stroke="#191970" points="998.6204,-112.7346 1007.9795,-107.769 997.5665,-105.8144 998.6204,-112.7346"/>
</g>
<!-- Node75 -->
<g id="node14" class="node">
<title>Node75</title>
<g id="a_node14"><a xlink:href="classMap.html#a392940f84796653b8e811ed8dc296c84" target="_top" xlink:title="Get a bitmask that represents same&#45;tile neighbors Checks all neighboring tiles and returns the elevat...">
<polygon fill="none" stroke="#000000" points="828.5,-82.5 828.5,-112.5 969.5,-112.5 969.5,-82.5 828.5,-82.5"/>
<text text-anchor="start" x="836.5" y="-100.5" font-family="Helvetica,sans-Serif" font-size="10.00" fill="#000000">Map::getNeighboringTiles</text>
<text text-anchor="middle" x="899" y="-89.5" font-family="Helvetica,sans-Serif" font-size="10.00" fill="#000000">Bitmask</text>
</a>
</g>
</g>
<!-- Node71&#45;&gt;Node75 -->
<g id="edge14" class="edge">
<title>Node71&#45;&gt;Node75</title>
<path fill="none" stroke="#191970" d="M790.1182,-97.5C799.4625,-97.5 808.9856,-97.5 818.3177,-97.5"/>
<polygon fill="#191970" stroke="#191970" points="818.3514,-101.0001 828.3514,-97.5 818.3514,-94.0001 818.3514,-101.0001"/>
</g>
<!-- Node76 -->
<g id="node15" class="node">
<title>Node76</title>
<g id="a_node15"><a xlink:href="classMap.html#aba5154a4d917900679a3c0f7ec701561" target="_top" xlink:title="Increase Height Increases the height of the node and checks the surrounding tiles. Either draw a slope sprite or elevate the tile if necessary. ">
<polygon fill="none" stroke="#000000" points="841,-6 841,-25 957,-25 957,-6 841,-6"/>
<text text-anchor="middle" x="899" y="-13" font-family="Helvetica,sans-Serif" font-size="10.00" fill="#000000">Map::increaseHeight</text>
</a>
</g>
</g>
<!-- Node71&#45;&gt;Node76 -->
<g id="edge15" class="edge">
<title>Node71&#45;&gt;Node76</title>
<path fill="none" stroke="#191970" d="M716.1676,-87.9713C734.4762,-71.9203 782.4658,-42.5555 826,-25.5 827.6347,-24.8596 829.2984,-24.2341 830.9835,-23.6251"/>
<polygon fill="#191970" stroke="#191970" points="832.4489,-26.8253 840.8172,-20.3273 830.2232,-20.1886 832.4489,-26.8253"/>
</g>
<!-- Node78 -->
<g id="node17" class="node">
<title>Node78</title>
<g id="a_node17"><a xlink:href="classMap.html#afb8cc864df90d273a5074872d635dc40" target="_top" xlink:title="Decrease Height Decreases the height of the node and checks the surrounding tiles. Either draw a slope sprite or lower the tile if necessary. ">
<polygon fill="none" stroke="#000000" points="839.5,-44 839.5,-63 958.5,-63 958.5,-44 839.5,-44"/>
<text text-anchor="middle" x="899" y="-51" font-family="Helvetica,sans-Serif" font-size="10.00" fill="#000000">Map::decreaseHeight</text>
</a>
</g>
</g>
<!-- Node71&#45;&gt;Node78 -->
<g id="edge19" class="edge">
<title>Node71&#45;&gt;Node78</title>
<path fill="none" stroke="#191970" d="M730.3528,-87.9587C754.3694,-80.441 794.1824,-70.5657 829.0957,-63.1129"/>
<polygon fill="#191970" stroke="#191970" points="830.2018,-66.4573 839.2718,-60.9813 828.7666,-59.606 830.2018,-66.4573"/>
</g>
<!-- Node74&#45;&gt;Node71 -->
<g id="edge13" class="edge">
<title>Node74&#45;&gt;Node71</title>
<path fill="none" stroke="#191970" d="M1050.506,-114.1163C1032.484,-121.0741 1000.1308,-127.9365 972,-130.5 907.3789,-136.3888 890.5599,-137.026 826,-130.5 792.9783,-127.162 755.5209,-118.6751 731.9562,-110.573"/>
<polygon fill="#191970" stroke="#191970" points="733.0591,-107.2487 722.4668,-107.0193 730.6041,-113.8041 733.0591,-107.2487"/>
</g>
<!-- Node76&#45;&gt;Node71 -->
<g id="edge18" class="edge">
<title>Node76&#45;&gt;Node71</title>
<path fill="none" stroke="#191970" d="M884.1329,-25.0899C869.1478,-30.3456 845.5096,-35.8567 826,-43.5 797.3978,-54.7055 766.8725,-71.2245 744.105,-83.2821"/>
<polygon fill="#191970" stroke="#191970" points="742.3826,-80.2334 735.1616,-87.9864 745.6413,-86.4287 742.3826,-80.2334"/>
</g>
<!-- Node76&#45;&gt;Node74 -->
<g id="edge17" class="edge">
<title>Node76&#45;&gt;Node74</title>
<path fill="none" stroke="#191970" d="M946.7051,-25.0206C955.3407,-27.5491 964.1039,-30.6739 972,-34.5 1000.6578,-48.3864 1029.204,-71.8248 1046.8429,-87.7172"/>
<polygon fill="#191970" stroke="#191970" points="1044.8506,-90.6404 1054.5785,-94.8378 1049.5914,-85.4901 1044.8506,-90.6404"/>
</g>
<!-- Node77 -->
<g id="node16" class="node">
<title>Node77</title>
<g id="a_node16"><a xlink:href="classSingleton.html#af5cb1e5749949e2b68416cfb8d378044" target="_top" xlink:title="Get an instance of the singleton. ">
<polygon fill="none" stroke="#000000" points="1008,-.5 1008,-30.5 1121,-30.5 1121,-.5 1008,-.5"/>
<text text-anchor="start" x="1016" y="-18.5" font-family="Helvetica,sans-Serif" font-size="10.00" fill="#000000">Singleton&lt; Settings</text>
<text text-anchor="middle" x="1064.5" y="-7.5" font-family="Helvetica,sans-Serif" font-size="10.00" fill="#000000"> &gt;::instance</text>
</a>
</g>
</g>
<!-- Node76&#45;&gt;Node77 -->
<g id="edge16" class="edge">
<title>Node76&#45;&gt;Node77</title>
<path fill="none" stroke="#191970" d="M957.3491,-15.5C970.4012,-15.5 984.3429,-15.5 997.7073,-15.5"/>
<polygon fill="#191970" stroke="#191970" points="997.7903,-19.0001 1007.7903,-15.5 997.7903,-12.0001 997.7903,-19.0001"/>
</g>
<!-- Node78&#45;&gt;Node71 -->
<g id="edge21" class="edge">
<title>Node78&#45;&gt;Node71</title>
<path fill="none" stroke="#191970" d="M876.8824,-63.1241C855.0259,-69.9485 820.2737,-78.6925 788.0022,-85.8046"/>
<polygon fill="#191970" stroke="#191970" points="787.1146,-82.4157 778.0835,-87.9555 788.5981,-89.2567 787.1146,-82.4157"/>
</g>
<!-- Node78&#45;&gt;Node74 -->
<g id="edge20" class="edge">
<title>Node78&#45;&gt;Node74</title>
<path fill="none" stroke="#191970" d="M938.1799,-63.094C949.1709,-65.9487 961.095,-69.2001 972,-72.5 991.0345,-78.2599 1011.9972,-85.4411 1029.147,-91.5404"/>
<polygon fill="#191970" stroke="#191970" points="1028.1661,-94.9068 1038.7606,-94.9876 1030.5289,-88.3176 1028.1661,-94.9068"/>
</g>
</g>
</svg>
        <g id="navigator" transform="translate(0 0)" fill="#404254">
                <rect fill="#f2f5e9" fill-opacity="0.5" stroke="#606060" stroke-width=".5" x="0" y="0" width="60" height="60"/>
                <use id="zoomplus" xlink:href="#zoomPlus" x="17" y="9" onmousedown="handleZoom(evt,'in')"/>
                <use id="zoomminus" xlink:href="#zoomMin" x="42" y="9" onmousedown="handleZoom(evt,'out')"/>
                <use id="reset" xlink:href="#resetDef" x="30" y="36" onmousedown="handleReset()"/>
                <g id="arrowUp" xlink:href="#dirArrow" transform="translate(30 24)" onmousedown="handlePan(0,-1)">
                  <use xlink:href="#rim" fill="#404040">
                        <set attributeName="fill" to="#808080" begin="arrowUp.mouseover" end="arrowUp.mouseout"/>
                  </use>
                  <path fill="none" stroke="white" stroke-width="1.5" d="M0,-3.0v7 M-2.5,-0.5L0,-3.0L2.5,-0.5"/>
                </g>
                <g id="arrowRight" xlink:href="#dirArrow" transform="rotate(90) translate(36 -43)" onmousedown="handlePan(1,0)">
                  <use xlink:href="#rim" fill="#404040">
                        <set attributeName="fill" to="#808080" begin="arrowRight.mouseover" end="arrowRight.mouseout"/>
                  </use>
                  <path fill="none" stroke="white" stroke-width="1.5" d="M0,-3.0v7 M-2.5,-0.5L0,-3.0L2.5,-0.5"/>
                </g>
                <g id="arrowDown" xlink:href="#dirArrow" transform="rotate(180) translate(-30 -48)" onmousedown="handlePan(0,1)">
                  <use xlink:href="#rim" fill="#404040">
                        <set attributeName="fill" to="#808080" begin="arrowDown.mouseover" end="arrowDown.mouseout"/>
                  </use>
                  <path fill="none" stroke="white" stroke-width="1.5" d="M0,-3.0v7 M-2.5,-0.5L0,-3.0L2.5,-0.5"/>
                </g>
                <g id="arrowLeft" xlink:href="#dirArrow" transform="rotate(270) translate(-36 17)" onmousedown="handlePan(-1,0)">
                  <use xlink:href="#rim" fill="#404040">
                        <set attributeName="fill" to="#808080" begin="arrowLeft.mouseover" end="arrowLeft.mouseout"/>
                  </use>
                  <path fill="none" stroke="white" stroke-width="1.5" d="M0,-3.0v7 M-2.5,-0.5L0,-3.0L2.5,-0.5"/>
                </g>
        </g>
        <svg viewBox="0 0 15 15" width="100%" height="30px" preserveAspectRatio="xMaxYMin meet">
         <g id="arrow_out" transform="scale(0.3 0.3)">
          <a xlink:href="classEngine_a83b7dbeee899b36a13d5b07c7ad87ebc_cgraph_org.svg" target="_base">
           <rect id="button" ry="5" rx="5" y="6" x="6" height="38" width="38"
                fill="#f2f5e9" fill-opacity="0.5" stroke="#606060" stroke-width="1.0"/>
           <path id="arrow"
             d="M 11.500037,31.436501 C 11.940474,20.09759 22.043105,11.32322 32.158766,21.979434 L 37.068811,17.246167 C 37.068811,17.246167 37.088388,32 37.088388,32 L 22.160133,31.978069 C 22.160133,31.978069 26.997745,27.140456 26.997745,27.140456 C 18.528582,18.264221 13.291696,25.230495 11.500037,31.436501 z"
             style="fill:#404040;"/>
          </a>
         </g>
        </svg>
</svg>
