<?xml version="1.0" encoding="UTF-8" standalone="no"?>
<!DOCTYPE svg PUBLIC "-//W3C//DTD SVG 1.1//EN"
 "http://www.w3.org/Graphics/SVG/1.1/DTD/svg11.dtd">
<!-- Generated by graphviz version 2.40.1 (20161225.0304)
 -->
<!-- Title: AudioMixer::onTrackFinished Pages: 1 -->
<svg width="513pt" height="28pt"
 viewBox="0.00 0.00 513.00 28.00" xmlns="http://www.w3.org/2000/svg" xmlns:xlink="http://www.w3.org/1999/xlink">
<g id="graph0" class="graph" transform="scale(1 1) rotate(0) translate(4 24)">
<title>AudioMixer::onTrackFinished</title>
<!-- Node38 -->
<g id="node1" class="node">
<title>Node38</title>
<polygon fill="#bfbfbf" stroke="#000000" points="0,-.5 0,-19.5 155,-19.5 155,-.5 0,-.5"/>
<text text-anchor="middle" x="77.5" y="-7.5" font-family="Helvetica,sans-Serif" font-size="10.00" fill="#000000">AudioMixer::onTrackFinished</text>
</g>
<!-- Node39 -->
<g id="node2" class="node">
<title>Node39</title>
<g id="a_node2"><a xlink:href="classAudioMixer.html#a8768f4604c540f6e4730cce4ed7a85d0" target="_top" xlink:title="Loads all game sounds, can be called in new thread. ">
<polygon fill="none" stroke="#000000" points="191,-.5 191,-19.5 337,-19.5 337,-.5 191,-.5"/>
<text text-anchor="middle" x="264" y="-7.5" font-family="Helvetica,sans-Serif" font-size="10.00" fill="#000000">AudioMixer::loadAllSounds</text>
</a>
</g>
</g>
<!-- Node38&#45;&gt;Node39 -->
<g id="edge1" class="edge">
<title>Node38&#45;&gt;Node39</title>
<path fill="none" stroke="#191970" d="M165.2568,-10C173.8268,-10 182.4588,-10 190.8621,-10"/>
<polygon fill="#191970" stroke="#191970" points="165.2423,-6.5001 155.2423,-10 165.2423,-13.5001 165.2423,-6.5001"/>
</g>
<!-- Node40 -->
<g id="node3" class="node">
<title>Node40</title>
<g id="a_node3"><a xlink:href="classAudioMixer.html#add40bb51b99554f0408efe1630bf983d" target="_top" xlink:title="AudioMixer::AudioMixer">
<polygon fill="none" stroke="#000000" points="373,-.5 373,-19.5 505,-19.5 505,-.5 373,-.5"/>
<text text-anchor="middle" x="439" y="-7.5" font-family="Helvetica,sans-Serif" font-size="10.00" fill="#000000">AudioMixer::AudioMixer</text>
</a>
</g>
</g>
<!-- Node39&#45;&gt;Node40 -->
<g id="edge2" class="edge">
<title>Node39&#45;&gt;Node40</title>
<path fill="none" stroke="#191970" d="M347.224,-10C355.7997,-10 364.4304,-10 372.7854,-10"/>
<polygon fill="#191970" stroke="#191970" points="347.2018,-6.5001 337.2018,-10 347.2017,-13.5001 347.2018,-6.5001"/>
</g>
</g>
</svg>
