<?xml version="1.0" encoding="UTF-8" standalone="no"?>
<!DOCTYPE svg PUBLIC "-//W3C//DTD SVG 1.1//EN"
 "http://www.w3.org/Graphics/SVG/1.1/DTD/svg11.dtd">
<!-- Generated by graphviz version 2.40.1 (20161225.0304)
 -->
<!-- Title: MapLayers::enableLayer Pages: 1 -->
<!--zoomable 251 -->
<svg id="main" version="1.1" xmlns="http://www.w3.org/2000/svg" xmlns:xlink="http://www.w3.org/1999/xlink" xml:space="preserve" onload="init(evt)">
<style type="text/css"><![CDATA[
.edge:hover path { stroke: red; }
.edge:hover polygon { stroke: red; fill: red; }
]]></style>
<script type="text/javascript"><![CDATA[
var edges = document.getElementsByTagName('g');
if (edges && edges.length) {
  for (var i=0;i<edges.length;i++) {
    if (edges[i].id.substr(0,4)=='edge') {
      edges[i].setAttribute('class','edge');
    }
  }
}
]]></script>
        <defs>
                <circle id="rim" cx="0" cy="0" r="7"/>
                <circle id="rim2" cx="0" cy="0" r="3.5"/>
                <g id="zoomPlus">
                        <use xlink:href="#rim" fill="#404040">
                                <set attributeName="fill" to="#808080" begin="zoomplus.mouseover" end="zoomplus.mouseout"/>
                        </use>
                        <path d="M-4,0h8M0,-4v8" fill="none" stroke="white" stroke-width="1.5" pointer-events="none"/>
                </g>
                <g id="zoomMin">
                        <use xlink:href="#rim" fill="#404040">
                                <set attributeName="fill" to="#808080" begin="zoomminus.mouseover" end="zoomminus.mouseout"/>
                        </use>
                        <path d="M-4,0h8" fill="none" stroke="white" stroke-width="1.5" pointer-events="none"/>
                </g>
                <g id="dirArrow">
                        <path fill="none" stroke="white" stroke-width="1.5" d="M0,-3.0v7 M-2.5,-0.5L0,-3.0L2.5,-0.5"/>
                </g>
               <g id="resetDef">
                       <use xlink:href="#rim2" fill="#404040">
                               <set attributeName="fill" to="#808080" begin="reset.mouseover" end="reset.mouseout"/>
                       </use>
               </g>
        </defs>

<script type="text/javascript">
var viewWidth = 1274;
var viewHeight = 251;
var sectionId = 'dynsection-3';
</script>
<script xlink:href="svgpan.js"/>
<svg id="graph" class="graph">
<g id="viewport">
<title>MapLayers::enableLayer</title>
<!-- Node37 -->
<g id="node1" class="node">
<title>Node37</title>
<polygon fill="#bfbfbf" stroke="#000000" points="0,-95.5 0,-114.5 135,-114.5 135,-95.5 0,-95.5"/>
<text text-anchor="middle" x="67.5" y="-102.5" font-family="Helvetica,sans-Serif" font-size="10.00" fill="#000000">MapLayers::enableLayer</text>
</g>
<!-- Node38 -->
<g id="node2" class="node">
<title>Node38</title>
<g id="a_node2"><a xlink:href="classMap.html#a482ac34426e8aa66abb46f60ec329402" target="_top" xlink:title="Initialize the Map with node objects Initialize the Map with node objects. ">
<polygon fill="none" stroke="#000000" points="171,-95.5 171,-114.5 250,-114.5 250,-95.5 171,-95.5"/>
<text text-anchor="middle" x="210.5" y="-102.5" font-family="Helvetica,sans-Serif" font-size="10.00" fill="#000000">Map::initMap</text>
</a>
</g>
</g>
<!-- Node37&#45;&gt;Node38 -->
<g id="edge1" class="edge">
<title>Node37&#45;&gt;Node38</title>
<path fill="none" stroke="#191970" d="M145.4672,-105C154.163,-105 162.7303,-105 170.6487,-105"/>
<polygon fill="#191970" stroke="#191970" points="145.2311,-101.5001 135.231,-105 145.231,-108.5001 145.2311,-101.5001"/>
</g>
<!-- Node39 -->
<g id="node3" class="node">
<title>Node39</title>
<g id="a_node3"><a xlink:href="classEngine.html#a260d4834150eae6eec2bde34df6dc827" target="_top" xlink:title="Creates a new game Creates a new game. ">
<polygon fill="none" stroke="#000000" points="456,-190.5 456,-209.5 561,-209.5 561,-190.5 456,-190.5"/>
<text text-anchor="middle" x="508.5" y="-197.5" font-family="Helvetica,sans-Serif" font-size="10.00" fill="#000000">Engine::newGame</text>
</a>
</g>
</g>
<!-- Node38&#45;&gt;Node39 -->
<g id="edge2" class="edge">
<title>Node38&#45;&gt;Node39</title>
<path fill="none" stroke="#191970" d="M250.012,-117.5961C310.4411,-136.8604 424.4896,-173.2182 478.5821,-190.4624"/>
<polygon fill="#191970" stroke="#191970" points="251.0285,-114.2467 240.4378,-114.5439 248.9023,-120.916 251.0285,-114.2467"/>
</g>
<!-- Node47 -->
<g id="node11" class="node">
<title>Node47</title>
<g id="a_node11"><a xlink:href="classMap.html#afefe996cc1f62b61ec60d0ae415953bf" target="_top" xlink:title="Map::loadMapFromFile">
<polygon fill="none" stroke="#000000" points="286,-76.5 286,-95.5 411,-95.5 411,-76.5 286,-76.5"/>
<text text-anchor="middle" x="348.5" y="-83.5" font-family="Helvetica,sans-Serif" font-size="10.00" fill="#000000">Map::loadMapFromFile</text>
</a>
</g>
</g>
<!-- Node38&#45;&gt;Node47 -->
<g id="edge13" class="edge">
<title>Node38&#45;&gt;Node47</title>
<path fill="none" stroke="#191970" d="M259.9946,-98.1855C268.3506,-97.0351 277.1224,-95.8274 285.7621,-94.6378"/>
<polygon fill="#191970" stroke="#191970" points="259.4744,-94.724 250.0453,-99.5554 260.4292,-101.6586 259.4744,-94.724"/>
</g>
<!-- Node40 -->
<g id="node4" class="node">
<title>Node40</title>
<g id="a_node4"><a xlink:href="classEngine.html#af7de8d74b0cfacaf06df53e7caf11538" target="_top" xlink:title="Engine::saveGame">
<polygon fill="none" stroke="#000000" points="620,-190.5 620,-209.5 728,-209.5 728,-190.5 620,-190.5"/>
<text text-anchor="middle" x="674" y="-197.5" font-family="Helvetica,sans-Serif" font-size="10.00" fill="#000000">Engine::saveGame</text>
</a>
</g>
</g>
<!-- Node39&#45;&gt;Node40 -->
<g id="edge3" class="edge">
<title>Node39&#45;&gt;Node40</title>
<path fill="none" stroke="#191970" d="M571.6194,-200C587.5588,-200 604.5294,-200 619.9755,-200"/>
<polygon fill="#191970" stroke="#191970" points="571.3203,-196.5001 561.3203,-200 571.3202,-203.5001 571.3203,-196.5001"/>
</g>
<!-- Node41 -->
<g id="node5" class="node">
<title>Node41</title>
<g id="a_node5"><a xlink:href="classUIManager.html#aa78e356fc3b356d790c848319d1c387e" target="_top" xlink:title="UIManager::setCallbackFunctions">
<polygon fill="none" stroke="#000000" points="778,-152.5 778,-171.5 956,-171.5 956,-152.5 778,-152.5"/>
<text text-anchor="middle" x="867" y="-159.5" font-family="Helvetica,sans-Serif" font-size="10.00" fill="#000000">UIManager::setCallbackFunctions</text>
</a>
</g>
</g>
<!-- Node39&#45;&gt;Node41 -->
<g id="edge5" class="edge">
<title>Node39&#45;&gt;Node41</title>
<path fill="none" stroke="#191970" d="M555.3372,-211.794C602.8669,-221.9062 678.3115,-232.8357 742,-219 783.9535,-209.886 828.708,-185.4086 851.5834,-171.6785"/>
<polygon fill="#191970" stroke="#191970" points="555.8602,-208.3253 545.3412,-209.5913 554.3538,-215.1613 555.8602,-208.3253"/>
</g>
<!-- Node42 -->
<g id="node6" class="node">
<title>Node42</title>
<g id="a_node6"><a xlink:href="classGame.html#a5ed7fc5be77080f7f6dd5363f7f007a1" target="_top" xlink:title="initializes and displays the main menu initializes and displays the main menu ">
<polygon fill="none" stroke="#000000" points="815.5,-76.5 815.5,-95.5 918.5,-95.5 918.5,-76.5 815.5,-76.5"/>
<text text-anchor="middle" x="867" y="-83.5" font-family="Helvetica,sans-Serif" font-size="10.00" fill="#000000">Game::mainMenu</text>
</a>
</g>
</g>
<!-- Node39&#45;&gt;Node42 -->
<g id="edge6" class="edge">
<title>Node39&#45;&gt;Node42</title>
<path fill="none" stroke="#191970" d="M548.106,-187.4056C620.4107,-164.4133 772.2829,-116.1193 836.8842,-95.5766"/>
<polygon fill="#191970" stroke="#191970" points="546.918,-184.1106 538.4489,-190.4765 549.0393,-190.7815 546.918,-184.1106"/>
</g>
<!-- Node46 -->
<g id="node10" class="node">
<title>Node46</title>
<g id="a_node10"><a xlink:href="classGame.html#a1c2ab25d5216b2f4b2fe41efd2c09114" target="_top" xlink:title="begins the game starts running the game ">
<polygon fill="none" stroke="#000000" points="992,-76.5 992,-95.5 1060,-95.5 1060,-76.5 992,-76.5"/>
<text text-anchor="middle" x="1026" y="-83.5" font-family="Helvetica,sans-Serif" font-size="10.00" fill="#000000">Game::run</text>
</a>
</g>
</g>
<!-- Node39&#45;&gt;Node46 -->
<g id="edge10" class="edge">
<title>Node39&#45;&gt;Node46</title>
<path fill="none" stroke="#191970" d="M537.3755,-213.7361C556.3911,-222.0031 582.1009,-231.7288 606,-236 665.5017,-246.6341 682.0331,-243.5828 742,-236 839.4263,-223.6805 874.6008,-235.9347 956,-181 989.2836,-158.5376 1012.6344,-114.7835 1021.7518,-95.5076"/>
<polygon fill="#191970" stroke="#191970" points="538.6444,-210.4696 528.0868,-209.5826 535.787,-216.8599 538.6444,-210.4696"/>
</g>
<!-- Node40&#45;&gt;Node41 -->
<g id="edge4" class="edge">
<title>Node40&#45;&gt;Node41</title>
<path fill="none" stroke="#191970" d="M732.6016,-188.4619C760.1289,-183.042 792.5476,-176.659 818.6482,-171.5201"/>
<polygon fill="#191970" stroke="#191970" points="731.8375,-185.045 722.702,-190.411 733.1898,-191.9132 731.8375,-185.045"/>
</g>
<!-- Node43 -->
<g id="node7" class="node">
<title>Node43</title>
<g id="a_node7"><a xlink:href="classGame.html#ad59df6562a58a614fda24622d3715b65" target="_top" xlink:title="Game::Game">
<polygon fill="none" stroke="#000000" points="1102,-95.5 1102,-114.5 1183,-114.5 1183,-95.5 1102,-95.5"/>
<text text-anchor="middle" x="1142.5" y="-102.5" font-family="Helvetica,sans-Serif" font-size="10.00" fill="#000000">Game::Game</text>
</a>
</g>
</g>
<!-- Node42&#45;&gt;Node43 -->
<g id="edge7" class="edge">
<title>Node42&#45;&gt;Node43</title>
<path fill="none" stroke="#191970" d="M927.9441,-97.1464C948.2452,-100.3553 971.0283,-103.4153 992,-105 1029.1272,-107.8056 1071.5536,-107.4877 1101.8759,-106.6544"/>
<polygon fill="#191970" stroke="#191970" points="928.3195,-93.6616 917.8878,-95.5136 927.1975,-100.5711 928.3195,-93.6616"/>
</g>
<!-- Node44 -->
<g id="node8" class="node">
<title>Node44</title>
<g id="a_node8"><a xlink:href="main_8cxx.html#af582d708d899e67ead623eac34a22387" target="_top" xlink:title="protected_main">
<polygon fill="none" stroke="#000000" points="1096,-57.5 1096,-76.5 1189,-76.5 1189,-57.5 1096,-57.5"/>
<text text-anchor="middle" x="1142.5" y="-64.5" font-family="Helvetica,sans-Serif" font-size="10.00" fill="#000000">protected_main</text>
</a>
</g>
</g>
<!-- Node42&#45;&gt;Node44 -->
<g id="edge8" class="edge">
<title>Node42&#45;&gt;Node44</title>
<path fill="none" stroke="#191970" d="M927.9441,-74.8536C948.2452,-71.6447 971.0283,-68.5847 992,-67 1026.7823,-64.3716 1066.2157,-64.4846 1095.9902,-65.1945"/>
<polygon fill="#191970" stroke="#191970" points="927.1975,-71.4289 917.8878,-76.4864 928.3195,-78.3384 927.1975,-71.4289"/>
</g>
<!-- Node45 -->
<g id="node9" class="node">
<title>Node45</title>
<g id="a_node9"><a xlink:href="main_8cxx.html#a3c04138a5bfe5d72780bb7e82a18e627" target="_top" xlink:title="main">
<polygon fill="none" stroke="#000000" points="1225,-57.5 1225,-76.5 1266,-76.5 1266,-57.5 1225,-57.5"/>
<text text-anchor="middle" x="1245.5" y="-64.5" font-family="Helvetica,sans-Serif" font-size="10.00" fill="#000000">main</text>
</a>
</g>
</g>
<!-- Node44&#45;&gt;Node45 -->
<g id="edge9" class="edge">
<title>Node44&#45;&gt;Node45</title>
<path fill="none" stroke="#191970" d="M1199.2133,-67C1208.4322,-67 1217.4259,-67 1224.9965,-67"/>
<polygon fill="#191970" stroke="#191970" points="1199.1782,-63.5001 1189.1782,-67 1199.1781,-70.5001 1199.1782,-63.5001"/>
</g>
<!-- Node46&#45;&gt;Node43 -->
<g id="edge11" class="edge">
<title>Node46&#45;&gt;Node43</title>
<path fill="none" stroke="#191970" d="M1070.0985,-93.192C1080.4513,-94.8805 1091.439,-96.6725 1101.6427,-98.3366"/>
<polygon fill="#191970" stroke="#191970" points="1070.4428,-89.702 1060.0098,-91.5467 1069.316,-96.6107 1070.4428,-89.702"/>
</g>
<!-- Node46&#45;&gt;Node44 -->
<g id="edge12" class="edge">
<title>Node46&#45;&gt;Node44</title>
<path fill="none" stroke="#191970" d="M1069.9884,-78.8259C1078.382,-77.457 1087.1965,-76.0195 1095.6749,-74.6367"/>
<polygon fill="#191970" stroke="#191970" points="1069.316,-75.3893 1060.0098,-80.4533 1070.4428,-82.298 1069.316,-75.3893"/>
</g>
<!-- Node48 -->
<g id="node12" class="node">
<title>Node48</title>
<g id="a_node12"><a xlink:href="classEngine.html#a83b7dbeee899b36a13d5b07c7ad87ebc" target="_top" xlink:title="Loads a saved game Loads a saved Game. ">
<polygon fill="none" stroke="#000000" points="455.5,-76.5 455.5,-95.5 561.5,-95.5 561.5,-76.5 455.5,-76.5"/>
<text text-anchor="middle" x="508.5" y="-83.5" font-family="Helvetica,sans-Serif" font-size="10.00" fill="#000000">Engine::loadGame</text>
</a>
</g>
</g>
<!-- Node47&#45;&gt;Node48 -->
<g id="edge14" class="edge">
<title>Node47&#45;&gt;Node48</title>
<path fill="none" stroke="#191970" d="M421.3143,-86C432.8222,-86 444.53,-86 455.4749,-86"/>
<polygon fill="#191970" stroke="#191970" points="421.2771,-82.5001 411.277,-86 421.277,-89.5001 421.2771,-82.5001"/>
</g>
<!-- Node51 -->
<g id="node15" class="node">
<title>Node51</title>
<g id="a_node15"><a xlink:href="classMap.html#a779c939483a52b32a3959b99af95e67a" target="_top" xlink:title="Set the Tile ID Of Node object Also invokes all necessary texture updates (auto&#45;tiling, slopes, ...) ">
<polygon fill="none" stroke="#000000" points="447,-19.5 447,-38.5 570,-38.5 570,-19.5 447,-19.5"/>
<text text-anchor="middle" x="508.5" y="-26.5" font-family="Helvetica,sans-Serif" font-size="10.00" fill="#000000">Map::setTileIDOfNode</text>
</a>
</g>
</g>
<!-- Node47&#45;&gt;Node51 -->
<g id="edge22" class="edge">
<title>Node47&#45;&gt;Node51</title>
<path fill="none" stroke="#191970" d="M384.7904,-73.0715C414.2302,-62.5836 455.0655,-48.0361 481.6322,-38.5716"/>
<polygon fill="#191970" stroke="#191970" points="383.5259,-69.8065 375.2804,-76.4595 385.8751,-76.4005 383.5259,-69.8065"/>
</g>
<!-- Node48&#45;&gt;Node41 -->
<g id="edge20" class="edge">
<title>Node48&#45;&gt;Node41</title>
<path fill="none" stroke="#191970" d="M563.6291,-97.6871C634.5968,-112.7318 756.5559,-138.5865 822.143,-152.4906"/>
<polygon fill="#191970" stroke="#191970" points="564.0497,-94.1985 553.5413,-95.5485 562.598,-101.0463 564.0497,-94.1985"/>
</g>
<!-- Node48&#45;&gt;Node42 -->
<g id="edge21" class="edge">
<title>Node48&#45;&gt;Node42</title>
<path fill="none" stroke="#191970" d="M572.1405,-86C641.5338,-86 751.2452,-86 815.461,-86"/>
<polygon fill="#191970" stroke="#191970" points="571.784,-82.5001 561.784,-86 571.7839,-89.5001 571.784,-82.5001"/>
</g>
<!-- Node49 -->
<g id="node13" class="node">
<title>Node49</title>
<g id="a_node13"><a xlink:href="classEngine.html#a0ba57971ffb5173ecc425461f65a4cd8" target="_top" xlink:title="Quits the game Sets m_running to false and quitting the game. ">
<polygon fill="none" stroke="#000000" points="622,-38.5 622,-57.5 726,-57.5 726,-38.5 622,-38.5"/>
<text text-anchor="middle" x="674" y="-45.5" font-family="Helvetica,sans-Serif" font-size="10.00" fill="#000000">Engine::quitGame</text>
</a>
</g>
</g>
<!-- Node48&#45;&gt;Node49 -->
<g id="edge15" class="edge">
<title>Node48&#45;&gt;Node49</title>
<path fill="none" stroke="#191970" d="M560.3105,-74.1039C583.5733,-68.7626 610.6469,-62.5463 632.5377,-57.5201"/>
<polygon fill="#191970" stroke="#191970" points="559.2258,-70.7618 550.2626,-76.411 560.7923,-77.5843 559.2258,-70.7618"/>
</g>
<!-- Node49&#45;&gt;Node41 -->
<g id="edge18" class="edge">
<title>Node49&#45;&gt;Node41</title>
<path fill="none" stroke="#191970" d="M698.7686,-62.6301C738.8907,-86.3292 817.0043,-132.4689 850.787,-152.4234"/>
<polygon fill="#191970" stroke="#191970" points="700.5133,-59.5958 690.1231,-57.5235 696.9532,-65.6229 700.5133,-59.5958"/>
</g>
<!-- Node49&#45;&gt;Node42 -->
<g id="edge19" class="edge">
<title>Node49&#45;&gt;Node42</title>
<path fill="none" stroke="#191970" d="M732.6016,-59.5381C760.1289,-64.958 792.5476,-71.341 818.6482,-76.4799"/>
<polygon fill="#191970" stroke="#191970" points="733.1898,-56.0868 722.702,-57.589 731.8375,-62.955 733.1898,-56.0868"/>
</g>
<!-- Node50 -->
<g id="node14" class="node">
<title>Node50</title>
<g id="a_node14"><a xlink:href="classEventManager.html#a65ec91fd5016d4f9c4167fb8babed2df" target="_top" xlink:title="EventManager::checkEvents">
<polygon fill="none" stroke="#000000" points="790,-38.5 790,-57.5 944,-57.5 944,-38.5 790,-38.5"/>
<text text-anchor="middle" x="867" y="-45.5" font-family="Helvetica,sans-Serif" font-size="10.00" fill="#000000">EventManager::checkEvents</text>
</a>
</g>
</g>
<!-- Node49&#45;&gt;Node50 -->
<g id="edge16" class="edge">
<title>Node49&#45;&gt;Node50</title>
<path fill="none" stroke="#191970" d="M736.5536,-48C753.5044,-48 772.0568,-48 789.7146,-48"/>
<polygon fill="#191970" stroke="#191970" points="736.2286,-44.5001 726.2286,-48 736.2285,-51.5001 736.2286,-44.5001"/>
</g>
<!-- Node50&#45;&gt;Node46 -->
<g id="edge17" class="edge">
<title>Node50&#45;&gt;Node46</title>
<path fill="none" stroke="#191970" d="M924.2283,-59.7338C934.8154,-62.0415 945.7599,-64.5192 956,-67 967.8713,-69.876 980.7963,-73.3003 992.2721,-76.4446"/>
<polygon fill="#191970" stroke="#191970" points="924.7348,-56.2627 914.222,-57.5786 923.2609,-63.1058 924.7348,-56.2627"/>
</g>
<!-- Node52 -->
<g id="node16" class="node">
<title>Node52</title>
<g id="a_node16"><a xlink:href="classEngine.html#a8a53c5e52734a5158b317851361b83f2" target="_top" xlink:title="Engine::setTileIDOfNode">
<polygon fill="none" stroke="#000000" points="606,-.5 606,-19.5 742,-19.5 742,-.5 606,-.5"/>
<text text-anchor="middle" x="674" y="-7.5" font-family="Helvetica,sans-Serif" font-size="10.00" fill="#000000">Engine::setTileIDOfNode</text>
</a>
</g>
</g>
<!-- Node51&#45;&gt;Node52 -->
<g id="edge23" class="edge">
<title>Node51&#45;&gt;Node52</title>
<path fill="none" stroke="#191970" d="M580.094,-20.7808C588.6681,-19.7964 597.405,-18.7934 605.9273,-17.815"/>
<polygon fill="#191970" stroke="#191970" points="579.6616,-17.3073 570.1261,-21.9251 580.4601,-24.2616 579.6616,-17.3073"/>
</g>
<!-- Node52&#45;&gt;Node50 -->
<g id="edge24" class="edge">
<title>Node52&#45;&gt;Node50</title>
<path fill="none" stroke="#191970" d="M732.6016,-21.5381C760.1289,-26.958 792.5476,-33.341 818.6482,-38.4799"/>
<polygon fill="#191970" stroke="#191970" points="733.1898,-18.0868 722.702,-19.589 731.8375,-24.955 733.1898,-18.0868"/>
</g>
</g>
</svg>
        <g id="navigator" transform="translate(0 0)" fill="#404254">
                <rect fill="#f2f5e9" fill-opacity="0.5" stroke="#606060" stroke-width=".5" x="0" y="0" width="60" height="60"/>
                <use id="zoomplus" xlink:href="#zoomPlus" x="17" y="9" onmousedown="handleZoom(evt,'in')"/>
                <use id="zoomminus" xlink:href="#zoomMin" x="42" y="9" onmousedown="handleZoom(evt,'out')"/>
                <use id="reset" xlink:href="#resetDef" x="30" y="36" onmousedown="handleReset()"/>
                <g id="arrowUp" xlink:href="#dirArrow" transform="translate(30 24)" onmousedown="handlePan(0,-1)">
                  <use xlink:href="#rim" fill="#404040">
                        <set attributeName="fill" to="#808080" begin="arrowUp.mouseover" end="arrowUp.mouseout"/>
                  </use>
                  <path fill="none" stroke="white" stroke-width="1.5" d="M0,-3.0v7 M-2.5,-0.5L0,-3.0L2.5,-0.5"/>
                </g>
                <g id="arrowRight" xlink:href="#dirArrow" transform="rotate(90) translate(36 -43)" onmousedown="handlePan(1,0)">
                  <use xlink:href="#rim" fill="#404040">
                        <set attributeName="fill" to="#808080" begin="arrowRight.mouseover" end="arrowRight.mouseout"/>
                  </use>
                  <path fill="none" stroke="white" stroke-width="1.5" d="M0,-3.0v7 M-2.5,-0.5L0,-3.0L2.5,-0.5"/>
                </g>
                <g id="arrowDown" xlink:href="#dirArrow" transform="rotate(180) translate(-30 -48)" onmousedown="handlePan(0,1)">
                  <use xlink:href="#rim" fill="#404040">
                        <set attributeName="fill" to="#808080" begin="arrowDown.mouseover" end="arrowDown.mouseout"/>
                  </use>
                  <path fill="none" stroke="white" stroke-width="1.5" d="M0,-3.0v7 M-2.5,-0.5L0,-3.0L2.5,-0.5"/>
                </g>
                <g id="arrowLeft" xlink:href="#dirArrow" transform="rotate(270) translate(-36 17)" onmousedown="handlePan(-1,0)">
                  <use xlink:href="#rim" fill="#404040">
                        <set attributeName="fill" to="#808080" begin="arrowLeft.mouseover" end="arrowLeft.mouseout"/>
                  </use>
                  <path fill="none" stroke="white" stroke-width="1.5" d="M0,-3.0v7 M-2.5,-0.5L0,-3.0L2.5,-0.5"/>
                </g>
        </g>
        <svg viewBox="0 0 15 15" width="100%" height="30px" preserveAspectRatio="xMaxYMin meet">
         <g id="arrow_out" transform="scale(0.3 0.3)">
          <a xlink:href="classMapLayers_a54ce1eeef2a8998a728ac7074efe8787_icgraph_org.svg" target="_base">
           <rect id="button" ry="5" rx="5" y="6" x="6" height="38" width="38"
                fill="#f2f5e9" fill-opacity="0.5" stroke="#606060" stroke-width="1.0"/>
           <path id="arrow"
             d="M 11.500037,31.436501 C 11.940474,20.09759 22.043105,11.32322 32.158766,21.979434 L 37.068811,17.246167 C 37.068811,17.246167 37.088388,32 37.088388,32 L 22.160133,31.978069 C 22.160133,31.978069 26.997745,27.140456 26.997745,27.140456 C 18.528582,18.264221 13.291696,25.230495 11.500037,31.436501 z"
             style="fill:#404040;"/>
          </a>
         </g>
        </svg>
</svg>
