<?xml version="1.0" encoding="UTF-8" standalone="no"?>
<!DOCTYPE svg PUBLIC "-//W3C//DTD SVG 1.1//EN"
 "http://www.w3.org/Graphics/SVG/1.1/DTD/svg11.dtd">
<!-- Generated by graphviz version 2.40.1 (20161225.0304)
 -->
<!-- Title: ResourcesManager::getUITexture Pages: 1 -->
<svg width="813pt" height="132pt"
 viewBox="0.00 0.00 813.00 132.00" xmlns="http://www.w3.org/2000/svg" xmlns:xlink="http://www.w3.org/1999/xlink">
<g id="graph0" class="graph" transform="scale(1 1) rotate(0) translate(4 128)">
<title>ResourcesManager::getUITexture</title>
<!-- Node48 -->
<g id="node1" class="node">
<title>Node48</title>
<polygon fill="#bfbfbf" stroke="#000000" points="0,-60.5 0,-79.5 176,-79.5 176,-60.5 0,-60.5"/>
<text text-anchor="middle" x="88" y="-67.5" font-family="Helvetica,sans-Serif" font-size="10.00" fill="#000000">ResourcesManager::getUITexture</text>
</g>
<!-- Node49 -->
<g id="node2" class="node">
<title>Node49</title>
<g id="a_node2"><a xlink:href="classUIElement.html#a452ffed1ff191ababc8c15d4c455f6c2" target="_top" xlink:title="Set the uiElements sprite ID Set the sprite ID this ui element. The texture will be retrieved from th...">
<polygon fill="none" stroke="#000000" points="212,-60.5 212,-79.5 347,-79.5 347,-60.5 212,-60.5"/>
<text text-anchor="middle" x="279.5" y="-67.5" font-family="Helvetica,sans-Serif" font-size="10.00" fill="#000000">UIElement::setTextureID</text>
</a>
</g>
</g>
<!-- Node48&#45;&gt;Node49 -->
<g id="edge1" class="edge">
<title>Node48&#45;&gt;Node49</title>
<path fill="none" stroke="#191970" d="M186.3086,-70C194.9375,-70 203.5387,-70 211.8316,-70"/>
<polygon fill="#191970" stroke="#191970" points="186.1831,-66.5001 176.183,-70 186.183,-73.5001 186.1831,-66.5001"/>
</g>
<!-- Node50 -->
<g id="node3" class="node">
<title>Node50</title>
<g id="a_node3"><a xlink:href="classUIElement.html#a9c4439b91bcb765d0616616fbfe2a44a" target="_top" xlink:title="Get the uiElements tooltip text Get the tooltip text for this ui element. Tooltip is shown when hover...">
<polygon fill="none" stroke="#000000" points="384,-104.5 384,-123.5 534,-123.5 534,-104.5 384,-104.5"/>
<text text-anchor="middle" x="459" y="-111.5" font-family="Helvetica,sans-Serif" font-size="10.00" fill="#000000">UIElement::setUIElementID</text>
</a>
</g>
</g>
<!-- Node49&#45;&gt;Node50 -->
<g id="edge2" class="edge">
<title>Node49&#45;&gt;Node50</title>
<path fill="none" stroke="#191970" d="M328.3281,-81.969C357.1802,-89.0414 393.2116,-97.8736 420.1272,-104.4713"/>
<polygon fill="#191970" stroke="#191970" points="328.9946,-78.5288 318.4488,-79.5473 327.328,-85.3276 328.9946,-78.5288"/>
</g>
<!-- Node52 -->
<g id="node5" class="node">
<title>Node52</title>
<g id="a_node5"><a xlink:href="classUIManager.html#a007e9b56a4835b98db2b203df96ea79d" target="_top" xlink:title="Draws the tile (defined by the string, tiledata pair) onto the button. ">
<polygon fill="none" stroke="#000000" points="383,-55 383,-85 535,-85 535,-55 383,-55"/>
<text text-anchor="start" x="391" y="-73" font-family="Helvetica,sans-Serif" font-size="10.00" fill="#000000">UIManager::setupButtonTile</text>
<text text-anchor="middle" x="459" y="-62" font-family="Helvetica,sans-Serif" font-size="10.00" fill="#000000">Image</text>
</a>
</g>
</g>
<!-- Node49&#45;&gt;Node52 -->
<g id="edge4" class="edge">
<title>Node49&#45;&gt;Node52</title>
<path fill="none" stroke="#191970" d="M357.3008,-70C365.7342,-70 374.3109,-70 382.7259,-70"/>
<polygon fill="#191970" stroke="#191970" points="357.1055,-66.5001 347.1055,-70 357.1054,-73.5001 357.1055,-66.5001"/>
</g>
<!-- Node53 -->
<g id="node6" class="node">
<title>Node53</title>
<g id="a_node6"><a xlink:href="classGame.html#a5ed7fc5be77080f7f6dd5363f7f007a1" target="_top" xlink:title="initializes and displays the main menu initializes and displays the main menu ">
<polygon fill="none" stroke="#000000" points="407.5,-16.5 407.5,-35.5 510.5,-35.5 510.5,-16.5 407.5,-16.5"/>
<text text-anchor="middle" x="459" y="-23.5" font-family="Helvetica,sans-Serif" font-size="10.00" fill="#000000">Game::mainMenu</text>
</a>
</g>
</g>
<!-- Node49&#45;&gt;Node53 -->
<g id="edge6" class="edge">
<title>Node49&#45;&gt;Node53</title>
<path fill="none" stroke="#191970" d="M328.3281,-58.031C357.1802,-50.9586 393.2116,-42.1264 420.1272,-35.5287"/>
<polygon fill="#191970" stroke="#191970" points="327.328,-54.6724 318.4488,-60.4527 328.9946,-61.4712 327.328,-54.6724"/>
</g>
<!-- Node51 -->
<g id="node4" class="node">
<title>Node51</title>
<g id="a_node4"><a xlink:href="classUIManager.html#aae7a89e9d50bb6192e4140e07bd5f94b" target="_top" xlink:title="UIManager::createBuildMenu">
<polygon fill="none" stroke="#000000" points="571,-90.5 571,-109.5 728,-109.5 728,-90.5 571,-90.5"/>
<text text-anchor="middle" x="649.5" y="-97.5" font-family="Helvetica,sans-Serif" font-size="10.00" fill="#000000">UIManager::createBuildMenu</text>
</a>
</g>
</g>
<!-- Node50&#45;&gt;Node51 -->
<g id="edge3" class="edge">
<title>Node50&#45;&gt;Node51</title>
<path fill="none" stroke="#191970" d="M544.01,-107.7525C552.9212,-107.0977 561.9534,-106.4339 570.7896,-105.7845"/>
<polygon fill="#191970" stroke="#191970" points="543.7337,-104.2633 534.0172,-108.4869 544.2468,-111.2445 543.7337,-104.2633"/>
</g>
<!-- Node52&#45;&gt;Node51 -->
<g id="edge5" class="edge">
<title>Node52&#45;&gt;Node51</title>
<path fill="none" stroke="#191970" d="M545.2788,-83.5872C560.057,-85.9145 575.1258,-88.2875 589.0452,-90.4796"/>
<polygon fill="#191970" stroke="#191970" points="545.5347,-80.0845 535.1119,-81.9861 544.4457,-86.9992 545.5347,-80.0845"/>
</g>
<!-- Node54 -->
<g id="node7" class="node">
<title>Node54</title>
<g id="a_node7"><a xlink:href="classGame.html#ad59df6562a58a614fda24622d3715b65" target="_top" xlink:title="Game::Game">
<polygon fill="none" stroke="#000000" points="609,-38.5 609,-57.5 690,-57.5 690,-38.5 609,-38.5"/>
<text text-anchor="middle" x="649.5" y="-45.5" font-family="Helvetica,sans-Serif" font-size="10.00" fill="#000000">Game::Game</text>
</a>
</g>
</g>
<!-- Node53&#45;&gt;Node54 -->
<g id="edge7" class="edge">
<title>Node53&#45;&gt;Node54</title>
<path fill="none" stroke="#191970" d="M520.554,-33.1086C549.45,-36.4457 583.0956,-40.3313 608.7718,-43.2965"/>
<polygon fill="#191970" stroke="#191970" points="520.8876,-29.6239 510.552,-31.9535 520.0845,-36.5777 520.8876,-29.6239"/>
</g>
<!-- Node55 -->
<g id="node8" class="node">
<title>Node55</title>
<g id="a_node8"><a xlink:href="main_8cxx.html#af582d708d899e67ead623eac34a22387" target="_top" xlink:title="protected_main">
<polygon fill="none" stroke="#000000" points="603,-.5 603,-19.5 696,-19.5 696,-.5 603,-.5"/>
<text text-anchor="middle" x="649.5" y="-7.5" font-family="Helvetica,sans-Serif" font-size="10.00" fill="#000000">protected_main</text>
</a>
</g>
</g>
<!-- Node53&#45;&gt;Node55 -->
<g id="edge8" class="edge">
<title>Node53&#45;&gt;Node55</title>
<path fill="none" stroke="#191970" d="M520.5661,-20.8291C547.2673,-18.5865 578.0221,-16.0034 602.7965,-13.9226"/>
<polygon fill="#191970" stroke="#191970" points="520.224,-17.3454 510.552,-21.6702 520.8099,-24.3209 520.224,-17.3454"/>
</g>
<!-- Node56 -->
<g id="node9" class="node">
<title>Node56</title>
<g id="a_node9"><a xlink:href="main_8cxx.html#a3c04138a5bfe5d72780bb7e82a18e627" target="_top" xlink:title="main">
<polygon fill="none" stroke="#000000" points="764,-.5 764,-19.5 805,-19.5 805,-.5 764,-.5"/>
<text text-anchor="middle" x="784.5" y="-7.5" font-family="Helvetica,sans-Serif" font-size="10.00" fill="#000000">main</text>
</a>
</g>
</g>
<!-- Node55&#45;&gt;Node56 -->
<g id="edge9" class="edge">
<title>Node55&#45;&gt;Node56</title>
<path fill="none" stroke="#191970" d="M706.4949,-10C726.8277,-10 748.4643,-10 763.7793,-10"/>
<polygon fill="#191970" stroke="#191970" points="706.3376,-6.5001 696.3376,-10 706.3375,-13.5001 706.3376,-6.5001"/>
</g>
</g>
</svg>
