<?xml version="1.0" encoding="UTF-8" standalone="no"?>
<!DOCTYPE svg PUBLIC "-//W3C//DTD SVG 1.1//EN"
 "http://www.w3.org/Graphics/SVG/1.1/DTD/svg11.dtd">
<!-- Generated by graphviz version 2.40.1 (20161225.0304)
 -->
<!-- Title: Map::decreaseHeight Pages: 1 -->
<svg width="1657pt" height="369pt"
 viewBox="0.00 0.00 1657.00 368.73" xmlns="http://www.w3.org/2000/svg" xmlns:xlink="http://www.w3.org/1999/xlink">
<g id="graph0" class="graph" transform="scale(1 1) rotate(0) translate(4 364.7254)">
<title>Map::decreaseHeight</title>
<!-- Node35 -->
<g id="node1" class="node">
<title>Node35</title>
<polygon fill="#bfbfbf" stroke="#000000" points="0,-271.2254 0,-290.2254 119,-290.2254 119,-271.2254 0,-271.2254"/>
<text text-anchor="middle" x="59.5" y="-278.2254" font-family="Helvetica,sans-Serif" font-size="10.00" fill="#000000">Map::decreaseHeight</text>
</g>
<!-- Node36 -->
<g id="node2" class="node">
<title>Node36</title>
<g id="a_node2"><a xlink:href="classEngine.html#a13572fdd7f6470dca48a14497f58980e" target="_top" xlink:title="Decrease Height Decreases the height of the given map node Calls the according function of the Map ob...">
<polygon fill="none" stroke="#000000" points="170.5,-176.2254 170.5,-195.2254 302.5,-195.2254 302.5,-176.2254 170.5,-176.2254"/>
<text text-anchor="middle" x="236.5" y="-183.2254" font-family="Helvetica,sans-Serif" font-size="10.00" fill="#000000">Engine::decreaseHeight</text>
</a>
</g>
</g>
<!-- Node35&#45;&gt;Node36 -->
<g id="edge1" class="edge">
<title>Node35&#45;&gt;Node36</title>
<path fill="none" stroke="#191970" d="M86.5689,-266.1969C123.2448,-246.5121 187.7012,-211.9168 218.7699,-195.2416"/>
<polygon fill="#191970" stroke="#191970" points="84.6017,-263.2804 77.4458,-271.0935 87.9121,-269.4482 84.6017,-263.2804"/>
</g>
<!-- Node42 -->
<g id="node8" class="node">
<title>Node42</title>
<g id="a_node8"><a xlink:href="classMap.html#a59d21f2688713fbcfe320eb1b24405ca" target="_top" xlink:title="Update mapNode and its adjacent tiles Updates mapNode height information, draws slopes for adjacent t...">
<polygon fill="none" stroke="#000000" points="155,-271.2254 155,-290.2254 318,-290.2254 318,-271.2254 155,-271.2254"/>
<text text-anchor="middle" x="236.5" y="-278.2254" font-family="Helvetica,sans-Serif" font-size="10.00" fill="#000000">Map::updateNeighborsOfNode</text>
</a>
</g>
</g>
<!-- Node35&#45;&gt;Node42 -->
<g id="edge7" class="edge">
<title>Node35&#45;&gt;Node42</title>
<path fill="none" stroke="#191970" d="M129.4962,-274.1083C137.8649,-273.9865 146.4647,-273.9484 154.9778,-273.9941"/>
<polygon fill="#191970" stroke="#191970" points="129.3563,-270.6102 119.4241,-274.2984 129.4884,-277.609 129.3563,-270.6102"/>
</g>
<!-- Node37 -->
<g id="node3" class="node">
<title>Node37</title>
<g id="a_node3"><a xlink:href="classEventManager.html#a65ec91fd5016d4f9c4167fb8babed2df" target="_top" xlink:title="EventManager::checkEvents">
<polygon fill="none" stroke="#000000" points="1173,-246.2254 1173,-265.2254 1327,-265.2254 1327,-246.2254 1173,-246.2254"/>
<text text-anchor="middle" x="1250" y="-253.2254" font-family="Helvetica,sans-Serif" font-size="10.00" fill="#000000">EventManager::checkEvents</text>
</a>
</g>
</g>
<!-- Node36&#45;&gt;Node37 -->
<g id="edge2" class="edge">
<title>Node36&#45;&gt;Node37</title>
<path fill="none" stroke="#191970" d="M291.6104,-174.2054C346.6241,-163.3346 433.7281,-147.8214 510,-141.7254 561.3917,-137.6179 574.6264,-137.3974 626,-141.7254 700.1192,-147.9697 718.4033,-153.5279 791,-169.7254 807.2073,-173.3415 810.8104,-176.0309 827,-179.7254 953.5734,-208.6097 1103.5016,-233.3395 1186.5628,-246.2185"/>
<polygon fill="#191970" stroke="#191970" points="290.8435,-170.7893 281.7214,-176.1778 292.2129,-177.6541 290.8435,-170.7893"/>
</g>
<!-- Node38 -->
<g id="node4" class="node">
<title>Node38</title>
<g id="a_node4"><a xlink:href="classGame.html#a1c2ab25d5216b2f4b2fe41efd2c09114" target="_top" xlink:title="begins the game starts running the game ">
<polygon fill="none" stroke="#000000" points="1375,-151.2254 1375,-170.2254 1443,-170.2254 1443,-151.2254 1375,-151.2254"/>
<text text-anchor="middle" x="1409" y="-158.2254" font-family="Helvetica,sans-Serif" font-size="10.00" fill="#000000">Game::run</text>
</a>
</g>
</g>
<!-- Node37&#45;&gt;Node38 -->
<g id="edge3" class="edge">
<title>Node37&#45;&gt;Node38</title>
<path fill="none" stroke="#191970" d="M1274.714,-240.9592C1307.6333,-221.2904 1364.9507,-187.0442 1392.8366,-170.3828"/>
<polygon fill="#191970" stroke="#191970" points="1272.91,-237.9598 1266.1208,-246.0935 1276.5004,-243.9689 1272.91,-237.9598"/>
</g>
<!-- Node39 -->
<g id="node5" class="node">
<title>Node39</title>
<g id="a_node5"><a xlink:href="classGame.html#ad59df6562a58a614fda24622d3715b65" target="_top" xlink:title="Game::Game">
<polygon fill="none" stroke="#000000" points="1485,-170.2254 1485,-189.2254 1566,-189.2254 1566,-170.2254 1485,-170.2254"/>
<text text-anchor="middle" x="1525.5" y="-177.2254" font-family="Helvetica,sans-Serif" font-size="10.00" fill="#000000">Game::Game</text>
</a>
</g>
</g>
<!-- Node38&#45;&gt;Node39 -->
<g id="edge4" class="edge">
<title>Node38&#45;&gt;Node39</title>
<path fill="none" stroke="#191970" d="M1453.0985,-167.9174C1463.4513,-169.6059 1474.439,-171.3979 1484.6427,-173.062"/>
<polygon fill="#191970" stroke="#191970" points="1453.4428,-164.4274 1443.0098,-166.2721 1452.316,-171.3361 1453.4428,-164.4274"/>
</g>
<!-- Node40 -->
<g id="node6" class="node">
<title>Node40</title>
<g id="a_node6"><a xlink:href="main_8cxx.html#af582d708d899e67ead623eac34a22387" target="_top" xlink:title="protected_main">
<polygon fill="none" stroke="#000000" points="1479,-132.2254 1479,-151.2254 1572,-151.2254 1572,-132.2254 1479,-132.2254"/>
<text text-anchor="middle" x="1525.5" y="-139.2254" font-family="Helvetica,sans-Serif" font-size="10.00" fill="#000000">protected_main</text>
</a>
</g>
</g>
<!-- Node38&#45;&gt;Node40 -->
<g id="edge5" class="edge">
<title>Node38&#45;&gt;Node40</title>
<path fill="none" stroke="#191970" d="M1452.9884,-153.5513C1461.382,-152.1824 1470.1965,-150.7449 1478.6749,-149.3621"/>
<polygon fill="#191970" stroke="#191970" points="1452.316,-150.1147 1443.0098,-155.1787 1453.4428,-157.0234 1452.316,-150.1147"/>
</g>
<!-- Node41 -->
<g id="node7" class="node">
<title>Node41</title>
<g id="a_node7"><a xlink:href="main_8cxx.html#a3c04138a5bfe5d72780bb7e82a18e627" target="_top" xlink:title="main">
<polygon fill="none" stroke="#000000" points="1608,-132.2254 1608,-151.2254 1649,-151.2254 1649,-132.2254 1608,-132.2254"/>
<text text-anchor="middle" x="1628.5" y="-139.2254" font-family="Helvetica,sans-Serif" font-size="10.00" fill="#000000">main</text>
</a>
</g>
</g>
<!-- Node40&#45;&gt;Node41 -->
<g id="edge6" class="edge">
<title>Node40&#45;&gt;Node41</title>
<path fill="none" stroke="#191970" d="M1582.2133,-141.7254C1591.4322,-141.7254 1600.4259,-141.7254 1607.9965,-141.7254"/>
<polygon fill="#191970" stroke="#191970" points="1582.1782,-138.2255 1572.1782,-141.7254 1582.1781,-145.2255 1582.1782,-138.2255"/>
</g>
<!-- Node42&#45;&gt;Node35 -->
<g id="edge12" class="edge">
<title>Node42&#45;&gt;Node35</title>
<path fill="none" stroke="#191970" d="M144.8533,-287.4716C136.2276,-287.4508 127.6417,-287.3444 119.4241,-287.1524"/>
<polygon fill="#191970" stroke="#191970" points="144.983,-290.9715 154.9778,-287.4567 144.9727,-283.9715 144.983,-290.9715"/>
</g>
<!-- Node43 -->
<g id="node9" class="node">
<title>Node43</title>
<g id="a_node9"><a xlink:href="classMap.html#aba5154a4d917900679a3c0f7ec701561" target="_top" xlink:title="Increase Height Increases the height of the node and checks the surrounding tiles. Either draw a slope sprite or elevate the tile if necessary. ">
<polygon fill="none" stroke="#000000" points="510,-267.2254 510,-286.2254 626,-286.2254 626,-267.2254 510,-267.2254"/>
<text text-anchor="middle" x="568" y="-274.2254" font-family="Helvetica,sans-Serif" font-size="10.00" fill="#000000">Map::increaseHeight</text>
</a>
</g>
</g>
<!-- Node42&#45;&gt;Node43 -->
<g id="edge8" class="edge">
<title>Node42&#45;&gt;Node43</title>
<path fill="none" stroke="#191970" d="M328.3149,-273.5038C386.4391,-271.7326 459.8201,-271.1265 509.979,-272.1496"/>
<polygon fill="#191970" stroke="#191970" points="327.9007,-270.0152 318.0186,-273.8353 328.1261,-277.0116 327.9007,-270.0152"/>
</g>
<!-- Node45 -->
<g id="node11" class="node">
<title>Node45</title>
<g id="a_node11"><a xlink:href="classMap.html#a481b37ba71ef0e51e836fc42805762dd" target="_top" xlink:title="Update all mapNodes Updates all mapNode and its adjacent tiles regarding height information, draws slopes for adjacent tiles and sets tiling for mapNode sprite if applicable. ">
<polygon fill="none" stroke="#000000" points="354,-186.2254 354,-205.2254 474,-205.2254 474,-186.2254 354,-186.2254"/>
<text text-anchor="middle" x="414" y="-193.2254" font-family="Helvetica,sans-Serif" font-size="10.00" fill="#000000">Map::updateAllNodes</text>
</a>
</g>
</g>
<!-- Node42&#45;&gt;Node45 -->
<g id="edge13" class="edge">
<title>Node42&#45;&gt;Node45</title>
<path fill="none" stroke="#191970" d="M262.7637,-266.144C286.3371,-253.285 322.0451,-234.3681 354,-219.7254 365.1172,-214.6312 377.6448,-209.524 388.3663,-205.3385"/>
<polygon fill="#191970" stroke="#191970" points="260.8368,-263.2089 253.7526,-271.087 264.2034,-269.3462 260.8368,-263.2089"/>
</g>
<!-- Node54 -->
<g id="node20" class="node">
<title>Node54</title>
<g id="a_node20"><a xlink:href="classMap.html#a779c939483a52b32a3959b99af95e67a" target="_top" xlink:title="Set the Tile ID Of Node object Also invokes all necessary texture updates (auto&#45;tiling, slopes, ...) ">
<polygon fill="none" stroke="#000000" points="828.5,-227.2254 828.5,-246.2254 951.5,-246.2254 951.5,-227.2254 828.5,-227.2254"/>
<text text-anchor="middle" x="890" y="-234.2254" font-family="Helvetica,sans-Serif" font-size="10.00" fill="#000000">Map::setTileIDOfNode</text>
</a>
</g>
</g>
<!-- Node42&#45;&gt;Node54 -->
<g id="edge43" class="edge">
<title>Node42&#45;&gt;Node54</title>
<path fill="none" stroke="#191970" d="M328.2017,-272.3528C381.2814,-267.672 449.3782,-261.9486 510,-257.7254 622.2171,-249.9078 753.2419,-243.2004 828.4277,-239.5841"/>
<polygon fill="#191970" stroke="#191970" points="327.7844,-268.876 318.132,-273.2442 328.4017,-275.8487 327.7844,-268.876"/>
</g>
<!-- Node56 -->
<g id="node22" class="node">
<title>Node56</title>
<g id="a_node22"><a xlink:href="classMap.html#a05e7d896dc5062af07c9b838600a068d" target="_top" xlink:title="Demolish a node Invokes the tiles demolish function. ">
<polygon fill="none" stroke="#000000" points="357.5,-318.2254 357.5,-337.2254 470.5,-337.2254 470.5,-318.2254 357.5,-318.2254"/>
<text text-anchor="middle" x="414" y="-325.2254" font-family="Helvetica,sans-Serif" font-size="10.00" fill="#000000">Map::demolishNode</text>
</a>
</g>
</g>
<!-- Node42&#45;&gt;Node56 -->
<g id="edge35" class="edge">
<title>Node42&#45;&gt;Node56</title>
<path fill="none" stroke="#191970" d="M307.1881,-292.8186C338.7023,-300.7186 373.3892,-310.6371 394.4315,-318.1209"/>
<polygon fill="#191970" stroke="#191970" points="307.636,-289.3244 297.089,-290.3303 305.9612,-296.1211 307.636,-289.3244"/>
</g>
<!-- Node43&#45;&gt;Node42 -->
<g id="edge11" class="edge">
<title>Node43&#45;&gt;Node42</title>
<path fill="none" stroke="#191970" d="M499.7149,-283.1311C446.9775,-285.2081 373.8233,-286.199 318.0186,-285.6482"/>
<polygon fill="#191970" stroke="#191970" points="500.1342,-286.6168 509.979,-282.7014 499.8413,-279.6229 500.1342,-286.6168"/>
</g>
<!-- Node44 -->
<g id="node10" class="node">
<title>Node44</title>
<g id="a_node10"><a xlink:href="classEngine.html#a4851ae1ff696c893741167fc0194fd77" target="_top" xlink:title="Increase Height Increases the height of the given map node Calls the according function of the Map ob...">
<polygon fill="none" stroke="#000000" points="662,-266.2254 662,-285.2254 791,-285.2254 791,-266.2254 662,-266.2254"/>
<text text-anchor="middle" x="726.5" y="-273.2254" font-family="Helvetica,sans-Serif" font-size="10.00" fill="#000000">Engine::increaseHeight</text>
</a>
</g>
</g>
<!-- Node43&#45;&gt;Node44 -->
<g id="edge9" class="edge">
<title>Node43&#45;&gt;Node44</title>
<path fill="none" stroke="#191970" d="M636.3712,-276.294C644.8669,-276.2404 653.5326,-276.1858 661.9677,-276.1325"/>
<polygon fill="#191970" stroke="#191970" points="636.0972,-272.7956 626.1195,-276.3587 636.1415,-279.7955 636.0972,-272.7956"/>
</g>
<!-- Node44&#45;&gt;Node37 -->
<g id="edge10" class="edge">
<title>Node44&#45;&gt;Node37</title>
<path fill="none" stroke="#191970" d="M801.4094,-272.8635C900.0986,-269.0932 1072.8087,-262.4949 1172.6843,-258.6792"/>
<polygon fill="#191970" stroke="#191970" points="801.0755,-269.3736 791.2164,-273.253 801.3428,-276.3685 801.0755,-269.3736"/>
</g>
<!-- Node46 -->
<g id="node12" class="node">
<title>Node46</title>
<g id="a_node12"><a xlink:href="classMap.html#a482ac34426e8aa66abb46f60ec329402" target="_top" xlink:title="Initialize the Map with node objects Initialize the Map with node objects. ">
<polygon fill="none" stroke="#000000" points="528.5,-151.2254 528.5,-170.2254 607.5,-170.2254 607.5,-151.2254 528.5,-151.2254"/>
<text text-anchor="middle" x="568" y="-158.2254" font-family="Helvetica,sans-Serif" font-size="10.00" fill="#000000">Map::initMap</text>
</a>
</g>
</g>
<!-- Node45&#45;&gt;Node46 -->
<g id="edge14" class="edge">
<title>Node45&#45;&gt;Node46</title>
<path fill="none" stroke="#191970" d="M465.8575,-183.9396C486.2649,-179.3016 509.3189,-174.062 528.3537,-169.7359"/>
<polygon fill="#191970" stroke="#191970" points="465.0568,-180.5322 456.0812,-186.1615 466.6082,-187.3582 465.0568,-180.5322"/>
</g>
<!-- Node51 -->
<g id="node17" class="node">
<title>Node51</title>
<g id="a_node17"><a xlink:href="classMap.html#afefe996cc1f62b61ec60d0ae415953bf" target="_top" xlink:title="Map::loadMapFromFile">
<polygon fill="none" stroke="#000000" points="664,-179.2254 664,-198.2254 789,-198.2254 789,-179.2254 664,-179.2254"/>
<text text-anchor="middle" x="726.5" y="-186.2254" font-family="Helvetica,sans-Serif" font-size="10.00" fill="#000000">Map::loadMapFromFile</text>
</a>
</g>
</g>
<!-- Node45&#45;&gt;Node51 -->
<g id="edge34" class="edge">
<title>Node45&#45;&gt;Node51</title>
<path fill="none" stroke="#191970" d="M484.4116,-194.1482C538.2812,-192.9415 611.8889,-191.2927 663.7542,-190.1309"/>
<polygon fill="#191970" stroke="#191970" points="484.1722,-190.6526 474.2531,-194.3757 484.329,-197.6508 484.1722,-190.6526"/>
</g>
<!-- Node47 -->
<g id="node13" class="node">
<title>Node47</title>
<g id="a_node13"><a xlink:href="classEngine.html#a260d4834150eae6eec2bde34df6dc827" target="_top" xlink:title="Creates a new game Creates a new game. ">
<polygon fill="none" stroke="#000000" points="837.5,-37.2254 837.5,-56.2254 942.5,-56.2254 942.5,-37.2254 837.5,-37.2254"/>
<text text-anchor="middle" x="890" y="-44.2254" font-family="Helvetica,sans-Serif" font-size="10.00" fill="#000000">Engine::newGame</text>
</a>
</g>
</g>
<!-- Node46&#45;&gt;Node47 -->
<g id="edge15" class="edge">
<title>Node46&#45;&gt;Node47</title>
<path fill="none" stroke="#191970" d="M604.374,-147.8477C669.6312,-124.7442 805.1636,-76.7606 862.9504,-56.302"/>
<polygon fill="#191970" stroke="#191970" points="603.1583,-144.5651 594.8997,-151.2019 605.4945,-151.1638 603.1583,-144.5651"/>
</g>
<!-- Node46&#45;&gt;Node51 -->
<g id="edge23" class="edge">
<title>Node46&#45;&gt;Node51</title>
<path fill="none" stroke="#191970" d="M617.5669,-169.4817C635.0093,-172.563 654.6942,-176.0405 672.4848,-179.1833"/>
<polygon fill="#191970" stroke="#191970" points="618.0438,-166.0118 607.5874,-167.7188 616.826,-172.9051 618.0438,-166.0118"/>
</g>
<!-- Node47&#45;&gt;Node38 -->
<g id="edge22" class="edge">
<title>Node47&#45;&gt;Node38</title>
<path fill="none" stroke="#191970" d="M924.7831,-33.8955C943.5229,-27.6603 967.2102,-20.8512 989,-17.7254 1144.4206,4.5698 1207.5117,20.0853 1339,-65.7254 1372.6269,-87.6707 1395.7953,-131.6995 1404.8083,-151.1325"/>
<polygon fill="#191970" stroke="#191970" points="923.5254,-30.6265 915.1982,-37.1769 925.7928,-37.2491 923.5254,-30.6265"/>
</g>
<!-- Node48 -->
<g id="node14" class="node">
<title>Node48</title>
<g id="a_node14"><a xlink:href="classEngine.html#af7de8d74b0cfacaf06df53e7caf11538" target="_top" xlink:title="Engine::saveGame">
<polygon fill="none" stroke="#000000" points="1003,-37.2254 1003,-56.2254 1111,-56.2254 1111,-37.2254 1003,-37.2254"/>
<text text-anchor="middle" x="1057" y="-44.2254" font-family="Helvetica,sans-Serif" font-size="10.00" fill="#000000">Engine::saveGame</text>
</a>
</g>
</g>
<!-- Node47&#45;&gt;Node48 -->
<g id="edge16" class="edge">
<title>Node47&#45;&gt;Node48</title>
<path fill="none" stroke="#191970" d="M952.8901,-46.7254C969.3065,-46.7254 986.8565,-46.7254 1002.7799,-46.7254"/>
<polygon fill="#191970" stroke="#191970" points="952.8399,-43.2255 942.8398,-46.7254 952.8398,-50.2255 952.8399,-43.2255"/>
</g>
<!-- Node49 -->
<g id="node15" class="node">
<title>Node49</title>
<g id="a_node15"><a xlink:href="classUIManager.html#aa78e356fc3b356d790c848319d1c387e" target="_top" xlink:title="UIManager::setCallbackFunctions">
<polygon fill="none" stroke="#000000" points="1161,-75.2254 1161,-94.2254 1339,-94.2254 1339,-75.2254 1161,-75.2254"/>
<text text-anchor="middle" x="1250" y="-82.2254" font-family="Helvetica,sans-Serif" font-size="10.00" fill="#000000">UIManager::setCallbackFunctions</text>
</a>
</g>
</g>
<!-- Node47&#45;&gt;Node49 -->
<g id="edge18" class="edge">
<title>Node47&#45;&gt;Node49</title>
<path fill="none" stroke="#191970" d="M936.7227,-34.9828C984.5335,-24.817 1060.7187,-13.7609 1125,-27.7254 1166.9535,-36.8394 1211.708,-61.3168 1234.5834,-75.0469"/>
<polygon fill="#191970" stroke="#191970" points="935.6859,-31.6272 926.6726,-37.1959 937.1913,-38.4634 935.6859,-31.6272"/>
</g>
<!-- Node50 -->
<g id="node16" class="node">
<title>Node50</title>
<g id="a_node16"><a xlink:href="classGame.html#a5ed7fc5be77080f7f6dd5363f7f007a1" target="_top" xlink:title="initializes and displays the main menu initializes and displays the main menu ">
<polygon fill="none" stroke="#000000" points="1198.5,-151.2254 1198.5,-170.2254 1301.5,-170.2254 1301.5,-151.2254 1198.5,-151.2254"/>
<text text-anchor="middle" x="1250" y="-158.2254" font-family="Helvetica,sans-Serif" font-size="10.00" fill="#000000">Game::mainMenu</text>
</a>
</g>
</g>
<!-- Node47&#45;&gt;Node50 -->
<g id="edge19" class="edge">
<title>Node47&#45;&gt;Node50</title>
<path fill="none" stroke="#191970" d="M929.7717,-59.3198C1002.3789,-82.3121 1154.8866,-130.6061 1219.7582,-151.1488"/>
<polygon fill="#191970" stroke="#191970" points="930.6643,-55.9312 920.0742,-56.2489 928.551,-62.6046 930.6643,-55.9312"/>
</g>
<!-- Node48&#45;&gt;Node49 -->
<g id="edge17" class="edge">
<title>Node48&#45;&gt;Node49</title>
<path fill="none" stroke="#191970" d="M1115.6016,-58.2635C1143.1289,-63.6834 1175.5476,-70.0664 1201.6482,-75.2054"/>
<polygon fill="#191970" stroke="#191970" points="1116.1898,-54.8122 1105.702,-56.3144 1114.8375,-61.6804 1116.1898,-54.8122"/>
</g>
<!-- Node50&#45;&gt;Node39 -->
<g id="edge20" class="edge">
<title>Node50&#45;&gt;Node39</title>
<path fill="none" stroke="#191970" d="M1310.9441,-171.8718C1331.2452,-175.0807 1354.0283,-178.1407 1375,-179.7254 1412.1272,-182.531 1454.5536,-182.2131 1484.8759,-181.3798"/>
<polygon fill="#191970" stroke="#191970" points="1311.3195,-168.387 1300.8878,-170.239 1310.1975,-175.2965 1311.3195,-168.387"/>
</g>
<!-- Node50&#45;&gt;Node40 -->
<g id="edge21" class="edge">
<title>Node50&#45;&gt;Node40</title>
<path fill="none" stroke="#191970" d="M1310.9441,-149.579C1331.2452,-146.3701 1354.0283,-143.3102 1375,-141.7254 1409.7823,-139.097 1449.2157,-139.21 1478.9902,-139.9199"/>
<polygon fill="#191970" stroke="#191970" points="1310.1975,-146.1543 1300.8878,-151.2119 1311.3195,-153.0639 1310.1975,-146.1543"/>
</g>
<!-- Node52 -->
<g id="node18" class="node">
<title>Node52</title>
<g id="a_node18"><a xlink:href="classEngine.html#a83b7dbeee899b36a13d5b07c7ad87ebc" target="_top" xlink:title="Loads a saved game Loads a saved Game. ">
<polygon fill="none" stroke="#000000" points="837,-151.2254 837,-170.2254 943,-170.2254 943,-151.2254 837,-151.2254"/>
<text text-anchor="middle" x="890" y="-158.2254" font-family="Helvetica,sans-Serif" font-size="10.00" fill="#000000">Engine::loadGame</text>
</a>
</g>
</g>
<!-- Node51&#45;&gt;Node52 -->
<g id="edge24" class="edge">
<title>Node51&#45;&gt;Node52</title>
<path fill="none" stroke="#191970" d="M792.4142,-177.4373C807.2114,-174.9033 822.7282,-172.246 836.9242,-169.8148"/>
<polygon fill="#191970" stroke="#191970" points="791.5758,-174.0299 782.3101,-179.1677 792.7575,-180.9294 791.5758,-174.0299"/>
</g>
<!-- Node51&#45;&gt;Node54 -->
<g id="edge31" class="edge">
<title>Node51&#45;&gt;Node54</title>
<path fill="none" stroke="#191970" d="M768.971,-201.194C796.5609,-209.2937 831.9806,-219.6922 857.363,-227.1439"/>
<polygon fill="#191970" stroke="#191970" points="769.7747,-197.7823 759.1937,-198.3236 767.8028,-204.4988 769.7747,-197.7823"/>
</g>
<!-- Node52&#45;&gt;Node49 -->
<g id="edge29" class="edge">
<title>Node52&#45;&gt;Node49</title>
<path fill="none" stroke="#191970" d="M945.3598,-149.0383C1016.6245,-133.9936 1139.0938,-108.1389 1204.9553,-94.2348"/>
<polygon fill="#191970" stroke="#191970" points="944.2911,-145.6867 935.2297,-151.1769 945.7371,-152.5358 944.2911,-145.6867"/>
</g>
<!-- Node52&#45;&gt;Node50 -->
<g id="edge30" class="edge">
<title>Node52&#45;&gt;Node50</title>
<path fill="none" stroke="#191970" d="M940.1611,-172.2634C955.7242,-175.3265 972.993,-178.2033 989,-179.7254 1049.173,-185.4474 1064.7274,-184.28 1125,-179.7254 1149.5148,-177.8729 1176.505,-174.0046 1199.1122,-170.239"/>
<polygon fill="#191970" stroke="#191970" points="940.708,-168.803 930.2105,-170.2361 939.3104,-175.6621 940.708,-168.803"/>
</g>
<!-- Node53 -->
<g id="node19" class="node">
<title>Node53</title>
<g id="a_node19"><a xlink:href="classEngine.html#a0ba57971ffb5173ecc425461f65a4cd8" target="_top" xlink:title="Quits the game Sets m_running to false and quitting the game. ">
<polygon fill="none" stroke="#000000" points="1005,-151.2254 1005,-170.2254 1109,-170.2254 1109,-151.2254 1005,-151.2254"/>
<text text-anchor="middle" x="1057" y="-158.2254" font-family="Helvetica,sans-Serif" font-size="10.00" fill="#000000">Engine::quitGame</text>
</a>
</g>
</g>
<!-- Node52&#45;&gt;Node53 -->
<g id="edge25" class="edge">
<title>Node52&#45;&gt;Node53</title>
<path fill="none" stroke="#191970" d="M953.6404,-160.7254C970.5312,-160.7254 988.5728,-160.7254 1004.7774,-160.7254"/>
<polygon fill="#191970" stroke="#191970" points="953.299,-157.2255 943.299,-160.7254 953.299,-164.2255 953.299,-157.2255"/>
</g>
<!-- Node53&#45;&gt;Node37 -->
<g id="edge26" class="edge">
<title>Node53&#45;&gt;Node37</title>
<path fill="none" stroke="#191970" d="M1085.7537,-174.8788C1125.6083,-194.4964 1196.5738,-229.4275 1230.6672,-246.2092"/>
<polygon fill="#191970" stroke="#191970" points="1087.0857,-171.6334 1076.568,-170.3573 1083.9943,-177.9138 1087.0857,-171.6334"/>
</g>
<!-- Node53&#45;&gt;Node49 -->
<g id="edge27" class="edge">
<title>Node53&#45;&gt;Node49</title>
<path fill="none" stroke="#191970" d="M1094.8128,-147.7943C1104.6783,-144.3074 1115.2708,-140.4627 1125,-136.7254 1161.4223,-122.7342 1203.1683,-105.0234 1228.0193,-94.2997"/>
<polygon fill="#191970" stroke="#191970" points="1093.529,-144.5354 1085.2485,-151.1448 1095.8434,-151.1418 1093.529,-144.5354"/>
</g>
<!-- Node53&#45;&gt;Node50 -->
<g id="edge28" class="edge">
<title>Node53&#45;&gt;Node50</title>
<path fill="none" stroke="#191970" d="M1119.5372,-160.7254C1145.0304,-160.7254 1174.1483,-160.7254 1198.3984,-160.7254"/>
<polygon fill="#191970" stroke="#191970" points="1119.2286,-157.2255 1109.2286,-160.7254 1119.2285,-164.2255 1119.2286,-157.2255"/>
</g>
<!-- Node55 -->
<g id="node21" class="node">
<title>Node55</title>
<g id="a_node21"><a xlink:href="classEngine.html#a8a53c5e52734a5158b317851361b83f2" target="_top" xlink:title="Engine::setTileIDOfNode">
<polygon fill="none" stroke="#000000" points="989,-303.2254 989,-322.2254 1125,-322.2254 1125,-303.2254 989,-303.2254"/>
<text text-anchor="middle" x="1057" y="-310.2254" font-family="Helvetica,sans-Serif" font-size="10.00" fill="#000000">Engine::setTileIDOfNode</text>
</a>
</g>
</g>
<!-- Node54&#45;&gt;Node55 -->
<g id="edge32" class="edge">
<title>Node54&#45;&gt;Node55</title>
<path fill="none" stroke="#191970" d="M920.46,-250.5874C953.9539,-265.8302 1006.877,-289.915 1036.0211,-303.1781"/>
<polygon fill="#191970" stroke="#191970" points="921.7022,-247.3074 911.1507,-246.3509 918.8027,-253.6787 921.7022,-247.3074"/>
</g>
<!-- Node55&#45;&gt;Node37 -->
<g id="edge33" class="edge">
<title>Node55&#45;&gt;Node37</title>
<path fill="none" stroke="#191970" d="M1098.9351,-300.3404C1134.5685,-289.8166 1184.9873,-274.9261 1217.5907,-265.297"/>
<polygon fill="#191970" stroke="#191970" points="1097.903,-296.9957 1089.3039,-303.1849 1099.8857,-303.7091 1097.903,-296.9957"/>
</g>
<!-- Node56&#45;&gt;Node35 -->
<g id="edge40" class="edge">
<title>Node56&#45;&gt;Node35</title>
<path fill="none" stroke="#191970" d="M347.3,-322.1539C294.8671,-317.3792 220.0675,-309.6952 155,-299.7254 137.956,-297.1139 119.3331,-293.5671 103.0952,-290.245"/>
<polygon fill="#191970" stroke="#191970" points="347.2054,-325.6595 357.4789,-323.0699 347.8328,-318.6876 347.2054,-325.6595"/>
</g>
<!-- Node56&#45;&gt;Node42 -->
<g id="edge41" class="edge">
<title>Node56&#45;&gt;Node42</title>
<path fill="none" stroke="#191970" d="M347.2929,-316.6236C314.6403,-308.5468 277.7377,-298.0555 255.8335,-290.2463"/>
<polygon fill="#191970" stroke="#191970" points="346.7251,-320.0874 357.2688,-319.047 348.3776,-313.2852 346.7251,-320.0874"/>
</g>
<!-- Node56&#45;&gt;Node43 -->
<g id="edge39" class="edge">
<title>Node56&#45;&gt;Node43</title>
<path fill="none" stroke="#191970" d="M452.8085,-314.8732C479.6521,-305.9835 514.788,-294.3476 539.1637,-286.2751"/>
<polygon fill="#191970" stroke="#191970" points="451.3589,-311.6663 442.9662,-318.1327 453.5596,-318.3114 451.3589,-311.6663"/>
</g>
<!-- Node56&#45;&gt;Node54 -->
<g id="edge42" class="edge">
<title>Node56&#45;&gt;Node54</title>
<path fill="none" stroke="#191970" d="M480.9119,-325.3998C573.3465,-321.5839 735.0389,-312.567 791,-294.7254 824.9719,-283.8944 859.838,-259.8533 877.7387,-246.3709"/>
<polygon fill="#191970" stroke="#191970" points="480.6684,-321.9067 470.8177,-325.8072 480.9508,-328.901 480.6684,-321.9067"/>
</g>
<!-- Node57 -->
<g id="node23" class="node">
<title>Node57</title>
<g id="a_node23"><a xlink:href="classEngine.html#addfc50e21da201426444d8b4a07b3976" target="_top" xlink:title="Engine::demolishNode">
<polygon fill="none" stroke="#000000" points="827,-341.2254 827,-360.2254 953,-360.2254 953,-341.2254 827,-341.2254"/>
<text text-anchor="middle" x="890" y="-348.2254" font-family="Helvetica,sans-Serif" font-size="10.00" fill="#000000">Engine::demolishNode</text>
</a>
</g>
</g>
<!-- Node56&#45;&gt;Node57 -->
<g id="edge36" class="edge">
<title>Node56&#45;&gt;Node57</title>
<path fill="none" stroke="#191970" d="M480.9738,-330.9615C572.9332,-335.4049 737.0912,-343.337 826.9454,-347.6787"/>
<polygon fill="#191970" stroke="#191970" points="481.1012,-327.4637 470.9439,-330.4769 480.7633,-334.4555 481.1012,-327.4637"/>
</g>
<!-- Node57&#45;&gt;Node37 -->
<g id="edge38" class="edge">
<title>Node57&#45;&gt;Node37</title>
<path fill="none" stroke="#191970" d="M963.5302,-353.418C1010.7388,-353.0622 1072.7636,-348.6587 1125,-331.7254 1170.904,-316.8448 1217.5245,-282.1886 1238.5121,-265.308"/>
<polygon fill="#191970" stroke="#191970" points="963.3818,-349.9181 953.3875,-353.4343 963.3931,-356.9181 963.3818,-349.9181"/>
</g>
<!-- Node57&#45;&gt;Node55 -->
<g id="edge37" class="edge">
<title>Node57&#45;&gt;Node55</title>
<path fill="none" stroke="#191970" d="M941.9646,-338.9011C965.5086,-333.5438 992.9737,-327.2943 1015.1619,-322.2455"/>
<polygon fill="#191970" stroke="#191970" points="941.1153,-335.5048 932.1412,-341.1364 942.6685,-342.3304 941.1153,-335.5048"/>
</g>
</g>
</svg>
