<?xml version="1.0" encoding="UTF-8" standalone="no"?>
<!DOCTYPE svg PUBLIC "-//W3C//DTD SVG 1.1//EN"
 "http://www.w3.org/Graphics/SVG/1.1/DTD/svg11.dtd">
<!-- Generated by graphviz version 2.40.1 (20161225.0304)
 -->
<!-- Title: UIManager::stopTooltip Pages: 1 -->
<svg width="636pt" height="66pt"
 viewBox="0.00 0.00 636.00 66.00" xmlns="http://www.w3.org/2000/svg" xmlns:xlink="http://www.w3.org/1999/xlink">
<g id="graph0" class="graph" transform="scale(1 1) rotate(0) translate(4 62)">
<title>UIManager::stopTooltip</title>
<!-- Node247 -->
<g id="node1" class="node">
<title>Node247</title>
<polygon fill="#bfbfbf" stroke="#000000" points="0,-19.5 0,-38.5 128,-38.5 128,-19.5 0,-19.5"/>
<text text-anchor="middle" x="64" y="-26.5" font-family="Helvetica,sans-Serif" font-size="10.00" fill="#000000">UIManager::stopTooltip</text>
</g>
<!-- Node248 -->
<g id="node2" class="node">
<title>Node248</title>
<g id="a_node2"><a xlink:href="classEventManager.html#a65ec91fd5016d4f9c4167fb8babed2df" target="_top" xlink:title="EventManager::checkEvents">
<polygon fill="none" stroke="#000000" points="164,-19.5 164,-38.5 318,-38.5 318,-19.5 164,-19.5"/>
<text text-anchor="middle" x="241" y="-26.5" font-family="Helvetica,sans-Serif" font-size="10.00" fill="#000000">EventManager::checkEvents</text>
</a>
</g>
</g>
<!-- Node247&#45;&gt;Node248 -->
<g id="edge1" class="edge">
<title>Node247&#45;&gt;Node248</title>
<path fill="none" stroke="#191970" d="M138.3191,-29C146.7438,-29 155.3446,-29 163.8052,-29"/>
<polygon fill="#191970" stroke="#191970" points="138.1514,-25.5001 128.1513,-29 138.1513,-32.5001 138.1514,-25.5001"/>
</g>
<!-- Node249 -->
<g id="node3" class="node">
<title>Node249</title>
<g id="a_node3"><a xlink:href="classGame.html#a1c2ab25d5216b2f4b2fe41efd2c09114" target="_top" xlink:title="begins the game starts running the game ">
<polygon fill="none" stroke="#000000" points="354,-19.5 354,-38.5 422,-38.5 422,-19.5 354,-19.5"/>
<text text-anchor="middle" x="388" y="-26.5" font-family="Helvetica,sans-Serif" font-size="10.00" fill="#000000">Game::run</text>
</a>
</g>
</g>
<!-- Node248&#45;&gt;Node249 -->
<g id="edge2" class="edge">
<title>Node248&#45;&gt;Node249</title>
<path fill="none" stroke="#191970" d="M328.5248,-29C337.4338,-29 346.0572,-29 353.845,-29"/>
<polygon fill="#191970" stroke="#191970" points="328.3744,-25.5001 318.3744,-29 328.3743,-32.5001 328.3744,-25.5001"/>
</g>
<!-- Node250 -->
<g id="node4" class="node">
<title>Node250</title>
<g id="a_node4"><a xlink:href="classGame.html#ad59df6562a58a614fda24622d3715b65" target="_top" xlink:title="Game::Game">
<polygon fill="none" stroke="#000000" points="464,-38.5 464,-57.5 545,-57.5 545,-38.5 464,-38.5"/>
<text text-anchor="middle" x="504.5" y="-45.5" font-family="Helvetica,sans-Serif" font-size="10.00" fill="#000000">Game::Game</text>
</a>
</g>
</g>
<!-- Node249&#45;&gt;Node250 -->
<g id="edge3" class="edge">
<title>Node249&#45;&gt;Node250</title>
<path fill="none" stroke="#191970" d="M432.0985,-36.192C442.4513,-37.8805 453.439,-39.6725 463.6427,-41.3366"/>
<polygon fill="#191970" stroke="#191970" points="432.4428,-32.702 422.0098,-34.5467 431.316,-39.6107 432.4428,-32.702"/>
</g>
<!-- Node251 -->
<g id="node5" class="node">
<title>Node251</title>
<g id="a_node5"><a xlink:href="main_8cxx.html#af582d708d899e67ead623eac34a22387" target="_top" xlink:title="protected_main">
<polygon fill="none" stroke="#000000" points="458,-.5 458,-19.5 551,-19.5 551,-.5 458,-.5"/>
<text text-anchor="middle" x="504.5" y="-7.5" font-family="Helvetica,sans-Serif" font-size="10.00" fill="#000000">protected_main</text>
</a>
</g>
</g>
<!-- Node249&#45;&gt;Node251 -->
<g id="edge4" class="edge">
<title>Node249&#45;&gt;Node251</title>
<path fill="none" stroke="#191970" d="M431.9884,-21.8259C440.382,-20.457 449.1965,-19.0195 457.6749,-17.6367"/>
<polygon fill="#191970" stroke="#191970" points="431.316,-18.3893 422.0098,-23.4533 432.4428,-25.298 431.316,-18.3893"/>
</g>
<!-- Node252 -->
<g id="node6" class="node">
<title>Node252</title>
<g id="a_node6"><a xlink:href="main_8cxx.html#a3c04138a5bfe5d72780bb7e82a18e627" target="_top" xlink:title="main">
<polygon fill="none" stroke="#000000" points="587,-.5 587,-19.5 628,-19.5 628,-.5 587,-.5"/>
<text text-anchor="middle" x="607.5" y="-7.5" font-family="Helvetica,sans-Serif" font-size="10.00" fill="#000000">main</text>
</a>
</g>
</g>
<!-- Node251&#45;&gt;Node252 -->
<g id="edge5" class="edge">
<title>Node251&#45;&gt;Node252</title>
<path fill="none" stroke="#191970" d="M561.2133,-10C570.4322,-10 579.4259,-10 586.9965,-10"/>
<polygon fill="#191970" stroke="#191970" points="561.1782,-6.5001 551.1782,-10 561.1781,-13.5001 561.1782,-6.5001"/>
</g>
</g>
</svg>
