<?xml version="1.0" encoding="UTF-8" standalone="no"?>
<!DOCTYPE svg PUBLIC "-//W3C//DTD SVG 1.1//EN"
 "http://www.w3.org/Graphics/SVG/1.1/DTD/svg11.dtd">
<!-- Generated by graphviz version 2.40.1 (20161225.0304)
 -->
<!-- Title: LOG::operator&lt;&lt; Pages: 1 -->
<svg width="404pt" height="28pt"
 viewBox="0.00 0.00 404.00 28.00" xmlns="http://www.w3.org/2000/svg" xmlns:xlink="http://www.w3.org/1999/xlink">
<g id="graph0" class="graph" transform="scale(1 1) rotate(0) translate(4 24)">
<title>LOG::operator&lt;&lt;</title>
<!-- Node13 -->
<g id="node1" class="node">
<title>Node13</title>
<polygon fill="#bfbfbf" stroke="#000000" points="0,-.5 0,-19.5 101,-19.5 101,-.5 0,-.5"/>
<text text-anchor="middle" x="50.5" y="-7.5" font-family="Helvetica,sans-Serif" font-size="10.00" fill="#000000">LOG::operator&lt;&lt;</text>
</g>
<!-- Node14 -->
<g id="node2" class="node">
<title>Node14</title>
<g id="a_node2"><a xlink:href="classLOG.html#a6fc1e3db47b4b54e899cf480f8a2306f" target="_top" xlink:title="Write log message to error.log file Write log message to error.log file. ">
<polygon fill="none" stroke="#000000" points="137,-.5 137,-19.5 245,-19.5 245,-.5 137,-.5"/>
<text text-anchor="middle" x="191" y="-7.5" font-family="Helvetica,sans-Serif" font-size="10.00" fill="#000000">LOG::writeErrorLog</text>
</a>
</g>
</g>
<!-- Node13&#45;&gt;Node14 -->
<g id="edge1" class="edge">
<title>Node13&#45;&gt;Node14</title>
<path fill="none" stroke="#191970" d="M101.2237,-10C109.3824,-10 117.9228,-10 126.3548,-10"/>
<polygon fill="#191970" stroke="#191970" points="126.5534,-13.5001 136.5534,-10 126.5533,-6.5001 126.5534,-13.5001"/>
</g>
<!-- Node15 -->
<g id="node3" class="node">
<title>Node15</title>
<g id="a_node3"><a xlink:href="classLOG.html#a34dd9431a9ac7f8d0188dbee424b1c83" target="_top" xlink:title="Gets formatted TimeStamp Gets formatted TimeStamp. ">
<polygon fill="none" stroke="#000000" points="281,-.5 281,-19.5 396,-19.5 396,-.5 281,-.5"/>
<text text-anchor="middle" x="338.5" y="-7.5" font-family="Helvetica,sans-Serif" font-size="10.00" fill="#000000">LOG::getTimeStamp</text>
</a>
</g>
</g>
<!-- Node14&#45;&gt;Node15 -->
<g id="edge2" class="edge">
<title>Node14&#45;&gt;Node15</title>
<path fill="none" stroke="#191970" d="M245.086,-10C253.4775,-10 262.2355,-10 270.8803,-10"/>
<polygon fill="#191970" stroke="#191970" points="270.948,-13.5001 280.9479,-10 270.9479,-6.5001 270.948,-13.5001"/>
</g>
</g>
</svg>
