<?xml version="1.0" encoding="UTF-8" standalone="no"?>
<!DOCTYPE svg PUBLIC "-//W3C//DTD SVG 1.1//EN"
 "http://www.w3.org/Graphics/SVG/1.1/DTD/svg11.dtd">
<!-- Generated by graphviz version 2.40.1 (20161225.0304)
 -->
<!-- Title: Map::updateNeighborsOfNode Pages: 1 -->
<!--zoomable 369 -->
<svg id="main" version="1.1" xmlns="http://www.w3.org/2000/svg" xmlns:xlink="http://www.w3.org/1999/xlink" xml:space="preserve" onload="init(evt)">
<style type="text/css"><![CDATA[
.edge:hover path { stroke: red; }
.edge:hover polygon { stroke: red; fill: red; }
]]></style>
<script type="text/javascript"><![CDATA[
var edges = document.getElementsByTagName('g');
if (edges && edges.length) {
  for (var i=0;i<edges.length;i++) {
    if (edges[i].id.substr(0,4)=='edge') {
      edges[i].setAttribute('class','edge');
    }
  }
}
]]></script>
        <defs>
                <circle id="rim" cx="0" cy="0" r="7"/>
                <circle id="rim2" cx="0" cy="0" r="3.5"/>
                <g id="zoomPlus">
                        <use xlink:href="#rim" fill="#404040">
                                <set attributeName="fill" to="#808080" begin="zoomplus.mouseover" end="zoomplus.mouseout"/>
                        </use>
                        <path d="M-4,0h8M0,-4v8" fill="none" stroke="white" stroke-width="1.5" pointer-events="none"/>
                </g>
                <g id="zoomMin">
                        <use xlink:href="#rim" fill="#404040">
                                <set attributeName="fill" to="#808080" begin="zoomminus.mouseover" end="zoomminus.mouseout"/>
                        </use>
                        <path d="M-4,0h8" fill="none" stroke="white" stroke-width="1.5" pointer-events="none"/>
                </g>
                <g id="dirArrow">
                        <path fill="none" stroke="white" stroke-width="1.5" d="M0,-3.0v7 M-2.5,-0.5L0,-3.0L2.5,-0.5"/>
                </g>
               <g id="resetDef">
                       <use xlink:href="#rim2" fill="#404040">
                               <set attributeName="fill" to="#808080" begin="reset.mouseover" end="reset.mouseout"/>
                       </use>
               </g>
        </defs>

<script type="text/javascript">
var viewWidth = 1508;
var viewHeight = 369;
var sectionId = 'dynsection-35';
</script>
<script xlink:href="svgpan.js"/>
<svg id="graph" class="graph">
<g id="viewport">
<title>Map::updateNeighborsOfNode</title>
<!-- Node411 -->
<g id="node1" class="node">
<title>Node411</title>
<polygon fill="#bfbfbf" stroke="#000000" points="0,-250.2254 0,-269.2254 163,-269.2254 163,-250.2254 0,-250.2254"/>
<text text-anchor="middle" x="81.5" y="-257.2254" font-family="Helvetica,sans-Serif" font-size="10.00" fill="#000000">Map::updateNeighborsOfNode</text>
</g>
<!-- Node412 -->
<g id="node2" class="node">
<title>Node412</title>
<g id="a_node2"><a xlink:href="classMap.html#aba5154a4d917900679a3c0f7ec701561" target="_top" xlink:title="Increase Height Increases the height of the node and checks the surrounding tiles. Either draw a slope sprite or elevate the tile if necessary. ">
<polygon fill="none" stroke="#000000" points="356.5,-189.2254 356.5,-208.2254 472.5,-208.2254 472.5,-189.2254 356.5,-189.2254"/>
<text text-anchor="middle" x="414.5" y="-196.2254" font-family="Helvetica,sans-Serif" font-size="10.00" fill="#000000">Map::increaseHeight</text>
</a>
</g>
</g>
<!-- Node411&#45;&gt;Node412 -->
<g id="edge1" class="edge">
<title>Node411&#45;&gt;Node412</title>
<path fill="none" stroke="#191970" d="M103.402,-245.8653C126.8281,-236.1114 165.1833,-224.6333 199,-217.7254 251.6742,-206.9654 312.4796,-199.5086 356.0429,-196.5638"/>
<polygon fill="#191970" stroke="#191970" points="101.7377,-242.7758 94.046,-250.0619 104.6026,-249.1627 101.7377,-242.7758"/>
</g>
<!-- Node419 -->
<g id="node9" class="node">
<title>Node419</title>
<g id="a_node9"><a xlink:href="classMap.html#afb8cc864df90d273a5074872d635dc40" target="_top" xlink:title="Decrease Height Decreases the height of the node and checks the surrounding tiles. Either draw a slope sprite or lower the tile if necessary. ">
<polygon fill="none" stroke="#000000" points="355,-341.2254 355,-360.2254 474,-360.2254 474,-341.2254 355,-341.2254"/>
<text text-anchor="middle" x="414.5" y="-348.2254" font-family="Helvetica,sans-Serif" font-size="10.00" fill="#000000">Map::decreaseHeight</text>
</a>
</g>
</g>
<!-- Node411&#45;&gt;Node419 -->
<g id="edge9" class="edge">
<title>Node411&#45;&gt;Node419</title>
<path fill="none" stroke="#191970" d="M143.855,-272.1662C161.5953,-277.5571 180.9908,-283.6058 199,-288.7254 270.3399,-309.0057 356.2422,-328.7543 394.4684,-341.1303"/>
<polygon fill="#191970" stroke="#191970" points="144.7737,-268.7876 134.1889,-269.249 142.7511,-275.4891 144.7737,-268.7876"/>
</g>
<!-- Node421 -->
<g id="node11" class="node">
<title>Node421</title>
<g id="a_node11"><a xlink:href="classMap.html#a481b37ba71ef0e51e836fc42805762dd" target="_top" xlink:title="Update all mapNodes Updates all mapNode and its adjacent tiles regarding height information, draws slopes for adjacent tiles and sets tiling for mapNode sprite if applicable. ">
<polygon fill="none" stroke="#000000" points="199,-137.2254 199,-156.2254 319,-156.2254 319,-137.2254 199,-137.2254"/>
<text text-anchor="middle" x="259" y="-144.2254" font-family="Helvetica,sans-Serif" font-size="10.00" fill="#000000">Map::updateAllNodes</text>
</a>
</g>
</g>
<!-- Node411&#45;&gt;Node421 -->
<g id="edge13" class="edge">
<title>Node411&#45;&gt;Node421</title>
<path fill="none" stroke="#191970" d="M99.7989,-243.3715C122.0331,-224.1119 161.2674,-192.0489 199,-170.7254 208.865,-165.1505 220.2852,-160.2388 230.4979,-156.3348"/>
<polygon fill="#191970" stroke="#191970" points="97.3617,-240.8535 92.1484,-250.077 101.9757,-246.1177 97.3617,-240.8535"/>
</g>
<!-- Node430 -->
<g id="node20" class="node">
<title>Node430</title>
<g id="a_node20"><a xlink:href="classMap.html#a779c939483a52b32a3959b99af95e67a" target="_top" xlink:title="Set the Tile ID Of Node object Also invokes all necessary texture updates (auto&#45;tiling, slopes, ...) ">
<polygon fill="none" stroke="#000000" points="679.5,-265.2254 679.5,-284.2254 802.5,-284.2254 802.5,-265.2254 679.5,-265.2254"/>
<text text-anchor="middle" x="741" y="-272.2254" font-family="Helvetica,sans-Serif" font-size="10.00" fill="#000000">Map::setTileIDOfNode</text>
</a>
</g>
</g>
<!-- Node411&#45;&gt;Node430 -->
<g id="edge43" class="edge">
<title>Node411&#45;&gt;Node430</title>
<path fill="none" stroke="#191970" d="M173.2408,-258.9978C217.3211,-258.8342 270.9039,-258.9067 319,-259.7254 462.618,-262.1702 498.4607,-265.3815 642,-270.7254 654.1187,-271.1766 667.0708,-271.6826 679.4782,-272.1791"/>
<polygon fill="#191970" stroke="#191970" points="173.1052,-255.4982 163.1199,-259.04 173.1345,-262.4981 173.1052,-255.4982"/>
</g>
<!-- Node432 -->
<g id="node22" class="node">
<title>Node432</title>
<g id="a_node22"><a xlink:href="classMap.html#a05e7d896dc5062af07c9b838600a068d" target="_top" xlink:title="Demolish a node Invokes the tiles demolish function. ">
<polygon fill="none" stroke="#000000" points="202.5,-269.2254 202.5,-288.2254 315.5,-288.2254 315.5,-269.2254 202.5,-269.2254"/>
<text text-anchor="middle" x="259" y="-276.2254" font-family="Helvetica,sans-Serif" font-size="10.00" fill="#000000">Map::demolishNode</text>
</a>
</g>
</g>
<!-- Node411&#45;&gt;Node432 -->
<g id="edge35" class="edge">
<title>Node411&#45;&gt;Node432</title>
<path fill="none" stroke="#191970" d="M173.3782,-262.814C190.606,-264.6992 207.6764,-266.907 221.9885,-269.1591"/>
<polygon fill="#191970" stroke="#191970" points="173.5484,-259.3126 163.2362,-261.7434 172.8135,-266.2739 173.5484,-259.3126"/>
</g>
<!-- Node412&#45;&gt;Node411 -->
<g id="edge8" class="edge">
<title>Node412&#45;&gt;Node411</title>
<path fill="none" stroke="#191970" d="M367.9332,-209.7769C324.0685,-216.1259 256.6622,-223.9465 199,-235.7254 179.4857,-239.7117 158.4601,-245.2198 139.6641,-250.1492"/>
<polygon fill="#191970" stroke="#191970" points="368.6361,-213.211 378.0119,-208.2771 367.6056,-206.2872 368.6361,-213.211"/>
</g>
<!-- Node413 -->
<g id="node3" class="node">
<title>Node413</title>
<g id="a_node3"><a xlink:href="classEngine.html#a4851ae1ff696c893741167fc0194fd77" target="_top" xlink:title="Increase Height Increases the height of the given map node Calls the according function of the Map ob...">
<polygon fill="none" stroke="#000000" points="511.5,-189.2254 511.5,-208.2254 640.5,-208.2254 640.5,-189.2254 511.5,-189.2254"/>
<text text-anchor="middle" x="576" y="-196.2254" font-family="Helvetica,sans-Serif" font-size="10.00" fill="#000000">Engine::increaseHeight</text>
</a>
</g>
</g>
<!-- Node412&#45;&gt;Node413 -->
<g id="edge2" class="edge">
<title>Node412&#45;&gt;Node413</title>
<path fill="none" stroke="#191970" d="M482.9542,-198.7254C492.4139,-198.7254 502.1042,-198.7254 511.4892,-198.7254"/>
<polygon fill="#191970" stroke="#191970" points="482.8052,-195.2255 472.8052,-198.7254 482.8052,-202.2255 482.8052,-195.2255"/>
</g>
<!-- Node414 -->
<g id="node4" class="node">
<title>Node414</title>
<g id="a_node4"><a xlink:href="classEventManager.html#a65ec91fd5016d4f9c4167fb8babed2df" target="_top" xlink:title="EventManager::checkEvents">
<polygon fill="none" stroke="#000000" points="1024,-246.2254 1024,-265.2254 1178,-265.2254 1178,-246.2254 1024,-246.2254"/>
<text text-anchor="middle" x="1101" y="-253.2254" font-family="Helvetica,sans-Serif" font-size="10.00" fill="#000000">EventManager::checkEvents</text>
</a>
</g>
</g>
<!-- Node413&#45;&gt;Node414 -->
<g id="edge3" class="edge">
<title>Node413&#45;&gt;Node414</title>
<path fill="none" stroke="#191970" d="M650.8667,-206.8538C749.9116,-217.6072 923.6216,-236.4672 1023.8157,-247.3454"/>
<polygon fill="#191970" stroke="#191970" points="650.9578,-203.3432 640.6384,-205.7433 650.2021,-210.3023 650.9578,-203.3432"/>
</g>
<!-- Node415 -->
<g id="node5" class="node">
<title>Node415</title>
<g id="a_node5"><a xlink:href="classGame.html#a1c2ab25d5216b2f4b2fe41efd2c09114" target="_top" xlink:title="begins the game starts running the game ">
<polygon fill="none" stroke="#000000" points="1226,-151.2254 1226,-170.2254 1294,-170.2254 1294,-151.2254 1226,-151.2254"/>
<text text-anchor="middle" x="1260" y="-158.2254" font-family="Helvetica,sans-Serif" font-size="10.00" fill="#000000">Game::run</text>
</a>
</g>
</g>
<!-- Node414&#45;&gt;Node415 -->
<g id="edge4" class="edge">
<title>Node414&#45;&gt;Node415</title>
<path fill="none" stroke="#191970" d="M1125.714,-240.9592C1158.6333,-221.2904 1215.9507,-187.0442 1243.8366,-170.3828"/>
<polygon fill="#191970" stroke="#191970" points="1123.91,-237.9598 1117.1208,-246.0935 1127.5004,-243.9689 1123.91,-237.9598"/>
</g>
<!-- Node416 -->
<g id="node6" class="node">
<title>Node416</title>
<g id="a_node6"><a xlink:href="classGame.html#ad59df6562a58a614fda24622d3715b65" target="_top" xlink:title="Game::Game">
<polygon fill="none" stroke="#000000" points="1336,-132.2254 1336,-151.2254 1417,-151.2254 1417,-132.2254 1336,-132.2254"/>
<text text-anchor="middle" x="1376.5" y="-139.2254" font-family="Helvetica,sans-Serif" font-size="10.00" fill="#000000">Game::Game</text>
</a>
</g>
</g>
<!-- Node415&#45;&gt;Node416 -->
<g id="edge5" class="edge">
<title>Node415&#45;&gt;Node416</title>
<path fill="none" stroke="#191970" d="M1304.0985,-153.5334C1314.4513,-151.8449 1325.439,-150.053 1335.6427,-148.3888"/>
<polygon fill="#191970" stroke="#191970" points="1303.316,-150.1147 1294.0098,-155.1787 1304.4428,-157.0234 1303.316,-150.1147"/>
</g>
<!-- Node417 -->
<g id="node7" class="node">
<title>Node417</title>
<g id="a_node7"><a xlink:href="main_8cxx.html#af582d708d899e67ead623eac34a22387" target="_top" xlink:title="protected_main">
<polygon fill="none" stroke="#000000" points="1330,-170.2254 1330,-189.2254 1423,-189.2254 1423,-170.2254 1330,-170.2254"/>
<text text-anchor="middle" x="1376.5" y="-177.2254" font-family="Helvetica,sans-Serif" font-size="10.00" fill="#000000">protected_main</text>
</a>
</g>
</g>
<!-- Node415&#45;&gt;Node417 -->
<g id="edge6" class="edge">
<title>Node415&#45;&gt;Node417</title>
<path fill="none" stroke="#191970" d="M1303.9884,-167.8995C1312.382,-169.2684 1321.1965,-170.706 1329.6749,-172.0887"/>
<polygon fill="#191970" stroke="#191970" points="1304.4428,-164.4274 1294.0098,-166.2721 1303.316,-171.3361 1304.4428,-164.4274"/>
</g>
<!-- Node418 -->
<g id="node8" class="node">
<title>Node418</title>
<g id="a_node8"><a xlink:href="main_8cxx.html#a3c04138a5bfe5d72780bb7e82a18e627" target="_top" xlink:title="main">
<polygon fill="none" stroke="#000000" points="1459,-170.2254 1459,-189.2254 1500,-189.2254 1500,-170.2254 1459,-170.2254"/>
<text text-anchor="middle" x="1479.5" y="-177.2254" font-family="Helvetica,sans-Serif" font-size="10.00" fill="#000000">main</text>
</a>
</g>
</g>
<!-- Node417&#45;&gt;Node418 -->
<g id="edge7" class="edge">
<title>Node417&#45;&gt;Node418</title>
<path fill="none" stroke="#191970" d="M1433.2133,-179.7254C1442.4322,-179.7254 1451.4259,-179.7254 1458.9965,-179.7254"/>
<polygon fill="#191970" stroke="#191970" points="1433.1782,-176.2255 1423.1782,-179.7254 1433.1781,-183.2255 1433.1782,-176.2255"/>
</g>
<!-- Node419&#45;&gt;Node411 -->
<g id="edge12" class="edge">
<title>Node419&#45;&gt;Node411</title>
<path fill="none" stroke="#191970" d="M344.8097,-342.729C302.448,-333.9853 247.3759,-320.4776 199,-306.7254 160.0235,-295.6453 114.5538,-280.2134 93.423,-269.2731"/>
<polygon fill="#191970" stroke="#191970" points="344.2475,-346.1861 354.7429,-344.7378 345.6351,-339.325 344.2475,-346.1861"/>
</g>
<!-- Node420 -->
<g id="node10" class="node">
<title>Node420</title>
<g id="a_node10"><a xlink:href="classEngine.html#a13572fdd7f6470dca48a14497f58980e" target="_top" xlink:title="Decrease Height Decreases the height of the given map node Calls the according function of the Map ob...">
<polygon fill="none" stroke="#000000" points="510,-341.2254 510,-360.2254 642,-360.2254 642,-341.2254 510,-341.2254"/>
<text text-anchor="middle" x="576" y="-348.2254" font-family="Helvetica,sans-Serif" font-size="10.00" fill="#000000">Engine::decreaseHeight</text>
</a>
</g>
</g>
<!-- Node419&#45;&gt;Node420 -->
<g id="edge10" class="edge">
<title>Node419&#45;&gt;Node420</title>
<path fill="none" stroke="#191970" d="M484.3603,-350.7254C492.7945,-350.7254 501.3902,-350.7254 509.7702,-350.7254"/>
<polygon fill="#191970" stroke="#191970" points="484.1778,-347.2255 474.1778,-350.7254 484.1778,-354.2255 484.1778,-347.2255"/>
</g>
<!-- Node420&#45;&gt;Node414 -->
<g id="edge11" class="edge">
<title>Node420&#45;&gt;Node414</title>
<path fill="none" stroke="#191970" d="M652.2427,-351.9187C733.8134,-351.3469 866.2787,-345.063 976,-314.7254 1017.4017,-303.278 1062.0191,-278.9935 1085.1136,-265.4206"/>
<polygon fill="#191970" stroke="#191970" points="652.0464,-348.4194 642.0614,-351.9621 652.0763,-355.4193 652.0464,-348.4194"/>
</g>
<!-- Node422 -->
<g id="node12" class="node">
<title>Node422</title>
<g id="a_node12"><a xlink:href="classMap.html#a482ac34426e8aa66abb46f60ec329402" target="_top" xlink:title="Initialize the Map with node objects Initialize the Map with node objects. ">
<polygon fill="none" stroke="#000000" points="375,-113.2254 375,-132.2254 454,-132.2254 454,-113.2254 375,-113.2254"/>
<text text-anchor="middle" x="414.5" y="-120.2254" font-family="Helvetica,sans-Serif" font-size="10.00" fill="#000000">Map::initMap</text>
</a>
</g>
</g>
<!-- Node421&#45;&gt;Node422 -->
<g id="edge14" class="edge">
<title>Node421&#45;&gt;Node422</title>
<path fill="none" stroke="#191970" d="M329.2752,-135.8791C344.8573,-133.4741 360.8436,-131.0068 374.6994,-128.8683"/>
<polygon fill="#191970" stroke="#191970" points="328.4694,-132.4619 319.1204,-137.4464 329.5372,-139.38 328.4694,-132.4619"/>
</g>
<!-- Node427 -->
<g id="node17" class="node">
<title>Node427</title>
<g id="a_node17"><a xlink:href="classMap.html#afefe996cc1f62b61ec60d0ae415953bf" target="_top" xlink:title="Map::loadMapFromFile">
<polygon fill="none" stroke="#000000" points="513.5,-151.2254 513.5,-170.2254 638.5,-170.2254 638.5,-151.2254 513.5,-151.2254"/>
<text text-anchor="middle" x="576" y="-158.2254" font-family="Helvetica,sans-Serif" font-size="10.00" fill="#000000">Map::loadMapFromFile</text>
</a>
</g>
</g>
<!-- Node421&#45;&gt;Node427 -->
<g id="edge34" class="edge">
<title>Node421&#45;&gt;Node427</title>
<path fill="none" stroke="#191970" d="M329.4075,-149.8349C384.5082,-152.2684 460.4233,-155.6211 513.4146,-157.9614"/>
<polygon fill="#191970" stroke="#191970" points="329.5161,-146.3364 319.3714,-149.3917 329.2072,-153.3295 329.5161,-146.3364"/>
</g>
<!-- Node423 -->
<g id="node13" class="node">
<title>Node423</title>
<g id="a_node13"><a xlink:href="classEngine.html#a260d4834150eae6eec2bde34df6dc827" target="_top" xlink:title="Creates a new game Creates a new game. ">
<polygon fill="none" stroke="#000000" points="688.5,-37.2254 688.5,-56.2254 793.5,-56.2254 793.5,-37.2254 688.5,-37.2254"/>
<text text-anchor="middle" x="741" y="-44.2254" font-family="Helvetica,sans-Serif" font-size="10.00" fill="#000000">Engine::newGame</text>
</a>
</g>
</g>
<!-- Node422&#45;&gt;Node423 -->
<g id="edge15" class="edge">
<title>Node422&#45;&gt;Node423</title>
<path fill="none" stroke="#191970" d="M464.1438,-111.1697C528.6509,-96.1543 640.095,-70.2133 700.0301,-56.2621"/>
<polygon fill="#191970" stroke="#191970" points="463.155,-107.8062 454.2089,-113.4823 464.742,-114.624 463.155,-107.8062"/>
</g>
<!-- Node422&#45;&gt;Node427 -->
<g id="edge23" class="edge">
<title>Node422&#45;&gt;Node427</title>
<path fill="none" stroke="#191970" d="M463.8995,-134.3488C486.8405,-139.7467 513.778,-146.0849 535.4967,-151.1952"/>
<polygon fill="#191970" stroke="#191970" points="464.5432,-130.9048 454.0073,-132.0213 462.9399,-137.7187 464.5432,-130.9048"/>
</g>
<!-- Node423&#45;&gt;Node415 -->
<g id="edge22" class="edge">
<title>Node423&#45;&gt;Node415</title>
<path fill="none" stroke="#191970" d="M775.7831,-33.8955C794.5229,-27.6603 818.2102,-20.8512 840,-17.7254 995.4206,4.5698 1058.5117,20.0853 1190,-65.7254 1223.6269,-87.6707 1246.7953,-131.6995 1255.8083,-151.1325"/>
<polygon fill="#191970" stroke="#191970" points="774.5254,-30.6265 766.1982,-37.1769 776.7928,-37.2491 774.5254,-30.6265"/>
</g>
<!-- Node424 -->
<g id="node14" class="node">
<title>Node424</title>
<g id="a_node14"><a xlink:href="classEngine.html#af7de8d74b0cfacaf06df53e7caf11538" target="_top" xlink:title="Engine::saveGame">
<polygon fill="none" stroke="#000000" points="854,-37.2254 854,-56.2254 962,-56.2254 962,-37.2254 854,-37.2254"/>
<text text-anchor="middle" x="908" y="-44.2254" font-family="Helvetica,sans-Serif" font-size="10.00" fill="#000000">Engine::saveGame</text>
</a>
</g>
</g>
<!-- Node423&#45;&gt;Node424 -->
<g id="edge16" class="edge">
<title>Node423&#45;&gt;Node424</title>
<path fill="none" stroke="#191970" d="M803.8901,-46.7254C820.3065,-46.7254 837.8565,-46.7254 853.7799,-46.7254"/>
<polygon fill="#191970" stroke="#191970" points="803.8399,-43.2255 793.8398,-46.7254 803.8398,-50.2255 803.8399,-43.2255"/>
</g>
<!-- Node425 -->
<g id="node15" class="node">
<title>Node425</title>
<g id="a_node15"><a xlink:href="classUIManager.html#aa78e356fc3b356d790c848319d1c387e" target="_top" xlink:title="UIManager::setCallbackFunctions">
<polygon fill="none" stroke="#000000" points="1012,-75.2254 1012,-94.2254 1190,-94.2254 1190,-75.2254 1012,-75.2254"/>
<text text-anchor="middle" x="1101" y="-82.2254" font-family="Helvetica,sans-Serif" font-size="10.00" fill="#000000">UIManager::setCallbackFunctions</text>
</a>
</g>
</g>
<!-- Node423&#45;&gt;Node425 -->
<g id="edge18" class="edge">
<title>Node423&#45;&gt;Node425</title>
<path fill="none" stroke="#191970" d="M787.7227,-34.9828C835.5335,-24.817 911.7187,-13.7609 976,-27.7254 1017.9535,-36.8394 1062.708,-61.3168 1085.5834,-75.0469"/>
<polygon fill="#191970" stroke="#191970" points="786.6859,-31.6272 777.6726,-37.1959 788.1913,-38.4634 786.6859,-31.6272"/>
</g>
<!-- Node426 -->
<g id="node16" class="node">
<title>Node426</title>
<g id="a_node16"><a xlink:href="classGame.html#a5ed7fc5be77080f7f6dd5363f7f007a1" target="_top" xlink:title="initializes and displays the main menu initializes and displays the main menu ">
<polygon fill="none" stroke="#000000" points="1049.5,-151.2254 1049.5,-170.2254 1152.5,-170.2254 1152.5,-151.2254 1049.5,-151.2254"/>
<text text-anchor="middle" x="1101" y="-158.2254" font-family="Helvetica,sans-Serif" font-size="10.00" fill="#000000">Game::mainMenu</text>
</a>
</g>
</g>
<!-- Node423&#45;&gt;Node426 -->
<g id="edge19" class="edge">
<title>Node423&#45;&gt;Node426</title>
<path fill="none" stroke="#191970" d="M780.7717,-59.3198C853.3789,-82.3121 1005.8866,-130.6061 1070.7582,-151.1488"/>
<polygon fill="#191970" stroke="#191970" points="781.6643,-55.9312 771.0742,-56.2489 779.551,-62.6046 781.6643,-55.9312"/>
</g>
<!-- Node424&#45;&gt;Node425 -->
<g id="edge17" class="edge">
<title>Node424&#45;&gt;Node425</title>
<path fill="none" stroke="#191970" d="M966.6016,-58.2635C994.1289,-63.6834 1026.5476,-70.0664 1052.6482,-75.2054"/>
<polygon fill="#191970" stroke="#191970" points="967.1898,-54.8122 956.702,-56.3144 965.8375,-61.6804 967.1898,-54.8122"/>
</g>
<!-- Node426&#45;&gt;Node416 -->
<g id="edge20" class="edge">
<title>Node426&#45;&gt;Node416</title>
<path fill="none" stroke="#191970" d="M1161.9441,-149.579C1182.2452,-146.3701 1205.0283,-143.3102 1226,-141.7254 1263.1272,-138.9198 1305.5536,-139.2377 1335.8759,-140.071"/>
<polygon fill="#191970" stroke="#191970" points="1161.1975,-146.1543 1151.8878,-151.2119 1162.3195,-153.0639 1161.1975,-146.1543"/>
</g>
<!-- Node426&#45;&gt;Node417 -->
<g id="edge21" class="edge">
<title>Node426&#45;&gt;Node417</title>
<path fill="none" stroke="#191970" d="M1161.9441,-171.8718C1182.2452,-175.0807 1205.0283,-178.1407 1226,-179.7254 1260.7823,-182.3538 1300.2157,-182.2408 1329.9902,-181.5309"/>
<polygon fill="#191970" stroke="#191970" points="1162.3195,-168.387 1151.8878,-170.239 1161.1975,-175.2965 1162.3195,-168.387"/>
</g>
<!-- Node428 -->
<g id="node18" class="node">
<title>Node428</title>
<g id="a_node18"><a xlink:href="classEngine.html#a83b7dbeee899b36a13d5b07c7ad87ebc" target="_top" xlink:title="Loads a saved game Loads a saved Game. ">
<polygon fill="none" stroke="#000000" points="688,-151.2254 688,-170.2254 794,-170.2254 794,-151.2254 688,-151.2254"/>
<text text-anchor="middle" x="741" y="-158.2254" font-family="Helvetica,sans-Serif" font-size="10.00" fill="#000000">Engine::loadGame</text>
</a>
</g>
</g>
<!-- Node427&#45;&gt;Node428 -->
<g id="edge24" class="edge">
<title>Node427&#45;&gt;Node428</title>
<path fill="none" stroke="#191970" d="M649.1678,-160.7254C662.1476,-160.7254 675.4396,-160.7254 687.7363,-160.7254"/>
<polygon fill="#191970" stroke="#191970" points="648.8502,-157.2255 638.8501,-160.7254 648.8501,-164.2255 648.8502,-157.2255"/>
</g>
<!-- Node427&#45;&gt;Node430 -->
<g id="edge31" class="edge">
<title>Node427&#45;&gt;Node430</title>
<path fill="none" stroke="#191970" d="M630.2103,-173.9574C634.3016,-175.6675 638.2803,-177.5831 642,-179.7254 682.2519,-202.9081 718.6239,-245.8939 733.672,-265.063"/>
<polygon fill="#191970" stroke="#191970" points="631.1207,-170.5609 620.5284,-170.3297 628.6646,-177.1159 631.1207,-170.5609"/>
</g>
<!-- Node428&#45;&gt;Node425 -->
<g id="edge29" class="edge">
<title>Node428&#45;&gt;Node425</title>
<path fill="none" stroke="#191970" d="M796.3598,-149.0383C867.6245,-133.9936 990.0938,-108.1389 1055.9553,-94.2348"/>
<polygon fill="#191970" stroke="#191970" points="795.2911,-145.6867 786.2297,-151.1769 796.7371,-152.5358 795.2911,-145.6867"/>
</g>
<!-- Node428&#45;&gt;Node426 -->
<g id="edge30" class="edge">
<title>Node428&#45;&gt;Node426</title>
<path fill="none" stroke="#191970" d="M804.5221,-160.7254C874.2454,-160.7254 984.8354,-160.7254 1049.4148,-160.7254"/>
<polygon fill="#191970" stroke="#191970" points="804.1193,-157.2255 794.1192,-160.7254 804.1192,-164.2255 804.1193,-157.2255"/>
</g>
<!-- Node429 -->
<g id="node19" class="node">
<title>Node429</title>
<g id="a_node19"><a xlink:href="classEngine.html#a0ba57971ffb5173ecc425461f65a4cd8" target="_top" xlink:title="Quits the game Sets m_running to false and quitting the game. ">
<polygon fill="none" stroke="#000000" points="856,-189.2254 856,-208.2254 960,-208.2254 960,-189.2254 856,-189.2254"/>
<text text-anchor="middle" x="908" y="-196.2254" font-family="Helvetica,sans-Serif" font-size="10.00" fill="#000000">Engine::quitGame</text>
</a>
</g>
</g>
<!-- Node428&#45;&gt;Node429 -->
<g id="edge25" class="edge">
<title>Node428&#45;&gt;Node429</title>
<path fill="none" stroke="#191970" d="M792.9646,-172.5497C816.5086,-177.907 843.9737,-184.1565 866.1619,-189.2054"/>
<polygon fill="#191970" stroke="#191970" points="793.6685,-169.1205 783.1412,-170.3144 792.1153,-175.946 793.6685,-169.1205"/>
</g>
<!-- Node429&#45;&gt;Node414 -->
<g id="edge26" class="edge">
<title>Node429&#45;&gt;Node414</title>
<path fill="none" stroke="#191970" d="M949.9351,-211.1104C985.5685,-221.6342 1035.9873,-236.5248 1068.5907,-246.1538"/>
<polygon fill="#191970" stroke="#191970" points="950.8857,-207.7417 940.3039,-208.2659 948.903,-214.4551 950.8857,-207.7417"/>
</g>
<!-- Node429&#45;&gt;Node425 -->
<g id="edge27" class="edge">
<title>Node429&#45;&gt;Node425</title>
<path fill="none" stroke="#191970" d="M932.7686,-184.0953C972.8907,-160.3962 1051.0043,-114.2565 1084.787,-94.302"/>
<polygon fill="#191970" stroke="#191970" points="930.9532,-181.1025 924.1231,-189.2019 934.5133,-187.1296 930.9532,-181.1025"/>
</g>
<!-- Node429&#45;&gt;Node426 -->
<g id="edge28" class="edge">
<title>Node429&#45;&gt;Node426</title>
<path fill="none" stroke="#191970" d="M966.6016,-187.1873C994.1289,-181.7674 1026.5476,-175.3844 1052.6482,-170.2455"/>
<polygon fill="#191970" stroke="#191970" points="965.8375,-183.7704 956.702,-189.1364 967.1898,-190.6386 965.8375,-183.7704"/>
</g>
<!-- Node431 -->
<g id="node21" class="node">
<title>Node431</title>
<g id="a_node21"><a xlink:href="classEngine.html#a8a53c5e52734a5158b317851361b83f2" target="_top" xlink:title="Engine::setTileIDOfNode">
<polygon fill="none" stroke="#000000" points="840,-265.2254 840,-284.2254 976,-284.2254 976,-265.2254 840,-265.2254"/>
<text text-anchor="middle" x="908" y="-272.2254" font-family="Helvetica,sans-Serif" font-size="10.00" fill="#000000">Engine::setTileIDOfNode</text>
</a>
</g>
</g>
<!-- Node430&#45;&gt;Node431 -->
<g id="edge32" class="edge">
<title>Node430&#45;&gt;Node431</title>
<path fill="none" stroke="#191970" d="M812.7426,-274.7254C821.7182,-274.7254 830.8787,-274.7254 839.7981,-274.7254"/>
<polygon fill="#191970" stroke="#191970" points="812.7102,-271.2255 802.7102,-274.7254 812.7101,-278.2255 812.7102,-271.2255"/>
</g>
<!-- Node431&#45;&gt;Node414 -->
<g id="edge33" class="edge">
<title>Node431&#45;&gt;Node414</title>
<path fill="none" stroke="#191970" d="M986.292,-267.0179C998.6288,-265.8034 1011.3776,-264.5483 1023.6918,-263.3361"/>
<polygon fill="#191970" stroke="#191970" points="985.6535,-263.5637 976.0446,-268.0267 986.3394,-270.5301 985.6535,-263.5637"/>
</g>
<!-- Node432&#45;&gt;Node411 -->
<g id="edge41" class="edge">
<title>Node432&#45;&gt;Node411</title>
<path fill="none" stroke="#191970" d="M192.1569,-278.1342C167.1229,-275.8881 139.6084,-272.6192 118.2781,-269.2549"/>
<polygon fill="#191970" stroke="#191970" points="192.0792,-281.6402 202.3403,-279.0019 192.6736,-274.6654 192.0792,-281.6402"/>
</g>
<!-- Node432&#45;&gt;Node412 -->
<g id="edge39" class="edge">
<title>Node432&#45;&gt;Node412</title>
<path fill="none" stroke="#191970" d="M286.8604,-264.3921C318.2913,-248.2218 368.5528,-222.3638 395.6765,-208.4095"/>
<polygon fill="#191970" stroke="#191970" points="285.048,-261.3884 277.7569,-269.0755 288.2503,-267.613 285.048,-261.3884"/>
</g>
<!-- Node432&#45;&gt;Node419 -->
<g id="edge40" class="edge">
<title>Node432&#45;&gt;Node419</title>
<path fill="none" stroke="#191970" d="M286.202,-293.0573C305.2708,-302.9232 331.4577,-316.1124 355,-326.7254 366.1699,-331.7608 378.7262,-336.9001 389.4152,-341.1243"/>
<polygon fill="#191970" stroke="#191970" points="287.6801,-289.881 277.1936,-288.3698 284.4489,-296.0906 287.6801,-289.881"/>
</g>
<!-- Node432&#45;&gt;Node430 -->
<g id="edge42" class="edge">
<title>Node432&#45;&gt;Node430</title>
<path fill="none" stroke="#191970" d="M325.915,-278.1701C419.5564,-277.393 588.3818,-275.9919 679.1945,-275.2383"/>
<polygon fill="#191970" stroke="#191970" points="325.6795,-274.6718 315.7089,-278.2548 325.7376,-281.6716 325.6795,-274.6718"/>
</g>
<!-- Node433 -->
<g id="node23" class="node">
<title>Node433</title>
<g id="a_node23"><a xlink:href="classEngine.html#addfc50e21da201426444d8b4a07b3976" target="_top" xlink:title="Engine::demolishNode">
<polygon fill="none" stroke="#000000" points="678,-303.2254 678,-322.2254 804,-322.2254 804,-303.2254 678,-303.2254"/>
<text text-anchor="middle" x="741" y="-310.2254" font-family="Helvetica,sans-Serif" font-size="10.00" fill="#000000">Engine::demolishNode</text>
</a>
</g>
</g>
<!-- Node432&#45;&gt;Node433 -->
<g id="edge36" class="edge">
<title>Node432&#45;&gt;Node433</title>
<path fill="none" stroke="#191970" d="M325.6728,-287.648C335.4959,-288.7916 345.5026,-289.8622 355,-290.7254 468.4729,-301.0393 601.1789,-307.3482 677.7194,-310.4286"/>
<polygon fill="#191970" stroke="#191970" points="325.8765,-284.1475 315.5317,-286.4356 325.0455,-291.098 325.8765,-284.1475"/>
</g>
<!-- Node433&#45;&gt;Node414 -->
<g id="edge38" class="edge">
<title>Node433&#45;&gt;Node414</title>
<path fill="none" stroke="#191970" d="M814.3445,-310.8354C860.9714,-308.6415 922.4287,-303.9116 976,-293.7254 1010.984,-287.0735 1050.0721,-274.2882 1075.0725,-265.3944"/>
<polygon fill="#191970" stroke="#191970" points="814.1647,-307.3399 804.3292,-311.2786 814.4742,-314.333 814.1647,-307.3399"/>
</g>
<!-- Node433&#45;&gt;Node431 -->
<g id="edge37" class="edge">
<title>Node433&#45;&gt;Node431</title>
<path fill="none" stroke="#191970" d="M792.9646,-300.9011C816.5086,-295.5438 843.9737,-289.2943 866.1619,-284.2455"/>
<polygon fill="#191970" stroke="#191970" points="792.1153,-297.5048 783.1412,-303.1364 793.6685,-304.3304 792.1153,-297.5048"/>
</g>
</g>
</svg>
        <g id="navigator" transform="translate(0 0)" fill="#404254">
                <rect fill="#f2f5e9" fill-opacity="0.5" stroke="#606060" stroke-width=".5" x="0" y="0" width="60" height="60"/>
                <use id="zoomplus" xlink:href="#zoomPlus" x="17" y="9" onmousedown="handleZoom(evt,'in')"/>
                <use id="zoomminus" xlink:href="#zoomMin" x="42" y="9" onmousedown="handleZoom(evt,'out')"/>
                <use id="reset" xlink:href="#resetDef" x="30" y="36" onmousedown="handleReset()"/>
                <g id="arrowUp" xlink:href="#dirArrow" transform="translate(30 24)" onmousedown="handlePan(0,-1)">
                  <use xlink:href="#rim" fill="#404040">
                        <set attributeName="fill" to="#808080" begin="arrowUp.mouseover" end="arrowUp.mouseout"/>
                  </use>
                  <path fill="none" stroke="white" stroke-width="1.5" d="M0,-3.0v7 M-2.5,-0.5L0,-3.0L2.5,-0.5"/>
                </g>
                <g id="arrowRight" xlink:href="#dirArrow" transform="rotate(90) translate(36 -43)" onmousedown="handlePan(1,0)">
                  <use xlink:href="#rim" fill="#404040">
                        <set attributeName="fill" to="#808080" begin="arrowRight.mouseover" end="arrowRight.mouseout"/>
                  </use>
                  <path fill="none" stroke="white" stroke-width="1.5" d="M0,-3.0v7 M-2.5,-0.5L0,-3.0L2.5,-0.5"/>
                </g>
                <g id="arrowDown" xlink:href="#dirArrow" transform="rotate(180) translate(-30 -48)" onmousedown="handlePan(0,1)">
                  <use xlink:href="#rim" fill="#404040">
                        <set attributeName="fill" to="#808080" begin="arrowDown.mouseover" end="arrowDown.mouseout"/>
                  </use>
                  <path fill="none" stroke="white" stroke-width="1.5" d="M0,-3.0v7 M-2.5,-0.5L0,-3.0L2.5,-0.5"/>
                </g>
                <g id="arrowLeft" xlink:href="#dirArrow" transform="rotate(270) translate(-36 17)" onmousedown="handlePan(-1,0)">
                  <use xlink:href="#rim" fill="#404040">
                        <set attributeName="fill" to="#808080" begin="arrowLeft.mouseover" end="arrowLeft.mouseout"/>
                  </use>
                  <path fill="none" stroke="white" stroke-width="1.5" d="M0,-3.0v7 M-2.5,-0.5L0,-3.0L2.5,-0.5"/>
                </g>
        </g>
        <svg viewBox="0 0 15 15" width="100%" height="30px" preserveAspectRatio="xMaxYMin meet">
         <g id="arrow_out" transform="scale(0.3 0.3)">
          <a xlink:href="classMap_a59d21f2688713fbcfe320eb1b24405ca_icgraph_org.svg" target="_base">
           <rect id="button" ry="5" rx="5" y="6" x="6" height="38" width="38"
                fill="#f2f5e9" fill-opacity="0.5" stroke="#606060" stroke-width="1.0"/>
           <path id="arrow"
             d="M 11.500037,31.436501 C 11.940474,20.09759 22.043105,11.32322 32.158766,21.979434 L 37.068811,17.246167 C 37.068811,17.246167 37.088388,32 37.088388,32 L 22.160133,31.978069 C 22.160133,31.978069 26.997745,27.140456 26.997745,27.140456 C 18.528582,18.264221 13.291696,25.230495 11.500037,31.436501 z"
             style="fill:#404040;"/>
          </a>
         </g>
        </svg>
</svg>
