<?xml version="1.0" encoding="UTF-8" standalone="no"?>
<!DOCTYPE svg PUBLIC "-//W3C//DTD SVG 1.1//EN"
 "http://www.w3.org/Graphics/SVG/1.1/DTD/svg11.dtd">
<!-- Generated by graphviz version 2.40.1 (20161225.0304)
 -->
<!-- Title: Text::setFontSize Pages: 1 -->
<svg width="536pt" height="39pt"
 viewBox="0.00 0.00 536.00 39.00" xmlns="http://www.w3.org/2000/svg" xmlns:xlink="http://www.w3.org/1999/xlink">
<g id="graph0" class="graph" transform="scale(1 1) rotate(0) translate(4 35)">
<title>Text::setFontSize</title>
<!-- Node34 -->
<g id="node1" class="node">
<title>Node34</title>
<polygon fill="#bfbfbf" stroke="#000000" points="0,-6 0,-25 99,-25 99,-6 0,-6"/>
<text text-anchor="middle" x="49.5" y="-13" font-family="Helvetica,sans-Serif" font-size="10.00" fill="#000000">Text::setFontSize</text>
</g>
<!-- Node35 -->
<g id="node2" class="node">
<title>Node35</title>
<g id="a_node2"><a xlink:href="classText.html#a14b9f0937696af5fd95317eb8313bf92" target="_top" xlink:title="sets the text for this text widget. ">
<polygon fill="none" stroke="#000000" points="135,-6 135,-25 213,-25 213,-6 135,-6"/>
<text text-anchor="middle" x="174" y="-13" font-family="Helvetica,sans-Serif" font-size="10.00" fill="#000000">Text::setText</text>
</a>
</g>
</g>
<!-- Node34&#45;&gt;Node35 -->
<g id="edge1" class="edge">
<title>Node34&#45;&gt;Node35</title>
<path fill="none" stroke="#191970" d="M99.0634,-15.5C107.5482,-15.5 116.3614,-15.5 124.8358,-15.5"/>
<polygon fill="#191970" stroke="#191970" points="124.9597,-19.0001 134.9597,-15.5 124.9596,-12.0001 124.9597,-19.0001"/>
</g>
<!-- Node36 -->
<g id="node3" class="node">
<title>Node36</title>
<g id="a_node3"><a xlink:href="classText.html#a3bf5a064fd37d06b8d3dc5a700556897" target="_top" xlink:title="Draws a text string to the screen Draws a text string to the screen. This could either be a standalon...">
<polygon fill="none" stroke="#000000" points="249,-6 249,-25 379,-25 379,-6 249,-6"/>
<text text-anchor="middle" x="314" y="-13" font-family="Helvetica,sans-Serif" font-size="10.00" fill="#000000">Text::createTextTexture</text>
</a>
</g>
</g>
<!-- Node35&#45;&gt;Node36 -->
<g id="edge2" class="edge">
<title>Node35&#45;&gt;Node36</title>
<path fill="none" stroke="#191970" d="M213.3704,-15.5C221.3341,-15.5 229.9567,-15.5 238.6902,-15.5"/>
<polygon fill="#191970" stroke="#191970" points="238.9607,-19.0001 248.9606,-15.5 238.9606,-12.0001 238.9607,-19.0001"/>
</g>
<!-- Node37 -->
<g id="node4" class="node">
<title>Node37</title>
<g id="a_node4"><a xlink:href="classSingleton.html#af5cb1e5749949e2b68416cfb8d378044" target="_top" xlink:title="Get an instance of the singleton. ">
<polygon fill="none" stroke="#000000" points="415,-.5 415,-30.5 528,-30.5 528,-.5 415,-.5"/>
<text text-anchor="start" x="423" y="-18.5" font-family="Helvetica,sans-Serif" font-size="10.00" fill="#000000">Singleton&lt; Settings</text>
<text text-anchor="middle" x="471.5" y="-7.5" font-family="Helvetica,sans-Serif" font-size="10.00" fill="#000000"> &gt;::instance</text>
</a>
</g>
</g>
<!-- Node36&#45;&gt;Node37 -->
<g id="edge3" class="edge">
<title>Node36&#45;&gt;Node37</title>
<path fill="none" stroke="#191970" d="M379.4259,-8.8366C387.7178,-8.7279 396.2128,-8.7215 404.5285,-8.8176"/>
<polygon fill="#191970" stroke="#191970" points="404.4999,-12.3175 414.5571,-8.9855 404.6172,-5.3185 404.4999,-12.3175"/>
</g>
<!-- Node36&#45;&gt;Node37 -->
<g id="edge4" class="edge">
<title>Node36&#45;&gt;Node37</title>
<path fill="none" stroke="#191970" d="M379.4259,-22.1634C387.7178,-22.2721 396.2128,-22.2785 404.5285,-22.1824"/>
<polygon fill="#191970" stroke="#191970" points="404.6172,-25.6815 414.5571,-22.0145 404.4999,-18.6825 404.6172,-25.6815"/>
</g>
</g>
</svg>
