<?xml version="1.0" encoding="UTF-8" standalone="no"?>
<!DOCTYPE svg PUBLIC "-//W3C//DTD SVG 1.1//EN"
 "http://www.w3.org/Graphics/SVG/1.1/DTD/svg11.dtd">
<!-- Generated by graphviz version 2.40.1 (20161225.0304)
 -->
<!-- Title: AudioMixer::AudioMixer Pages: 1 -->
<svg width="662pt" height="140pt"
 viewBox="0.00 0.00 662.00 140.00" xmlns="http://www.w3.org/2000/svg" xmlns:xlink="http://www.w3.org/1999/xlink">
<g id="graph0" class="graph" transform="scale(1 1) rotate(0) translate(4 136)">
<title>AudioMixer::AudioMixer</title>
<!-- Node0 -->
<g id="node1" class="node">
<title>Node0</title>
<polygon fill="#bfbfbf" stroke="#000000" points="0,-69 0,-88 132,-88 132,-69 0,-69"/>
<text text-anchor="middle" x="66" y="-76" font-family="Helvetica,sans-Serif" font-size="10.00" fill="#000000">AudioMixer::AudioMixer</text>
</g>
<!-- Node1 -->
<g id="node2" class="node">
<title>Node1</title>
<g id="a_node2"><a xlink:href="classAudioMixer.html#a8768f4604c540f6e4730cce4ed7a85d0" target="_top" xlink:title="Loads all game sounds, can be called in new thread. ">
<polygon fill="none" stroke="#000000" points="168,-69 168,-88 314,-88 314,-69 168,-69"/>
<text text-anchor="middle" x="241" y="-76" font-family="Helvetica,sans-Serif" font-size="10.00" fill="#000000">AudioMixer::loadAllSounds</text>
</a>
</g>
</g>
<!-- Node0&#45;&gt;Node1 -->
<g id="edge1" class="edge">
<title>Node0&#45;&gt;Node1</title>
<path fill="none" stroke="#191970" d="M132.16,-78.5C140.5082,-78.5 149.1324,-78.5 157.7028,-78.5"/>
<polygon fill="#191970" stroke="#191970" points="157.7191,-82.0001 167.7191,-78.5 157.719,-75.0001 157.7191,-82.0001"/>
</g>
<!-- Node2 -->
<g id="node3" class="node">
<title>Node2</title>
<g id="a_node3"><a xlink:href="classSingleton.html#af5cb1e5749949e2b68416cfb8d378044" target="_top" xlink:title="Get an instance of the singleton. ">
<polygon fill="none" stroke="#000000" points="541,-101.5 541,-131.5 654,-131.5 654,-101.5 541,-101.5"/>
<text text-anchor="start" x="549" y="-119.5" font-family="Helvetica,sans-Serif" font-size="10.00" fill="#000000">Singleton&lt; Settings</text>
<text text-anchor="middle" x="597.5" y="-108.5" font-family="Helvetica,sans-Serif" font-size="10.00" fill="#000000"> &gt;::instance</text>
</a>
</g>
</g>
<!-- Node1&#45;&gt;Node2 -->
<g id="edge2" class="edge">
<title>Node1&#45;&gt;Node2</title>
<path fill="none" stroke="#191970" d="M261.748,-88.0899C283.2771,-97.4724 318.1874,-111.1137 350,-116.5 410.4436,-126.734 480.3874,-125.561 530.469,-122.5169"/>
<polygon fill="#191970" stroke="#191970" points="530.7751,-126.0045 540.5275,-121.8642 530.3218,-119.0191 530.7751,-126.0045"/>
</g>
<!-- Node3 -->
<g id="node4" class="node">
<title>Node3</title>
<g id="a_node4"><a xlink:href="classAudioMixer.html#a796bf8b85793a12857d2b92d3cd41d23" target="_top" xlink:title="Loads all sounds into the AudioMixer. ">
<polygon fill="none" stroke="#000000" points="351,-88 351,-107 504,-107 504,-88 351,-88"/>
<text text-anchor="middle" x="427.5" y="-95" font-family="Helvetica,sans-Serif" font-size="10.00" fill="#000000">AudioMixer::loadSoundtrack</text>
</a>
</g>
</g>
<!-- Node1&#45;&gt;Node3 -->
<g id="edge3" class="edge">
<title>Node1&#45;&gt;Node3</title>
<path fill="none" stroke="#191970" d="M314.1745,-85.9548C322.9236,-86.8461 331.9202,-87.7626 340.8361,-88.671"/>
<polygon fill="#191970" stroke="#191970" points="340.5474,-92.1596 350.8507,-89.6912 341.2569,-85.1956 340.5474,-92.1596"/>
</g>
<!-- Node4 -->
<g id="node5" class="node">
<title>Node4</title>
<g id="a_node5"><a xlink:href="classAudioMixer.html#a1e99011921698de1ae9aa2afc2789166" target="_top" xlink:title="Called whenever a Channel has finished playing. ">
<polygon fill="none" stroke="#000000" points="350,-50 350,-69 505,-69 505,-50 350,-50"/>
<text text-anchor="middle" x="427.5" y="-57" font-family="Helvetica,sans-Serif" font-size="10.00" fill="#000000">AudioMixer::onTrackFinished</text>
</a>
</g>
</g>
<!-- Node1&#45;&gt;Node4 -->
<g id="edge5" class="edge">
<title>Node1&#45;&gt;Node4</title>
<path fill="none" stroke="#191970" d="M314.1745,-71.0452C322.6094,-70.1859 331.2745,-69.3031 339.8755,-68.4269"/>
<polygon fill="#191970" stroke="#191970" points="340.3315,-71.8986 349.9252,-67.4031 339.622,-64.9347 340.3315,-71.8986"/>
</g>
<!-- Node5 -->
<g id="node6" class="node">
<title>Node5</title>
<g id="a_node6"><a xlink:href="classAudioMixer.html#a8e10448151f086ed146a48b5872f64aa" target="_top" xlink:title="AudioMixer::onTrackFinished\lFuncPtr">
<polygon fill="none" stroke="#000000" points="350,-.5 350,-30.5 505,-30.5 505,-.5 350,-.5"/>
<text text-anchor="start" x="358" y="-18.5" font-family="Helvetica,sans-Serif" font-size="10.00" fill="#000000">AudioMixer::onTrackFinished</text>
<text text-anchor="middle" x="427.5" y="-7.5" font-family="Helvetica,sans-Serif" font-size="10.00" fill="#000000">FuncPtr</text>
</a>
</g>
</g>
<!-- Node1&#45;&gt;Node5 -->
<g id="edge6" class="edge">
<title>Node1&#45;&gt;Node5</title>
<path fill="none" stroke="#191970" d="M267.8166,-68.9548C289.8434,-61.1619 321.8807,-49.9355 350,-40.5 356.5738,-38.2941 363.4735,-36.0159 370.3327,-33.7739"/>
<polygon fill="#191970" stroke="#191970" points="371.8842,-36.9498 380.3109,-30.5277 369.7186,-30.2932 371.8842,-36.9498"/>
</g>
<!-- Node3&#45;&gt;Node2 -->
<g id="edge4" class="edge">
<title>Node3&#45;&gt;Node2</title>
<path fill="none" stroke="#191970" d="M504.0456,-106.0551C512.977,-107.0533 522.0342,-108.0656 530.8174,-109.0472"/>
<polygon fill="#191970" stroke="#191970" points="530.6514,-112.5504 540.9783,-110.1829 531.4289,-105.5937 530.6514,-112.5504"/>
</g>
</g>
</svg>
