<?xml version="1.0" encoding="UTF-8" standalone="no"?>
<!DOCTYPE svg PUBLIC "-//W3C//DTD SVG 1.1//EN"
 "http://www.w3.org/Graphics/SVG/1.1/DTD/svg11.dtd">
<!-- Generated by graphviz version 2.40.1 (20161225.0304)
 -->
<!-- Title: Game Pages: 1 -->
<!--zoomable 874 -->
<svg id="main" version="1.1" xmlns="http://www.w3.org/2000/svg" xmlns:xlink="http://www.w3.org/1999/xlink" xml:space="preserve" onload="init(evt)">
<style type="text/css"><![CDATA[
.edge:hover path { stroke: red; }
.edge:hover polygon { stroke: red; fill: red; }
]]></style>
<script type="text/javascript"><![CDATA[
var edges = document.getElementsByTagName('g');
if (edges && edges.length) {
  for (var i=0;i<edges.length;i++) {
    if (edges[i].id.substr(0,4)=='edge') {
      edges[i].setAttribute('class','edge');
    }
  }
}
]]></script>
        <defs>
                <circle id="rim" cx="0" cy="0" r="7"/>
                <circle id="rim2" cx="0" cy="0" r="3.5"/>
                <g id="zoomPlus">
                        <use xlink:href="#rim" fill="#404040">
                                <set attributeName="fill" to="#808080" begin="zoomplus.mouseover" end="zoomplus.mouseout"/>
                        </use>
                        <path d="M-4,0h8M0,-4v8" fill="none" stroke="white" stroke-width="1.5" pointer-events="none"/>
                </g>
                <g id="zoomMin">
                        <use xlink:href="#rim" fill="#404040">
                                <set attributeName="fill" to="#808080" begin="zoomminus.mouseover" end="zoomminus.mouseout"/>
                        </use>
                        <path d="M-4,0h8" fill="none" stroke="white" stroke-width="1.5" pointer-events="none"/>
                </g>
                <g id="dirArrow">
                        <path fill="none" stroke="white" stroke-width="1.5" d="M0,-3.0v7 M-2.5,-0.5L0,-3.0L2.5,-0.5"/>
                </g>
               <g id="resetDef">
                       <use xlink:href="#rim2" fill="#404040">
                               <set attributeName="fill" to="#808080" begin="reset.mouseover" end="reset.mouseout"/>
                       </use>
               </g>
        </defs>

<script type="text/javascript">
var viewWidth = 608;
var viewHeight = 874;
var sectionId = 'dynsection-0';
</script>
<script xlink:href="svgpan.js"/>
<svg id="graph" class="graph">
<g id="viewport">
<title>Game</title>
<!-- Node1 -->
<g id="node1" class="node">
<title>Node1</title>
<polygon fill="#bfbfbf" stroke="#000000" points="266.5,-.5 266.5,-134.5 355.5,-134.5 355.5,-.5 266.5,-.5"/>
<text text-anchor="middle" x="311" y="-122.5" font-family="Helvetica,sans-Serif" font-size="10.00" fill="#000000">Game</text>
<polyline fill="none" stroke="#000000" points="266.5,-115.5 355.5,-115.5 "/>
<text text-anchor="start" x="274.5" y="-103.5" font-family="Helvetica,sans-Serif" font-size="10.00" fill="#000000">&#45; m_UILoop</text>
<text text-anchor="start" x="274.5" y="-92.5" font-family="Helvetica,sans-Serif" font-size="10.00" fill="#000000">&#45; m_EventLoop</text>
<polyline fill="none" stroke="#000000" points="266.5,-85.5 355.5,-85.5 "/>
<text text-anchor="start" x="274.5" y="-73.5" font-family="Helvetica,sans-Serif" font-size="10.00" fill="#000000">+ Game()</text>
<text text-anchor="start" x="274.5" y="-62.5" font-family="Helvetica,sans-Serif" font-size="10.00" fill="#000000">+ ~Game()</text>
<text text-anchor="start" x="274.5" y="-51.5" font-family="Helvetica,sans-Serif" font-size="10.00" fill="#000000">+ initialize()</text>
<text text-anchor="start" x="274.5" y="-40.5" font-family="Helvetica,sans-Serif" font-size="10.00" fill="#000000">+ run()</text>
<text text-anchor="start" x="274.5" y="-29.5" font-family="Helvetica,sans-Serif" font-size="10.00" fill="#000000">+ shutdown()</text>
<text text-anchor="start" x="274.5" y="-18.5" font-family="Helvetica,sans-Serif" font-size="10.00" fill="#000000">+ mainMenu()</text>
<text text-anchor="start" x="274.5" y="-7.5" font-family="Helvetica,sans-Serif" font-size="10.00" fill="#000000">&#45; LoopMain()</text>
</g>
<!-- Node2 -->
<g id="node2" class="node">
<title>Node2</title>
<g id="a_node2"><a xlink:href="classMessageQueue.html" target="_top" xlink:title="{MessageQueue\&lt; typename\l VariantType\&lt; UIEvents\l \&gt;::type \&gt;\n|&#45; m_OnEvent\l&#45; m_Semaphore\l&#45; m_Queue\l|+ push()\l+ peek()\l+ getEnumerable()\l+ MessageQueue()\l+ MessageQueue()\l+ MessageQueue()\l+ operator=()\l+ operator=()\l&#45; wakeCondition()\l}">
<polygon fill="none" stroke="#000000" points="0,-182.5 0,-371.5 152,-371.5 152,-182.5 0,-182.5"/>
<text text-anchor="start" x="8" y="-359.5" font-family="Helvetica,sans-Serif" font-size="10.00" fill="#000000">MessageQueue&lt; typename</text>
<text text-anchor="start" x="8" y="-348.5" font-family="Helvetica,sans-Serif" font-size="10.00" fill="#000000"> VariantType&lt; UIEvents</text>
<text text-anchor="middle" x="76" y="-337.5" font-family="Helvetica,sans-Serif" font-size="10.00" fill="#000000"> &gt;::type &gt;</text>
<polyline fill="none" stroke="#000000" points="0,-330.5 152,-330.5 "/>
<text text-anchor="start" x="8" y="-318.5" font-family="Helvetica,sans-Serif" font-size="10.00" fill="#000000">&#45; m_OnEvent</text>
<text text-anchor="start" x="8" y="-307.5" font-family="Helvetica,sans-Serif" font-size="10.00" fill="#000000">&#45; m_Semaphore</text>
<text text-anchor="start" x="8" y="-296.5" font-family="Helvetica,sans-Serif" font-size="10.00" fill="#000000">&#45; m_Queue</text>
<polyline fill="none" stroke="#000000" points="0,-289.5 152,-289.5 "/>
<text text-anchor="start" x="8" y="-277.5" font-family="Helvetica,sans-Serif" font-size="10.00" fill="#000000">+ push()</text>
<text text-anchor="start" x="8" y="-266.5" font-family="Helvetica,sans-Serif" font-size="10.00" fill="#000000">+ peek()</text>
<text text-anchor="start" x="8" y="-255.5" font-family="Helvetica,sans-Serif" font-size="10.00" fill="#000000">+ getEnumerable()</text>
<text text-anchor="start" x="8" y="-244.5" font-family="Helvetica,sans-Serif" font-size="10.00" fill="#000000">+ MessageQueue()</text>
<text text-anchor="start" x="8" y="-233.5" font-family="Helvetica,sans-Serif" font-size="10.00" fill="#000000">+ MessageQueue()</text>
<text text-anchor="start" x="8" y="-222.5" font-family="Helvetica,sans-Serif" font-size="10.00" fill="#000000">+ MessageQueue()</text>
<text text-anchor="start" x="8" y="-211.5" font-family="Helvetica,sans-Serif" font-size="10.00" fill="#000000">+ operator=()</text>
<text text-anchor="start" x="8" y="-200.5" font-family="Helvetica,sans-Serif" font-size="10.00" fill="#000000">+ operator=()</text>
<text text-anchor="start" x="8" y="-189.5" font-family="Helvetica,sans-Serif" font-size="10.00" fill="#000000">&#45; wakeCondition()</text>
</a>
</g>
</g>
<!-- Node2&#45;&gt;Node1 -->
<g id="edge1" class="edge">
<title>Node2&#45;&gt;Node1</title>
<path fill="none" stroke="#404040" d="M147.6779,-182.3177C157.0729,-171.9693 166.9438,-161.9561 177,-153 200.8022,-131.8016 230.4032,-112.3274 255.7253,-97.3366"/>
<polygon fill="none" stroke="#404040" points="255.9131,-97.2275 259.0887,-90.7533 266.2863,-91.1945 263.1107,-97.6688 255.9131,-97.2275"/>
<text text-anchor="middle" x="213" y="-156" font-family="Helvetica,sans-Serif" font-size="10.00" fill="#000000"> &#45;m_UILoopMQ</text>
</g>
<!-- Node3 -->
<g id="node3" class="node">
<title>Node3</title>
<g id="a_node3"><a xlink:href="classMessageQueue.html" target="_top" xlink:title="{MessageQueue\&lt; Event \&gt;\n|&#45; m_OnEvent\l&#45; m_Semaphore\l&#45; m_Queue\l|+ push()\l+ peek()\l+ getEnumerable()\l+ MessageQueue()\l+ operator=()\l+ MessageQueue()\l+ MessageQueue()\l+ operator=()\l&#45; wakeCondition()\l}">
<polygon fill="none" stroke="#000000" points="80.5,-430.5 80.5,-597.5 221.5,-597.5 221.5,-430.5 80.5,-430.5"/>
<text text-anchor="middle" x="151" y="-585.5" font-family="Helvetica,sans-Serif" font-size="10.00" fill="#000000">MessageQueue&lt; Event &gt;</text>
<polyline fill="none" stroke="#000000" points="80.5,-578.5 221.5,-578.5 "/>
<text text-anchor="start" x="88.5" y="-566.5" font-family="Helvetica,sans-Serif" font-size="10.00" fill="#000000">&#45; m_OnEvent</text>
<text text-anchor="start" x="88.5" y="-555.5" font-family="Helvetica,sans-Serif" font-size="10.00" fill="#000000">&#45; m_Semaphore</text>
<text text-anchor="start" x="88.5" y="-544.5" font-family="Helvetica,sans-Serif" font-size="10.00" fill="#000000">&#45; m_Queue</text>
<polyline fill="none" stroke="#000000" points="80.5,-537.5 221.5,-537.5 "/>
<text text-anchor="start" x="88.5" y="-525.5" font-family="Helvetica,sans-Serif" font-size="10.00" fill="#000000">+ push()</text>
<text text-anchor="start" x="88.5" y="-514.5" font-family="Helvetica,sans-Serif" font-size="10.00" fill="#000000">+ peek()</text>
<text text-anchor="start" x="88.5" y="-503.5" font-family="Helvetica,sans-Serif" font-size="10.00" fill="#000000">+ getEnumerable()</text>
<text text-anchor="start" x="88.5" y="-492.5" font-family="Helvetica,sans-Serif" font-size="10.00" fill="#000000">+ MessageQueue()</text>
<text text-anchor="start" x="88.5" y="-481.5" font-family="Helvetica,sans-Serif" font-size="10.00" fill="#000000">+ operator=()</text>
<text text-anchor="start" x="88.5" y="-470.5" font-family="Helvetica,sans-Serif" font-size="10.00" fill="#000000">+ MessageQueue()</text>
<text text-anchor="start" x="88.5" y="-459.5" font-family="Helvetica,sans-Serif" font-size="10.00" fill="#000000">+ MessageQueue()</text>
<text text-anchor="start" x="88.5" y="-448.5" font-family="Helvetica,sans-Serif" font-size="10.00" fill="#000000">+ operator=()</text>
<text text-anchor="start" x="88.5" y="-437.5" font-family="Helvetica,sans-Serif" font-size="10.00" fill="#000000">&#45; wakeCondition()</text>
</a>
</g>
</g>
<!-- Node3&#45;&gt;Node2 -->
<g id="edge2" class="edge">
<title>Node3&#45;&gt;Node2</title>
<path fill="none" stroke="#ffa500" d="M102.1156,-420.8195C101.0121,-417.8686 99.9695,-414.9244 99,-412 94.7357,-399.1365 91.2301,-385.3086 88.3567,-371.5834"/>
<polygon fill="#ffa500" stroke="#ffa500" points="98.9092,-422.2293 105.8315,-430.2501 105.4219,-419.6632 98.9092,-422.2293"/>
<text text-anchor="start" x="99" y="-404" font-family="Helvetica,sans-Serif" font-size="10.00" fill="#000000"> &lt; typename VariantType</text>
<text text-anchor="middle" x="161" y="-393" font-family="Helvetica,sans-Serif" font-size="10.00" fill="#000000">&lt; UIEvents &gt;::type &gt;</text>
</g>
<!-- Node4 -->
<g id="node4" class="node">
<title>Node4</title>
<g id="a_node4"><a xlink:href="classMessageQueue.html" target="_top" xlink:title="{MessageQueue\&lt; typename\l VariantType\&lt; GameEvents\l \&gt;::type \&gt;\n|&#45; m_OnEvent\l&#45; m_Semaphore\l&#45; m_Queue\l|+ push()\l+ peek()\l+ getEnumerable()\l+ MessageQueue()\l+ MessageQueue()\l+ MessageQueue()\l+ operator=()\l+ operator=()\l&#45; wakeCondition()\l}">
<polygon fill="none" stroke="#000000" points="170,-182.5 170,-371.5 322,-371.5 322,-182.5 170,-182.5"/>
<text text-anchor="start" x="178" y="-359.5" font-family="Helvetica,sans-Serif" font-size="10.00" fill="#000000">MessageQueue&lt; typename</text>
<text text-anchor="start" x="178" y="-348.5" font-family="Helvetica,sans-Serif" font-size="10.00" fill="#000000"> VariantType&lt; GameEvents</text>
<text text-anchor="middle" x="246" y="-337.5" font-family="Helvetica,sans-Serif" font-size="10.00" fill="#000000"> &gt;::type &gt;</text>
<polyline fill="none" stroke="#000000" points="170,-330.5 322,-330.5 "/>
<text text-anchor="start" x="178" y="-318.5" font-family="Helvetica,sans-Serif" font-size="10.00" fill="#000000">&#45; m_OnEvent</text>
<text text-anchor="start" x="178" y="-307.5" font-family="Helvetica,sans-Serif" font-size="10.00" fill="#000000">&#45; m_Semaphore</text>
<text text-anchor="start" x="178" y="-296.5" font-family="Helvetica,sans-Serif" font-size="10.00" fill="#000000">&#45; m_Queue</text>
<polyline fill="none" stroke="#000000" points="170,-289.5 322,-289.5 "/>
<text text-anchor="start" x="178" y="-277.5" font-family="Helvetica,sans-Serif" font-size="10.00" fill="#000000">+ push()</text>
<text text-anchor="start" x="178" y="-266.5" font-family="Helvetica,sans-Serif" font-size="10.00" fill="#000000">+ peek()</text>
<text text-anchor="start" x="178" y="-255.5" font-family="Helvetica,sans-Serif" font-size="10.00" fill="#000000">+ getEnumerable()</text>
<text text-anchor="start" x="178" y="-244.5" font-family="Helvetica,sans-Serif" font-size="10.00" fill="#000000">+ MessageQueue()</text>
<text text-anchor="start" x="178" y="-233.5" font-family="Helvetica,sans-Serif" font-size="10.00" fill="#000000">+ MessageQueue()</text>
<text text-anchor="start" x="178" y="-222.5" font-family="Helvetica,sans-Serif" font-size="10.00" fill="#000000">+ MessageQueue()</text>
<text text-anchor="start" x="178" y="-211.5" font-family="Helvetica,sans-Serif" font-size="10.00" fill="#000000">+ operator=()</text>
<text text-anchor="start" x="178" y="-200.5" font-family="Helvetica,sans-Serif" font-size="10.00" fill="#000000">+ operator=()</text>
<text text-anchor="start" x="178" y="-189.5" font-family="Helvetica,sans-Serif" font-size="10.00" fill="#000000">&#45; wakeCondition()</text>
</a>
</g>
</g>
<!-- Node3&#45;&gt;Node4 -->
<g id="edge4" class="edge">
<title>Node3&#45;&gt;Node4</title>
<path fill="none" stroke="#ffa500" d="M218.9157,-421.1488C220.371,-418.1083 221.7381,-415.0552 223,-412 228.219,-399.3647 232.2539,-385.5947 235.3733,-371.8373"/>
<polygon fill="#ffa500" stroke="#ffa500" points="215.715,-419.7216 214.3026,-430.2218 221.9548,-422.8942 215.715,-419.7216"/>
<text text-anchor="start" x="231" y="-404" font-family="Helvetica,sans-Serif" font-size="10.00" fill="#000000"> &lt; typename VariantType</text>
<text text-anchor="middle" x="293" y="-393" font-family="Helvetica,sans-Serif" font-size="10.00" fill="#000000">&lt; GameEvents &gt;::type &gt;</text>
</g>
<!-- Node4&#45;&gt;Node1 -->
<g id="edge3" class="edge">
<title>Node4&#45;&gt;Node1</title>
<path fill="none" stroke="#404040" d="M247.8656,-182.2291C249.5409,-172.2164 251.8533,-162.3032 255,-153 256.631,-148.178 258.5997,-143.363 260.8099,-138.614"/>
<polygon fill="none" stroke="#404040" points="260.9281,-138.3809 260.0773,-131.2202 266.36,-127.6807 267.2108,-134.8415 260.9281,-138.3809"/>
<text text-anchor="middle" x="300.5" y="-156" font-family="Helvetica,sans-Serif" font-size="10.00" fill="#000000"> &#45;m_GameLoopMQ</text>
</g>
<!-- Node5 -->
<g id="node5" class="node">
<title>Node5</title>
<g id="a_node5"><a xlink:href="classRandomizer.html" target="_top" xlink:title="{Randomizer\n|&#45; generator\l|+ Randomizer()\l+ choose()\l}">
<polygon fill="none" stroke="#000000" points="340,-243 340,-311 434,-311 434,-243 340,-243"/>
<text text-anchor="middle" x="387" y="-299" font-family="Helvetica,sans-Serif" font-size="10.00" fill="#000000">Randomizer</text>
<polyline fill="none" stroke="#000000" points="340,-292 434,-292 "/>
<text text-anchor="start" x="348" y="-280" font-family="Helvetica,sans-Serif" font-size="10.00" fill="#000000">&#45; generator</text>
<polyline fill="none" stroke="#000000" points="340,-273 434,-273 "/>
<text text-anchor="start" x="348" y="-261" font-family="Helvetica,sans-Serif" font-size="10.00" fill="#000000">+ Randomizer()</text>
<text text-anchor="start" x="348" y="-250" font-family="Helvetica,sans-Serif" font-size="10.00" fill="#000000">+ choose()</text>
</a>
</g>
</g>
<!-- Node5&#45;&gt;Node1 -->
<g id="edge5" class="edge">
<title>Node5&#45;&gt;Node1</title>
<path fill="none" stroke="#404040" d="M376.4047,-242.8335C368.4734,-217.8049 357.12,-183.0951 346,-153 345.1314,-150.6492 344.2384,-148.2669 343.3273,-145.8656"/>
<polygon fill="none" stroke="#404040" points="343.2758,-145.732 337.3835,-141.575 338.9544,-134.5371 344.8467,-138.6941 343.2758,-145.732"/>
<text text-anchor="middle" x="390.5" y="-156" font-family="Helvetica,sans-Serif" font-size="10.00" fill="#000000"> &#45;m_Randomizer</text>
</g>
<!-- Node6 -->
<g id="node6" class="node">
<title>Node6</title>
<g id="a_node6"><a xlink:href="classGameService.html" target="_top" xlink:title="{GameService\n||+ GameService()\l# GetService()\l}">
<polygon fill="none" stroke="#000000" points="312.5,-480 312.5,-548 413.5,-548 413.5,-480 312.5,-480"/>
<text text-anchor="middle" x="363" y="-536" font-family="Helvetica,sans-Serif" font-size="10.00" fill="#000000">GameService</text>
<polyline fill="none" stroke="#000000" points="312.5,-529 413.5,-529 "/>
<text text-anchor="middle" x="363" y="-517" font-family="Helvetica,sans-Serif" font-size="10.00" fill="#000000"> </text>
<polyline fill="none" stroke="#000000" points="312.5,-510 413.5,-510 "/>
<text text-anchor="start" x="320.5" y="-498" font-family="Helvetica,sans-Serif" font-size="10.00" fill="#000000">+ GameService()</text>
<text text-anchor="start" x="320.5" y="-487" font-family="Helvetica,sans-Serif" font-size="10.00" fill="#000000"># GetService()</text>
</a>
</g>
</g>
<!-- Node6&#45;&gt;Node5 -->
<g id="edge6" class="edge">
<title>Node6&#45;&gt;Node5</title>
<path fill="none" stroke="#191970" d="M367.4734,-469.8251C372.1232,-423.9088 379.3014,-353.0241 383.5369,-311.1984"/>
<polygon fill="none" stroke="#191970" points="363.9896,-469.4895 366.4642,-479.7913 370.954,-470.1948 363.9896,-469.4895"/>
</g>
<!-- Node7 -->
<g id="node7" class="node">
<title>Node7</title>
<g id="a_node7"><a xlink:href="structTupleType.html" target="_top" xlink:title="{TupleType\&lt; TypeList \&gt;\n||}">
<polygon fill="none" stroke="#000000" points="308.5,-703.5 308.5,-760.5 435.5,-760.5 435.5,-703.5 308.5,-703.5"/>
<text text-anchor="middle" x="372" y="-748.5" font-family="Helvetica,sans-Serif" font-size="10.00" fill="#000000">TupleType&lt; TypeList &gt;</text>
<polyline fill="none" stroke="#000000" points="308.5,-741.5 435.5,-741.5 "/>
<text text-anchor="middle" x="372" y="-729.5" font-family="Helvetica,sans-Serif" font-size="10.00" fill="#000000"> </text>
<polyline fill="none" stroke="#000000" points="308.5,-722.5 435.5,-722.5 "/>
<text text-anchor="middle" x="372" y="-710.5" font-family="Helvetica,sans-Serif" font-size="10.00" fill="#000000"> </text>
</a>
</g>
</g>
<!-- Node7&#45;&gt;Node6 -->
<g id="edge7" class="edge">
<title>Node7&#45;&gt;Node6</title>
<path fill="none" stroke="#404040" d="M351.6508,-703.2615C348.4934,-697.462 345.7143,-691.227 344,-685 332.5818,-643.5241 340.0242,-594.5948 348.7199,-559.725"/>
<polygon fill="none" stroke="#404040" points="348.7493,-559.6136 346.4172,-552.7899 351.819,-548.0128 354.1511,-554.8364 348.7493,-559.6136"/>
<text text-anchor="middle" x="376" y="-648" font-family="Helvetica,sans-Serif" font-size="10.00" fill="#000000"> &#45;m_Services</text>
</g>
<!-- Node8 -->
<g id="node8" class="node">
<title>Node8</title>
<g id="a_node8"><a xlink:href="structTupleType.html" target="_top" xlink:title="TupleType::type returns std::tuple&lt;All fields inside the TypeList&gt; ">
<polygon fill="none" stroke="#000000" points="372,-808.5 372,-865.5 476,-865.5 476,-808.5 372,-808.5"/>
<text text-anchor="middle" x="424" y="-853.5" font-family="Helvetica,sans-Serif" font-size="10.00" fill="#000000">TupleType&lt; List &gt;</text>
<polyline fill="none" stroke="#000000" points="372,-846.5 476,-846.5 "/>
<text text-anchor="middle" x="424" y="-834.5" font-family="Helvetica,sans-Serif" font-size="10.00" fill="#000000"> </text>
<polyline fill="none" stroke="#000000" points="372,-827.5 476,-827.5 "/>
<text text-anchor="middle" x="424" y="-815.5" font-family="Helvetica,sans-Serif" font-size="10.00" fill="#000000"> </text>
</a>
</g>
</g>
<!-- Node8&#45;&gt;Node7 -->
<g id="edge8" class="edge">
<title>Node8&#45;&gt;Node7</title>
<path fill="none" stroke="#ffa500" d="M393.6066,-799.9015C391.5564,-796.6471 389.6531,-793.3248 388,-790 383.4426,-780.8338 380.0297,-770.1858 377.553,-760.5339"/>
<polygon fill="#ffa500" stroke="#ffa500" points="390.7984,-801.9967 399.3051,-808.3123 396.5936,-798.0703 390.7984,-801.9967"/>
<text text-anchor="middle" x="421" y="-782" font-family="Helvetica,sans-Serif" font-size="10.00" fill="#000000"> &lt; TypeList &gt;</text>
</g>
<!-- Node9 -->
<g id="node9" class="node">
<title>Node9</title>
<g id="a_node9"><a xlink:href="structTupleType.html" target="_top" xlink:title="{TupleType\&lt; GameService\l::Types \&gt;\n||}">
<polygon fill="none" stroke="#000000" points="417.5,-616.5 417.5,-684.5 558.5,-684.5 558.5,-616.5 417.5,-616.5"/>
<text text-anchor="start" x="425.5" y="-672.5" font-family="Helvetica,sans-Serif" font-size="10.00" fill="#000000">TupleType&lt; GameService</text>
<text text-anchor="middle" x="488" y="-661.5" font-family="Helvetica,sans-Serif" font-size="10.00" fill="#000000">::Types &gt;</text>
<polyline fill="none" stroke="#000000" points="417.5,-654.5 558.5,-654.5 "/>
<text text-anchor="middle" x="488" y="-642.5" font-family="Helvetica,sans-Serif" font-size="10.00" fill="#000000"> </text>
<polyline fill="none" stroke="#000000" points="417.5,-635.5 558.5,-635.5 "/>
<text text-anchor="middle" x="488" y="-623.5" font-family="Helvetica,sans-Serif" font-size="10.00" fill="#000000"> </text>
</a>
</g>
</g>
<!-- Node8&#45;&gt;Node9 -->
<g id="edge10" class="edge">
<title>Node8&#45;&gt;Node9</title>
<path fill="none" stroke="#ffa500" d="M449.3416,-799.6526C451.0463,-796.4547 452.6279,-793.2133 454,-790 468.6844,-755.6125 477.8335,-713.6293 482.8925,-684.7577"/>
<polygon fill="#ffa500" stroke="#ffa500" points="446.2134,-798.0722 444.2832,-808.4897 452.2886,-801.5497 446.2134,-798.0722"/>
<text text-anchor="middle" x="521.5" y="-782" font-family="Helvetica,sans-Serif" font-size="10.00" fill="#000000"> &lt; GameService::Types &gt;</text>
</g>
<!-- Node9&#45;&gt;Node1 -->
<g id="edge9" class="edge">
<title>Node9&#45;&gt;Node1</title>
<path fill="none" stroke="#404040" d="M494.8144,-616.4103C510.1025,-529.8406 538.1935,-298.1128 435,-153 417.5089,-128.4037 390.5839,-108.6064 366.2872,-94.2805"/>
<polygon fill="none" stroke="#404040" points="366.1502,-94.2029 358.9578,-94.7218 355.7125,-88.2823 362.9049,-87.7633 366.1502,-94.2029"/>
<text text-anchor="middle" x="555" y="-398.5" font-family="Helvetica,sans-Serif" font-size="10.00" fill="#000000"> &#45;m_GameContext</text>
</g>
</g>
</svg>
        <g id="navigator" transform="translate(0 0)" fill="#404254">
                <rect fill="#f2f5e9" fill-opacity="0.5" stroke="#606060" stroke-width=".5" x="0" y="0" width="60" height="60"/>
                <use id="zoomplus" xlink:href="#zoomPlus" x="17" y="9" onmousedown="handleZoom(evt,'in')"/>
                <use id="zoomminus" xlink:href="#zoomMin" x="42" y="9" onmousedown="handleZoom(evt,'out')"/>
                <use id="reset" xlink:href="#resetDef" x="30" y="36" onmousedown="handleReset()"/>
                <g id="arrowUp" xlink:href="#dirArrow" transform="translate(30 24)" onmousedown="handlePan(0,-1)">
                  <use xlink:href="#rim" fill="#404040">
                        <set attributeName="fill" to="#808080" begin="arrowUp.mouseover" end="arrowUp.mouseout"/>
                  </use>
                  <path fill="none" stroke="white" stroke-width="1.5" d="M0,-3.0v7 M-2.5,-0.5L0,-3.0L2.5,-0.5"/>
                </g>
                <g id="arrowRight" xlink:href="#dirArrow" transform="rotate(90) translate(36 -43)" onmousedown="handlePan(1,0)">
                  <use xlink:href="#rim" fill="#404040">
                        <set attributeName="fill" to="#808080" begin="arrowRight.mouseover" end="arrowRight.mouseout"/>
                  </use>
                  <path fill="none" stroke="white" stroke-width="1.5" d="M0,-3.0v7 M-2.5,-0.5L0,-3.0L2.5,-0.5"/>
                </g>
                <g id="arrowDown" xlink:href="#dirArrow" transform="rotate(180) translate(-30 -48)" onmousedown="handlePan(0,1)">
                  <use xlink:href="#rim" fill="#404040">
                        <set attributeName="fill" to="#808080" begin="arrowDown.mouseover" end="arrowDown.mouseout"/>
                  </use>
                  <path fill="none" stroke="white" stroke-width="1.5" d="M0,-3.0v7 M-2.5,-0.5L0,-3.0L2.5,-0.5"/>
                </g>
                <g id="arrowLeft" xlink:href="#dirArrow" transform="rotate(270) translate(-36 17)" onmousedown="handlePan(-1,0)">
                  <use xlink:href="#rim" fill="#404040">
                        <set attributeName="fill" to="#808080" begin="arrowLeft.mouseover" end="arrowLeft.mouseout"/>
                  </use>
                  <path fill="none" stroke="white" stroke-width="1.5" d="M0,-3.0v7 M-2.5,-0.5L0,-3.0L2.5,-0.5"/>
                </g>
        </g>
        <svg viewBox="0 0 15 15" width="100%" height="30px" preserveAspectRatio="xMaxYMin meet">
         <g id="arrow_out" transform="scale(0.3 0.3)">
          <a xlink:href="classGame__coll__graph_org.svg" target="_base">
           <rect id="button" ry="5" rx="5" y="6" x="6" height="38" width="38"
                fill="#f2f5e9" fill-opacity="0.5" stroke="#606060" stroke-width="1.0"/>
           <path id="arrow"
             d="M 11.500037,31.436501 C 11.940474,20.09759 22.043105,11.32322 32.158766,21.979434 L 37.068811,17.246167 C 37.068811,17.246167 37.088388,32 37.088388,32 L 22.160133,31.978069 C 22.160133,31.978069 26.997745,27.140456 26.997745,27.140456 C 18.528582,18.264221 13.291696,25.230495 11.500037,31.436501 z"
             style="fill:#404040;"/>
          </a>
         </g>
        </svg>
</svg>
