<?xml version="1.0" encoding="UTF-8" standalone="no"?>
<!DOCTYPE svg PUBLIC "-//W3C//DTD SVG 1.1//EN"
 "http://www.w3.org/Graphics/SVG/1.1/DTD/svg11.dtd">
<!-- Generated by graphviz version 2.40.1 (20161225.0304)
 -->
<!-- Title: UIElement::setPosition Pages: 1 -->
<svg width="482pt" height="85pt"
 viewBox="0.00 0.00 482.00 85.00" xmlns="http://www.w3.org/2000/svg" xmlns:xlink="http://www.w3.org/1999/xlink">
<g id="graph0" class="graph" transform="scale(1 1) rotate(0) translate(4 81)">
<title>UIElement::setPosition</title>
<!-- Node252 -->
<g id="node1" class="node">
<title>Node252</title>
<polygon fill="#bfbfbf" stroke="#000000" points="0,-38.5 0,-57.5 128,-57.5 128,-38.5 0,-38.5"/>
<text text-anchor="middle" x="64" y="-45.5" font-family="Helvetica,sans-Serif" font-size="10.00" fill="#000000">UIElement::setPosition</text>
</g>
<!-- Node253 -->
<g id="node2" class="node">
<title>Node253</title>
<g id="a_node2"><a xlink:href="classTextField.html#abe03b4b6ebf469645940cfa018bcdca2" target="_top" xlink:title="TextField::addText">
<polygon fill="none" stroke="#000000" points="164,-57.5 164,-76.5 268,-76.5 268,-57.5 164,-57.5"/>
<text text-anchor="middle" x="216" y="-64.5" font-family="Helvetica,sans-Serif" font-size="10.00" fill="#000000">TextField::addText</text>
</a>
</g>
</g>
<!-- Node252&#45;&gt;Node253 -->
<g id="edge1" class="edge">
<title>Node252&#45;&gt;Node253</title>
<path fill="none" stroke="#191970" d="M138.0838,-57.2605C146.6912,-58.3364 155.3313,-59.4164 163.5622,-60.4453"/>
<polygon fill="#191970" stroke="#191970" points="138.3781,-53.7701 128.0211,-56.0026 137.5098,-60.716 138.3781,-53.7701"/>
</g>
<!-- Node254 -->
<g id="node3" class="node">
<title>Node254</title>
<g id="a_node3"><a xlink:href="classGame.html#a5ed7fc5be77080f7f6dd5363f7f007a1" target="_top" xlink:title="initializes and displays the main menu initializes and displays the main menu ">
<polygon fill="none" stroke="#000000" points="164.5,-19.5 164.5,-38.5 267.5,-38.5 267.5,-19.5 164.5,-19.5"/>
<text text-anchor="middle" x="216" y="-26.5" font-family="Helvetica,sans-Serif" font-size="10.00" fill="#000000">Game::mainMenu</text>
</a>
</g>
</g>
<!-- Node252&#45;&gt;Node254 -->
<g id="edge2" class="edge">
<title>Node252&#45;&gt;Node254</title>
<path fill="none" stroke="#191970" d="M138.2223,-38.7222C146.9478,-37.6315 155.7047,-36.5369 164.0324,-35.496"/>
<polygon fill="#191970" stroke="#191970" points="137.5098,-35.284 128.0211,-39.9974 138.3781,-42.2299 137.5098,-35.284"/>
</g>
<!-- Node255 -->
<g id="node4" class="node">
<title>Node255</title>
<g id="a_node4"><a xlink:href="classGame.html#ad59df6562a58a614fda24622d3715b65" target="_top" xlink:title="Game::Game">
<polygon fill="none" stroke="#000000" points="310,-38.5 310,-57.5 391,-57.5 391,-38.5 310,-38.5"/>
<text text-anchor="middle" x="350.5" y="-45.5" font-family="Helvetica,sans-Serif" font-size="10.00" fill="#000000">Game::Game</text>
</a>
</g>
</g>
<!-- Node254&#45;&gt;Node255 -->
<g id="edge3" class="edge">
<title>Node254&#45;&gt;Node255</title>
<path fill="none" stroke="#191970" d="M277.5321,-37.6923C288.4269,-39.2313 299.5232,-40.7988 309.6663,-42.2317"/>
<polygon fill="#191970" stroke="#191970" points="278.0078,-34.2248 267.6166,-36.2916 277.0286,-41.156 278.0078,-34.2248"/>
</g>
<!-- Node256 -->
<g id="node5" class="node">
<title>Node256</title>
<g id="a_node5"><a xlink:href="main_8cxx.html#af582d708d899e67ead623eac34a22387" target="_top" xlink:title="protected_main">
<polygon fill="none" stroke="#000000" points="304,-.5 304,-19.5 397,-19.5 397,-.5 304,-.5"/>
<text text-anchor="middle" x="350.5" y="-7.5" font-family="Helvetica,sans-Serif" font-size="10.00" fill="#000000">protected_main</text>
</a>
</g>
</g>
<!-- Node254&#45;&gt;Node256 -->
<g id="edge4" class="edge">
<title>Node254&#45;&gt;Node256</title>
<path fill="none" stroke="#191970" d="M277.745,-20.2777C286.4515,-19.0477 295.2819,-17.8003 303.6472,-16.6186"/>
<polygon fill="#191970" stroke="#191970" points="277.0287,-16.844 267.6166,-21.7084 278.0078,-23.7752 277.0287,-16.844"/>
</g>
<!-- Node257 -->
<g id="node6" class="node">
<title>Node257</title>
<g id="a_node6"><a xlink:href="main_8cxx.html#a3c04138a5bfe5d72780bb7e82a18e627" target="_top" xlink:title="main">
<polygon fill="none" stroke="#000000" points="433,-.5 433,-19.5 474,-19.5 474,-.5 433,-.5"/>
<text text-anchor="middle" x="453.5" y="-7.5" font-family="Helvetica,sans-Serif" font-size="10.00" fill="#000000">main</text>
</a>
</g>
</g>
<!-- Node256&#45;&gt;Node257 -->
<g id="edge5" class="edge">
<title>Node256&#45;&gt;Node257</title>
<path fill="none" stroke="#191970" d="M407.2133,-10C416.4322,-10 425.4259,-10 432.9965,-10"/>
<polygon fill="#191970" stroke="#191970" points="407.1782,-6.5001 397.1782,-10 407.1781,-13.5001 407.1782,-6.5001"/>
</g>
</g>
</svg>
