<?xml version="1.0" encoding="UTF-8" standalone="no"?>
<!DOCTYPE svg PUBLIC "-//W3C//DTD SVG 1.1//EN"
 "http://www.w3.org/Graphics/SVG/1.1/DTD/svg11.dtd">
<!-- Generated by graphviz version 2.40.1 (20161225.0304)
 -->
<!-- Title: Map::updateNeighborsOfNode Pages: 1 -->
<!--zoomable 266 -->
<svg id="main" version="1.1" xmlns="http://www.w3.org/2000/svg" xmlns:xlink="http://www.w3.org/1999/xlink" xml:space="preserve" onload="init(evt)">
<style type="text/css"><![CDATA[
.edge:hover path { stroke: red; }
.edge:hover polygon { stroke: red; fill: red; }
]]></style>
<script type="text/javascript"><![CDATA[
var edges = document.getElementsByTagName('g');
if (edges && edges.length) {
  for (var i=0;i<edges.length;i++) {
    if (edges[i].id.substr(0,4)=='edge') {
      edges[i].setAttribute('class','edge');
    }
  }
}
]]></script>
        <defs>
                <circle id="rim" cx="0" cy="0" r="7"/>
                <circle id="rim2" cx="0" cy="0" r="3.5"/>
                <g id="zoomPlus">
                        <use xlink:href="#rim" fill="#404040">
                                <set attributeName="fill" to="#808080" begin="zoomplus.mouseover" end="zoomplus.mouseout"/>
                        </use>
                        <path d="M-4,0h8M0,-4v8" fill="none" stroke="white" stroke-width="1.5" pointer-events="none"/>
                </g>
                <g id="zoomMin">
                        <use xlink:href="#rim" fill="#404040">
                                <set attributeName="fill" to="#808080" begin="zoomminus.mouseover" end="zoomminus.mouseout"/>
                        </use>
                        <path d="M-4,0h8" fill="none" stroke="white" stroke-width="1.5" pointer-events="none"/>
                </g>
                <g id="dirArrow">
                        <path fill="none" stroke="white" stroke-width="1.5" d="M0,-3.0v7 M-2.5,-0.5L0,-3.0L2.5,-0.5"/>
                </g>
               <g id="resetDef">
                       <use xlink:href="#rim2" fill="#404040">
                               <set attributeName="fill" to="#808080" begin="reset.mouseover" end="reset.mouseout"/>
                       </use>
               </g>
        </defs>

<script type="text/javascript">
var viewWidth = 502;
var viewHeight = 266;
var sectionId = 'dynsection-34';
</script>
<script xlink:href="svgpan.js"/>
<svg id="graph" class="graph">
<g id="viewport">
<title>Map::updateNeighborsOfNode</title>
<!-- Node403 -->
<g id="node1" class="node">
<title>Node403</title>
<polygon fill="#bfbfbf" stroke="#000000" points="0,-88 0,-107 163,-107 163,-88 0,-88"/>
<text text-anchor="middle" x="81.5" y="-95" font-family="Helvetica,sans-Serif" font-size="10.00" fill="#000000">Map::updateNeighborsOfNode</text>
</g>
<!-- Node404 -->
<g id="node2" class="node">
<title>Node404</title>
<g id="a_node2"><a xlink:href="classMap.html#aab37e4a52faf81e9b696b8cf1bd9a690" target="_top" xlink:title="Get neighbor MapNode Objects Stores pointers to the neighboring nodes of the given coordinates in the...">
<polygon fill="none" stroke="#000000" points="218,-238 218,-257 326,-257 326,-238 218,-238"/>
<text text-anchor="middle" x="272" y="-245" font-family="Helvetica,sans-Serif" font-size="10.00" fill="#000000">Map::getNeighbors</text>
</a>
</g>
</g>
<!-- Node403&#45;&gt;Node404 -->
<g id="edge1" class="edge">
<title>Node403&#45;&gt;Node404</title>
<path fill="none" stroke="#191970" d="M87.2636,-107.1464C102.3419,-131.5137 145.5132,-195.9165 199,-228.5 202.5859,-230.6845 206.4186,-232.6198 210.3801,-234.3341"/>
<polygon fill="#191970" stroke="#191970" points="209.2116,-237.6345 219.8018,-237.9463 211.7175,-231.0984 209.2116,-237.6345"/>
</g>
<!-- Node405 -->
<g id="node3" class="node">
<title>Node405</title>
<g id="a_node3"><a xlink:href="classMap.html#a0ff55eb041cdf29aa582a21145319ce0" target="_top" xlink:title="Get elevated neighbor positions in a bitmask Checks all neighboring tiles and returns the elevated ne...">
<polygon fill="none" stroke="#000000" points="199,-188.5 199,-218.5 345,-218.5 345,-188.5 199,-188.5"/>
<text text-anchor="start" x="207" y="-206.5" font-family="Helvetica,sans-Serif" font-size="10.00" fill="#000000">Map::getElevatedNeighbor</text>
<text text-anchor="middle" x="272" y="-195.5" font-family="Helvetica,sans-Serif" font-size="10.00" fill="#000000">Bitmask</text>
</a>
</g>
</g>
<!-- Node403&#45;&gt;Node405 -->
<g id="edge2" class="edge">
<title>Node403&#45;&gt;Node405</title>
<path fill="none" stroke="#191970" d="M94.7559,-107.236C116.0195,-122.5818 159.3914,-152.7774 199,-173.5 206.4173,-177.3806 214.4519,-181.1176 222.3867,-184.5585"/>
<polygon fill="#191970" stroke="#191970" points="221.0387,-187.7885 231.6128,-188.4527 223.7609,-181.3395 221.0387,-187.7885"/>
</g>
<!-- Node406 -->
<g id="node4" class="node">
<title>Node406</title>
<g id="a_node4"><a xlink:href="classMap.html#a05e7d896dc5062af07c9b838600a068d" target="_top" xlink:title="Demolish a node Invokes the tiles demolish function. ">
<polygon fill="none" stroke="#000000" points="381,-95 381,-114 494,-114 494,-95 381,-95"/>
<text text-anchor="middle" x="437.5" y="-102" font-family="Helvetica,sans-Serif" font-size="10.00" fill="#000000">Map::demolishNode</text>
</a>
</g>
</g>
<!-- Node403&#45;&gt;Node406 -->
<g id="edge3" class="edge">
<title>Node403&#45;&gt;Node406</title>
<path fill="none" stroke="#191970" d="M156.344,-107.0298C170.4322,-109.6288 185.1032,-112.038 199,-113.5 263.5327,-120.2892 280.4105,-119.726 345,-113.5 353.3103,-112.6989 361.9831,-111.502 370.5437,-110.1701"/>
<polygon fill="#191970" stroke="#191970" points="371.1989,-113.6097 380.513,-108.5602 370.0829,-106.6992 371.1989,-113.6097"/>
</g>
<!-- Node407 -->
<g id="node5" class="node">
<title>Node407</title>
<g id="a_node5"><a xlink:href="classMap.html#a392940f84796653b8e811ed8dc296c84" target="_top" xlink:title="Get a bitmask that represents same&#45;tile neighbors Checks all neighboring tiles and returns the elevat...">
<polygon fill="none" stroke="#000000" points="201.5,-82.5 201.5,-112.5 342.5,-112.5 342.5,-82.5 201.5,-82.5"/>
<text text-anchor="start" x="209.5" y="-100.5" font-family="Helvetica,sans-Serif" font-size="10.00" fill="#000000">Map::getNeighboringTiles</text>
<text text-anchor="middle" x="272" y="-89.5" font-family="Helvetica,sans-Serif" font-size="10.00" fill="#000000">Bitmask</text>
</a>
</g>
</g>
<!-- Node403&#45;&gt;Node407 -->
<g id="edge5" class="edge">
<title>Node403&#45;&gt;Node407</title>
<path fill="none" stroke="#191970" d="M163.1182,-97.5C172.4625,-97.5 181.9856,-97.5 191.3177,-97.5"/>
<polygon fill="#191970" stroke="#191970" points="191.3514,-101.0001 201.3514,-97.5 191.3514,-94.0001 191.3514,-101.0001"/>
</g>
<!-- Node408 -->
<g id="node6" class="node">
<title>Node408</title>
<g id="a_node6"><a xlink:href="classMap.html#aba5154a4d917900679a3c0f7ec701561" target="_top" xlink:title="Increase Height Increases the height of the node and checks the surrounding tiles. Either draw a slope sprite or elevate the tile if necessary. ">
<polygon fill="none" stroke="#000000" points="214,-6 214,-25 330,-25 330,-6 214,-6"/>
<text text-anchor="middle" x="272" y="-13" font-family="Helvetica,sans-Serif" font-size="10.00" fill="#000000">Map::increaseHeight</text>
</a>
</g>
</g>
<!-- Node403&#45;&gt;Node408 -->
<g id="edge6" class="edge">
<title>Node403&#45;&gt;Node408</title>
<path fill="none" stroke="#191970" d="M89.1676,-87.9713C107.4762,-71.9203 155.4658,-42.5555 199,-25.5 200.6347,-24.8596 202.2984,-24.2341 203.9835,-23.6251"/>
<polygon fill="#191970" stroke="#191970" points="205.4489,-26.8253 213.8172,-20.3273 203.2232,-20.1886 205.4489,-26.8253"/>
</g>
<!-- Node410 -->
<g id="node8" class="node">
<title>Node410</title>
<g id="a_node8"><a xlink:href="classMap.html#afb8cc864df90d273a5074872d635dc40" target="_top" xlink:title="Decrease Height Decreases the height of the node and checks the surrounding tiles. Either draw a slope sprite or lower the tile if necessary. ">
<polygon fill="none" stroke="#000000" points="212.5,-44 212.5,-63 331.5,-63 331.5,-44 212.5,-44"/>
<text text-anchor="middle" x="272" y="-51" font-family="Helvetica,sans-Serif" font-size="10.00" fill="#000000">Map::decreaseHeight</text>
</a>
</g>
</g>
<!-- Node403&#45;&gt;Node410 -->
<g id="edge10" class="edge">
<title>Node403&#45;&gt;Node410</title>
<path fill="none" stroke="#191970" d="M103.3528,-87.9587C127.3694,-80.441 167.1824,-70.5657 202.0957,-63.1129"/>
<polygon fill="#191970" stroke="#191970" points="203.2018,-66.4573 212.2718,-60.9813 201.7666,-59.606 203.2018,-66.4573"/>
</g>
<!-- Node406&#45;&gt;Node403 -->
<g id="edge4" class="edge">
<title>Node406&#45;&gt;Node403</title>
<path fill="none" stroke="#191970" d="M424.138,-114.0657C406.2594,-121.3502 373.4984,-128.753 345,-131.5 280.4105,-137.726 263.5327,-138.2892 199,-131.5 165.7553,-128.0025 128.0796,-119.0846 104.5533,-110.6958"/>
<polygon fill="#191970" stroke="#191970" points="105.6875,-107.3817 95.0986,-107.0257 103.1543,-113.9073 105.6875,-107.3817"/>
</g>
<!-- Node408&#45;&gt;Node403 -->
<g id="edge9" class="edge">
<title>Node408&#45;&gt;Node403</title>
<path fill="none" stroke="#191970" d="M257.1329,-25.0899C242.1478,-30.3456 218.5096,-35.8567 199,-43.5 170.3978,-54.7055 139.8725,-71.2245 117.105,-83.2821"/>
<polygon fill="#191970" stroke="#191970" points="115.3826,-80.2334 108.1616,-87.9864 118.6413,-86.4287 115.3826,-80.2334"/>
</g>
<!-- Node408&#45;&gt;Node406 -->
<g id="edge8" class="edge">
<title>Node408&#45;&gt;Node406</title>
<path fill="none" stroke="#191970" d="M319.7051,-25.0206C328.3407,-27.5491 337.1039,-30.6739 345,-34.5 373.6578,-48.3864 402.204,-71.8248 419.8429,-87.7172"/>
<polygon fill="#191970" stroke="#191970" points="417.8506,-90.6404 427.5785,-94.8378 422.5914,-85.4901 417.8506,-90.6404"/>
</g>
<!-- Node409 -->
<g id="node7" class="node">
<title>Node409</title>
<g id="a_node7"><a xlink:href="classSingleton.html#af5cb1e5749949e2b68416cfb8d378044" target="_top" xlink:title="Get an instance of the singleton. ">
<polygon fill="none" stroke="#000000" points="381,-.5 381,-30.5 494,-30.5 494,-.5 381,-.5"/>
<text text-anchor="start" x="389" y="-18.5" font-family="Helvetica,sans-Serif" font-size="10.00" fill="#000000">Singleton&lt; Settings</text>
<text text-anchor="middle" x="437.5" y="-7.5" font-family="Helvetica,sans-Serif" font-size="10.00" fill="#000000"> &gt;::instance</text>
</a>
</g>
</g>
<!-- Node408&#45;&gt;Node409 -->
<g id="edge7" class="edge">
<title>Node408&#45;&gt;Node409</title>
<path fill="none" stroke="#191970" d="M330.3491,-15.5C343.4012,-15.5 357.3429,-15.5 370.7073,-15.5"/>
<polygon fill="#191970" stroke="#191970" points="370.7903,-19.0001 380.7903,-15.5 370.7903,-12.0001 370.7903,-19.0001"/>
</g>
<!-- Node410&#45;&gt;Node403 -->
<g id="edge12" class="edge">
<title>Node410&#45;&gt;Node403</title>
<path fill="none" stroke="#191970" d="M249.8824,-63.1241C228.0259,-69.9485 193.2737,-78.6925 161.0022,-85.8046"/>
<polygon fill="#191970" stroke="#191970" points="160.1146,-82.4157 151.0835,-87.9555 161.5981,-89.2567 160.1146,-82.4157"/>
</g>
<!-- Node410&#45;&gt;Node406 -->
<g id="edge11" class="edge">
<title>Node410&#45;&gt;Node406</title>
<path fill="none" stroke="#191970" d="M308.5043,-63.0707C320.2015,-66.2524 333.1828,-69.9041 345,-73.5 363.4211,-79.1054 383.7235,-85.846 400.6033,-91.6079"/>
<polygon fill="#191970" stroke="#191970" points="399.5117,-94.9336 410.1063,-94.8714 401.7853,-88.3131 399.5117,-94.9336"/>
</g>
</g>
</svg>
        <g id="navigator" transform="translate(0 0)" fill="#404254">
                <rect fill="#f2f5e9" fill-opacity="0.5" stroke="#606060" stroke-width=".5" x="0" y="0" width="60" height="60"/>
                <use id="zoomplus" xlink:href="#zoomPlus" x="17" y="9" onmousedown="handleZoom(evt,'in')"/>
                <use id="zoomminus" xlink:href="#zoomMin" x="42" y="9" onmousedown="handleZoom(evt,'out')"/>
                <use id="reset" xlink:href="#resetDef" x="30" y="36" onmousedown="handleReset()"/>
                <g id="arrowUp" xlink:href="#dirArrow" transform="translate(30 24)" onmousedown="handlePan(0,-1)">
                  <use xlink:href="#rim" fill="#404040">
                        <set attributeName="fill" to="#808080" begin="arrowUp.mouseover" end="arrowUp.mouseout"/>
                  </use>
                  <path fill="none" stroke="white" stroke-width="1.5" d="M0,-3.0v7 M-2.5,-0.5L0,-3.0L2.5,-0.5"/>
                </g>
                <g id="arrowRight" xlink:href="#dirArrow" transform="rotate(90) translate(36 -43)" onmousedown="handlePan(1,0)">
                  <use xlink:href="#rim" fill="#404040">
                        <set attributeName="fill" to="#808080" begin="arrowRight.mouseover" end="arrowRight.mouseout"/>
                  </use>
                  <path fill="none" stroke="white" stroke-width="1.5" d="M0,-3.0v7 M-2.5,-0.5L0,-3.0L2.5,-0.5"/>
                </g>
                <g id="arrowDown" xlink:href="#dirArrow" transform="rotate(180) translate(-30 -48)" onmousedown="handlePan(0,1)">
                  <use xlink:href="#rim" fill="#404040">
                        <set attributeName="fill" to="#808080" begin="arrowDown.mouseover" end="arrowDown.mouseout"/>
                  </use>
                  <path fill="none" stroke="white" stroke-width="1.5" d="M0,-3.0v7 M-2.5,-0.5L0,-3.0L2.5,-0.5"/>
                </g>
                <g id="arrowLeft" xlink:href="#dirArrow" transform="rotate(270) translate(-36 17)" onmousedown="handlePan(-1,0)">
                  <use xlink:href="#rim" fill="#404040">
                        <set attributeName="fill" to="#808080" begin="arrowLeft.mouseover" end="arrowLeft.mouseout"/>
                  </use>
                  <path fill="none" stroke="white" stroke-width="1.5" d="M0,-3.0v7 M-2.5,-0.5L0,-3.0L2.5,-0.5"/>
                </g>
        </g>
        <svg viewBox="0 0 15 15" width="100%" height="30px" preserveAspectRatio="xMaxYMin meet">
         <g id="arrow_out" transform="scale(0.3 0.3)">
          <a xlink:href="classMap_a59d21f2688713fbcfe320eb1b24405ca_cgraph_org.svg" target="_base">
           <rect id="button" ry="5" rx="5" y="6" x="6" height="38" width="38"
                fill="#f2f5e9" fill-opacity="0.5" stroke="#606060" stroke-width="1.0"/>
           <path id="arrow"
             d="M 11.500037,31.436501 C 11.940474,20.09759 22.043105,11.32322 32.158766,21.979434 L 37.068811,17.246167 C 37.068811,17.246167 37.088388,32 37.088388,32 L 22.160133,31.978069 C 22.160133,31.978069 26.997745,27.140456 26.997745,27.140456 C 18.528582,18.264221 13.291696,25.230495 11.500037,31.436501 z"
             style="fill:#404040;"/>
          </a>
         </g>
        </svg>
</svg>
