<?xml version="1.0" encoding="UTF-8" standalone="no"?>
<!DOCTYPE svg PUBLIC "-//W3C//DTD SVG 1.1//EN"
 "http://www.w3.org/Graphics/SVG/1.1/DTD/svg11.dtd">
<!-- Generated by graphviz version 2.40.1 (20161225.0304)
 -->
<!-- Title: UIElement::getUiElementData Pages: 1 -->
<svg width="1089pt" height="275pt"
 viewBox="0.00 0.00 1089.00 275.00" xmlns="http://www.w3.org/2000/svg" xmlns:xlink="http://www.w3.org/1999/xlink">
<g id="graph0" class="graph" transform="scale(1 1) rotate(0) translate(4 271)">
<title>UIElement::getUiElementData</title>
<!-- Node105 -->
<g id="node1" class="node">
<title>Node105</title>
<polygon fill="#bfbfbf" stroke="#000000" points="0,-76.5 0,-95.5 164,-95.5 164,-76.5 0,-76.5"/>
<text text-anchor="middle" x="82" y="-83.5" font-family="Helvetica,sans-Serif" font-size="10.00" fill="#000000">UIElement::getUiElementData</text>
</g>
<!-- Node106 -->
<g id="node2" class="node">
<title>Node106</title>
<g id="a_node2"><a xlink:href="classLayout.html#a99004e4afcea6a945e3890b19cce6236" target="_top" xlink:title="Arrange Elements that are aligned to a parent This is a seperate function, so it can recurse if a par...">
<polygon fill="none" stroke="#000000" points="207,-152.5 207,-171.5 371,-171.5 371,-152.5 207,-152.5"/>
<text text-anchor="middle" x="289" y="-159.5" font-family="Helvetica,sans-Serif" font-size="10.00" fill="#000000">Layout::arrangeChildElements</text>
</a>
</g>
</g>
<!-- Node105&#45;&gt;Node106 -->
<g id="edge1" class="edge">
<title>Node105&#45;&gt;Node106</title>
<path fill="none" stroke="#191970" d="M117.6391,-99.0849C159.0112,-114.2746 226.2514,-138.9619 262.9962,-152.4527"/>
<polygon fill="#191970" stroke="#191970" points="118.8103,-95.7865 108.2167,-95.6255 116.3977,-102.3576 118.8103,-95.7865"/>
</g>
<!-- Node112 -->
<g id="node8" class="node">
<title>Node112</title>
<g id="a_node8"><a xlink:href="classUIManager.html#aa78e356fc3b356d790c848319d1c387e" target="_top" xlink:title="UIManager::setCallbackFunctions">
<polygon fill="none" stroke="#000000" points="826,-95.5 826,-114.5 1004,-114.5 1004,-95.5 826,-95.5"/>
<text text-anchor="middle" x="915" y="-102.5" font-family="Helvetica,sans-Serif" font-size="10.00" fill="#000000">UIManager::setCallbackFunctions</text>
</a>
</g>
</g>
<!-- Node105&#45;&gt;Node112 -->
<g id="edge18" class="edge">
<title>Node105&#45;&gt;Node112</title>
<path fill="none" stroke="#191970" d="M174.5358,-88.1107C335.975,-91.7929 667.0129,-99.3436 825.9639,-102.9692"/>
<polygon fill="#191970" stroke="#191970" points="174.2282,-84.6028 164.151,-87.8738 174.0685,-91.601 174.2282,-84.6028"/>
</g>
<!-- Node114 -->
<g id="node10" class="node">
<title>Node114</title>
<g id="a_node10"><a xlink:href="classUIManager.html#a23bbbe53c18c31ff1c68c105dfa0dbd3" target="_top" xlink:title="Callback function for toggling the visibility of an UiGroup Callback function for Ui Widgets with the...">
<polygon fill="none" stroke="#000000" points="200,-57.5 200,-76.5 378,-76.5 378,-57.5 200,-57.5"/>
<text text-anchor="middle" x="289" y="-64.5" font-family="Helvetica,sans-Serif" font-size="10.00" fill="#000000">UIManager::toggleGroupVisibility</text>
</a>
</g>
</g>
<!-- Node105&#45;&gt;Node114 -->
<g id="edge11" class="edge">
<title>Node105&#45;&gt;Node114</title>
<path fill="none" stroke="#191970" d="M174.091,-77.5472C182.6474,-76.7618 191.3091,-75.9668 199.8383,-75.1839"/>
<polygon fill="#191970" stroke="#191970" points="173.7474,-74.0639 164.1092,-78.4634 174.3873,-81.0346 173.7474,-74.0639"/>
</g>
<!-- Node120 -->
<g id="node16" class="node">
<title>Node120</title>
<g id="a_node16"><a xlink:href="classUIManager.html#aae7a89e9d50bb6192e4140e07bd5f94b" target="_top" xlink:title="UIManager::createBuildMenu">
<polygon fill="none" stroke="#000000" points="210.5,-19.5 210.5,-38.5 367.5,-38.5 367.5,-19.5 210.5,-19.5"/>
<text text-anchor="middle" x="289" y="-26.5" font-family="Helvetica,sans-Serif" font-size="10.00" fill="#000000">UIManager::createBuildMenu</text>
</a>
</g>
</g>
<!-- Node105&#45;&gt;Node120 -->
<g id="edge19" class="edge">
<title>Node105&#45;&gt;Node120</title>
<path fill="none" stroke="#191970" d="M118.7028,-73.1214C141.8497,-65.264 172.4679,-55.3517 200,-48 212.8224,-44.5761 226.8123,-41.3535 239.8231,-38.5687"/>
<polygon fill="#191970" stroke="#191970" points="117.2791,-69.9093 108.9519,-76.4597 119.5465,-76.532 117.2791,-69.9093"/>
</g>
<!-- Node107 -->
<g id="node3" class="node">
<title>Node107</title>
<g id="a_node3"><a xlink:href="classLayout.html#afa734c5af10f59f3dadb066054fe81ab" target="_top" xlink:title="Arrange the layout elements. ">
<polygon fill="none" stroke="#000000" points="421.5,-171.5 421.5,-190.5 560.5,-190.5 560.5,-171.5 421.5,-171.5"/>
<text text-anchor="middle" x="491" y="-178.5" font-family="Helvetica,sans-Serif" font-size="10.00" fill="#000000">Layout::arrangeElements</text>
</a>
</g>
</g>
<!-- Node106&#45;&gt;Node107 -->
<g id="edge2" class="edge">
<title>Node106&#45;&gt;Node107</title>
<path fill="none" stroke="#191970" d="M381.3498,-170.6864C394.7461,-171.9464 408.3469,-173.2257 421.2002,-174.4347"/>
<polygon fill="#191970" stroke="#191970" points="381.445,-167.18 371.1611,-169.728 380.7894,-174.1492 381.445,-167.18"/>
</g>
<!-- Node108 -->
<g id="node4" class="node">
<title>Node108</title>
<g id="a_node4"><a xlink:href="UIManager_8cxx.html#a93ebc51d97942bf4e32123b5c61c4141" target="_top" xlink:title="BETTER_ENUM">
<polygon fill="none" stroke="#000000" points="652.5,-247.5 652.5,-266.5 741.5,-266.5 741.5,-247.5 652.5,-247.5"/>
<text text-anchor="middle" x="697" y="-254.5" font-family="Helvetica,sans-Serif" font-size="10.00" fill="#000000">BETTER_ENUM</text>
</a>
</g>
</g>
<!-- Node107&#45;&gt;Node108 -->
<g id="edge3" class="edge">
<title>Node107&#45;&gt;Node108</title>
<path fill="none" stroke="#191970" d="M515.2988,-195.6474C537.6366,-208.5243 572.036,-226.8958 604,-238 619.4111,-243.3538 636.8109,-247.4082 652.3566,-250.3676"/>
<polygon fill="#191970" stroke="#191970" points="516.9049,-192.532 506.5063,-190.5023 513.3695,-198.5736 516.9049,-192.532"/>
</g>
<!-- Node109 -->
<g id="node5" class="node">
<title>Node109</title>
<g id="a_node5"><a xlink:href="classUIManager.html#a3ccb2fc669262f18ebdcdf3d5c43a3e8" target="_top" xlink:title="CallbackFunction that sets the Build Menu Position Used as callback function for the ComboBox that ho...">
<polygon fill="none" stroke="#000000" points="607,-209.5 607,-228.5 787,-228.5 787,-209.5 607,-209.5"/>
<text text-anchor="middle" x="697" y="-216.5" font-family="Helvetica,sans-Serif" font-size="10.00" fill="#000000">UIManager::setBuildMenuPosition</text>
</a>
</g>
</g>
<!-- Node107&#45;&gt;Node109 -->
<g id="edge4" class="edge">
<title>Node107&#45;&gt;Node109</title>
<path fill="none" stroke="#191970" d="M552.8982,-192.4181C582.3731,-197.8552 617.2197,-204.2832 645.2621,-209.4561"/>
<polygon fill="#191970" stroke="#191970" points="553.1856,-188.9122 542.7166,-190.54 551.9157,-195.796 553.1856,-188.9122"/>
</g>
<!-- Node111 -->
<g id="node7" class="node">
<title>Node111</title>
<g id="a_node7"><a xlink:href="classUIManager.html#ac927e1cd3dea979202ea9dbf1195b583" target="_top" xlink:title="UIManager::changeResolution">
<polygon fill="none" stroke="#000000" points="616.5,-133.5 616.5,-152.5 777.5,-152.5 777.5,-133.5 616.5,-133.5"/>
<text text-anchor="middle" x="697" y="-140.5" font-family="Helvetica,sans-Serif" font-size="10.00" fill="#000000">UIManager::changeResolution</text>
</a>
</g>
</g>
<!-- Node107&#45;&gt;Node111 -->
<g id="edge6" class="edge">
<title>Node107&#45;&gt;Node111</title>
<path fill="none" stroke="#191970" d="M552.8982,-169.5819C582.3731,-164.1448 617.2197,-157.7168 645.2621,-152.5439"/>
<polygon fill="#191970" stroke="#191970" points="551.9157,-166.204 542.7166,-171.46 553.1856,-173.0878 551.9157,-166.204"/>
</g>
<!-- Node113 -->
<g id="node9" class="node">
<title>Node113</title>
<g id="a_node9"><a xlink:href="classUIManager.html#af2ffb4ee45e57152164643ef6cddda37" target="_top" xlink:title="UIManager::changeFullScreenMode">
<polygon fill="none" stroke="#000000" points="604,-171.5 604,-190.5 790,-190.5 790,-171.5 604,-171.5"/>
<text text-anchor="middle" x="697" y="-178.5" font-family="Helvetica,sans-Serif" font-size="10.00" fill="#000000">UIManager::changeFullScreenMode</text>
</a>
</g>
</g>
<!-- Node107&#45;&gt;Node113 -->
<g id="edge9" class="edge">
<title>Node107&#45;&gt;Node113</title>
<path fill="none" stroke="#191970" d="M570.9766,-181C581.7824,-181 592.9446,-181 603.9536,-181"/>
<polygon fill="#191970" stroke="#191970" points="570.7422,-177.5001 560.7422,-181 570.7422,-184.5001 570.7422,-177.5001"/>
</g>
<!-- Node110 -->
<g id="node6" class="node">
<title>Node110</title>
<g id="a_node6"><a xlink:href="classUIManager.html#a5c4cb8e02504ffa0d3faf45181feab9d" target="_top" xlink:title="Fill UI Widgets whose ID start with a $ with data Used for filling widgets with data, like BuildMenu Position combobox, Screen Resolution ComboBox and so on. ">
<polygon fill="none" stroke="#000000" points="842,-166 842,-196 988,-196 988,-166 842,-166"/>
<text text-anchor="start" x="850" y="-184" font-family="Helvetica,sans-Serif" font-size="10.00" fill="#000000">UIManager::initializeDollar</text>
<text text-anchor="middle" x="915" y="-173" font-family="Helvetica,sans-Serif" font-size="10.00" fill="#000000">Variables</text>
</a>
</g>
</g>
<!-- Node109&#45;&gt;Node110 -->
<g id="edge5" class="edge">
<title>Node109&#45;&gt;Node110</title>
<path fill="none" stroke="#191970" d="M761.8755,-207.6914C786.9835,-203.3148 815.8496,-198.2831 841.7031,-193.7765"/>
<polygon fill="#191970" stroke="#191970" points="760.9796,-204.2947 751.7292,-209.46 762.1817,-211.1907 760.9796,-204.2947"/>
</g>
<!-- Node111&#45;&gt;Node110 -->
<g id="edge8" class="edge">
<title>Node111&#45;&gt;Node110</title>
<path fill="none" stroke="#191970" d="M761.8755,-154.3086C786.9835,-158.6852 815.8496,-163.7169 841.7031,-168.2235"/>
<polygon fill="#191970" stroke="#191970" points="762.1817,-150.8093 751.7292,-152.54 760.9796,-157.7053 762.1817,-150.8093"/>
</g>
<!-- Node111&#45;&gt;Node112 -->
<g id="edge7" class="edge">
<title>Node111&#45;&gt;Node112</title>
<path fill="none" stroke="#191970" d="M761.688,-131.7241C793.0512,-126.2571 830.3131,-119.7619 860.2483,-114.5439"/>
<polygon fill="#191970" stroke="#191970" points="760.9796,-128.2947 751.7292,-133.46 762.1817,-135.1907 760.9796,-128.2947"/>
</g>
<!-- Node113&#45;&gt;Node110 -->
<g id="edge10" class="edge">
<title>Node113&#45;&gt;Node110</title>
<path fill="none" stroke="#191970" d="M800.3047,-181C814.3906,-181 828.6036,-181 841.9995,-181"/>
<polygon fill="#191970" stroke="#191970" points="800.084,-177.5001 790.084,-181 800.0839,-184.5001 800.084,-177.5001"/>
</g>
<!-- Node114&#45;&gt;Node112 -->
<g id="edge17" class="edge">
<title>Node114&#45;&gt;Node112</title>
<path fill="none" stroke="#191970" d="M388.4604,-69.8983C489.6377,-73.2851 650.902,-79.8902 790,-91 805.2374,-92.217 821.4879,-93.8152 837.0581,-95.4952"/>
<polygon fill="#191970" stroke="#191970" points="388.3622,-66.3933 378.252,-69.5607 388.1308,-73.3895 388.3622,-66.3933"/>
</g>
<!-- Node115 -->
<g id="node11" class="node">
<title>Node115</title>
<g id="a_node11"><a xlink:href="classEventManager.html#a65ec91fd5016d4f9c4167fb8babed2df" target="_top" xlink:title="EventManager::checkEvents">
<polygon fill="none" stroke="#000000" points="414,-19.5 414,-38.5 568,-38.5 568,-19.5 414,-19.5"/>
<text text-anchor="middle" x="491" y="-26.5" font-family="Helvetica,sans-Serif" font-size="10.00" fill="#000000">EventManager::checkEvents</text>
</a>
</g>
</g>
<!-- Node114&#45;&gt;Node115 -->
<g id="edge12" class="edge">
<title>Node114&#45;&gt;Node115</title>
<path fill="none" stroke="#191970" d="M349.6963,-55.5819C378.5989,-50.1448 412.7689,-43.7168 440.2667,-38.5439"/>
<polygon fill="#191970" stroke="#191970" points="348.8929,-52.1715 339.7124,-57.46 350.1871,-59.0509 348.8929,-52.1715"/>
</g>
<!-- Node116 -->
<g id="node12" class="node">
<title>Node116</title>
<g id="a_node12"><a xlink:href="classGame.html#a1c2ab25d5216b2f4b2fe41efd2c09114" target="_top" xlink:title="begins the game starts running the game ">
<polygon fill="none" stroke="#000000" points="663,-19.5 663,-38.5 731,-38.5 731,-19.5 663,-19.5"/>
<text text-anchor="middle" x="697" y="-26.5" font-family="Helvetica,sans-Serif" font-size="10.00" fill="#000000">Game::run</text>
</a>
</g>
</g>
<!-- Node115&#45;&gt;Node116 -->
<g id="edge13" class="edge">
<title>Node115&#45;&gt;Node116</title>
<path fill="none" stroke="#191970" d="M578.3404,-29C608.2153,-29 639.8899,-29 662.9923,-29"/>
<polygon fill="#191970" stroke="#191970" points="578.2929,-25.5001 568.2929,-29 578.2929,-32.5001 578.2929,-25.5001"/>
</g>
<!-- Node117 -->
<g id="node13" class="node">
<title>Node117</title>
<g id="a_node13"><a xlink:href="classGame.html#ad59df6562a58a614fda24622d3715b65" target="_top" xlink:title="Game::Game">
<polygon fill="none" stroke="#000000" points="874.5,-38.5 874.5,-57.5 955.5,-57.5 955.5,-38.5 874.5,-38.5"/>
<text text-anchor="middle" x="915" y="-45.5" font-family="Helvetica,sans-Serif" font-size="10.00" fill="#000000">Game::Game</text>
</a>
</g>
</g>
<!-- Node116&#45;&gt;Node117 -->
<g id="edge14" class="edge">
<title>Node116&#45;&gt;Node117</title>
<path fill="none" stroke="#191970" d="M741.0484,-32.8391C779.9447,-36.2291 836.211,-41.1331 874.1238,-44.4374"/>
<polygon fill="#191970" stroke="#191970" points="741.3287,-29.3503 731.0625,-31.9688 740.7208,-36.3239 741.3287,-29.3503"/>
</g>
<!-- Node118 -->
<g id="node14" class="node">
<title>Node118</title>
<g id="a_node14"><a xlink:href="main_8cxx.html#af582d708d899e67ead623eac34a22387" target="_top" xlink:title="protected_main">
<polygon fill="none" stroke="#000000" points="868.5,-.5 868.5,-19.5 961.5,-19.5 961.5,-.5 868.5,-.5"/>
<text text-anchor="middle" x="915" y="-7.5" font-family="Helvetica,sans-Serif" font-size="10.00" fill="#000000">protected_main</text>
</a>
</g>
</g>
<!-- Node116&#45;&gt;Node118 -->
<g id="edge15" class="edge">
<title>Node116&#45;&gt;Node118</title>
<path fill="none" stroke="#191970" d="M741.0376,-25.1619C777.9668,-21.9433 830.5588,-17.3596 868.2335,-14.076"/>
<polygon fill="#191970" stroke="#191970" points="740.7208,-21.6761 731.0625,-26.0313 741.3287,-28.6497 740.7208,-21.6761"/>
</g>
<!-- Node119 -->
<g id="node15" class="node">
<title>Node119</title>
<g id="a_node15"><a xlink:href="main_8cxx.html#a3c04138a5bfe5d72780bb7e82a18e627" target="_top" xlink:title="main">
<polygon fill="none" stroke="#000000" points="1040,-.5 1040,-19.5 1081,-19.5 1081,-.5 1040,-.5"/>
<text text-anchor="middle" x="1060.5" y="-7.5" font-family="Helvetica,sans-Serif" font-size="10.00" fill="#000000">main</text>
</a>
</g>
</g>
<!-- Node118&#45;&gt;Node119 -->
<g id="edge16" class="edge">
<title>Node118&#45;&gt;Node119</title>
<path fill="none" stroke="#191970" d="M971.8931,-10C995.7718,-10 1022.0463,-10 1039.7355,-10"/>
<polygon fill="#191970" stroke="#191970" points="971.838,-6.5001 961.838,-10 971.838,-13.5001 971.838,-6.5001"/>
</g>
</g>
</svg>
