<?xml version="1.0" encoding="UTF-8" standalone="no"?>
<!DOCTYPE svg PUBLIC "-//W3C//DTD SVG 1.1//EN"
 "http://www.w3.org/Graphics/SVG/1.1/DTD/svg11.dtd">
<!-- Generated by graphviz version 2.40.1 (20161225.0304)
 -->
<!-- Title: TileManager::getTileData Pages: 1 -->
<svg width="533pt" height="85pt"
 viewBox="0.00 0.00 533.00 85.00" xmlns="http://www.w3.org/2000/svg" xmlns:xlink="http://www.w3.org/1999/xlink">
<g id="graph0" class="graph" transform="scale(1 1) rotate(0) translate(4 81)">
<title>TileManager::getTileData</title>
<!-- Node54 -->
<g id="node1" class="node">
<title>Node54</title>
<polygon fill="#bfbfbf" stroke="#000000" points="0,-19.5 0,-38.5 140,-38.5 140,-19.5 0,-19.5"/>
<text text-anchor="middle" x="70" y="-26.5" font-family="Helvetica,sans-Serif" font-size="10.00" fill="#000000">TileManager::getTileData</text>
</g>
<!-- Node55 -->
<g id="node2" class="node">
<title>Node55</title>
<g id="a_node2"><a xlink:href="classMapNode.html#a397a62e9263feef6c9c85b4e17ef31cb" target="_top" xlink:title="MapNode::setTileID">
<polygon fill="none" stroke="#000000" points="199,-57.5 199,-76.5 311,-76.5 311,-57.5 199,-57.5"/>
<text text-anchor="middle" x="255" y="-64.5" font-family="Helvetica,sans-Serif" font-size="10.00" fill="#000000">MapNode::setTileID</text>
</a>
</g>
</g>
<!-- Node54&#45;&gt;Node55 -->
<g id="edge1" class="edge">
<title>Node54&#45;&gt;Node55</title>
<path fill="none" stroke="#191970" d="M126.52,-40.6095C152.8312,-46.014 183.7435,-52.3635 208.6524,-57.4799"/>
<polygon fill="#191970" stroke="#191970" points="127.183,-37.1727 116.6833,-38.589 125.7746,-44.0296 127.183,-37.1727"/>
</g>
<!-- Node57 -->
<g id="node4" class="node">
<title>Node57</title>
<g id="a_node4"><a xlink:href="classMapNode.html#a02266c320280e682f9d04021fd99b081" target="_top" xlink:title="tileID placeable on slope tile. check if tileID is placeable on slope. ">
<polygon fill="none" stroke="#000000" points="176,-19.5 176,-38.5 334,-38.5 334,-19.5 176,-19.5"/>
<text text-anchor="middle" x="255" y="-26.5" font-family="Helvetica,sans-Serif" font-size="10.00" fill="#000000">MapNode::isPlacableOnSlope</text>
</a>
</g>
</g>
<!-- Node54&#45;&gt;Node57 -->
<g id="edge3" class="edge">
<title>Node54&#45;&gt;Node57</title>
<path fill="none" stroke="#191970" d="M150.4159,-29C158.859,-29 167.4388,-29 175.8673,-29"/>
<polygon fill="#191970" stroke="#191970" points="150.2044,-25.5001 140.2044,-29 150.2043,-32.5001 150.2044,-25.5001"/>
</g>
<!-- Node58 -->
<g id="node5" class="node">
<title>Node58</title>
<g id="a_node5"><a xlink:href="classMapNode.html#a46cba618e059527fe2b1a9bebd2bc979" target="_top" xlink:title="MapNode::checkTileIsEmpty">
<polygon fill="none" stroke="#000000" points="370,-.5 370,-19.5 525,-19.5 525,-.5 370,-.5"/>
<text text-anchor="middle" x="447.5" y="-7.5" font-family="Helvetica,sans-Serif" font-size="10.00" fill="#000000">MapNode::checkTileIsEmpty</text>
</a>
</g>
</g>
<!-- Node54&#45;&gt;Node58 -->
<g id="edge5" class="edge">
<title>Node54&#45;&gt;Node58</title>
<path fill="none" stroke="#191970" d="M123.2683,-17.5485C140.0568,-14.4527 158.7275,-11.5358 176,-10 241.1434,-4.2078 315.427,-4.6943 369.8067,-6.3549"/>
<polygon fill="#191970" stroke="#191970" points="122.2557,-14.1784 113.0876,-19.4884 123.566,-21.0546 122.2557,-14.1784"/>
</g>
<!-- Node56 -->
<g id="node3" class="node">
<title>Node56</title>
<g id="a_node3"><a xlink:href="classMapNode.html#ac2fd11448837a8b56a58601238e824b2" target="_top" xlink:title="MapNode::MapNode">
<polygon fill="none" stroke="#000000" points="390.5,-57.5 390.5,-76.5 504.5,-76.5 504.5,-57.5 390.5,-57.5"/>
<text text-anchor="middle" x="447.5" y="-64.5" font-family="Helvetica,sans-Serif" font-size="10.00" fill="#000000">MapNode::MapNode</text>
</a>
</g>
</g>
<!-- Node55&#45;&gt;Node56 -->
<g id="edge2" class="edge">
<title>Node55&#45;&gt;Node56</title>
<path fill="none" stroke="#191970" d="M321.3105,-67C343.7358,-67 368.5692,-67 390.2323,-67"/>
<polygon fill="#191970" stroke="#191970" points="321.1965,-63.5001 311.1965,-67 321.1964,-70.5001 321.1965,-63.5001"/>
</g>
<!-- Node57&#45;&gt;Node58 -->
<g id="edge4" class="edge">
<title>Node57&#45;&gt;Node58</title>
<path fill="none" stroke="#191970" d="M344.173,-20.1985C352.7715,-19.3498 361.4457,-18.4937 369.9191,-17.6573"/>
<polygon fill="#191970" stroke="#191970" points="343.7383,-16.7243 334.1305,-21.1897 344.4259,-23.6905 343.7383,-16.7243"/>
</g>
</g>
</svg>
