<?xml version="1.0" encoding="UTF-8" standalone="no"?>
<!DOCTYPE svg PUBLIC "-//W3C//DTD SVG 1.1//EN"
 "http://www.w3.org/Graphics/SVG/1.1/DTD/svg11.dtd">
<!-- Generated by graphviz version 2.40.1 (20161225.0304)
 -->
<!-- Title: src/engine/ui/widgets/Combobox.cxx Pages: 1 -->
<!--zoomable 487 -->
<svg id="main" version="1.1" xmlns="http://www.w3.org/2000/svg" xmlns:xlink="http://www.w3.org/1999/xlink" xml:space="preserve" onload="init(evt)">
<style type="text/css"><![CDATA[
.edge:hover path { stroke: red; }
.edge:hover polygon { stroke: red; fill: red; }
]]></style>
<script type="text/javascript"><![CDATA[
var edges = document.getElementsByTagName('g');
if (edges && edges.length) {
  for (var i=0;i<edges.length;i++) {
    if (edges[i].id.substr(0,4)=='edge') {
      edges[i].setAttribute('class','edge');
    }
  }
}
]]></script>
        <defs>
                <circle id="rim" cx="0" cy="0" r="7"/>
                <circle id="rim2" cx="0" cy="0" r="3.5"/>
                <g id="zoomPlus">
                        <use xlink:href="#rim" fill="#404040">
                                <set attributeName="fill" to="#808080" begin="zoomplus.mouseover" end="zoomplus.mouseout"/>
                        </use>
                        <path d="M-4,0h8M0,-4v8" fill="none" stroke="white" stroke-width="1.5" pointer-events="none"/>
                </g>
                <g id="zoomMin">
                        <use xlink:href="#rim" fill="#404040">
                                <set attributeName="fill" to="#808080" begin="zoomminus.mouseover" end="zoomminus.mouseout"/>
                        </use>
                        <path d="M-4,0h8" fill="none" stroke="white" stroke-width="1.5" pointer-events="none"/>
                </g>
                <g id="dirArrow">
                        <path fill="none" stroke="white" stroke-width="1.5" d="M0,-3.0v7 M-2.5,-0.5L0,-3.0L2.5,-0.5"/>
                </g>
               <g id="resetDef">
                       <use xlink:href="#rim2" fill="#404040">
                               <set attributeName="fill" to="#808080" begin="reset.mouseover" end="reset.mouseout"/>
                       </use>
               </g>
        </defs>

<script type="text/javascript">
var viewWidth = 1223;
var viewHeight = 487;
var sectionId = 'dynsection-0';
</script>
<script xlink:href="svgpan.js"/>
<svg id="graph" class="graph">
<g id="viewport">
<title>src/engine/ui/widgets/Combobox.cxx</title>
<!-- Node0 -->
<g id="node1" class="node">
<title>Node0</title>
<polygon fill="#bfbfbf" stroke="#000000" points="347,-448.5 347,-478.5 467,-478.5 467,-448.5 347,-448.5"/>
<text text-anchor="start" x="355" y="-466.5" font-family="Helvetica,sans-Serif" font-size="10.00" fill="#000000">src/engine/ui/widgets</text>
<text text-anchor="middle" x="407" y="-455.5" font-family="Helvetica,sans-Serif" font-size="10.00" fill="#000000">/Combobox.cxx</text>
</g>
<!-- Node1 -->
<g id="node2" class="node">
<title>Node1</title>
<g id="a_node2"><a xlink:href="Combobox_8hxx.html" target="_top" xlink:title="Combobox.hxx">
<polygon fill="none" stroke="#000000" points="315,-392.5 315,-411.5 405,-411.5 405,-392.5 315,-392.5"/>
<text text-anchor="middle" x="360" y="-399.5" font-family="Helvetica,sans-Serif" font-size="10.00" fill="#000000">Combobox.hxx</text>
</a>
</g>
</g>
<!-- Node0&#45;&gt;Node1 -->
<g id="edge1" class="edge">
<title>Node0&#45;&gt;Node1</title>
<path fill="none" stroke="#191970" d="M395.382,-448.2977C388.79,-439.672 380.5052,-428.8312 373.6099,-419.8087"/>
<polygon fill="#191970" stroke="#191970" points="376.3783,-417.6671 367.5253,-411.8469 370.8165,-421.9176 376.3783,-417.6671"/>
</g>
<!-- Node22 -->
<g id="node23" class="node">
<title>Node22</title>
<g id="a_node23"><a xlink:href="LOG_8hxx.html" target="_top" xlink:title="../../basics/LOG.hxx">
<polygon fill="none" stroke="#000000" points="925,-168.5 925,-187.5 1035,-187.5 1035,-168.5 925,-168.5"/>
<text text-anchor="middle" x="980" y="-175.5" font-family="Helvetica,sans-Serif" font-size="10.00" fill="#000000">../../basics/LOG.hxx</text>
</a>
</g>
</g>
<!-- Node0&#45;&gt;Node22 -->
<g id="edge37" class="edge">
<title>Node0&#45;&gt;Node22</title>
<path fill="none" stroke="#191970" d="M467.1896,-454.0317C559.8857,-437.7279 727,-400.7437 727,-346 727,-346 727,-346 727,-290 727,-246.5313 853.4552,-208.5456 927.5626,-190.0167"/>
<polygon fill="#191970" stroke="#191970" points="928.7799,-193.3217 937.6535,-187.5328 927.1067,-186.5245 928.7799,-193.3217"/>
</g>
<!-- Node2 -->
<g id="node3" class="node">
<title>Node2</title>
<polygon fill="none" stroke="#bfbfbf" points="0,-112.5 0,-131.5 58,-131.5 58,-112.5 0,-112.5"/>
<text text-anchor="middle" x="29" y="-119.5" font-family="Helvetica,sans-Serif" font-size="10.00" fill="#000000">memory</text>
</g>
<!-- Node1&#45;&gt;Node2 -->
<g id="edge2" class="edge">
<title>Node1&#45;&gt;Node2</title>
<path fill="none" stroke="#191970" d="M314.6894,-395.8578C226.2055,-382.5881 39,-347.6959 39,-290 39,-290 39,-290 39,-234 39,-201.5831 34.7925,-164.0969 31.8359,-141.7572"/>
<polygon fill="#191970" stroke="#191970" points="35.2637,-140.992 30.4328,-131.5627 28.3291,-141.9466 35.2637,-140.992"/>
</g>
<!-- Node3 -->
<g id="node4" class="node">
<title>Node3</title>
<g id="a_node4"><a xlink:href="UIElement_8hxx.html" target="_top" xlink:title="../basics/UIElement.hxx">
<polygon fill="none" stroke="#000000" points="309.5,-224.5 309.5,-243.5 440.5,-243.5 440.5,-224.5 309.5,-224.5"/>
<text text-anchor="middle" x="375" y="-231.5" font-family="Helvetica,sans-Serif" font-size="10.00" fill="#000000">../basics/UIElement.hxx</text>
</a>
</g>
</g>
<!-- Node1&#45;&gt;Node3 -->
<g id="edge3" class="edge">
<title>Node1&#45;&gt;Node3</title>
<path fill="none" stroke="#191970" d="M364.1368,-392.3507C367.8231,-383.1921 372.9433,-368.9416 375,-356 380.6824,-320.2449 378.7766,-277.8472 376.8825,-253.6176"/>
<polygon fill="#191970" stroke="#191970" points="380.3623,-253.2326 376.0136,-243.5714 373.3884,-253.8358 380.3623,-253.2326"/>
</g>
<!-- Node20 -->
<g id="node21" class="node">
<title>Node20</title>
<g id="a_node21"><a xlink:href="TextField_8hxx.html" target="_top" xlink:title="TextField.hxx">
<polygon fill="none" stroke="#000000" points="286,-336.5 286,-355.5 366,-355.5 366,-336.5 286,-336.5"/>
<text text-anchor="middle" x="326" y="-343.5" font-family="Helvetica,sans-Serif" font-size="10.00" fill="#000000">TextField.hxx</text>
</a>
</g>
</g>
<!-- Node1&#45;&gt;Node20 -->
<g id="edge32" class="edge">
<title>Node1&#45;&gt;Node20</title>
<path fill="none" stroke="#191970" d="M354.0777,-392.2455C349.3973,-384.5367 342.7327,-373.5598 337.0711,-364.2348"/>
<polygon fill="#191970" stroke="#191970" points="340.0361,-362.3741 331.8545,-355.6427 334.0525,-366.007 340.0361,-362.3741"/>
</g>
<!-- Node4 -->
<g id="node5" class="node">
<title>Node4</title>
<polygon fill="none" stroke="#bfbfbf" points="375,-.5 375,-19.5 419,-19.5 419,-.5 375,-.5"/>
<text text-anchor="middle" x="397" y="-7.5" font-family="Helvetica,sans-Serif" font-size="10.00" fill="#000000">string</text>
</g>
<!-- Node3&#45;&gt;Node4 -->
<g id="edge4" class="edge">
<title>Node3&#45;&gt;Node4</title>
<path fill="none" stroke="#191970" d="M309.4923,-226.6247C255.8925,-219.3663 185.5468,-206.6455 164,-188 137.5007,-165.0689 123.3733,-141.0317 143,-112 193.381,-37.4768 308.1379,-17.3938 364.5171,-11.9876"/>
<polygon fill="#191970" stroke="#191970" points="364.9946,-15.4595 374.6575,-11.1146 364.3941,-8.4853 364.9946,-15.4595"/>
</g>
<!-- Node5 -->
<g id="node6" class="node">
<title>Node5</title>
<g id="a_node6"><a xlink:href="mapEdit_8hxx.html" target="_top" xlink:title="../../basics/mapEdit.hxx">
<polygon fill="none" stroke="#000000" points="310,-168.5 310,-187.5 440,-187.5 440,-168.5 310,-168.5"/>
<text text-anchor="middle" x="375" y="-175.5" font-family="Helvetica,sans-Serif" font-size="10.00" fill="#000000">../../basics/mapEdit.hxx</text>
</a>
</g>
</g>
<!-- Node3&#45;&gt;Node5 -->
<g id="edge5" class="edge">
<title>Node3&#45;&gt;Node5</title>
<path fill="none" stroke="#191970" d="M375,-224.2455C375,-216.9382 375,-206.6944 375,-197.7046"/>
<polygon fill="#191970" stroke="#191970" points="378.5001,-197.6426 375,-187.6427 371.5001,-197.6427 378.5001,-197.6426"/>
</g>
<!-- Node6 -->
<g id="node7" class="node">
<title>Node6</title>
<g id="a_node7"><a xlink:href="ResourcesManager_8hxx.html" target="_top" xlink:title="../../ResourcesManager.hxx">
<polygon fill="none" stroke="#000000" points="612,-168.5 612,-187.5 758,-187.5 758,-168.5 612,-168.5"/>
<text text-anchor="middle" x="685" y="-175.5" font-family="Helvetica,sans-Serif" font-size="10.00" fill="#000000">../../ResourcesManager.hxx</text>
</a>
</g>
</g>
<!-- Node3&#45;&gt;Node6 -->
<g id="edge7" class="edge">
<title>Node3&#45;&gt;Node6</title>
<path fill="none" stroke="#191970" d="M427.9387,-224.4369C481.773,-214.712 565.1761,-199.6456 622.2887,-189.3285"/>
<polygon fill="#191970" stroke="#191970" points="623.0612,-192.7457 632.2797,-187.5237 621.8167,-185.8572 623.0612,-192.7457"/>
</g>
<!-- Node9 -->
<g id="node10" class="node">
<title>Node9</title>
<polygon fill="none" stroke="#bfbfbf" points="867,-56.5 867,-75.5 911,-75.5 911,-56.5 867,-56.5"/>
<text text-anchor="middle" x="889" y="-63.5" font-family="Helvetica,sans-Serif" font-size="10.00" fill="#000000">SDL.h</text>
</g>
<!-- Node3&#45;&gt;Node9 -->
<g id="edge31" class="edge">
<title>Node3&#45;&gt;Node9</title>
<path fill="none" stroke="#191970" d="M440.6084,-229.3306C535.9355,-222.0316 707.8124,-206.7898 767,-188 816.6637,-172.2337 837.3757,-172.629 870,-132 880.6034,-118.7949 885.2895,-99.9268 887.3604,-85.7441"/>
<polygon fill="#191970" stroke="#191970" points="890.8648,-85.905 888.5236,-75.5721 883.9101,-85.1096 890.8648,-85.905"/>
</g>
<!-- Node14 -->
<g id="node15" class="node">
<title>Node14</title>
<g id="a_node15"><a xlink:href="WindowManager_8hxx.html" target="_top" xlink:title="../../WindowManager.hxx">
<polygon fill="none" stroke="#000000" points="458,-168.5 458,-187.5 594,-187.5 594,-168.5 458,-168.5"/>
<text text-anchor="middle" x="526" y="-175.5" font-family="Helvetica,sans-Serif" font-size="10.00" fill="#000000">../../WindowManager.hxx</text>
</a>
</g>
</g>
<!-- Node3&#45;&gt;Node14 -->
<g id="edge19" class="edge">
<title>Node3&#45;&gt;Node14</title>
<path fill="none" stroke="#191970" d="M400.9578,-224.3733C425.7407,-215.1822 463.2746,-201.2624 490.754,-191.0713"/>
<polygon fill="#191970" stroke="#191970" points="492.2219,-194.26 500.3809,-187.5011 489.7879,-187.6968 492.2219,-194.26"/>
</g>
<!-- Node16 -->
<g id="node17" class="node">
<title>Node16</title>
<g id="a_node17"><a xlink:href="signal_8hxx.html" target="_top" xlink:title="../../basics/signal.hxx">
<polygon fill="none" stroke="#000000" points="172.5,-168.5 172.5,-187.5 291.5,-187.5 291.5,-168.5 172.5,-168.5"/>
<text text-anchor="middle" x="232" y="-175.5" font-family="Helvetica,sans-Serif" font-size="10.00" fill="#000000">../../basics/signal.hxx</text>
</a>
</g>
</g>
<!-- Node3&#45;&gt;Node16 -->
<g id="edge25" class="edge">
<title>Node3&#45;&gt;Node16</title>
<path fill="none" stroke="#191970" d="M350.4174,-224.3733C327.0504,-215.2226 291.7138,-201.3844 265.7216,-191.2057"/>
<polygon fill="#191970" stroke="#191970" points="266.8495,-187.8886 256.2618,-187.5011 264.297,-194.4066 266.8495,-187.8886"/>
</g>
<!-- Node5&#45;&gt;Node4 -->
<g id="edge6" class="edge">
<title>Node5&#45;&gt;Node4</title>
<path fill="none" stroke="#191970" d="M376.2458,-168.4862C379.7235,-141.9293 389.5927,-66.5651 394.3593,-30.1655"/>
<polygon fill="#191970" stroke="#191970" points="397.8849,-30.1977 395.713,-19.8279 390.9441,-29.2887 397.8849,-30.1977"/>
</g>
<!-- Node7 -->
<g id="node8" class="node">
<title>Node7</title>
<polygon fill="none" stroke="#bfbfbf" points="801,-112.5 801,-131.5 861,-131.5 861,-112.5 801,-112.5"/>
<text text-anchor="middle" x="831" y="-119.5" font-family="Helvetica,sans-Serif" font-size="10.00" fill="#000000">iostream</text>
</g>
<!-- Node6&#45;&gt;Node7 -->
<g id="edge8" class="edge">
<title>Node6&#45;&gt;Node7</title>
<path fill="none" stroke="#191970" d="M710.0983,-168.3733C733.9555,-159.2226 770.0335,-145.3844 796.571,-135.2057"/>
<polygon fill="#191970" stroke="#191970" points="798.1459,-138.3503 806.2292,-131.5011 795.639,-131.8145 798.1459,-138.3503"/>
</g>
<!-- Node8 -->
<g id="node9" class="node">
<title>Node8</title>
<polygon fill="none" stroke="#bfbfbf" points="545.5,-56.5 545.5,-75.5 638.5,-75.5 638.5,-56.5 545.5,-56.5"/>
<text text-anchor="middle" x="592" y="-63.5" font-family="Helvetica,sans-Serif" font-size="10.00" fill="#000000">unordered_map</text>
</g>
<!-- Node6&#45;&gt;Node8 -->
<g id="edge9" class="edge">
<title>Node6&#45;&gt;Node8</title>
<path fill="none" stroke="#191970" d="M652.8884,-168.4802C634.7219,-161.391 613.252,-149.8071 601,-132 591.7932,-118.6189 589.9798,-100.054 590.2185,-86.0213"/>
<polygon fill="#191970" stroke="#191970" points="593.7194,-86.0942 590.7478,-75.9246 586.729,-85.7276 593.7194,-86.0942"/>
</g>
<!-- Node6&#45;&gt;Node9 -->
<g id="edge10" class="edge">
<title>Node6&#45;&gt;Node9</title>
<path fill="none" stroke="#191970" d="M699.5824,-168.2932C719.8995,-154.9349 758.0557,-130.4451 792,-112 813.5745,-100.2765 838.6325,-88.437 857.8749,-79.7056"/>
<polygon fill="#191970" stroke="#191970" points="859.4016,-82.8567 867.0851,-75.5619 856.5295,-76.4731 859.4016,-82.8567"/>
</g>
<!-- Node10 -->
<g id="node11" class="node">
<title>Node10</title>
<g id="a_node11"><a xlink:href="TileManager_8hxx.html" target="_top" xlink:title="TileManager.hxx">
<polygon fill="none" stroke="#000000" points="609.5,-112.5 609.5,-131.5 706.5,-131.5 706.5,-112.5 609.5,-112.5"/>
<text text-anchor="middle" x="658" y="-119.5" font-family="Helvetica,sans-Serif" font-size="10.00" fill="#000000">TileManager.hxx</text>
</a>
</g>
</g>
<!-- Node6&#45;&gt;Node10 -->
<g id="edge11" class="edge">
<title>Node6&#45;&gt;Node10</title>
<path fill="none" stroke="#191970" d="M680.297,-168.2455C676.6576,-160.6973 671.5076,-150.0158 667.0738,-140.8197"/>
<polygon fill="#191970" stroke="#191970" points="670.1449,-139.1303 662.6491,-131.6427 663.8395,-142.1704 670.1449,-139.1303"/>
</g>
<!-- Node10&#45;&gt;Node4 -->
<g id="edge14" class="edge">
<title>Node10&#45;&gt;Node4</title>
<path fill="none" stroke="#191970" d="M701.6886,-112.4368C747.1374,-102.0492 812.7075,-85.6515 820,-76 825.3586,-68.9079 825.9359,-62.6164 820,-56 793.9941,-27.0127 523.8178,-14.5685 429.3741,-11.082"/>
<polygon fill="#191970" stroke="#191970" points="429.3811,-7.5801 419.2617,-10.7184 429.1295,-14.5756 429.3811,-7.5801"/>
</g>
<!-- Node10&#45;&gt;Node8 -->
<g id="edge13" class="edge">
<title>Node10&#45;&gt;Node8</title>
<path fill="none" stroke="#191970" d="M646.5037,-112.2455C636.7558,-103.9746 622.5741,-91.9416 611.1202,-82.2232"/>
<polygon fill="#191970" stroke="#191970" points="613.2541,-79.4437 603.3646,-75.6427 608.7253,-84.7813 613.2541,-79.4437"/>
</g>
<!-- Node10&#45;&gt;Node9 -->
<g id="edge12" class="edge">
<title>Node10&#45;&gt;Node9</title>
<path fill="none" stroke="#191970" d="M700.7227,-112.4299C740.3091,-103.442 800.7793,-89.4067 853,-76 854.2723,-75.6734 855.5685,-75.3358 856.877,-74.9912"/>
<polygon fill="#191970" stroke="#191970" points="858.2095,-78.2569 866.952,-72.272 856.3854,-71.4987 858.2095,-78.2569"/>
</g>
<!-- Node11 -->
<g id="node12" class="node">
<title>Node11</title>
<g id="a_node12"><a xlink:href="tileData_8hxx.html" target="_top" xlink:title="tileData.hxx">
<polygon fill="none" stroke="#000000" points="733.5,-56.5 733.5,-75.5 810.5,-75.5 810.5,-56.5 733.5,-56.5"/>
<text text-anchor="middle" x="772" y="-63.5" font-family="Helvetica,sans-Serif" font-size="10.00" fill="#000000">tileData.hxx</text>
</a>
</g>
</g>
<!-- Node10&#45;&gt;Node11 -->
<g id="edge15" class="edge">
<title>Node10&#45;&gt;Node11</title>
<path fill="none" stroke="#191970" d="M677.5973,-112.3733C695.7331,-103.4644 722.9135,-90.1127 743.4587,-80.0203"/>
<polygon fill="#191970" stroke="#191970" points="745.2261,-83.0517 752.6584,-75.5011 742.1397,-76.7688 745.2261,-83.0517"/>
</g>
<!-- Node12 -->
<g id="node13" class="node">
<title>Node12</title>
<polygon fill="none" stroke="#bfbfbf" points="657,-56.5 657,-75.5 715,-75.5 715,-56.5 657,-56.5"/>
<text text-anchor="middle" x="686" y="-63.5" font-family="Helvetica,sans-Serif" font-size="10.00" fill="#000000">json.hxx</text>
</g>
<!-- Node10&#45;&gt;Node12 -->
<g id="edge17" class="edge">
<title>Node10&#45;&gt;Node12</title>
<path fill="none" stroke="#191970" d="M662.8772,-112.2455C666.6513,-104.6973 671.9921,-94.0158 676.5901,-84.8197"/>
<polygon fill="#191970" stroke="#191970" points="679.837,-86.1522 681.1787,-75.6427 673.576,-83.0217 679.837,-86.1522"/>
</g>
<!-- Node13 -->
<g id="node14" class="node">
<title>Node13</title>
<g id="a_node14"><a xlink:href="Singleton_8hxx.html" target="_top" xlink:title="Singleton.hxx">
<polygon fill="none" stroke="#000000" points="444.5,-56.5 444.5,-75.5 527.5,-75.5 527.5,-56.5 444.5,-56.5"/>
<text text-anchor="middle" x="486" y="-63.5" font-family="Helvetica,sans-Serif" font-size="10.00" fill="#000000">Singleton.hxx</text>
</a>
</g>
</g>
<!-- Node10&#45;&gt;Node13 -->
<g id="edge18" class="edge">
<title>Node10&#45;&gt;Node13</title>
<path fill="none" stroke="#191970" d="M628.4321,-112.3733C599.8312,-103.0613 556.3212,-88.8953 524.9181,-78.671"/>
<polygon fill="#191970" stroke="#191970" points="525.7743,-75.269 515.182,-75.5011 523.6072,-81.9251 525.7743,-75.269"/>
</g>
<!-- Node11&#45;&gt;Node4 -->
<g id="edge16" class="edge">
<title>Node11&#45;&gt;Node4</title>
<path fill="none" stroke="#191970" d="M733.2693,-57.7035C730.1379,-57.1022 727.0189,-56.5262 724,-56 616.5988,-37.2789 488.3223,-20.9884 429.4473,-13.8477"/>
<polygon fill="#191970" stroke="#191970" points="429.6295,-10.3444 419.2824,-12.6223 428.7916,-17.2941 429.6295,-10.3444"/>
</g>
<!-- Node14&#45;&gt;Node4 -->
<g id="edge20" class="edge">
<title>Node14&#45;&gt;Node4</title>
<path fill="none" stroke="#191970" d="M516.3976,-168.3952C499.1756,-150.9034 462.3753,-112.3006 436,-76 424.9203,-60.7509 414.1635,-42.1744 406.7634,-28.6192"/>
<polygon fill="#191970" stroke="#191970" points="409.8212,-26.9153 402.0115,-19.7558 403.6519,-30.2228 409.8212,-26.9153"/>
</g>
<!-- Node14&#45;&gt;Node7 -->
<g id="edge21" class="edge">
<title>Node14&#45;&gt;Node7</title>
<path fill="none" stroke="#191970" d="M578.0848,-168.4369C638.3439,-157.3729 736.2581,-139.3952 790.8971,-129.3632"/>
<polygon fill="#191970" stroke="#191970" points="791.697,-132.7749 800.9005,-127.5265 790.4328,-125.89 791.697,-132.7749"/>
</g>
<!-- Node14&#45;&gt;Node9 -->
<g id="edge23" class="edge">
<title>Node14&#45;&gt;Node9</title>
<path fill="none" stroke="#191970" d="M579.8316,-168.499C618.4352,-160.8397 671.3004,-148.6056 716,-132 734.2603,-125.2164 737.0753,-119.6264 755,-112 789.1176,-97.4841 829.5175,-84.1137 856.9716,-75.5728"/>
<polygon fill="#191970" stroke="#191970" points="858.2906,-78.829 866.8197,-72.5436 856.2326,-72.1383 858.2906,-78.829"/>
</g>
<!-- Node14&#45;&gt;Node13 -->
<g id="edge24" class="edge">
<title>Node14&#45;&gt;Node13</title>
<path fill="none" stroke="#191970" d="M522.5896,-168.4509C516.0067,-150.0186 501.4376,-109.2254 492.8011,-85.043"/>
<polygon fill="#191970" stroke="#191970" points="496.0613,-83.7651 489.4017,-75.5249 489.4691,-86.1195 496.0613,-83.7651"/>
</g>
<!-- Node15 -->
<g id="node16" class="node">
<title>Node15</title>
<polygon fill="none" stroke="#bfbfbf" points="406.5,-112.5 406.5,-131.5 453.5,-131.5 453.5,-112.5 406.5,-112.5"/>
<text text-anchor="middle" x="430" y="-119.5" font-family="Helvetica,sans-Serif" font-size="10.00" fill="#000000">vector</text>
</g>
<!-- Node14&#45;&gt;Node15 -->
<g id="edge22" class="edge">
<title>Node14&#45;&gt;Node15</title>
<path fill="none" stroke="#191970" d="M509.2781,-168.2455C494.4111,-159.5731 472.4534,-146.7645 455.4142,-136.825"/>
<polygon fill="#191970" stroke="#191970" points="456.9317,-133.6582 446.5303,-131.6427 453.4045,-139.7047 456.9317,-133.6582"/>
</g>
<!-- Node16&#45;&gt;Node2 -->
<g id="edge26" class="edge">
<title>Node16&#45;&gt;Node2</title>
<path fill="none" stroke="#191970" d="M197.1031,-168.3733C161.251,-158.483 105.5494,-143.1171 68.2004,-132.8139"/>
<polygon fill="#191970" stroke="#191970" points="68.7552,-129.3363 58.1845,-130.0509 66.8937,-136.0842 68.7552,-129.3363"/>
</g>
<!-- Node16&#45;&gt;Node15 -->
<g id="edge29" class="edge">
<title>Node16&#45;&gt;Node15</title>
<path fill="none" stroke="#191970" d="M266.0374,-168.3733C302.6235,-158.0257 360.4021,-141.6842 396.7003,-131.4181"/>
<polygon fill="#191970" stroke="#191970" points="397.6632,-134.7831 406.3332,-128.6936 395.7581,-128.0474 397.6632,-134.7831"/>
</g>
<!-- Node17 -->
<g id="node18" class="node">
<title>Node17</title>
<polygon fill="none" stroke="#bfbfbf" points="284.5,-112.5 284.5,-131.5 349.5,-131.5 349.5,-112.5 284.5,-112.5"/>
<text text-anchor="middle" x="317" y="-119.5" font-family="Helvetica,sans-Serif" font-size="10.00" fill="#000000">functional</text>
</g>
<!-- Node16&#45;&gt;Node17 -->
<g id="edge27" class="edge">
<title>Node16&#45;&gt;Node17</title>
<path fill="none" stroke="#191970" d="M246.8059,-168.2455C259.7256,-159.7337 278.6931,-147.2375 293.6552,-137.3801"/>
<polygon fill="#191970" stroke="#191970" points="295.9387,-140.067 302.3638,-131.6427 292.0876,-134.2216 295.9387,-140.067"/>
</g>
<!-- Node18 -->
<g id="node19" class="node">
<title>Node18</title>
<polygon fill="none" stroke="#bfbfbf" points="152,-112.5 152,-131.5 184,-131.5 184,-112.5 152,-112.5"/>
<text text-anchor="middle" x="168" y="-119.5" font-family="Helvetica,sans-Serif" font-size="10.00" fill="#000000">list</text>
</g>
<!-- Node16&#45;&gt;Node18 -->
<g id="edge28" class="edge">
<title>Node16&#45;&gt;Node18</title>
<path fill="none" stroke="#191970" d="M220.8521,-168.2455C211.4913,-160.0549 197.9142,-148.1749 186.8651,-138.5069"/>
<polygon fill="#191970" stroke="#191970" points="188.8508,-135.5937 179.0202,-131.6427 184.2412,-140.8618 188.8508,-135.5937"/>
</g>
<!-- Node19 -->
<g id="node20" class="node">
<title>Node19</title>
<polygon fill="none" stroke="#bfbfbf" points="202,-112.5 202,-131.5 266,-131.5 266,-112.5 202,-112.5"/>
<text text-anchor="middle" x="234" y="-119.5" font-family="Helvetica,sans-Serif" font-size="10.00" fill="#000000">algorithm</text>
</g>
<!-- Node16&#45;&gt;Node19 -->
<g id="edge30" class="edge">
<title>Node16&#45;&gt;Node19</title>
<path fill="none" stroke="#191970" d="M232.3484,-168.2455C232.6093,-160.9382 232.9752,-150.6944 233.2963,-141.7046"/>
<polygon fill="#191970" stroke="#191970" points="236.7964,-141.7613 233.6556,-131.6427 229.8008,-141.5113 236.7964,-141.7613"/>
</g>
<!-- Node20&#45;&gt;Node3 -->
<g id="edge33" class="edge">
<title>Node20&#45;&gt;Node3</title>
<path fill="none" stroke="#191970" d="M330.1777,-336.4509C338.278,-317.936 356.2492,-276.8591 366.8106,-252.7187"/>
<polygon fill="#191970" stroke="#191970" points="370.0312,-254.0894 370.8329,-243.5249 363.6181,-251.2836 370.0312,-254.0894"/>
</g>
<!-- Node21 -->
<g id="node22" class="node">
<title>Node21</title>
<g id="a_node22"><a xlink:href="Text_8hxx.html" target="_top" xlink:title="Text.hxx">
<polygon fill="none" stroke="#000000" points="270,-280.5 270,-299.5 328,-299.5 328,-280.5 270,-280.5"/>
<text text-anchor="middle" x="299" y="-287.5" font-family="Helvetica,sans-Serif" font-size="10.00" fill="#000000">Text.hxx</text>
</a>
</g>
</g>
<!-- Node20&#45;&gt;Node21 -->
<g id="edge34" class="edge">
<title>Node20&#45;&gt;Node21</title>
<path fill="none" stroke="#191970" d="M321.297,-336.2455C317.6576,-328.6973 312.5076,-318.0158 308.0738,-308.8197"/>
<polygon fill="#191970" stroke="#191970" points="311.1449,-307.1303 303.6491,-299.6427 304.8395,-310.1704 311.1449,-307.1303"/>
</g>
<!-- Node21&#45;&gt;Node3 -->
<g id="edge36" class="edge">
<title>Node21&#45;&gt;Node3</title>
<path fill="none" stroke="#191970" d="M312.2382,-280.2455C323.681,-271.814 340.4296,-259.4729 353.7475,-249.6598"/>
<polygon fill="#191970" stroke="#191970" points="355.9391,-252.3924 361.9135,-243.6427 351.7867,-246.757 355.9391,-252.3924"/>
</g>
<!-- Node21&#45;&gt;Node4 -->
<g id="edge35" class="edge">
<title>Node21&#45;&gt;Node4</title>
<path fill="none" stroke="#191970" d="M269.8299,-287.9664C211.4945,-282.1501 86,-260.0972 86,-178 86,-178 86,-178 86,-122 86,-73.1111 129.4294,-76.0894 174,-56 237.892,-27.2018 320.2396,-16.2293 364.8386,-12.2045"/>
<polygon fill="#191970" stroke="#191970" points="365.1372,-15.6918 374.8081,-11.3648 364.5496,-8.7165 365.1372,-15.6918"/>
</g>
<!-- Node22&#45;&gt;Node7 -->
<g id="edge38" class="edge">
<title>Node22&#45;&gt;Node7</title>
<path fill="none" stroke="#191970" d="M954.386,-168.3733C929.9313,-159.1822 892.8946,-145.2624 865.7791,-135.0713"/>
<polygon fill="#191970" stroke="#191970" points="866.8719,-131.7431 856.2798,-131.5011 864.4091,-138.2956 866.8719,-131.7431"/>
</g>
<!-- Node22&#45;&gt;Node9 -->
<g id="edge43" class="edge">
<title>Node22&#45;&gt;Node9</title>
<path fill="none" stroke="#191970" d="M972.2414,-168.4509C956.9294,-149.6054 922.6252,-107.3849 903.1715,-83.4419"/>
<polygon fill="#191970" stroke="#191970" points="905.7613,-81.079 896.739,-75.5249 900.3285,-85.4931 905.7613,-81.079"/>
</g>
<!-- Node23 -->
<g id="node24" class="node">
<title>Node23</title>
<polygon fill="none" stroke="#bfbfbf" points="955,-112.5 955,-131.5 1005,-131.5 1005,-112.5 955,-112.5"/>
<text text-anchor="middle" x="980" y="-119.5" font-family="Helvetica,sans-Serif" font-size="10.00" fill="#000000">chrono</text>
</g>
<!-- Node22&#45;&gt;Node23 -->
<g id="edge39" class="edge">
<title>Node22&#45;&gt;Node23</title>
<path fill="none" stroke="#191970" d="M980,-168.2455C980,-160.9382 980,-150.6944 980,-141.7046"/>
<polygon fill="#191970" stroke="#191970" points="983.5001,-141.6426 980,-131.6427 976.5001,-141.6427 983.5001,-141.6426"/>
</g>
<!-- Node24 -->
<g id="node25" class="node">
<title>Node24</title>
<polygon fill="none" stroke="#bfbfbf" points="1023,-112.5 1023,-131.5 1067,-131.5 1067,-112.5 1023,-112.5"/>
<text text-anchor="middle" x="1045" y="-119.5" font-family="Helvetica,sans-Serif" font-size="10.00" fill="#000000">ctime</text>
</g>
<!-- Node22&#45;&gt;Node24 -->
<g id="edge40" class="edge">
<title>Node22&#45;&gt;Node24</title>
<path fill="none" stroke="#191970" d="M991.3221,-168.2455C1000.9223,-159.9746 1014.8892,-147.9416 1026.1695,-138.2232"/>
<polygon fill="#191970" stroke="#191970" points="1028.516,-140.8214 1033.8076,-131.6427 1023.947,-135.5182 1028.516,-140.8214"/>
</g>
<!-- Node25 -->
<g id="node26" class="node">
<title>Node25</title>
<polygon fill="none" stroke="#bfbfbf" points="1085.5,-112.5 1085.5,-131.5 1140.5,-131.5 1140.5,-112.5 1085.5,-112.5"/>
<text text-anchor="middle" x="1113" y="-119.5" font-family="Helvetica,sans-Serif" font-size="10.00" fill="#000000">fstream</text>
</g>
<!-- Node22&#45;&gt;Node25 -->
<g id="edge41" class="edge">
<title>Node22&#45;&gt;Node25</title>
<path fill="none" stroke="#191970" d="M1002.8635,-168.3733C1024.405,-159.3032 1056.8838,-145.6279 1080.9956,-135.4755"/>
<polygon fill="#191970" stroke="#191970" points="1082.5767,-138.6075 1090.4348,-131.5011 1079.8603,-132.156 1082.5767,-138.6075"/>
</g>
<!-- Node26 -->
<g id="node27" class="node">
<title>Node26</title>
<polygon fill="none" stroke="#bfbfbf" points="1159,-112.5 1159,-131.5 1215,-131.5 1215,-112.5 1159,-112.5"/>
<text text-anchor="middle" x="1187" y="-119.5" font-family="Helvetica,sans-Serif" font-size="10.00" fill="#000000">sstream</text>
</g>
<!-- Node22&#45;&gt;Node26 -->
<g id="edge42" class="edge">
<title>Node22&#45;&gt;Node26</title>
<path fill="none" stroke="#191970" d="M1015.5846,-168.3733C1052.8299,-158.2972 1111.0834,-142.5378 1149.1535,-132.2387"/>
<polygon fill="#191970" stroke="#191970" points="1150.1076,-135.6065 1158.8466,-129.6164 1148.2795,-128.8494 1150.1076,-135.6065"/>
</g>
</g>
</svg>
        <g id="navigator" transform="translate(0 0)" fill="#404254">
                <rect fill="#f2f5e9" fill-opacity="0.5" stroke="#606060" stroke-width=".5" x="0" y="0" width="60" height="60"/>
                <use id="zoomplus" xlink:href="#zoomPlus" x="17" y="9" onmousedown="handleZoom(evt,'in')"/>
                <use id="zoomminus" xlink:href="#zoomMin" x="42" y="9" onmousedown="handleZoom(evt,'out')"/>
                <use id="reset" xlink:href="#resetDef" x="30" y="36" onmousedown="handleReset()"/>
                <g id="arrowUp" xlink:href="#dirArrow" transform="translate(30 24)" onmousedown="handlePan(0,-1)">
                  <use xlink:href="#rim" fill="#404040">
                        <set attributeName="fill" to="#808080" begin="arrowUp.mouseover" end="arrowUp.mouseout"/>
                  </use>
                  <path fill="none" stroke="white" stroke-width="1.5" d="M0,-3.0v7 M-2.5,-0.5L0,-3.0L2.5,-0.5"/>
                </g>
                <g id="arrowRight" xlink:href="#dirArrow" transform="rotate(90) translate(36 -43)" onmousedown="handlePan(1,0)">
                  <use xlink:href="#rim" fill="#404040">
                        <set attributeName="fill" to="#808080" begin="arrowRight.mouseover" end="arrowRight.mouseout"/>
                  </use>
                  <path fill="none" stroke="white" stroke-width="1.5" d="M0,-3.0v7 M-2.5,-0.5L0,-3.0L2.5,-0.5"/>
                </g>
                <g id="arrowDown" xlink:href="#dirArrow" transform="rotate(180) translate(-30 -48)" onmousedown="handlePan(0,1)">
                  <use xlink:href="#rim" fill="#404040">
                        <set attributeName="fill" to="#808080" begin="arrowDown.mouseover" end="arrowDown.mouseout"/>
                  </use>
                  <path fill="none" stroke="white" stroke-width="1.5" d="M0,-3.0v7 M-2.5,-0.5L0,-3.0L2.5,-0.5"/>
                </g>
                <g id="arrowLeft" xlink:href="#dirArrow" transform="rotate(270) translate(-36 17)" onmousedown="handlePan(-1,0)">
                  <use xlink:href="#rim" fill="#404040">
                        <set attributeName="fill" to="#808080" begin="arrowLeft.mouseover" end="arrowLeft.mouseout"/>
                  </use>
                  <path fill="none" stroke="white" stroke-width="1.5" d="M0,-3.0v7 M-2.5,-0.5L0,-3.0L2.5,-0.5"/>
                </g>
        </g>
        <svg viewBox="0 0 15 15" width="100%" height="30px" preserveAspectRatio="xMaxYMin meet">
         <g id="arrow_out" transform="scale(0.3 0.3)">
          <a xlink:href="Combobox_8cxx__incl_org.svg" target="_base">
           <rect id="button" ry="5" rx="5" y="6" x="6" height="38" width="38"
                fill="#f2f5e9" fill-opacity="0.5" stroke="#606060" stroke-width="1.0"/>
           <path id="arrow"
             d="M 11.500037,31.436501 C 11.940474,20.09759 22.043105,11.32322 32.158766,21.979434 L 37.068811,17.246167 C 37.068811,17.246167 37.088388,32 37.088388,32 L 22.160133,31.978069 C 22.160133,31.978069 26.997745,27.140456 26.997745,27.140456 C 18.528582,18.264221 13.291696,25.230495 11.500037,31.436501 z"
             style="fill:#404040;"/>
          </a>
         </g>
        </svg>
</svg>
