<?xml version="1.0" encoding="UTF-8" standalone="no"?>
<!DOCTYPE svg PUBLIC "-//W3C//DTD SVG 1.1//EN"
 "http://www.w3.org/Graphics/SVG/1.1/DTD/svg11.dtd">
<!-- Generated by graphviz version 2.40.1 (20161225.0304)
 -->
<!-- Title: src/engine/ui/widgets/Combobox.hxx Pages: 1 -->
<svg width="976pt" height="431pt"
 viewBox="0.00 0.00 976.00 431.00" xmlns="http://www.w3.org/2000/svg" xmlns:xlink="http://www.w3.org/1999/xlink">
<g id="graph0" class="graph" transform="scale(1 1) rotate(0) translate(4 427)">
<title>src/engine/ui/widgets/Combobox.hxx</title>
<!-- Node0 -->
<g id="node1" class="node">
<title>Node0</title>
<polygon fill="#bfbfbf" stroke="#000000" points="479,-392.5 479,-422.5 599,-422.5 599,-392.5 479,-392.5"/>
<text text-anchor="start" x="487" y="-410.5" font-family="Helvetica,sans-Serif" font-size="10.00" fill="#000000">src/engine/ui/widgets</text>
<text text-anchor="middle" x="539" y="-399.5" font-family="Helvetica,sans-Serif" font-size="10.00" fill="#000000">/Combobox.hxx</text>
</g>
<!-- Node1 -->
<g id="node2" class="node">
<title>Node1</title>
<polygon fill="none" stroke="#bfbfbf" points="694,-112.5 694,-131.5 752,-131.5 752,-112.5 694,-112.5"/>
<text text-anchor="middle" x="723" y="-119.5" font-family="Helvetica,sans-Serif" font-size="10.00" fill="#000000">memory</text>
</g>
<!-- Node0&#45;&gt;Node1 -->
<g id="edge1" class="edge">
<title>Node0&#45;&gt;Node1</title>
<path fill="none" stroke="#191970" d="M599.4143,-392.4012C648.2772,-376.1417 709,-344.8927 709,-290 709,-290 709,-290 709,-234 709,-201.311 714.9446,-163.6669 719.0866,-141.4058"/>
<polygon fill="#191970" stroke="#191970" points="722.5324,-142.0207 720.9941,-131.5381 715.6597,-140.692 722.5324,-142.0207"/>
</g>
<!-- Node2 -->
<g id="node3" class="node">
<title>Node2</title>
<g id="a_node3"><a xlink:href="UIElement_8hxx.html" target="_top" xlink:title="../basics/UIElement.hxx">
<polygon fill="none" stroke="#000000" points="420.5,-224.5 420.5,-243.5 551.5,-243.5 551.5,-224.5 420.5,-224.5"/>
<text text-anchor="middle" x="486" y="-231.5" font-family="Helvetica,sans-Serif" font-size="10.00" fill="#000000">../basics/UIElement.hxx</text>
</a>
</g>
</g>
<!-- Node0&#45;&gt;Node2 -->
<g id="edge2" class="edge">
<title>Node0&#45;&gt;Node2</title>
<path fill="none" stroke="#191970" d="M535.2668,-392.359C531.6171,-377.834 525.7806,-355.3188 520,-336 511.3368,-307.0473 500.0324,-273.9189 492.8926,-253.4767"/>
<polygon fill="#191970" stroke="#191970" points="496.1033,-252.0563 489.486,-243.7821 489.4991,-254.3769 496.1033,-252.0563"/>
</g>
<!-- Node19 -->
<g id="node20" class="node">
<title>Node19</title>
<g id="a_node20"><a xlink:href="TextField_8hxx.html" target="_top" xlink:title="TextField.hxx">
<polygon fill="none" stroke="#000000" points="431,-336.5 431,-355.5 511,-355.5 511,-336.5 431,-336.5"/>
<text text-anchor="middle" x="471" y="-343.5" font-family="Helvetica,sans-Serif" font-size="10.00" fill="#000000">TextField.hxx</text>
</a>
</g>
</g>
<!-- Node0&#45;&gt;Node19 -->
<g id="edge31" class="edge">
<title>Node0&#45;&gt;Node19</title>
<path fill="none" stroke="#191970" d="M522.191,-392.2977C512.2603,-383.3163 499.6743,-371.9334 489.4673,-362.702"/>
<polygon fill="#191970" stroke="#191970" points="491.652,-359.9588 481.8877,-355.8469 486.9566,-365.1505 491.652,-359.9588"/>
</g>
<!-- Node3 -->
<g id="node4" class="node">
<title>Node3</title>
<polygon fill="none" stroke="#bfbfbf" points="304,-.5 304,-19.5 348,-19.5 348,-.5 304,-.5"/>
<text text-anchor="middle" x="326" y="-7.5" font-family="Helvetica,sans-Serif" font-size="10.00" fill="#000000">string</text>
</g>
<!-- Node2&#45;&gt;Node3 -->
<g id="edge3" class="edge">
<title>Node2&#45;&gt;Node3</title>
<path fill="none" stroke="#191970" d="M522.5034,-224.4859C579.0114,-207.7632 678.0897,-169.3444 647,-112 625.2609,-71.9026 603.2683,-73.1402 561,-56 492.0184,-28.0274 404.5709,-16.6813 358.2339,-12.3878"/>
<polygon fill="#191970" stroke="#191970" points="358.4492,-8.8933 348.1822,-11.5083 357.839,-15.8667 358.4492,-8.8933"/>
</g>
<!-- Node4 -->
<g id="node5" class="node">
<title>Node4</title>
<g id="a_node5"><a xlink:href="mapEdit_8hxx.html" target="_top" xlink:title="../../basics/mapEdit.hxx">
<polygon fill="none" stroke="#000000" points="38,-168.5 38,-187.5 168,-187.5 168,-168.5 38,-168.5"/>
<text text-anchor="middle" x="103" y="-175.5" font-family="Helvetica,sans-Serif" font-size="10.00" fill="#000000">../../basics/mapEdit.hxx</text>
</a>
</g>
</g>
<!-- Node2&#45;&gt;Node4 -->
<g id="edge4" class="edge">
<title>Node2&#45;&gt;Node4</title>
<path fill="none" stroke="#191970" d="M420.5951,-224.4369C353.3952,-214.6113 248.9031,-199.3331 178.2979,-189.0096"/>
<polygon fill="#191970" stroke="#191970" points="178.5363,-185.5073 168.1351,-187.5237 177.5235,-192.4337 178.5363,-185.5073"/>
</g>
<!-- Node5 -->
<g id="node6" class="node">
<title>Node5</title>
<g id="a_node6"><a xlink:href="ResourcesManager_8hxx.html" target="_top" xlink:title="../../ResourcesManager.hxx">
<polygon fill="none" stroke="#000000" points="206,-168.5 206,-187.5 352,-187.5 352,-168.5 206,-168.5"/>
<text text-anchor="middle" x="279" y="-175.5" font-family="Helvetica,sans-Serif" font-size="10.00" fill="#000000">../../ResourcesManager.hxx</text>
</a>
</g>
</g>
<!-- Node2&#45;&gt;Node5 -->
<g id="edge6" class="edge">
<title>Node2&#45;&gt;Node5</title>
<path fill="none" stroke="#191970" d="M450.4154,-224.3733C415.3984,-214.9001 361.8119,-200.4032 323.8875,-190.1435"/>
<polygon fill="#191970" stroke="#191970" points="324.6873,-186.7341 314.1202,-187.5011 322.8592,-193.4912 324.6873,-186.7341"/>
</g>
<!-- Node8 -->
<g id="node9" class="node">
<title>Node8</title>
<polygon fill="none" stroke="#bfbfbf" points="490,-56.5 490,-75.5 534,-75.5 534,-56.5 490,-56.5"/>
<text text-anchor="middle" x="512" y="-63.5" font-family="Helvetica,sans-Serif" font-size="10.00" fill="#000000">SDL.h</text>
</g>
<!-- Node2&#45;&gt;Node8 -->
<g id="edge30" class="edge">
<title>Node2&#45;&gt;Node8</title>
<path fill="none" stroke="#191970" d="M494.4977,-224.2186C501.5403,-215.4179 511.0171,-201.786 515,-188 525.0971,-153.0507 520.3001,-110.1006 516.0461,-85.6046"/>
<polygon fill="#191970" stroke="#191970" points="519.4789,-84.9207 514.1852,-75.7432 512.6003,-86.2188 519.4789,-84.9207"/>
</g>
<!-- Node13 -->
<g id="node14" class="node">
<title>Node13</title>
<g id="a_node14"><a xlink:href="WindowManager_8hxx.html" target="_top" xlink:title="../../WindowManager.hxx">
<polygon fill="none" stroke="#000000" points="370,-168.5 370,-187.5 506,-187.5 506,-168.5 370,-168.5"/>
<text text-anchor="middle" x="438" y="-175.5" font-family="Helvetica,sans-Serif" font-size="10.00" fill="#000000">../../WindowManager.hxx</text>
</a>
</g>
</g>
<!-- Node2&#45;&gt;Node13 -->
<g id="edge18" class="edge">
<title>Node2&#45;&gt;Node13</title>
<path fill="none" stroke="#191970" d="M477.639,-224.2455C470.825,-216.2958 461.0319,-204.8706 452.8848,-195.3656"/>
<polygon fill="#191970" stroke="#191970" points="455.4305,-192.9575 446.2651,-187.6427 450.1157,-197.513 455.4305,-192.9575"/>
</g>
<!-- Node15 -->
<g id="node16" class="node">
<title>Node15</title>
<g id="a_node16"><a xlink:href="signal_8hxx.html" target="_top" xlink:title="../../basics/signal.hxx">
<polygon fill="none" stroke="#000000" points="740.5,-168.5 740.5,-187.5 859.5,-187.5 859.5,-168.5 740.5,-168.5"/>
<text text-anchor="middle" x="800" y="-175.5" font-family="Helvetica,sans-Serif" font-size="10.00" fill="#000000">../../basics/signal.hxx</text>
</a>
</g>
</g>
<!-- Node2&#45;&gt;Node15 -->
<g id="edge24" class="edge">
<title>Node2&#45;&gt;Node15</title>
<path fill="none" stroke="#191970" d="M539.6217,-224.4369C594.1507,-214.712 678.63,-199.6456 736.4796,-189.3285"/>
<polygon fill="#191970" stroke="#191970" points="737.3693,-192.7251 746.5994,-187.5237 736.1402,-185.8339 737.3693,-192.7251"/>
</g>
<!-- Node4&#45;&gt;Node3 -->
<g id="edge5" class="edge">
<title>Node4&#45;&gt;Node3</title>
<path fill="none" stroke="#191970" d="M93.6113,-168.3301C73.1743,-146.117 28.7535,-90.6941 58,-56 73.0908,-38.0983 225.7384,-20.3173 293.6813,-13.2207"/>
<polygon fill="#191970" stroke="#191970" points="294.236,-16.6822 303.8244,-12.1751 293.5182,-9.7191 294.236,-16.6822"/>
</g>
<!-- Node6 -->
<g id="node7" class="node">
<title>Node6</title>
<polygon fill="none" stroke="#bfbfbf" points="360,-112.5 360,-131.5 420,-131.5 420,-112.5 360,-112.5"/>
<text text-anchor="middle" x="390" y="-119.5" font-family="Helvetica,sans-Serif" font-size="10.00" fill="#000000">iostream</text>
</g>
<!-- Node5&#45;&gt;Node6 -->
<g id="edge7" class="edge">
<title>Node5&#45;&gt;Node6</title>
<path fill="none" stroke="#191970" d="M298.0816,-168.3733C315.7402,-159.4644 342.2053,-146.1127 362.2098,-136.0203"/>
<polygon fill="#191970" stroke="#191970" points="363.8158,-139.1303 371.1674,-131.5011 360.6628,-132.8806 363.8158,-139.1303"/>
</g>
<!-- Node7 -->
<g id="node8" class="node">
<title>Node7</title>
<polygon fill="none" stroke="#bfbfbf" points="66.5,-56.5 66.5,-75.5 159.5,-75.5 159.5,-56.5 66.5,-56.5"/>
<text text-anchor="middle" x="113" y="-63.5" font-family="Helvetica,sans-Serif" font-size="10.00" fill="#000000">unordered_map</text>
</g>
<!-- Node5&#45;&gt;Node7 -->
<g id="edge8" class="edge">
<title>Node5&#45;&gt;Node7</title>
<path fill="none" stroke="#191970" d="M260.5368,-168.4943C243.8211,-159.6608 218.7172,-145.822 198,-132 174.4422,-116.2828 148.9819,-96.0394 132.1311,-82.1399"/>
<polygon fill="#191970" stroke="#191970" points="134.0854,-79.2128 124.1597,-75.5072 129.6081,-84.5938 134.0854,-79.2128"/>
</g>
<!-- Node5&#45;&gt;Node8 -->
<g id="edge9" class="edge">
<title>Node5&#45;&gt;Node8</title>
<path fill="none" stroke="#191970" d="M286.8037,-168.3939C299.0031,-154.007 324.0061,-126.9596 351,-112 400.7753,-84.4153 421.442,-92.2652 479.9573,-76.1272"/>
<polygon fill="#191970" stroke="#191970" points="481.0453,-79.4561 489.6838,-73.322 479.1055,-72.7302 481.0453,-79.4561"/>
</g>
<!-- Node9 -->
<g id="node10" class="node">
<title>Node9</title>
<g id="a_node10"><a xlink:href="TileManager_8hxx.html" target="_top" xlink:title="TileManager.hxx">
<polygon fill="none" stroke="#000000" points="206.5,-112.5 206.5,-131.5 303.5,-131.5 303.5,-112.5 206.5,-112.5"/>
<text text-anchor="middle" x="255" y="-119.5" font-family="Helvetica,sans-Serif" font-size="10.00" fill="#000000">TileManager.hxx</text>
</a>
</g>
</g>
<!-- Node5&#45;&gt;Node9 -->
<g id="edge10" class="edge">
<title>Node5&#45;&gt;Node9</title>
<path fill="none" stroke="#191970" d="M274.8195,-168.2455C271.619,-160.7776 267.104,-150.2427 263.1916,-141.1137"/>
<polygon fill="#191970" stroke="#191970" points="266.2888,-139.4554 259.1326,-131.6427 259.8548,-142.2129 266.2888,-139.4554"/>
</g>
<!-- Node9&#45;&gt;Node3 -->
<g id="edge13" class="edge">
<title>Node9&#45;&gt;Node3</title>
<path fill="none" stroke="#191970" d="M290.9657,-112.454C309.3626,-105.5484 330.1215,-94.1556 341,-76 349.6507,-61.5625 343.9253,-42.6195 337.2029,-28.7324"/>
<polygon fill="#191970" stroke="#191970" points="340.1394,-26.8029 332.323,-19.6507 333.9732,-30.1162 340.1394,-26.8029"/>
</g>
<!-- Node9&#45;&gt;Node7 -->
<g id="edge12" class="edge">
<title>Node9&#45;&gt;Node7</title>
<path fill="none" stroke="#191970" d="M230.5893,-112.3733C207.3858,-103.2226 172.2962,-89.3844 146.4858,-79.2057"/>
<polygon fill="#191970" stroke="#191970" points="147.6789,-75.9139 137.0921,-75.5011 145.1108,-82.4258 147.6789,-75.9139"/>
</g>
<!-- Node9&#45;&gt;Node8 -->
<g id="edge11" class="edge">
<title>Node9&#45;&gt;Node8</title>
<path fill="none" stroke="#191970" d="M303.8547,-113.6783C347.7165,-105.8433 414.0046,-93.1065 480.0036,-76.056"/>
<polygon fill="#191970" stroke="#191970" points="480.9482,-79.4267 489.7363,-73.5091 479.176,-72.6547 480.9482,-79.4267"/>
</g>
<!-- Node10 -->
<g id="node11" class="node">
<title>Node10</title>
<g id="a_node11"><a xlink:href="tileData_8hxx.html" target="_top" xlink:title="tileData.hxx">
<polygon fill="none" stroke="#000000" points="254.5,-56.5 254.5,-75.5 331.5,-75.5 331.5,-56.5 254.5,-56.5"/>
<text text-anchor="middle" x="293" y="-63.5" font-family="Helvetica,sans-Serif" font-size="10.00" fill="#000000">tileData.hxx</text>
</a>
</g>
</g>
<!-- Node9&#45;&gt;Node10 -->
<g id="edge14" class="edge">
<title>Node9&#45;&gt;Node10</title>
<path fill="none" stroke="#191970" d="M261.6191,-112.2455C266.9046,-104.4564 274.4541,-93.3308 280.8238,-83.9439"/>
<polygon fill="#191970" stroke="#191970" points="283.7379,-85.8827 286.4568,-75.6427 277.9455,-81.9522 283.7379,-85.8827"/>
</g>
<!-- Node11 -->
<g id="node12" class="node">
<title>Node11</title>
<polygon fill="none" stroke="#bfbfbf" points="178,-56.5 178,-75.5 236,-75.5 236,-56.5 178,-56.5"/>
<text text-anchor="middle" x="207" y="-63.5" font-family="Helvetica,sans-Serif" font-size="10.00" fill="#000000">json.hxx</text>
</g>
<!-- Node9&#45;&gt;Node11 -->
<g id="edge16" class="edge">
<title>Node9&#45;&gt;Node11</title>
<path fill="none" stroke="#191970" d="M246.639,-112.2455C239.825,-104.2958 230.0319,-92.8706 221.8848,-83.3656"/>
<polygon fill="#191970" stroke="#191970" points="224.4305,-80.9575 215.2651,-75.6427 219.1157,-85.513 224.4305,-80.9575"/>
</g>
<!-- Node12 -->
<g id="node13" class="node">
<title>Node12</title>
<g id="a_node13"><a xlink:href="Singleton_8hxx.html" target="_top" xlink:title="Singleton.hxx">
<polygon fill="none" stroke="#000000" points="388.5,-56.5 388.5,-75.5 471.5,-75.5 471.5,-56.5 388.5,-56.5"/>
<text text-anchor="middle" x="430" y="-63.5" font-family="Helvetica,sans-Serif" font-size="10.00" fill="#000000">Singleton.hxx</text>
</a>
</g>
</g>
<!-- Node9&#45;&gt;Node12 -->
<g id="edge17" class="edge">
<title>Node9&#45;&gt;Node12</title>
<path fill="none" stroke="#191970" d="M285.0836,-112.3733C314.1834,-103.0613 358.4523,-88.8953 390.403,-78.671"/>
<polygon fill="#191970" stroke="#191970" points="391.8515,-81.8824 400.309,-75.5011 389.718,-75.2155 391.8515,-81.8824"/>
</g>
<!-- Node10&#45;&gt;Node3 -->
<g id="edge15" class="edge">
<title>Node10&#45;&gt;Node3</title>
<path fill="none" stroke="#191970" d="M298.7482,-56.2455C303.2435,-48.617 309.6248,-37.7881 315.0825,-28.5267"/>
<polygon fill="#191970" stroke="#191970" points="318.2561,-30.035 320.3177,-19.6427 312.2253,-26.4811 318.2561,-30.035"/>
</g>
<!-- Node13&#45;&gt;Node3 -->
<g id="edge19" class="edge">
<title>Node13&#45;&gt;Node3</title>
<path fill="none" stroke="#191970" d="M457.6832,-168.3624C496.7959,-147.9617 577.6568,-98.7735 543,-56 520.1578,-27.808 413.3683,-16.1957 358.5924,-12.0299"/>
<polygon fill="#191970" stroke="#191970" points="358.5967,-8.5212 348.371,-11.2933 358.0935,-15.5031 358.5967,-8.5212"/>
</g>
<!-- Node13&#45;&gt;Node6 -->
<g id="edge20" class="edge">
<title>Node13&#45;&gt;Node6</title>
<path fill="none" stroke="#191970" d="M429.639,-168.2455C422.825,-160.2958 413.0319,-148.8706 404.8848,-139.3656"/>
<polygon fill="#191970" stroke="#191970" points="407.4305,-136.9575 398.2651,-131.6427 402.1157,-141.513 407.4305,-136.9575"/>
</g>
<!-- Node13&#45;&gt;Node8 -->
<g id="edge22" class="edge">
<title>Node13&#45;&gt;Node8</title>
<path fill="none" stroke="#191970" d="M444.3092,-168.4509C456.6515,-149.7707 484.1682,-108.1238 500.0568,-84.0761"/>
<polygon fill="#191970" stroke="#191970" points="503.1143,-85.7977 505.7068,-75.5249 497.274,-81.9388 503.1143,-85.7977"/>
</g>
<!-- Node13&#45;&gt;Node12 -->
<g id="edge23" class="edge">
<title>Node13&#45;&gt;Node12</title>
<path fill="none" stroke="#191970" d="M437.3179,-168.4509C436.0131,-150.184 433.1397,-109.9553 431.407,-85.6976"/>
<polygon fill="#191970" stroke="#191970" points="434.884,-85.2501 430.6803,-75.5249 427.9018,-85.7489 434.884,-85.2501"/>
</g>
<!-- Node14 -->
<g id="node15" class="node">
<title>Node14</title>
<polygon fill="none" stroke="#bfbfbf" points="590.5,-112.5 590.5,-131.5 637.5,-131.5 637.5,-112.5 590.5,-112.5"/>
<text text-anchor="middle" x="614" y="-119.5" font-family="Helvetica,sans-Serif" font-size="10.00" fill="#000000">vector</text>
</g>
<!-- Node13&#45;&gt;Node14 -->
<g id="edge21" class="edge">
<title>Node13&#45;&gt;Node14</title>
<path fill="none" stroke="#191970" d="M468.2555,-168.3733C499.4727,-158.4405 548.0475,-142.9849 580.4301,-132.6813"/>
<polygon fill="#191970" stroke="#191970" points="581.8644,-135.8979 590.3324,-129.5306 579.7419,-129.2275 581.8644,-135.8979"/>
</g>
<!-- Node15&#45;&gt;Node1 -->
<g id="edge25" class="edge">
<title>Node15&#45;&gt;Node1</title>
<path fill="none" stroke="#191970" d="M786.5876,-168.2455C774.9943,-159.814 758.0252,-147.4729 744.5322,-137.6598"/>
<polygon fill="#191970" stroke="#191970" points="746.4047,-134.6938 736.2587,-131.6427 742.2874,-140.355 746.4047,-134.6938"/>
</g>
<!-- Node15&#45;&gt;Node14 -->
<g id="edge28" class="edge">
<title>Node15&#45;&gt;Node14</title>
<path fill="none" stroke="#191970" d="M768.0255,-168.3733C734.4211,-158.2558 681.7843,-142.4082 647.5862,-132.112"/>
<polygon fill="#191970" stroke="#191970" points="648.1909,-128.6389 637.6064,-129.1073 646.1728,-135.3417 648.1909,-128.6389"/>
</g>
<!-- Node16 -->
<g id="node17" class="node">
<title>Node16</title>
<polygon fill="none" stroke="#bfbfbf" points="770.5,-112.5 770.5,-131.5 835.5,-131.5 835.5,-112.5 770.5,-112.5"/>
<text text-anchor="middle" x="803" y="-119.5" font-family="Helvetica,sans-Serif" font-size="10.00" fill="#000000">functional</text>
</g>
<!-- Node15&#45;&gt;Node16 -->
<g id="edge26" class="edge">
<title>Node15&#45;&gt;Node16</title>
<path fill="none" stroke="#191970" d="M800.5226,-168.2455C800.914,-160.9382 801.4628,-150.6944 801.9444,-141.7046"/>
<polygon fill="#191970" stroke="#191970" points="805.4434,-141.8156 802.4834,-131.6427 798.4534,-141.4411 805.4434,-141.8156"/>
</g>
<!-- Node17 -->
<g id="node18" class="node">
<title>Node17</title>
<polygon fill="none" stroke="#bfbfbf" points="854,-112.5 854,-131.5 886,-131.5 886,-112.5 854,-112.5"/>
<text text-anchor="middle" x="870" y="-119.5" font-family="Helvetica,sans-Serif" font-size="10.00" fill="#000000">list</text>
</g>
<!-- Node15&#45;&gt;Node17 -->
<g id="edge27" class="edge">
<title>Node15&#45;&gt;Node17</title>
<path fill="none" stroke="#191970" d="M812.1931,-168.2455C822.6321,-159.8943 837.8655,-147.7076 850.074,-137.9408"/>
<polygon fill="#191970" stroke="#191970" points="852.3244,-140.6227 857.9467,-131.6427 847.9515,-135.1566 852.3244,-140.6227"/>
</g>
<!-- Node18 -->
<g id="node19" class="node">
<title>Node18</title>
<polygon fill="none" stroke="#bfbfbf" points="904,-112.5 904,-131.5 968,-131.5 968,-112.5 904,-112.5"/>
<text text-anchor="middle" x="936" y="-119.5" font-family="Helvetica,sans-Serif" font-size="10.00" fill="#000000">algorithm</text>
</g>
<!-- Node15&#45;&gt;Node18 -->
<g id="edge29" class="edge">
<title>Node15&#45;&gt;Node18</title>
<path fill="none" stroke="#191970" d="M823.3792,-168.3733C845.5045,-159.2629 878.9134,-145.5062 903.6019,-135.3404"/>
<polygon fill="#191970" stroke="#191970" points="905.0117,-138.5451 912.9258,-131.5011 902.3464,-132.0723 905.0117,-138.5451"/>
</g>
<!-- Node19&#45;&gt;Node2 -->
<g id="edge32" class="edge">
<title>Node19&#45;&gt;Node2</title>
<path fill="none" stroke="#191970" d="M472.2789,-336.4509C474.7254,-318.184 480.1131,-277.9553 483.3619,-253.6976"/>
<polygon fill="#191970" stroke="#191970" points="486.8659,-253.901 484.7243,-243.5249 479.9278,-252.9718 486.8659,-253.901"/>
</g>
<!-- Node20 -->
<g id="node21" class="node">
<title>Node20</title>
<g id="a_node21"><a xlink:href="Text_8hxx.html" target="_top" xlink:title="Text.hxx">
<polygon fill="none" stroke="#000000" points="400,-280.5 400,-299.5 458,-299.5 458,-280.5 400,-280.5"/>
<text text-anchor="middle" x="429" y="-287.5" font-family="Helvetica,sans-Serif" font-size="10.00" fill="#000000">Text.hxx</text>
</a>
</g>
</g>
<!-- Node19&#45;&gt;Node20 -->
<g id="edge33" class="edge">
<title>Node19&#45;&gt;Node20</title>
<path fill="none" stroke="#191970" d="M463.6842,-336.2455C457.7821,-328.3761 449.3258,-317.101 442.2406,-307.6542"/>
<polygon fill="#191970" stroke="#191970" points="445.0321,-305.5427 436.232,-299.6427 439.432,-309.7427 445.0321,-305.5427"/>
</g>
<!-- Node20&#45;&gt;Node2 -->
<g id="edge35" class="edge">
<title>Node20&#45;&gt;Node2</title>
<path fill="none" stroke="#191970" d="M438.9286,-280.2455C447.1838,-272.1352 459.1209,-260.4075 468.9082,-250.7919"/>
<polygon fill="#191970" stroke="#191970" points="471.5046,-253.1476 476.1851,-243.6427 466.5989,-248.1542 471.5046,-253.1476"/>
</g>
<!-- Node20&#45;&gt;Node3 -->
<g id="edge34" class="edge">
<title>Node20&#45;&gt;Node3</title>
<path fill="none" stroke="#191970" d="M399.8504,-288.6873C303.2939,-283.5561 0,-260.8449 0,-178 0,-178 0,-178 0,-122 0,-86.245 15.7534,-75.0673 46,-56 86.8574,-30.2437 229.3966,-16.9562 293.8803,-12.1472"/>
<polygon fill="#191970" stroke="#191970" points="294.1719,-15.6354 303.893,-11.4222 293.6663,-8.6537 294.1719,-15.6354"/>
</g>
</g>
</svg>
