<?xml version="1.0" encoding="UTF-8" standalone="no"?>
<!DOCTYPE svg PUBLIC "-//W3C//DTD SVG 1.1//EN"
 "http://www.w3.org/Graphics/SVG/1.1/DTD/svg11.dtd">
<!-- Generated by graphviz version 2.40.1 (20161225.0304)
 -->
<!-- Title: decompressString Pages: 1 -->
<!--zoomable 131 -->
<svg id="main" version="1.1" xmlns="http://www.w3.org/2000/svg" xmlns:xlink="http://www.w3.org/1999/xlink" xml:space="preserve" onload="init(evt)">
<style type="text/css"><![CDATA[
.edge:hover path { stroke: red; }
.edge:hover polygon { stroke: red; fill: red; }
]]></style>
<script type="text/javascript"><![CDATA[
var edges = document.getElementsByTagName('g');
if (edges && edges.length) {
  for (var i=0;i<edges.length;i++) {
    if (edges[i].id.substr(0,4)=='edge') {
      edges[i].setAttribute('class','edge');
    }
  }
}
]]></script>
        <defs>
                <circle id="rim" cx="0" cy="0" r="7"/>
                <circle id="rim2" cx="0" cy="0" r="3.5"/>
                <g id="zoomPlus">
                        <use xlink:href="#rim" fill="#404040">
                                <set attributeName="fill" to="#808080" begin="zoomplus.mouseover" end="zoomplus.mouseout"/>
                        </use>
                        <path d="M-4,0h8M0,-4v8" fill="none" stroke="white" stroke-width="1.5" pointer-events="none"/>
                </g>
                <g id="zoomMin">
                        <use xlink:href="#rim" fill="#404040">
                                <set attributeName="fill" to="#808080" begin="zoomminus.mouseover" end="zoomminus.mouseout"/>
                        </use>
                        <path d="M-4,0h8" fill="none" stroke="white" stroke-width="1.5" pointer-events="none"/>
                </g>
                <g id="dirArrow">
                        <path fill="none" stroke="white" stroke-width="1.5" d="M0,-3.0v7 M-2.5,-0.5L0,-3.0L2.5,-0.5"/>
                </g>
               <g id="resetDef">
                       <use xlink:href="#rim2" fill="#404040">
                               <set attributeName="fill" to="#808080" begin="reset.mouseover" end="reset.mouseout"/>
                       </use>
               </g>
        </defs>

<script type="text/javascript">
var viewWidth = 1163;
var viewHeight = 131;
var sectionId = 'dynsection-3';
</script>
<script xlink:href="svgpan.js"/>
<svg id="graph" class="graph">
<g id="viewport">
<title>decompressString</title>
<!-- Node13 -->
<g id="node1" class="node">
<title>Node13</title>
<polygon fill="#bfbfbf" stroke="#000000" points="0,-65.9359 0,-84.9359 104,-84.9359 104,-65.9359 0,-65.9359"/>
<text text-anchor="middle" x="52" y="-72.9359" font-family="Helvetica,sans-Serif" font-size="10.00" fill="#000000">decompressString</text>
</g>
<!-- Node14 -->
<g id="node2" class="node">
<title>Node14</title>
<g id="a_node2"><a xlink:href="classMap.html#afefe996cc1f62b61ec60d0ae415953bf" target="_top" xlink:title="Map::loadMapFromFile">
<polygon fill="none" stroke="#000000" points="140,-65.9359 140,-84.9359 265,-84.9359 265,-65.9359 140,-65.9359"/>
<text text-anchor="middle" x="202.5" y="-72.9359" font-family="Helvetica,sans-Serif" font-size="10.00" fill="#000000">Map::loadMapFromFile</text>
</a>
</g>
</g>
<!-- Node13&#45;&gt;Node14 -->
<g id="edge1" class="edge">
<title>Node13&#45;&gt;Node14</title>
<path fill="none" stroke="#191970" d="M114.3228,-75.4359C122.7233,-75.4359 131.3454,-75.4359 139.7532,-75.4359"/>
<polygon fill="#191970" stroke="#191970" points="114.2153,-71.936 104.2152,-75.4359 114.2152,-78.936 114.2153,-71.936"/>
</g>
<!-- Node15 -->
<g id="node3" class="node">
<title>Node15</title>
<g id="a_node3"><a xlink:href="classEngine.html#a83b7dbeee899b36a13d5b07c7ad87ebc" target="_top" xlink:title="Loads a saved game Loads a saved Game. ">
<polygon fill="none" stroke="#000000" points="309.5,-46.9359 309.5,-65.9359 415.5,-65.9359 415.5,-46.9359 309.5,-46.9359"/>
<text text-anchor="middle" x="362.5" y="-53.9359" font-family="Helvetica,sans-Serif" font-size="10.00" fill="#000000">Engine::loadGame</text>
</a>
</g>
</g>
<!-- Node14&#45;&gt;Node15 -->
<g id="edge2" class="edge">
<title>Node14&#45;&gt;Node15</title>
<path fill="none" stroke="#191970" d="M275.3143,-66.7892C286.8222,-65.4226 298.53,-64.0323 309.4749,-62.7326"/>
<polygon fill="#191970" stroke="#191970" points="274.7945,-63.3262 265.277,-67.9811 275.62,-70.2774 274.7945,-63.3262"/>
</g>
<!-- Node24 -->
<g id="node12" class="node">
<title>Node24</title>
<g id="a_node12"><a xlink:href="classMap.html#a779c939483a52b32a3959b99af95e67a" target="_top" xlink:title="Set the Tile ID Of Node object Also invokes all necessary texture updates (auto&#45;tiling, slopes, ...) ">
<polygon fill="none" stroke="#000000" points="301,-93.9359 301,-112.9359 424,-112.9359 424,-93.9359 301,-93.9359"/>
<text text-anchor="middle" x="362.5" y="-100.9359" font-family="Helvetica,sans-Serif" font-size="10.00" fill="#000000">Map::setTileIDOfNode</text>
</a>
</g>
</g>
<!-- Node14&#45;&gt;Node24 -->
<g id="edge15" class="edge">
<title>Node14&#45;&gt;Node24</title>
<path fill="none" stroke="#191970" d="M267.327,-86.7806C280.8694,-89.1505 295.014,-91.6258 308.1307,-93.9213"/>
<polygon fill="#191970" stroke="#191970" points="267.5691,-83.2699 257.1154,-84.9936 266.3624,-90.1651 267.5691,-83.2699"/>
</g>
<!-- Node16 -->
<g id="node4" class="node">
<title>Node16</title>
<g id="a_node4"><a xlink:href="classEngine.html#a0ba57971ffb5173ecc425461f65a4cd8" target="_top" xlink:title="Quits the game Sets m_running to false and quitting the game. ">
<polygon fill="none" stroke="#000000" points="476,-65.9359 476,-84.9359 580,-84.9359 580,-65.9359 476,-65.9359"/>
<text text-anchor="middle" x="528" y="-72.9359" font-family="Helvetica,sans-Serif" font-size="10.00" fill="#000000">Engine::quitGame</text>
</a>
</g>
</g>
<!-- Node15&#45;&gt;Node16 -->
<g id="edge3" class="edge">
<title>Node15&#45;&gt;Node16</title>
<path fill="none" stroke="#191970" d="M425.9079,-63.7153C442.4475,-65.6141 460.0792,-67.6383 475.9541,-69.4608"/>
<polygon fill="#191970" stroke="#191970" points="426.1102,-60.2157 415.7762,-62.5522 425.3118,-67.17 426.1102,-60.2157"/>
</g>
<!-- Node22 -->
<g id="node10" class="node">
<title>Node22</title>
<g id="a_node10"><a xlink:href="classUIManager.html#aa78e356fc3b356d790c848319d1c387e" target="_top" xlink:title="UIManager::setCallbackFunctions">
<polygon fill="none" stroke="#000000" points="632,-27.9359 632,-46.9359 810,-46.9359 810,-27.9359 632,-27.9359"/>
<text text-anchor="middle" x="721" y="-34.9359" font-family="Helvetica,sans-Serif" font-size="10.00" fill="#000000">UIManager::setCallbackFunctions</text>
</a>
</g>
</g>
<!-- Node15&#45;&gt;Node22 -->
<g id="edge13" class="edge">
<title>Node15&#45;&gt;Node22</title>
<path fill="none" stroke="#191970" d="M425.7817,-53.082C483.003,-50.0494 567.8502,-45.5526 631.9178,-42.1571"/>
<polygon fill="#191970" stroke="#191970" points="425.5847,-49.5875 415.784,-53.6119 425.9552,-56.5777 425.5847,-49.5875"/>
</g>
<!-- Node23 -->
<g id="node11" class="node">
<title>Node23</title>
<g id="a_node11"><a xlink:href="classGame.html#a5ed7fc5be77080f7f6dd5363f7f007a1" target="_top" xlink:title="initializes and displays the main menu initializes and displays the main menu ">
<polygon fill="none" stroke="#000000" points="846,-65.9359 846,-84.9359 949,-84.9359 949,-65.9359 846,-65.9359"/>
<text text-anchor="middle" x="897.5" y="-72.9359" font-family="Helvetica,sans-Serif" font-size="10.00" fill="#000000">Game::mainMenu</text>
</a>
</g>
</g>
<!-- Node15&#45;&gt;Node23 -->
<g id="edge14" class="edge">
<title>Node15&#45;&gt;Node23</title>
<path fill="none" stroke="#191970" d="M400.9262,-43.8781C479.5531,-20.1837 663.7164,25.0083 810,-18.4359 841.2834,-27.7266 871.8332,-52.1322 887.215,-65.8042"/>
<polygon fill="#191970" stroke="#191970" points="399.5192,-40.6488 390.9868,-46.9296 401.5737,-47.3405 399.5192,-40.6488"/>
</g>
<!-- Node17 -->
<g id="node5" class="node">
<title>Node17</title>
<g id="a_node5"><a xlink:href="classEventManager.html#a65ec91fd5016d4f9c4167fb8babed2df" target="_top" xlink:title="EventManager::checkEvents">
<polygon fill="none" stroke="#000000" points="644,-103.9359 644,-122.9359 798,-122.9359 798,-103.9359 644,-103.9359"/>
<text text-anchor="middle" x="721" y="-110.9359" font-family="Helvetica,sans-Serif" font-size="10.00" fill="#000000">EventManager::checkEvents</text>
</a>
</g>
</g>
<!-- Node16&#45;&gt;Node17 -->
<g id="edge4" class="edge">
<title>Node16&#45;&gt;Node17</title>
<path fill="none" stroke="#191970" d="M586.6016,-86.974C614.1289,-92.3939 646.5476,-98.7769 672.6482,-103.9158"/>
<polygon fill="#191970" stroke="#191970" points="587.1898,-83.5227 576.702,-85.0249 585.8375,-90.3909 587.1898,-83.5227"/>
</g>
<!-- Node16&#45;&gt;Node22 -->
<g id="edge9" class="edge">
<title>Node16&#45;&gt;Node22</title>
<path fill="none" stroke="#191970" d="M586.6016,-63.8977C614.1289,-58.4779 646.5476,-52.0949 672.6482,-46.9559"/>
<polygon fill="#191970" stroke="#191970" points="585.8375,-60.4809 576.702,-65.8469 587.1898,-67.349 585.8375,-60.4809"/>
</g>
<!-- Node16&#45;&gt;Node23 -->
<g id="edge10" class="edge">
<title>Node16&#45;&gt;Node23</title>
<path fill="none" stroke="#191970" d="M590.4215,-75.4359C662.2761,-75.4359 778.9682,-75.4359 845.9062,-75.4359"/>
<polygon fill="#191970" stroke="#191970" points="590.1567,-71.936 580.1566,-75.4359 590.1566,-78.936 590.1567,-71.936"/>
</g>
<!-- Node18 -->
<g id="node6" class="node">
<title>Node18</title>
<g id="a_node6"><a xlink:href="classGame.html#a1c2ab25d5216b2f4b2fe41efd2c09114" target="_top" xlink:title="begins the game starts running the game ">
<polygon fill="none" stroke="#000000" points="863.5,-103.9359 863.5,-122.9359 931.5,-122.9359 931.5,-103.9359 863.5,-103.9359"/>
<text text-anchor="middle" x="897.5" y="-110.9359" font-family="Helvetica,sans-Serif" font-size="10.00" fill="#000000">Game::run</text>
</a>
</g>
</g>
<!-- Node17&#45;&gt;Node18 -->
<g id="edge5" class="edge">
<title>Node17&#45;&gt;Node18</title>
<path fill="none" stroke="#191970" d="M808.3664,-113.4359C827.9355,-113.4359 847.5625,-113.4359 863.398,-113.4359"/>
<polygon fill="#191970" stroke="#191970" points="808.1587,-109.936 798.1587,-113.4359 808.1587,-116.936 808.1587,-109.936"/>
</g>
<!-- Node19 -->
<g id="node7" class="node">
<title>Node19</title>
<g id="a_node7"><a xlink:href="classGame.html#ad59df6562a58a614fda24622d3715b65" target="_top" xlink:title="Game::Game">
<polygon fill="none" stroke="#000000" points="991,-65.9359 991,-84.9359 1072,-84.9359 1072,-65.9359 991,-65.9359"/>
<text text-anchor="middle" x="1031.5" y="-72.9359" font-family="Helvetica,sans-Serif" font-size="10.00" fill="#000000">Game::Game</text>
</a>
</g>
</g>
<!-- Node18&#45;&gt;Node19 -->
<g id="edge6" class="edge">
<title>Node18&#45;&gt;Node19</title>
<path fill="none" stroke="#191970" d="M940.9383,-101.1176C959.3491,-95.8966 980.4798,-89.9043 997.697,-85.0218"/>
<polygon fill="#191970" stroke="#191970" points="939.9796,-97.7513 931.3139,-103.8469 941.8894,-104.4858 939.9796,-97.7513"/>
</g>
<!-- Node20 -->
<g id="node8" class="node">
<title>Node20</title>
<g id="a_node8"><a xlink:href="main_8cxx.html#af582d708d899e67ead623eac34a22387" target="_top" xlink:title="protected_main">
<polygon fill="none" stroke="#000000" points="985,-103.9359 985,-122.9359 1078,-122.9359 1078,-103.9359 985,-103.9359"/>
<text text-anchor="middle" x="1031.5" y="-110.9359" font-family="Helvetica,sans-Serif" font-size="10.00" fill="#000000">protected_main</text>
</a>
</g>
</g>
<!-- Node18&#45;&gt;Node20 -->
<g id="edge7" class="edge">
<title>Node18&#45;&gt;Node20</title>
<path fill="none" stroke="#191970" d="M941.8611,-113.4359C955.6278,-113.4359 970.8396,-113.4359 984.7626,-113.4359"/>
<polygon fill="#191970" stroke="#191970" points="941.6606,-109.936 931.6606,-113.4359 941.6605,-116.936 941.6606,-109.936"/>
</g>
<!-- Node21 -->
<g id="node9" class="node">
<title>Node21</title>
<g id="a_node9"><a xlink:href="main_8cxx.html#a3c04138a5bfe5d72780bb7e82a18e627" target="_top" xlink:title="main">
<polygon fill="none" stroke="#000000" points="1114,-103.9359 1114,-122.9359 1155,-122.9359 1155,-103.9359 1114,-103.9359"/>
<text text-anchor="middle" x="1134.5" y="-110.9359" font-family="Helvetica,sans-Serif" font-size="10.00" fill="#000000">main</text>
</a>
</g>
</g>
<!-- Node20&#45;&gt;Node21 -->
<g id="edge8" class="edge">
<title>Node20&#45;&gt;Node21</title>
<path fill="none" stroke="#191970" d="M1088.2133,-113.4359C1097.4322,-113.4359 1106.4259,-113.4359 1113.9965,-113.4359"/>
<polygon fill="#191970" stroke="#191970" points="1088.1782,-109.936 1078.1782,-113.4359 1088.1781,-116.936 1088.1782,-109.936"/>
</g>
<!-- Node23&#45;&gt;Node19 -->
<g id="edge11" class="edge">
<title>Node23&#45;&gt;Node19</title>
<path fill="none" stroke="#191970" d="M959.3832,-75.4359C969.9831,-75.4359 980.7548,-75.4359 990.6287,-75.4359"/>
<polygon fill="#191970" stroke="#191970" points="959.3079,-71.936 949.3079,-75.4359 959.3079,-78.936 959.3079,-71.936"/>
</g>
<!-- Node23&#45;&gt;Node20 -->
<g id="edge12" class="edge">
<title>Node23&#45;&gt;Node20</title>
<path fill="none" stroke="#191970" d="M940.9383,-87.7542C959.3491,-92.9752 980.4798,-98.9675 997.697,-103.8499"/>
<polygon fill="#191970" stroke="#191970" points="941.8894,-84.386 931.3139,-85.0249 939.9796,-91.1204 941.8894,-84.386"/>
</g>
<!-- Node25 -->
<g id="node13" class="node">
<title>Node25</title>
<g id="a_node13"><a xlink:href="classEngine.html#a8a53c5e52734a5158b317851361b83f2" target="_top" xlink:title="Engine::setTileIDOfNode">
<polygon fill="none" stroke="#000000" points="460,-103.9359 460,-122.9359 596,-122.9359 596,-103.9359 460,-103.9359"/>
<text text-anchor="middle" x="528" y="-110.9359" font-family="Helvetica,sans-Serif" font-size="10.00" fill="#000000">Engine::setTileIDOfNode</text>
</a>
</g>
</g>
<!-- Node24&#45;&gt;Node25 -->
<g id="edge16" class="edge">
<title>Node24&#45;&gt;Node25</title>
<path fill="none" stroke="#191970" d="M434.3736,-107.7787C442.858,-108.2914 451.4976,-108.8134 459.9273,-109.3227"/>
<polygon fill="#191970" stroke="#191970" points="434.319,-104.2691 424.1261,-107.1595 433.8968,-111.2564 434.319,-104.2691"/>
</g>
<!-- Node25&#45;&gt;Node17 -->
<g id="edge17" class="edge">
<title>Node25&#45;&gt;Node17</title>
<path fill="none" stroke="#191970" d="M606.292,-113.4359C618.6288,-113.4359 631.3776,-113.4359 643.6918,-113.4359"/>
<polygon fill="#191970" stroke="#191970" points="606.0446,-109.936 596.0446,-113.4359 606.0445,-116.936 606.0446,-109.936"/>
</g>
</g>
</svg>
        <g id="navigator" transform="translate(0 0)" fill="#404254">
                <rect fill="#f2f5e9" fill-opacity="0.5" stroke="#606060" stroke-width=".5" x="0" y="0" width="60" height="60"/>
                <use id="zoomplus" xlink:href="#zoomPlus" x="17" y="9" onmousedown="handleZoom(evt,'in')"/>
                <use id="zoomminus" xlink:href="#zoomMin" x="42" y="9" onmousedown="handleZoom(evt,'out')"/>
                <use id="reset" xlink:href="#resetDef" x="30" y="36" onmousedown="handleReset()"/>
                <g id="arrowUp" xlink:href="#dirArrow" transform="translate(30 24)" onmousedown="handlePan(0,-1)">
                  <use xlink:href="#rim" fill="#404040">
                        <set attributeName="fill" to="#808080" begin="arrowUp.mouseover" end="arrowUp.mouseout"/>
                  </use>
                  <path fill="none" stroke="white" stroke-width="1.5" d="M0,-3.0v7 M-2.5,-0.5L0,-3.0L2.5,-0.5"/>
                </g>
                <g id="arrowRight" xlink:href="#dirArrow" transform="rotate(90) translate(36 -43)" onmousedown="handlePan(1,0)">
                  <use xlink:href="#rim" fill="#404040">
                        <set attributeName="fill" to="#808080" begin="arrowRight.mouseover" end="arrowRight.mouseout"/>
                  </use>
                  <path fill="none" stroke="white" stroke-width="1.5" d="M0,-3.0v7 M-2.5,-0.5L0,-3.0L2.5,-0.5"/>
                </g>
                <g id="arrowDown" xlink:href="#dirArrow" transform="rotate(180) translate(-30 -48)" onmousedown="handlePan(0,1)">
                  <use xlink:href="#rim" fill="#404040">
                        <set attributeName="fill" to="#808080" begin="arrowDown.mouseover" end="arrowDown.mouseout"/>
                  </use>
                  <path fill="none" stroke="white" stroke-width="1.5" d="M0,-3.0v7 M-2.5,-0.5L0,-3.0L2.5,-0.5"/>
                </g>
                <g id="arrowLeft" xlink:href="#dirArrow" transform="rotate(270) translate(-36 17)" onmousedown="handlePan(-1,0)">
                  <use xlink:href="#rim" fill="#404040">
                        <set attributeName="fill" to="#808080" begin="arrowLeft.mouseover" end="arrowLeft.mouseout"/>
                  </use>
                  <path fill="none" stroke="white" stroke-width="1.5" d="M0,-3.0v7 M-2.5,-0.5L0,-3.0L2.5,-0.5"/>
                </g>
        </g>
        <svg viewBox="0 0 15 15" width="100%" height="30px" preserveAspectRatio="xMaxYMin meet">
         <g id="arrow_out" transform="scale(0.3 0.3)">
          <a xlink:href="compression_8hxx_a25f341059256700f2f3ffd62d8113956_icgraph_org.svg" target="_base">
           <rect id="button" ry="5" rx="5" y="6" x="6" height="38" width="38"
                fill="#f2f5e9" fill-opacity="0.5" stroke="#606060" stroke-width="1.0"/>
           <path id="arrow"
             d="M 11.500037,31.436501 C 11.940474,20.09759 22.043105,11.32322 32.158766,21.979434 L 37.068811,17.246167 C 37.068811,17.246167 37.088388,32 37.088388,32 L 22.160133,31.978069 C 22.160133,31.978069 26.997745,27.140456 26.997745,27.140456 C 18.528582,18.264221 13.291696,25.230495 11.500037,31.436501 z"
             style="fill:#404040;"/>
          </a>
         </g>
        </svg>
</svg>
