<?xml version="1.0" encoding="UTF-8" standalone="no"?>
<!DOCTYPE svg PUBLIC "-//W3C//DTD SVG 1.1//EN"
 "http://www.w3.org/Graphics/SVG/1.1/DTD/svg11.dtd">
<!-- Generated by graphviz version 2.40.1 (20161225.0304)
 -->
<!-- Title: src/engine/ui Pages: 1 -->
<svg width="207pt" height="303pt"
 viewBox="0.00 0.00 207.00 303.00" xmlns="http://www.w3.org/2000/svg" xmlns:xlink="http://www.w3.org/1999/xlink">
<g id="graph0" class="graph" transform="scale(1 1) rotate(0) translate(4 299)">
<title>src/engine/ui</title>
<g id="clust1" class="cluster">
<title>clusterdir_2052808828190f934b76e979ee65af8a</title>
<g id="a_clust1"><a xlink:href="dir_2052808828190f934b76e979ee65af8a.html" target="_top" xlink:title="engine">
<polygon fill="#ddddee" stroke="#000000" points="8,-56 8,-287 191,-287 191,-56 8,-56"/>
<text text-anchor="middle" x="99.5" y="-275" font-family="Helvetica,sans-Serif" font-size="10.00" fill="#000000">engine</text>
</a>
</g>
</g>
<g id="clust2" class="cluster">
<title>clusterdir_dafb870456d4817504c840071e25f057</title>
<g id="a_clust2"><a xlink:href="dir_dafb870456d4817504c840071e25f057.html" target="_top">
<polygon fill="#eeeeff" stroke="#000000" points="16,-64 16,-260 183,-260 183,-64 16,-64"/>
</a>
</g>
</g>
<!-- dir_dafb870456d4817504c840071e25f057 -->
<g id="node1" class="node">
<title>dir_dafb870456d4817504c840071e25f057</title>
<text text-anchor="middle" x="148" y="-231.5" font-family="Helvetica,sans-Serif" font-size="10.00" fill="#000000">ui</text>
</g>
<!-- dir_5430acbacf25f3c993fa948280e8f66e -->
<g id="node2" class="node">
<title>dir_5430acbacf25f3c993fa948280e8f66e</title>
<g id="a_node2"><a xlink:href="dir_5430acbacf25f3c993fa948280e8f66e.html" target="_top" xlink:title="basics">
<polygon fill="#ffffff" stroke="#000000" points="90,-180 36,-180 36,-144 90,-144 90,-180"/>
<text text-anchor="middle" x="63" y="-159.5" font-family="Helvetica,sans-Serif" font-size="10.00" fill="#000000">basics</text>
</a>
</g>
</g>
<!-- dir_da596e0a640cb07f660e5a92758700d0 -->
<g id="node4" class="node">
<title>dir_da596e0a640cb07f660e5a92758700d0</title>
<g id="a_node4"><a xlink:href="dir_da596e0a640cb07f660e5a92758700d0.html" target="_top" xlink:title="widgets">
<polygon fill="#ffffff" stroke="#000000" points="90.5,-108 35.5,-108 35.5,-72 90.5,-72 90.5,-108"/>
<text text-anchor="middle" x="63" y="-87.5" font-family="Helvetica,sans-Serif" font-size="10.00" fill="#000000">widgets</text>
</a>
</g>
</g>
<!-- dir_5430acbacf25f3c993fa948280e8f66e&#45;&gt;dir_da596e0a640cb07f660e5a92758700d0 -->
<g id="edge1" class="edge">
<title>dir_5430acbacf25f3c993fa948280e8f66e&#45;&gt;dir_da596e0a640cb07f660e5a92758700d0</title>
<path fill="none" stroke="#000000" d="M57.0476,-143.8314C56.2972,-136.131 56.0763,-126.9743 56.3849,-118.4166"/>
<polygon fill="#000000" stroke="#000000" points="59.8792,-118.6161 57.024,-108.4133 52.8935,-118.1697 59.8792,-118.6161"/>
<g id="a_edge1&#45;headlabel"><a xlink:href="dir_000008_000010.html" target="_top" xlink:title="1">
<text text-anchor="middle" x="62.4836" y="-119.8844" font-family="Helvetica,sans-Serif" font-size="10.00" fill="#000000">1</text>
</a>
</g>
</g>
<!-- dir_8c0f887d135e3a09c81f308091ce630b -->
<g id="node5" class="node">
<title>dir_8c0f887d135e3a09c81f308091ce630b</title>
<g id="a_node5"><a xlink:href="dir_8c0f887d135e3a09c81f308091ce630b.html" target="_top" xlink:title="basics">
<polygon fill="none" stroke="#000000" points="118,-36 64,-36 64,0 118,0 118,-36"/>
<text text-anchor="middle" x="91" y="-15.5" font-family="Helvetica,sans-Serif" font-size="10.00" fill="#000000">basics</text>
</a>
</g>
</g>
<!-- dir_5430acbacf25f3c993fa948280e8f66e&#45;&gt;dir_8c0f887d135e3a09c81f308091ce630b -->
<g id="edge2" class="edge">
<title>dir_5430acbacf25f3c993fa948280e8f66e&#45;&gt;dir_8c0f887d135e3a09c81f308091ce630b</title>
<path fill="none" stroke="#000000" d="M79.4281,-143.989C87.3025,-134.1289 95.898,-121.2441 100,-108 106.2527,-87.8122 103.4435,-63.976 99.3724,-45.9072"/>
<polygon fill="#000000" stroke="#000000" points="102.7167,-44.8539 96.8885,-36.0061 95.9271,-46.5573 102.7167,-44.8539"/>
<g id="a_edge2&#45;headlabel"><a xlink:href="dir_000008_000003.html" target="_top" xlink:title="6">
<text text-anchor="middle" x="106.3452" y="-45.1496" font-family="Helvetica,sans-Serif" font-size="10.00" fill="#000000">6</text>
</a>
</g>
</g>
<!-- dir_12bf07b2862220ce91530ffb27a5906b -->
<g id="node3" class="node">
<title>dir_12bf07b2862220ce91530ffb27a5906b</title>
<g id="a_node3"><a xlink:href="dir_12bf07b2862220ce91530ffb27a5906b.html" target="_top" xlink:title="menuGroups">
<polygon fill="#ffffff" stroke="#000000" points="102.5,-252 23.5,-252 23.5,-216 102.5,-216 102.5,-252"/>
<text text-anchor="middle" x="63" y="-231.5" font-family="Helvetica,sans-Serif" font-size="10.00" fill="#000000">menuGroups</text>
</a>
</g>
</g>
<!-- dir_12bf07b2862220ce91530ffb27a5906b&#45;&gt;dir_5430acbacf25f3c993fa948280e8f66e -->
<g id="edge5" class="edge">
<title>dir_12bf07b2862220ce91530ffb27a5906b&#45;&gt;dir_5430acbacf25f3c993fa948280e8f66e</title>
<path fill="none" stroke="#000000" d="M63,-215.8314C63,-208.131 63,-198.9743 63,-190.4166"/>
<polygon fill="#000000" stroke="#000000" points="66.5001,-190.4132 63,-180.4133 59.5001,-190.4133 66.5001,-190.4132"/>
<g id="a_edge5&#45;headlabel"><a xlink:href="dir_000009_000008.html" target="_top" xlink:title="2">
<text text-anchor="middle" x="69.3393" y="-191.5079" font-family="Helvetica,sans-Serif" font-size="10.00" fill="#000000">2</text>
</a>
</g>
</g>
<!-- dir_da596e0a640cb07f660e5a92758700d0&#45;&gt;dir_5430acbacf25f3c993fa948280e8f66e -->
<g id="edge3" class="edge">
<title>dir_da596e0a640cb07f660e5a92758700d0&#45;&gt;dir_5430acbacf25f3c993fa948280e8f66e</title>
<path fill="none" stroke="#000000" d="M68.976,-108.4133C69.7071,-116.0593 69.9203,-125.1084 69.6155,-133.5726"/>
<polygon fill="#000000" stroke="#000000" points="66.1048,-133.6264 68.9524,-143.8314 73.0902,-134.078 66.1048,-133.6264"/>
<g id="a_edge3&#45;headlabel"><a xlink:href="dir_000010_000008.html" target="_top" xlink:title="10">
<text text-anchor="middle" x="63.5032" y="-127.3562" font-family="Helvetica,sans-Serif" font-size="10.00" fill="#000000">10</text>
</a>
</g>
</g>
<!-- dir_da596e0a640cb07f660e5a92758700d0&#45;&gt;dir_8c0f887d135e3a09c81f308091ce630b -->
<g id="edge4" class="edge">
<title>dir_da596e0a640cb07f660e5a92758700d0&#45;&gt;dir_8c0f887d135e3a09c81f308091ce630b</title>
<path fill="none" stroke="#000000" d="M70.0656,-71.8314C73.126,-63.9617 76.7779,-54.5712 80.1682,-45.8533"/>
<polygon fill="#000000" stroke="#000000" points="83.4768,-47.0019 83.8393,-36.4133 76.9527,-44.4647 83.4768,-47.0019"/>
<g id="a_edge4&#45;headlabel"><a xlink:href="dir_000010_000003.html" target="_top" xlink:title="5">
<text text-anchor="middle" x="84.8202" y="-48.8812" font-family="Helvetica,sans-Serif" font-size="10.00" fill="#000000">5</text>
</a>
</g>
</g>
</g>
</svg>
