<?xml version="1.0" encoding="UTF-8" standalone="no"?>
<!DOCTYPE svg PUBLIC "-//W3C//DTD SVG 1.1//EN"
 "http://www.w3.org/Graphics/SVG/1.1/DTD/svg11.dtd">
<!-- Generated by graphviz version 2.40.1 (20161225.0304)
 -->
<!-- Title: src/engine Pages: 1 -->
<svg width="352pt" height="435pt"
 viewBox="0.00 0.00 352.27 435.00" xmlns="http://www.w3.org/2000/svg" xmlns:xlink="http://www.w3.org/1999/xlink">
<g id="graph0" class="graph" transform="scale(1 1) rotate(0) translate(4 431)">
<title>src/engine</title>
<g id="clust1" class="cluster">
<title>clusterdir_68267d1309a1af8e8297ef4c3efbcdba</title>
<g id="a_clust1"><a xlink:href="dir_68267d1309a1af8e8297ef4c3efbcdba.html" target="_top" xlink:title="src">
<polygon fill="#ddddee" stroke="#000000" points="62,-8 62,-383 292,-383 292,-8 62,-8"/>
<text text-anchor="middle" x="177" y="-371" font-family="Helvetica,sans-Serif" font-size="10.00" fill="#000000">src</text>
</a>
</g>
</g>
<g id="clust2" class="cluster">
<title>clusterdir_2052808828190f934b76e979ee65af8a</title>
<g id="a_clust2"><a xlink:href="dir_2052808828190f934b76e979ee65af8a.html" target="_top">
<polygon fill="#eeeeff" stroke="#000000" points="70,-16 70,-356 284,-356 284,-16 70,-16"/>
</a>
</g>
</g>
<!-- dir_2052808828190f934b76e979ee65af8a -->
<g id="node1" class="node">
<title>dir_2052808828190f934b76e979ee65af8a</title>
<text text-anchor="middle" x="177" y="-327.5" font-family="Helvetica,sans-Serif" font-size="10.00" fill="#000000">engine</text>
</g>
<!-- dir_4fe8ccee3eb27515a7d94c329d7794e3 -->
<g id="node2" class="node">
<title>dir_4fe8ccee3eb27515a7d94c329d7794e3</title>
<g id="a_node2"><a xlink:href="dir_4fe8ccee3eb27515a7d94c329d7794e3.html" target="_top" xlink:title="audio">
<polygon fill="#ffffff" stroke="#000000" points="132,-348 78,-348 78,-312 132,-312 132,-348"/>
<text text-anchor="middle" x="105" y="-327.5" font-family="Helvetica,sans-Serif" font-size="10.00" fill="#000000">audio</text>
</a>
</g>
</g>
<!-- dir_8c0f887d135e3a09c81f308091ce630b -->
<g id="node3" class="node">
<title>dir_8c0f887d135e3a09c81f308091ce630b</title>
<g id="a_node3"><a xlink:href="dir_8c0f887d135e3a09c81f308091ce630b.html" target="_top" xlink:title="basics">
<polygon fill="#ffffff" stroke="#000000" points="249,-276 195,-276 195,-240 249,-240 249,-276"/>
<text text-anchor="middle" x="222" y="-255.5" font-family="Helvetica,sans-Serif" font-size="10.00" fill="#000000">basics</text>
</a>
</g>
</g>
<!-- dir_4fe8ccee3eb27515a7d94c329d7794e3&#45;&gt;dir_8c0f887d135e3a09c81f308091ce630b -->
<g id="edge15" class="edge">
<title>dir_4fe8ccee3eb27515a7d94c329d7794e3&#45;&gt;dir_8c0f887d135e3a09c81f308091ce630b</title>
<path fill="none" stroke="#000000" d="M132.1362,-313.3008C148.1172,-303.4663 168.5316,-290.9036 185.8632,-280.238"/>
<polygon fill="#000000" stroke="#000000" points="187.9234,-283.0799 194.6056,-274.8581 184.2547,-277.1183 187.9234,-283.0799"/>
<g id="a_edge15&#45;headlabel"><a xlink:href="dir_000002_000003.html" target="_top" xlink:title="4">
<text text-anchor="middle" x="186.3501" y="-284.8819" font-family="Helvetica,sans-Serif" font-size="10.00" fill="#000000">4</text>
</a>
</g>
</g>
<!-- dir_b7878ad5ecbf2506f4125b9d34c97e45 -->
<g id="node8" class="node">
<title>dir_b7878ad5ecbf2506f4125b9d34c97e45</title>
<g id="a_node8"><a xlink:href="dir_b7878ad5ecbf2506f4125b9d34c97e45.html" target="_top" xlink:title="util">
<polygon fill="none" stroke="#000000" points="54,-204 0,-204 0,-168 54,-168 54,-204"/>
<text text-anchor="middle" x="27" y="-183.5" font-family="Helvetica,sans-Serif" font-size="10.00" fill="#000000">util</text>
</a>
</g>
</g>
<!-- dir_4fe8ccee3eb27515a7d94c329d7794e3&#45;&gt;dir_b7878ad5ecbf2506f4125b9d34c97e45 -->
<g id="edge14" class="edge">
<title>dir_4fe8ccee3eb27515a7d94c329d7794e3&#45;&gt;dir_b7878ad5ecbf2506f4125b9d34c97e45</title>
<path fill="none" stroke="#000000" d="M95.1212,-311.7623C81.6414,-286.8764 57.3779,-242.0822 41.7423,-213.2165"/>
<polygon fill="#000000" stroke="#000000" points="44.639,-211.2155 36.7985,-204.0896 38.4839,-214.5496 44.639,-211.2155"/>
<g id="a_edge14&#45;headlabel"><a xlink:href="dir_000002_000013.html" target="_top" xlink:title="1">
<text text-anchor="middle" x="48.8475" y="-210.524" font-family="Helvetica,sans-Serif" font-size="10.00" fill="#000000">1</text>
</a>
</g>
</g>
<!-- dir_3ccf6d3192f3ffcbe7eee38747026054 -->
<g id="node4" class="node">
<title>dir_3ccf6d3192f3ffcbe7eee38747026054</title>
<g id="a_node4"><a xlink:href="dir_3ccf6d3192f3ffcbe7eee38747026054.html" target="_top" xlink:title="common">
<polygon fill="#ffffff" stroke="#000000" points="275.5,-204 216.5,-204 216.5,-168 275.5,-168 275.5,-204"/>
<text text-anchor="middle" x="246" y="-183.5" font-family="Helvetica,sans-Serif" font-size="10.00" fill="#000000">common</text>
</a>
</g>
</g>
<!-- dir_8c0f887d135e3a09c81f308091ce630b&#45;&gt;dir_3ccf6d3192f3ffcbe7eee38747026054 -->
<g id="edge20" class="edge">
<title>dir_8c0f887d135e3a09c81f308091ce630b&#45;&gt;dir_3ccf6d3192f3ffcbe7eee38747026054</title>
<path fill="none" stroke="#000000" d="M222.1038,-239.8314C223.9601,-231.9617 226.8764,-222.5712 230.1216,-213.8533"/>
<polygon fill="#000000" stroke="#000000" points="233.4329,-214.9984 233.8862,-204.4133 226.9309,-212.4054 233.4329,-214.9984"/>
<g id="a_edge20&#45;headlabel"><a xlink:href="dir_000003_000004.html" target="_top" xlink:title="2">
<text text-anchor="middle" x="234.7387" y="-216.889" font-family="Helvetica,sans-Serif" font-size="10.00" fill="#000000">2</text>
</a>
</g>
</g>
<!-- dir_8c0f887d135e3a09c81f308091ce630b&#45;&gt;dir_b7878ad5ecbf2506f4125b9d34c97e45 -->
<g id="edge19" class="edge">
<title>dir_8c0f887d135e3a09c81f308091ce630b&#45;&gt;dir_b7878ad5ecbf2506f4125b9d34c97e45</title>
<path fill="none" stroke="#000000" d="M194.925,-249.5306C163.573,-239.516 110.5306,-221.9322 66,-204 65.1526,-203.6588 64.297,-203.309 63.436,-202.9522"/>
<polygon fill="#000000" stroke="#000000" points="64.6933,-199.6829 54.1248,-198.9365 61.9212,-206.1106 64.6933,-199.6829"/>
<g id="a_edge19&#45;headlabel"><a xlink:href="dir_000003_000013.html" target="_top" xlink:title="2">
<text text-anchor="middle" x="69.1184" y="-195.9992" font-family="Helvetica,sans-Serif" font-size="10.00" fill="#000000">2</text>
</a>
</g>
</g>
<!-- dir_3ccf6d3192f3ffcbe7eee38747026054&#45;&gt;dir_8c0f887d135e3a09c81f308091ce630b -->
<g id="edge13" class="edge">
<title>dir_3ccf6d3192f3ffcbe7eee38747026054&#45;&gt;dir_8c0f887d135e3a09c81f308091ce630b</title>
<path fill="none" stroke="#000000" d="M245.8383,-204.4133C243.9601,-212.3141 241.0295,-221.7132 237.7776,-230.417"/>
<polygon fill="#000000" stroke="#000000" points="234.4761,-229.2468 234.0086,-239.8314 240.9746,-231.8485 234.4761,-229.2468"/>
<g id="a_edge13&#45;headlabel"><a xlink:href="dir_000004_000003.html" target="_top" xlink:title="2">
<text text-anchor="middle" x="233.1761" y="-222.3545" font-family="Helvetica,sans-Serif" font-size="10.00" fill="#000000">2</text>
</a>
</g>
</g>
<!-- dir_e1c1a612157aa4e0d7fb3dd5a06054d7 -->
<g id="node5" class="node">
<title>dir_e1c1a612157aa4e0d7fb3dd5a06054d7</title>
<g id="a_node5"><a xlink:href="dir_e1c1a612157aa4e0d7fb3dd5a06054d7.html" target="_top" xlink:title="GameObjects">
<polygon fill="#ffffff" stroke="#000000" points="252.5,-60 169.5,-60 169.5,-24 252.5,-24 252.5,-60"/>
<text text-anchor="middle" x="211" y="-39.5" font-family="Helvetica,sans-Serif" font-size="10.00" fill="#000000">GameObjects</text>
</a>
</g>
</g>
<!-- dir_3ccf6d3192f3ffcbe7eee38747026054&#45;&gt;dir_e1c1a612157aa4e0d7fb3dd5a06054d7 -->
<g id="edge12" class="edge">
<title>dir_3ccf6d3192f3ffcbe7eee38747026054&#45;&gt;dir_e1c1a612157aa4e0d7fb3dd5a06054d7</title>
<path fill="none" stroke="#000000" d="M242.5615,-167.9643C243.0153,-149.4677 245.2903,-120.0783 238,-96 235.0747,-86.3383 229.7876,-76.8253 224.5359,-68.5402"/>
<polygon fill="#000000" stroke="#000000" points="227.3887,-66.5084 218.9646,-60.0831 221.5431,-70.3593 227.3887,-66.5084"/>
<g id="a_edge12&#45;headlabel"><a xlink:href="dir_000004_000005.html" target="_top" xlink:title="1">
<text text-anchor="middle" x="231.7371" y="-65.4483" font-family="Helvetica,sans-Serif" font-size="10.00" fill="#000000">1</text>
</a>
</g>
</g>
<!-- dir_3e7675e027e995ce76f0b1e50f5f7211 -->
<g id="node6" class="node">
<title>dir_3e7675e027e995ce76f0b1e50f5f7211</title>
<g id="a_node6"><a xlink:href="dir_3e7675e027e995ce76f0b1e50f5f7211.html" target="_top" xlink:title="map">
<polygon fill="#ffffff" stroke="#000000" points="238,-132 184,-132 184,-96 238,-96 238,-132"/>
<text text-anchor="middle" x="211" y="-111.5" font-family="Helvetica,sans-Serif" font-size="10.00" fill="#000000">map</text>
</a>
</g>
</g>
<!-- dir_3ccf6d3192f3ffcbe7eee38747026054&#45;&gt;dir_3e7675e027e995ce76f0b1e50f5f7211 -->
<g id="edge11" class="edge">
<title>dir_3ccf6d3192f3ffcbe7eee38747026054&#45;&gt;dir_3e7675e027e995ce76f0b1e50f5f7211</title>
<path fill="none" stroke="#000000" d="M231.2156,-167.8314C226.6232,-159.9617 221.8445,-150.5712 217.9458,-141.8533"/>
<polygon fill="#000000" stroke="#000000" points="221.0785,-140.2738 213.9749,-132.4133 214.6262,-142.9881 221.0785,-140.2738"/>
<g id="a_edge11&#45;headlabel"><a xlink:href="dir_000004_000006.html" target="_top" xlink:title="1">
<text text-anchor="middle" x="225.0894" y="-139.9864" font-family="Helvetica,sans-Serif" font-size="10.00" fill="#000000">1</text>
</a>
</g>
</g>
<!-- dir_1826a32a9d780ddbaf96ec88be56c4cd -->
<g id="node9" class="node">
<title>dir_1826a32a9d780ddbaf96ec88be56c4cd</title>
<g id="a_node9"><a xlink:href="dir_1826a32a9d780ddbaf96ec88be56c4cd.html" target="_top" xlink:title="services">
<polygon fill="none" stroke="#000000" points="268.5,-427 211.5,-427 211.5,-391 268.5,-391 268.5,-427"/>
<text text-anchor="middle" x="240" y="-406.5" font-family="Helvetica,sans-Serif" font-size="10.00" fill="#000000">services</text>
</a>
</g>
</g>
<!-- dir_3ccf6d3192f3ffcbe7eee38747026054&#45;&gt;dir_1826a32a9d780ddbaf96ec88be56c4cd -->
<g id="edge10" class="edge">
<title>dir_3ccf6d3192f3ffcbe7eee38747026054&#45;&gt;dir_1826a32a9d780ddbaf96ec88be56c4cd</title>
<path fill="none" stroke="#000000" d="M273.7537,-204.0166C286.0139,-213.3463 299.5372,-225.768 308,-240 340.6858,-294.9683 361.9511,-331.5258 324,-383 318.2913,-390.7429 297.8445,-397.1636 278.5546,-401.6873"/>
<polygon fill="#000000" stroke="#000000" points="277.6648,-398.2995 268.6569,-403.877 279.1769,-405.1342 277.6648,-398.2995"/>
<g id="a_edge10&#45;headlabel"><a xlink:href="dir_000004_000012.html" target="_top" xlink:title="1">
<text text-anchor="middle" x="280.5613" y="-392.2508" font-family="Helvetica,sans-Serif" font-size="10.00" fill="#000000">1</text>
</a>
</g>
</g>
<!-- dir_e1c1a612157aa4e0d7fb3dd5a06054d7&#45;&gt;dir_8c0f887d135e3a09c81f308091ce630b -->
<g id="edge18" class="edge">
<title>dir_e1c1a612157aa4e0d7fb3dd5a06054d7&#45;&gt;dir_8c0f887d135e3a09c81f308091ce630b</title>
<path fill="none" stroke="#000000" d="M195.0095,-60.0831C187.3462,-69.9629 178.9834,-82.8437 175,-96 170.3635,-111.3135 172.1589,-116.2543 175,-132 181.3683,-167.2937 197.0162,-205.5979 208.5147,-230.5925"/>
<polygon fill="#000000" stroke="#000000" points="205.4226,-232.2421 212.843,-239.8044 211.7581,-229.2652 205.4226,-232.2421"/>
<g id="a_edge18&#45;headlabel"><a xlink:href="dir_000005_000003.html" target="_top" xlink:title="2">
<text text-anchor="middle" x="201.3242" y="-227.6961" font-family="Helvetica,sans-Serif" font-size="10.00" fill="#000000">2</text>
</a>
</g>
</g>
<!-- dir_e1c1a612157aa4e0d7fb3dd5a06054d7&#45;&gt;dir_3ccf6d3192f3ffcbe7eee38747026054 -->
<g id="edge17" class="edge">
<title>dir_e1c1a612157aa4e0d7fb3dd5a06054d7&#45;&gt;dir_3ccf6d3192f3ffcbe7eee38747026054</title>
<path fill="none" stroke="#000000" d="M235.0164,-60.0831C243.6538,-69.9629 252.0166,-82.8437 256,-96 262.0943,-116.128 261.5043,-139.9673 258.2662,-158.0525"/>
<polygon fill="#000000" stroke="#000000" points="254.816,-157.4456 256.0841,-167.9643 261.6523,-158.9507 254.816,-157.4456"/>
<g id="a_edge17&#45;headlabel"><a xlink:href="dir_000005_000004.html" target="_top" xlink:title="1">
<text text-anchor="middle" x="252.8159" y="-150.8247" font-family="Helvetica,sans-Serif" font-size="10.00" fill="#000000">1</text>
</a>
</g>
</g>
<!-- dir_e1c1a612157aa4e0d7fb3dd5a06054d7&#45;&gt;dir_3e7675e027e995ce76f0b1e50f5f7211 -->
<g id="edge16" class="edge">
<title>dir_e1c1a612157aa4e0d7fb3dd5a06054d7&#45;&gt;dir_3e7675e027e995ce76f0b1e50f5f7211</title>
<path fill="none" stroke="#000000" d="M216.976,-60.4133C217.7071,-68.0593 217.9203,-77.1084 217.6155,-85.5726"/>
<polygon fill="#000000" stroke="#000000" points="214.1048,-85.6264 216.9524,-95.8314 221.0902,-86.078 214.1048,-85.6264"/>
<g id="a_edge16&#45;headlabel"><a xlink:href="dir_000005_000006.html" target="_top" xlink:title="1">
<text text-anchor="middle" x="211.5032" y="-79.3562" font-family="Helvetica,sans-Serif" font-size="10.00" fill="#000000">1</text>
</a>
</g>
</g>
<!-- dir_3e7675e027e995ce76f0b1e50f5f7211&#45;&gt;dir_8c0f887d135e3a09c81f308091ce630b -->
<g id="edge9" class="edge">
<title>dir_3e7675e027e995ce76f0b1e50f5f7211&#45;&gt;dir_8c0f887d135e3a09c81f308091ce630b</title>
<path fill="none" stroke="#000000" d="M208.7159,-132.0086C206.7987,-150.234 204.8358,-179.1871 208,-204 209.0854,-212.5113 211.0962,-221.5989 213.262,-229.8445"/>
<polygon fill="#000000" stroke="#000000" points="209.9637,-231.0458 216.0302,-239.7319 216.7045,-229.1586 209.9637,-231.0458"/>
<g id="a_edge9&#45;headlabel"><a xlink:href="dir_000006_000003.html" target="_top" xlink:title="1">
<text text-anchor="middle" x="206.2605" y="-225.8498" font-family="Helvetica,sans-Serif" font-size="10.00" fill="#000000">1</text>
</a>
</g>
</g>
<!-- dir_3e7675e027e995ce76f0b1e50f5f7211&#45;&gt;dir_3ccf6d3192f3ffcbe7eee38747026054 -->
<g id="edge7" class="edge">
<title>dir_3e7675e027e995ce76f0b1e50f5f7211&#45;&gt;dir_3ccf6d3192f3ffcbe7eee38747026054</title>
<path fill="none" stroke="#000000" d="M225.9269,-132.4133C230.5231,-140.3141 235.2945,-149.7132 239.1748,-158.417"/>
<polygon fill="#000000" stroke="#000000" points="236.0271,-159.9614 243.1204,-167.8314 242.4831,-157.2557 236.0271,-159.9614"/>
<g id="a_edge7&#45;headlabel"><a xlink:href="dir_000006_000004.html" target="_top" xlink:title="3">
<text text-anchor="middle" x="232.0192" y="-155.2436" font-family="Helvetica,sans-Serif" font-size="10.00" fill="#000000">3</text>
</a>
</g>
</g>
<!-- dir_3e7675e027e995ce76f0b1e50f5f7211&#45;&gt;dir_e1c1a612157aa4e0d7fb3dd5a06054d7 -->
<g id="edge8" class="edge">
<title>dir_3e7675e027e995ce76f0b1e50f5f7211&#45;&gt;dir_e1c1a612157aa4e0d7fb3dd5a06054d7</title>
<path fill="none" stroke="#000000" d="M205.0476,-95.8314C204.2972,-88.131 204.0763,-78.9743 204.3849,-70.4166"/>
<polygon fill="#000000" stroke="#000000" points="207.8792,-70.6161 205.024,-60.4133 200.8935,-70.1697 207.8792,-70.6161"/>
<g id="a_edge8&#45;headlabel"><a xlink:href="dir_000006_000005.html" target="_top" xlink:title="1">
<text text-anchor="middle" x="210.4836" y="-71.8844" font-family="Helvetica,sans-Serif" font-size="10.00" fill="#000000">1</text>
</a>
</g>
</g>
<!-- dir_dafb870456d4817504c840071e25f057 -->
<g id="node7" class="node">
<title>dir_dafb870456d4817504c840071e25f057</title>
<g id="a_node7"><a xlink:href="dir_dafb870456d4817504c840071e25f057.html" target="_top" xlink:title="ui">
<polygon fill="#ffffff" stroke="#ff0000" points="276,-348 222,-348 222,-312 276,-312 276,-348"/>
<text text-anchor="middle" x="249" y="-327.5" font-family="Helvetica,sans-Serif" font-size="10.00" fill="#000000">ui</text>
</a>
</g>
</g>
<!-- dir_dafb870456d4817504c840071e25f057&#45;&gt;dir_8c0f887d135e3a09c81f308091ce630b -->
<g id="edge6" class="edge">
<title>dir_dafb870456d4817504c840071e25f057&#45;&gt;dir_8c0f887d135e3a09c81f308091ce630b</title>
<path fill="none" stroke="#000000" d="M242.1868,-311.8314C239.2356,-303.9617 235.7142,-294.5712 232.445,-285.8533"/>
<polygon fill="#000000" stroke="#000000" points="235.6934,-284.5476 228.905,-276.4133 229.1391,-287.0055 235.6934,-284.5476"/>
<g id="a_edge6&#45;headlabel"><a xlink:href="dir_000007_000003.html" target="_top" xlink:title="11">
<text text-anchor="middle" x="239.614" y="-284.4164" font-family="Helvetica,sans-Serif" font-size="10.00" fill="#000000">11</text>
</a>
</g>
</g>
<!-- dir_1826a32a9d780ddbaf96ec88be56c4cd&#45;&gt;dir_2052808828190f934b76e979ee65af8a -->
<g id="edge1" class="edge">
<title>dir_1826a32a9d780ddbaf96ec88be56c4cd&#45;&gt;dir_2052808828190f934b76e979ee65af8a</title>
<path fill="none" stroke="#000000" d="M220.0447,-390.7111C217.5903,-388.196 215.1812,-385.5872 213,-383 206.1887,-374.9209 199.4751,-365.5394 193.7247,-356.9346"/>
<polygon fill="#000000" stroke="#000000" points="196.5113,-354.8002 188.117,-348.3359 190.6479,-358.624 196.5113,-354.8002"/>
<g id="a_edge1&#45;headlabel"><a xlink:href="dir_000012_000001.html" target="_top" xlink:title="5">
<text text-anchor="middle" x="200.853" y="-353.7602" font-family="Helvetica,sans-Serif" font-size="10.00" fill="#000000">5</text>
</a>
</g>
</g>
<!-- dir_1826a32a9d780ddbaf96ec88be56c4cd&#45;&gt;dir_4fe8ccee3eb27515a7d94c329d7794e3 -->
<g id="edge4" class="edge">
<title>dir_1826a32a9d780ddbaf96ec88be56c4cd&#45;&gt;dir_4fe8ccee3eb27515a7d94c329d7794e3</title>
<path fill="none" stroke="#000000" d="M211.1807,-403.7653C186.1655,-398.8055 152.2448,-390.9513 141,-383 131.5709,-376.3326 123.8688,-366.3562 118.0438,-356.8514"/>
<polygon fill="#000000" stroke="#000000" points="121.0098,-354.986 113.039,-348.0063 114.9175,-358.4333 121.0098,-354.986"/>
<g id="a_edge4&#45;headlabel"><a xlink:href="dir_000012_000002.html" target="_top" xlink:title="1">
<text text-anchor="middle" x="125.2511" y="-354.2163" font-family="Helvetica,sans-Serif" font-size="10.00" fill="#000000">1</text>
</a>
</g>
</g>
<!-- dir_1826a32a9d780ddbaf96ec88be56c4cd&#45;&gt;dir_8c0f887d135e3a09c81f308091ce630b -->
<g id="edge5" class="edge">
<title>dir_1826a32a9d780ddbaf96ec88be56c4cd&#45;&gt;dir_8c0f887d135e3a09c81f308091ce630b</title>
<path fill="none" stroke="#000000" d="M268.514,-398.4506C275.0642,-394.6201 281.2115,-389.5643 285,-383 300.7734,-355.6696 298.1857,-340.6686 285,-312 279.052,-299.0678 268.3096,-288.0737 257.3602,-279.4482"/>
<polygon fill="#000000" stroke="#000000" points="259.1534,-276.4226 249.0226,-273.3211 255.0081,-282.0633 259.1534,-276.4226"/>
<g id="a_edge5&#45;headlabel"><a xlink:href="dir_000012_000003.html" target="_top" xlink:title="3">
<text text-anchor="middle" x="263.7313" y="-273.7633" font-family="Helvetica,sans-Serif" font-size="10.00" fill="#000000">3</text>
</a>
</g>
</g>
<!-- dir_1826a32a9d780ddbaf96ec88be56c4cd&#45;&gt;dir_3ccf6d3192f3ffcbe7eee38747026054 -->
<g id="edge3" class="edge">
<title>dir_1826a32a9d780ddbaf96ec88be56c4cd&#45;&gt;dir_3ccf6d3192f3ffcbe7eee38747026054</title>
<path fill="none" stroke="#000000" d="M268.5224,-404.8033C281.6412,-401.2899 296.0307,-394.8394 304,-383 340.2607,-329.1304 295.5659,-252.1951 266.7555,-212.2831"/>
<polygon fill="#000000" stroke="#000000" points="269.473,-210.0716 260.7084,-204.1192 263.848,-214.2381 269.473,-210.0716"/>
<g id="a_edge3&#45;headlabel"><a xlink:href="dir_000012_000004.html" target="_top" xlink:title="1">
<text text-anchor="middle" x="273.8941" y="-208.7702" font-family="Helvetica,sans-Serif" font-size="10.00" fill="#000000">1</text>
</a>
</g>
</g>
<!-- dir_1826a32a9d780ddbaf96ec88be56c4cd&#45;&gt;dir_b7878ad5ecbf2506f4125b9d34c97e45 -->
<g id="edge2" class="edge">
<title>dir_1826a32a9d780ddbaf96ec88be56c4cd&#45;&gt;dir_b7878ad5ecbf2506f4125b9d34c97e45</title>
<path fill="none" stroke="#000000" d="M211.144,-406.4998C164.4133,-402.1863 76.3319,-392.8563 66,-383 19.8361,-338.9614 19.742,-257.2228 23.4429,-214.183"/>
<polygon fill="#000000" stroke="#000000" points="26.9367,-214.4174 24.4398,-204.121 19.9708,-213.7272 26.9367,-214.4174"/>
<g id="a_edge2&#45;headlabel"><a xlink:href="dir_000012_000013.html" target="_top" xlink:title="1">
<text text-anchor="middle" x="29.4078" y="-215.7744" font-family="Helvetica,sans-Serif" font-size="10.00" fill="#000000">1</text>
</a>
</g>
</g>
</g>
</svg>
