<?xml version="1.0" encoding="UTF-8" standalone="no"?>
<!DOCTYPE svg PUBLIC "-//W3C//DTD SVG 1.1//EN"
 "http://www.w3.org/Graphics/SVG/1.1/DTD/svg11.dtd">
<!-- Generated by graphviz version 2.40.1 (20161225.0304)
 -->
<!-- Title: src Pages: 1 -->
<svg width="246pt" height="220pt"
 viewBox="0.00 0.00 246.00 220.00" xmlns="http://www.w3.org/2000/svg" xmlns:xlink="http://www.w3.org/1999/xlink">
<g id="graph0" class="graph" transform="scale(1 1) rotate(0) translate(4 216)">
<title>src</title>
<g id="clust1" class="cluster">
<title>clusterdir_68267d1309a1af8e8297ef4c3efbcdba</title>
<g id="a_clust1"><a xlink:href="dir_68267d1309a1af8e8297ef4c3efbcdba.html" target="_top">
<polygon fill="#eeeeff" stroke="#000000" points="8,-8 8,-204 230,-204 230,-8 8,-8"/>
</a>
</g>
</g>
<!-- dir_68267d1309a1af8e8297ef4c3efbcdba -->
<g id="node1" class="node">
<title>dir_68267d1309a1af8e8297ef4c3efbcdba</title>
<text text-anchor="middle" x="195" y="-175.5" font-family="Helvetica,sans-Serif" font-size="10.00" fill="#000000">src</text>
</g>
<!-- dir_6e232b759d489f630412e22c99aac6d0 -->
<g id="node3" class="node">
<title>dir_6e232b759d489f630412e22c99aac6d0</title>
<g id="a_node3"><a xlink:href="dir_6e232b759d489f630412e22c99aac6d0.html" target="_top" xlink:title="Scripting">
<polygon fill="#ffffff" stroke="#000000" points="221.5,-124 162.5,-124 162.5,-88 221.5,-88 221.5,-124"/>
<text text-anchor="middle" x="192" y="-103.5" font-family="Helvetica,sans-Serif" font-size="10.00" fill="#000000">Scripting</text>
</a>
</g>
</g>
<!-- dir_68267d1309a1af8e8297ef4c3efbcdba&#45;&gt;dir_6e232b759d489f630412e22c99aac6d0 -->
<g id="edge3" class="edge">
<title>dir_68267d1309a1af8e8297ef4c3efbcdba&#45;&gt;dir_6e232b759d489f630412e22c99aac6d0</title>
<path fill="none" stroke="#000000" d="M194.243,-159.8314C193.9221,-152.131 193.5406,-142.9743 193.184,-134.4166"/>
<polygon fill="#000000" stroke="#000000" points="196.6806,-134.2589 192.7672,-124.4133 189.6867,-134.5503 196.6806,-134.2589"/>
<g id="a_edge3&#45;headlabel"><a xlink:href="dir_000000_000011.html" target="_top" xlink:title="1">
<text text-anchor="middle" x="199.6669" y="-135.2322" font-family="Helvetica,sans-Serif" font-size="10.00" fill="#000000">1</text>
</a>
</g>
</g>
<!-- dir_2052808828190f934b76e979ee65af8a -->
<g id="node2" class="node">
<title>dir_2052808828190f934b76e979ee65af8a</title>
<g id="a_node2"><a xlink:href="dir_2052808828190f934b76e979ee65af8a.html" target="_top" xlink:title="engine">
<polygon fill="#ffffff" stroke="#ff0000" points="150,-196 96,-196 96,-160 150,-160 150,-196"/>
<text text-anchor="middle" x="123" y="-175.5" font-family="Helvetica,sans-Serif" font-size="10.00" fill="#000000">engine</text>
</a>
</g>
</g>
<!-- dir_1826a32a9d780ddbaf96ec88be56c4cd -->
<g id="node4" class="node">
<title>dir_1826a32a9d780ddbaf96ec88be56c4cd</title>
<g id="a_node4"><a xlink:href="dir_1826a32a9d780ddbaf96ec88be56c4cd.html" target="_top" xlink:title="services">
<polygon fill="#ffffff" stroke="#000000" points="123.5,-124 66.5,-124 66.5,-88 123.5,-88 123.5,-124"/>
<text text-anchor="middle" x="95" y="-103.5" font-family="Helvetica,sans-Serif" font-size="10.00" fill="#000000">services</text>
</a>
</g>
</g>
<!-- dir_2052808828190f934b76e979ee65af8a&#45;&gt;dir_1826a32a9d780ddbaf96ec88be56c4cd -->
<g id="edge2" class="edge">
<title>dir_2052808828190f934b76e979ee65af8a&#45;&gt;dir_1826a32a9d780ddbaf96ec88be56c4cd</title>
<path fill="none" stroke="#000000" d="M109.982,-159.8314C106.1958,-152.0463 102.3721,-142.7729 99.3366,-134.1347"/>
<polygon fill="#000000" stroke="#000000" points="102.5983,-132.8463 96.1847,-124.4133 95.9395,-135.0053 102.5983,-132.8463"/>
<g id="a_edge2&#45;headlabel"><a xlink:href="dir_000001_000012.html" target="_top" xlink:title="1">
<text text-anchor="middle" x="106.4077" y="-132.8901" font-family="Helvetica,sans-Serif" font-size="10.00" fill="#000000">1</text>
</a>
</g>
</g>
<!-- dir_b7878ad5ecbf2506f4125b9d34c97e45 -->
<g id="node5" class="node">
<title>dir_b7878ad5ecbf2506f4125b9d34c97e45</title>
<g id="a_node5"><a xlink:href="dir_b7878ad5ecbf2506f4125b9d34c97e45.html" target="_top" xlink:title="util">
<polygon fill="#ffffff" stroke="#000000" points="146,-52 92,-52 92,-16 146,-16 146,-52"/>
<text text-anchor="middle" x="119" y="-31.5" font-family="Helvetica,sans-Serif" font-size="10.00" fill="#000000">util</text>
</a>
</g>
</g>
<!-- dir_2052808828190f934b76e979ee65af8a&#45;&gt;dir_b7878ad5ecbf2506f4125b9d34c97e45 -->
<g id="edge1" class="edge">
<title>dir_2052808828190f934b76e979ee65af8a&#45;&gt;dir_b7878ad5ecbf2506f4125b9d34c97e45</title>
<path fill="none" stroke="#000000" d="M127.581,-159.7078C131.5386,-141.5088 136.162,-112.7958 133,-88 131.9146,-79.4887 129.9038,-70.4011 127.738,-62.1555"/>
<polygon fill="#000000" stroke="#000000" points="131.0363,-60.9542 124.9698,-52.2681 124.2955,-62.8414 131.0363,-60.9542"/>
<g id="a_edge1&#45;headlabel"><a xlink:href="dir_000001_000013.html" target="_top" xlink:title="8">
<text text-anchor="middle" x="134.7395" y="-61.1502" font-family="Helvetica,sans-Serif" font-size="10.00" fill="#000000">8</text>
</a>
</g>
</g>
<!-- dir_1826a32a9d780ddbaf96ec88be56c4cd&#45;&gt;dir_2052808828190f934b76e979ee65af8a -->
<g id="edge4" class="edge">
<title>dir_1826a32a9d780ddbaf96ec88be56c4cd&#45;&gt;dir_2052808828190f934b76e979ee65af8a</title>
<path fill="none" stroke="#000000" d="M108.1367,-124.4133C111.9236,-132.2292 115.7394,-141.5113 118.7584,-150.136"/>
<polygon fill="#000000" stroke="#000000" points="115.485,-151.3893 121.8868,-159.8314 122.1468,-149.2397 115.485,-151.3893"/>
<g id="a_edge4&#45;headlabel"><a xlink:href="dir_000012_000001.html" target="_top" xlink:title="5">
<text text-anchor="middle" x="111.6792" y="-146.3403" font-family="Helvetica,sans-Serif" font-size="10.00" fill="#000000">5</text>
</a>
</g>
</g>
<!-- dir_1826a32a9d780ddbaf96ec88be56c4cd&#45;&gt;dir_b7878ad5ecbf2506f4125b9d34c97e45 -->
<g id="edge5" class="edge">
<title>dir_1826a32a9d780ddbaf96ec88be56c4cd&#45;&gt;dir_b7878ad5ecbf2506f4125b9d34c97e45</title>
<path fill="none" stroke="#000000" d="M101.0562,-87.8314C103.6512,-80.0463 106.7424,-70.7729 109.6218,-62.1347"/>
<polygon fill="#000000" stroke="#000000" points="113.0203,-63.0069 112.8622,-52.4133 106.3795,-60.7933 113.0203,-63.0069"/>
<g id="a_edge5&#45;headlabel"><a xlink:href="dir_000012_000013.html" target="_top" xlink:title="1">
<text text-anchor="middle" x="114.5772" y="-64.8149" font-family="Helvetica,sans-Serif" font-size="10.00" fill="#000000">1</text>
</a>
</g>
</g>
<!-- dir_85ebecfd8b3c6e060c2257c3b57eaa6c -->
<g id="node6" class="node">
<title>dir_85ebecfd8b3c6e060c2257c3b57eaa6c</title>
<g id="a_node6"><a xlink:href="dir_85ebecfd8b3c6e060c2257c3b57eaa6c.html" target="_top" xlink:title="Windows">
<polygon fill="#ffffff" stroke="#000000" points="77.5,-196 16.5,-196 16.5,-160 77.5,-160 77.5,-196"/>
<text text-anchor="middle" x="47" y="-175.5" font-family="Helvetica,sans-Serif" font-size="10.00" fill="#000000">Windows</text>
</a>
</g>
</g>
</g>
</svg>
