<?xml version="1.0" encoding="UTF-8" standalone="no"?>
<!DOCTYPE svg PUBLIC "-//W3C//DTD SVG 1.1//EN"
 "http://www.w3.org/Graphics/SVG/1.1/DTD/svg11.dtd">
<!-- Generated by graphviz version 2.40.1 (20161225.0304)
 -->
<!-- Title: src/engine/common Pages: 1 -->
<svg width="265pt" height="188pt"
 viewBox="0.00 0.00 264.94 188.00" xmlns="http://www.w3.org/2000/svg" xmlns:xlink="http://www.w3.org/1999/xlink">
<g id="graph0" class="graph" transform="scale(1 1) rotate(0) translate(4 184)">
<title>src/engine/common</title>
<g id="clust1" class="cluster">
<title>clusterdir_2052808828190f934b76e979ee65af8a</title>
<g id="a_clust1"><a xlink:href="dir_2052808828190f934b76e979ee65af8a.html" target="_top" xlink:title="engine">
<polygon fill="#ddddee" stroke="#000000" points="66.5,-64 66.5,-135 142.5,-135 142.5,-64 66.5,-64"/>
<text text-anchor="middle" x="104.5" y="-123" font-family="Helvetica,sans-Serif" font-size="10.00" fill="#000000">engine</text>
</a>
</g>
</g>
<!-- dir_3ccf6d3192f3ffcbe7eee38747026054 -->
<g id="node1" class="node">
<title>dir_3ccf6d3192f3ffcbe7eee38747026054</title>
<g id="a_node1"><a xlink:href="dir_3ccf6d3192f3ffcbe7eee38747026054.html" target="_top" xlink:title="common">
<polygon fill="#eeeeff" stroke="#000000" points="134,-108 75,-108 75,-72 134,-72 134,-108"/>
<text text-anchor="middle" x="104.5" y="-87.5" font-family="Helvetica,sans-Serif" font-size="10.00" fill="#000000">common</text>
</a>
</g>
</g>
<!-- dir_1826a32a9d780ddbaf96ec88be56c4cd -->
<g id="node2" class="node">
<title>dir_1826a32a9d780ddbaf96ec88be56c4cd</title>
<g id="a_node2"><a xlink:href="dir_1826a32a9d780ddbaf96ec88be56c4cd.html" target="_top" xlink:title="services">
<polygon fill="none" stroke="#000000" points="57,-108 0,-108 0,-72 57,-72 57,-108"/>
<text text-anchor="middle" x="28.5" y="-87.5" font-family="Helvetica,sans-Serif" font-size="10.00" fill="#000000">services</text>
</a>
</g>
</g>
<!-- dir_3ccf6d3192f3ffcbe7eee38747026054&#45;&gt;dir_1826a32a9d780ddbaf96ec88be56c4cd -->
<g id="edge6" class="edge">
<title>dir_3ccf6d3192f3ffcbe7eee38747026054&#45;&gt;dir_1826a32a9d780ddbaf96ec88be56c4cd</title>
<path fill="none" stroke="#000000" d="M74.998,-90C72.5088,-90 70.0196,-90 67.5304,-90"/>
<polygon fill="#000000" stroke="#000000" points="67.2969,-86.5001 57.2969,-90 67.2968,-93.5001 67.2969,-86.5001"/>
<g id="a_edge6&#45;headlabel"><a xlink:href="dir_000004_000012.html" target="_top" xlink:title="1">
<text text-anchor="middle" x="70.8915" y="-81.1607" font-family="Helvetica,sans-Serif" font-size="10.00" fill="#000000">1</text>
</a>
</g>
</g>
<!-- dir_3e7675e027e995ce76f0b1e50f5f7211 -->
<g id="node3" class="node">
<title>dir_3e7675e027e995ce76f0b1e50f5f7211</title>
<g id="a_node3"><a xlink:href="dir_3e7675e027e995ce76f0b1e50f5f7211.html" target="_top" xlink:title="map">
<polygon fill="none" stroke="#000000" points="220.5,-180 166.5,-180 166.5,-144 220.5,-144 220.5,-180"/>
<text text-anchor="middle" x="193.5" y="-159.5" font-family="Helvetica,sans-Serif" font-size="10.00" fill="#000000">map</text>
</a>
</g>
</g>
<!-- dir_3ccf6d3192f3ffcbe7eee38747026054&#45;&gt;dir_3e7675e027e995ce76f0b1e50f5f7211 -->
<g id="edge7" class="edge">
<title>dir_3ccf6d3192f3ffcbe7eee38747026054&#45;&gt;dir_3e7675e027e995ce76f0b1e50f5f7211</title>
<path fill="none" stroke="#000000" d="M109.5583,-108.0353C115.6475,-116.8659 124.8218,-127.2387 134.5,-135 141.2487,-140.412 149.2404,-145.2842 157.1935,-149.3516"/>
<polygon fill="#000000" stroke="#000000" points="155.9007,-152.6122 166.4353,-153.7406 158.9037,-146.289 155.9007,-152.6122"/>
<g id="a_edge7&#45;headlabel"><a xlink:href="dir_000004_000006.html" target="_top" xlink:title="1">
<text text-anchor="middle" x="151.4357" y="-151.1349" font-family="Helvetica,sans-Serif" font-size="10.00" fill="#000000">1</text>
</a>
</g>
</g>
<!-- dir_e1c1a612157aa4e0d7fb3dd5a06054d7 -->
<g id="node4" class="node">
<title>dir_e1c1a612157aa4e0d7fb3dd5a06054d7</title>
<g id="a_node4"><a xlink:href="dir_e1c1a612157aa4e0d7fb3dd5a06054d7.html" target="_top" xlink:title="GameObjects">
<polygon fill="none" stroke="#000000" points="235,-108 152,-108 152,-72 235,-72 235,-108"/>
<text text-anchor="middle" x="193.5" y="-87.5" font-family="Helvetica,sans-Serif" font-size="10.00" fill="#000000">GameObjects</text>
</a>
</g>
</g>
<!-- dir_3ccf6d3192f3ffcbe7eee38747026054&#45;&gt;dir_e1c1a612157aa4e0d7fb3dd5a06054d7 -->
<g id="edge8" class="edge">
<title>dir_3ccf6d3192f3ffcbe7eee38747026054&#45;&gt;dir_e1c1a612157aa4e0d7fb3dd5a06054d7</title>
<path fill="none" stroke="#000000" d="M134.0508,-90C136.5327,-90 139.0146,-90 141.4964,-90"/>
<polygon fill="#000000" stroke="#000000" points="141.6998,-93.5001 151.6998,-90 141.6997,-86.5001 141.6998,-93.5001"/>
<g id="a_edge8&#45;headlabel"><a xlink:href="dir_000004_000005.html" target="_top" xlink:title="1">
<text text-anchor="middle" x="138.1052" y="-93.8393" font-family="Helvetica,sans-Serif" font-size="10.00" fill="#000000">1</text>
</a>
</g>
</g>
<!-- dir_8c0f887d135e3a09c81f308091ce630b -->
<g id="node5" class="node">
<title>dir_8c0f887d135e3a09c81f308091ce630b</title>
<g id="a_node5"><a xlink:href="dir_8c0f887d135e3a09c81f308091ce630b.html" target="_top" xlink:title="basics">
<polygon fill="none" stroke="#000000" points="175.5,-36 121.5,-36 121.5,0 175.5,0 175.5,-36"/>
<text text-anchor="middle" x="148.5" y="-15.5" font-family="Helvetica,sans-Serif" font-size="10.00" fill="#000000">basics</text>
</a>
</g>
</g>
<!-- dir_3ccf6d3192f3ffcbe7eee38747026054&#45;&gt;dir_8c0f887d135e3a09c81f308091ce630b -->
<g id="edge9" class="edge">
<title>dir_3ccf6d3192f3ffcbe7eee38747026054&#45;&gt;dir_8c0f887d135e3a09c81f308091ce630b</title>
<path fill="none" stroke="#000000" d="M109.6507,-71.8314C113.8668,-63.6232 119.6958,-53.7606 125.6165,-44.7323"/>
<polygon fill="#000000" stroke="#000000" points="128.5442,-46.6511 131.2714,-36.4133 122.7551,-42.7158 128.5442,-46.6511"/>
<g id="a_edge9&#45;headlabel"><a xlink:href="dir_000004_000003.html" target="_top" xlink:title="2">
<text text-anchor="middle" x="128.8716" y="-48.72" font-family="Helvetica,sans-Serif" font-size="10.00" fill="#000000">2</text>
</a>
</g>
</g>
<!-- dir_1826a32a9d780ddbaf96ec88be56c4cd&#45;&gt;dir_3ccf6d3192f3ffcbe7eee38747026054 -->
<g id="edge1" class="edge">
<title>dir_1826a32a9d780ddbaf96ec88be56c4cd&#45;&gt;dir_3ccf6d3192f3ffcbe7eee38747026054</title>
<path fill="none" stroke="#000000" d="M57.2969,-90C59.7861,-90 62.2753,-90 64.7646,-90"/>
<polygon fill="#000000" stroke="#000000" points="64.9981,-93.5001 74.998,-90 64.998,-86.5001 64.9981,-93.5001"/>
<g id="a_edge1&#45;headlabel"><a xlink:href="dir_000012_000004.html" target="_top" xlink:title="1">
<text text-anchor="middle" x="61.4034" y="-93.8393" font-family="Helvetica,sans-Serif" font-size="10.00" fill="#000000">1</text>
</a>
</g>
</g>
<!-- dir_1826a32a9d780ddbaf96ec88be56c4cd&#45;&gt;dir_8c0f887d135e3a09c81f308091ce630b -->
<g id="edge2" class="edge">
<title>dir_1826a32a9d780ddbaf96ec88be56c4cd&#45;&gt;dir_8c0f887d135e3a09c81f308091ce630b</title>
<path fill="none" stroke="#000000" d="M51.18,-71.8594C54.892,-69.1239 58.7512,-66.4135 62.5,-64 78.1806,-53.9048 96.2874,-43.9815 111.8301,-35.9508"/>
<polygon fill="#000000" stroke="#000000" points="113.8112,-38.8696 121.1317,-31.2106 110.6328,-32.6328 113.8112,-38.8696"/>
<g id="a_edge2&#45;headlabel"><a xlink:href="dir_000012_000003.html" target="_top" xlink:title="3">
<text text-anchor="middle" x="111.8977" y="-40.5314" font-family="Helvetica,sans-Serif" font-size="10.00" fill="#000000">3</text>
</a>
</g>
</g>
<!-- dir_3e7675e027e995ce76f0b1e50f5f7211&#45;&gt;dir_3ccf6d3192f3ffcbe7eee38747026054 -->
<g id="edge3" class="edge">
<title>dir_3e7675e027e995ce76f0b1e50f5f7211&#45;&gt;dir_3ccf6d3192f3ffcbe7eee38747026054</title>
<path fill="none" stroke="#000000" d="M166.4284,-144.6393C161.6268,-141.6924 156.8099,-138.4563 152.5,-135 145.5438,-129.4216 138.8479,-122.494 132.6824,-115.7597"/>
<polygon fill="#000000" stroke="#000000" points="135.0051,-113.1096 125.7044,-108.0353 129.8107,-117.802 135.0051,-113.1096"/>
<g id="a_edge3&#45;headlabel"><a xlink:href="dir_000006_000004.html" target="_top" xlink:title="3">
<text text-anchor="middle" x="139.5215" y="-111.3737" font-family="Helvetica,sans-Serif" font-size="10.00" fill="#000000">3</text>
</a>
</g>
</g>
<!-- dir_3e7675e027e995ce76f0b1e50f5f7211&#45;&gt;dir_e1c1a612157aa4e0d7fb3dd5a06054d7 -->
<g id="edge4" class="edge">
<title>dir_3e7675e027e995ce76f0b1e50f5f7211&#45;&gt;dir_e1c1a612157aa4e0d7fb3dd5a06054d7</title>
<path fill="none" stroke="#000000" d="M187.5476,-143.8314C186.7972,-136.131 186.5763,-126.9743 186.8849,-118.4166"/>
<polygon fill="#000000" stroke="#000000" points="190.3792,-118.6161 187.524,-108.4133 183.3935,-118.1697 190.3792,-118.6161"/>
<g id="a_edge4&#45;headlabel"><a xlink:href="dir_000006_000005.html" target="_top" xlink:title="1">
<text text-anchor="middle" x="192.9836" y="-119.8844" font-family="Helvetica,sans-Serif" font-size="10.00" fill="#000000">1</text>
</a>
</g>
</g>
<!-- dir_3e7675e027e995ce76f0b1e50f5f7211&#45;&gt;dir_8c0f887d135e3a09c81f308091ce630b -->
<g id="edge5" class="edge">
<title>dir_3e7675e027e995ce76f0b1e50f5f7211&#45;&gt;dir_8c0f887d135e3a09c81f308091ce630b</title>
<path fill="none" stroke="#000000" d="M220.6721,-154.0683C229.8819,-149.9377 239.1774,-143.8403 244.5,-135 260.7766,-107.9662 261.3147,-90.7024 244.5,-64 231.5777,-43.4789 206.6804,-31.9093 185.4794,-25.5061"/>
<polygon fill="#000000" stroke="#000000" points="186.3165,-22.1065 175.7469,-22.8376 184.4654,-28.8573 186.3165,-22.1065"/>
<g id="a_edge5&#45;headlabel"><a xlink:href="dir_000006_000003.html" target="_top" xlink:title="1">
<text text-anchor="middle" x="190.5339" y="-17.8187" font-family="Helvetica,sans-Serif" font-size="10.00" fill="#000000">1</text>
</a>
</g>
</g>
<!-- dir_e1c1a612157aa4e0d7fb3dd5a06054d7&#45;&gt;dir_3ccf6d3192f3ffcbe7eee38747026054 -->
<g id="edge11" class="edge">
<title>dir_e1c1a612157aa4e0d7fb3dd5a06054d7&#45;&gt;dir_3ccf6d3192f3ffcbe7eee38747026054</title>
<path fill="none" stroke="#000000" d="M151.6998,-90C149.2179,-90 146.736,-90 144.2541,-90"/>
<polygon fill="#000000" stroke="#000000" points="144.0508,-86.5001 134.0508,-90 144.0507,-93.5001 144.0508,-86.5001"/>
<g id="a_edge11&#45;headlabel"><a xlink:href="dir_000005_000004.html" target="_top" xlink:title="1">
<text text-anchor="middle" x="147.6454" y="-81.1607" font-family="Helvetica,sans-Serif" font-size="10.00" fill="#000000">1</text>
</a>
</g>
</g>
<!-- dir_e1c1a612157aa4e0d7fb3dd5a06054d7&#45;&gt;dir_3e7675e027e995ce76f0b1e50f5f7211 -->
<g id="edge10" class="edge">
<title>dir_e1c1a612157aa4e0d7fb3dd5a06054d7&#45;&gt;dir_3e7675e027e995ce76f0b1e50f5f7211</title>
<path fill="none" stroke="#000000" d="M199.476,-108.4133C200.2071,-116.0593 200.4203,-125.1084 200.1155,-133.5726"/>
<polygon fill="#000000" stroke="#000000" points="196.6048,-133.6264 199.4524,-143.8314 203.5902,-134.078 196.6048,-133.6264"/>
<g id="a_edge10&#45;headlabel"><a xlink:href="dir_000005_000006.html" target="_top" xlink:title="1">
<text text-anchor="middle" x="194.0032" y="-127.3562" font-family="Helvetica,sans-Serif" font-size="10.00" fill="#000000">1</text>
</a>
</g>
</g>
<!-- dir_e1c1a612157aa4e0d7fb3dd5a06054d7&#45;&gt;dir_8c0f887d135e3a09c81f308091ce630b -->
<g id="edge12" class="edge">
<title>dir_e1c1a612157aa4e0d7fb3dd5a06054d7&#45;&gt;dir_8c0f887d135e3a09c81f308091ce630b</title>
<path fill="none" stroke="#000000" d="M182.1446,-71.8314C177.0674,-63.7079 170.9773,-53.9637 165.3824,-45.0118"/>
<polygon fill="#000000" stroke="#000000" points="168.2763,-43.0383 160.0083,-36.4133 162.3403,-46.7483 168.2763,-43.0383"/>
<g id="a_edge12&#45;headlabel"><a xlink:href="dir_000005_000003.html" target="_top" xlink:title="2">
<text text-anchor="middle" x="172.5891" y="-42.0817" font-family="Helvetica,sans-Serif" font-size="10.00" fill="#000000">2</text>
</a>
</g>
</g>
<!-- dir_8c0f887d135e3a09c81f308091ce630b&#45;&gt;dir_3ccf6d3192f3ffcbe7eee38747026054 -->
<g id="edge13" class="edge">
<title>dir_8c0f887d135e3a09c81f308091ce630b&#45;&gt;dir_3ccf6d3192f3ffcbe7eee38747026054</title>
<path fill="none" stroke="#000000" d="M143.2235,-36.4133C138.9755,-44.654 133.1298,-54.5245 127.2074,-63.536"/>
<polygon fill="#000000" stroke="#000000" points="124.2937,-61.5965 121.5555,-71.8314 130.0786,-65.538 124.2937,-61.5965"/>
<g id="a_edge13&#45;headlabel"><a xlink:href="dir_000003_000004.html" target="_top" xlink:title="2">
<text text-anchor="middle" x="123.9713" y="-54.5272" font-family="Helvetica,sans-Serif" font-size="10.00" fill="#000000">2</text>
</a>
</g>
</g>
</g>
</svg>
