<?xml version="1.0" encoding="UTF-8" standalone="no"?>
<!DOCTYPE svg PUBLIC "-//W3C//DTD SVG 1.1//EN"
 "http://www.w3.org/Graphics/SVG/1.1/DTD/svg11.dtd">
<!-- Generated by graphviz version 2.40.1 (20161225.0304)
 -->
<!-- Title: src/engine/Engine.cxx Pages: 1 -->
<svg width="1510pt" height="420pt"
 viewBox="0.00 0.00 1510.22 420.00" xmlns="http://www.w3.org/2000/svg" xmlns:xlink="http://www.w3.org/1999/xlink">
<g id="graph0" class="graph" transform="scale(1 1) rotate(0) translate(4 416)">
<title>src/engine/Engine.cxx</title>
<!-- Node0 -->
<g id="node1" class="node">
<title>Node0</title>
<polygon fill="#bfbfbf" stroke="#000000" points="1050.5298,-392.5 1050.5298,-411.5 1173.5298,-411.5 1173.5298,-392.5 1050.5298,-392.5"/>
<text text-anchor="middle" x="1112.0298" y="-399.5" font-family="Helvetica,sans-Serif" font-size="10.00" fill="#000000">src/engine/Engine.cxx</text>
</g>
<!-- Node1 -->
<g id="node2" class="node">
<title>Node1</title>
<g id="a_node2"><a xlink:href="Engine_8hxx.html" target="_top" xlink:title="Engine.hxx">
<polygon fill="none" stroke="#000000" points="700.5298,-336.5 700.5298,-355.5 771.5298,-355.5 771.5298,-336.5 700.5298,-336.5"/>
<text text-anchor="middle" x="736.0298" y="-343.5" font-family="Helvetica,sans-Serif" font-size="10.00" fill="#000000">Engine.hxx</text>
</a>
</g>
</g>
<!-- Node0&#45;&gt;Node1 -->
<g id="edge1" class="edge">
<title>Node0&#45;&gt;Node1</title>
<path fill="none" stroke="#191970" d="M1050.3621,-392.8154C975.0154,-381.5936 849.2804,-362.8671 781.9339,-352.8368"/>
<polygon fill="#191970" stroke="#191970" points="782.0497,-349.3155 771.6432,-351.3041 781.0185,-356.2391 782.0497,-349.3155"/>
</g>
<!-- Node22 -->
<g id="node23" class="node">
<title>Node22</title>
<g id="a_node23"><a xlink:href="Camera_8hxx.html" target="_top" xlink:title="basics/Camera.hxx">
<polygon fill="none" stroke="#000000" points="481.0298,-112.5 481.0298,-131.5 591.0298,-131.5 591.0298,-112.5 481.0298,-112.5"/>
<text text-anchor="middle" x="536.0298" y="-119.5" font-family="Helvetica,sans-Serif" font-size="10.00" fill="#000000">basics/Camera.hxx</text>
</a>
</g>
</g>
<!-- Node0&#45;&gt;Node22 -->
<g id="edge39" class="edge">
<title>Node0&#45;&gt;Node22</title>
<path fill="none" stroke="#191970" d="M1050.1863,-398.4202C949.8215,-392.0793 756.139,-377.4846 691.0298,-356 635.798,-337.7747 578.0298,-348.1611 578.0298,-290 578.0298,-290 578.0298,-290 578.0298,-234 578.0298,-199.2434 560.0779,-162.0613 547.6473,-140.4811"/>
<polygon fill="#191970" stroke="#191970" points="550.5475,-138.5116 542.4087,-131.7285 544.5411,-142.1065 550.5475,-138.5116"/>
</g>
<!-- Node23 -->
<g id="node24" class="node">
<title>Node23</title>
<g id="a_node24"><a xlink:href="mapEdit_8hxx.html" target="_top" xlink:title="basics/mapEdit.hxx">
<polygon fill="none" stroke="#000000" points="1338.0298,-280.5 1338.0298,-299.5 1450.0298,-299.5 1450.0298,-280.5 1338.0298,-280.5"/>
<text text-anchor="middle" x="1394.0298" y="-287.5" font-family="Helvetica,sans-Serif" font-size="10.00" fill="#000000">basics/mapEdit.hxx</text>
</a>
</g>
</g>
<!-- Node0&#45;&gt;Node23 -->
<g id="edge42" class="edge">
<title>Node0&#45;&gt;Node23</title>
<path fill="none" stroke="#191970" d="M1136.073,-392.4509C1186.4371,-372.4482 1303.1056,-326.1117 1360.674,-303.2477"/>
<polygon fill="#191970" stroke="#191970" points="1362.0456,-306.469 1370.0475,-299.5249 1359.4617,-299.9633 1362.0456,-306.469"/>
</g>
<!-- Node24 -->
<g id="node25" class="node">
<title>Node24</title>
<g id="a_node25"><a xlink:href="Settings_8hxx.html" target="_top" xlink:title="basics/Settings.hxx">
<polygon fill="none" stroke="#000000" points="1194.5298,-168.5 1194.5298,-187.5 1305.5298,-187.5 1305.5298,-168.5 1194.5298,-168.5"/>
<text text-anchor="middle" x="1250.0298" y="-175.5" font-family="Helvetica,sans-Serif" font-size="10.00" fill="#000000">basics/Settings.hxx</text>
</a>
</g>
</g>
<!-- Node0&#45;&gt;Node24 -->
<g id="edge44" class="edge">
<title>Node0&#45;&gt;Node24</title>
<path fill="none" stroke="#191970" d="M1117.9595,-392.375C1139.0593,-358.1261 1210.7232,-241.802 1238.7054,-196.3817"/>
<polygon fill="#191970" stroke="#191970" points="1241.8568,-197.939 1244.1222,-187.5891 1235.8971,-194.2673 1241.8568,-197.939"/>
</g>
<!-- Node30 -->
<g id="node31" class="node">
<title>Node30</title>
<g id="a_node31"><a xlink:href="ResourcesManager_8hxx.html" target="_top" xlink:title="ResourcesManager.hxx">
<polygon fill="none" stroke="#000000" points="1048.0298,-168.5 1048.0298,-187.5 1176.0298,-187.5 1176.0298,-168.5 1048.0298,-168.5"/>
<text text-anchor="middle" x="1112.0298" y="-175.5" font-family="Helvetica,sans-Serif" font-size="10.00" fill="#000000">ResourcesManager.hxx</text>
</a>
</g>
</g>
<!-- Node0&#45;&gt;Node30 -->
<g id="edge53" class="edge">
<title>Node0&#45;&gt;Node30</title>
<path fill="none" stroke="#191970" d="M1112.0298,-392.375C1112.0298,-358.4851 1112.0298,-244.2317 1112.0298,-197.8332"/>
<polygon fill="#191970" stroke="#191970" points="1115.5299,-197.5891 1112.0298,-187.5891 1108.5299,-197.5892 1115.5299,-197.5891"/>
</g>
<!-- Node2 -->
<g id="node3" class="node">
<title>Node2</title>
<polygon fill="none" stroke="#bfbfbf" points="609.0298,-56.5 609.0298,-75.5 653.0298,-75.5 653.0298,-56.5 609.0298,-56.5"/>
<text text-anchor="middle" x="631.0298" y="-63.5" font-family="Helvetica,sans-Serif" font-size="10.00" fill="#000000">SDL.h</text>
</g>
<!-- Node1&#45;&gt;Node2 -->
<g id="edge2" class="edge">
<title>Node1&#45;&gt;Node2</title>
<path fill="none" stroke="#191970" d="M729.8028,-336.2504C718.3332,-317.3274 695.0298,-273.9633 695.0298,-234 695.0298,-234 695.0298,-234 695.0298,-178 695.0298,-140.2379 667.2644,-103.6312 648.3096,-83.0404"/>
<polygon fill="#191970" stroke="#191970" points="650.7529,-80.5312 641.3125,-75.7219 645.6933,-85.3686 650.7529,-80.5312"/>
</g>
<!-- Node3 -->
<g id="node4" class="node">
<title>Node3</title>
<g id="a_node4"><a xlink:href="WindowManager_8hxx.html" target="_top" xlink:title="WindowManager.hxx">
<polygon fill="none" stroke="#000000" points="761.0298,-112.5 761.0298,-131.5 879.0298,-131.5 879.0298,-112.5 761.0298,-112.5"/>
<text text-anchor="middle" x="820.0298" y="-119.5" font-family="Helvetica,sans-Serif" font-size="10.00" fill="#000000">WindowManager.hxx</text>
</a>
</g>
</g>
<!-- Node1&#45;&gt;Node3 -->
<g id="edge3" class="edge">
<title>Node1&#45;&gt;Node3</title>
<path fill="none" stroke="#191970" d="M739.6392,-336.375C752.4287,-302.2697 795.7388,-186.7761 812.921,-140.9567"/>
<polygon fill="#191970" stroke="#191970" points="816.1997,-142.1814 816.4339,-131.5891 809.6454,-139.7235 816.1997,-142.1814"/>
</g>
<!-- Node7 -->
<g id="node8" class="node">
<title>Node7</title>
<g id="a_node8"><a xlink:href="Singleton_8hxx.html" target="_top" xlink:title="../util/Singleton.hxx">
<polygon fill="none" stroke="#000000" points="918.5298,-56.5 918.5298,-75.5 1029.5298,-75.5 1029.5298,-56.5 918.5298,-56.5"/>
<text text-anchor="middle" x="974.0298" y="-63.5" font-family="Helvetica,sans-Serif" font-size="10.00" fill="#000000">../util/Singleton.hxx</text>
</a>
</g>
</g>
<!-- Node1&#45;&gt;Node7 -->
<g id="edge38" class="edge">
<title>Node1&#45;&gt;Node7</title>
<path fill="none" stroke="#191970" d="M759.6569,-336.4929C816.0553,-312.3286 957.8691,-242.528 1012.0298,-132 1020.4922,-114.7304 1007.071,-95.7787 993.9019,-82.6315"/>
<polygon fill="#191970" stroke="#191970" points="996.0552,-79.8549 986.3445,-75.6179 991.2935,-84.9858 996.0552,-79.8549"/>
</g>
<!-- Node8 -->
<g id="node9" class="node">
<title>Node8</title>
<g id="a_node9"><a xlink:href="point_8hxx.html" target="_top" xlink:title="basics/point.hxx">
<polygon fill="none" stroke="#000000" points="475.0298,-56.5 475.0298,-75.5 571.0298,-75.5 571.0298,-56.5 475.0298,-56.5"/>
<text text-anchor="middle" x="523.0298" y="-63.5" font-family="Helvetica,sans-Serif" font-size="10.00" fill="#000000">basics/point.hxx</text>
</a>
</g>
</g>
<!-- Node1&#45;&gt;Node8 -->
<g id="edge9" class="edge">
<title>Node1&#45;&gt;Node8</title>
<path fill="none" stroke="#191970" d="M722.6285,-336.2421C700.0895,-318.5868 657.0298,-278.9723 657.0298,-234 657.0298,-234 657.0298,-234 657.0298,-178 657.0298,-127.8615 601.1167,-95.7644 561.5256,-79.3216"/>
<polygon fill="#191970" stroke="#191970" points="562.6912,-76.0186 552.1058,-75.5723 560.1025,-82.5223 562.6912,-76.0186"/>
</g>
<!-- Node9 -->
<g id="node10" class="node">
<title>Node9</title>
<g id="a_node10"><a xlink:href="Map_8hxx.html" target="_top" xlink:title="Map.hxx">
<polygon fill="none" stroke="#000000" points="154.0298,-280.5 154.0298,-299.5 212.0298,-299.5 212.0298,-280.5 154.0298,-280.5"/>
<text text-anchor="middle" x="183.0298" y="-287.5" font-family="Helvetica,sans-Serif" font-size="10.00" fill="#000000">Map.hxx</text>
</a>
</g>
</g>
<!-- Node1&#45;&gt;Node9 -->
<g id="edge10" class="edge">
<title>Node1&#45;&gt;Node9</title>
<path fill="none" stroke="#191970" d="M700.172,-342.3688C601.2516,-332.3516 325.049,-304.3817 222.2417,-293.9708"/>
<polygon fill="#191970" stroke="#191970" points="222.579,-290.4872 212.2772,-292.9618 221.8737,-297.4515 222.579,-290.4872"/>
</g>
<!-- Node3&#45;&gt;Node2 -->
<g id="edge7" class="edge">
<title>Node3&#45;&gt;Node2</title>
<path fill="none" stroke="#191970" d="M787.5395,-112.3733C752.5736,-102.013 697.3287,-85.6441 662.6883,-75.3803"/>
<polygon fill="#191970" stroke="#191970" points="663.654,-72.0161 653.0717,-72.5309 661.6654,-78.7277 663.654,-72.0161"/>
</g>
<!-- Node4 -->
<g id="node5" class="node">
<title>Node4</title>
<polygon fill="none" stroke="#bfbfbf" points="768.0298,-.5 768.0298,-19.5 812.0298,-19.5 812.0298,-.5 768.0298,-.5"/>
<text text-anchor="middle" x="790.0298" y="-7.5" font-family="Helvetica,sans-Serif" font-size="10.00" fill="#000000">string</text>
</g>
<!-- Node3&#45;&gt;Node4 -->
<g id="edge4" class="edge">
<title>Node3&#45;&gt;Node4</title>
<path fill="none" stroke="#191970" d="M761.0132,-112.5689C739.7213,-106.0052 717.8085,-94.8745 705.0298,-76 687.8754,-50.6624 727.4585,-30.7319 758.2047,-19.6602"/>
<polygon fill="#191970" stroke="#191970" points="759.464,-22.9286 767.7936,-16.3811 757.199,-16.3052 759.464,-22.9286"/>
</g>
<!-- Node5 -->
<g id="node6" class="node">
<title>Node5</title>
<polygon fill="none" stroke="#bfbfbf" points="1159.0298,-56.5 1159.0298,-75.5 1219.0298,-75.5 1219.0298,-56.5 1159.0298,-56.5"/>
<text text-anchor="middle" x="1189.0298" y="-63.5" font-family="Helvetica,sans-Serif" font-size="10.00" fill="#000000">iostream</text>
</g>
<!-- Node3&#45;&gt;Node5 -->
<g id="edge5" class="edge">
<title>Node3&#45;&gt;Node5</title>
<path fill="none" stroke="#191970" d="M879.3632,-113.2408C882.2932,-112.8188 885.1945,-112.4033 888.0298,-112 1001.2153,-95.9018 1032.9701,-98.4745 1148.8939,-76.0474"/>
<polygon fill="#191970" stroke="#191970" points="1149.7315,-79.45 1158.8738,-74.0957 1148.388,-72.5801 1149.7315,-79.45"/>
</g>
<!-- Node6 -->
<g id="node7" class="node">
<title>Node6</title>
<polygon fill="none" stroke="#bfbfbf" points="63.5298,-56.5 63.5298,-75.5 110.5298,-75.5 110.5298,-56.5 63.5298,-56.5"/>
<text text-anchor="middle" x="87.0298" y="-63.5" font-family="Helvetica,sans-Serif" font-size="10.00" fill="#000000">vector</text>
</g>
<!-- Node3&#45;&gt;Node6 -->
<g id="edge6" class="edge">
<title>Node3&#45;&gt;Node6</title>
<path fill="none" stroke="#191970" d="M760.9757,-117.4884C614.1375,-106.2702 236.0738,-77.3867 120.8596,-68.5845"/>
<polygon fill="#191970" stroke="#191970" points="121.0903,-65.0921 110.8527,-67.82 120.557,-72.0717 121.0903,-65.0921"/>
</g>
<!-- Node3&#45;&gt;Node7 -->
<g id="edge8" class="edge">
<title>Node3&#45;&gt;Node7</title>
<path fill="none" stroke="#191970" d="M846.5033,-112.3733C871.8895,-103.1419 910.3943,-89.1402 938.4518,-78.9375"/>
<polygon fill="#191970" stroke="#191970" points="939.6999,-82.2079 947.9017,-75.5011 937.3077,-75.6293 939.6999,-82.2079"/>
</g>
<!-- Node9&#45;&gt;Node6 -->
<g id="edge11" class="edge">
<title>Node9&#45;&gt;Node6</title>
<path fill="none" stroke="#191970" d="M154.0268,-287.3997C121.6536,-283.1674 69.2057,-272.1872 34.0298,-244 11.66,-226.0746 9.3874,-215.7055 2.0298,-188 -9.559,-144.3616 34.3658,-103.4035 63.3569,-81.8336"/>
<polygon fill="#191970" stroke="#191970" points="65.7106,-84.4528 71.7968,-75.7805 61.6308,-78.7645 65.7106,-84.4528"/>
</g>
<!-- Node10 -->
<g id="node11" class="node">
<title>Node10</title>
<g id="a_node11"><a xlink:href="MapNode_8hxx.html" target="_top" xlink:title="GameObjects/MapNode.hxx">
<polygon fill="none" stroke="#000000" points="207.0298,-168.5 207.0298,-187.5 359.0298,-187.5 359.0298,-168.5 207.0298,-168.5"/>
<text text-anchor="middle" x="283.0298" y="-175.5" font-family="Helvetica,sans-Serif" font-size="10.00" fill="#000000">GameObjects/MapNode.hxx</text>
</a>
</g>
</g>
<!-- Node9&#45;&gt;Node10 -->
<g id="edge12" class="edge">
<title>Node9&#45;&gt;Node10</title>
<path fill="none" stroke="#191970" d="M191.5557,-280.4509C208.456,-261.5227 246.4101,-219.014 267.737,-195.1279"/>
<polygon fill="#191970" stroke="#191970" points="270.476,-197.3154 274.5254,-187.5249 265.2545,-192.6532 270.476,-197.3154"/>
</g>
<!-- Node20 -->
<g id="node21" class="node">
<title>Node20</title>
<g id="a_node21"><a xlink:href="TerrainGenerator_8hxx.html" target="_top" xlink:title="map/TerrainGenerator.hxx">
<polygon fill="none" stroke="#000000" points="43.5298,-224.5 43.5298,-243.5 186.5298,-243.5 186.5298,-224.5 43.5298,-224.5"/>
<text text-anchor="middle" x="115.0298" y="-231.5" font-family="Helvetica,sans-Serif" font-size="10.00" fill="#000000">map/TerrainGenerator.hxx</text>
</a>
</g>
</g>
<!-- Node9&#45;&gt;Node20 -->
<g id="edge34" class="edge">
<title>Node9&#45;&gt;Node20</title>
<path fill="none" stroke="#191970" d="M171.1851,-280.2455C161.1418,-271.9746 146.5304,-259.9416 134.7294,-250.2232"/>
<polygon fill="#191970" stroke="#191970" points="136.6831,-247.298 126.7388,-243.6427 132.2331,-252.7015 136.6831,-247.298"/>
</g>
<!-- Node10&#45;&gt;Node2 -->
<g id="edge13" class="edge">
<title>Node10&#45;&gt;Node2</title>
<path fill="none" stroke="#191970" d="M359.2723,-175.1331C440.6682,-170.6684 562.9493,-159.4869 600.0298,-132 614.9239,-120.9593 622.9224,-100.9506 627.0404,-85.8482"/>
<polygon fill="#191970" stroke="#191970" points="630.4936,-86.4546 629.3962,-75.9168 623.6826,-84.8389 630.4936,-86.4546"/>
</g>
<!-- Node10&#45;&gt;Node4 -->
<g id="edge15" class="edge">
<title>Node10&#45;&gt;Node4</title>
<path fill="none" stroke="#191970" d="M316.5139,-168.4466C339.8139,-160.8292 370.9036,-148.6674 395.0298,-132 433.0612,-105.7263 425.0336,-77.3543 466.0298,-56 516.4738,-29.7245 686.2042,-16.4115 757.7726,-11.8575"/>
<polygon fill="#191970" stroke="#191970" points="758.2244,-15.3364 767.9889,-11.2249 757.7917,-8.3497 758.2244,-15.3364"/>
</g>
<!-- Node10&#45;&gt;Node6 -->
<g id="edge17" class="edge">
<title>Node10&#45;&gt;Node6</title>
<path fill="none" stroke="#191970" d="M220.4391,-168.4503C176.3605,-160.5132 122.4033,-147.9526 106.0298,-132 93.6436,-119.9322 89.1935,-100.3549 87.6629,-85.65"/>
<polygon fill="#191970" stroke="#191970" points="91.1473,-85.3001 86.9784,-75.5599 84.1634,-85.7739 91.1473,-85.3001"/>
</g>
<!-- Node10&#45;&gt;Node8 -->
<g id="edge25" class="edge">
<title>Node10&#45;&gt;Node8</title>
<path fill="none" stroke="#191970" d="M324.9258,-168.4543C354.8431,-160.7738 395.5507,-148.5325 429.0298,-132 456.8403,-118.2667 485.5585,-96.8561 503.8142,-82.1679"/>
<polygon fill="#191970" stroke="#191970" points="506.3648,-84.6031 511.8857,-75.5604 501.9307,-79.1865 506.3648,-84.6031"/>
</g>
<!-- Node11 -->
<g id="node12" class="node">
<title>Node11</title>
<polygon fill="none" stroke="#bfbfbf" points="115.0298,-112.5 115.0298,-131.5 173.0298,-131.5 173.0298,-112.5 115.0298,-112.5"/>
<text text-anchor="middle" x="144.0298" y="-119.5" font-family="Helvetica,sans-Serif" font-size="10.00" fill="#000000">memory</text>
</g>
<!-- Node10&#45;&gt;Node11 -->
<g id="edge14" class="edge">
<title>Node10&#45;&gt;Node11</title>
<path fill="none" stroke="#191970" d="M259.1349,-168.3733C236.5216,-159.2629 202.3756,-145.5062 177.1426,-135.3404"/>
<polygon fill="#191970" stroke="#191970" points="178.1964,-131.9917 167.6129,-131.5011 175.5806,-138.4845 178.1964,-131.9917"/>
</g>
<!-- Node12 -->
<g id="node13" class="node">
<title>Node12</title>
<polygon fill="none" stroke="#bfbfbf" points="191.0298,-112.5 191.0298,-131.5 255.0298,-131.5 255.0298,-112.5 191.0298,-112.5"/>
<text text-anchor="middle" x="223.0298" y="-119.5" font-family="Helvetica,sans-Serif" font-size="10.00" fill="#000000">algorithm</text>
</g>
<!-- Node10&#45;&gt;Node12 -->
<g id="edge16" class="edge">
<title>Node10&#45;&gt;Node12</title>
<path fill="none" stroke="#191970" d="M272.5786,-168.2455C263.8029,-160.0549 251.0744,-148.1749 240.7158,-138.5069"/>
<polygon fill="#191970" stroke="#191970" points="243.0599,-135.9072 233.3612,-131.6427 238.2837,-141.0246 243.0599,-135.9072"/>
</g>
<!-- Node13 -->
<g id="node14" class="node">
<title>Node13</title>
<g id="a_node14"><a xlink:href="Sprite_8hxx.html" target="_top" xlink:title="../Sprite.hxx">
<polygon fill="none" stroke="#000000" points="311.5298,-112.5 311.5298,-131.5 386.5298,-131.5 386.5298,-112.5 311.5298,-112.5"/>
<text text-anchor="middle" x="349.0298" y="-119.5" font-family="Helvetica,sans-Serif" font-size="10.00" fill="#000000">../Sprite.hxx</text>
</a>
</g>
</g>
<!-- Node10&#45;&gt;Node13 -->
<g id="edge18" class="edge">
<title>Node10&#45;&gt;Node13</title>
<path fill="none" stroke="#191970" d="M294.5261,-168.2455C304.274,-159.9746 318.4557,-147.9416 329.9096,-138.2232"/>
<polygon fill="#191970" stroke="#191970" points="332.3045,-140.7813 337.6652,-131.6427 327.7757,-135.4437 332.3045,-140.7813"/>
</g>
<!-- Node14 -->
<g id="node15" class="node">
<title>Node14</title>
<g id="a_node15"><a xlink:href="enums_8hxx.html" target="_top" xlink:title="common/enums.hxx">
<polygon fill="none" stroke="#000000" points="248.0298,-56.5 248.0298,-75.5 364.0298,-75.5 364.0298,-56.5 248.0298,-56.5"/>
<text text-anchor="middle" x="306.0298" y="-63.5" font-family="Helvetica,sans-Serif" font-size="10.00" fill="#000000">common/enums.hxx</text>
</a>
</g>
</g>
<!-- Node10&#45;&gt;Node14 -->
<g id="edge24" class="edge">
<title>Node10&#45;&gt;Node14</title>
<path fill="none" stroke="#191970" d="M284.9908,-168.4509C288.759,-150.1013 297.0781,-109.5908 302.0522,-85.3693"/>
<polygon fill="#191970" stroke="#191970" points="305.4906,-86.0246 304.0738,-75.5249 298.6337,-84.6164 305.4906,-86.0246"/>
</g>
<!-- Node16 -->
<g id="node17" class="node">
<title>Node16</title>
<g id="a_node17"><a xlink:href="TileManager_8hxx.html" target="_top" xlink:title="../TileManager.hxx">
<polygon fill="none" stroke="#000000" points="897.0298,-112.5 897.0298,-131.5 1003.0298,-131.5 1003.0298,-112.5 897.0298,-112.5"/>
<text text-anchor="middle" x="950.0298" y="-119.5" font-family="Helvetica,sans-Serif" font-size="10.00" fill="#000000">../TileManager.hxx</text>
</a>
</g>
</g>
<!-- Node10&#45;&gt;Node16 -->
<g id="edge26" class="edge">
<title>Node10&#45;&gt;Node16</title>
<path fill="none" stroke="#191970" d="M359.1572,-174.2688C472.072,-168.2779 690.7925,-154.9245 886.77,-132.0598"/>
<polygon fill="#191970" stroke="#191970" points="887.449,-135.5041 896.9711,-130.8585 886.6303,-128.5521 887.449,-135.5041"/>
</g>
<!-- Node13&#45;&gt;Node2 -->
<g id="edge19" class="edge">
<title>Node13&#45;&gt;Node2</title>
<path fill="none" stroke="#191970" d="M386.769,-114.5057C442.652,-103.4084 546.4388,-82.7982 598.8988,-72.3806"/>
<polygon fill="#191970" stroke="#191970" points="599.8512,-75.7599 608.9779,-70.3791 598.4877,-68.894 599.8512,-75.7599"/>
</g>
<!-- Node13&#45;&gt;Node6 -->
<g id="edge20" class="edge">
<title>Node13&#45;&gt;Node6</title>
<path fill="none" stroke="#191970" d="M311.4916,-113.9766C260.3694,-103.0497 169.6237,-83.6537 120.6334,-73.1824"/>
<polygon fill="#191970" stroke="#191970" points="121.3531,-69.7573 110.8424,-71.0897 119.8899,-76.6027 121.3531,-69.7573"/>
</g>
<!-- Node13&#45;&gt;Node8 -->
<g id="edge21" class="edge">
<title>Node13&#45;&gt;Node8</title>
<path fill="none" stroke="#191970" d="M378.9415,-112.3733C407.875,-103.0613 451.8909,-88.8953 483.6591,-78.671"/>
<polygon fill="#191970" stroke="#191970" points="485.0616,-81.8965 493.5085,-75.5011 482.917,-75.2331 485.0616,-81.8965"/>
</g>
<!-- Node13&#45;&gt;Node14 -->
<g id="edge22" class="edge">
<title>Node13&#45;&gt;Node14</title>
<path fill="none" stroke="#191970" d="M341.5398,-112.2455C335.4972,-104.3761 326.8395,-93.101 319.5857,-83.6542"/>
<polygon fill="#191970" stroke="#191970" points="322.3003,-81.4426 313.434,-75.6427 316.7483,-85.7058 322.3003,-81.4426"/>
</g>
<!-- Node15 -->
<g id="node16" class="node">
<title>Node15</title>
<polygon fill="none" stroke="#bfbfbf" points="278.0298,-.5 278.0298,-19.5 334.0298,-19.5 334.0298,-.5 278.0298,-.5"/>
<text text-anchor="middle" x="306.0298" y="-7.5" font-family="Helvetica,sans-Serif" font-size="10.00" fill="#000000">stddef.h</text>
</g>
<!-- Node14&#45;&gt;Node15 -->
<g id="edge23" class="edge">
<title>Node14&#45;&gt;Node15</title>
<path fill="none" stroke="#191970" d="M306.0298,-56.2455C306.0298,-48.9382 306.0298,-38.6944 306.0298,-29.7046"/>
<polygon fill="#191970" stroke="#191970" points="309.5299,-29.6426 306.0298,-19.6427 302.5299,-29.6427 309.5299,-29.6426"/>
</g>
<!-- Node16&#45;&gt;Node2 -->
<g id="edge27" class="edge">
<title>Node16&#45;&gt;Node2</title>
<path fill="none" stroke="#191970" d="M896.9953,-112.6899C830.392,-100.9978 718.2068,-81.3038 663.2846,-71.6623"/>
<polygon fill="#191970" stroke="#191970" points="663.5487,-68.1552 653.0941,-69.8734 662.3383,-75.0498 663.5487,-68.1552"/>
</g>
<!-- Node16&#45;&gt;Node4 -->
<g id="edge29" class="edge">
<title>Node16&#45;&gt;Node4</title>
<path fill="none" stroke="#191970" d="M898.4411,-112.4785C837.3387,-100.9559 743.1197,-82.3127 738.0298,-76 724.072,-58.6888 745.1759,-38.5914 764.5341,-25.1644"/>
<polygon fill="#191970" stroke="#191970" points="766.4579,-28.0883 772.8941,-19.6725 762.6145,-22.2378 766.4579,-28.0883"/>
</g>
<!-- Node16&#45;&gt;Node7 -->
<g id="edge33" class="edge">
<title>Node16&#45;&gt;Node7</title>
<path fill="none" stroke="#191970" d="M954.2103,-112.2455C957.4108,-104.7776 961.9258,-94.2427 965.8382,-85.1137"/>
<polygon fill="#191970" stroke="#191970" points="969.175,-86.2129 969.8972,-75.6427 962.741,-83.4554 969.175,-86.2129"/>
</g>
<!-- Node17 -->
<g id="node18" class="node">
<title>Node17</title>
<polygon fill="none" stroke="#bfbfbf" points="1047.5298,-56.5 1047.5298,-75.5 1140.5298,-75.5 1140.5298,-56.5 1047.5298,-56.5"/>
<text text-anchor="middle" x="1094.0298" y="-63.5" font-family="Helvetica,sans-Serif" font-size="10.00" fill="#000000">unordered_map</text>
</g>
<!-- Node16&#45;&gt;Node17 -->
<g id="edge28" class="edge">
<title>Node16&#45;&gt;Node17</title>
<path fill="none" stroke="#191970" d="M974.7843,-112.3733C998.3147,-103.2226 1033.8985,-89.3844 1060.0724,-79.2057"/>
<polygon fill="#191970" stroke="#191970" points="1061.5469,-82.3877 1069.5983,-75.5011 1059.0097,-75.8636 1061.5469,-82.3877"/>
</g>
<!-- Node18 -->
<g id="node19" class="node">
<title>Node18</title>
<g id="a_node19"><a xlink:href="tileData_8hxx.html" target="_top" xlink:title="tileData.hxx">
<polygon fill="none" stroke="#000000" points="823.5298,-56.5 823.5298,-75.5 900.5298,-75.5 900.5298,-56.5 823.5298,-56.5"/>
<text text-anchor="middle" x="862.0298" y="-63.5" font-family="Helvetica,sans-Serif" font-size="10.00" fill="#000000">tileData.hxx</text>
</a>
</g>
</g>
<!-- Node16&#45;&gt;Node18 -->
<g id="edge30" class="edge">
<title>Node16&#45;&gt;Node18</title>
<path fill="none" stroke="#191970" d="M934.7014,-112.2455C921.1995,-103.6534 901.3176,-91.0014 885.7612,-81.1018"/>
<polygon fill="#191970" stroke="#191970" points="887.4983,-78.0587 877.1826,-75.6427 883.7401,-83.9643 887.4983,-78.0587"/>
</g>
<!-- Node19 -->
<g id="node20" class="node">
<title>Node19</title>
<polygon fill="none" stroke="#bfbfbf" points="747.0298,-56.5 747.0298,-75.5 805.0298,-75.5 805.0298,-56.5 747.0298,-56.5"/>
<text text-anchor="middle" x="776.0298" y="-63.5" font-family="Helvetica,sans-Serif" font-size="10.00" fill="#000000">json.hxx</text>
</g>
<!-- Node16&#45;&gt;Node19 -->
<g id="edge32" class="edge">
<title>Node16&#45;&gt;Node19</title>
<path fill="none" stroke="#191970" d="M920.1181,-112.3733C891.0969,-103.0331 846.9018,-88.8094 815.112,-78.5782"/>
<polygon fill="#191970" stroke="#191970" points="815.853,-75.1399 805.2615,-75.4079 813.7084,-81.8033 815.853,-75.1399"/>
</g>
<!-- Node18&#45;&gt;Node4 -->
<g id="edge31" class="edge">
<title>Node18&#45;&gt;Node4</title>
<path fill="none" stroke="#191970" d="M849.4884,-56.2455C838.7511,-47.8943 823.0825,-35.7076 810.5251,-25.9408"/>
<polygon fill="#191970" stroke="#191970" points="812.4699,-23.0194 802.4275,-19.6427 808.1723,-28.5449 812.4699,-23.0194"/>
</g>
<!-- Node20&#45;&gt;Node6 -->
<g id="edge37" class="edge">
<title>Node20&#45;&gt;Node6</title>
<path fill="none" stroke="#191970" d="M112.1502,-224.2608C106.9532,-206.2364 96.0783,-166.3779 91.0298,-132 88.7852,-116.7152 87.7951,-99.2612 87.3609,-86.1428"/>
<polygon fill="#191970" stroke="#191970" points="90.8536,-85.8034 87.1048,-75.894 83.8558,-85.9783 90.8536,-85.8034"/>
</g>
<!-- Node20&#45;&gt;Node10 -->
<g id="edge35" class="edge">
<title>Node20&#45;&gt;Node10</title>
<path fill="none" stroke="#191970" d="M143.91,-224.3733C171.8459,-215.0613 214.344,-200.8953 245.0167,-190.671"/>
<polygon fill="#191970" stroke="#191970" points="246.1464,-193.9839 254.5264,-187.5011 243.9328,-187.3431 246.1464,-193.9839"/>
</g>
<!-- Node21 -->
<g id="node22" class="node">
<title>Node21</title>
<polygon fill="none" stroke="#bfbfbf" points="11.0298,-168.5 11.0298,-187.5 49.0298,-187.5 49.0298,-168.5 11.0298,-168.5"/>
<text text-anchor="middle" x="30.0298" y="-175.5" font-family="Helvetica,sans-Serif" font-size="10.00" fill="#000000">map</text>
</g>
<!-- Node20&#45;&gt;Node21 -->
<g id="edge36" class="edge">
<title>Node20&#45;&gt;Node21</title>
<path fill="none" stroke="#191970" d="M100.2239,-224.2455C87.3042,-215.7337 68.3367,-203.2375 53.3746,-193.3801"/>
<polygon fill="#191970" stroke="#191970" points="54.9422,-190.2216 44.666,-187.6427 51.0911,-196.067 54.9422,-190.2216"/>
</g>
<!-- Node22&#45;&gt;Node2 -->
<g id="edge40" class="edge">
<title>Node22&#45;&gt;Node2</title>
<path fill="none" stroke="#191970" d="M552.5775,-112.2455C567.2897,-103.5731 589.0186,-90.7645 605.8803,-80.825"/>
<polygon fill="#191970" stroke="#191970" points="607.8344,-83.736 614.6717,-75.6427 604.2796,-77.7057 607.8344,-83.736"/>
</g>
<!-- Node22&#45;&gt;Node8 -->
<g id="edge41" class="edge">
<title>Node22&#45;&gt;Node8</title>
<path fill="none" stroke="#191970" d="M533.7654,-112.2455C532.0504,-104.8579 529.6386,-94.4689 527.5354,-85.4087"/>
<polygon fill="#191970" stroke="#191970" points="530.939,-84.5922 525.2683,-75.6427 524.1203,-86.1751 530.939,-84.5922"/>
</g>
<!-- Node23&#45;&gt;Node4 -->
<g id="edge43" class="edge">
<title>Node23&#45;&gt;Node4</title>
<path fill="none" stroke="#191970" d="M1414.1557,-280.4139C1445.151,-264.0856 1501.0298,-227.7498 1501.0298,-178 1501.0298,-178 1501.0298,-178 1501.0298,-122 1501.0298,-91.4754 1505.7949,-75.1565 1482.0298,-56 1456.0441,-35.0535 955.7842,-15.8781 822.4514,-11.1241"/>
<polygon fill="#191970" stroke="#191970" points="822.2126,-7.6135 812.0951,-10.7576 821.965,-14.6092 822.2126,-7.6135"/>
</g>
<!-- Node24&#45;&gt;Node4 -->
<g id="edge45" class="edge">
<title>Node24&#45;&gt;Node4</title>
<path fill="none" stroke="#191970" d="M1251.7076,-168.301C1255.1183,-145.0249 1260.0416,-85.7332 1228.0298,-56 1198.3947,-28.4742 918.5185,-15.0249 822.3176,-11.1874"/>
<polygon fill="#191970" stroke="#191970" points="822.1672,-7.6789 812.0383,-10.7863 821.8942,-14.6736 822.1672,-7.6789"/>
</g>
<!-- Node24&#45;&gt;Node7 -->
<g id="edge46" class="edge">
<title>Node24&#45;&gt;Node7</title>
<path fill="none" stroke="#191970" d="M1226.4982,-168.4509C1177.3075,-148.4895 1063.491,-102.3031 1007.0259,-79.3897"/>
<polygon fill="#191970" stroke="#191970" points="1008.0841,-76.042 997.5018,-75.5249 1005.4519,-82.5283 1008.0841,-76.042"/>
</g>
<!-- Node25 -->
<g id="node26" class="node">
<title>Node25</title>
<g id="a_node26"><a xlink:href="Meta_8hxx.html" target="_top" xlink:title="../../util/Meta.hxx">
<polygon fill="none" stroke="#000000" points="1347.0298,-112.5 1347.0298,-131.5 1445.0298,-131.5 1445.0298,-112.5 1347.0298,-112.5"/>
<text text-anchor="middle" x="1396.0298" y="-119.5" font-family="Helvetica,sans-Serif" font-size="10.00" fill="#000000">../../util/Meta.hxx</text>
</a>
</g>
</g>
<!-- Node24&#45;&gt;Node25 -->
<g id="edge47" class="edge">
<title>Node24&#45;&gt;Node25</title>
<path fill="none" stroke="#191970" d="M1275.1281,-168.3733C1298.9853,-159.2226 1335.0633,-145.3844 1361.6008,-135.2057"/>
<polygon fill="#191970" stroke="#191970" points="1363.1757,-138.3503 1371.259,-131.5011 1360.6688,-131.8145 1363.1757,-138.3503"/>
</g>
<!-- Node29 -->
<g id="node30" class="node">
<title>Node29</title>
<polygon fill="none" stroke="#bfbfbf" points="1275.5298,-112.5 1275.5298,-131.5 1328.5298,-131.5 1328.5298,-112.5 1275.5298,-112.5"/>
<text text-anchor="middle" x="1302.0298" y="-119.5" font-family="Helvetica,sans-Serif" font-size="10.00" fill="#000000">cstddef</text>
</g>
<!-- Node24&#45;&gt;Node29 -->
<g id="edge52" class="edge">
<title>Node24&#45;&gt;Node29</title>
<path fill="none" stroke="#191970" d="M1259.0875,-168.2455C1266.544,-160.2155 1277.2932,-148.6394 1286.1715,-139.0781"/>
<polygon fill="#191970" stroke="#191970" points="1288.8361,-141.3522 1293.0759,-131.6427 1283.7066,-136.589 1288.8361,-141.3522"/>
</g>
<!-- Node25&#45;&gt;Node5 -->
<g id="edge48" class="edge">
<title>Node25&#45;&gt;Node5</title>
<path fill="none" stroke="#191970" d="M1360.4452,-112.3733C1323.8366,-102.4695 1266.9318,-87.0749 1228.8461,-76.7716"/>
<polygon fill="#191970" stroke="#191970" points="1229.6817,-73.3719 1219.1147,-74.1389 1227.8537,-80.129 1229.6817,-73.3719"/>
</g>
<!-- Node26 -->
<g id="node27" class="node">
<title>Node26</title>
<polygon fill="none" stroke="#bfbfbf" points="1275.5298,-56.5 1275.5298,-75.5 1344.5298,-75.5 1344.5298,-56.5 1275.5298,-56.5"/>
<text text-anchor="middle" x="1310.0298" y="-63.5" font-family="Helvetica,sans-Serif" font-size="10.00" fill="#000000">type_traits</text>
</g>
<!-- Node25&#45;&gt;Node26 -->
<g id="edge49" class="edge">
<title>Node25&#45;&gt;Node26</title>
<path fill="none" stroke="#191970" d="M1381.0497,-112.2455C1367.8547,-103.6534 1348.4247,-91.0014 1333.2219,-81.1018"/>
<polygon fill="#191970" stroke="#191970" points="1335.1281,-78.1665 1324.8382,-75.6427 1331.3083,-84.0325 1335.1281,-78.1665"/>
</g>
<!-- Node27 -->
<g id="node28" class="node">
<title>Node27</title>
<polygon fill="none" stroke="#bfbfbf" points="1362.5298,-56.5 1362.5298,-75.5 1413.5298,-75.5 1413.5298,-56.5 1362.5298,-56.5"/>
<text text-anchor="middle" x="1388.0298" y="-63.5" font-family="Helvetica,sans-Serif" font-size="10.00" fill="#000000">variant</text>
</g>
<!-- Node25&#45;&gt;Node27 -->
<g id="edge50" class="edge">
<title>Node25&#45;&gt;Node27</title>
<path fill="none" stroke="#191970" d="M1394.6363,-112.2455C1393.5924,-104.9382 1392.129,-94.6944 1390.8447,-85.7046"/>
<polygon fill="#191970" stroke="#191970" points="1394.2865,-85.0472 1389.4073,-75.6427 1387.3568,-86.0372 1394.2865,-85.0472"/>
</g>
<!-- Node28 -->
<g id="node29" class="node">
<title>Node28</title>
<polygon fill="none" stroke="#bfbfbf" points="1431.5298,-56.5 1431.5298,-75.5 1472.5298,-75.5 1472.5298,-56.5 1431.5298,-56.5"/>
<text text-anchor="middle" x="1452.0298" y="-63.5" font-family="Helvetica,sans-Serif" font-size="10.00" fill="#000000">tuple</text>
</g>
<!-- Node25&#45;&gt;Node28 -->
<g id="edge51" class="edge">
<title>Node25&#45;&gt;Node28</title>
<path fill="none" stroke="#191970" d="M1405.7843,-112.2455C1413.8946,-104.1352 1425.6223,-92.4075 1435.2379,-82.7919"/>
<polygon fill="#191970" stroke="#191970" points="1437.7909,-85.1887 1442.3871,-75.6427 1432.8411,-80.2389 1437.7909,-85.1887"/>
</g>
<!-- Node30&#45;&gt;Node2 -->
<g id="edge56" class="edge">
<title>Node30&#45;&gt;Node2</title>
<path fill="none" stroke="#191970" d="M1047.7355,-172.6691C959.4462,-164.8553 805.5286,-149.3271 752.0298,-132 732.5154,-125.6797 684.8693,-98.2233 655.524,-80.7756"/>
<polygon fill="#191970" stroke="#191970" points="657.0777,-77.6268 646.6982,-75.5019 653.4872,-83.6358 657.0777,-77.6268"/>
</g>
<!-- Node30&#45;&gt;Node5 -->
<g id="edge54" class="edge">
<title>Node30&#45;&gt;Node5</title>
<path fill="none" stroke="#191970" d="M1118.5948,-168.4509C1131.4375,-149.7707 1160.0697,-108.1238 1176.6025,-84.0761"/>
<polygon fill="#191970" stroke="#191970" points="1179.7003,-85.7482 1182.4814,-75.5249 1173.932,-81.7825 1179.7003,-85.7482"/>
</g>
<!-- Node30&#45;&gt;Node16 -->
<g id="edge57" class="edge">
<title>Node30&#45;&gt;Node16</title>
<path fill="none" stroke="#191970" d="M1084.181,-168.3733C1057.3595,-159.1016 1016.6171,-145.0178 987.07,-134.804"/>
<polygon fill="#191970" stroke="#191970" points="988.11,-131.4603 977.5152,-131.5011 985.8229,-138.0762 988.11,-131.4603"/>
</g>
<!-- Node30&#45;&gt;Node17 -->
<g id="edge55" class="edge">
<title>Node30&#45;&gt;Node17</title>
<path fill="none" stroke="#191970" d="M1110.4951,-168.4509C1107.5594,-150.184 1101.094,-109.9553 1097.1955,-85.6976"/>
<polygon fill="#191970" stroke="#191970" points="1100.6031,-84.8428 1095.5606,-75.5249 1093.6918,-85.9536 1100.6031,-84.8428"/>
</g>
</g>
</svg>
