<?xml version="1.0" encoding="UTF-8" standalone="no"?>
<!DOCTYPE svg PUBLIC "-//W3C//DTD SVG 1.1//EN"
 "http://www.w3.org/Graphics/SVG/1.1/DTD/svg11.dtd">
<!-- Generated by graphviz version 2.40.1 (20161225.0304)
 -->
<!-- Title: src/engine/Engine.hxx Pages: 1 -->
<!--zoomable 364 -->
<svg id="main" version="1.1" xmlns="http://www.w3.org/2000/svg" xmlns:xlink="http://www.w3.org/1999/xlink" xml:space="preserve" onload="init(evt)">
<style type="text/css"><![CDATA[
.edge:hover path { stroke: red; }
.edge:hover polygon { stroke: red; fill: red; }
]]></style>
<script type="text/javascript"><![CDATA[
var edges = document.getElementsByTagName('g');
if (edges && edges.length) {
  for (var i=0;i<edges.length;i++) {
    if (edges[i].id.substr(0,4)=='edge') {
      edges[i].setAttribute('class','edge');
    }
  }
}
]]></script>
        <defs>
                <circle id="rim" cx="0" cy="0" r="7"/>
                <circle id="rim2" cx="0" cy="0" r="3.5"/>
                <g id="zoomPlus">
                        <use xlink:href="#rim" fill="#404040">
                                <set attributeName="fill" to="#808080" begin="zoomplus.mouseover" end="zoomplus.mouseout"/>
                        </use>
                        <path d="M-4,0h8M0,-4v8" fill="none" stroke="white" stroke-width="1.5" pointer-events="none"/>
                </g>
                <g id="zoomMin">
                        <use xlink:href="#rim" fill="#404040">
                                <set attributeName="fill" to="#808080" begin="zoomminus.mouseover" end="zoomminus.mouseout"/>
                        </use>
                        <path d="M-4,0h8" fill="none" stroke="white" stroke-width="1.5" pointer-events="none"/>
                </g>
                <g id="dirArrow">
                        <path fill="none" stroke="white" stroke-width="1.5" d="M0,-3.0v7 M-2.5,-0.5L0,-3.0L2.5,-0.5"/>
                </g>
               <g id="resetDef">
                       <use xlink:href="#rim2" fill="#404040">
                               <set attributeName="fill" to="#808080" begin="reset.mouseover" end="reset.mouseout"/>
                       </use>
               </g>
        </defs>

<script type="text/javascript">
var viewWidth = 1116;
var viewHeight = 364;
var sectionId = 'dynsection-0';
</script>
<script xlink:href="svgpan.js"/>
<svg id="graph" class="graph">
<g id="viewport">
<title>src/engine/Engine.hxx</title>
<!-- Node0 -->
<g id="node1" class="node">
<title>Node0</title>
<polygon fill="#bfbfbf" stroke="#000000" points="490,-336.5 490,-355.5 614,-355.5 614,-336.5 490,-336.5"/>
<text text-anchor="middle" x="552" y="-343.5" font-family="Helvetica,sans-Serif" font-size="10.00" fill="#000000">src/engine/Engine.hxx</text>
</g>
<!-- Node1 -->
<g id="node2" class="node">
<title>Node1</title>
<polygon fill="none" stroke="#bfbfbf" points="568,-56.5 568,-75.5 612,-75.5 612,-56.5 568,-56.5"/>
<text text-anchor="middle" x="590" y="-63.5" font-family="Helvetica,sans-Serif" font-size="10.00" fill="#000000">SDL.h</text>
</g>
<!-- Node0&#45;&gt;Node1 -->
<g id="edge1" class="edge">
<title>Node0&#45;&gt;Node1</title>
<path fill="none" stroke="#191970" d="M552,-336.4116C552,-317.0538 552,-271.9167 552,-234 552,-234 552,-234 552,-178 552,-143.6118 568.2634,-106.2832 579.511,-84.5791"/>
<polygon fill="#191970" stroke="#191970" points="582.7317,-85.9804 584.393,-75.5166 576.569,-82.6605 582.7317,-85.9804"/>
</g>
<!-- Node2 -->
<g id="node3" class="node">
<title>Node2</title>
<g id="a_node3"><a xlink:href="WindowManager_8hxx.html" target="_top" xlink:title="WindowManager.hxx">
<polygon fill="none" stroke="#000000" points="135,-112.5 135,-131.5 253,-131.5 253,-112.5 135,-112.5"/>
<text text-anchor="middle" x="194" y="-119.5" font-family="Helvetica,sans-Serif" font-size="10.00" fill="#000000">WindowManager.hxx</text>
</a>
</g>
</g>
<!-- Node0&#45;&gt;Node2 -->
<g id="edge2" class="edge">
<title>Node0&#45;&gt;Node2</title>
<path fill="none" stroke="#191970" d="M489.7305,-339.833C427.7789,-332.7169 337.9022,-319.4413 309,-300 249.8184,-260.1911 214.3216,-178.5973 200.5765,-141.3334"/>
<polygon fill="#191970" stroke="#191970" points="203.7903,-139.9246 197.1401,-131.6769 197.1954,-142.2716 203.7903,-139.9246"/>
</g>
<!-- Node6 -->
<g id="node7" class="node">
<title>Node6</title>
<g id="a_node7"><a xlink:href="Singleton_8hxx.html" target="_top" xlink:title="../util/Singleton.hxx">
<polygon fill="none" stroke="#000000" points="116.5,-56.5 116.5,-75.5 227.5,-75.5 227.5,-56.5 116.5,-56.5"/>
<text text-anchor="middle" x="172" y="-63.5" font-family="Helvetica,sans-Serif" font-size="10.00" fill="#000000">../util/Singleton.hxx</text>
</a>
</g>
</g>
<!-- Node0&#45;&gt;Node6 -->
<g id="edge37" class="edge">
<title>Node0&#45;&gt;Node6</title>
<path fill="none" stroke="#191970" d="M516.2188,-336.4663C451.8125,-318.2435 323,-276.4869 323,-234 323,-234 323,-234 323,-178 323,-125.049 262.3596,-94.2312 217.936,-78.7591"/>
<polygon fill="#191970" stroke="#191970" points="218.7618,-75.3452 208.1683,-75.509 216.5518,-81.9872 218.7618,-75.3452"/>
</g>
<!-- Node7 -->
<g id="node8" class="node">
<title>Node7</title>
<g id="a_node8"><a xlink:href="point_8hxx.html" target="_top" xlink:title="basics/point.hxx">
<polygon fill="none" stroke="#000000" points="972,-56.5 972,-75.5 1068,-75.5 1068,-56.5 972,-56.5"/>
<text text-anchor="middle" x="1020" y="-63.5" font-family="Helvetica,sans-Serif" font-size="10.00" fill="#000000">basics/point.hxx</text>
</a>
</g>
</g>
<!-- Node0&#45;&gt;Node7 -->
<g id="edge8" class="edge">
<title>Node0&#45;&gt;Node7</title>
<path fill="none" stroke="#191970" d="M614.1619,-339.9566C759.2481,-325.0157 1108,-283.9103 1108,-234 1108,-234 1108,-234 1108,-178 1108,-136.2321 1069.6916,-100.8241 1043.6258,-81.5662"/>
<polygon fill="#191970" stroke="#191970" points="1045.507,-78.6092 1035.3284,-75.6685 1041.4515,-84.3148 1045.507,-78.6092"/>
</g>
<!-- Node8 -->
<g id="node9" class="node">
<title>Node8</title>
<g id="a_node9"><a xlink:href="Map_8hxx.html" target="_top" xlink:title="Map.hxx">
<polygon fill="none" stroke="#000000" points="787,-280.5 787,-299.5 845,-299.5 845,-280.5 787,-280.5"/>
<text text-anchor="middle" x="816" y="-287.5" font-family="Helvetica,sans-Serif" font-size="10.00" fill="#000000">Map.hxx</text>
</a>
</g>
</g>
<!-- Node0&#45;&gt;Node8 -->
<g id="edge9" class="edge">
<title>Node0&#45;&gt;Node8</title>
<path fill="none" stroke="#191970" d="M597.0833,-336.4369C647.5734,-325.7269 728.6048,-308.5384 776.6364,-298.3498"/>
<polygon fill="#191970" stroke="#191970" points="777.5953,-301.7244 786.6513,-296.2255 776.1427,-294.8768 777.5953,-301.7244"/>
</g>
<!-- Node2&#45;&gt;Node1 -->
<g id="edge6" class="edge">
<title>Node2&#45;&gt;Node1</title>
<path fill="none" stroke="#191970" d="M253.0542,-117.9658C323.6581,-112.386 445.401,-100.3676 557.9684,-75.8868"/>
<polygon fill="#191970" stroke="#191970" points="558.7784,-79.2923 567.7861,-73.7144 557.266,-72.4576 558.7784,-79.2923"/>
</g>
<!-- Node3 -->
<g id="node4" class="node">
<title>Node3</title>
<polygon fill="none" stroke="#bfbfbf" points="362,-.5 362,-19.5 406,-19.5 406,-.5 362,-.5"/>
<text text-anchor="middle" x="384" y="-7.5" font-family="Helvetica,sans-Serif" font-size="10.00" fill="#000000">string</text>
</g>
<!-- Node2&#45;&gt;Node3 -->
<g id="edge3" class="edge">
<title>Node2&#45;&gt;Node3</title>
<path fill="none" stroke="#191970" d="M162.6348,-112.4757C130.0483,-101.0037 86.4668,-80.2242 107,-56 122.7405,-37.43 282.5561,-19.8339 352.0323,-12.9973"/>
<polygon fill="#191970" stroke="#191970" points="352.3712,-16.481 361.9861,-12.0309 351.6946,-9.5137 352.3712,-16.481"/>
</g>
<!-- Node4 -->
<g id="node5" class="node">
<title>Node4</title>
<polygon fill="none" stroke="#bfbfbf" points="0,-56.5 0,-75.5 60,-75.5 60,-56.5 0,-56.5"/>
<text text-anchor="middle" x="30" y="-63.5" font-family="Helvetica,sans-Serif" font-size="10.00" fill="#000000">iostream</text>
</g>
<!-- Node2&#45;&gt;Node4 -->
<g id="edge4" class="edge">
<title>Node2&#45;&gt;Node4</title>
<path fill="none" stroke="#191970" d="M165.8074,-112.3733C138.6547,-103.1016 97.4093,-89.0178 67.4975,-78.804"/>
<polygon fill="#191970" stroke="#191970" points="68.4192,-75.4204 57.8247,-75.5011 66.1572,-82.0449 68.4192,-75.4204"/>
</g>
<!-- Node5 -->
<g id="node6" class="node">
<title>Node5</title>
<polygon fill="none" stroke="#bfbfbf" points="906.5,-56.5 906.5,-75.5 953.5,-75.5 953.5,-56.5 906.5,-56.5"/>
<text text-anchor="middle" x="930" y="-63.5" font-family="Helvetica,sans-Serif" font-size="10.00" fill="#000000">vector</text>
</g>
<!-- Node2&#45;&gt;Node5 -->
<g id="edge5" class="edge">
<title>Node2&#45;&gt;Node5</title>
<path fill="none" stroke="#191970" d="M253.1126,-118.4294C393.0328,-109.8927 741.485,-88.1127 858,-76 870.5239,-74.698 884.2223,-72.892 896.2773,-71.1725"/>
<polygon fill="#191970" stroke="#191970" points="896.9875,-74.606 906.3772,-69.6985 895.9766,-67.6794 896.9875,-74.606"/>
</g>
<!-- Node2&#45;&gt;Node6 -->
<g id="edge7" class="edge">
<title>Node2&#45;&gt;Node6</title>
<path fill="none" stroke="#191970" d="M190.1679,-112.2455C187.2341,-104.7776 183.0953,-94.2427 179.509,-85.1137"/>
<polygon fill="#191970" stroke="#191970" points="182.7024,-83.6704 175.7882,-75.6427 176.1871,-86.23 182.7024,-83.6704"/>
</g>
<!-- Node8&#45;&gt;Node5 -->
<g id="edge10" class="edge">
<title>Node8&#45;&gt;Node5</title>
<path fill="none" stroke="#191970" d="M845.1974,-283.9772C881.1431,-275.9483 939.1456,-260.7864 953,-244 990.5837,-198.4623 987.981,-167.5606 968,-112 964.0564,-101.0341 956.2403,-90.8227 948.7169,-82.8204"/>
<polygon fill="#191970" stroke="#191970" points="951.0101,-80.1653 941.4453,-75.6084 946.0807,-85.1354 951.0101,-80.1653"/>
</g>
<!-- Node9 -->
<g id="node10" class="node">
<title>Node9</title>
<g id="a_node10"><a xlink:href="MapNode_8hxx.html" target="_top" xlink:title="GameObjects/MapNode.hxx">
<polygon fill="none" stroke="#000000" points="686,-168.5 686,-187.5 838,-187.5 838,-168.5 686,-168.5"/>
<text text-anchor="middle" x="762" y="-175.5" font-family="Helvetica,sans-Serif" font-size="10.00" fill="#000000">GameObjects/MapNode.hxx</text>
</a>
</g>
</g>
<!-- Node8&#45;&gt;Node9 -->
<g id="edge11" class="edge">
<title>Node8&#45;&gt;Node9</title>
<path fill="none" stroke="#191970" d="M810.6944,-280.2081C805.7243,-270.9488 798.1597,-256.6301 792,-244 784.425,-228.4678 776.3461,-210.6121 770.4827,-197.3927"/>
<polygon fill="#191970" stroke="#191970" points="773.5428,-195.6573 766.3073,-187.9179 767.1372,-198.4802 773.5428,-195.6573"/>
</g>
<!-- Node19 -->
<g id="node20" class="node">
<title>Node19</title>
<g id="a_node20"><a xlink:href="TerrainGenerator_8hxx.html" target="_top" xlink:title="map/TerrainGenerator.hxx">
<polygon fill="none" stroke="#000000" points="800.5,-224.5 800.5,-243.5 943.5,-243.5 943.5,-224.5 800.5,-224.5"/>
<text text-anchor="middle" x="872" y="-231.5" font-family="Helvetica,sans-Serif" font-size="10.00" fill="#000000">map/TerrainGenerator.hxx</text>
</a>
</g>
</g>
<!-- Node8&#45;&gt;Node19 -->
<g id="edge33" class="edge">
<title>Node8&#45;&gt;Node19</title>
<path fill="none" stroke="#191970" d="M825.7545,-280.2455C833.8648,-272.1352 845.5925,-260.4075 855.2081,-250.7919"/>
<polygon fill="#191970" stroke="#191970" points="857.7611,-253.1887 862.3573,-243.6427 852.8113,-248.2389 857.7611,-253.1887"/>
</g>
<!-- Node9&#45;&gt;Node1 -->
<g id="edge12" class="edge">
<title>Node9&#45;&gt;Node1</title>
<path fill="none" stroke="#191970" d="M716.2673,-168.4661C678.525,-159.7728 628.8473,-146.1593 614,-132 601.2034,-119.7964 595.2032,-100.2372 592.4058,-85.5735"/>
<polygon fill="#191970" stroke="#191970" points="595.8361,-84.8555 590.8314,-75.5172 588.9203,-85.9383 595.8361,-84.8555"/>
</g>
<!-- Node9&#45;&gt;Node3 -->
<g id="edge14" class="edge">
<title>Node9&#45;&gt;Node3</title>
<path fill="none" stroke="#191970" d="M737.8955,-168.3958C719.8461,-160.4302 695.2304,-147.8577 677,-132 645.3435,-104.4635 656.4647,-78.4198 621,-56 587.3009,-34.6964 472.8083,-19.6526 416.2107,-13.3294"/>
<polygon fill="#191970" stroke="#191970" points="416.3474,-9.8236 406.0263,-12.2162 415.5867,-16.7822 416.3474,-9.8236"/>
</g>
<!-- Node9&#45;&gt;Node5 -->
<g id="edge16" class="edge">
<title>Node9&#45;&gt;Node5</title>
<path fill="none" stroke="#191970" d="M831.7687,-168.4682C874.665,-161.0165 923.8597,-149.0406 937,-132 947.1915,-118.7833 943.6096,-99.3943 938.5775,-85.0485"/>
<polygon fill="#191970" stroke="#191970" points="941.787,-83.6477 934.8333,-75.6542 935.2844,-86.2394 941.787,-83.6477"/>
</g>
<!-- Node9&#45;&gt;Node7 -->
<g id="edge24" class="edge">
<title>Node9&#45;&gt;Node7</title>
<path fill="none" stroke="#191970" d="M838.459,-169.5317C875.1557,-163.0714 918.706,-151.7547 954,-132 975.5131,-119.9587 994.7664,-98.919 1006.8476,-83.8293"/>
<polygon fill="#191970" stroke="#191970" points="1009.7495,-85.7981 1013.095,-75.7453 1004.2107,-81.5177 1009.7495,-85.7981"/>
</g>
<!-- Node10 -->
<g id="node11" class="node">
<title>Node10</title>
<polygon fill="none" stroke="#bfbfbf" points="694,-112.5 694,-131.5 752,-131.5 752,-112.5 694,-112.5"/>
<text text-anchor="middle" x="723" y="-119.5" font-family="Helvetica,sans-Serif" font-size="10.00" fill="#000000">memory</text>
</g>
<!-- Node9&#45;&gt;Node10 -->
<g id="edge13" class="edge">
<title>Node9&#45;&gt;Node10</title>
<path fill="none" stroke="#191970" d="M755.2067,-168.2455C749.7822,-160.4564 742.0339,-149.3308 735.4967,-139.9439"/>
<polygon fill="#191970" stroke="#191970" points="738.3025,-137.8485 729.7154,-131.6427 732.5583,-141.849 738.3025,-137.8485"/>
</g>
<!-- Node11 -->
<g id="node12" class="node">
<title>Node11</title>
<polygon fill="none" stroke="#bfbfbf" points="770,-112.5 770,-131.5 834,-131.5 834,-112.5 770,-112.5"/>
<text text-anchor="middle" x="802" y="-119.5" font-family="Helvetica,sans-Serif" font-size="10.00" fill="#000000">algorithm</text>
</g>
<!-- Node9&#45;&gt;Node11 -->
<g id="edge15" class="edge">
<title>Node9&#45;&gt;Node11</title>
<path fill="none" stroke="#191970" d="M768.9675,-168.2455C774.5311,-160.4564 782.478,-149.3308 789.1829,-139.9439"/>
<polygon fill="#191970" stroke="#191970" points="792.148,-141.8144 795.1124,-131.6427 786.4519,-137.7457 792.148,-141.8144"/>
</g>
<!-- Node12 -->
<g id="node13" class="node">
<title>Node12</title>
<g id="a_node13"><a xlink:href="Sprite_8hxx.html" target="_top" xlink:title="../Sprite.hxx">
<polygon fill="none" stroke="#000000" points="852.5,-112.5 852.5,-131.5 927.5,-131.5 927.5,-112.5 852.5,-112.5"/>
<text text-anchor="middle" x="890" y="-119.5" font-family="Helvetica,sans-Serif" font-size="10.00" fill="#000000">../Sprite.hxx</text>
</a>
</g>
</g>
<!-- Node9&#45;&gt;Node12 -->
<g id="edge17" class="edge">
<title>Node9&#45;&gt;Node12</title>
<path fill="none" stroke="#191970" d="M784.004,-168.3733C804.6435,-159.3435 835.7158,-145.7494 858.8889,-135.6111"/>
<polygon fill="#191970" stroke="#191970" points="860.5245,-138.7159 868.2831,-131.5011 857.7187,-132.3028 860.5245,-138.7159"/>
</g>
<!-- Node13 -->
<g id="node14" class="node">
<title>Node13</title>
<g id="a_node14"><a xlink:href="enums_8hxx.html" target="_top" xlink:title="common/enums.hxx">
<polygon fill="none" stroke="#000000" points="733,-56.5 733,-75.5 849,-75.5 849,-56.5 733,-56.5"/>
<text text-anchor="middle" x="791" y="-63.5" font-family="Helvetica,sans-Serif" font-size="10.00" fill="#000000">common/enums.hxx</text>
</a>
</g>
</g>
<!-- Node9&#45;&gt;Node13 -->
<g id="edge23" class="edge">
<title>Node9&#45;&gt;Node13</title>
<path fill="none" stroke="#191970" d="M734.4493,-168.4271C706.3267,-157.0565 668.9179,-136.5102 685,-112 695.3535,-96.2205 712.4128,-85.8264 729.8509,-78.9905"/>
<polygon fill="#191970" stroke="#191970" points="731.2874,-82.1945 739.5375,-75.5472 728.9428,-75.5988 731.2874,-82.1945"/>
</g>
<!-- Node15 -->
<g id="node16" class="node">
<title>Node15</title>
<g id="a_node16"><a xlink:href="TileManager_8hxx.html" target="_top" xlink:title="../TileManager.hxx">
<polygon fill="none" stroke="#000000" points="372,-112.5 372,-131.5 478,-131.5 478,-112.5 372,-112.5"/>
<text text-anchor="middle" x="425" y="-119.5" font-family="Helvetica,sans-Serif" font-size="10.00" fill="#000000">../TileManager.hxx</text>
</a>
</g>
</g>
<!-- Node9&#45;&gt;Node15 -->
<g id="edge25" class="edge">
<title>Node9&#45;&gt;Node15</title>
<path fill="none" stroke="#191970" d="M704.4505,-168.4369C644.3495,-158.4498 550.3476,-142.8293 488.2147,-132.5045"/>
<polygon fill="#191970" stroke="#191970" points="488.5841,-129.018 478.1456,-130.8313 487.4365,-135.9233 488.5841,-129.018"/>
</g>
<!-- Node12&#45;&gt;Node1 -->
<g id="edge18" class="edge">
<title>Node12&#45;&gt;Node1</title>
<path fill="none" stroke="#191970" d="M852.3102,-113.8777C849.1631,-113.2309 846.0283,-112.5973 843,-112 763.7993,-96.3779 670.2572,-79.8746 622.1486,-71.5291"/>
<polygon fill="#191970" stroke="#191970" points="622.4891,-68.0361 612.0387,-69.7795 621.2953,-74.9335 622.4891,-68.0361"/>
</g>
<!-- Node12&#45;&gt;Node5 -->
<g id="edge19" class="edge">
<title>Node12&#45;&gt;Node5</title>
<path fill="none" stroke="#191970" d="M896.9675,-112.2455C902.5311,-104.4564 910.478,-93.3308 917.1829,-83.9439"/>
<polygon fill="#191970" stroke="#191970" points="920.148,-85.8144 923.1124,-75.6427 914.4519,-81.7457 920.148,-85.8144"/>
</g>
<!-- Node12&#45;&gt;Node7 -->
<g id="edge20" class="edge">
<title>Node12&#45;&gt;Node7</title>
<path fill="none" stroke="#191970" d="M912.3478,-112.3733C933.4033,-103.3032 965.1495,-89.6279 988.7175,-79.4755"/>
<polygon fill="#191970" stroke="#191970" points="990.1444,-82.6719 997.9438,-75.5011 987.375,-76.243 990.1444,-82.6719"/>
</g>
<!-- Node12&#45;&gt;Node13 -->
<g id="edge21" class="edge">
<title>Node12&#45;&gt;Node13</title>
<path fill="none" stroke="#191970" d="M872.7555,-112.2455C857.4239,-103.5731 834.7801,-90.7645 817.2084,-80.825"/>
<polygon fill="#191970" stroke="#191970" points="818.4741,-77.5198 808.0469,-75.6427 815.0276,-83.6126 818.4741,-77.5198"/>
</g>
<!-- Node14 -->
<g id="node15" class="node">
<title>Node14</title>
<polygon fill="none" stroke="#bfbfbf" points="763,-.5 763,-19.5 819,-19.5 819,-.5 763,-.5"/>
<text text-anchor="middle" x="791" y="-7.5" font-family="Helvetica,sans-Serif" font-size="10.00" fill="#000000">stddef.h</text>
</g>
<!-- Node13&#45;&gt;Node14 -->
<g id="edge22" class="edge">
<title>Node13&#45;&gt;Node14</title>
<path fill="none" stroke="#191970" d="M791,-56.2455C791,-48.9382 791,-38.6944 791,-29.7046"/>
<polygon fill="#191970" stroke="#191970" points="794.5001,-29.6426 791,-19.6427 787.5001,-29.6427 794.5001,-29.6426"/>
</g>
<!-- Node15&#45;&gt;Node1 -->
<g id="edge26" class="edge">
<title>Node15&#45;&gt;Node1</title>
<path fill="none" stroke="#191970" d="M453.3645,-112.3733C482.5039,-102.4835 527.7756,-87.1186 558.1331,-76.8154"/>
<polygon fill="#191970" stroke="#191970" points="559.467,-80.0589 567.8116,-73.5306 557.2173,-73.4302 559.467,-80.0589"/>
</g>
<!-- Node15&#45;&gt;Node3 -->
<g id="edge28" class="edge">
<title>Node15&#45;&gt;Node3</title>
<path fill="none" stroke="#191970" d="M371.8272,-112.463C333.9073,-104.4538 287.6534,-91.7939 276,-76 253.0767,-44.9322 312.4961,-25.4202 352.0252,-16.2366"/>
<polygon fill="#191970" stroke="#191970" points="352.8182,-19.6459 361.8285,-14.0723 351.3091,-12.8105 352.8182,-19.6459"/>
</g>
<!-- Node15&#45;&gt;Node6 -->
<g id="edge32" class="edge">
<title>Node15&#45;&gt;Node6</title>
<path fill="none" stroke="#191970" d="M381.7952,-112.4369C338.4053,-102.8328 271.4791,-88.0191 224.9274,-77.7152"/>
<polygon fill="#191970" stroke="#191970" points="225.5467,-74.2676 215.0266,-75.5237 224.0338,-81.1022 225.5467,-74.2676"/>
</g>
<!-- Node16 -->
<g id="node17" class="node">
<title>Node16</title>
<polygon fill="none" stroke="#bfbfbf" points="284.5,-56.5 284.5,-75.5 377.5,-75.5 377.5,-56.5 284.5,-56.5"/>
<text text-anchor="middle" x="331" y="-63.5" font-family="Helvetica,sans-Serif" font-size="10.00" fill="#000000">unordered_map</text>
</g>
<!-- Node15&#45;&gt;Node16 -->
<g id="edge27" class="edge">
<title>Node15&#45;&gt;Node16</title>
<path fill="none" stroke="#191970" d="M408.6264,-112.2455C394.0692,-103.5731 372.569,-90.7645 355.8848,-80.825"/>
<polygon fill="#191970" stroke="#191970" points="357.5683,-77.7539 347.1859,-75.6427 353.9856,-83.7676 357.5683,-77.7539"/>
</g>
<!-- Node17 -->
<g id="node18" class="node">
<title>Node17</title>
<g id="a_node18"><a xlink:href="tileData_8hxx.html" target="_top" xlink:title="tileData.hxx">
<polygon fill="none" stroke="#000000" points="472.5,-56.5 472.5,-75.5 549.5,-75.5 549.5,-56.5 472.5,-56.5"/>
<text text-anchor="middle" x="511" y="-63.5" font-family="Helvetica,sans-Serif" font-size="10.00" fill="#000000">tileData.hxx</text>
</a>
</g>
</g>
<!-- Node15&#45;&gt;Node17 -->
<g id="edge29" class="edge">
<title>Node15&#45;&gt;Node17</title>
<path fill="none" stroke="#191970" d="M439.9801,-112.2455C453.1751,-103.6534 472.6051,-91.0014 487.8079,-81.1018"/>
<polygon fill="#191970" stroke="#191970" points="489.7215,-84.0325 496.1916,-75.6427 485.9017,-78.1665 489.7215,-84.0325"/>
</g>
<!-- Node18 -->
<g id="node19" class="node">
<title>Node18</title>
<polygon fill="none" stroke="#bfbfbf" points="396,-56.5 396,-75.5 454,-75.5 454,-56.5 396,-56.5"/>
<text text-anchor="middle" x="425" y="-63.5" font-family="Helvetica,sans-Serif" font-size="10.00" fill="#000000">json.hxx</text>
</g>
<!-- Node15&#45;&gt;Node18 -->
<g id="edge31" class="edge">
<title>Node15&#45;&gt;Node18</title>
<path fill="none" stroke="#191970" d="M425,-112.2455C425,-104.9382 425,-94.6944 425,-85.7046"/>
<polygon fill="#191970" stroke="#191970" points="428.5001,-85.6426 425,-75.6427 421.5001,-85.6427 428.5001,-85.6426"/>
</g>
<!-- Node17&#45;&gt;Node3 -->
<g id="edge30" class="edge">
<title>Node17&#45;&gt;Node3</title>
<path fill="none" stroke="#191970" d="M489.1679,-56.3733C468.6897,-47.3435 437.8601,-33.7494 414.8681,-23.6111"/>
<polygon fill="#191970" stroke="#191970" points="416.1093,-20.3333 405.5472,-19.5011 413.285,-26.7383 416.1093,-20.3333"/>
</g>
<!-- Node19&#45;&gt;Node5 -->
<g id="edge36" class="edge">
<title>Node19&#45;&gt;Node5</title>
<path fill="none" stroke="#191970" d="M883.5844,-224.4988C902.6389,-208.0294 939.8881,-172.0766 954,-132 959.6699,-115.8978 951.9583,-97.6662 943.8068,-84.4513"/>
<polygon fill="#191970" stroke="#191970" points="946.4745,-82.1475 937.9785,-75.8175 940.6727,-86.0641 946.4745,-82.1475"/>
</g>
<!-- Node19&#45;&gt;Node9 -->
<g id="edge34" class="edge">
<title>Node19&#45;&gt;Node9</title>
<path fill="none" stroke="#191970" d="M852.8395,-224.2455C835.4889,-215.4125 809.7099,-202.2887 790.0417,-192.2758"/>
<polygon fill="#191970" stroke="#191970" points="791.4405,-189.0605 780.941,-187.6427 788.2647,-195.2986 791.4405,-189.0605"/>
</g>
<!-- Node20 -->
<g id="node21" class="node">
<title>Node20</title>
<polygon fill="none" stroke="#bfbfbf" points="856,-168.5 856,-187.5 894,-187.5 894,-168.5 856,-168.5"/>
<text text-anchor="middle" x="875" y="-175.5" font-family="Helvetica,sans-Serif" font-size="10.00" fill="#000000">map</text>
</g>
<!-- Node19&#45;&gt;Node20 -->
<g id="edge35" class="edge">
<title>Node19&#45;&gt;Node20</title>
<path fill="none" stroke="#191970" d="M872.5226,-224.2455C872.914,-216.9382 873.4628,-206.6944 873.9444,-197.7046"/>
<polygon fill="#191970" stroke="#191970" points="877.4434,-197.8156 874.4834,-187.6427 870.4534,-197.4411 877.4434,-197.8156"/>
</g>
</g>
</svg>
        <g id="navigator" transform="translate(0 0)" fill="#404254">
                <rect fill="#f2f5e9" fill-opacity="0.5" stroke="#606060" stroke-width=".5" x="0" y="0" width="60" height="60"/>
                <use id="zoomplus" xlink:href="#zoomPlus" x="17" y="9" onmousedown="handleZoom(evt,'in')"/>
                <use id="zoomminus" xlink:href="#zoomMin" x="42" y="9" onmousedown="handleZoom(evt,'out')"/>
                <use id="reset" xlink:href="#resetDef" x="30" y="36" onmousedown="handleReset()"/>
                <g id="arrowUp" xlink:href="#dirArrow" transform="translate(30 24)" onmousedown="handlePan(0,-1)">
                  <use xlink:href="#rim" fill="#404040">
                        <set attributeName="fill" to="#808080" begin="arrowUp.mouseover" end="arrowUp.mouseout"/>
                  </use>
                  <path fill="none" stroke="white" stroke-width="1.5" d="M0,-3.0v7 M-2.5,-0.5L0,-3.0L2.5,-0.5"/>
                </g>
                <g id="arrowRight" xlink:href="#dirArrow" transform="rotate(90) translate(36 -43)" onmousedown="handlePan(1,0)">
                  <use xlink:href="#rim" fill="#404040">
                        <set attributeName="fill" to="#808080" begin="arrowRight.mouseover" end="arrowRight.mouseout"/>
                  </use>
                  <path fill="none" stroke="white" stroke-width="1.5" d="M0,-3.0v7 M-2.5,-0.5L0,-3.0L2.5,-0.5"/>
                </g>
                <g id="arrowDown" xlink:href="#dirArrow" transform="rotate(180) translate(-30 -48)" onmousedown="handlePan(0,1)">
                  <use xlink:href="#rim" fill="#404040">
                        <set attributeName="fill" to="#808080" begin="arrowDown.mouseover" end="arrowDown.mouseout"/>
                  </use>
                  <path fill="none" stroke="white" stroke-width="1.5" d="M0,-3.0v7 M-2.5,-0.5L0,-3.0L2.5,-0.5"/>
                </g>
                <g id="arrowLeft" xlink:href="#dirArrow" transform="rotate(270) translate(-36 17)" onmousedown="handlePan(-1,0)">
                  <use xlink:href="#rim" fill="#404040">
                        <set attributeName="fill" to="#808080" begin="arrowLeft.mouseover" end="arrowLeft.mouseout"/>
                  </use>
                  <path fill="none" stroke="white" stroke-width="1.5" d="M0,-3.0v7 M-2.5,-0.5L0,-3.0L2.5,-0.5"/>
                </g>
        </g>
        <svg viewBox="0 0 15 15" width="100%" height="30px" preserveAspectRatio="xMaxYMin meet">
         <g id="arrow_out" transform="scale(0.3 0.3)">
          <a xlink:href="Engine_8hxx__incl_org.svg" target="_base">
           <rect id="button" ry="5" rx="5" y="6" x="6" height="38" width="38"
                fill="#f2f5e9" fill-opacity="0.5" stroke="#606060" stroke-width="1.0"/>
           <path id="arrow"
             d="M 11.500037,31.436501 C 11.940474,20.09759 22.043105,11.32322 32.158766,21.979434 L 37.068811,17.246167 C 37.068811,17.246167 37.088388,32 37.088388,32 L 22.160133,31.978069 C 22.160133,31.978069 26.997745,27.140456 26.997745,27.140456 C 18.528582,18.264221 13.291696,25.230495 11.500037,31.436501 z"
             style="fill:#404040;"/>
          </a>
         </g>
        </svg>
</svg>
