<?xml version="1.0" encoding="UTF-8" standalone="no"?>
<!DOCTYPE svg PUBLIC "-//W3C//DTD SVG 1.1//EN"
 "http://www.w3.org/Graphics/SVG/1.1/DTD/svg11.dtd">
<!-- Generated by graphviz version 2.40.1 (20161225.0304)
 -->
<!-- Title: src/engine/common/enums.hxx Pages: 1 -->
<!--zoomable 442 -->
<svg id="main" version="1.1" xmlns="http://www.w3.org/2000/svg" xmlns:xlink="http://www.w3.org/1999/xlink" xml:space="preserve" onload="init(evt)">
<style type="text/css"><![CDATA[
.edge:hover path { stroke: red; }
.edge:hover polygon { stroke: red; fill: red; }
]]></style>
<script type="text/javascript"><![CDATA[
var edges = document.getElementsByTagName('g');
if (edges && edges.length) {
  for (var i=0;i<edges.length;i++) {
    if (edges[i].id.substr(0,4)=='edge') {
      edges[i].setAttribute('class','edge');
    }
  }
}
]]></script>
        <defs>
                <circle id="rim" cx="0" cy="0" r="7"/>
                <circle id="rim2" cx="0" cy="0" r="3.5"/>
                <g id="zoomPlus">
                        <use xlink:href="#rim" fill="#404040">
                                <set attributeName="fill" to="#808080" begin="zoomplus.mouseover" end="zoomplus.mouseout"/>
                        </use>
                        <path d="M-4,0h8M0,-4v8" fill="none" stroke="white" stroke-width="1.5" pointer-events="none"/>
                </g>
                <g id="zoomMin">
                        <use xlink:href="#rim" fill="#404040">
                                <set attributeName="fill" to="#808080" begin="zoomminus.mouseover" end="zoomminus.mouseout"/>
                        </use>
                        <path d="M-4,0h8" fill="none" stroke="white" stroke-width="1.5" pointer-events="none"/>
                </g>
                <g id="dirArrow">
                        <path fill="none" stroke="white" stroke-width="1.5" d="M0,-3.0v7 M-2.5,-0.5L0,-3.0L2.5,-0.5"/>
                </g>
               <g id="resetDef">
                       <use xlink:href="#rim2" fill="#404040">
                               <set attributeName="fill" to="#808080" begin="reset.mouseover" end="reset.mouseout"/>
                       </use>
               </g>
        </defs>

<script type="text/javascript">
var viewWidth = 1166;
var viewHeight = 442;
var sectionId = 'dynsection-1';
</script>
<script xlink:href="svgpan.js"/>
<svg id="graph" class="graph">
<g id="viewport">
<title>src/engine/common/enums.hxx</title>
<!-- Node2 -->
<g id="node1" class="node">
<title>Node2</title>
<polygon fill="#bfbfbf" stroke="#000000" points="856,-414.5 856,-433.5 1026,-433.5 1026,-414.5 856,-414.5"/>
<text text-anchor="middle" x="941" y="-421.5" font-family="Helvetica,sans-Serif" font-size="10.00" fill="#000000">src/engine/common/enums.hxx</text>
</g>
<!-- Node3 -->
<g id="node2" class="node">
<title>Node3</title>
<g id="a_node2"><a xlink:href="Sprite_8hxx.html" target="_top" xlink:title="src/engine/Sprite.hxx">
<polygon fill="none" stroke="#000000" points="903.5,-358.5 903.5,-377.5 1022.5,-377.5 1022.5,-358.5 903.5,-358.5"/>
<text text-anchor="middle" x="963" y="-365.5" font-family="Helvetica,sans-Serif" font-size="10.00" fill="#000000">src/engine/Sprite.hxx</text>
</a>
</g>
</g>
<!-- Node2&#45;&gt;Node3 -->
<g id="edge1" class="edge">
<title>Node2&#45;&gt;Node3</title>
<path fill="none" stroke="#191970" d="M948.5628,-404.7493C952.1546,-395.6064 956.2901,-385.0798 959.2118,-377.6427"/>
<polygon fill="#191970" stroke="#191970" points="945.2311,-403.6582 944.8321,-414.2455 951.7463,-406.2178 945.2311,-403.6582"/>
</g>
<!-- Node4 -->
<g id="node3" class="node">
<title>Node4</title>
<g id="a_node3"><a xlink:href="MapNode_8hxx.html" target="_top" xlink:title="src/engine/GameObjects\l/MapNode.hxx">
<polygon fill="none" stroke="#000000" points="510,-291.5 510,-321.5 646,-321.5 646,-291.5 510,-291.5"/>
<text text-anchor="start" x="518" y="-309.5" font-family="Helvetica,sans-Serif" font-size="10.00" fill="#000000">src/engine/GameObjects</text>
<text text-anchor="middle" x="578" y="-298.5" font-family="Helvetica,sans-Serif" font-size="10.00" fill="#000000">/MapNode.hxx</text>
</a>
</g>
</g>
<!-- Node2&#45;&gt;Node4 -->
<g id="edge29" class="edge">
<title>Node2&#45;&gt;Node4</title>
<path fill="none" stroke="#191970" d="M901.7876,-411.3073C834.337,-389.4741 696.6594,-344.909 624.4923,-321.5492"/>
<polygon fill="#191970" stroke="#191970" points="901.0098,-414.7342 911.6017,-414.484 903.1656,-408.0744 901.0098,-414.7342"/>
</g>
<!-- Node11 -->
<g id="node10" class="node">
<title>Node11</title>
<g id="a_node10"><a xlink:href="EventManager_8cxx.html" target="_top" xlink:title="src/engine/EventManager.cxx">
<polygon fill="none" stroke="#000000" points="949.5,-.5 949.5,-19.5 1108.5,-19.5 1108.5,-.5 949.5,-.5"/>
<text text-anchor="middle" x="1029" y="-7.5" font-family="Helvetica,sans-Serif" font-size="10.00" fill="#000000">src/engine/EventManager.cxx</text>
</a>
</g>
</g>
<!-- Node2&#45;&gt;Node11 -->
<g id="edge30" class="edge">
<title>Node2&#45;&gt;Node11</title>
<path fill="none" stroke="#191970" d="M1026.3249,-412.3058C1087.0781,-398.6128 1158,-369.2003 1158,-306.5 1158,-306.5 1158,-306.5 1158,-122 1158,-68.4654 1093.8696,-34.7438 1056.0426,-19.5097"/>
<polygon fill="#191970" stroke="#191970" points="1025.3355,-408.9381 1016.2871,-414.4495 1026.7976,-415.7837 1025.3355,-408.9381"/>
</g>
<!-- Node23 -->
<g id="node22" class="node">
<title>Node23</title>
<g id="a_node22"><a xlink:href="MapLayers_8hxx.html" target="_top" xlink:title="src/engine/map/MapLayers.hxx">
<polygon fill="none" stroke="#000000" points="750,-297 750,-316 918,-316 918,-297 750,-297"/>
<text text-anchor="middle" x="834" y="-304" font-family="Helvetica,sans-Serif" font-size="10.00" fill="#000000">src/engine/map/MapLayers.hxx</text>
</a>
</g>
</g>
<!-- Node2&#45;&gt;Node23 -->
<g id="edge31" class="edge">
<title>Node2&#45;&gt;Node23</title>
<path fill="none" stroke="#191970" d="M923.3297,-407.4972C914.339,-398.9044 903.3615,-388.1063 894,-378 874.1783,-356.6013 852.5678,-329.946 841.4835,-316.0054"/>
<polygon fill="#191970" stroke="#191970" points="920.9607,-410.0741 930.6286,-414.408 925.7735,-404.9911 920.9607,-410.0741"/>
</g>
<!-- Node3&#45;&gt;Node4 -->
<g id="edge2" class="edge">
<title>Node3&#45;&gt;Node4</title>
<path fill="none" stroke="#191970" d="M893.2067,-356.8512C823.136,-345.6581 715.8683,-328.5231 646.3235,-317.414"/>
<polygon fill="#191970" stroke="#191970" points="892.8392,-360.3368 903.2662,-358.4581 893.9435,-353.4244 892.8392,-360.3368"/>
</g>
<!-- Node3&#45;&gt;Node11 -->
<g id="edge27" class="edge">
<title>Node3&#45;&gt;Node11</title>
<path fill="none" stroke="#191970" d="M1003.175,-354.9275C1049.6915,-336.9677 1120,-299.8415 1120,-239.5 1120,-239.5 1120,-239.5 1120,-122 1120,-74.8992 1070.9231,-36.5754 1044.851,-19.5391"/>
<polygon fill="#191970" stroke="#191970" points="1001.7977,-351.7054 993.6439,-358.4705 1004.2368,-358.2668 1001.7977,-351.7054"/>
</g>
<!-- Node22 -->
<g id="node21" class="node">
<title>Node22</title>
<g id="a_node21"><a xlink:href="Sprite_8cxx.html" target="_top" xlink:title="src/engine/Sprite.cxx">
<polygon fill="none" stroke="#000000" points="972.5,-230 972.5,-249 1091.5,-249 1091.5,-230 972.5,-230"/>
<text text-anchor="middle" x="1032" y="-237" font-family="Helvetica,sans-Serif" font-size="10.00" fill="#000000">src/engine/Sprite.cxx</text>
</a>
</g>
</g>
<!-- Node3&#45;&gt;Node22 -->
<g id="edge28" class="edge">
<title>Node3&#45;&gt;Node22</title>
<path fill="none" stroke="#191970" d="M973.0523,-349.2794C987.9367,-321.56 1015.3089,-270.5841 1026.7536,-249.2705"/>
<polygon fill="#191970" stroke="#191970" points="969.8335,-347.8756 968.1862,-358.3416 976.0006,-351.1872 969.8335,-347.8756"/>
</g>
<!-- Node5 -->
<g id="node4" class="node">
<title>Node5</title>
<g id="a_node4"><a xlink:href="Map_8hxx.html" target="_top" xlink:title="src/engine/Map.hxx">
<polygon fill="none" stroke="#000000" points="750.5,-168.5 750.5,-187.5 861.5,-187.5 861.5,-168.5 750.5,-168.5"/>
<text text-anchor="middle" x="806" y="-175.5" font-family="Helvetica,sans-Serif" font-size="10.00" fill="#000000">src/engine/Map.hxx</text>
</a>
</g>
</g>
<!-- Node4&#45;&gt;Node5 -->
<g id="edge3" class="edge">
<title>Node4&#45;&gt;Node5</title>
<path fill="none" stroke="#191970" d="M558.4629,-283.0275C546.0878,-265.1854 534.8486,-240.9092 549,-224 574.1636,-193.9325 682.6839,-183.4958 750.4073,-179.8889"/>
<polygon fill="#191970" stroke="#191970" points="555.7584,-285.2565 564.523,-291.2089 561.3834,-281.09 555.7584,-285.2565"/>
</g>
<!-- Node16 -->
<g id="node15" class="node">
<title>Node16</title>
<g id="a_node15"><a xlink:href="TerrainGenerator_8hxx.html" target="_top" xlink:title="src/engine/map/TerrainGenerator.hxx">
<polygon fill="none" stroke="#000000" points="304.5,-230 304.5,-249 501.5,-249 501.5,-230 304.5,-230"/>
<text text-anchor="middle" x="403" y="-237" font-family="Helvetica,sans-Serif" font-size="10.00" fill="#000000">src/engine/map/TerrainGenerator.hxx</text>
</a>
</g>
</g>
<!-- Node4&#45;&gt;Node16 -->
<g id="edge17" class="edge">
<title>Node4&#45;&gt;Node16</title>
<path fill="none" stroke="#191970" d="M529.256,-287.838C496.2858,-275.2151 454.1154,-259.0699 427.8272,-249.0053"/>
<polygon fill="#191970" stroke="#191970" points="528.1362,-291.157 538.7266,-291.4639 530.6391,-284.6197 528.1362,-291.157"/>
</g>
<!-- Node17 -->
<g id="node16" class="node">
<title>Node17</title>
<g id="a_node16"><a xlink:href="JsonSerialization_8hxx.html" target="_top" xlink:title="src/engine/common/JsonSerialization.hxx">
<polygon fill="none" stroke="#000000" points="256,-168.5 256,-187.5 474,-187.5 474,-168.5 256,-168.5"/>
<text text-anchor="middle" x="365" y="-175.5" font-family="Helvetica,sans-Serif" font-size="10.00" fill="#000000">src/engine/common/JsonSerialization.hxx</text>
</a>
</g>
</g>
<!-- Node4&#45;&gt;Node17 -->
<g id="edge25" class="edge">
<title>Node4&#45;&gt;Node17</title>
<path fill="none" stroke="#191970" d="M499.5547,-303.166C425.0232,-298.1564 320.6305,-285.7156 295,-255 286.1727,-244.4214 288.4587,-236.1259 295,-224 304.3206,-206.7221 323.2773,-194.8748 339.115,-187.5353"/>
<polygon fill="#191970" stroke="#191970" points="499.6591,-306.6798 509.862,-303.8247 500.1056,-299.694 499.6591,-306.6798"/>
</g>
<!-- Node21 -->
<g id="node20" class="node">
<title>Node21</title>
<g id="a_node20"><a xlink:href="MapNode_8cxx.html" target="_top" xlink:title="src/engine/GameObjects\l/MapNode.cxx">
<polygon fill="none" stroke="#000000" points="558,-224.5 558,-254.5 694,-254.5 694,-224.5 558,-224.5"/>
<text text-anchor="start" x="566" y="-242.5" font-family="Helvetica,sans-Serif" font-size="10.00" fill="#000000">src/engine/GameObjects</text>
<text text-anchor="middle" x="626" y="-231.5" font-family="Helvetica,sans-Serif" font-size="10.00" fill="#000000">/MapNode.cxx</text>
</a>
</g>
</g>
<!-- Node4&#45;&gt;Node21 -->
<g id="edge26" class="edge">
<title>Node4&#45;&gt;Node21</title>
<path fill="none" stroke="#191970" d="M594.791,-283.0626C601.5476,-273.6315 609.1444,-263.0276 615.1512,-254.6432"/>
<polygon fill="#191970" stroke="#191970" points="591.8706,-281.1292 588.8919,-291.2967 597.561,-285.2059 591.8706,-281.1292"/>
</g>
<!-- Node6 -->
<g id="node5" class="node">
<title>Node6</title>
<g id="a_node5"><a xlink:href="Engine_8hxx.html" target="_top" xlink:title="src/engine/Engine.hxx">
<polygon fill="none" stroke="#000000" points="694,-112.5 694,-131.5 818,-131.5 818,-112.5 694,-112.5"/>
<text text-anchor="middle" x="756" y="-119.5" font-family="Helvetica,sans-Serif" font-size="10.00" fill="#000000">src/engine/Engine.hxx</text>
</a>
</g>
</g>
<!-- Node5&#45;&gt;Node6 -->
<g id="edge4" class="edge">
<title>Node5&#45;&gt;Node6</title>
<path fill="none" stroke="#191970" d="M790.3753,-160.5004C781.8727,-150.9775 771.6782,-139.5596 764.6095,-131.6427"/>
<polygon fill="#191970" stroke="#191970" points="788.0197,-163.1172 797.2907,-168.2455 793.2413,-158.4551 788.0197,-163.1172"/>
</g>
<!-- Node5&#45;&gt;Node11 -->
<g id="edge14" class="edge">
<title>Node5&#45;&gt;Node11</title>
<path fill="none" stroke="#191970" d="M834.7741,-163.8174C869.3548,-146.014 928.1903,-113.2546 972,-76 992.5299,-58.5419 1012.0676,-33.4531 1022.0675,-19.7854"/>
<polygon fill="#191970" stroke="#191970" points="833.0236,-160.781 825.6964,-168.4336 836.1966,-167.0206 833.0236,-160.781"/>
</g>
<!-- Node14 -->
<g id="node13" class="node">
<title>Node14</title>
<g id="a_node13"><a xlink:href="UIManager_8cxx.html" target="_top" xlink:title="src/engine/UIManager.cxx">
<polygon fill="none" stroke="#000000" points="821,-56.5 821,-75.5 963,-75.5 963,-56.5 821,-56.5"/>
<text text-anchor="middle" x="892" y="-63.5" font-family="Helvetica,sans-Serif" font-size="10.00" fill="#000000">src/engine/UIManager.cxx</text>
</a>
</g>
</g>
<!-- Node5&#45;&gt;Node14 -->
<g id="edge16" class="edge">
<title>Node5&#45;&gt;Node14</title>
<path fill="none" stroke="#191970" d="M819.6593,-160.2111C838.0973,-136.1989 870.2943,-94.2679 884.6862,-75.5249"/>
<polygon fill="#191970" stroke="#191970" points="816.6466,-158.3878 813.3323,-168.4509 822.1986,-162.651 816.6466,-158.3878"/>
</g>
<!-- Node15 -->
<g id="node14" class="node">
<title>Node15</title>
<g id="a_node14"><a xlink:href="Map_8cxx.html" target="_top" xlink:title="src/engine/Map.cxx">
<polygon fill="none" stroke="#000000" points="566,-112.5 566,-131.5 676,-131.5 676,-112.5 566,-112.5"/>
<text text-anchor="middle" x="621" y="-119.5" font-family="Helvetica,sans-Serif" font-size="10.00" fill="#000000">src/engine/Map.cxx</text>
</a>
</g>
</g>
<!-- Node5&#45;&gt;Node15 -->
<g id="edge15" class="edge">
<title>Node5&#45;&gt;Node15</title>
<path fill="none" stroke="#191970" d="M764.5603,-165.4561C730.6009,-155.1765 683.2703,-140.8494 652.3876,-131.5011"/>
<polygon fill="#191970" stroke="#191970" points="763.6122,-168.8259 774.1974,-168.3733 765.6403,-162.1261 763.6122,-168.8259"/>
</g>
<!-- Node7 -->
<g id="node6" class="node">
<title>Node7</title>
<g id="a_node6"><a xlink:href="Camera_8cxx.html" target="_top" xlink:title="src/engine/basics/Camera.cxx">
<polygon fill="none" stroke="#000000" points="141,-56.5 141,-75.5 303,-75.5 303,-56.5 141,-56.5"/>
<text text-anchor="middle" x="222" y="-63.5" font-family="Helvetica,sans-Serif" font-size="10.00" fill="#000000">src/engine/basics/Camera.cxx</text>
</a>
</g>
</g>
<!-- Node6&#45;&gt;Node7 -->
<g id="edge5" class="edge">
<title>Node6&#45;&gt;Node7</title>
<path fill="none" stroke="#191970" d="M683.6318,-111.8781C517.9254,-92.4062 474.4224,-92.8607 312,-76 309.1853,-75.7078 306.3215,-75.4073 303.4294,-75.101"/>
<polygon fill="#191970" stroke="#191970" points="683.3402,-115.3679 693.6819,-113.0658 684.1618,-108.4163 683.3402,-115.3679"/>
</g>
<!-- Node8 -->
<g id="node7" class="node">
<title>Node8</title>
<g id="a_node7"><a xlink:href="isoMath_8cxx.html" target="_top" xlink:title="src/engine/basics/isoMath.cxx">
<polygon fill="none" stroke="#000000" points="321,-56.5 321,-75.5 483,-75.5 483,-56.5 321,-56.5"/>
<text text-anchor="middle" x="402" y="-63.5" font-family="Helvetica,sans-Serif" font-size="10.00" fill="#000000">src/engine/basics/isoMath.cxx</text>
</a>
</g>
</g>
<!-- Node6&#45;&gt;Node8 -->
<g id="edge6" class="edge">
<title>Node6&#45;&gt;Node8</title>
<path fill="none" stroke="#191970" d="M685.3362,-110.8215C620.0072,-100.487 523.9683,-85.2944 462.2032,-75.5237"/>
<polygon fill="#191970" stroke="#191970" points="685.1234,-114.3313 695.5475,-112.4369 686.2172,-107.4173 685.1234,-114.3313"/>
</g>
<!-- Node9 -->
<g id="node8" class="node">
<title>Node9</title>
<g id="a_node8"><a xlink:href="EventManager_8hxx.html" target="_top" xlink:title="src/engine/EventManager.hxx">
<polygon fill="none" stroke="#000000" points="501,-56.5 501,-75.5 661,-75.5 661,-56.5 501,-56.5"/>
<text text-anchor="middle" x="581" y="-63.5" font-family="Helvetica,sans-Serif" font-size="10.00" fill="#000000">src/engine/EventManager.hxx</text>
</a>
</g>
</g>
<!-- Node6&#45;&gt;Node9 -->
<g id="edge7" class="edge">
<title>Node6&#45;&gt;Node9</title>
<path fill="none" stroke="#191970" d="M716.386,-109.3235C684.2925,-99.0536 639.7789,-84.8093 610.691,-75.5011"/>
<polygon fill="#191970" stroke="#191970" points="715.3254,-112.6589 725.9164,-112.3733 717.4589,-105.9919 715.3254,-112.6589"/>
</g>
<!-- Node12 -->
<g id="node11" class="node">
<title>Node12</title>
<g id="a_node11"><a xlink:href="Game_8cxx.html" target="_top" xlink:title="src/Game.cxx">
<polygon fill="none" stroke="#000000" points="237.5,-.5 237.5,-19.5 320.5,-19.5 320.5,-.5 237.5,-.5"/>
<text text-anchor="middle" x="279" y="-7.5" font-family="Helvetica,sans-Serif" font-size="10.00" fill="#000000">src/Game.cxx</text>
</a>
</g>
</g>
<!-- Node6&#45;&gt;Node12 -->
<g id="edge13" class="edge">
<title>Node6&#45;&gt;Node12</title>
<path fill="none" stroke="#191970" d="M683.5169,-112.187C588.3949,-106.8249 172.4161,-119.1327 132,-76 97.8564,-39.5614 182.7955,-21.8497 237.3526,-14.4654"/>
<polygon fill="#191970" stroke="#191970" points="683.459,-115.6925 693.6941,-112.9554 683.9861,-108.7123 683.459,-115.6925"/>
</g>
<!-- Node13 -->
<g id="node12" class="node">
<title>Node13</title>
<g id="a_node12"><a xlink:href="Engine_8cxx.html" target="_top" xlink:title="src/engine/Engine.cxx">
<polygon fill="none" stroke="#000000" points="679.5,-56.5 679.5,-75.5 802.5,-75.5 802.5,-56.5 679.5,-56.5"/>
<text text-anchor="middle" x="741" y="-63.5" font-family="Helvetica,sans-Serif" font-size="10.00" fill="#000000">src/engine/Engine.cxx</text>
</a>
</g>
</g>
<!-- Node6&#45;&gt;Node13 -->
<g id="edge11" class="edge">
<title>Node6&#45;&gt;Node13</title>
<path fill="none" stroke="#191970" d="M750.7644,-102.4538C748.334,-93.3803 745.5535,-82.9998 743.5829,-75.6427"/>
<polygon fill="#191970" stroke="#191970" points="747.4189,-103.4917 753.3872,-112.2455 754.1806,-101.6805 747.4189,-103.4917"/>
</g>
<!-- Node6&#45;&gt;Node14 -->
<g id="edge12" class="edge">
<title>Node6&#45;&gt;Node14</title>
<path fill="none" stroke="#191970" d="M788.7399,-108.5189C813.5083,-98.3201 846.905,-84.5685 868.9258,-75.5011"/>
<polygon fill="#191970" stroke="#191970" points="787.2934,-105.3293 779.3792,-112.3733 789.9587,-111.8021 787.2934,-105.3293"/>
</g>
<!-- Node10 -->
<g id="node9" class="node">
<title>Node10</title>
<g id="a_node9"><a xlink:href="Timer_8cxx.html" target="_top" xlink:title="src/engine/basics/Timer.cxx">
<polygon fill="none" stroke="#000000" points="505,-.5 505,-19.5 657,-19.5 657,-.5 505,-.5"/>
<text text-anchor="middle" x="581" y="-7.5" font-family="Helvetica,sans-Serif" font-size="10.00" fill="#000000">src/engine/basics/Timer.cxx</text>
</a>
</g>
</g>
<!-- Node9&#45;&gt;Node10 -->
<g id="edge8" class="edge">
<title>Node9&#45;&gt;Node10</title>
<path fill="none" stroke="#191970" d="M581,-46.1575C581,-37.155 581,-26.9199 581,-19.6427"/>
<polygon fill="#191970" stroke="#191970" points="577.5001,-46.2455 581,-56.2455 584.5001,-46.2456 577.5001,-46.2455"/>
</g>
<!-- Node9&#45;&gt;Node11 -->
<g id="edge9" class="edge">
<title>Node9&#45;&gt;Node11</title>
<path fill="none" stroke="#191970" d="M667.3772,-55.2029C750.0585,-44.8677 873.5837,-29.427 952.7204,-19.535"/>
<polygon fill="#191970" stroke="#191970" points="666.7395,-51.7552 657.2508,-56.4686 667.6078,-58.7012 666.7395,-51.7552"/>
</g>
<!-- Node9&#45;&gt;Node12 -->
<g id="edge10" class="edge">
<title>Node9&#45;&gt;Node12</title>
<path fill="none" stroke="#191970" d="M519.4398,-54.5849C460.1551,-43.5917 372.1122,-27.2658 320.6389,-17.7211"/>
<polygon fill="#191970" stroke="#191970" points="518.9569,-58.0549 529.4275,-56.4369 520.2333,-51.1722 518.9569,-58.0549"/>
</g>
<!-- Node16&#45;&gt;Node5 -->
<g id="edge18" class="edge">
<title>Node16&#45;&gt;Node5</title>
<path fill="none" stroke="#191970" d="M475.8783,-228.3784C554.83,-216.3299 679.0476,-197.3736 750.4677,-186.4745"/>
<polygon fill="#191970" stroke="#191970" points="474.8841,-224.9895 465.5266,-229.9581 475.9402,-231.9094 474.8841,-224.9895"/>
</g>
<!-- Node16&#45;&gt;Node17 -->
<g id="edge19" class="edge">
<title>Node16&#45;&gt;Node17</title>
<path fill="none" stroke="#191970" d="M391.6221,-221.0857C384.8539,-210.132 376.5389,-196.6748 371.0212,-187.7449"/>
<polygon fill="#191970" stroke="#191970" points="388.8286,-223.2233 397.0625,-229.8906 394.7835,-219.5438 388.8286,-223.2233"/>
</g>
<!-- Node19 -->
<g id="node18" class="node">
<title>Node19</title>
<g id="a_node18"><a xlink:href="TerrainGenerator_8cxx.html" target="_top" xlink:title="src/engine/map/TerrainGenerator.cxx">
<polygon fill="none" stroke="#000000" points="0,-112.5 0,-131.5 196,-131.5 196,-112.5 0,-112.5"/>
<text text-anchor="middle" x="98" y="-119.5" font-family="Helvetica,sans-Serif" font-size="10.00" fill="#000000">src/engine/map/TerrainGenerator.cxx</text>
</a>
</g>
</g>
<!-- Node16&#45;&gt;Node19 -->
<g id="edge24" class="edge">
<title>Node16&#45;&gt;Node19</title>
<path fill="none" stroke="#191970" d="M361.2055,-226.9273C329.5645,-217.1146 285.1814,-202.7179 247,-188 200.0101,-169.8867 146.3301,-145.0539 117.9811,-131.6029"/>
<polygon fill="#191970" stroke="#191970" points="360.4195,-230.3474 371.0068,-229.9468 362.4805,-223.6577 360.4195,-230.3474"/>
</g>
<!-- Node17&#45;&gt;Node15 -->
<g id="edge22" class="edge">
<title>Node17&#45;&gt;Node15</title>
<path fill="none" stroke="#191970" d="M418.7487,-166.2425C465.9089,-155.9262 533.6241,-141.1135 577.4632,-131.5237"/>
<polygon fill="#191970" stroke="#191970" points="417.7381,-162.8807 408.7171,-168.4369 419.2341,-169.719 417.7381,-162.8807"/>
</g>
<!-- Node18 -->
<g id="node17" class="node">
<title>Node18</title>
<g id="a_node17"><a xlink:href="Settings_8cxx.html" target="_top" xlink:title="src/engine/basics/Settings.cxx">
<polygon fill="none" stroke="#000000" points="214,-112.5 214,-131.5 378,-131.5 378,-112.5 214,-112.5"/>
<text text-anchor="middle" x="296" y="-119.5" font-family="Helvetica,sans-Serif" font-size="10.00" fill="#000000">src/engine/basics/Settings.cxx</text>
</a>
</g>
</g>
<!-- Node17&#45;&gt;Node18 -->
<g id="edge20" class="edge">
<title>Node17&#45;&gt;Node18</title>
<path fill="none" stroke="#191970" d="M345.197,-161.928C333.1364,-152.1397 318.1286,-139.9595 307.8812,-131.6427"/>
<polygon fill="#191970" stroke="#191970" points="343.0109,-164.6614 352.9811,-168.2455 347.4221,-159.2262 343.0109,-164.6614"/>
</g>
<!-- Node17&#45;&gt;Node19 -->
<g id="edge21" class="edge">
<title>Node17&#45;&gt;Node19</title>
<path fill="none" stroke="#191970" d="M309.5593,-166.372C260.3479,-156.0505 189.322,-141.1537 143.4075,-131.5237"/>
<polygon fill="#191970" stroke="#191970" points="308.8989,-169.8096 319.4044,-168.4369 310.3359,-162.9586 308.8989,-169.8096"/>
</g>
<!-- Node20 -->
<g id="node19" class="node">
<title>Node20</title>
<g id="a_node19"><a xlink:href="AudioMixer_8cxx.html" target="_top" xlink:title="src/services/AudioMixer.cxx">
<polygon fill="none" stroke="#000000" points="396,-112.5 396,-131.5 548,-131.5 548,-112.5 396,-112.5"/>
<text text-anchor="middle" x="472" y="-119.5" font-family="Helvetica,sans-Serif" font-size="10.00" fill="#000000">src/services/AudioMixer.cxx</text>
</a>
</g>
</g>
<!-- Node17&#45;&gt;Node20 -->
<g id="edge23" class="edge">
<title>Node17&#45;&gt;Node20</title>
<path fill="none" stroke="#191970" d="M392.5199,-163.5971C411.7017,-153.558 436.7678,-140.4393 453.5756,-131.6427"/>
<polygon fill="#191970" stroke="#191970" points="390.875,-160.5075 383.638,-168.2455 394.1209,-166.7095 390.875,-160.5075"/>
</g>
<!-- Node23&#45;&gt;Node11 -->
<g id="edge32" class="edge">
<title>Node23&#45;&gt;Node11</title>
<path fill="none" stroke="#191970" d="M810.6749,-290.8023C788.9595,-274.1927 762.148,-247.2253 778,-224 802.7525,-187.7341 832.5632,-210.9432 870,-188 933.883,-148.8492 950.4238,-135.4696 996,-76 1009.8709,-57.9007 1020.4068,-33.0624 1025.5393,-19.6068"/>
<polygon fill="#191970" stroke="#191970" points="808.8008,-293.7676 818.9415,-296.8363 812.9278,-288.1135 808.8008,-293.7676"/>
</g>
<!-- Node23&#45;&gt;Node15 -->
<g id="edge35" class="edge">
<title>Node23&#45;&gt;Node15</title>
<path fill="none" stroke="#191970" d="M804.7708,-292.1273C786.9681,-282.7259 764.2203,-269.5226 746,-255 695.6975,-214.9063 646.5717,-154.7684 628.3866,-131.586"/>
<polygon fill="#191970" stroke="#191970" points="803.6015,-295.4627 814.0924,-296.9434 806.8147,-289.2437 803.6015,-295.4627"/>
</g>
<!-- Node23&#45;&gt;Node21 -->
<g id="edge33" class="edge">
<title>Node23&#45;&gt;Node21</title>
<path fill="none" stroke="#191970" d="M794.416,-293.7494C759.7288,-282.5761 709.271,-266.3229 672.6347,-254.5218"/>
<polygon fill="#191970" stroke="#191970" points="793.6072,-297.1659 804.1987,-296.9005 795.7534,-290.503 793.6072,-297.1659"/>
</g>
<!-- Node23&#45;&gt;Node22 -->
<g id="edge36" class="edge">
<title>Node23&#45;&gt;Node22</title>
<path fill="none" stroke="#191970" d="M872.1739,-293.5826C910.6553,-280.5611 969.1563,-260.7653 1003.6841,-249.0817"/>
<polygon fill="#191970" stroke="#191970" points="870.7191,-290.3798 862.3686,-296.9005 872.9628,-297.0105 870.7191,-290.3798"/>
</g>
<!-- Node24 -->
<g id="node23" class="node">
<title>Node24</title>
<g id="a_node23"><a xlink:href="MapLayers_8cxx.html" target="_top" xlink:title="src/engine/map/MapLayers.cxx">
<polygon fill="none" stroke="#000000" points="787.5,-230 787.5,-249 954.5,-249 954.5,-230 787.5,-230"/>
<text text-anchor="middle" x="871" y="-237" font-family="Helvetica,sans-Serif" font-size="10.00" fill="#000000">src/engine/map/MapLayers.cxx</text>
</a>
</g>
</g>
<!-- Node23&#45;&gt;Node24 -->
<g id="edge34" class="edge">
<title>Node23&#45;&gt;Node24</title>
<path fill="none" stroke="#191970" d="M844.1557,-288.1099C851.1307,-275.4795 860.1076,-259.2241 865.7086,-249.0817"/>
<polygon fill="#191970" stroke="#191970" points="841.0716,-286.4547 839.3012,-296.9005 847.1993,-289.8386 841.0716,-286.4547"/>
</g>
</g>
</svg>
        <g id="navigator" transform="translate(0 0)" fill="#404254">
                <rect fill="#f2f5e9" fill-opacity="0.5" stroke="#606060" stroke-width=".5" x="0" y="0" width="60" height="60"/>
                <use id="zoomplus" xlink:href="#zoomPlus" x="17" y="9" onmousedown="handleZoom(evt,'in')"/>
                <use id="zoomminus" xlink:href="#zoomMin" x="42" y="9" onmousedown="handleZoom(evt,'out')"/>
                <use id="reset" xlink:href="#resetDef" x="30" y="36" onmousedown="handleReset()"/>
                <g id="arrowUp" xlink:href="#dirArrow" transform="translate(30 24)" onmousedown="handlePan(0,-1)">
                  <use xlink:href="#rim" fill="#404040">
                        <set attributeName="fill" to="#808080" begin="arrowUp.mouseover" end="arrowUp.mouseout"/>
                  </use>
                  <path fill="none" stroke="white" stroke-width="1.5" d="M0,-3.0v7 M-2.5,-0.5L0,-3.0L2.5,-0.5"/>
                </g>
                <g id="arrowRight" xlink:href="#dirArrow" transform="rotate(90) translate(36 -43)" onmousedown="handlePan(1,0)">
                  <use xlink:href="#rim" fill="#404040">
                        <set attributeName="fill" to="#808080" begin="arrowRight.mouseover" end="arrowRight.mouseout"/>
                  </use>
                  <path fill="none" stroke="white" stroke-width="1.5" d="M0,-3.0v7 M-2.5,-0.5L0,-3.0L2.5,-0.5"/>
                </g>
                <g id="arrowDown" xlink:href="#dirArrow" transform="rotate(180) translate(-30 -48)" onmousedown="handlePan(0,1)">
                  <use xlink:href="#rim" fill="#404040">
                        <set attributeName="fill" to="#808080" begin="arrowDown.mouseover" end="arrowDown.mouseout"/>
                  </use>
                  <path fill="none" stroke="white" stroke-width="1.5" d="M0,-3.0v7 M-2.5,-0.5L0,-3.0L2.5,-0.5"/>
                </g>
                <g id="arrowLeft" xlink:href="#dirArrow" transform="rotate(270) translate(-36 17)" onmousedown="handlePan(-1,0)">
                  <use xlink:href="#rim" fill="#404040">
                        <set attributeName="fill" to="#808080" begin="arrowLeft.mouseover" end="arrowLeft.mouseout"/>
                  </use>
                  <path fill="none" stroke="white" stroke-width="1.5" d="M0,-3.0v7 M-2.5,-0.5L0,-3.0L2.5,-0.5"/>
                </g>
        </g>
        <svg viewBox="0 0 15 15" width="100%" height="30px" preserveAspectRatio="xMaxYMin meet">
         <g id="arrow_out" transform="scale(0.3 0.3)">
          <a xlink:href="enums_8hxx__dep__incl_org.svg" target="_base">
           <rect id="button" ry="5" rx="5" y="6" x="6" height="38" width="38"
                fill="#f2f5e9" fill-opacity="0.5" stroke="#606060" stroke-width="1.0"/>
           <path id="arrow"
             d="M 11.500037,31.436501 C 11.940474,20.09759 22.043105,11.32322 32.158766,21.979434 L 37.068811,17.246167 C 37.068811,17.246167 37.088388,32 37.088388,32 L 22.160133,31.978069 C 22.160133,31.978069 26.997745,27.140456 26.997745,27.140456 C 18.528582,18.264221 13.291696,25.230495 11.500037,31.436501 z"
             style="fill:#404040;"/>
          </a>
         </g>
        </svg>
</svg>
