<?xml version="1.0" encoding="UTF-8" standalone="no"?>
<!DOCTYPE svg PUBLIC "-//W3C//DTD SVG 1.1//EN"
 "http://www.w3.org/Graphics/SVG/1.1/DTD/svg11.dtd">
<!-- Generated by graphviz version 2.40.1 (20161225.0304)
 -->
<!-- Title: src/Events.hxx Pages: 1 -->
<svg width="616pt" height="196pt"
 viewBox="0.00 0.00 616.00 196.00" xmlns="http://www.w3.org/2000/svg" xmlns:xlink="http://www.w3.org/1999/xlink">
<g id="graph0" class="graph" transform="scale(1 1) rotate(0) translate(4 192)">
<title>src/Events.hxx</title>
<!-- Node0 -->
<g id="node1" class="node">
<title>Node0</title>
<polygon fill="#bfbfbf" stroke="#000000" points="195,-168.5 195,-187.5 283,-187.5 283,-168.5 195,-168.5"/>
<text text-anchor="middle" x="239" y="-175.5" font-family="Helvetica,sans-Serif" font-size="10.00" fill="#000000">src/Events.hxx</text>
</g>
<!-- Node1 -->
<g id="node2" class="node">
<title>Node1</title>
<polygon fill="none" stroke="#bfbfbf" points="0,-56.5 0,-75.5 44,-75.5 44,-56.5 0,-56.5"/>
<text text-anchor="middle" x="22" y="-63.5" font-family="Helvetica,sans-Serif" font-size="10.00" fill="#000000">string</text>
</g>
<!-- Node0&#45;&gt;Node1 -->
<g id="edge1" class="edge">
<title>Node0&#45;&gt;Node1</title>
<path fill="none" stroke="#191970" d="M194.7093,-172.6044C144.1923,-165.6038 65.7622,-151.885 44,-132 31.0684,-120.1839 25.728,-100.5731 23.528,-85.7919"/>
<polygon fill="#191970" stroke="#191970" points="26.9818,-85.1843 22.3842,-75.6391 20.0258,-85.9681 26.9818,-85.1843"/>
</g>
<!-- Node2 -->
<g id="node3" class="node">
<title>Node2</title>
<polygon fill="none" stroke="#bfbfbf" points="420,-112.5 420,-131.5 520,-131.5 520,-112.5 420,-112.5"/>
<text text-anchor="middle" x="470" y="-119.5" font-family="Helvetica,sans-Serif" font-size="10.00" fill="#000000">betterEnums.hxx</text>
</g>
<!-- Node0&#45;&gt;Node2 -->
<g id="edge2" class="edge">
<title>Node0&#45;&gt;Node2</title>
<path fill="none" stroke="#191970" d="M278.4478,-168.4369C317.8156,-158.8932 378.4034,-144.2052 420.8708,-133.9101"/>
<polygon fill="#191970" stroke="#191970" points="421.821,-137.2812 430.7149,-131.5237 420.1717,-130.4783 421.821,-137.2812"/>
</g>
<!-- Node3 -->
<g id="node4" class="node">
<title>Node3</title>
<g id="a_node4"><a xlink:href="Meta_8hxx.html" target="_top" xlink:title="util/Meta.hxx">
<polygon fill="none" stroke="#000000" points="158,-56.5 158,-75.5 238,-75.5 238,-56.5 158,-56.5"/>
<text text-anchor="middle" x="198" y="-63.5" font-family="Helvetica,sans-Serif" font-size="10.00" fill="#000000">util/Meta.hxx</text>
</a>
</g>
</g>
<!-- Node0&#45;&gt;Node3 -->
<g id="edge3" class="edge">
<title>Node0&#45;&gt;Node3</title>
<path fill="none" stroke="#191970" d="M236.7775,-168.4395C233.6402,-155.4557 227.4556,-131.6167 220,-112 216.512,-102.8225 211.9171,-92.9634 207.829,-84.7357"/>
<polygon fill="#191970" stroke="#191970" points="210.8637,-82.9823 203.2023,-75.6643 204.628,-86.1627 210.8637,-82.9823"/>
</g>
<!-- Node8 -->
<g id="node9" class="node">
<title>Node8</title>
<g id="a_node9"><a xlink:href="TransitiveModel_8hxx.html" target="_top" xlink:title="util/TransitiveModel.hxx">
<polygon fill="none" stroke="#000000" points="268.5,-112.5 268.5,-131.5 401.5,-131.5 401.5,-112.5 268.5,-112.5"/>
<text text-anchor="middle" x="335" y="-119.5" font-family="Helvetica,sans-Serif" font-size="10.00" fill="#000000">util/TransitiveModel.hxx</text>
</a>
</g>
</g>
<!-- Node0&#45;&gt;Node8 -->
<g id="edge8" class="edge">
<title>Node0&#45;&gt;Node8</title>
<path fill="none" stroke="#191970" d="M255.7219,-168.2455C270.5889,-159.5731 292.5466,-146.7645 309.5858,-136.825"/>
<polygon fill="#191970" stroke="#191970" points="311.5955,-139.7047 318.4697,-131.6427 308.0683,-133.6582 311.5955,-139.7047"/>
</g>
<!-- Node15 -->
<g id="node16" class="node">
<title>Node15</title>
<g id="a_node16"><a xlink:href="Soundtrack_8hxx.html" target="_top" xlink:title="engine/audio/Soundtrack.hxx">
<polygon fill="none" stroke="#000000" points="53,-112.5 53,-131.5 211,-131.5 211,-112.5 53,-112.5"/>
<text text-anchor="middle" x="132" y="-119.5" font-family="Helvetica,sans-Serif" font-size="10.00" fill="#000000">engine/audio/Soundtrack.hxx</text>
</a>
</g>
</g>
<!-- Node0&#45;&gt;Node15 -->
<g id="edge16" class="edge">
<title>Node0&#45;&gt;Node15</title>
<path fill="none" stroke="#191970" d="M220.362,-168.2455C203.5614,-159.4527 178.6366,-146.4079 159.5382,-136.4125"/>
<polygon fill="#191970" stroke="#191970" points="160.9073,-133.1787 150.4244,-131.6427 157.6614,-139.3807 160.9073,-133.1787"/>
</g>
<!-- Node4 -->
<g id="node5" class="node">
<title>Node4</title>
<polygon fill="none" stroke="#bfbfbf" points="140,-.5 140,-19.5 200,-19.5 200,-.5 140,-.5"/>
<text text-anchor="middle" x="170" y="-7.5" font-family="Helvetica,sans-Serif" font-size="10.00" fill="#000000">iostream</text>
</g>
<!-- Node3&#45;&gt;Node4 -->
<g id="edge4" class="edge">
<title>Node3&#45;&gt;Node4</title>
<path fill="none" stroke="#191970" d="M193.1228,-56.2455C189.3487,-48.6973 184.0079,-38.0158 179.4099,-28.8197"/>
<polygon fill="#191970" stroke="#191970" points="182.424,-27.0217 174.8213,-19.6427 176.163,-30.1522 182.424,-27.0217"/>
</g>
<!-- Node5 -->
<g id="node6" class="node">
<title>Node5</title>
<polygon fill="none" stroke="#bfbfbf" points="218.5,-.5 218.5,-19.5 287.5,-19.5 287.5,-.5 218.5,-.5"/>
<text text-anchor="middle" x="253" y="-7.5" font-family="Helvetica,sans-Serif" font-size="10.00" fill="#000000">type_traits</text>
</g>
<!-- Node3&#45;&gt;Node5 -->
<g id="edge5" class="edge">
<title>Node3&#45;&gt;Node5</title>
<path fill="none" stroke="#191970" d="M207.5803,-56.2455C215.5458,-48.1352 227.0641,-36.4075 236.5079,-26.7919"/>
<polygon fill="#191970" stroke="#191970" points="239.0195,-29.2297 243.5295,-19.6427 234.0253,-24.3247 239.0195,-29.2297"/>
</g>
<!-- Node6 -->
<g id="node7" class="node">
<title>Node6</title>
<polygon fill="none" stroke="#bfbfbf" points="11.5,-.5 11.5,-19.5 62.5,-19.5 62.5,-.5 11.5,-.5"/>
<text text-anchor="middle" x="37" y="-7.5" font-family="Helvetica,sans-Serif" font-size="10.00" fill="#000000">variant</text>
</g>
<!-- Node3&#45;&gt;Node6 -->
<g id="edge6" class="edge">
<title>Node3&#45;&gt;Node6</title>
<path fill="none" stroke="#191970" d="M170.3231,-56.3733C143.1825,-46.933 101.6993,-32.5041 72.2211,-22.2508"/>
<polygon fill="#191970" stroke="#191970" points="73.3172,-18.9264 62.7224,-18.9469 71.0175,-25.5379 73.3172,-18.9264"/>
</g>
<!-- Node7 -->
<g id="node8" class="node">
<title>Node7</title>
<polygon fill="none" stroke="#bfbfbf" points="80.5,-.5 80.5,-19.5 121.5,-19.5 121.5,-.5 80.5,-.5"/>
<text text-anchor="middle" x="101" y="-7.5" font-family="Helvetica,sans-Serif" font-size="10.00" fill="#000000">tuple</text>
</g>
<!-- Node3&#45;&gt;Node7 -->
<g id="edge7" class="edge">
<title>Node3&#45;&gt;Node7</title>
<path fill="none" stroke="#191970" d="M181.1039,-56.2455C166.082,-47.5731 143.8957,-34.7645 126.679,-24.825"/>
<polygon fill="#191970" stroke="#191970" points="128.1128,-21.6114 117.7025,-19.6427 124.6129,-27.6737 128.1128,-21.6114"/>
</g>
<!-- Node8&#45;&gt;Node3 -->
<g id="edge9" class="edge">
<title>Node8&#45;&gt;Node3</title>
<path fill="none" stroke="#191970" d="M311.4489,-112.3733C289.1609,-103.2629 255.5063,-89.5062 230.6363,-79.3404"/>
<polygon fill="#191970" stroke="#191970" points="231.8247,-76.0451 221.2438,-75.5011 229.1761,-82.5247 231.8247,-76.0451"/>
</g>
<!-- Node9 -->
<g id="node10" class="node">
<title>Node9</title>
<g id="a_node10"><a xlink:href="Observer_8hxx.html" target="_top" xlink:title="Observer.hxx">
<polygon fill="none" stroke="#000000" points="294.5,-56.5 294.5,-75.5 375.5,-75.5 375.5,-56.5 294.5,-56.5"/>
<text text-anchor="middle" x="335" y="-63.5" font-family="Helvetica,sans-Serif" font-size="10.00" fill="#000000">Observer.hxx</text>
</a>
</g>
</g>
<!-- Node8&#45;&gt;Node9 -->
<g id="edge10" class="edge">
<title>Node8&#45;&gt;Node9</title>
<path fill="none" stroke="#191970" d="M335,-112.2455C335,-104.9382 335,-94.6944 335,-85.7046"/>
<polygon fill="#191970" stroke="#191970" points="338.5001,-85.6426 335,-75.6427 331.5001,-85.6427 338.5001,-85.6426"/>
</g>
<!-- Node12 -->
<g id="node13" class="node">
<title>Node12</title>
<polygon fill="none" stroke="#bfbfbf" points="394,-56.5 394,-75.5 480,-75.5 480,-56.5 394,-56.5"/>
<text text-anchor="middle" x="437" y="-63.5" font-family="Helvetica,sans-Serif" font-size="10.00" fill="#000000">unordered_set</text>
</g>
<!-- Node8&#45;&gt;Node12 -->
<g id="edge13" class="edge">
<title>Node8&#45;&gt;Node12</title>
<path fill="none" stroke="#191970" d="M352.767,-112.2455C368.7095,-103.4928 392.3259,-90.527 410.4989,-80.5496"/>
<polygon fill="#191970" stroke="#191970" points="412.3552,-83.5233 419.4366,-75.6427 408.9863,-77.3873 412.3552,-83.5233"/>
</g>
<!-- Node13 -->
<g id="node14" class="node">
<title>Node13</title>
<polygon fill="none" stroke="#bfbfbf" points="498,-56.5 498,-75.5 536,-75.5 536,-56.5 498,-56.5"/>
<text text-anchor="middle" x="517" y="-63.5" font-family="Helvetica,sans-Serif" font-size="10.00" fill="#000000">map</text>
</g>
<!-- Node8&#45;&gt;Node13 -->
<g id="edge14" class="edge">
<title>Node8&#45;&gt;Node13</title>
<path fill="none" stroke="#191970" d="M368.8058,-112.4581C398.0963,-104.0678 441.8085,-91.2538 488.1539,-76.169"/>
<polygon fill="#191970" stroke="#191970" points="489.353,-79.4593 497.7662,-73.0197 487.1735,-72.8072 489.353,-79.4593"/>
</g>
<!-- Node14 -->
<g id="node15" class="node">
<title>Node14</title>
<polygon fill="none" stroke="#bfbfbf" points="554,-56.5 554,-75.5 608,-75.5 608,-56.5 554,-56.5"/>
<text text-anchor="middle" x="581" y="-63.5" font-family="Helvetica,sans-Serif" font-size="10.00" fill="#000000">ciso646</text>
</g>
<!-- Node8&#45;&gt;Node14 -->
<g id="edge15" class="edge">
<title>Node8&#45;&gt;Node14</title>
<path fill="none" stroke="#191970" d="M382.2965,-112.4197C422.8053,-104.0387 482.9098,-91.189 544.0901,-76.1315"/>
<polygon fill="#191970" stroke="#191970" points="545.0513,-79.4993 553.9156,-73.6963 543.3672,-72.7049 545.0513,-79.4993"/>
</g>
<!-- Node10 -->
<g id="node11" class="node">
<title>Node10</title>
<polygon fill="none" stroke="#bfbfbf" points="306,-.5 306,-19.5 364,-19.5 364,-.5 306,-.5"/>
<text text-anchor="middle" x="335" y="-7.5" font-family="Helvetica,sans-Serif" font-size="10.00" fill="#000000">memory</text>
</g>
<!-- Node9&#45;&gt;Node10 -->
<g id="edge11" class="edge">
<title>Node9&#45;&gt;Node10</title>
<path fill="none" stroke="#191970" d="M335,-56.2455C335,-48.9382 335,-38.6944 335,-29.7046"/>
<polygon fill="#191970" stroke="#191970" points="338.5001,-29.6426 335,-19.6427 331.5001,-29.6427 338.5001,-29.6426"/>
</g>
<!-- Node11 -->
<g id="node12" class="node">
<title>Node11</title>
<polygon fill="none" stroke="#bfbfbf" points="382,-.5 382,-19.5 456,-19.5 456,-.5 382,-.5"/>
<text text-anchor="middle" x="419" y="-7.5" font-family="Helvetica,sans-Serif" font-size="10.00" fill="#000000">forward_list</text>
</g>
<!-- Node9&#45;&gt;Node11 -->
<g id="edge12" class="edge">
<title>Node9&#45;&gt;Node11</title>
<path fill="none" stroke="#191970" d="M349.6317,-56.2455C362.3994,-47.7337 381.1438,-35.2375 395.9299,-25.3801"/>
<polygon fill="#191970" stroke="#191970" points="398.1569,-28.1019 404.536,-19.6427 394.274,-22.2775 398.1569,-28.1019"/>
</g>
<!-- Node15&#45;&gt;Node1 -->
<g id="edge19" class="edge">
<title>Node15&#45;&gt;Node1</title>
<path fill="none" stroke="#191970" d="M112.8395,-112.2455C95.4889,-103.4125 69.7099,-90.2887 50.0417,-80.2758"/>
<polygon fill="#191970" stroke="#191970" points="51.4405,-77.0605 40.941,-75.6427 48.2647,-83.2986 51.4405,-77.0605"/>
</g>
<!-- Node15&#45;&gt;Node3 -->
<g id="edge20" class="edge">
<title>Node15&#45;&gt;Node3</title>
<path fill="none" stroke="#191970" d="M143.4963,-112.2455C153.2442,-103.9746 167.4259,-91.9416 178.8798,-82.2232"/>
<polygon fill="#191970" stroke="#191970" points="181.2747,-84.7813 186.6354,-75.6427 176.7459,-79.4437 181.2747,-84.7813"/>
</g>
<!-- Node15&#45;&gt;Node10 -->
<g id="edge17" class="edge">
<title>Node15&#45;&gt;Node10</title>
<path fill="none" stroke="#191970" d="M162.2916,-112.3391C186.0754,-104.1799 219.6312,-91.3811 247,-76 272.5187,-61.6587 299.0272,-40.8297 316.1915,-26.4236"/>
<polygon fill="#191970" stroke="#191970" points="318.9218,-28.6953 324.2608,-19.544 314.3803,-23.3684 318.9218,-28.6953"/>
</g>
<!-- Node16 -->
<g id="node17" class="node">
<title>Node16</title>
<polygon fill="none" stroke="#bfbfbf" points="62.5,-56.5 62.5,-75.5 139.5,-75.5 139.5,-56.5 62.5,-56.5"/>
<text text-anchor="middle" x="101" y="-63.5" font-family="Helvetica,sans-Serif" font-size="10.00" fill="#000000">SDL_mixer.h</text>
</g>
<!-- Node15&#45;&gt;Node16 -->
<g id="edge18" class="edge">
<title>Node15&#45;&gt;Node16</title>
<path fill="none" stroke="#191970" d="M126.6002,-112.2455C122.3773,-104.617 116.3827,-93.7881 111.2559,-84.5267"/>
<polygon fill="#191970" stroke="#191970" points="114.2432,-82.6965 106.3379,-75.6427 108.119,-86.0867 114.2432,-82.6965"/>
</g>
</g>
</svg>
