<?xml version="1.0" encoding="UTF-8" standalone="no"?>
<!DOCTYPE svg PUBLIC "-//W3C//DTD SVG 1.1//EN"
 "http://www.w3.org/Graphics/SVG/1.1/DTD/svg11.dtd">
<!-- Generated by graphviz version 2.40.1 (20161225.0304)
 -->
<!-- Title: src/Game.hxx Pages: 1 -->
<!--zoomable 364 -->
<svg id="main" version="1.1" xmlns="http://www.w3.org/2000/svg" xmlns:xlink="http://www.w3.org/1999/xlink" xml:space="preserve" onload="init(evt)">
<style type="text/css"><![CDATA[
.edge:hover path { stroke: red; }
.edge:hover polygon { stroke: red; fill: red; }
]]></style>
<script type="text/javascript"><![CDATA[
var edges = document.getElementsByTagName('g');
if (edges && edges.length) {
  for (var i=0;i<edges.length;i++) {
    if (edges[i].id.substr(0,4)=='edge') {
      edges[i].setAttribute('class','edge');
    }
  }
}
]]></script>
        <defs>
                <circle id="rim" cx="0" cy="0" r="7"/>
                <circle id="rim2" cx="0" cy="0" r="3.5"/>
                <g id="zoomPlus">
                        <use xlink:href="#rim" fill="#404040">
                                <set attributeName="fill" to="#808080" begin="zoomplus.mouseover" end="zoomplus.mouseout"/>
                        </use>
                        <path d="M-4,0h8M0,-4v8" fill="none" stroke="white" stroke-width="1.5" pointer-events="none"/>
                </g>
                <g id="zoomMin">
                        <use xlink:href="#rim" fill="#404040">
                                <set attributeName="fill" to="#808080" begin="zoomminus.mouseover" end="zoomminus.mouseout"/>
                        </use>
                        <path d="M-4,0h8" fill="none" stroke="white" stroke-width="1.5" pointer-events="none"/>
                </g>
                <g id="dirArrow">
                        <path fill="none" stroke="white" stroke-width="1.5" d="M0,-3.0v7 M-2.5,-0.5L0,-3.0L2.5,-0.5"/>
                </g>
               <g id="resetDef">
                       <use xlink:href="#rim2" fill="#404040">
                               <set attributeName="fill" to="#808080" begin="reset.mouseover" end="reset.mouseout"/>
                       </use>
               </g>
        </defs>

<script type="text/javascript">
var viewWidth = 1349;
var viewHeight = 364;
var sectionId = 'dynsection-0';
</script>
<script xlink:href="svgpan.js"/>
<svg id="graph" class="graph">
<g id="viewport">
<title>src/Game.hxx</title>
<!-- Node0 -->
<g id="node1" class="node">
<title>Node0</title>
<polygon fill="#bfbfbf" stroke="#000000" points="908.5,-336.5 908.5,-355.5 992.5,-355.5 992.5,-336.5 908.5,-336.5"/>
<text text-anchor="middle" x="950.5" y="-343.5" font-family="Helvetica,sans-Serif" font-size="10.00" fill="#000000">src/Game.hxx</text>
</g>
<!-- Node1 -->
<g id="node2" class="node">
<title>Node1</title>
<g id="a_node2"><a xlink:href="ScriptEngine_8hxx.html" target="_top" xlink:title="Scripting/ScriptEngine.hxx">
<polygon fill="none" stroke="#000000" points="615.5,-280.5 615.5,-299.5 759.5,-299.5 759.5,-280.5 615.5,-280.5"/>
<text text-anchor="middle" x="687.5" y="-287.5" font-family="Helvetica,sans-Serif" font-size="10.00" fill="#000000">Scripting/ScriptEngine.hxx</text>
</a>
</g>
</g>
<!-- Node0&#45;&gt;Node1 -->
<g id="edge1" class="edge">
<title>Node0&#45;&gt;Node1</title>
<path fill="none" stroke="#191970" d="M908.2445,-337.0026C863.1442,-327.3995 791.5259,-312.15 742.1612,-301.6389"/>
<polygon fill="#191970" stroke="#191970" points="742.801,-298.1967 732.2913,-299.5373 741.3431,-305.0432 742.801,-298.1967"/>
</g>
<!-- Node2 -->
<g id="node3" class="node">
<title>Node2</title>
<g id="a_node3"><a xlink:href="MessageQueue_8hxx.html" target="_top" xlink:title="util/MessageQueue.hxx">
<polygon fill="none" stroke="#000000" points="199,-168.5 199,-187.5 330,-187.5 330,-168.5 199,-168.5"/>
<text text-anchor="middle" x="264.5" y="-175.5" font-family="Helvetica,sans-Serif" font-size="10.00" fill="#000000">util/MessageQueue.hxx</text>
</a>
</g>
</g>
<!-- Node0&#45;&gt;Node2 -->
<g id="edge2" class="edge">
<title>Node0&#45;&gt;Node2</title>
<path fill="none" stroke="#191970" d="M927.5875,-336.4444C893.43,-322.4862 826.9077,-296.4031 768.5,-280 617.0047,-237.4543 435.1967,-205.1414 336.6368,-189.1397"/>
<polygon fill="#191970" stroke="#191970" points="336.9206,-185.6403 326.4907,-187.5024 335.8053,-192.5509 336.9206,-185.6403"/>
</g>
<!-- Node9 -->
<g id="node10" class="node">
<title>Node9</title>
<g id="a_node10"><a xlink:href="Meta_8hxx.html" target="_top" xlink:title="util/Meta.hxx">
<polygon fill="none" stroke="#000000" points="897.5,-56.5 897.5,-75.5 977.5,-75.5 977.5,-56.5 897.5,-56.5"/>
<text text-anchor="middle" x="937.5" y="-63.5" font-family="Helvetica,sans-Serif" font-size="10.00" fill="#000000">util/Meta.hxx</text>
</a>
</g>
</g>
<!-- Node0&#45;&gt;Node9 -->
<g id="edge9" class="edge">
<title>Node0&#45;&gt;Node9</title>
<path fill="none" stroke="#191970" d="M950.0525,-336.3618C948.1852,-296.1418 940.9922,-141.2159 938.4206,-85.8288"/>
<polygon fill="#191970" stroke="#191970" points="941.9057,-85.4246 937.9456,-75.5977 934.9133,-85.7493 941.9057,-85.4246"/>
</g>
<!-- Node14 -->
<g id="node15" class="node">
<title>Node14</title>
<g id="a_node15"><a xlink:href="GameService_8hxx.html" target="_top" xlink:title="GameService.hxx">
<polygon fill="none" stroke="#000000" points="816,-224.5 816,-243.5 919,-243.5 919,-224.5 816,-224.5"/>
<text text-anchor="middle" x="867.5" y="-231.5" font-family="Helvetica,sans-Serif" font-size="10.00" fill="#000000">GameService.hxx</text>
</a>
</g>
</g>
<!-- Node0&#45;&gt;Node14 -->
<g id="edge14" class="edge">
<title>Node0&#45;&gt;Node14</title>
<path fill="none" stroke="#191970" d="M943.4235,-336.4509C929.5188,-317.688 898.4433,-275.7548 880.6599,-251.758"/>
<polygon fill="#191970" stroke="#191970" points="883.3247,-249.4753 874.5586,-243.5249 877.7006,-253.6431 883.3247,-249.4753"/>
</g>
<!-- Node27 -->
<g id="node28" class="node">
<title>Node27</title>
<g id="a_node28"><a xlink:href="Randomizer_8hxx.html" target="_top" xlink:title="services/Randomizer.hxx">
<polygon fill="none" stroke="#000000" points="979,-280.5 979,-299.5 1118,-299.5 1118,-280.5 979,-280.5"/>
<text text-anchor="middle" x="1048.5" y="-287.5" font-family="Helvetica,sans-Serif" font-size="10.00" fill="#000000">services/Randomizer.hxx</text>
</a>
</g>
</g>
<!-- Node0&#45;&gt;Node27 -->
<g id="edge34" class="edge">
<title>Node0&#45;&gt;Node27</title>
<path fill="none" stroke="#191970" d="M967.5703,-336.2455C982.747,-327.5731 1005.1621,-314.7645 1022.5563,-304.825"/>
<polygon fill="#191970" stroke="#191970" points="1024.6794,-307.643 1031.6253,-299.6427 1021.2064,-301.5653 1024.6794,-307.643"/>
</g>
<!-- Node30 -->
<g id="node31" class="node">
<title>Node30</title>
<g id="a_node31"><a xlink:href="LOG_8hxx.html" target="_top" xlink:title="../engine/basics/LOG.hxx">
<polygon fill="none" stroke="#000000" points="1122,-224.5 1122,-243.5 1259,-243.5 1259,-224.5 1122,-224.5"/>
<text text-anchor="middle" x="1190.5" y="-231.5" font-family="Helvetica,sans-Serif" font-size="10.00" fill="#000000">../engine/basics/LOG.hxx</text>
</a>
</g>
</g>
<!-- Node0&#45;&gt;Node30 -->
<g id="edge45" class="edge">
<title>Node0&#45;&gt;Node30</title>
<path fill="none" stroke="#191970" d="M992.6974,-341.6608C1030.2189,-336.3169 1085.486,-324.699 1127.5,-300 1148.0816,-287.9006 1166.2657,-267.1711 1177.7413,-252.1674"/>
<polygon fill="#191970" stroke="#191970" points="1180.8698,-253.8214 1183.981,-243.6936 1175.2331,-249.6707 1180.8698,-253.8214"/>
</g>
<!-- Node36 -->
<g id="node37" class="node">
<title>Node36</title>
<polygon fill="none" stroke="#bfbfbf" points="1174.5,-280.5 1174.5,-299.5 1222.5,-299.5 1222.5,-280.5 1174.5,-280.5"/>
<text text-anchor="middle" x="1198.5" y="-287.5" font-family="Helvetica,sans-Serif" font-size="10.00" fill="#000000">thread</text>
</g>
<!-- Node0&#45;&gt;Node36 -->
<g id="edge46" class="edge">
<title>Node0&#45;&gt;Node36</title>
<path fill="none" stroke="#191970" d="M992.8525,-337.2641C1035.3499,-328.3713 1102.627,-313.9469 1160.5,-300 1161.7684,-299.6943 1163.0593,-299.3785 1164.3624,-299.0558"/>
<polygon fill="#191970" stroke="#191970" points="1165.5863,-302.356 1174.4155,-296.4998 1163.8614,-295.5719 1165.5863,-302.356"/>
</g>
<!-- Node3 -->
<g id="node4" class="node">
<title>Node3</title>
<polygon fill="none" stroke="#bfbfbf" points="252,-112.5 252,-131.5 359,-131.5 359,-112.5 252,-112.5"/>
<text text-anchor="middle" x="305.5" y="-119.5" font-family="Helvetica,sans-Serif" font-size="10.00" fill="#000000">condition_variable</text>
</g>
<!-- Node2&#45;&gt;Node3 -->
<g id="edge3" class="edge">
<title>Node2&#45;&gt;Node3</title>
<path fill="none" stroke="#191970" d="M271.6417,-168.2455C277.3444,-160.4564 285.49,-149.3308 292.3625,-139.9439"/>
<polygon fill="#191970" stroke="#191970" points="295.3568,-141.7789 298.4402,-131.6427 289.7087,-137.6437 295.3568,-141.7789"/>
</g>
<!-- Node4 -->
<g id="node5" class="node">
<title>Node4</title>
<polygon fill="none" stroke="#bfbfbf" points="377.5,-112.5 377.5,-131.5 425.5,-131.5 425.5,-112.5 377.5,-112.5"/>
<text text-anchor="middle" x="401.5" y="-119.5" font-family="Helvetica,sans-Serif" font-size="10.00" fill="#000000">mutex</text>
</g>
<!-- Node2&#45;&gt;Node4 -->
<g id="edge4" class="edge">
<title>Node2&#45;&gt;Node4</title>
<path fill="none" stroke="#191970" d="M288.0511,-168.3733C310.3391,-159.2629 343.9937,-145.5062 368.8637,-135.3404"/>
<polygon fill="#191970" stroke="#191970" points="370.3239,-138.5247 378.2562,-131.5011 367.6753,-132.0451 370.3239,-138.5247"/>
</g>
<!-- Node5 -->
<g id="node6" class="node">
<title>Node5</title>
<polygon fill="none" stroke="#bfbfbf" points="0,-112.5 0,-131.5 47,-131.5 47,-112.5 0,-112.5"/>
<text text-anchor="middle" x="23.5" y="-119.5" font-family="Helvetica,sans-Serif" font-size="10.00" fill="#000000">deque</text>
</g>
<!-- Node2&#45;&gt;Node5 -->
<g id="edge5" class="edge">
<title>Node2&#45;&gt;Node5</title>
<path fill="none" stroke="#191970" d="M215.6483,-168.4899C175.3515,-160.3657 116.5078,-147.863 57.1198,-132.2859"/>
<polygon fill="#191970" stroke="#191970" points="57.7624,-128.8354 47.1994,-129.656 55.9686,-135.6017 57.7624,-128.8354"/>
</g>
<!-- Node6 -->
<g id="node7" class="node">
<title>Node6</title>
<polygon fill="none" stroke="#bfbfbf" points="65,-112.5 65,-131.5 112,-131.5 112,-112.5 65,-112.5"/>
<text text-anchor="middle" x="88.5" y="-119.5" font-family="Helvetica,sans-Serif" font-size="10.00" fill="#000000">vector</text>
</g>
<!-- Node2&#45;&gt;Node6 -->
<g id="edge6" class="edge">
<title>Node2&#45;&gt;Node6</title>
<path fill="none" stroke="#191970" d="M234.2445,-168.3733C203.0273,-158.4405 154.4525,-142.9849 122.0699,-132.6813"/>
<polygon fill="#191970" stroke="#191970" points="122.7581,-129.2275 112.1676,-129.5306 120.6356,-135.8979 122.7581,-129.2275"/>
</g>
<!-- Node7 -->
<g id="node8" class="node">
<title>Node7</title>
<polygon fill="none" stroke="#bfbfbf" points="130,-112.5 130,-131.5 195,-131.5 195,-112.5 130,-112.5"/>
<text text-anchor="middle" x="162.5" y="-119.5" font-family="Helvetica,sans-Serif" font-size="10.00" fill="#000000">functional</text>
</g>
<!-- Node2&#45;&gt;Node7 -->
<g id="edge7" class="edge">
<title>Node2&#45;&gt;Node7</title>
<path fill="none" stroke="#191970" d="M246.733,-168.2455C230.7905,-159.4928 207.1741,-146.527 189.0011,-136.5496"/>
<polygon fill="#191970" stroke="#191970" points="190.5137,-133.3873 180.0634,-131.6427 187.1448,-139.5233 190.5137,-133.3873"/>
</g>
<!-- Node8 -->
<g id="node9" class="node">
<title>Node8</title>
<polygon fill="none" stroke="#bfbfbf" points="254.5,-56.5 254.5,-75.5 308.5,-75.5 308.5,-56.5 254.5,-56.5"/>
<text text-anchor="middle" x="281.5" y="-63.5" font-family="Helvetica,sans-Serif" font-size="10.00" fill="#000000">ciso646</text>
</g>
<!-- Node2&#45;&gt;Node8 -->
<g id="edge8" class="edge">
<title>Node2&#45;&gt;Node8</title>
<path fill="none" stroke="#191970" d="M256.9465,-168.0962C248.0265,-155.13 235.2618,-131.7302 242.5,-112 246.5568,-100.9418 254.5797,-90.7193 262.2994,-82.7335"/>
<polygon fill="#191970" stroke="#191970" points="264.9872,-85.0041 269.76,-75.5451 260.1302,-79.9632 264.9872,-85.0041"/>
</g>
<!-- Node10 -->
<g id="node11" class="node">
<title>Node10</title>
<polygon fill="none" stroke="#bfbfbf" points="1111.5,-.5 1111.5,-19.5 1171.5,-19.5 1171.5,-.5 1111.5,-.5"/>
<text text-anchor="middle" x="1141.5" y="-7.5" font-family="Helvetica,sans-Serif" font-size="10.00" fill="#000000">iostream</text>
</g>
<!-- Node9&#45;&gt;Node10 -->
<g id="edge10" class="edge">
<title>Node9&#45;&gt;Node10</title>
<path fill="none" stroke="#191970" d="M972.5689,-56.3733C1008.2852,-46.5688 1063.6043,-31.3831 1101.126,-21.0831"/>
<polygon fill="#191970" stroke="#191970" points="1102.4893,-24.3384 1111.2061,-18.316 1100.6363,-17.5881 1102.4893,-24.3384"/>
</g>
<!-- Node11 -->
<g id="node12" class="node">
<title>Node11</title>
<polygon fill="none" stroke="#bfbfbf" points="903,-.5 903,-19.5 972,-19.5 972,-.5 903,-.5"/>
<text text-anchor="middle" x="937.5" y="-7.5" font-family="Helvetica,sans-Serif" font-size="10.00" fill="#000000">type_traits</text>
</g>
<!-- Node9&#45;&gt;Node11 -->
<g id="edge11" class="edge">
<title>Node9&#45;&gt;Node11</title>
<path fill="none" stroke="#191970" d="M937.5,-56.2455C937.5,-48.9382 937.5,-38.6944 937.5,-29.7046"/>
<polygon fill="#191970" stroke="#191970" points="941.0001,-29.6426 937.5,-19.6427 934.0001,-29.6427 941.0001,-29.6426"/>
</g>
<!-- Node12 -->
<g id="node13" class="node">
<title>Node12</title>
<polygon fill="none" stroke="#bfbfbf" points="990,-.5 990,-19.5 1041,-19.5 1041,-.5 990,-.5"/>
<text text-anchor="middle" x="1015.5" y="-7.5" font-family="Helvetica,sans-Serif" font-size="10.00" fill="#000000">variant</text>
</g>
<!-- Node9&#45;&gt;Node12 -->
<g id="edge12" class="edge">
<title>Node9&#45;&gt;Node12</title>
<path fill="none" stroke="#191970" d="M951.0866,-56.2455C962.8305,-47.814 980.0199,-35.4729 993.6882,-25.6598"/>
<polygon fill="#191970" stroke="#191970" points="995.9871,-28.3179 1002.0691,-19.6427 991.9046,-22.6316 995.9871,-28.3179"/>
</g>
<!-- Node13 -->
<g id="node14" class="node">
<title>Node13</title>
<polygon fill="none" stroke="#bfbfbf" points="844,-.5 844,-19.5 885,-19.5 885,-.5 844,-.5"/>
<text text-anchor="middle" x="864.5" y="-7.5" font-family="Helvetica,sans-Serif" font-size="10.00" fill="#000000">tuple</text>
</g>
<!-- Node9&#45;&gt;Node13 -->
<g id="edge13" class="edge">
<title>Node9&#45;&gt;Node13</title>
<path fill="none" stroke="#191970" d="M924.7844,-56.2455C913.898,-47.8943 898.0117,-35.7076 885.28,-25.9408"/>
<polygon fill="#191970" stroke="#191970" points="887.1346,-22.9523 877.0699,-19.6427 882.8739,-28.5063 887.1346,-22.9523"/>
</g>
<!-- Node14&#45;&gt;Node2 -->
<g id="edge32" class="edge">
<title>Node14&#45;&gt;Node2</title>
<path fill="none" stroke="#191970" d="M815.6622,-225.8208C810.8797,-225.1644 806.1035,-224.5453 801.5,-224 637.6092,-204.5853 444.6465,-190.0876 340.4673,-182.9473"/>
<polygon fill="#191970" stroke="#191970" points="340.5744,-179.4466 330.3596,-182.2586 340.0985,-186.4304 340.5744,-179.4466"/>
</g>
<!-- Node15 -->
<g id="node16" class="node">
<title>Node15</title>
<g id="a_node16"><a xlink:href="Events_8hxx.html" target="_top" xlink:title="Events.hxx">
<polygon fill="none" stroke="#000000" points="671,-168.5 671,-187.5 742,-187.5 742,-168.5 671,-168.5"/>
<text text-anchor="middle" x="706.5" y="-175.5" font-family="Helvetica,sans-Serif" font-size="10.00" fill="#000000">Events.hxx</text>
</a>
</g>
</g>
<!-- Node14&#45;&gt;Node15 -->
<g id="edge15" class="edge">
<title>Node14&#45;&gt;Node15</title>
<path fill="none" stroke="#191970" d="M839.8231,-224.3733C813.1672,-215.1016 772.6762,-201.0178 743.3116,-190.804"/>
<polygon fill="#191970" stroke="#191970" points="744.4105,-187.4807 733.8157,-187.5011 742.1109,-194.0921 744.4105,-187.4807"/>
</g>
<!-- Node26 -->
<g id="node27" class="node">
<title>Node26</title>
<g id="a_node27"><a xlink:href="GameService_8inl_8hxx.html" target="_top" xlink:title="GameService.inl.hxx">
<polygon fill="none" stroke="#000000" points="806.5,-168.5 806.5,-187.5 924.5,-187.5 924.5,-168.5 806.5,-168.5"/>
<text text-anchor="middle" x="865.5" y="-175.5" font-family="Helvetica,sans-Serif" font-size="10.00" fill="#000000">GameService.inl.hxx</text>
</a>
</g>
</g>
<!-- Node14&#45;&gt;Node26 -->
<g id="edge33" class="edge">
<title>Node14&#45;&gt;Node26</title>
<path fill="none" stroke="#191970" d="M867.1516,-224.2455C866.8907,-216.9382 866.5248,-206.6944 866.2037,-197.7046"/>
<polygon fill="#191970" stroke="#191970" points="869.6992,-197.5113 865.8444,-187.6427 862.7036,-197.7613 869.6992,-197.5113"/>
</g>
<!-- Node15&#45;&gt;Node9 -->
<g id="edge18" class="edge">
<title>Node15&#45;&gt;Node9</title>
<path fill="none" stroke="#191970" d="M742.2454,-174.6548C795.8154,-168.9325 893.3344,-155.5422 918.5,-132 931.1286,-120.186 935.5464,-100.575 937.0035,-85.7931"/>
<polygon fill="#191970" stroke="#191970" points="940.5074,-85.8357 937.6276,-75.6398 933.5206,-85.4062 940.5074,-85.8357"/>
</g>
<!-- Node16 -->
<g id="node17" class="node">
<title>Node16</title>
<polygon fill="none" stroke="#bfbfbf" points="643.5,-56.5 643.5,-75.5 687.5,-75.5 687.5,-56.5 643.5,-56.5"/>
<text text-anchor="middle" x="665.5" y="-63.5" font-family="Helvetica,sans-Serif" font-size="10.00" fill="#000000">string</text>
</g>
<!-- Node15&#45;&gt;Node16 -->
<g id="edge16" class="edge">
<title>Node15&#45;&gt;Node16</title>
<path fill="none" stroke="#191970" d="M672.9998,-168.3574C655.2388,-161.3494 634.976,-149.8886 624.5,-132 614.4347,-114.8127 629.6201,-95.4953 644.2765,-82.2229"/>
<polygon fill="#191970" stroke="#191970" points="646.824,-84.6523 652.2007,-75.5231 642.3045,-79.3068 646.824,-84.6523"/>
</g>
<!-- Node17 -->
<g id="node18" class="node">
<title>Node17</title>
<polygon fill="none" stroke="#bfbfbf" points="633.5,-112.5 633.5,-131.5 733.5,-131.5 733.5,-112.5 633.5,-112.5"/>
<text text-anchor="middle" x="683.5" y="-119.5" font-family="Helvetica,sans-Serif" font-size="10.00" fill="#000000">betterEnums.hxx</text>
</g>
<!-- Node15&#45;&gt;Node17 -->
<g id="edge17" class="edge">
<title>Node15&#45;&gt;Node17</title>
<path fill="none" stroke="#191970" d="M702.4937,-168.2455C699.4265,-160.7776 695.0997,-150.2427 691.3503,-141.1137"/>
<polygon fill="#191970" stroke="#191970" points="694.4972,-139.5631 687.4604,-131.6427 688.0221,-142.2226 694.4972,-139.5631"/>
</g>
<!-- Node18 -->
<g id="node19" class="node">
<title>Node18</title>
<g id="a_node19"><a xlink:href="TransitiveModel_8hxx.html" target="_top" xlink:title="util/TransitiveModel.hxx">
<polygon fill="none" stroke="#000000" points="444,-112.5 444,-131.5 577,-131.5 577,-112.5 444,-112.5"/>
<text text-anchor="middle" x="510.5" y="-119.5" font-family="Helvetica,sans-Serif" font-size="10.00" fill="#000000">util/TransitiveModel.hxx</text>
</a>
</g>
</g>
<!-- Node15&#45;&gt;Node18 -->
<g id="edge19" class="edge">
<title>Node15&#45;&gt;Node18</title>
<path fill="none" stroke="#191970" d="M672.8064,-168.3733C639.7913,-158.9404 589.3427,-144.5265 553.4614,-134.2747"/>
<polygon fill="#191970" stroke="#191970" points="554.3307,-130.8831 543.7539,-131.5011 552.4076,-137.6137 554.3307,-130.8831"/>
</g>
<!-- Node24 -->
<g id="node25" class="node">
<title>Node24</title>
<g id="a_node25"><a xlink:href="Soundtrack_8hxx.html" target="_top" xlink:title="engine/audio/Soundtrack.hxx">
<polygon fill="none" stroke="#000000" points="751.5,-112.5 751.5,-131.5 909.5,-131.5 909.5,-112.5 751.5,-112.5"/>
<text text-anchor="middle" x="830.5" y="-119.5" font-family="Helvetica,sans-Serif" font-size="10.00" fill="#000000">engine/audio/Soundtrack.hxx</text>
</a>
</g>
</g>
<!-- Node15&#45;&gt;Node24 -->
<g id="edge27" class="edge">
<title>Node15&#45;&gt;Node24</title>
<path fill="none" stroke="#191970" d="M727.8164,-168.3733C747.7216,-159.3838 777.6436,-145.8706 800.06,-135.7471"/>
<polygon fill="#191970" stroke="#191970" points="801.7887,-138.8068 809.4618,-131.5011 798.9075,-132.4272 801.7887,-138.8068"/>
</g>
<!-- Node18&#45;&gt;Node8 -->
<g id="edge26" class="edge">
<title>Node18&#45;&gt;Node8</title>
<path fill="none" stroke="#191970" d="M471.3937,-112.4369C428.5547,-101.961 360.3689,-85.2867 318.4175,-75.0279"/>
<polygon fill="#191970" stroke="#191970" points="319.1497,-71.6039 308.6045,-72.6282 317.4869,-78.4035 319.1497,-71.6039"/>
</g>
<!-- Node18&#45;&gt;Node9 -->
<g id="edge20" class="edge">
<title>Node18&#45;&gt;Node9</title>
<path fill="none" stroke="#191970" d="M577.2435,-114.4564C650.8746,-105.9429 772.8167,-91.2778 877.5,-76 880.6871,-75.5349 883.9665,-75.0386 887.2709,-74.5253"/>
<polygon fill="#191970" stroke="#191970" points="887.8655,-77.9748 897.1919,-72.948 886.7664,-71.0616 887.8655,-77.9748"/>
</g>
<!-- Node19 -->
<g id="node20" class="node">
<title>Node19</title>
<g id="a_node20"><a xlink:href="Observer_8hxx.html" target="_top" xlink:title="Observer.hxx">
<polygon fill="none" stroke="#000000" points="376,-56.5 376,-75.5 457,-75.5 457,-56.5 376,-56.5"/>
<text text-anchor="middle" x="416.5" y="-63.5" font-family="Helvetica,sans-Serif" font-size="10.00" fill="#000000">Observer.hxx</text>
</a>
</g>
</g>
<!-- Node18&#45;&gt;Node19 -->
<g id="edge21" class="edge">
<title>Node18&#45;&gt;Node19</title>
<path fill="none" stroke="#191970" d="M494.1264,-112.2455C479.5692,-103.5731 458.069,-90.7645 441.3848,-80.825"/>
<polygon fill="#191970" stroke="#191970" points="443.0683,-77.7539 432.6859,-75.6427 439.4856,-83.7676 443.0683,-77.7539"/>
</g>
<!-- Node22 -->
<g id="node23" class="node">
<title>Node22</title>
<polygon fill="none" stroke="#bfbfbf" points="475.5,-56.5 475.5,-75.5 561.5,-75.5 561.5,-56.5 475.5,-56.5"/>
<text text-anchor="middle" x="518.5" y="-63.5" font-family="Helvetica,sans-Serif" font-size="10.00" fill="#000000">unordered_set</text>
</g>
<!-- Node18&#45;&gt;Node22 -->
<g id="edge24" class="edge">
<title>Node18&#45;&gt;Node22</title>
<path fill="none" stroke="#191970" d="M511.8935,-112.2455C512.9374,-104.9382 514.4008,-94.6944 515.6851,-85.7046"/>
<polygon fill="#191970" stroke="#191970" points="519.173,-86.0372 517.1225,-75.6427 512.2434,-85.0472 519.173,-86.0372"/>
</g>
<!-- Node23 -->
<g id="node24" class="node">
<title>Node23</title>
<polygon fill="none" stroke="#bfbfbf" points="579.5,-56.5 579.5,-75.5 617.5,-75.5 617.5,-56.5 579.5,-56.5"/>
<text text-anchor="middle" x="598.5" y="-63.5" font-family="Helvetica,sans-Serif" font-size="10.00" fill="#000000">map</text>
</g>
<!-- Node18&#45;&gt;Node23 -->
<g id="edge25" class="edge">
<title>Node18&#45;&gt;Node23</title>
<path fill="none" stroke="#191970" d="M525.8284,-112.2455C539.3303,-103.6534 559.2122,-91.0014 574.7686,-81.1018"/>
<polygon fill="#191970" stroke="#191970" points="576.7897,-83.9643 583.3472,-75.6427 573.0315,-78.0587 576.7897,-83.9643"/>
</g>
<!-- Node20 -->
<g id="node21" class="node">
<title>Node20</title>
<polygon fill="none" stroke="#bfbfbf" points="595.5,-.5 595.5,-19.5 653.5,-19.5 653.5,-.5 595.5,-.5"/>
<text text-anchor="middle" x="624.5" y="-7.5" font-family="Helvetica,sans-Serif" font-size="10.00" fill="#000000">memory</text>
</g>
<!-- Node19&#45;&gt;Node20 -->
<g id="edge22" class="edge">
<title>Node19&#45;&gt;Node20</title>
<path fill="none" stroke="#191970" d="M452.2565,-56.3733C489.3619,-46.3833 547.2176,-30.8068 585.4853,-20.5039"/>
<polygon fill="#191970" stroke="#191970" points="586.5001,-23.8555 595.2463,-17.876 584.6802,-17.0961 586.5001,-23.8555"/>
</g>
<!-- Node21 -->
<g id="node22" class="node">
<title>Node21</title>
<polygon fill="none" stroke="#bfbfbf" points="379.5,-.5 379.5,-19.5 453.5,-19.5 453.5,-.5 379.5,-.5"/>
<text text-anchor="middle" x="416.5" y="-7.5" font-family="Helvetica,sans-Serif" font-size="10.00" fill="#000000">forward_list</text>
</g>
<!-- Node19&#45;&gt;Node21 -->
<g id="edge23" class="edge">
<title>Node19&#45;&gt;Node21</title>
<path fill="none" stroke="#191970" d="M416.5,-56.2455C416.5,-48.9382 416.5,-38.6944 416.5,-29.7046"/>
<polygon fill="#191970" stroke="#191970" points="420.0001,-29.6426 416.5,-19.6427 413.0001,-29.6427 420.0001,-29.6426"/>
</g>
<!-- Node24&#45;&gt;Node9 -->
<g id="edge31" class="edge">
<title>Node24&#45;&gt;Node9</title>
<path fill="none" stroke="#191970" d="M849.138,-112.2455C865.9386,-103.4527 890.8634,-90.4079 909.9618,-80.4125"/>
<polygon fill="#191970" stroke="#191970" points="911.8386,-83.3807 919.0756,-75.6427 908.5927,-77.1787 911.8386,-83.3807"/>
</g>
<!-- Node24&#45;&gt;Node16 -->
<g id="edge30" class="edge">
<title>Node24&#45;&gt;Node16</title>
<path fill="none" stroke="#191970" d="M802.1355,-112.3733C772.9961,-102.4835 727.7244,-87.1186 697.3669,-76.8154"/>
<polygon fill="#191970" stroke="#191970" points="698.2827,-73.4302 687.6884,-73.5306 696.033,-80.0589 698.2827,-73.4302"/>
</g>
<!-- Node24&#45;&gt;Node20 -->
<g id="edge28" class="edge">
<title>Node24&#45;&gt;Node20</title>
<path fill="none" stroke="#191970" d="M812.9366,-112.4509C776.7539,-92.7788 693.724,-47.6363 650.9866,-24.4005"/>
<polygon fill="#191970" stroke="#191970" points="652.4763,-21.2266 642.019,-19.5249 649.1327,-27.3764 652.4763,-21.2266"/>
</g>
<!-- Node25 -->
<g id="node26" class="node">
<title>Node25</title>
<polygon fill="none" stroke="#bfbfbf" points="792,-56.5 792,-75.5 869,-75.5 869,-56.5 792,-56.5"/>
<text text-anchor="middle" x="830.5" y="-63.5" font-family="Helvetica,sans-Serif" font-size="10.00" fill="#000000">SDL_mixer.h</text>
</g>
<!-- Node24&#45;&gt;Node25 -->
<g id="edge29" class="edge">
<title>Node24&#45;&gt;Node25</title>
<path fill="none" stroke="#191970" d="M830.5,-112.2455C830.5,-104.9382 830.5,-94.6944 830.5,-85.7046"/>
<polygon fill="#191970" stroke="#191970" points="834.0001,-85.6426 830.5,-75.6427 827.0001,-85.6427 834.0001,-85.6426"/>
</g>
<!-- Node27&#45;&gt;Node14 -->
<g id="edge37" class="edge">
<title>Node27&#45;&gt;Node14</title>
<path fill="none" stroke="#191970" d="M1017.385,-280.3733C987.1571,-271.021 941.104,-256.7725 908.0261,-246.5385"/>
<polygon fill="#191970" stroke="#191970" points="908.7967,-243.1133 898.209,-243.5011 906.7277,-249.8005 908.7967,-243.1133"/>
</g>
<!-- Node28 -->
<g id="node29" class="node">
<title>Node28</title>
<polygon fill="none" stroke="#bfbfbf" points="978.5,-224.5 978.5,-243.5 1032.5,-243.5 1032.5,-224.5 978.5,-224.5"/>
<text text-anchor="middle" x="1005.5" y="-231.5" font-family="Helvetica,sans-Serif" font-size="10.00" fill="#000000">random</text>
</g>
<!-- Node27&#45;&gt;Node28 -->
<g id="edge35" class="edge">
<title>Node27&#45;&gt;Node28</title>
<path fill="none" stroke="#191970" d="M1041.01,-280.2455C1034.9674,-272.3761 1026.3097,-261.101 1019.0559,-251.6542"/>
<polygon fill="#191970" stroke="#191970" points="1021.7705,-249.4426 1012.9042,-243.6427 1016.2185,-253.7058 1021.7705,-249.4426"/>
</g>
<!-- Node29 -->
<g id="node30" class="node">
<title>Node29</title>
<polygon fill="none" stroke="#bfbfbf" points="1051,-224.5 1051,-243.5 1104,-243.5 1104,-224.5 1051,-224.5"/>
<text text-anchor="middle" x="1077.5" y="-231.5" font-family="Helvetica,sans-Serif" font-size="10.00" fill="#000000">iterator</text>
</g>
<!-- Node27&#45;&gt;Node29 -->
<g id="edge36" class="edge">
<title>Node27&#45;&gt;Node29</title>
<path fill="none" stroke="#191970" d="M1053.5514,-280.2455C1057.5019,-272.617 1063.1097,-261.7881 1067.9058,-252.5267"/>
<polygon fill="#191970" stroke="#191970" points="1071.0159,-254.1321 1072.5065,-243.6427 1064.7999,-250.9131 1071.0159,-254.1321"/>
</g>
<!-- Node27&#45;&gt;Node30 -->
<g id="edge38" class="edge">
<title>Node27&#45;&gt;Node30</title>
<path fill="none" stroke="#191970" d="M1072.9107,-280.3733C1096.1142,-271.2226 1131.2038,-257.3844 1157.0142,-247.2057"/>
<polygon fill="#191970" stroke="#191970" points="1158.3892,-250.4258 1166.4079,-243.5011 1155.8211,-243.9139 1158.3892,-250.4258"/>
</g>
<!-- Node30&#45;&gt;Node10 -->
<g id="edge39" class="edge">
<title>Node30&#45;&gt;Node10</title>
<path fill="none" stroke="#191970" d="M1207.8758,-224.4558C1220.3589,-216.5215 1236.2182,-203.9621 1243.5,-188 1247.1893,-179.9129 1246.0131,-176.5262 1243.5,-168 1226.6019,-110.6686 1181.7133,-54.5378 1157.5064,-27.2069"/>
<polygon fill="#191970" stroke="#191970" points="1160.0106,-24.7577 1150.7117,-19.6801 1154.8146,-29.4483 1160.0106,-24.7577"/>
</g>
<!-- Node31 -->
<g id="node32" class="node">
<title>Node31</title>
<polygon fill="none" stroke="#bfbfbf" points="1290.5,-168.5 1290.5,-187.5 1340.5,-187.5 1340.5,-168.5 1290.5,-168.5"/>
<text text-anchor="middle" x="1315.5" y="-175.5" font-family="Helvetica,sans-Serif" font-size="10.00" fill="#000000">chrono</text>
</g>
<!-- Node30&#45;&gt;Node31 -->
<g id="edge40" class="edge">
<title>Node30&#45;&gt;Node31</title>
<path fill="none" stroke="#191970" d="M1211.9883,-224.3733C1232.144,-215.3435 1262.488,-201.7494 1285.118,-191.6111"/>
<polygon fill="#191970" stroke="#191970" points="1286.5971,-194.7838 1294.2921,-187.5011 1283.7351,-188.3955 1286.5971,-194.7838"/>
</g>
<!-- Node32 -->
<g id="node33" class="node">
<title>Node32</title>
<polygon fill="none" stroke="#bfbfbf" points="980.5,-168.5 980.5,-187.5 1024.5,-187.5 1024.5,-168.5 980.5,-168.5"/>
<text text-anchor="middle" x="1002.5" y="-175.5" font-family="Helvetica,sans-Serif" font-size="10.00" fill="#000000">ctime</text>
</g>
<!-- Node30&#45;&gt;Node32 -->
<g id="edge41" class="edge">
<title>Node30&#45;&gt;Node32</title>
<path fill="none" stroke="#191970" d="M1157.5854,-224.4617C1125.9816,-215.2638 1076.9183,-200.8809 1034.5,-188 1034.3991,-187.9693 1034.2979,-187.9386 1034.1966,-187.9078"/>
<polygon fill="#191970" stroke="#191970" points="1035.1066,-184.526 1024.5195,-184.9323 1033.0492,-191.2168 1035.1066,-184.526"/>
</g>
<!-- Node33 -->
<g id="node34" class="node">
<title>Node33</title>
<polygon fill="none" stroke="#bfbfbf" points="1043,-168.5 1043,-187.5 1098,-187.5 1098,-168.5 1043,-168.5"/>
<text text-anchor="middle" x="1070.5" y="-175.5" font-family="Helvetica,sans-Serif" font-size="10.00" fill="#000000">fstream</text>
</g>
<!-- Node30&#45;&gt;Node33 -->
<g id="edge42" class="edge">
<title>Node30&#45;&gt;Node33</title>
<path fill="none" stroke="#191970" d="M1169.8713,-224.3733C1150.6081,-215.3838 1121.6514,-201.8706 1099.9581,-191.7471"/>
<polygon fill="#191970" stroke="#191970" points="1101.4015,-188.5584 1090.8595,-187.5011 1098.4413,-194.9017 1101.4015,-188.5584"/>
</g>
<!-- Node34 -->
<g id="node35" class="node">
<title>Node34</title>
<polygon fill="none" stroke="#bfbfbf" points="1116.5,-168.5 1116.5,-187.5 1172.5,-187.5 1172.5,-168.5 1116.5,-168.5"/>
<text text-anchor="middle" x="1144.5" y="-175.5" font-family="Helvetica,sans-Serif" font-size="10.00" fill="#000000">sstream</text>
</g>
<!-- Node30&#45;&gt;Node34 -->
<g id="edge43" class="edge">
<title>Node30&#45;&gt;Node34</title>
<path fill="none" stroke="#191970" d="M1182.4874,-224.2455C1176.0232,-216.3761 1166.7615,-205.101 1159.0017,-195.6542"/>
<polygon fill="#191970" stroke="#191970" points="1161.4727,-193.1484 1152.4208,-187.6427 1156.0636,-197.5916 1161.4727,-193.1484"/>
</g>
<!-- Node35 -->
<g id="node36" class="node">
<title>Node35</title>
<polygon fill="none" stroke="#bfbfbf" points="1190.5,-168.5 1190.5,-187.5 1234.5,-187.5 1234.5,-168.5 1190.5,-168.5"/>
<text text-anchor="middle" x="1212.5" y="-175.5" font-family="Helvetica,sans-Serif" font-size="10.00" fill="#000000">SDL.h</text>
</g>
<!-- Node30&#45;&gt;Node35 -->
<g id="edge44" class="edge">
<title>Node30&#45;&gt;Node35</title>
<path fill="none" stroke="#191970" d="M1194.3321,-224.2455C1197.2659,-216.7776 1201.4047,-206.2427 1204.991,-197.1137"/>
<polygon fill="#191970" stroke="#191970" points="1208.3129,-198.23 1208.7118,-187.6427 1201.7976,-195.6704 1208.3129,-198.23"/>
</g>
</g>
</svg>
        <g id="navigator" transform="translate(0 0)" fill="#404254">
                <rect fill="#f2f5e9" fill-opacity="0.5" stroke="#606060" stroke-width=".5" x="0" y="0" width="60" height="60"/>
                <use id="zoomplus" xlink:href="#zoomPlus" x="17" y="9" onmousedown="handleZoom(evt,'in')"/>
                <use id="zoomminus" xlink:href="#zoomMin" x="42" y="9" onmousedown="handleZoom(evt,'out')"/>
                <use id="reset" xlink:href="#resetDef" x="30" y="36" onmousedown="handleReset()"/>
                <g id="arrowUp" xlink:href="#dirArrow" transform="translate(30 24)" onmousedown="handlePan(0,-1)">
                  <use xlink:href="#rim" fill="#404040">
                        <set attributeName="fill" to="#808080" begin="arrowUp.mouseover" end="arrowUp.mouseout"/>
                  </use>
                  <path fill="none" stroke="white" stroke-width="1.5" d="M0,-3.0v7 M-2.5,-0.5L0,-3.0L2.5,-0.5"/>
                </g>
                <g id="arrowRight" xlink:href="#dirArrow" transform="rotate(90) translate(36 -43)" onmousedown="handlePan(1,0)">
                  <use xlink:href="#rim" fill="#404040">
                        <set attributeName="fill" to="#808080" begin="arrowRight.mouseover" end="arrowRight.mouseout"/>
                  </use>
                  <path fill="none" stroke="white" stroke-width="1.5" d="M0,-3.0v7 M-2.5,-0.5L0,-3.0L2.5,-0.5"/>
                </g>
                <g id="arrowDown" xlink:href="#dirArrow" transform="rotate(180) translate(-30 -48)" onmousedown="handlePan(0,1)">
                  <use xlink:href="#rim" fill="#404040">
                        <set attributeName="fill" to="#808080" begin="arrowDown.mouseover" end="arrowDown.mouseout"/>
                  </use>
                  <path fill="none" stroke="white" stroke-width="1.5" d="M0,-3.0v7 M-2.5,-0.5L0,-3.0L2.5,-0.5"/>
                </g>
                <g id="arrowLeft" xlink:href="#dirArrow" transform="rotate(270) translate(-36 17)" onmousedown="handlePan(-1,0)">
                  <use xlink:href="#rim" fill="#404040">
                        <set attributeName="fill" to="#808080" begin="arrowLeft.mouseover" end="arrowLeft.mouseout"/>
                  </use>
                  <path fill="none" stroke="white" stroke-width="1.5" d="M0,-3.0v7 M-2.5,-0.5L0,-3.0L2.5,-0.5"/>
                </g>
        </g>
        <svg viewBox="0 0 15 15" width="100%" height="30px" preserveAspectRatio="xMaxYMin meet">
         <g id="arrow_out" transform="scale(0.3 0.3)">
          <a xlink:href="Game_8hxx__incl_org.svg" target="_base">
           <rect id="button" ry="5" rx="5" y="6" x="6" height="38" width="38"
                fill="#f2f5e9" fill-opacity="0.5" stroke="#606060" stroke-width="1.0"/>
           <path id="arrow"
             d="M 11.500037,31.436501 C 11.940474,20.09759 22.043105,11.32322 32.158766,21.979434 L 37.068811,17.246167 C 37.068811,17.246167 37.088388,32 37.088388,32 L 22.160133,31.978069 C 22.160133,31.978069 26.997745,27.140456 26.997745,27.140456 C 18.528582,18.264221 13.291696,25.230495 11.500037,31.436501 z"
             style="fill:#404040;"/>
          </a>
         </g>
        </svg>
</svg>
