<?xml version="1.0" encoding="UTF-8" standalone="no"?>
<!DOCTYPE svg PUBLIC "-//W3C//DTD SVG 1.1//EN"
 "http://www.w3.org/Graphics/SVG/1.1/DTD/svg11.dtd">
<!-- Generated by graphviz version 2.40.1 (20161225.0304)
 -->
<!-- Title: src/GameService.hxx Pages: 1 -->
<!--zoomable 252 -->
<svg id="main" version="1.1" xmlns="http://www.w3.org/2000/svg" xmlns:xlink="http://www.w3.org/1999/xlink" xml:space="preserve" onload="init(evt)">
<style type="text/css"><![CDATA[
.edge:hover path { stroke: red; }
.edge:hover polygon { stroke: red; fill: red; }
]]></style>
<script type="text/javascript"><![CDATA[
var edges = document.getElementsByTagName('g');
if (edges && edges.length) {
  for (var i=0;i<edges.length;i++) {
    if (edges[i].id.substr(0,4)=='edge') {
      edges[i].setAttribute('class','edge');
    }
  }
}
]]></script>
        <defs>
                <circle id="rim" cx="0" cy="0" r="7"/>
                <circle id="rim2" cx="0" cy="0" r="3.5"/>
                <g id="zoomPlus">
                        <use xlink:href="#rim" fill="#404040">
                                <set attributeName="fill" to="#808080" begin="zoomplus.mouseover" end="zoomplus.mouseout"/>
                        </use>
                        <path d="M-4,0h8M0,-4v8" fill="none" stroke="white" stroke-width="1.5" pointer-events="none"/>
                </g>
                <g id="zoomMin">
                        <use xlink:href="#rim" fill="#404040">
                                <set attributeName="fill" to="#808080" begin="zoomminus.mouseover" end="zoomminus.mouseout"/>
                        </use>
                        <path d="M-4,0h8" fill="none" stroke="white" stroke-width="1.5" pointer-events="none"/>
                </g>
                <g id="dirArrow">
                        <path fill="none" stroke="white" stroke-width="1.5" d="M0,-3.0v7 M-2.5,-0.5L0,-3.0L2.5,-0.5"/>
                </g>
               <g id="resetDef">
                       <use xlink:href="#rim2" fill="#404040">
                               <set attributeName="fill" to="#808080" begin="reset.mouseover" end="reset.mouseout"/>
                       </use>
               </g>
        </defs>

<script type="text/javascript">
var viewWidth = 1080;
var viewHeight = 252;
var sectionId = 'dynsection-0';
</script>
<script xlink:href="svgpan.js"/>
<svg id="graph" class="graph">
<g id="viewport">
<title>src/GameService.hxx</title>
<!-- Node0 -->
<g id="node1" class="node">
<title>Node0</title>
<polygon fill="#bfbfbf" stroke="#000000" points="774,-224.5 774,-243.5 894,-243.5 894,-224.5 774,-224.5"/>
<text text-anchor="middle" x="834" y="-231.5" font-family="Helvetica,sans-Serif" font-size="10.00" fill="#000000">src/GameService.hxx</text>
</g>
<!-- Node1 -->
<g id="node2" class="node">
<title>Node1</title>
<g id="a_node2"><a xlink:href="Events_8hxx.html" target="_top" xlink:title="Events.hxx">
<polygon fill="none" stroke="#000000" points="309.5,-168.5 309.5,-187.5 380.5,-187.5 380.5,-168.5 309.5,-168.5"/>
<text text-anchor="middle" x="345" y="-175.5" font-family="Helvetica,sans-Serif" font-size="10.00" fill="#000000">Events.hxx</text>
</a>
</g>
</g>
<!-- Node0&#45;&gt;Node1 -->
<g id="edge1" class="edge">
<title>Node0&#45;&gt;Node1</title>
<path fill="none" stroke="#191970" d="M773.5486,-227.0771C674.3684,-215.7191 479.2848,-193.3782 390.6969,-183.2332"/>
<polygon fill="#191970" stroke="#191970" points="391.0211,-179.7475 380.6877,-182.0869 390.2246,-186.7021 391.0211,-179.7475"/>
</g>
<!-- Node18 -->
<g id="node19" class="node">
<title>Node18</title>
<g id="a_node19"><a xlink:href="MessageQueue_8hxx.html" target="_top" xlink:title="util/MessageQueue.hxx">
<polygon fill="none" stroke="#000000" points="768.5,-168.5 768.5,-187.5 899.5,-187.5 899.5,-168.5 768.5,-168.5"/>
<text text-anchor="middle" x="834" y="-175.5" font-family="Helvetica,sans-Serif" font-size="10.00" fill="#000000">util/MessageQueue.hxx</text>
</a>
</g>
</g>
<!-- Node0&#45;&gt;Node18 -->
<g id="edge22" class="edge">
<title>Node0&#45;&gt;Node18</title>
<path fill="none" stroke="#191970" d="M834,-224.2455C834,-216.9382 834,-206.6944 834,-197.7046"/>
<polygon fill="#191970" stroke="#191970" points="837.5001,-197.6426 834,-187.6427 830.5001,-197.6427 837.5001,-197.6426"/>
</g>
<!-- Node24 -->
<g id="node25" class="node">
<title>Node24</title>
<g id="a_node25"><a xlink:href="GameService_8inl_8hxx.html" target="_top" xlink:title="GameService.inl.hxx">
<polygon fill="none" stroke="#000000" points="918,-168.5 918,-187.5 1036,-187.5 1036,-168.5 918,-168.5"/>
<text text-anchor="middle" x="977" y="-175.5" font-family="Helvetica,sans-Serif" font-size="10.00" fill="#000000">GameService.inl.hxx</text>
</a>
</g>
</g>
<!-- Node0&#45;&gt;Node24 -->
<g id="edge29" class="edge">
<title>Node0&#45;&gt;Node24</title>
<path fill="none" stroke="#191970" d="M858.5826,-224.3733C881.9496,-215.2226 917.2862,-201.3844 943.2784,-191.2057"/>
<polygon fill="#191970" stroke="#191970" points="944.703,-194.4066 952.7382,-187.5011 942.1505,-187.8886 944.703,-194.4066"/>
</g>
<!-- Node2 -->
<g id="node3" class="node">
<title>Node2</title>
<polygon fill="none" stroke="#bfbfbf" points="85,-56.5 85,-75.5 129,-75.5 129,-56.5 85,-56.5"/>
<text text-anchor="middle" x="107" y="-63.5" font-family="Helvetica,sans-Serif" font-size="10.00" fill="#000000">string</text>
</g>
<!-- Node1&#45;&gt;Node2 -->
<g id="edge2" class="edge">
<title>Node1&#45;&gt;Node2</title>
<path fill="none" stroke="#191970" d="M309.3341,-175.0005C271.4049,-170.464 210.8215,-159.2612 166,-132 146.2089,-119.9627 129.271,-99.2222 118.6867,-84.1989"/>
<polygon fill="#191970" stroke="#191970" points="121.4494,-82.0362 112.9488,-75.7124 115.6505,-85.957 121.4494,-82.0362"/>
</g>
<!-- Node3 -->
<g id="node4" class="node">
<title>Node3</title>
<polygon fill="none" stroke="#bfbfbf" points="512,-112.5 512,-131.5 612,-131.5 612,-112.5 512,-112.5"/>
<text text-anchor="middle" x="562" y="-119.5" font-family="Helvetica,sans-Serif" font-size="10.00" fill="#000000">betterEnums.hxx</text>
</g>
<!-- Node1&#45;&gt;Node3 -->
<g id="edge3" class="edge">
<title>Node1&#45;&gt;Node3</title>
<path fill="none" stroke="#191970" d="M380.8331,-168.7527C417.5657,-159.2734 474.8632,-144.4869 515.1662,-134.0861"/>
<polygon fill="#191970" stroke="#191970" points="516.2155,-137.4301 525.0237,-131.5423 514.4663,-130.6522 516.2155,-137.4301"/>
</g>
<!-- Node4 -->
<g id="node5" class="node">
<title>Node4</title>
<g id="a_node5"><a xlink:href="Meta_8hxx.html" target="_top" xlink:title="util/Meta.hxx">
<polygon fill="none" stroke="#000000" points="147,-56.5 147,-75.5 227,-75.5 227,-56.5 147,-56.5"/>
<text text-anchor="middle" x="187" y="-63.5" font-family="Helvetica,sans-Serif" font-size="10.00" fill="#000000">util/Meta.hxx</text>
</a>
</g>
</g>
<!-- Node1&#45;&gt;Node4 -->
<g id="edge4" class="edge">
<title>Node1&#45;&gt;Node4</title>
<path fill="none" stroke="#191970" d="M309.2107,-173.4231C264.3114,-166.8615 191.2138,-153.1842 175,-132 164.6479,-118.4744 170.0403,-98.8624 176.5666,-84.5325"/>
<polygon fill="#191970" stroke="#191970" points="179.6966,-86.0987 181.0863,-75.5954 173.45,-82.9396 179.6966,-86.0987"/>
</g>
<!-- Node9 -->
<g id="node10" class="node">
<title>Node9</title>
<g id="a_node10"><a xlink:href="TransitiveModel_8hxx.html" target="_top" xlink:title="util/TransitiveModel.hxx">
<polygon fill="none" stroke="#000000" points="360.5,-112.5 360.5,-131.5 493.5,-131.5 493.5,-112.5 360.5,-112.5"/>
<text text-anchor="middle" x="427" y="-119.5" font-family="Helvetica,sans-Serif" font-size="10.00" fill="#000000">util/TransitiveModel.hxx</text>
</a>
</g>
</g>
<!-- Node1&#45;&gt;Node9 -->
<g id="edge9" class="edge">
<title>Node1&#45;&gt;Node9</title>
<path fill="none" stroke="#191970" d="M359.2833,-168.2455C371.747,-159.7337 390.0451,-147.2375 404.4792,-137.3801"/>
<polygon fill="#191970" stroke="#191970" points="406.5962,-140.1726 412.8804,-131.6427 402.6485,-134.392 406.5962,-140.1726"/>
</g>
<!-- Node16 -->
<g id="node17" class="node">
<title>Node16</title>
<g id="a_node17"><a xlink:href="Soundtrack_8hxx.html" target="_top" xlink:title="engine/audio/Soundtrack.hxx">
<polygon fill="none" stroke="#000000" points="184,-112.5 184,-131.5 342,-131.5 342,-112.5 184,-112.5"/>
<text text-anchor="middle" x="263" y="-119.5" font-family="Helvetica,sans-Serif" font-size="10.00" fill="#000000">engine/audio/Soundtrack.hxx</text>
</a>
</g>
</g>
<!-- Node1&#45;&gt;Node16 -->
<g id="edge17" class="edge">
<title>Node1&#45;&gt;Node16</title>
<path fill="none" stroke="#191970" d="M330.7167,-168.2455C318.253,-159.7337 299.9549,-147.2375 285.5208,-137.3801"/>
<polygon fill="#191970" stroke="#191970" points="287.3515,-134.392 277.1196,-131.6427 283.4038,-140.1726 287.3515,-134.392"/>
</g>
<!-- Node5 -->
<g id="node6" class="node">
<title>Node5</title>
<polygon fill="none" stroke="#bfbfbf" points="0,-.5 0,-19.5 60,-19.5 60,-.5 0,-.5"/>
<text text-anchor="middle" x="30" y="-7.5" font-family="Helvetica,sans-Serif" font-size="10.00" fill="#000000">iostream</text>
</g>
<!-- Node4&#45;&gt;Node5 -->
<g id="edge5" class="edge">
<title>Node4&#45;&gt;Node5</title>
<path fill="none" stroke="#191970" d="M160.0107,-56.3733C134.1301,-47.1419 94.8752,-33.1402 66.2711,-22.9375"/>
<polygon fill="#191970" stroke="#191970" points="67.2317,-19.5642 56.6371,-19.5011 64.88,-26.1573 67.2317,-19.5642"/>
</g>
<!-- Node6 -->
<g id="node7" class="node">
<title>Node6</title>
<polygon fill="none" stroke="#bfbfbf" points="78.5,-.5 78.5,-19.5 147.5,-19.5 147.5,-.5 78.5,-.5"/>
<text text-anchor="middle" x="113" y="-7.5" font-family="Helvetica,sans-Serif" font-size="10.00" fill="#000000">type_traits</text>
</g>
<!-- Node4&#45;&gt;Node6 -->
<g id="edge6" class="edge">
<title>Node4&#45;&gt;Node6</title>
<path fill="none" stroke="#191970" d="M174.1102,-56.2455C163.0746,-47.8943 146.9708,-35.7076 134.0647,-25.9408"/>
<polygon fill="#191970" stroke="#191970" points="135.8283,-22.8862 125.7421,-19.6427 131.6041,-28.4681 135.8283,-22.8862"/>
</g>
<!-- Node7 -->
<g id="node8" class="node">
<title>Node7</title>
<polygon fill="none" stroke="#bfbfbf" points="165.5,-.5 165.5,-19.5 216.5,-19.5 216.5,-.5 165.5,-.5"/>
<text text-anchor="middle" x="191" y="-7.5" font-family="Helvetica,sans-Serif" font-size="10.00" fill="#000000">variant</text>
</g>
<!-- Node4&#45;&gt;Node7 -->
<g id="edge7" class="edge">
<title>Node4&#45;&gt;Node7</title>
<path fill="none" stroke="#191970" d="M187.6967,-56.2455C188.2187,-48.9382 188.9504,-38.6944 189.5925,-29.7046"/>
<polygon fill="#191970" stroke="#191970" points="193.0898,-29.8667 190.3112,-19.6427 186.1076,-29.3679 193.0898,-29.8667"/>
</g>
<!-- Node8 -->
<g id="node9" class="node">
<title>Node8</title>
<polygon fill="none" stroke="#bfbfbf" points="234.5,-.5 234.5,-19.5 275.5,-19.5 275.5,-.5 234.5,-.5"/>
<text text-anchor="middle" x="255" y="-7.5" font-family="Helvetica,sans-Serif" font-size="10.00" fill="#000000">tuple</text>
</g>
<!-- Node4&#45;&gt;Node8 -->
<g id="edge8" class="edge">
<title>Node4&#45;&gt;Node8</title>
<path fill="none" stroke="#191970" d="M198.8447,-56.2455C208.888,-47.9746 223.4995,-35.9416 235.3004,-26.2232"/>
<polygon fill="#191970" stroke="#191970" points="237.7967,-28.7015 243.291,-19.6427 233.3467,-23.298 237.7967,-28.7015"/>
</g>
<!-- Node9&#45;&gt;Node4 -->
<g id="edge10" class="edge">
<title>Node9&#45;&gt;Node4</title>
<path fill="none" stroke="#191970" d="M386.0152,-112.4369C344.779,-102.8151 281.1336,-87.9645 236.9639,-77.6583"/>
<polygon fill="#191970" stroke="#191970" points="237.5502,-74.2011 227.0165,-75.3372 235.9596,-81.018 237.5502,-74.2011"/>
</g>
<!-- Node10 -->
<g id="node11" class="node">
<title>Node10</title>
<g id="a_node11"><a xlink:href="Observer_8hxx.html" target="_top" xlink:title="Observer.hxx">
<polygon fill="none" stroke="#000000" points="378.5,-56.5 378.5,-75.5 459.5,-75.5 459.5,-56.5 378.5,-56.5"/>
<text text-anchor="middle" x="419" y="-63.5" font-family="Helvetica,sans-Serif" font-size="10.00" fill="#000000">Observer.hxx</text>
</a>
</g>
</g>
<!-- Node9&#45;&gt;Node10 -->
<g id="edge11" class="edge">
<title>Node9&#45;&gt;Node10</title>
<path fill="none" stroke="#191970" d="M425.6065,-112.2455C424.5626,-104.9382 423.0992,-94.6944 421.8149,-85.7046"/>
<polygon fill="#191970" stroke="#191970" points="425.2566,-85.0472 420.3775,-75.6427 418.327,-86.0372 425.2566,-85.0472"/>
</g>
<!-- Node13 -->
<g id="node14" class="node">
<title>Node13</title>
<polygon fill="none" stroke="#bfbfbf" points="478,-56.5 478,-75.5 564,-75.5 564,-56.5 478,-56.5"/>
<text text-anchor="middle" x="521" y="-63.5" font-family="Helvetica,sans-Serif" font-size="10.00" fill="#000000">unordered_set</text>
</g>
<!-- Node9&#45;&gt;Node13 -->
<g id="edge14" class="edge">
<title>Node9&#45;&gt;Node13</title>
<path fill="none" stroke="#191970" d="M443.3736,-112.2455C457.9308,-103.5731 479.431,-90.7645 496.1152,-80.825"/>
<polygon fill="#191970" stroke="#191970" points="498.0144,-83.7676 504.8141,-75.6427 494.4317,-77.7539 498.0144,-83.7676"/>
</g>
<!-- Node14 -->
<g id="node15" class="node">
<title>Node14</title>
<polygon fill="none" stroke="#bfbfbf" points="582,-56.5 582,-75.5 620,-75.5 620,-56.5 582,-56.5"/>
<text text-anchor="middle" x="601" y="-63.5" font-family="Helvetica,sans-Serif" font-size="10.00" fill="#000000">map</text>
</g>
<!-- Node9&#45;&gt;Node14 -->
<g id="edge15" class="edge">
<title>Node9&#45;&gt;Node14</title>
<path fill="none" stroke="#191970" d="M458.4392,-112.4705C486.1137,-103.9993 527.7126,-91.0659 572.2167,-76.1855"/>
<polygon fill="#191970" stroke="#191970" points="573.3889,-79.484 581.7536,-72.9815 571.1596,-72.8485 573.3889,-79.484"/>
</g>
<!-- Node15 -->
<g id="node16" class="node">
<title>Node15</title>
<polygon fill="none" stroke="#bfbfbf" points="638,-56.5 638,-75.5 692,-75.5 692,-56.5 638,-56.5"/>
<text text-anchor="middle" x="665" y="-63.5" font-family="Helvetica,sans-Serif" font-size="10.00" fill="#000000">ciso646</text>
</g>
<!-- Node9&#45;&gt;Node15 -->
<g id="edge16" class="edge">
<title>Node9&#45;&gt;Node15</title>
<path fill="none" stroke="#191970" d="M471.6745,-112.4587C510.5389,-104.0165 568.599,-91.0654 627.9826,-76.1764"/>
<polygon fill="#191970" stroke="#191970" points="629.0694,-79.5119 637.9095,-73.6722 627.3572,-72.7246 629.0694,-79.5119"/>
</g>
<!-- Node11 -->
<g id="node12" class="node">
<title>Node11</title>
<polygon fill="none" stroke="#bfbfbf" points="302,-.5 302,-19.5 360,-19.5 360,-.5 302,-.5"/>
<text text-anchor="middle" x="331" y="-7.5" font-family="Helvetica,sans-Serif" font-size="10.00" fill="#000000">memory</text>
</g>
<!-- Node10&#45;&gt;Node11 -->
<g id="edge12" class="edge">
<title>Node10&#45;&gt;Node11</title>
<path fill="none" stroke="#191970" d="M403.6716,-56.2455C390.1697,-47.6534 370.2878,-35.0014 354.7314,-25.1018"/>
<polygon fill="#191970" stroke="#191970" points="356.4685,-22.0587 346.1528,-19.6427 352.7103,-27.9643 356.4685,-22.0587"/>
</g>
<!-- Node12 -->
<g id="node13" class="node">
<title>Node12</title>
<polygon fill="none" stroke="#bfbfbf" points="382,-.5 382,-19.5 456,-19.5 456,-.5 382,-.5"/>
<text text-anchor="middle" x="419" y="-7.5" font-family="Helvetica,sans-Serif" font-size="10.00" fill="#000000">forward_list</text>
</g>
<!-- Node10&#45;&gt;Node12 -->
<g id="edge13" class="edge">
<title>Node10&#45;&gt;Node12</title>
<path fill="none" stroke="#191970" d="M419,-56.2455C419,-48.9382 419,-38.6944 419,-29.7046"/>
<polygon fill="#191970" stroke="#191970" points="422.5001,-29.6426 419,-19.6427 415.5001,-29.6427 422.5001,-29.6426"/>
</g>
<!-- Node16&#45;&gt;Node2 -->
<g id="edge20" class="edge">
<title>Node16&#45;&gt;Node2</title>
<path fill="none" stroke="#191970" d="M236.1826,-112.3733C209.22,-102.6944 167.6485,-87.7712 138.9834,-77.4812"/>
<polygon fill="#191970" stroke="#191970" points="140.022,-74.1354 129.4275,-74.0509 137.6569,-80.7238 140.022,-74.1354"/>
</g>
<!-- Node16&#45;&gt;Node4 -->
<g id="edge21" class="edge">
<title>Node16&#45;&gt;Node4</title>
<path fill="none" stroke="#191970" d="M249.7618,-112.2455C238.319,-103.814 221.5704,-91.4729 208.2525,-81.6598"/>
<polygon fill="#191970" stroke="#191970" points="210.2133,-78.757 200.0865,-75.6427 206.0609,-84.3924 210.2133,-78.757"/>
</g>
<!-- Node16&#45;&gt;Node11 -->
<g id="edge18" class="edge">
<title>Node16&#45;&gt;Node11</title>
<path fill="none" stroke="#191970" d="M262.5377,-112.3255C262.3288,-98.7896 263.5743,-73.8564 274,-56 281.2853,-43.5222 293.3326,-33.0588 304.4793,-25.2799"/>
<polygon fill="#191970" stroke="#191970" points="306.6648,-28.0326 313.1176,-19.6296 302.833,-22.1745 306.6648,-28.0326"/>
</g>
<!-- Node17 -->
<g id="node18" class="node">
<title>Node17</title>
<polygon fill="none" stroke="#bfbfbf" points="283.5,-56.5 283.5,-75.5 360.5,-75.5 360.5,-56.5 283.5,-56.5"/>
<text text-anchor="middle" x="322" y="-63.5" font-family="Helvetica,sans-Serif" font-size="10.00" fill="#000000">SDL_mixer.h</text>
</g>
<!-- Node16&#45;&gt;Node17 -->
<g id="edge19" class="edge">
<title>Node16&#45;&gt;Node17</title>
<path fill="none" stroke="#191970" d="M273.277,-112.2455C281.8218,-104.1352 294.1778,-92.4075 304.3085,-82.7919"/>
<polygon fill="#191970" stroke="#191970" points="306.9972,-85.0655 311.8408,-75.6427 302.1782,-79.9884 306.9972,-85.0655"/>
</g>
<!-- Node18&#45;&gt;Node15 -->
<g id="edge28" class="edge">
<title>Node18&#45;&gt;Node15</title>
<path fill="none" stroke="#191970" d="M778.405,-168.474C738.2593,-160.4303 688.7813,-147.72 675,-132 664.1492,-119.6227 662.2605,-100.6638 662.7295,-86.2363"/>
<polygon fill="#191970" stroke="#191970" points="666.2502,-86.077 663.4848,-75.8494 659.2686,-85.5692 666.2502,-86.077"/>
</g>
<!-- Node19 -->
<g id="node20" class="node">
<title>Node19</title>
<polygon fill="none" stroke="#bfbfbf" points="684.5,-112.5 684.5,-131.5 791.5,-131.5 791.5,-112.5 684.5,-112.5"/>
<text text-anchor="middle" x="738" y="-119.5" font-family="Helvetica,sans-Serif" font-size="10.00" fill="#000000">condition_variable</text>
</g>
<!-- Node18&#45;&gt;Node19 -->
<g id="edge23" class="edge">
<title>Node18&#45;&gt;Node19</title>
<path fill="none" stroke="#191970" d="M817.2781,-168.2455C802.4111,-159.5731 780.4534,-146.7645 763.4142,-136.825"/>
<polygon fill="#191970" stroke="#191970" points="764.9317,-133.6582 754.5303,-131.6427 761.4045,-139.7047 764.9317,-133.6582"/>
</g>
<!-- Node20 -->
<g id="node21" class="node">
<title>Node20</title>
<polygon fill="none" stroke="#bfbfbf" points="810,-112.5 810,-131.5 858,-131.5 858,-112.5 810,-112.5"/>
<text text-anchor="middle" x="834" y="-119.5" font-family="Helvetica,sans-Serif" font-size="10.00" fill="#000000">mutex</text>
</g>
<!-- Node18&#45;&gt;Node20 -->
<g id="edge24" class="edge">
<title>Node18&#45;&gt;Node20</title>
<path fill="none" stroke="#191970" d="M834,-168.2455C834,-160.9382 834,-150.6944 834,-141.7046"/>
<polygon fill="#191970" stroke="#191970" points="837.5001,-141.6426 834,-131.6427 830.5001,-141.6427 837.5001,-141.6426"/>
</g>
<!-- Node21 -->
<g id="node22" class="node">
<title>Node21</title>
<polygon fill="none" stroke="#bfbfbf" points="876.5,-112.5 876.5,-131.5 923.5,-131.5 923.5,-112.5 876.5,-112.5"/>
<text text-anchor="middle" x="900" y="-119.5" font-family="Helvetica,sans-Serif" font-size="10.00" fill="#000000">deque</text>
</g>
<!-- Node18&#45;&gt;Node21 -->
<g id="edge25" class="edge">
<title>Node18&#45;&gt;Node21</title>
<path fill="none" stroke="#191970" d="M845.4963,-168.2455C855.2442,-159.9746 869.4259,-147.9416 880.8798,-138.2232"/>
<polygon fill="#191970" stroke="#191970" points="883.2747,-140.7813 888.6354,-131.6427 878.7459,-135.4437 883.2747,-140.7813"/>
</g>
<!-- Node22 -->
<g id="node23" class="node">
<title>Node22</title>
<polygon fill="none" stroke="#bfbfbf" points="941.5,-112.5 941.5,-131.5 988.5,-131.5 988.5,-112.5 941.5,-112.5"/>
<text text-anchor="middle" x="965" y="-119.5" font-family="Helvetica,sans-Serif" font-size="10.00" fill="#000000">vector</text>
</g>
<!-- Node18&#45;&gt;Node22 -->
<g id="edge26" class="edge">
<title>Node18&#45;&gt;Node22</title>
<path fill="none" stroke="#191970" d="M856.5197,-168.3733C877.7372,-159.3032 909.7276,-145.6279 933.4769,-135.4755"/>
<polygon fill="#191970" stroke="#191970" points="934.9548,-138.6502 942.7742,-131.5011 932.2033,-132.2136 934.9548,-138.6502"/>
</g>
<!-- Node23 -->
<g id="node24" class="node">
<title>Node23</title>
<polygon fill="none" stroke="#bfbfbf" points="1006.5,-112.5 1006.5,-131.5 1071.5,-131.5 1071.5,-112.5 1006.5,-112.5"/>
<text text-anchor="middle" x="1039" y="-119.5" font-family="Helvetica,sans-Serif" font-size="10.00" fill="#000000">functional</text>
</g>
<!-- Node18&#45;&gt;Node23 -->
<g id="edge27" class="edge">
<title>Node18&#45;&gt;Node23</title>
<path fill="none" stroke="#191970" d="M869.2408,-168.3733C904.5499,-158.7278 958.9241,-143.8744 996.5792,-133.5881"/>
<polygon fill="#191970" stroke="#191970" points="997.5237,-136.9584 1006.2479,-130.9469 995.679,-130.2059 997.5237,-136.9584"/>
</g>
</g>
</svg>
        <g id="navigator" transform="translate(0 0)" fill="#404254">
                <rect fill="#f2f5e9" fill-opacity="0.5" stroke="#606060" stroke-width=".5" x="0" y="0" width="60" height="60"/>
                <use id="zoomplus" xlink:href="#zoomPlus" x="17" y="9" onmousedown="handleZoom(evt,'in')"/>
                <use id="zoomminus" xlink:href="#zoomMin" x="42" y="9" onmousedown="handleZoom(evt,'out')"/>
                <use id="reset" xlink:href="#resetDef" x="30" y="36" onmousedown="handleReset()"/>
                <g id="arrowUp" xlink:href="#dirArrow" transform="translate(30 24)" onmousedown="handlePan(0,-1)">
                  <use xlink:href="#rim" fill="#404040">
                        <set attributeName="fill" to="#808080" begin="arrowUp.mouseover" end="arrowUp.mouseout"/>
                  </use>
                  <path fill="none" stroke="white" stroke-width="1.5" d="M0,-3.0v7 M-2.5,-0.5L0,-3.0L2.5,-0.5"/>
                </g>
                <g id="arrowRight" xlink:href="#dirArrow" transform="rotate(90) translate(36 -43)" onmousedown="handlePan(1,0)">
                  <use xlink:href="#rim" fill="#404040">
                        <set attributeName="fill" to="#808080" begin="arrowRight.mouseover" end="arrowRight.mouseout"/>
                  </use>
                  <path fill="none" stroke="white" stroke-width="1.5" d="M0,-3.0v7 M-2.5,-0.5L0,-3.0L2.5,-0.5"/>
                </g>
                <g id="arrowDown" xlink:href="#dirArrow" transform="rotate(180) translate(-30 -48)" onmousedown="handlePan(0,1)">
                  <use xlink:href="#rim" fill="#404040">
                        <set attributeName="fill" to="#808080" begin="arrowDown.mouseover" end="arrowDown.mouseout"/>
                  </use>
                  <path fill="none" stroke="white" stroke-width="1.5" d="M0,-3.0v7 M-2.5,-0.5L0,-3.0L2.5,-0.5"/>
                </g>
                <g id="arrowLeft" xlink:href="#dirArrow" transform="rotate(270) translate(-36 17)" onmousedown="handlePan(-1,0)">
                  <use xlink:href="#rim" fill="#404040">
                        <set attributeName="fill" to="#808080" begin="arrowLeft.mouseover" end="arrowLeft.mouseout"/>
                  </use>
                  <path fill="none" stroke="white" stroke-width="1.5" d="M0,-3.0v7 M-2.5,-0.5L0,-3.0L2.5,-0.5"/>
                </g>
        </g>
        <svg viewBox="0 0 15 15" width="100%" height="30px" preserveAspectRatio="xMaxYMin meet">
         <g id="arrow_out" transform="scale(0.3 0.3)">
          <a xlink:href="GameService_8hxx__incl_org.svg" target="_base">
           <rect id="button" ry="5" rx="5" y="6" x="6" height="38" width="38"
                fill="#f2f5e9" fill-opacity="0.5" stroke="#606060" stroke-width="1.0"/>
           <path id="arrow"
             d="M 11.500037,31.436501 C 11.940474,20.09759 22.043105,11.32322 32.158766,21.979434 L 37.068811,17.246167 C 37.068811,17.246167 37.088388,32 37.088388,32 L 22.160133,31.978069 C 22.160133,31.978069 26.997745,27.140456 26.997745,27.140456 C 18.528582,18.264221 13.291696,25.230495 11.500037,31.436501 z"
             style="fill:#404040;"/>
          </a>
         </g>
        </svg>
</svg>
