<?xml version="1.0" encoding="UTF-8" standalone="no"?>
<!DOCTYPE svg PUBLIC "-//W3C//DTD SVG 1.1//EN"
 "http://www.w3.org/Graphics/SVG/1.1/DTD/svg11.dtd">
<!-- Generated by graphviz version 2.40.1 (20161225.0304)
 -->
<!-- Title: src/GameService.inl.hxx Pages: 1 -->
<!--zoomable 252 -->
<svg id="main" version="1.1" xmlns="http://www.w3.org/2000/svg" xmlns:xlink="http://www.w3.org/1999/xlink" xml:space="preserve" onload="init(evt)">
<style type="text/css"><![CDATA[
.edge:hover path { stroke: red; }
.edge:hover polygon { stroke: red; fill: red; }
]]></style>
<script type="text/javascript"><![CDATA[
var edges = document.getElementsByTagName('g');
if (edges && edges.length) {
  for (var i=0;i<edges.length;i++) {
    if (edges[i].id.substr(0,4)=='edge') {
      edges[i].setAttribute('class','edge');
    }
  }
}
]]></script>
        <defs>
                <circle id="rim" cx="0" cy="0" r="7"/>
                <circle id="rim2" cx="0" cy="0" r="3.5"/>
                <g id="zoomPlus">
                        <use xlink:href="#rim" fill="#404040">
                                <set attributeName="fill" to="#808080" begin="zoomplus.mouseover" end="zoomplus.mouseout"/>
                        </use>
                        <path d="M-4,0h8M0,-4v8" fill="none" stroke="white" stroke-width="1.5" pointer-events="none"/>
                </g>
                <g id="zoomMin">
                        <use xlink:href="#rim" fill="#404040">
                                <set attributeName="fill" to="#808080" begin="zoomminus.mouseover" end="zoomminus.mouseout"/>
                        </use>
                        <path d="M-4,0h8" fill="none" stroke="white" stroke-width="1.5" pointer-events="none"/>
                </g>
                <g id="dirArrow">
                        <path fill="none" stroke="white" stroke-width="1.5" d="M0,-3.0v7 M-2.5,-0.5L0,-3.0L2.5,-0.5"/>
                </g>
               <g id="resetDef">
                       <use xlink:href="#rim2" fill="#404040">
                               <set attributeName="fill" to="#808080" begin="reset.mouseover" end="reset.mouseout"/>
                       </use>
               </g>
        </defs>

<script type="text/javascript">
var viewWidth = 955;
var viewHeight = 252;
var sectionId = 'dynsection-0';
</script>
<script xlink:href="svgpan.js"/>
<svg id="graph" class="graph">
<g id="viewport">
<title>src/GameService.inl.hxx</title>
<!-- Node1 -->
<g id="node1" class="node">
<title>Node1</title>
<polygon fill="#bfbfbf" stroke="#000000" points="659.5,-224.5 659.5,-243.5 794.5,-243.5 794.5,-224.5 659.5,-224.5"/>
<text text-anchor="middle" x="727" y="-231.5" font-family="Helvetica,sans-Serif" font-size="10.00" fill="#000000">src/GameService.inl.hxx</text>
</g>
<!-- Node2 -->
<g id="node2" class="node">
<title>Node2</title>
<g id="a_node2"><a xlink:href="GameService_8hxx.html" target="_top" xlink:title="src/GameService.hxx">
<polygon fill="none" stroke="#000000" points="667,-168.5 667,-187.5 787,-187.5 787,-168.5 667,-168.5"/>
<text text-anchor="middle" x="727" y="-175.5" font-family="Helvetica,sans-Serif" font-size="10.00" fill="#000000">src/GameService.hxx</text>
</a>
</g>
</g>
<!-- Node1&#45;&gt;Node2 -->
<g id="edge1" class="edge">
<title>Node1&#45;&gt;Node2</title>
<path fill="none" stroke="#191970" d="M727,-214.1575C727,-205.155 727,-194.9199 727,-187.6427"/>
<polygon fill="#191970" stroke="#191970" points="723.5001,-214.2455 727,-224.2455 730.5001,-214.2456 723.5001,-214.2455"/>
</g>
<!-- Node3 -->
<g id="node3" class="node">
<title>Node3</title>
<g id="a_node3"><a xlink:href="AudioMixer_8hxx.html" target="_top" xlink:title="src/services/AudioMixer.hxx">
<polygon fill="none" stroke="#000000" points="479,-112.5 479,-131.5 631,-131.5 631,-112.5 479,-112.5"/>
<text text-anchor="middle" x="555" y="-119.5" font-family="Helvetica,sans-Serif" font-size="10.00" fill="#000000">src/services/AudioMixer.hxx</text>
</a>
</g>
</g>
<!-- Node2&#45;&gt;Node3 -->
<g id="edge2" class="edge">
<title>Node2&#45;&gt;Node3</title>
<path fill="none" stroke="#191970" d="M687.6565,-165.1905C656.1449,-154.9309 612.6481,-140.7691 584.182,-131.5011"/>
<polygon fill="#191970" stroke="#191970" points="686.8399,-168.6054 697.4321,-168.3733 689.007,-161.9493 686.8399,-168.6054"/>
</g>
<!-- Node9 -->
<g id="node9" class="node">
<title>Node9</title>
<g id="a_node9"><a xlink:href="Game_8hxx.html" target="_top" xlink:title="src/Game.hxx">
<polygon fill="none" stroke="#000000" points="815,-56.5 815,-75.5 899,-75.5 899,-56.5 815,-56.5"/>
<text text-anchor="middle" x="857" y="-63.5" font-family="Helvetica,sans-Serif" font-size="10.00" fill="#000000">src/Game.hxx</text>
</a>
</g>
</g>
<!-- Node2&#45;&gt;Node9 -->
<g id="edge9" class="edge">
<title>Node2&#45;&gt;Node9</title>
<path fill="none" stroke="#191970" d="M762.3057,-164.2973C779.2281,-156.5564 799.0213,-145.6732 814,-132 832.1805,-115.4041 846.0532,-89.5168 852.6878,-75.6089"/>
<polygon fill="#191970" stroke="#191970" points="760.4884,-161.2721 752.7319,-168.4892 763.2961,-167.6844 760.4884,-161.2721"/>
</g>
<!-- Node12 -->
<g id="node12" class="node">
<title>Node12</title>
<g id="a_node12"><a xlink:href="Randomizer_8hxx.html" target="_top" xlink:title="src/services/Randomizer.hxx">
<polygon fill="none" stroke="#000000" points="649,-112.5 649,-131.5 805,-131.5 805,-112.5 649,-112.5"/>
<text text-anchor="middle" x="727" y="-119.5" font-family="Helvetica,sans-Serif" font-size="10.00" fill="#000000">src/services/Randomizer.hxx</text>
</a>
</g>
</g>
<!-- Node2&#45;&gt;Node12 -->
<g id="edge12" class="edge">
<title>Node2&#45;&gt;Node12</title>
<path fill="none" stroke="#191970" d="M727,-158.1575C727,-149.155 727,-138.9199 727,-131.6427"/>
<polygon fill="#191970" stroke="#191970" points="723.5001,-158.2455 727,-168.2455 730.5001,-158.2456 723.5001,-158.2455"/>
</g>
<!-- Node4 -->
<g id="node4" class="node">
<title>Node4</title>
<g id="a_node4"><a xlink:href="JsonSerialization_8hxx.html" target="_top" xlink:title="src/engine/common/JsonSerialization.hxx">
<polygon fill="none" stroke="#000000" points="329,-56.5 329,-75.5 547,-75.5 547,-56.5 329,-56.5"/>
<text text-anchor="middle" x="438" y="-63.5" font-family="Helvetica,sans-Serif" font-size="10.00" fill="#000000">src/engine/common/JsonSerialization.hxx</text>
</a>
</g>
</g>
<!-- Node3&#45;&gt;Node4 -->
<g id="edge3" class="edge">
<title>Node3&#45;&gt;Node4</title>
<path fill="none" stroke="#191970" d="M525.6958,-107.9741C504.512,-97.8348 476.4597,-84.408 457.8506,-75.5011"/>
<polygon fill="#191970" stroke="#191970" points="524.3559,-111.2129 534.887,-112.3733 527.378,-104.8989 524.3559,-111.2129"/>
</g>
<!-- Node8 -->
<g id="node8" class="node">
<title>Node8</title>
<g id="a_node8"><a xlink:href="AudioMixer_8cxx.html" target="_top" xlink:title="src/services/AudioMixer.cxx">
<polygon fill="none" stroke="#000000" points="524,-.5 524,-19.5 676,-19.5 676,-.5 524,-.5"/>
<text text-anchor="middle" x="600" y="-7.5" font-family="Helvetica,sans-Serif" font-size="10.00" fill="#000000">src/services/AudioMixer.cxx</text>
</a>
</g>
</g>
<!-- Node3&#45;&gt;Node8 -->
<g id="edge8" class="edge">
<title>Node3&#45;&gt;Node8</title>
<path fill="none" stroke="#191970" d="M562.664,-102.9253C572.3859,-78.7284 588.7751,-37.9376 596.173,-19.5249"/>
<polygon fill="#191970" stroke="#191970" points="559.3173,-101.867 558.8367,-112.4509 565.8126,-104.4768 559.3173,-101.867"/>
</g>
<!-- Node5 -->
<g id="node5" class="node">
<title>Node5</title>
<g id="a_node5"><a xlink:href="Settings_8cxx.html" target="_top" xlink:title="src/engine/basics/Settings.cxx">
<polygon fill="none" stroke="#000000" points="0,-.5 0,-19.5 164,-19.5 164,-.5 0,-.5"/>
<text text-anchor="middle" x="82" y="-7.5" font-family="Helvetica,sans-Serif" font-size="10.00" fill="#000000">src/engine/basics/Settings.cxx</text>
</a>
</g>
</g>
<!-- Node4&#45;&gt;Node5 -->
<g id="edge4" class="edge">
<title>Node4&#45;&gt;Node5</title>
<path fill="none" stroke="#191970" d="M366.937,-54.8215C301.2389,-44.487 204.6574,-29.2944 142.5433,-19.5237"/>
<polygon fill="#191970" stroke="#191970" points="366.7835,-58.3404 377.2059,-56.4369 367.8713,-51.4254 366.7835,-58.3404"/>
</g>
<!-- Node6 -->
<g id="node6" class="node">
<title>Node6</title>
<g id="a_node6"><a xlink:href="TerrainGenerator_8cxx.html" target="_top" xlink:title="src/engine/map/TerrainGenerator.cxx">
<polygon fill="none" stroke="#000000" points="182,-.5 182,-19.5 378,-19.5 378,-.5 182,-.5"/>
<text text-anchor="middle" x="280" y="-7.5" font-family="Helvetica,sans-Serif" font-size="10.00" fill="#000000">src/engine/map/TerrainGenerator.cxx</text>
</a>
</g>
</g>
<!-- Node4&#45;&gt;Node6 -->
<g id="edge5" class="edge">
<title>Node4&#45;&gt;Node6</title>
<path fill="none" stroke="#191970" d="M401.1045,-52.9231C372.2213,-42.686 332.7294,-28.6889 306.8067,-19.5011"/>
<polygon fill="#191970" stroke="#191970" points="400.2441,-56.3314 410.8388,-56.3733 402.5826,-49.7336 400.2441,-56.3314"/>
</g>
<!-- Node7 -->
<g id="node7" class="node">
<title>Node7</title>
<g id="a_node7"><a xlink:href="Map_8cxx.html" target="_top" xlink:title="src/engine/Map.cxx">
<polygon fill="none" stroke="#000000" points="396,-.5 396,-19.5 506,-19.5 506,-.5 396,-.5"/>
<text text-anchor="middle" x="451" y="-7.5" font-family="Helvetica,sans-Serif" font-size="10.00" fill="#000000">src/engine/Map.cxx</text>
</a>
</g>
</g>
<!-- Node4&#45;&gt;Node7 -->
<g id="edge6" class="edge">
<title>Node4&#45;&gt;Node7</title>
<path fill="none" stroke="#191970" d="M442.5375,-46.4538C444.6439,-37.3803 447.0536,-26.9998 448.7615,-19.6427"/>
<polygon fill="#191970" stroke="#191970" points="439.1165,-45.7131 440.2644,-56.2455 445.9351,-47.2961 439.1165,-45.7131"/>
</g>
<!-- Node4&#45;&gt;Node8 -->
<g id="edge7" class="edge">
<title>Node4&#45;&gt;Node8</title>
<path fill="none" stroke="#191970" d="M475.4422,-53.057C505.0901,-42.8084 545.8196,-28.729 572.5146,-19.5011"/>
<polygon fill="#191970" stroke="#191970" points="474.1565,-49.7982 465.8488,-56.3733 476.4436,-56.414 474.1565,-49.7982"/>
</g>
<!-- Node10 -->
<g id="node10" class="node">
<title>Node10</title>
<g id="a_node10"><a xlink:href="Game_8cxx.html" target="_top" xlink:title="src/Game.cxx">
<polygon fill="none" stroke="#000000" points="766.5,-.5 766.5,-19.5 849.5,-19.5 849.5,-.5 766.5,-.5"/>
<text text-anchor="middle" x="808" y="-7.5" font-family="Helvetica,sans-Serif" font-size="10.00" fill="#000000">src/Game.cxx</text>
</a>
</g>
</g>
<!-- Node9&#45;&gt;Node10 -->
<g id="edge10" class="edge">
<title>Node9&#45;&gt;Node10</title>
<path fill="none" stroke="#191970" d="M841.6878,-48.5004C833.3553,-38.9775 823.3647,-27.5596 816.4373,-19.6427"/>
<polygon fill="#191970" stroke="#191970" points="839.2457,-51.0245 848.4649,-56.2455 844.5138,-46.415 839.2457,-51.0245"/>
</g>
<!-- Node11 -->
<g id="node11" class="node">
<title>Node11</title>
<g id="a_node11"><a xlink:href="main_8cxx.html" target="_top" xlink:title="src/main.cxx">
<polygon fill="none" stroke="#000000" points="867.5,-.5 867.5,-19.5 946.5,-19.5 946.5,-.5 867.5,-.5"/>
<text text-anchor="middle" x="907" y="-7.5" font-family="Helvetica,sans-Serif" font-size="10.00" fill="#000000">src/main.cxx</text>
</a>
</g>
</g>
<!-- Node9&#45;&gt;Node11 -->
<g id="edge11" class="edge">
<title>Node9&#45;&gt;Node11</title>
<path fill="none" stroke="#191970" d="M872.6247,-48.5004C881.1273,-38.9775 891.3218,-27.5596 898.3905,-19.6427"/>
<polygon fill="#191970" stroke="#191970" points="869.7587,-46.4551 865.7093,-56.2455 874.9803,-51.1172 869.7587,-46.4551"/>
</g>
<!-- Node12&#45;&gt;Node8 -->
<g id="edge14" class="edge">
<title>Node12&#45;&gt;Node8</title>
<path fill="none" stroke="#191970" d="M684.9282,-108.6904C666.8943,-101.3282 646.654,-90.6464 632,-76 615.7879,-59.7963 606.5538,-33.7497 602.4998,-19.7126"/>
<polygon fill="#191970" stroke="#191970" points="684.0809,-112.1146 694.6706,-112.4431 686.5971,-105.5825 684.0809,-112.1146"/>
</g>
<!-- Node12&#45;&gt;Node9 -->
<g id="edge13" class="edge">
<title>Node12&#45;&gt;Node9</title>
<path fill="none" stroke="#191970" d="M758.6102,-108.3833C782.2535,-98.1985 813.9876,-84.5284 834.9438,-75.5011"/>
<polygon fill="#191970" stroke="#191970" points="757.1472,-105.2025 749.3478,-112.3733 759.9166,-111.6314 757.1472,-105.2025"/>
</g>
<!-- Node13 -->
<g id="node13" class="node">
<title>Node13</title>
<g id="a_node13"><a xlink:href="Randomizer_8cxx.html" target="_top" xlink:title="src/services/Randomizer.cxx">
<polygon fill="none" stroke="#000000" points="641.5,-56.5 641.5,-75.5 796.5,-75.5 796.5,-56.5 641.5,-56.5"/>
<text text-anchor="middle" x="719" y="-63.5" font-family="Helvetica,sans-Serif" font-size="10.00" fill="#000000">src/services/Randomizer.cxx</text>
</a>
</g>
</g>
<!-- Node12&#45;&gt;Node13 -->
<g id="edge15" class="edge">
<title>Node12&#45;&gt;Node13</title>
<path fill="none" stroke="#191970" d="M724.1654,-102.1575C722.8793,-93.155 721.4171,-82.9199 720.3775,-75.6427"/>
<polygon fill="#191970" stroke="#191970" points="720.7274,-102.8411 725.6065,-112.2455 727.657,-101.851 720.7274,-102.8411"/>
</g>
</g>
</svg>
        <g id="navigator" transform="translate(0 0)" fill="#404254">
                <rect fill="#f2f5e9" fill-opacity="0.5" stroke="#606060" stroke-width=".5" x="0" y="0" width="60" height="60"/>
                <use id="zoomplus" xlink:href="#zoomPlus" x="17" y="9" onmousedown="handleZoom(evt,'in')"/>
                <use id="zoomminus" xlink:href="#zoomMin" x="42" y="9" onmousedown="handleZoom(evt,'out')"/>
                <use id="reset" xlink:href="#resetDef" x="30" y="36" onmousedown="handleReset()"/>
                <g id="arrowUp" xlink:href="#dirArrow" transform="translate(30 24)" onmousedown="handlePan(0,-1)">
                  <use xlink:href="#rim" fill="#404040">
                        <set attributeName="fill" to="#808080" begin="arrowUp.mouseover" end="arrowUp.mouseout"/>
                  </use>
                  <path fill="none" stroke="white" stroke-width="1.5" d="M0,-3.0v7 M-2.5,-0.5L0,-3.0L2.5,-0.5"/>
                </g>
                <g id="arrowRight" xlink:href="#dirArrow" transform="rotate(90) translate(36 -43)" onmousedown="handlePan(1,0)">
                  <use xlink:href="#rim" fill="#404040">
                        <set attributeName="fill" to="#808080" begin="arrowRight.mouseover" end="arrowRight.mouseout"/>
                  </use>
                  <path fill="none" stroke="white" stroke-width="1.5" d="M0,-3.0v7 M-2.5,-0.5L0,-3.0L2.5,-0.5"/>
                </g>
                <g id="arrowDown" xlink:href="#dirArrow" transform="rotate(180) translate(-30 -48)" onmousedown="handlePan(0,1)">
                  <use xlink:href="#rim" fill="#404040">
                        <set attributeName="fill" to="#808080" begin="arrowDown.mouseover" end="arrowDown.mouseout"/>
                  </use>
                  <path fill="none" stroke="white" stroke-width="1.5" d="M0,-3.0v7 M-2.5,-0.5L0,-3.0L2.5,-0.5"/>
                </g>
                <g id="arrowLeft" xlink:href="#dirArrow" transform="rotate(270) translate(-36 17)" onmousedown="handlePan(-1,0)">
                  <use xlink:href="#rim" fill="#404040">
                        <set attributeName="fill" to="#808080" begin="arrowLeft.mouseover" end="arrowLeft.mouseout"/>
                  </use>
                  <path fill="none" stroke="white" stroke-width="1.5" d="M0,-3.0v7 M-2.5,-0.5L0,-3.0L2.5,-0.5"/>
                </g>
        </g>
        <svg viewBox="0 0 15 15" width="100%" height="30px" preserveAspectRatio="xMaxYMin meet">
         <g id="arrow_out" transform="scale(0.3 0.3)">
          <a xlink:href="GameService_8inl_8hxx__dep__incl_org.svg" target="_base">
           <rect id="button" ry="5" rx="5" y="6" x="6" height="38" width="38"
                fill="#f2f5e9" fill-opacity="0.5" stroke="#606060" stroke-width="1.0"/>
           <path id="arrow"
             d="M 11.500037,31.436501 C 11.940474,20.09759 22.043105,11.32322 32.158766,21.979434 L 37.068811,17.246167 C 37.068811,17.246167 37.088388,32 37.088388,32 L 22.160133,31.978069 C 22.160133,31.978069 26.997745,27.140456 26.997745,27.140456 C 18.528582,18.264221 13.291696,25.230495 11.500037,31.436501 z"
             style="fill:#404040;"/>
          </a>
         </g>
        </svg>
</svg>
