<?xml version="1.0" encoding="UTF-8" standalone="no"?>
<!DOCTYPE svg PUBLIC "-//W3C//DTD SVG 1.1//EN"
 "http://www.w3.org/Graphics/SVG/1.1/DTD/svg11.dtd">
<!-- Generated by graphviz version 2.40.1 (20161225.0304)
 -->
<!-- Title: src/engine/ui/widgets/Image.hxx Pages: 1 -->
<!--zoomable 319 -->
<svg id="main" version="1.1" xmlns="http://www.w3.org/2000/svg" xmlns:xlink="http://www.w3.org/1999/xlink" xml:space="preserve" onload="init(evt)">
<style type="text/css"><![CDATA[
.edge:hover path { stroke: red; }
.edge:hover polygon { stroke: red; fill: red; }
]]></style>
<script type="text/javascript"><![CDATA[
var edges = document.getElementsByTagName('g');
if (edges && edges.length) {
  for (var i=0;i<edges.length;i++) {
    if (edges[i].id.substr(0,4)=='edge') {
      edges[i].setAttribute('class','edge');
    }
  }
}
]]></script>
        <defs>
                <circle id="rim" cx="0" cy="0" r="7"/>
                <circle id="rim2" cx="0" cy="0" r="3.5"/>
                <g id="zoomPlus">
                        <use xlink:href="#rim" fill="#404040">
                                <set attributeName="fill" to="#808080" begin="zoomplus.mouseover" end="zoomplus.mouseout"/>
                        </use>
                        <path d="M-4,0h8M0,-4v8" fill="none" stroke="white" stroke-width="1.5" pointer-events="none"/>
                </g>
                <g id="zoomMin">
                        <use xlink:href="#rim" fill="#404040">
                                <set attributeName="fill" to="#808080" begin="zoomminus.mouseover" end="zoomminus.mouseout"/>
                        </use>
                        <path d="M-4,0h8" fill="none" stroke="white" stroke-width="1.5" pointer-events="none"/>
                </g>
                <g id="dirArrow">
                        <path fill="none" stroke="white" stroke-width="1.5" d="M0,-3.0v7 M-2.5,-0.5L0,-3.0L2.5,-0.5"/>
                </g>
               <g id="resetDef">
                       <use xlink:href="#rim2" fill="#404040">
                               <set attributeName="fill" to="#808080" begin="reset.mouseover" end="reset.mouseout"/>
                       </use>
               </g>
        </defs>

<script type="text/javascript">
var viewWidth = 975;
var viewHeight = 319;
var sectionId = 'dynsection-0';
</script>
<script xlink:href="svgpan.js"/>
<svg id="graph" class="graph">
<g id="viewport">
<title>src/engine/ui/widgets/Image.hxx</title>
<!-- Node0 -->
<g id="node1" class="node">
<title>Node0</title>
<polygon fill="#bfbfbf" stroke="#000000" points="93,-280.5 93,-310.5 213,-310.5 213,-280.5 93,-280.5"/>
<text text-anchor="start" x="101" y="-298.5" font-family="Helvetica,sans-Serif" font-size="10.00" fill="#000000">src/engine/ui/widgets</text>
<text text-anchor="middle" x="153" y="-287.5" font-family="Helvetica,sans-Serif" font-size="10.00" fill="#000000">/Image.hxx</text>
</g>
<!-- Node1 -->
<g id="node2" class="node">
<title>Node1</title>
<polygon fill="none" stroke="#bfbfbf" points="167,-.5 167,-19.5 211,-19.5 211,-.5 167,-.5"/>
<text text-anchor="middle" x="189" y="-7.5" font-family="Helvetica,sans-Serif" font-size="10.00" fill="#000000">string</text>
</g>
<!-- Node0&#45;&gt;Node1 -->
<g id="edge1" class="edge">
<title>Node0&#45;&gt;Node1</title>
<path fill="none" stroke="#191970" d="M103.3253,-280.4514C58.6503,-263.4773 0,-231.0844 0,-178 0,-178 0,-178 0,-122 0,-49.949 102.914,-23.247 156.8584,-14.1996"/>
<polygon fill="#191970" stroke="#191970" points="157.6123,-17.6243 166.9494,-12.6173 156.5279,-10.7088 157.6123,-17.6243"/>
</g>
<!-- Node2 -->
<g id="node3" class="node">
<title>Node2</title>
<g id="a_node3"><a xlink:href="UIElement_8hxx.html" target="_top" xlink:title="../basics/UIElement.hxx">
<polygon fill="none" stroke="#000000" points="236.5,-224.5 236.5,-243.5 367.5,-243.5 367.5,-224.5 236.5,-224.5"/>
<text text-anchor="middle" x="302" y="-231.5" font-family="Helvetica,sans-Serif" font-size="10.00" fill="#000000">../basics/UIElement.hxx</text>
</a>
</g>
</g>
<!-- Node0&#45;&gt;Node2 -->
<g id="edge2" class="edge">
<title>Node0&#45;&gt;Node2</title>
<path fill="none" stroke="#191970" d="M189.4495,-280.4554C213.8744,-270.374 245.7581,-257.2139 269.3521,-247.4755"/>
<polygon fill="#191970" stroke="#191970" points="271.0021,-250.5809 278.9103,-243.5303 268.3313,-244.1104 271.0021,-250.5809"/>
</g>
<!-- Node2&#45;&gt;Node1 -->
<g id="edge3" class="edge">
<title>Node2&#45;&gt;Node1</title>
<path fill="none" stroke="#191970" d="M236.367,-230.5728C173.074,-225.7316 83.7579,-214.3242 62,-188 39.0094,-160.1844 -16.1611,-180.8985 84,-56 102.0042,-33.5492 133.1699,-21.7845 156.8842,-15.7969"/>
<polygon fill="#191970" stroke="#191970" points="157.8953,-19.1558 166.8557,-13.5023 156.3255,-12.3341 157.8953,-19.1558"/>
</g>
<!-- Node3 -->
<g id="node4" class="node">
<title>Node3</title>
<g id="a_node4"><a xlink:href="mapEdit_8hxx.html" target="_top" xlink:title="../../basics/mapEdit.hxx">
<polygon fill="none" stroke="#000000" points="71,-168.5 71,-187.5 201,-187.5 201,-168.5 71,-168.5"/>
<text text-anchor="middle" x="136" y="-175.5" font-family="Helvetica,sans-Serif" font-size="10.00" fill="#000000">../../basics/mapEdit.hxx</text>
</a>
</g>
</g>
<!-- Node2&#45;&gt;Node3 -->
<g id="edge4" class="edge">
<title>Node2&#45;&gt;Node3</title>
<path fill="none" stroke="#191970" d="M273.4636,-224.3733C245.9798,-215.1016 204.2314,-201.0178 173.9548,-190.804"/>
<polygon fill="#191970" stroke="#191970" points="174.7582,-187.3813 164.164,-187.5011 172.5206,-194.0141 174.7582,-187.3813"/>
</g>
<!-- Node4 -->
<g id="node5" class="node">
<title>Node4</title>
<g id="a_node5"><a xlink:href="ResourcesManager_8hxx.html" target="_top" xlink:title="../../ResourcesManager.hxx">
<polygon fill="none" stroke="#000000" points="229,-168.5 229,-187.5 375,-187.5 375,-168.5 229,-168.5"/>
<text text-anchor="middle" x="302" y="-175.5" font-family="Helvetica,sans-Serif" font-size="10.00" fill="#000000">../../ResourcesManager.hxx</text>
</a>
</g>
</g>
<!-- Node2&#45;&gt;Node4 -->
<g id="edge6" class="edge">
<title>Node2&#45;&gt;Node4</title>
<path fill="none" stroke="#191970" d="M302,-224.2455C302,-216.9382 302,-206.6944 302,-197.7046"/>
<polygon fill="#191970" stroke="#191970" points="305.5001,-197.6426 302,-187.6427 298.5001,-197.6427 305.5001,-197.6426"/>
</g>
<!-- Node7 -->
<g id="node8" class="node">
<title>Node7</title>
<polygon fill="none" stroke="#bfbfbf" points="426,-56.5 426,-75.5 470,-75.5 470,-56.5 426,-56.5"/>
<text text-anchor="middle" x="448" y="-63.5" font-family="Helvetica,sans-Serif" font-size="10.00" fill="#000000">SDL.h</text>
</g>
<!-- Node2&#45;&gt;Node7 -->
<g id="edge30" class="edge">
<title>Node2&#45;&gt;Node7</title>
<path fill="none" stroke="#191970" d="M327.0623,-224.4818C344.7098,-216.7802 367.9558,-204.5016 384,-188 391.8986,-179.8762 423.1698,-116.9349 438.8849,-84.7794"/>
<polygon fill="#191970" stroke="#191970" points="442.158,-86.0524 443.3913,-75.5296 435.865,-82.9866 442.158,-86.0524"/>
</g>
<!-- Node12 -->
<g id="node13" class="node">
<title>Node12</title>
<g id="a_node13"><a xlink:href="WindowManager_8hxx.html" target="_top" xlink:title="../../WindowManager.hxx">
<polygon fill="none" stroke="#000000" points="475,-168.5 475,-187.5 611,-187.5 611,-168.5 475,-168.5"/>
<text text-anchor="middle" x="543" y="-175.5" font-family="Helvetica,sans-Serif" font-size="10.00" fill="#000000">../../WindowManager.hxx</text>
</a>
</g>
</g>
<!-- Node2&#45;&gt;Node12 -->
<g id="edge18" class="edge">
<title>Node2&#45;&gt;Node12</title>
<path fill="none" stroke="#191970" d="M343.1555,-224.4369C384.3142,-214.8731 447.705,-200.1432 492.0242,-189.845"/>
<polygon fill="#191970" stroke="#191970" points="493.0659,-193.1963 502.0142,-187.5237 491.4815,-186.3779 493.0659,-193.1963"/>
</g>
<!-- Node14 -->
<g id="node15" class="node">
<title>Node14</title>
<g id="a_node15"><a xlink:href="signal_8hxx.html" target="_top" xlink:title="../../basics/signal.hxx">
<polygon fill="none" stroke="#000000" points="699.5,-168.5 699.5,-187.5 818.5,-187.5 818.5,-168.5 699.5,-168.5"/>
<text text-anchor="middle" x="759" y="-175.5" font-family="Helvetica,sans-Serif" font-size="10.00" fill="#000000">../../basics/signal.hxx</text>
</a>
</g>
</g>
<!-- Node2&#45;&gt;Node14 -->
<g id="edge24" class="edge">
<title>Node2&#45;&gt;Node14</title>
<path fill="none" stroke="#191970" d="M367.9637,-225.9169C453.4413,-215.4426 601.8352,-197.2587 689.1646,-186.5575"/>
<polygon fill="#191970" stroke="#191970" points="689.7428,-190.0129 699.2429,-185.3225 688.8914,-183.0649 689.7428,-190.0129"/>
</g>
<!-- Node3&#45;&gt;Node1 -->
<g id="edge5" class="edge">
<title>Node3&#45;&gt;Node1</title>
<path fill="none" stroke="#191970" d="M127.5766,-168.4832C109.6746,-147.0504 71.3432,-93.9142 95,-56 108.4507,-34.4429 135.2585,-22.7107 156.8153,-16.5023"/>
<polygon fill="#191970" stroke="#191970" points="157.7966,-19.8635 166.5883,-13.9511 156.0285,-13.0905 157.7966,-19.8635"/>
</g>
<!-- Node5 -->
<g id="node6" class="node">
<title>Node5</title>
<polygon fill="none" stroke="#bfbfbf" points="436,-112.5 436,-131.5 496,-131.5 496,-112.5 436,-112.5"/>
<text text-anchor="middle" x="466" y="-119.5" font-family="Helvetica,sans-Serif" font-size="10.00" fill="#000000">iostream</text>
</g>
<!-- Node4&#45;&gt;Node5 -->
<g id="edge7" class="edge">
<title>Node4&#45;&gt;Node5</title>
<path fill="none" stroke="#191970" d="M330.1926,-168.3733C357.3453,-159.1016 398.5907,-145.0178 428.5025,-134.804"/>
<polygon fill="#191970" stroke="#191970" points="429.8428,-138.0449 438.1753,-131.5011 427.5808,-131.4204 429.8428,-138.0449"/>
</g>
<!-- Node6 -->
<g id="node7" class="node">
<title>Node6</title>
<polygon fill="none" stroke="#bfbfbf" points="104.5,-56.5 104.5,-75.5 197.5,-75.5 197.5,-56.5 104.5,-56.5"/>
<text text-anchor="middle" x="151" y="-63.5" font-family="Helvetica,sans-Serif" font-size="10.00" fill="#000000">unordered_map</text>
</g>
<!-- Node4&#45;&gt;Node6 -->
<g id="edge8" class="edge">
<title>Node4&#45;&gt;Node6</title>
<path fill="none" stroke="#191970" d="M287.4357,-168.3936C273.7358,-159.2654 252.7359,-145.0353 235,-132 212.6024,-115.5384 187.639,-95.7301 170.791,-82.136"/>
<polygon fill="#191970" stroke="#191970" points="172.7504,-79.219 162.7768,-75.6442 168.3443,-84.6584 172.7504,-79.219"/>
</g>
<!-- Node4&#45;&gt;Node7 -->
<g id="edge9" class="edge">
<title>Node4&#45;&gt;Node7</title>
<path fill="none" stroke="#191970" d="M314.4479,-168.4509C339.5532,-149.1921 396.4805,-105.5218 427.2817,-81.8935"/>
<polygon fill="#191970" stroke="#191970" points="429.7796,-84.3885 435.5836,-75.5249 425.519,-78.8345 429.7796,-84.3885"/>
</g>
<!-- Node8 -->
<g id="node9" class="node">
<title>Node8</title>
<g id="a_node9"><a xlink:href="TileManager_8hxx.html" target="_top" xlink:title="TileManager.hxx">
<polygon fill="none" stroke="#000000" points="244.5,-112.5 244.5,-131.5 341.5,-131.5 341.5,-112.5 244.5,-112.5"/>
<text text-anchor="middle" x="293" y="-119.5" font-family="Helvetica,sans-Serif" font-size="10.00" fill="#000000">TileManager.hxx</text>
</a>
</g>
</g>
<!-- Node4&#45;&gt;Node8 -->
<g id="edge10" class="edge">
<title>Node4&#45;&gt;Node8</title>
<path fill="none" stroke="#191970" d="M300.4323,-168.2455C299.2579,-160.9382 297.6116,-150.6944 296.1668,-141.7046"/>
<polygon fill="#191970" stroke="#191970" points="299.5922,-140.9606 294.5497,-131.6427 292.6809,-142.0714 299.5922,-140.9606"/>
</g>
<!-- Node8&#45;&gt;Node1 -->
<g id="edge13" class="edge">
<title>Node8&#45;&gt;Node1</title>
<path fill="none" stroke="#191970" d="M294.1422,-112.45C295.2712,-98.6153 295.3409,-72.8184 283,-56 268.1285,-35.7327 241.8743,-23.9362 220.8854,-17.3743"/>
<polygon fill="#191970" stroke="#191970" points="221.6552,-13.954 211.0776,-14.5593 219.724,-20.6824 221.6552,-13.954"/>
</g>
<!-- Node8&#45;&gt;Node6 -->
<g id="edge12" class="edge">
<title>Node8&#45;&gt;Node6</title>
<path fill="none" stroke="#191970" d="M268.5893,-112.3733C245.3858,-103.2226 210.2962,-89.3844 184.4858,-79.2057"/>
<polygon fill="#191970" stroke="#191970" points="185.6789,-75.9139 175.0921,-75.5011 183.1108,-82.4258 185.6789,-75.9139"/>
</g>
<!-- Node8&#45;&gt;Node7 -->
<g id="edge11" class="edge">
<title>Node8&#45;&gt;Node7</title>
<path fill="none" stroke="#191970" d="M319.6454,-112.3733C346.4353,-102.6944 387.7403,-87.7712 416.2217,-77.4812"/>
<polygon fill="#191970" stroke="#191970" points="417.5005,-80.7407 425.7162,-74.0509 415.1219,-74.1572 417.5005,-80.7407"/>
</g>
<!-- Node9 -->
<g id="node10" class="node">
<title>Node9</title>
<g id="a_node10"><a xlink:href="tileData_8hxx.html" target="_top" xlink:title="tileData.hxx">
<polygon fill="none" stroke="#000000" points="330.5,-56.5 330.5,-75.5 407.5,-75.5 407.5,-56.5 330.5,-56.5"/>
<text text-anchor="middle" x="369" y="-63.5" font-family="Helvetica,sans-Serif" font-size="10.00" fill="#000000">tileData.hxx</text>
</a>
</g>
</g>
<!-- Node8&#45;&gt;Node9 -->
<g id="edge14" class="edge">
<title>Node8&#45;&gt;Node9</title>
<path fill="none" stroke="#191970" d="M306.2382,-112.2455C317.681,-103.814 334.4296,-91.4729 347.7475,-81.6598"/>
<polygon fill="#191970" stroke="#191970" points="349.9391,-84.3924 355.9135,-75.6427 345.7867,-78.757 349.9391,-84.3924"/>
</g>
<!-- Node10 -->
<g id="node11" class="node">
<title>Node10</title>
<polygon fill="none" stroke="#bfbfbf" points="216,-56.5 216,-75.5 274,-75.5 274,-56.5 216,-56.5"/>
<text text-anchor="middle" x="245" y="-63.5" font-family="Helvetica,sans-Serif" font-size="10.00" fill="#000000">json.hxx</text>
</g>
<!-- Node8&#45;&gt;Node10 -->
<g id="edge16" class="edge">
<title>Node8&#45;&gt;Node10</title>
<path fill="none" stroke="#191970" d="M284.639,-112.2455C277.825,-104.2958 268.0319,-92.8706 259.8848,-83.3656"/>
<polygon fill="#191970" stroke="#191970" points="262.4305,-80.9575 253.2651,-75.6427 257.1157,-85.513 262.4305,-80.9575"/>
</g>
<!-- Node11 -->
<g id="node12" class="node">
<title>Node11</title>
<g id="a_node12"><a xlink:href="Singleton_8hxx.html" target="_top" xlink:title="Singleton.hxx">
<polygon fill="none" stroke="#000000" points="488.5,-56.5 488.5,-75.5 571.5,-75.5 571.5,-56.5 488.5,-56.5"/>
<text text-anchor="middle" x="530" y="-63.5" font-family="Helvetica,sans-Serif" font-size="10.00" fill="#000000">Singleton.hxx</text>
</a>
</g>
</g>
<!-- Node8&#45;&gt;Node11 -->
<g id="edge17" class="edge">
<title>Node8&#45;&gt;Node11</title>
<path fill="none" stroke="#191970" d="M333.4725,-112.4369C373.948,-102.8731 436.2867,-88.1432 479.8703,-77.845"/>
<polygon fill="#191970" stroke="#191970" points="480.7673,-81.2295 489.6945,-75.5237 479.1576,-74.4171 480.7673,-81.2295"/>
</g>
<!-- Node9&#45;&gt;Node1 -->
<g id="edge15" class="edge">
<title>Node9&#45;&gt;Node1</title>
<path fill="none" stroke="#191970" d="M338.0569,-56.3733C305.2633,-46.1708 253.7403,-30.1414 220.6722,-19.8536"/>
<polygon fill="#191970" stroke="#191970" points="221.6317,-16.4867 211.0434,-16.8579 219.5522,-23.1707 221.6317,-16.4867"/>
</g>
<!-- Node12&#45;&gt;Node1 -->
<g id="edge19" class="edge">
<title>Node12&#45;&gt;Node1</title>
<path fill="none" stroke="#191970" d="M551.2102,-168.4647C569.4969,-146.0544 609.7098,-89.41 580,-56 556.2678,-29.3121 310.6678,-15.5403 221.2939,-11.3833"/>
<polygon fill="#191970" stroke="#191970" points="221.3433,-7.882 211.1945,-10.9238 221.025,-14.8748 221.3433,-7.882"/>
</g>
<!-- Node12&#45;&gt;Node5 -->
<g id="edge20" class="edge">
<title>Node12&#45;&gt;Node5</title>
<path fill="none" stroke="#191970" d="M529.5876,-168.2455C517.9943,-159.814 501.0252,-147.4729 487.5322,-137.6598"/>
<polygon fill="#191970" stroke="#191970" points="489.4047,-134.6938 479.2587,-131.6427 485.2874,-140.355 489.4047,-134.6938"/>
</g>
<!-- Node12&#45;&gt;Node7 -->
<g id="edge22" class="edge">
<title>Node12&#45;&gt;Node7</title>
<path fill="none" stroke="#191970" d="M538.8246,-168.3356C532.6882,-154.8115 520.2889,-129.8924 505,-112 495.2224,-100.5575 482.3017,-89.8627 471.2343,-81.6702"/>
<polygon fill="#191970" stroke="#191970" points="473.0201,-78.6443 462.8513,-75.67 468.9458,-84.3364 473.0201,-78.6443"/>
</g>
<!-- Node12&#45;&gt;Node11 -->
<g id="edge23" class="edge">
<title>Node12&#45;&gt;Node11</title>
<path fill="none" stroke="#191970" d="M542.5502,-168.1304C541.8929,-155.2012 540.471,-131.8414 538,-112 536.9256,-103.373 535.3473,-93.9008 533.8759,-85.8057"/>
<polygon fill="#191970" stroke="#191970" points="537.287,-85.0067 531.9931,-75.8293 530.4084,-86.305 537.287,-85.0067"/>
</g>
<!-- Node13 -->
<g id="node14" class="node">
<title>Node13</title>
<polygon fill="none" stroke="#bfbfbf" points="628.5,-112.5 628.5,-131.5 675.5,-131.5 675.5,-112.5 628.5,-112.5"/>
<text text-anchor="middle" x="652" y="-119.5" font-family="Helvetica,sans-Serif" font-size="10.00" fill="#000000">vector</text>
</g>
<!-- Node12&#45;&gt;Node13 -->
<g id="edge21" class="edge">
<title>Node12&#45;&gt;Node13</title>
<path fill="none" stroke="#191970" d="M561.9864,-168.2455C579.1792,-159.4125 604.7238,-146.2887 624.2132,-136.2758"/>
<polygon fill="#191970" stroke="#191970" points="625.9359,-139.3257 633.2312,-131.6427 622.737,-133.0993 625.9359,-139.3257"/>
</g>
<!-- Node14&#45;&gt;Node13 -->
<g id="edge28" class="edge">
<title>Node14&#45;&gt;Node13</title>
<path fill="none" stroke="#191970" d="M740.362,-168.2455C723.5614,-159.4527 698.6366,-146.4079 679.5382,-136.4125"/>
<polygon fill="#191970" stroke="#191970" points="680.9073,-133.1787 670.4244,-131.6427 677.6614,-139.3807 680.9073,-133.1787"/>
</g>
<!-- Node15 -->
<g id="node16" class="node">
<title>Node15</title>
<polygon fill="none" stroke="#bfbfbf" points="909,-112.5 909,-131.5 967,-131.5 967,-112.5 909,-112.5"/>
<text text-anchor="middle" x="938" y="-119.5" font-family="Helvetica,sans-Serif" font-size="10.00" fill="#000000">memory</text>
</g>
<!-- Node14&#45;&gt;Node15 -->
<g id="edge25" class="edge">
<title>Node14&#45;&gt;Node15</title>
<path fill="none" stroke="#191970" d="M789.7712,-168.3733C820.0274,-158.9076 866.3157,-144.4264 899.1055,-134.1681"/>
<polygon fill="#191970" stroke="#191970" points="900.3168,-137.4565 908.8156,-131.1303 898.2267,-130.7758 900.3168,-137.4565"/>
</g>
<!-- Node16 -->
<g id="node17" class="node">
<title>Node16</title>
<polygon fill="none" stroke="#bfbfbf" points="693.5,-112.5 693.5,-131.5 758.5,-131.5 758.5,-112.5 693.5,-112.5"/>
<text text-anchor="middle" x="726" y="-119.5" font-family="Helvetica,sans-Serif" font-size="10.00" fill="#000000">functional</text>
</g>
<!-- Node14&#45;&gt;Node16 -->
<g id="edge26" class="edge">
<title>Node14&#45;&gt;Node16</title>
<path fill="none" stroke="#191970" d="M753.2518,-168.2455C748.7565,-160.617 742.3752,-149.7881 736.9175,-140.5267"/>
<polygon fill="#191970" stroke="#191970" points="739.7747,-138.4811 731.6823,-131.6427 733.7439,-142.035 739.7747,-138.4811"/>
</g>
<!-- Node17 -->
<g id="node18" class="node">
<title>Node17</title>
<polygon fill="none" stroke="#bfbfbf" points="777,-112.5 777,-131.5 809,-131.5 809,-112.5 777,-112.5"/>
<text text-anchor="middle" x="793" y="-119.5" font-family="Helvetica,sans-Serif" font-size="10.00" fill="#000000">list</text>
</g>
<!-- Node14&#45;&gt;Node17 -->
<g id="edge27" class="edge">
<title>Node14&#45;&gt;Node17</title>
<path fill="none" stroke="#191970" d="M764.9223,-168.2455C769.6027,-160.5367 776.2673,-149.5598 781.9289,-140.2348"/>
<polygon fill="#191970" stroke="#191970" points="784.9475,-142.007 787.1455,-131.6427 778.9639,-138.3741 784.9475,-142.007"/>
</g>
<!-- Node18 -->
<g id="node19" class="node">
<title>Node18</title>
<polygon fill="none" stroke="#bfbfbf" points="827,-112.5 827,-131.5 891,-131.5 891,-112.5 827,-112.5"/>
<text text-anchor="middle" x="859" y="-119.5" font-family="Helvetica,sans-Serif" font-size="10.00" fill="#000000">algorithm</text>
</g>
<!-- Node14&#45;&gt;Node18 -->
<g id="edge29" class="edge">
<title>Node14&#45;&gt;Node18</title>
<path fill="none" stroke="#191970" d="M776.4187,-168.2455C792.0485,-159.4928 815.2019,-146.527 833.0185,-136.5496"/>
<polygon fill="#191970" stroke="#191970" points="834.766,-139.5825 841.7809,-131.6427 831.3457,-133.475 834.766,-139.5825"/>
</g>
</g>
</svg>
        <g id="navigator" transform="translate(0 0)" fill="#404254">
                <rect fill="#f2f5e9" fill-opacity="0.5" stroke="#606060" stroke-width=".5" x="0" y="0" width="60" height="60"/>
                <use id="zoomplus" xlink:href="#zoomPlus" x="17" y="9" onmousedown="handleZoom(evt,'in')"/>
                <use id="zoomminus" xlink:href="#zoomMin" x="42" y="9" onmousedown="handleZoom(evt,'out')"/>
                <use id="reset" xlink:href="#resetDef" x="30" y="36" onmousedown="handleReset()"/>
                <g id="arrowUp" xlink:href="#dirArrow" transform="translate(30 24)" onmousedown="handlePan(0,-1)">
                  <use xlink:href="#rim" fill="#404040">
                        <set attributeName="fill" to="#808080" begin="arrowUp.mouseover" end="arrowUp.mouseout"/>
                  </use>
                  <path fill="none" stroke="white" stroke-width="1.5" d="M0,-3.0v7 M-2.5,-0.5L0,-3.0L2.5,-0.5"/>
                </g>
                <g id="arrowRight" xlink:href="#dirArrow" transform="rotate(90) translate(36 -43)" onmousedown="handlePan(1,0)">
                  <use xlink:href="#rim" fill="#404040">
                        <set attributeName="fill" to="#808080" begin="arrowRight.mouseover" end="arrowRight.mouseout"/>
                  </use>
                  <path fill="none" stroke="white" stroke-width="1.5" d="M0,-3.0v7 M-2.5,-0.5L0,-3.0L2.5,-0.5"/>
                </g>
                <g id="arrowDown" xlink:href="#dirArrow" transform="rotate(180) translate(-30 -48)" onmousedown="handlePan(0,1)">
                  <use xlink:href="#rim" fill="#404040">
                        <set attributeName="fill" to="#808080" begin="arrowDown.mouseover" end="arrowDown.mouseout"/>
                  </use>
                  <path fill="none" stroke="white" stroke-width="1.5" d="M0,-3.0v7 M-2.5,-0.5L0,-3.0L2.5,-0.5"/>
                </g>
                <g id="arrowLeft" xlink:href="#dirArrow" transform="rotate(270) translate(-36 17)" onmousedown="handlePan(-1,0)">
                  <use xlink:href="#rim" fill="#404040">
                        <set attributeName="fill" to="#808080" begin="arrowLeft.mouseover" end="arrowLeft.mouseout"/>
                  </use>
                  <path fill="none" stroke="white" stroke-width="1.5" d="M0,-3.0v7 M-2.5,-0.5L0,-3.0L2.5,-0.5"/>
                </g>
        </g>
        <svg viewBox="0 0 15 15" width="100%" height="30px" preserveAspectRatio="xMaxYMin meet">
         <g id="arrow_out" transform="scale(0.3 0.3)">
          <a xlink:href="Image_8hxx__incl_org.svg" target="_base">
           <rect id="button" ry="5" rx="5" y="6" x="6" height="38" width="38"
                fill="#f2f5e9" fill-opacity="0.5" stroke="#606060" stroke-width="1.0"/>
           <path id="arrow"
             d="M 11.500037,31.436501 C 11.940474,20.09759 22.043105,11.32322 32.158766,21.979434 L 37.068811,17.246167 C 37.068811,17.246167 37.088388,32 37.088388,32 L 22.160133,31.978069 C 22.160133,31.978069 26.997745,27.140456 26.997745,27.140456 C 18.528582,18.264221 13.291696,25.230495 11.500037,31.436501 z"
             style="fill:#404040;"/>
          </a>
         </g>
        </svg>
</svg>
