<?xml version="1.0" encoding="UTF-8" standalone="no"?>
<!DOCTYPE svg PUBLIC "-//W3C//DTD SVG 1.1//EN"
 "http://www.w3.org/Graphics/SVG/1.1/DTD/svg11.dtd">
<!-- Generated by graphviz version 2.40.1 (20161225.0304)
 -->
<!-- Title: src/engine/ui/menuGroups/IMenuGroup.hxx Pages: 1 -->
<!--zoomable 487 -->
<svg id="main" version="1.1" xmlns="http://www.w3.org/2000/svg" xmlns:xlink="http://www.w3.org/1999/xlink" xml:space="preserve" onload="init(evt)">
<style type="text/css"><![CDATA[
.edge:hover path { stroke: red; }
.edge:hover polygon { stroke: red; fill: red; }
]]></style>
<script type="text/javascript"><![CDATA[
var edges = document.getElementsByTagName('g');
if (edges && edges.length) {
  for (var i=0;i<edges.length;i++) {
    if (edges[i].id.substr(0,4)=='edge') {
      edges[i].setAttribute('class','edge');
    }
  }
}
]]></script>
        <defs>
                <circle id="rim" cx="0" cy="0" r="7"/>
                <circle id="rim2" cx="0" cy="0" r="3.5"/>
                <g id="zoomPlus">
                        <use xlink:href="#rim" fill="#404040">
                                <set attributeName="fill" to="#808080" begin="zoomplus.mouseover" end="zoomplus.mouseout"/>
                        </use>
                        <path d="M-4,0h8M0,-4v8" fill="none" stroke="white" stroke-width="1.5" pointer-events="none"/>
                </g>
                <g id="zoomMin">
                        <use xlink:href="#rim" fill="#404040">
                                <set attributeName="fill" to="#808080" begin="zoomminus.mouseover" end="zoomminus.mouseout"/>
                        </use>
                        <path d="M-4,0h8" fill="none" stroke="white" stroke-width="1.5" pointer-events="none"/>
                </g>
                <g id="dirArrow">
                        <path fill="none" stroke="white" stroke-width="1.5" d="M0,-3.0v7 M-2.5,-0.5L0,-3.0L2.5,-0.5"/>
                </g>
               <g id="resetDef">
                       <use xlink:href="#rim2" fill="#404040">
                               <set attributeName="fill" to="#808080" begin="reset.mouseover" end="reset.mouseout"/>
                       </use>
               </g>
        </defs>

<script type="text/javascript">
var viewWidth = 1031;
var viewHeight = 487;
var sectionId = 'dynsection-0';
</script>
<script xlink:href="svgpan.js"/>
<svg id="graph" class="graph">
<g id="viewport">
<title>src/engine/ui/menuGroups/IMenuGroup.hxx</title>
<!-- Node0 -->
<g id="node1" class="node">
<title>Node0</title>
<polygon fill="#bfbfbf" stroke="#000000" points="566,-448.5 566,-478.5 710,-478.5 710,-448.5 566,-448.5"/>
<text text-anchor="start" x="574" y="-466.5" font-family="Helvetica,sans-Serif" font-size="10.00" fill="#000000">src/engine/ui/menuGroups</text>
<text text-anchor="middle" x="638" y="-455.5" font-family="Helvetica,sans-Serif" font-size="10.00" fill="#000000">/IMenuGroup.hxx</text>
</g>
<!-- Node1 -->
<g id="node2" class="node">
<title>Node1</title>
<g id="a_node2"><a xlink:href="UIElement_8hxx.html" target="_top" xlink:title="../basics/UIElement.hxx">
<polygon fill="none" stroke="#000000" points="397.5,-224.5 397.5,-243.5 528.5,-243.5 528.5,-224.5 397.5,-224.5"/>
<text text-anchor="middle" x="463" y="-231.5" font-family="Helvetica,sans-Serif" font-size="10.00" fill="#000000">../basics/UIElement.hxx</text>
</a>
</g>
</g>
<!-- Node0&#45;&gt;Node1 -->
<g id="edge1" class="edge">
<title>Node0&#45;&gt;Node1</title>
<path fill="none" stroke="#191970" d="M628.4361,-448.4545C618.9998,-433.8056 603.996,-411.0299 590,-392 551.4508,-339.5857 502.3457,-280.4741 478.0354,-251.6737"/>
<polygon fill="#191970" stroke="#191970" points="480.4591,-249.1198 471.326,-243.7498 475.1169,-253.6432 480.4591,-249.1198"/>
</g>
<!-- Node13 -->
<g id="node14" class="node">
<title>Node13</title>
<polygon fill="none" stroke="#bfbfbf" points="683.5,-112.5 683.5,-131.5 730.5,-131.5 730.5,-112.5 683.5,-112.5"/>
<text text-anchor="middle" x="707" y="-119.5" font-family="Helvetica,sans-Serif" font-size="10.00" fill="#000000">vector</text>
</g>
<!-- Node0&#45;&gt;Node13 -->
<g id="edge38" class="edge">
<title>Node0&#45;&gt;Node13</title>
<path fill="none" stroke="#191970" d="M646.0284,-448.3944C656.9104,-426.4758 675,-384.2823 675,-346 675,-346 675,-346 675,-234 675,-200.132 688.6955,-162.643 698.1672,-140.7657"/>
<polygon fill="#191970" stroke="#191970" points="701.3695,-142.1784 702.2783,-131.6226 694.9851,-139.3077 701.3695,-142.1784"/>
</g>
<!-- Node19 -->
<g id="node20" class="node">
<title>Node19</title>
<g id="a_node20"><a xlink:href="ButtonGroup_8hxx.html" target="_top" xlink:title="../basics/ButtonGroup.hxx">
<polygon fill="none" stroke="#000000" points="439,-392.5 439,-411.5 581,-411.5 581,-392.5 439,-392.5"/>
<text text-anchor="middle" x="510" y="-399.5" font-family="Helvetica,sans-Serif" font-size="10.00" fill="#000000">../basics/ButtonGroup.hxx</text>
</a>
</g>
</g>
<!-- Node0&#45;&gt;Node19 -->
<g id="edge30" class="edge">
<title>Node0&#45;&gt;Node19</title>
<path fill="none" stroke="#191970" d="M606.6877,-448.4554C585.9862,-438.509 559.0477,-425.5659 538.8647,-415.8686"/>
<polygon fill="#191970" stroke="#191970" points="540.3648,-412.7064 529.8355,-411.5303 537.3333,-419.0159 540.3648,-412.7064"/>
</g>
<!-- Node22 -->
<g id="node23" class="node">
<title>Node22</title>
<polygon fill="none" stroke="#bfbfbf" points="703,-392.5 703,-411.5 741,-411.5 741,-392.5 703,-392.5"/>
<text text-anchor="middle" x="722" y="-399.5" font-family="Helvetica,sans-Serif" font-size="10.00" fill="#000000">map</text>
</g>
<!-- Node0&#45;&gt;Node22 -->
<g id="edge37" class="edge">
<title>Node0&#45;&gt;Node22</title>
<path fill="none" stroke="#191970" d="M658.7641,-448.2977C671.3958,-439.0495 687.5053,-427.2551 700.3031,-417.8853"/>
<polygon fill="#191970" stroke="#191970" points="702.5495,-420.5784 708.5505,-411.8469 698.4143,-414.9303 702.5495,-420.5784"/>
</g>
<!-- Node2 -->
<g id="node3" class="node">
<title>Node2</title>
<polygon fill="none" stroke="#bfbfbf" points="236,-.5 236,-19.5 280,-19.5 280,-.5 236,-.5"/>
<text text-anchor="middle" x="258" y="-7.5" font-family="Helvetica,sans-Serif" font-size="10.00" fill="#000000">string</text>
</g>
<!-- Node1&#45;&gt;Node2 -->
<g id="edge2" class="edge">
<title>Node1&#45;&gt;Node2</title>
<path fill="none" stroke="#191970" d="M397.4258,-224.7391C319.1909,-209.5575 193.5018,-170.8984 150,-76 134.2229,-41.5825 188.6069,-23.5966 225.8552,-15.5148"/>
<polygon fill="#191970" stroke="#191970" points="226.7286,-18.909 235.8342,-13.4925 225.3382,-12.0485 226.7286,-18.909"/>
</g>
<!-- Node3 -->
<g id="node4" class="node">
<title>Node3</title>
<g id="a_node4"><a xlink:href="mapEdit_8hxx.html" target="_top" xlink:title="../../basics/mapEdit.hxx">
<polygon fill="none" stroke="#000000" points="28,-168.5 28,-187.5 158,-187.5 158,-168.5 28,-168.5"/>
<text text-anchor="middle" x="93" y="-175.5" font-family="Helvetica,sans-Serif" font-size="10.00" fill="#000000">../../basics/mapEdit.hxx</text>
</a>
</g>
</g>
<!-- Node1&#45;&gt;Node3 -->
<g id="edge3" class="edge">
<title>Node1&#45;&gt;Node3</title>
<path fill="none" stroke="#191970" d="M399.8151,-224.4369C335.0292,-214.6314 234.3644,-199.3957 166.1618,-189.0731"/>
<polygon fill="#191970" stroke="#191970" points="166.3354,-185.5596 155.9243,-187.5237 165.2879,-192.4808 166.3354,-185.5596"/>
</g>
<!-- Node4 -->
<g id="node5" class="node">
<title>Node4</title>
<g id="a_node5"><a xlink:href="ResourcesManager_8hxx.html" target="_top" xlink:title="../../ResourcesManager.hxx">
<polygon fill="none" stroke="#000000" points="289,-168.5 289,-187.5 435,-187.5 435,-168.5 289,-168.5"/>
<text text-anchor="middle" x="362" y="-175.5" font-family="Helvetica,sans-Serif" font-size="10.00" fill="#000000">../../ResourcesManager.hxx</text>
</a>
</g>
</g>
<!-- Node1&#45;&gt;Node4 -->
<g id="edge5" class="edge">
<title>Node1&#45;&gt;Node4</title>
<path fill="none" stroke="#191970" d="M445.4071,-224.2455C429.621,-215.4928 406.2361,-202.527 388.2413,-192.5496"/>
<polygon fill="#191970" stroke="#191970" points="389.8341,-189.4308 379.3913,-187.6427 386.4397,-195.5528 389.8341,-189.4308"/>
</g>
<!-- Node7 -->
<g id="node8" class="node">
<title>Node7</title>
<polygon fill="none" stroke="#bfbfbf" points="481,-56.5 481,-75.5 525,-75.5 525,-56.5 481,-56.5"/>
<text text-anchor="middle" x="503" y="-63.5" font-family="Helvetica,sans-Serif" font-size="10.00" fill="#000000">SDL.h</text>
</g>
<!-- Node1&#45;&gt;Node7 -->
<g id="edge29" class="edge">
<title>Node1&#45;&gt;Node7</title>
<path fill="none" stroke="#191970" d="M463.6063,-224.311C465.1092,-203.4024 469.8072,-152.654 482,-112 484.797,-102.674 489.112,-92.795 493.1046,-84.5925"/>
<polygon fill="#191970" stroke="#191970" points="496.2803,-86.0691 497.6913,-75.5686 490.0401,-82.8973 496.2803,-86.0691"/>
</g>
<!-- Node12 -->
<g id="node13" class="node">
<title>Node12</title>
<g id="a_node13"><a xlink:href="WindowManager_8hxx.html" target="_top" xlink:title="../../WindowManager.hxx">
<polygon fill="none" stroke="#000000" points="511,-168.5 511,-187.5 647,-187.5 647,-168.5 511,-168.5"/>
<text text-anchor="middle" x="579" y="-175.5" font-family="Helvetica,sans-Serif" font-size="10.00" fill="#000000">../../WindowManager.hxx</text>
</a>
</g>
</g>
<!-- Node1&#45;&gt;Node12 -->
<g id="edge17" class="edge">
<title>Node1&#45;&gt;Node12</title>
<path fill="none" stroke="#191970" d="M482.9411,-224.3733C501.4786,-215.4241 529.3028,-201.9917 550.2413,-191.8835"/>
<polygon fill="#191970" stroke="#191970" points="551.8352,-195.0006 559.3191,-187.5011 548.7919,-188.6967 551.8352,-195.0006"/>
</g>
<!-- Node14 -->
<g id="node15" class="node">
<title>Node14</title>
<g id="a_node15"><a xlink:href="signal_8hxx.html" target="_top" xlink:title="../../basics/signal.hxx">
<polygon fill="none" stroke="#000000" points="758.5,-168.5 758.5,-187.5 877.5,-187.5 877.5,-168.5 758.5,-168.5"/>
<text text-anchor="middle" x="818" y="-175.5" font-family="Helvetica,sans-Serif" font-size="10.00" fill="#000000">../../basics/signal.hxx</text>
</a>
</g>
</g>
<!-- Node1&#45;&gt;Node14 -->
<g id="edge23" class="edge">
<title>Node1&#45;&gt;Node14</title>
<path fill="none" stroke="#191970" d="M523.6233,-224.4369C585.8432,-214.6219 682.5541,-199.3661 747.9947,-189.0431"/>
<polygon fill="#191970" stroke="#191970" points="748.8864,-192.4458 758.2189,-187.4303 747.7956,-185.5313 748.8864,-192.4458"/>
</g>
<!-- Node3&#45;&gt;Node2 -->
<g id="edge4" class="edge">
<title>Node3&#45;&gt;Node2</title>
<path fill="none" stroke="#191970" d="M91.894,-168.3623C89.8604,-145.7307 88.0893,-88.6427 117,-56 131.5515,-39.57 189.2473,-24.6238 226.1745,-16.4709"/>
<polygon fill="#191970" stroke="#191970" points="226.9481,-19.8846 235.986,-14.3559 225.473,-13.0418 226.9481,-19.8846"/>
</g>
<!-- Node5 -->
<g id="node6" class="node">
<title>Node5</title>
<polygon fill="none" stroke="#bfbfbf" points="491,-112.5 491,-131.5 551,-131.5 551,-112.5 491,-112.5"/>
<text text-anchor="middle" x="521" y="-119.5" font-family="Helvetica,sans-Serif" font-size="10.00" fill="#000000">iostream</text>
</g>
<!-- Node4&#45;&gt;Node5 -->
<g id="edge6" class="edge">
<title>Node4&#45;&gt;Node5</title>
<path fill="none" stroke="#191970" d="M389.3331,-168.3733C415.5434,-159.1419 455.2984,-145.1402 484.2668,-134.9375"/>
<polygon fill="#191970" stroke="#191970" points="485.7542,-138.1244 494.0236,-131.5011 483.4288,-131.5219 485.7542,-138.1244"/>
</g>
<!-- Node6 -->
<g id="node7" class="node">
<title>Node6</title>
<polygon fill="none" stroke="#bfbfbf" points="159.5,-56.5 159.5,-75.5 252.5,-75.5 252.5,-56.5 159.5,-56.5"/>
<text text-anchor="middle" x="206" y="-63.5" font-family="Helvetica,sans-Serif" font-size="10.00" fill="#000000">unordered_map</text>
</g>
<!-- Node4&#45;&gt;Node6 -->
<g id="edge7" class="edge">
<title>Node4&#45;&gt;Node6</title>
<path fill="none" stroke="#191970" d="M345.9769,-168.3835C331.1889,-159.3636 308.7491,-145.3074 290,-132 267.204,-115.8203 242.1323,-95.8137 225.367,-82.0953"/>
<polygon fill="#191970" stroke="#191970" points="227.3583,-79.2012 217.4131,-75.5483 222.9096,-84.6058 227.3583,-79.2012"/>
</g>
<!-- Node4&#45;&gt;Node7 -->
<g id="edge8" class="edge">
<title>Node4&#45;&gt;Node7</title>
<path fill="none" stroke="#191970" d="M374.0216,-168.4509C398.2671,-149.1921 453.2448,-105.5218 482.9912,-81.8935"/>
<polygon fill="#191970" stroke="#191970" points="485.3555,-84.4854 491.0088,-75.5249 481.0016,-79.0041 485.3555,-84.4854"/>
</g>
<!-- Node8 -->
<g id="node9" class="node">
<title>Node8</title>
<g id="a_node9"><a xlink:href="TileManager_8hxx.html" target="_top" xlink:title="TileManager.hxx">
<polygon fill="none" stroke="#000000" points="299.5,-112.5 299.5,-131.5 396.5,-131.5 396.5,-112.5 299.5,-112.5"/>
<text text-anchor="middle" x="348" y="-119.5" font-family="Helvetica,sans-Serif" font-size="10.00" fill="#000000">TileManager.hxx</text>
</a>
</g>
</g>
<!-- Node4&#45;&gt;Node8 -->
<g id="edge9" class="edge">
<title>Node4&#45;&gt;Node8</title>
<path fill="none" stroke="#191970" d="M359.5614,-168.2455C357.7145,-160.8579 355.1172,-150.4689 352.8522,-141.4087"/>
<polygon fill="#191970" stroke="#191970" points="356.2316,-140.4952 350.4107,-131.6427 349.4406,-142.193 356.2316,-140.4952"/>
</g>
<!-- Node8&#45;&gt;Node2 -->
<g id="edge12" class="edge">
<title>Node8&#45;&gt;Node2</title>
<path fill="none" stroke="#191970" d="M378.8688,-112.4725C410.3265,-101.1432 451.9957,-80.6341 433,-56 415.6928,-33.5556 335.8389,-19.8974 290.2105,-13.7904"/>
<polygon fill="#191970" stroke="#191970" points="290.5824,-10.3094 280.2166,-12.5001 289.6861,-17.2518 290.5824,-10.3094"/>
</g>
<!-- Node8&#45;&gt;Node6 -->
<g id="edge11" class="edge">
<title>Node8&#45;&gt;Node6</title>
<path fill="none" stroke="#191970" d="M323.5893,-112.3733C300.3858,-103.2226 265.2962,-89.3844 239.4858,-79.2057"/>
<polygon fill="#191970" stroke="#191970" points="240.6789,-75.9139 230.0921,-75.5011 238.1108,-82.4258 240.6789,-75.9139"/>
</g>
<!-- Node8&#45;&gt;Node7 -->
<g id="edge10" class="edge">
<title>Node8&#45;&gt;Node7</title>
<path fill="none" stroke="#191970" d="M374.6454,-112.3733C401.4353,-102.6944 442.7403,-87.7712 471.2217,-77.4812"/>
<polygon fill="#191970" stroke="#191970" points="472.5005,-80.7407 480.7162,-74.0509 470.1219,-74.1572 472.5005,-80.7407"/>
</g>
<!-- Node9 -->
<g id="node10" class="node">
<title>Node9</title>
<g id="a_node10"><a xlink:href="tileData_8hxx.html" target="_top" xlink:title="tileData.hxx">
<polygon fill="none" stroke="#000000" points="347.5,-56.5 347.5,-75.5 424.5,-75.5 424.5,-56.5 347.5,-56.5"/>
<text text-anchor="middle" x="386" y="-63.5" font-family="Helvetica,sans-Serif" font-size="10.00" fill="#000000">tileData.hxx</text>
</a>
</g>
</g>
<!-- Node8&#45;&gt;Node9 -->
<g id="edge13" class="edge">
<title>Node8&#45;&gt;Node9</title>
<path fill="none" stroke="#191970" d="M354.6191,-112.2455C359.9046,-104.4564 367.4541,-93.3308 373.8238,-83.9439"/>
<polygon fill="#191970" stroke="#191970" points="376.7379,-85.8827 379.4568,-75.6427 370.9455,-81.9522 376.7379,-85.8827"/>
</g>
<!-- Node10 -->
<g id="node11" class="node">
<title>Node10</title>
<polygon fill="none" stroke="#bfbfbf" points="271,-56.5 271,-75.5 329,-75.5 329,-56.5 271,-56.5"/>
<text text-anchor="middle" x="300" y="-63.5" font-family="Helvetica,sans-Serif" font-size="10.00" fill="#000000">json.hxx</text>
</g>
<!-- Node8&#45;&gt;Node10 -->
<g id="edge15" class="edge">
<title>Node8&#45;&gt;Node10</title>
<path fill="none" stroke="#191970" d="M339.639,-112.2455C332.825,-104.2958 323.0319,-92.8706 314.8848,-83.3656"/>
<polygon fill="#191970" stroke="#191970" points="317.4305,-80.9575 308.2651,-75.6427 312.1157,-85.513 317.4305,-80.9575"/>
</g>
<!-- Node11 -->
<g id="node12" class="node">
<title>Node11</title>
<g id="a_node12"><a xlink:href="Singleton_8hxx.html" target="_top" xlink:title="Singleton.hxx">
<polygon fill="none" stroke="#000000" points="543.5,-56.5 543.5,-75.5 626.5,-75.5 626.5,-56.5 543.5,-56.5"/>
<text text-anchor="middle" x="585" y="-63.5" font-family="Helvetica,sans-Serif" font-size="10.00" fill="#000000">Singleton.hxx</text>
</a>
</g>
</g>
<!-- Node8&#45;&gt;Node11 -->
<g id="edge16" class="edge">
<title>Node8&#45;&gt;Node11</title>
<path fill="none" stroke="#191970" d="M388.4725,-112.4369C428.948,-102.8731 491.2867,-88.1432 534.8703,-77.845"/>
<polygon fill="#191970" stroke="#191970" points="535.7673,-81.2295 544.6945,-75.5237 534.1576,-74.4171 535.7673,-81.2295"/>
</g>
<!-- Node9&#45;&gt;Node2 -->
<g id="edge14" class="edge">
<title>Node9&#45;&gt;Node2</title>
<path fill="none" stroke="#191970" d="M363.996,-56.3733C343.3565,-47.3435 312.2842,-33.7494 289.1111,-23.6111"/>
<polygon fill="#191970" stroke="#191970" points="290.2813,-20.3028 279.7169,-19.5011 287.4755,-26.7159 290.2813,-20.3028"/>
</g>
<!-- Node12&#45;&gt;Node2 -->
<g id="edge18" class="edge">
<title>Node12&#45;&gt;Node2</title>
<path fill="none" stroke="#191970" d="M590.0767,-168.397C614.2484,-146.3245 667.1556,-91.1769 636,-56 613.1996,-30.2567 377.7519,-15.9726 290.3897,-11.5264"/>
<polygon fill="#191970" stroke="#191970" points="290.4193,-8.0236 280.2574,-11.0212 290.0707,-15.0149 290.4193,-8.0236"/>
</g>
<!-- Node12&#45;&gt;Node5 -->
<g id="edge19" class="edge">
<title>Node12&#45;&gt;Node5</title>
<path fill="none" stroke="#191970" d="M568.8972,-168.2455C560.4972,-160.1352 548.3506,-148.4075 538.3916,-138.7919"/>
<polygon fill="#191970" stroke="#191970" points="540.6122,-136.0707 530.9871,-131.6427 535.75,-141.1066 540.6122,-136.0707"/>
</g>
<!-- Node12&#45;&gt;Node7 -->
<g id="edge21" class="edge">
<title>Node12&#45;&gt;Node7</title>
<path fill="none" stroke="#191970" d="M578.0525,-168.2771C576.3389,-154.6836 571.7385,-129.6826 560,-112 551.8977,-99.7949 539.5446,-89.2592 528.4072,-81.362"/>
<polygon fill="#191970" stroke="#191970" points="530.0943,-78.2791 519.8404,-75.6129 526.1935,-84.0916 530.0943,-78.2791"/>
</g>
<!-- Node12&#45;&gt;Node11 -->
<g id="edge22" class="edge">
<title>Node12&#45;&gt;Node11</title>
<path fill="none" stroke="#191970" d="M582.8624,-168.3228C586.3038,-159.1446 591.0833,-144.8807 593,-132 595.3093,-116.4807 592.9104,-98.8332 590.1523,-85.6937"/>
<polygon fill="#191970" stroke="#191970" points="593.5375,-84.799 587.8464,-75.8624 586.7224,-86.3974 593.5375,-84.799"/>
</g>
<!-- Node12&#45;&gt;Node13 -->
<g id="edge20" class="edge">
<title>Node12&#45;&gt;Node13</title>
<path fill="none" stroke="#191970" d="M601.004,-168.3733C621.6435,-159.3435 652.7158,-145.7494 675.8889,-135.6111"/>
<polygon fill="#191970" stroke="#191970" points="677.5245,-138.7159 685.2831,-131.5011 674.7187,-132.3028 677.5245,-138.7159"/>
</g>
<!-- Node14&#45;&gt;Node13 -->
<g id="edge27" class="edge">
<title>Node14&#45;&gt;Node13</title>
<path fill="none" stroke="#191970" d="M798.9184,-168.3733C781.2598,-159.4644 754.7947,-146.1127 734.7902,-136.0203"/>
<polygon fill="#191970" stroke="#191970" points="736.3372,-132.8806 725.8326,-131.5011 733.1842,-139.1303 736.3372,-132.8806"/>
</g>
<!-- Node15 -->
<g id="node16" class="node">
<title>Node15</title>
<polygon fill="none" stroke="#bfbfbf" points="749,-112.5 749,-131.5 807,-131.5 807,-112.5 749,-112.5"/>
<text text-anchor="middle" x="778" y="-119.5" font-family="Helvetica,sans-Serif" font-size="10.00" fill="#000000">memory</text>
</g>
<!-- Node14&#45;&gt;Node15 -->
<g id="edge24" class="edge">
<title>Node14&#45;&gt;Node15</title>
<path fill="none" stroke="#191970" d="M811.0325,-168.2455C805.4689,-160.4564 797.522,-149.3308 790.8171,-139.9439"/>
<polygon fill="#191970" stroke="#191970" points="793.5481,-137.7457 784.8876,-131.6427 787.852,-141.8144 793.5481,-137.7457"/>
</g>
<!-- Node16 -->
<g id="node17" class="node">
<title>Node16</title>
<polygon fill="none" stroke="#bfbfbf" points="825.5,-112.5 825.5,-131.5 890.5,-131.5 890.5,-112.5 825.5,-112.5"/>
<text text-anchor="middle" x="858" y="-119.5" font-family="Helvetica,sans-Serif" font-size="10.00" fill="#000000">functional</text>
</g>
<!-- Node14&#45;&gt;Node16 -->
<g id="edge25" class="edge">
<title>Node14&#45;&gt;Node16</title>
<path fill="none" stroke="#191970" d="M824.9675,-168.2455C830.5311,-160.4564 838.478,-149.3308 845.1829,-139.9439"/>
<polygon fill="#191970" stroke="#191970" points="848.148,-141.8144 851.1124,-131.6427 842.4519,-137.7457 848.148,-141.8144"/>
</g>
<!-- Node17 -->
<g id="node18" class="node">
<title>Node17</title>
<polygon fill="none" stroke="#bfbfbf" points="909,-112.5 909,-131.5 941,-131.5 941,-112.5 909,-112.5"/>
<text text-anchor="middle" x="925" y="-119.5" font-family="Helvetica,sans-Serif" font-size="10.00" fill="#000000">list</text>
</g>
<!-- Node14&#45;&gt;Node17 -->
<g id="edge26" class="edge">
<title>Node14&#45;&gt;Node17</title>
<path fill="none" stroke="#191970" d="M836.638,-168.2455C854.1328,-159.0894 880.437,-145.3227 899.7983,-135.1897"/>
<polygon fill="#191970" stroke="#191970" points="901.4393,-138.2813 908.6762,-130.5433 898.1933,-132.0793 901.4393,-138.2813"/>
</g>
<!-- Node18 -->
<g id="node19" class="node">
<title>Node18</title>
<polygon fill="none" stroke="#bfbfbf" points="959,-112.5 959,-131.5 1023,-131.5 1023,-112.5 959,-112.5"/>
<text text-anchor="middle" x="991" y="-119.5" font-family="Helvetica,sans-Serif" font-size="10.00" fill="#000000">algorithm</text>
</g>
<!-- Node14&#45;&gt;Node18 -->
<g id="edge28" class="edge">
<title>Node14&#45;&gt;Node18</title>
<path fill="none" stroke="#191970" d="M847.7398,-168.3733C876.507,-159.0613 920.27,-144.8953 951.8556,-134.671"/>
<polygon fill="#191970" stroke="#191970" points="953.2122,-137.9107 961.6483,-131.5011 951.0564,-131.251 953.2122,-137.9107"/>
</g>
<!-- Node19&#45;&gt;Node1 -->
<g id="edge31" class="edge">
<title>Node19&#45;&gt;Node1</title>
<path fill="none" stroke="#191970" d="M507.3384,-392.4862C499.8766,-365.8144 478.642,-289.9117 468.5099,-253.695"/>
<polygon fill="#191970" stroke="#191970" points="471.8143,-252.5151 465.7495,-243.8279 465.0731,-254.4011 471.8143,-252.5151"/>
</g>
<!-- Node20 -->
<g id="node21" class="node">
<title>Node20</title>
<g id="a_node21"><a xlink:href="Button_8hxx.html" target="_top" xlink:title="../widgets/Button.hxx">
<polygon fill="none" stroke="#000000" points="362,-336.5 362,-355.5 482,-355.5 482,-336.5 362,-336.5"/>
<text text-anchor="middle" x="422" y="-343.5" font-family="Helvetica,sans-Serif" font-size="10.00" fill="#000000">../widgets/Button.hxx</text>
</a>
</g>
</g>
<!-- Node19&#45;&gt;Node20 -->
<g id="edge32" class="edge">
<title>Node19&#45;&gt;Node20</title>
<path fill="none" stroke="#191970" d="M494.6716,-392.2455C481.1697,-383.6534 461.2878,-371.0014 445.7314,-361.1018"/>
<polygon fill="#191970" stroke="#191970" points="447.4685,-358.0587 437.1528,-355.6427 443.7103,-363.9643 447.4685,-358.0587"/>
</g>
<!-- Node20&#45;&gt;Node1 -->
<g id="edge33" class="edge">
<title>Node20&#45;&gt;Node1</title>
<path fill="none" stroke="#191970" d="M427.2023,-336.3357C431.9976,-327.1667 439.0938,-312.9089 444,-300 449.8247,-284.6745 454.8736,-266.7718 458.2998,-253.4816"/>
<polygon fill="#191970" stroke="#191970" points="461.7501,-254.1106 460.7775,-243.5605 454.9587,-252.4145 461.7501,-254.1106"/>
</g>
<!-- Node21 -->
<g id="node22" class="node">
<title>Node21</title>
<g id="a_node22"><a xlink:href="Text_8hxx.html" target="_top" xlink:title="Text.hxx">
<polygon fill="none" stroke="#000000" points="377,-280.5 377,-299.5 435,-299.5 435,-280.5 377,-280.5"/>
<text text-anchor="middle" x="406" y="-287.5" font-family="Helvetica,sans-Serif" font-size="10.00" fill="#000000">Text.hxx</text>
</a>
</g>
</g>
<!-- Node20&#45;&gt;Node21 -->
<g id="edge34" class="edge">
<title>Node20&#45;&gt;Node21</title>
<path fill="none" stroke="#191970" d="M419.213,-336.2455C417.1023,-328.8579 414.134,-318.4689 411.5453,-309.4087"/>
<polygon fill="#191970" stroke="#191970" points="414.8677,-308.2964 408.755,-299.6427 408.137,-310.2195 414.8677,-308.2964"/>
</g>
<!-- Node21&#45;&gt;Node1 -->
<g id="edge36" class="edge">
<title>Node21&#45;&gt;Node1</title>
<path fill="none" stroke="#191970" d="M415.9286,-280.2455C424.1838,-272.1352 436.1209,-260.4075 445.9082,-250.7919"/>
<polygon fill="#191970" stroke="#191970" points="448.5046,-253.1476 453.1851,-243.6427 443.5989,-248.1542 448.5046,-253.1476"/>
</g>
<!-- Node21&#45;&gt;Node2 -->
<g id="edge35" class="edge">
<title>Node21&#45;&gt;Node2</title>
<path fill="none" stroke="#191970" d="M376.8015,-288.2629C283.7094,-281.9362 0,-256.2373 0,-178 0,-178 0,-178 0,-122 0,-73.348 156.3241,-32.5759 225.6068,-16.8948"/>
<polygon fill="#191970" stroke="#191970" points="226.5548,-20.2695 235.5555,-14.6806 225.034,-13.4367 226.5548,-20.2695"/>
</g>
</g>
</svg>
        <g id="navigator" transform="translate(0 0)" fill="#404254">
                <rect fill="#f2f5e9" fill-opacity="0.5" stroke="#606060" stroke-width=".5" x="0" y="0" width="60" height="60"/>
                <use id="zoomplus" xlink:href="#zoomPlus" x="17" y="9" onmousedown="handleZoom(evt,'in')"/>
                <use id="zoomminus" xlink:href="#zoomMin" x="42" y="9" onmousedown="handleZoom(evt,'out')"/>
                <use id="reset" xlink:href="#resetDef" x="30" y="36" onmousedown="handleReset()"/>
                <g id="arrowUp" xlink:href="#dirArrow" transform="translate(30 24)" onmousedown="handlePan(0,-1)">
                  <use xlink:href="#rim" fill="#404040">
                        <set attributeName="fill" to="#808080" begin="arrowUp.mouseover" end="arrowUp.mouseout"/>
                  </use>
                  <path fill="none" stroke="white" stroke-width="1.5" d="M0,-3.0v7 M-2.5,-0.5L0,-3.0L2.5,-0.5"/>
                </g>
                <g id="arrowRight" xlink:href="#dirArrow" transform="rotate(90) translate(36 -43)" onmousedown="handlePan(1,0)">
                  <use xlink:href="#rim" fill="#404040">
                        <set attributeName="fill" to="#808080" begin="arrowRight.mouseover" end="arrowRight.mouseout"/>
                  </use>
                  <path fill="none" stroke="white" stroke-width="1.5" d="M0,-3.0v7 M-2.5,-0.5L0,-3.0L2.5,-0.5"/>
                </g>
                <g id="arrowDown" xlink:href="#dirArrow" transform="rotate(180) translate(-30 -48)" onmousedown="handlePan(0,1)">
                  <use xlink:href="#rim" fill="#404040">
                        <set attributeName="fill" to="#808080" begin="arrowDown.mouseover" end="arrowDown.mouseout"/>
                  </use>
                  <path fill="none" stroke="white" stroke-width="1.5" d="M0,-3.0v7 M-2.5,-0.5L0,-3.0L2.5,-0.5"/>
                </g>
                <g id="arrowLeft" xlink:href="#dirArrow" transform="rotate(270) translate(-36 17)" onmousedown="handlePan(-1,0)">
                  <use xlink:href="#rim" fill="#404040">
                        <set attributeName="fill" to="#808080" begin="arrowLeft.mouseover" end="arrowLeft.mouseout"/>
                  </use>
                  <path fill="none" stroke="white" stroke-width="1.5" d="M0,-3.0v7 M-2.5,-0.5L0,-3.0L2.5,-0.5"/>
                </g>
        </g>
        <svg viewBox="0 0 15 15" width="100%" height="30px" preserveAspectRatio="xMaxYMin meet">
         <g id="arrow_out" transform="scale(0.3 0.3)">
          <a xlink:href="IMenuGroup_8hxx__incl_org.svg" target="_base">
           <rect id="button" ry="5" rx="5" y="6" x="6" height="38" width="38"
                fill="#f2f5e9" fill-opacity="0.5" stroke="#606060" stroke-width="1.0"/>
           <path id="arrow"
             d="M 11.500037,31.436501 C 11.940474,20.09759 22.043105,11.32322 32.158766,21.979434 L 37.068811,17.246167 C 37.068811,17.246167 37.088388,32 37.088388,32 L 22.160133,31.978069 C 22.160133,31.978069 26.997745,27.140456 26.997745,27.140456 C 18.528582,18.264221 13.291696,25.230495 11.500037,31.436501 z"
             style="fill:#404040;"/>
          </a>
         </g>
        </svg>
</svg>
