<?xml version="1.0" encoding="UTF-8" standalone="no"?>
<!DOCTYPE svg PUBLIC "-//W3C//DTD SVG 1.1//EN"
 "http://www.w3.org/Graphics/SVG/1.1/DTD/svg11.dtd">
<!-- Generated by graphviz version 2.40.1 (20161225.0304)
 -->
<!-- Title: Graphical Class Hierarchy Pages: 1 -->
<svg width="239pt" height="104pt"
 viewBox="0.00 0.00 239.00 104.00" xmlns="http://www.w3.org/2000/svg" xmlns:xlink="http://www.w3.org/1999/xlink">
<g id="graph0" class="graph" transform="scale(1 1) rotate(0) translate(4 100)">
<title>Graphical Class Hierarchy</title>
<!-- Node0 -->
<g id="node1" class="node">
<title>Node0</title>
<g id="a_node1"><a xlink:href="classGameService.html" target="_top" xlink:title="GameService">
<polygon fill="none" stroke="#000000" points="0,-38.5 0,-57.5 82,-57.5 82,-38.5 0,-38.5"/>
<text text-anchor="middle" x="41" y="-45.5" font-family="Helvetica,sans-Serif" font-size="10.00" fill="#000000">GameService</text>
</a>
</g>
</g>
<!-- Node1 -->
<g id="node2" class="node">
<title>Node1</title>
<g id="a_node2"><a xlink:href="classAudioMixer.html" target="_top" xlink:title="AudioMixer">
<polygon fill="none" stroke="#000000" points="139,-76.5 139,-95.5 210,-95.5 210,-76.5 139,-76.5"/>
<text text-anchor="middle" x="174.5" y="-83.5" font-family="Helvetica,sans-Serif" font-size="10.00" fill="#000000">AudioMixer</text>
</a>
</g>
</g>
<!-- Node0&#45;&gt;Node1 -->
<g id="edge1" class="edge">
<title>Node0&#45;&gt;Node1</title>
<path fill="none" stroke="#191970" d="M84.53,-60.3906C102.8122,-65.5945 123.7492,-71.5541 140.8231,-76.4141"/>
<polygon fill="#191970" stroke="#191970" points="85.2639,-56.9605 74.6877,-57.589 83.3474,-63.6931 85.2639,-56.9605"/>
</g>
<!-- Node2 -->
<g id="node3" class="node">
<title>Node2</title>
<g id="a_node3"><a xlink:href="structGame_1_1GameVisitor.html" target="_top" xlink:title="Game::GameVisitor">
<polygon fill="none" stroke="#000000" points="118,-38.5 118,-57.5 231,-57.5 231,-38.5 118,-38.5"/>
<text text-anchor="middle" x="174.5" y="-45.5" font-family="Helvetica,sans-Serif" font-size="10.00" fill="#000000">Game::GameVisitor</text>
</a>
</g>
</g>
<!-- Node0&#45;&gt;Node2 -->
<g id="edge2" class="edge">
<title>Node0&#45;&gt;Node2</title>
<path fill="none" stroke="#191970" d="M92.364,-48C100.6044,-48 109.1758,-48 117.5376,-48"/>
<polygon fill="#191970" stroke="#191970" points="92.1438,-44.5001 82.1437,-48 92.1437,-51.5001 92.1438,-44.5001"/>
</g>
<!-- Node3 -->
<g id="node4" class="node">
<title>Node3</title>
<g id="a_node4"><a xlink:href="classRandomizer.html" target="_top" xlink:title="Randomizer">
<polygon fill="none" stroke="#000000" points="137,-.5 137,-19.5 212,-19.5 212,-.5 137,-.5"/>
<text text-anchor="middle" x="174.5" y="-7.5" font-family="Helvetica,sans-Serif" font-size="10.00" fill="#000000">Randomizer</text>
</a>
</g>
</g>
<!-- Node0&#45;&gt;Node3 -->
<g id="edge3" class="edge">
<title>Node0&#45;&gt;Node3</title>
<path fill="none" stroke="#191970" d="M84.53,-35.6094C102.8122,-30.4055 123.7492,-24.4459 140.8231,-19.5859"/>
<polygon fill="#191970" stroke="#191970" points="83.3474,-32.3069 74.6877,-38.411 85.2639,-39.0395 83.3474,-32.3069"/>
</g>
</g>
</svg>
