<?xml version="1.0" encoding="UTF-8" standalone="no"?>
<!DOCTYPE svg PUBLIC "-//W3C//DTD SVG 1.1//EN"
 "http://www.w3.org/Graphics/SVG/1.1/DTD/svg11.dtd">
<!-- Generated by graphviz version 2.40.1 (20161225.0304)
 -->
<!-- Title: convertScreenToIsoCoordinates Pages: 1 -->
<svg width="873pt" height="165pt"
 viewBox="0.00 0.00 873.00 165.00" xmlns="http://www.w3.org/2000/svg" xmlns:xlink="http://www.w3.org/1999/xlink">
<g id="graph0" class="graph" transform="scale(1 1) rotate(0) translate(4 161)">
<title>convertScreenToIsoCoordinates</title>
<!-- Node24 -->
<g id="node1" class="node">
<title>Node24</title>
<polygon fill="#bfbfbf" stroke="#000000" points="0,-130 0,-149 170,-149 170,-130 0,-130"/>
<text text-anchor="middle" x="85" y="-137" font-family="Helvetica,sans-Serif" font-size="10.00" fill="#000000">convertScreenToIsoCoordinates</text>
</g>
<!-- Node25 -->
<g id="node2" class="node">
<title>Node25</title>
<g id="a_node2"><a xlink:href="classSingleton.html#af5cb1e5749949e2b68416cfb8d378044" target="_top" xlink:title="Get an instance of the singleton. ">
<polygon fill="none" stroke="#000000" points="551.5,-126.5 551.5,-156.5 669.5,-156.5 669.5,-126.5 551.5,-126.5"/>
<text text-anchor="start" x="559.5" y="-144.5" font-family="Helvetica,sans-Serif" font-size="10.00" fill="#000000">Singleton&lt; Engine &gt;</text>
<text text-anchor="middle" x="610.5" y="-133.5" font-family="Helvetica,sans-Serif" font-size="10.00" fill="#000000">::instance</text>
</a>
</g>
</g>
<!-- Node24&#45;&gt;Node25 -->
<g id="edge1" class="edge">
<title>Node24&#45;&gt;Node25</title>
<path fill="none" stroke="#191970" d="M170.0147,-134.6958C273.2949,-132.8059 445.5473,-133.5881 541.1759,-136.4883"/>
<polygon fill="#191970" stroke="#191970" points="541.2099,-139.9911 551.317,-136.8137 541.4344,-132.9947 541.2099,-139.9911"/>
</g>
<!-- Node24&#45;&gt;Node25 -->
<g id="edge14" class="edge">
<title>Node24&#45;&gt;Node25</title>
<path fill="none" stroke="#191970" d="M170.0147,-144.9513C273.2949,-147.6274 445.5473,-148.1563 541.1759,-145.984"/>
<polygon fill="#191970" stroke="#191970" points="541.4057,-149.4796 551.317,-145.7358 541.2343,-142.4817 541.4057,-149.4796"/>
</g>
<!-- Node26 -->
<g id="node3" class="node">
<title>Node26</title>
<g id="a_node3"><a xlink:href="classMap.html#a8cc1c9d35ae2c3ede6bc0fcc59b9aa41" target="_top" xlink:title="Returns the node at given screencoordinates. ">
<polygon fill="none" stroke="#000000" points="206,-88 206,-107 322,-107 322,-88 206,-88"/>
<text text-anchor="middle" x="264" y="-95" font-family="Helvetica,sans-Serif" font-size="10.00" fill="#000000">Map::findNodeInMap</text>
</a>
</g>
</g>
<!-- Node24&#45;&gt;Node26 -->
<g id="edge2" class="edge">
<title>Node24&#45;&gt;Node26</title>
<path fill="none" stroke="#191970" d="M125.6179,-129.9695C151.6164,-123.8693 185.5532,-115.9065 213.3121,-109.3932"/>
<polygon fill="#191970" stroke="#191970" points="214.2974,-112.7572 223.2334,-107.0653 212.6983,-105.9423 214.2974,-112.7572"/>
</g>
<!-- Node27 -->
<g id="node4" class="node">
<title>Node27</title>
<g id="a_node4"><a xlink:href="isoMath_8cxx.html#a0a076d973bc64ffa7859b894793c8000" target="_top" xlink:title="Calculates screen space coordinates to isometric space coordinates. A formula is used to calculate th...">
<polygon fill="none" stroke="#000000" points="358,-31 358,-50 492,-50 492,-31 358,-31"/>
<text text-anchor="middle" x="425" y="-38" font-family="Helvetica,sans-Serif" font-size="10.00" fill="#000000">calculateIsoCoordinates</text>
</a>
</g>
</g>
<!-- Node24&#45;&gt;Node27 -->
<g id="edge13" class="edge">
<title>Node24&#45;&gt;Node27</title>
<path fill="none" stroke="#191970" d="M100.404,-129.8524C122.7912,-116.277 166.019,-91.7216 206,-78.5 251.7898,-63.3574 305.0673,-53.9431 347.6078,-48.2731"/>
<polygon fill="#191970" stroke="#191970" points="348.1529,-51.7319 357.6226,-46.9806 347.2568,-44.7895 348.1529,-51.7319"/>
</g>
<!-- Node26&#45;&gt;Node25 -->
<g id="edge4" class="edge">
<title>Node26&#45;&gt;Node25</title>
<path fill="none" stroke="#191970" d="M322.3872,-104.9142C382.8024,-112.586 477.1343,-124.5647 541.2688,-132.7087"/>
<polygon fill="#191970" stroke="#191970" points="540.9316,-136.1939 551.2929,-133.9816 541.8135,-129.2497 540.9316,-136.1939"/>
</g>
<!-- Node26&#45;&gt;Node27 -->
<g id="edge3" class="edge">
<title>Node26&#45;&gt;Node27</title>
<path fill="none" stroke="#191970" d="M287.2068,-87.9662C312.7095,-77.5134 351.0065,-61.8974 358,-59.5 364.6086,-57.2346 371.6472,-55.0238 378.5851,-52.9585"/>
<polygon fill="#191970" stroke="#191970" points="379.9878,-56.1959 388.6159,-50.0473 378.0366,-49.4733 379.9878,-56.1959"/>
</g>
<!-- Node28 -->
<g id="node5" class="node">
<title>Node28</title>
<g id="a_node5"><a xlink:href="classMap.html#a1f87a6ce8b3be8d140bcee1b1e473903" target="_top" xlink:title="Map::isClickWithinTile">
<polygon fill="none" stroke="#000000" points="362.5,-69 362.5,-88 487.5,-88 487.5,-69 362.5,-69"/>
<text text-anchor="middle" x="425" y="-76" font-family="Helvetica,sans-Serif" font-size="10.00" fill="#000000">Map::isClickWithinTile</text>
</a>
</g>
</g>
<!-- Node26&#45;&gt;Node28 -->
<g id="edge5" class="edge">
<title>Node26&#45;&gt;Node28</title>
<path fill="none" stroke="#191970" d="M322.1247,-90.6406C331.92,-89.4846 342.1953,-88.272 352.305,-87.0789"/>
<polygon fill="#191970" stroke="#191970" points="352.8146,-90.5432 362.3354,-85.8952 351.9941,-83.5914 352.8146,-90.5432"/>
</g>
<!-- Node28&#45;&gt;Node25 -->
<g id="edge6" class="edge">
<title>Node28&#45;&gt;Node25</title>
<path fill="none" stroke="#191970" d="M476.9902,-88.0075C482.0689,-89.8185 487.1386,-91.6844 492,-93.5 508.0823,-99.5063 511.7733,-101.8955 528,-107.5 543.2866,-112.7799 560.3679,-118.0569 575.0049,-123.0696"/>
<polygon fill="#191970" stroke="#191970" points="574.1008,-126.4622 584.6956,-126.4945 576.4334,-119.8622 574.1008,-126.4622"/>
</g>
<!-- Node28&#45;&gt;Node25 -->
<g id="edge11" class="edge">
<title>Node28&#45;&gt;Node25</title>
<path fill="none" stroke="#191970" d="M435.0197,-88.1685C448.1454,-95.594 471.8598,-103.9782 492,-111.5 508.0823,-117.5063 511.7733,-119.8955 528,-125.5 532.4516,-127.0375 537.0554,-128.5748 541.7067,-130.072"/>
<polygon fill="#191970" stroke="#191970" points="540.6982,-133.4237 551.2873,-133.076 542.7925,-126.7444 540.6982,-133.4237"/>
</g>
<!-- Node29 -->
<g id="node6" class="node">
<title>Node29</title>
<g id="a_node6"><a xlink:href="classMapLayers.html#a1d810628821913c499b8348107b66891" target="_top" xlink:title="Check if given Layer is being drawn. ">
<polygon fill="none" stroke="#000000" points="540,-88 540,-107 681,-107 681,-88 540,-88"/>
<text text-anchor="middle" x="610.5" y="-95" font-family="Helvetica,sans-Serif" font-size="10.00" fill="#000000">MapLayers::isLayerActive</text>
</a>
</g>
</g>
<!-- Node28&#45;&gt;Node29 -->
<g id="edge7" class="edge">
<title>Node28&#45;&gt;Node29</title>
<path fill="none" stroke="#191970" d="M487.5432,-84.906C501.0853,-86.2931 515.5917,-87.7789 529.7213,-89.2262"/>
<polygon fill="#191970" stroke="#191970" points="529.6193,-92.734 539.924,-90.2712 530.3327,-85.7704 529.6193,-92.734"/>
</g>
<!-- Node32 -->
<g id="node9" class="node">
<title>Node32</title>
<g id="a_node9"><a xlink:href="classMap.html#a09ba2fb8fa1748f0effd3ce50ce6cf89" target="_top" xlink:title="Map::getColorOfPixelInSurface">
<polygon fill="none" stroke="#000000" points="528,-50 528,-69 693,-69 693,-50 528,-50"/>
<text text-anchor="middle" x="610.5" y="-57" font-family="Helvetica,sans-Serif" font-size="10.00" fill="#000000">Map::getColorOfPixelInSurface</text>
</a>
</g>
</g>
<!-- Node28&#45;&gt;Node32 -->
<g id="edge10" class="edge">
<title>Node28&#45;&gt;Node32</title>
<path fill="none" stroke="#191970" d="M487.5432,-72.094C497.2462,-71.1001 507.4442,-70.0556 517.644,-69.0109"/>
<polygon fill="#191970" stroke="#191970" points="518.2347,-72.4688 527.826,-67.968 517.5214,-65.5052 518.2347,-72.4688"/>
</g>
<!-- Node33 -->
<g id="node10" class="node">
<title>Node33</title>
<g id="a_node10"><a xlink:href="classResourcesManager.html#ad84710588e607e440931c6956a14aac7" target="_top" xlink:title="ResourcesManager::getTile\lSurface">
<polygon fill="none" stroke="#000000" points="536.5,-.5 536.5,-30.5 684.5,-30.5 684.5,-.5 536.5,-.5"/>
<text text-anchor="start" x="544.5" y="-18.5" font-family="Helvetica,sans-Serif" font-size="10.00" fill="#000000">ResourcesManager::getTile</text>
<text text-anchor="middle" x="610.5" y="-7.5" font-family="Helvetica,sans-Serif" font-size="10.00" fill="#000000">Surface</text>
</a>
</g>
</g>
<!-- Node28&#45;&gt;Node33 -->
<g id="edge12" class="edge">
<title>Node28&#45;&gt;Node33</title>
<path fill="none" stroke="#191970" d="M464.0806,-68.9047C473.3585,-66.2205 483.1332,-63.0515 492,-59.5 508.7945,-52.7731 511.2664,-47.377 528,-40.5 533.7231,-38.148 539.7494,-35.9036 545.8317,-33.7935"/>
<polygon fill="#191970" stroke="#191970" points="547.0276,-37.0841 555.4002,-30.5918 544.8063,-30.4459 547.0276,-37.0841"/>
</g>
<!-- Node30 -->
<g id="node7" class="node">
<title>Node30</title>
<g id="a_node7"><a xlink:href="classMapLayers.html#a53d7fcd90e70eaf36239d7a75c0c5dda" target="_top" xlink:title="MapLayers::MapLayers">
<polygon fill="none" stroke="#000000" points="733,-107 733,-126 861,-126 861,-107 733,-107"/>
<text text-anchor="middle" x="797" y="-114" font-family="Helvetica,sans-Serif" font-size="10.00" fill="#000000">MapLayers::MapLayers</text>
</a>
</g>
</g>
<!-- Node29&#45;&gt;Node30 -->
<g id="edge8" class="edge">
<title>Node29&#45;&gt;Node30</title>
<path fill="none" stroke="#191970" d="M681.0077,-104.6831C694.5705,-106.0648 708.8168,-107.5162 722.5013,-108.9103"/>
<polygon fill="#191970" stroke="#191970" points="722.5324,-112.4315 732.8356,-109.9631 723.2419,-105.4676 722.5324,-112.4315"/>
</g>
<!-- Node31 -->
<g id="node8" class="node">
<title>Node31</title>
<g id="a_node8"><a xlink:href="classMapLayers.html#aa7fa21110e27ec69f131692b0a510d66" target="_top" xlink:title="MapLayers::~MapLayers">
<polygon fill="none" stroke="#000000" points="729,-69 729,-88 865,-88 865,-69 729,-69"/>
<text text-anchor="middle" x="797" y="-76" font-family="Helvetica,sans-Serif" font-size="10.00" fill="#000000">MapLayers::~MapLayers</text>
</a>
</g>
</g>
<!-- Node29&#45;&gt;Node31 -->
<g id="edge9" class="edge">
<title>Node29&#45;&gt;Node31</title>
<path fill="none" stroke="#191970" d="M681.0077,-90.3169C693.3794,-89.0565 706.3199,-87.7382 718.8838,-86.4582"/>
<polygon fill="#191970" stroke="#191970" points="719.2673,-89.9374 728.8611,-85.4418 718.5578,-82.9734 719.2673,-89.9374"/>
</g>
</g>
</svg>
