<?xml version="1.0" encoding="UTF-8" standalone="no"?>
<!DOCTYPE svg PUBLIC "-//W3C//DTD SVG 1.1//EN"
 "http://www.w3.org/Graphics/SVG/1.1/DTD/svg11.dtd">
<!-- Generated by graphviz version 2.40.1 (20161225.0304)
 -->
<!-- Title: src/engine/basics/isoMath.cxx Pages: 1 -->
<svg width="1433pt" height="420pt"
 viewBox="0.00 0.00 1433.03 420.00" xmlns="http://www.w3.org/2000/svg" xmlns:xlink="http://www.w3.org/1999/xlink">
<g id="graph0" class="graph" transform="scale(1 1) rotate(0) translate(4 416)">
<title>src/engine/basics/isoMath.cxx</title>
<!-- Node0 -->
<g id="node1" class="node">
<title>Node0</title>
<polygon fill="#bfbfbf" stroke="#000000" points="89.5331,-392.5 89.5331,-411.5 251.5331,-411.5 251.5331,-392.5 89.5331,-392.5"/>
<text text-anchor="middle" x="170.5331" y="-399.5" font-family="Helvetica,sans-Serif" font-size="10.00" fill="#000000">src/engine/basics/isoMath.cxx</text>
</g>
<!-- Node1 -->
<g id="node2" class="node">
<title>Node1</title>
<g id="a_node2"><a xlink:href="isoMath_8hxx.html" target="_top" xlink:title="isoMath.hxx">
<polygon fill="none" stroke="#000000" points="198.5331,-112.5 198.5331,-131.5 274.5331,-131.5 274.5331,-112.5 198.5331,-112.5"/>
<text text-anchor="middle" x="236.5331" y="-119.5" font-family="Helvetica,sans-Serif" font-size="10.00" fill="#000000">isoMath.hxx</text>
</a>
</g>
</g>
<!-- Node0&#45;&gt;Node1 -->
<g id="edge1" class="edge">
<title>Node0&#45;&gt;Node1</title>
<path fill="none" stroke="#191970" d="M170.5331,-392.4116C170.5331,-373.0538 170.5331,-327.9167 170.5331,-290 170.5331,-290 170.5331,-290 170.5331,-234 170.5331,-195.944 199.1661,-159.4306 218.7133,-138.9377"/>
<polygon fill="#191970" stroke="#191970" points="221.3753,-141.2238 225.929,-131.6575 216.4036,-136.2961 221.3753,-141.2238"/>
</g>
<!-- Node2 -->
<g id="node3" class="node">
<title>Node2</title>
<g id="a_node3"><a xlink:href="point_8hxx.html" target="_top" xlink:title="point.hxx">
<polygon fill="none" stroke="#000000" points="126.5331,-56.5 126.5331,-75.5 188.5331,-75.5 188.5331,-56.5 126.5331,-56.5"/>
<text text-anchor="middle" x="157.5331" y="-63.5" font-family="Helvetica,sans-Serif" font-size="10.00" fill="#000000">point.hxx</text>
</a>
</g>
</g>
<!-- Node0&#45;&gt;Node2 -->
<g id="edge56" class="edge">
<title>Node0&#45;&gt;Node2</title>
<path fill="none" stroke="#191970" d="M124.0798,-392.4442C73.7459,-379.056 .5331,-349.3769 .5331,-290 .5331,-290 .5331,-290 .5331,-178 .5331,-147.4754 -1.5992,-134.0268 19.5331,-112 33.0589,-97.9015 80.6461,-84.0415 116.1803,-75.2819"/>
<polygon fill="#191970" stroke="#191970" points="117.4049,-78.587 126.3066,-72.8416 115.7649,-71.7818 117.4049,-78.587"/>
</g>
<!-- Node6 -->
<g id="node7" class="node">
<title>Node6</title>
<g id="a_node7"><a xlink:href="Engine_8hxx.html" target="_top" xlink:title="../Engine.hxx">
<polygon fill="none" stroke="#000000" points="435.5331,-336.5 435.5331,-355.5 515.5331,-355.5 515.5331,-336.5 435.5331,-336.5"/>
<text text-anchor="middle" x="475.5331" y="-343.5" font-family="Helvetica,sans-Serif" font-size="10.00" fill="#000000">../Engine.hxx</text>
</a>
</g>
</g>
<!-- Node0&#45;&gt;Node6 -->
<g id="edge6" class="edge">
<title>Node0&#45;&gt;Node6</title>
<path fill="none" stroke="#191970" d="M222.6179,-392.4369C279.3183,-382.0263 369.3577,-365.4945 425.3138,-355.2206"/>
<polygon fill="#191970" stroke="#191970" points="426.1462,-358.6263 435.3497,-353.3779 424.882,-351.7414 426.1462,-358.6263"/>
</g>
<!-- Node23 -->
<g id="node24" class="node">
<title>Node23</title>
<g id="a_node24"><a xlink:href="Camera_8hxx.html" target="_top" xlink:title="Camera.hxx">
<polygon fill="none" stroke="#000000" points="28.5331,-112.5 28.5331,-131.5 104.5331,-131.5 104.5331,-112.5 28.5331,-112.5"/>
<text text-anchor="middle" x="66.5331" y="-119.5" font-family="Helvetica,sans-Serif" font-size="10.00" fill="#000000">Camera.hxx</text>
</a>
</g>
</g>
<!-- Node0&#45;&gt;Node23 -->
<g id="edge44" class="edge">
<title>Node0&#45;&gt;Node23</title>
<path fill="none" stroke="#191970" d="M154.8563,-392.4175C129.0707,-375.3156 80.5331,-336.8956 80.5331,-290 80.5331,-290 80.5331,-290 80.5331,-234 80.5331,-201.311 74.5884,-163.6669 70.4465,-141.4058"/>
<polygon fill="#191970" stroke="#191970" points="73.8734,-140.692 68.5389,-131.5381 67.0006,-142.0207 73.8734,-140.692"/>
</g>
<!-- Node24 -->
<g id="node25" class="node">
<title>Node24</title>
<g id="a_node25"><a xlink:href="Settings_8hxx.html" target="_top" xlink:title="Settings.hxx">
<polygon fill="none" stroke="#000000" points="1083.0331,-168.5 1083.0331,-187.5 1160.0331,-187.5 1160.0331,-168.5 1083.0331,-168.5"/>
<text text-anchor="middle" x="1121.5331" y="-175.5" font-family="Helvetica,sans-Serif" font-size="10.00" fill="#000000">Settings.hxx</text>
</a>
</g>
</g>
<!-- Node0&#45;&gt;Node24 -->
<g id="edge47" class="edge">
<title>Node0&#45;&gt;Node24</title>
<path fill="none" stroke="#191970" d="M251.8051,-396.2696C424.3578,-383.3058 821.7938,-348.9954 947.5331,-300 1011.6342,-275.0225 1074.6706,-221.7039 1104.184,-194.5832"/>
<polygon fill="#191970" stroke="#191970" points="1106.6665,-197.0539 1111.5924,-187.6738 1101.8921,-191.9347 1106.6665,-197.0539"/>
</g>
<!-- Node1&#45;&gt;Node2 -->
<g id="edge2" class="edge">
<title>Node1&#45;&gt;Node2</title>
<path fill="none" stroke="#191970" d="M222.7723,-112.2455C210.8778,-103.814 193.4681,-91.4729 179.6245,-81.6598"/>
<polygon fill="#191970" stroke="#191970" points="181.3184,-78.5704 171.1361,-75.6427 177.2703,-84.2811 181.3184,-78.5704"/>
</g>
<!-- Node3 -->
<g id="node4" class="node">
<title>Node3</title>
<polygon fill="none" stroke="#bfbfbf" points="321.5331,-56.5 321.5331,-75.5 365.5331,-75.5 365.5331,-56.5 321.5331,-56.5"/>
<text text-anchor="middle" x="343.5331" y="-63.5" font-family="Helvetica,sans-Serif" font-size="10.00" fill="#000000">SDL.h</text>
</g>
<!-- Node1&#45;&gt;Node3 -->
<g id="edge3" class="edge">
<title>Node1&#45;&gt;Node3</title>
<path fill="none" stroke="#191970" d="M255.171,-112.2455C271.9717,-103.4527 296.8965,-90.4079 315.9949,-80.4125"/>
<polygon fill="#191970" stroke="#191970" points="317.8717,-83.3807 325.1087,-75.6427 314.6258,-77.1787 317.8717,-83.3807"/>
</g>
<!-- Node4 -->
<g id="node5" class="node">
<title>Node4</title>
<polygon fill="none" stroke="#bfbfbf" points="518.0331,-56.5 518.0331,-75.5 565.0331,-75.5 565.0331,-56.5 518.0331,-56.5"/>
<text text-anchor="middle" x="541.5331" y="-63.5" font-family="Helvetica,sans-Serif" font-size="10.00" fill="#000000">vector</text>
</g>
<!-- Node1&#45;&gt;Node4 -->
<g id="edge4" class="edge">
<title>Node1&#45;&gt;Node4</title>
<path fill="none" stroke="#191970" d="M274.6787,-117.1039C325.6634,-110.2206 418.9581,-96.4414 507.8604,-75.9102"/>
<polygon fill="#191970" stroke="#191970" points="508.8995,-79.2616 517.8375,-73.5728 507.3028,-72.4461 508.8995,-79.2616"/>
</g>
<!-- Node5 -->
<g id="node6" class="node">
<title>Node5</title>
<polygon fill="none" stroke="#bfbfbf" points="217.5331,-56.5 217.5331,-75.5 281.5331,-75.5 281.5331,-56.5 217.5331,-56.5"/>
<text text-anchor="middle" x="249.5331" y="-63.5" font-family="Helvetica,sans-Serif" font-size="10.00" fill="#000000">algorithm</text>
</g>
<!-- Node1&#45;&gt;Node5 -->
<g id="edge5" class="edge">
<title>Node1&#45;&gt;Node5</title>
<path fill="none" stroke="#191970" d="M238.7975,-112.2455C240.5125,-104.8579 242.9242,-94.4689 245.0275,-85.4087"/>
<polygon fill="#191970" stroke="#191970" points="248.4425,-86.1751 247.2946,-75.6427 241.6239,-84.5922 248.4425,-86.1751"/>
</g>
<!-- Node6&#45;&gt;Node2 -->
<g id="edge14" class="edge">
<title>Node6&#45;&gt;Node2</title>
<path fill="none" stroke="#191970" d="M440.8888,-336.4302C416.0471,-328.7036 382.3694,-316.4163 355.5331,-300 260.2256,-241.6986 222.2939,-229.9405 168.5331,-132 160.7599,-117.8391 158.1859,-99.5877 157.4561,-85.8684"/>
<polygon fill="#191970" stroke="#191970" points="160.9485,-85.5102 157.2033,-75.5994 153.9506,-85.6825 160.9485,-85.5102"/>
</g>
<!-- Node6&#45;&gt;Node3 -->
<g id="edge7" class="edge">
<title>Node6&#45;&gt;Node3</title>
<path fill="none" stroke="#191970" d="M446.2401,-336.4925C406.5355,-321.5496 340.5331,-288.5114 340.5331,-234 340.5331,-234 340.5331,-234 340.5331,-178 340.5331,-145.7 341.7953,-108.1791 342.6823,-85.8005"/>
<polygon fill="#191970" stroke="#191970" points="346.1884,-85.7217 343.1032,-75.5861 339.1943,-85.4334 346.1884,-85.7217"/>
</g>
<!-- Node7 -->
<g id="node8" class="node">
<title>Node7</title>
<g id="a_node8"><a xlink:href="WindowManager_8hxx.html" target="_top" xlink:title="WindowManager.hxx">
<polygon fill="none" stroke="#000000" points="937.5331,-112.5 937.5331,-131.5 1055.5331,-131.5 1055.5331,-112.5 937.5331,-112.5"/>
<text text-anchor="middle" x="996.5331" y="-119.5" font-family="Helvetica,sans-Serif" font-size="10.00" fill="#000000">WindowManager.hxx</text>
</a>
</g>
</g>
<!-- Node6&#45;&gt;Node7 -->
<g id="edge8" class="edge">
<title>Node6&#45;&gt;Node7</title>
<path fill="none" stroke="#191970" d="M515.6788,-344.2164C619.5313,-339.2772 891.2047,-324.1686 923.5331,-300 975.1715,-261.3953 990.441,-179.8052 994.8285,-142.0032"/>
<polygon fill="#191970" stroke="#191970" points="998.3391,-142.0763 995.869,-131.7734 991.375,-141.3679 998.3391,-142.0763"/>
</g>
<!-- Node10 -->
<g id="node11" class="node">
<title>Node10</title>
<g id="a_node11"><a xlink:href="Singleton_8hxx.html" target="_top" xlink:title="../util/Singleton.hxx">
<polygon fill="none" stroke="#000000" points="944.0331,-56.5 944.0331,-75.5 1055.0331,-75.5 1055.0331,-56.5 944.0331,-56.5"/>
<text text-anchor="middle" x="999.5331" y="-63.5" font-family="Helvetica,sans-Serif" font-size="10.00" fill="#000000">../util/Singleton.hxx</text>
</a>
</g>
</g>
<!-- Node6&#45;&gt;Node10 -->
<g id="edge43" class="edge">
<title>Node6&#45;&gt;Node10</title>
<path fill="none" stroke="#191970" d="M515.5848,-344.1995C623.0252,-338.2856 909.5331,-314.9284 909.5331,-234 909.5331,-234 909.5331,-234 909.5331,-178 909.5331,-147.4754 910.3503,-136.5182 928.5331,-112 938.4849,-98.5806 953.6106,-88.0047 967.3476,-80.3947"/>
<polygon fill="#191970" stroke="#191970" points="969.3011,-83.3237 976.5552,-75.6017 966.0689,-77.1146 969.3011,-83.3237"/>
</g>
<!-- Node11 -->
<g id="node12" class="node">
<title>Node11</title>
<g id="a_node12"><a xlink:href="Map_8hxx.html" target="_top" xlink:title="Map.hxx">
<polygon fill="none" stroke="#000000" points="581.5331,-280.5 581.5331,-299.5 639.5331,-299.5 639.5331,-280.5 581.5331,-280.5"/>
<text text-anchor="middle" x="610.5331" y="-287.5" font-family="Helvetica,sans-Serif" font-size="10.00" fill="#000000">Map.hxx</text>
</a>
</g>
</g>
<!-- Node6&#45;&gt;Node11 -->
<g id="edge15" class="edge">
<title>Node6&#45;&gt;Node11</title>
<path fill="none" stroke="#191970" d="M498.7404,-336.3733C520.7029,-327.2629 553.8662,-313.5062 578.3732,-303.3404"/>
<polygon fill="#191970" stroke="#191970" points="579.7328,-306.5657 587.6286,-299.5011 577.0507,-300.0999 579.7328,-306.5657"/>
</g>
<!-- Node7&#45;&gt;Node3 -->
<g id="edge12" class="edge">
<title>Node7&#45;&gt;Node3</title>
<path fill="none" stroke="#191970" d="M937.4781,-118.0145C796.5927,-108.458 447.7151,-84.4919 375.9998,-75.4169"/>
<polygon fill="#191970" stroke="#191970" points="376.1296,-71.8966 365.7175,-73.8557 375.0787,-78.8173 376.1296,-71.8966"/>
</g>
<!-- Node7&#45;&gt;Node4 -->
<g id="edge11" class="edge">
<title>Node7&#45;&gt;Node4</title>
<path fill="none" stroke="#191970" d="M937.4401,-115.2457C862.17,-106.5635 728.1014,-90.8349 613.5331,-76 601.0459,-74.3831 587.3556,-72.5076 575.2968,-70.8206"/>
<polygon fill="#191970" stroke="#191970" points="575.5812,-67.3262 565.1909,-69.3979 574.6053,-74.2579 575.5812,-67.3262"/>
</g>
<!-- Node8 -->
<g id="node9" class="node">
<title>Node8</title>
<polygon fill="none" stroke="#bfbfbf" points="893.5331,-.5 893.5331,-19.5 937.5331,-19.5 937.5331,-.5 893.5331,-.5"/>
<text text-anchor="middle" x="915.5331" y="-7.5" font-family="Helvetica,sans-Serif" font-size="10.00" fill="#000000">string</text>
</g>
<!-- Node7&#45;&gt;Node8 -->
<g id="edge9" class="edge">
<title>Node7&#45;&gt;Node8</title>
<path fill="none" stroke="#191970" d="M1019.569,-112.4904C1045.2845,-100.4808 1081.2361,-78.6376 1064.5331,-56 1050.5894,-37.1023 987.1094,-22.6913 947.6408,-15.3653"/>
<polygon fill="#191970" stroke="#191970" points="948.1496,-11.9007 937.6876,-13.573 946.9089,-18.7899 948.1496,-11.9007"/>
</g>
<!-- Node9 -->
<g id="node10" class="node">
<title>Node9</title>
<polygon fill="none" stroke="#bfbfbf" points="1149.5331,-56.5 1149.5331,-75.5 1209.5331,-75.5 1209.5331,-56.5 1149.5331,-56.5"/>
<text text-anchor="middle" x="1179.5331" y="-63.5" font-family="Helvetica,sans-Serif" font-size="10.00" fill="#000000">iostream</text>
</g>
<!-- Node7&#45;&gt;Node9 -->
<g id="edge10" class="edge">
<title>Node7&#45;&gt;Node9</title>
<path fill="none" stroke="#191970" d="M1027.9919,-112.3733C1058.8316,-102.936 1105.9636,-88.5131 1139.468,-78.2604"/>
<polygon fill="#191970" stroke="#191970" points="1140.8571,-81.4955 1149.3952,-75.2225 1138.8088,-74.8019 1140.8571,-81.4955"/>
</g>
<!-- Node7&#45;&gt;Node10 -->
<g id="edge13" class="edge">
<title>Node7&#45;&gt;Node10</title>
<path fill="none" stroke="#191970" d="M997.0556,-112.2455C997.4471,-104.9382 997.9959,-94.6944 998.4775,-85.7046"/>
<polygon fill="#191970" stroke="#191970" points="1001.9764,-85.8156 999.0165,-75.6427 994.9865,-85.4411 1001.9764,-85.8156"/>
</g>
<!-- Node11&#45;&gt;Node4 -->
<g id="edge16" class="edge">
<title>Node11&#45;&gt;Node4</title>
<path fill="none" stroke="#191970" d="M616.3172,-280.304C627.849,-259.7928 651.9025,-210.4072 643.5331,-168 638.3234,-141.6028 638.206,-132.2884 620.5331,-112 608.1018,-97.729 590.1099,-86.772 574.4353,-79.1381"/>
<polygon fill="#191970" stroke="#191970" points="575.5928,-75.8179 565.0456,-74.8145 572.665,-82.1763 575.5928,-75.8179"/>
</g>
<!-- Node12 -->
<g id="node13" class="node">
<title>Node12</title>
<g id="a_node13"><a xlink:href="MapNode_8hxx.html" target="_top" xlink:title="GameObjects/MapNode.hxx">
<polygon fill="none" stroke="#000000" points="482.5331,-168.5 482.5331,-187.5 634.5331,-187.5 634.5331,-168.5 482.5331,-168.5"/>
<text text-anchor="middle" x="558.5331" y="-175.5" font-family="Helvetica,sans-Serif" font-size="10.00" fill="#000000">GameObjects/MapNode.hxx</text>
</a>
</g>
</g>
<!-- Node11&#45;&gt;Node12 -->
<g id="edge17" class="edge">
<title>Node11&#45;&gt;Node12</title>
<path fill="none" stroke="#191970" d="M606.0996,-280.4509C597.5033,-261.936 578.4319,-220.8591 567.2239,-196.7187"/>
<polygon fill="#191970" stroke="#191970" points="570.341,-195.1211 562.9553,-187.5249 563.992,-198.0689 570.341,-195.1211"/>
</g>
<!-- Node21 -->
<g id="node22" class="node">
<title>Node21</title>
<g id="a_node22"><a xlink:href="TerrainGenerator_8hxx.html" target="_top" xlink:title="map/TerrainGenerator.hxx">
<polygon fill="none" stroke="#000000" points="683.0331,-224.5 683.0331,-243.5 826.0331,-243.5 826.0331,-224.5 683.0331,-224.5"/>
<text text-anchor="middle" x="754.5331" y="-231.5" font-family="Helvetica,sans-Serif" font-size="10.00" fill="#000000">map/TerrainGenerator.hxx</text>
</a>
</g>
</g>
<!-- Node11&#45;&gt;Node21 -->
<g id="edge39" class="edge">
<title>Node11&#45;&gt;Node21</title>
<path fill="none" stroke="#191970" d="M635.2875,-280.3733C658.8179,-271.2226 694.4017,-257.3844 720.5757,-247.2057"/>
<polygon fill="#191970" stroke="#191970" points="722.0501,-250.3877 730.1016,-243.5011 719.513,-243.8636 722.0501,-250.3877"/>
</g>
<!-- Node12&#45;&gt;Node2 -->
<g id="edge30" class="edge">
<title>Node12&#45;&gt;Node2</title>
<path fill="none" stroke="#191970" d="M482.2914,-172.3832C381.2107,-164.3467 212.8208,-148.6846 189.5331,-132 174.3729,-121.1385 166.0855,-101.1039 161.769,-85.9466"/>
<polygon fill="#191970" stroke="#191970" points="165.0981,-84.8309 159.2861,-75.9726 158.3054,-86.5219 165.0981,-84.8309"/>
</g>
<!-- Node12&#45;&gt;Node3 -->
<g id="edge18" class="edge">
<title>Node12&#45;&gt;Node3</title>
<path fill="none" stroke="#191970" d="M493.6881,-168.469C463.0172,-161.7674 426.9773,-150.5547 398.5331,-132 379.8822,-119.8337 364.2792,-99.4106 354.5125,-84.4991"/>
<polygon fill="#191970" stroke="#191970" points="357.2376,-82.2561 348.9638,-75.6383 351.3048,-85.9713 357.2376,-82.2561"/>
</g>
<!-- Node12&#45;&gt;Node4 -->
<g id="edge22" class="edge">
<title>Node12&#45;&gt;Node4</title>
<path fill="none" stroke="#191970" d="M573.9588,-168.2994C591.5611,-155.9223 616.5724,-133.5296 605.5331,-112 598.6001,-98.4789 585.6394,-88.0326 573.185,-80.5377"/>
<polygon fill="#191970" stroke="#191970" points="574.7403,-77.3979 564.2991,-75.6001 571.3402,-83.5168 574.7403,-77.3979"/>
</g>
<!-- Node12&#45;&gt;Node5 -->
<g id="edge21" class="edge">
<title>Node12&#45;&gt;Node5</title>
<path fill="none" stroke="#191970" d="M504.2216,-168.4487C466.2894,-160.8648 414.8845,-148.742 371.5331,-132 335.6376,-118.1374 297.0216,-95.8669 273.066,-81.0853"/>
<polygon fill="#191970" stroke="#191970" points="274.6767,-77.9646 264.3418,-75.6319 270.9663,-83.9004 274.6767,-77.9646"/>
</g>
<!-- Node12&#45;&gt;Node8 -->
<g id="edge20" class="edge">
<title>Node12&#45;&gt;Node8</title>
<path fill="none" stroke="#191970" d="M634.7685,-171.2499C706.581,-163.9028 808.2551,-150.6571 843.5331,-132 873.8259,-115.9793 879.5328,-105.7542 896.5331,-76 904.7589,-61.6029 909.6545,-43.3719 912.4107,-29.7205"/>
<polygon fill="#191970" stroke="#191970" points="915.9206,-29.9773 914.2487,-19.5152 909.0315,-28.7364 915.9206,-29.9773"/>
</g>
<!-- Node13 -->
<g id="node14" class="node">
<title>Node13</title>
<polygon fill="none" stroke="#bfbfbf" points="538.5331,-112.5 538.5331,-131.5 596.5331,-131.5 596.5331,-112.5 538.5331,-112.5"/>
<text text-anchor="middle" x="567.5331" y="-119.5" font-family="Helvetica,sans-Serif" font-size="10.00" fill="#000000">memory</text>
</g>
<!-- Node12&#45;&gt;Node13 -->
<g id="edge19" class="edge">
<title>Node12&#45;&gt;Node13</title>
<path fill="none" stroke="#191970" d="M560.1007,-168.2455C561.2751,-160.9382 562.9215,-150.6944 564.3662,-141.7046"/>
<polygon fill="#191970" stroke="#191970" points="567.8521,-142.0714 565.9833,-131.6427 560.9408,-140.9606 567.8521,-142.0714"/>
</g>
<!-- Node14 -->
<g id="node15" class="node">
<title>Node14</title>
<g id="a_node15"><a xlink:href="Sprite_8hxx.html" target="_top" xlink:title="../Sprite.hxx">
<polygon fill="none" stroke="#000000" points="407.0331,-112.5 407.0331,-131.5 482.0331,-131.5 482.0331,-112.5 407.0331,-112.5"/>
<text text-anchor="middle" x="444.5331" y="-119.5" font-family="Helvetica,sans-Serif" font-size="10.00" fill="#000000">../Sprite.hxx</text>
</a>
</g>
</g>
<!-- Node12&#45;&gt;Node14 -->
<g id="edge23" class="edge">
<title>Node12&#45;&gt;Node14</title>
<path fill="none" stroke="#191970" d="M538.9358,-168.3733C520.7999,-159.4644 493.6196,-146.1127 473.0744,-136.0203"/>
<polygon fill="#191970" stroke="#191970" points="474.3934,-132.7688 463.8746,-131.5011 471.307,-139.0517 474.3934,-132.7688"/>
</g>
<!-- Node15 -->
<g id="node16" class="node">
<title>Node15</title>
<g id="a_node16"><a xlink:href="enums_8hxx.html" target="_top" xlink:title="common/enums.hxx">
<polygon fill="none" stroke="#000000" points="383.5331,-56.5 383.5331,-75.5 499.5331,-75.5 499.5331,-56.5 383.5331,-56.5"/>
<text text-anchor="middle" x="441.5331" y="-63.5" font-family="Helvetica,sans-Serif" font-size="10.00" fill="#000000">common/enums.hxx</text>
</a>
</g>
</g>
<!-- Node12&#45;&gt;Node15 -->
<g id="edge29" class="edge">
<title>Node12&#45;&gt;Node15</title>
<path fill="none" stroke="#191970" d="M549.0912,-168.4974C536.2093,-155.5793 512.3464,-131.8145 491.5331,-112 481.2253,-102.187 469.5271,-91.4057 460.0389,-82.7487"/>
<polygon fill="#191970" stroke="#191970" points="462.1132,-79.9042 452.3601,-75.7656 457.4036,-85.083 462.1132,-79.9042"/>
</g>
<!-- Node17 -->
<g id="node18" class="node">
<title>Node17</title>
<g id="a_node18"><a xlink:href="TileManager_8hxx.html" target="_top" xlink:title="../TileManager.hxx">
<polygon fill="none" stroke="#000000" points="728.5331,-112.5 728.5331,-131.5 834.5331,-131.5 834.5331,-112.5 728.5331,-112.5"/>
<text text-anchor="middle" x="781.5331" y="-119.5" font-family="Helvetica,sans-Serif" font-size="10.00" fill="#000000">../TileManager.hxx</text>
</a>
</g>
</g>
<!-- Node12&#45;&gt;Node17 -->
<g id="edge31" class="edge">
<title>Node12&#45;&gt;Node17</title>
<path fill="none" stroke="#191970" d="M596.6147,-168.4369C634.5389,-158.9133 692.862,-144.2672 733.8456,-133.9753"/>
<polygon fill="#191970" stroke="#191970" points="734.7621,-137.3539 743.6084,-131.5237 733.0571,-130.5647 734.7621,-137.3539"/>
</g>
<!-- Node14&#45;&gt;Node2 -->
<g id="edge26" class="edge">
<title>Node14&#45;&gt;Node2</title>
<path fill="none" stroke="#191970" d="M406.9267,-114.6834C360.3529,-105.619 278.5879,-89.6955 208.5331,-76 205.3009,-75.3681 201.9537,-74.7132 198.5899,-74.0545"/>
<polygon fill="#191970" stroke="#191970" points="199.0338,-70.575 188.5474,-72.087 197.6879,-77.4444 199.0338,-70.575"/>
</g>
<!-- Node14&#45;&gt;Node3 -->
<g id="edge24" class="edge">
<title>Node14&#45;&gt;Node3</title>
<path fill="none" stroke="#191970" d="M426.9402,-112.2455C411.154,-103.4928 387.7692,-90.527 369.7743,-80.5496"/>
<polygon fill="#191970" stroke="#191970" points="371.3672,-77.4308 360.9243,-75.6427 367.9728,-83.5528 371.3672,-77.4308"/>
</g>
<!-- Node14&#45;&gt;Node4 -->
<g id="edge25" class="edge">
<title>Node14&#45;&gt;Node4</title>
<path fill="none" stroke="#191970" d="M461.4292,-112.2455C476.451,-103.5731 498.6374,-90.7645 515.8541,-80.825"/>
<polygon fill="#191970" stroke="#191970" points="517.9201,-83.6737 524.8306,-75.6427 514.4202,-77.6114 517.9201,-83.6737"/>
</g>
<!-- Node14&#45;&gt;Node15 -->
<g id="edge27" class="edge">
<title>Node14&#45;&gt;Node15</title>
<path fill="none" stroke="#191970" d="M444.0105,-112.2455C443.619,-104.9382 443.0703,-94.6944 442.5887,-85.7046"/>
<polygon fill="#191970" stroke="#191970" points="446.0797,-85.4411 442.0496,-75.6427 439.0897,-85.8156 446.0797,-85.4411"/>
</g>
<!-- Node16 -->
<g id="node17" class="node">
<title>Node16</title>
<polygon fill="none" stroke="#bfbfbf" points="413.5331,-.5 413.5331,-19.5 469.5331,-19.5 469.5331,-.5 413.5331,-.5"/>
<text text-anchor="middle" x="441.5331" y="-7.5" font-family="Helvetica,sans-Serif" font-size="10.00" fill="#000000">stddef.h</text>
</g>
<!-- Node15&#45;&gt;Node16 -->
<g id="edge28" class="edge">
<title>Node15&#45;&gt;Node16</title>
<path fill="none" stroke="#191970" d="M441.5331,-56.2455C441.5331,-48.9382 441.5331,-38.6944 441.5331,-29.7046"/>
<polygon fill="#191970" stroke="#191970" points="445.0332,-29.6426 441.5331,-19.6427 438.0332,-29.6427 445.0332,-29.6426"/>
</g>
<!-- Node17&#45;&gt;Node3 -->
<g id="edge32" class="edge">
<title>Node17&#45;&gt;Node3</title>
<path fill="none" stroke="#191970" d="M728.3021,-119.3754C651.9506,-114.8675 506.9568,-103.5405 375.5759,-75.8586"/>
<polygon fill="#191970" stroke="#191970" points="376.2509,-72.4238 365.7393,-73.7495 374.7833,-79.2683 376.2509,-72.4238"/>
</g>
<!-- Node17&#45;&gt;Node8 -->
<g id="edge34" class="edge">
<title>Node17&#45;&gt;Node8</title>
<path fill="none" stroke="#191970" d="M735.8088,-112.4542C688.7032,-102.1598 621.0998,-85.9171 613.5331,-76 608.1411,-68.9332 607.7402,-62.742 613.5331,-56 630.9927,-35.6795 809.0378,-18.779 883.2886,-12.5594"/>
<polygon fill="#191970" stroke="#191970" points="883.7808,-16.0308 893.4591,-11.7201 883.2051,-9.0545 883.7808,-16.0308"/>
</g>
<!-- Node17&#45;&gt;Node10 -->
<g id="edge38" class="edge">
<title>Node17&#45;&gt;Node10</title>
<path fill="none" stroke="#191970" d="M819.0086,-112.3733C856.0433,-102.8598 912.8012,-88.2797 952.7692,-78.0127"/>
<polygon fill="#191970" stroke="#191970" points="953.7318,-81.3792 962.5465,-75.5011 951.9902,-74.5993 953.7318,-81.3792"/>
</g>
<!-- Node18 -->
<g id="node19" class="node">
<title>Node18</title>
<polygon fill="none" stroke="#bfbfbf" points="794.0331,-56.5 794.0331,-75.5 887.0331,-75.5 887.0331,-56.5 794.0331,-56.5"/>
<text text-anchor="middle" x="840.5331" y="-63.5" font-family="Helvetica,sans-Serif" font-size="10.00" fill="#000000">unordered_map</text>
</g>
<!-- Node17&#45;&gt;Node18 -->
<g id="edge33" class="edge">
<title>Node17&#45;&gt;Node18</title>
<path fill="none" stroke="#191970" d="M791.8101,-112.2455C800.3549,-104.1352 812.7109,-92.4075 822.8416,-82.7919"/>
<polygon fill="#191970" stroke="#191970" points="825.5302,-85.0655 830.3738,-75.6427 820.7112,-79.9884 825.5302,-85.0655"/>
</g>
<!-- Node19 -->
<g id="node20" class="node">
<title>Node19</title>
<g id="a_node20"><a xlink:href="tileData_8hxx.html" target="_top" xlink:title="tileData.hxx">
<polygon fill="none" stroke="#000000" points="622.0331,-56.5 622.0331,-75.5 699.0331,-75.5 699.0331,-56.5 622.0331,-56.5"/>
<text text-anchor="middle" x="660.5331" y="-63.5" font-family="Helvetica,sans-Serif" font-size="10.00" fill="#000000">tileData.hxx</text>
</a>
</g>
</g>
<!-- Node17&#45;&gt;Node19 -->
<g id="edge35" class="edge">
<title>Node17&#45;&gt;Node19</title>
<path fill="none" stroke="#191970" d="M760.7324,-112.3733C741.3088,-103.3838 712.1107,-89.8706 690.2366,-79.7471"/>
<polygon fill="#191970" stroke="#191970" points="691.6075,-76.5249 681.0623,-75.5011 688.6674,-82.8776 691.6075,-76.5249"/>
</g>
<!-- Node20 -->
<g id="node21" class="node">
<title>Node20</title>
<polygon fill="none" stroke="#bfbfbf" points="717.5331,-56.5 717.5331,-75.5 775.5331,-75.5 775.5331,-56.5 717.5331,-56.5"/>
<text text-anchor="middle" x="746.5331" y="-63.5" font-family="Helvetica,sans-Serif" font-size="10.00" fill="#000000">json.hxx</text>
</g>
<!-- Node17&#45;&gt;Node20 -->
<g id="edge37" class="edge">
<title>Node17&#45;&gt;Node20</title>
<path fill="none" stroke="#191970" d="M775.4365,-112.2455C770.6185,-104.5367 763.7579,-93.5598 757.9298,-84.2348"/>
<polygon fill="#191970" stroke="#191970" points="760.8278,-82.2677 752.5597,-75.6427 754.8918,-85.9777 760.8278,-82.2677"/>
</g>
<!-- Node19&#45;&gt;Node8 -->
<g id="edge36" class="edge">
<title>Node19&#45;&gt;Node8</title>
<path fill="none" stroke="#191970" d="M699.2621,-57.4948C749.6495,-46.4293 836.7576,-27.2997 883.5721,-17.0189"/>
<polygon fill="#191970" stroke="#191970" points="884.4527,-20.409 893.4692,-14.8454 882.9511,-13.5719 884.4527,-20.409"/>
</g>
<!-- Node21&#45;&gt;Node4 -->
<g id="edge42" class="edge">
<title>Node21&#45;&gt;Node4</title>
<path fill="none" stroke="#191970" d="M748.6336,-224.3956C731.3554,-196.3178 681.75,-116.0923 676.5331,-112 646.8626,-88.7256 604.7158,-76.8633 575.4381,-71.072"/>
<polygon fill="#191970" stroke="#191970" points="575.7491,-67.5706 565.2808,-69.2032 574.4823,-74.455 575.7491,-67.5706"/>
</g>
<!-- Node21&#45;&gt;Node12 -->
<g id="edge40" class="edge">
<title>Node21&#45;&gt;Node12</title>
<path fill="none" stroke="#191970" d="M720.8395,-224.3733C687.8244,-214.9404 637.3758,-200.5265 601.4945,-190.2747"/>
<polygon fill="#191970" stroke="#191970" points="602.3638,-186.8831 591.787,-187.5011 600.4407,-193.6137 602.3638,-186.8831"/>
</g>
<!-- Node22 -->
<g id="node23" class="node">
<title>Node22</title>
<polygon fill="none" stroke="#bfbfbf" points="735.5331,-168.5 735.5331,-187.5 773.5331,-187.5 773.5331,-168.5 735.5331,-168.5"/>
<text text-anchor="middle" x="754.5331" y="-175.5" font-family="Helvetica,sans-Serif" font-size="10.00" fill="#000000">map</text>
</g>
<!-- Node21&#45;&gt;Node22 -->
<g id="edge41" class="edge">
<title>Node21&#45;&gt;Node22</title>
<path fill="none" stroke="#191970" d="M754.5331,-224.2455C754.5331,-216.9382 754.5331,-206.6944 754.5331,-197.7046"/>
<polygon fill="#191970" stroke="#191970" points="758.0332,-197.6426 754.5331,-187.6427 751.0332,-197.6427 758.0332,-197.6426"/>
</g>
<!-- Node23&#45;&gt;Node2 -->
<g id="edge46" class="edge">
<title>Node23&#45;&gt;Node2</title>
<path fill="none" stroke="#191970" d="M82.384,-112.2455C96.3462,-103.6534 116.9059,-91.0014 132.9926,-81.1018"/>
<polygon fill="#191970" stroke="#191970" points="135.1815,-83.8645 141.8637,-75.6427 131.5128,-77.9029 135.1815,-83.8645"/>
</g>
<!-- Node23&#45;&gt;Node3 -->
<g id="edge45" class="edge">
<title>Node23&#45;&gt;Node3</title>
<path fill="none" stroke="#191970" d="M104.7579,-114.2722C159.7421,-103.1563 260.1721,-82.8528 311.4913,-72.4778"/>
<polygon fill="#191970" stroke="#191970" points="312.2597,-75.8933 321.3678,-70.4811 310.8725,-69.0321 312.2597,-75.8933"/>
</g>
<!-- Node24&#45;&gt;Node8 -->
<g id="edge48" class="edge">
<title>Node24&#45;&gt;Node8</title>
<path fill="none" stroke="#191970" d="M1121.2194,-168.4927C1119.9374,-145.6423 1113.4352,-87.2241 1080.5331,-56 1061.4925,-37.9305 990.2461,-22.9071 947.8517,-15.3216"/>
<polygon fill="#191970" stroke="#191970" points="948.1975,-11.8291 937.7444,-13.556 946.9929,-18.7247 948.1975,-11.8291"/>
</g>
<!-- Node24&#45;&gt;Node10 -->
<g id="edge49" class="edge">
<title>Node24&#45;&gt;Node10</title>
<path fill="none" stroke="#191970" d="M1114.4398,-168.3975C1104.249,-154.9471 1084.4859,-130.1149 1064.5331,-112 1052.0136,-100.6338 1036.6194,-89.628 1023.9552,-81.2329"/>
<polygon fill="#191970" stroke="#191970" points="1025.5902,-78.1215 1015.2965,-75.6135 1021.7794,-83.9934 1025.5902,-78.1215"/>
</g>
<!-- Node25 -->
<g id="node26" class="node">
<title>Node25</title>
<g id="a_node26"><a xlink:href="Meta_8hxx.html" target="_top" xlink:title="../../util/Meta.hxx">
<polygon fill="none" stroke="#000000" points="1221.5331,-112.5 1221.5331,-131.5 1319.5331,-131.5 1319.5331,-112.5 1221.5331,-112.5"/>
<text text-anchor="middle" x="1270.5331" y="-119.5" font-family="Helvetica,sans-Serif" font-size="10.00" fill="#000000">../../util/Meta.hxx</text>
</a>
</g>
</g>
<!-- Node24&#45;&gt;Node25 -->
<g id="edge50" class="edge">
<title>Node24&#45;&gt;Node25</title>
<path fill="none" stroke="#191970" d="M1147.1471,-168.3733C1171.6017,-159.1822 1208.6385,-145.2624 1235.7539,-135.0713"/>
<polygon fill="#191970" stroke="#191970" points="1237.1239,-138.2956 1245.2533,-131.5011 1234.6612,-131.7431 1237.1239,-138.2956"/>
</g>
<!-- Node29 -->
<g id="node30" class="node">
<title>Node29</title>
<polygon fill="none" stroke="#bfbfbf" points="1150.0331,-112.5 1150.0331,-131.5 1203.0331,-131.5 1203.0331,-112.5 1150.0331,-112.5"/>
<text text-anchor="middle" x="1176.5331" y="-119.5" font-family="Helvetica,sans-Serif" font-size="10.00" fill="#000000">cstddef</text>
</g>
<!-- Node24&#45;&gt;Node29 -->
<g id="edge55" class="edge">
<title>Node24&#45;&gt;Node29</title>
<path fill="none" stroke="#191970" d="M1131.1133,-168.2455C1139.0788,-160.1352 1150.5971,-148.4075 1160.041,-138.7919"/>
<polygon fill="#191970" stroke="#191970" points="1162.5525,-141.2297 1167.0626,-131.6427 1157.5584,-136.3247 1162.5525,-141.2297"/>
</g>
<!-- Node25&#45;&gt;Node9 -->
<g id="edge51" class="edge">
<title>Node25&#45;&gt;Node9</title>
<path fill="none" stroke="#191970" d="M1254.6821,-112.2455C1240.7199,-103.6534 1220.1603,-91.0014 1204.0735,-81.1018"/>
<polygon fill="#191970" stroke="#191970" points="1205.5534,-77.9029 1195.2024,-75.6427 1201.8846,-83.8645 1205.5534,-77.9029"/>
</g>
<!-- Node26 -->
<g id="node27" class="node">
<title>Node26</title>
<polygon fill="none" stroke="#bfbfbf" points="1356.0331,-56.5 1356.0331,-75.5 1425.0331,-75.5 1425.0331,-56.5 1356.0331,-56.5"/>
<text text-anchor="middle" x="1390.5331" y="-63.5" font-family="Helvetica,sans-Serif" font-size="10.00" fill="#000000">type_traits</text>
</g>
<!-- Node25&#45;&gt;Node26 -->
<g id="edge52" class="edge">
<title>Node25&#45;&gt;Node26</title>
<path fill="none" stroke="#191970" d="M1291.1618,-112.3733C1310.4249,-103.3838 1339.3817,-89.8706 1361.075,-79.7471"/>
<polygon fill="#191970" stroke="#191970" points="1362.5918,-82.9017 1370.1735,-75.5011 1359.6315,-76.5584 1362.5918,-82.9017"/>
</g>
<!-- Node27 -->
<g id="node28" class="node">
<title>Node27</title>
<polygon fill="none" stroke="#bfbfbf" points="1228.0331,-56.5 1228.0331,-75.5 1279.0331,-75.5 1279.0331,-56.5 1228.0331,-56.5"/>
<text text-anchor="middle" x="1253.5331" y="-63.5" font-family="Helvetica,sans-Serif" font-size="10.00" fill="#000000">variant</text>
</g>
<!-- Node25&#45;&gt;Node27 -->
<g id="edge53" class="edge">
<title>Node25&#45;&gt;Node27</title>
<path fill="none" stroke="#191970" d="M1267.5719,-112.2455C1265.3292,-104.8579 1262.1754,-94.4689 1259.425,-85.4087"/>
<polygon fill="#191970" stroke="#191970" points="1262.7143,-84.1948 1256.4603,-75.6427 1256.0161,-86.2282 1262.7143,-84.1948"/>
</g>
<!-- Node28 -->
<g id="node29" class="node">
<title>Node28</title>
<polygon fill="none" stroke="#bfbfbf" points="1297.0331,-56.5 1297.0331,-75.5 1338.0331,-75.5 1338.0331,-56.5 1297.0331,-56.5"/>
<text text-anchor="middle" x="1317.5331" y="-63.5" font-family="Helvetica,sans-Serif" font-size="10.00" fill="#000000">tuple</text>
</g>
<!-- Node25&#45;&gt;Node28 -->
<g id="edge54" class="edge">
<title>Node25&#45;&gt;Node28</title>
<path fill="none" stroke="#191970" d="M1278.7198,-112.2455C1285.3919,-104.2958 1294.981,-92.8706 1302.9584,-83.3656"/>
<polygon fill="#191970" stroke="#191970" points="1305.6923,-85.5525 1309.4401,-75.6427 1300.3304,-81.0524 1305.6923,-85.5525"/>
</g>
</g>
</svg>
