<?xml version="1.0" encoding="UTF-8" standalone="no"?>
<!DOCTYPE svg PUBLIC "-//W3C//DTD SVG 1.1//EN"
 "http://www.w3.org/Graphics/SVG/1.1/DTD/svg11.dtd">
<!-- Generated by graphviz version 2.40.1 (20161225.0304)
 -->
<!-- Title: convertScreenToIsoCoordinates Pages: 1 -->
<svg width="678pt" height="66pt"
 viewBox="0.00 0.00 678.00 66.00" xmlns="http://www.w3.org/2000/svg" xmlns:xlink="http://www.w3.org/1999/xlink">
<g id="graph0" class="graph" transform="scale(1 1) rotate(0) translate(4 62)">
<title>convertScreenToIsoCoordinates</title>
<!-- Node36 -->
<g id="node1" class="node">
<title>Node36</title>
<polygon fill="#bfbfbf" stroke="#000000" points="0,-19.5 0,-38.5 170,-38.5 170,-19.5 0,-19.5"/>
<text text-anchor="middle" x="85" y="-26.5" font-family="Helvetica,sans-Serif" font-size="10.00" fill="#000000">convertScreenToIsoCoordinates</text>
</g>
<!-- Node37 -->
<g id="node2" class="node">
<title>Node37</title>
<g id="a_node2"><a xlink:href="classEventManager.html#a65ec91fd5016d4f9c4167fb8babed2df" target="_top" xlink:title="EventManager::checkEvents">
<polygon fill="none" stroke="#000000" points="206,-19.5 206,-38.5 360,-38.5 360,-19.5 206,-19.5"/>
<text text-anchor="middle" x="283" y="-26.5" font-family="Helvetica,sans-Serif" font-size="10.00" fill="#000000">EventManager::checkEvents</text>
</a>
</g>
</g>
<!-- Node36&#45;&gt;Node37 -->
<g id="edge1" class="edge">
<title>Node36&#45;&gt;Node37</title>
<path fill="none" stroke="#191970" d="M180.161,-29C188.7436,-29 197.3647,-29 205.7658,-29"/>
<polygon fill="#191970" stroke="#191970" points="180.1189,-25.5001 170.1189,-29 180.1189,-32.5001 180.1189,-25.5001"/>
</g>
<!-- Node38 -->
<g id="node3" class="node">
<title>Node38</title>
<g id="a_node3"><a xlink:href="classGame.html#a1c2ab25d5216b2f4b2fe41efd2c09114" target="_top" xlink:title="begins the game starts running the game ">
<polygon fill="none" stroke="#000000" points="396,-19.5 396,-38.5 464,-38.5 464,-19.5 396,-19.5"/>
<text text-anchor="middle" x="430" y="-26.5" font-family="Helvetica,sans-Serif" font-size="10.00" fill="#000000">Game::run</text>
</a>
</g>
</g>
<!-- Node37&#45;&gt;Node38 -->
<g id="edge2" class="edge">
<title>Node37&#45;&gt;Node38</title>
<path fill="none" stroke="#191970" d="M370.5248,-29C379.4338,-29 388.0572,-29 395.845,-29"/>
<polygon fill="#191970" stroke="#191970" points="370.3744,-25.5001 360.3744,-29 370.3743,-32.5001 370.3744,-25.5001"/>
</g>
<!-- Node39 -->
<g id="node4" class="node">
<title>Node39</title>
<g id="a_node4"><a xlink:href="classGame.html#ad59df6562a58a614fda24622d3715b65" target="_top" xlink:title="Game::Game">
<polygon fill="none" stroke="#000000" points="506,-38.5 506,-57.5 587,-57.5 587,-38.5 506,-38.5"/>
<text text-anchor="middle" x="546.5" y="-45.5" font-family="Helvetica,sans-Serif" font-size="10.00" fill="#000000">Game::Game</text>
</a>
</g>
</g>
<!-- Node38&#45;&gt;Node39 -->
<g id="edge3" class="edge">
<title>Node38&#45;&gt;Node39</title>
<path fill="none" stroke="#191970" d="M474.0985,-36.192C484.4513,-37.8805 495.439,-39.6725 505.6427,-41.3366"/>
<polygon fill="#191970" stroke="#191970" points="474.4428,-32.702 464.0098,-34.5467 473.316,-39.6107 474.4428,-32.702"/>
</g>
<!-- Node40 -->
<g id="node5" class="node">
<title>Node40</title>
<g id="a_node5"><a xlink:href="main_8cxx.html#af582d708d899e67ead623eac34a22387" target="_top" xlink:title="protected_main">
<polygon fill="none" stroke="#000000" points="500,-.5 500,-19.5 593,-19.5 593,-.5 500,-.5"/>
<text text-anchor="middle" x="546.5" y="-7.5" font-family="Helvetica,sans-Serif" font-size="10.00" fill="#000000">protected_main</text>
</a>
</g>
</g>
<!-- Node38&#45;&gt;Node40 -->
<g id="edge4" class="edge">
<title>Node38&#45;&gt;Node40</title>
<path fill="none" stroke="#191970" d="M473.9884,-21.8259C482.382,-20.457 491.1965,-19.0195 499.6749,-17.6367"/>
<polygon fill="#191970" stroke="#191970" points="473.316,-18.3893 464.0098,-23.4533 474.4428,-25.298 473.316,-18.3893"/>
</g>
<!-- Node41 -->
<g id="node6" class="node">
<title>Node41</title>
<g id="a_node6"><a xlink:href="main_8cxx.html#a3c04138a5bfe5d72780bb7e82a18e627" target="_top" xlink:title="main">
<polygon fill="none" stroke="#000000" points="629,-.5 629,-19.5 670,-19.5 670,-.5 629,-.5"/>
<text text-anchor="middle" x="649.5" y="-7.5" font-family="Helvetica,sans-Serif" font-size="10.00" fill="#000000">main</text>
</a>
</g>
</g>
<!-- Node40&#45;&gt;Node41 -->
<g id="edge5" class="edge">
<title>Node40&#45;&gt;Node41</title>
<path fill="none" stroke="#191970" d="M603.2133,-10C612.4322,-10 621.4259,-10 628.9965,-10"/>
<polygon fill="#191970" stroke="#191970" points="603.1782,-6.5001 593.1782,-10 603.1781,-13.5001 603.1782,-6.5001"/>
</g>
</g>
</svg>
