<?xml version="1.0" encoding="UTF-8" standalone="no"?>
<!DOCTYPE svg PUBLIC "-//W3C//DTD SVG 1.1//EN"
 "http://www.w3.org/Graphics/SVG/1.1/DTD/svg11.dtd">
<!-- Generated by graphviz version 2.40.1 (20161225.0304)
 -->
<!-- Title: isPointWithinMapBoundaries Pages: 1 -->
<svg width="1253pt" height="172pt"
 viewBox="0.00 0.00 1253.00 172.18" xmlns="http://www.w3.org/2000/svg" xmlns:xlink="http://www.w3.org/1999/xlink">
<g id="graph0" class="graph" transform="scale(1 1) rotate(0) translate(4 168.182)">
<title>isPointWithinMapBoundaries</title>
<!-- Node51 -->
<g id="node1" class="node">
<title>Node51</title>
<polygon fill="#bfbfbf" stroke="#000000" points="0,-126 0,-145 156,-145 156,-126 0,-126"/>
<text text-anchor="middle" x="78" y="-133" font-family="Helvetica,sans-Serif" font-size="10.00" fill="#000000">isPointWithinMapBoundaries</text>
</g>
<!-- Node52 -->
<g id="node2" class="node">
<title>Node52</title>
<g id="a_node2"><a xlink:href="classCamera.html#adfb240823ff20b97b69459490dbd8dc3" target="_top" xlink:title="Centers camera on given isometric coordinates Centers the camera on the given isometric coordinates...">
<polygon fill="none" stroke="#000000" points="192,-88 192,-107 355,-107 355,-88 192,-88"/>
<text text-anchor="middle" x="273.5" y="-95" font-family="Helvetica,sans-Serif" font-size="10.00" fill="#000000">Camera::centerScreenOnPoint</text>
</a>
</g>
</g>
<!-- Node51&#45;&gt;Node52 -->
<g id="edge1" class="edge">
<title>Node51&#45;&gt;Node52</title>
<path fill="none" stroke="#191970" d="M137.11,-124.0106C165.0045,-118.5886 197.9024,-112.1942 224.3992,-107.0439"/>
<polygon fill="#191970" stroke="#191970" points="136.229,-120.6162 127.0806,-125.96 137.5647,-127.4876 136.229,-120.6162"/>
</g>
<!-- Node55 -->
<g id="node5" class="node">
<title>Node55</title>
<g id="a_node5"><a xlink:href="classEventManager.html#a65ec91fd5016d4f9c4167fb8babed2df" target="_top" xlink:title="EventManager::checkEvents">
<polygon fill="none" stroke="#000000" points="781,-88 781,-107 935,-107 935,-88 781,-88"/>
<text text-anchor="middle" x="858" y="-95" font-family="Helvetica,sans-Serif" font-size="10.00" fill="#000000">EventManager::checkEvents</text>
</a>
</g>
</g>
<!-- Node51&#45;&gt;Node55 -->
<g id="edge16" class="edge">
<title>Node51&#45;&gt;Node55</title>
<path fill="none" stroke="#191970" d="M156.1463,-146.2308C281.8818,-161.141 536.1498,-181.5447 745,-136.5 777.2565,-129.5429 813.035,-116.1833 835.5173,-107.058"/>
<polygon fill="#191970" stroke="#191970" points="156.5646,-142.756 146.2173,-145.0329 155.7261,-149.7056 156.5646,-142.756"/>
</g>
<!-- Node53 -->
<g id="node3" class="node">
<title>Node53</title>
<g id="a_node3"><a xlink:href="classCamera.html#a0a8ee04ccb4f4cc9af52a964cf225f66" target="_top" xlink:title="Increases the zoom level of the camera Increases the zoom level of the camera. ">
<polygon fill="none" stroke="#000000" points="392.5,-126 392.5,-145 549.5,-145 549.5,-126 392.5,-126"/>
<text text-anchor="middle" x="471" y="-133" font-family="Helvetica,sans-Serif" font-size="10.00" fill="#000000">Camera::increaseZoomLevel</text>
</a>
</g>
</g>
<!-- Node52&#45;&gt;Node53 -->
<g id="edge2" class="edge">
<title>Node52&#45;&gt;Node53</title>
<path fill="none" stroke="#191970" d="M333.2147,-108.9894C361.3946,-114.4114 394.629,-120.8058 421.3969,-125.9561"/>
<polygon fill="#191970" stroke="#191970" points="333.5639,-105.4925 323.0827,-107.04 332.2412,-112.3664 333.5639,-105.4925"/>
</g>
<!-- Node54 -->
<g id="node4" class="node">
<title>Node54</title>
<g id="a_node4"><a xlink:href="classCamera.html#a1f8ecd427814c5a4970223c2d13b9310" target="_top" xlink:title="Camera::setPinchDistance">
<polygon fill="none" stroke="#000000" points="593.5,-88 593.5,-107 738.5,-107 738.5,-88 593.5,-88"/>
<text text-anchor="middle" x="666" y="-95" font-family="Helvetica,sans-Serif" font-size="10.00" fill="#000000">Camera::setPinchDistance</text>
</a>
</g>
</g>
<!-- Node52&#45;&gt;Node54 -->
<g id="edge13" class="edge">
<title>Node52&#45;&gt;Node54</title>
<path fill="none" stroke="#191970" d="M365.3678,-97.5C434.8384,-97.5 528.9227,-97.5 593.224,-97.5"/>
<polygon fill="#191970" stroke="#191970" points="365.3031,-94.0001 355.3031,-97.5 365.3031,-101.0001 365.3031,-94.0001"/>
</g>
<!-- Node60 -->
<g id="node10" class="node">
<title>Node60</title>
<g id="a_node10"><a xlink:href="classCamera.html#aeea39f352d5873495dea6f376cf3207e" target="_top" xlink:title="Decreases the zoom level of the camera Decreases the zoom level of the camera. ">
<polygon fill="none" stroke="#000000" points="391,-50 391,-69 551,-69 551,-50 391,-50"/>
<text text-anchor="middle" x="471" y="-57" font-family="Helvetica,sans-Serif" font-size="10.00" fill="#000000">Camera::decreaseZoomLevel</text>
</a>
</g>
</g>
<!-- Node52&#45;&gt;Node60 -->
<g id="edge10" class="edge">
<title>Node52&#45;&gt;Node60</title>
<path fill="none" stroke="#191970" d="M333.2147,-86.0106C361.3946,-80.5886 394.629,-74.1942 421.3969,-69.0439"/>
<polygon fill="#191970" stroke="#191970" points="332.2412,-82.6336 323.0827,-87.96 333.5639,-89.5075 332.2412,-82.6336"/>
</g>
<!-- Node61 -->
<g id="node11" class="node">
<title>Node61</title>
<g id="a_node11"><a xlink:href="classCamera.html#af29da768f8948f3afbf0a9b43530eb1d" target="_top" xlink:title="Centers camera on the middle of the map Centers the camera on the middle of the map. ">
<polygon fill="none" stroke="#000000" points="587,-.5 587,-30.5 745,-30.5 745,-.5 587,-.5"/>
<text text-anchor="start" x="595" y="-18.5" font-family="Helvetica,sans-Serif" font-size="10.00" fill="#000000">Camera::centerScreenOnMap</text>
<text text-anchor="middle" x="666" y="-7.5" font-family="Helvetica,sans-Serif" font-size="10.00" fill="#000000">Center</text>
</a>
</g>
</g>
<!-- Node52&#45;&gt;Node61 -->
<g id="edge14" class="edge">
<title>Node52&#45;&gt;Node61</title>
<path fill="none" stroke="#191970" d="M297.4836,-82.6544C320.5383,-69.1767 356.8254,-50.0008 391,-40.5 455.3171,-22.6193 531.0303,-16.7939 586.7119,-15.1995"/>
<polygon fill="#191970" stroke="#191970" points="295.5464,-79.7344 288.748,-87.8604 299.13,-85.7476 295.5464,-79.7344"/>
</g>
<!-- Node53&#45;&gt;Node54 -->
<g id="edge3" class="edge">
<title>Node53&#45;&gt;Node54</title>
<path fill="none" stroke="#191970" d="M529.9588,-124.0106C557.782,-118.5886 590.5957,-112.1942 617.0248,-107.0439"/>
<polygon fill="#191970" stroke="#191970" points="529.1009,-120.6118 519.955,-125.96 530.4399,-127.4826 529.1009,-120.6118"/>
</g>
<!-- Node53&#45;&gt;Node55 -->
<g id="edge9" class="edge">
<title>Node53&#45;&gt;Node55</title>
<path fill="none" stroke="#191970" d="M559.9105,-131.5299C613.6236,-128.5861 683.3875,-123.7984 745,-116.5 765.6443,-114.0545 788.2636,-110.4396 807.8056,-107.0174"/>
<polygon fill="#191970" stroke="#191970" points="559.5297,-128.0452 549.7317,-132.0762 559.905,-135.0351 559.5297,-128.0452"/>
</g>
<!-- Node54&#45;&gt;Node55 -->
<g id="edge4" class="edge">
<title>Node54&#45;&gt;Node55</title>
<path fill="none" stroke="#191970" d="M748.7207,-97.5C759.3799,-97.5 770.2617,-97.5 780.8269,-97.5"/>
<polygon fill="#191970" stroke="#191970" points="748.587,-94.0001 738.587,-97.5 748.5869,-101.0001 748.587,-94.0001"/>
</g>
<!-- Node56 -->
<g id="node6" class="node">
<title>Node56</title>
<g id="a_node6"><a xlink:href="classGame.html#a1c2ab25d5216b2f4b2fe41efd2c09114" target="_top" xlink:title="begins the game starts running the game ">
<polygon fill="none" stroke="#000000" points="971,-47 971,-66 1039,-66 1039,-47 971,-47"/>
<text text-anchor="middle" x="1005" y="-54" font-family="Helvetica,sans-Serif" font-size="10.00" fill="#000000">Game::run</text>
</a>
</g>
</g>
<!-- Node55&#45;&gt;Node56 -->
<g id="edge5" class="edge">
<title>Node55&#45;&gt;Node56</title>
<path fill="none" stroke="#191970" d="M901.8958,-85.2569C923.9621,-79.1024 950.3026,-71.7557 970.8363,-66.0286"/>
<polygon fill="#191970" stroke="#191970" points="900.7863,-81.9327 892.0942,-87.9907 902.6669,-88.6754 900.7863,-81.9327"/>
</g>
<!-- Node57 -->
<g id="node7" class="node">
<title>Node57</title>
<g id="a_node7"><a xlink:href="classGame.html#ad59df6562a58a614fda24622d3715b65" target="_top" xlink:title="Game::Game">
<polygon fill="none" stroke="#000000" points="1081,-66 1081,-85 1162,-85 1162,-66 1081,-66"/>
<text text-anchor="middle" x="1121.5" y="-73" font-family="Helvetica,sans-Serif" font-size="10.00" fill="#000000">Game::Game</text>
</a>
</g>
</g>
<!-- Node56&#45;&gt;Node57 -->
<g id="edge6" class="edge">
<title>Node56&#45;&gt;Node57</title>
<path fill="none" stroke="#191970" d="M1049.0985,-63.692C1059.4513,-65.3805 1070.439,-67.1725 1080.6427,-68.8366"/>
<polygon fill="#191970" stroke="#191970" points="1049.4428,-60.202 1039.0098,-62.0467 1048.316,-67.1107 1049.4428,-60.202"/>
</g>
<!-- Node58 -->
<g id="node8" class="node">
<title>Node58</title>
<g id="a_node8"><a xlink:href="main_8cxx.html#af582d708d899e67ead623eac34a22387" target="_top" xlink:title="protected_main">
<polygon fill="none" stroke="#000000" points="1075,-28 1075,-47 1168,-47 1168,-28 1075,-28"/>
<text text-anchor="middle" x="1121.5" y="-35" font-family="Helvetica,sans-Serif" font-size="10.00" fill="#000000">protected_main</text>
</a>
</g>
</g>
<!-- Node56&#45;&gt;Node58 -->
<g id="edge7" class="edge">
<title>Node56&#45;&gt;Node58</title>
<path fill="none" stroke="#191970" d="M1048.9884,-49.3259C1057.382,-47.957 1066.1965,-46.5195 1074.6749,-45.1367"/>
<polygon fill="#191970" stroke="#191970" points="1048.316,-45.8893 1039.0098,-50.9533 1049.4428,-52.798 1048.316,-45.8893"/>
</g>
<!-- Node59 -->
<g id="node9" class="node">
<title>Node59</title>
<g id="a_node9"><a xlink:href="main_8cxx.html#a3c04138a5bfe5d72780bb7e82a18e627" target="_top" xlink:title="main">
<polygon fill="none" stroke="#000000" points="1204,-28 1204,-47 1245,-47 1245,-28 1204,-28"/>
<text text-anchor="middle" x="1224.5" y="-35" font-family="Helvetica,sans-Serif" font-size="10.00" fill="#000000">main</text>
</a>
</g>
</g>
<!-- Node58&#45;&gt;Node59 -->
<g id="edge8" class="edge">
<title>Node58&#45;&gt;Node59</title>
<path fill="none" stroke="#191970" d="M1178.2133,-37.5C1187.4322,-37.5 1196.4259,-37.5 1203.9965,-37.5"/>
<polygon fill="#191970" stroke="#191970" points="1178.1782,-34.0001 1168.1782,-37.5 1178.1781,-41.0001 1178.1782,-34.0001"/>
</g>
<!-- Node60&#45;&gt;Node54 -->
<g id="edge11" class="edge">
<title>Node60&#45;&gt;Node54</title>
<path fill="none" stroke="#191970" d="M529.9588,-70.9894C557.782,-76.4114 590.5957,-82.8058 617.0248,-87.9561"/>
<polygon fill="#191970" stroke="#191970" points="530.4399,-67.5174 519.955,-69.04 529.1009,-74.3882 530.4399,-67.5174"/>
</g>
<!-- Node60&#45;&gt;Node55 -->
<g id="edge12" class="edge">
<title>Node60&#45;&gt;Node55</title>
<path fill="none" stroke="#191970" d="M561.3687,-63.5503C614.8822,-66.5005 683.9436,-71.2674 745,-78.5 765.6443,-80.9455 788.2636,-84.5604 807.8056,-87.9826"/>
<polygon fill="#191970" stroke="#191970" points="561.3963,-60.0468 551.2221,-63.0023 561.0188,-67.0366 561.3963,-60.0468"/>
</g>
<!-- Node61&#45;&gt;Node56 -->
<g id="edge15" class="edge">
<title>Node61&#45;&gt;Node56</title>
<path fill="none" stroke="#191970" d="M755.2863,-26.2986C825.8907,-34.8378 920.6287,-46.2958 970.6803,-52.3492"/>
<polygon fill="#191970" stroke="#191970" points="755.4005,-22.787 745.0526,-25.0609 754.56,-29.7364 755.4005,-22.787"/>
</g>
</g>
</svg>
