<?xml version="1.0" encoding="UTF-8" standalone="no"?>
<!DOCTYPE svg PUBLIC "-//W3C//DTD SVG 1.1//EN"
 "http://www.w3.org/Graphics/SVG/1.1/DTD/svg11.dtd">
<!-- Generated by graphviz version 2.40.1 (20161225.0304)
 -->
<!-- Title: src/engine/common/JsonSerialization.hxx Pages: 1 -->
<svg width="2067pt" height="364pt"
 viewBox="0.00 0.00 2067.00 364.00" xmlns="http://www.w3.org/2000/svg" xmlns:xlink="http://www.w3.org/1999/xlink">
<g id="graph0" class="graph" transform="scale(1 1) rotate(0) translate(4 360)">
<title>src/engine/common/JsonSerialization.hxx</title>
<!-- Node0 -->
<g id="node1" class="node">
<title>Node0</title>
<polygon fill="#bfbfbf" stroke="#000000" points="383,-336.5 383,-355.5 601,-355.5 601,-336.5 383,-336.5"/>
<text text-anchor="middle" x="492" y="-343.5" font-family="Helvetica,sans-Serif" font-size="10.00" fill="#000000">src/engine/common/JsonSerialization.hxx</text>
</g>
<!-- Node1 -->
<g id="node2" class="node">
<title>Node1</title>
<polygon fill="none" stroke="#bfbfbf" points="80,-112.5 80,-131.5 138,-131.5 138,-112.5 80,-112.5"/>
<text text-anchor="middle" x="109" y="-119.5" font-family="Helvetica,sans-Serif" font-size="10.00" fill="#000000">json.hxx</text>
</g>
<!-- Node0&#45;&gt;Node1 -->
<g id="edge1" class="edge">
<title>Node0&#45;&gt;Node1</title>
<path fill="none" stroke="#191970" d="M452.7086,-336.4744C360.2873,-313.1915 133.6893,-250.7038 91,-188 81.3334,-173.8013 88.3338,-154.581 96.2546,-140.5446"/>
<polygon fill="#191970" stroke="#191970" points="99.394,-142.1233 101.6918,-131.7806 93.4457,-138.433 99.394,-142.1233"/>
</g>
<!-- Node2 -->
<g id="node3" class="node">
<title>Node2</title>
<g id="a_node3"><a xlink:href="point_8hxx.html" target="_top" xlink:title="point.hxx">
<polygon fill="none" stroke="#000000" points="0,-112.5 0,-131.5 62,-131.5 62,-112.5 0,-112.5"/>
<text text-anchor="middle" x="31" y="-119.5" font-family="Helvetica,sans-Serif" font-size="10.00" fill="#000000">point.hxx</text>
</a>
</g>
</g>
<!-- Node0&#45;&gt;Node2 -->
<g id="edge2" class="edge">
<title>Node0&#45;&gt;Node2</title>
<path fill="none" stroke="#191970" d="M389.6161,-336.4986C312.5227,-325.0068 207.5648,-299.6873 132,-244 92.1769,-214.6525 58.445,-166.3013 41.9105,-140.1503"/>
<polygon fill="#191970" stroke="#191970" points="44.8557,-138.2584 36.6174,-131.5964 38.9032,-141.9418 44.8557,-138.2584"/>
</g>
<!-- Node3 -->
<g id="node4" class="node">
<title>Node3</title>
<g id="a_node4"><a xlink:href="MapNode_8hxx.html" target="_top" xlink:title="GameObjects/MapNode.hxx">
<polygon fill="none" stroke="#000000" points="286,-224.5 286,-243.5 438,-243.5 438,-224.5 286,-224.5"/>
<text text-anchor="middle" x="362" y="-231.5" font-family="Helvetica,sans-Serif" font-size="10.00" fill="#000000">GameObjects/MapNode.hxx</text>
</a>
</g>
</g>
<!-- Node0&#45;&gt;Node3 -->
<g id="edge3" class="edge">
<title>Node0&#45;&gt;Node3</title>
<path fill="none" stroke="#191970" d="M480.9163,-336.4509C458.6582,-317.2747 408.3081,-273.8962 380.8022,-250.1988"/>
<polygon fill="#191970" stroke="#191970" points="382.9163,-247.4004 373.0557,-243.5249 378.3473,-252.7036 382.9163,-247.4004"/>
</g>
<!-- Node16 -->
<g id="node17" class="node">
<title>Node16</title>
<g id="a_node17"><a xlink:href="TerrainGenerator_8hxx.html" target="_top" xlink:title="TerrainGenerator.hxx">
<polygon fill="none" stroke="#000000" points="697.5,-280.5 697.5,-299.5 816.5,-299.5 816.5,-280.5 697.5,-280.5"/>
<text text-anchor="middle" x="757" y="-287.5" font-family="Helvetica,sans-Serif" font-size="10.00" fill="#000000">TerrainGenerator.hxx</text>
</a>
</g>
</g>
<!-- Node0&#45;&gt;Node16 -->
<g id="edge25" class="edge">
<title>Node0&#45;&gt;Node16</title>
<path fill="none" stroke="#191970" d="M537.254,-336.4369C582.7973,-326.8127 653.0965,-311.957 701.8686,-301.6504"/>
<polygon fill="#191970" stroke="#191970" points="702.8724,-305.0157 711.9326,-299.5237 701.425,-298.1669 702.8724,-305.0157"/>
</g>
<!-- Node18 -->
<g id="node19" class="node">
<title>Node18</title>
<g id="a_node19"><a xlink:href="Settings_8hxx.html" target="_top" xlink:title="Settings.hxx">
<polygon fill="none" stroke="#000000" points="635.5,-168.5 635.5,-187.5 712.5,-187.5 712.5,-168.5 635.5,-168.5"/>
<text text-anchor="middle" x="674" y="-175.5" font-family="Helvetica,sans-Serif" font-size="10.00" fill="#000000">Settings.hxx</text>
</a>
</g>
</g>
<!-- Node0&#45;&gt;Node18 -->
<g id="edge29" class="edge">
<title>Node0&#45;&gt;Node18</title>
<path fill="none" stroke="#191970" d="M502.3066,-336.4862C531.9484,-309.1246 617.7178,-229.9528 655.6199,-194.9663"/>
<polygon fill="#191970" stroke="#191970" points="658.3791,-197.1825 663.3531,-187.8279 653.6311,-192.0389 658.3791,-197.1825"/>
</g>
<!-- Node25 -->
<g id="node26" class="node">
<title>Node25</title>
<g id="a_node26"><a xlink:href="AudioMixer_8hxx.html" target="_top" xlink:title="../../services/AudioMixer.hxx">
<polygon fill="none" stroke="#000000" points="1055.5,-280.5 1055.5,-299.5 1208.5,-299.5 1208.5,-280.5 1055.5,-280.5"/>
<text text-anchor="middle" x="1132" y="-287.5" font-family="Helvetica,sans-Serif" font-size="10.00" fill="#000000">../../services/AudioMixer.hxx</text>
</a>
</g>
</g>
<!-- Node0&#45;&gt;Node25 -->
<g id="edge38" class="edge">
<title>Node0&#45;&gt;Node25</title>
<path fill="none" stroke="#191970" d="M600.9298,-336.4686C726.3156,-325.4974 929.7433,-307.6975 1045.0293,-297.6099"/>
<polygon fill="#191970" stroke="#191970" points="1045.5654,-301.0765 1055.2222,-296.7181 1044.9551,-294.1031 1045.5654,-301.0765"/>
</g>
<!-- Node3&#45;&gt;Node2 -->
<g id="edge16" class="edge">
<title>Node3&#45;&gt;Node2</title>
<path fill="none" stroke="#191970" d="M285.8541,-226.6765C217.7451,-219.1221 123.7608,-205.9211 91,-188 70.5239,-176.799 53.361,-155.9101 42.7074,-140.6232"/>
<polygon fill="#191970" stroke="#191970" points="45.3989,-138.3501 36.9438,-131.9656 39.572,-142.2293 45.3989,-138.3501"/>
</g>
<!-- Node4 -->
<g id="node5" class="node">
<title>Node4</title>
<polygon fill="none" stroke="#bfbfbf" points="290,-112.5 290,-131.5 334,-131.5 334,-112.5 290,-112.5"/>
<text text-anchor="middle" x="312" y="-119.5" font-family="Helvetica,sans-Serif" font-size="10.00" fill="#000000">SDL.h</text>
</g>
<!-- Node3&#45;&gt;Node4 -->
<g id="edge4" class="edge">
<title>Node3&#45;&gt;Node4</title>
<path fill="none" stroke="#191970" d="M357.737,-224.4509C349.4714,-205.936 331.1335,-164.8591 320.3566,-140.7187"/>
<polygon fill="#191970" stroke="#191970" points="323.5247,-139.2295 316.2522,-131.5249 317.1328,-142.0831 323.5247,-139.2295"/>
</g>
<!-- Node5 -->
<g id="node6" class="node">
<title>Node5</title>
<polygon fill="none" stroke="#bfbfbf" points="1349,-.5 1349,-19.5 1407,-19.5 1407,-.5 1349,-.5"/>
<text text-anchor="middle" x="1378" y="-7.5" font-family="Helvetica,sans-Serif" font-size="10.00" fill="#000000">memory</text>
</g>
<!-- Node3&#45;&gt;Node5 -->
<g id="edge5" class="edge">
<title>Node3&#45;&gt;Node5</title>
<path fill="none" stroke="#191970" d="M361.712,-224.4675C361.5772,-201.0359 364.8187,-140.4669 400,-112 500.0129,-31.0746 556.4402,-72.7333 684,-56 748.906,-47.4856 1201.819,-20.3894 1338.8267,-12.301"/>
<polygon fill="#191970" stroke="#191970" points="1339.1024,-15.7909 1348.879,-11.7082 1338.6903,-8.803 1339.1024,-15.7909"/>
</g>
<!-- Node6 -->
<g id="node7" class="node">
<title>Node6</title>
<polygon fill="none" stroke="#bfbfbf" points="693,-56.5 693,-75.5 737,-75.5 737,-56.5 693,-56.5"/>
<text text-anchor="middle" x="715" y="-63.5" font-family="Helvetica,sans-Serif" font-size="10.00" fill="#000000">string</text>
</g>
<!-- Node3&#45;&gt;Node6 -->
<g id="edge6" class="edge">
<title>Node3&#45;&gt;Node6</title>
<path fill="none" stroke="#191970" d="M365.2095,-224.2807C374.0795,-198.0128 399.5558,-126.5967 419,-112 460.1565,-81.104 614.589,-70.486 682.5532,-67.2581"/>
<polygon fill="#191970" stroke="#191970" points="682.8558,-70.7482 692.6881,-66.8016 682.5407,-63.7553 682.8558,-70.7482"/>
</g>
<!-- Node7 -->
<g id="node8" class="node">
<title>Node7</title>
<polygon fill="none" stroke="#bfbfbf" points="100,-168.5 100,-187.5 164,-187.5 164,-168.5 100,-168.5"/>
<text text-anchor="middle" x="132" y="-175.5" font-family="Helvetica,sans-Serif" font-size="10.00" fill="#000000">algorithm</text>
</g>
<!-- Node3&#45;&gt;Node7 -->
<g id="edge7" class="edge">
<title>Node3&#45;&gt;Node7</title>
<path fill="none" stroke="#191970" d="M322.7229,-224.4369C281.2688,-214.3437 216.1834,-198.4968 173.7999,-188.1774"/>
<polygon fill="#191970" stroke="#191970" points="174.6121,-184.7729 164.0679,-185.8078 172.9561,-191.5742 174.6121,-184.7729"/>
</g>
<!-- Node8 -->
<g id="node9" class="node">
<title>Node8</title>
<polygon fill="none" stroke="#bfbfbf" points="923.5,-112.5 923.5,-131.5 970.5,-131.5 970.5,-112.5 923.5,-112.5"/>
<text text-anchor="middle" x="947" y="-119.5" font-family="Helvetica,sans-Serif" font-size="10.00" fill="#000000">vector</text>
</g>
<!-- Node3&#45;&gt;Node8 -->
<g id="edge8" class="edge">
<title>Node3&#45;&gt;Node8</title>
<path fill="none" stroke="#191970" d="M438.0832,-227.8024C511.3479,-221.0073 625.0188,-208.2868 722,-188 791.3121,-173.5011 870.3149,-148.2331 913.8368,-133.5254"/>
<polygon fill="#191970" stroke="#191970" points="915.0011,-136.8263 923.34,-130.2907 912.7455,-130.1997 915.0011,-136.8263"/>
</g>
<!-- Node9 -->
<g id="node10" class="node">
<title>Node9</title>
<g id="a_node10"><a xlink:href="Sprite_8hxx.html" target="_top" xlink:title="../Sprite.hxx">
<polygon fill="none" stroke="#000000" points="220.5,-168.5 220.5,-187.5 295.5,-187.5 295.5,-168.5 220.5,-168.5"/>
<text text-anchor="middle" x="258" y="-175.5" font-family="Helvetica,sans-Serif" font-size="10.00" fill="#000000">../Sprite.hxx</text>
</a>
</g>
</g>
<!-- Node3&#45;&gt;Node9 -->
<g id="edge9" class="edge">
<title>Node3&#45;&gt;Node9</title>
<path fill="none" stroke="#191970" d="M343.8846,-224.2455C327.555,-215.4527 303.329,-202.4079 284.7661,-192.4125"/>
<polygon fill="#191970" stroke="#191970" points="286.3719,-189.3021 275.9078,-187.6427 283.0532,-195.4654 286.3719,-189.3021"/>
</g>
<!-- Node10 -->
<g id="node11" class="node">
<title>Node10</title>
<g id="a_node11"><a xlink:href="enums_8hxx.html" target="_top" xlink:title="common/enums.hxx">
<polygon fill="none" stroke="#000000" points="156,-112.5 156,-131.5 272,-131.5 272,-112.5 156,-112.5"/>
<text text-anchor="middle" x="214" y="-119.5" font-family="Helvetica,sans-Serif" font-size="10.00" fill="#000000">common/enums.hxx</text>
</a>
</g>
</g>
<!-- Node3&#45;&gt;Node10 -->
<g id="edge15" class="edge">
<title>Node3&#45;&gt;Node10</title>
<path fill="none" stroke="#191970" d="M307.7249,-224.4773C269.3759,-216.5154 222.7854,-203.9104 211,-188 201.207,-174.7794 203.3299,-155.6539 207.0901,-141.391"/>
<polygon fill="#191970" stroke="#191970" points="210.5041,-142.198 210.1145,-131.6103 203.8165,-140.13 210.5041,-142.198"/>
</g>
<!-- Node12 -->
<g id="node13" class="node">
<title>Node12</title>
<g id="a_node13"><a xlink:href="TileManager_8hxx.html" target="_top" xlink:title="../TileManager.hxx">
<polygon fill="none" stroke="#000000" points="428,-168.5 428,-187.5 534,-187.5 534,-168.5 428,-168.5"/>
<text text-anchor="middle" x="481" y="-175.5" font-family="Helvetica,sans-Serif" font-size="10.00" fill="#000000">../TileManager.hxx</text>
</a>
</g>
</g>
<!-- Node3&#45;&gt;Node12 -->
<g id="edge17" class="edge">
<title>Node3&#45;&gt;Node12</title>
<path fill="none" stroke="#191970" d="M382.4568,-224.3733C401.4738,-215.4241 430.0175,-201.9917 451.4976,-191.8835"/>
<polygon fill="#191970" stroke="#191970" points="453.2522,-194.926 460.8101,-187.5011 450.2716,-188.5923 453.2522,-194.926"/>
</g>
<!-- Node9&#45;&gt;Node2 -->
<g id="edge12" class="edge">
<title>Node9&#45;&gt;Node2</title>
<path fill="none" stroke="#191970" d="M220.3813,-168.7904C184.6772,-160.0397 129.2384,-146.427 71.9616,-132.2323"/>
<polygon fill="#191970" stroke="#191970" points="72.5544,-128.7734 62.006,-129.7638 70.8697,-135.5676 72.5544,-128.7734"/>
</g>
<!-- Node9&#45;&gt;Node4 -->
<g id="edge10" class="edge">
<title>Node9&#45;&gt;Node4</title>
<path fill="none" stroke="#191970" d="M267.4061,-168.2455C275.1493,-160.2155 286.312,-148.6394 295.5318,-139.0781"/>
<polygon fill="#191970" stroke="#191970" points="298.2798,-141.2706 302.7017,-131.6427 293.2409,-136.4117 298.2798,-141.2706"/>
</g>
<!-- Node9&#45;&gt;Node8 -->
<g id="edge11" class="edge">
<title>Node9&#45;&gt;Node8</title>
<path fill="none" stroke="#191970" d="M295.6222,-175.5254C411.5538,-167.8485 762.3424,-144.2207 876,-132 888.2529,-130.6825 901.6472,-128.8885 913.4675,-127.1836"/>
<polygon fill="#191970" stroke="#191970" points="913.9988,-130.6432 923.3816,-125.7225 912.9782,-123.718 913.9988,-130.6432"/>
</g>
<!-- Node9&#45;&gt;Node10 -->
<g id="edge13" class="edge">
<title>Node9&#45;&gt;Node10</title>
<path fill="none" stroke="#191970" d="M250.3358,-168.2455C244.1527,-160.3761 235.2937,-149.101 227.8711,-139.6542"/>
<polygon fill="#191970" stroke="#191970" points="230.5068,-137.3435 221.5764,-131.6427 225.0025,-141.6683 230.5068,-137.3435"/>
</g>
<!-- Node11 -->
<g id="node12" class="node">
<title>Node11</title>
<polygon fill="none" stroke="#bfbfbf" points="186,-56.5 186,-75.5 242,-75.5 242,-56.5 186,-56.5"/>
<text text-anchor="middle" x="214" y="-63.5" font-family="Helvetica,sans-Serif" font-size="10.00" fill="#000000">stddef.h</text>
</g>
<!-- Node10&#45;&gt;Node11 -->
<g id="edge14" class="edge">
<title>Node10&#45;&gt;Node11</title>
<path fill="none" stroke="#191970" d="M214,-112.2455C214,-104.9382 214,-94.6944 214,-85.7046"/>
<polygon fill="#191970" stroke="#191970" points="217.5001,-85.6426 214,-75.6427 210.5001,-85.6427 217.5001,-85.6426"/>
</g>
<!-- Node12&#45;&gt;Node1 -->
<g id="edge23" class="edge">
<title>Node12&#45;&gt;Node1</title>
<path fill="none" stroke="#191970" d="M427.74,-172.6674C363.6135,-165.8023 252.5145,-152.494 148.4263,-132.1004"/>
<polygon fill="#191970" stroke="#191970" points="148.8672,-128.6196 138.3769,-130.1046 147.5036,-135.4856 148.8672,-128.6196"/>
</g>
<!-- Node12&#45;&gt;Node4 -->
<g id="edge18" class="edge">
<title>Node12&#45;&gt;Node4</title>
<path fill="none" stroke="#191970" d="M451.9479,-168.3733C421.8019,-158.3841 374.7988,-142.8091 343.7062,-132.5062"/>
<polygon fill="#191970" stroke="#191970" points="344.8052,-129.1833 334.2119,-129.3601 342.6034,-135.828 344.8052,-129.1833"/>
</g>
<!-- Node12&#45;&gt;Node6 -->
<g id="edge20" class="edge">
<title>Node12&#45;&gt;Node6</title>
<path fill="none" stroke="#191970" d="M488.9572,-168.4266C501.385,-154.0826 526.8114,-127.0903 554,-112 595.2834,-89.0868 648.9904,-76.7318 682.7382,-70.761"/>
<polygon fill="#191970" stroke="#191970" points="683.6727,-74.153 692.9529,-69.0414 682.5106,-67.2501 683.6727,-74.153"/>
</g>
<!-- Node13 -->
<g id="node14" class="node">
<title>Node13</title>
<polygon fill="none" stroke="#bfbfbf" points="773.5,-112.5 773.5,-131.5 866.5,-131.5 866.5,-112.5 773.5,-112.5"/>
<text text-anchor="middle" x="820" y="-119.5" font-family="Helvetica,sans-Serif" font-size="10.00" fill="#000000">unordered_map</text>
</g>
<!-- Node12&#45;&gt;Node13 -->
<g id="edge19" class="edge">
<title>Node12&#45;&gt;Node13</title>
<path fill="none" stroke="#191970" d="M534.1786,-169.7001C589.1599,-161.0482 677.759,-146.9104 763.3256,-132.2669"/>
<polygon fill="#191970" stroke="#191970" points="763.9391,-135.7129 773.203,-130.5719 762.7551,-128.8137 763.9391,-135.7129"/>
</g>
<!-- Node14 -->
<g id="node15" class="node">
<title>Node14</title>
<g id="a_node15"><a xlink:href="tileData_8hxx.html" target="_top" xlink:title="tileData.hxx">
<polygon fill="none" stroke="#000000" points="428.5,-112.5 428.5,-131.5 505.5,-131.5 505.5,-112.5 428.5,-112.5"/>
<text text-anchor="middle" x="467" y="-119.5" font-family="Helvetica,sans-Serif" font-size="10.00" fill="#000000">tileData.hxx</text>
</a>
</g>
</g>
<!-- Node12&#45;&gt;Node14 -->
<g id="edge21" class="edge">
<title>Node12&#45;&gt;Node14</title>
<path fill="none" stroke="#191970" d="M478.5614,-168.2455C476.7145,-160.8579 474.1172,-150.4689 471.8522,-141.4087"/>
<polygon fill="#191970" stroke="#191970" points="475.2316,-140.4952 469.4107,-131.6427 468.4406,-142.193 475.2316,-140.4952"/>
</g>
<!-- Node15 -->
<g id="node16" class="node">
<title>Node15</title>
<g id="a_node16"><a xlink:href="Singleton_8hxx.html" target="_top" xlink:title="Singleton.hxx">
<polygon fill="none" stroke="#000000" points="562.5,-112.5 562.5,-131.5 645.5,-131.5 645.5,-112.5 562.5,-112.5"/>
<text text-anchor="middle" x="604" y="-119.5" font-family="Helvetica,sans-Serif" font-size="10.00" fill="#000000">Singleton.hxx</text>
</a>
</g>
</g>
<!-- Node12&#45;&gt;Node15 -->
<g id="edge24" class="edge">
<title>Node12&#45;&gt;Node15</title>
<path fill="none" stroke="#191970" d="M502.1445,-168.3733C521.8892,-159.3838 551.5698,-145.8706 573.8055,-135.7471"/>
<polygon fill="#191970" stroke="#191970" points="575.4806,-138.8302 583.1315,-131.5011 572.58,-132.4594 575.4806,-138.8302"/>
</g>
<!-- Node14&#45;&gt;Node6 -->
<g id="edge22" class="edge">
<title>Node14&#45;&gt;Node6</title>
<path fill="none" stroke="#191970" d="M505.75,-113.25C554.5349,-102.2341 637.4411,-83.5133 682.8727,-73.2545"/>
<polygon fill="#191970" stroke="#191970" points="683.7899,-76.6356 692.7734,-71.0189 682.248,-69.8076 683.7899,-76.6356"/>
</g>
<!-- Node16&#45;&gt;Node3 -->
<g id="edge26" class="edge">
<title>Node16&#45;&gt;Node3</title>
<path fill="none" stroke="#191970" d="M697.4368,-281.5556C628.5458,-271.7888 514.9317,-255.6815 439.2884,-244.9573"/>
<polygon fill="#191970" stroke="#191970" points="439.7291,-241.4849 429.3368,-243.5465 438.7465,-248.4156 439.7291,-241.4849"/>
</g>
<!-- Node16&#45;&gt;Node8 -->
<g id="edge28" class="edge">
<title>Node16&#45;&gt;Node8</title>
<path fill="none" stroke="#191970" d="M767.7596,-280.4862C798.8344,-253.0096 888.9973,-173.2866 928.3081,-138.5276"/>
<polygon fill="#191970" stroke="#191970" points="930.7121,-141.074 935.8851,-131.8279 926.0752,-135.8299 930.7121,-141.074"/>
</g>
<!-- Node17 -->
<g id="node18" class="node">
<title>Node17</title>
<polygon fill="none" stroke="#bfbfbf" points="1352,-56.5 1352,-75.5 1390,-75.5 1390,-56.5 1352,-56.5"/>
<text text-anchor="middle" x="1371" y="-63.5" font-family="Helvetica,sans-Serif" font-size="10.00" fill="#000000">map</text>
</g>
<!-- Node16&#45;&gt;Node17 -->
<g id="edge27" class="edge">
<title>Node16&#45;&gt;Node17</title>
<path fill="none" stroke="#191970" d="M801.159,-280.4508C862.192,-267.3272 975.812,-243.1643 1073,-224 1159.0374,-207.0344 1185.66,-220.7731 1267,-188 1277.4904,-183.7733 1345.2979,-141.1102 1352,-132 1361.9242,-118.5101 1366.6779,-99.9558 1368.9473,-85.9548"/>
<polygon fill="#191970" stroke="#191970" points="1372.4374,-86.2603 1370.2861,-75.8862 1365.4985,-85.3376 1372.4374,-86.2603"/>
</g>
<!-- Node18&#45;&gt;Node6 -->
<g id="edge30" class="edge">
<title>Node18&#45;&gt;Node6</title>
<path fill="none" stroke="#191970" d="M712.7791,-171.8214C768.5386,-162.5473 865.8214,-144.7571 876,-132 912.0195,-86.8559 804.4515,-72.3302 747.6679,-67.8686"/>
<polygon fill="#191970" stroke="#191970" points="747.5998,-64.3546 737.3738,-67.1258 747.096,-71.3365 747.5998,-64.3546"/>
</g>
<!-- Node18&#45;&gt;Node15 -->
<g id="edge31" class="edge">
<title>Node18&#45;&gt;Node15</title>
<path fill="none" stroke="#191970" d="M661.8069,-168.2455C651.3679,-159.8943 636.1345,-147.7076 623.926,-137.9408"/>
<polygon fill="#191970" stroke="#191970" points="626.0485,-135.1566 616.0533,-131.6427 621.6756,-140.6227 626.0485,-135.1566"/>
</g>
<!-- Node19 -->
<g id="node20" class="node">
<title>Node19</title>
<g id="a_node20"><a xlink:href="Meta_8hxx.html" target="_top" xlink:title="../../util/Meta.hxx">
<polygon fill="none" stroke="#000000" points="1018,-56.5 1018,-75.5 1116,-75.5 1116,-56.5 1018,-56.5"/>
<text text-anchor="middle" x="1067" y="-63.5" font-family="Helvetica,sans-Serif" font-size="10.00" fill="#000000">../../util/Meta.hxx</text>
</a>
</g>
</g>
<!-- Node18&#45;&gt;Node19 -->
<g id="edge32" class="edge">
<title>Node18&#45;&gt;Node19</title>
<path fill="none" stroke="#191970" d="M673.8682,-168.1613C674.2531,-153.4707 677.3285,-126.0318 694,-112 717.504,-92.2176 908.3038,-76.6458 1007.5249,-69.7961"/>
<polygon fill="#191970" stroke="#191970" points="1007.9648,-73.2743 1017.7034,-69.1018 1007.4884,-66.2905 1007.9648,-73.2743"/>
</g>
<!-- Node24 -->
<g id="node25" class="node">
<title>Node24</title>
<polygon fill="none" stroke="#bfbfbf" points="702.5,-112.5 702.5,-131.5 755.5,-131.5 755.5,-112.5 702.5,-112.5"/>
<text text-anchor="middle" x="729" y="-119.5" font-family="Helvetica,sans-Serif" font-size="10.00" fill="#000000">cstddef</text>
</g>
<!-- Node18&#45;&gt;Node24 -->
<g id="edge37" class="edge">
<title>Node18&#45;&gt;Node24</title>
<path fill="none" stroke="#191970" d="M683.5803,-168.2455C691.5458,-160.1352 703.0641,-148.4075 712.5079,-138.7919"/>
<polygon fill="#191970" stroke="#191970" points="715.0195,-141.2297 719.5295,-131.6427 710.0253,-136.3247 715.0195,-141.2297"/>
</g>
<!-- Node20 -->
<g id="node21" class="node">
<title>Node20</title>
<polygon fill="none" stroke="#bfbfbf" points="1138,-.5 1138,-19.5 1198,-19.5 1198,-.5 1138,-.5"/>
<text text-anchor="middle" x="1168" y="-7.5" font-family="Helvetica,sans-Serif" font-size="10.00" fill="#000000">iostream</text>
</g>
<!-- Node19&#45;&gt;Node20 -->
<g id="edge33" class="edge">
<title>Node19&#45;&gt;Node20</title>
<path fill="none" stroke="#191970" d="M1084.5929,-56.2455C1100.379,-47.4928 1123.7639,-34.527 1141.7587,-24.5496"/>
<polygon fill="#191970" stroke="#191970" points="1143.5603,-27.5528 1150.6087,-19.6427 1140.1659,-21.4308 1143.5603,-27.5528"/>
</g>
<!-- Node21 -->
<g id="node22" class="node">
<title>Node21</title>
<polygon fill="none" stroke="#bfbfbf" points="922.5,-.5 922.5,-19.5 991.5,-19.5 991.5,-.5 922.5,-.5"/>
<text text-anchor="middle" x="957" y="-7.5" font-family="Helvetica,sans-Serif" font-size="10.00" fill="#000000">type_traits</text>
</g>
<!-- Node19&#45;&gt;Node21 -->
<g id="edge34" class="edge">
<title>Node19&#45;&gt;Node21</title>
<path fill="none" stroke="#191970" d="M1047.8395,-56.2455C1030.4889,-47.4125 1004.7099,-34.2887 985.0417,-24.2758"/>
<polygon fill="#191970" stroke="#191970" points="986.4405,-21.0605 975.941,-19.6427 983.2647,-27.2986 986.4405,-21.0605"/>
</g>
<!-- Node22 -->
<g id="node23" class="node">
<title>Node22</title>
<polygon fill="none" stroke="#bfbfbf" points="1009.5,-.5 1009.5,-19.5 1060.5,-19.5 1060.5,-.5 1009.5,-.5"/>
<text text-anchor="middle" x="1035" y="-7.5" font-family="Helvetica,sans-Serif" font-size="10.00" fill="#000000">variant</text>
</g>
<!-- Node19&#45;&gt;Node22 -->
<g id="edge35" class="edge">
<title>Node19&#45;&gt;Node22</title>
<path fill="none" stroke="#191970" d="M1061.426,-56.2455C1057.0669,-48.617 1050.8789,-37.7881 1045.5867,-28.5267"/>
<polygon fill="#191970" stroke="#191970" points="1048.5104,-26.5886 1040.5101,-19.6427 1042.4327,-30.0616 1048.5104,-26.5886"/>
</g>
<!-- Node23 -->
<g id="node24" class="node">
<title>Node23</title>
<polygon fill="none" stroke="#bfbfbf" points="1078.5,-.5 1078.5,-19.5 1119.5,-19.5 1119.5,-.5 1078.5,-.5"/>
<text text-anchor="middle" x="1099" y="-7.5" font-family="Helvetica,sans-Serif" font-size="10.00" fill="#000000">tuple</text>
</g>
<!-- Node19&#45;&gt;Node23 -->
<g id="edge36" class="edge">
<title>Node19&#45;&gt;Node23</title>
<path fill="none" stroke="#191970" d="M1072.574,-56.2455C1076.9331,-48.617 1083.1211,-37.7881 1088.4133,-28.5267"/>
<polygon fill="#191970" stroke="#191970" points="1091.5673,-30.0616 1093.4899,-19.6427 1085.4896,-26.5886 1091.5673,-30.0616"/>
</g>
<!-- Node25&#45;&gt;Node5 -->
<g id="edge42" class="edge">
<title>Node25&#45;&gt;Node5</title>
<path fill="none" stroke="#191970" d="M1208.6481,-287.3353C1410.0889,-279.3174 1939,-251.2872 1939,-178 1939,-178 1939,-178 1939,-122 1939,-52.8078 1864.6215,-74.685 1798,-56 1761.7982,-45.8467 1514.1819,-22.4509 1417.0141,-13.537"/>
<polygon fill="#191970" stroke="#191970" points="1417.2866,-10.0474 1407.0092,-12.6216 1416.6487,-17.0183 1417.2866,-10.0474"/>
</g>
<!-- Node25&#45;&gt;Node8 -->
<g id="edge41" class="edge">
<title>Node25&#45;&gt;Node8</title>
<path fill="none" stroke="#191970" d="M1098.1148,-280.4854C1076.5358,-273.1544 1048.9853,-261.3088 1029,-244 998.8009,-217.8454 1003.5549,-200.9746 981,-168 974.5086,-158.5097 966.9343,-148.1946 960.5844,-139.7419"/>
<polygon fill="#191970" stroke="#191970" points="963.3356,-137.5774 954.5071,-131.7201 957.756,-141.8045 963.3356,-137.5774"/>
</g>
<!-- Node25&#45;&gt;Node13 -->
<g id="edge40" class="edge">
<title>Node25&#45;&gt;Node13</title>
<path fill="none" stroke="#191970" d="M1099.563,-280.4368C1073.5976,-272.2467 1036.5931,-259.3592 1006,-244 942.3197,-212.0295 873.8113,-162.768 840.5151,-137.7484"/>
<polygon fill="#191970" stroke="#191970" points="842.5466,-134.8965 832.461,-131.6514 838.3216,-140.4777 842.5466,-134.8965"/>
</g>
<!-- Node25&#45;&gt;Node19 -->
<g id="edge71" class="edge">
<title>Node25&#45;&gt;Node19</title>
<path fill="none" stroke="#191970" d="M1112.0111,-280.3709C1098.3666,-272.6156 1081.3126,-260.3184 1073,-244 1046.5204,-192.0178 1055.8127,-119.9734 1062.532,-85.6735"/>
<polygon fill="#191970" stroke="#191970" points="1066.0234,-86.0782 1064.6567,-75.5719 1059.1733,-84.6373 1066.0234,-86.0782"/>
</g>
<!-- Node26 -->
<g id="node27" class="node">
<title>Node26</title>
<polygon fill="none" stroke="#bfbfbf" points="1967,-224.5 1967,-243.5 2009,-243.5 2009,-224.5 1967,-224.5"/>
<text text-anchor="middle" x="1988" y="-231.5" font-family="Helvetica,sans-Serif" font-size="10.00" fill="#000000">array</text>
</g>
<!-- Node25&#45;&gt;Node26 -->
<g id="edge39" class="edge">
<title>Node25&#45;&gt;Node26</title>
<path fill="none" stroke="#191970" d="M1208.5024,-287.8865C1383.9704,-282.6866 1811.1752,-267.9271 1953,-244 1954.2619,-243.7871 1955.5431,-243.5453 1956.8328,-243.2806"/>
<polygon fill="#191970" stroke="#191970" points="1957.802,-246.6472 1966.7018,-240.8988 1956.1598,-239.8426 1957.802,-246.6472"/>
</g>
<!-- Node27 -->
<g id="node28" class="node">
<title>Node27</title>
<polygon fill="none" stroke="#bfbfbf" points="2027,-224.5 2027,-243.5 2059,-243.5 2059,-224.5 2027,-224.5"/>
<text text-anchor="middle" x="2043" y="-231.5" font-family="Helvetica,sans-Serif" font-size="10.00" fill="#000000">list</text>
</g>
<!-- Node25&#45;&gt;Node27 -->
<g id="edge43" class="edge">
<title>Node25&#45;&gt;Node27</title>
<path fill="none" stroke="#191970" d="M1208.5058,-289.24C1390.5707,-286.925 1846.4662,-278.0171 2016.9908,-243.4509"/>
<polygon fill="#191970" stroke="#191970" points="2017.7854,-246.8603 2026.8373,-241.3545 2016.3277,-240.0137 2017.7854,-246.8603"/>
</g>
<!-- Node28 -->
<g id="node29" class="node">
<title>Node28</title>
<g id="a_node29"><a xlink:href="Soundtrack_8hxx.html" target="_top" xlink:title="audio/Soundtrack.hxx">
<polygon fill="none" stroke="#000000" points="1103,-112.5 1103,-131.5 1225,-131.5 1225,-112.5 1103,-112.5"/>
<text text-anchor="middle" x="1164" y="-119.5" font-family="Helvetica,sans-Serif" font-size="10.00" fill="#000000">audio/Soundtrack.hxx</text>
</a>
</g>
</g>
<!-- Node25&#45;&gt;Node28 -->
<g id="edge44" class="edge">
<title>Node25&#45;&gt;Node28</title>
<path fill="none" stroke="#191970" d="M1133.8121,-280.4862C1138.8925,-253.8144 1153.3501,-177.9117 1160.2486,-141.695"/>
<polygon fill="#191970" stroke="#191970" points="1163.695,-142.3062 1162.128,-131.8279 1156.8186,-140.9963 1163.695,-142.3062"/>
</g>
<!-- Node30 -->
<g id="node31" class="node">
<title>Node30</title>
<g id="a_node31"><a xlink:href="GameService_8hxx.html" target="_top" xlink:title="../GameService.hxx">
<polygon fill="none" stroke="#000000" points="1251,-224.5 1251,-243.5 1363,-243.5 1363,-224.5 1251,-224.5"/>
<text text-anchor="middle" x="1307" y="-231.5" font-family="Helvetica,sans-Serif" font-size="10.00" fill="#000000">../GameService.hxx</text>
</a>
</g>
</g>
<!-- Node25&#45;&gt;Node30 -->
<g id="edge49" class="edge">
<title>Node25&#45;&gt;Node30</title>
<path fill="none" stroke="#191970" d="M1162.0836,-280.3733C1191.1834,-271.0613 1235.4523,-256.8953 1267.403,-246.671"/>
<polygon fill="#191970" stroke="#191970" points="1268.8515,-249.8824 1277.309,-243.5011 1266.718,-243.2155 1268.8515,-249.8824"/>
</g>
<!-- Node44 -->
<g id="node45" class="node">
<title>Node44</title>
<polygon fill="none" stroke="#bfbfbf" points="1082,-224.5 1082,-243.5 1130,-243.5 1130,-224.5 1082,-224.5"/>
<text text-anchor="middle" x="1106" y="-231.5" font-family="Helvetica,sans-Serif" font-size="10.00" fill="#000000">thread</text>
</g>
<!-- Node25&#45;&gt;Node44 -->
<g id="edge72" class="edge">
<title>Node25&#45;&gt;Node44</title>
<path fill="none" stroke="#191970" d="M1127.4711,-280.2455C1123.9666,-272.6973 1119.0073,-262.0158 1114.7377,-252.8197"/>
<polygon fill="#191970" stroke="#191970" points="1117.8627,-251.2389 1110.477,-243.6427 1111.5136,-254.1867 1117.8627,-251.2389"/>
</g>
<!-- Node28&#45;&gt;Node5 -->
<g id="edge45" class="edge">
<title>Node28&#45;&gt;Node5</title>
<path fill="none" stroke="#191970" d="M1182.2455,-112.4509C1219.9123,-92.7375 1306.4503,-47.4465 1350.7641,-24.2543"/>
<polygon fill="#191970" stroke="#191970" points="1352.5637,-27.2629 1359.8007,-19.5249 1349.3178,-21.0609 1352.5637,-27.2629"/>
</g>
<!-- Node28&#45;&gt;Node6 -->
<g id="edge47" class="edge">
<title>Node28&#45;&gt;Node6</title>
<path fill="none" stroke="#191970" d="M1102.9786,-114.3893C1006.5365,-102.3609 822.1834,-79.3681 747.5605,-70.061"/>
<polygon fill="#191970" stroke="#191970" points="747.7267,-66.5547 737.3703,-68.7901 746.8603,-73.5009 747.7267,-66.5547"/>
</g>
<!-- Node28&#45;&gt;Node19 -->
<g id="edge48" class="edge">
<title>Node28&#45;&gt;Node19</title>
<path fill="none" stroke="#191970" d="M1147.1039,-112.2455C1132.082,-103.5731 1109.8957,-90.7645 1092.679,-80.825"/>
<polygon fill="#191970" stroke="#191970" points="1094.1128,-77.6114 1083.7025,-75.6427 1090.6129,-83.6737 1094.1128,-77.6114"/>
</g>
<!-- Node29 -->
<g id="node30" class="node">
<title>Node29</title>
<polygon fill="none" stroke="#bfbfbf" points="1134.5,-56.5 1134.5,-75.5 1211.5,-75.5 1211.5,-56.5 1134.5,-56.5"/>
<text text-anchor="middle" x="1173" y="-63.5" font-family="Helvetica,sans-Serif" font-size="10.00" fill="#000000">SDL_mixer.h</text>
</g>
<!-- Node28&#45;&gt;Node29 -->
<g id="edge46" class="edge">
<title>Node28&#45;&gt;Node29</title>
<path fill="none" stroke="#191970" d="M1165.5677,-112.2455C1166.7421,-104.9382 1168.3884,-94.6944 1169.8332,-85.7046"/>
<polygon fill="#191970" stroke="#191970" points="1173.3191,-86.0714 1171.4503,-75.6427 1166.4078,-84.9606 1173.3191,-86.0714"/>
</g>
<!-- Node31 -->
<g id="node32" class="node">
<title>Node31</title>
<g id="a_node32"><a xlink:href="Events_8hxx.html" target="_top" xlink:title="Events.hxx">
<polygon fill="none" stroke="#000000" points="1186.5,-168.5 1186.5,-187.5 1257.5,-187.5 1257.5,-168.5 1186.5,-168.5"/>
<text text-anchor="middle" x="1222" y="-175.5" font-family="Helvetica,sans-Serif" font-size="10.00" fill="#000000">Events.hxx</text>
</a>
</g>
</g>
<!-- Node30&#45;&gt;Node31 -->
<g id="edge50" class="edge">
<title>Node30&#45;&gt;Node31</title>
<path fill="none" stroke="#191970" d="M1292.1941,-224.2455C1279.2744,-215.7337 1260.3069,-203.2375 1245.3448,-193.3801"/>
<polygon fill="#191970" stroke="#191970" points="1246.9124,-190.2216 1236.6362,-187.6427 1243.0613,-196.067 1246.9124,-190.2216"/>
</g>
<!-- Node38 -->
<g id="node39" class="node">
<title>Node38</title>
<g id="a_node39"><a xlink:href="MessageQueue_8hxx.html" target="_top" xlink:title="util/MessageQueue.hxx">
<polygon fill="none" stroke="#000000" points="1634.5,-168.5 1634.5,-187.5 1765.5,-187.5 1765.5,-168.5 1634.5,-168.5"/>
<text text-anchor="middle" x="1700" y="-175.5" font-family="Helvetica,sans-Serif" font-size="10.00" fill="#000000">util/MessageQueue.hxx</text>
</a>
</g>
</g>
<!-- Node30&#45;&gt;Node38 -->
<g id="edge63" class="edge">
<title>Node30&#45;&gt;Node38</title>
<path fill="none" stroke="#191970" d="M1363.3073,-225.9766C1431.8611,-216.2081 1547.9164,-199.671 1624.257,-188.7929"/>
<polygon fill="#191970" stroke="#191970" points="1624.8853,-192.2388 1634.2915,-187.363 1623.8978,-185.3088 1624.8853,-192.2388"/>
</g>
<!-- Node43 -->
<g id="node44" class="node">
<title>Node43</title>
<g id="a_node44"><a xlink:href="GameService_8inl_8hxx.html" target="_top" xlink:title="GameService.inl.hxx">
<polygon fill="none" stroke="#000000" points="1314,-168.5 1314,-187.5 1432,-187.5 1432,-168.5 1314,-168.5"/>
<text text-anchor="middle" x="1373" y="-175.5" font-family="Helvetica,sans-Serif" font-size="10.00" fill="#000000">GameService.inl.hxx</text>
</a>
</g>
</g>
<!-- Node30&#45;&gt;Node43 -->
<g id="edge70" class="edge">
<title>Node30&#45;&gt;Node43</title>
<path fill="none" stroke="#191970" d="M1318.4963,-224.2455C1328.2442,-215.9746 1342.4259,-203.9416 1353.8798,-194.2232"/>
<polygon fill="#191970" stroke="#191970" points="1356.2747,-196.7813 1361.6354,-187.6427 1351.7459,-191.4437 1356.2747,-196.7813"/>
</g>
<!-- Node31&#45;&gt;Node6 -->
<g id="edge51" class="edge">
<title>Node31&#45;&gt;Node6</title>
<path fill="none" stroke="#191970" d="M1190.5256,-168.3922C1144.5793,-154.6009 1056.3012,-128.9873 980,-112 896.5975,-93.4317 797.0321,-77.9059 747.0212,-70.56"/>
<polygon fill="#191970" stroke="#191970" points="747.5253,-67.0966 737.1252,-69.1185 746.5162,-74.0235 747.5253,-67.0966"/>
</g>
<!-- Node31&#45;&gt;Node19 -->
<g id="edge53" class="edge">
<title>Node31&#45;&gt;Node19</title>
<path fill="none" stroke="#191970" d="M1186.3553,-173.2526C1158.0788,-167.7689 1119.2415,-156.1711 1094,-132 1081.1745,-119.7183 1074.2449,-100.4796 1070.6307,-85.9356"/>
<polygon fill="#191970" stroke="#191970" points="1074.0006,-84.9588 1068.4705,-75.9218 1067.1581,-86.435 1074.0006,-84.9588"/>
</g>
<!-- Node31&#45;&gt;Node28 -->
<g id="edge62" class="edge">
<title>Node31&#45;&gt;Node28</title>
<path fill="none" stroke="#191970" d="M1211.8972,-168.2455C1203.4972,-160.1352 1191.3506,-148.4075 1181.3916,-138.7919"/>
<polygon fill="#191970" stroke="#191970" points="1183.6122,-136.0707 1173.9871,-131.6427 1178.75,-141.1066 1183.6122,-136.0707"/>
</g>
<!-- Node32 -->
<g id="node33" class="node">
<title>Node32</title>
<polygon fill="none" stroke="#bfbfbf" points="1243,-112.5 1243,-131.5 1343,-131.5 1343,-112.5 1243,-112.5"/>
<text text-anchor="middle" x="1293" y="-119.5" font-family="Helvetica,sans-Serif" font-size="10.00" fill="#000000">betterEnums.hxx</text>
</g>
<!-- Node31&#45;&gt;Node32 -->
<g id="edge52" class="edge">
<title>Node31&#45;&gt;Node32</title>
<path fill="none" stroke="#191970" d="M1234.3673,-168.2455C1244.9554,-159.8943 1260.4064,-147.7076 1272.7893,-137.9408"/>
<polygon fill="#191970" stroke="#191970" points="1275.0903,-140.5837 1280.7745,-131.6427 1270.7553,-135.0875 1275.0903,-140.5837"/>
</g>
<!-- Node33 -->
<g id="node34" class="node">
<title>Node33</title>
<g id="a_node34"><a xlink:href="TransitiveModel_8hxx.html" target="_top" xlink:title="util/TransitiveModel.hxx">
<polygon fill="none" stroke="#000000" points="1399.5,-112.5 1399.5,-131.5 1532.5,-131.5 1532.5,-112.5 1399.5,-112.5"/>
<text text-anchor="middle" x="1466" y="-119.5" font-family="Helvetica,sans-Serif" font-size="10.00" fill="#000000">util/TransitiveModel.hxx</text>
</a>
</g>
</g>
<!-- Node31&#45;&gt;Node33 -->
<g id="edge54" class="edge">
<title>Node31&#45;&gt;Node33</title>
<path fill="none" stroke="#191970" d="M1257.741,-169.7971C1299.0536,-160.3156 1367.3842,-144.6331 1414.4434,-133.8327"/>
<polygon fill="#191970" stroke="#191970" points="1415.4761,-137.1867 1424.4397,-131.5384 1413.9102,-130.3641 1415.4761,-137.1867"/>
</g>
<!-- Node33&#45;&gt;Node17 -->
<g id="edge60" class="edge">
<title>Node33&#45;&gt;Node17</title>
<path fill="none" stroke="#191970" d="M1449.4523,-112.2455C1434.7401,-103.5731 1413.0112,-90.7645 1396.1495,-80.825"/>
<polygon fill="#191970" stroke="#191970" points="1397.7502,-77.7057 1387.3581,-75.6427 1394.1954,-83.736 1397.7502,-77.7057"/>
</g>
<!-- Node33&#45;&gt;Node19 -->
<g id="edge55" class="edge">
<title>Node33&#45;&gt;Node19</title>
<path fill="none" stroke="#191970" d="M1399.4532,-113.6646C1333.0532,-105.196 1227.8557,-91.3704 1126.361,-76.0109"/>
<polygon fill="#191970" stroke="#191970" points="1126.6481,-72.5144 1116.2356,-74.4715 1125.5959,-79.4349 1126.6481,-72.5144"/>
</g>
<!-- Node34 -->
<g id="node35" class="node">
<title>Node34</title>
<g id="a_node35"><a xlink:href="Observer_8hxx.html" target="_top" xlink:title="Observer.hxx">
<polygon fill="none" stroke="#000000" points="1512.5,-56.5 1512.5,-75.5 1593.5,-75.5 1593.5,-56.5 1512.5,-56.5"/>
<text text-anchor="middle" x="1553" y="-63.5" font-family="Helvetica,sans-Serif" font-size="10.00" fill="#000000">Observer.hxx</text>
</a>
</g>
</g>
<!-- Node33&#45;&gt;Node34 -->
<g id="edge56" class="edge">
<title>Node33&#45;&gt;Node34</title>
<path fill="none" stroke="#191970" d="M1481.1542,-112.2455C1494.5027,-103.6534 1514.1586,-91.0014 1529.5383,-81.1018"/>
<polygon fill="#191970" stroke="#191970" points="1531.5051,-83.9982 1538.0194,-75.6427 1527.7164,-78.1121 1531.5051,-83.9982"/>
</g>
<!-- Node36 -->
<g id="node37" class="node">
<title>Node36</title>
<polygon fill="none" stroke="#bfbfbf" points="1408,-56.5 1408,-75.5 1494,-75.5 1494,-56.5 1408,-56.5"/>
<text text-anchor="middle" x="1451" y="-63.5" font-family="Helvetica,sans-Serif" font-size="10.00" fill="#000000">unordered_set</text>
</g>
<!-- Node33&#45;&gt;Node36 -->
<g id="edge59" class="edge">
<title>Node33&#45;&gt;Node36</title>
<path fill="none" stroke="#191970" d="M1463.3872,-112.2455C1461.4084,-104.8579 1458.6256,-94.4689 1456.1988,-85.4087"/>
<polygon fill="#191970" stroke="#191970" points="1459.5511,-84.3966 1453.5829,-75.6427 1452.7895,-86.2078 1459.5511,-84.3966"/>
</g>
<!-- Node37 -->
<g id="node38" class="node">
<title>Node37</title>
<polygon fill="none" stroke="#bfbfbf" points="1735,-56.5 1735,-75.5 1789,-75.5 1789,-56.5 1735,-56.5"/>
<text text-anchor="middle" x="1762" y="-63.5" font-family="Helvetica,sans-Serif" font-size="10.00" fill="#000000">ciso646</text>
</g>
<!-- Node33&#45;&gt;Node37 -->
<g id="edge61" class="edge">
<title>Node33&#45;&gt;Node37</title>
<path fill="none" stroke="#191970" d="M1516.5479,-112.4369C1575.6813,-101.2495 1672.1785,-82.9933 1724.8394,-73.0304"/>
<polygon fill="#191970" stroke="#191970" points="1725.588,-76.4509 1734.763,-71.1529 1724.2867,-69.5729 1725.588,-76.4509"/>
</g>
<!-- Node34&#45;&gt;Node5 -->
<g id="edge57" class="edge">
<title>Node34&#45;&gt;Node5</title>
<path fill="none" stroke="#191970" d="M1522.9164,-56.3733C1493.6402,-47.0049 1449.0106,-32.7234 1417.0174,-22.4856"/>
<polygon fill="#191970" stroke="#191970" points="1417.7005,-19.0294 1407.1095,-19.315 1415.567,-25.6964 1417.7005,-19.0294"/>
</g>
<!-- Node35 -->
<g id="node36" class="node">
<title>Node35</title>
<polygon fill="none" stroke="#bfbfbf" points="1516,-.5 1516,-19.5 1590,-19.5 1590,-.5 1516,-.5"/>
<text text-anchor="middle" x="1553" y="-7.5" font-family="Helvetica,sans-Serif" font-size="10.00" fill="#000000">forward_list</text>
</g>
<!-- Node34&#45;&gt;Node35 -->
<g id="edge58" class="edge">
<title>Node34&#45;&gt;Node35</title>
<path fill="none" stroke="#191970" d="M1553,-56.2455C1553,-48.9382 1553,-38.6944 1553,-29.7046"/>
<polygon fill="#191970" stroke="#191970" points="1556.5001,-29.6426 1553,-19.6427 1549.5001,-29.6427 1556.5001,-29.6426"/>
</g>
<!-- Node38&#45;&gt;Node8 -->
<g id="edge67" class="edge">
<title>Node38&#45;&gt;Node8</title>
<path fill="none" stroke="#191970" d="M1634.4934,-173.1283C1479.9135,-161.6323 1096.7291,-133.1352 980.7763,-124.5119"/>
<polygon fill="#191970" stroke="#191970" points="980.9452,-121.0149 970.7131,-123.7635 980.426,-127.9956 980.9452,-121.0149"/>
</g>
<!-- Node38&#45;&gt;Node37 -->
<g id="edge69" class="edge">
<title>Node38&#45;&gt;Node37</title>
<path fill="none" stroke="#191970" d="M1765.7479,-169.9212C1811.7992,-162.7546 1867.583,-150.5142 1882,-132 1907.4108,-99.3676 1842.8834,-80.6092 1798.9101,-71.9371"/>
<polygon fill="#191970" stroke="#191970" points="1799.5341,-68.4931 1789.0606,-70.0923 1798.2454,-75.3735 1799.5341,-68.4931"/>
</g>
<!-- Node39 -->
<g id="node40" class="node">
<title>Node39</title>
<polygon fill="none" stroke="#bfbfbf" points="1550.5,-112.5 1550.5,-131.5 1657.5,-131.5 1657.5,-112.5 1550.5,-112.5"/>
<text text-anchor="middle" x="1604" y="-119.5" font-family="Helvetica,sans-Serif" font-size="10.00" fill="#000000">condition_variable</text>
</g>
<!-- Node38&#45;&gt;Node39 -->
<g id="edge64" class="edge">
<title>Node38&#45;&gt;Node39</title>
<path fill="none" stroke="#191970" d="M1683.2781,-168.2455C1668.4111,-159.5731 1646.4534,-146.7645 1629.4142,-136.825"/>
<polygon fill="#191970" stroke="#191970" points="1630.9317,-133.6582 1620.5303,-131.6427 1627.4045,-139.7047 1630.9317,-133.6582"/>
</g>
<!-- Node40 -->
<g id="node41" class="node">
<title>Node40</title>
<polygon fill="none" stroke="#bfbfbf" points="1676,-112.5 1676,-131.5 1724,-131.5 1724,-112.5 1676,-112.5"/>
<text text-anchor="middle" x="1700" y="-119.5" font-family="Helvetica,sans-Serif" font-size="10.00" fill="#000000">mutex</text>
</g>
<!-- Node38&#45;&gt;Node40 -->
<g id="edge65" class="edge">
<title>Node38&#45;&gt;Node40</title>
<path fill="none" stroke="#191970" d="M1700,-168.2455C1700,-160.9382 1700,-150.6944 1700,-141.7046"/>
<polygon fill="#191970" stroke="#191970" points="1703.5001,-141.6426 1700,-131.6427 1696.5001,-141.6427 1703.5001,-141.6426"/>
</g>
<!-- Node41 -->
<g id="node42" class="node">
<title>Node41</title>
<polygon fill="none" stroke="#bfbfbf" points="1742.5,-112.5 1742.5,-131.5 1789.5,-131.5 1789.5,-112.5 1742.5,-112.5"/>
<text text-anchor="middle" x="1766" y="-119.5" font-family="Helvetica,sans-Serif" font-size="10.00" fill="#000000">deque</text>
</g>
<!-- Node38&#45;&gt;Node41 -->
<g id="edge66" class="edge">
<title>Node38&#45;&gt;Node41</title>
<path fill="none" stroke="#191970" d="M1711.4963,-168.2455C1721.2442,-159.9746 1735.4259,-147.9416 1746.8798,-138.2232"/>
<polygon fill="#191970" stroke="#191970" points="1749.2747,-140.7813 1754.6354,-131.6427 1744.7459,-135.4437 1749.2747,-140.7813"/>
</g>
<!-- Node42 -->
<g id="node43" class="node">
<title>Node42</title>
<polygon fill="none" stroke="#bfbfbf" points="1807.5,-112.5 1807.5,-131.5 1872.5,-131.5 1872.5,-112.5 1807.5,-112.5"/>
<text text-anchor="middle" x="1840" y="-119.5" font-family="Helvetica,sans-Serif" font-size="10.00" fill="#000000">functional</text>
</g>
<!-- Node38&#45;&gt;Node42 -->
<g id="edge68" class="edge">
<title>Node38&#45;&gt;Node42</title>
<path fill="none" stroke="#191970" d="M1724.0669,-168.3733C1746.8428,-159.2629 1781.2344,-145.5062 1806.649,-135.3404"/>
<polygon fill="#191970" stroke="#191970" points="1808.2623,-138.4648 1816.2472,-131.5011 1805.6625,-131.9654 1808.2623,-138.4648"/>
</g>
</g>
</svg>
