<?xml version="1.0" encoding="UTF-8" standalone="no"?>
<!DOCTYPE svg PUBLIC "-//W3C//DTD SVG 1.1//EN"
 "http://www.w3.org/Graphics/SVG/1.1/DTD/svg11.dtd">
<!-- Generated by graphviz version 2.40.1 (20161225.0304)
 -->
<!-- Title: src/engine/ui/basics/Layout.cxx Pages: 1 -->
<svg width="1753pt" height="543pt"
 viewBox="0.00 0.00 1752.62 543.00" xmlns="http://www.w3.org/2000/svg" xmlns:xlink="http://www.w3.org/1999/xlink">
<g id="graph0" class="graph" transform="scale(1 1) rotate(0) translate(4 539)">
<title>src/engine/ui/basics/Layout.cxx</title>
<!-- Node0 -->
<g id="node1" class="node">
<title>Node0</title>
<polygon fill="#bfbfbf" stroke="#000000" points="338,-504.5 338,-534.5 451,-534.5 451,-504.5 338,-504.5"/>
<text text-anchor="start" x="346" y="-522.5" font-family="Helvetica,sans-Serif" font-size="10.00" fill="#000000">src/engine/ui/basics</text>
<text text-anchor="middle" x="394.5" y="-511.5" font-family="Helvetica,sans-Serif" font-size="10.00" fill="#000000">/Layout.cxx</text>
</g>
<!-- Node1 -->
<g id="node2" class="node">
<title>Node1</title>
<g id="a_node2"><a xlink:href="Layout_8hxx.html" target="_top" xlink:title="Layout.hxx">
<polygon fill="none" stroke="#000000" points="770,-280.5 770,-299.5 841,-299.5 841,-280.5 770,-280.5"/>
<text text-anchor="middle" x="805.5" y="-287.5" font-family="Helvetica,sans-Serif" font-size="10.00" fill="#000000">Layout.hxx</text>
</a>
</g>
</g>
<!-- Node0&#45;&gt;Node1 -->
<g id="edge1" class="edge">
<title>Node0&#45;&gt;Node1</title>
<path fill="none" stroke="#191970" d="M421.4669,-504.4419C496.1559,-462.7359 705.065,-346.0823 779.0865,-304.7491"/>
<polygon fill="#191970" stroke="#191970" points="781.192,-307.5822 788.2167,-299.6509 777.7792,-301.4705 781.192,-307.5822"/>
</g>
<!-- Node20 -->
<g id="node21" class="node">
<title>Node20</title>
<g id="a_node21"><a xlink:href="LOG_8hxx.html" target="_top" xlink:title="../../basics/LOG.hxx">
<polygon fill="none" stroke="#000000" points="487.5,-224.5 487.5,-243.5 597.5,-243.5 597.5,-224.5 487.5,-224.5"/>
<text text-anchor="middle" x="542.5" y="-231.5" font-family="Helvetica,sans-Serif" font-size="10.00" fill="#000000">../../basics/LOG.hxx</text>
</a>
</g>
</g>
<!-- Node0&#45;&gt;Node20 -->
<g id="edge33" class="edge">
<title>Node0&#45;&gt;Node20</title>
<path fill="none" stroke="#191970" d="M386.2546,-504.42C375.0785,-482.5326 356.5,-440.3768 356.5,-402 356.5,-402 356.5,-402 356.5,-346 356.5,-287.8927 423.945,-259.1542 477.6084,-245.4847"/>
<polygon fill="#191970" stroke="#191970" points="478.5523,-248.8574 487.4488,-243.1039 476.9062,-242.0537 478.5523,-248.8574"/>
</g>
<!-- Node25 -->
<g id="node26" class="node">
<title>Node25</title>
<g id="a_node26"><a xlink:href="Settings_8hxx.html" target="_top" xlink:title="../../basics/Settings.hxx">
<polygon fill="none" stroke="#000000" points="161,-224.5 161,-243.5 290,-243.5 290,-224.5 161,-224.5"/>
<text text-anchor="middle" x="225.5" y="-231.5" font-family="Helvetica,sans-Serif" font-size="10.00" fill="#000000">../../basics/Settings.hxx</text>
</a>
</g>
</g>
<!-- Node0&#45;&gt;Node25 -->
<g id="edge40" class="edge">
<title>Node0&#45;&gt;Node25</title>
<path fill="none" stroke="#191970" d="M351.4292,-504.4873C309.9637,-486.9621 253.5,-453.6209 253.5,-402 253.5,-402 253.5,-402 253.5,-346 253.5,-312.5848 241.6246,-275.1911 233.3415,-253.1729"/>
<polygon fill="#191970" stroke="#191970" points="236.5326,-251.7229 229.6315,-243.6839 230.0132,-254.2719 236.5326,-251.7229"/>
</g>
<!-- Node31 -->
<g id="node32" class="node">
<title>Node31</title>
<g id="a_node32"><a xlink:href="UIManager_8hxx.html" target="_top" xlink:title="../../UIManager.hxx">
<polygon fill="none" stroke="#000000" points="1043,-448.5 1043,-467.5 1150,-467.5 1150,-448.5 1043,-448.5"/>
<text text-anchor="middle" x="1096.5" y="-455.5" font-family="Helvetica,sans-Serif" font-size="10.00" fill="#000000">../../UIManager.hxx</text>
</a>
</g>
</g>
<!-- Node0&#45;&gt;Node31 -->
<g id="edge49" class="edge">
<title>Node0&#45;&gt;Node31</title>
<path fill="none" stroke="#191970" d="M451.0566,-514.5453C580.3236,-503.2206 896.7021,-475.5037 1032.6786,-463.5912"/>
<polygon fill="#191970" stroke="#191970" points="1033.2759,-467.0524 1042.9322,-462.6929 1032.6649,-460.0791 1033.2759,-467.0524"/>
</g>
<!-- Node2 -->
<g id="node3" class="node">
<title>Node2</title>
<g id="a_node3"><a xlink:href="UIElement_8hxx.html" target="_top" xlink:title="UIElement.hxx">
<polygon fill="none" stroke="#000000" points="1147,-224.5 1147,-243.5 1236,-243.5 1236,-224.5 1147,-224.5"/>
<text text-anchor="middle" x="1191.5" y="-231.5" font-family="Helvetica,sans-Serif" font-size="10.00" fill="#000000">UIElement.hxx</text>
</a>
</g>
</g>
<!-- Node1&#45;&gt;Node2 -->
<g id="edge2" class="edge">
<title>Node1&#45;&gt;Node2</title>
<path fill="none" stroke="#191970" d="M841.2252,-282.5474C846.015,-281.6385 850.8706,-280.7629 855.5,-280 977.9945,-259.8147 1009.7211,-262.3764 1132.5,-244 1133.8004,-243.8054 1135.1164,-243.6055 1136.4433,-243.4015"/>
<polygon fill="#191970" stroke="#191970" points="1137.4207,-246.7905 1146.7512,-241.7713 1136.3272,-239.8765 1137.4207,-246.7905"/>
</g>
<!-- Node3 -->
<g id="node4" class="node">
<title>Node3</title>
<polygon fill="none" stroke="#bfbfbf" points="673.5,-.5 673.5,-19.5 717.5,-19.5 717.5,-.5 673.5,-.5"/>
<text text-anchor="middle" x="695.5" y="-7.5" font-family="Helvetica,sans-Serif" font-size="10.00" fill="#000000">string</text>
</g>
<!-- Node1&#45;&gt;Node3 -->
<g id="edge31" class="edge">
<title>Node1&#45;&gt;Node3</title>
<path fill="none" stroke="#191970" d="M769.9441,-286.6172C696.8593,-279.4002 532.1232,-261.703 478.5,-244 380.5867,-211.6753 342.547,-176.2678 318.5,-76 316.427,-67.3562 312.6075,-62.6552 318.5,-56 341.2369,-30.3202 576.0637,-15.9964 663.1956,-11.533"/>
<polygon fill="#191970" stroke="#191970" points="663.4893,-15.0228 673.3013,-11.0259 663.1384,-8.0316 663.4893,-15.0228"/>
</g>
<!-- Node14 -->
<g id="node15" class="node">
<title>Node14</title>
<polygon fill="none" stroke="#bfbfbf" points="1109,-112.5 1109,-131.5 1156,-131.5 1156,-112.5 1109,-112.5"/>
<text text-anchor="middle" x="1132.5" y="-119.5" font-family="Helvetica,sans-Serif" font-size="10.00" fill="#000000">vector</text>
</g>
<!-- Node1&#45;&gt;Node14 -->
<g id="edge32" class="edge">
<title>Node1&#45;&gt;Node14</title>
<path fill="none" stroke="#191970" d="M840.976,-280.4175C892.2648,-265.586 988.925,-233.9102 1061.5,-188 1082.9007,-174.4621 1103.6726,-154.0374 1117.1615,-139.4985"/>
<polygon fill="#191970" stroke="#191970" points="1120.0925,-141.4762 1124.2117,-131.7149 1114.9043,-136.7769 1120.0925,-141.4762"/>
</g>
<!-- Node2&#45;&gt;Node3 -->
<g id="edge3" class="edge">
<title>Node2&#45;&gt;Node3</title>
<path fill="none" stroke="#191970" d="M1236.2023,-227.5984C1297.5545,-218.3869 1401.6509,-201.0656 1413.5,-188 1436.2618,-162.9012 1441.7249,-137.5755 1419.5,-112 1373.2418,-58.7679 861.7011,-21.091 727.5539,-12.0774"/>
<polygon fill="#191970" stroke="#191970" points="727.7127,-8.5803 717.5024,-11.4084 727.2478,-15.5649 727.7127,-8.5803"/>
</g>
<!-- Node4 -->
<g id="node5" class="node">
<title>Node4</title>
<g id="a_node5"><a xlink:href="mapEdit_8hxx.html" target="_top" xlink:title="../../basics/mapEdit.hxx">
<polygon fill="none" stroke="#000000" points="441.5,-56.5 441.5,-75.5 571.5,-75.5 571.5,-56.5 441.5,-56.5"/>
<text text-anchor="middle" x="506.5" y="-63.5" font-family="Helvetica,sans-Serif" font-size="10.00" fill="#000000">../../basics/mapEdit.hxx</text>
</a>
</g>
</g>
<!-- Node2&#45;&gt;Node4 -->
<g id="edge4" class="edge">
<title>Node2&#45;&gt;Node4</title>
<path fill="none" stroke="#191970" d="M1146.7741,-233.0388C1016.6445,-229.8956 644.5609,-218.3242 599.5,-188 568.1692,-166.9156 584.9206,-141.6252 561.5,-112 552.3628,-100.4421 539.9178,-89.7387 529.1769,-81.5702"/>
<polygon fill="#191970" stroke="#191970" points="531.1586,-78.6833 521.0239,-75.5948 527.0206,-84.3293 531.1586,-78.6833"/>
</g>
<!-- Node5 -->
<g id="node6" class="node">
<title>Node5</title>
<g id="a_node6"><a xlink:href="ResourcesManager_8hxx.html" target="_top" xlink:title="../../ResourcesManager.hxx">
<polygon fill="none" stroke="#000000" points="608.5,-168.5 608.5,-187.5 754.5,-187.5 754.5,-168.5 608.5,-168.5"/>
<text text-anchor="middle" x="681.5" y="-175.5" font-family="Helvetica,sans-Serif" font-size="10.00" fill="#000000">../../ResourcesManager.hxx</text>
</a>
</g>
</g>
<!-- Node2&#45;&gt;Node5 -->
<g id="edge6" class="edge">
<title>Node2&#45;&gt;Node5</title>
<path fill="none" stroke="#191970" d="M1146.6879,-229.0795C1061.2442,-219.6974 873.8453,-199.1203 764.7675,-187.1431"/>
<polygon fill="#191970" stroke="#191970" points="765.1086,-183.6596 754.7863,-186.0471 764.3445,-190.6178 765.1086,-183.6596"/>
</g>
<!-- Node8 -->
<g id="node9" class="node">
<title>Node8</title>
<polygon fill="none" stroke="#bfbfbf" points="911.5,-56.5 911.5,-75.5 955.5,-75.5 955.5,-56.5 911.5,-56.5"/>
<text text-anchor="middle" x="933.5" y="-63.5" font-family="Helvetica,sans-Serif" font-size="10.00" fill="#000000">SDL.h</text>
</g>
<!-- Node2&#45;&gt;Node8 -->
<g id="edge30" class="edge">
<title>Node2&#45;&gt;Node8</title>
<path fill="none" stroke="#191970" d="M1176.8896,-224.4862C1134.1514,-196.6567 1009.1034,-115.2301 956.8594,-81.2108"/>
<polygon fill="#191970" stroke="#191970" points="958.5598,-78.1414 948.27,-75.6177 954.7401,-84.0074 958.5598,-78.1414"/>
</g>
<!-- Node13 -->
<g id="node14" class="node">
<title>Node13</title>
<g id="a_node14"><a xlink:href="WindowManager_8hxx.html" target="_top" xlink:title="../../WindowManager.hxx">
<polygon fill="none" stroke="#000000" points="916.5,-168.5 916.5,-187.5 1052.5,-187.5 1052.5,-168.5 916.5,-168.5"/>
<text text-anchor="middle" x="984.5" y="-175.5" font-family="Helvetica,sans-Serif" font-size="10.00" fill="#000000">../../WindowManager.hxx</text>
</a>
</g>
</g>
<!-- Node2&#45;&gt;Node13 -->
<g id="edge18" class="edge">
<title>Node2&#45;&gt;Node13</title>
<path fill="none" stroke="#191970" d="M1155.9154,-224.3733C1120.8984,-214.9001 1067.3119,-200.4032 1029.3875,-190.1435"/>
<polygon fill="#191970" stroke="#191970" points="1030.1873,-186.7341 1019.6202,-187.5011 1028.3592,-193.4912 1030.1873,-186.7341"/>
</g>
<!-- Node15 -->
<g id="node16" class="node">
<title>Node15</title>
<g id="a_node16"><a xlink:href="signal_8hxx.html" target="_top" xlink:title="../../basics/signal.hxx">
<polygon fill="none" stroke="#000000" points="1285,-168.5 1285,-187.5 1404,-187.5 1404,-168.5 1285,-168.5"/>
<text text-anchor="middle" x="1344.5" y="-175.5" font-family="Helvetica,sans-Serif" font-size="10.00" fill="#000000">../../basics/signal.hxx</text>
</a>
</g>
</g>
<!-- Node2&#45;&gt;Node15 -->
<g id="edge24" class="edge">
<title>Node2&#45;&gt;Node15</title>
<path fill="none" stroke="#191970" d="M1217.8016,-224.3733C1242.9128,-215.1822 1280.9438,-201.2624 1308.7872,-191.0713"/>
<polygon fill="#191970" stroke="#191970" points="1310.3538,-194.2251 1318.5416,-187.5011 1307.9478,-187.6516 1310.3538,-194.2251"/>
</g>
<!-- Node4&#45;&gt;Node3 -->
<g id="edge5" class="edge">
<title>Node4&#45;&gt;Node3</title>
<path fill="none" stroke="#191970" d="M538.9903,-56.3733C573.9562,-46.013 629.2011,-29.6441 663.8415,-19.3803"/>
<polygon fill="#191970" stroke="#191970" points="664.8645,-22.7277 673.4581,-16.5309 662.8758,-16.0161 664.8645,-22.7277"/>
</g>
<!-- Node6 -->
<g id="node7" class="node">
<title>Node6</title>
<polygon fill="none" stroke="#bfbfbf" points="492.5,-112.5 492.5,-131.5 552.5,-131.5 552.5,-112.5 492.5,-112.5"/>
<text text-anchor="middle" x="522.5" y="-119.5" font-family="Helvetica,sans-Serif" font-size="10.00" fill="#000000">iostream</text>
</g>
<!-- Node5&#45;&gt;Node6 -->
<g id="edge7" class="edge">
<title>Node5&#45;&gt;Node6</title>
<path fill="none" stroke="#191970" d="M654.1669,-168.3733C627.9566,-159.1419 588.2016,-145.1402 559.2332,-134.9375"/>
<polygon fill="#191970" stroke="#191970" points="560.0712,-131.5219 549.4764,-131.5011 557.7458,-138.1244 560.0712,-131.5219"/>
</g>
<!-- Node7 -->
<g id="node8" class="node">
<title>Node7</title>
<polygon fill="none" stroke="#bfbfbf" points="800,-56.5 800,-75.5 893,-75.5 893,-56.5 800,-56.5"/>
<text text-anchor="middle" x="846.5" y="-63.5" font-family="Helvetica,sans-Serif" font-size="10.00" fill="#000000">unordered_map</text>
</g>
<!-- Node5&#45;&gt;Node7 -->
<g id="edge8" class="edge">
<title>Node5&#45;&gt;Node7</title>
<path fill="none" stroke="#191970" d="M696.5657,-168.4688C711.0113,-159.2759 733.3845,-144.8966 752.5,-132 777.6154,-115.0555 806.03,-94.9759 824.9806,-81.4512"/>
<polygon fill="#191970" stroke="#191970" points="827.1239,-84.2215 833.2216,-75.5572 823.0517,-78.5278 827.1239,-84.2215"/>
</g>
<!-- Node5&#45;&gt;Node8 -->
<g id="edge9" class="edge">
<title>Node5&#45;&gt;Node8</title>
<path fill="none" stroke="#191970" d="M702.9854,-168.4509C747.7126,-148.5722 850.9584,-102.6852 902.73,-79.6756"/>
<polygon fill="#191970" stroke="#191970" points="904.3524,-82.7847 912.069,-75.5249 901.5094,-76.388 904.3524,-82.7847"/>
</g>
<!-- Node9 -->
<g id="node10" class="node">
<title>Node9</title>
<g id="a_node10"><a xlink:href="TileManager_8hxx.html" target="_top" xlink:title="TileManager.hxx">
<polygon fill="none" stroke="#000000" points="647,-112.5 647,-131.5 744,-131.5 744,-112.5 647,-112.5"/>
<text text-anchor="middle" x="695.5" y="-119.5" font-family="Helvetica,sans-Serif" font-size="10.00" fill="#000000">TileManager.hxx</text>
</a>
</g>
</g>
<!-- Node5&#45;&gt;Node9 -->
<g id="edge10" class="edge">
<title>Node5&#45;&gt;Node9</title>
<path fill="none" stroke="#191970" d="M683.9386,-168.2455C685.7855,-160.8579 688.3828,-150.4689 690.6478,-141.4087"/>
<polygon fill="#191970" stroke="#191970" points="694.0594,-142.193 693.0893,-131.6427 687.2684,-140.4952 694.0594,-142.193"/>
</g>
<!-- Node9&#45;&gt;Node3 -->
<g id="edge13" class="edge">
<title>Node9&#45;&gt;Node3</title>
<path fill="none" stroke="#191970" d="M695.5,-112.4509C695.5,-94.184 695.5,-53.9553 695.5,-29.6976"/>
<polygon fill="#191970" stroke="#191970" points="699.0001,-29.5249 695.5,-19.5249 692.0001,-29.5249 699.0001,-29.5249"/>
</g>
<!-- Node9&#45;&gt;Node7 -->
<g id="edge12" class="edge">
<title>Node9&#45;&gt;Node7</title>
<path fill="none" stroke="#191970" d="M721.4578,-112.3733C746.2407,-103.1822 783.7746,-89.2624 811.254,-79.0713"/>
<polygon fill="#191970" stroke="#191970" points="812.7219,-82.26 820.8809,-75.5011 810.2879,-75.6968 812.7219,-82.26"/>
</g>
<!-- Node9&#45;&gt;Node8 -->
<g id="edge11" class="edge">
<title>Node9&#45;&gt;Node8</title>
<path fill="none" stroke="#191970" d="M744.3306,-112.49C784.2543,-104.4127 842.3335,-91.9766 901.3596,-76.1375"/>
<polygon fill="#191970" stroke="#191970" points="902.4892,-79.4576 911.2234,-73.4607 900.6558,-72.7019 902.4892,-79.4576"/>
</g>
<!-- Node10 -->
<g id="node11" class="node">
<title>Node10</title>
<g id="a_node11"><a xlink:href="tileData_8hxx.html" target="_top" xlink:title="tileData.hxx">
<polygon fill="none" stroke="#000000" points="590,-56.5 590,-75.5 667,-75.5 667,-56.5 590,-56.5"/>
<text text-anchor="middle" x="628.5" y="-63.5" font-family="Helvetica,sans-Serif" font-size="10.00" fill="#000000">tileData.hxx</text>
</a>
</g>
</g>
<!-- Node9&#45;&gt;Node10 -->
<g id="edge14" class="edge">
<title>Node9&#45;&gt;Node10</title>
<path fill="none" stroke="#191970" d="M683.8295,-112.2455C673.9339,-103.9746 659.5373,-91.9416 647.9099,-82.2232"/>
<polygon fill="#191970" stroke="#191970" points="649.9542,-79.3703 640.0368,-75.6427 645.465,-84.7413 649.9542,-79.3703"/>
</g>
<!-- Node11 -->
<g id="node12" class="node">
<title>Node11</title>
<polygon fill="none" stroke="#bfbfbf" points="723.5,-56.5 723.5,-75.5 781.5,-75.5 781.5,-56.5 723.5,-56.5"/>
<text text-anchor="middle" x="752.5" y="-63.5" font-family="Helvetica,sans-Serif" font-size="10.00" fill="#000000">json.hxx</text>
</g>
<!-- Node9&#45;&gt;Node11 -->
<g id="edge16" class="edge">
<title>Node9&#45;&gt;Node11</title>
<path fill="none" stroke="#191970" d="M705.4286,-112.2455C713.6838,-104.1352 725.6209,-92.4075 735.4082,-82.7919"/>
<polygon fill="#191970" stroke="#191970" points="738.0046,-85.1476 742.6851,-75.6427 733.0989,-80.1542 738.0046,-85.1476"/>
</g>
<!-- Node12 -->
<g id="node13" class="node">
<title>Node12</title>
<g id="a_node13"><a xlink:href="Singleton_8hxx.html" target="_top" xlink:title="Singleton.hxx">
<polygon fill="none" stroke="#000000" points="328,-56.5 328,-75.5 411,-75.5 411,-56.5 328,-56.5"/>
<text text-anchor="middle" x="369.5" y="-63.5" font-family="Helvetica,sans-Serif" font-size="10.00" fill="#000000">Singleton.hxx</text>
</a>
</g>
</g>
<!-- Node9&#45;&gt;Node12 -->
<g id="edge17" class="edge">
<title>Node9&#45;&gt;Node12</title>
<path fill="none" stroke="#191970" d="M646.6945,-113.6162C586.1222,-103.2112 483.2695,-85.5432 421.3287,-74.9031"/>
<polygon fill="#191970" stroke="#191970" points="421.8269,-71.4375 411.3787,-73.1939 420.6417,-78.3364 421.8269,-71.4375"/>
</g>
<!-- Node10&#45;&gt;Node3 -->
<g id="edge15" class="edge">
<title>Node10&#45;&gt;Node3</title>
<path fill="none" stroke="#191970" d="M640.1705,-56.2455C650.0661,-47.9746 664.4627,-35.9416 676.0901,-26.2232"/>
<polygon fill="#191970" stroke="#191970" points="678.535,-28.7413 683.9632,-19.6427 674.0458,-23.3703 678.535,-28.7413"/>
</g>
<!-- Node13&#45;&gt;Node3 -->
<g id="edge19" class="edge">
<title>Node13&#45;&gt;Node3</title>
<path fill="none" stroke="#191970" d="M986.2312,-168.4529C989.7889,-145.5142 995.2029,-86.9147 964.5,-56 931.9133,-23.1884 792.6135,-13.6697 728.2915,-10.9992"/>
<polygon fill="#191970" stroke="#191970" points="728.043,-7.4871 717.9161,-10.6013 727.7746,-14.482 728.043,-7.4871"/>
</g>
<!-- Node13&#45;&gt;Node6 -->
<g id="edge20" class="edge">
<title>Node13&#45;&gt;Node6</title>
<path fill="none" stroke="#191970" d="M916.1954,-169.75C840.1272,-160.558 713.5132,-145.2453 604.5,-132 591.0195,-130.3621 576.293,-128.5678 563.0865,-126.9568"/>
<polygon fill="#191970" stroke="#191970" points="563.2242,-123.4477 552.8739,-125.7106 562.3763,-130.3962 563.2242,-123.4477"/>
</g>
<!-- Node13&#45;&gt;Node8 -->
<g id="edge22" class="edge">
<title>Node13&#45;&gt;Node8</title>
<path fill="none" stroke="#191970" d="M980.1518,-168.4509C971.7209,-149.936 953.0162,-108.8591 942.0237,-84.7187"/>
<polygon fill="#191970" stroke="#191970" points="945.1667,-83.1753 937.8372,-75.5249 938.7961,-86.0762 945.1667,-83.1753"/>
</g>
<!-- Node13&#45;&gt;Node12 -->
<g id="edge23" class="edge">
<title>Node13&#45;&gt;Node12</title>
<path fill="none" stroke="#191970" d="M916.2673,-171.5122C845.992,-164.2332 733.4939,-150.9159 637.5,-132 603.2312,-125.2472 595.3742,-120.5139 561.5,-112 513.7428,-99.9968 459.1211,-86.9791 420.3792,-77.8655"/>
<polygon fill="#191970" stroke="#191970" points="420.9252,-74.3986 410.3898,-75.5194 419.3246,-81.2132 420.9252,-74.3986"/>
</g>
<!-- Node13&#45;&gt;Node14 -->
<g id="edge21" class="edge">
<title>Node13&#45;&gt;Node14</title>
<path fill="none" stroke="#191970" d="M1009.9421,-168.3733C1034.6743,-159.0151 1072.3627,-144.7547 1099.4135,-134.5192"/>
<polygon fill="#191970" stroke="#191970" points="1100.7404,-137.7594 1108.8546,-130.9469 1098.2631,-131.2124 1100.7404,-137.7594"/>
</g>
<!-- Node15&#45;&gt;Node14 -->
<g id="edge28" class="edge">
<title>Node15&#45;&gt;Node14</title>
<path fill="none" stroke="#191970" d="M1308.0559,-168.3733C1268.0634,-157.8092 1204.4207,-140.9979 1165.7458,-130.7819"/>
<polygon fill="#191970" stroke="#191970" points="1166.5727,-127.3804 1156.0105,-128.2103 1164.785,-134.1482 1166.5727,-127.3804"/>
</g>
<!-- Node16 -->
<g id="node17" class="node">
<title>Node16</title>
<polygon fill="none" stroke="#bfbfbf" points="1564.5,-112.5 1564.5,-131.5 1622.5,-131.5 1622.5,-112.5 1564.5,-112.5"/>
<text text-anchor="middle" x="1593.5" y="-119.5" font-family="Helvetica,sans-Serif" font-size="10.00" fill="#000000">memory</text>
</g>
<!-- Node15&#45;&gt;Node16 -->
<g id="edge25" class="edge">
<title>Node15&#45;&gt;Node16</title>
<path fill="none" stroke="#191970" d="M1387.0217,-168.4369C1434.0267,-157.8655 1509.0968,-140.9822 1554.5984,-130.749"/>
<polygon fill="#191970" stroke="#191970" points="1555.4017,-134.1558 1564.39,-128.5468 1553.8657,-127.3264 1555.4017,-134.1558"/>
</g>
<!-- Node17 -->
<g id="node18" class="node">
<title>Node17</title>
<polygon fill="none" stroke="#bfbfbf" points="1345,-112.5 1345,-131.5 1410,-131.5 1410,-112.5 1345,-112.5"/>
<text text-anchor="middle" x="1377.5" y="-119.5" font-family="Helvetica,sans-Serif" font-size="10.00" fill="#000000">functional</text>
</g>
<!-- Node15&#45;&gt;Node17 -->
<g id="edge26" class="edge">
<title>Node15&#45;&gt;Node17</title>
<path fill="none" stroke="#191970" d="M1350.2482,-168.2455C1354.7435,-160.617 1361.1248,-149.7881 1366.5825,-140.5267"/>
<polygon fill="#191970" stroke="#191970" points="1369.7561,-142.035 1371.8177,-131.6427 1363.7253,-138.4811 1369.7561,-142.035"/>
</g>
<!-- Node18 -->
<g id="node19" class="node">
<title>Node18</title>
<polygon fill="none" stroke="#bfbfbf" points="1212.5,-112.5 1212.5,-131.5 1244.5,-131.5 1244.5,-112.5 1212.5,-112.5"/>
<text text-anchor="middle" x="1228.5" y="-119.5" font-family="Helvetica,sans-Serif" font-size="10.00" fill="#000000">list</text>
</g>
<!-- Node15&#45;&gt;Node18 -->
<g id="edge27" class="edge">
<title>Node15&#45;&gt;Node18</title>
<path fill="none" stroke="#191970" d="M1324.5589,-168.3733C1305.0102,-158.936 1275.1342,-144.5131 1253.8965,-134.2604"/>
<polygon fill="#191970" stroke="#191970" points="1255.3417,-131.0716 1244.8146,-129.876 1252.2984,-137.3755 1255.3417,-131.0716"/>
</g>
<!-- Node19 -->
<g id="node20" class="node">
<title>Node19</title>
<polygon fill="none" stroke="#bfbfbf" points="1262.5,-112.5 1262.5,-131.5 1326.5,-131.5 1326.5,-112.5 1262.5,-112.5"/>
<text text-anchor="middle" x="1294.5" y="-119.5" font-family="Helvetica,sans-Serif" font-size="10.00" fill="#000000">algorithm</text>
</g>
<!-- Node15&#45;&gt;Node19 -->
<g id="edge29" class="edge">
<title>Node15&#45;&gt;Node19</title>
<path fill="none" stroke="#191970" d="M1335.7907,-168.2455C1328.6927,-160.2958 1318.4916,-148.8706 1310.005,-139.3656"/>
<polygon fill="#191970" stroke="#191970" points="1312.3805,-136.771 1303.1095,-131.6427 1307.1589,-141.4331 1312.3805,-136.771"/>
</g>
<!-- Node20&#45;&gt;Node6 -->
<g id="edge34" class="edge">
<title>Node20&#45;&gt;Node6</title>
<path fill="none" stroke="#191970" d="M540.7948,-224.4509C537.5181,-206.1013 530.2841,-165.5908 525.9588,-141.3693"/>
<polygon fill="#191970" stroke="#191970" points="529.4044,-140.7539 524.2009,-131.5249 522.5134,-141.9845 529.4044,-140.7539"/>
</g>
<!-- Node20&#45;&gt;Node8 -->
<g id="edge39" class="edge">
<title>Node20&#45;&gt;Node8</title>
<path fill="none" stroke="#191970" d="M597.5689,-228.9733C643.4975,-223.291 709.8564,-211.5607 763.5,-188 779.8023,-180.8399 870.8412,-113.0927 912.583,-81.7577"/>
<polygon fill="#191970" stroke="#191970" points="914.8065,-84.4649 920.6973,-75.6588 910.6006,-78.8693 914.8065,-84.4649"/>
</g>
<!-- Node21 -->
<g id="node22" class="node">
<title>Node21</title>
<polygon fill="none" stroke="#bfbfbf" points="810.5,-168.5 810.5,-187.5 860.5,-187.5 860.5,-168.5 810.5,-168.5"/>
<text text-anchor="middle" x="835.5" y="-175.5" font-family="Helvetica,sans-Serif" font-size="10.00" fill="#000000">chrono</text>
</g>
<!-- Node20&#45;&gt;Node21 -->
<g id="edge35" class="edge">
<title>Node20&#45;&gt;Node21</title>
<path fill="none" stroke="#191970" d="M597.7246,-225.1746C649.3296,-216.6499 728.419,-202.873 796.5,-188 797.7676,-187.7231 799.0564,-187.4337 800.3567,-187.1352"/>
<polygon fill="#191970" stroke="#191970" points="801.4843,-190.4639 810.388,-184.7216 799.8467,-183.6581 801.4843,-190.4639"/>
</g>
<!-- Node22 -->
<g id="node23" class="node">
<title>Node22</title>
<polygon fill="none" stroke="#bfbfbf" points="1146.5,-168.5 1146.5,-187.5 1190.5,-187.5 1190.5,-168.5 1146.5,-168.5"/>
<text text-anchor="middle" x="1168.5" y="-175.5" font-family="Helvetica,sans-Serif" font-size="10.00" fill="#000000">ctime</text>
</g>
<!-- Node20&#45;&gt;Node22 -->
<g id="edge36" class="edge">
<title>Node20&#45;&gt;Node22</title>
<path fill="none" stroke="#191970" d="M597.8114,-229.1852C692.694,-220.9061 892.591,-203.3782 1061.5,-188 1086.6141,-185.7135 1115.0367,-183.0538 1136.273,-181.0524"/>
<polygon fill="#191970" stroke="#191970" points="1136.7438,-184.5236 1146.3707,-180.0993 1136.086,-177.5546 1136.7438,-184.5236"/>
</g>
<!-- Node23 -->
<g id="node24" class="node">
<title>Node23</title>
<polygon fill="none" stroke="#bfbfbf" points="385,-168.5 385,-187.5 440,-187.5 440,-168.5 385,-168.5"/>
<text text-anchor="middle" x="412.5" y="-175.5" font-family="Helvetica,sans-Serif" font-size="10.00" fill="#000000">fstream</text>
</g>
<!-- Node20&#45;&gt;Node23 -->
<g id="edge37" class="edge">
<title>Node20&#45;&gt;Node23</title>
<path fill="none" stroke="#191970" d="M520.1522,-224.3733C499.0967,-215.3032 467.3505,-201.6279 443.7825,-191.4755"/>
<polygon fill="#191970" stroke="#191970" points="445.125,-188.243 434.5562,-187.5011 442.3556,-194.6719 445.125,-188.243"/>
</g>
<!-- Node24 -->
<g id="node25" class="node">
<title>Node24</title>
<polygon fill="none" stroke="#bfbfbf" points="458.5,-168.5 458.5,-187.5 514.5,-187.5 514.5,-168.5 458.5,-168.5"/>
<text text-anchor="middle" x="486.5" y="-175.5" font-family="Helvetica,sans-Serif" font-size="10.00" fill="#000000">sstream</text>
</g>
<!-- Node20&#45;&gt;Node24 -->
<g id="edge38" class="edge">
<title>Node20&#45;&gt;Node24</title>
<path fill="none" stroke="#191970" d="M532.7455,-224.2455C524.6352,-216.1352 512.9075,-204.4075 503.2919,-194.7919"/>
<polygon fill="#191970" stroke="#191970" points="505.6887,-192.2389 496.1427,-187.6427 500.7389,-197.1887 505.6887,-192.2389"/>
</g>
<!-- Node25&#45;&gt;Node3 -->
<g id="edge41" class="edge">
<title>Node25&#45;&gt;Node3</title>
<path fill="none" stroke="#191970" d="M226.2726,-224.455C229.198,-190.8536 240.76,-78.8326 266.5,-56 296.0753,-29.7653 568.621,-15.517 663.2864,-11.327"/>
<polygon fill="#191970" stroke="#191970" points="663.576,-14.8178 673.4148,-10.8873 663.2723,-7.8244 663.576,-14.8178"/>
</g>
<!-- Node25&#45;&gt;Node12 -->
<g id="edge42" class="edge">
<title>Node25&#45;&gt;Node12</title>
<path fill="none" stroke="#191970" d="M233.6547,-224.4862C256.9104,-197.3545 323.8316,-119.2798 354.1935,-83.8576"/>
<polygon fill="#191970" stroke="#191970" points="357.2256,-85.6983 361.0761,-75.8279 351.9107,-81.1427 357.2256,-85.6983"/>
</g>
<!-- Node26 -->
<g id="node27" class="node">
<title>Node26</title>
<g id="a_node27"><a xlink:href="Meta_8hxx.html" target="_top" xlink:title="../../util/Meta.hxx">
<polygon fill="none" stroke="#000000" points="44.5,-168.5 44.5,-187.5 142.5,-187.5 142.5,-168.5 44.5,-168.5"/>
<text text-anchor="middle" x="93.5" y="-175.5" font-family="Helvetica,sans-Serif" font-size="10.00" fill="#000000">../../util/Meta.hxx</text>
</a>
</g>
</g>
<!-- Node25&#45;&gt;Node26 -->
<g id="edge43" class="edge">
<title>Node25&#45;&gt;Node26</title>
<path fill="none" stroke="#191970" d="M202.8084,-224.3733C181.4289,-215.3032 149.1943,-201.6279 125.2638,-191.4755"/>
<polygon fill="#191970" stroke="#191970" points="126.4683,-188.1846 115.8955,-187.5011 123.7344,-194.6287 126.4683,-188.1846"/>
</g>
<!-- Node30 -->
<g id="node31" class="node">
<title>Node30</title>
<polygon fill="none" stroke="#bfbfbf" points="161,-168.5 161,-187.5 214,-187.5 214,-168.5 161,-168.5"/>
<text text-anchor="middle" x="187.5" y="-175.5" font-family="Helvetica,sans-Serif" font-size="10.00" fill="#000000">cstddef</text>
</g>
<!-- Node25&#45;&gt;Node30 -->
<g id="edge48" class="edge">
<title>Node25&#45;&gt;Node30</title>
<path fill="none" stroke="#191970" d="M218.8809,-224.2455C213.5954,-216.4564 206.0459,-205.3308 199.6762,-195.9439"/>
<polygon fill="#191970" stroke="#191970" points="202.5545,-193.9522 194.0432,-187.6427 196.7621,-197.8827 202.5545,-193.9522"/>
</g>
<!-- Node26&#45;&gt;Node6 -->
<g id="edge44" class="edge">
<title>Node26&#45;&gt;Node6</title>
<path fill="none" stroke="#191970" d="M142.5215,-169.38C145.5573,-168.8983 148.5688,-168.4342 151.5,-168 271.2515,-150.2628 413.4493,-133.9528 481.8137,-126.4062"/>
<polygon fill="#191970" stroke="#191970" points="482.5794,-129.8432 492.1371,-125.2714 481.8145,-122.8851 482.5794,-129.8432"/>
</g>
<!-- Node27 -->
<g id="node28" class="node">
<title>Node27</title>
<polygon fill="none" stroke="#bfbfbf" points="59,-112.5 59,-131.5 128,-131.5 128,-112.5 59,-112.5"/>
<text text-anchor="middle" x="93.5" y="-119.5" font-family="Helvetica,sans-Serif" font-size="10.00" fill="#000000">type_traits</text>
</g>
<!-- Node26&#45;&gt;Node27 -->
<g id="edge45" class="edge">
<title>Node26&#45;&gt;Node27</title>
<path fill="none" stroke="#191970" d="M93.5,-168.2455C93.5,-160.9382 93.5,-150.6944 93.5,-141.7046"/>
<polygon fill="#191970" stroke="#191970" points="97.0001,-141.6426 93.5,-131.6427 90.0001,-141.6427 97.0001,-141.6426"/>
</g>
<!-- Node28 -->
<g id="node29" class="node">
<title>Node28</title>
<polygon fill="none" stroke="#bfbfbf" points="146,-112.5 146,-131.5 197,-131.5 197,-112.5 146,-112.5"/>
<text text-anchor="middle" x="171.5" y="-119.5" font-family="Helvetica,sans-Serif" font-size="10.00" fill="#000000">variant</text>
</g>
<!-- Node26&#45;&gt;Node28 -->
<g id="edge46" class="edge">
<title>Node26&#45;&gt;Node28</title>
<path fill="none" stroke="#191970" d="M107.0866,-168.2455C118.8305,-159.814 136.0199,-147.4729 149.6882,-137.6598"/>
<polygon fill="#191970" stroke="#191970" points="151.9871,-140.3179 158.0691,-131.6427 147.9046,-134.6316 151.9871,-140.3179"/>
</g>
<!-- Node29 -->
<g id="node30" class="node">
<title>Node29</title>
<polygon fill="none" stroke="#bfbfbf" points="0,-112.5 0,-131.5 41,-131.5 41,-112.5 0,-112.5"/>
<text text-anchor="middle" x="20.5" y="-119.5" font-family="Helvetica,sans-Serif" font-size="10.00" fill="#000000">tuple</text>
</g>
<!-- Node26&#45;&gt;Node29 -->
<g id="edge47" class="edge">
<title>Node26&#45;&gt;Node29</title>
<path fill="none" stroke="#191970" d="M80.7844,-168.2455C69.898,-159.8943 54.0117,-147.7076 41.28,-137.9408"/>
<polygon fill="#191970" stroke="#191970" points="43.1346,-134.9523 33.0699,-131.6427 38.8739,-140.5063 43.1346,-134.9523"/>
</g>
<!-- Node31&#45;&gt;Node1 -->
<g id="edge53" class="edge">
<title>Node31&#45;&gt;Node1</title>
<path fill="none" stroke="#191970" d="M1042.9419,-453.4554C961.7163,-446.0148 815.1189,-430.2243 799.5,-412 774.891,-383.2861 787.4784,-335.3764 797.382,-308.9474"/>
<polygon fill="#191970" stroke="#191970" points="800.6352,-310.2384 801.0908,-299.6533 794.1337,-307.644 800.6352,-310.2384"/>
</g>
<!-- Node31&#45;&gt;Node2 -->
<g id="edge52" class="edge">
<title>Node31&#45;&gt;Node2</title>
<path fill="none" stroke="#191970" d="M1059.8363,-448.4893C1018.4072,-435.4775 953.3795,-407.6211 927.5,-356 923.5163,-348.0538 922.6347,-343.4392 927.5,-336 951.6275,-299.1086 1071.6201,-263.8242 1141.2453,-246.0166"/>
<polygon fill="#191970" stroke="#191970" points="1142.297,-249.3609 1151.135,-243.5179 1140.5823,-242.5742 1142.297,-249.3609"/>
</g>
<!-- Node31&#45;&gt;Node8 -->
<g id="edge50" class="edge">
<title>Node31&#45;&gt;Node8</title>
<path fill="none" stroke="#191970" d="M1042.7614,-453.4063C958.522,-445.7166 803.0258,-429.3642 784.5,-412 740.9944,-371.2224 735.378,-334.0781 760.5,-280 787.2083,-222.5071 829.8137,-237.4344 869.5,-188 895.7034,-155.3602 915.9891,-110.3345 926.2028,-85.1093"/>
<polygon fill="#191970" stroke="#191970" points="929.5383,-86.1914 929.9513,-75.6046 923.0265,-83.6232 929.5383,-86.1914"/>
</g>
<!-- Node31&#45;&gt;Node12 -->
<g id="edge86" class="edge">
<title>Node31&#45;&gt;Node12</title>
<path fill="none" stroke="#191970" d="M1042.718,-452.1333C866.6147,-432.2082 318.5,-364.23 318.5,-290 318.5,-290 318.5,-290 318.5,-234 318.5,-177.5864 345.1563,-114.9334 359.926,-84.5486"/>
<polygon fill="#191970" stroke="#191970" points="363.0896,-86.0474 364.4235,-75.5368 356.8263,-82.9215 363.0896,-86.0474"/>
</g>
<!-- Node31&#45;&gt;Node14 -->
<g id="edge51" class="edge">
<title>Node31&#45;&gt;Node14</title>
<path fill="none" stroke="#191970" d="M1150.1093,-454.7193C1248.866,-448.2662 1455.718,-432.7285 1524.5,-412 1576.2692,-396.3985 1585.2541,-382.2923 1632.5,-356 1674.9929,-332.3528 1702.4739,-342.2799 1726.5,-300 1828.3269,-120.8099 1472.4149,-251.9935 1276.5,-188 1233.9893,-174.1143 1187.3809,-151.2381 1159.0342,-136.3963"/>
<polygon fill="#191970" stroke="#191970" points="1160.629,-133.2804 1150.1533,-131.6956 1157.3542,-139.4672 1160.629,-133.2804"/>
</g>
<!-- Node32 -->
<g id="node33" class="node">
<title>Node32</title>
<g id="a_node33"><a xlink:href="ButtonGroup_8hxx.html" target="_top" xlink:title="ui/basics/ButtonGroup.hxx">
<polygon fill="none" stroke="#000000" points="1024,-392.5 1024,-411.5 1169,-411.5 1169,-392.5 1024,-392.5"/>
<text text-anchor="middle" x="1096.5" y="-399.5" font-family="Helvetica,sans-Serif" font-size="10.00" fill="#000000">ui/basics/ButtonGroup.hxx</text>
</a>
</g>
</g>
<!-- Node31&#45;&gt;Node32 -->
<g id="edge54" class="edge">
<title>Node31&#45;&gt;Node32</title>
<path fill="none" stroke="#191970" d="M1096.5,-448.2455C1096.5,-440.9382 1096.5,-430.6944 1096.5,-421.7046"/>
<polygon fill="#191970" stroke="#191970" points="1100.0001,-421.6426 1096.5,-411.6427 1093.0001,-421.6427 1100.0001,-421.6426"/>
</g>
<!-- Node33 -->
<g id="node34" class="node">
<title>Node33</title>
<g id="a_node34"><a xlink:href="Button_8hxx.html" target="_top" xlink:title="../widgets/Button.hxx">
<polygon fill="none" stroke="#000000" points="1131.5,-336.5 1131.5,-355.5 1251.5,-355.5 1251.5,-336.5 1131.5,-336.5"/>
<text text-anchor="middle" x="1191.5" y="-343.5" font-family="Helvetica,sans-Serif" font-size="10.00" fill="#000000">../widgets/Button.hxx</text>
</a>
</g>
</g>
<!-- Node31&#45;&gt;Node33 -->
<g id="edge61" class="edge">
<title>Node31&#45;&gt;Node33</title>
<path fill="none" stroke="#191970" d="M1126.6805,-448.3586C1144.4517,-441.1326 1165.8579,-429.4479 1178.5,-412 1188.1241,-398.7174 1191.1009,-380.1429 1191.8275,-366.0815"/>
<polygon fill="#191970" stroke="#191970" points="1195.3291,-366.0214 1192.0118,-355.9594 1188.3302,-365.894 1195.3291,-366.0214"/>
</g>
<!-- Node34 -->
<g id="node35" class="node">
<title>Node34</title>
<g id="a_node35"><a xlink:href="Text_8hxx.html" target="_top" xlink:title="Text.hxx">
<polygon fill="none" stroke="#000000" points="1363.5,-280.5 1363.5,-299.5 1421.5,-299.5 1421.5,-280.5 1363.5,-280.5"/>
<text text-anchor="middle" x="1392.5" y="-287.5" font-family="Helvetica,sans-Serif" font-size="10.00" fill="#000000">Text.hxx</text>
</a>
</g>
</g>
<!-- Node31&#45;&gt;Node34 -->
<g id="edge72" class="edge">
<title>Node31&#45;&gt;Node34</title>
<path fill="none" stroke="#191970" d="M1150.3121,-454.0703C1236.9252,-447.1933 1399.3397,-431.8035 1416.5,-412 1441.9322,-382.6505 1419.7661,-334.3001 1404.3418,-308.1497"/>
<polygon fill="#191970" stroke="#191970" points="1407.2941,-306.2692 1399.0648,-299.5961 1401.3366,-309.9446 1407.2941,-306.2692"/>
</g>
<!-- Node35 -->
<g id="node36" class="node">
<title>Node35</title>
<g id="a_node36"><a xlink:href="Checkbox_8hxx.html" target="_top" xlink:title="ui/widgets/Checkbox.hxx">
<polygon fill="none" stroke="#000000" points="936,-336.5 936,-355.5 1075,-355.5 1075,-336.5 936,-336.5"/>
<text text-anchor="middle" x="1005.5" y="-343.5" font-family="Helvetica,sans-Serif" font-size="10.00" fill="#000000">ui/widgets/Checkbox.hxx</text>
</a>
</g>
</g>
<!-- Node31&#45;&gt;Node35 -->
<g id="edge62" class="edge">
<title>Node31&#45;&gt;Node35</title>
<path fill="none" stroke="#191970" d="M1066.4107,-448.4587C1048.7521,-441.2704 1027.5946,-429.5901 1015.5,-412 1006.2777,-398.5874 1004.1648,-380.0255 1004.1363,-366.002"/>
<polygon fill="#191970" stroke="#191970" points="1007.6374,-366.022 1004.4643,-355.9135 1000.6411,-365.7944 1007.6374,-366.022"/>
</g>
<!-- Node36 -->
<g id="node37" class="node">
<title>Node36</title>
<g id="a_node37"><a xlink:href="Combobox_8hxx.html" target="_top" xlink:title="ui/widgets/Combobox.hxx">
<polygon fill="none" stroke="#000000" points="1264,-392.5 1264,-411.5 1407,-411.5 1407,-392.5 1264,-392.5"/>
<text text-anchor="middle" x="1335.5" y="-399.5" font-family="Helvetica,sans-Serif" font-size="10.00" fill="#000000">ui/widgets/Combobox.hxx</text>
</a>
</g>
</g>
<!-- Node31&#45;&gt;Node36 -->
<g id="edge64" class="edge">
<title>Node31&#45;&gt;Node36</title>
<path fill="none" stroke="#191970" d="M1137.314,-448.4369C1178.1311,-438.8731 1240.9959,-424.1432 1284.9472,-413.845"/>
<polygon fill="#191970" stroke="#191970" points="1285.9165,-417.2128 1294.8543,-411.5237 1284.3195,-410.3973 1285.9165,-417.2128"/>
</g>
<!-- Node37 -->
<g id="node38" class="node">
<title>Node37</title>
<g id="a_node38"><a xlink:href="TextField_8hxx.html" target="_top" xlink:title="TextField.hxx">
<polygon fill="none" stroke="#000000" points="1307.5,-336.5 1307.5,-355.5 1387.5,-355.5 1387.5,-336.5 1307.5,-336.5"/>
<text text-anchor="middle" x="1347.5" y="-343.5" font-family="Helvetica,sans-Serif" font-size="10.00" fill="#000000">TextField.hxx</text>
</a>
</g>
</g>
<!-- Node31&#45;&gt;Node37 -->
<g id="edge73" class="edge">
<title>Node31&#45;&gt;Node37</title>
<path fill="none" stroke="#191970" d="M1117.9001,-448.4509C1162.4499,-428.5722 1265.286,-382.6852 1316.8521,-359.6756"/>
<polygon fill="#191970" stroke="#191970" points="1318.4482,-362.7961 1326.154,-355.5249 1315.5957,-356.4036 1318.4482,-362.7961"/>
</g>
<!-- Node38 -->
<g id="node39" class="node">
<title>Node38</title>
<g id="a_node39"><a xlink:href="Frame_8hxx.html" target="_top" xlink:title="ui/widgets/Frame.hxx">
<polygon fill="none" stroke="#000000" points="808,-392.5 808,-411.5 929,-411.5 929,-392.5 808,-392.5"/>
<text text-anchor="middle" x="868.5" y="-399.5" font-family="Helvetica,sans-Serif" font-size="10.00" fill="#000000">ui/widgets/Frame.hxx</text>
</a>
</g>
</g>
<!-- Node31&#45;&gt;Node38 -->
<g id="edge70" class="edge">
<title>Node31&#45;&gt;Node38</title>
<path fill="none" stroke="#191970" d="M1057.5645,-448.4369C1018.708,-438.8932 958.907,-424.2052 916.9911,-413.9101"/>
<polygon fill="#191970" stroke="#191970" points="917.8212,-410.51 907.2749,-411.5237 916.1514,-417.308 917.8212,-410.51"/>
</g>
<!-- Node39 -->
<g id="node40" class="node">
<title>Node39</title>
<g id="a_node40"><a xlink:href="Tooltip_8hxx.html" target="_top" xlink:title="ui/widgets/Tooltip.hxx">
<polygon fill="none" stroke="#000000" points="1444,-336.5 1444,-355.5 1567,-355.5 1567,-336.5 1444,-336.5"/>
<text text-anchor="middle" x="1505.5" y="-343.5" font-family="Helvetica,sans-Serif" font-size="10.00" fill="#000000">ui/widgets/Tooltip.hxx</text>
</a>
</g>
</g>
<!-- Node31&#45;&gt;Node39 -->
<g id="edge74" class="edge">
<title>Node31&#45;&gt;Node39</title>
<path fill="none" stroke="#191970" d="M1150.2673,-455.7076C1235.984,-451.2762 1399.0828,-439.4372 1449.5,-412 1469.6123,-401.0548 1485.622,-379.7566 1495.2876,-364.3075"/>
<polygon fill="#191970" stroke="#191970" points="1498.3685,-365.9742 1500.4659,-355.5891 1492.35,-362.3995 1498.3685,-365.9742"/>
</g>
<!-- Node42 -->
<g id="node43" class="node">
<title>Node42</title>
<g id="a_node43"><a xlink:href="Slider_8hxx.html" target="_top" xlink:title="ui/widgets/Slider.hxx">
<polygon fill="none" stroke="#000000" points="1599.5,-280.5 1599.5,-299.5 1717.5,-299.5 1717.5,-280.5 1599.5,-280.5"/>
<text text-anchor="middle" x="1658.5" y="-287.5" font-family="Helvetica,sans-Serif" font-size="10.00" fill="#000000">ui/widgets/Slider.hxx</text>
</a>
</g>
</g>
<!-- Node31&#45;&gt;Node42 -->
<g id="edge83" class="edge">
<title>Node31&#45;&gt;Node42</title>
<path fill="none" stroke="#191970" d="M1150.2578,-456.0483C1224.3436,-452.3275 1361.4943,-441.7179 1474.5,-412 1537.3214,-395.4794 1558.2914,-395.9642 1609.5,-356 1625.9538,-343.1592 1639.6,-323.4495 1648.2765,-308.91"/>
<polygon fill="#191970" stroke="#191970" points="1651.548,-310.2386 1653.4628,-299.8182 1645.4677,-306.7702 1651.548,-310.2386"/>
</g>
<!-- Node32&#45;&gt;Node2 -->
<g id="edge55" class="edge">
<title>Node32&#45;&gt;Node2</title>
<path fill="none" stroke="#191970" d="M1099.5697,-392.3101C1103.8951,-379.1798 1112.3946,-355.1752 1122.5,-336 1138.9232,-304.8365 1162.7886,-271.5351 1177.7132,-251.7569"/>
<polygon fill="#191970" stroke="#191970" points="1180.5953,-253.7495 1183.8824,-243.6775 1175.0318,-249.5013 1180.5953,-253.7495"/>
</g>
<!-- Node32&#45;&gt;Node33 -->
<g id="edge56" class="edge">
<title>Node32&#45;&gt;Node33</title>
<path fill="none" stroke="#191970" d="M1113.0477,-392.2455C1127.7599,-383.5731 1149.4888,-370.7645 1166.3505,-360.825"/>
<polygon fill="#191970" stroke="#191970" points="1168.3046,-363.736 1175.1419,-355.6427 1164.7498,-357.7057 1168.3046,-363.736"/>
</g>
<!-- Node33&#45;&gt;Node2 -->
<g id="edge57" class="edge">
<title>Node33&#45;&gt;Node2</title>
<path fill="none" stroke="#191970" d="M1191.5,-336.4509C1191.5,-318.184 1191.5,-277.9553 1191.5,-253.6976"/>
<polygon fill="#191970" stroke="#191970" points="1195.0001,-253.5249 1191.5,-243.5249 1188.0001,-253.5249 1195.0001,-253.5249"/>
</g>
<!-- Node33&#45;&gt;Node34 -->
<g id="edge58" class="edge">
<title>Node33&#45;&gt;Node34</title>
<path fill="none" stroke="#191970" d="M1226.0531,-336.3733C1261.4494,-326.5116 1316.3861,-311.2059 1353.3647,-300.9034"/>
<polygon fill="#191970" stroke="#191970" points="1354.5934,-304.1944 1363.2871,-298.1389 1352.7147,-297.4512 1354.5934,-304.1944"/>
</g>
<!-- Node34&#45;&gt;Node2 -->
<g id="edge60" class="edge">
<title>Node34&#45;&gt;Node2</title>
<path fill="none" stroke="#191970" d="M1363.2729,-281.8571C1329.79,-272.5285 1274.5614,-257.1415 1235.788,-246.339"/>
<polygon fill="#191970" stroke="#191970" points="1236.3874,-242.8727 1225.8149,-243.5604 1234.5087,-249.6159 1236.3874,-242.8727"/>
</g>
<!-- Node34&#45;&gt;Node3 -->
<g id="edge59" class="edge">
<title>Node34&#45;&gt;Node3</title>
<path fill="none" stroke="#191970" d="M1421.6405,-281.7844C1463.7178,-267.9328 1536.5,-235.6422 1536.5,-178 1536.5,-178 1536.5,-178 1536.5,-122 1536.5,-38.8403 882.0452,-15.2422 727.7886,-10.835"/>
<polygon fill="#191970" stroke="#191970" points="727.656,-7.3301 717.5624,-10.5503 727.4611,-14.3274 727.656,-7.3301"/>
</g>
<!-- Node35&#45;&gt;Node2 -->
<g id="edge63" class="edge">
<title>Node35&#45;&gt;Node2</title>
<path fill="none" stroke="#191970" d="M1016.021,-336.3486C1031.3525,-322.6179 1061.1084,-297.2053 1089.5,-280 1110.7729,-267.1086 1136.2838,-255.6049 1156.471,-247.3259"/>
<polygon fill="#191970" stroke="#191970" points="1157.94,-250.5076 1165.9116,-243.5288 1155.3278,-244.0133 1157.94,-250.5076"/>
</g>
<!-- Node36&#45;&gt;Node2 -->
<g id="edge66" class="edge">
<title>Node36&#45;&gt;Node2</title>
<path fill="none" stroke="#191970" d="M1327.3453,-392.4862C1304.0896,-365.3545 1237.1684,-287.2798 1206.8065,-251.8576"/>
<polygon fill="#191970" stroke="#191970" points="1209.0893,-249.1427 1199.9239,-243.8279 1203.7744,-253.6983 1209.0893,-249.1427"/>
</g>
<!-- Node36&#45;&gt;Node16 -->
<g id="edge65" class="edge">
<title>Node36&#45;&gt;Node16</title>
<path fill="none" stroke="#191970" d="M1407.2811,-397.761C1470.0202,-392.4321 1554.4444,-380.7768 1576.5,-356 1590.598,-340.1626 1593.0089,-195.2824 1593.4178,-141.7549"/>
<polygon fill="#191970" stroke="#191970" points="1596.9189,-141.5556 1593.4793,-131.5347 1589.9191,-141.5134 1596.9189,-141.5556"/>
</g>
<!-- Node36&#45;&gt;Node37 -->
<g id="edge67" class="edge">
<title>Node36&#45;&gt;Node37</title>
<path fill="none" stroke="#191970" d="M1337.5902,-392.2455C1339.1561,-384.9382 1341.3512,-374.6944 1343.2776,-365.7046"/>
<polygon fill="#191970" stroke="#191970" points="1346.7607,-366.1541 1345.4337,-355.6427 1339.916,-364.6873 1346.7607,-366.1541"/>
</g>
<!-- Node37&#45;&gt;Node2 -->
<g id="edge68" class="edge">
<title>Node37&#45;&gt;Node2</title>
<path fill="none" stroke="#191970" d="M1341.6386,-336.2917C1332.751,-322.26 1314.644,-296.22 1293.5,-280 1274.9561,-265.7746 1251.3134,-254.7601 1231.4603,-247.0805"/>
<polygon fill="#191970" stroke="#191970" points="1232.6504,-243.7889 1222.0576,-243.5789 1230.2074,-250.3488 1232.6504,-243.7889"/>
</g>
<!-- Node37&#45;&gt;Node34 -->
<g id="edge69" class="edge">
<title>Node37&#45;&gt;Node34</title>
<path fill="none" stroke="#191970" d="M1355.3384,-336.2455C1361.662,-328.3761 1370.7224,-317.101 1378.3136,-307.6542"/>
<polygon fill="#191970" stroke="#191970" points="1381.2158,-309.6302 1384.7514,-299.6427 1375.7592,-305.2454 1381.2158,-309.6302"/>
</g>
<!-- Node38&#45;&gt;Node2 -->
<g id="edge71" class="edge">
<title>Node38&#45;&gt;Node2</title>
<path fill="none" stroke="#191970" d="M867.1767,-392.362C864.596,-369.2214 861.6595,-310.2078 893.5,-280 932.4648,-243.0333 1079.4647,-252.4881 1132.5,-244 1133.7984,-243.7922 1135.1125,-243.5805 1136.4378,-243.3658"/>
<polygon fill="#191970" stroke="#191970" points="1137.4351,-246.7491 1146.7364,-241.6759 1136.3016,-239.8414 1137.4351,-246.7491"/>
</g>
<!-- Node39&#45;&gt;Node2 -->
<g id="edge75" class="edge">
<title>Node39&#45;&gt;Node2</title>
<path fill="none" stroke="#191970" d="M1497.4274,-336.1278C1484.7933,-321.3933 1458.8431,-293.8981 1430.5,-280 1414.1594,-271.9874 1311.5686,-253.9259 1246.2179,-242.9698"/>
<polygon fill="#191970" stroke="#191970" points="1246.5081,-239.4699 1236.0682,-241.2751 1245.3552,-246.3743 1246.5081,-239.4699"/>
</g>
<!-- Node39&#45;&gt;Node34 -->
<g id="edge76" class="edge">
<title>Node39&#45;&gt;Node34</title>
<path fill="none" stroke="#191970" d="M1486.0746,-336.3733C1468.0979,-327.4644 1441.1559,-314.1127 1420.791,-304.0203"/>
<polygon fill="#191970" stroke="#191970" points="1422.1861,-300.8055 1411.6719,-299.5011 1419.0778,-307.0776 1422.1861,-300.8055"/>
</g>
<!-- Node40 -->
<g id="node41" class="node">
<title>Node40</title>
<g id="a_node41"><a xlink:href="Timer_8hxx.html" target="_top" xlink:title="../../basics/Timer.hxx">
<polygon fill="none" stroke="#000000" points="1270,-224.5 1270,-243.5 1387,-243.5 1387,-224.5 1270,-224.5"/>
<text text-anchor="middle" x="1328.5" y="-231.5" font-family="Helvetica,sans-Serif" font-size="10.00" fill="#000000">../../basics/Timer.hxx</text>
</a>
</g>
</g>
<!-- Node39&#45;&gt;Node40 -->
<g id="edge77" class="edge">
<title>Node39&#45;&gt;Node40</title>
<path fill="none" stroke="#191970" d="M1502.3314,-336.4592C1497.106,-322.1577 1485.3439,-295.2203 1466.5,-280 1446.2973,-263.6823 1420.0583,-253.0516 1395.8921,-246.172"/>
<polygon fill="#191970" stroke="#191970" points="1396.6075,-242.7404 1386.0427,-243.537 1394.7984,-249.5026 1396.6075,-242.7404"/>
</g>
<!-- Node40&#45;&gt;Node8 -->
<g id="edge81" class="edge">
<title>Node40&#45;&gt;Node8</title>
<path fill="none" stroke="#191970" d="M1316.9991,-224.3191C1285.6977,-198.1492 1199.0792,-126.9605 1165.5,-112 1098.3414,-82.079 1011.6343,-71.51 965.5778,-67.8597"/>
<polygon fill="#191970" stroke="#191970" points="965.8128,-64.3676 955.5835,-67.1267 965.3007,-71.3489 965.8128,-64.3676"/>
</g>
<!-- Node40&#45;&gt;Node15 -->
<g id="edge82" class="edge">
<title>Node40&#45;&gt;Node15</title>
<path fill="none" stroke="#191970" d="M1331.287,-224.2455C1333.3977,-216.8579 1336.366,-206.4689 1338.9547,-197.4087"/>
<polygon fill="#191970" stroke="#191970" points="1342.363,-198.2195 1341.745,-187.6427 1335.6323,-196.2964 1342.363,-198.2195"/>
</g>
<!-- Node40&#45;&gt;Node21 -->
<g id="edge79" class="edge">
<title>Node40&#45;&gt;Node21</title>
<path fill="none" stroke="#191970" d="M1269.5672,-226.798C1261.4828,-225.8397 1253.2875,-224.8838 1245.5,-224 1095.3917,-206.9642 1057.448,-206.3937 907.5,-188 895.608,-186.5412 882.6342,-184.7892 871.0164,-183.1619"/>
<polygon fill="#191970" stroke="#191970" points="871.1903,-179.6517 860.7982,-181.7146 870.2085,-186.5825 871.1903,-179.6517"/>
</g>
<!-- Node40&#45;&gt;Node22 -->
<g id="edge78" class="edge">
<title>Node40&#45;&gt;Node22</title>
<path fill="none" stroke="#191970" d="M1300.995,-224.3733C1273.0213,-214.5825 1229.7157,-199.4255 1200.2891,-189.1262"/>
<polygon fill="#191970" stroke="#191970" points="1201.1021,-185.7026 1190.5073,-185.7026 1198.7896,-192.3096 1201.1021,-185.7026"/>
</g>
<!-- Node41 -->
<g id="node42" class="node">
<title>Node41</title>
<polygon fill="none" stroke="#bfbfbf" points="1460.5,-168.5 1460.5,-187.5 1508.5,-187.5 1508.5,-168.5 1460.5,-168.5"/>
<text text-anchor="middle" x="1484.5" y="-175.5" font-family="Helvetica,sans-Serif" font-size="10.00" fill="#000000">thread</text>
</g>
<!-- Node40&#45;&gt;Node41 -->
<g id="edge80" class="edge">
<title>Node40&#45;&gt;Node41</title>
<path fill="none" stroke="#191970" d="M1355.3174,-224.3733C1381.7345,-214.8902 1422.1754,-200.3729 1450.7612,-190.1114"/>
<polygon fill="#191970" stroke="#191970" points="1452.1061,-193.3473 1460.3355,-186.6744 1449.741,-186.7589 1452.1061,-193.3473"/>
</g>
<!-- Node42&#45;&gt;Node2 -->
<g id="edge85" class="edge">
<title>Node42&#45;&gt;Node2</title>
<path fill="none" stroke="#191970" d="M1599.251,-283.6313C1521.6075,-275.1717 1381.2321,-259.4861 1261.5,-244 1256.6567,-243.3736 1251.6284,-242.7004 1246.5894,-242.01"/>
<polygon fill="#191970" stroke="#191970" points="1246.6738,-238.4882 1236.2872,-240.5785 1245.7103,-245.4216 1246.6738,-238.4882"/>
</g>
<!-- Node42&#45;&gt;Node3 -->
<g id="edge84" class="edge">
<title>Node42&#45;&gt;Node3</title>
<path fill="none" stroke="#191970" d="M1658.0702,-280.4139C1657.2406,-261.0603 1655.5,-215.9303 1655.5,-178 1655.5,-178 1655.5,-178 1655.5,-122 1655.5,-26.4607 895.6879,-12.2691 727.9921,-10.3003"/>
<polygon fill="#191970" stroke="#191970" points="727.8551,-6.7987 717.8169,-10.1876 727.7775,-13.7983 727.8551,-6.7987"/>
</g>
</g>
</svg>
