<?xml version="1.0" encoding="UTF-8" standalone="no"?>
<!DOCTYPE svg PUBLIC "-//W3C//DTD SVG 1.1//EN"
 "http://www.w3.org/Graphics/SVG/1.1/DTD/svg11.dtd">
<!-- Generated by graphviz version 2.40.1 (20161225.0304)
 -->
<!-- Title: src/engine/ui/basics/Layout.hxx Pages: 1 -->
<svg width="976pt" height="319pt"
 viewBox="0.00 0.00 976.00 319.00" xmlns="http://www.w3.org/2000/svg" xmlns:xlink="http://www.w3.org/1999/xlink">
<g id="graph0" class="graph" transform="scale(1 1) rotate(0) translate(4 315)">
<title>src/engine/ui/basics/Layout.hxx</title>
<!-- Node0 -->
<g id="node1" class="node">
<title>Node0</title>
<polygon fill="#bfbfbf" stroke="#000000" points="300.5,-280.5 300.5,-310.5 413.5,-310.5 413.5,-280.5 300.5,-280.5"/>
<text text-anchor="start" x="308.5" y="-298.5" font-family="Helvetica,sans-Serif" font-size="10.00" fill="#000000">src/engine/ui/basics</text>
<text text-anchor="middle" x="357" y="-287.5" font-family="Helvetica,sans-Serif" font-size="10.00" fill="#000000">/Layout.hxx</text>
</g>
<!-- Node1 -->
<g id="node2" class="node">
<title>Node1</title>
<g id="a_node2"><a xlink:href="UIElement_8hxx.html" target="_top" xlink:title="UIElement.hxx">
<polygon fill="none" stroke="#000000" points="312.5,-224.5 312.5,-243.5 401.5,-243.5 401.5,-224.5 312.5,-224.5"/>
<text text-anchor="middle" x="357" y="-231.5" font-family="Helvetica,sans-Serif" font-size="10.00" fill="#000000">UIElement.hxx</text>
</a>
</g>
</g>
<!-- Node0&#45;&gt;Node1 -->
<g id="edge1" class="edge">
<title>Node0&#45;&gt;Node1</title>
<path fill="none" stroke="#191970" d="M357,-280.2977C357,-272.3834 357,-262.6043 357,-254.0759"/>
<polygon fill="#191970" stroke="#191970" points="360.5001,-253.8469 357,-243.8469 353.5001,-253.847 360.5001,-253.8469"/>
</g>
<!-- Node2 -->
<g id="node3" class="node">
<title>Node2</title>
<polygon fill="none" stroke="#bfbfbf" points="167,-.5 167,-19.5 211,-19.5 211,-.5 167,-.5"/>
<text text-anchor="middle" x="189" y="-7.5" font-family="Helvetica,sans-Serif" font-size="10.00" fill="#000000">string</text>
</g>
<!-- Node0&#45;&gt;Node2 -->
<g id="edge30" class="edge">
<title>Node0&#45;&gt;Node2</title>
<path fill="none" stroke="#191970" d="M300.4323,-288.7799C199.768,-275.2324 0,-240.4768 0,-178 0,-178 0,-178 0,-122 0,-49.949 102.914,-23.247 156.8584,-14.1996"/>
<polygon fill="#191970" stroke="#191970" points="157.6123,-17.6243 166.9494,-12.6173 156.5279,-10.7088 157.6123,-17.6243"/>
</g>
<!-- Node13 -->
<g id="node14" class="node">
<title>Node13</title>
<polygon fill="none" stroke="#bfbfbf" points="628.5,-112.5 628.5,-131.5 675.5,-131.5 675.5,-112.5 628.5,-112.5"/>
<text text-anchor="middle" x="652" y="-119.5" font-family="Helvetica,sans-Serif" font-size="10.00" fill="#000000">vector</text>
</g>
<!-- Node0&#45;&gt;Node13 -->
<g id="edge31" class="edge">
<title>Node0&#45;&gt;Node13</title>
<path fill="none" stroke="#191970" d="M413.7431,-282.8059C469.6771,-267.926 554.9709,-238.6214 613,-188 627.527,-175.3274 638.1003,-155.8668 644.5433,-141.3562"/>
<polygon fill="#191970" stroke="#191970" points="647.8954,-142.4104 648.5024,-131.8329 641.4317,-139.7232 647.8954,-142.4104"/>
</g>
<!-- Node1&#45;&gt;Node2 -->
<g id="edge2" class="edge">
<title>Node1&#45;&gt;Node2</title>
<path fill="none" stroke="#191970" d="M312.2477,-230.0759C234.8517,-222.8336 82.7236,-206.4142 67,-188 44.7079,-161.8932 -16.0275,-187.0212 85,-56 102.4325,-33.392 133.3533,-21.6477 156.9627,-15.7076"/>
<polygon fill="#191970" stroke="#191970" points="157.9285,-19.0771 166.8963,-13.4354 156.3676,-12.2534 157.9285,-19.0771"/>
</g>
<!-- Node3 -->
<g id="node4" class="node">
<title>Node3</title>
<g id="a_node4"><a xlink:href="mapEdit_8hxx.html" target="_top" xlink:title="../../basics/mapEdit.hxx">
<polygon fill="none" stroke="#000000" points="76,-168.5 76,-187.5 206,-187.5 206,-168.5 76,-168.5"/>
<text text-anchor="middle" x="141" y="-175.5" font-family="Helvetica,sans-Serif" font-size="10.00" fill="#000000">../../basics/mapEdit.hxx</text>
</a>
</g>
</g>
<!-- Node1&#45;&gt;Node3 -->
<g id="edge3" class="edge">
<title>Node1&#45;&gt;Node3</title>
<path fill="none" stroke="#191970" d="M319.8683,-224.3733C283.1733,-214.8598 226.9361,-200.2797 187.3349,-190.0127"/>
<polygon fill="#191970" stroke="#191970" points="188.2056,-186.6228 177.6472,-187.5011 186.4488,-193.3988 188.2056,-186.6228"/>
</g>
<!-- Node4 -->
<g id="node5" class="node">
<title>Node4</title>
<g id="a_node5"><a xlink:href="ResourcesManager_8hxx.html" target="_top" xlink:title="../../ResourcesManager.hxx">
<polygon fill="none" stroke="#000000" points="234,-168.5 234,-187.5 380,-187.5 380,-168.5 234,-168.5"/>
<text text-anchor="middle" x="307" y="-175.5" font-family="Helvetica,sans-Serif" font-size="10.00" fill="#000000">../../ResourcesManager.hxx</text>
</a>
</g>
</g>
<!-- Node1&#45;&gt;Node4 -->
<g id="edge5" class="edge">
<title>Node1&#45;&gt;Node4</title>
<path fill="none" stroke="#191970" d="M348.2907,-224.2455C341.1927,-216.2958 330.9916,-204.8706 322.505,-195.3656"/>
<polygon fill="#191970" stroke="#191970" points="324.8805,-192.771 315.6095,-187.6427 319.6589,-197.4331 324.8805,-192.771"/>
</g>
<!-- Node7 -->
<g id="node8" class="node">
<title>Node7</title>
<polygon fill="none" stroke="#bfbfbf" points="426,-56.5 426,-75.5 470,-75.5 470,-56.5 426,-56.5"/>
<text text-anchor="middle" x="448" y="-63.5" font-family="Helvetica,sans-Serif" font-size="10.00" fill="#000000">SDL.h</text>
</g>
<!-- Node1&#45;&gt;Node7 -->
<g id="edge29" class="edge">
<title>Node1&#45;&gt;Node7</title>
<path fill="none" stroke="#191970" d="M364.327,-224.4236C371.1323,-215.3167 381.3393,-201.101 389,-188 399.9422,-169.2871 425.7018,-114.3011 439.2775,-84.958"/>
<polygon fill="#191970" stroke="#191970" points="442.5146,-86.2962 443.527,-75.7498 436.1588,-83.363 442.5146,-86.2962"/>
</g>
<!-- Node12 -->
<g id="node13" class="node">
<title>Node12</title>
<g id="a_node13"><a xlink:href="WindowManager_8hxx.html" target="_top" xlink:title="../../WindowManager.hxx">
<polygon fill="none" stroke="#000000" points="468,-168.5 468,-187.5 604,-187.5 604,-168.5 468,-168.5"/>
<text text-anchor="middle" x="536" y="-175.5" font-family="Helvetica,sans-Serif" font-size="10.00" fill="#000000">../../WindowManager.hxx</text>
</a>
</g>
</g>
<!-- Node1&#45;&gt;Node12 -->
<g id="edge17" class="edge">
<title>Node1&#45;&gt;Node12</title>
<path fill="none" stroke="#191970" d="M387.7712,-224.3733C417.665,-215.021 463.2093,-200.7725 495.9217,-190.5385"/>
<polygon fill="#191970" stroke="#191970" points="497.1315,-193.8273 505.6303,-187.5011 495.0414,-187.1466 497.1315,-193.8273"/>
</g>
<!-- Node14 -->
<g id="node15" class="node">
<title>Node14</title>
<g id="a_node15"><a xlink:href="signal_8hxx.html" target="_top" xlink:title="../../basics/signal.hxx">
<polygon fill="none" stroke="#000000" points="703.5,-168.5 703.5,-187.5 822.5,-187.5 822.5,-168.5 703.5,-168.5"/>
<text text-anchor="middle" x="763" y="-175.5" font-family="Helvetica,sans-Serif" font-size="10.00" fill="#000000">../../basics/signal.hxx</text>
</a>
</g>
</g>
<!-- Node1&#45;&gt;Node14 -->
<g id="edge23" class="edge">
<title>Node1&#45;&gt;Node14</title>
<path fill="none" stroke="#191970" d="M401.6105,-227.8468C472.079,-218.127 609.7142,-199.1429 693.3019,-187.6135"/>
<polygon fill="#191970" stroke="#191970" points="693.7915,-191.0792 703.2195,-186.2456 692.835,-184.1449 693.7915,-191.0792"/>
</g>
<!-- Node3&#45;&gt;Node2 -->
<g id="edge4" class="edge">
<title>Node3&#45;&gt;Node2</title>
<path fill="none" stroke="#191970" d="M131.6276,-168.2325C112.1774,-146.7385 71.1544,-94.2168 95,-56 108.4507,-34.4429 135.2585,-22.7107 156.8153,-16.5023"/>
<polygon fill="#191970" stroke="#191970" points="157.7966,-19.8635 166.5883,-13.9511 156.0285,-13.0905 157.7966,-19.8635"/>
</g>
<!-- Node5 -->
<g id="node6" class="node">
<title>Node5</title>
<polygon fill="none" stroke="#bfbfbf" points="436,-112.5 436,-131.5 496,-131.5 496,-112.5 436,-112.5"/>
<text text-anchor="middle" x="466" y="-119.5" font-family="Helvetica,sans-Serif" font-size="10.00" fill="#000000">iostream</text>
</g>
<!-- Node4&#45;&gt;Node5 -->
<g id="edge6" class="edge">
<title>Node4&#45;&gt;Node5</title>
<path fill="none" stroke="#191970" d="M334.3331,-168.3733C360.5434,-159.1419 400.2984,-145.1402 429.2668,-134.9375"/>
<polygon fill="#191970" stroke="#191970" points="430.7542,-138.1244 439.0236,-131.5011 428.4288,-131.5219 430.7542,-138.1244"/>
</g>
<!-- Node6 -->
<g id="node7" class="node">
<title>Node6</title>
<polygon fill="none" stroke="#bfbfbf" points="104.5,-56.5 104.5,-75.5 197.5,-75.5 197.5,-56.5 104.5,-56.5"/>
<text text-anchor="middle" x="151" y="-63.5" font-family="Helvetica,sans-Serif" font-size="10.00" fill="#000000">unordered_map</text>
</g>
<!-- Node4&#45;&gt;Node6 -->
<g id="edge7" class="edge">
<title>Node4&#45;&gt;Node6</title>
<path fill="none" stroke="#191970" d="M290.9769,-168.3835C276.1889,-159.3636 253.7491,-145.3074 235,-132 212.204,-115.8203 187.1323,-95.8137 170.367,-82.0953"/>
<polygon fill="#191970" stroke="#191970" points="172.3583,-79.2012 162.4131,-75.5483 167.9096,-84.6058 172.3583,-79.2012"/>
</g>
<!-- Node4&#45;&gt;Node7 -->
<g id="edge8" class="edge">
<title>Node4&#45;&gt;Node7</title>
<path fill="none" stroke="#191970" d="M319.0216,-168.4509C343.2671,-149.1921 398.2448,-105.5218 427.9912,-81.8935"/>
<polygon fill="#191970" stroke="#191970" points="430.3555,-84.4854 436.0088,-75.5249 426.0016,-79.0041 430.3555,-84.4854"/>
</g>
<!-- Node8 -->
<g id="node9" class="node">
<title>Node8</title>
<g id="a_node9"><a xlink:href="TileManager_8hxx.html" target="_top" xlink:title="TileManager.hxx">
<polygon fill="none" stroke="#000000" points="244.5,-112.5 244.5,-131.5 341.5,-131.5 341.5,-112.5 244.5,-112.5"/>
<text text-anchor="middle" x="293" y="-119.5" font-family="Helvetica,sans-Serif" font-size="10.00" fill="#000000">TileManager.hxx</text>
</a>
</g>
</g>
<!-- Node4&#45;&gt;Node8 -->
<g id="edge9" class="edge">
<title>Node4&#45;&gt;Node8</title>
<path fill="none" stroke="#191970" d="M304.5614,-168.2455C302.7145,-160.8579 300.1172,-150.4689 297.8522,-141.4087"/>
<polygon fill="#191970" stroke="#191970" points="301.2316,-140.4952 295.4107,-131.6427 294.4406,-142.193 301.2316,-140.4952"/>
</g>
<!-- Node8&#45;&gt;Node2 -->
<g id="edge12" class="edge">
<title>Node8&#45;&gt;Node2</title>
<path fill="none" stroke="#191970" d="M294.1422,-112.45C295.2712,-98.6153 295.3409,-72.8184 283,-56 268.1285,-35.7327 241.8743,-23.9362 220.8854,-17.3743"/>
<polygon fill="#191970" stroke="#191970" points="221.6552,-13.954 211.0776,-14.5593 219.724,-20.6824 221.6552,-13.954"/>
</g>
<!-- Node8&#45;&gt;Node6 -->
<g id="edge11" class="edge">
<title>Node8&#45;&gt;Node6</title>
<path fill="none" stroke="#191970" d="M268.5893,-112.3733C245.3858,-103.2226 210.2962,-89.3844 184.4858,-79.2057"/>
<polygon fill="#191970" stroke="#191970" points="185.6789,-75.9139 175.0921,-75.5011 183.1108,-82.4258 185.6789,-75.9139"/>
</g>
<!-- Node8&#45;&gt;Node7 -->
<g id="edge10" class="edge">
<title>Node8&#45;&gt;Node7</title>
<path fill="none" stroke="#191970" d="M319.6454,-112.3733C346.4353,-102.6944 387.7403,-87.7712 416.2217,-77.4812"/>
<polygon fill="#191970" stroke="#191970" points="417.5005,-80.7407 425.7162,-74.0509 415.1219,-74.1572 417.5005,-80.7407"/>
</g>
<!-- Node9 -->
<g id="node10" class="node">
<title>Node9</title>
<g id="a_node10"><a xlink:href="tileData_8hxx.html" target="_top" xlink:title="tileData.hxx">
<polygon fill="none" stroke="#000000" points="330.5,-56.5 330.5,-75.5 407.5,-75.5 407.5,-56.5 330.5,-56.5"/>
<text text-anchor="middle" x="369" y="-63.5" font-family="Helvetica,sans-Serif" font-size="10.00" fill="#000000">tileData.hxx</text>
</a>
</g>
</g>
<!-- Node8&#45;&gt;Node9 -->
<g id="edge13" class="edge">
<title>Node8&#45;&gt;Node9</title>
<path fill="none" stroke="#191970" d="M306.2382,-112.2455C317.681,-103.814 334.4296,-91.4729 347.7475,-81.6598"/>
<polygon fill="#191970" stroke="#191970" points="349.9391,-84.3924 355.9135,-75.6427 345.7867,-78.757 349.9391,-84.3924"/>
</g>
<!-- Node10 -->
<g id="node11" class="node">
<title>Node10</title>
<polygon fill="none" stroke="#bfbfbf" points="216,-56.5 216,-75.5 274,-75.5 274,-56.5 216,-56.5"/>
<text text-anchor="middle" x="245" y="-63.5" font-family="Helvetica,sans-Serif" font-size="10.00" fill="#000000">json.hxx</text>
</g>
<!-- Node8&#45;&gt;Node10 -->
<g id="edge15" class="edge">
<title>Node8&#45;&gt;Node10</title>
<path fill="none" stroke="#191970" d="M284.639,-112.2455C277.825,-104.2958 268.0319,-92.8706 259.8848,-83.3656"/>
<polygon fill="#191970" stroke="#191970" points="262.4305,-80.9575 253.2651,-75.6427 257.1157,-85.513 262.4305,-80.9575"/>
</g>
<!-- Node11 -->
<g id="node12" class="node">
<title>Node11</title>
<g id="a_node12"><a xlink:href="Singleton_8hxx.html" target="_top" xlink:title="Singleton.hxx">
<polygon fill="none" stroke="#000000" points="488.5,-56.5 488.5,-75.5 571.5,-75.5 571.5,-56.5 488.5,-56.5"/>
<text text-anchor="middle" x="530" y="-63.5" font-family="Helvetica,sans-Serif" font-size="10.00" fill="#000000">Singleton.hxx</text>
</a>
</g>
</g>
<!-- Node8&#45;&gt;Node11 -->
<g id="edge16" class="edge">
<title>Node8&#45;&gt;Node11</title>
<path fill="none" stroke="#191970" d="M333.4725,-112.4369C373.948,-102.8731 436.2867,-88.1432 479.8703,-77.845"/>
<polygon fill="#191970" stroke="#191970" points="480.7673,-81.2295 489.6945,-75.5237 479.1576,-74.4171 480.7673,-81.2295"/>
</g>
<!-- Node9&#45;&gt;Node2 -->
<g id="edge14" class="edge">
<title>Node9&#45;&gt;Node2</title>
<path fill="none" stroke="#191970" d="M338.0569,-56.3733C305.2633,-46.1708 253.7403,-30.1414 220.6722,-19.8536"/>
<polygon fill="#191970" stroke="#191970" points="221.6317,-16.4867 211.0434,-16.8579 219.5522,-23.1707 221.6317,-16.4867"/>
</g>
<!-- Node12&#45;&gt;Node2 -->
<g id="edge18" class="edge">
<title>Node12&#45;&gt;Node2</title>
<path fill="none" stroke="#191970" d="M545.3846,-168.209C565.7977,-145.7412 610.074,-89.8195 580,-56 556.2678,-29.3121 310.6678,-15.5403 221.2939,-11.3833"/>
<polygon fill="#191970" stroke="#191970" points="221.3433,-7.882 211.1945,-10.9238 221.025,-14.8748 221.3433,-7.882"/>
</g>
<!-- Node12&#45;&gt;Node5 -->
<g id="edge19" class="edge">
<title>Node12&#45;&gt;Node5</title>
<path fill="none" stroke="#191970" d="M523.8069,-168.2455C513.3679,-159.8943 498.1345,-147.7076 485.926,-137.9408"/>
<polygon fill="#191970" stroke="#191970" points="488.0485,-135.1566 478.0533,-131.6427 483.6756,-140.6227 488.0485,-135.1566"/>
</g>
<!-- Node12&#45;&gt;Node7 -->
<g id="edge21" class="edge">
<title>Node12&#45;&gt;Node7</title>
<path fill="none" stroke="#191970" d="M532.9948,-168.2892C528.4652,-154.71 518.9126,-129.7258 505,-112 495.7693,-100.2393 482.9947,-89.5787 471.8784,-81.4883"/>
<polygon fill="#191970" stroke="#191970" points="473.6206,-78.436 463.4182,-75.5792 469.6123,-84.1748 473.6206,-78.436"/>
</g>
<!-- Node12&#45;&gt;Node11 -->
<g id="edge22" class="edge">
<title>Node12&#45;&gt;Node11</title>
<path fill="none" stroke="#191970" d="M537.0121,-168.1401C538.1748,-155.2214 539.7152,-131.8728 538,-112 537.2524,-103.3385 535.7271,-93.8607 534.207,-85.7708"/>
<polygon fill="#191970" stroke="#191970" points="537.6069,-84.924 532.2107,-75.8064 530.7433,-86.2991 537.6069,-84.924"/>
</g>
<!-- Node12&#45;&gt;Node13 -->
<g id="edge20" class="edge">
<title>Node12&#45;&gt;Node13</title>
<path fill="none" stroke="#191970" d="M555.9411,-168.3733C574.4786,-159.4241 602.3028,-145.9917 623.2413,-135.8835"/>
<polygon fill="#191970" stroke="#191970" points="624.8352,-139.0006 632.3191,-131.5011 621.7919,-132.6967 624.8352,-139.0006"/>
</g>
<!-- Node14&#45;&gt;Node13 -->
<g id="edge27" class="edge">
<title>Node14&#45;&gt;Node13</title>
<path fill="none" stroke="#191970" d="M743.9184,-168.3733C726.2598,-159.4644 699.7947,-146.1127 679.7902,-136.0203"/>
<polygon fill="#191970" stroke="#191970" points="681.3372,-132.8806 670.8326,-131.5011 678.1842,-139.1303 681.3372,-132.8806"/>
</g>
<!-- Node15 -->
<g id="node16" class="node">
<title>Node15</title>
<polygon fill="none" stroke="#bfbfbf" points="694,-112.5 694,-131.5 752,-131.5 752,-112.5 694,-112.5"/>
<text text-anchor="middle" x="723" y="-119.5" font-family="Helvetica,sans-Serif" font-size="10.00" fill="#000000">memory</text>
</g>
<!-- Node14&#45;&gt;Node15 -->
<g id="edge24" class="edge">
<title>Node14&#45;&gt;Node15</title>
<path fill="none" stroke="#191970" d="M756.0325,-168.2455C750.4689,-160.4564 742.522,-149.3308 735.8171,-139.9439"/>
<polygon fill="#191970" stroke="#191970" points="738.5481,-137.7457 729.8876,-131.6427 732.852,-141.8144 738.5481,-137.7457"/>
</g>
<!-- Node16 -->
<g id="node17" class="node">
<title>Node16</title>
<polygon fill="none" stroke="#bfbfbf" points="770.5,-112.5 770.5,-131.5 835.5,-131.5 835.5,-112.5 770.5,-112.5"/>
<text text-anchor="middle" x="803" y="-119.5" font-family="Helvetica,sans-Serif" font-size="10.00" fill="#000000">functional</text>
</g>
<!-- Node14&#45;&gt;Node16 -->
<g id="edge25" class="edge">
<title>Node14&#45;&gt;Node16</title>
<path fill="none" stroke="#191970" d="M769.9675,-168.2455C775.5311,-160.4564 783.478,-149.3308 790.1829,-139.9439"/>
<polygon fill="#191970" stroke="#191970" points="793.148,-141.8144 796.1124,-131.6427 787.4519,-137.7457 793.148,-141.8144"/>
</g>
<!-- Node17 -->
<g id="node18" class="node">
<title>Node17</title>
<polygon fill="none" stroke="#bfbfbf" points="854,-112.5 854,-131.5 886,-131.5 886,-112.5 854,-112.5"/>
<text text-anchor="middle" x="870" y="-119.5" font-family="Helvetica,sans-Serif" font-size="10.00" fill="#000000">list</text>
</g>
<!-- Node14&#45;&gt;Node17 -->
<g id="edge26" class="edge">
<title>Node14&#45;&gt;Node17</title>
<path fill="none" stroke="#191970" d="M781.638,-168.2455C799.1328,-159.0894 825.437,-145.3227 844.7983,-135.1897"/>
<polygon fill="#191970" stroke="#191970" points="846.4393,-138.2813 853.6762,-130.5433 843.1933,-132.0793 846.4393,-138.2813"/>
</g>
<!-- Node18 -->
<g id="node19" class="node">
<title>Node18</title>
<polygon fill="none" stroke="#bfbfbf" points="904,-112.5 904,-131.5 968,-131.5 968,-112.5 904,-112.5"/>
<text text-anchor="middle" x="936" y="-119.5" font-family="Helvetica,sans-Serif" font-size="10.00" fill="#000000">algorithm</text>
</g>
<!-- Node14&#45;&gt;Node18 -->
<g id="edge28" class="edge">
<title>Node14&#45;&gt;Node18</title>
<path fill="none" stroke="#191970" d="M792.7398,-168.3733C821.507,-159.0613 865.27,-144.8953 896.8556,-134.671"/>
<polygon fill="#191970" stroke="#191970" points="898.2122,-137.9107 906.6483,-131.5011 896.0564,-131.251 898.2122,-137.9107"/>
</g>
</g>
</svg>
