<?xml version="1.0" encoding="UTF-8" standalone="no"?>
<!DOCTYPE svg PUBLIC "-//W3C//DTD SVG 1.1//EN"
 "http://www.w3.org/Graphics/SVG/1.1/DTD/svg11.dtd">
<!-- Generated by graphviz version 2.40.1 (20161225.0304)
 -->
<!-- Title: src/engine/basics/LOG.hxx Pages: 1 -->
<svg width="408pt" height="84pt"
 viewBox="0.00 0.00 408.00 84.00" xmlns="http://www.w3.org/2000/svg" xmlns:xlink="http://www.w3.org/1999/xlink">
<g id="graph0" class="graph" transform="scale(1 1) rotate(0) translate(4 80)">
<title>src/engine/basics/LOG.hxx</title>
<!-- Node0 -->
<g id="node1" class="node">
<title>Node0</title>
<polygon fill="#bfbfbf" stroke="#000000" points="129.5,-56.5 129.5,-75.5 274.5,-75.5 274.5,-56.5 129.5,-56.5"/>
<text text-anchor="middle" x="202" y="-63.5" font-family="Helvetica,sans-Serif" font-size="10.00" fill="#000000">src/engine/basics/LOG.hxx</text>
</g>
<!-- Node1 -->
<g id="node2" class="node">
<title>Node1</title>
<polygon fill="none" stroke="#bfbfbf" points="0,-.5 0,-19.5 60,-19.5 60,-.5 0,-.5"/>
<text text-anchor="middle" x="30" y="-7.5" font-family="Helvetica,sans-Serif" font-size="10.00" fill="#000000">iostream</text>
</g>
<!-- Node0&#45;&gt;Node1 -->
<g id="edge1" class="edge">
<title>Node0&#45;&gt;Node1</title>
<path fill="none" stroke="#191970" d="M172.4321,-56.3733C143.8312,-47.0613 100.3212,-32.8953 68.9181,-22.671"/>
<polygon fill="#191970" stroke="#191970" points="69.7743,-19.269 59.182,-19.5011 67.6072,-25.9251 69.7743,-19.269"/>
</g>
<!-- Node2 -->
<g id="node3" class="node">
<title>Node2</title>
<polygon fill="none" stroke="#bfbfbf" points="78,-.5 78,-19.5 128,-19.5 128,-.5 78,-.5"/>
<text text-anchor="middle" x="103" y="-7.5" font-family="Helvetica,sans-Serif" font-size="10.00" fill="#000000">chrono</text>
</g>
<!-- Node0&#45;&gt;Node2 -->
<g id="edge2" class="edge">
<title>Node0&#45;&gt;Node2</title>
<path fill="none" stroke="#191970" d="M184.7555,-56.2455C169.4239,-47.5731 146.7801,-34.7645 129.2084,-24.825"/>
<polygon fill="#191970" stroke="#191970" points="130.4741,-21.5198 120.0469,-19.6427 127.0276,-27.6126 130.4741,-21.5198"/>
</g>
<!-- Node3 -->
<g id="node4" class="node">
<title>Node3</title>
<polygon fill="none" stroke="#bfbfbf" points="146,-.5 146,-19.5 190,-19.5 190,-.5 146,-.5"/>
<text text-anchor="middle" x="168" y="-7.5" font-family="Helvetica,sans-Serif" font-size="10.00" fill="#000000">ctime</text>
</g>
<!-- Node0&#45;&gt;Node3 -->
<g id="edge3" class="edge">
<title>Node0&#45;&gt;Node3</title>
<path fill="none" stroke="#191970" d="M196.0777,-56.2455C191.3973,-48.5367 184.7327,-37.5598 179.0711,-28.2348"/>
<polygon fill="#191970" stroke="#191970" points="182.0361,-26.3741 173.8545,-19.6427 176.0525,-30.007 182.0361,-26.3741"/>
</g>
<!-- Node4 -->
<g id="node5" class="node">
<title>Node4</title>
<polygon fill="none" stroke="#bfbfbf" points="208.5,-.5 208.5,-19.5 263.5,-19.5 263.5,-.5 208.5,-.5"/>
<text text-anchor="middle" x="236" y="-7.5" font-family="Helvetica,sans-Serif" font-size="10.00" fill="#000000">fstream</text>
</g>
<!-- Node0&#45;&gt;Node4 -->
<g id="edge4" class="edge">
<title>Node0&#45;&gt;Node4</title>
<path fill="none" stroke="#191970" d="M207.9223,-56.2455C212.6027,-48.5367 219.2673,-37.5598 224.9289,-28.2348"/>
<polygon fill="#191970" stroke="#191970" points="227.9475,-30.007 230.1455,-19.6427 221.9639,-26.3741 227.9475,-30.007"/>
</g>
<!-- Node5 -->
<g id="node6" class="node">
<title>Node5</title>
<polygon fill="none" stroke="#bfbfbf" points="282,-.5 282,-19.5 338,-19.5 338,-.5 282,-.5"/>
<text text-anchor="middle" x="310" y="-7.5" font-family="Helvetica,sans-Serif" font-size="10.00" fill="#000000">sstream</text>
</g>
<!-- Node0&#45;&gt;Node5 -->
<g id="edge5" class="edge">
<title>Node0&#45;&gt;Node5</title>
<path fill="none" stroke="#191970" d="M220.8122,-56.2455C237.8473,-47.4125 263.1575,-34.2887 282.4681,-24.2758"/>
<polygon fill="#191970" stroke="#191970" points="284.137,-27.353 291.4034,-19.6427 280.9147,-21.1388 284.137,-27.353"/>
</g>
<!-- Node6 -->
<g id="node7" class="node">
<title>Node6</title>
<polygon fill="none" stroke="#bfbfbf" points="356,-.5 356,-19.5 400,-19.5 400,-.5 356,-.5"/>
<text text-anchor="middle" x="378" y="-7.5" font-family="Helvetica,sans-Serif" font-size="10.00" fill="#000000">SDL.h</text>
</g>
<!-- Node0&#45;&gt;Node6 -->
<g id="edge6" class="edge">
<title>Node0&#45;&gt;Node6</title>
<path fill="none" stroke="#191970" d="M232.2847,-56.4394C259.6798,-47.7806 301.3778,-34.5756 346.3471,-20.1992"/>
<polygon fill="#191970" stroke="#191970" points="347.5307,-23.4954 355.9888,-17.1149 345.3978,-16.8283 347.5307,-23.4954"/>
</g>
</g>
</svg>
