<?xml version="1.0" encoding="UTF-8" standalone="no"?>
<!DOCTYPE svg PUBLIC "-//W3C//DTD SVG 1.1//EN"
 "http://www.w3.org/Graphics/SVG/1.1/DTD/svg11.dtd">
<!-- Generated by graphviz version 2.40.1 (20161225.0304)
 -->
<!-- Title: src/engine/basics/LOG.hxx Pages: 1 -->
<svg width="3285pt" height="207pt"
 viewBox="0.00 0.00 3284.76 207.00" xmlns="http://www.w3.org/2000/svg" xmlns:xlink="http://www.w3.org/1999/xlink">
<g id="graph0" class="graph" transform="scale(1 1) rotate(0) translate(4 203)">
<title>src/engine/basics/LOG.hxx</title>
<!-- Node7 -->
<g id="node1" class="node">
<title>Node7</title>
<polygon fill="#bfbfbf" stroke="#000000" points="1800.5,-179.5 1800.5,-198.5 1945.5,-198.5 1945.5,-179.5 1800.5,-179.5"/>
<text text-anchor="middle" x="1873" y="-186.5" font-family="Helvetica,sans-Serif" font-size="10.00" fill="#000000">src/engine/basics/LOG.hxx</text>
</g>
<!-- Node8 -->
<g id="node2" class="node">
<title>Node8</title>
<g id="a_node2"><a xlink:href="Music_8cxx.html" target="_top" xlink:title="src/engine/audio/Music.cxx">
<polygon fill="none" stroke="#000000" points="0,-118 0,-137 148,-137 148,-118 0,-118"/>
<text text-anchor="middle" x="74" y="-125" font-family="Helvetica,sans-Serif" font-size="10.00" fill="#000000">src/engine/audio/Music.cxx</text>
</a>
</g>
</g>
<!-- Node7&#45;&gt;Node8 -->
<g id="edge1" class="edge">
<title>Node7&#45;&gt;Node8</title>
<path fill="none" stroke="#191970" d="M1789.7869,-188.5099C1491.8821,-186.4836 479.1758,-177.1847 157,-143 144.1722,-141.6389 130.3559,-139.382 117.7465,-137.006"/>
<polygon fill="#191970" stroke="#191970" points="1790.0572,-192.0117 1800.0805,-188.5789 1790.1042,-185.0118 1790.0572,-192.0117"/>
</g>
<!-- Node9 -->
<g id="node3" class="node">
<title>Node9</title>
<g id="a_node3"><a xlink:href="SoundEffect_8cxx.html" target="_top" xlink:title="src/engine/audio/SoundEffect.cxx">
<polygon fill="none" stroke="#000000" points="166,-118 166,-137 344,-137 344,-118 166,-118"/>
<text text-anchor="middle" x="255" y="-125" font-family="Helvetica,sans-Serif" font-size="10.00" fill="#000000">src/engine/audio/SoundEffect.cxx</text>
</a>
</g>
</g>
<!-- Node7&#45;&gt;Node9 -->
<g id="edge2" class="edge">
<title>Node7&#45;&gt;Node9</title>
<path fill="none" stroke="#191970" d="M1789.7391,-187.8709C1514.4955,-183.9199 635.3881,-169.4973 353,-143 338.0795,-141.6 321.9818,-139.3614 307.2304,-137.0159"/>
<polygon fill="#191970" stroke="#191970" points="1790.0057,-191.375 1800.0547,-188.0181 1790.1057,-184.3757 1790.0057,-191.375"/>
</g>
<!-- Node10 -->
<g id="node4" class="node">
<title>Node10</title>
<g id="a_node4"><a xlink:href="Settings_8cxx.html" target="_top" xlink:title="src/engine/basics/Settings.cxx">
<polygon fill="none" stroke="#000000" points="362,-118 362,-137 526,-137 526,-118 362,-118"/>
<text text-anchor="middle" x="444" y="-125" font-family="Helvetica,sans-Serif" font-size="10.00" fill="#000000">src/engine/basics/Settings.cxx</text>
</a>
</g>
</g>
<!-- Node7&#45;&gt;Node10 -->
<g id="edge3" class="edge">
<title>Node7&#45;&gt;Node10</title>
<path fill="none" stroke="#191970" d="M1789.9479,-187.6075C1537.2757,-183.1397 780.1757,-167.9806 535,-143 521.2885,-141.603 506.5197,-139.3953 492.9514,-137.0794"/>
<polygon fill="#191970" stroke="#191970" points="1790.1016,-191.1107 1800.1616,-187.7871 1790.2248,-184.1117 1790.1016,-191.1107"/>
</g>
<!-- Node11 -->
<g id="node5" class="node">
<title>Node11</title>
<g id="a_node5"><a xlink:href="Timer_8cxx.html" target="_top" xlink:title="src/engine/basics/Timer.cxx">
<polygon fill="none" stroke="#000000" points="544,-118 544,-137 696,-137 696,-118 544,-118"/>
<text text-anchor="middle" x="620" y="-125" font-family="Helvetica,sans-Serif" font-size="10.00" fill="#000000">src/engine/basics/Timer.cxx</text>
</a>
</g>
</g>
<!-- Node7&#45;&gt;Node11 -->
<g id="edge4" class="edge">
<title>Node7&#45;&gt;Node11</title>
<path fill="none" stroke="#191970" d="M1789.9722,-187.2538C1559.6036,-182.166 915.5777,-166.2291 705,-143 692.1775,-141.5855 678.3776,-139.3722 665.7039,-137.0563"/>
<polygon fill="#191970" stroke="#191970" points="1790.2233,-190.7601 1800.2979,-187.4807 1790.3772,-183.7618 1790.2233,-190.7601"/>
</g>
<!-- Node12 -->
<g id="node6" class="node">
<title>Node12</title>
<g id="a_node6"><a xlink:href="EventManager_8cxx.html" target="_top" xlink:title="src/engine/EventManager.cxx">
<polygon fill="none" stroke="#000000" points="714.5,-118 714.5,-137 873.5,-137 873.5,-118 714.5,-118"/>
<text text-anchor="middle" x="794" y="-125" font-family="Helvetica,sans-Serif" font-size="10.00" fill="#000000">src/engine/EventManager.cxx</text>
</a>
</g>
</g>
<!-- Node7&#45;&gt;Node12 -->
<g id="edge5" class="edge">
<title>Node7&#45;&gt;Node12</title>
<path fill="none" stroke="#191970" d="M1790.2969,-186.5013C1585.3485,-180.0925 1057.9196,-162.2181 883,-143 869.7484,-141.5441 855.4849,-139.3462 842.3424,-137.0595"/>
<polygon fill="#191970" stroke="#191970" points="1790.2935,-190.0028 1800.3977,-186.816 1790.5116,-183.0062 1790.2935,-190.0028"/>
</g>
<!-- Node13 -->
<g id="node7" class="node">
<title>Node13</title>
<g id="a_node7"><a xlink:href="MapNode_8cxx.html" target="_top" xlink:title="src/engine/GameObjects\l/MapNode.cxx">
<polygon fill="none" stroke="#000000" points="892,-112.5 892,-142.5 1028,-142.5 1028,-112.5 892,-112.5"/>
<text text-anchor="start" x="900" y="-130.5" font-family="Helvetica,sans-Serif" font-size="10.00" fill="#000000">src/engine/GameObjects</text>
<text text-anchor="middle" x="960" y="-119.5" font-family="Helvetica,sans-Serif" font-size="10.00" fill="#000000">/MapNode.cxx</text>
</a>
</g>
</g>
<!-- Node7&#45;&gt;Node13 -->
<g id="edge6" class="edge">
<title>Node7&#45;&gt;Node13</title>
<path fill="none" stroke="#191970" d="M1790.4395,-185.9699C1609.1542,-179.0698 1180.9924,-161.3576 1037,-143 1034.1594,-142.6378 1031.2667,-142.2308 1028.3495,-141.7887"/>
<polygon fill="#191970" stroke="#191970" points="1790.3276,-189.4681 1800.4531,-186.3496 1790.5929,-182.4731 1790.3276,-189.4681"/>
</g>
<!-- Node14 -->
<g id="node8" class="node">
<title>Node14</title>
<g id="a_node8"><a xlink:href="TerrainGenerator_8cxx.html" target="_top" xlink:title="src/engine/map/TerrainGenerator.cxx">
<polygon fill="none" stroke="#000000" points="1046,-118 1046,-137 1242,-137 1242,-118 1046,-118"/>
<text text-anchor="middle" x="1144" y="-125" font-family="Helvetica,sans-Serif" font-size="10.00" fill="#000000">src/engine/map/TerrainGenerator.cxx</text>
</a>
</g>
</g>
<!-- Node7&#45;&gt;Node14 -->
<g id="edge7" class="edge">
<title>Node7&#45;&gt;Node14</title>
<path fill="none" stroke="#191970" d="M1789.9068,-184.7096C1670.4711,-178.1218 1443.4491,-164.0292 1251,-143 1235.886,-141.3485 1219.6243,-139.1903 1204.4542,-137.0114"/>
<polygon fill="#191970" stroke="#191970" points="1789.8958,-188.2142 1800.0723,-185.2665 1790.2787,-181.2247 1789.8958,-188.2142"/>
</g>
<!-- Node15 -->
<g id="node9" class="node">
<title>Node15</title>
<g id="a_node9"><a xlink:href="Map_8cxx.html" target="_top" xlink:title="src/engine/Map.cxx">
<polygon fill="none" stroke="#000000" points="1260,-118 1260,-137 1370,-137 1370,-118 1260,-118"/>
<text text-anchor="middle" x="1315" y="-125" font-family="Helvetica,sans-Serif" font-size="10.00" fill="#000000">src/engine/Map.cxx</text>
</a>
</g>
</g>
<!-- Node7&#45;&gt;Node15 -->
<g id="edge8" class="edge">
<title>Node7&#45;&gt;Node15</title>
<path fill="none" stroke="#191970" d="M1789.9767,-184.9463C1691.435,-179.2882 1522.396,-166.9115 1379,-143 1369.6404,-141.4393 1359.6224,-139.2613 1350.3567,-137.0303"/>
<polygon fill="#191970" stroke="#191970" points="1789.988,-188.4524 1800.1695,-185.522 1790.3828,-181.4635 1789.988,-188.4524"/>
</g>
<!-- Node16 -->
<g id="node10" class="node">
<title>Node16</title>
<g id="a_node10"><a xlink:href="ResourcesManager_8cxx.html" target="_top" xlink:title="src/engine/ResourcesManager.cxx">
<polygon fill="none" stroke="#000000" points="1388.5,-118 1388.5,-137 1569.5,-137 1569.5,-118 1388.5,-118"/>
<text text-anchor="middle" x="1479" y="-125" font-family="Helvetica,sans-Serif" font-size="10.00" fill="#000000">src/engine/ResourcesManager.cxx</text>
</a>
</g>
</g>
<!-- Node7&#45;&gt;Node16 -->
<g id="edge9" class="edge">
<title>Node7&#45;&gt;Node16</title>
<path fill="none" stroke="#191970" d="M1801.897,-177.9254C1742.144,-168.6155 1654.4911,-154.9517 1578,-143 1565.6244,-141.0663 1552.379,-138.9943 1539.732,-137.0146"/>
<polygon fill="#191970" stroke="#191970" points="1801.56,-181.415 1811.9797,-179.4962 1802.6377,-174.4985 1801.56,-181.415"/>
</g>
<!-- Node17 -->
<g id="node11" class="node">
<title>Node17</title>
<g id="a_node11"><a xlink:href="Sprite_8cxx.html" target="_top" xlink:title="src/engine/Sprite.cxx">
<polygon fill="none" stroke="#000000" points="1587.5,-118 1587.5,-137 1706.5,-137 1706.5,-118 1587.5,-118"/>
<text text-anchor="middle" x="1647" y="-125" font-family="Helvetica,sans-Serif" font-size="10.00" fill="#000000">src/engine/Sprite.cxx</text>
</a>
</g>
</g>
<!-- Node7&#45;&gt;Node17 -->
<g id="edge10" class="edge">
<title>Node7&#45;&gt;Node17</title>
<path fill="none" stroke="#191970" d="M1827.7886,-176.6969C1784.8745,-165.0189 1721.2686,-147.7103 1682.0645,-137.0419"/>
<polygon fill="#191970" stroke="#191970" points="1827.1193,-180.142 1837.6875,-179.3906 1828.9574,-173.3876 1827.1193,-180.142"/>
</g>
<!-- Node18 -->
<g id="node12" class="node">
<title>Node18</title>
<g id="a_node12"><a xlink:href="TileManager_8cxx.html" target="_top" xlink:title="src/engine/TileManager.cxx">
<polygon fill="none" stroke="#000000" points="1724.5,-118 1724.5,-137 1873.5,-137 1873.5,-118 1724.5,-118"/>
<text text-anchor="middle" x="1799" y="-125" font-family="Helvetica,sans-Serif" font-size="10.00" fill="#000000">src/engine/TileManager.cxx</text>
</a>
</g>
</g>
<!-- Node7&#45;&gt;Node18 -->
<g id="edge11" class="edge">
<title>Node7&#45;&gt;Node18</title>
<path fill="none" stroke="#191970" d="M1853.5906,-172.8692C1839.9799,-161.5576 1822.2302,-146.8062 1810.7255,-137.2449"/>
<polygon fill="#191970" stroke="#191970" points="1851.5097,-175.6907 1861.4375,-179.3906 1855.9838,-170.3072 1851.5097,-175.6907"/>
</g>
<!-- Node19 -->
<g id="node13" class="node">
<title>Node19</title>
<g id="a_node13"><a xlink:href="Layout_8cxx.html" target="_top" xlink:title="src/engine/ui/basics\l/Layout.cxx">
<polygon fill="none" stroke="#000000" points="1891.5,-112.5 1891.5,-142.5 2004.5,-142.5 2004.5,-112.5 1891.5,-112.5"/>
<text text-anchor="start" x="1899.5" y="-130.5" font-family="Helvetica,sans-Serif" font-size="10.00" fill="#000000">src/engine/ui/basics</text>
<text text-anchor="middle" x="1948" y="-119.5" font-family="Helvetica,sans-Serif" font-size="10.00" fill="#000000">/Layout.cxx</text>
</a>
</g>
</g>
<!-- Node7&#45;&gt;Node19 -->
<g id="edge12" class="edge">
<title>Node7&#45;&gt;Node19</title>
<path fill="none" stroke="#191970" d="M1892.4653,-173.0385C1903.942,-163.6276 1918.3766,-151.7911 1929.6529,-142.5446"/>
<polygon fill="#191970" stroke="#191970" points="1890.2322,-170.3433 1884.7188,-179.3906 1894.6707,-175.7562 1890.2322,-170.3433"/>
</g>
<!-- Node20 -->
<g id="node14" class="node">
<title>Node20</title>
<g id="a_node14"><a xlink:href="UIElement_8cxx.html" target="_top" xlink:title="src/engine/ui/basics\l/UIElement.cxx">
<polygon fill="none" stroke="#000000" points="2022.5,-112.5 2022.5,-142.5 2135.5,-142.5 2135.5,-112.5 2022.5,-112.5"/>
<text text-anchor="start" x="2030.5" y="-130.5" font-family="Helvetica,sans-Serif" font-size="10.00" fill="#000000">src/engine/ui/basics</text>
<text text-anchor="middle" x="2079" y="-119.5" font-family="Helvetica,sans-Serif" font-size="10.00" fill="#000000">/UIElement.cxx</text>
</a>
</g>
</g>
<!-- Node7&#45;&gt;Node20 -->
<g id="edge13" class="edge">
<title>Node7&#45;&gt;Node20</title>
<path fill="none" stroke="#191970" d="M1914.951,-176.4758C1947.841,-166.6567 1993.7254,-152.9582 2028.6067,-142.5446"/>
<polygon fill="#191970" stroke="#191970" points="1913.7683,-173.1761 1905.1875,-179.3906 1915.7709,-179.8836 1913.7683,-173.1761"/>
</g>
<!-- Node21 -->
<g id="node15" class="node">
<title>Node21</title>
<g id="a_node15"><a xlink:href="Button_8cxx.html" target="_top" xlink:title="src/engine/ui/widgets\l/Button.cxx">
<polygon fill="none" stroke="#000000" points="2154,-112.5 2154,-142.5 2274,-142.5 2274,-112.5 2154,-112.5"/>
<text text-anchor="start" x="2162" y="-130.5" font-family="Helvetica,sans-Serif" font-size="10.00" fill="#000000">src/engine/ui/widgets</text>
<text text-anchor="middle" x="2214" y="-119.5" font-family="Helvetica,sans-Serif" font-size="10.00" fill="#000000">/Button.cxx</text>
</a>
</g>
</g>
<!-- Node7&#45;&gt;Node21 -->
<g id="edge14" class="edge">
<title>Node7&#45;&gt;Node21</title>
<path fill="none" stroke="#191970" d="M1944.1909,-177.909C1998.9509,-169.1377 2076.4305,-156.2071 2144,-143 2147.1762,-142.3792 2150.4292,-141.7246 2153.7108,-141.0495"/>
<polygon fill="#191970" stroke="#191970" points="1943.5612,-174.4651 1934.2379,-179.4975 1944.6645,-181.3776 1943.5612,-174.4651"/>
</g>
<!-- Node22 -->
<g id="node16" class="node">
<title>Node22</title>
<g id="a_node16"><a xlink:href="Combobox_8cxx.html" target="_top" xlink:title="src/engine/ui/widgets\l/Combobox.cxx">
<polygon fill="none" stroke="#000000" points="2292,-112.5 2292,-142.5 2412,-142.5 2412,-112.5 2292,-112.5"/>
<text text-anchor="start" x="2300" y="-130.5" font-family="Helvetica,sans-Serif" font-size="10.00" fill="#000000">src/engine/ui/widgets</text>
<text text-anchor="middle" x="2352" y="-119.5" font-family="Helvetica,sans-Serif" font-size="10.00" fill="#000000">/Combobox.cxx</text>
</a>
</g>
</g>
<!-- Node7&#45;&gt;Node22 -->
<g id="edge15" class="edge">
<title>Node7&#45;&gt;Node22</title>
<path fill="none" stroke="#191970" d="M1955.6794,-182.3956C2038.7477,-175.1338 2170.2657,-161.9281 2283,-143 2285.906,-142.5121 2288.8735,-141.9794 2291.8656,-141.4147"/>
<polygon fill="#191970" stroke="#191970" points="1955.2039,-178.9236 1945.5431,-183.2732 1955.8077,-185.8975 1955.2039,-178.9236"/>
</g>
<!-- Node23 -->
<g id="node17" class="node">
<title>Node23</title>
<g id="a_node17"><a xlink:href="Text_8cxx.html" target="_top" xlink:title="src/engine/ui/widgets\l/Text.cxx">
<polygon fill="none" stroke="#000000" points="2430,-112.5 2430,-142.5 2550,-142.5 2550,-112.5 2430,-112.5"/>
<text text-anchor="start" x="2438" y="-130.5" font-family="Helvetica,sans-Serif" font-size="10.00" fill="#000000">src/engine/ui/widgets</text>
<text text-anchor="middle" x="2490" y="-119.5" font-family="Helvetica,sans-Serif" font-size="10.00" fill="#000000">/Text.cxx</text>
</a>
</g>
</g>
<!-- Node7&#45;&gt;Node23 -->
<g id="edge16" class="edge">
<title>Node7&#45;&gt;Node23</title>
<path fill="none" stroke="#191970" d="M1955.7677,-185.5933C2063.4318,-180.3532 2257.1323,-168.1615 2421,-143 2423.9125,-142.5528 2426.8854,-142.0532 2429.8817,-141.515"/>
<polygon fill="#191970" stroke="#191970" points="1955.4423,-182.1048 1945.6211,-186.0789 1955.777,-189.0968 1955.4423,-182.1048"/>
</g>
<!-- Node24 -->
<g id="node18" class="node">
<title>Node24</title>
<g id="a_node18"><a xlink:href="UIManager_8cxx.html" target="_top" xlink:title="src/engine/UIManager.cxx">
<polygon fill="none" stroke="#000000" points="2568,-118 2568,-137 2710,-137 2710,-118 2568,-118"/>
<text text-anchor="middle" x="2639" y="-125" font-family="Helvetica,sans-Serif" font-size="10.00" fill="#000000">src/engine/UIManager.cxx</text>
</a>
</g>
</g>
<!-- Node7&#45;&gt;Node24 -->
<g id="edge17" class="edge">
<title>Node7&#45;&gt;Node24</title>
<path fill="none" stroke="#191970" d="M1955.8562,-186.7701C2085.1347,-182.5428 2342.4755,-171.1244 2559,-143 2570.7846,-141.4693 2583.4489,-139.2743 2595.1467,-137.0157"/>
<polygon fill="#191970" stroke="#191970" points="1955.5208,-183.279 1945.6382,-187.0979 1955.7453,-190.2754 1955.5208,-183.279"/>
</g>
<!-- Node25 -->
<g id="node19" class="node">
<title>Node25</title>
<g id="a_node19"><a xlink:href="WindowManager_8cxx.html" target="_top" xlink:title="src/engine/WindowManager.cxx">
<polygon fill="none" stroke="#000000" points="2728,-118 2728,-137 2898,-137 2898,-118 2728,-118"/>
<text text-anchor="middle" x="2813" y="-125" font-family="Helvetica,sans-Serif" font-size="10.00" fill="#000000">src/engine/WindowManager.cxx</text>
</a>
</g>
</g>
<!-- Node7&#45;&gt;Node25 -->
<g id="edge18" class="edge">
<title>Node7&#45;&gt;Node25</title>
<path fill="none" stroke="#191970" d="M1955.8151,-187.4929C2107.5724,-184.0658 2440.2732,-173.4659 2719,-143 2732.8112,-141.4904 2747.6794,-139.3026 2761.4239,-137.0443"/>
<polygon fill="#191970" stroke="#191970" points="1955.5638,-183.9975 1945.6437,-187.7179 1955.7187,-190.9958 1955.5638,-183.9975"/>
</g>
<!-- Node26 -->
<g id="node20" class="node">
<title>Node26</title>
<g id="a_node20"><a xlink:href="Randomizer_8hxx.html" target="_top" xlink:title="src/services/Randomizer.hxx">
<polygon fill="none" stroke="#000000" points="2954,-118 2954,-137 3110,-137 3110,-118 2954,-118"/>
<text text-anchor="middle" x="3032" y="-125" font-family="Helvetica,sans-Serif" font-size="10.00" fill="#000000">src/services/Randomizer.hxx</text>
</a>
</g>
</g>
<!-- Node7&#45;&gt;Node26 -->
<g id="edge19" class="edge">
<title>Node7&#45;&gt;Node26</title>
<path fill="none" stroke="#191970" d="M1955.5964,-186.7644C2171.5745,-180.7062 2749.525,-163.0733 2940,-143 2953.6919,-141.5571 2968.434,-139.3635 2982.0195,-137.0769"/>
<polygon fill="#191970" stroke="#191970" points="1955.4866,-183.266 1945.5883,-187.0441 1955.6822,-190.2633 1955.4866,-183.266"/>
</g>
<!-- Node27 -->
<g id="node21" class="node">
<title>Node27</title>
<g id="a_node21"><a xlink:href="Game_8hxx.html" target="_top" xlink:title="src/Game.hxx">
<polygon fill="none" stroke="#000000" points="2835,-56.5 2835,-75.5 2919,-75.5 2919,-56.5 2835,-56.5"/>
<text text-anchor="middle" x="2877" y="-63.5" font-family="Helvetica,sans-Serif" font-size="10.00" fill="#000000">src/Game.hxx</text>
</a>
</g>
</g>
<!-- Node7&#45;&gt;Node27 -->
<g id="edge25" class="edge">
<title>Node7&#45;&gt;Node27</title>
<path fill="none" stroke="#191970" d="M1955.9407,-188.3983C2195.6293,-186.2558 2874.3029,-177.184 2907,-143 2925.5443,-123.6124 2900.989,-91.4628 2886.405,-75.5407"/>
<polygon fill="#191970" stroke="#191970" points="1955.8562,-184.8988 1945.8873,-188.4864 1955.9176,-191.8985 1955.8562,-184.8988"/>
</g>
<!-- Node28 -->
<g id="node22" class="node">
<title>Node28</title>
<g id="a_node22"><a xlink:href="Game_8cxx.html" target="_top" xlink:title="src/Game.cxx">
<polygon fill="none" stroke="#000000" points="3091.5,-.5 3091.5,-19.5 3174.5,-19.5 3174.5,-.5 3091.5,-.5"/>
<text text-anchor="middle" x="3133" y="-7.5" font-family="Helvetica,sans-Serif" font-size="10.00" fill="#000000">src/Game.cxx</text>
</a>
</g>
</g>
<!-- Node7&#45;&gt;Node28 -->
<g id="edge26" class="edge">
<title>Node7&#45;&gt;Node28</title>
<path fill="none" stroke="#191970" d="M1956.0683,-188.2538C2221.2106,-185.5607 3036.6073,-174.7621 3151,-143 3210.2309,-126.554 3240.7888,-128.9587 3272,-76 3295.4651,-36.1847 3223.7371,-20.0414 3174.7594,-13.7587"/>
<polygon fill="#191970" stroke="#191970" points="1955.7036,-184.7572 1945.7393,-188.3574 1955.7739,-191.7568 1955.7036,-184.7572"/>
</g>
<!-- Node30 -->
<g id="node24" class="node">
<title>Node30</title>
<g id="a_node24"><a xlink:href="AudioMixer_8cxx.html" target="_top" xlink:title="src/services/AudioMixer.cxx">
<polygon fill="none" stroke="#000000" points="3111,-56.5 3111,-75.5 3263,-75.5 3263,-56.5 3111,-56.5"/>
<text text-anchor="middle" x="3187" y="-63.5" font-family="Helvetica,sans-Serif" font-size="10.00" fill="#000000">src/services/AudioMixer.cxx</text>
</a>
</g>
</g>
<!-- Node7&#45;&gt;Node30 -->
<g id="edge27" class="edge">
<title>Node7&#45;&gt;Node30</title>
<path fill="none" stroke="#191970" d="M1956.0442,-187.7303C2226.3213,-183.3632 3066.513,-167.8475 3119,-143 3149.7885,-128.4246 3172.4874,-92.7359 3182.0293,-75.5524"/>
<polygon fill="#191970" stroke="#191970" points="1955.8461,-184.2329 1945.9037,-187.8932 1955.9587,-191.232 1955.8461,-184.2329"/>
</g>
<!-- Node26&#45;&gt;Node27 -->
<g id="edge20" class="edge">
<title>Node26&#45;&gt;Node27</title>
<path fill="none" stroke="#191970" d="M2998.3479,-114.1477C2968.9976,-102.5023 2927.1423,-85.8952 2901.0487,-75.5419"/>
<polygon fill="#191970" stroke="#191970" points="2997.1953,-117.4558 3007.7813,-117.8906 2999.777,-110.9492 2997.1953,-117.4558"/>
</g>
<!-- Node26&#45;&gt;Node30 -->
<g id="edge23" class="edge">
<title>Node26&#45;&gt;Node30</title>
<path fill="none" stroke="#191970" d="M3065.6521,-114.1477C3095.0024,-102.5023 3136.8577,-85.8952 3162.9513,-75.5419"/>
<polygon fill="#191970" stroke="#191970" points="3064.223,-110.9492 3056.2188,-117.8906 3066.8047,-117.4558 3064.223,-110.9492"/>
</g>
<!-- Node31 -->
<g id="node25" class="node">
<title>Node31</title>
<g id="a_node25"><a xlink:href="Randomizer_8cxx.html" target="_top" xlink:title="src/services/Randomizer.cxx">
<polygon fill="none" stroke="#000000" points="2937.5,-56.5 2937.5,-75.5 3092.5,-75.5 3092.5,-56.5 2937.5,-56.5"/>
<text text-anchor="middle" x="3015" y="-63.5" font-family="Helvetica,sans-Serif" font-size="10.00" fill="#000000">src/services/Randomizer.cxx</text>
</a>
</g>
</g>
<!-- Node26&#45;&gt;Node31 -->
<g id="edge24" class="edge">
<title>Node26&#45;&gt;Node31</title>
<path fill="none" stroke="#191970" d="M3026.6328,-108.0832C3023.6577,-97.3205 3020.0873,-84.4042 3017.6937,-75.7449"/>
<polygon fill="#191970" stroke="#191970" points="3023.3059,-109.1846 3029.3438,-117.8906 3030.0529,-107.3195 3023.3059,-109.1846"/>
</g>
<!-- Node27&#45;&gt;Node28 -->
<g id="edge21" class="edge">
<title>Node27&#45;&gt;Node28</title>
<path fill="none" stroke="#191970" d="M2929.1206,-54.5986C2976.9204,-44.1424 3046.8134,-28.8533 3091.0895,-19.1679"/>
<polygon fill="#191970" stroke="#191970" points="2928.2942,-51.1965 2919.2732,-56.7527 2929.7902,-58.0348 2928.2942,-51.1965"/>
</g>
<!-- Node29 -->
<g id="node23" class="node">
<title>Node29</title>
<g id="a_node23"><a xlink:href="main_8cxx.html" target="_top" xlink:title="src/main.cxx">
<polygon fill="none" stroke="#000000" points="2837.5,-.5 2837.5,-19.5 2916.5,-19.5 2916.5,-.5 2837.5,-.5"/>
<text text-anchor="middle" x="2877" y="-7.5" font-family="Helvetica,sans-Serif" font-size="10.00" fill="#000000">src/main.cxx</text>
</a>
</g>
</g>
<!-- Node27&#45;&gt;Node29 -->
<g id="edge22" class="edge">
<title>Node27&#45;&gt;Node29</title>
<path fill="none" stroke="#191970" d="M2877,-46.1575C2877,-37.155 2877,-26.9199 2877,-19.6427"/>
<polygon fill="#191970" stroke="#191970" points="2873.5001,-46.2455 2877,-56.2455 2880.5001,-46.2456 2873.5001,-46.2455"/>
</g>
</g>
</svg>
