<?xml version="1.0" encoding="UTF-8" standalone="no"?>
<!DOCTYPE svg PUBLIC "-//W3C//DTD SVG 1.1//EN"
 "http://www.w3.org/Graphics/SVG/1.1/DTD/svg11.dtd">
<!-- Generated by graphviz version 2.40.1 (20161225.0304)
 -->
<!-- Title: src/main.cxx Pages: 1 -->
<!--zoomable 420 -->
<svg id="main" version="1.1" xmlns="http://www.w3.org/2000/svg" xmlns:xlink="http://www.w3.org/1999/xlink" xml:space="preserve" onload="init(evt)">
<style type="text/css"><![CDATA[
.edge:hover path { stroke: red; }
.edge:hover polygon { stroke: red; fill: red; }
]]></style>
<script type="text/javascript"><![CDATA[
var edges = document.getElementsByTagName('g');
if (edges && edges.length) {
  for (var i=0;i<edges.length;i++) {
    if (edges[i].id.substr(0,4)=='edge') {
      edges[i].setAttribute('class','edge');
    }
  }
}
]]></script>
        <defs>
                <circle id="rim" cx="0" cy="0" r="7"/>
                <circle id="rim2" cx="0" cy="0" r="3.5"/>
                <g id="zoomPlus">
                        <use xlink:href="#rim" fill="#404040">
                                <set attributeName="fill" to="#808080" begin="zoomplus.mouseover" end="zoomplus.mouseout"/>
                        </use>
                        <path d="M-4,0h8M0,-4v8" fill="none" stroke="white" stroke-width="1.5" pointer-events="none"/>
                </g>
                <g id="zoomMin">
                        <use xlink:href="#rim" fill="#404040">
                                <set attributeName="fill" to="#808080" begin="zoomminus.mouseover" end="zoomminus.mouseout"/>
                        </use>
                        <path d="M-4,0h8" fill="none" stroke="white" stroke-width="1.5" pointer-events="none"/>
                </g>
                <g id="dirArrow">
                        <path fill="none" stroke="white" stroke-width="1.5" d="M0,-3.0v7 M-2.5,-0.5L0,-3.0L2.5,-0.5"/>
                </g>
               <g id="resetDef">
                       <use xlink:href="#rim2" fill="#404040">
                               <set attributeName="fill" to="#808080" begin="reset.mouseover" end="reset.mouseout"/>
                       </use>
               </g>
        </defs>

<script type="text/javascript">
var viewWidth = 1161;
var viewHeight = 420;
var sectionId = 'dynsection-0';
</script>
<script xlink:href="svgpan.js"/>
<svg id="graph" class="graph">
<g id="viewport">
<title>src/main.cxx</title>
<!-- Node0 -->
<g id="node1" class="node">
<title>Node0</title>
<polygon fill="#bfbfbf" stroke="#000000" points="905.7405,-392.5 905.7405,-411.5 984.7405,-411.5 984.7405,-392.5 905.7405,-392.5"/>
<text text-anchor="middle" x="945.2405" y="-399.5" font-family="Helvetica,sans-Serif" font-size="10.00" fill="#000000">src/main.cxx</text>
</g>
<!-- Node1 -->
<g id="node2" class="node">
<title>Node1</title>
<g id="a_node2"><a xlink:href="Game_8hxx.html" target="_top" xlink:title="Game.hxx">
<polygon fill="none" stroke="#000000" points="729.7405,-336.5 729.7405,-355.5 796.7405,-355.5 796.7405,-336.5 729.7405,-336.5"/>
<text text-anchor="middle" x="763.2405" y="-343.5" font-family="Helvetica,sans-Serif" font-size="10.00" fill="#000000">Game.hxx</text>
</a>
</g>
</g>
<!-- Node0&#45;&gt;Node1 -->
<g id="edge1" class="edge">
<title>Node0&#45;&gt;Node1</title>
<path fill="none" stroke="#191970" d="M913.9536,-392.3733C883.5587,-383.021 837.2512,-368.7725 803.9905,-358.5385"/>
<polygon fill="#191970" stroke="#191970" points="804.7062,-355.0968 794.1191,-355.5011 802.6476,-361.7873 804.7062,-355.0968"/>
</g>
<!-- Node11 -->
<g id="node12" class="node">
<title>Node11</title>
<polygon fill="none" stroke="#bfbfbf" points="1085.2405,-.5 1085.2405,-19.5 1145.2405,-19.5 1145.2405,-.5 1085.2405,-.5"/>
<text text-anchor="middle" x="1115.2405" y="-7.5" font-family="Helvetica,sans-Serif" font-size="10.00" fill="#000000">iostream</text>
</g>
<!-- Node0&#45;&gt;Node11 -->
<g id="edge48" class="edge">
<title>Node0&#45;&gt;Node11</title>
<path fill="none" stroke="#191970" d="M984.8533,-398.3783C1045.2026,-390.4429 1153.2405,-365.6697 1153.2405,-290 1153.2405,-290 1153.2405,-290 1153.2405,-122 1153.2405,-87.6118 1136.9771,-50.2832 1125.7295,-28.5791"/>
<polygon fill="#191970" stroke="#191970" points="1128.6715,-26.6605 1120.8475,-19.5166 1122.5088,-29.9804 1128.6715,-26.6605"/>
</g>
<!-- Node2 -->
<g id="node3" class="node">
<title>Node2</title>
<g id="a_node3"><a xlink:href="ScriptEngine_8hxx.html" target="_top" xlink:title="Scripting/ScriptEngine.hxx">
<polygon fill="none" stroke="#000000" points="831.2405,-280.5 831.2405,-299.5 975.2405,-299.5 975.2405,-280.5 831.2405,-280.5"/>
<text text-anchor="middle" x="903.2405" y="-287.5" font-family="Helvetica,sans-Serif" font-size="10.00" fill="#000000">Scripting/ScriptEngine.hxx</text>
</a>
</g>
</g>
<!-- Node1&#45;&gt;Node2 -->
<g id="edge2" class="edge">
<title>Node1&#45;&gt;Node2</title>
<path fill="none" stroke="#191970" d="M787.3073,-336.3733C810.0833,-327.2629 844.4749,-313.5062 869.8895,-303.3404"/>
<polygon fill="#191970" stroke="#191970" points="871.5028,-306.4648 879.4877,-299.5011 868.903,-299.9654 871.5028,-306.4648"/>
</g>
<!-- Node3 -->
<g id="node4" class="node">
<title>Node3</title>
<g id="a_node4"><a xlink:href="MessageQueue_8hxx.html" target="_top" xlink:title="util/MessageQueue.hxx">
<polygon fill="none" stroke="#000000" points="213.7405,-168.5 213.7405,-187.5 344.7405,-187.5 344.7405,-168.5 213.7405,-168.5"/>
<text text-anchor="middle" x="279.2405" y="-175.5" font-family="Helvetica,sans-Serif" font-size="10.00" fill="#000000">util/MessageQueue.hxx</text>
</a>
</g>
</g>
<!-- Node1&#45;&gt;Node3 -->
<g id="edge3" class="edge">
<title>Node1&#45;&gt;Node3</title>
<path fill="none" stroke="#191970" d="M729.4958,-341.7784C684.5653,-335.57 603.0021,-322.2407 536.2405,-300 447.6534,-270.4885 349.7488,-218.0304 304.6005,-192.6117"/>
<polygon fill="#191970" stroke="#191970" points="306.2148,-189.5036 295.7895,-187.6161 302.7623,-195.593 306.2148,-189.5036"/>
</g>
<!-- Node10 -->
<g id="node11" class="node">
<title>Node10</title>
<g id="a_node11"><a xlink:href="Meta_8hxx.html" target="_top" xlink:title="util/Meta.hxx">
<polygon fill="none" stroke="#000000" points="697.2405,-56.5 697.2405,-75.5 777.2405,-75.5 777.2405,-56.5 697.2405,-56.5"/>
<text text-anchor="middle" x="737.2405" y="-63.5" font-family="Helvetica,sans-Serif" font-size="10.00" fill="#000000">util/Meta.hxx</text>
</a>
</g>
</g>
<!-- Node1&#45;&gt;Node10 -->
<g id="edge10" class="edge">
<title>Node1&#45;&gt;Node10</title>
<path fill="none" stroke="#191970" d="M759.4041,-336.2883C752.1717,-317.0769 737.2405,-272.7253 737.2405,-234 737.2405,-234 737.2405,-234 737.2405,-178 737.2405,-145.7116 737.2405,-108.1872 737.2405,-85.8048"/>
<polygon fill="#191970" stroke="#191970" points="740.7406,-85.5883 737.2405,-75.5884 733.7406,-85.5884 740.7406,-85.5883"/>
</g>
<!-- Node15 -->
<g id="node16" class="node">
<title>Node15</title>
<g id="a_node16"><a xlink:href="GameService_8hxx.html" target="_top" xlink:title="GameService.hxx">
<polygon fill="none" stroke="#000000" points="462.7405,-224.5 462.7405,-243.5 565.7405,-243.5 565.7405,-224.5 462.7405,-224.5"/>
<text text-anchor="middle" x="514.2405" y="-231.5" font-family="Helvetica,sans-Serif" font-size="10.00" fill="#000000">GameService.hxx</text>
</a>
</g>
</g>
<!-- Node1&#45;&gt;Node15 -->
<g id="edge15" class="edge">
<title>Node1&#45;&gt;Node15</title>
<path fill="none" stroke="#191970" d="M729.4129,-341.3553C679.1152,-333.9512 587.595,-318.4135 560.2405,-300 543.1072,-288.4669 530.419,-268.2358 522.7573,-253.2035"/>
<polygon fill="#191970" stroke="#191970" points="525.7326,-251.3119 518.2633,-243.7979 519.4165,-254.3298 525.7326,-251.3119"/>
</g>
<!-- Node28 -->
<g id="node29" class="node">
<title>Node28</title>
<g id="a_node29"><a xlink:href="Randomizer_8hxx.html" target="_top" xlink:title="services/Randomizer.hxx">
<polygon fill="none" stroke="#000000" points="569.7405,-280.5 569.7405,-299.5 708.7405,-299.5 708.7405,-280.5 569.7405,-280.5"/>
<text text-anchor="middle" x="639.2405" y="-287.5" font-family="Helvetica,sans-Serif" font-size="10.00" fill="#000000">services/Randomizer.hxx</text>
</a>
</g>
</g>
<!-- Node1&#45;&gt;Node28 -->
<g id="edge35" class="edge">
<title>Node1&#45;&gt;Node28</title>
<path fill="none" stroke="#191970" d="M741.9241,-336.3733C722.0189,-327.3838 692.0969,-313.8706 669.6805,-303.7471"/>
<polygon fill="#191970" stroke="#191970" points="670.833,-300.4272 660.2787,-299.5011 667.9518,-306.8068 670.833,-300.4272"/>
</g>
<!-- Node31 -->
<g id="node32" class="node">
<title>Node31</title>
<g id="a_node32"><a xlink:href="LOG_8hxx.html" target="_top" xlink:title="../engine/basics/LOG.hxx">
<polygon fill="none" stroke="#000000" points="898.7405,-224.5 898.7405,-243.5 1035.7405,-243.5 1035.7405,-224.5 898.7405,-224.5"/>
<text text-anchor="middle" x="967.2405" y="-231.5" font-family="Helvetica,sans-Serif" font-size="10.00" fill="#000000">../engine/basics/LOG.hxx</text>
</a>
</g>
</g>
<!-- Node1&#45;&gt;Node31 -->
<g id="edge46" class="edge">
<title>Node1&#45;&gt;Node31</title>
<path fill="none" stroke="#191970" d="M796.8157,-344.037C852.7054,-339.9913 960.9965,-328.5802 984.2405,-300 995.2641,-286.4456 987.9157,-266.5703 979.7214,-252.175"/>
<polygon fill="#191970" stroke="#191970" points="982.6561,-250.2665 974.3989,-243.628 976.714,-253.9668 982.6561,-250.2665"/>
</g>
<!-- Node37 -->
<g id="node38" class="node">
<title>Node37</title>
<polygon fill="none" stroke="#bfbfbf" points="765.2405,-280.5 765.2405,-299.5 813.2405,-299.5 813.2405,-280.5 765.2405,-280.5"/>
<text text-anchor="middle" x="789.2405" y="-287.5" font-family="Helvetica,sans-Serif" font-size="10.00" fill="#000000">thread</text>
</g>
<!-- Node1&#45;&gt;Node37 -->
<g id="edge47" class="edge">
<title>Node1&#45;&gt;Node37</title>
<path fill="none" stroke="#191970" d="M767.7693,-336.2455C771.2739,-328.6973 776.2332,-318.0158 780.5027,-308.8197"/>
<polygon fill="#191970" stroke="#191970" points="783.7269,-310.1867 784.7635,-299.6427 777.3778,-307.2389 783.7269,-310.1867"/>
</g>
<!-- Node4 -->
<g id="node5" class="node">
<title>Node4</title>
<polygon fill="none" stroke="#bfbfbf" points="96.7405,-112.5 96.7405,-131.5 203.7405,-131.5 203.7405,-112.5 96.7405,-112.5"/>
<text text-anchor="middle" x="150.2405" y="-119.5" font-family="Helvetica,sans-Serif" font-size="10.00" fill="#000000">condition_variable</text>
</g>
<!-- Node3&#45;&gt;Node4 -->
<g id="edge4" class="edge">
<title>Node3&#45;&gt;Node4</title>
<path fill="none" stroke="#191970" d="M257.0646,-168.3733C236.2639,-159.3435 204.9488,-145.7494 181.5946,-135.6111"/>
<polygon fill="#191970" stroke="#191970" points="182.6937,-132.2727 172.127,-131.5011 179.9062,-138.6938 182.6937,-132.2727"/>
</g>
<!-- Node5 -->
<g id="node6" class="node">
<title>Node5</title>
<polygon fill="none" stroke="#bfbfbf" points="222.2405,-112.5 222.2405,-131.5 270.2405,-131.5 270.2405,-112.5 222.2405,-112.5"/>
<text text-anchor="middle" x="246.2405" y="-119.5" font-family="Helvetica,sans-Serif" font-size="10.00" fill="#000000">mutex</text>
</g>
<!-- Node3&#45;&gt;Node5 -->
<g id="edge5" class="edge">
<title>Node3&#45;&gt;Node5</title>
<path fill="none" stroke="#191970" d="M273.4923,-168.2455C268.9969,-160.617 262.6156,-149.7881 257.158,-140.5267"/>
<polygon fill="#191970" stroke="#191970" points="260.0151,-138.4811 251.9228,-131.6427 253.9843,-142.035 260.0151,-138.4811"/>
</g>
<!-- Node6 -->
<g id="node7" class="node">
<title>Node6</title>
<polygon fill="none" stroke="#bfbfbf" points="288.7405,-112.5 288.7405,-131.5 335.7405,-131.5 335.7405,-112.5 288.7405,-112.5"/>
<text text-anchor="middle" x="312.2405" y="-119.5" font-family="Helvetica,sans-Serif" font-size="10.00" fill="#000000">deque</text>
</g>
<!-- Node3&#45;&gt;Node6 -->
<g id="edge6" class="edge">
<title>Node3&#45;&gt;Node6</title>
<path fill="none" stroke="#191970" d="M284.9886,-168.2455C289.484,-160.617 295.8653,-149.7881 301.3229,-140.5267"/>
<polygon fill="#191970" stroke="#191970" points="304.4966,-142.035 306.5582,-131.6427 298.4658,-138.4811 304.4966,-142.035"/>
</g>
<!-- Node7 -->
<g id="node8" class="node">
<title>Node7</title>
<polygon fill="none" stroke="#bfbfbf" points="353.7405,-112.5 353.7405,-131.5 400.7405,-131.5 400.7405,-112.5 353.7405,-112.5"/>
<text text-anchor="middle" x="377.2405" y="-119.5" font-family="Helvetica,sans-Serif" font-size="10.00" fill="#000000">vector</text>
</g>
<!-- Node3&#45;&gt;Node7 -->
<g id="edge7" class="edge">
<title>Node3&#45;&gt;Node7</title>
<path fill="none" stroke="#191970" d="M296.3108,-168.2455C311.4875,-159.5731 333.9026,-146.7645 351.2968,-136.825"/>
<polygon fill="#191970" stroke="#191970" points="353.4199,-139.643 360.3658,-131.6427 349.9468,-133.5653 353.4199,-139.643"/>
</g>
<!-- Node8 -->
<g id="node9" class="node">
<title>Node8</title>
<polygon fill="none" stroke="#bfbfbf" points="13.7405,-112.5 13.7405,-131.5 78.7405,-131.5 78.7405,-112.5 13.7405,-112.5"/>
<text text-anchor="middle" x="46.2405" y="-119.5" font-family="Helvetica,sans-Serif" font-size="10.00" fill="#000000">functional</text>
</g>
<!-- Node3&#45;&gt;Node8 -->
<g id="edge8" class="edge">
<title>Node3&#45;&gt;Node8</title>
<path fill="none" stroke="#191970" d="M239.146,-168.4443C202.4202,-159.6803 146.2757,-146.2542 88.8813,-132.3908"/>
<polygon fill="#191970" stroke="#191970" points="89.4536,-128.9284 78.9112,-129.9812 87.8091,-135.7325 89.4536,-128.9284"/>
</g>
<!-- Node9 -->
<g id="node10" class="node">
<title>Node9</title>
<polygon fill="none" stroke="#bfbfbf" points="162.2405,-56.5 162.2405,-75.5 216.2405,-75.5 216.2405,-56.5 162.2405,-56.5"/>
<text text-anchor="middle" x="189.2405" y="-63.5" font-family="Helvetica,sans-Serif" font-size="10.00" fill="#000000">ciso646</text>
</g>
<!-- Node3&#45;&gt;Node9 -->
<g id="edge9" class="edge">
<title>Node3&#45;&gt;Node9</title>
<path fill="none" stroke="#191970" d="M213.5181,-171.4506C136.5121,-163.1014 17.6508,-147.8398 4.2405,-132 -1.5031,-125.2159 -1.2343,-119.0028 4.2405,-112 22.2343,-88.9841 103.3945,-75.836 152.0403,-69.8915"/>
<polygon fill="#191970" stroke="#191970" points="152.6628,-73.3425 162.1855,-68.6983 151.8451,-66.3904 152.6628,-73.3425"/>
</g>
<!-- Node10&#45;&gt;Node11 -->
<g id="edge11" class="edge">
<title>Node10&#45;&gt;Node11</title>
<path fill="none" stroke="#191970" d="M777.3134,-57.6098C780.3302,-57.0432 783.3311,-56.4998 786.2405,-56 889.9445,-38.186 1012.9354,-22.3995 1075.0505,-14.7984"/>
<polygon fill="#191970" stroke="#191970" points="1075.7002,-18.2453 1085.2041,-13.5626 1074.8544,-11.2965 1075.7002,-18.2453"/>
</g>
<!-- Node12 -->
<g id="node13" class="node">
<title>Node12</title>
<polygon fill="none" stroke="#bfbfbf" points="620.7405,-.5 620.7405,-19.5 689.7405,-19.5 689.7405,-.5 620.7405,-.5"/>
<text text-anchor="middle" x="655.2405" y="-7.5" font-family="Helvetica,sans-Serif" font-size="10.00" fill="#000000">type_traits</text>
</g>
<!-- Node10&#45;&gt;Node12 -->
<g id="edge12" class="edge">
<title>Node10&#45;&gt;Node12</title>
<path fill="none" stroke="#191970" d="M722.9572,-56.2455C710.4934,-47.7337 692.1954,-35.2375 677.7613,-25.3801"/>
<polygon fill="#191970" stroke="#191970" points="679.592,-22.392 669.3601,-19.6427 675.6443,-28.1726 679.592,-22.392"/>
</g>
<!-- Node13 -->
<g id="node14" class="node">
<title>Node13</title>
<polygon fill="none" stroke="#bfbfbf" points="784.7405,-.5 784.7405,-19.5 835.7405,-19.5 835.7405,-.5 784.7405,-.5"/>
<text text-anchor="middle" x="810.2405" y="-7.5" font-family="Helvetica,sans-Serif" font-size="10.00" fill="#000000">variant</text>
</g>
<!-- Node10&#45;&gt;Node13 -->
<g id="edge13" class="edge">
<title>Node10&#45;&gt;Node13</title>
<path fill="none" stroke="#191970" d="M749.9561,-56.2455C760.8425,-47.8943 776.7288,-35.7076 789.4605,-25.9408"/>
<polygon fill="#191970" stroke="#191970" points="791.8665,-28.5063 797.6706,-19.6427 787.6059,-22.9523 791.8665,-28.5063"/>
</g>
<!-- Node14 -->
<g id="node15" class="node">
<title>Node14</title>
<polygon fill="none" stroke="#bfbfbf" points="853.7405,-.5 853.7405,-19.5 894.7405,-19.5 894.7405,-.5 853.7405,-.5"/>
<text text-anchor="middle" x="874.2405" y="-7.5" font-family="Helvetica,sans-Serif" font-size="10.00" fill="#000000">tuple</text>
</g>
<!-- Node10&#45;&gt;Node14 -->
<g id="edge14" class="edge">
<title>Node10&#45;&gt;Node14</title>
<path fill="none" stroke="#191970" d="M760.7916,-56.3733C783.89,-46.9316 819.1968,-32.4996 844.2814,-22.246"/>
<polygon fill="#191970" stroke="#191970" points="845.7458,-25.4286 853.6781,-18.4051 843.0972,-18.949 845.7458,-25.4286"/>
</g>
<!-- Node15&#45;&gt;Node3 -->
<g id="edge33" class="edge">
<title>Node15&#45;&gt;Node3</title>
<path fill="none" stroke="#191970" d="M474.1095,-224.4369C433.9756,-214.8731 372.163,-200.1432 328.9472,-189.845"/>
<polygon fill="#191970" stroke="#191970" points="329.7448,-186.4372 319.2059,-187.5237 328.1221,-193.2465 329.7448,-186.4372"/>
</g>
<!-- Node16 -->
<g id="node17" class="node">
<title>Node16</title>
<g id="a_node17"><a xlink:href="Events_8hxx.html" target="_top" xlink:title="Events.hxx">
<polygon fill="none" stroke="#000000" points="614.7405,-168.5 614.7405,-187.5 685.7405,-187.5 685.7405,-168.5 614.7405,-168.5"/>
<text text-anchor="middle" x="650.2405" y="-175.5" font-family="Helvetica,sans-Serif" font-size="10.00" fill="#000000">Events.hxx</text>
</a>
</g>
</g>
<!-- Node15&#45;&gt;Node16 -->
<g id="edge16" class="edge">
<title>Node15&#45;&gt;Node16</title>
<path fill="none" stroke="#191970" d="M537.6197,-224.3733C559.7449,-215.2629 593.1539,-201.5062 617.8424,-191.3404"/>
<polygon fill="#191970" stroke="#191970" points="619.2522,-194.5451 627.1663,-187.5011 616.5869,-188.0723 619.2522,-194.5451"/>
</g>
<!-- Node27 -->
<g id="node28" class="node">
<title>Node27</title>
<g id="a_node28"><a xlink:href="GameService_8inl_8hxx.html" target="_top" xlink:title="GameService.inl.hxx">
<polygon fill="none" stroke="#000000" points="455.2405,-168.5 455.2405,-187.5 573.2405,-187.5 573.2405,-168.5 455.2405,-168.5"/>
<text text-anchor="middle" x="514.2405" y="-175.5" font-family="Helvetica,sans-Serif" font-size="10.00" fill="#000000">GameService.inl.hxx</text>
</a>
</g>
</g>
<!-- Node15&#45;&gt;Node27 -->
<g id="edge34" class="edge">
<title>Node15&#45;&gt;Node27</title>
<path fill="none" stroke="#191970" d="M514.2405,-224.2455C514.2405,-216.9382 514.2405,-206.6944 514.2405,-197.7046"/>
<polygon fill="#191970" stroke="#191970" points="517.7406,-197.6426 514.2405,-187.6427 510.7406,-197.6427 517.7406,-197.6426"/>
</g>
<!-- Node16&#45;&gt;Node10 -->
<g id="edge19" class="edge">
<title>Node16&#45;&gt;Node10</title>
<path fill="none" stroke="#191970" d="M657.658,-168.4509C672.297,-149.6054 705.0933,-107.3849 723.6919,-83.4419"/>
<polygon fill="#191970" stroke="#191970" points="726.4712,-85.5693 729.8417,-75.5249 720.943,-81.2751 726.4712,-85.5693"/>
</g>
<!-- Node17 -->
<g id="node18" class="node">
<title>Node17</title>
<polygon fill="none" stroke="#bfbfbf" points="929.2405,-56.5 929.2405,-75.5 973.2405,-75.5 973.2405,-56.5 929.2405,-56.5"/>
<text text-anchor="middle" x="951.2405" y="-63.5" font-family="Helvetica,sans-Serif" font-size="10.00" fill="#000000">string</text>
</g>
<!-- Node16&#45;&gt;Node17 -->
<g id="edge17" class="edge">
<title>Node16&#45;&gt;Node17</title>
<path fill="none" stroke="#191970" d="M685.907,-174.3224C757.6223,-166.6231 914.0183,-148.1797 932.2405,-132 945.1717,-120.5182 949.5493,-100.8629 950.9146,-85.9803"/>
<polygon fill="#191970" stroke="#191970" points="954.4229,-85.9173 951.4633,-75.7443 947.433,-85.5426 954.4229,-85.9173"/>
</g>
<!-- Node18 -->
<g id="node19" class="node">
<title>Node18</title>
<polygon fill="none" stroke="#bfbfbf" points="419.2405,-112.5 419.2405,-131.5 519.2405,-131.5 519.2405,-112.5 419.2405,-112.5"/>
<text text-anchor="middle" x="469.2405" y="-119.5" font-family="Helvetica,sans-Serif" font-size="10.00" fill="#000000">betterEnums.hxx</text>
</g>
<!-- Node16&#45;&gt;Node18 -->
<g id="edge18" class="edge">
<title>Node16&#45;&gt;Node18</title>
<path fill="none" stroke="#191970" d="M619.1255,-168.3733C588.8976,-159.021 542.8445,-144.7725 509.7666,-134.5385"/>
<polygon fill="#191970" stroke="#191970" points="510.5372,-131.1133 499.9495,-131.5011 508.4682,-137.8005 510.5372,-131.1133"/>
</g>
<!-- Node19 -->
<g id="node20" class="node">
<title>Node19</title>
<g id="a_node20"><a xlink:href="TransitiveModel_8hxx.html" target="_top" xlink:title="util/TransitiveModel.hxx">
<polygon fill="none" stroke="#000000" points="537.7405,-112.5 537.7405,-131.5 670.7405,-131.5 670.7405,-112.5 537.7405,-112.5"/>
<text text-anchor="middle" x="604.2405" y="-119.5" font-family="Helvetica,sans-Serif" font-size="10.00" fill="#000000">util/TransitiveModel.hxx</text>
</a>
</g>
</g>
<!-- Node16&#45;&gt;Node19 -->
<g id="edge20" class="edge">
<title>Node16&#45;&gt;Node19</title>
<path fill="none" stroke="#191970" d="M642.2279,-168.2455C635.7637,-160.3761 626.502,-149.101 618.7421,-139.6542"/>
<polygon fill="#191970" stroke="#191970" points="621.2132,-137.1484 612.1612,-131.6427 615.8041,-141.5916 621.2132,-137.1484"/>
</g>
<!-- Node25 -->
<g id="node26" class="node">
<title>Node25</title>
<g id="a_node26"><a xlink:href="Soundtrack_8hxx.html" target="_top" xlink:title="engine/audio/Soundtrack.hxx">
<polygon fill="none" stroke="#000000" points="765.2405,-112.5 765.2405,-131.5 923.2405,-131.5 923.2405,-112.5 765.2405,-112.5"/>
<text text-anchor="middle" x="844.2405" y="-119.5" font-family="Helvetica,sans-Serif" font-size="10.00" fill="#000000">engine/audio/Soundtrack.hxx</text>
</a>
</g>
</g>
<!-- Node16&#45;&gt;Node25 -->
<g id="edge28" class="edge">
<title>Node16&#45;&gt;Node25</title>
<path fill="none" stroke="#191970" d="M683.5903,-168.3733C716.2685,-158.9404 766.2023,-144.5265 801.7174,-134.2747"/>
<polygon fill="#191970" stroke="#191970" points="802.6888,-137.6373 811.3259,-131.5011 800.7474,-130.9119 802.6888,-137.6373"/>
</g>
<!-- Node19&#45;&gt;Node9 -->
<g id="edge27" class="edge">
<title>Node19&#45;&gt;Node9</title>
<path fill="none" stroke="#191970" d="M537.5635,-113.0026C449.2998,-101.0923 296.6705,-80.4966 226.4974,-71.0274"/>
<polygon fill="#191970" stroke="#191970" points="226.7404,-67.5286 216.3622,-69.6598 225.8043,-74.4657 226.7404,-67.5286"/>
</g>
<!-- Node19&#45;&gt;Node10 -->
<g id="edge21" class="edge">
<title>Node19&#45;&gt;Node10</title>
<path fill="none" stroke="#191970" d="M627.104,-112.3733C648.6454,-103.3032 681.1242,-89.6279 705.2361,-79.4755"/>
<polygon fill="#191970" stroke="#191970" points="706.8172,-82.6075 714.6753,-75.5011 704.1007,-76.156 706.8172,-82.6075"/>
</g>
<!-- Node20 -->
<g id="node21" class="node">
<title>Node20</title>
<g id="a_node21"><a xlink:href="Observer_8hxx.html" target="_top" xlink:title="Observer.hxx">
<polygon fill="none" stroke="#000000" points="597.7405,-56.5 597.7405,-75.5 678.7405,-75.5 678.7405,-56.5 597.7405,-56.5"/>
<text text-anchor="middle" x="638.2405" y="-63.5" font-family="Helvetica,sans-Serif" font-size="10.00" fill="#000000">Observer.hxx</text>
</a>
</g>
</g>
<!-- Node19&#45;&gt;Node20 -->
<g id="edge22" class="edge">
<title>Node19&#45;&gt;Node20</title>
<path fill="none" stroke="#191970" d="M610.1628,-112.2455C614.8432,-104.5367 621.5077,-93.5598 627.1693,-84.2348"/>
<polygon fill="#191970" stroke="#191970" points="630.1879,-86.007 632.386,-75.6427 624.2044,-82.3741 630.1879,-86.007"/>
</g>
<!-- Node23 -->
<g id="node24" class="node">
<title>Node23</title>
<polygon fill="none" stroke="#bfbfbf" points="437.2405,-56.5 437.2405,-75.5 523.2405,-75.5 523.2405,-56.5 437.2405,-56.5"/>
<text text-anchor="middle" x="480.2405" y="-63.5" font-family="Helvetica,sans-Serif" font-size="10.00" fill="#000000">unordered_set</text>
</g>
<!-- Node19&#45;&gt;Node23 -->
<g id="edge25" class="edge">
<title>Node19&#45;&gt;Node23</title>
<path fill="none" stroke="#191970" d="M582.9241,-112.3733C563.0189,-103.3838 533.0969,-89.8706 510.6805,-79.7471"/>
<polygon fill="#191970" stroke="#191970" points="511.833,-76.4272 501.2787,-75.5011 508.9518,-82.8068 511.833,-76.4272"/>
</g>
<!-- Node24 -->
<g id="node25" class="node">
<title>Node24</title>
<polygon fill="none" stroke="#bfbfbf" points="541.2405,-56.5 541.2405,-75.5 579.2405,-75.5 579.2405,-56.5 541.2405,-56.5"/>
<text text-anchor="middle" x="560.2405" y="-63.5" font-family="Helvetica,sans-Serif" font-size="10.00" fill="#000000">map</text>
</g>
<!-- Node19&#45;&gt;Node24 -->
<g id="edge26" class="edge">
<title>Node19&#45;&gt;Node24</title>
<path fill="none" stroke="#191970" d="M596.5763,-112.2455C590.3931,-104.3761 581.5341,-93.101 574.1116,-83.6542"/>
<polygon fill="#191970" stroke="#191970" points="576.7472,-81.3435 567.8169,-75.6427 571.243,-85.6683 576.7472,-81.3435"/>
</g>
<!-- Node21 -->
<g id="node22" class="node">
<title>Node21</title>
<polygon fill="none" stroke="#bfbfbf" points="708.2405,-.5 708.2405,-19.5 766.2405,-19.5 766.2405,-.5 708.2405,-.5"/>
<text text-anchor="middle" x="737.2405" y="-7.5" font-family="Helvetica,sans-Serif" font-size="10.00" fill="#000000">memory</text>
</g>
<!-- Node20&#45;&gt;Node21 -->
<g id="edge23" class="edge">
<title>Node20&#45;&gt;Node21</title>
<path fill="none" stroke="#191970" d="M655.485,-56.2455C670.8166,-47.5731 693.4604,-34.7645 711.032,-24.825"/>
<polygon fill="#191970" stroke="#191970" points="713.2128,-27.6126 720.1936,-19.6427 709.7664,-21.5198 713.2128,-27.6126"/>
</g>
<!-- Node22 -->
<g id="node23" class="node">
<title>Node22</title>
<polygon fill="none" stroke="#bfbfbf" points="528.2405,-.5 528.2405,-19.5 602.2405,-19.5 602.2405,-.5 528.2405,-.5"/>
<text text-anchor="middle" x="565.2405" y="-7.5" font-family="Helvetica,sans-Serif" font-size="10.00" fill="#000000">forward_list</text>
</g>
<!-- Node20&#45;&gt;Node22 -->
<g id="edge24" class="edge">
<title>Node20&#45;&gt;Node22</title>
<path fill="none" stroke="#191970" d="M625.5248,-56.2455C614.6384,-47.8943 598.7522,-35.7076 586.0205,-25.9408"/>
<polygon fill="#191970" stroke="#191970" points="587.875,-22.9523 577.8104,-19.6427 583.6144,-28.5063 587.875,-22.9523"/>
</g>
<!-- Node25&#45;&gt;Node10 -->
<g id="edge32" class="edge">
<title>Node25&#45;&gt;Node10</title>
<path fill="none" stroke="#191970" d="M825.6025,-112.2455C808.8018,-103.4527 783.877,-90.4079 764.7787,-80.4125"/>
<polygon fill="#191970" stroke="#191970" points="766.1478,-77.1787 755.6649,-75.6427 762.9019,-83.3807 766.1478,-77.1787"/>
</g>
<!-- Node25&#45;&gt;Node17 -->
<g id="edge31" class="edge">
<title>Node25&#45;&gt;Node17</title>
<path fill="none" stroke="#191970" d="M862.8785,-112.2455C879.6791,-103.4527 904.6039,-90.4079 923.7023,-80.4125"/>
<polygon fill="#191970" stroke="#191970" points="925.5791,-83.3807 932.8161,-75.6427 922.3332,-77.1787 925.5791,-83.3807"/>
</g>
<!-- Node25&#45;&gt;Node21 -->
<g id="edge29" class="edge">
<title>Node25&#45;&gt;Node21</title>
<path fill="none" stroke="#191970" d="M856.8119,-112.4189C872.6053,-99.2065 896.062,-74.8851 882.2405,-56 878.9734,-51.536 817.8589,-33.2075 776.0256,-21.0772"/>
<polygon fill="#191970" stroke="#191970" points="776.9544,-17.7025 766.3759,-18.2896 775.0117,-24.4275 776.9544,-17.7025"/>
</g>
<!-- Node26 -->
<g id="node27" class="node">
<title>Node26</title>
<polygon fill="none" stroke="#bfbfbf" points="795.7405,-56.5 795.7405,-75.5 872.7405,-75.5 872.7405,-56.5 795.7405,-56.5"/>
<text text-anchor="middle" x="834.2405" y="-63.5" font-family="Helvetica,sans-Serif" font-size="10.00" fill="#000000">SDL_mixer.h</text>
</g>
<!-- Node25&#45;&gt;Node26 -->
<g id="edge30" class="edge">
<title>Node25&#45;&gt;Node26</title>
<path fill="none" stroke="#191970" d="M842.4986,-112.2455C841.1937,-104.9382 839.3645,-94.6944 837.7592,-85.7046"/>
<polygon fill="#191970" stroke="#191970" points="841.1659,-84.8717 835.9624,-75.6427 834.2749,-86.1022 841.1659,-84.8717"/>
</g>
<!-- Node28&#45;&gt;Node15 -->
<g id="edge38" class="edge">
<title>Node28&#45;&gt;Node15</title>
<path fill="none" stroke="#191970" d="M617.7522,-280.3733C597.5965,-271.3435 567.2524,-257.7494 544.6224,-247.6111"/>
<polygon fill="#191970" stroke="#191970" points="546.0054,-244.3955 535.4483,-243.5011 543.1434,-250.7838 546.0054,-244.3955"/>
</g>
<!-- Node29 -->
<g id="node30" class="node">
<title>Node29</title>
<polygon fill="none" stroke="#bfbfbf" points="655.2405,-224.5 655.2405,-243.5 709.2405,-243.5 709.2405,-224.5 655.2405,-224.5"/>
<text text-anchor="middle" x="682.2405" y="-231.5" font-family="Helvetica,sans-Serif" font-size="10.00" fill="#000000">random</text>
</g>
<!-- Node28&#45;&gt;Node29 -->
<g id="edge36" class="edge">
<title>Node28&#45;&gt;Node29</title>
<path fill="none" stroke="#191970" d="M646.7305,-280.2455C652.7731,-272.3761 661.4308,-261.101 668.6846,-251.6542"/>
<polygon fill="#191970" stroke="#191970" points="671.522,-253.7058 674.8363,-243.6427 665.9699,-249.4426 671.522,-253.7058"/>
</g>
<!-- Node30 -->
<g id="node31" class="node">
<title>Node30</title>
<polygon fill="none" stroke="#bfbfbf" points="583.7405,-224.5 583.7405,-243.5 636.7405,-243.5 636.7405,-224.5 583.7405,-224.5"/>
<text text-anchor="middle" x="610.2405" y="-231.5" font-family="Helvetica,sans-Serif" font-size="10.00" fill="#000000">iterator</text>
</g>
<!-- Node28&#45;&gt;Node30 -->
<g id="edge37" class="edge">
<title>Node28&#45;&gt;Node30</title>
<path fill="none" stroke="#191970" d="M634.1891,-280.2455C630.2386,-272.617 624.6308,-261.7881 619.8347,-252.5267"/>
<polygon fill="#191970" stroke="#191970" points="622.9406,-250.9131 615.234,-243.6427 616.7246,-254.1321 622.9406,-250.9131"/>
</g>
<!-- Node28&#45;&gt;Node31 -->
<g id="edge39" class="edge">
<title>Node28&#45;&gt;Node31</title>
<path fill="none" stroke="#191970" d="M695.253,-280.4369C752.3311,-270.6918 840.8246,-255.5832 901.2629,-245.2645"/>
<polygon fill="#191970" stroke="#191970" points="902.1907,-248.6568 911.459,-243.5237 901.0125,-241.7566 902.1907,-248.6568"/>
</g>
<!-- Node31&#45;&gt;Node11 -->
<g id="edge40" class="edge">
<title>Node31&#45;&gt;Node11</title>
<path fill="none" stroke="#191970" d="M1008.2754,-224.4208C1041.6765,-215.7497 1085.0571,-202.1944 1096.2405,-188 1132.8598,-141.5211 1125.519,-65.7201 1119.3515,-29.9213"/>
<polygon fill="#191970" stroke="#191970" points="1122.7346,-28.9731 1117.4475,-19.7917 1115.8551,-30.2662 1122.7346,-28.9731"/>
</g>
<!-- Node32 -->
<g id="node33" class="node">
<title>Node32</title>
<polygon fill="none" stroke="#bfbfbf" points="975.2405,-168.5 975.2405,-187.5 1025.2405,-187.5 1025.2405,-168.5 975.2405,-168.5"/>
<text text-anchor="middle" x="1000.2405" y="-175.5" font-family="Helvetica,sans-Serif" font-size="10.00" fill="#000000">chrono</text>
</g>
<!-- Node31&#45;&gt;Node32 -->
<g id="edge41" class="edge">
<title>Node31&#45;&gt;Node32</title>
<path fill="none" stroke="#191970" d="M972.9886,-224.2455C977.484,-216.617 983.8653,-205.7881 989.3229,-196.5267"/>
<polygon fill="#191970" stroke="#191970" points="992.4966,-198.035 994.5582,-187.6427 986.4658,-194.4811 992.4966,-198.035"/>
</g>
<!-- Node33 -->
<g id="node34" class="node">
<title>Node33</title>
<polygon fill="none" stroke="#bfbfbf" points="1043.2405,-168.5 1043.2405,-187.5 1087.2405,-187.5 1087.2405,-168.5 1043.2405,-168.5"/>
<text text-anchor="middle" x="1065.2405" y="-175.5" font-family="Helvetica,sans-Serif" font-size="10.00" fill="#000000">ctime</text>
</g>
<!-- Node31&#45;&gt;Node33 -->
<g id="edge42" class="edge">
<title>Node31&#45;&gt;Node33</title>
<path fill="none" stroke="#191970" d="M984.3108,-224.2455C999.4875,-215.5731 1021.9026,-202.7645 1039.2968,-192.825"/>
<polygon fill="#191970" stroke="#191970" points="1041.4199,-195.643 1048.3658,-187.6427 1037.9468,-189.5653 1041.4199,-195.643"/>
</g>
<!-- Node34 -->
<g id="node35" class="node">
<title>Node34</title>
<polygon fill="none" stroke="#bfbfbf" points="765.7405,-168.5 765.7405,-187.5 820.7405,-187.5 820.7405,-168.5 765.7405,-168.5"/>
<text text-anchor="middle" x="793.2405" y="-175.5" font-family="Helvetica,sans-Serif" font-size="10.00" fill="#000000">fstream</text>
</g>
<!-- Node31&#45;&gt;Node34 -->
<g id="edge43" class="edge">
<title>Node31&#45;&gt;Node34</title>
<path fill="none" stroke="#191970" d="M937.3288,-224.3733C907.7815,-214.8638 862.5052,-200.2921 830.6063,-190.0258"/>
<polygon fill="#191970" stroke="#191970" points="831.348,-186.5877 820.7565,-186.8557 829.2034,-193.2511 831.348,-186.5877"/>
</g>
<!-- Node35 -->
<g id="node36" class="node">
<title>Node35</title>
<polygon fill="none" stroke="#bfbfbf" points="839.2405,-168.5 839.2405,-187.5 895.2405,-187.5 895.2405,-168.5 839.2405,-168.5"/>
<text text-anchor="middle" x="867.2405" y="-175.5" font-family="Helvetica,sans-Serif" font-size="10.00" fill="#000000">sstream</text>
</g>
<!-- Node31&#45;&gt;Node35 -->
<g id="edge44" class="edge">
<title>Node31&#45;&gt;Node35</title>
<path fill="none" stroke="#191970" d="M949.8218,-224.2455C934.1919,-215.4928 911.0386,-202.527 893.2219,-192.5496"/>
<polygon fill="#191970" stroke="#191970" points="894.8947,-189.475 884.4595,-187.6427 891.4745,-195.5825 894.8947,-189.475"/>
</g>
<!-- Node36 -->
<g id="node37" class="node">
<title>Node36</title>
<polygon fill="none" stroke="#bfbfbf" points="913.2405,-168.5 913.2405,-187.5 957.2405,-187.5 957.2405,-168.5 913.2405,-168.5"/>
<text text-anchor="middle" x="935.2405" y="-175.5" font-family="Helvetica,sans-Serif" font-size="10.00" fill="#000000">SDL.h</text>
</g>
<!-- Node31&#45;&gt;Node36 -->
<g id="edge45" class="edge">
<title>Node31&#45;&gt;Node36</title>
<path fill="none" stroke="#191970" d="M961.6665,-224.2455C957.3073,-216.617 951.1194,-205.7881 945.8272,-196.5267"/>
<polygon fill="#191970" stroke="#191970" points="948.7509,-194.5886 940.7506,-187.6427 942.6732,-198.0616 948.7509,-194.5886"/>
</g>
</g>
</svg>
        <g id="navigator" transform="translate(0 0)" fill="#404254">
                <rect fill="#f2f5e9" fill-opacity="0.5" stroke="#606060" stroke-width=".5" x="0" y="0" width="60" height="60"/>
                <use id="zoomplus" xlink:href="#zoomPlus" x="17" y="9" onmousedown="handleZoom(evt,'in')"/>
                <use id="zoomminus" xlink:href="#zoomMin" x="42" y="9" onmousedown="handleZoom(evt,'out')"/>
                <use id="reset" xlink:href="#resetDef" x="30" y="36" onmousedown="handleReset()"/>
                <g id="arrowUp" xlink:href="#dirArrow" transform="translate(30 24)" onmousedown="handlePan(0,-1)">
                  <use xlink:href="#rim" fill="#404040">
                        <set attributeName="fill" to="#808080" begin="arrowUp.mouseover" end="arrowUp.mouseout"/>
                  </use>
                  <path fill="none" stroke="white" stroke-width="1.5" d="M0,-3.0v7 M-2.5,-0.5L0,-3.0L2.5,-0.5"/>
                </g>
                <g id="arrowRight" xlink:href="#dirArrow" transform="rotate(90) translate(36 -43)" onmousedown="handlePan(1,0)">
                  <use xlink:href="#rim" fill="#404040">
                        <set attributeName="fill" to="#808080" begin="arrowRight.mouseover" end="arrowRight.mouseout"/>
                  </use>
                  <path fill="none" stroke="white" stroke-width="1.5" d="M0,-3.0v7 M-2.5,-0.5L0,-3.0L2.5,-0.5"/>
                </g>
                <g id="arrowDown" xlink:href="#dirArrow" transform="rotate(180) translate(-30 -48)" onmousedown="handlePan(0,1)">
                  <use xlink:href="#rim" fill="#404040">
                        <set attributeName="fill" to="#808080" begin="arrowDown.mouseover" end="arrowDown.mouseout"/>
                  </use>
                  <path fill="none" stroke="white" stroke-width="1.5" d="M0,-3.0v7 M-2.5,-0.5L0,-3.0L2.5,-0.5"/>
                </g>
                <g id="arrowLeft" xlink:href="#dirArrow" transform="rotate(270) translate(-36 17)" onmousedown="handlePan(-1,0)">
                  <use xlink:href="#rim" fill="#404040">
                        <set attributeName="fill" to="#808080" begin="arrowLeft.mouseover" end="arrowLeft.mouseout"/>
                  </use>
                  <path fill="none" stroke="white" stroke-width="1.5" d="M0,-3.0v7 M-2.5,-0.5L0,-3.0L2.5,-0.5"/>
                </g>
        </g>
        <svg viewBox="0 0 15 15" width="100%" height="30px" preserveAspectRatio="xMaxYMin meet">
         <g id="arrow_out" transform="scale(0.3 0.3)">
          <a xlink:href="main_8cxx__incl_org.svg" target="_base">
           <rect id="button" ry="5" rx="5" y="6" x="6" height="38" width="38"
                fill="#f2f5e9" fill-opacity="0.5" stroke="#606060" stroke-width="1.0"/>
           <path id="arrow"
             d="M 11.500037,31.436501 C 11.940474,20.09759 22.043105,11.32322 32.158766,21.979434 L 37.068811,17.246167 C 37.068811,17.246167 37.088388,32 37.088388,32 L 22.160133,31.978069 C 22.160133,31.978069 26.997745,27.140456 26.997745,27.140456 C 18.528582,18.264221 13.291696,25.230495 11.500037,31.436501 z"
             style="fill:#404040;"/>
          </a>
         </g>
        </svg>
</svg>
