<?xml version="1.0" encoding="UTF-8" standalone="no"?>
<!DOCTYPE svg PUBLIC "-//W3C//DTD SVG 1.1//EN"
 "http://www.w3.org/Graphics/SVG/1.1/DTD/svg11.dtd">
<!-- Generated by graphviz version 2.40.1 (20161225.0304)
 -->
<!-- Title: src/engine/Map.hxx Pages: 1 -->
<!--zoomable 308 -->
<svg id="main" version="1.1" xmlns="http://www.w3.org/2000/svg" xmlns:xlink="http://www.w3.org/1999/xlink" xml:space="preserve" onload="init(evt)">
<style type="text/css"><![CDATA[
.edge:hover path { stroke: red; }
.edge:hover polygon { stroke: red; fill: red; }
]]></style>
<script type="text/javascript"><![CDATA[
var edges = document.getElementsByTagName('g');
if (edges && edges.length) {
  for (var i=0;i<edges.length;i++) {
    if (edges[i].id.substr(0,4)=='edge') {
      edges[i].setAttribute('class','edge');
    }
  }
}
]]></script>
        <defs>
                <circle id="rim" cx="0" cy="0" r="7"/>
                <circle id="rim2" cx="0" cy="0" r="3.5"/>
                <g id="zoomPlus">
                        <use xlink:href="#rim" fill="#404040">
                                <set attributeName="fill" to="#808080" begin="zoomplus.mouseover" end="zoomplus.mouseout"/>
                        </use>
                        <path d="M-4,0h8M0,-4v8" fill="none" stroke="white" stroke-width="1.5" pointer-events="none"/>
                </g>
                <g id="zoomMin">
                        <use xlink:href="#rim" fill="#404040">
                                <set attributeName="fill" to="#808080" begin="zoomminus.mouseover" end="zoomminus.mouseout"/>
                        </use>
                        <path d="M-4,0h8" fill="none" stroke="white" stroke-width="1.5" pointer-events="none"/>
                </g>
                <g id="dirArrow">
                        <path fill="none" stroke="white" stroke-width="1.5" d="M0,-3.0v7 M-2.5,-0.5L0,-3.0L2.5,-0.5"/>
                </g>
               <g id="resetDef">
                       <use xlink:href="#rim2" fill="#404040">
                               <set attributeName="fill" to="#808080" begin="reset.mouseover" end="reset.mouseout"/>
                       </use>
               </g>
        </defs>

<script type="text/javascript">
var viewWidth = 976;
var viewHeight = 308;
var sectionId = 'dynsection-0';
</script>
<script xlink:href="svgpan.js"/>
<svg id="graph" class="graph">
<g id="viewport">
<title>src/engine/Map.hxx</title>
<!-- Node0 -->
<g id="node1" class="node">
<title>Node0</title>
<polygon fill="#bfbfbf" stroke="#000000" points="820,-280.5 820,-299.5 931,-299.5 931,-280.5 820,-280.5"/>
<text text-anchor="middle" x="875.5" y="-287.5" font-family="Helvetica,sans-Serif" font-size="10.00" fill="#000000">src/engine/Map.hxx</text>
</g>
<!-- Node1 -->
<g id="node2" class="node">
<title>Node1</title>
<polygon fill="none" stroke="#bfbfbf" points="839,-56.5 839,-75.5 886,-75.5 886,-56.5 839,-56.5"/>
<text text-anchor="middle" x="862.5" y="-63.5" font-family="Helvetica,sans-Serif" font-size="10.00" fill="#000000">vector</text>
</g>
<!-- Node0&#45;&gt;Node1 -->
<g id="edge1" class="edge">
<title>Node0&#45;&gt;Node1</title>
<path fill="none" stroke="#191970" d="M908.1897,-280.4174C925.8362,-273.3899 946.0862,-261.8899 956.5,-244 973.4929,-214.8079 968.787,-199.4637 956.5,-168 942.1301,-131.2026 907.5786,-99.6815 884.6105,-81.7842"/>
<polygon fill="#191970" stroke="#191970" points="886.5291,-78.847 876.4411,-75.6093 882.3082,-84.4313 886.5291,-78.847"/>
</g>
<!-- Node2 -->
<g id="node3" class="node">
<title>Node2</title>
<g id="a_node3"><a xlink:href="MapNode_8hxx.html" target="_top" xlink:title="GameObjects/MapNode.hxx">
<polygon fill="none" stroke="#000000" points="571.5,-168.5 571.5,-187.5 723.5,-187.5 723.5,-168.5 571.5,-168.5"/>
<text text-anchor="middle" x="647.5" y="-175.5" font-family="Helvetica,sans-Serif" font-size="10.00" fill="#000000">GameObjects/MapNode.hxx</text>
</a>
</g>
</g>
<!-- Node0&#45;&gt;Node2 -->
<g id="edge2" class="edge">
<title>Node0&#45;&gt;Node2</title>
<path fill="none" stroke="#191970" d="M856.0608,-280.4509C815.7616,-260.6548 722.9564,-215.0663 675.9262,-191.9638"/>
<polygon fill="#191970" stroke="#191970" points="677.4087,-188.7925 666.8899,-187.5249 674.3223,-195.0754 677.4087,-188.7925"/>
</g>
<!-- Node16 -->
<g id="node17" class="node">
<title>Node16</title>
<g id="a_node17"><a xlink:href="TerrainGenerator_8hxx.html" target="_top" xlink:title="map/TerrainGenerator.hxx">
<polygon fill="none" stroke="#000000" points="804,-224.5 804,-243.5 947,-243.5 947,-224.5 804,-224.5"/>
<text text-anchor="middle" x="875.5" y="-231.5" font-family="Helvetica,sans-Serif" font-size="10.00" fill="#000000">map/TerrainGenerator.hxx</text>
</a>
</g>
</g>
<!-- Node0&#45;&gt;Node16 -->
<g id="edge24" class="edge">
<title>Node0&#45;&gt;Node16</title>
<path fill="none" stroke="#191970" d="M875.5,-280.2455C875.5,-272.9382 875.5,-262.6944 875.5,-253.7046"/>
<polygon fill="#191970" stroke="#191970" points="879.0001,-253.6426 875.5,-243.6427 872.0001,-253.6427 879.0001,-253.6426"/>
</g>
<!-- Node2&#45;&gt;Node1 -->
<g id="edge7" class="edge">
<title>Node2&#45;&gt;Node1</title>
<path fill="none" stroke="#191970" d="M702.782,-168.4668C747.2806,-159.9252 805.4362,-146.5324 824.5,-132 839.8996,-120.2608 850.1161,-100.3528 856.0399,-85.4645"/>
<polygon fill="#191970" stroke="#191970" points="859.4634,-86.293 859.6073,-75.6992 852.8884,-83.891 859.4634,-86.293"/>
</g>
<!-- Node3 -->
<g id="node4" class="node">
<title>Node3</title>
<polygon fill="none" stroke="#bfbfbf" points="461.5,-56.5 461.5,-75.5 505.5,-75.5 505.5,-56.5 461.5,-56.5"/>
<text text-anchor="middle" x="483.5" y="-63.5" font-family="Helvetica,sans-Serif" font-size="10.00" fill="#000000">SDL.h</text>
</g>
<!-- Node2&#45;&gt;Node3 -->
<g id="edge3" class="edge">
<title>Node2&#45;&gt;Node3</title>
<path fill="none" stroke="#191970" d="M604.5157,-168.4574C580.0408,-161.4232 549.8934,-149.9032 527.5,-132 511.769,-119.4234 499.6516,-99.676 492.1531,-85.0557"/>
<polygon fill="#191970" stroke="#191970" points="495.2268,-83.3728 487.7121,-75.9042 488.9291,-86.4289 495.2268,-83.3728"/>
</g>
<!-- Node4 -->
<g id="node5" class="node">
<title>Node4</title>
<polygon fill="none" stroke="#bfbfbf" points="675.5,-112.5 675.5,-131.5 733.5,-131.5 733.5,-112.5 675.5,-112.5"/>
<text text-anchor="middle" x="704.5" y="-119.5" font-family="Helvetica,sans-Serif" font-size="10.00" fill="#000000">memory</text>
</g>
<!-- Node2&#45;&gt;Node4 -->
<g id="edge4" class="edge">
<title>Node2&#45;&gt;Node4</title>
<path fill="none" stroke="#191970" d="M657.4286,-168.2455C665.6838,-160.1352 677.6209,-148.4075 687.4082,-138.7919"/>
<polygon fill="#191970" stroke="#191970" points="690.0046,-141.1476 694.6851,-131.6427 685.0989,-136.1542 690.0046,-141.1476"/>
</g>
<!-- Node5 -->
<g id="node6" class="node">
<title>Node5</title>
<polygon fill="none" stroke="#bfbfbf" points="261.5,-.5 261.5,-19.5 305.5,-19.5 305.5,-.5 261.5,-.5"/>
<text text-anchor="middle" x="283.5" y="-7.5" font-family="Helvetica,sans-Serif" font-size="10.00" fill="#000000">string</text>
</g>
<!-- Node2&#45;&gt;Node5 -->
<g id="edge5" class="edge">
<title>Node2&#45;&gt;Node5</title>
<path fill="none" stroke="#191970" d="M604.152,-168.4928C575.1037,-161.0518 536.6244,-149.0786 505.5,-132 459.0038,-106.4865 459.6499,-82.1347 413.5,-56 382.0971,-38.2165 342.6018,-25.4266 315.4326,-17.9156"/>
<polygon fill="#191970" stroke="#191970" points="316.2312,-14.5061 305.6659,-15.296 314.4177,-21.2672 316.2312,-14.5061"/>
</g>
<!-- Node6 -->
<g id="node7" class="node">
<title>Node6</title>
<polygon fill="none" stroke="#bfbfbf" points="751.5,-112.5 751.5,-131.5 815.5,-131.5 815.5,-112.5 751.5,-112.5"/>
<text text-anchor="middle" x="783.5" y="-119.5" font-family="Helvetica,sans-Serif" font-size="10.00" fill="#000000">algorithm</text>
</g>
<!-- Node2&#45;&gt;Node6 -->
<g id="edge6" class="edge">
<title>Node2&#45;&gt;Node6</title>
<path fill="none" stroke="#191970" d="M670.8792,-168.3733C693.0045,-159.2629 726.4134,-145.5062 751.1019,-135.3404"/>
<polygon fill="#191970" stroke="#191970" points="752.5117,-138.5451 760.4258,-131.5011 749.8464,-132.0723 752.5117,-138.5451"/>
</g>
<!-- Node7 -->
<g id="node8" class="node">
<title>Node7</title>
<g id="a_node8"><a xlink:href="Sprite_8hxx.html" target="_top" xlink:title="../Sprite.hxx">
<polygon fill="none" stroke="#000000" points="544,-112.5 544,-131.5 619,-131.5 619,-112.5 544,-112.5"/>
<text text-anchor="middle" x="581.5" y="-119.5" font-family="Helvetica,sans-Serif" font-size="10.00" fill="#000000">../Sprite.hxx</text>
</a>
</g>
</g>
<!-- Node2&#45;&gt;Node7 -->
<g id="edge8" class="edge">
<title>Node2&#45;&gt;Node7</title>
<path fill="none" stroke="#191970" d="M636.0037,-168.2455C626.2558,-159.9746 612.0741,-147.9416 600.6202,-138.2232"/>
<polygon fill="#191970" stroke="#191970" points="602.7541,-135.4437 592.8646,-131.6427 598.2253,-140.7813 602.7541,-135.4437"/>
</g>
<!-- Node8 -->
<g id="node9" class="node">
<title>Node8</title>
<g id="a_node9"><a xlink:href="point_8hxx.html" target="_top" xlink:title="basics/point.hxx">
<polygon fill="none" stroke="#000000" points="523.5,-56.5 523.5,-75.5 619.5,-75.5 619.5,-56.5 523.5,-56.5"/>
<text text-anchor="middle" x="571.5" y="-63.5" font-family="Helvetica,sans-Serif" font-size="10.00" fill="#000000">basics/point.hxx</text>
</a>
</g>
</g>
<!-- Node2&#45;&gt;Node8 -->
<g id="edge15" class="edge">
<title>Node2&#45;&gt;Node8</title>
<path fill="none" stroke="#191970" d="M590.8634,-168.4697C569.847,-161.8875 548.0824,-150.77 535.5,-132 524.7077,-115.9003 538.5498,-96.2704 552.0781,-82.6233"/>
<polygon fill="#191970" stroke="#191970" points="554.5278,-85.124 559.4031,-75.7175 549.7259,-80.0306 554.5278,-85.124"/>
</g>
<!-- Node9 -->
<g id="node10" class="node">
<title>Node9</title>
<g id="a_node10"><a xlink:href="enums_8hxx.html" target="_top" xlink:title="common/enums.hxx">
<polygon fill="none" stroke="#000000" points="637.5,-56.5 637.5,-75.5 753.5,-75.5 753.5,-56.5 637.5,-56.5"/>
<text text-anchor="middle" x="695.5" y="-63.5" font-family="Helvetica,sans-Serif" font-size="10.00" fill="#000000">common/enums.hxx</text>
</a>
</g>
</g>
<!-- Node2&#45;&gt;Node9 -->
<g id="edge14" class="edge">
<title>Node2&#45;&gt;Node9</title>
<path fill="none" stroke="#191970" d="M649.3919,-168.3027C652.1546,-155.1639 657.9161,-131.1498 666.5,-112 670.8208,-102.3609 676.9045,-92.3602 682.3847,-84.1555"/>
<polygon fill="#191970" stroke="#191970" points="685.3754,-85.9845 688.1894,-75.7702 679.6199,-82.0002 685.3754,-85.9845"/>
</g>
<!-- Node11 -->
<g id="node12" class="node">
<title>Node11</title>
<g id="a_node12"><a xlink:href="TileManager_8hxx.html" target="_top" xlink:title="../TileManager.hxx">
<polygon fill="none" stroke="#000000" points="230.5,-112.5 230.5,-131.5 336.5,-131.5 336.5,-112.5 230.5,-112.5"/>
<text text-anchor="middle" x="283.5" y="-119.5" font-family="Helvetica,sans-Serif" font-size="10.00" fill="#000000">../TileManager.hxx</text>
</a>
</g>
</g>
<!-- Node2&#45;&gt;Node11 -->
<g id="edge16" class="edge">
<title>Node2&#45;&gt;Node11</title>
<path fill="none" stroke="#191970" d="M585.3398,-168.4369C518.7073,-158.1857 413.4961,-141.9994 346.5302,-131.6969"/>
<polygon fill="#191970" stroke="#191970" points="346.9458,-128.2198 336.5299,-130.1584 345.8814,-135.1384 346.9458,-128.2198"/>
</g>
<!-- Node7&#45;&gt;Node1 -->
<g id="edge10" class="edge">
<title>Node7&#45;&gt;Node1</title>
<path fill="none" stroke="#191970" d="M619.1053,-114.5057C674.2054,-103.5249 776.0422,-83.23 828.8193,-72.7122"/>
<polygon fill="#191970" stroke="#191970" points="829.5691,-76.1317 838.6922,-70.7446 828.2009,-69.2666 829.5691,-76.1317"/>
</g>
<!-- Node7&#45;&gt;Node3 -->
<g id="edge9" class="edge">
<title>Node7&#45;&gt;Node3</title>
<path fill="none" stroke="#191970" d="M564.4297,-112.2455C549.253,-103.5731 526.8379,-90.7645 509.4437,-80.825"/>
<polygon fill="#191970" stroke="#191970" points="510.7936,-77.5653 500.3747,-75.6427 507.3206,-83.643 510.7936,-77.5653"/>
</g>
<!-- Node7&#45;&gt;Node8 -->
<g id="edge11" class="edge">
<title>Node7&#45;&gt;Node8</title>
<path fill="none" stroke="#191970" d="M579.7581,-112.2455C578.4533,-104.9382 576.624,-94.6944 575.0187,-85.7046"/>
<polygon fill="#191970" stroke="#191970" points="578.4254,-84.8717 573.2219,-75.6427 571.5344,-86.1022 578.4254,-84.8717"/>
</g>
<!-- Node7&#45;&gt;Node9 -->
<g id="edge12" class="edge">
<title>Node7&#45;&gt;Node9</title>
<path fill="none" stroke="#191970" d="M601.0973,-112.3733C619.2331,-103.4644 646.4135,-90.1127 666.9587,-80.0203"/>
<polygon fill="#191970" stroke="#191970" points="668.7261,-83.0517 676.1584,-75.5011 665.6397,-76.7688 668.7261,-83.0517"/>
</g>
<!-- Node10 -->
<g id="node11" class="node">
<title>Node10</title>
<polygon fill="none" stroke="#bfbfbf" points="667.5,-.5 667.5,-19.5 723.5,-19.5 723.5,-.5 667.5,-.5"/>
<text text-anchor="middle" x="695.5" y="-7.5" font-family="Helvetica,sans-Serif" font-size="10.00" fill="#000000">stddef.h</text>
</g>
<!-- Node9&#45;&gt;Node10 -->
<g id="edge13" class="edge">
<title>Node9&#45;&gt;Node10</title>
<path fill="none" stroke="#191970" d="M695.5,-56.2455C695.5,-48.9382 695.5,-38.6944 695.5,-29.7046"/>
<polygon fill="#191970" stroke="#191970" points="699.0001,-29.6426 695.5,-19.6427 692.0001,-29.6427 699.0001,-29.6426"/>
</g>
<!-- Node11&#45;&gt;Node3 -->
<g id="edge17" class="edge">
<title>Node11&#45;&gt;Node3</title>
<path fill="none" stroke="#191970" d="M317.8812,-112.3733C355.4494,-101.8542 415.1397,-85.1409 451.669,-74.9127"/>
<polygon fill="#191970" stroke="#191970" points="452.6344,-78.2771 461.3203,-72.2103 450.7469,-71.5363 452.6344,-78.2771"/>
</g>
<!-- Node11&#45;&gt;Node5 -->
<g id="edge19" class="edge">
<title>Node11&#45;&gt;Node5</title>
<path fill="none" stroke="#191970" d="M283.5,-112.4509C283.5,-94.184 283.5,-53.9553 283.5,-29.6976"/>
<polygon fill="#191970" stroke="#191970" points="287.0001,-29.5249 283.5,-19.5249 280.0001,-29.5249 287.0001,-29.5249"/>
</g>
<!-- Node12 -->
<g id="node13" class="node">
<title>Node12</title>
<polygon fill="none" stroke="#bfbfbf" points="312,-56.5 312,-75.5 405,-75.5 405,-56.5 312,-56.5"/>
<text text-anchor="middle" x="358.5" y="-63.5" font-family="Helvetica,sans-Serif" font-size="10.00" fill="#000000">unordered_map</text>
</g>
<!-- Node11&#45;&gt;Node12 -->
<g id="edge18" class="edge">
<title>Node11&#45;&gt;Node12</title>
<path fill="none" stroke="#191970" d="M296.564,-112.2455C307.8562,-103.814 324.3845,-91.4729 337.5271,-81.6598"/>
<polygon fill="#191970" stroke="#191970" points="339.6669,-84.4301 345.5857,-75.6427 335.4789,-78.8211 339.6669,-84.4301"/>
</g>
<!-- Node13 -->
<g id="node14" class="node">
<title>Node13</title>
<g id="a_node14"><a xlink:href="tileData_8hxx.html" target="_top" xlink:title="tileData.hxx">
<polygon fill="none" stroke="#000000" points="0,-56.5 0,-75.5 77,-75.5 77,-56.5 0,-56.5"/>
<text text-anchor="middle" x="38.5" y="-63.5" font-family="Helvetica,sans-Serif" font-size="10.00" fill="#000000">tileData.hxx</text>
</a>
</g>
</g>
<!-- Node11&#45;&gt;Node13 -->
<g id="edge20" class="edge">
<title>Node11&#45;&gt;Node13</title>
<path fill="none" stroke="#191970" d="M241.6614,-112.4369C198.8421,-102.6496 132.3533,-87.4522 87.1964,-77.1306"/>
<polygon fill="#191970" stroke="#191970" points="87.8648,-73.6932 77.3363,-74.8769 86.305,-80.5172 87.8648,-73.6932"/>
</g>
<!-- Node14 -->
<g id="node15" class="node">
<title>Node14</title>
<polygon fill="none" stroke="#bfbfbf" points="95.5,-56.5 95.5,-75.5 153.5,-75.5 153.5,-56.5 95.5,-56.5"/>
<text text-anchor="middle" x="124.5" y="-63.5" font-family="Helvetica,sans-Serif" font-size="10.00" fill="#000000">json.hxx</text>
</g>
<!-- Node11&#45;&gt;Node14 -->
<g id="edge22" class="edge">
<title>Node11&#45;&gt;Node14</title>
<path fill="none" stroke="#191970" d="M256.1669,-112.3733C229.9566,-103.1419 190.2016,-89.1402 161.2332,-78.9375"/>
<polygon fill="#191970" stroke="#191970" points="162.0712,-75.5219 151.4764,-75.5011 159.7458,-82.1244 162.0712,-75.5219"/>
</g>
<!-- Node15 -->
<g id="node16" class="node">
<title>Node15</title>
<g id="a_node16"><a xlink:href="Singleton_8hxx.html" target="_top" xlink:title="Singleton.hxx">
<polygon fill="none" stroke="#000000" points="172,-56.5 172,-75.5 255,-75.5 255,-56.5 172,-56.5"/>
<text text-anchor="middle" x="213.5" y="-63.5" font-family="Helvetica,sans-Serif" font-size="10.00" fill="#000000">Singleton.hxx</text>
</a>
</g>
</g>
<!-- Node11&#45;&gt;Node15 -->
<g id="edge23" class="edge">
<title>Node11&#45;&gt;Node15</title>
<path fill="none" stroke="#191970" d="M271.3069,-112.2455C260.8679,-103.8943 245.6345,-91.7076 233.426,-81.9408"/>
<polygon fill="#191970" stroke="#191970" points="235.5485,-79.1566 225.5533,-75.6427 231.1756,-84.6227 235.5485,-79.1566"/>
</g>
<!-- Node13&#45;&gt;Node5 -->
<g id="edge21" class="edge">
<title>Node13&#45;&gt;Node5</title>
<path fill="none" stroke="#191970" d="M77.0508,-57.1884C125.1828,-46.1868 206.6311,-27.57 251.4879,-17.3171"/>
<polygon fill="#191970" stroke="#191970" points="252.3024,-20.7212 261.2711,-15.0809 250.7426,-13.8972 252.3024,-20.7212"/>
</g>
<!-- Node16&#45;&gt;Node1 -->
<g id="edge27" class="edge">
<title>Node16&#45;&gt;Node1</title>
<path fill="none" stroke="#191970" d="M874.7638,-224.4862C872.7088,-197.9293 866.8771,-122.5651 864.0604,-86.1655"/>
<polygon fill="#191970" stroke="#191970" points="867.5217,-85.528 863.2605,-75.8279 860.5425,-86.0681 867.5217,-85.528"/>
</g>
<!-- Node16&#45;&gt;Node2 -->
<g id="edge25" class="edge">
<title>Node16&#45;&gt;Node2</title>
<path fill="none" stroke="#191970" d="M836.5645,-224.4369C797.708,-214.8932 737.907,-200.2052 695.9911,-189.9101"/>
<polygon fill="#191970" stroke="#191970" points="696.8212,-186.51 686.2749,-187.5237 695.1514,-193.308 696.8212,-186.51"/>
</g>
<!-- Node17 -->
<g id="node18" class="node">
<title>Node17</title>
<polygon fill="none" stroke="#bfbfbf" points="909.5,-168.5 909.5,-187.5 947.5,-187.5 947.5,-168.5 909.5,-168.5"/>
<text text-anchor="middle" x="928.5" y="-175.5" font-family="Helvetica,sans-Serif" font-size="10.00" fill="#000000">map</text>
</g>
<!-- Node16&#45;&gt;Node17 -->
<g id="edge26" class="edge">
<title>Node16&#45;&gt;Node17</title>
<path fill="none" stroke="#191970" d="M884.7319,-224.2455C892.3317,-216.2155 903.2877,-204.6394 912.3368,-195.0781"/>
<polygon fill="#191970" stroke="#191970" points="915.0421,-197.3115 919.3739,-187.6427 909.958,-192.4998 915.0421,-197.3115"/>
</g>
</g>
</svg>
        <g id="navigator" transform="translate(0 0)" fill="#404254">
                <rect fill="#f2f5e9" fill-opacity="0.5" stroke="#606060" stroke-width=".5" x="0" y="0" width="60" height="60"/>
                <use id="zoomplus" xlink:href="#zoomPlus" x="17" y="9" onmousedown="handleZoom(evt,'in')"/>
                <use id="zoomminus" xlink:href="#zoomMin" x="42" y="9" onmousedown="handleZoom(evt,'out')"/>
                <use id="reset" xlink:href="#resetDef" x="30" y="36" onmousedown="handleReset()"/>
                <g id="arrowUp" xlink:href="#dirArrow" transform="translate(30 24)" onmousedown="handlePan(0,-1)">
                  <use xlink:href="#rim" fill="#404040">
                        <set attributeName="fill" to="#808080" begin="arrowUp.mouseover" end="arrowUp.mouseout"/>
                  </use>
                  <path fill="none" stroke="white" stroke-width="1.5" d="M0,-3.0v7 M-2.5,-0.5L0,-3.0L2.5,-0.5"/>
                </g>
                <g id="arrowRight" xlink:href="#dirArrow" transform="rotate(90) translate(36 -43)" onmousedown="handlePan(1,0)">
                  <use xlink:href="#rim" fill="#404040">
                        <set attributeName="fill" to="#808080" begin="arrowRight.mouseover" end="arrowRight.mouseout"/>
                  </use>
                  <path fill="none" stroke="white" stroke-width="1.5" d="M0,-3.0v7 M-2.5,-0.5L0,-3.0L2.5,-0.5"/>
                </g>
                <g id="arrowDown" xlink:href="#dirArrow" transform="rotate(180) translate(-30 -48)" onmousedown="handlePan(0,1)">
                  <use xlink:href="#rim" fill="#404040">
                        <set attributeName="fill" to="#808080" begin="arrowDown.mouseover" end="arrowDown.mouseout"/>
                  </use>
                  <path fill="none" stroke="white" stroke-width="1.5" d="M0,-3.0v7 M-2.5,-0.5L0,-3.0L2.5,-0.5"/>
                </g>
                <g id="arrowLeft" xlink:href="#dirArrow" transform="rotate(270) translate(-36 17)" onmousedown="handlePan(-1,0)">
                  <use xlink:href="#rim" fill="#404040">
                        <set attributeName="fill" to="#808080" begin="arrowLeft.mouseover" end="arrowLeft.mouseout"/>
                  </use>
                  <path fill="none" stroke="white" stroke-width="1.5" d="M0,-3.0v7 M-2.5,-0.5L0,-3.0L2.5,-0.5"/>
                </g>
        </g>
        <svg viewBox="0 0 15 15" width="100%" height="30px" preserveAspectRatio="xMaxYMin meet">
         <g id="arrow_out" transform="scale(0.3 0.3)">
          <a xlink:href="Map_8hxx__incl_org.svg" target="_base">
           <rect id="button" ry="5" rx="5" y="6" x="6" height="38" width="38"
                fill="#f2f5e9" fill-opacity="0.5" stroke="#606060" stroke-width="1.0"/>
           <path id="arrow"
             d="M 11.500037,31.436501 C 11.940474,20.09759 22.043105,11.32322 32.158766,21.979434 L 37.068811,17.246167 C 37.068811,17.246167 37.088388,32 37.088388,32 L 22.160133,31.978069 C 22.160133,31.978069 26.997745,27.140456 26.997745,27.140456 C 18.528582,18.264221 13.291696,25.230495 11.500037,31.436501 z"
             style="fill:#404040;"/>
          </a>
         </g>
        </svg>
</svg>
