<?xml version="1.0" encoding="UTF-8" standalone="no"?>
<!DOCTYPE svg PUBLIC "-//W3C//DTD SVG 1.1//EN"
 "http://www.w3.org/Graphics/SVG/1.1/DTD/svg11.dtd">
<!-- Generated by graphviz version 2.40.1 (20161225.0304)
 -->
<!-- Title: src/engine/map/MapLayers.hxx Pages: 1 -->
<svg width="773pt" height="95pt"
 viewBox="0.00 0.00 773.00 95.00" xmlns="http://www.w3.org/2000/svg" xmlns:xlink="http://www.w3.org/1999/xlink">
<g id="graph0" class="graph" transform="scale(1 1) rotate(0) translate(4 91)">
<title>src/engine/map/MapLayers.hxx</title>
<!-- Node3 -->
<g id="node1" class="node">
<title>Node3</title>
<polygon fill="#bfbfbf" stroke="#000000" points="331.5,-67.5 331.5,-86.5 499.5,-86.5 499.5,-67.5 331.5,-67.5"/>
<text text-anchor="middle" x="415.5" y="-74.5" font-family="Helvetica,sans-Serif" font-size="10.00" fill="#000000">src/engine/map/MapLayers.hxx</text>
</g>
<!-- Node4 -->
<g id="node2" class="node">
<title>Node4</title>
<g id="a_node2"><a xlink:href="EventManager_8cxx.html" target="_top" xlink:title="src/engine/EventManager.cxx">
<polygon fill="none" stroke="#000000" points="0,-6 0,-25 159,-25 159,-6 0,-6"/>
<text text-anchor="middle" x="79.5" y="-13" font-family="Helvetica,sans-Serif" font-size="10.00" fill="#000000">src/engine/EventManager.cxx</text>
</a>
</g>
</g>
<!-- Node3&#45;&gt;Node4 -->
<g id="edge1" class="edge">
<title>Node3&#45;&gt;Node4</title>
<path fill="none" stroke="#191970" d="M353.4327,-65.6395C289.6114,-53.9579 191.3379,-35.9703 131.4772,-25.0137"/>
<polygon fill="#191970" stroke="#191970" points="352.9019,-69.1004 363.3687,-67.4581 354.1623,-62.2148 352.9019,-69.1004"/>
</g>
<!-- Node5 -->
<g id="node3" class="node">
<title>Node5</title>
<g id="a_node3"><a xlink:href="MapNode_8cxx.html" target="_top" xlink:title="src/engine/GameObjects\l/MapNode.cxx">
<polygon fill="none" stroke="#000000" points="177.5,-.5 177.5,-30.5 313.5,-30.5 313.5,-.5 177.5,-.5"/>
<text text-anchor="start" x="185.5" y="-18.5" font-family="Helvetica,sans-Serif" font-size="10.00" fill="#000000">src/engine/GameObjects</text>
<text text-anchor="middle" x="245.5" y="-7.5" font-family="Helvetica,sans-Serif" font-size="10.00" fill="#000000">/MapNode.cxx</text>
</a>
</g>
</g>
<!-- Node3&#45;&gt;Node5 -->
<g id="edge2" class="edge">
<title>Node3&#45;&gt;Node5</title>
<path fill="none" stroke="#191970" d="M379.4669,-63.9645C352.435,-54.1853 315.3759,-40.7786 287.0867,-30.5446"/>
<polygon fill="#191970" stroke="#191970" points="378.3432,-67.2799 388.9375,-67.3906 380.7246,-60.6974 378.3432,-67.2799"/>
</g>
<!-- Node6 -->
<g id="node4" class="node">
<title>Node6</title>
<g id="a_node4"><a xlink:href="MapLayers_8cxx.html" target="_top" xlink:title="src/engine/map/MapLayers.cxx">
<polygon fill="none" stroke="#000000" points="332,-6 332,-25 499,-25 499,-6 332,-6"/>
<text text-anchor="middle" x="415.5" y="-13" font-family="Helvetica,sans-Serif" font-size="10.00" fill="#000000">src/engine/map/MapLayers.cxx</text>
</a>
</g>
</g>
<!-- Node3&#45;&gt;Node6 -->
<g id="edge3" class="edge">
<title>Node3&#45;&gt;Node6</title>
<path fill="none" stroke="#191970" d="M415.5,-57.2462C415.5,-46.5519 415.5,-33.814 415.5,-25.2449"/>
<polygon fill="#191970" stroke="#191970" points="412.0001,-57.3906 415.5,-67.3906 419.0001,-57.3907 412.0001,-57.3906"/>
</g>
<!-- Node7 -->
<g id="node5" class="node">
<title>Node7</title>
<g id="a_node5"><a xlink:href="Map_8cxx.html" target="_top" xlink:title="src/engine/Map.cxx">
<polygon fill="none" stroke="#000000" points="517.5,-6 517.5,-25 627.5,-25 627.5,-6 517.5,-6"/>
<text text-anchor="middle" x="572.5" y="-13" font-family="Helvetica,sans-Serif" font-size="10.00" fill="#000000">src/engine/Map.cxx</text>
</a>
</g>
</g>
<!-- Node3&#45;&gt;Node7 -->
<g id="edge4" class="edge">
<title>Node3&#45;&gt;Node7</title>
<path fill="none" stroke="#191970" d="M449.5863,-63.6477C479.3153,-52.0023 521.7107,-35.3952 548.141,-25.0419"/>
<polygon fill="#191970" stroke="#191970" points="448.0658,-60.4843 440.0313,-67.3906 450.619,-67.0021 448.0658,-60.4843"/>
</g>
<!-- Node8 -->
<g id="node6" class="node">
<title>Node8</title>
<g id="a_node6"><a xlink:href="Sprite_8cxx.html" target="_top" xlink:title="src/engine/Sprite.cxx">
<polygon fill="none" stroke="#000000" points="646,-6 646,-25 765,-25 765,-6 646,-6"/>
<text text-anchor="middle" x="705.5" y="-13" font-family="Helvetica,sans-Serif" font-size="10.00" fill="#000000">src/engine/Sprite.cxx</text>
</a>
</g>
</g>
<!-- Node3&#45;&gt;Node8 -->
<g id="edge5" class="edge">
<title>Node3&#45;&gt;Node8</title>
<path fill="none" stroke="#191970" d="M472.6144,-65.3693C517.2686,-56.2138 580.8863,-43.0335 636.5,-31 645.26,-29.1045 654.6347,-27.0297 663.5613,-25.0319"/>
<polygon fill="#191970" stroke="#191970" points="471.6318,-61.9978 462.5374,-67.4331 473.0363,-68.8554 471.6318,-61.9978"/>
</g>
</g>
</svg>
