<?xml version="1.0" encoding="UTF-8" standalone="no"?>
<!DOCTYPE svg PUBLIC "-//W3C//DTD SVG 1.1//EN"
 "http://www.w3.org/Graphics/SVG/1.1/DTD/svg11.dtd">
<!-- Generated by graphviz version 2.40.1 (20161225.0304)
 -->
<!-- Title: src/engine/GameObjects/MapNode.hxx Pages: 1 -->
<svg width="1600pt" height="330pt"
 viewBox="0.00 0.00 1599.50 330.00" xmlns="http://www.w3.org/2000/svg" xmlns:xlink="http://www.w3.org/1999/xlink">
<g id="graph0" class="graph" transform="scale(1 1) rotate(0) translate(4 326)">
<title>src/engine/GameObjects/MapNode.hxx</title>
<!-- Node15 -->
<g id="node1" class="node">
<title>Node15</title>
<polygon fill="#bfbfbf" stroke="#000000" points="1009.5,-291.5 1009.5,-321.5 1145.5,-321.5 1145.5,-291.5 1009.5,-291.5"/>
<text text-anchor="start" x="1017.5" y="-309.5" font-family="Helvetica,sans-Serif" font-size="10.00" fill="#000000">src/engine/GameObjects</text>
<text text-anchor="middle" x="1077.5" y="-298.5" font-family="Helvetica,sans-Serif" font-size="10.00" fill="#000000">/MapNode.hxx</text>
</g>
<!-- Node16 -->
<g id="node2" class="node">
<title>Node16</title>
<g id="a_node2"><a xlink:href="Map_8hxx.html" target="_top" xlink:title="src/engine/Map.hxx">
<polygon fill="none" stroke="#000000" points="832,-168.5 832,-187.5 943,-187.5 943,-168.5 832,-168.5"/>
<text text-anchor="middle" x="887.5" y="-175.5" font-family="Helvetica,sans-Serif" font-size="10.00" fill="#000000">src/engine/Map.hxx</text>
</a>
</g>
</g>
<!-- Node15&#45;&gt;Node16 -->
<g id="edge1" class="edge">
<title>Node15&#45;&gt;Node16</title>
<path fill="none" stroke="#191970" d="M998.9136,-290.7414C960.5299,-281.5281 919.7855,-268.9754 906.5,-255 888.7599,-236.3385 886.7989,-203.8543 887.0305,-187.699"/>
<polygon fill="#191970" stroke="#191970" points="998.5915,-294.2604 1009.1258,-293.1299 1000.1857,-287.4444 998.5915,-294.2604"/>
</g>
<!-- Node27 -->
<g id="node13" class="node">
<title>Node27</title>
<g id="a_node13"><a xlink:href="TerrainGenerator_8hxx.html" target="_top" xlink:title="src/engine/map/TerrainGenerator.hxx">
<polygon fill="none" stroke="#000000" points="916,-230 916,-249 1113,-249 1113,-230 916,-230"/>
<text text-anchor="middle" x="1014.5" y="-237" font-family="Helvetica,sans-Serif" font-size="10.00" fill="#000000">src/engine/map/TerrainGenerator.hxx</text>
</a>
</g>
</g>
<!-- Node15&#45;&gt;Node27 -->
<g id="edge15" class="edge">
<title>Node15&#45;&gt;Node27</title>
<path fill="none" stroke="#191970" d="M1056.2161,-283.8648C1045.0578,-271.998 1031.9816,-258.0916 1023.4845,-249.055"/>
<polygon fill="#191970" stroke="#191970" points="1053.8042,-286.409 1063.2043,-291.2967 1058.9039,-281.6138 1053.8042,-286.409"/>
</g>
<!-- Node28 -->
<g id="node14" class="node">
<title>Node28</title>
<g id="a_node14"><a xlink:href="JsonSerialization_8hxx.html" target="_top" xlink:title="src/engine/common/JsonSerialization.hxx">
<polygon fill="none" stroke="#000000" points="1037.5,-168.5 1037.5,-187.5 1255.5,-187.5 1255.5,-168.5 1037.5,-168.5"/>
<text text-anchor="middle" x="1146.5" y="-175.5" font-family="Helvetica,sans-Serif" font-size="10.00" fill="#000000">src/engine/common/JsonSerialization.hxx</text>
</a>
</g>
</g>
<!-- Node15&#45;&gt;Node28 -->
<g id="edge23" class="edge">
<title>Node15&#45;&gt;Node28</title>
<path fill="none" stroke="#191970" d="M1100.9154,-283.8589C1108.6437,-275.3915 1116.7294,-265.313 1122.5,-255 1135.0808,-232.5161 1141.9751,-202.5745 1144.858,-187.5108"/>
<polygon fill="#191970" stroke="#191970" points="1098.3456,-281.4823 1093.9951,-291.1427 1103.4204,-286.3038 1098.3456,-281.4823"/>
</g>
<!-- Node32 -->
<g id="node18" class="node">
<title>Node32</title>
<g id="a_node18"><a xlink:href="MapNode_8cxx.html" target="_top" xlink:title="src/engine/GameObjects\l/MapNode.cxx">
<polygon fill="none" stroke="#000000" points="1169.5,-224.5 1169.5,-254.5 1305.5,-254.5 1305.5,-224.5 1169.5,-224.5"/>
<text text-anchor="start" x="1177.5" y="-242.5" font-family="Helvetica,sans-Serif" font-size="10.00" fill="#000000">src/engine/GameObjects</text>
<text text-anchor="middle" x="1237.5" y="-231.5" font-family="Helvetica,sans-Serif" font-size="10.00" fill="#000000">/MapNode.cxx</text>
</a>
</g>
</g>
<!-- Node15&#45;&gt;Node32 -->
<g id="edge24" class="edge">
<title>Node15&#45;&gt;Node32</title>
<path fill="none" stroke="#191970" d="M1122.659,-287.5897C1147.5853,-277.1518 1178.1199,-264.3654 1201.4363,-254.6017"/>
<polygon fill="#191970" stroke="#191970" points="1121.2792,-284.3729 1113.4071,-291.4639 1123.983,-290.8297 1121.2792,-284.3729"/>
</g>
<!-- Node17 -->
<g id="node3" class="node">
<title>Node17</title>
<g id="a_node3"><a xlink:href="Engine_8hxx.html" target="_top" xlink:title="src/engine/Engine.hxx">
<polygon fill="none" stroke="#000000" points="449.5,-112.5 449.5,-131.5 573.5,-131.5 573.5,-112.5 449.5,-112.5"/>
<text text-anchor="middle" x="511.5" y="-119.5" font-family="Helvetica,sans-Serif" font-size="10.00" fill="#000000">src/engine/Engine.hxx</text>
</a>
</g>
</g>
<!-- Node16&#45;&gt;Node17 -->
<g id="edge2" class="edge">
<title>Node16&#45;&gt;Node17</title>
<path fill="none" stroke="#191970" d="M821.5985,-168.1849C751.6912,-157.7732 642.0902,-141.4496 573.646,-131.2558"/>
<polygon fill="#191970" stroke="#191970" points="821.2085,-171.6653 831.615,-169.6767 822.2397,-164.7417 821.2085,-171.6653"/>
</g>
<!-- Node22 -->
<g id="node8" class="node">
<title>Node22</title>
<g id="a_node8"><a xlink:href="EventManager_8cxx.html" target="_top" xlink:title="src/engine/EventManager.cxx">
<polygon fill="none" stroke="#000000" points="775,-.5 775,-19.5 934,-19.5 934,-.5 775,-.5"/>
<text text-anchor="middle" x="854.5" y="-7.5" font-family="Helvetica,sans-Serif" font-size="10.00" fill="#000000">src/engine/EventManager.cxx</text>
</a>
</g>
</g>
<!-- Node16&#45;&gt;Node22 -->
<g id="edge12" class="edge">
<title>Node16&#45;&gt;Node22</title>
<path fill="none" stroke="#191970" d="M885.3078,-158.3697C882.4027,-134.1274 876.6736,-91.717 868.5,-56 865.595,-43.3056 861.0317,-29.001 857.91,-19.7625"/>
<polygon fill="#191970" stroke="#191970" points="881.8448,-158.8918 886.4741,-168.4218 888.7982,-158.085 881.8448,-158.8918"/>
</g>
<!-- Node25 -->
<g id="node11" class="node">
<title>Node25</title>
<g id="a_node11"><a xlink:href="UIManager_8cxx.html" target="_top" xlink:title="src/engine/UIManager.cxx">
<polygon fill="none" stroke="#000000" points="717.5,-56.5 717.5,-75.5 859.5,-75.5 859.5,-56.5 717.5,-56.5"/>
<text text-anchor="middle" x="788.5" y="-63.5" font-family="Helvetica,sans-Serif" font-size="10.00" fill="#000000">src/engine/UIManager.cxx</text>
</a>
</g>
</g>
<!-- Node16&#45;&gt;Node25 -->
<g id="edge14" class="edge">
<title>Node16&#45;&gt;Node25</title>
<path fill="none" stroke="#191970" d="M872.3332,-160.8416C851.2055,-136.9396 813.6328,-94.433 796.9193,-75.5249"/>
<polygon fill="#191970" stroke="#191970" points="869.814,-163.2764 879.0593,-168.4509 875.0588,-158.6404 869.814,-163.2764"/>
</g>
<!-- Node26 -->
<g id="node12" class="node">
<title>Node26</title>
<g id="a_node12"><a xlink:href="Map_8cxx.html" target="_top" xlink:title="src/engine/Map.cxx">
<polygon fill="none" stroke="#000000" points="915.5,-112.5 915.5,-131.5 1025.5,-131.5 1025.5,-112.5 915.5,-112.5"/>
<text text-anchor="middle" x="970.5" y="-119.5" font-family="Helvetica,sans-Serif" font-size="10.00" fill="#000000">src/engine/Map.cxx</text>
</a>
</g>
</g>
<!-- Node16&#45;&gt;Node26 -->
<g id="edge13" class="edge">
<title>Node16&#45;&gt;Node26</title>
<path fill="none" stroke="#191970" d="M910.488,-162.49C925.1322,-152.6096 943.6444,-140.1194 956.2082,-131.6427"/>
<polygon fill="#191970" stroke="#191970" points="908.2896,-159.7511 901.9575,-168.2455 912.2047,-165.5539 908.2896,-159.7511"/>
</g>
<!-- Node18 -->
<g id="node4" class="node">
<title>Node18</title>
<g id="a_node4"><a xlink:href="Camera_8cxx.html" target="_top" xlink:title="src/engine/basics/Camera.cxx">
<polygon fill="none" stroke="#000000" points="141.5,-56.5 141.5,-75.5 303.5,-75.5 303.5,-56.5 141.5,-56.5"/>
<text text-anchor="middle" x="222.5" y="-63.5" font-family="Helvetica,sans-Serif" font-size="10.00" fill="#000000">src/engine/basics/Camera.cxx</text>
</a>
</g>
</g>
<!-- Node17&#45;&gt;Node18 -->
<g id="edge3" class="edge">
<title>Node17&#45;&gt;Node18</title>
<path fill="none" stroke="#191970" d="M452.1572,-110.501C398.8673,-100.175 321.5542,-85.1939 271.6489,-75.5237"/>
<polygon fill="#191970" stroke="#191970" points="451.6643,-113.9706 462.1475,-112.4369 452.996,-107.0984 451.6643,-113.9706"/>
</g>
<!-- Node19 -->
<g id="node5" class="node">
<title>Node19</title>
<g id="a_node5"><a xlink:href="isoMath_8cxx.html" target="_top" xlink:title="src/engine/basics/isoMath.cxx">
<polygon fill="none" stroke="#000000" points="321.5,-56.5 321.5,-75.5 483.5,-75.5 483.5,-56.5 321.5,-56.5"/>
<text text-anchor="middle" x="402.5" y="-63.5" font-family="Helvetica,sans-Serif" font-size="10.00" fill="#000000">src/engine/basics/isoMath.cxx</text>
</a>
</g>
</g>
<!-- Node17&#45;&gt;Node19 -->
<g id="edge4" class="edge">
<title>Node17&#45;&gt;Node19</title>
<path fill="none" stroke="#191970" d="M483.4658,-107.5971C463.9254,-97.558 438.3908,-84.4393 421.2688,-75.6427"/>
<polygon fill="#191970" stroke="#191970" points="482.0194,-110.7889 492.5136,-112.2455 485.2183,-104.5625 482.0194,-110.7889"/>
</g>
<!-- Node20 -->
<g id="node6" class="node">
<title>Node20</title>
<g id="a_node6"><a xlink:href="EventManager_8hxx.html" target="_top" xlink:title="src/engine/EventManager.hxx">
<polygon fill="none" stroke="#000000" points="539.5,-56.5 539.5,-75.5 699.5,-75.5 699.5,-56.5 539.5,-56.5"/>
<text text-anchor="middle" x="619.5" y="-63.5" font-family="Helvetica,sans-Serif" font-size="10.00" fill="#000000">src/engine/EventManager.hxx</text>
</a>
</g>
</g>
<!-- Node17&#45;&gt;Node20 -->
<g id="edge5" class="edge">
<title>Node17&#45;&gt;Node20</title>
<path fill="none" stroke="#191970" d="M539.2771,-107.5971C558.6382,-97.558 583.9385,-84.4393 600.9034,-75.6427"/>
<polygon fill="#191970" stroke="#191970" points="537.5786,-104.5352 530.3122,-112.2455 540.8008,-110.7495 537.5786,-104.5352"/>
</g>
<!-- Node23 -->
<g id="node9" class="node">
<title>Node23</title>
<g id="a_node9"><a xlink:href="Game_8cxx.html" target="_top" xlink:title="src/Game.cxx">
<polygon fill="none" stroke="#000000" points="470,-.5 470,-19.5 553,-19.5 553,-.5 470,-.5"/>
<text text-anchor="middle" x="511.5" y="-7.5" font-family="Helvetica,sans-Serif" font-size="10.00" fill="#000000">src/Game.cxx</text>
</a>
</g>
</g>
<!-- Node17&#45;&gt;Node23 -->
<g id="edge11" class="edge">
<title>Node17&#45;&gt;Node23</title>
<path fill="none" stroke="#191970" d="M511.5,-102.2702C511.5,-77.9985 511.5,-37.7725 511.5,-19.5249"/>
<polygon fill="#191970" stroke="#191970" points="508.0001,-102.4509 511.5,-112.4509 515.0001,-102.451 508.0001,-102.4509"/>
</g>
<!-- Node24 -->
<g id="node10" class="node">
<title>Node24</title>
<g id="a_node10"><a xlink:href="Engine_8cxx.html" target="_top" xlink:title="src/engine/Engine.cxx">
<polygon fill="none" stroke="#000000" points="0,-56.5 0,-75.5 123,-75.5 123,-56.5 0,-56.5"/>
<text text-anchor="middle" x="61.5" y="-63.5" font-family="Helvetica,sans-Serif" font-size="10.00" fill="#000000">src/engine/Engine.cxx</text>
</a>
</g>
</g>
<!-- Node17&#45;&gt;Node24 -->
<g id="edge9" class="edge">
<title>Node17&#45;&gt;Node24</title>
<path fill="none" stroke="#191970" d="M439.4347,-113.6692C363.1519,-104.7534 239.2648,-89.9965 132.5,-76 129.4144,-75.5955 126.2543,-75.1746 123.0638,-74.7444"/>
<polygon fill="#191970" stroke="#191970" points="439.0774,-117.1511 449.4158,-114.8341 439.889,-110.1983 439.0774,-117.1511"/>
</g>
<!-- Node17&#45;&gt;Node25 -->
<g id="edge10" class="edge">
<title>Node17&#45;&gt;Node25</title>
<path fill="none" stroke="#191970" d="M568.6976,-110.4366C619.7639,-100.1127 693.6582,-85.1738 741.3918,-75.5237"/>
<polygon fill="#191970" stroke="#191970" points="567.9114,-107.0246 558.8033,-112.4369 569.2985,-113.8858 567.9114,-107.0246"/>
</g>
<!-- Node21 -->
<g id="node7" class="node">
<title>Node21</title>
<g id="a_node7"><a xlink:href="Timer_8cxx.html" target="_top" xlink:title="src/engine/basics/Timer.cxx">
<polygon fill="none" stroke="#000000" points="571.5,-.5 571.5,-19.5 723.5,-19.5 723.5,-.5 571.5,-.5"/>
<text text-anchor="middle" x="647.5" y="-7.5" font-family="Helvetica,sans-Serif" font-size="10.00" fill="#000000">src/engine/basics/Timer.cxx</text>
</a>
</g>
</g>
<!-- Node20&#45;&gt;Node21 -->
<g id="edge6" class="edge">
<title>Node20&#45;&gt;Node21</title>
<path fill="none" stroke="#191970" d="M628.9781,-47.0437C633.5835,-37.8331 638.9201,-27.1598 642.6787,-19.6427"/>
<polygon fill="#191970" stroke="#191970" points="625.7189,-45.736 624.3772,-56.2455 631.9799,-48.8665 625.7189,-45.736"/>
</g>
<!-- Node20&#45;&gt;Node22 -->
<g id="edge7" class="edge">
<title>Node20&#45;&gt;Node22</title>
<path fill="none" stroke="#191970" d="M669.3852,-54.1125C712.652,-43.8021 774.4604,-29.0733 814.5346,-19.5237"/>
<polygon fill="#191970" stroke="#191970" points="668.5472,-50.7141 659.6309,-56.4369 670.1699,-57.5234 668.5472,-50.7141"/>
</g>
<!-- Node20&#45;&gt;Node23 -->
<g id="edge8" class="edge">
<title>Node20&#45;&gt;Node23</title>
<path fill="none" stroke="#191970" d="M591.7229,-51.5971C572.3618,-41.558 547.0615,-28.4393 530.0966,-19.6427"/>
<polygon fill="#191970" stroke="#191970" points="590.1992,-54.7495 600.6878,-56.2455 593.4214,-48.5352 590.1992,-54.7495"/>
</g>
<!-- Node27&#45;&gt;Node16 -->
<g id="edge16" class="edge">
<title>Node27&#45;&gt;Node16</title>
<path fill="none" stroke="#191970" d="M985.3443,-225.3813C961.3937,-213.7832 928.1195,-197.6701 907.2044,-187.5419"/>
<polygon fill="#191970" stroke="#191970" points="984.1305,-228.6823 994.6563,-229.8906 987.1814,-222.3821 984.1305,-228.6823"/>
</g>
<!-- Node27&#45;&gt;Node28 -->
<g id="edge17" class="edge">
<title>Node27&#45;&gt;Node28</title>
<path fill="none" stroke="#191970" d="M1044.4722,-225.5357C1069.3894,-213.9265 1104.1847,-197.7151 1126.0198,-187.5419"/>
<polygon fill="#191970" stroke="#191970" points="1042.7113,-222.4948 1035.125,-229.8906 1045.6676,-228.8399 1042.7113,-222.4948"/>
</g>
<!-- Node30 -->
<g id="node16" class="node">
<title>Node30</title>
<g id="a_node16"><a xlink:href="TerrainGenerator_8cxx.html" target="_top" xlink:title="src/engine/map/TerrainGenerator.cxx">
<polygon fill="none" stroke="#000000" points="1043.5,-112.5 1043.5,-131.5 1239.5,-131.5 1239.5,-112.5 1043.5,-112.5"/>
<text text-anchor="middle" x="1141.5" y="-119.5" font-family="Helvetica,sans-Serif" font-size="10.00" fill="#000000">src/engine/map/TerrainGenerator.cxx</text>
</a>
</g>
</g>
<!-- Node27&#45;&gt;Node30 -->
<g id="edge22" class="edge">
<title>Node27&#45;&gt;Node30</title>
<path fill="none" stroke="#191970" d="M1013.5193,-219.7973C1013.779,-204.11 1016.5964,-182.4587 1028.5,-168 1043.8475,-149.3583 1067.9344,-138.1974 1089.9337,-131.5514"/>
<polygon fill="#191970" stroke="#191970" points="1010.0227,-220.0377 1013.6889,-229.978 1017.0218,-219.921 1010.0227,-220.0377"/>
</g>
<!-- Node28&#45;&gt;Node26 -->
<g id="edge20" class="edge">
<title>Node28&#45;&gt;Node26</title>
<path fill="none" stroke="#191970" d="M1106.6596,-165.3235C1074.3827,-155.0536 1029.6148,-140.8093 1000.3607,-131.5011"/>
<polygon fill="#191970" stroke="#191970" points="1105.654,-168.6764 1116.2445,-168.3733 1107.7765,-162.0059 1105.654,-168.6764"/>
</g>
<!-- Node29 -->
<g id="node15" class="node">
<title>Node29</title>
<g id="a_node15"><a xlink:href="Settings_8cxx.html" target="_top" xlink:title="src/engine/basics/Settings.cxx">
<polygon fill="none" stroke="#000000" points="1427.5,-112.5 1427.5,-131.5 1591.5,-131.5 1591.5,-112.5 1427.5,-112.5"/>
<text text-anchor="middle" x="1509.5" y="-119.5" font-family="Helvetica,sans-Serif" font-size="10.00" fill="#000000">src/engine/basics/Settings.cxx</text>
</a>
</g>
</g>
<!-- Node28&#45;&gt;Node29 -->
<g id="edge18" class="edge">
<title>Node28&#45;&gt;Node29</title>
<path fill="none" stroke="#191970" d="M1218.5472,-166.8853C1285.5448,-156.5496 1384.3005,-141.3145 1447.7662,-131.5237"/>
<polygon fill="#191970" stroke="#191970" points="1217.8389,-163.4531 1208.4895,-168.4369 1218.9062,-170.3712 1217.8389,-163.4531"/>
</g>
<!-- Node28&#45;&gt;Node30 -->
<g id="edge19" class="edge">
<title>Node28&#45;&gt;Node30</title>
<path fill="none" stroke="#191970" d="M1144.7283,-158.1575C1143.9246,-149.155 1143.0107,-138.9199 1142.361,-131.6427"/>
<polygon fill="#191970" stroke="#191970" points="1141.2535,-158.5965 1145.6291,-168.2455 1148.2258,-157.9739 1141.2535,-158.5965"/>
</g>
<!-- Node31 -->
<g id="node17" class="node">
<title>Node31</title>
<g id="a_node17"><a xlink:href="AudioMixer_8cxx.html" target="_top" xlink:title="src/services/AudioMixer.cxx">
<polygon fill="none" stroke="#000000" points="1257.5,-112.5 1257.5,-131.5 1409.5,-131.5 1409.5,-112.5 1257.5,-112.5"/>
<text text-anchor="middle" x="1333.5" y="-119.5" font-family="Helvetica,sans-Serif" font-size="10.00" fill="#000000">src/services/AudioMixer.cxx</text>
</a>
</g>
</g>
<!-- Node28&#45;&gt;Node31 -->
<g id="edge21" class="edge">
<title>Node28&#45;&gt;Node31</title>
<path fill="none" stroke="#191970" d="M1188.3877,-165.4561C1222.7143,-155.1765 1270.5565,-140.8494 1301.773,-131.5011"/>
<polygon fill="#191970" stroke="#191970" points="1187.222,-162.1515 1178.6464,-168.3733 1189.2302,-168.8573 1187.222,-162.1515"/>
</g>
</g>
</svg>
