<?xml version="1.0" encoding="UTF-8" standalone="no"?>
<!DOCTYPE svg PUBLIC "-//W3C//DTD SVG 1.1//EN"
 "http://www.w3.org/Graphics/SVG/1.1/DTD/svg11.dtd">
<!-- Generated by graphviz version 2.40.1 (20161225.0304)
 -->
<!-- Title: src/engine/GameObjects/MapNode.hxx Pages: 1 -->
<svg width="826pt" height="207pt"
 viewBox="0.00 0.00 826.29 207.00" xmlns="http://www.w3.org/2000/svg" xmlns:xlink="http://www.w3.org/1999/xlink">
<g id="graph0" class="graph" transform="scale(1 1) rotate(0) translate(4 203)">
<title>src/engine/GameObjects/MapNode.hxx</title>
<!-- Node0 -->
<g id="node1" class="node">
<title>Node0</title>
<polygon fill="#bfbfbf" stroke="#000000" points="229,-168.5 229,-198.5 365,-198.5 365,-168.5 229,-168.5"/>
<text text-anchor="start" x="237" y="-186.5" font-family="Helvetica,sans-Serif" font-size="10.00" fill="#000000">src/engine/GameObjects</text>
<text text-anchor="middle" x="297" y="-175.5" font-family="Helvetica,sans-Serif" font-size="10.00" fill="#000000">/MapNode.hxx</text>
</g>
<!-- Node1 -->
<g id="node2" class="node">
<title>Node1</title>
<polygon fill="none" stroke="#bfbfbf" points="338,-56.5 338,-75.5 382,-75.5 382,-56.5 338,-56.5"/>
<text text-anchor="middle" x="360" y="-63.5" font-family="Helvetica,sans-Serif" font-size="10.00" fill="#000000">SDL.h</text>
</g>
<!-- Node0&#45;&gt;Node1 -->
<g id="edge1" class="edge">
<title>Node0&#45;&gt;Node1</title>
<path fill="none" stroke="#191970" d="M324.4422,-168.3811C337.4396,-159.6128 351.6904,-147.2723 359,-132 365.8799,-117.6255 365.5804,-99.3926 363.8712,-85.7347"/>
<polygon fill="#191970" stroke="#191970" points="367.2727,-84.8414 362.2307,-75.5233 360.3613,-85.9519 367.2727,-84.8414"/>
</g>
<!-- Node2 -->
<g id="node3" class="node">
<title>Node2</title>
<polygon fill="none" stroke="#bfbfbf" points="63,-112.5 63,-131.5 121,-131.5 121,-112.5 63,-112.5"/>
<text text-anchor="middle" x="92" y="-119.5" font-family="Helvetica,sans-Serif" font-size="10.00" fill="#000000">memory</text>
</g>
<!-- Node0&#45;&gt;Node2 -->
<g id="edge2" class="edge">
<title>Node0&#45;&gt;Node2</title>
<path fill="none" stroke="#191970" d="M246.8514,-168.4554C211.0797,-157.7239 163.6797,-143.5039 130.7867,-133.636"/>
<polygon fill="#191970" stroke="#191970" points="131.6572,-130.2431 121.0732,-130.7219 129.6457,-136.9479 131.6572,-130.2431"/>
</g>
<!-- Node3 -->
<g id="node4" class="node">
<title>Node3</title>
<polygon fill="none" stroke="#bfbfbf" points="484,-.5 484,-19.5 528,-19.5 528,-.5 484,-.5"/>
<text text-anchor="middle" x="506" y="-7.5" font-family="Helvetica,sans-Serif" font-size="10.00" fill="#000000">string</text>
</g>
<!-- Node0&#45;&gt;Node3 -->
<g id="edge3" class="edge">
<title>Node0&#45;&gt;Node3</title>
<path fill="none" stroke="#191970" d="M365.0012,-179.7703C492.303,-171.2029 758.7498,-145.2409 814,-76 819.5441,-69.052 819.8026,-62.7336 814,-56 796.1291,-35.2619 613.7443,-18.5449 538.3481,-12.4672"/>
<polygon fill="#191970" stroke="#191970" points="538.2783,-8.9507 528.0327,-11.6485 537.7244,-15.9288 538.2783,-8.9507"/>
</g>
<!-- Node4 -->
<g id="node5" class="node">
<title>Node4</title>
<polygon fill="none" stroke="#bfbfbf" points="177,-112.5 177,-131.5 241,-131.5 241,-112.5 177,-112.5"/>
<text text-anchor="middle" x="209" y="-119.5" font-family="Helvetica,sans-Serif" font-size="10.00" fill="#000000">algorithm</text>
</g>
<!-- Node0&#45;&gt;Node4 -->
<g id="edge4" class="edge">
<title>Node0&#45;&gt;Node4</title>
<path fill="none" stroke="#191970" d="M275.2472,-168.2977C261.8032,-158.9022 244.5989,-146.8787 231.0922,-137.4395"/>
<polygon fill="#191970" stroke="#191970" points="233.0288,-134.5228 222.8271,-131.6633 229.0189,-140.2605 233.0288,-134.5228"/>
</g>
<!-- Node5 -->
<g id="node6" class="node">
<title>Node5</title>
<polygon fill="none" stroke="#bfbfbf" points="141.5,-56.5 141.5,-75.5 188.5,-75.5 188.5,-56.5 141.5,-56.5"/>
<text text-anchor="middle" x="165" y="-63.5" font-family="Helvetica,sans-Serif" font-size="10.00" fill="#000000">vector</text>
</g>
<!-- Node0&#45;&gt;Node5 -->
<g id="edge5" class="edge">
<title>Node0&#45;&gt;Node5</title>
<path fill="none" stroke="#191970" d="M228.9318,-171.8831C205.8595,-164.4119 182.3253,-152.143 168,-132 158.5582,-118.7238 158.6698,-99.8634 160.6404,-85.7018"/>
<polygon fill="#191970" stroke="#191970" points="164.1411,-86.0108 162.4724,-75.5482 157.2523,-84.7678 164.1411,-86.0108"/>
</g>
<!-- Node6 -->
<g id="node7" class="node">
<title>Node6</title>
<g id="a_node7"><a xlink:href="Sprite_8hxx.html" target="_top" xlink:title="../Sprite.hxx">
<polygon fill="none" stroke="#000000" points="259.5,-112.5 259.5,-131.5 334.5,-131.5 334.5,-112.5 259.5,-112.5"/>
<text text-anchor="middle" x="297" y="-119.5" font-family="Helvetica,sans-Serif" font-size="10.00" fill="#000000">../Sprite.hxx</text>
</a>
</g>
</g>
<!-- Node0&#45;&gt;Node6 -->
<g id="edge6" class="edge">
<title>Node0&#45;&gt;Node6</title>
<path fill="none" stroke="#191970" d="M297,-168.2977C297,-160.3834 297,-150.6043 297,-142.0759"/>
<polygon fill="#191970" stroke="#191970" points="300.5001,-141.8469 297,-131.8469 293.5001,-141.847 300.5001,-141.8469"/>
</g>
<!-- Node7 -->
<g id="node8" class="node">
<title>Node7</title>
<g id="a_node8"><a xlink:href="point_8hxx.html" target="_top" xlink:title="basics/point.hxx">
<polygon fill="none" stroke="#000000" points="224,-56.5 224,-75.5 320,-75.5 320,-56.5 224,-56.5"/>
<text text-anchor="middle" x="272" y="-63.5" font-family="Helvetica,sans-Serif" font-size="10.00" fill="#000000">basics/point.hxx</text>
</a>
</g>
</g>
<!-- Node0&#45;&gt;Node7 -->
<g id="edge13" class="edge">
<title>Node0&#45;&gt;Node7</title>
<path fill="none" stroke="#191970" d="M317.9333,-168.2798C334.7591,-154.0716 353.9274,-132.1001 343,-112 335.3623,-97.9511 321.3791,-87.5317 307.8292,-80.1958"/>
<polygon fill="#191970" stroke="#191970" points="309.113,-76.9253 298.601,-75.603 305.9941,-83.1921 309.113,-76.9253"/>
</g>
<!-- Node8 -->
<g id="node9" class="node">
<title>Node8</title>
<g id="a_node9"><a xlink:href="enums_8hxx.html" target="_top" xlink:title="common/enums.hxx">
<polygon fill="none" stroke="#000000" points="0,-56.5 0,-75.5 116,-75.5 116,-56.5 0,-56.5"/>
<text text-anchor="middle" x="58" y="-63.5" font-family="Helvetica,sans-Serif" font-size="10.00" fill="#000000">common/enums.hxx</text>
</a>
</g>
</g>
<!-- Node0&#45;&gt;Node8 -->
<g id="edge12" class="edge">
<title>Node0&#45;&gt;Node8</title>
<path fill="none" stroke="#191970" d="M228.9756,-178.4838C164.9319,-172.1788 75.6854,-158.7629 54,-132 43.5324,-119.0814 46.1903,-99.6531 50.472,-85.2171"/>
<polygon fill="#191970" stroke="#191970" points="53.7846,-86.3467 53.7122,-75.7521 47.162,-84.0794 53.7846,-86.3467"/>
</g>
<!-- Node10 -->
<g id="node11" class="node">
<title>Node10</title>
<g id="a_node11"><a xlink:href="TileManager_8hxx.html" target="_top" xlink:title="../TileManager.hxx">
<polygon fill="none" stroke="#000000" points="453,-112.5 453,-131.5 559,-131.5 559,-112.5 453,-112.5"/>
<text text-anchor="middle" x="506" y="-119.5" font-family="Helvetica,sans-Serif" font-size="10.00" fill="#000000">../TileManager.hxx</text>
</a>
</g>
</g>
<!-- Node0&#45;&gt;Node10 -->
<g id="edge14" class="edge">
<title>Node0&#45;&gt;Node10</title>
<path fill="none" stroke="#191970" d="M348.1272,-168.4554C383.6111,-158.0139 430.3182,-144.27 463.7056,-134.4455"/>
<polygon fill="#191970" stroke="#191970" points="465.0072,-137.7109 473.6124,-131.5303 463.0311,-130.9956 465.0072,-137.7109"/>
</g>
<!-- Node6&#45;&gt;Node1 -->
<g id="edge7" class="edge">
<title>Node6&#45;&gt;Node1</title>
<path fill="none" stroke="#191970" d="M307.9738,-112.2455C317.1882,-104.0549 330.5532,-92.1749 341.4297,-82.5069"/>
<polygon fill="#191970" stroke="#191970" points="344.0032,-84.9023 349.152,-75.6427 339.3526,-79.6704 344.0032,-84.9023"/>
</g>
<!-- Node6&#45;&gt;Node5 -->
<g id="edge8" class="edge">
<title>Node6&#45;&gt;Node5</title>
<path fill="none" stroke="#191970" d="M274.3084,-112.3733C252.9289,-103.3032 220.6943,-89.6279 196.7638,-79.4755"/>
<polygon fill="#191970" stroke="#191970" points="197.9683,-76.1846 187.3955,-75.5011 195.2344,-82.6287 197.9683,-76.1846"/>
</g>
<!-- Node6&#45;&gt;Node7 -->
<g id="edge9" class="edge">
<title>Node6&#45;&gt;Node7</title>
<path fill="none" stroke="#191970" d="M292.6453,-112.2455C289.2756,-104.6973 284.507,-94.0158 280.4017,-84.8197"/>
<polygon fill="#191970" stroke="#191970" points="283.5773,-83.3473 276.3048,-75.6427 277.1853,-86.2009 283.5773,-83.3473"/>
</g>
<!-- Node6&#45;&gt;Node8 -->
<g id="edge10" class="edge">
<title>Node6&#45;&gt;Node8</title>
<path fill="none" stroke="#191970" d="M259.3933,-113.1884C218.6963,-103.6527 153.5828,-88.396 108.4596,-77.8232"/>
<polygon fill="#191970" stroke="#191970" points="109.1186,-74.3829 98.5838,-75.5092 107.5216,-81.1983 109.1186,-74.3829"/>
</g>
<!-- Node9 -->
<g id="node10" class="node">
<title>Node9</title>
<polygon fill="none" stroke="#bfbfbf" points="30,-.5 30,-19.5 86,-19.5 86,-.5 30,-.5"/>
<text text-anchor="middle" x="58" y="-7.5" font-family="Helvetica,sans-Serif" font-size="10.00" fill="#000000">stddef.h</text>
</g>
<!-- Node8&#45;&gt;Node9 -->
<g id="edge11" class="edge">
<title>Node8&#45;&gt;Node9</title>
<path fill="none" stroke="#191970" d="M58,-56.2455C58,-48.9382 58,-38.6944 58,-29.7046"/>
<polygon fill="#191970" stroke="#191970" points="61.5001,-29.6426 58,-19.6427 54.5001,-29.6427 61.5001,-29.6426"/>
</g>
<!-- Node10&#45;&gt;Node1 -->
<g id="edge15" class="edge">
<title>Node10&#45;&gt;Node1</title>
<path fill="none" stroke="#191970" d="M480.9017,-112.3733C456.3216,-102.9453 418.7687,-88.5414 392.0434,-78.2906"/>
<polygon fill="#191970" stroke="#191970" points="392.9707,-74.8977 382.3804,-74.5843 390.4638,-81.4334 392.9707,-74.8977"/>
</g>
<!-- Node10&#45;&gt;Node3 -->
<g id="edge17" class="edge">
<title>Node10&#45;&gt;Node3</title>
<path fill="none" stroke="#191970" d="M506,-112.4509C506,-94.184 506,-53.9553 506,-29.6976"/>
<polygon fill="#191970" stroke="#191970" points="509.5001,-29.5249 506,-19.5249 502.5001,-29.5249 509.5001,-29.5249"/>
</g>
<!-- Node11 -->
<g id="node12" class="node">
<title>Node11</title>
<polygon fill="none" stroke="#bfbfbf" points="534.5,-56.5 534.5,-75.5 627.5,-75.5 627.5,-56.5 534.5,-56.5"/>
<text text-anchor="middle" x="581" y="-63.5" font-family="Helvetica,sans-Serif" font-size="10.00" fill="#000000">unordered_map</text>
</g>
<!-- Node10&#45;&gt;Node11 -->
<g id="edge16" class="edge">
<title>Node10&#45;&gt;Node11</title>
<path fill="none" stroke="#191970" d="M519.064,-112.2455C530.3562,-103.814 546.8845,-91.4729 560.0271,-81.6598"/>
<polygon fill="#191970" stroke="#191970" points="562.1669,-84.4301 568.0857,-75.6427 557.9789,-78.8211 562.1669,-84.4301"/>
</g>
<!-- Node12 -->
<g id="node13" class="node">
<title>Node12</title>
<g id="a_node13"><a xlink:href="tileData_8hxx.html" target="_top" xlink:title="tileData.hxx">
<polygon fill="none" stroke="#000000" points="400.5,-56.5 400.5,-75.5 477.5,-75.5 477.5,-56.5 400.5,-56.5"/>
<text text-anchor="middle" x="439" y="-63.5" font-family="Helvetica,sans-Serif" font-size="10.00" fill="#000000">tileData.hxx</text>
</a>
</g>
</g>
<!-- Node10&#45;&gt;Node12 -->
<g id="edge18" class="edge">
<title>Node10&#45;&gt;Node12</title>
<path fill="none" stroke="#191970" d="M494.3295,-112.2455C484.4339,-103.9746 470.0373,-91.9416 458.4099,-82.2232"/>
<polygon fill="#191970" stroke="#191970" points="460.4542,-79.3703 450.5368,-75.6427 455.965,-84.7413 460.4542,-79.3703"/>
</g>
<!-- Node13 -->
<g id="node14" class="node">
<title>Node13</title>
<polygon fill="none" stroke="#bfbfbf" points="646,-56.5 646,-75.5 704,-75.5 704,-56.5 646,-56.5"/>
<text text-anchor="middle" x="675" y="-63.5" font-family="Helvetica,sans-Serif" font-size="10.00" fill="#000000">json.hxx</text>
</g>
<!-- Node10&#45;&gt;Node13 -->
<g id="edge20" class="edge">
<title>Node10&#45;&gt;Node13</title>
<path fill="none" stroke="#191970" d="M535.0521,-112.3733C563.1543,-103.0613 605.9054,-88.8953 636.7607,-78.671"/>
<polygon fill="#191970" stroke="#191970" points="637.9355,-81.969 646.327,-75.5011 635.7336,-75.3243 637.9355,-81.969"/>
</g>
<!-- Node14 -->
<g id="node15" class="node">
<title>Node14</title>
<g id="a_node15"><a xlink:href="Singleton_8hxx.html" target="_top" xlink:title="Singleton.hxx">
<polygon fill="none" stroke="#000000" points="722.5,-56.5 722.5,-75.5 805.5,-75.5 805.5,-56.5 722.5,-56.5"/>
<text text-anchor="middle" x="764" y="-63.5" font-family="Helvetica,sans-Serif" font-size="10.00" fill="#000000">Singleton.hxx</text>
</a>
</g>
</g>
<!-- Node10&#45;&gt;Node14 -->
<g id="edge21" class="edge">
<title>Node10&#45;&gt;Node14</title>
<path fill="none" stroke="#191970" d="M550.0586,-112.4369C595.0707,-102.6668 664.9207,-87.5056 712.4687,-77.1851"/>
<polygon fill="#191970" stroke="#191970" points="713.2294,-80.6016 722.2594,-75.06 711.7445,-73.7608 713.2294,-80.6016"/>
</g>
<!-- Node12&#45;&gt;Node3 -->
<g id="edge19" class="edge">
<title>Node12&#45;&gt;Node3</title>
<path fill="none" stroke="#191970" d="M450.6705,-56.2455C460.5661,-47.9746 474.9627,-35.9416 486.5901,-26.2232"/>
<polygon fill="#191970" stroke="#191970" points="489.035,-28.7413 494.4632,-19.6427 484.5458,-23.3703 489.035,-28.7413"/>
</g>
</g>
</svg>
