<?xml version="1.0" encoding="UTF-8" standalone="no"?>
<!DOCTYPE svg PUBLIC "-//W3C//DTD SVG 1.1//EN"
 "http://www.w3.org/Graphics/SVG/1.1/DTD/svg11.dtd">
<!-- Generated by graphviz version 2.40.1 (20161225.0304)
 -->
<!-- Title: src/engine/GameObjects/MapNode.cxx Pages: 1 -->
<svg width="1143pt" height="263pt"
 viewBox="0.00 0.00 1143.35 263.00" xmlns="http://www.w3.org/2000/svg" xmlns:xlink="http://www.w3.org/1999/xlink">
<g id="graph0" class="graph" transform="scale(1 1) rotate(0) translate(4 259)">
<title>src/engine/GameObjects/MapNode.cxx</title>
<!-- Node0 -->
<g id="node1" class="node">
<title>Node0</title>
<polygon fill="#bfbfbf" stroke="#000000" points="547.3531,-224.5 547.3531,-254.5 683.3531,-254.5 683.3531,-224.5 547.3531,-224.5"/>
<text text-anchor="start" x="555.3531" y="-242.5" font-family="Helvetica,sans-Serif" font-size="10.00" fill="#000000">src/engine/GameObjects</text>
<text text-anchor="middle" x="615.3531" y="-231.5" font-family="Helvetica,sans-Serif" font-size="10.00" fill="#000000">/MapNode.cxx</text>
</g>
<!-- Node1 -->
<g id="node2" class="node">
<title>Node1</title>
<polygon fill="none" stroke="#bfbfbf" points="414.8531,-168.5 414.8531,-187.5 463.8531,-187.5 463.8531,-168.5 414.8531,-168.5"/>
<text text-anchor="middle" x="439.3531" y="-175.5" font-family="Helvetica,sans-Serif" font-size="10.00" fill="#000000">cstdlib</text>
</g>
<!-- Node0&#45;&gt;Node1 -->
<g id="edge1" class="edge">
<title>Node0&#45;&gt;Node1</title>
<path fill="none" stroke="#191970" d="M572.2987,-224.4554C542.0263,-213.8773 502.0538,-199.9096 473.8711,-190.0617"/>
<polygon fill="#191970" stroke="#191970" points="474.6561,-186.6285 464.0613,-186.6338 472.3469,-193.2367 474.6561,-186.6285"/>
</g>
<!-- Node2 -->
<g id="node3" class="node">
<title>Node2</title>
<g id="a_node3"><a xlink:href="MapNode_8hxx.html" target="_top" xlink:title="MapNode.hxx">
<polygon fill="none" stroke="#000000" points="481.8531,-168.5 481.8531,-187.5 564.8531,-187.5 564.8531,-168.5 481.8531,-168.5"/>
<text text-anchor="middle" x="523.3531" y="-175.5" font-family="Helvetica,sans-Serif" font-size="10.00" fill="#000000">MapNode.hxx</text>
</a>
</g>
</g>
<!-- Node0&#45;&gt;Node2 -->
<g id="edge2" class="edge">
<title>Node0&#45;&gt;Node2</title>
<path fill="none" stroke="#191970" d="M592.6115,-224.2977C578.5565,-214.9022 560.5701,-202.8787 546.4496,-193.4395"/>
<polygon fill="#191970" stroke="#191970" points="548.0674,-190.311 537.8087,-187.6633 544.1772,-196.1305 548.0674,-190.311"/>
</g>
<!-- Node17 -->
<g id="node18" class="node">
<title>Node17</title>
<g id="a_node18"><a xlink:href="LOG_8hxx.html" target="_top" xlink:title="../basics/LOG.hxx">
<polygon fill="none" stroke="#000000" points="848.8531,-168.5 848.8531,-187.5 949.8531,-187.5 949.8531,-168.5 848.8531,-168.5"/>
<text text-anchor="middle" x="899.3531" y="-175.5" font-family="Helvetica,sans-Serif" font-size="10.00" fill="#000000">../basics/LOG.hxx</text>
</a>
</g>
</g>
<!-- Node0&#45;&gt;Node17 -->
<g id="edge24" class="edge">
<title>Node0&#45;&gt;Node17</title>
<path fill="none" stroke="#191970" d="M683.3782,-224.7692C733.0647,-214.0096 799.516,-199.6197 845.527,-189.656"/>
<polygon fill="#191970" stroke="#191970" points="846.2777,-193.0747 855.3104,-187.5374 844.7961,-186.2332 846.2777,-193.0747"/>
</g>
<!-- Node23 -->
<g id="node24" class="node">
<title>Node23</title>
<g id="a_node24"><a xlink:href="MapLayers_8hxx.html" target="_top" xlink:title="../map/MapLayers.hxx">
<polygon fill="none" stroke="#000000" points="645.3531,-168.5 645.3531,-187.5 769.3531,-187.5 769.3531,-168.5 645.3531,-168.5"/>
<text text-anchor="middle" x="707.3531" y="-175.5" font-family="Helvetica,sans-Serif" font-size="10.00" fill="#000000">../map/MapLayers.hxx</text>
</a>
</g>
</g>
<!-- Node0&#45;&gt;Node23 -->
<g id="edge31" class="edge">
<title>Node0&#45;&gt;Node23</title>
<path fill="none" stroke="#191970" d="M638.0947,-224.2977C652.1498,-214.9022 670.1361,-202.8787 684.2567,-193.4395"/>
<polygon fill="#191970" stroke="#191970" points="686.529,-196.1305 692.8975,-187.6633 682.6388,-190.311 686.529,-196.1305"/>
</g>
<!-- Node3 -->
<g id="node4" class="node">
<title>Node3</title>
<polygon fill="none" stroke="#bfbfbf" points="445.3531,-56.5 445.3531,-75.5 489.3531,-75.5 489.3531,-56.5 445.3531,-56.5"/>
<text text-anchor="middle" x="467.3531" y="-63.5" font-family="Helvetica,sans-Serif" font-size="10.00" fill="#000000">SDL.h</text>
</g>
<!-- Node2&#45;&gt;Node3 -->
<g id="edge3" class="edge">
<title>Node2&#45;&gt;Node3</title>
<path fill="none" stroke="#191970" d="M481.8067,-168.5461C430.829,-156.7504 350.5776,-137.4627 346.3531,-132 340.9154,-124.9684 341.3066,-119.3174 346.3531,-112 356.7725,-96.892 403.1471,-82.3382 435.3582,-73.7808"/>
<polygon fill="#191970" stroke="#191970" points="436.4507,-77.1135 445.2551,-71.22 434.6972,-70.3366 436.4507,-77.1135"/>
</g>
<!-- Node4 -->
<g id="node5" class="node">
<title>Node4</title>
<polygon fill="none" stroke="#bfbfbf" points="355.3531,-112.5 355.3531,-131.5 413.3531,-131.5 413.3531,-112.5 355.3531,-112.5"/>
<text text-anchor="middle" x="384.3531" y="-119.5" font-family="Helvetica,sans-Serif" font-size="10.00" fill="#000000">memory</text>
</g>
<!-- Node2&#45;&gt;Node4 -->
<g id="edge4" class="edge">
<title>Node2&#45;&gt;Node4</title>
<path fill="none" stroke="#191970" d="M499.4582,-168.3733C476.8449,-159.2629 442.699,-145.5062 417.4659,-135.3404"/>
<polygon fill="#191970" stroke="#191970" points="418.5197,-131.9917 407.9363,-131.5011 415.9039,-138.4845 418.5197,-131.9917"/>
</g>
<!-- Node5 -->
<g id="node6" class="node">
<title>Node5</title>
<polygon fill="none" stroke="#bfbfbf" points="30.3531,-.5 30.3531,-19.5 74.3531,-19.5 74.3531,-.5 30.3531,-.5"/>
<text text-anchor="middle" x="52.3531" y="-7.5" font-family="Helvetica,sans-Serif" font-size="10.00" fill="#000000">string</text>
</g>
<!-- Node2&#45;&gt;Node5 -->
<g id="edge5" class="edge">
<title>Node2&#45;&gt;Node5</title>
<path fill="none" stroke="#191970" d="M481.6466,-169.578C478.5062,-169.0187 475.3822,-168.4857 472.3531,-168 367.6994,-151.2196 67.1892,-161.3558 4.3531,-76 -8.279,-58.8406 10.4961,-39.0648 28.1368,-25.6686"/>
<polygon fill="#191970" stroke="#191970" points="30.4639,-28.3073 36.563,-19.6441 26.3927,-22.613 30.4639,-28.3073"/>
</g>
<!-- Node6 -->
<g id="node7" class="node">
<title>Node6</title>
<polygon fill="none" stroke="#bfbfbf" points="431.3531,-112.5 431.3531,-131.5 495.3531,-131.5 495.3531,-112.5 431.3531,-112.5"/>
<text text-anchor="middle" x="463.3531" y="-119.5" font-family="Helvetica,sans-Serif" font-size="10.00" fill="#000000">algorithm</text>
</g>
<!-- Node2&#45;&gt;Node6 -->
<g id="edge6" class="edge">
<title>Node2&#45;&gt;Node6</title>
<path fill="none" stroke="#191970" d="M512.9019,-168.2455C504.1263,-160.0549 491.3977,-148.1749 481.0391,-138.5069"/>
<polygon fill="#191970" stroke="#191970" points="483.3833,-135.9072 473.6846,-131.6427 478.607,-141.0246 483.3833,-135.9072"/>
</g>
<!-- Node7 -->
<g id="node8" class="node">
<title>Node7</title>
<polygon fill="none" stroke="#bfbfbf" points="511.8531,-56.5 511.8531,-75.5 558.8531,-75.5 558.8531,-56.5 511.8531,-56.5"/>
<text text-anchor="middle" x="535.3531" y="-63.5" font-family="Helvetica,sans-Serif" font-size="10.00" fill="#000000">vector</text>
</g>
<!-- Node2&#45;&gt;Node7 -->
<g id="edge7" class="edge">
<title>Node2&#45;&gt;Node7</title>
<path fill="none" stroke="#191970" d="M524.3762,-168.4509C526.3334,-150.184 530.6436,-109.9553 533.2427,-85.6976"/>
<polygon fill="#191970" stroke="#191970" points="536.7473,-85.8409 534.3326,-75.5249 529.7871,-85.0951 536.7473,-85.8409"/>
</g>
<!-- Node8 -->
<g id="node9" class="node">
<title>Node8</title>
<g id="a_node9"><a xlink:href="Sprite_8hxx.html" target="_top" xlink:title="../Sprite.hxx">
<polygon fill="none" stroke="#000000" points="589.8531,-112.5 589.8531,-131.5 664.8531,-131.5 664.8531,-112.5 589.8531,-112.5"/>
<text text-anchor="middle" x="627.3531" y="-119.5" font-family="Helvetica,sans-Serif" font-size="10.00" fill="#000000">../Sprite.hxx</text>
</a>
</g>
</g>
<!-- Node2&#45;&gt;Node8 -->
<g id="edge8" class="edge">
<title>Node2&#45;&gt;Node8</title>
<path fill="none" stroke="#191970" d="M541.4685,-168.2455C557.7982,-159.4527 582.0241,-146.4079 600.587,-136.4125"/>
<polygon fill="#191970" stroke="#191970" points="602.2999,-139.4654 609.4453,-131.6427 598.9812,-133.3021 602.2999,-139.4654"/>
</g>
<!-- Node9 -->
<g id="node10" class="node">
<title>Node9</title>
<g id="a_node10"><a xlink:href="point_8hxx.html" target="_top" xlink:title="basics/point.hxx">
<polygon fill="none" stroke="#000000" points="579.3531,-56.5 579.3531,-75.5 675.3531,-75.5 675.3531,-56.5 579.3531,-56.5"/>
<text text-anchor="middle" x="627.3531" y="-63.5" font-family="Helvetica,sans-Serif" font-size="10.00" fill="#000000">basics/point.hxx</text>
</a>
</g>
</g>
<!-- Node2&#45;&gt;Node9 -->
<g id="edge15" class="edge">
<title>Node2&#45;&gt;Node9</title>
<path fill="none" stroke="#191970" d="M564.9773,-170.9098C604.6973,-163.1954 660.3584,-149.5771 673.3531,-132 685.9114,-115.0133 667.5731,-95.0603 650.4632,-81.5755"/>
<polygon fill="#191970" stroke="#191970" points="652.4186,-78.6681 642.3033,-75.5167 648.2456,-84.2883 652.4186,-78.6681"/>
</g>
<!-- Node10 -->
<g id="node11" class="node">
<title>Node10</title>
<g id="a_node11"><a xlink:href="enums_8hxx.html" target="_top" xlink:title="common/enums.hxx">
<polygon fill="none" stroke="#000000" points="693.3531,-56.5 693.3531,-75.5 809.3531,-75.5 809.3531,-56.5 693.3531,-56.5"/>
<text text-anchor="middle" x="751.3531" y="-63.5" font-family="Helvetica,sans-Serif" font-size="10.00" fill="#000000">common/enums.hxx</text>
</a>
</g>
</g>
<!-- Node2&#45;&gt;Node10 -->
<g id="edge14" class="edge">
<title>Node2&#45;&gt;Node10</title>
<path fill="none" stroke="#191970" d="M565.0129,-173.048C600.4315,-167.3716 651.5634,-155.6099 690.3531,-132 710.441,-119.7732 728.0195,-99.0664 739.0805,-84.1027"/>
<polygon fill="#191970" stroke="#191970" points="742.1451,-85.8326 745.0894,-75.6551 736.441,-81.7751 742.1451,-85.8326"/>
</g>
<!-- Node12 -->
<g id="node13" class="node">
<title>Node12</title>
<g id="a_node13"><a xlink:href="TileManager_8hxx.html" target="_top" xlink:title="../TileManager.hxx">
<polygon fill="none" stroke="#000000" points="193.3531,-112.5 193.3531,-131.5 299.3531,-131.5 299.3531,-112.5 193.3531,-112.5"/>
<text text-anchor="middle" x="246.3531" y="-119.5" font-family="Helvetica,sans-Serif" font-size="10.00" fill="#000000">../TileManager.hxx</text>
</a>
</g>
</g>
<!-- Node2&#45;&gt;Node12 -->
<g id="edge16" class="edge">
<title>Node2&#45;&gt;Node12</title>
<path fill="none" stroke="#191970" d="M481.5835,-169.5556C434.1599,-159.9682 356.5151,-144.271 303.5024,-133.5536"/>
<polygon fill="#191970" stroke="#191970" points="304.0694,-130.0975 293.5741,-131.5465 302.6823,-136.9587 304.0694,-130.0975"/>
</g>
<!-- Node8&#45;&gt;Node3 -->
<g id="edge9" class="edge">
<title>Node8&#45;&gt;Node3</title>
<path fill="none" stroke="#191970" d="M599.8481,-112.3733C571.8744,-102.5825 528.5688,-87.4255 499.1423,-77.1262"/>
<polygon fill="#191970" stroke="#191970" points="499.9553,-73.7026 489.3604,-73.7026 497.6428,-80.3096 499.9553,-73.7026"/>
</g>
<!-- Node8&#45;&gt;Node7 -->
<g id="edge10" class="edge">
<title>Node8&#45;&gt;Node7</title>
<path fill="none" stroke="#191970" d="M611.3279,-112.2455C597.2123,-103.6534 576.4268,-91.0014 560.1632,-81.1018"/>
<polygon fill="#191970" stroke="#191970" points="561.5565,-77.8525 551.1947,-75.6427 557.9168,-83.8319 561.5565,-77.8525"/>
</g>
<!-- Node8&#45;&gt;Node9 -->
<g id="edge11" class="edge">
<title>Node8&#45;&gt;Node9</title>
<path fill="none" stroke="#191970" d="M627.3531,-112.2455C627.3531,-104.9382 627.3531,-94.6944 627.3531,-85.7046"/>
<polygon fill="#191970" stroke="#191970" points="630.8532,-85.6426 627.3531,-75.6427 623.8532,-85.6427 630.8532,-85.6426"/>
</g>
<!-- Node8&#45;&gt;Node10 -->
<g id="edge12" class="edge">
<title>Node8&#45;&gt;Node10</title>
<path fill="none" stroke="#191970" d="M648.6695,-112.3733C668.5747,-103.3838 698.4967,-89.8706 720.9131,-79.7471"/>
<polygon fill="#191970" stroke="#191970" points="722.6418,-82.8068 730.3149,-75.5011 719.7606,-76.4272 722.6418,-82.8068"/>
</g>
<!-- Node11 -->
<g id="node12" class="node">
<title>Node11</title>
<polygon fill="none" stroke="#bfbfbf" points="723.3531,-.5 723.3531,-19.5 779.3531,-19.5 779.3531,-.5 723.3531,-.5"/>
<text text-anchor="middle" x="751.3531" y="-7.5" font-family="Helvetica,sans-Serif" font-size="10.00" fill="#000000">stddef.h</text>
</g>
<!-- Node10&#45;&gt;Node11 -->
<g id="edge13" class="edge">
<title>Node10&#45;&gt;Node11</title>
<path fill="none" stroke="#191970" d="M751.3531,-56.2455C751.3531,-48.9382 751.3531,-38.6944 751.3531,-29.7046"/>
<polygon fill="#191970" stroke="#191970" points="754.8532,-29.6426 751.3531,-19.6427 747.8532,-29.6427 754.8532,-29.6426"/>
</g>
<!-- Node12&#45;&gt;Node3 -->
<g id="edge17" class="edge">
<title>Node12&#45;&gt;Node3</title>
<path fill="none" stroke="#191970" d="M284.0933,-112.4369C326.7353,-101.6317 395.4004,-84.2324 435.4665,-74.0799"/>
<polygon fill="#191970" stroke="#191970" points="436.4095,-77.4516 445.2434,-71.6025 434.6901,-70.6661 436.4095,-77.4516"/>
</g>
<!-- Node12&#45;&gt;Node5 -->
<g id="edge19" class="edge">
<title>Node12&#45;&gt;Node5</title>
<path fill="none" stroke="#191970" d="M299.5459,-115.5716C351.1427,-107.2335 417.663,-89.5959 388.3531,-56 368.535,-33.2839 165.3768,-17.473 84.9135,-12.0578"/>
<polygon fill="#191970" stroke="#191970" points="85.0546,-8.5595 74.8453,-11.3915 84.5923,-15.5443 85.0546,-8.5595"/>
</g>
<!-- Node13 -->
<g id="node14" class="node">
<title>Node13</title>
<polygon fill="none" stroke="#bfbfbf" points="108.8531,-56.5 108.8531,-75.5 201.8531,-75.5 201.8531,-56.5 108.8531,-56.5"/>
<text text-anchor="middle" x="155.3531" y="-63.5" font-family="Helvetica,sans-Serif" font-size="10.00" fill="#000000">unordered_map</text>
</g>
<!-- Node12&#45;&gt;Node13 -->
<g id="edge18" class="edge">
<title>Node12&#45;&gt;Node13</title>
<path fill="none" stroke="#191970" d="M230.5021,-112.2455C216.5399,-103.6534 195.9803,-91.0014 179.8936,-81.1018"/>
<polygon fill="#191970" stroke="#191970" points="181.3734,-77.9029 171.0225,-75.6427 177.7047,-83.8645 181.3734,-77.9029"/>
</g>
<!-- Node14 -->
<g id="node15" class="node">
<title>Node14</title>
<g id="a_node15"><a xlink:href="tileData_8hxx.html" target="_top" xlink:title="tileData.hxx">
<polygon fill="none" stroke="#000000" points="13.8531,-56.5 13.8531,-75.5 90.8531,-75.5 90.8531,-56.5 13.8531,-56.5"/>
<text text-anchor="middle" x="52.3531" y="-63.5" font-family="Helvetica,sans-Serif" font-size="10.00" fill="#000000">tileData.hxx</text>
</a>
</g>
</g>
<!-- Node12&#45;&gt;Node14 -->
<g id="edge20" class="edge">
<title>Node12&#45;&gt;Node14</title>
<path fill="none" stroke="#191970" d="M213.0033,-112.3733C180.3251,-102.9404 130.3913,-88.5265 94.8762,-78.2747"/>
<polygon fill="#191970" stroke="#191970" points="95.8462,-74.9119 85.2677,-75.5011 93.9048,-81.6373 95.8462,-74.9119"/>
</g>
<!-- Node15 -->
<g id="node16" class="node">
<title>Node15</title>
<polygon fill="none" stroke="#bfbfbf" points="220.3531,-56.5 220.3531,-75.5 278.3531,-75.5 278.3531,-56.5 220.3531,-56.5"/>
<text text-anchor="middle" x="249.3531" y="-63.5" font-family="Helvetica,sans-Serif" font-size="10.00" fill="#000000">json.hxx</text>
</g>
<!-- Node12&#45;&gt;Node15 -->
<g id="edge22" class="edge">
<title>Node12&#45;&gt;Node15</title>
<path fill="none" stroke="#191970" d="M246.8757,-112.2455C247.2671,-104.9382 247.8159,-94.6944 248.2975,-85.7046"/>
<polygon fill="#191970" stroke="#191970" points="251.7965,-85.8156 248.8366,-75.6427 244.8065,-85.4411 251.7965,-85.8156"/>
</g>
<!-- Node16 -->
<g id="node17" class="node">
<title>Node16</title>
<g id="a_node17"><a xlink:href="Singleton_8hxx.html" target="_top" xlink:title="Singleton.hxx">
<polygon fill="none" stroke="#000000" points="296.8531,-56.5 296.8531,-75.5 379.8531,-75.5 379.8531,-56.5 296.8531,-56.5"/>
<text text-anchor="middle" x="338.3531" y="-63.5" font-family="Helvetica,sans-Serif" font-size="10.00" fill="#000000">Singleton.hxx</text>
</a>
</g>
</g>
<!-- Node12&#45;&gt;Node16 -->
<g id="edge23" class="edge">
<title>Node12&#45;&gt;Node16</title>
<path fill="none" stroke="#191970" d="M262.3783,-112.2455C276.4939,-103.6534 297.2795,-91.0014 313.543,-81.1018"/>
<polygon fill="#191970" stroke="#191970" points="315.7894,-83.8319 322.5116,-75.6427 312.1498,-77.8525 315.7894,-83.8319"/>
</g>
<!-- Node14&#45;&gt;Node5 -->
<g id="edge21" class="edge">
<title>Node14&#45;&gt;Node5</title>
<path fill="none" stroke="#191970" d="M52.3531,-56.2455C52.3531,-48.9382 52.3531,-38.6944 52.3531,-29.7046"/>
<polygon fill="#191970" stroke="#191970" points="55.8532,-29.6426 52.3531,-19.6427 48.8532,-29.6427 55.8532,-29.6426"/>
</g>
<!-- Node17&#45;&gt;Node3 -->
<g id="edge30" class="edge">
<title>Node17&#45;&gt;Node3</title>
<path fill="none" stroke="#191970" d="M848.7517,-173.0934C771.7078,-165.22 628.8222,-148.9231 580.3531,-132 545.854,-119.9546 510.0999,-96.9923 488.2859,-81.5857"/>
<polygon fill="#191970" stroke="#191970" points="490.264,-78.6972 480.103,-75.6962 486.1748,-84.3786 490.264,-78.6972"/>
</g>
<!-- Node18 -->
<g id="node19" class="node">
<title>Node18</title>
<polygon fill="none" stroke="#bfbfbf" points="945.3531,-112.5 945.3531,-131.5 1005.3531,-131.5 1005.3531,-112.5 945.3531,-112.5"/>
<text text-anchor="middle" x="975.3531" y="-119.5" font-family="Helvetica,sans-Serif" font-size="10.00" fill="#000000">iostream</text>
</g>
<!-- Node17&#45;&gt;Node18 -->
<g id="edge25" class="edge">
<title>Node17&#45;&gt;Node18</title>
<path fill="none" stroke="#191970" d="M912.5913,-168.2455C924.0341,-159.814 940.7827,-147.4729 954.1006,-137.6598"/>
<polygon fill="#191970" stroke="#191970" points="956.2923,-140.3924 962.2666,-131.6427 952.1398,-134.757 956.2923,-140.3924"/>
</g>
<!-- Node19 -->
<g id="node20" class="node">
<title>Node19</title>
<polygon fill="none" stroke="#bfbfbf" points="1023.3531,-112.5 1023.3531,-131.5 1073.3531,-131.5 1073.3531,-112.5 1023.3531,-112.5"/>
<text text-anchor="middle" x="1048.3531" y="-119.5" font-family="Helvetica,sans-Serif" font-size="10.00" fill="#000000">chrono</text>
</g>
<!-- Node17&#45;&gt;Node19 -->
<g id="edge26" class="edge">
<title>Node17&#45;&gt;Node19</title>
<path fill="none" stroke="#191970" d="M924.9671,-168.3733C949.4218,-159.1822 986.4585,-145.2624 1013.574,-135.0713"/>
<polygon fill="#191970" stroke="#191970" points="1014.944,-138.2956 1023.0733,-131.5011 1012.4813,-131.7431 1014.944,-138.2956"/>
</g>
<!-- Node20 -->
<g id="node21" class="node">
<title>Node20</title>
<polygon fill="none" stroke="#bfbfbf" points="1091.3531,-112.5 1091.3531,-131.5 1135.3531,-131.5 1135.3531,-112.5 1091.3531,-112.5"/>
<text text-anchor="middle" x="1113.3531" y="-119.5" font-family="Helvetica,sans-Serif" font-size="10.00" fill="#000000">ctime</text>
</g>
<!-- Node17&#45;&gt;Node20 -->
<g id="edge27" class="edge">
<title>Node17&#45;&gt;Node20</title>
<path fill="none" stroke="#191970" d="M940.6241,-168.4459C975.7416,-160.133 1027.7128,-147.4006 1081.3749,-132.1585"/>
<polygon fill="#191970" stroke="#191970" points="1082.4057,-135.504 1091.0558,-129.3863 1080.4786,-128.7745 1082.4057,-135.504"/>
</g>
<!-- Node21 -->
<g id="node22" class="node">
<title>Node21</title>
<polygon fill="none" stroke="#bfbfbf" points="797.8531,-112.5 797.8531,-131.5 852.8531,-131.5 852.8531,-112.5 797.8531,-112.5"/>
<text text-anchor="middle" x="825.3531" y="-119.5" font-family="Helvetica,sans-Serif" font-size="10.00" fill="#000000">fstream</text>
</g>
<!-- Node17&#45;&gt;Node21 -->
<g id="edge28" class="edge">
<title>Node17&#45;&gt;Node21</title>
<path fill="none" stroke="#191970" d="M886.4633,-168.2455C875.4278,-159.8943 859.3239,-147.7076 846.4178,-137.9408"/>
<polygon fill="#191970" stroke="#191970" points="848.1814,-134.8862 838.0952,-131.6427 843.9572,-140.4681 848.1814,-134.8862"/>
</g>
<!-- Node22 -->
<g id="node23" class="node">
<title>Node22</title>
<polygon fill="none" stroke="#bfbfbf" points="871.3531,-112.5 871.3531,-131.5 927.3531,-131.5 927.3531,-112.5 871.3531,-112.5"/>
<text text-anchor="middle" x="899.3531" y="-119.5" font-family="Helvetica,sans-Serif" font-size="10.00" fill="#000000">sstream</text>
</g>
<!-- Node17&#45;&gt;Node22 -->
<g id="edge29" class="edge">
<title>Node17&#45;&gt;Node22</title>
<path fill="none" stroke="#191970" d="M899.3531,-168.2455C899.3531,-160.9382 899.3531,-150.6944 899.3531,-141.7046"/>
<polygon fill="#191970" stroke="#191970" points="902.8532,-141.6426 899.3531,-131.6427 895.8532,-141.6427 902.8532,-141.6426"/>
</g>
<!-- Node23&#45;&gt;Node10 -->
<g id="edge32" class="edge">
<title>Node23&#45;&gt;Node10</title>
<path fill="none" stroke="#191970" d="M718.4604,-168.2613C727.4083,-159.6913 739.4378,-146.3679 745.3531,-132 751.3759,-117.3711 752.6598,-99.4167 752.5579,-85.9294"/>
<polygon fill="#191970" stroke="#191970" points="756.0523,-85.6992 752.22,-75.8218 749.0562,-85.9332 756.0523,-85.6992"/>
</g>
</g>
</svg>
