<?xml version="1.0" encoding="UTF-8" standalone="no"?>
<!DOCTYPE svg PUBLIC "-//W3C//DTD SVG 1.1//EN"
 "http://www.w3.org/Graphics/SVG/1.1/DTD/svg11.dtd">
<!-- Generated by graphviz version 2.40.1 (20161225.0304)
 -->
<!-- Title: src/util/MessageQueue.hxx Pages: 1 -->
<svg width="468pt" height="84pt"
 viewBox="0.00 0.00 467.50 84.00" xmlns="http://www.w3.org/2000/svg" xmlns:xlink="http://www.w3.org/1999/xlink">
<g id="graph0" class="graph" transform="scale(1 1) rotate(0) translate(4 80)">
<title>src/util/MessageQueue.hxx</title>
<!-- Node0 -->
<g id="node1" class="node">
<title>Node0</title>
<polygon fill="#bfbfbf" stroke="#000000" points="173.5,-56.5 173.5,-75.5 321.5,-75.5 321.5,-56.5 173.5,-56.5"/>
<text text-anchor="middle" x="247.5" y="-63.5" font-family="Helvetica,sans-Serif" font-size="10.00" fill="#000000">src/util/MessageQueue.hxx</text>
</g>
<!-- Node1 -->
<g id="node2" class="node">
<title>Node1</title>
<polygon fill="none" stroke="#bfbfbf" points="0,-.5 0,-19.5 107,-19.5 107,-.5 0,-.5"/>
<text text-anchor="middle" x="53.5" y="-7.5" font-family="Helvetica,sans-Serif" font-size="10.00" fill="#000000">condition_variable</text>
</g>
<!-- Node0&#45;&gt;Node1 -->
<g id="edge1" class="edge">
<title>Node0&#45;&gt;Node1</title>
<path fill="none" stroke="#191970" d="M214.1502,-56.3733C181.472,-46.9404 131.5382,-32.5265 96.023,-22.2747"/>
<polygon fill="#191970" stroke="#191970" points="96.993,-18.9119 86.4146,-19.5011 95.0516,-25.6373 96.993,-18.9119"/>
</g>
<!-- Node2 -->
<g id="node3" class="node">
<title>Node2</title>
<polygon fill="none" stroke="#bfbfbf" points="125.5,-.5 125.5,-19.5 173.5,-19.5 173.5,-.5 125.5,-.5"/>
<text text-anchor="middle" x="149.5" y="-7.5" font-family="Helvetica,sans-Serif" font-size="10.00" fill="#000000">mutex</text>
</g>
<!-- Node0&#45;&gt;Node2 -->
<g id="edge2" class="edge">
<title>Node0&#45;&gt;Node2</title>
<path fill="none" stroke="#191970" d="M230.4297,-56.2455C215.253,-47.5731 192.8379,-34.7645 175.4437,-24.825"/>
<polygon fill="#191970" stroke="#191970" points="176.7936,-21.5653 166.3747,-19.6427 173.3206,-27.643 176.7936,-21.5653"/>
</g>
<!-- Node3 -->
<g id="node4" class="node">
<title>Node3</title>
<polygon fill="none" stroke="#bfbfbf" points="192,-.5 192,-19.5 239,-19.5 239,-.5 192,-.5"/>
<text text-anchor="middle" x="215.5" y="-7.5" font-family="Helvetica,sans-Serif" font-size="10.00" fill="#000000">deque</text>
</g>
<!-- Node0&#45;&gt;Node3 -->
<g id="edge3" class="edge">
<title>Node0&#45;&gt;Node3</title>
<path fill="none" stroke="#191970" d="M241.926,-56.2455C237.5669,-48.617 231.3789,-37.7881 226.0867,-28.5267"/>
<polygon fill="#191970" stroke="#191970" points="229.0104,-26.5886 221.0101,-19.6427 222.9327,-30.0616 229.0104,-26.5886"/>
</g>
<!-- Node4 -->
<g id="node5" class="node">
<title>Node4</title>
<polygon fill="none" stroke="#bfbfbf" points="257,-.5 257,-19.5 304,-19.5 304,-.5 257,-.5"/>
<text text-anchor="middle" x="280.5" y="-7.5" font-family="Helvetica,sans-Serif" font-size="10.00" fill="#000000">vector</text>
</g>
<!-- Node0&#45;&gt;Node4 -->
<g id="edge4" class="edge">
<title>Node0&#45;&gt;Node4</title>
<path fill="none" stroke="#191970" d="M253.2482,-56.2455C257.7435,-48.617 264.1248,-37.7881 269.5825,-28.5267"/>
<polygon fill="#191970" stroke="#191970" points="272.7561,-30.035 274.8177,-19.6427 266.7253,-26.4811 272.7561,-30.035"/>
</g>
<!-- Node5 -->
<g id="node6" class="node">
<title>Node5</title>
<polygon fill="none" stroke="#bfbfbf" points="322,-.5 322,-19.5 387,-19.5 387,-.5 322,-.5"/>
<text text-anchor="middle" x="354.5" y="-7.5" font-family="Helvetica,sans-Serif" font-size="10.00" fill="#000000">functional</text>
</g>
<!-- Node0&#45;&gt;Node5 -->
<g id="edge5" class="edge">
<title>Node0&#45;&gt;Node5</title>
<path fill="none" stroke="#191970" d="M266.138,-56.2455C282.9386,-47.4527 307.8634,-34.4079 326.9618,-24.4125"/>
<polygon fill="#191970" stroke="#191970" points="328.8386,-27.3807 336.0756,-19.6427 325.5927,-21.1787 328.8386,-27.3807"/>
</g>
<!-- Node6 -->
<g id="node7" class="node">
<title>Node6</title>
<polygon fill="none" stroke="#bfbfbf" points="405.5,-.5 405.5,-19.5 459.5,-19.5 459.5,-.5 405.5,-.5"/>
<text text-anchor="middle" x="432.5" y="-7.5" font-family="Helvetica,sans-Serif" font-size="10.00" fill="#000000">ciso646</text>
</g>
<!-- Node0&#45;&gt;Node6 -->
<g id="edge6" class="edge">
<title>Node0&#45;&gt;Node6</title>
<path fill="none" stroke="#191970" d="M279.3026,-56.3733C311.6481,-46.5822 361.7218,-31.4247 395.7464,-21.1254"/>
<polygon fill="#191970" stroke="#191970" points="396.7636,-24.4744 405.3206,-18.2273 394.7355,-17.7746 396.7636,-24.4744"/>
</g>
</g>
</svg>
