<?xml version="1.0" encoding="UTF-8" standalone="no"?>
<!DOCTYPE svg PUBLIC "-//W3C//DTD SVG 1.1//EN"
 "http://www.w3.org/Graphics/SVG/1.1/DTD/svg11.dtd">
<!-- Generated by graphviz version 2.40.1 (20161225.0304)
 -->
<!-- Title: src/util/Meta.hxx Pages: 1 -->
<svg width="2998pt" height="375pt"
 viewBox="0.00 0.00 2997.50 375.00" xmlns="http://www.w3.org/2000/svg" xmlns:xlink="http://www.w3.org/1999/xlink">
<g id="graph0" class="graph" transform="scale(1 1) rotate(0) translate(4 371)">
<title>src/util/Meta.hxx</title>
<!-- Node5 -->
<g id="node1" class="node">
<title>Node5</title>
<polygon fill="#bfbfbf" stroke="#000000" points="2646,-347.5 2646,-366.5 2744,-366.5 2744,-347.5 2646,-347.5"/>
<text text-anchor="middle" x="2695" y="-354.5" font-family="Helvetica,sans-Serif" font-size="10.00" fill="#000000">src/util/Meta.hxx</text>
</g>
<!-- Node6 -->
<g id="node2" class="node">
<title>Node6</title>
<g id="a_node2"><a xlink:href="Settings_8hxx.html" target="_top" xlink:title="src/engine/basics/Settings.hxx">
<polygon fill="none" stroke="#000000" points="1167,-123.5 1167,-142.5 1331,-142.5 1331,-123.5 1167,-123.5"/>
<text text-anchor="middle" x="1249" y="-130.5" font-family="Helvetica,sans-Serif" font-size="10.00" fill="#000000">src/engine/basics/Settings.hxx</text>
</a>
</g>
</g>
<!-- Node5&#45;&gt;Node6 -->
<g id="edge1" class="edge">
<title>Node5&#45;&gt;Node6</title>
<path fill="none" stroke="#191970" d="M2635.6421,-347.8049C2402.0598,-311.6206 1547.4199,-179.2283 1310.3473,-142.5033"/>
<polygon fill="#191970" stroke="#191970" points="2635.2258,-351.282 2645.6437,-349.3542 2636.2974,-344.3645 2635.2258,-351.282"/>
</g>
<!-- Node26 -->
<g id="node22" class="node">
<title>Node26</title>
<g id="a_node22"><a xlink:href="Soundtrack_8hxx.html" target="_top" xlink:title="src/engine/audio/Soundtrack.hxx">
<polygon fill="none" stroke="#000000" points="2426,-291.5 2426,-310.5 2602,-310.5 2602,-291.5 2426,-291.5"/>
<text text-anchor="middle" x="2514" y="-298.5" font-family="Helvetica,sans-Serif" font-size="10.00" fill="#000000">src/engine/audio/Soundtrack.hxx</text>
</a>
</g>
</g>
<!-- Node5&#45;&gt;Node26 -->
<g id="edge24" class="edge">
<title>Node5&#45;&gt;Node26</title>
<path fill="none" stroke="#191970" d="M2654.0278,-344.3235C2620.8339,-334.0536 2574.7942,-319.8093 2544.709,-310.5011"/>
<polygon fill="#191970" stroke="#191970" points="2653.2973,-347.7611 2663.885,-347.3733 2655.3663,-341.0739 2653.2973,-347.7611"/>
</g>
<!-- Node27 -->
<g id="node23" class="node">
<title>Node27</title>
<g id="a_node23"><a xlink:href="AudioMixer_8hxx.html" target="_top" xlink:title="src/services/AudioMixer.hxx">
<polygon fill="none" stroke="#000000" points="2438,-123.5 2438,-142.5 2590,-142.5 2590,-123.5 2438,-123.5"/>
<text text-anchor="middle" x="2514" y="-130.5" font-family="Helvetica,sans-Serif" font-size="10.00" fill="#000000">src/services/AudioMixer.hxx</text>
</a>
</g>
</g>
<!-- Node5&#45;&gt;Node27 -->
<g id="edge41" class="edge">
<title>Node5&#45;&gt;Node27</title>
<path fill="none" stroke="#191970" d="M2635.6703,-351.2525C2558.2661,-343.1458 2430.9869,-327.4915 2417,-311 2369.0822,-254.5018 2465.5504,-170.5672 2501.3556,-142.5158"/>
<polygon fill="#191970" stroke="#191970" points="2635.4727,-354.7506 2645.7798,-352.2981 2636.193,-347.7878 2635.4727,-354.7506"/>
</g>
<!-- Node28 -->
<g id="node24" class="node">
<title>Node28</title>
<g id="a_node24"><a xlink:href="Events_8hxx.html" target="_top" xlink:title="src/Events.hxx">
<polygon fill="none" stroke="#000000" points="2650,-235.5 2650,-254.5 2738,-254.5 2738,-235.5 2650,-235.5"/>
<text text-anchor="middle" x="2694" y="-242.5" font-family="Helvetica,sans-Serif" font-size="10.00" fill="#000000">src/Events.hxx</text>
</a>
</g>
</g>
<!-- Node5&#45;&gt;Node28 -->
<g id="edge38" class="edge">
<title>Node5&#45;&gt;Node28</title>
<path fill="none" stroke="#191970" d="M2735.9853,-343.7546C2763.6666,-332.4093 2792.8425,-314.2307 2779,-291 2768.2637,-272.9821 2747.7465,-261.5925 2729.5598,-254.6541"/>
<polygon fill="#191970" stroke="#191970" points="2734.3995,-340.615 2726.3294,-347.4797 2736.919,-347.1458 2734.3995,-340.615"/>
</g>
<!-- Node30 -->
<g id="node26" class="node">
<title>Node30</title>
<g id="a_node26"><a xlink:href="Game_8hxx.html" target="_top" xlink:title="src/Game.hxx">
<polygon fill="none" stroke="#000000" points="2793,-62 2793,-81 2877,-81 2877,-62 2793,-62"/>
<text text-anchor="middle" x="2835" y="-69" font-family="Helvetica,sans-Serif" font-size="10.00" fill="#000000">src/Game.hxx</text>
</a>
</g>
</g>
<!-- Node5&#45;&gt;Node30 -->
<g id="edge42" class="edge">
<title>Node5&#45;&gt;Node30</title>
<path fill="none" stroke="#191970" d="M2736.3831,-343.9279C2777.986,-327.8954 2836,-296.3351 2836,-245 2836,-245 2836,-245 2836,-189 2836,-149.0159 2835.4138,-101.3811 2835.139,-81.2487"/>
<polygon fill="#191970" stroke="#191970" points="2735.164,-340.647 2726.9951,-347.3938 2737.5884,-347.2138 2735.164,-340.647"/>
</g>
<!-- Node34 -->
<g id="node30" class="node">
<title>Node34</title>
<g id="a_node30"><a xlink:href="TransitiveModel_8hxx.html" target="_top" xlink:title="src/util/TransitiveModel.hxx">
<polygon fill="none" stroke="#000000" points="2620,-291.5 2620,-310.5 2770,-310.5 2770,-291.5 2620,-291.5"/>
<text text-anchor="middle" x="2695" y="-298.5" font-family="Helvetica,sans-Serif" font-size="10.00" fill="#000000">src/util/TransitiveModel.hxx</text>
</a>
</g>
</g>
<!-- Node5&#45;&gt;Node34 -->
<g id="edge39" class="edge">
<title>Node5&#45;&gt;Node34</title>
<path fill="none" stroke="#191970" d="M2695,-337.1575C2695,-328.155 2695,-317.9199 2695,-310.6427"/>
<polygon fill="#191970" stroke="#191970" points="2691.5001,-337.2455 2695,-347.2455 2698.5001,-337.2456 2691.5001,-337.2455"/>
</g>
<!-- Node35 -->
<g id="node31" class="node">
<title>Node35</title>
<g id="a_node31"><a xlink:href="IEquatable_8hxx.html" target="_top" xlink:title="src/util/IEquatable.hxx">
<polygon fill="none" stroke="#000000" points="2864.5,-291.5 2864.5,-310.5 2989.5,-310.5 2989.5,-291.5 2864.5,-291.5"/>
<text text-anchor="middle" x="2927" y="-298.5" font-family="Helvetica,sans-Serif" font-size="10.00" fill="#000000">src/util/IEquatable.hxx</text>
</a>
</g>
</g>
<!-- Node5&#45;&gt;Node35 -->
<g id="edge43" class="edge">
<title>Node5&#45;&gt;Node35</title>
<path fill="none" stroke="#191970" d="M2744.5184,-345.0473C2787.2197,-334.7401 2848.0655,-320.0532 2887.5448,-310.5237"/>
<polygon fill="#191970" stroke="#191970" points="2743.5182,-341.6881 2734.6186,-347.4369 2745.1607,-348.4927 2743.5182,-341.6881"/>
</g>
<!-- Node7 -->
<g id="node3" class="node">
<title>Node7</title>
<g id="a_node3"><a xlink:href="Music_8cxx.html" target="_top" xlink:title="src/engine/audio/Music.cxx">
<polygon fill="none" stroke="#000000" points="0,-62 0,-81 148,-81 148,-62 0,-62"/>
<text text-anchor="middle" x="74" y="-69" font-family="Helvetica,sans-Serif" font-size="10.00" fill="#000000">src/engine/audio/Music.cxx</text>
</a>
</g>
</g>
<!-- Node6&#45;&gt;Node7 -->
<g id="edge2" class="edge">
<title>Node6&#45;&gt;Node7</title>
<path fill="none" stroke="#191970" d="M1156.7552,-130.6653C930.7041,-124.6907 353.6387,-107.84 162,-87 148.737,-85.5577 134.454,-83.3352 121.333,-81.0195"/>
<polygon fill="#191970" stroke="#191970" points="1156.8379,-134.1685 1166.9266,-130.933 1157.0222,-127.171 1156.8379,-134.1685"/>
</g>
<!-- Node8 -->
<g id="node4" class="node">
<title>Node8</title>
<g id="a_node4"><a xlink:href="SoundEffect_8cxx.html" target="_top" xlink:title="src/engine/audio/SoundEffect.cxx">
<polygon fill="none" stroke="#000000" points="1675,-62 1675,-81 1853,-81 1853,-62 1675,-62"/>
<text text-anchor="middle" x="1764" y="-69" font-family="Helvetica,sans-Serif" font-size="10.00" fill="#000000">src/engine/audio/SoundEffect.cxx</text>
</a>
</g>
</g>
<!-- Node6&#45;&gt;Node8 -->
<g id="edge3" class="edge">
<title>Node6&#45;&gt;Node8</title>
<path fill="none" stroke="#191970" d="M1341.1263,-124.0923C1425.7241,-115.6148 1554.4904,-101.9604 1666,-87 1679.2311,-85.2249 1693.4327,-83.104 1706.8046,-81.0094"/>
<polygon fill="#191970" stroke="#191970" points="1340.6353,-120.6239 1331.0326,-125.1003 1341.3309,-127.5892 1340.6353,-120.6239"/>
</g>
<!-- Node9 -->
<g id="node5" class="node">
<title>Node9</title>
<g id="a_node5"><a xlink:href="Camera_8cxx.html" target="_top" xlink:title="src/engine/basics/Camera.cxx">
<polygon fill="none" stroke="#000000" points="1871,-62 1871,-81 2033,-81 2033,-62 1871,-62"/>
<text text-anchor="middle" x="1952" y="-69" font-family="Helvetica,sans-Serif" font-size="10.00" fill="#000000">src/engine/basics/Camera.cxx</text>
</a>
</g>
</g>
<!-- Node6&#45;&gt;Node9 -->
<g id="edge4" class="edge">
<title>Node6&#45;&gt;Node9</title>
<path fill="none" stroke="#191970" d="M1341.3097,-128.8291C1461.52,-122.7669 1678.0297,-109.6918 1862,-87 1874.9033,-85.4084 1888.7745,-83.2462 1901.6696,-81.0421"/>
<polygon fill="#191970" stroke="#191970" points="1340.8605,-125.3471 1331.0474,-129.3414 1341.2095,-132.3384 1340.8605,-125.3471"/>
</g>
<!-- Node10 -->
<g id="node6" class="node">
<title>Node10</title>
<g id="a_node6"><a xlink:href="isoMath_8cxx.html" target="_top" xlink:title="src/engine/basics/isoMath.cxx">
<polygon fill="none" stroke="#000000" points="2051,-62 2051,-81 2213,-81 2213,-62 2051,-62"/>
<text text-anchor="middle" x="2132" y="-69" font-family="Helvetica,sans-Serif" font-size="10.00" fill="#000000">src/engine/basics/isoMath.cxx</text>
</a>
</g>
</g>
<!-- Node6&#45;&gt;Node10 -->
<g id="edge5" class="edge">
<title>Node6&#45;&gt;Node10</title>
<path fill="none" stroke="#191970" d="M1341.5825,-131.0082C1489.8695,-127.0594 1789.6292,-115.9584 2042,-87 2055.2314,-85.4818 2069.4696,-83.291 2082.6294,-81.0326"/>
<polygon fill="#191970" stroke="#191970" points="1341.0754,-127.5202 1331.1703,-131.2804 1341.2584,-134.5178 1341.0754,-127.5202"/>
</g>
<!-- Node11 -->
<g id="node7" class="node">
<title>Node11</title>
<g id="a_node7"><a xlink:href="Settings_8cxx.html" target="_top" xlink:title="src/engine/basics/Settings.cxx">
<polygon fill="none" stroke="#000000" points="1595,-.5 1595,-19.5 1759,-19.5 1759,-.5 1595,-.5"/>
<text text-anchor="middle" x="1677" y="-7.5" font-family="Helvetica,sans-Serif" font-size="10.00" fill="#000000">src/engine/basics/Settings.cxx</text>
</a>
</g>
</g>
<!-- Node6&#45;&gt;Node11 -->
<g id="edge6" class="edge">
<title>Node6&#45;&gt;Node11</title>
<path fill="none" stroke="#191970" d="M1156.4569,-132.2337C911.8389,-129.7566 264.6272,-120.0916 233,-87 223.4805,-77.0398 223.414,-65.8962 233,-56 256.8385,-31.39 1292.5122,-15.2724 1594.9167,-11.0846"/>
<polygon fill="#191970" stroke="#191970" points="1156.7111,-135.7363 1166.7455,-132.3361 1156.7808,-128.7367 1156.7111,-135.7363"/>
</g>
<!-- Node12 -->
<g id="node8" class="node">
<title>Node12</title>
<g id="a_node8"><a xlink:href="JsonSerialization_8hxx.html" target="_top" xlink:title="src/engine/common/JsonSerialization.hxx">
<polygon fill="none" stroke="#000000" points="2231,-62 2231,-81 2449,-81 2449,-62 2231,-62"/>
<text text-anchor="middle" x="2340" y="-69" font-family="Helvetica,sans-Serif" font-size="10.00" fill="#000000">src/engine/common/JsonSerialization.hxx</text>
</a>
</g>
</g>
<!-- Node6&#45;&gt;Node12 -->
<g id="edge7" class="edge">
<title>Node6&#45;&gt;Node12</title>
<path fill="none" stroke="#191970" d="M1341.2517,-131.1995C1514.2598,-127.2547 1899.1236,-115.7876 2222,-87 2239.2876,-85.4586 2257.9348,-83.26 2275.1881,-81.0013"/>
<polygon fill="#191970" stroke="#191970" points="1341.0856,-127.7023 1331.1669,-131.4264 1341.2431,-134.7005 1341.0856,-127.7023"/>
</g>
<!-- Node14 -->
<g id="node10" class="node">
<title>Node14</title>
<g id="a_node10"><a xlink:href="Map_8cxx.html" target="_top" xlink:title="src/engine/Map.cxx">
<polygon fill="none" stroke="#000000" points="570,-.5 570,-19.5 680,-19.5 680,-.5 570,-.5"/>
<text text-anchor="middle" x="625" y="-7.5" font-family="Helvetica,sans-Serif" font-size="10.00" fill="#000000">src/engine/Map.cxx</text>
</a>
</g>
</g>
<!-- Node6&#45;&gt;Node14 -->
<g id="edge14" class="edge">
<title>Node6&#45;&gt;Node14</title>
<path fill="none" stroke="#191970" d="M1156.7017,-132.2835C910.3968,-129.9212 254.0309,-120.4977 222,-87 212.4781,-77.0421 212.8267,-66.28 222,-56 244.7689,-30.4844 465.0158,-17.2057 569.943,-12.2843"/>
<polygon fill="#191970" stroke="#191970" points="1156.6724,-135.7833 1166.7049,-132.3777 1156.7384,-128.7836 1156.6724,-135.7833"/>
</g>
<!-- Node15 -->
<g id="node11" class="node">
<title>Node15</title>
<g id="a_node11"><a xlink:href="AudioMixer_8cxx.html" target="_top" xlink:title="src/services/AudioMixer.cxx">
<polygon fill="none" stroke="#000000" points="2439,-.5 2439,-19.5 2591,-19.5 2591,-.5 2439,-.5"/>
<text text-anchor="middle" x="2515" y="-7.5" font-family="Helvetica,sans-Serif" font-size="10.00" fill="#000000">src/services/AudioMixer.cxx</text>
</a>
</g>
</g>
<!-- Node6&#45;&gt;Node15 -->
<g id="edge23" class="edge">
<title>Node6&#45;&gt;Node15</title>
<path fill="none" stroke="#191970" d="M1341.3256,-131.6656C1615.4875,-127.416 2408.8864,-112.9319 2458,-87 2486.0923,-72.1674 2503.995,-36.6053 2511.2752,-19.5027"/>
<polygon fill="#191970" stroke="#191970" points="1340.9548,-128.1708 1331.0099,-131.8244 1341.0626,-135.1699 1340.9548,-128.1708"/>
</g>
<!-- Node16 -->
<g id="node12" class="node">
<title>Node16</title>
<g id="a_node12"><a xlink:href="Engine_8cxx.html" target="_top" xlink:title="src/engine/Engine.cxx">
<polygon fill="none" stroke="#000000" points="242.5,-62 242.5,-81 365.5,-81 365.5,-62 242.5,-62"/>
<text text-anchor="middle" x="304" y="-69" font-family="Helvetica,sans-Serif" font-size="10.00" fill="#000000">src/engine/Engine.cxx</text>
</a>
</g>
</g>
<!-- Node6&#45;&gt;Node16 -->
<g id="edge12" class="edge">
<title>Node6&#45;&gt;Node16</title>
<path fill="none" stroke="#191970" d="M1156.7476,-130.0846C963.7639,-123.6689 523.0069,-107.2721 374,-87 363.3932,-85.557 352.013,-83.3342 341.5762,-81.0185"/>
<polygon fill="#191970" stroke="#191970" points="1156.7553,-133.5867 1166.8656,-130.4194 1156.9868,-126.5905 1156.7553,-133.5867"/>
</g>
<!-- Node17 -->
<g id="node13" class="node">
<title>Node17</title>
<g id="a_node13"><a xlink:href="EventManager_8cxx.html" target="_top" xlink:title="src/engine/EventManager.cxx">
<polygon fill="none" stroke="#000000" points="383.5,-62 383.5,-81 542.5,-81 542.5,-62 383.5,-62"/>
<text text-anchor="middle" x="463" y="-69" font-family="Helvetica,sans-Serif" font-size="10.00" fill="#000000">src/engine/EventManager.cxx</text>
</a>
</g>
</g>
<!-- Node6&#45;&gt;Node17 -->
<g id="edge13" class="edge">
<title>Node6&#45;&gt;Node17</title>
<path fill="none" stroke="#191970" d="M1156.5822,-130.1032C1022.6737,-125.1825 767.0672,-113.0703 551,-87 538.217,-85.4576 524.4726,-83.2861 511.7339,-81.0554"/>
<polygon fill="#191970" stroke="#191970" points="1156.6772,-133.6089 1166.7974,-130.4733 1156.9307,-126.6135 1156.6772,-133.6089"/>
</g>
<!-- Node18 -->
<g id="node14" class="node">
<title>Node18</title>
<g id="a_node14"><a xlink:href="ResourcesManager_8cxx.html" target="_top" xlink:title="src/engine/ResourcesManager.cxx">
<polygon fill="none" stroke="#000000" points="560.5,-62 560.5,-81 741.5,-81 741.5,-62 560.5,-62"/>
<text text-anchor="middle" x="651" y="-69" font-family="Helvetica,sans-Serif" font-size="10.00" fill="#000000">src/engine/ResourcesManager.cxx</text>
</a>
</g>
</g>
<!-- Node6&#45;&gt;Node18 -->
<g id="edge15" class="edge">
<title>Node6&#45;&gt;Node18</title>
<path fill="none" stroke="#191970" d="M1156.6069,-126.2453C1056.3003,-118.5012 891.4796,-104.5786 750,-87 736.275,-85.2947 721.527,-83.1537 707.7151,-81.0122"/>
<polygon fill="#191970" stroke="#191970" points="1156.471,-129.7451 1166.7097,-127.0212 1157.0071,-122.7657 1156.471,-129.7451"/>
</g>
<!-- Node19 -->
<g id="node15" class="node">
<title>Node19</title>
<g id="a_node15"><a xlink:href="TileManager_8cxx.html" target="_top" xlink:title="src/engine/TileManager.cxx">
<polygon fill="none" stroke="#000000" points="759.5,-62 759.5,-81 908.5,-81 908.5,-62 759.5,-62"/>
<text text-anchor="middle" x="834" y="-69" font-family="Helvetica,sans-Serif" font-size="10.00" fill="#000000">src/engine/TileManager.cxx</text>
</a>
</g>
</g>
<!-- Node6&#45;&gt;Node19 -->
<g id="edge16" class="edge">
<title>Node6&#45;&gt;Node19</title>
<path fill="none" stroke="#191970" d="M1162.5918,-122.1576C1095.4894,-113.4647 1000.1759,-100.521 917,-87 906.0036,-85.2124 894.2212,-83.1202 883.0885,-81.0616"/>
<polygon fill="#191970" stroke="#191970" points="1162.3315,-125.653 1172.6974,-123.4623 1163.2279,-118.7106 1162.3315,-125.653"/>
</g>
<!-- Node20 -->
<g id="node16" class="node">
<title>Node20</title>
<g id="a_node16"><a xlink:href="Layout_8cxx.html" target="_top" xlink:title="src/engine/ui/basics\l/Layout.cxx">
<polygon fill="none" stroke="#000000" points="926.5,-56.5 926.5,-86.5 1039.5,-86.5 1039.5,-56.5 926.5,-56.5"/>
<text text-anchor="start" x="934.5" y="-74.5" font-family="Helvetica,sans-Serif" font-size="10.00" fill="#000000">src/engine/ui/basics</text>
<text text-anchor="middle" x="983" y="-63.5" font-family="Helvetica,sans-Serif" font-size="10.00" fill="#000000">/Layout.cxx</text>
</a>
</g>
</g>
<!-- Node6&#45;&gt;Node20 -->
<g id="edge17" class="edge">
<title>Node6&#45;&gt;Node20</title>
<path fill="none" stroke="#191970" d="M1196.6888,-121.1655C1156.105,-111.9509 1098.4531,-98.7885 1048,-87 1045.2888,-86.3665 1042.5146,-85.7156 1039.7131,-85.056"/>
<polygon fill="#191970" stroke="#191970" points="1196.0976,-124.6202 1206.6242,-123.4199 1197.6466,-117.7937 1196.0976,-124.6202"/>
</g>
<!-- Node21 -->
<g id="node17" class="node">
<title>Node21</title>
<g id="a_node17"><a xlink:href="UIElement_8cxx.html" target="_top" xlink:title="src/engine/ui/basics\l/UIElement.cxx">
<polygon fill="none" stroke="#000000" points="1057.5,-56.5 1057.5,-86.5 1170.5,-86.5 1170.5,-56.5 1057.5,-56.5"/>
<text text-anchor="start" x="1065.5" y="-74.5" font-family="Helvetica,sans-Serif" font-size="10.00" fill="#000000">src/engine/ui/basics</text>
<text text-anchor="middle" x="1114" y="-63.5" font-family="Helvetica,sans-Serif" font-size="10.00" fill="#000000">/UIElement.cxx</text>
</a>
</g>
</g>
<!-- Node6&#45;&gt;Node21 -->
<g id="edge18" class="edge">
<title>Node6&#45;&gt;Node21</title>
<path fill="none" stroke="#191970" d="M1218.6745,-119.185C1197.3749,-109.4819 1168.8985,-96.5093 1147.0247,-86.5446"/>
<polygon fill="#191970" stroke="#191970" points="1217.355,-122.43 1227.9063,-123.3906 1220.257,-116.0598 1217.355,-122.43"/>
</g>
<!-- Node22 -->
<g id="node18" class="node">
<title>Node22</title>
<g id="a_node18"><a xlink:href="Text_8cxx.html" target="_top" xlink:title="src/engine/ui/widgets\l/Text.cxx">
<polygon fill="none" stroke="#000000" points="1189,-56.5 1189,-86.5 1309,-86.5 1309,-56.5 1189,-56.5"/>
<text text-anchor="start" x="1197" y="-74.5" font-family="Helvetica,sans-Serif" font-size="10.00" fill="#000000">src/engine/ui/widgets</text>
<text text-anchor="middle" x="1249" y="-63.5" font-family="Helvetica,sans-Serif" font-size="10.00" fill="#000000">/Text.cxx</text>
</a>
</g>
</g>
<!-- Node6&#45;&gt;Node22 -->
<g id="edge19" class="edge">
<title>Node6&#45;&gt;Node22</title>
<path fill="none" stroke="#191970" d="M1249,-113.3693C1249,-104.681 1249,-94.6241 1249,-86.5446"/>
<polygon fill="#191970" stroke="#191970" points="1245.5001,-113.3906 1249,-123.3906 1252.5001,-113.3907 1245.5001,-113.3906"/>
</g>
<!-- Node23 -->
<g id="node19" class="node">
<title>Node23</title>
<g id="a_node19"><a xlink:href="UIManager_8cxx.html" target="_top" xlink:title="src/engine/UIManager.cxx">
<polygon fill="none" stroke="#000000" points="1327,-62 1327,-81 1469,-81 1469,-62 1327,-62"/>
<text text-anchor="middle" x="1398" y="-69" font-family="Helvetica,sans-Serif" font-size="10.00" fill="#000000">src/engine/UIManager.cxx</text>
</a>
</g>
</g>
<!-- Node6&#45;&gt;Node23 -->
<g id="edge20" class="edge">
<title>Node6&#45;&gt;Node23</title>
<path fill="none" stroke="#191970" d="M1281.7181,-119.4955C1309.9132,-107.858 1349.9078,-91.3501 1374.8822,-81.0419"/>
<polygon fill="#191970" stroke="#191970" points="1280.1894,-116.34 1272.2813,-123.3906 1282.8602,-122.8105 1280.1894,-116.34"/>
</g>
<!-- Node24 -->
<g id="node20" class="node">
<title>Node24</title>
<g id="a_node20"><a xlink:href="WindowManager_8cxx.html" target="_top" xlink:title="src/engine/WindowManager.cxx">
<polygon fill="none" stroke="#000000" points="1487,-62 1487,-81 1657,-81 1657,-62 1487,-62"/>
<text text-anchor="middle" x="1572" y="-69" font-family="Helvetica,sans-Serif" font-size="10.00" fill="#000000">src/engine/WindowManager.cxx</text>
</a>
</g>
</g>
<!-- Node6&#45;&gt;Node24 -->
<g id="edge21" class="edge">
<title>Node6&#45;&gt;Node24</title>
<path fill="none" stroke="#191970" d="M1309.045,-121.5673C1370.4065,-109.8839 1464.6076,-91.9478 1522.0338,-81.0137"/>
<polygon fill="#191970" stroke="#191970" points="1308.2832,-118.1494 1299.1144,-123.4581 1309.5926,-125.0258 1308.2832,-118.1494"/>
</g>
<!-- Node25 -->
<g id="node21" class="node">
<title>Node25</title>
<g id="a_node21"><a xlink:href="Game_8cxx.html" target="_top" xlink:title="src/Game.cxx">
<polygon fill="none" stroke="#000000" points="2652.5,-.5 2652.5,-19.5 2735.5,-19.5 2735.5,-.5 2652.5,-.5"/>
<text text-anchor="middle" x="2694" y="-7.5" font-family="Helvetica,sans-Serif" font-size="10.00" fill="#000000">src/Game.cxx</text>
</a>
</g>
</g>
<!-- Node6&#45;&gt;Node25 -->
<g id="edge22" class="edge">
<title>Node6&#45;&gt;Node25</title>
<path fill="none" stroke="#191970" d="M1341.4194,-131.285C1609.8897,-126.0627 2377.7637,-109.3395 2489,-87 2560.193,-72.7024 2639.2671,-36.877 2674.8323,-19.6062"/>
<polygon fill="#191970" stroke="#191970" points="1341.2435,-127.7876 1331.3132,-131.4807 1341.3791,-134.7863 1341.2435,-127.7876"/>
</g>
<!-- Node12&#45;&gt;Node11 -->
<g id="edge8" class="edge">
<title>Node12&#45;&gt;Node11</title>
<path fill="none" stroke="#191970" d="M2261.7069,-60.6977C2248.4667,-59.0195 2234.8506,-57.3856 2222,-56 2058.2033,-38.3393 1866.0964,-23.4882 1759.2886,-15.7504"/>
<polygon fill="#191970" stroke="#191970" points="2261.3751,-64.1837 2271.7395,-61.9862 2262.2669,-57.2407 2261.3751,-64.1837"/>
</g>
<!-- Node13 -->
<g id="node9" class="node">
<title>Node13</title>
<g id="a_node9"><a xlink:href="TerrainGenerator_8cxx.html" target="_top" xlink:title="src/engine/map/TerrainGenerator.cxx">
<polygon fill="none" stroke="#000000" points="2225,-.5 2225,-19.5 2421,-19.5 2421,-.5 2225,-.5"/>
<text text-anchor="middle" x="2323" y="-7.5" font-family="Helvetica,sans-Serif" font-size="10.00" fill="#000000">src/engine/map/TerrainGenerator.cxx</text>
</a>
</g>
</g>
<!-- Node12&#45;&gt;Node13 -->
<g id="edge9" class="edge">
<title>Node12&#45;&gt;Node13</title>
<path fill="none" stroke="#191970" d="M2334.6328,-52.0832C2331.6577,-41.3205 2328.0873,-28.4042 2325.6937,-19.7449"/>
<polygon fill="#191970" stroke="#191970" points="2331.3059,-53.1846 2337.3438,-61.8906 2338.0529,-51.3195 2331.3059,-53.1846"/>
</g>
<!-- Node12&#45;&gt;Node14 -->
<g id="edge10" class="edge">
<title>Node12&#45;&gt;Node14</title>
<path fill="none" stroke="#191970" d="M2266.653,-60.6887C2251.8965,-58.8458 2236.4755,-57.1562 2222,-56 1912.848,-31.3076 925.1936,-14.6536 680.3309,-10.8363"/>
<polygon fill="#191970" stroke="#191970" points="2266.3786,-64.1822 2276.743,-61.9845 2267.2703,-57.2392 2266.3786,-64.1822"/>
</g>
<!-- Node12&#45;&gt;Node15 -->
<g id="edge11" class="edge">
<title>Node12&#45;&gt;Node15</title>
<path fill="none" stroke="#191970" d="M2377.1331,-58.4504C2410.3085,-46.7916 2458.1316,-29.9852 2487.8483,-19.5419"/>
<polygon fill="#191970" stroke="#191970" points="2375.6177,-55.273 2367.3438,-61.8906 2377.9386,-61.8771 2375.6177,-55.273"/>
</g>
<!-- Node26&#45;&gt;Node27 -->
<g id="edge25" class="edge">
<title>Node26&#45;&gt;Node27</title>
<path fill="none" stroke="#191970" d="M2514,-281.2601C2514,-245.1669 2514,-169.7656 2514,-142.8279"/>
<polygon fill="#191970" stroke="#191970" points="2510.5001,-281.4862 2514,-291.4862 2517.5001,-281.4863 2510.5001,-281.4862"/>
</g>
<!-- Node26&#45;&gt;Node28 -->
<g id="edge28" class="edge">
<title>Node26&#45;&gt;Node28</title>
<path fill="none" stroke="#191970" d="M2554.7459,-288.3235C2587.7563,-278.0536 2633.5417,-263.8093 2663.4607,-254.5011"/>
<polygon fill="#191970" stroke="#191970" points="2553.4519,-285.0605 2544.9431,-291.3733 2555.5314,-291.7445 2553.4519,-285.0605"/>
</g>
<!-- Node27&#45;&gt;Node12 -->
<g id="edge26" class="edge">
<title>Node27&#45;&gt;Node12</title>
<path fill="none" stroke="#191970" d="M2477.0791,-119.9504C2444.0932,-108.2916 2396.5434,-91.4852 2366.9966,-81.0419"/>
<polygon fill="#191970" stroke="#191970" points="2476.2177,-123.3581 2486.8125,-123.3906 2478.5505,-116.7582 2476.2177,-123.3581"/>
</g>
<!-- Node27&#45;&gt;Node15 -->
<g id="edge27" class="edge">
<title>Node27&#45;&gt;Node15</title>
<path fill="none" stroke="#191970" d="M2514.1607,-113.2305C2514.3785,-86.4497 2514.7587,-39.686 2514.9219,-19.6068"/>
<polygon fill="#191970" stroke="#191970" points="2510.66,-113.3202 2514.0785,-123.3484 2517.6597,-113.3772 2510.66,-113.3202"/>
</g>
<!-- Node29 -->
<g id="node25" class="node">
<title>Node29</title>
<g id="a_node25"><a xlink:href="GameService_8hxx.html" target="_top" xlink:title="src/GameService.hxx">
<polygon fill="none" stroke="#000000" points="2633,-179.5 2633,-198.5 2753,-198.5 2753,-179.5 2633,-179.5"/>
<text text-anchor="middle" x="2693" y="-186.5" font-family="Helvetica,sans-Serif" font-size="10.00" fill="#000000">src/GameService.hxx</text>
</a>
</g>
</g>
<!-- Node28&#45;&gt;Node29 -->
<g id="edge29" class="edge">
<title>Node28&#45;&gt;Node29</title>
<path fill="none" stroke="#191970" d="M2693.6457,-225.1575C2693.4849,-216.155 2693.3021,-205.9199 2693.1722,-198.6427"/>
<polygon fill="#191970" stroke="#191970" points="2690.1477,-225.3097 2693.8258,-235.2455 2697.1466,-225.1846 2690.1477,-225.3097"/>
</g>
<!-- Node29&#45;&gt;Node27 -->
<g id="edge30" class="edge">
<title>Node29&#45;&gt;Node27</title>
<path fill="none" stroke="#191970" d="M2652.4805,-176.3235C2619.6534,-166.0536 2574.1224,-151.8093 2544.3697,-142.5011"/>
<polygon fill="#191970" stroke="#191970" points="2651.6399,-179.7278 2662.2288,-179.3733 2653.73,-173.0471 2651.6399,-179.7278"/>
</g>
<!-- Node29&#45;&gt;Node30 -->
<g id="edge31" class="edge">
<title>Node29&#45;&gt;Node30</title>
<path fill="none" stroke="#191970" d="M2726.3493,-175.1519C2743.1731,-167.2151 2763.2864,-156.2024 2779,-143 2800.9711,-124.5402 2820.0062,-96.1895 2829.1751,-81.3418"/>
<polygon fill="#191970" stroke="#191970" points="2724.5324,-172.1333 2716.8819,-179.4628 2727.4333,-178.504 2724.5324,-172.1333"/>
</g>
<!-- Node32 -->
<g id="node28" class="node">
<title>Node32</title>
<g id="a_node28"><a xlink:href="Randomizer_8hxx.html" target="_top" xlink:title="src/services/Randomizer.hxx">
<polygon fill="none" stroke="#000000" points="2614,-123.5 2614,-142.5 2770,-142.5 2770,-123.5 2614,-123.5"/>
<text text-anchor="middle" x="2692" y="-130.5" font-family="Helvetica,sans-Serif" font-size="10.00" fill="#000000">src/services/Randomizer.hxx</text>
</a>
</g>
</g>
<!-- Node29&#45;&gt;Node32 -->
<g id="edge34" class="edge">
<title>Node29&#45;&gt;Node32</title>
<path fill="none" stroke="#191970" d="M2692.6457,-169.1575C2692.4849,-160.155 2692.3021,-149.9199 2692.1722,-142.6427"/>
<polygon fill="#191970" stroke="#191970" points="2689.1477,-169.3097 2692.8258,-179.2455 2696.1466,-169.1846 2689.1477,-169.3097"/>
</g>
<!-- Node30&#45;&gt;Node25 -->
<g id="edge32" class="edge">
<title>Node30&#45;&gt;Node25</title>
<path fill="none" stroke="#191970" d="M2803.6884,-57.8428C2777.0271,-46.2139 2739.4069,-29.8051 2715.8765,-19.5419"/>
<polygon fill="#191970" stroke="#191970" points="2802.4034,-61.1007 2812.9688,-61.8906 2805.202,-54.6845 2802.4034,-61.1007"/>
</g>
<!-- Node31 -->
<g id="node27" class="node">
<title>Node31</title>
<g id="a_node27"><a xlink:href="main_8cxx.html" target="_top" xlink:title="src/main.cxx">
<polygon fill="none" stroke="#000000" points="2795.5,-.5 2795.5,-19.5 2874.5,-19.5 2874.5,-.5 2795.5,-.5"/>
<text text-anchor="middle" x="2835" y="-7.5" font-family="Helvetica,sans-Serif" font-size="10.00" fill="#000000">src/main.cxx</text>
</a>
</g>
</g>
<!-- Node30&#45;&gt;Node31 -->
<g id="edge33" class="edge">
<title>Node30&#45;&gt;Node31</title>
<path fill="none" stroke="#191970" d="M2835,-51.7462C2835,-41.0519 2835,-28.314 2835,-19.7449"/>
<polygon fill="#191970" stroke="#191970" points="2831.5001,-51.8906 2835,-61.8906 2838.5001,-51.8907 2831.5001,-51.8906"/>
</g>
<!-- Node32&#45;&gt;Node15 -->
<g id="edge36" class="edge">
<title>Node32&#45;&gt;Node15</title>
<path fill="none" stroke="#191970" d="M2663.9284,-118.7782C2647.7567,-110.2132 2627.2755,-98.7221 2610,-87 2577.6752,-65.0663 2542.7402,-34.884 2525.6461,-19.6414"/>
<polygon fill="#191970" stroke="#191970" points="2662.4112,-121.9344 2672.8952,-123.4626 2665.6525,-115.73 2662.4112,-121.9344"/>
</g>
<!-- Node32&#45;&gt;Node30 -->
<g id="edge35" class="edge">
<title>Node32&#45;&gt;Node30</title>
<path fill="none" stroke="#191970" d="M2723.7558,-119.3428C2750.7952,-107.7139 2788.9491,-91.3051 2812.8131,-81.0419"/>
<polygon fill="#191970" stroke="#191970" points="2722.1474,-116.2245 2714.3438,-123.3906 2724.913,-122.655 2722.1474,-116.2245"/>
</g>
<!-- Node33 -->
<g id="node29" class="node">
<title>Node33</title>
<g id="a_node29"><a xlink:href="Randomizer_8cxx.html" target="_top" xlink:title="src/services/Randomizer.cxx">
<polygon fill="none" stroke="#000000" points="2619.5,-62 2619.5,-81 2774.5,-81 2774.5,-62 2619.5,-62"/>
<text text-anchor="middle" x="2697" y="-69" font-family="Helvetica,sans-Serif" font-size="10.00" fill="#000000">src/services/Randomizer.cxx</text>
</a>
</g>
</g>
<!-- Node32&#45;&gt;Node33 -->
<g id="edge37" class="edge">
<title>Node32&#45;&gt;Node33</title>
<path fill="none" stroke="#191970" d="M2693.606,-113.2462C2694.4755,-102.5519 2695.5111,-89.814 2696.2077,-81.2449"/>
<polygon fill="#191970" stroke="#191970" points="2690.1032,-113.1399 2692.7813,-123.3906 2697.0802,-113.7072 2690.1032,-113.1399"/>
</g>
<!-- Node34&#45;&gt;Node28 -->
<g id="edge40" class="edge">
<title>Node34&#45;&gt;Node28</title>
<path fill="none" stroke="#191970" d="M2694.6457,-281.1575C2694.4849,-272.155 2694.3021,-261.9199 2694.1722,-254.6427"/>
<polygon fill="#191970" stroke="#191970" points="2691.1477,-281.3097 2694.8258,-291.2455 2698.1466,-281.1846 2691.1477,-281.3097"/>
</g>
</g>
</svg>
