<?xml version="1.0" encoding="UTF-8" standalone="no"?>
<!DOCTYPE svg PUBLIC "-//W3C//DTD SVG 1.1//EN"
 "http://www.w3.org/Graphics/SVG/1.1/DTD/svg11.dtd">
<!-- Generated by graphviz version 2.40.1 (20161225.0304)
 -->
<!-- Title: src/engine/basics/point.hxx Pages: 1 -->
<!--zoomable 442 -->
<svg id="main" version="1.1" xmlns="http://www.w3.org/2000/svg" xmlns:xlink="http://www.w3.org/1999/xlink" xml:space="preserve" onload="init(evt)">
<style type="text/css"><![CDATA[
.edge:hover path { stroke: red; }
.edge:hover polygon { stroke: red; fill: red; }
]]></style>
<script type="text/javascript"><![CDATA[
var edges = document.getElementsByTagName('g');
if (edges && edges.length) {
  for (var i=0;i<edges.length;i++) {
    if (edges[i].id.substr(0,4)=='edge') {
      edges[i].setAttribute('class','edge');
    }
  }
}
]]></script>
        <defs>
                <circle id="rim" cx="0" cy="0" r="7"/>
                <circle id="rim2" cx="0" cy="0" r="3.5"/>
                <g id="zoomPlus">
                        <use xlink:href="#rim" fill="#404040">
                                <set attributeName="fill" to="#808080" begin="zoomplus.mouseover" end="zoomplus.mouseout"/>
                        </use>
                        <path d="M-4,0h8M0,-4v8" fill="none" stroke="white" stroke-width="1.5" pointer-events="none"/>
                </g>
                <g id="zoomMin">
                        <use xlink:href="#rim" fill="#404040">
                                <set attributeName="fill" to="#808080" begin="zoomminus.mouseover" end="zoomminus.mouseout"/>
                        </use>
                        <path d="M-4,0h8" fill="none" stroke="white" stroke-width="1.5" pointer-events="none"/>
                </g>
                <g id="dirArrow">
                        <path fill="none" stroke="white" stroke-width="1.5" d="M0,-3.0v7 M-2.5,-0.5L0,-3.0L2.5,-0.5"/>
                </g>
               <g id="resetDef">
                       <use xlink:href="#rim2" fill="#404040">
                               <set attributeName="fill" to="#808080" begin="reset.mouseover" end="reset.mouseout"/>
                       </use>
               </g>
        </defs>

<script type="text/javascript">
var viewWidth = 1382;
var viewHeight = 442;
var sectionId = 'dynsection-0';
</script>
<script xlink:href="svgpan.js"/>
<svg id="graph" class="graph">
<g id="viewport">
<title>src/engine/basics/point.hxx</title>
<!-- Node1 -->
<g id="node1" class="node">
<title>Node1</title>
<polygon fill="#bfbfbf" stroke="#000000" points="681.5,-414.5 681.5,-433.5 830.5,-433.5 830.5,-414.5 681.5,-414.5"/>
<text text-anchor="middle" x="756" y="-421.5" font-family="Helvetica,sans-Serif" font-size="10.00" fill="#000000">src/engine/basics/point.hxx</text>
</g>
<!-- Node2 -->
<g id="node2" class="node">
<title>Node2</title>
<g id="a_node2"><a xlink:href="Camera_8hxx.html" target="_top" xlink:title="src/engine/basics/Camera.hxx">
<polygon fill="none" stroke="#000000" points="966.5,-112.5 966.5,-131.5 1129.5,-131.5 1129.5,-112.5 966.5,-112.5"/>
<text text-anchor="middle" x="1048" y="-119.5" font-family="Helvetica,sans-Serif" font-size="10.00" fill="#000000">src/engine/basics/Camera.hxx</text>
</a>
</g>
</g>
<!-- Node1&#45;&gt;Node2 -->
<g id="edge1" class="edge">
<title>Node1&#45;&gt;Node2</title>
<path fill="none" stroke="#191970" d="M803.9734,-411.3779C851.7414,-395.5668 918,-363.3832 918,-306.5 918,-306.5 918,-306.5 918,-239.5 918,-183.6752 984.7937,-147.5093 1022.6261,-131.502"/>
<polygon fill="#191970" stroke="#191970" points="802.8666,-408.0571 794.3917,-414.4153 804.9819,-414.7298 802.8666,-408.0571"/>
</g>
<!-- Node4 -->
<g id="node4" class="node">
<title>Node4</title>
<g id="a_node4"><a xlink:href="isoMath_8cxx.html" target="_top" xlink:title="src/engine/basics/isoMath.cxx">
<polygon fill="none" stroke="#000000" points="808,-56.5 808,-75.5 970,-75.5 970,-56.5 808,-56.5"/>
<text text-anchor="middle" x="889" y="-63.5" font-family="Helvetica,sans-Serif" font-size="10.00" fill="#000000">src/engine/basics/isoMath.cxx</text>
</a>
</g>
</g>
<!-- Node1&#45;&gt;Node4 -->
<g id="edge45" class="edge">
<title>Node1&#45;&gt;Node4</title>
<path fill="none" stroke="#191970" d="M840.7935,-414.3617C993.7245,-395.8217 1300,-352.8996 1300,-306.5 1300,-306.5 1300,-306.5 1300,-178 1300,-147.4754 1304.2745,-131.7497 1281,-112 1278.0529,-109.4992 1084.3847,-87.6567 970.407,-74.9906"/>
<polygon fill="#191970" stroke="#191970" points="840.0102,-410.9306 830.5002,-415.6008 840.8469,-417.8804 840.0102,-410.9306"/>
</g>
<!-- Node10 -->
<g id="node10" class="node">
<title>Node10</title>
<g id="a_node10"><a xlink:href="isoMath_8hxx.html" target="_top" xlink:title="src/engine/basics/isoMath.hxx">
<polygon fill="none" stroke="#000000" points="104.5,-112.5 104.5,-131.5 267.5,-131.5 267.5,-112.5 104.5,-112.5"/>
<text text-anchor="middle" x="186" y="-119.5" font-family="Helvetica,sans-Serif" font-size="10.00" fill="#000000">src/engine/basics/isoMath.hxx</text>
</a>
</g>
</g>
<!-- Node1&#45;&gt;Node10 -->
<g id="edge9" class="edge">
<title>Node1&#45;&gt;Node10</title>
<path fill="none" stroke="#191970" d="M671.0709,-414.311C518.3237,-395.7264 213,-352.7887 213,-306.5 213,-306.5 213,-306.5 213,-239.5 213,-198.4754 197.1731,-151.3934 189.7542,-131.5772"/>
<polygon fill="#191970" stroke="#191970" points="671.0051,-417.8284 681.3527,-415.5532 671.8447,-410.8789 671.0051,-417.8284"/>
</g>
<!-- Node11 -->
<g id="node11" class="node">
<title>Node11</title>
<g id="a_node11"><a xlink:href="Engine_8hxx.html" target="_top" xlink:title="src/engine/Engine.hxx">
<polygon fill="none" stroke="#000000" points="1148,-112.5 1148,-131.5 1272,-131.5 1272,-112.5 1148,-112.5"/>
<text text-anchor="middle" x="1210" y="-119.5" font-family="Helvetica,sans-Serif" font-size="10.00" fill="#000000">src/engine/Engine.hxx</text>
</a>
</g>
</g>
<!-- Node1&#45;&gt;Node11 -->
<g id="edge15" class="edge">
<title>Node1&#45;&gt;Node11</title>
<path fill="none" stroke="#191970" d="M840.6741,-414.2065C949.6169,-399.2003 1125,-365.8289 1125,-306.5 1125,-306.5 1125,-306.5 1125,-239.5 1125,-191.4113 1172.3158,-149.6729 1196.3433,-131.5778"/>
<polygon fill="#191970" stroke="#191970" points="840.1136,-410.7504 830.6727,-415.5585 841.0514,-417.6873 840.1136,-410.7504"/>
</g>
<!-- Node15 -->
<g id="node15" class="node">
<title>Node15</title>
<g id="a_node15"><a xlink:href="Sprite_8hxx.html" target="_top" xlink:title="src/engine/Sprite.hxx">
<polygon fill="none" stroke="#000000" points="3.5,-358.5 3.5,-377.5 122.5,-377.5 122.5,-358.5 3.5,-358.5"/>
<text text-anchor="middle" x="63" y="-365.5" font-family="Helvetica,sans-Serif" font-size="10.00" fill="#000000">src/engine/Sprite.hxx</text>
</a>
</g>
</g>
<!-- Node1&#45;&gt;Node15 -->
<g id="edge25" class="edge">
<title>Node1&#45;&gt;Node15</title>
<path fill="none" stroke="#191970" d="M671.1944,-417.147C529.0946,-405.6642 246.3598,-382.817 122.9519,-372.8446"/>
<polygon fill="#191970" stroke="#191970" points="670.929,-420.6369 681.1784,-417.9538 671.4929,-413.6596 670.929,-420.6369"/>
</g>
<!-- Node16 -->
<g id="node16" class="node">
<title>Node16</title>
<g id="a_node16"><a xlink:href="MapNode_8hxx.html" target="_top" xlink:title="src/engine/GameObjects\l/MapNode.hxx">
<polygon fill="none" stroke="#000000" points="461,-291.5 461,-321.5 597,-321.5 597,-291.5 461,-291.5"/>
<text text-anchor="start" x="469" y="-309.5" font-family="Helvetica,sans-Serif" font-size="10.00" fill="#000000">src/engine/GameObjects</text>
<text text-anchor="middle" x="529" y="-298.5" font-family="Helvetica,sans-Serif" font-size="10.00" fill="#000000">/MapNode.hxx</text>
</a>
</g>
</g>
<!-- Node1&#45;&gt;Node16 -->
<g id="edge44" class="edge">
<title>Node1&#45;&gt;Node16</title>
<path fill="none" stroke="#191970" d="M728.3395,-409.6823C685.134,-387.3183 602.0316,-344.3027 558.011,-321.5167"/>
<polygon fill="#191970" stroke="#191970" points="726.9339,-412.8958 737.4236,-414.3845 730.1518,-406.6793 726.9339,-412.8958"/>
</g>
<!-- Node19 -->
<g id="node19" class="node">
<title>Node19</title>
<g id="a_node19"><a xlink:href="JsonSerialization_8hxx.html" target="_top" xlink:title="src/engine/common/JsonSerialization.hxx">
<polygon fill="none" stroke="#000000" points="587,-168.5 587,-187.5 805,-187.5 805,-168.5 587,-168.5"/>
<text text-anchor="middle" x="696" y="-175.5" font-family="Helvetica,sans-Serif" font-size="10.00" fill="#000000">src/engine/common/JsonSerialization.hxx</text>
</a>
</g>
</g>
<!-- Node1&#45;&gt;Node19 -->
<g id="edge46" class="edge">
<title>Node1&#45;&gt;Node19</title>
<path fill="none" stroke="#191970" d="M753.6824,-403.9635C749.1173,-367.4985 737.5742,-288.1351 717,-224 712.8166,-210.9594 705.9337,-196.7305 701.1947,-187.604"/>
<polygon fill="#191970" stroke="#191970" points="750.2476,-404.7138 754.922,-414.2217 757.197,-403.874 750.2476,-404.7138"/>
</g>
<!-- Node3 -->
<g id="node3" class="node">
<title>Node3</title>
<g id="a_node3"><a xlink:href="Camera_8cxx.html" target="_top" xlink:title="src/engine/basics/Camera.cxx">
<polygon fill="none" stroke="#000000" points="430,-56.5 430,-75.5 592,-75.5 592,-56.5 430,-56.5"/>
<text text-anchor="middle" x="511" y="-63.5" font-family="Helvetica,sans-Serif" font-size="10.00" fill="#000000">src/engine/basics/Camera.cxx</text>
</a>
</g>
</g>
<!-- Node2&#45;&gt;Node3 -->
<g id="edge2" class="edge">
<title>Node2&#45;&gt;Node3</title>
<path fill="none" stroke="#191970" d="M956.0169,-111.9042C797.1702,-95.2044 755.8982,-92.437 601,-76 598.186,-75.7014 595.3228,-75.3953 592.4311,-75.0844"/>
<polygon fill="#191970" stroke="#191970" points="955.8394,-115.4048 966.1511,-112.9718 956.5728,-108.4433 955.8394,-115.4048"/>
</g>
<!-- Node2&#45;&gt;Node4 -->
<g id="edge3" class="edge">
<title>Node2&#45;&gt;Node4</title>
<path fill="none" stroke="#191970" d="M1010.871,-108.9231C981.805,-98.686 942.0631,-84.6889 915.9764,-75.5011"/>
<polygon fill="#191970" stroke="#191970" points="1010.0721,-112.3524 1020.6669,-112.3733 1012.3975,-105.75 1010.0721,-112.3524"/>
</g>
<!-- Node5 -->
<g id="node5" class="node">
<title>Node5</title>
<g id="a_node5"><a xlink:href="Engine_8cxx.html" target="_top" xlink:title="src/engine/Engine.cxx">
<polygon fill="none" stroke="#000000" points="988.5,-56.5 988.5,-75.5 1111.5,-75.5 1111.5,-56.5 988.5,-56.5"/>
<text text-anchor="middle" x="1050" y="-63.5" font-family="Helvetica,sans-Serif" font-size="10.00" fill="#000000">src/engine/Engine.cxx</text>
</a>
</g>
</g>
<!-- Node2&#45;&gt;Node5 -->
<g id="edge4" class="edge">
<title>Node2&#45;&gt;Node5</title>
<path fill="none" stroke="#191970" d="M1048.7087,-102.1575C1049.0302,-93.155 1049.3957,-82.9199 1049.6556,-75.6427"/>
<polygon fill="#191970" stroke="#191970" points="1045.2076,-102.127 1048.3484,-112.2455 1052.2032,-102.3769 1045.2076,-102.127"/>
</g>
<!-- Node6 -->
<g id="node6" class="node">
<title>Node6</title>
<g id="a_node6"><a xlink:href="EventManager_8cxx.html" target="_top" xlink:title="src/engine/EventManager.cxx">
<polygon fill="none" stroke="#000000" points="178.5,-.5 178.5,-19.5 337.5,-19.5 337.5,-.5 178.5,-.5"/>
<text text-anchor="middle" x="258" y="-7.5" font-family="Helvetica,sans-Serif" font-size="10.00" fill="#000000">src/engine/EventManager.cxx</text>
</a>
</g>
</g>
<!-- Node2&#45;&gt;Node6 -->
<g id="edge5" class="edge">
<title>Node2&#45;&gt;Node6</title>
<path fill="none" stroke="#191970" d="M956.2106,-111.7895C908.4415,-104.8001 849.6067,-93.5366 799,-76 780.9668,-69.751 779.3001,-61.4179 761,-56 683.8537,-33.1601 458.8636,-19.4286 337.6152,-13.4829"/>
<polygon fill="#191970" stroke="#191970" points="955.8354,-115.2713 966.2292,-113.2168 956.8228,-108.3413 955.8354,-115.2713"/>
</g>
<!-- Node7 -->
<g id="node7" class="node">
<title>Node7</title>
<g id="a_node7"><a xlink:href="Map_8cxx.html" target="_top" xlink:title="src/engine/Map.cxx">
<polygon fill="none" stroke="#000000" points="297,-56.5 297,-75.5 407,-75.5 407,-56.5 297,-56.5"/>
<text text-anchor="middle" x="352" y="-63.5" font-family="Helvetica,sans-Serif" font-size="10.00" fill="#000000">src/engine/Map.cxx</text>
</a>
</g>
</g>
<!-- Node2&#45;&gt;Node7 -->
<g id="edge6" class="edge">
<title>Node2&#45;&gt;Node7</title>
<path fill="none" stroke="#191970" d="M956.1367,-111.9616C717.4765,-91.2271 655.1854,-100.7973 421,-76 416.5463,-75.5284 411.9386,-74.9842 407.3146,-74.3983"/>
<polygon fill="#191970" stroke="#191970" points="955.896,-115.4538 966.1637,-112.8415 956.508,-108.4806 955.896,-115.4538"/>
</g>
<!-- Node8 -->
<g id="node8" class="node">
<title>Node8</title>
<g id="a_node8"><a xlink:href="Sprite_8cxx.html" target="_top" xlink:title="src/engine/Sprite.cxx">
<polygon fill="none" stroke="#000000" points="110.5,-56.5 110.5,-75.5 229.5,-75.5 229.5,-56.5 110.5,-56.5"/>
<text text-anchor="middle" x="170" y="-63.5" font-family="Helvetica,sans-Serif" font-size="10.00" fill="#000000">src/engine/Sprite.cxx</text>
</a>
</g>
</g>
<!-- Node2&#45;&gt;Node8 -->
<g id="edge7" class="edge">
<title>Node2&#45;&gt;Node8</title>
<path fill="none" stroke="#191970" d="M955.9472,-111.9584C658.5109,-87.9228 581.7158,-96.3434 288,-76 269.0279,-74.6859 248.3602,-73.0159 229.6993,-71.4187"/>
<polygon fill="#191970" stroke="#191970" points="955.9172,-115.4674 966.1681,-112.79 956.4849,-108.4905 955.9172,-115.4674"/>
</g>
<!-- Node9 -->
<g id="node9" class="node">
<title>Node9</title>
<g id="a_node9"><a xlink:href="Game_8cxx.html" target="_top" xlink:title="src/Game.cxx">
<polygon fill="none" stroke="#000000" points="1290.5,-.5 1290.5,-19.5 1373.5,-19.5 1373.5,-.5 1290.5,-.5"/>
<text text-anchor="middle" x="1332" y="-7.5" font-family="Helvetica,sans-Serif" font-size="10.00" fill="#000000">src/Game.cxx</text>
</a>
</g>
</g>
<!-- Node2&#45;&gt;Node9 -->
<g id="edge8" class="edge">
<title>Node2&#45;&gt;Node9</title>
<path fill="none" stroke="#191970" d="M1127.4963,-111.0531C1195.7406,-101.0665 1285.2417,-86.3338 1299,-76 1317.6427,-61.9975 1326.4571,-34.5463 1329.9952,-19.8461"/>
<polygon fill="#191970" stroke="#191970" points="1126.9865,-107.5904 1117.5932,-112.491 1127.9924,-114.5177 1126.9865,-107.5904"/>
</g>
<!-- Node10&#45;&gt;Node3 -->
<g id="edge10" class="edge">
<title>Node10&#45;&gt;Node3</title>
<path fill="none" stroke="#191970" d="M251.6169,-110.6937C311.5773,-100.3621 399.2568,-85.2542 455.7287,-75.5237"/>
<polygon fill="#191970" stroke="#191970" points="250.7606,-107.2896 241.5002,-112.4369 251.9493,-114.1879 250.7606,-107.2896"/>
</g>
<!-- Node10&#45;&gt;Node4 -->
<g id="edge11" class="edge">
<title>Node10&#45;&gt;Node4</title>
<path fill="none" stroke="#191970" d="M277.8343,-114.6846C416.2613,-103.6577 676.1666,-82.954 807.9525,-72.4561"/>
<polygon fill="#191970" stroke="#191970" points="277.3645,-111.2108 267.6741,-115.494 277.9204,-118.1887 277.3645,-111.2108"/>
</g>
<!-- Node10&#45;&gt;Node6 -->
<g id="edge12" class="edge">
<title>Node10&#45;&gt;Node6</title>
<path fill="none" stroke="#191970" d="M209.4936,-106.3859C219.8753,-98.4062 231.42,-87.8743 239,-76 250.42,-58.1101 255.1448,-33.19 256.9638,-19.6651"/>
<polygon fill="#191970" stroke="#191970" points="207.1779,-103.7428 201.1591,-112.4621 211.3016,-109.3992 207.1779,-103.7428"/>
</g>
<!-- Node10&#45;&gt;Node7 -->
<g id="edge13" class="edge">
<title>Node10&#45;&gt;Node7</title>
<path fill="none" stroke="#191970" d="M224.3667,-109.057C254.7466,-98.8084 296.4819,-84.729 323.836,-75.5011"/>
<polygon fill="#191970" stroke="#191970" points="222.893,-105.8603 214.5364,-112.3733 225.1306,-112.4931 222.893,-105.8603"/>
</g>
<!-- Node10&#45;&gt;Node8 -->
<g id="edge14" class="edge">
<title>Node10&#45;&gt;Node8</title>
<path fill="none" stroke="#191970" d="M180.4154,-102.4538C177.823,-93.3803 174.8571,-82.9998 172.755,-75.6427"/>
<polygon fill="#191970" stroke="#191970" points="177.1004,-103.5919 183.213,-112.2455 183.8311,-101.6688 177.1004,-103.5919"/>
</g>
<!-- Node11&#45;&gt;Node3 -->
<g id="edge16" class="edge">
<title>Node11&#45;&gt;Node3</title>
<path fill="none" stroke="#191970" d="M1137.6636,-111.928C898.9341,-87.5386 836.4394,-96.947 601,-76 598.1813,-75.7492 595.3141,-75.4843 592.419,-75.2084"/>
<polygon fill="#191970" stroke="#191970" points="1137.3873,-115.4179 1147.6935,-112.9618 1138.1051,-108.4548 1137.3873,-115.4179"/>
</g>
<!-- Node11&#45;&gt;Node4 -->
<g id="edge17" class="edge">
<title>Node11&#45;&gt;Node4</title>
<path fill="none" stroke="#191970" d="M1145.1907,-110.6937C1085.9683,-100.3621 999.3679,-85.2542 943.591,-75.5237"/>
<polygon fill="#191970" stroke="#191970" points="1144.7301,-114.1661 1155.1829,-112.4369 1145.9332,-107.2703 1144.7301,-114.1661"/>
</g>
<!-- Node11&#45;&gt;Node5 -->
<g id="edge22" class="edge">
<title>Node11&#45;&gt;Node5</title>
<path fill="none" stroke="#191970" d="M1173.0201,-109.057C1143.7382,-98.8084 1103.5115,-84.729 1077.1461,-75.5011"/>
<polygon fill="#191970" stroke="#191970" points="1171.9002,-112.3732 1182.495,-112.3733 1174.2127,-105.7662 1171.9002,-112.3732"/>
</g>
<!-- Node11&#45;&gt;Node9 -->
<g id="edge24" class="edge">
<title>Node11&#45;&gt;Node9</title>
<path fill="none" stroke="#191970" d="M1258.8515,-109.6907C1288.8539,-101.032 1323.1787,-88.7536 1332,-76 1343.7327,-59.0372 1338.9663,-33.299 1335.1022,-19.5119"/>
<polygon fill="#191970" stroke="#191970" points="1257.57,-106.4149 1248.8855,-112.4838 1259.4591,-113.1552 1257.57,-106.4149"/>
</g>
<!-- Node12 -->
<g id="node12" class="node">
<title>Node12</title>
<g id="a_node12"><a xlink:href="EventManager_8hxx.html" target="_top" xlink:title="src/engine/EventManager.hxx">
<polygon fill="none" stroke="#000000" points="1130,-56.5 1130,-75.5 1290,-75.5 1290,-56.5 1130,-56.5"/>
<text text-anchor="middle" x="1210" y="-63.5" font-family="Helvetica,sans-Serif" font-size="10.00" fill="#000000">src/engine/EventManager.hxx</text>
</a>
</g>
</g>
<!-- Node11&#45;&gt;Node12 -->
<g id="edge18" class="edge">
<title>Node11&#45;&gt;Node12</title>
<path fill="none" stroke="#191970" d="M1210,-102.1575C1210,-93.155 1210,-82.9199 1210,-75.6427"/>
<polygon fill="#191970" stroke="#191970" points="1206.5001,-102.2455 1210,-112.2455 1213.5001,-102.2456 1206.5001,-102.2455"/>
</g>
<!-- Node14 -->
<g id="node14" class="node">
<title>Node14</title>
<g id="a_node14"><a xlink:href="UIManager_8cxx.html" target="_top" xlink:title="src/engine/UIManager.cxx">
<polygon fill="none" stroke="#000000" points="610,-56.5 610,-75.5 752,-75.5 752,-56.5 610,-56.5"/>
<text text-anchor="middle" x="681" y="-63.5" font-family="Helvetica,sans-Serif" font-size="10.00" fill="#000000">src/engine/UIManager.cxx</text>
</a>
</g>
</g>
<!-- Node11&#45;&gt;Node14 -->
<g id="edge23" class="edge">
<title>Node11&#45;&gt;Node14</title>
<path fill="none" stroke="#191970" d="M1137.4377,-111.8489C994.8719,-94.8144 840.1203,-80.2008 752.1025,-72.2569"/>
<polygon fill="#191970" stroke="#191970" points="1137.3341,-115.3615 1147.6803,-113.0795 1138.1692,-108.4115 1137.3341,-115.3615"/>
</g>
<!-- Node12&#45;&gt;Node6 -->
<g id="edge20" class="edge">
<title>Node12&#45;&gt;Node6</title>
<path fill="none" stroke="#191970" d="M1119.9447,-55.9581C825.2878,-31.8494 488.0793,-18.0927 337.5256,-12.679"/>
<polygon fill="#191970" stroke="#191970" points="1119.7145,-59.4509 1129.9681,-56.7836 1120.2891,-52.4745 1119.7145,-59.4509"/>
</g>
<!-- Node12&#45;&gt;Node9 -->
<g id="edge21" class="edge">
<title>Node12&#45;&gt;Node9</title>
<path fill="none" stroke="#191970" d="M1240.2584,-52.1109C1262.3819,-41.9559 1291.8094,-28.4482 1311.3011,-19.5011"/>
<polygon fill="#191970" stroke="#191970" points="1238.6007,-49.0206 1230.9725,-56.3733 1241.521,-55.3824 1238.6007,-49.0206"/>
</g>
<!-- Node13 -->
<g id="node13" class="node">
<title>Node13</title>
<g id="a_node13"><a xlink:href="Timer_8cxx.html" target="_top" xlink:title="src/engine/basics/Timer.cxx">
<polygon fill="none" stroke="#000000" points="1120,-.5 1120,-19.5 1272,-19.5 1272,-.5 1120,-.5"/>
<text text-anchor="middle" x="1196" y="-7.5" font-family="Helvetica,sans-Serif" font-size="10.00" fill="#000000">src/engine/basics/Timer.cxx</text>
</a>
</g>
</g>
<!-- Node12&#45;&gt;Node13 -->
<g id="edge19" class="edge">
<title>Node12&#45;&gt;Node13</title>
<path fill="none" stroke="#191970" d="M1205.1135,-46.4538C1202.8451,-37.3803 1200.25,-26.9998 1198.4107,-19.6427"/>
<polygon fill="#191970" stroke="#191970" points="1201.7405,-47.393 1207.5614,-56.2455 1208.5315,-45.6952 1201.7405,-47.393"/>
</g>
<!-- Node15&#45;&gt;Node6 -->
<g id="edge42" class="edge">
<title>Node15&#45;&gt;Node6</title>
<path fill="none" stroke="#191970" d="M47.9687,-350.4782C29.3336,-326.9037 0,-282.9018 0,-239.5 0,-239.5 0,-239.5 0,-122 0,-73.4659 43.4227,-77.3677 87,-56 123.1601,-38.2692 167.09,-26.6394 201.369,-19.5095"/>
<polygon fill="#191970" stroke="#191970" points="45.4637,-352.9439 54.5035,-358.4694 50.8825,-348.5126 45.4637,-352.9439"/>
</g>
<!-- Node15&#45;&gt;Node8 -->
<g id="edge43" class="edge">
<title>Node15&#45;&gt;Node8</title>
<path fill="none" stroke="#191970" d="M56.8648,-348.7853C49.4629,-323.8592 38,-278.8973 38,-239.5 38,-239.5 38,-239.5 38,-178 38,-124.0526 102.8967,-90.6941 141.6827,-75.5746"/>
<polygon fill="#191970" stroke="#191970" points="53.5519,-349.9202 59.8337,-358.4519 60.2435,-347.865 53.5519,-349.9202"/>
</g>
<!-- Node15&#45;&gt;Node16 -->
<g id="edge26" class="edge">
<title>Node15&#45;&gt;Node16</title>
<path fill="none" stroke="#191970" d="M132.9235,-358.7719C221.5307,-347.078 373.2481,-327.0552 460.9532,-315.4804"/>
<polygon fill="#191970" stroke="#191970" points="132.4234,-355.3075 122.9674,-360.0859 133.3394,-362.2473 132.4234,-355.3075"/>
</g>
<!-- Node17 -->
<g id="node17" class="node">
<title>Node17</title>
<g id="a_node17"><a xlink:href="Map_8hxx.html" target="_top" xlink:title="src/engine/Map.hxx">
<polygon fill="none" stroke="#000000" points="266.5,-168.5 266.5,-187.5 377.5,-187.5 377.5,-168.5 266.5,-168.5"/>
<text text-anchor="middle" x="322" y="-175.5" font-family="Helvetica,sans-Serif" font-size="10.00" fill="#000000">src/engine/Map.hxx</text>
</a>
</g>
</g>
<!-- Node16&#45;&gt;Node17 -->
<g id="edge27" class="edge">
<title>Node16&#45;&gt;Node17</title>
<path fill="none" stroke="#191970" d="M450.8703,-295.5707C402.2445,-287.0792 346.0056,-273.6009 330,-255 313.6073,-235.9491 316.8946,-203.6444 319.8576,-187.6141"/>
<polygon fill="#191970" stroke="#191970" points="450.3516,-299.0326 460.7962,-297.2547 451.5226,-292.1312 450.3516,-299.0326"/>
</g>
<!-- Node18 -->
<g id="node18" class="node">
<title>Node18</title>
<g id="a_node18"><a xlink:href="TerrainGenerator_8hxx.html" target="_top" xlink:title="src/engine/map/TerrainGenerator.hxx">
<polygon fill="none" stroke="#000000" points="338.5,-230 338.5,-249 535.5,-249 535.5,-230 338.5,-230"/>
<text text-anchor="middle" x="437" y="-237" font-family="Helvetica,sans-Serif" font-size="10.00" fill="#000000">src/engine/map/TerrainGenerator.hxx</text>
</a>
</g>
</g>
<!-- Node16&#45;&gt;Node18 -->
<g id="edge32" class="edge">
<title>Node16&#45;&gt;Node18</title>
<path fill="none" stroke="#191970" d="M499.7683,-285.2117C483.0887,-273.0646 463.0014,-258.4358 450.1203,-249.055"/>
<polygon fill="#191970" stroke="#191970" points="497.9798,-288.2389 508.1238,-291.2967 502.1006,-282.5804 497.9798,-288.2389"/>
</g>
<!-- Node16&#45;&gt;Node19 -->
<g id="edge40" class="edge">
<title>Node16&#45;&gt;Node19</title>
<path fill="none" stroke="#191970" d="M607.1888,-292.1824C646.1683,-283.2892 687.4388,-270.5824 699,-255 713.8268,-235.0162 705.5247,-203.4236 699.876,-187.6405"/>
<polygon fill="#191970" stroke="#191970" points="606.3549,-288.7822 597.3476,-294.3606 607.8677,-295.6167 606.3549,-288.7822"/>
</g>
<!-- Node23 -->
<g id="node23" class="node">
<title>Node23</title>
<g id="a_node23"><a xlink:href="MapNode_8cxx.html" target="_top" xlink:title="src/engine/GameObjects\l/MapNode.cxx">
<polygon fill="none" stroke="#000000" points="554,-224.5 554,-254.5 690,-254.5 690,-224.5 554,-224.5"/>
<text text-anchor="start" x="562" y="-242.5" font-family="Helvetica,sans-Serif" font-size="10.00" fill="#000000">src/engine/GameObjects</text>
<text text-anchor="middle" x="622" y="-231.5" font-family="Helvetica,sans-Serif" font-size="10.00" fill="#000000">/MapNode.cxx</text>
</a>
</g>
</g>
<!-- Node16&#45;&gt;Node23 -->
<g id="edge41" class="edge">
<title>Node16&#45;&gt;Node23</title>
<path fill="none" stroke="#191970" d="M558.3618,-285.3469C572.1998,-275.3776 588.3922,-263.7121 600.9804,-254.6432"/>
<polygon fill="#191970" stroke="#191970" points="556.171,-282.6115 550.1031,-291.2967 560.2627,-288.2911 556.171,-282.6115"/>
</g>
<!-- Node17&#45;&gt;Node6 -->
<g id="edge29" class="edge">
<title>Node17&#45;&gt;Node6</title>
<path fill="none" stroke="#191970" d="M256.3616,-173.7358C196.727,-168.3308 115.0915,-156.5713 95,-132 84.3169,-118.9349 79.863,-81.2862 101,-56 114.2067,-40.2008 162.8208,-27.5416 202.4954,-19.534"/>
<polygon fill="#191970" stroke="#191970" points="256.2097,-177.2356 266.4744,-174.6113 256.8135,-170.2617 256.2097,-177.2356"/>
</g>
<!-- Node17&#45;&gt;Node7 -->
<g id="edge30" class="edge">
<title>Node17&#45;&gt;Node7</title>
<path fill="none" stroke="#191970" d="M318.0791,-158.3349C316.2102,-144.964 315.2832,-127.0401 320,-112 324.425,-97.8904 334.8766,-84.3192 342.6382,-75.6212"/>
<polygon fill="#191970" stroke="#191970" points="314.6511,-159.0548 319.7673,-168.3324 321.5533,-157.8892 314.6511,-159.0548"/>
</g>
<!-- Node17&#45;&gt;Node11 -->
<g id="edge28" class="edge">
<title>Node17&#45;&gt;Node11</title>
<path fill="none" stroke="#191970" d="M387.7022,-175.0129C554.9232,-167.2957 993.6798,-146.2995 1139,-132 1141.8493,-131.7196 1144.7597,-131.4089 1147.6973,-131.0756"/>
<polygon fill="#191970" stroke="#191970" points="387.3894,-171.5235 377.5611,-175.48 387.7116,-178.5161 387.3894,-171.5235"/>
</g>
<!-- Node17&#45;&gt;Node14 -->
<g id="edge31" class="edge">
<title>Node17&#45;&gt;Node14</title>
<path fill="none" stroke="#191970" d="M325.975,-158.1323C330.085,-143.0189 338.0796,-123.0051 353,-112 358.1482,-108.2028 514.7119,-87.4469 609.64,-75.1514"/>
<polygon fill="#191970" stroke="#191970" points="322.5198,-157.5352 323.6254,-168.0722 329.332,-159.1455 322.5198,-157.5352"/>
</g>
<!-- Node18&#45;&gt;Node17 -->
<g id="edge33" class="edge">
<title>Node18&#45;&gt;Node17</title>
<path fill="none" stroke="#191970" d="M410.0189,-225.071C388.3769,-213.4972 358.6131,-197.5801 339.8426,-187.5419"/>
<polygon fill="#191970" stroke="#191970" points="408.5625,-228.2611 419.0313,-229.8906 411.8636,-222.0884 408.5625,-228.2611"/>
</g>
<!-- Node18&#45;&gt;Node19 -->
<g id="edge34" class="edge">
<title>Node18&#45;&gt;Node19</title>
<path fill="none" stroke="#191970" d="M486.9708,-227.6343C536.1234,-215.963 610.22,-198.3686 655.7212,-187.5643"/>
<polygon fill="#191970" stroke="#191970" points="486.1054,-224.2424 477.1846,-229.9581 487.7227,-231.0531 486.1054,-224.2424"/>
</g>
<!-- Node21 -->
<g id="node21" class="node">
<title>Node21</title>
<g id="a_node21"><a xlink:href="TerrainGenerator_8cxx.html" target="_top" xlink:title="src/engine/map/TerrainGenerator.cxx">
<polygon fill="none" stroke="#000000" points="362,-112.5 362,-131.5 558,-131.5 558,-112.5 362,-112.5"/>
<text text-anchor="middle" x="460" y="-119.5" font-family="Helvetica,sans-Serif" font-size="10.00" fill="#000000">src/engine/map/TerrainGenerator.cxx</text>
</a>
</g>
</g>
<!-- Node18&#45;&gt;Node21 -->
<g id="edge39" class="edge">
<title>Node18&#45;&gt;Node21</title>
<path fill="none" stroke="#191970" d="M440.8347,-219.9095C445.8139,-194.4723 454.3131,-151.0527 458.0918,-131.7484"/>
<polygon fill="#191970" stroke="#191970" points="437.3684,-219.3984 438.8822,-229.8845 444.2381,-220.7431 437.3684,-219.3984"/>
</g>
<!-- Node19&#45;&gt;Node7 -->
<g id="edge37" class="edge">
<title>Node19&#45;&gt;Node7</title>
<path fill="none" stroke="#191970" d="M667.4399,-163.7139C649.4792,-154.6925 625.8405,-142.7508 605,-132 588.0386,-123.2503 584.9436,-118.5017 567,-112 537.6616,-101.3695 458.0996,-85.5543 404.4339,-75.5133"/>
<polygon fill="#191970" stroke="#191970" points="666.2722,-167.0439 676.78,-168.3993 669.411,-160.787 666.2722,-167.0439"/>
</g>
<!-- Node20 -->
<g id="node20" class="node">
<title>Node20</title>
<g id="a_node20"><a xlink:href="Settings_8cxx.html" target="_top" xlink:title="src/engine/basics/Settings.cxx">
<polygon fill="none" stroke="#000000" points="614,-112.5 614,-131.5 778,-131.5 778,-112.5 614,-112.5"/>
<text text-anchor="middle" x="696" y="-119.5" font-family="Helvetica,sans-Serif" font-size="10.00" fill="#000000">src/engine/basics/Settings.cxx</text>
</a>
</g>
</g>
<!-- Node19&#45;&gt;Node20 -->
<g id="edge35" class="edge">
<title>Node19&#45;&gt;Node20</title>
<path fill="none" stroke="#191970" d="M696,-158.1575C696,-149.155 696,-138.9199 696,-131.6427"/>
<polygon fill="#191970" stroke="#191970" points="692.5001,-158.2455 696,-168.2455 699.5001,-158.2456 692.5001,-158.2455"/>
</g>
<!-- Node19&#45;&gt;Node21 -->
<g id="edge36" class="edge">
<title>Node19&#45;&gt;Node21</title>
<path fill="none" stroke="#191970" d="M645.9026,-166.1125C602.4516,-155.8021 540.3802,-141.0733 500.1355,-131.5237"/>
<polygon fill="#191970" stroke="#191970" points="645.1604,-169.5335 655.6983,-168.4369 646.7766,-162.7226 645.1604,-169.5335"/>
</g>
<!-- Node22 -->
<g id="node22" class="node">
<title>Node22</title>
<g id="a_node22"><a xlink:href="AudioMixer_8cxx.html" target="_top" xlink:title="src/services/AudioMixer.cxx">
<polygon fill="none" stroke="#000000" points="796,-112.5 796,-131.5 948,-131.5 948,-112.5 796,-112.5"/>
<text text-anchor="middle" x="872" y="-119.5" font-family="Helvetica,sans-Serif" font-size="10.00" fill="#000000">src/services/AudioMixer.cxx</text>
</a>
</g>
</g>
<!-- Node19&#45;&gt;Node22 -->
<g id="edge38" class="edge">
<title>Node19&#45;&gt;Node22</title>
<path fill="none" stroke="#191970" d="M735.8404,-165.3235C768.1173,-155.0536 812.8852,-140.8093 842.1393,-131.5011"/>
<polygon fill="#191970" stroke="#191970" points="734.7235,-162.0059 726.2555,-168.3733 736.846,-168.6764 734.7235,-162.0059"/>
</g>
</g>
</svg>
        <g id="navigator" transform="translate(0 0)" fill="#404254">
                <rect fill="#f2f5e9" fill-opacity="0.5" stroke="#606060" stroke-width=".5" x="0" y="0" width="60" height="60"/>
                <use id="zoomplus" xlink:href="#zoomPlus" x="17" y="9" onmousedown="handleZoom(evt,'in')"/>
                <use id="zoomminus" xlink:href="#zoomMin" x="42" y="9" onmousedown="handleZoom(evt,'out')"/>
                <use id="reset" xlink:href="#resetDef" x="30" y="36" onmousedown="handleReset()"/>
                <g id="arrowUp" xlink:href="#dirArrow" transform="translate(30 24)" onmousedown="handlePan(0,-1)">
                  <use xlink:href="#rim" fill="#404040">
                        <set attributeName="fill" to="#808080" begin="arrowUp.mouseover" end="arrowUp.mouseout"/>
                  </use>
                  <path fill="none" stroke="white" stroke-width="1.5" d="M0,-3.0v7 M-2.5,-0.5L0,-3.0L2.5,-0.5"/>
                </g>
                <g id="arrowRight" xlink:href="#dirArrow" transform="rotate(90) translate(36 -43)" onmousedown="handlePan(1,0)">
                  <use xlink:href="#rim" fill="#404040">
                        <set attributeName="fill" to="#808080" begin="arrowRight.mouseover" end="arrowRight.mouseout"/>
                  </use>
                  <path fill="none" stroke="white" stroke-width="1.5" d="M0,-3.0v7 M-2.5,-0.5L0,-3.0L2.5,-0.5"/>
                </g>
                <g id="arrowDown" xlink:href="#dirArrow" transform="rotate(180) translate(-30 -48)" onmousedown="handlePan(0,1)">
                  <use xlink:href="#rim" fill="#404040">
                        <set attributeName="fill" to="#808080" begin="arrowDown.mouseover" end="arrowDown.mouseout"/>
                  </use>
                  <path fill="none" stroke="white" stroke-width="1.5" d="M0,-3.0v7 M-2.5,-0.5L0,-3.0L2.5,-0.5"/>
                </g>
                <g id="arrowLeft" xlink:href="#dirArrow" transform="rotate(270) translate(-36 17)" onmousedown="handlePan(-1,0)">
                  <use xlink:href="#rim" fill="#404040">
                        <set attributeName="fill" to="#808080" begin="arrowLeft.mouseover" end="arrowLeft.mouseout"/>
                  </use>
                  <path fill="none" stroke="white" stroke-width="1.5" d="M0,-3.0v7 M-2.5,-0.5L0,-3.0L2.5,-0.5"/>
                </g>
        </g>
        <svg viewBox="0 0 15 15" width="100%" height="30px" preserveAspectRatio="xMaxYMin meet">
         <g id="arrow_out" transform="scale(0.3 0.3)">
          <a xlink:href="point_8hxx__dep__incl_org.svg" target="_base">
           <rect id="button" ry="5" rx="5" y="6" x="6" height="38" width="38"
                fill="#f2f5e9" fill-opacity="0.5" stroke="#606060" stroke-width="1.0"/>
           <path id="arrow"
             d="M 11.500037,31.436501 C 11.940474,20.09759 22.043105,11.32322 32.158766,21.979434 L 37.068811,17.246167 C 37.068811,17.246167 37.088388,32 37.088388,32 L 22.160133,31.978069 C 22.160133,31.978069 26.997745,27.140456 26.997745,27.140456 C 18.528582,18.264221 13.291696,25.230495 11.500037,31.436501 z"
             style="fill:#404040;"/>
          </a>
         </g>
        </svg>
</svg>
