<?xml version="1.0" encoding="UTF-8" standalone="no"?>
<!DOCTYPE svg PUBLIC "-//W3C//DTD SVG 1.1//EN"
 "http://www.w3.org/Graphics/SVG/1.1/DTD/svg11.dtd">
<!-- Generated by graphviz version 2.40.1 (20161225.0304)
 -->
<!-- Title: src/services/Randomizer.cxx Pages: 1 -->
<svg width="1223pt" height="364pt"
 viewBox="0.00 0.00 1223.00 364.00" xmlns="http://www.w3.org/2000/svg" xmlns:xlink="http://www.w3.org/1999/xlink">
<g id="graph0" class="graph" transform="scale(1 1) rotate(0) translate(4 360)">
<title>src/services/Randomizer.cxx</title>
<!-- Node0 -->
<g id="node1" class="node">
<title>Node0</title>
<polygon fill="#bfbfbf" stroke="#000000" points="85,-336.5 85,-355.5 240,-355.5 240,-336.5 85,-336.5"/>
<text text-anchor="middle" x="162.5" y="-343.5" font-family="Helvetica,sans-Serif" font-size="10.00" fill="#000000">src/services/Randomizer.cxx</text>
</g>
<!-- Node1 -->
<g id="node2" class="node">
<title>Node1</title>
<g id="a_node2"><a xlink:href="Randomizer_8hxx.html" target="_top" xlink:title="Randomizer.hxx">
<polygon fill="none" stroke="#000000" points="115,-280.5 115,-299.5 210,-299.5 210,-280.5 115,-280.5"/>
<text text-anchor="middle" x="162.5" y="-287.5" font-family="Helvetica,sans-Serif" font-size="10.00" fill="#000000">Randomizer.hxx</text>
</a>
</g>
</g>
<!-- Node0&#45;&gt;Node1 -->
<g id="edge1" class="edge">
<title>Node0&#45;&gt;Node1</title>
<path fill="none" stroke="#191970" d="M162.5,-336.2455C162.5,-328.9382 162.5,-318.6944 162.5,-309.7046"/>
<polygon fill="#191970" stroke="#191970" points="166.0001,-309.6426 162.5,-299.6427 159.0001,-309.6427 166.0001,-309.6426"/>
</g>
<!-- Node2 -->
<g id="node3" class="node">
<title>Node2</title>
<polygon fill="none" stroke="#bfbfbf" points="7.5,-224.5 7.5,-243.5 61.5,-243.5 61.5,-224.5 7.5,-224.5"/>
<text text-anchor="middle" x="34.5" y="-231.5" font-family="Helvetica,sans-Serif" font-size="10.00" fill="#000000">random</text>
</g>
<!-- Node1&#45;&gt;Node2 -->
<g id="edge2" class="edge">
<title>Node1&#45;&gt;Node2</title>
<path fill="none" stroke="#191970" d="M140.496,-280.3733C119.8565,-271.3435 88.7842,-257.7494 65.6111,-247.6111"/>
<polygon fill="#191970" stroke="#191970" points="66.7813,-244.3028 56.2169,-243.5011 63.9755,-250.7159 66.7813,-244.3028"/>
</g>
<!-- Node3 -->
<g id="node4" class="node">
<title>Node3</title>
<polygon fill="none" stroke="#bfbfbf" points="80,-224.5 80,-243.5 133,-243.5 133,-224.5 80,-224.5"/>
<text text-anchor="middle" x="106.5" y="-231.5" font-family="Helvetica,sans-Serif" font-size="10.00" fill="#000000">iterator</text>
</g>
<!-- Node1&#45;&gt;Node3 -->
<g id="edge3" class="edge">
<title>Node1&#45;&gt;Node3</title>
<path fill="none" stroke="#191970" d="M152.7455,-280.2455C144.6352,-272.1352 132.9075,-260.4075 123.2919,-250.7919"/>
<polygon fill="#191970" stroke="#191970" points="125.6887,-248.2389 116.1427,-243.6427 120.7389,-253.1887 125.6887,-248.2389"/>
</g>
<!-- Node4 -->
<g id="node5" class="node">
<title>Node4</title>
<g id="a_node5"><a xlink:href="GameService_8hxx.html" target="_top" xlink:title="../GameService.hxx">
<polygon fill="none" stroke="#000000" points="689.5,-224.5 689.5,-243.5 801.5,-243.5 801.5,-224.5 689.5,-224.5"/>
<text text-anchor="middle" x="745.5" y="-231.5" font-family="Helvetica,sans-Serif" font-size="10.00" fill="#000000">../GameService.hxx</text>
</a>
</g>
</g>
<!-- Node1&#45;&gt;Node4 -->
<g id="edge4" class="edge">
<title>Node1&#45;&gt;Node4</title>
<path fill="none" stroke="#191970" d="M210.2093,-285.4173C313.9261,-275.4548 560.1404,-251.8047 679.0133,-240.3864"/>
<polygon fill="#191970" stroke="#191970" points="679.4565,-243.86 689.076,-239.4198 678.7871,-236.8921 679.4565,-243.86"/>
</g>
<!-- Node29 -->
<g id="node30" class="node">
<title>Node29</title>
<g id="a_node30"><a xlink:href="LOG_8hxx.html" target="_top" xlink:title="../engine/basics/LOG.hxx">
<polygon fill="none" stroke="#000000" points="151,-224.5 151,-243.5 288,-243.5 288,-224.5 151,-224.5"/>
<text text-anchor="middle" x="219.5" y="-231.5" font-family="Helvetica,sans-Serif" font-size="10.00" fill="#000000">../engine/basics/LOG.hxx</text>
</a>
</g>
</g>
<!-- Node1&#45;&gt;Node29 -->
<g id="edge34" class="edge">
<title>Node1&#45;&gt;Node29</title>
<path fill="none" stroke="#191970" d="M172.4286,-280.2455C180.6838,-272.1352 192.6209,-260.4075 202.4082,-250.7919"/>
<polygon fill="#191970" stroke="#191970" points="205.0046,-253.1476 209.6851,-243.6427 200.0989,-248.1542 205.0046,-253.1476"/>
</g>
<!-- Node5 -->
<g id="node6" class="node">
<title>Node5</title>
<g id="a_node6"><a xlink:href="Events_8hxx.html" target="_top" xlink:title="Events.hxx">
<polygon fill="none" stroke="#000000" points="535,-168.5 535,-187.5 606,-187.5 606,-168.5 535,-168.5"/>
<text text-anchor="middle" x="570.5" y="-175.5" font-family="Helvetica,sans-Serif" font-size="10.00" fill="#000000">Events.hxx</text>
</a>
</g>
</g>
<!-- Node4&#45;&gt;Node5 -->
<g id="edge5" class="edge">
<title>Node4&#45;&gt;Node5</title>
<path fill="none" stroke="#191970" d="M715.4164,-224.3733C686.3166,-215.0613 642.0477,-200.8953 610.097,-190.671"/>
<polygon fill="#191970" stroke="#191970" points="610.782,-187.2155 600.191,-187.5011 608.6485,-193.8824 610.782,-187.2155"/>
</g>
<!-- Node22 -->
<g id="node23" class="node">
<title>Node22</title>
<g id="a_node23"><a xlink:href="MessageQueue_8hxx.html" target="_top" xlink:title="util/MessageQueue.hxx">
<polygon fill="none" stroke="#000000" points="864,-168.5 864,-187.5 995,-187.5 995,-168.5 864,-168.5"/>
<text text-anchor="middle" x="929.5" y="-175.5" font-family="Helvetica,sans-Serif" font-size="10.00" fill="#000000">util/MessageQueue.hxx</text>
</a>
</g>
</g>
<!-- Node4&#45;&gt;Node22 -->
<g id="edge26" class="edge">
<title>Node4&#45;&gt;Node22</title>
<path fill="none" stroke="#191970" d="M777.1307,-224.3733C807.8596,-215.021 854.676,-200.7725 888.3022,-190.5385"/>
<polygon fill="#191970" stroke="#191970" points="889.7344,-193.7612 898.282,-187.5011 887.6962,-187.0644 889.7344,-193.7612"/>
</g>
<!-- Node28 -->
<g id="node29" class="node">
<title>Node28</title>
<g id="a_node29"><a xlink:href="GameService_8inl_8hxx.html" target="_top" xlink:title="GameService.inl.hxx">
<polygon fill="none" stroke="#000000" points="1013.5,-168.5 1013.5,-187.5 1131.5,-187.5 1131.5,-168.5 1013.5,-168.5"/>
<text text-anchor="middle" x="1072.5" y="-175.5" font-family="Helvetica,sans-Serif" font-size="10.00" fill="#000000">GameService.inl.hxx</text>
</a>
</g>
</g>
<!-- Node4&#45;&gt;Node28 -->
<g id="edge33" class="edge">
<title>Node4&#45;&gt;Node28</title>
<path fill="none" stroke="#191970" d="M801.3418,-224.4369C858.2458,-214.6918 946.4696,-199.5832 1006.7236,-189.2645"/>
<polygon fill="#191970" stroke="#191970" points="1007.6229,-192.6615 1016.8886,-187.5237 1006.4412,-185.7619 1007.6229,-192.6615"/>
</g>
<!-- Node6 -->
<g id="node7" class="node">
<title>Node6</title>
<polygon fill="none" stroke="#bfbfbf" points="479.5,-56.5 479.5,-75.5 523.5,-75.5 523.5,-56.5 479.5,-56.5"/>
<text text-anchor="middle" x="501.5" y="-63.5" font-family="Helvetica,sans-Serif" font-size="10.00" fill="#000000">string</text>
</g>
<!-- Node5&#45;&gt;Node6 -->
<g id="edge6" class="edge">
<title>Node5&#45;&gt;Node6</title>
<path fill="none" stroke="#191970" d="M578.0252,-168.4222C587.5843,-155.0011 601.5826,-130.2034 590.5,-112 583.8916,-101.1455 555.8299,-87.6951 532.9592,-78.1488"/>
<polygon fill="#191970" stroke="#191970" points="534.1344,-74.8483 523.553,-74.3155 531.4926,-81.3307 534.1344,-74.8483"/>
</g>
<!-- Node7 -->
<g id="node8" class="node">
<title>Node7</title>
<polygon fill="none" stroke="#bfbfbf" points="481.5,-112.5 481.5,-131.5 581.5,-131.5 581.5,-112.5 481.5,-112.5"/>
<text text-anchor="middle" x="531.5" y="-119.5" font-family="Helvetica,sans-Serif" font-size="10.00" fill="#000000">betterEnums.hxx</text>
</g>
<!-- Node5&#45;&gt;Node7 -->
<g id="edge7" class="edge">
<title>Node5&#45;&gt;Node7</title>
<path fill="none" stroke="#191970" d="M563.7067,-168.2455C558.2822,-160.4564 550.5339,-149.3308 543.9967,-139.9439"/>
<polygon fill="#191970" stroke="#191970" points="546.8025,-137.8485 538.2154,-131.6427 541.0583,-141.849 546.8025,-137.8485"/>
</g>
<!-- Node8 -->
<g id="node9" class="node">
<title>Node8</title>
<g id="a_node9"><a xlink:href="Meta_8hxx.html" target="_top" xlink:title="util/Meta.hxx">
<polygon fill="none" stroke="#000000" points="247.5,-56.5 247.5,-75.5 327.5,-75.5 327.5,-56.5 247.5,-56.5"/>
<text text-anchor="middle" x="287.5" y="-63.5" font-family="Helvetica,sans-Serif" font-size="10.00" fill="#000000">util/Meta.hxx</text>
</a>
</g>
</g>
<!-- Node5&#45;&gt;Node8 -->
<g id="edge8" class="edge">
<title>Node5&#45;&gt;Node8</title>
<path fill="none" stroke="#191970" d="M534.7724,-177.0849C468.1829,-174.5925 328.9028,-165.4167 296.5,-132 284.8245,-119.9592 283.4894,-100.3783 284.5258,-85.6652"/>
<polygon fill="#191970" stroke="#191970" points="288.0218,-85.894 285.6485,-75.5684 281.0647,-85.1203 288.0218,-85.894"/>
</g>
<!-- Node13 -->
<g id="node14" class="node">
<title>Node13</title>
<g id="a_node14"><a xlink:href="TransitiveModel_8hxx.html" target="_top" xlink:title="util/TransitiveModel.hxx">
<polygon fill="none" stroke="#000000" points="638,-112.5 638,-131.5 771,-131.5 771,-112.5 638,-112.5"/>
<text text-anchor="middle" x="704.5" y="-119.5" font-family="Helvetica,sans-Serif" font-size="10.00" fill="#000000">util/TransitiveModel.hxx</text>
</a>
</g>
</g>
<!-- Node5&#45;&gt;Node13 -->
<g id="edge13" class="edge">
<title>Node5&#45;&gt;Node13</title>
<path fill="none" stroke="#191970" d="M593.5354,-168.3733C615.2388,-159.3032 647.9618,-145.6279 672.255,-135.4755"/>
<polygon fill="#191970" stroke="#191970" points="673.8881,-138.5865 681.7652,-131.5011 671.1889,-132.1278 673.8881,-138.5865"/>
</g>
<!-- Node20 -->
<g id="node21" class="node">
<title>Node20</title>
<g id="a_node21"><a xlink:href="Soundtrack_8hxx.html" target="_top" xlink:title="engine/audio/Soundtrack.hxx">
<polygon fill="none" stroke="#000000" points="305.5,-112.5 305.5,-131.5 463.5,-131.5 463.5,-112.5 305.5,-112.5"/>
<text text-anchor="middle" x="384.5" y="-119.5" font-family="Helvetica,sans-Serif" font-size="10.00" fill="#000000">engine/audio/Soundtrack.hxx</text>
</a>
</g>
</g>
<!-- Node5&#45;&gt;Node20 -->
<g id="edge21" class="edge">
<title>Node5&#45;&gt;Node20</title>
<path fill="none" stroke="#191970" d="M538.5255,-168.3733C507.3287,-158.9807 459.729,-144.6496 425.7068,-134.4064"/>
<polygon fill="#191970" stroke="#191970" points="426.6418,-131.0327 416.0573,-131.5011 424.6237,-137.7355 426.6418,-131.0327"/>
</g>
<!-- Node9 -->
<g id="node10" class="node">
<title>Node9</title>
<polygon fill="none" stroke="#bfbfbf" points="182.5,-.5 182.5,-19.5 242.5,-19.5 242.5,-.5 182.5,-.5"/>
<text text-anchor="middle" x="212.5" y="-7.5" font-family="Helvetica,sans-Serif" font-size="10.00" fill="#000000">iostream</text>
</g>
<!-- Node8&#45;&gt;Node9 -->
<g id="edge9" class="edge">
<title>Node8&#45;&gt;Node9</title>
<path fill="none" stroke="#191970" d="M274.436,-56.2455C263.1438,-47.814 246.6155,-35.4729 233.4729,-25.6598"/>
<polygon fill="#191970" stroke="#191970" points="235.5211,-22.8211 225.4143,-19.6427 231.3331,-28.4301 235.5211,-22.8211"/>
</g>
<!-- Node10 -->
<g id="node11" class="node">
<title>Node10</title>
<polygon fill="none" stroke="#bfbfbf" points="320,-.5 320,-19.5 389,-19.5 389,-.5 320,-.5"/>
<text text-anchor="middle" x="354.5" y="-7.5" font-family="Helvetica,sans-Serif" font-size="10.00" fill="#000000">type_traits</text>
</g>
<!-- Node8&#45;&gt;Node10 -->
<g id="edge10" class="edge">
<title>Node8&#45;&gt;Node10</title>
<path fill="none" stroke="#191970" d="M299.1705,-56.2455C309.0661,-47.9746 323.4627,-35.9416 335.0901,-26.2232"/>
<polygon fill="#191970" stroke="#191970" points="337.535,-28.7413 342.9632,-19.6427 333.0458,-23.3703 337.535,-28.7413"/>
</g>
<!-- Node11 -->
<g id="node12" class="node">
<title>Node11</title>
<polygon fill="none" stroke="#bfbfbf" points="407,-.5 407,-19.5 458,-19.5 458,-.5 407,-.5"/>
<text text-anchor="middle" x="432.5" y="-7.5" font-family="Helvetica,sans-Serif" font-size="10.00" fill="#000000">variant</text>
</g>
<!-- Node8&#45;&gt;Node11 -->
<g id="edge11" class="edge">
<title>Node8&#45;&gt;Node11</title>
<path fill="none" stroke="#191970" d="M312.4264,-56.3733C336.1202,-47.2226 371.9511,-33.3844 398.3068,-23.2057"/>
<polygon fill="#191970" stroke="#191970" points="399.8314,-26.3689 407.8989,-19.5011 397.3094,-19.8389 399.8314,-26.3689"/>
</g>
<!-- Node12 -->
<g id="node13" class="node">
<title>Node12</title>
<polygon fill="none" stroke="#bfbfbf" points="261,-.5 261,-19.5 302,-19.5 302,-.5 261,-.5"/>
<text text-anchor="middle" x="281.5" y="-7.5" font-family="Helvetica,sans-Serif" font-size="10.00" fill="#000000">tuple</text>
</g>
<!-- Node8&#45;&gt;Node12 -->
<g id="edge12" class="edge">
<title>Node8&#45;&gt;Node12</title>
<path fill="none" stroke="#191970" d="M286.4549,-56.2455C285.672,-48.9382 284.5744,-38.6944 283.6112,-29.7046"/>
<polygon fill="#191970" stroke="#191970" points="287.0786,-29.2129 282.5331,-19.6427 280.1185,-29.9587 287.0786,-29.2129"/>
</g>
<!-- Node13&#45;&gt;Node8 -->
<g id="edge14" class="edge">
<title>Node13&#45;&gt;Node8</title>
<path fill="none" stroke="#191970" d="M637.7981,-115.2236C566.0684,-107.5843 448.4718,-94.0455 337.5852,-76.077"/>
<polygon fill="#191970" stroke="#191970" points="337.9988,-72.5982 327.5649,-74.438 336.8688,-79.5064 337.9988,-72.5982"/>
</g>
<!-- Node14 -->
<g id="node15" class="node">
<title>Node14</title>
<g id="a_node15"><a xlink:href="Observer_8hxx.html" target="_top" xlink:title="Observer.hxx">
<polygon fill="none" stroke="#000000" points="542,-56.5 542,-75.5 623,-75.5 623,-56.5 542,-56.5"/>
<text text-anchor="middle" x="582.5" y="-63.5" font-family="Helvetica,sans-Serif" font-size="10.00" fill="#000000">Observer.hxx</text>
</a>
</g>
</g>
<!-- Node13&#45;&gt;Node14 -->
<g id="edge15" class="edge">
<title>Node13&#45;&gt;Node14</title>
<path fill="none" stroke="#191970" d="M683.5275,-112.3733C663.9433,-103.3838 634.5039,-89.8706 612.449,-79.7471"/>
<polygon fill="#191970" stroke="#191970" points="613.7473,-76.4919 603.1989,-75.5011 610.8271,-82.8538 613.7473,-76.4919"/>
</g>
<!-- Node17 -->
<g id="node18" class="node">
<title>Node17</title>
<polygon fill="none" stroke="#bfbfbf" points="641.5,-56.5 641.5,-75.5 727.5,-75.5 727.5,-56.5 641.5,-56.5"/>
<text text-anchor="middle" x="684.5" y="-63.5" font-family="Helvetica,sans-Serif" font-size="10.00" fill="#000000">unordered_set</text>
</g>
<!-- Node13&#45;&gt;Node17 -->
<g id="edge18" class="edge">
<title>Node13&#45;&gt;Node17</title>
<path fill="none" stroke="#191970" d="M701.0163,-112.2455C698.3492,-104.7776 694.5867,-94.2427 691.3263,-85.1137"/>
<polygon fill="#191970" stroke="#191970" points="694.6033,-83.8829 687.9438,-75.6427 688.0111,-86.2373 694.6033,-83.8829"/>
</g>
<!-- Node18 -->
<g id="node19" class="node">
<title>Node18</title>
<polygon fill="none" stroke="#bfbfbf" points="745.5,-56.5 745.5,-75.5 783.5,-75.5 783.5,-56.5 745.5,-56.5"/>
<text text-anchor="middle" x="764.5" y="-63.5" font-family="Helvetica,sans-Serif" font-size="10.00" fill="#000000">map</text>
</g>
<!-- Node13&#45;&gt;Node18 -->
<g id="edge19" class="edge">
<title>Node13&#45;&gt;Node18</title>
<path fill="none" stroke="#191970" d="M714.9512,-112.2455C723.7269,-104.0549 736.4554,-92.1749 746.814,-82.5069"/>
<polygon fill="#191970" stroke="#191970" points="749.2461,-85.0246 754.1686,-75.6427 744.4699,-79.9072 749.2461,-85.0246"/>
</g>
<!-- Node19 -->
<g id="node20" class="node">
<title>Node19</title>
<polygon fill="none" stroke="#bfbfbf" points="801.5,-56.5 801.5,-75.5 855.5,-75.5 855.5,-56.5 801.5,-56.5"/>
<text text-anchor="middle" x="828.5" y="-63.5" font-family="Helvetica,sans-Serif" font-size="10.00" fill="#000000">ciso646</text>
</g>
<!-- Node13&#45;&gt;Node19 -->
<g id="edge20" class="edge">
<title>Node13&#45;&gt;Node19</title>
<path fill="none" stroke="#191970" d="M725.8164,-112.3733C745.7216,-103.3838 775.6436,-89.8706 798.06,-79.7471"/>
<polygon fill="#191970" stroke="#191970" points="799.7887,-82.8068 807.4618,-75.5011 796.9075,-76.4272 799.7887,-82.8068"/>
</g>
<!-- Node15 -->
<g id="node16" class="node">
<title>Node15</title>
<polygon fill="none" stroke="#bfbfbf" points="476.5,-.5 476.5,-19.5 534.5,-19.5 534.5,-.5 476.5,-.5"/>
<text text-anchor="middle" x="505.5" y="-7.5" font-family="Helvetica,sans-Serif" font-size="10.00" fill="#000000">memory</text>
</g>
<!-- Node14&#45;&gt;Node15 -->
<g id="edge16" class="edge">
<title>Node14&#45;&gt;Node15</title>
<path fill="none" stroke="#191970" d="M569.0876,-56.2455C557.4943,-47.814 540.5252,-35.4729 527.0322,-25.6598"/>
<polygon fill="#191970" stroke="#191970" points="528.9047,-22.6938 518.7587,-19.6427 524.7874,-28.355 528.9047,-22.6938"/>
</g>
<!-- Node16 -->
<g id="node17" class="node">
<title>Node16</title>
<polygon fill="none" stroke="#bfbfbf" points="552.5,-.5 552.5,-19.5 626.5,-19.5 626.5,-.5 552.5,-.5"/>
<text text-anchor="middle" x="589.5" y="-7.5" font-family="Helvetica,sans-Serif" font-size="10.00" fill="#000000">forward_list</text>
</g>
<!-- Node14&#45;&gt;Node16 -->
<g id="edge17" class="edge">
<title>Node14&#45;&gt;Node16</title>
<path fill="none" stroke="#191970" d="M583.7193,-56.2455C584.6327,-48.9382 585.9132,-38.6944 587.0369,-29.7046"/>
<polygon fill="#191970" stroke="#191970" points="590.5272,-29.9996 588.2947,-19.6427 583.5813,-29.1313 590.5272,-29.9996"/>
</g>
<!-- Node20&#45;&gt;Node6 -->
<g id="edge24" class="edge">
<title>Node20&#45;&gt;Node6</title>
<path fill="none" stroke="#191970" d="M404.613,-112.3733C423.3103,-103.4241 451.3744,-89.9917 472.4934,-79.8835"/>
<polygon fill="#191970" stroke="#191970" points="474.1405,-82.9755 481.6494,-75.5011 471.1183,-76.6614 474.1405,-82.9755"/>
</g>
<!-- Node20&#45;&gt;Node8 -->
<g id="edge25" class="edge">
<title>Node20&#45;&gt;Node8</title>
<path fill="none" stroke="#191970" d="M367.6039,-112.2455C352.582,-103.5731 330.3957,-90.7645 313.179,-80.825"/>
<polygon fill="#191970" stroke="#191970" points="314.6128,-77.6114 304.2025,-75.6427 311.1129,-83.6737 314.6128,-77.6114"/>
</g>
<!-- Node20&#45;&gt;Node15 -->
<g id="edge22" class="edge">
<title>Node20&#45;&gt;Node15</title>
<path fill="none" stroke="#191970" d="M394.8164,-112.4509C415.4442,-93.3574 461.9943,-50.2697 487.6672,-26.5063"/>
<polygon fill="#191970" stroke="#191970" points="490.2485,-28.8864 495.2097,-19.5249 485.4935,-23.7492 490.2485,-28.8864"/>
</g>
<!-- Node21 -->
<g id="node22" class="node">
<title>Node21</title>
<polygon fill="none" stroke="#bfbfbf" points="346,-56.5 346,-75.5 423,-75.5 423,-56.5 346,-56.5"/>
<text text-anchor="middle" x="384.5" y="-63.5" font-family="Helvetica,sans-Serif" font-size="10.00" fill="#000000">SDL_mixer.h</text>
</g>
<!-- Node20&#45;&gt;Node21 -->
<g id="edge23" class="edge">
<title>Node20&#45;&gt;Node21</title>
<path fill="none" stroke="#191970" d="M384.5,-112.2455C384.5,-104.9382 384.5,-94.6944 384.5,-85.7046"/>
<polygon fill="#191970" stroke="#191970" points="388.0001,-85.6426 384.5,-75.6427 381.0001,-85.6427 388.0001,-85.6426"/>
</g>
<!-- Node22&#45;&gt;Node19 -->
<g id="edge32" class="edge">
<title>Node22&#45;&gt;Node19</title>
<path fill="none" stroke="#191970" d="M873.6464,-168.4367C852.7258,-161.8472 831.0148,-150.7332 818.5,-132 809.2789,-118.1972 813.5069,-99.1786 819.0209,-85.1018"/>
<polygon fill="#191970" stroke="#191970" points="822.2592,-86.4326 823.0893,-75.8704 815.8536,-83.6096 822.2592,-86.4326"/>
</g>
<!-- Node23 -->
<g id="node24" class="node">
<title>Node23</title>
<polygon fill="none" stroke="#bfbfbf" points="828,-112.5 828,-131.5 935,-131.5 935,-112.5 828,-112.5"/>
<text text-anchor="middle" x="881.5" y="-119.5" font-family="Helvetica,sans-Serif" font-size="10.00" fill="#000000">condition_variable</text>
</g>
<!-- Node22&#45;&gt;Node23 -->
<g id="edge27" class="edge">
<title>Node22&#45;&gt;Node23</title>
<path fill="none" stroke="#191970" d="M921.139,-168.2455C914.325,-160.2958 904.5319,-148.8706 896.3848,-139.3656"/>
<polygon fill="#191970" stroke="#191970" points="898.9305,-136.9575 889.7651,-131.6427 893.6157,-141.513 898.9305,-136.9575"/>
</g>
<!-- Node24 -->
<g id="node25" class="node">
<title>Node24</title>
<polygon fill="none" stroke="#bfbfbf" points="953.5,-112.5 953.5,-131.5 1001.5,-131.5 1001.5,-112.5 953.5,-112.5"/>
<text text-anchor="middle" x="977.5" y="-119.5" font-family="Helvetica,sans-Serif" font-size="10.00" fill="#000000">mutex</text>
</g>
<!-- Node22&#45;&gt;Node24 -->
<g id="edge28" class="edge">
<title>Node22&#45;&gt;Node24</title>
<path fill="none" stroke="#191970" d="M937.861,-168.2455C944.675,-160.2958 954.4681,-148.8706 962.6152,-139.3656"/>
<polygon fill="#191970" stroke="#191970" points="965.3843,-141.513 969.2349,-131.6427 960.0695,-136.9575 965.3843,-141.513"/>
</g>
<!-- Node25 -->
<g id="node26" class="node">
<title>Node25</title>
<polygon fill="none" stroke="#bfbfbf" points="1020,-112.5 1020,-131.5 1067,-131.5 1067,-112.5 1020,-112.5"/>
<text text-anchor="middle" x="1043.5" y="-119.5" font-family="Helvetica,sans-Serif" font-size="10.00" fill="#000000">deque</text>
</g>
<!-- Node22&#45;&gt;Node25 -->
<g id="edge29" class="edge">
<title>Node22&#45;&gt;Node25</title>
<path fill="none" stroke="#191970" d="M949.0973,-168.3733C967.2331,-159.4644 994.4135,-146.1127 1014.9587,-136.0203"/>
<polygon fill="#191970" stroke="#191970" points="1016.7261,-139.0517 1024.1584,-131.5011 1013.6397,-132.7688 1016.7261,-139.0517"/>
</g>
<!-- Node26 -->
<g id="node27" class="node">
<title>Node26</title>
<polygon fill="none" stroke="#bfbfbf" points="1085,-112.5 1085,-131.5 1132,-131.5 1132,-112.5 1085,-112.5"/>
<text text-anchor="middle" x="1108.5" y="-119.5" font-family="Helvetica,sans-Serif" font-size="10.00" fill="#000000">vector</text>
</g>
<!-- Node22&#45;&gt;Node26 -->
<g id="edge30" class="edge">
<title>Node22&#45;&gt;Node26</title>
<path fill="none" stroke="#191970" d="M960.2712,-168.3733C992.3391,-158.3408 1042.4166,-142.6741 1075.3444,-132.3727"/>
<polygon fill="#191970" stroke="#191970" points="1076.475,-135.6863 1084.9738,-129.3601 1074.3849,-129.0056 1076.475,-135.6863"/>
</g>
<!-- Node27 -->
<g id="node28" class="node">
<title>Node27</title>
<polygon fill="none" stroke="#bfbfbf" points="1150,-112.5 1150,-131.5 1215,-131.5 1215,-112.5 1150,-112.5"/>
<text text-anchor="middle" x="1182.5" y="-119.5" font-family="Helvetica,sans-Serif" font-size="10.00" fill="#000000">functional</text>
</g>
<!-- Node22&#45;&gt;Node27 -->
<g id="edge31" class="edge">
<title>Node22&#45;&gt;Node27</title>
<path fill="none" stroke="#191970" d="M975.0653,-168.4649C1015.865,-159.8481 1077.5837,-146.6197 1139.8494,-132.3441"/>
<polygon fill="#191970" stroke="#191970" points="1140.8836,-135.6977 1149.8442,-130.0445 1139.314,-128.8759 1140.8836,-135.6977"/>
</g>
<!-- Node29&#45;&gt;Node9 -->
<g id="edge35" class="edge">
<title>Node29&#45;&gt;Node9</title>
<path fill="none" stroke="#191970" d="M219.1992,-224.375C218.1402,-190.4851 214.5697,-76.2317 213.1198,-29.8332"/>
<polygon fill="#191970" stroke="#191970" points="216.6104,-29.4749 212.7997,-19.5891 209.6138,-29.6936 216.6104,-29.4749"/>
</g>
<!-- Node30 -->
<g id="node31" class="node">
<title>Node30</title>
<polygon fill="none" stroke="#bfbfbf" points="247.5,-168.5 247.5,-187.5 297.5,-187.5 297.5,-168.5 247.5,-168.5"/>
<text text-anchor="middle" x="272.5" y="-175.5" font-family="Helvetica,sans-Serif" font-size="10.00" fill="#000000">chrono</text>
</g>
<!-- Node29&#45;&gt;Node30 -->
<g id="edge36" class="edge">
<title>Node29&#45;&gt;Node30</title>
<path fill="none" stroke="#191970" d="M228.7319,-224.2455C236.3317,-216.2155 247.2877,-204.6394 256.3368,-195.0781"/>
<polygon fill="#191970" stroke="#191970" points="259.0421,-197.3115 263.3739,-187.6427 253.958,-192.4998 259.0421,-197.3115"/>
</g>
<!-- Node31 -->
<g id="node32" class="node">
<title>Node31</title>
<polygon fill="none" stroke="#bfbfbf" points="315.5,-168.5 315.5,-187.5 359.5,-187.5 359.5,-168.5 315.5,-168.5"/>
<text text-anchor="middle" x="337.5" y="-175.5" font-family="Helvetica,sans-Serif" font-size="10.00" fill="#000000">ctime</text>
</g>
<!-- Node29&#45;&gt;Node31 -->
<g id="edge37" class="edge">
<title>Node29&#45;&gt;Node31</title>
<path fill="none" stroke="#191970" d="M239.7849,-224.3733C258.6421,-215.4241 286.946,-201.9917 308.2455,-191.8835"/>
<polygon fill="#191970" stroke="#191970" points="309.9461,-194.9506 317.4798,-187.5011 306.9449,-188.6266 309.9461,-194.9506"/>
</g>
<!-- Node32 -->
<g id="node33" class="node">
<title>Node32</title>
<polygon fill="none" stroke="#bfbfbf" points="0,-168.5 0,-187.5 55,-187.5 55,-168.5 0,-168.5"/>
<text text-anchor="middle" x="27.5" y="-175.5" font-family="Helvetica,sans-Serif" font-size="10.00" fill="#000000">fstream</text>
</g>
<!-- Node29&#45;&gt;Node32 -->
<g id="edge38" class="edge">
<title>Node29&#45;&gt;Node32</title>
<path fill="none" stroke="#191970" d="M186.494,-224.3733C152.7296,-214.5253 100.3514,-199.2483 65.0301,-188.9463"/>
<polygon fill="#191970" stroke="#191970" points="65.6831,-185.491 55.1031,-186.0509 63.7231,-192.211 65.6831,-185.491"/>
</g>
<!-- Node33 -->
<g id="node34" class="node">
<title>Node33</title>
<polygon fill="none" stroke="#bfbfbf" points="73.5,-168.5 73.5,-187.5 129.5,-187.5 129.5,-168.5 73.5,-168.5"/>
<text text-anchor="middle" x="101.5" y="-175.5" font-family="Helvetica,sans-Serif" font-size="10.00" fill="#000000">sstream</text>
</g>
<!-- Node29&#45;&gt;Node33 -->
<g id="edge39" class="edge">
<title>Node29&#45;&gt;Node33</title>
<path fill="none" stroke="#191970" d="M199.2151,-224.3733C180.3579,-215.4241 152.054,-201.9917 130.7545,-191.8835"/>
<polygon fill="#191970" stroke="#191970" points="132.0551,-188.6266 121.5202,-187.5011 129.0539,-194.9506 132.0551,-188.6266"/>
</g>
<!-- Node34 -->
<g id="node35" class="node">
<title>Node34</title>
<polygon fill="none" stroke="#bfbfbf" points="147.5,-168.5 147.5,-187.5 191.5,-187.5 191.5,-168.5 147.5,-168.5"/>
<text text-anchor="middle" x="169.5" y="-175.5" font-family="Helvetica,sans-Serif" font-size="10.00" fill="#000000">SDL.h</text>
</g>
<!-- Node29&#45;&gt;Node34 -->
<g id="edge40" class="edge">
<title>Node29&#45;&gt;Node34</title>
<path fill="none" stroke="#191970" d="M210.7907,-224.2455C203.6927,-216.2958 193.4916,-204.8706 185.005,-195.3656"/>
<polygon fill="#191970" stroke="#191970" points="187.3805,-192.771 178.1095,-187.6427 182.1589,-197.4331 187.3805,-192.771"/>
</g>
</g>
</svg>
