<?xml version="1.0" encoding="UTF-8" standalone="no"?>
<!DOCTYPE svg PUBLIC "-//W3C//DTD SVG 1.1//EN"
 "http://www.w3.org/Graphics/SVG/1.1/DTD/svg11.dtd">
<!-- Generated by graphviz version 2.40.1 (20161225.0304)
 -->
<!-- Title: src/engine/ResourcesManager.hxx Pages: 1 -->
<svg width="475pt" height="196pt"
 viewBox="0.00 0.00 475.00 196.00" xmlns="http://www.w3.org/2000/svg" xmlns:xlink="http://www.w3.org/1999/xlink">
<g id="graph0" class="graph" transform="scale(1 1) rotate(0) translate(4 192)">
<title>src/engine/ResourcesManager.hxx</title>
<!-- Node0 -->
<g id="node1" class="node">
<title>Node0</title>
<polygon fill="#bfbfbf" stroke="#000000" points="19.5,-168.5 19.5,-187.5 201.5,-187.5 201.5,-168.5 19.5,-168.5"/>
<text text-anchor="middle" x="110.5" y="-175.5" font-family="Helvetica,sans-Serif" font-size="10.00" fill="#000000">src/engine/ResourcesManager.hxx</text>
</g>
<!-- Node1 -->
<g id="node2" class="node">
<title>Node1</title>
<polygon fill="none" stroke="#bfbfbf" points="3.5,-112.5 3.5,-131.5 63.5,-131.5 63.5,-112.5 3.5,-112.5"/>
<text text-anchor="middle" x="33.5" y="-119.5" font-family="Helvetica,sans-Serif" font-size="10.00" fill="#000000">iostream</text>
</g>
<!-- Node0&#45;&gt;Node1 -->
<g id="edge1" class="edge">
<title>Node0&#45;&gt;Node1</title>
<path fill="none" stroke="#191970" d="M97.0876,-168.2455C85.4943,-159.814 68.5252,-147.4729 55.0322,-137.6598"/>
<polygon fill="#191970" stroke="#191970" points="56.9047,-134.6938 46.7587,-131.6427 52.7874,-140.355 56.9047,-134.6938"/>
</g>
<!-- Node2 -->
<g id="node3" class="node">
<title>Node2</title>
<polygon fill="none" stroke="#bfbfbf" points="0,-56.5 0,-75.5 93,-75.5 93,-56.5 0,-56.5"/>
<text text-anchor="middle" x="46.5" y="-63.5" font-family="Helvetica,sans-Serif" font-size="10.00" fill="#000000">unordered_map</text>
</g>
<!-- Node0&#45;&gt;Node2 -->
<g id="edge2" class="edge">
<title>Node0&#45;&gt;Node2</title>
<path fill="none" stroke="#191970" d="M105.0434,-168.4509C94.4162,-149.8533 70.7811,-108.4919 57.0122,-84.3964"/>
<polygon fill="#191970" stroke="#191970" points="59.9431,-82.4708 51.9428,-75.5249 53.8654,-85.9438 59.9431,-82.4708"/>
</g>
<!-- Node3 -->
<g id="node4" class="node">
<title>Node3</title>
<polygon fill="none" stroke="#bfbfbf" points="111.5,-56.5 111.5,-75.5 155.5,-75.5 155.5,-56.5 111.5,-56.5"/>
<text text-anchor="middle" x="133.5" y="-63.5" font-family="Helvetica,sans-Serif" font-size="10.00" fill="#000000">SDL.h</text>
</g>
<!-- Node0&#45;&gt;Node3 -->
<g id="edge3" class="edge">
<title>Node0&#45;&gt;Node3</title>
<path fill="none" stroke="#191970" d="M112.461,-168.4509C116.2292,-150.1013 124.5483,-109.5908 129.5224,-85.3693"/>
<polygon fill="#191970" stroke="#191970" points="132.9608,-86.0246 131.544,-75.5249 126.1039,-84.6164 132.9608,-86.0246"/>
</g>
<!-- Node4 -->
<g id="node5" class="node">
<title>Node4</title>
<g id="a_node5"><a xlink:href="TileManager_8hxx.html" target="_top" xlink:title="TileManager.hxx">
<polygon fill="none" stroke="#000000" points="158,-112.5 158,-131.5 255,-131.5 255,-112.5 158,-112.5"/>
<text text-anchor="middle" x="206.5" y="-119.5" font-family="Helvetica,sans-Serif" font-size="10.00" fill="#000000">TileManager.hxx</text>
</a>
</g>
</g>
<!-- Node0&#45;&gt;Node4 -->
<g id="edge4" class="edge">
<title>Node0&#45;&gt;Node4</title>
<path fill="none" stroke="#191970" d="M127.2219,-168.2455C142.0889,-159.5731 164.0466,-146.7645 181.0858,-136.825"/>
<polygon fill="#191970" stroke="#191970" points="183.0955,-139.7047 189.9697,-131.6427 179.5683,-133.6582 183.0955,-139.7047"/>
</g>
<!-- Node4&#45;&gt;Node2 -->
<g id="edge6" class="edge">
<title>Node4&#45;&gt;Node2</title>
<path fill="none" stroke="#191970" d="M178.995,-112.3733C152.6198,-103.1419 112.6149,-89.1402 83.4642,-78.9375"/>
<polygon fill="#191970" stroke="#191970" points="84.2409,-75.5012 73.6461,-75.5011 81.9284,-82.1082 84.2409,-75.5012"/>
</g>
<!-- Node4&#45;&gt;Node3 -->
<g id="edge5" class="edge">
<title>Node4&#45;&gt;Node3</title>
<path fill="none" stroke="#191970" d="M193.7844,-112.2455C182.898,-103.8943 167.0117,-91.7076 154.28,-81.9408"/>
<polygon fill="#191970" stroke="#191970" points="156.1346,-78.9523 146.0699,-75.6427 151.8739,-84.5063 156.1346,-78.9523"/>
</g>
<!-- Node5 -->
<g id="node6" class="node">
<title>Node5</title>
<polygon fill="none" stroke="#bfbfbf" points="372.5,-.5 372.5,-19.5 416.5,-19.5 416.5,-.5 372.5,-.5"/>
<text text-anchor="middle" x="394.5" y="-7.5" font-family="Helvetica,sans-Serif" font-size="10.00" fill="#000000">string</text>
</g>
<!-- Node4&#45;&gt;Node5 -->
<g id="edge7" class="edge">
<title>Node4&#45;&gt;Node5</title>
<path fill="none" stroke="#191970" d="M255.2761,-112.721C282.7038,-105.8128 316.5401,-94.3309 342.5,-76 360.2904,-63.4378 375.0162,-43.0805 384.2012,-28.2928"/>
<polygon fill="#191970" stroke="#191970" points="387.3159,-29.9025 389.4134,-19.5173 381.2975,-26.3278 387.3159,-29.9025"/>
</g>
<!-- Node6 -->
<g id="node7" class="node">
<title>Node6</title>
<g id="a_node7"><a xlink:href="tileData_8hxx.html" target="_top" xlink:title="tileData.hxx">
<polygon fill="none" stroke="#000000" points="390,-56.5 390,-75.5 467,-75.5 467,-56.5 390,-56.5"/>
<text text-anchor="middle" x="428.5" y="-63.5" font-family="Helvetica,sans-Serif" font-size="10.00" fill="#000000">tileData.hxx</text>
</a>
</g>
</g>
<!-- Node4&#45;&gt;Node6 -->
<g id="edge8" class="edge">
<title>Node4&#45;&gt;Node6</title>
<path fill="none" stroke="#191970" d="M244.4109,-112.4369C282.165,-102.9133 340.2265,-88.2672 381.0264,-77.9753"/>
<polygon fill="#191970" stroke="#191970" points="381.9053,-81.3633 390.7454,-75.5237 380.1931,-74.576 381.9053,-81.3633"/>
</g>
<!-- Node7 -->
<g id="node8" class="node">
<title>Node7</title>
<polygon fill="none" stroke="#bfbfbf" points="173.5,-56.5 173.5,-75.5 231.5,-75.5 231.5,-56.5 173.5,-56.5"/>
<text text-anchor="middle" x="202.5" y="-63.5" font-family="Helvetica,sans-Serif" font-size="10.00" fill="#000000">json.hxx</text>
</g>
<!-- Node4&#45;&gt;Node7 -->
<g id="edge10" class="edge">
<title>Node4&#45;&gt;Node7</title>
<path fill="none" stroke="#191970" d="M205.8033,-112.2455C205.2813,-104.9382 204.5496,-94.6944 203.9075,-85.7046"/>
<polygon fill="#191970" stroke="#191970" points="207.3924,-85.3679 203.1888,-75.6427 200.4102,-85.8667 207.3924,-85.3679"/>
</g>
<!-- Node8 -->
<g id="node9" class="node">
<title>Node8</title>
<g id="a_node9"><a xlink:href="Singleton_8hxx.html" target="_top" xlink:title="Singleton.hxx">
<polygon fill="none" stroke="#000000" points="250,-56.5 250,-75.5 333,-75.5 333,-56.5 250,-56.5"/>
<text text-anchor="middle" x="291.5" y="-63.5" font-family="Helvetica,sans-Serif" font-size="10.00" fill="#000000">Singleton.hxx</text>
</a>
</g>
</g>
<!-- Node4&#45;&gt;Node8 -->
<g id="edge11" class="edge">
<title>Node4&#45;&gt;Node8</title>
<path fill="none" stroke="#191970" d="M221.3059,-112.2455C234.2256,-103.7337 253.1931,-91.2375 268.1552,-81.3801"/>
<polygon fill="#191970" stroke="#191970" points="270.4387,-84.067 276.8638,-75.6427 266.5876,-78.2216 270.4387,-84.067"/>
</g>
<!-- Node6&#45;&gt;Node5 -->
<g id="edge9" class="edge">
<title>Node6&#45;&gt;Node5</title>
<path fill="none" stroke="#191970" d="M422.5777,-56.2455C417.8973,-48.5367 411.2327,-37.5598 405.5711,-28.2348"/>
<polygon fill="#191970" stroke="#191970" points="408.5361,-26.3741 400.3545,-19.6427 402.5525,-30.007 408.5361,-26.3741"/>
</g>
</g>
</svg>
