<?xml version="1.0" encoding="UTF-8" standalone="no"?>
<!DOCTYPE svg PUBLIC "-//W3C//DTD SVG 1.1//EN"
 "http://www.w3.org/Graphics/SVG/1.1/DTD/svg11.dtd">
<!-- Generated by graphviz version 2.40.1 (20161225.0304)
 -->
<!-- Title: src/engine/ResourcesManager.cxx Pages: 1 -->
<!--zoomable 252 -->
<svg id="main" version="1.1" xmlns="http://www.w3.org/2000/svg" xmlns:xlink="http://www.w3.org/1999/xlink" xml:space="preserve" onload="init(evt)">
<style type="text/css"><![CDATA[
.edge:hover path { stroke: red; }
.edge:hover polygon { stroke: red; fill: red; }
]]></style>
<script type="text/javascript"><![CDATA[
var edges = document.getElementsByTagName('g');
if (edges && edges.length) {
  for (var i=0;i<edges.length;i++) {
    if (edges[i].id.substr(0,4)=='edge') {
      edges[i].setAttribute('class','edge');
    }
  }
}
]]></script>
        <defs>
                <circle id="rim" cx="0" cy="0" r="7"/>
                <circle id="rim2" cx="0" cy="0" r="3.5"/>
                <g id="zoomPlus">
                        <use xlink:href="#rim" fill="#404040">
                                <set attributeName="fill" to="#808080" begin="zoomplus.mouseover" end="zoomplus.mouseout"/>
                        </use>
                        <path d="M-4,0h8M0,-4v8" fill="none" stroke="white" stroke-width="1.5" pointer-events="none"/>
                </g>
                <g id="zoomMin">
                        <use xlink:href="#rim" fill="#404040">
                                <set attributeName="fill" to="#808080" begin="zoomminus.mouseover" end="zoomminus.mouseout"/>
                        </use>
                        <path d="M-4,0h8" fill="none" stroke="white" stroke-width="1.5" pointer-events="none"/>
                </g>
                <g id="dirArrow">
                        <path fill="none" stroke="white" stroke-width="1.5" d="M0,-3.0v7 M-2.5,-0.5L0,-3.0L2.5,-0.5"/>
                </g>
               <g id="resetDef">
                       <use xlink:href="#rim2" fill="#404040">
                               <set attributeName="fill" to="#808080" begin="reset.mouseover" end="reset.mouseout"/>
                       </use>
               </g>
        </defs>

<script type="text/javascript">
var viewWidth = 1189;
var viewHeight = 252;
var sectionId = 'dynsection-0';
</script>
<script xlink:href="svgpan.js"/>
<svg id="graph" class="graph">
<g id="viewport">
<title>src/engine/ResourcesManager.cxx</title>
<!-- Node0 -->
<g id="node1" class="node">
<title>Node0</title>
<polygon fill="#bfbfbf" stroke="#000000" points="421.5,-224.5 421.5,-243.5 602.5,-243.5 602.5,-224.5 421.5,-224.5"/>
<text text-anchor="middle" x="512" y="-231.5" font-family="Helvetica,sans-Serif" font-size="10.00" fill="#000000">src/engine/ResourcesManager.cxx</text>
</g>
<!-- Node1 -->
<g id="node2" class="node">
<title>Node1</title>
<g id="a_node2"><a xlink:href="ResourcesManager_8hxx.html" target="_top" xlink:title="ResourcesManager.hxx">
<polygon fill="none" stroke="#000000" points="356,-168.5 356,-187.5 484,-187.5 484,-168.5 356,-168.5"/>
<text text-anchor="middle" x="420" y="-175.5" font-family="Helvetica,sans-Serif" font-size="10.00" fill="#000000">ResourcesManager.hxx</text>
</a>
</g>
</g>
<!-- Node0&#45;&gt;Node1 -->
<g id="edge1" class="edge">
<title>Node0&#45;&gt;Node1</title>
<path fill="none" stroke="#191970" d="M495.9748,-224.2455C481.8592,-215.6534 461.0737,-203.0014 444.8101,-193.1018"/>
<polygon fill="#191970" stroke="#191970" points="446.2034,-189.8525 435.8415,-187.6427 442.5637,-195.8319 446.2034,-189.8525"/>
</g>
<!-- Node5 -->
<g id="node6" class="node">
<title>Node5</title>
<g id="a_node6"><a xlink:href="TileManager_8hxx.html" target="_top" xlink:title="TileManager.hxx">
<polygon fill="none" stroke="#000000" points="208.5,-112.5 208.5,-131.5 305.5,-131.5 305.5,-112.5 208.5,-112.5"/>
<text text-anchor="middle" x="257" y="-119.5" font-family="Helvetica,sans-Serif" font-size="10.00" fill="#000000">TileManager.hxx</text>
</a>
</g>
</g>
<!-- Node0&#45;&gt;Node5 -->
<g id="edge19" class="edge">
<title>Node0&#45;&gt;Node5</title>
<path fill="none" stroke="#191970" d="M459.7169,-224.4822C426.3696,-217.2031 382.8419,-205.4161 347,-188 319.8919,-174.8278 292.4993,-153.2964 275.1758,-138.427"/>
<polygon fill="#191970" stroke="#191970" points="277.3549,-135.683 267.5257,-131.7285 272.7435,-140.9494 277.3549,-135.683"/>
</g>
<!-- Node8 -->
<g id="node9" class="node">
<title>Node8</title>
<polygon fill="none" stroke="#bfbfbf" points="0,-56.5 0,-75.5 58,-75.5 58,-56.5 0,-56.5"/>
<text text-anchor="middle" x="29" y="-63.5" font-family="Helvetica,sans-Serif" font-size="10.00" fill="#000000">json.hxx</text>
</g>
<!-- Node0&#45;&gt;Node8 -->
<g id="edge37" class="edge">
<title>Node0&#45;&gt;Node8</title>
<path fill="none" stroke="#191970" d="M458.6492,-224.4607C417.9431,-216.529 360.7564,-203.9706 312,-188 215.7128,-156.4602 107.0173,-104.8219 56.9622,-80.0801"/>
<polygon fill="#191970" stroke="#191970" points="58.2669,-76.8201 47.7541,-75.5042 55.1517,-83.0888 58.2669,-76.8201"/>
</g>
<!-- Node10 -->
<g id="node11" class="node">
<title>Node10</title>
<g id="a_node11"><a xlink:href="WindowManager_8hxx.html" target="_top" xlink:title="WindowManager.hxx">
<polygon fill="none" stroke="#000000" points="452,-112.5 452,-131.5 570,-131.5 570,-112.5 452,-112.5"/>
<text text-anchor="middle" x="511" y="-119.5" font-family="Helvetica,sans-Serif" font-size="10.00" fill="#000000">WindowManager.hxx</text>
</a>
</g>
</g>
<!-- Node0&#45;&gt;Node10 -->
<g id="edge13" class="edge">
<title>Node0&#45;&gt;Node10</title>
<path fill="none" stroke="#191970" d="M511.9147,-224.4509C511.7516,-206.184 511.3925,-165.9553 511.1759,-141.6976"/>
<polygon fill="#191970" stroke="#191970" points="514.6743,-141.4932 511.085,-131.5249 507.6746,-141.5558 514.6743,-141.4932"/>
</g>
<!-- Node12 -->
<g id="node13" class="node">
<title>Node12</title>
<g id="a_node13"><a xlink:href="Settings_8hxx.html" target="_top" xlink:title="basics/Settings.hxx">
<polygon fill="none" stroke="#000000" points="541.5,-168.5 541.5,-187.5 652.5,-187.5 652.5,-168.5 541.5,-168.5"/>
<text text-anchor="middle" x="597" y="-175.5" font-family="Helvetica,sans-Serif" font-size="10.00" fill="#000000">basics/Settings.hxx</text>
</a>
</g>
</g>
<!-- Node0&#45;&gt;Node12 -->
<g id="edge20" class="edge">
<title>Node0&#45;&gt;Node12</title>
<path fill="none" stroke="#191970" d="M526.8059,-224.2455C539.7256,-215.7337 558.6931,-203.2375 573.6552,-193.3801"/>
<polygon fill="#191970" stroke="#191970" points="575.9387,-196.067 582.3638,-187.6427 572.0876,-190.2216 575.9387,-196.067"/>
</g>
<!-- Node18 -->
<g id="node19" class="node">
<title>Node18</title>
<g id="a_node19"><a xlink:href="LOG_8hxx.html" target="_top" xlink:title="basics/LOG.hxx">
<polygon fill="none" stroke="#000000" points="903,-112.5 903,-131.5 995,-131.5 995,-112.5 903,-112.5"/>
<text text-anchor="middle" x="949" y="-119.5" font-family="Helvetica,sans-Serif" font-size="10.00" fill="#000000">basics/LOG.hxx</text>
</a>
</g>
</g>
<!-- Node0&#45;&gt;Node18 -->
<g id="edge29" class="edge">
<title>Node0&#45;&gt;Node18</title>
<path fill="none" stroke="#191970" d="M549.058,-224.4978C579.5911,-216.2106 623.7648,-203.16 661,-188 679.0416,-180.6545 681.5605,-174.2803 700,-168 764.0418,-146.1881 841.0721,-133.977 892.3302,-127.7061"/>
<polygon fill="#191970" stroke="#191970" points="893.0269,-131.1481 902.5445,-126.4934 892.2016,-124.1969 893.0269,-131.1481"/>
</g>
<!-- Node23 -->
<g id="node24" class="node">
<title>Node23</title>
<polygon fill="none" stroke="#bfbfbf" points="709,-168.5 709,-187.5 789,-187.5 789,-168.5 709,-168.5"/>
<text text-anchor="middle" x="749" y="-175.5" font-family="Helvetica,sans-Serif" font-size="10.00" fill="#000000">SDL_image.h</text>
</g>
<!-- Node0&#45;&gt;Node23 -->
<g id="edge36" class="edge">
<title>Node0&#45;&gt;Node23</title>
<path fill="none" stroke="#191970" d="M552.4725,-224.4369C592.948,-214.8731 655.2867,-200.1432 698.8703,-189.845"/>
<polygon fill="#191970" stroke="#191970" points="699.7673,-193.2295 708.6945,-187.5237 698.1576,-186.4171 699.7673,-193.2295"/>
</g>
<!-- Node2 -->
<g id="node3" class="node">
<title>Node2</title>
<polygon fill="none" stroke="#bfbfbf" points="627,-56.5 627,-75.5 687,-75.5 687,-56.5 627,-56.5"/>
<text text-anchor="middle" x="657" y="-63.5" font-family="Helvetica,sans-Serif" font-size="10.00" fill="#000000">iostream</text>
</g>
<!-- Node1&#45;&gt;Node2 -->
<g id="edge2" class="edge">
<title>Node1&#45;&gt;Node2</title>
<path fill="none" stroke="#191970" d="M473.3397,-168.4446C505.2738,-161.3206 545.9462,-149.7129 579,-132 603.0102,-119.1334 626.2815,-97.9546 641.0609,-83.0654"/>
<polygon fill="#191970" stroke="#191970" points="643.9103,-85.1539 648.3488,-75.5335 638.8798,-80.2863 643.9103,-85.1539"/>
</g>
<!-- Node3 -->
<g id="node4" class="node">
<title>Node3</title>
<polygon fill="none" stroke="#bfbfbf" points="210.5,-56.5 210.5,-75.5 303.5,-75.5 303.5,-56.5 210.5,-56.5"/>
<text text-anchor="middle" x="257" y="-63.5" font-family="Helvetica,sans-Serif" font-size="10.00" fill="#000000">unordered_map</text>
</g>
<!-- Node1&#45;&gt;Node3 -->
<g id="edge3" class="edge">
<title>Node1&#45;&gt;Node3</title>
<path fill="none" stroke="#191970" d="M406.1027,-168.4509C377.8336,-149.0268 313.4247,-104.7703 279.2517,-81.2895"/>
<polygon fill="#191970" stroke="#191970" points="281.0861,-78.3034 270.8621,-75.5249 277.1219,-84.0727 281.0861,-78.3034"/>
</g>
<!-- Node4 -->
<g id="node5" class="node">
<title>Node4</title>
<polygon fill="none" stroke="#bfbfbf" points="423,-56.5 423,-75.5 467,-75.5 467,-56.5 423,-56.5"/>
<text text-anchor="middle" x="445" y="-63.5" font-family="Helvetica,sans-Serif" font-size="10.00" fill="#000000">SDL.h</text>
</g>
<!-- Node1&#45;&gt;Node4 -->
<g id="edge4" class="edge">
<title>Node1&#45;&gt;Node4</title>
<path fill="none" stroke="#191970" d="M422.1315,-168.4509C426.2274,-150.1013 435.2699,-109.5908 440.6765,-85.3693"/>
<polygon fill="#191970" stroke="#191970" points="444.1112,-86.0472 442.8739,-75.5249 437.2794,-84.5222 444.1112,-86.0472"/>
</g>
<!-- Node1&#45;&gt;Node5 -->
<g id="edge5" class="edge">
<title>Node1&#45;&gt;Node5</title>
<path fill="none" stroke="#191970" d="M391.9793,-168.3733C364.9922,-159.1016 323.9983,-145.0178 294.2689,-134.804"/>
<polygon fill="#191970" stroke="#191970" points="295.2497,-131.4403 284.6551,-131.5011 292.9752,-138.0605 295.2497,-131.4403"/>
</g>
<!-- Node5&#45;&gt;Node3 -->
<g id="edge7" class="edge">
<title>Node5&#45;&gt;Node3</title>
<path fill="none" stroke="#191970" d="M257,-112.2455C257,-104.9382 257,-94.6944 257,-85.7046"/>
<polygon fill="#191970" stroke="#191970" points="260.5001,-85.6426 257,-75.6427 253.5001,-85.6427 260.5001,-85.6426"/>
</g>
<!-- Node5&#45;&gt;Node4 -->
<g id="edge6" class="edge">
<title>Node5&#45;&gt;Node4</title>
<path fill="none" stroke="#191970" d="M289.9146,-112.4617C321.5184,-103.2638 370.5817,-88.8809 413,-76 413.1009,-75.9693 413.2021,-75.9386 413.3034,-75.9078"/>
<polygon fill="#191970" stroke="#191970" points="414.4508,-79.2168 422.9805,-72.9323 412.3934,-72.526 414.4508,-79.2168"/>
</g>
<!-- Node6 -->
<g id="node7" class="node">
<title>Node6</title>
<polygon fill="none" stroke="#bfbfbf" points="316,-.5 316,-19.5 360,-19.5 360,-.5 316,-.5"/>
<text text-anchor="middle" x="338" y="-7.5" font-family="Helvetica,sans-Serif" font-size="10.00" fill="#000000">string</text>
</g>
<!-- Node5&#45;&gt;Node6 -->
<g id="edge8" class="edge">
<title>Node5&#45;&gt;Node6</title>
<path fill="none" stroke="#191970" d="M238.371,-112.3414C216.7324,-99.8271 185.8224,-77.1064 201,-56 213.3986,-38.7581 269.3091,-24.2041 305.762,-16.3229"/>
<polygon fill="#191970" stroke="#191970" points="306.8606,-19.6686 315.9277,-14.1879 305.4218,-12.8181 306.8606,-19.6686"/>
</g>
<!-- Node7 -->
<g id="node8" class="node">
<title>Node7</title>
<g id="a_node8"><a xlink:href="tileData_8hxx.html" target="_top" xlink:title="tileData.hxx">
<polygon fill="none" stroke="#000000" points="76.5,-56.5 76.5,-75.5 153.5,-75.5 153.5,-56.5 76.5,-56.5"/>
<text text-anchor="middle" x="115" y="-63.5" font-family="Helvetica,sans-Serif" font-size="10.00" fill="#000000">tileData.hxx</text>
</a>
</g>
</g>
<!-- Node5&#45;&gt;Node7 -->
<g id="edge9" class="edge">
<title>Node5&#45;&gt;Node7</title>
<path fill="none" stroke="#191970" d="M232.5893,-112.3733C209.3858,-103.2226 174.2962,-89.3844 148.4858,-79.2057"/>
<polygon fill="#191970" stroke="#191970" points="149.6789,-75.9139 139.0921,-75.5011 147.1108,-82.4258 149.6789,-75.9139"/>
</g>
<!-- Node5&#45;&gt;Node8 -->
<g id="edge11" class="edge">
<title>Node5&#45;&gt;Node8</title>
<path fill="none" stroke="#191970" d="M216.5425,-112.4501C180.1438,-103.8035 124.9465,-90.5565 67.9395,-76.2042"/>
<polygon fill="#191970" stroke="#191970" points="68.5834,-72.757 58.0308,-73.7029 66.87,-79.5441 68.5834,-72.757"/>
</g>
<!-- Node9 -->
<g id="node10" class="node">
<title>Node9</title>
<g id="a_node10"><a xlink:href="Singleton_8hxx.html" target="_top" xlink:title="Singleton.hxx">
<polygon fill="none" stroke="#000000" points="321.5,-56.5 321.5,-75.5 404.5,-75.5 404.5,-56.5 321.5,-56.5"/>
<text text-anchor="middle" x="363" y="-63.5" font-family="Helvetica,sans-Serif" font-size="10.00" fill="#000000">Singleton.hxx</text>
</a>
</g>
</g>
<!-- Node5&#45;&gt;Node9 -->
<g id="edge12" class="edge">
<title>Node5&#45;&gt;Node9</title>
<path fill="none" stroke="#191970" d="M275.4638,-112.2455C292.1074,-103.4527 316.7993,-90.4079 335.7192,-80.4125"/>
<polygon fill="#191970" stroke="#191970" points="337.5408,-83.4086 344.7478,-75.6427 334.2709,-77.2193 337.5408,-83.4086"/>
</g>
<!-- Node7&#45;&gt;Node6 -->
<g id="edge10" class="edge">
<title>Node7&#45;&gt;Node6</title>
<path fill="none" stroke="#191970" d="M153.0817,-56.4369C196.224,-45.6029 265.7649,-28.1398 306.1467,-17.999"/>
<polygon fill="#191970" stroke="#191970" points="307.1464,-21.3567 315.9928,-15.5265 305.4415,-14.5675 307.1464,-21.3567"/>
</g>
<!-- Node10&#45;&gt;Node2 -->
<g id="edge15" class="edge">
<title>Node10&#45;&gt;Node2</title>
<path fill="none" stroke="#191970" d="M536.0983,-112.3733C559.9555,-103.2226 596.0335,-89.3844 622.571,-79.2057"/>
<polygon fill="#191970" stroke="#191970" points="624.1459,-82.3503 632.2292,-75.5011 621.639,-75.8145 624.1459,-82.3503"/>
</g>
<!-- Node10&#45;&gt;Node4 -->
<g id="edge17" class="edge">
<title>Node10&#45;&gt;Node4</title>
<path fill="none" stroke="#191970" d="M499.5037,-112.2455C489.7558,-103.9746 475.5741,-91.9416 464.1202,-82.2232"/>
<polygon fill="#191970" stroke="#191970" points="466.2541,-79.4437 456.3646,-75.6427 461.7253,-84.7813 466.2541,-79.4437"/>
</g>
<!-- Node10&#45;&gt;Node6 -->
<g id="edge14" class="edge">
<title>Node10&#45;&gt;Node6</title>
<path fill="none" stroke="#191970" d="M508.4334,-112.467C504.1059,-98.1758 494.0164,-71.2514 476,-56 445.6536,-30.3109 400.4393,-18.8211 370.1217,-13.7817"/>
<polygon fill="#191970" stroke="#191970" points="370.4801,-10.296 360.0681,-12.2555 369.4295,-17.2168 370.4801,-10.296"/>
</g>
<!-- Node10&#45;&gt;Node9 -->
<g id="edge18" class="edge">
<title>Node10&#45;&gt;Node9</title>
<path fill="none" stroke="#191970" d="M485.5579,-112.3733C461.2674,-103.1822 424.4792,-89.2624 397.5457,-79.0713"/>
<polygon fill="#191970" stroke="#191970" points="398.7016,-75.7666 388.1101,-75.5011 396.2243,-82.3136 398.7016,-75.7666"/>
</g>
<!-- Node11 -->
<g id="node12" class="node">
<title>Node11</title>
<polygon fill="none" stroke="#bfbfbf" points="523.5,-56.5 523.5,-75.5 570.5,-75.5 570.5,-56.5 523.5,-56.5"/>
<text text-anchor="middle" x="547" y="-63.5" font-family="Helvetica,sans-Serif" font-size="10.00" fill="#000000">vector</text>
</g>
<!-- Node10&#45;&gt;Node11 -->
<g id="edge16" class="edge">
<title>Node10&#45;&gt;Node11</title>
<path fill="none" stroke="#191970" d="M517.2707,-112.2455C522.2264,-104.5367 529.283,-93.5598 535.2776,-84.2348"/>
<polygon fill="#191970" stroke="#191970" points="538.3376,-85.9471 540.8011,-75.6427 532.4494,-82.1618 538.3376,-85.9471"/>
</g>
<!-- Node12&#45;&gt;Node6 -->
<g id="edge21" class="edge">
<title>Node12&#45;&gt;Node6</title>
<path fill="none" stroke="#191970" d="M598.9304,-168.1722C602.8339,-145.1297 608.9301,-87.2181 579,-56 550.6935,-26.4755 429.2284,-15.3609 370.3069,-11.6503"/>
<polygon fill="#191970" stroke="#191970" points="370.2597,-8.1414 360.0694,-11.0408 369.8437,-15.129 370.2597,-8.1414"/>
</g>
<!-- Node12&#45;&gt;Node9 -->
<g id="edge22" class="edge">
<title>Node12&#45;&gt;Node9</title>
<path fill="none" stroke="#191970" d="M547.1864,-168.4435C516.0316,-161.2004 475.7441,-149.4667 443,-132 418.649,-119.0104 394.778,-97.9145 379.5421,-83.0765"/>
<polygon fill="#191970" stroke="#191970" points="381.9589,-80.5437 372.4051,-75.9637 377.0176,-85.5019 381.9589,-80.5437"/>
</g>
<!-- Node13 -->
<g id="node14" class="node">
<title>Node13</title>
<g id="a_node14"><a xlink:href="Meta_8hxx.html" target="_top" xlink:title="../../util/Meta.hxx">
<polygon fill="none" stroke="#000000" points="674,-112.5 674,-131.5 772,-131.5 772,-112.5 674,-112.5"/>
<text text-anchor="middle" x="723" y="-119.5" font-family="Helvetica,sans-Serif" font-size="10.00" fill="#000000">../../util/Meta.hxx</text>
</a>
</g>
</g>
<!-- Node12&#45;&gt;Node13 -->
<g id="edge23" class="edge">
<title>Node12&#45;&gt;Node13</title>
<path fill="none" stroke="#191970" d="M618.6602,-168.3733C638.9772,-159.3435 669.564,-145.7494 692.375,-135.6111"/>
<polygon fill="#191970" stroke="#191970" points="693.9059,-138.7609 701.6225,-131.5011 691.0628,-132.3642 693.9059,-138.7609"/>
</g>
<!-- Node17 -->
<g id="node18" class="node">
<title>Node17</title>
<polygon fill="none" stroke="#bfbfbf" points="790.5,-112.5 790.5,-131.5 843.5,-131.5 843.5,-112.5 790.5,-112.5"/>
<text text-anchor="middle" x="817" y="-119.5" font-family="Helvetica,sans-Serif" font-size="10.00" fill="#000000">cstddef</text>
</g>
<!-- Node12&#45;&gt;Node17 -->
<g id="edge28" class="edge">
<title>Node12&#45;&gt;Node17</title>
<path fill="none" stroke="#191970" d="M636.5581,-168.4252C671.7578,-159.835 724.888,-146.6982 780.2851,-132.1409"/>
<polygon fill="#191970" stroke="#191970" points="781.5076,-135.4382 790.2846,-129.504 779.7227,-128.6696 781.5076,-135.4382"/>
</g>
<!-- Node13&#45;&gt;Node2 -->
<g id="edge24" class="edge">
<title>Node13&#45;&gt;Node2</title>
<path fill="none" stroke="#191970" d="M711.5037,-112.2455C701.7558,-103.9746 687.5741,-91.9416 676.1202,-82.2232"/>
<polygon fill="#191970" stroke="#191970" points="678.2541,-79.4437 668.3646,-75.6427 673.7253,-84.7813 678.2541,-79.4437"/>
</g>
<!-- Node14 -->
<g id="node15" class="node">
<title>Node14</title>
<polygon fill="none" stroke="#bfbfbf" points="833.5,-56.5 833.5,-75.5 902.5,-75.5 902.5,-56.5 833.5,-56.5"/>
<text text-anchor="middle" x="868" y="-63.5" font-family="Helvetica,sans-Serif" font-size="10.00" fill="#000000">type_traits</text>
</g>
<!-- Node13&#45;&gt;Node14 -->
<g id="edge25" class="edge">
<title>Node13&#45;&gt;Node14</title>
<path fill="none" stroke="#191970" d="M747.9264,-112.3733C771.6202,-103.2226 807.4511,-89.3844 833.8068,-79.2057"/>
<polygon fill="#191970" stroke="#191970" points="835.3314,-82.3689 843.3989,-75.5011 832.8094,-75.8389 835.3314,-82.3689"/>
</g>
<!-- Node15 -->
<g id="node16" class="node">
<title>Node15</title>
<polygon fill="none" stroke="#bfbfbf" points="705.5,-56.5 705.5,-75.5 756.5,-75.5 756.5,-56.5 705.5,-56.5"/>
<text text-anchor="middle" x="731" y="-63.5" font-family="Helvetica,sans-Serif" font-size="10.00" fill="#000000">variant</text>
</g>
<!-- Node13&#45;&gt;Node15 -->
<g id="edge26" class="edge">
<title>Node13&#45;&gt;Node15</title>
<path fill="none" stroke="#191970" d="M724.3935,-112.2455C725.4374,-104.9382 726.9008,-94.6944 728.1851,-85.7046"/>
<polygon fill="#191970" stroke="#191970" points="731.673,-86.0372 729.6225,-75.6427 724.7434,-85.0472 731.673,-86.0372"/>
</g>
<!-- Node16 -->
<g id="node17" class="node">
<title>Node16</title>
<polygon fill="none" stroke="#bfbfbf" points="774.5,-56.5 774.5,-75.5 815.5,-75.5 815.5,-56.5 774.5,-56.5"/>
<text text-anchor="middle" x="795" y="-63.5" font-family="Helvetica,sans-Serif" font-size="10.00" fill="#000000">tuple</text>
</g>
<!-- Node13&#45;&gt;Node16 -->
<g id="edge27" class="edge">
<title>Node13&#45;&gt;Node16</title>
<path fill="none" stroke="#191970" d="M735.5414,-112.2455C746.2787,-103.8943 761.9473,-91.7076 774.5047,-81.9408"/>
<polygon fill="#191970" stroke="#191970" points="776.8575,-84.5449 782.6023,-75.6427 772.5599,-79.0194 776.8575,-84.5449"/>
</g>
<!-- Node18&#45;&gt;Node2 -->
<g id="edge30" class="edge">
<title>Node18&#45;&gt;Node2</title>
<path fill="none" stroke="#191970" d="M902.8394,-114.4918C852.1697,-106.0368 768.5083,-91.4483 697,-76 696.8994,-75.9783 696.7987,-75.9565 696.6979,-75.9346"/>
<polygon fill="#191970" stroke="#191970" points="697.6202,-72.5552 687.0923,-73.7438 696.0636,-79.3799 697.6202,-72.5552"/>
</g>
<!-- Node18&#45;&gt;Node4 -->
<g id="edge35" class="edge">
<title>Node18&#45;&gt;Node4</title>
<path fill="none" stroke="#191970" d="M902.845,-117.1677C794.7992,-105.849 533.0972,-78.3927 514,-76 501.9539,-74.4907 488.7556,-72.6291 477.1569,-70.923"/>
<polygon fill="#191970" stroke="#191970" points="477.4405,-67.4266 467.0337,-69.4143 476.4086,-74.3502 477.4405,-67.4266"/>
</g>
<!-- Node19 -->
<g id="node20" class="node">
<title>Node19</title>
<polygon fill="none" stroke="#bfbfbf" points="995,-56.5 995,-75.5 1045,-75.5 1045,-56.5 995,-56.5"/>
<text text-anchor="middle" x="1020" y="-63.5" font-family="Helvetica,sans-Serif" font-size="10.00" fill="#000000">chrono</text>
</g>
<!-- Node18&#45;&gt;Node19 -->
<g id="edge31" class="edge">
<title>Node18&#45;&gt;Node19</title>
<path fill="none" stroke="#191970" d="M961.3673,-112.2455C971.9554,-103.8943 987.4064,-91.7076 999.7893,-81.9408"/>
<polygon fill="#191970" stroke="#191970" points="1002.0903,-84.5837 1007.7745,-75.6427 997.7553,-79.0875 1002.0903,-84.5837"/>
</g>
<!-- Node20 -->
<g id="node21" class="node">
<title>Node20</title>
<polygon fill="none" stroke="#bfbfbf" points="1063,-56.5 1063,-75.5 1107,-75.5 1107,-56.5 1063,-56.5"/>
<text text-anchor="middle" x="1085" y="-63.5" font-family="Helvetica,sans-Serif" font-size="10.00" fill="#000000">ctime</text>
</g>
<!-- Node18&#45;&gt;Node20 -->
<g id="edge32" class="edge">
<title>Node18&#45;&gt;Node20</title>
<path fill="none" stroke="#191970" d="M972.3792,-112.3733C994.7727,-103.1524 1028.725,-89.1721 1053.4958,-78.9723"/>
<polygon fill="#191970" stroke="#191970" points="1054.9123,-82.1742 1062.8264,-75.1303 1052.247,-75.7015 1054.9123,-82.1742"/>
</g>
<!-- Node21 -->
<g id="node22" class="node">
<title>Node21</title>
<polygon fill="none" stroke="#bfbfbf" points="1125.5,-56.5 1125.5,-75.5 1180.5,-75.5 1180.5,-56.5 1125.5,-56.5"/>
<text text-anchor="middle" x="1153" y="-63.5" font-family="Helvetica,sans-Serif" font-size="10.00" fill="#000000">fstream</text>
</g>
<!-- Node18&#45;&gt;Node21 -->
<g id="edge33" class="edge">
<title>Node18&#45;&gt;Node21</title>
<path fill="none" stroke="#191970" d="M984.0689,-112.3733C1020.6182,-102.3401 1077.6955,-86.6718 1115.2219,-76.3704"/>
<polygon fill="#191970" stroke="#191970" points="1116.5378,-79.6388 1125.2546,-73.6164 1114.6848,-72.8885 1116.5378,-79.6388"/>
</g>
<!-- Node22 -->
<g id="node23" class="node">
<title>Node22</title>
<polygon fill="none" stroke="#bfbfbf" points="921,-56.5 921,-75.5 977,-75.5 977,-56.5 921,-56.5"/>
<text text-anchor="middle" x="949" y="-63.5" font-family="Helvetica,sans-Serif" font-size="10.00" fill="#000000">sstream</text>
</g>
<!-- Node18&#45;&gt;Node22 -->
<g id="edge34" class="edge">
<title>Node18&#45;&gt;Node22</title>
<path fill="none" stroke="#191970" d="M949,-112.2455C949,-104.9382 949,-94.6944 949,-85.7046"/>
<polygon fill="#191970" stroke="#191970" points="952.5001,-85.6426 949,-75.6427 945.5001,-85.6427 952.5001,-85.6426"/>
</g>
</g>
</svg>
        <g id="navigator" transform="translate(0 0)" fill="#404254">
                <rect fill="#f2f5e9" fill-opacity="0.5" stroke="#606060" stroke-width=".5" x="0" y="0" width="60" height="60"/>
                <use id="zoomplus" xlink:href="#zoomPlus" x="17" y="9" onmousedown="handleZoom(evt,'in')"/>
                <use id="zoomminus" xlink:href="#zoomMin" x="42" y="9" onmousedown="handleZoom(evt,'out')"/>
                <use id="reset" xlink:href="#resetDef" x="30" y="36" onmousedown="handleReset()"/>
                <g id="arrowUp" xlink:href="#dirArrow" transform="translate(30 24)" onmousedown="handlePan(0,-1)">
                  <use xlink:href="#rim" fill="#404040">
                        <set attributeName="fill" to="#808080" begin="arrowUp.mouseover" end="arrowUp.mouseout"/>
                  </use>
                  <path fill="none" stroke="white" stroke-width="1.5" d="M0,-3.0v7 M-2.5,-0.5L0,-3.0L2.5,-0.5"/>
                </g>
                <g id="arrowRight" xlink:href="#dirArrow" transform="rotate(90) translate(36 -43)" onmousedown="handlePan(1,0)">
                  <use xlink:href="#rim" fill="#404040">
                        <set attributeName="fill" to="#808080" begin="arrowRight.mouseover" end="arrowRight.mouseout"/>
                  </use>
                  <path fill="none" stroke="white" stroke-width="1.5" d="M0,-3.0v7 M-2.5,-0.5L0,-3.0L2.5,-0.5"/>
                </g>
                <g id="arrowDown" xlink:href="#dirArrow" transform="rotate(180) translate(-30 -48)" onmousedown="handlePan(0,1)">
                  <use xlink:href="#rim" fill="#404040">
                        <set attributeName="fill" to="#808080" begin="arrowDown.mouseover" end="arrowDown.mouseout"/>
                  </use>
                  <path fill="none" stroke="white" stroke-width="1.5" d="M0,-3.0v7 M-2.5,-0.5L0,-3.0L2.5,-0.5"/>
                </g>
                <g id="arrowLeft" xlink:href="#dirArrow" transform="rotate(270) translate(-36 17)" onmousedown="handlePan(-1,0)">
                  <use xlink:href="#rim" fill="#404040">
                        <set attributeName="fill" to="#808080" begin="arrowLeft.mouseover" end="arrowLeft.mouseout"/>
                  </use>
                  <path fill="none" stroke="white" stroke-width="1.5" d="M0,-3.0v7 M-2.5,-0.5L0,-3.0L2.5,-0.5"/>
                </g>
        </g>
        <svg viewBox="0 0 15 15" width="100%" height="30px" preserveAspectRatio="xMaxYMin meet">
         <g id="arrow_out" transform="scale(0.3 0.3)">
          <a xlink:href="ResourcesManager_8cxx__incl_org.svg" target="_base">
           <rect id="button" ry="5" rx="5" y="6" x="6" height="38" width="38"
                fill="#f2f5e9" fill-opacity="0.5" stroke="#606060" stroke-width="1.0"/>
           <path id="arrow"
             d="M 11.500037,31.436501 C 11.940474,20.09759 22.043105,11.32322 32.158766,21.979434 L 37.068811,17.246167 C 37.068811,17.246167 37.088388,32 37.088388,32 L 22.160133,31.978069 C 22.160133,31.978069 26.997745,27.140456 26.997745,27.140456 C 18.528582,18.264221 13.291696,25.230495 11.500037,31.436501 z"
             style="fill:#404040;"/>
          </a>
         </g>
        </svg>
</svg>
