<?xml version="1.0" encoding="UTF-8" standalone="no"?>
<!DOCTYPE svg PUBLIC "-//W3C//DTD SVG 1.1//EN"
 "http://www.w3.org/Graphics/SVG/1.1/DTD/svg11.dtd">
<!-- Generated by graphviz version 2.40.1 (20161225.0304)
 -->
<!-- Title: src/engine/basics/Settings.hxx Pages: 1 -->
<svg width="2597pt" height="151pt"
 viewBox="0.00 0.00 2596.50 151.00" xmlns="http://www.w3.org/2000/svg" xmlns:xlink="http://www.w3.org/1999/xlink">
<g id="graph0" class="graph" transform="scale(1 1) rotate(0) translate(4 147)">
<title>src/engine/basics/Settings.hxx</title>
<!-- Node9 -->
<g id="node1" class="node">
<title>Node9</title>
<polygon fill="#bfbfbf" stroke="#000000" points="1131,-123.5 1131,-142.5 1295,-142.5 1295,-123.5 1131,-123.5"/>
<text text-anchor="middle" x="1213" y="-130.5" font-family="Helvetica,sans-Serif" font-size="10.00" fill="#000000">src/engine/basics/Settings.hxx</text>
</g>
<!-- Node10 -->
<g id="node2" class="node">
<title>Node10</title>
<g id="a_node2"><a xlink:href="Music_8cxx.html" target="_top" xlink:title="src/engine/audio/Music.cxx">
<polygon fill="none" stroke="#000000" points="0,-62 0,-81 148,-81 148,-62 0,-62"/>
<text text-anchor="middle" x="74" y="-69" font-family="Helvetica,sans-Serif" font-size="10.00" fill="#000000">src/engine/audio/Music.cxx</text>
</a>
</g>
</g>
<!-- Node9&#45;&gt;Node10 -->
<g id="edge1" class="edge">
<title>Node9&#45;&gt;Node10</title>
<path fill="none" stroke="#191970" d="M1120.6452,-130.6516C899.1315,-124.7481 342.2984,-108.2304 157,-87 144.4753,-85.565 130.9988,-83.3449 118.6234,-81.0291"/>
<polygon fill="#191970" stroke="#191970" points="1120.8478,-134.1581 1130.9372,-130.9246 1121.0336,-127.1606 1120.8478,-134.1581"/>
</g>
<!-- Node11 -->
<g id="node3" class="node">
<title>Node11</title>
<g id="a_node3"><a xlink:href="SoundEffect_8cxx.html" target="_top" xlink:title="src/engine/audio/SoundEffect.cxx">
<polygon fill="none" stroke="#000000" points="166,-62 166,-81 344,-81 344,-62 166,-62"/>
<text text-anchor="middle" x="255" y="-69" font-family="Helvetica,sans-Serif" font-size="10.00" fill="#000000">src/engine/audio/SoundEffect.cxx</text>
</a>
</g>
</g>
<!-- Node9&#45;&gt;Node11 -->
<g id="edge2" class="edge">
<title>Node9&#45;&gt;Node11</title>
<path fill="none" stroke="#191970" d="M1120.8252,-131.1953C963.137,-127.4096 631.6298,-116.4066 353,-87 338.6106,-85.4813 323.113,-83.2905 308.7836,-81.0321"/>
<polygon fill="#191970" stroke="#191970" points="1120.8783,-134.6974 1130.9581,-131.4343 1121.0434,-127.6994 1120.8783,-134.6974"/>
</g>
<!-- Node12 -->
<g id="node4" class="node">
<title>Node12</title>
<g id="a_node4"><a xlink:href="Camera_8cxx.html" target="_top" xlink:title="src/engine/basics/Camera.cxx">
<polygon fill="none" stroke="#000000" points="362,-62 362,-81 524,-81 524,-62 362,-62"/>
<text text-anchor="middle" x="443" y="-69" font-family="Helvetica,sans-Serif" font-size="10.00" fill="#000000">src/engine/basics/Camera.cxx</text>
</a>
</g>
</g>
<!-- Node9&#45;&gt;Node12 -->
<g id="edge3" class="edge">
<title>Node9&#45;&gt;Node12</title>
<path fill="none" stroke="#191970" d="M1120.8404,-129.7782C989.8333,-124.5147 742.4007,-112.0469 533,-87 519.9335,-85.4371 505.8792,-83.2583 492.8511,-81.0273"/>
<polygon fill="#191970" stroke="#191970" points="1120.7087,-133.2757 1130.8397,-130.1751 1120.9864,-126.2812 1120.7087,-133.2757"/>
</g>
<!-- Node13 -->
<g id="node5" class="node">
<title>Node13</title>
<g id="a_node5"><a xlink:href="isoMath_8cxx.html" target="_top" xlink:title="src/engine/basics/isoMath.cxx">
<polygon fill="none" stroke="#000000" points="542,-62 542,-81 704,-81 704,-62 542,-62"/>
<text text-anchor="middle" x="623" y="-69" font-family="Helvetica,sans-Serif" font-size="10.00" fill="#000000">src/engine/basics/isoMath.cxx</text>
</a>
</g>
</g>
<!-- Node9&#45;&gt;Node13 -->
<g id="edge4" class="edge">
<title>Node9&#45;&gt;Node13</title>
<path fill="none" stroke="#191970" d="M1120.8859,-126.3526C1021.324,-118.7217 858.0848,-104.9152 718,-87 704.7391,-85.3041 690.4889,-83.1544 677.1628,-81.0003"/>
<polygon fill="#191970" stroke="#191970" points="1120.6778,-129.8468 1130.9149,-127.1169 1121.2098,-122.8671 1120.6778,-129.8468"/>
</g>
<!-- Node14 -->
<g id="node6" class="node">
<title>Node14</title>
<g id="a_node6"><a xlink:href="Settings_8cxx.html" target="_top" xlink:title="src/engine/basics/Settings.cxx">
<polygon fill="none" stroke="#000000" points="555,-.5 555,-19.5 719,-19.5 719,-.5 555,-.5"/>
<text text-anchor="middle" x="637" y="-7.5" font-family="Helvetica,sans-Serif" font-size="10.00" fill="#000000">src/engine/basics/Settings.cxx</text>
</a>
</g>
</g>
<!-- Node9&#45;&gt;Node14 -->
<g id="edge5" class="edge">
<title>Node9&#45;&gt;Node14</title>
<path fill="none" stroke="#191970" d="M1120.627,-130.0864C1005.4201,-125.3714 815.7223,-113.7382 751,-87 730.8554,-78.6778 730.8113,-68.5627 713,-56 693.5906,-42.3102 670.0305,-28.4446 654.3373,-19.5687"/>
<polygon fill="#191970" stroke="#191970" points="1120.7175,-133.5928 1130.8492,-130.4947 1120.9969,-126.5983 1120.7175,-133.5928"/>
</g>
<!-- Node15 -->
<g id="node7" class="node">
<title>Node15</title>
<g id="a_node7"><a xlink:href="JsonSerialization_8hxx.html" target="_top" xlink:title="src/engine/common/JsonSerialization.hxx">
<polygon fill="none" stroke="#000000" points="760,-62 760,-81 978,-81 978,-62 760,-62"/>
<text text-anchor="middle" x="869" y="-69" font-family="Helvetica,sans-Serif" font-size="10.00" fill="#000000">src/engine/common/JsonSerialization.hxx</text>
</a>
</g>
</g>
<!-- Node9&#45;&gt;Node15 -->
<g id="edge6" class="edge">
<title>Node9&#45;&gt;Node15</title>
<path fill="none" stroke="#191970" d="M1149.4549,-121.6395C1084.114,-109.9579 983.5007,-91.9703 922.2147,-81.0137"/>
<polygon fill="#191970" stroke="#191970" points="1149.1675,-125.1435 1159.6274,-123.4581 1150.3995,-118.2528 1149.1675,-125.1435"/>
</g>
<!-- Node17 -->
<g id="node9" class="node">
<title>Node17</title>
<g id="a_node9"><a xlink:href="Map_8cxx.html" target="_top" xlink:title="src/engine/Map.cxx">
<polygon fill="none" stroke="#000000" points="951,-.5 951,-19.5 1061,-19.5 1061,-.5 951,-.5"/>
<text text-anchor="middle" x="1006" y="-7.5" font-family="Helvetica,sans-Serif" font-size="10.00" fill="#000000">src/engine/Map.cxx</text>
</a>
</g>
</g>
<!-- Node9&#45;&gt;Node17 -->
<g id="edge13" class="edge">
<title>Node9&#45;&gt;Node17</title>
<path fill="none" stroke="#191970" d="M1129.9014,-121.0049C1103.7273,-114.2168 1075.9494,-103.5994 1054,-87 1030.379,-69.1365 1015.5646,-35.9834 1009.3611,-19.6312"/>
<polygon fill="#191970" stroke="#191970" points="1129.2948,-124.4594 1139.8388,-123.4235 1130.9502,-117.6579 1129.2948,-124.4594"/>
</g>
<!-- Node18 -->
<g id="node10" class="node">
<title>Node18</title>
<g id="a_node10"><a xlink:href="AudioMixer_8cxx.html" target="_top" xlink:title="src/services/AudioMixer.cxx">
<polygon fill="none" stroke="#000000" points="1079,-.5 1079,-19.5 1231,-19.5 1231,-.5 1079,-.5"/>
<text text-anchor="middle" x="1155" y="-7.5" font-family="Helvetica,sans-Serif" font-size="10.00" fill="#000000">src/services/AudioMixer.cxx</text>
</a>
</g>
</g>
<!-- Node9&#45;&gt;Node18 -->
<g id="edge22" class="edge">
<title>Node9&#45;&gt;Node18</title>
<path fill="none" stroke="#191970" d="M1149.8936,-121.296C1114.213,-113.2547 1074.652,-101.4366 1064,-87 1055.8198,-75.9134 1056.7823,-67.7359 1064,-56 1075.2211,-37.7545 1096.1645,-26.4801 1115.1328,-19.6631"/>
<polygon fill="#191970" stroke="#191970" points="1149.311,-124.7512 1159.8272,-123.463 1150.8029,-117.912 1149.311,-124.7512"/>
</g>
<!-- Node19 -->
<g id="node11" class="node">
<title>Node19</title>
<g id="a_node11"><a xlink:href="Engine_8cxx.html" target="_top" xlink:title="src/engine/Engine.cxx">
<polygon fill="none" stroke="#000000" points="1072.5,-62 1072.5,-81 1195.5,-81 1195.5,-62 1072.5,-62"/>
<text text-anchor="middle" x="1134" y="-69" font-family="Helvetica,sans-Serif" font-size="10.00" fill="#000000">src/engine/Engine.cxx</text>
</a>
</g>
</g>
<!-- Node9&#45;&gt;Node19 -->
<g id="edge11" class="edge">
<title>Node9&#45;&gt;Node19</title>
<path fill="none" stroke="#191970" d="M1192.6387,-117.1491C1177.96,-105.722 1158.6312,-90.6749 1146.2571,-81.0419"/>
<polygon fill="#191970" stroke="#191970" points="1190.6154,-120.0095 1200.6563,-123.3906 1194.9154,-114.4859 1190.6154,-120.0095"/>
</g>
<!-- Node20 -->
<g id="node12" class="node">
<title>Node20</title>
<g id="a_node12"><a xlink:href="EventManager_8cxx.html" target="_top" xlink:title="src/engine/EventManager.cxx">
<polygon fill="none" stroke="#000000" points="1213.5,-62 1213.5,-81 1372.5,-81 1372.5,-62 1213.5,-62"/>
<text text-anchor="middle" x="1293" y="-69" font-family="Helvetica,sans-Serif" font-size="10.00" fill="#000000">src/engine/EventManager.cxx</text>
</a>
</g>
</g>
<!-- Node9&#45;&gt;Node20 -->
<g id="edge12" class="edge">
<title>Node9&#45;&gt;Node20</title>
<path fill="none" stroke="#191970" d="M1233.619,-117.1491C1248.4836,-105.722 1268.057,-90.6749 1280.5878,-81.0419"/>
<polygon fill="#191970" stroke="#191970" points="1231.2949,-114.521 1225.5,-123.3906 1235.5613,-120.0707 1231.2949,-114.521"/>
</g>
<!-- Node21 -->
<g id="node13" class="node">
<title>Node21</title>
<g id="a_node13"><a xlink:href="ResourcesManager_8cxx.html" target="_top" xlink:title="src/engine/ResourcesManager.cxx">
<polygon fill="none" stroke="#000000" points="1390.5,-62 1390.5,-81 1571.5,-81 1571.5,-62 1390.5,-62"/>
<text text-anchor="middle" x="1481" y="-69" font-family="Helvetica,sans-Serif" font-size="10.00" fill="#000000">src/engine/ResourcesManager.cxx</text>
</a>
</g>
</g>
<!-- Node9&#45;&gt;Node21 -->
<g id="edge14" class="edge">
<title>Node9&#45;&gt;Node21</title>
<path fill="none" stroke="#191970" d="M1264.389,-121.2074C1315.2476,-109.5365 1392.141,-91.8912 1439.3215,-81.0643"/>
<polygon fill="#191970" stroke="#191970" points="1263.5448,-117.8101 1254.581,-123.4581 1265.1105,-124.6327 1263.5448,-117.8101"/>
</g>
<!-- Node22 -->
<g id="node14" class="node">
<title>Node22</title>
<g id="a_node14"><a xlink:href="TileManager_8cxx.html" target="_top" xlink:title="src/engine/TileManager.cxx">
<polygon fill="none" stroke="#000000" points="1589.5,-62 1589.5,-81 1738.5,-81 1738.5,-62 1589.5,-62"/>
<text text-anchor="middle" x="1664" y="-69" font-family="Helvetica,sans-Serif" font-size="10.00" fill="#000000">src/engine/TileManager.cxx</text>
</a>
</g>
</g>
<!-- Node9&#45;&gt;Node22 -->
<g id="edge15" class="edge">
<title>Node9&#45;&gt;Node22</title>
<path fill="none" stroke="#191970" d="M1305.3446,-123.0184C1379.9021,-114.5839 1487.4275,-101.5719 1581,-87 1592.2977,-85.2406 1604.4162,-83.1144 1615.8064,-81.0083"/>
<polygon fill="#191970" stroke="#191970" points="1304.5934,-119.5808 1295.0479,-124.1778 1305.3767,-126.5368 1304.5934,-119.5808"/>
</g>
<!-- Node23 -->
<g id="node15" class="node">
<title>Node23</title>
<g id="a_node15"><a xlink:href="Layout_8cxx.html" target="_top" xlink:title="src/engine/ui/basics\l/Layout.cxx">
<polygon fill="none" stroke="#000000" points="1756.5,-56.5 1756.5,-86.5 1869.5,-86.5 1869.5,-56.5 1756.5,-56.5"/>
<text text-anchor="start" x="1764.5" y="-74.5" font-family="Helvetica,sans-Serif" font-size="10.00" fill="#000000">src/engine/ui/basics</text>
<text text-anchor="middle" x="1813" y="-63.5" font-family="Helvetica,sans-Serif" font-size="10.00" fill="#000000">/Layout.cxx</text>
</a>
</g>
</g>
<!-- Node9&#45;&gt;Node23 -->
<g id="edge16" class="edge">
<title>Node9&#45;&gt;Node23</title>
<path fill="none" stroke="#191970" d="M1305.1569,-129.2331C1412.1748,-123.8994 1593.7552,-111.8809 1748,-87 1750.7487,-86.5566 1753.5534,-86.0601 1756.3793,-85.5244"/>
<polygon fill="#191970" stroke="#191970" points="1304.8534,-125.7437 1295.0365,-129.7286 1305.1957,-132.7353 1304.8534,-125.7437"/>
</g>
<!-- Node24 -->
<g id="node16" class="node">
<title>Node24</title>
<g id="a_node16"><a xlink:href="UIElement_8cxx.html" target="_top" xlink:title="src/engine/ui/basics\l/UIElement.cxx">
<polygon fill="none" stroke="#000000" points="1887.5,-56.5 1887.5,-86.5 2000.5,-86.5 2000.5,-56.5 1887.5,-56.5"/>
<text text-anchor="start" x="1895.5" y="-74.5" font-family="Helvetica,sans-Serif" font-size="10.00" fill="#000000">src/engine/ui/basics</text>
<text text-anchor="middle" x="1944" y="-63.5" font-family="Helvetica,sans-Serif" font-size="10.00" fill="#000000">/UIElement.cxx</text>
</a>
</g>
</g>
<!-- Node9&#45;&gt;Node24 -->
<g id="edge17" class="edge">
<title>Node9&#45;&gt;Node24</title>
<path fill="none" stroke="#191970" d="M1305.4833,-131.4265C1434.5837,-128.1384 1675.8368,-118.022 1879,-87 1881.7524,-86.5797 1884.56,-86.102 1887.3882,-85.5814"/>
<polygon fill="#191970" stroke="#191970" points="1305.1551,-127.9334 1295.2444,-131.6789 1305.3277,-134.9313 1305.1551,-127.9334"/>
</g>
<!-- Node25 -->
<g id="node17" class="node">
<title>Node25</title>
<g id="a_node17"><a xlink:href="Text_8cxx.html" target="_top" xlink:title="src/engine/ui/widgets\l/Text.cxx">
<polygon fill="none" stroke="#000000" points="2019,-56.5 2019,-86.5 2139,-86.5 2139,-56.5 2019,-56.5"/>
<text text-anchor="start" x="2027" y="-74.5" font-family="Helvetica,sans-Serif" font-size="10.00" fill="#000000">src/engine/ui/widgets</text>
<text text-anchor="middle" x="2079" y="-63.5" font-family="Helvetica,sans-Serif" font-size="10.00" fill="#000000">/Text.cxx</text>
</a>
</g>
</g>
<!-- Node9&#45;&gt;Node25 -->
<g id="edge18" class="edge">
<title>Node9&#45;&gt;Node25</title>
<path fill="none" stroke="#191970" d="M1305.5099,-129.5623C1485.412,-122.5628 1876.4521,-105.726 2010,-87 2012.9181,-86.5908 2015.8955,-86.1221 2018.8954,-85.6087"/>
<polygon fill="#191970" stroke="#191970" points="1305.1319,-126.0742 1295.2749,-129.9587 1305.4029,-133.0689 1305.1319,-126.0742"/>
</g>
<!-- Node26 -->
<g id="node18" class="node">
<title>Node26</title>
<g id="a_node18"><a xlink:href="UIManager_8cxx.html" target="_top" xlink:title="src/engine/UIManager.cxx">
<polygon fill="none" stroke="#000000" points="2157,-62 2157,-81 2299,-81 2299,-62 2157,-62"/>
<text text-anchor="middle" x="2228" y="-69" font-family="Helvetica,sans-Serif" font-size="10.00" fill="#000000">src/engine/UIManager.cxx</text>
</a>
</g>
</g>
<!-- Node9&#45;&gt;Node26 -->
<g id="edge19" class="edge">
<title>Node9&#45;&gt;Node26</title>
<path fill="none" stroke="#191970" d="M1305.2382,-130.1344C1507.9171,-123.5648 1986.8507,-106.4752 2148,-87 2159.9382,-85.5572 2172.7683,-83.3638 2184.5819,-81.0772"/>
<polygon fill="#191970" stroke="#191970" points="1305.0943,-126.6371 1295.2124,-130.4581 1305.3202,-133.6334 1305.0943,-126.6371"/>
</g>
<!-- Node27 -->
<g id="node19" class="node">
<title>Node27</title>
<g id="a_node19"><a xlink:href="WindowManager_8cxx.html" target="_top" xlink:title="src/engine/WindowManager.cxx">
<polygon fill="none" stroke="#000000" points="2317,-62 2317,-81 2487,-81 2487,-62 2317,-62"/>
<text text-anchor="middle" x="2402" y="-69" font-family="Helvetica,sans-Serif" font-size="10.00" fill="#000000">src/engine/WindowManager.cxx</text>
</a>
</g>
</g>
<!-- Node9&#45;&gt;Node27 -->
<g id="edge20" class="edge">
<title>Node9&#45;&gt;Node27</title>
<path fill="none" stroke="#191970" d="M1305.4982,-130.5617C1532.8916,-124.334 2114.722,-106.9205 2308,-87 2321.9848,-85.5586 2337.0458,-83.3656 2350.9266,-81.079"/>
<polygon fill="#191970" stroke="#191970" points="1305.1682,-127.0693 1295.2674,-130.8409 1305.3592,-134.0667 1305.1682,-127.0693"/>
</g>
<!-- Node28 -->
<g id="node20" class="node">
<title>Node28</title>
<g id="a_node20"><a xlink:href="Game_8cxx.html" target="_top" xlink:title="src/Game.cxx">
<polygon fill="none" stroke="#000000" points="2505.5,-62 2505.5,-81 2588.5,-81 2588.5,-62 2505.5,-62"/>
<text text-anchor="middle" x="2547" y="-69" font-family="Helvetica,sans-Serif" font-size="10.00" fill="#000000">src/Game.cxx</text>
</a>
</g>
</g>
<!-- Node9&#45;&gt;Node28 -->
<g id="edge21" class="edge">
<title>Node9&#45;&gt;Node28</title>
<path fill="none" stroke="#191970" d="M1305.6513,-131.0649C1580.5696,-125.1289 2379.8095,-106.4004 2496,-87 2504.0324,-85.6588 2512.5689,-83.4082 2520.3137,-81.0318"/>
<polygon fill="#191970" stroke="#191970" points="1305.2312,-127.5731 1295.3088,-131.2875 1305.3819,-134.5714 1305.2312,-127.5731"/>
</g>
<!-- Node15&#45;&gt;Node14 -->
<g id="edge7" class="edge">
<title>Node15&#45;&gt;Node14</title>
<path fill="none" stroke="#191970" d="M823.1309,-59.3407C779.1032,-47.6696 713.4973,-30.2784 673.0799,-19.5643"/>
<polygon fill="#191970" stroke="#191970" points="822.4416,-62.7788 833.0046,-61.9581 824.2353,-56.0125 822.4416,-62.7788"/>
</g>
<!-- Node16 -->
<g id="node8" class="node">
<title>Node16</title>
<g id="a_node8"><a xlink:href="TerrainGenerator_8cxx.html" target="_top" xlink:title="src/engine/map/TerrainGenerator.cxx">
<polygon fill="none" stroke="#000000" points="737,-.5 737,-19.5 933,-19.5 933,-.5 737,-.5"/>
<text text-anchor="middle" x="835" y="-7.5" font-family="Helvetica,sans-Serif" font-size="10.00" fill="#000000">src/engine/map/TerrainGenerator.cxx</text>
</a>
</g>
</g>
<!-- Node15&#45;&gt;Node16 -->
<g id="edge8" class="edge">
<title>Node15&#45;&gt;Node16</title>
<path fill="none" stroke="#191970" d="M858.8198,-53.0857C852.764,-42.132 845.3243,-28.6748 840.3874,-19.7449"/>
<polygon fill="#191970" stroke="#191970" points="855.7861,-54.8324 863.6875,-61.8906 861.9122,-51.4456 855.7861,-54.8324"/>
</g>
<!-- Node15&#45;&gt;Node17 -->
<g id="edge9" class="edge">
<title>Node15&#45;&gt;Node17</title>
<path fill="none" stroke="#191970" d="M899.7648,-57.6895C925.6487,-46.0701 961.9815,-29.7601 984.7441,-19.5419"/>
<polygon fill="#191970" stroke="#191970" points="898.0958,-54.6022 890.4063,-61.8906 900.9626,-60.9883 898.0958,-54.6022"/>
</g>
<!-- Node15&#45;&gt;Node18 -->
<g id="edge10" class="edge">
<title>Node15&#45;&gt;Node18</title>
<path fill="none" stroke="#191970" d="M923.1635,-59.8529C977.4306,-48.1836 1059.963,-30.4363 1110.5222,-19.5643"/>
<polygon fill="#191970" stroke="#191970" points="922.4144,-56.4339 913.3737,-61.9581 923.8861,-63.2775 922.4144,-56.4339"/>
</g>
</g>
</svg>
