<?xml version="1.0" encoding="UTF-8" standalone="no"?>
<!DOCTYPE svg PUBLIC "-//W3C//DTD SVG 1.1//EN"
 "http://www.w3.org/Graphics/SVG/1.1/DTD/svg11.dtd">
<!-- Generated by graphviz version 2.40.1 (20161225.0304)
 -->
<!-- Title: src/util/Singleton.hxx Pages: 1 -->
<svg width="3447pt" height="609pt"
 viewBox="0.00 0.00 3446.76 609.00" xmlns="http://www.w3.org/2000/svg" xmlns:xlink="http://www.w3.org/1999/xlink">
<g id="graph0" class="graph" transform="scale(1 1) rotate(0) translate(4 605)">
<title>src/util/Singleton.hxx</title>
<!-- Node1 -->
<g id="node1" class="node">
<title>Node1</title>
<polygon fill="#bfbfbf" stroke="#000000" points="705.7575,-581.5 705.7575,-600.5 824.7575,-600.5 824.7575,-581.5 705.7575,-581.5"/>
<text text-anchor="middle" x="765.2575" y="-588.5" font-family="Helvetica,sans-Serif" font-size="10.00" fill="#000000">src/util/Singleton.hxx</text>
</g>
<!-- Node2 -->
<g id="node2" class="node">
<title>Node2</title>
<g id="a_node2"><a xlink:href="Settings_8hxx.html" target="_top" xlink:title="src/engine/basics/Settings.hxx">
<polygon fill="none" stroke="#000000" points="2018.2575,-397 2018.2575,-416 2182.2575,-416 2182.2575,-397 2018.2575,-397"/>
<text text-anchor="middle" x="2100.2575" y="-404" font-family="Helvetica,sans-Serif" font-size="10.00" fill="#000000">src/engine/basics/Settings.hxx</text>
</a>
</g>
</g>
<!-- Node1&#45;&gt;Node2 -->
<g id="edge1" class="edge">
<title>Node1&#45;&gt;Node2</title>
<path fill="none" stroke="#191970" d="M834.7093,-581.4016C1065.007,-549.5739 1801.9,-447.7337 2031.3692,-416.0205"/>
<polygon fill="#191970" stroke="#191970" points="834.2042,-577.9381 824.7775,-582.7742 835.1626,-584.8721 834.2042,-577.9381"/>
</g>
<!-- Node22 -->
<g id="node22" class="node">
<title>Node22</title>
<g id="a_node22"><a xlink:href="WindowManager_8hxx.html" target="_top" xlink:title="src/engine/WindowManager.hxx">
<polygon fill="none" stroke="#000000" points="936.7575,-464 936.7575,-483 1107.7575,-483 1107.7575,-464 936.7575,-464"/>
<text text-anchor="middle" x="1022.2575" y="-471" font-family="Helvetica,sans-Serif" font-size="10.00" fill="#000000">src/engine/WindowManager.hxx</text>
</a>
</g>
</g>
<!-- Node1&#45;&gt;Node22 -->
<g id="edge24" class="edge">
<title>Node1&#45;&gt;Node22</title>
<path fill="none" stroke="#191970" d="M795.4754,-577.1844C848.2408,-553.0601 955.8783,-503.8484 1001.2959,-483.0836"/>
<polygon fill="#191970" stroke="#191970" points="793.9281,-574.0433 786.2889,-581.3845 796.8388,-580.4095 793.9281,-574.0433"/>
</g>
<!-- Node23 -->
<g id="node23" class="node">
<title>Node23</title>
<g id="a_node23"><a xlink:href="Engine_8hxx.html" target="_top" xlink:title="src/engine/Engine.hxx">
<polygon fill="none" stroke="#000000" points="392.2575,-263 392.2575,-282 516.2575,-282 516.2575,-263 392.2575,-263"/>
<text text-anchor="middle" x="454.2575" y="-270" font-family="Helvetica,sans-Serif" font-size="10.00" fill="#000000">src/engine/Engine.hxx</text>
</a>
</g>
</g>
<!-- Node1&#45;&gt;Node23 -->
<g id="edge106" class="edge">
<title>Node1&#45;&gt;Node23</title>
<path fill="none" stroke="#191970" d="M699.7917,-579.5916C609.6312,-561.9877 458.2575,-524.794 458.2575,-473.5 458.2575,-473.5 458.2575,-473.5 458.2575,-406.5 458.2575,-359.9515 455.8161,-304.3479 454.748,-282.2488"/>
<polygon fill="#191970" stroke="#191970" points="699.1812,-583.0382 709.6621,-581.4885 700.5024,-576.164 699.1812,-583.0382"/>
</g>
<!-- Node24 -->
<g id="node24" class="node">
<title>Node24</title>
<g id="a_node24"><a xlink:href="EventManager_8hxx.html" target="_top" xlink:title="src/engine/EventManager.hxx">
<polygon fill="none" stroke="#000000" points="30.2575,-62 30.2575,-81 190.2575,-81 190.2575,-62 30.2575,-62"/>
<text text-anchor="middle" x="110.2575" y="-69" font-family="Helvetica,sans-Serif" font-size="10.00" fill="#000000">src/engine/EventManager.hxx</text>
</a>
</g>
</g>
<!-- Node1&#45;&gt;Node24 -->
<g id="edge108" class="edge">
<title>Node1&#45;&gt;Node24</title>
<path fill="none" stroke="#191970" d="M695.6444,-586.7217C516.996,-574.816 56.2575,-537.8712 56.2575,-473.5 56.2575,-473.5 56.2575,-473.5 56.2575,-205.5 56.2575,-155.5871 88.8877,-102.3019 103.4184,-81.0478"/>
<polygon fill="#191970" stroke="#191970" points="695.5154,-590.2207 705.7241,-587.3868 695.9763,-583.2359 695.5154,-590.2207"/>
</g>
<!-- Node27 -->
<g id="node27" class="node">
<title>Node27</title>
<g id="a_node27"><a xlink:href="UIManager_8hxx.html" target="_top" xlink:title="src/engine/UIManager.hxx">
<polygon fill="none" stroke="#000000" points="706.7575,-129 706.7575,-148 849.7575,-148 849.7575,-129 706.7575,-129"/>
<text text-anchor="middle" x="778.2575" y="-136" font-family="Helvetica,sans-Serif" font-size="10.00" fill="#000000">src/engine/UIManager.hxx</text>
</a>
</g>
</g>
<!-- Node1&#45;&gt;Node27 -->
<g id="edge107" class="edge">
<title>Node1&#45;&gt;Node27</title>
<path fill="none" stroke="#191970" d="M695.655,-583.5381C546.2475,-566.5796 208.2575,-522.771 208.2575,-473.5 208.2575,-473.5 208.2575,-473.5 208.2575,-272.5 208.2575,-234.8735 198.9404,-214.7769 227.2575,-190 262.6196,-159.0589 565.6884,-145.3328 706.673,-140.5794"/>
<polygon fill="#191970" stroke="#191970" points="695.3197,-587.0224 705.6487,-584.6643 696.1036,-580.0664 695.3197,-587.0224"/>
</g>
<!-- Node52 -->
<g id="node45" class="node">
<title>Node52</title>
<g id="a_node45"><a xlink:href="TileManager_8hxx.html" target="_top" xlink:title="src/engine/TileManager.hxx">
<polygon fill="none" stroke="#000000" points="2619.2575,-525.5 2619.2575,-544.5 2769.2575,-544.5 2769.2575,-525.5 2619.2575,-525.5"/>
<text text-anchor="middle" x="2694.2575" y="-532.5" font-family="Helvetica,sans-Serif" font-size="10.00" fill="#000000">src/engine/TileManager.hxx</text>
</a>
</g>
</g>
<!-- Node1&#45;&gt;Node52 -->
<g id="edge83" class="edge">
<title>Node1&#45;&gt;Node52</title>
<path fill="none" stroke="#191970" d="M835.1213,-588.9718C1134.6656,-580.2759 2309.2082,-546.1782 2619.0064,-537.1846"/>
<polygon fill="#191970" stroke="#191970" points="834.7318,-585.4816 824.8376,-589.2704 834.935,-592.4786 834.7318,-585.4816"/>
</g>
<!-- Node3 -->
<g id="node3" class="node">
<title>Node3</title>
<g id="a_node3"><a xlink:href="Music_8cxx.html" target="_top" xlink:title="src/engine/audio/Music.cxx">
<polygon fill="none" stroke="#000000" points="2242.2575,-330 2242.2575,-349 2390.2575,-349 2390.2575,-330 2242.2575,-330"/>
<text text-anchor="middle" x="2316.2575" y="-337" font-family="Helvetica,sans-Serif" font-size="10.00" fill="#000000">src/engine/audio/Music.cxx</text>
</a>
</g>
</g>
<!-- Node2&#45;&gt;Node3 -->
<g id="edge2" class="edge">
<title>Node2&#45;&gt;Node3</title>
<path fill="none" stroke="#191970" d="M2140.8347,-393.9136C2182.7933,-380.8986 2247.3801,-360.8647 2285.3674,-349.0817"/>
<polygon fill="#191970" stroke="#191970" points="2139.7192,-390.595 2131.205,-396.9005 2141.793,-397.2807 2139.7192,-390.595"/>
</g>
<!-- Node4 -->
<g id="node4" class="node">
<title>Node4</title>
<g id="a_node4"><a xlink:href="SoundEffect_8cxx.html" target="_top" xlink:title="src/engine/audio/SoundEffect.cxx">
<polygon fill="none" stroke="#000000" points="1856.2575,-330 1856.2575,-349 2034.2575,-349 2034.2575,-330 1856.2575,-330"/>
<text text-anchor="middle" x="1945.2575" y="-337" font-family="Helvetica,sans-Serif" font-size="10.00" fill="#000000">src/engine/audio/SoundEffect.cxx</text>
</a>
</g>
</g>
<!-- Node2&#45;&gt;Node4 -->
<g id="edge3" class="edge">
<title>Node2&#45;&gt;Node4</title>
<path fill="none" stroke="#191970" d="M2068.8222,-392.9118C2038.696,-379.8895 1993.9933,-360.5664 1967.424,-349.0817"/>
<polygon fill="#191970" stroke="#191970" points="2067.4819,-396.1454 2078.0498,-396.9005 2070.2593,-389.72 2067.4819,-396.1454"/>
</g>
<!-- Node5 -->
<g id="node5" class="node">
<title>Node5</title>
<g id="a_node5"><a xlink:href="Camera_8cxx.html" target="_top" xlink:title="src/engine/basics/Camera.cxx">
<polygon fill="none" stroke="#000000" points="550.2575,-196 550.2575,-215 712.2575,-215 712.2575,-196 550.2575,-196"/>
<text text-anchor="middle" x="631.2575" y="-203" font-family="Helvetica,sans-Serif" font-size="10.00" fill="#000000">src/engine/basics/Camera.cxx</text>
</a>
</g>
</g>
<!-- Node2&#45;&gt;Node5 -->
<g id="edge4" class="edge">
<title>Node2&#45;&gt;Node5</title>
<path fill="none" stroke="#191970" d="M2007.9869,-398.0208C1924.3976,-389.3044 1808.1144,-374.2953 1766.2575,-355 1747.0822,-346.1606 1747.1272,-336.6981 1730.2575,-324 1706.9157,-306.4303 1698.4761,-305.7321 1675.2575,-288 1658.7429,-275.3877 1659.5258,-264.7804 1640.2575,-257 1553.3251,-221.8973 890.7935,-227.36 797.2575,-221 769.6789,-219.1248 739.5753,-216.4916 712.6685,-213.9269"/>
<polygon fill="#191970" stroke="#191970" points="2007.7057,-401.5102 2018.0115,-399.0524 2008.4224,-394.547 2007.7057,-401.5102"/>
</g>
<!-- Node6 -->
<g id="node6" class="node">
<title>Node6</title>
<g id="a_node6"><a xlink:href="isoMath_8cxx.html" target="_top" xlink:title="src/engine/basics/isoMath.cxx">
<polygon fill="none" stroke="#000000" points="806.2575,-196 806.2575,-215 968.2575,-215 968.2575,-196 806.2575,-196"/>
<text text-anchor="middle" x="887.2575" y="-203" font-family="Helvetica,sans-Serif" font-size="10.00" fill="#000000">src/engine/basics/isoMath.cxx</text>
</a>
</g>
</g>
<!-- Node2&#45;&gt;Node6 -->
<g id="edge5" class="edge">
<title>Node2&#45;&gt;Node6</title>
<path fill="none" stroke="#191970" d="M2007.9086,-400.1222C1950.4237,-393.6909 1875.9485,-380.8015 1814.2575,-355 1779.3901,-340.4171 1710.9773,-269.3488 1675.2575,-257 1528.6746,-206.3243 1132.4128,-238.0504 978.2575,-221 964.7178,-219.5024 950.1371,-217.2906 936.6993,-215.0038"/>
<polygon fill="#191970" stroke="#191970" points="2007.7566,-403.6259 2018.0728,-401.2122 2008.503,-396.6658 2007.7566,-403.6259"/>
</g>
<!-- Node7 -->
<g id="node7" class="node">
<title>Node7</title>
<g id="a_node7"><a xlink:href="Settings_8cxx.html" target="_top" xlink:title="src/engine/basics/Settings.cxx">
<polygon fill="none" stroke="#000000" points="2464.2575,-263 2464.2575,-282 2628.2575,-282 2628.2575,-263 2464.2575,-263"/>
<text text-anchor="middle" x="2546.2575" y="-270" font-family="Helvetica,sans-Serif" font-size="10.00" fill="#000000">src/engine/basics/Settings.cxx</text>
</a>
</g>
</g>
<!-- Node2&#45;&gt;Node7 -->
<g id="edge6" class="edge">
<title>Node2&#45;&gt;Node7</title>
<path fill="none" stroke="#191970" d="M2118.0605,-389.8073C2141.5804,-368.119 2182.1402,-332.0642 2200.2575,-324 2246.1005,-303.5949 2376.9308,-288.074 2463.9267,-279.6342"/>
<polygon fill="#191970" stroke="#191970" points="2115.4644,-387.4416 2110.5166,-396.8102 2120.2268,-392.572 2115.4644,-387.4416"/>
</g>
<!-- Node8 -->
<g id="node8" class="node">
<title>Node8</title>
<g id="a_node8"><a xlink:href="JsonSerialization_8hxx.html" target="_top" xlink:title="src/engine/common/JsonSerialization.hxx">
<polygon fill="none" stroke="#000000" points="2964.2575,-330 2964.2575,-349 3182.2575,-349 3182.2575,-330 2964.2575,-330"/>
<text text-anchor="middle" x="3073.2575" y="-337" font-family="Helvetica,sans-Serif" font-size="10.00" fill="#000000">src/engine/common/JsonSerialization.hxx</text>
</a>
</g>
</g>
<!-- Node2&#45;&gt;Node8 -->
<g id="edge7" class="edge">
<title>Node2&#45;&gt;Node8</title>
<path fill="none" stroke="#191970" d="M2192.5172,-400.8342C2338.5193,-391.7721 2631.7638,-373.1809 2880.2575,-355 2907.4129,-353.0132 2936.7058,-350.7319 2964.065,-348.5414"/>
<polygon fill="#191970" stroke="#191970" points="2192.0263,-397.3579 2182.2621,-401.4701 2192.4596,-404.3444 2192.0263,-397.3579"/>
</g>
<!-- Node10 -->
<g id="node10" class="node">
<title>Node10</title>
<g id="a_node10"><a xlink:href="Map_8cxx.html" target="_top" xlink:title="src/engine/Map.cxx">
<polygon fill="none" stroke="#000000" points="2892.2575,-263 2892.2575,-282 3002.2575,-282 3002.2575,-263 2892.2575,-263"/>
<text text-anchor="middle" x="2947.2575" y="-270" font-family="Helvetica,sans-Serif" font-size="10.00" fill="#000000">src/engine/Map.cxx</text>
</a>
</g>
</g>
<!-- Node2&#45;&gt;Node10 -->
<g id="edge14" class="edge">
<title>Node2&#45;&gt;Node10</title>
<path fill="none" stroke="#191970" d="M2192.5944,-396.9492C2275.3226,-387.5277 2389.9438,-372.0889 2432.2575,-355 2454.4385,-346.0419 2453.8372,-332.3413 2476.2575,-324 2628.6214,-267.3141 2678.8834,-307.6581 2840.2575,-288 2857.1199,-285.9459 2875.4323,-283.407 2892.062,-280.9828"/>
<polygon fill="#191970" stroke="#191970" points="2191.9619,-393.4982 2182.4169,-398.0963 2192.746,-400.4542 2191.9619,-393.4982"/>
</g>
<!-- Node11 -->
<g id="node11" class="node">
<title>Node11</title>
<g id="a_node11"><a xlink:href="AudioMixer_8cxx.html" target="_top" xlink:title="src/services/AudioMixer.cxx">
<polygon fill="none" stroke="#000000" points="2646.2575,-263 2646.2575,-282 2798.2575,-282 2798.2575,-263 2646.2575,-263"/>
<text text-anchor="middle" x="2722.2575" y="-270" font-family="Helvetica,sans-Serif" font-size="10.00" fill="#000000">src/services/AudioMixer.cxx</text>
</a>
</g>
</g>
<!-- Node2&#45;&gt;Node11 -->
<g id="edge23" class="edge">
<title>Node2&#45;&gt;Node11</title>
<path fill="none" stroke="#191970" d="M2128.5788,-392.2674C2147.3525,-382.484 2172.2937,-368.8104 2193.2575,-355 2212.0398,-342.6267 2212.3213,-332.2191 2233.2575,-324 2401.0572,-258.1255 2458.6215,-312.1948 2637.2575,-288 2649.2978,-286.3692 2662.2284,-284.2187 2674.2806,-282.0406"/>
<polygon fill="#191970" stroke="#191970" points="2126.9253,-389.182 2119.6404,-396.8748 2130.1326,-395.404 2126.9253,-389.182"/>
</g>
<!-- Node12 -->
<g id="node12" class="node">
<title>Node12</title>
<g id="a_node12"><a xlink:href="Engine_8cxx.html" target="_top" xlink:title="src/engine/Engine.cxx">
<polygon fill="none" stroke="#000000" points="1986.7575,-196 1986.7575,-215 2109.7575,-215 2109.7575,-196 1986.7575,-196"/>
<text text-anchor="middle" x="2048.2575" y="-203" font-family="Helvetica,sans-Serif" font-size="10.00" fill="#000000">src/engine/Engine.cxx</text>
</a>
</g>
</g>
<!-- Node2&#45;&gt;Node12 -->
<g id="edge12" class="edge">
<title>Node2&#45;&gt;Node12</title>
<path fill="none" stroke="#191970" d="M2095.1889,-386.9079C2084.2539,-344.6401 2058.7867,-246.1994 2050.7404,-215.0974"/>
<polygon fill="#191970" stroke="#191970" points="2091.8563,-388.0007 2097.7494,-396.8054 2098.6332,-386.2474 2091.8563,-388.0007"/>
</g>
<!-- Node13 -->
<g id="node13" class="node">
<title>Node13</title>
<g id="a_node13"><a xlink:href="EventManager_8cxx.html" target="_top" xlink:title="src/engine/EventManager.cxx">
<polygon fill="none" stroke="#000000" points="2746.7575,-.5 2746.7575,-19.5 2905.7575,-19.5 2905.7575,-.5 2746.7575,-.5"/>
<text text-anchor="middle" x="2826.2575" y="-7.5" font-family="Helvetica,sans-Serif" font-size="10.00" fill="#000000">src/engine/EventManager.cxx</text>
</a>
</g>
</g>
<!-- Node2&#45;&gt;Node13 -->
<g id="edge13" class="edge">
<title>Node2&#45;&gt;Node13</title>
<path fill="none" stroke="#191970" d="M2163.6219,-395.1492C2171.5777,-393.7422 2179.6055,-392.3313 2187.2575,-391 2281.4141,-374.6183 2313.671,-397.5298 2399.2575,-355 2417.2782,-346.0451 2413.924,-332.2959 2432.2575,-324 2508.5287,-289.4871 2744.323,-343.206 2807.2575,-288 2835.5435,-263.1876 2826.2575,-243.1265 2826.2575,-205.5 2826.2575,-205.5 2826.2575,-205.5 2826.2575,-138.5 2826.2575,-94.105 2826.2575,-41.0825 2826.2575,-19.6719"/>
<polygon fill="#191970" stroke="#191970" points="2162.8523,-391.731 2153.6169,-396.923 2164.0743,-398.6235 2162.8523,-391.731"/>
</g>
<!-- Node14 -->
<g id="node14" class="node">
<title>Node14</title>
<g id="a_node14"><a xlink:href="ResourcesManager_8cxx.html" target="_top" xlink:title="src/engine/ResourcesManager.cxx">
<polygon fill="none" stroke="#000000" points="2484.7575,-330 2484.7575,-349 2665.7575,-349 2665.7575,-330 2484.7575,-330"/>
<text text-anchor="middle" x="2575.2575" y="-337" font-family="Helvetica,sans-Serif" font-size="10.00" fill="#000000">src/engine/ResourcesManager.cxx</text>
</a>
</g>
</g>
<!-- Node2&#45;&gt;Node14 -->
<g id="edge15" class="edge">
<title>Node2&#45;&gt;Node14</title>
<path fill="none" stroke="#191970" d="M2180.1426,-395.5748C2255.0975,-385.2779 2370.3145,-369.332 2470.2575,-355 2483.5728,-353.0906 2497.8322,-351.0097 2511.4145,-349.0105"/>
<polygon fill="#191970" stroke="#191970" points="2179.2701,-392.1617 2169.8391,-396.9895 2180.2223,-399.0966 2179.2701,-392.1617"/>
</g>
<!-- Node15 -->
<g id="node15" class="node">
<title>Node15</title>
<g id="a_node15"><a xlink:href="TileManager_8cxx.html" target="_top" xlink:title="src/engine/TileManager.cxx">
<polygon fill="none" stroke="#000000" points="2721.7575,-330 2721.7575,-349 2870.7575,-349 2870.7575,-330 2721.7575,-330"/>
<text text-anchor="middle" x="2796.2575" y="-337" font-family="Helvetica,sans-Serif" font-size="10.00" fill="#000000">src/engine/TileManager.cxx</text>
</a>
</g>
</g>
<!-- Node2&#45;&gt;Node15 -->
<g id="edge16" class="edge">
<title>Node2&#45;&gt;Node15</title>
<path fill="none" stroke="#191970" d="M2192.7797,-399.3043C2306.4888,-390.2094 2505.2739,-373.4929 2675.2575,-355 2691.5746,-353.2248 2709.1017,-351.1039 2725.6106,-349.0093"/>
<polygon fill="#191970" stroke="#191970" points="2192.4097,-395.8226 2182.7197,-400.1068 2192.9664,-402.8005 2192.4097,-395.8226"/>
</g>
<!-- Node16 -->
<g id="node16" class="node">
<title>Node16</title>
<g id="a_node16"><a xlink:href="Layout_8cxx.html" target="_top" xlink:title="src/engine/ui/basics\l/Layout.cxx">
<polygon fill="none" stroke="#000000" points="1431.7575,-56.5 1431.7575,-86.5 1544.7575,-86.5 1544.7575,-56.5 1431.7575,-56.5"/>
<text text-anchor="start" x="1439.7575" y="-74.5" font-family="Helvetica,sans-Serif" font-size="10.00" fill="#000000">src/engine/ui/basics</text>
<text text-anchor="middle" x="1488.2575" y="-63.5" font-family="Helvetica,sans-Serif" font-size="10.00" fill="#000000">/Layout.cxx</text>
</a>
</g>
</g>
<!-- Node2&#45;&gt;Node16 -->
<g id="edge17" class="edge">
<title>Node2&#45;&gt;Node16</title>
<path fill="none" stroke="#191970" d="M2089.4874,-388.1051C2078.8576,-370.691 2061.5779,-344.2685 2043.2575,-324 1950.8711,-221.79 1932.3313,-180.7812 1807.2575,-123 1761.614,-101.9138 1623.492,-85.1074 1544.7753,-76.9255"/>
<polygon fill="#191970" stroke="#191970" points="2086.5299,-389.9787 2094.6732,-396.7564 2092.5339,-386.3798 2086.5299,-389.9787"/>
</g>
<!-- Node17 -->
<g id="node17" class="node">
<title>Node17</title>
<g id="a_node17"><a xlink:href="UIElement_8cxx.html" target="_top" xlink:title="src/engine/ui/basics\l/UIElement.cxx">
<polygon fill="none" stroke="#000000" points="1384.7575,-324.5 1384.7575,-354.5 1497.7575,-354.5 1497.7575,-324.5 1384.7575,-324.5"/>
<text text-anchor="start" x="1392.7575" y="-342.5" font-family="Helvetica,sans-Serif" font-size="10.00" fill="#000000">src/engine/ui/basics</text>
<text text-anchor="middle" x="1441.2575" y="-331.5" font-family="Helvetica,sans-Serif" font-size="10.00" fill="#000000">/UIElement.cxx</text>
</a>
</g>
</g>
<!-- Node2&#45;&gt;Node17 -->
<g id="edge18" class="edge">
<title>Node2&#45;&gt;Node17</title>
<path fill="none" stroke="#191970" d="M2007.7782,-402.598C1890.6813,-396.7122 1683.0032,-383.1181 1507.2575,-355 1504.2357,-354.5165 1501.1469,-353.9714 1498.0359,-353.3821"/>
<polygon fill="#191970" stroke="#191970" points="2007.6222,-406.0945 2017.783,-403.0931 2007.9683,-399.103 2007.6222,-406.0945"/>
</g>
<!-- Node18 -->
<g id="node18" class="node">
<title>Node18</title>
<g id="a_node18"><a xlink:href="Text_8cxx.html" target="_top" xlink:title="src/engine/ui/widgets\l/Text.cxx">
<polygon fill="none" stroke="#000000" points="1511.2575,-257.5 1511.2575,-287.5 1631.2575,-287.5 1631.2575,-257.5 1511.2575,-257.5"/>
<text text-anchor="start" x="1519.2575" y="-275.5" font-family="Helvetica,sans-Serif" font-size="10.00" fill="#000000">src/engine/ui/widgets</text>
<text text-anchor="middle" x="1571.2575" y="-264.5" font-family="Helvetica,sans-Serif" font-size="10.00" fill="#000000">/Text.cxx</text>
</a>
</g>
</g>
<!-- Node2&#45;&gt;Node18 -->
<g id="edge19" class="edge">
<title>Node2&#45;&gt;Node18</title>
<path fill="none" stroke="#191970" d="M2008.0405,-398.45C1917.3452,-389.6279 1785.7888,-374.1488 1738.2575,-355 1716.4045,-346.1961 1715.829,-335.4837 1695.2575,-324 1669.4079,-309.57 1638.6884,-296.7826 1614.2927,-287.5595"/>
<polygon fill="#191970" stroke="#191970" points="2007.7722,-401.9402 2018.0615,-399.4139 2008.4426,-394.9724 2007.7722,-401.9402"/>
</g>
<!-- Node19 -->
<g id="node19" class="node">
<title>Node19</title>
<g id="a_node19"><a xlink:href="UIManager_8cxx.html" target="_top" xlink:title="src/engine/UIManager.cxx">
<polygon fill="none" stroke="#000000" points="2067.2575,-62 2067.2575,-81 2209.2575,-81 2209.2575,-62 2067.2575,-62"/>
<text text-anchor="middle" x="2138.2575" y="-69" font-family="Helvetica,sans-Serif" font-size="10.00" fill="#000000">src/engine/UIManager.cxx</text>
</a>
</g>
</g>
<!-- Node2&#45;&gt;Node19 -->
<g id="edge20" class="edge">
<title>Node2&#45;&gt;Node19</title>
<path fill="none" stroke="#191970" d="M2109.2818,-387.4105C2120.5199,-361.8445 2138.2575,-314.7935 2138.2575,-272.5 2138.2575,-272.5 2138.2575,-272.5 2138.2575,-205.5 2138.2575,-158.9722 2138.2575,-103.357 2138.2575,-81.2517"/>
<polygon fill="#191970" stroke="#191970" points="2106.0179,-386.1333 2105.0702,-396.6857 2112.3916,-389.0274 2106.0179,-386.1333"/>
</g>
<!-- Node20 -->
<g id="node20" class="node">
<title>Node20</title>
<g id="a_node20"><a xlink:href="WindowManager_8cxx.html" target="_top" xlink:title="src/engine/WindowManager.cxx">
<polygon fill="none" stroke="#000000" points="1516.2575,-330 1516.2575,-349 1686.2575,-349 1686.2575,-330 1516.2575,-330"/>
<text text-anchor="middle" x="1601.2575" y="-337" font-family="Helvetica,sans-Serif" font-size="10.00" fill="#000000">src/engine/WindowManager.cxx</text>
</a>
</g>
</g>
<!-- Node2&#45;&gt;Node20 -->
<g id="edge21" class="edge">
<title>Node2&#45;&gt;Node20</title>
<path fill="none" stroke="#191970" d="M2011.0647,-395.7229C1929.9397,-385.7527 1806.9468,-370.2172 1700.2575,-355 1687.3406,-353.1576 1673.4949,-351.0644 1660.3734,-349.0255"/>
<polygon fill="#191970" stroke="#191970" points="2010.8876,-399.2273 2021.2394,-396.9711 2011.7401,-392.2794 2010.8876,-399.2273"/>
</g>
<!-- Node21 -->
<g id="node21" class="node">
<title>Node21</title>
<g id="a_node21"><a xlink:href="Game_8cxx.html" target="_top" xlink:title="src/Game.cxx">
<polygon fill="none" stroke="#000000" points="373.7575,-.5 373.7575,-19.5 456.7575,-19.5 456.7575,-.5 373.7575,-.5"/>
<text text-anchor="middle" x="415.2575" y="-7.5" font-family="Helvetica,sans-Serif" font-size="10.00" fill="#000000">src/Game.cxx</text>
</a>
</g>
</g>
<!-- Node2&#45;&gt;Node21 -->
<g id="edge22" class="edge">
<title>Node2&#45;&gt;Node21</title>
<path fill="none" stroke="#191970" d="M2007.8705,-399.7768C1944.2022,-392.9981 1867.5475,-379.8363 1847.2575,-355 1838.5408,-344.3302 1846.2767,-337.7428 1847.2575,-324 1851.0449,-270.9291 1864.2575,-258.7059 1864.2575,-205.5 1864.2575,-205.5 1864.2575,-205.5 1864.2575,-138.5 1864.2575,-19.3829 1726.5406,-76.8218 1609.2575,-56 1494.0468,-35.5461 654.4497,-15.4146 456.8313,-10.9253"/>
<polygon fill="#191970" stroke="#191970" points="2007.6622,-403.2737 2017.9668,-400.8107 2008.3754,-396.3101 2007.6622,-403.2737"/>
</g>
<!-- Node8&#45;&gt;Node7 -->
<g id="edge8" class="edge">
<title>Node8&#45;&gt;Node7</title>
<path fill="none" stroke="#191970" d="M2970.757,-328.8893C2882.2793,-319.3727 2751.1231,-304.4113 2637.2575,-288 2625.0436,-286.2396 2611.9444,-284.136 2599.5974,-282.0548"/>
<polygon fill="#191970" stroke="#191970" points="2970.477,-332.3792 2980.7931,-329.9651 2971.2231,-325.4191 2970.477,-332.3792"/>
</g>
<!-- Node9 -->
<g id="node9" class="node">
<title>Node9</title>
<g id="a_node9"><a xlink:href="TerrainGenerator_8cxx.html" target="_top" xlink:title="src/engine/map/TerrainGenerator.cxx">
<polygon fill="none" stroke="#000000" points="3020.2575,-263 3020.2575,-282 3216.2575,-282 3216.2575,-263 3020.2575,-263"/>
<text text-anchor="middle" x="3118.2575" y="-270" font-family="Helvetica,sans-Serif" font-size="10.00" fill="#000000">src/engine/map/TerrainGenerator.cxx</text>
</a>
</g>
</g>
<!-- Node8&#45;&gt;Node9 -->
<g id="edge9" class="edge">
<title>Node8&#45;&gt;Node9</title>
<path fill="none" stroke="#191970" d="M3085.3602,-321.4803C3093.8777,-308.7989 3104.9432,-292.3235 3111.822,-282.0817"/>
<polygon fill="#191970" stroke="#191970" points="3082.375,-319.6477 3079.7049,-329.9005 3088.186,-323.5506 3082.375,-319.6477"/>
</g>
<!-- Node8&#45;&gt;Node10 -->
<g id="edge10" class="edge">
<title>Node8&#45;&gt;Node10</title>
<path fill="none" stroke="#191970" d="M3046.097,-325.0575C3021.6477,-312.0567 2986.4075,-293.3179 2965.2767,-282.0817"/>
<polygon fill="#191970" stroke="#191970" points="3044.7322,-328.2958 3055.2048,-329.9005 3048.0187,-322.1152 3044.7322,-328.2958"/>
</g>
<!-- Node8&#45;&gt;Node11 -->
<g id="edge11" class="edge">
<title>Node8&#45;&gt;Node11</title>
<path fill="none" stroke="#191970" d="M3013.2157,-328.039C2945.264,-315.0682 2835.7991,-294.1732 2772.2861,-282.0496"/>
<polygon fill="#191970" stroke="#191970" points="3012.8616,-331.5346 3023.3405,-329.9717 3014.1741,-324.6587 3012.8616,-331.5346"/>
</g>
<!-- Node22&#45;&gt;Node14 -->
<g id="edge79" class="edge">
<title>Node22&#45;&gt;Node14</title>
<path fill="none" stroke="#191970" d="M1118.1751,-471.3477C1359.0133,-465.6098 1984.6743,-448.5516 2191.2575,-422 2321.6174,-405.2452 2473.3644,-366.9513 2540.3911,-349.0515"/>
<polygon fill="#191970" stroke="#191970" points="1117.9521,-467.8519 1108.0378,-471.5879 1118.118,-474.8499 1117.9521,-467.8519"/>
</g>
<!-- Node22&#45;&gt;Node20 -->
<g id="edge81" class="edge">
<title>Node22&#45;&gt;Node20</title>
<path fill="none" stroke="#191970" d="M1073.2356,-461.702C1186.329,-435.5284 1456.3896,-373.0273 1559.904,-349.0706"/>
<polygon fill="#191970" stroke="#191970" points="1072.3869,-458.3058 1063.4336,-463.9705 1073.9653,-465.1255 1072.3869,-458.3058"/>
</g>
<!-- Node22&#45;&gt;Node21 -->
<g id="edge82" class="edge">
<title>Node22&#45;&gt;Node21</title>
<path fill="none" stroke="#191970" d="M926.2939,-470.8699C672.3756,-462.642 2.2575,-432.1508 2.2575,-339.5 2.2575,-339.5 2.2575,-339.5 2.2575,-138.5 2.2575,-100.8735 -6.7725,-81.1013 21.2575,-56 47.1655,-32.799 277.4996,-17.5716 373.519,-12.1798"/>
<polygon fill="#191970" stroke="#191970" points="926.5034,-474.3783 936.6101,-471.1993 926.7269,-467.3819 926.5034,-474.3783"/>
</g>
<!-- Node22&#45;&gt;Node23 -->
<g id="edge25" class="edge">
<title>Node22&#45;&gt;Node23</title>
<path fill="none" stroke="#191970" d="M926.422,-466.9778C822.521,-456.288 654.8739,-428.2441 530.2575,-355 498.1907,-336.1526 471.6677,-299.5049 460.2663,-282.1099"/>
<polygon fill="#191970" stroke="#191970" points="926.2882,-470.4816 936.5856,-467.9889 926.9813,-463.516 926.2882,-470.4816"/>
</g>
<!-- Node26 -->
<g id="node26" class="node">
<title>Node26</title>
<g id="a_node26"><a xlink:href="UIElement_8hxx.html" target="_top" xlink:title="src/engine/ui/basics\l/UIElement.hxx">
<polygon fill="none" stroke="#000000" points="965.7575,-391.5 965.7575,-421.5 1078.7575,-421.5 1078.7575,-391.5 965.7575,-391.5"/>
<text text-anchor="start" x="973.7575" y="-409.5" font-family="Helvetica,sans-Serif" font-size="10.00" fill="#000000">src/engine/ui/basics</text>
<text text-anchor="middle" x="1022.2575" y="-398.5" font-family="Helvetica,sans-Serif" font-size="10.00" fill="#000000">/UIElement.hxx</text>
</a>
</g>
</g>
<!-- Node22&#45;&gt;Node26 -->
<g id="edge35" class="edge">
<title>Node22&#45;&gt;Node26</title>
<path fill="none" stroke="#191970" d="M1022.2575,-453.7758C1022.2575,-443.4641 1022.2575,-431.0437 1022.2575,-421.5218"/>
<polygon fill="#191970" stroke="#191970" points="1018.7576,-453.9005 1022.2575,-463.9005 1025.7576,-453.9006 1018.7576,-453.9005"/>
</g>
<!-- Node51 -->
<g id="node44" class="node">
<title>Node51</title>
<g id="a_node44"><a xlink:href="Sprite_8cxx.html" target="_top" xlink:title="src/engine/Sprite.cxx">
<polygon fill="none" stroke="#000000" points="2508.7575,-397 2508.7575,-416 2627.7575,-416 2627.7575,-397 2508.7575,-397"/>
<text text-anchor="middle" x="2568.2575" y="-404" font-family="Helvetica,sans-Serif" font-size="10.00" fill="#000000">src/engine/Sprite.cxx</text>
</a>
</g>
</g>
<!-- Node22&#45;&gt;Node51 -->
<g id="edge80" class="edge">
<title>Node22&#45;&gt;Node51</title>
<path fill="none" stroke="#191970" d="M1117.9758,-470.7059C1335.3245,-464.1541 1882.7541,-446.4843 2340.2575,-422 2397.3074,-418.9468 2462.3168,-414.4242 2508.2803,-411.0513"/>
<polygon fill="#191970" stroke="#191970" points="1117.7673,-467.2105 1107.877,-471.0095 1117.9777,-474.2073 1117.7673,-467.2105"/>
</g>
<!-- Node23&#45;&gt;Node5 -->
<g id="edge26" class="edge">
<title>Node23&#45;&gt;Node5</title>
<path fill="none" stroke="#191970" d="M489.2648,-259.2487C523.6713,-246.2247 575.3417,-226.6659 605.9447,-215.0817"/>
<polygon fill="#191970" stroke="#191970" points="487.7306,-256.087 479.6173,-262.9005 490.2088,-262.6336 487.7306,-256.087"/>
</g>
<!-- Node23&#45;&gt;Node6 -->
<g id="edge27" class="edge">
<title>Node23&#45;&gt;Node6</title>
<path fill="none" stroke="#191970" d="M525.7605,-261.436C609.3738,-248.4982 746.3861,-227.2977 825.5413,-215.0496"/>
<polygon fill="#191970" stroke="#191970" points="525.1832,-257.9836 515.836,-262.9717 526.2536,-264.9013 525.1832,-257.9836"/>
</g>
<!-- Node23&#45;&gt;Node12 -->
<g id="edge32" class="edge">
<title>Node23&#45;&gt;Node12</title>
<path fill="none" stroke="#191970" d="M526.4098,-263.8134C550.2109,-261.2363 576.8385,-258.6614 601.2575,-257 1119.4172,-221.7456 1250.3834,-243.4061 1769.2575,-221 1844.0179,-217.7717 1929.978,-212.8064 1986.4994,-209.3694"/>
<polygon fill="#191970" stroke="#191970" points="525.9541,-260.3423 516.397,-264.9153 526.7199,-267.3003 525.9541,-260.3423"/>
</g>
<!-- Node23&#45;&gt;Node19 -->
<g id="edge33" class="edge">
<title>Node23&#45;&gt;Node19</title>
<path fill="none" stroke="#191970" d="M381.813,-269.2839C298.8081,-263.0043 179.9664,-244.4944 227.2575,-190 365.8413,-30.3075 487.6448,-141.6935 698.2575,-123 834.9951,-110.8635 1795.8972,-81.6778 2067.1247,-73.6021"/>
<polygon fill="#191970" stroke="#191970" points="381.7745,-272.7899 391.9975,-270.0075 382.2707,-265.8075 381.7745,-272.7899"/>
</g>
<!-- Node23&#45;&gt;Node21 -->
<g id="edge34" class="edge">
<title>Node23&#45;&gt;Node21</title>
<path fill="none" stroke="#191970" d="M381.7732,-266.8899C318.699,-260.3236 234.1898,-246.8781 213.2575,-221 145.9632,-137.806 326.8253,-48.4121 392.489,-19.5552"/>
<polygon fill="#191970" stroke="#191970" points="381.7942,-270.4094 392.0932,-267.9235 382.4919,-263.4442 381.7942,-270.4094"/>
</g>
<!-- Node23&#45;&gt;Node24 -->
<g id="edge28" class="edge">
<title>Node23&#45;&gt;Node24</title>
<path fill="none" stroke="#191970" d="M381.9528,-266.2421C288.5292,-257.4325 135.7233,-240.2794 118.2575,-221 81.9599,-180.9334 99.3646,-107.2817 107.1675,-81.0709"/>
<polygon fill="#191970" stroke="#191970" points="381.6373,-269.7278 391.9192,-267.1715 382.2874,-262.758 381.6373,-269.7278"/>
</g>
<!-- Node24&#45;&gt;Node13 -->
<g id="edge30" class="edge">
<title>Node24&#45;&gt;Node13</title>
<path fill="none" stroke="#191970" d="M200.3792,-64.2507C241.4879,-61.2119 290.8076,-57.9402 335.2575,-56 821.2659,-34.7857 2376.3693,-15.3376 2746.5998,-10.9304"/>
<polygon fill="#191970" stroke="#191970" points="200.0971,-60.7619 190.3854,-64.9968 200.6183,-67.7425 200.0971,-60.7619"/>
</g>
<!-- Node24&#45;&gt;Node21 -->
<g id="edge31" class="edge">
<title>Node24&#45;&gt;Node21</title>
<path fill="none" stroke="#191970" d="M167.6532,-59.9268C227.672,-47.8246 320.4014,-29.1267 373.7083,-18.378"/>
<polygon fill="#191970" stroke="#191970" points="166.69,-56.5505 157.5791,-61.9581 168.0736,-63.4124 166.69,-56.5505"/>
</g>
<!-- Node25 -->
<g id="node25" class="node">
<title>Node25</title>
<g id="a_node25"><a xlink:href="Timer_8cxx.html" target="_top" xlink:title="src/engine/basics/Timer.cxx">
<polygon fill="none" stroke="#000000" points="34.2575,-.5 34.2575,-19.5 186.2575,-19.5 186.2575,-.5 34.2575,-.5"/>
<text text-anchor="middle" x="110.2575" y="-7.5" font-family="Helvetica,sans-Serif" font-size="10.00" fill="#000000">src/engine/basics/Timer.cxx</text>
</a>
</g>
</g>
<!-- Node24&#45;&gt;Node25 -->
<g id="edge29" class="edge">
<title>Node24&#45;&gt;Node25</title>
<path fill="none" stroke="#191970" d="M110.2575,-51.7462C110.2575,-41.0519 110.2575,-28.314 110.2575,-19.7449"/>
<polygon fill="#191970" stroke="#191970" points="106.7576,-51.8906 110.2575,-61.8906 113.7576,-51.8907 106.7576,-51.8906"/>
</g>
<!-- Node26&#45;&gt;Node17 -->
<g id="edge74" class="edge">
<title>Node26&#45;&gt;Node17</title>
<path fill="none" stroke="#191970" d="M1088.8433,-398.016C1159.0488,-388.7509 1272.7696,-372.8335 1370.2575,-355 1374.9736,-354.1373 1379.854,-353.1892 1384.746,-352.2"/>
<polygon fill="#191970" stroke="#191970" points="1088.267,-394.5615 1078.808,-399.3342 1089.1786,-401.5019 1088.267,-394.5615"/>
</g>
<!-- Node26&#45;&gt;Node27 -->
<g id="edge36" class="edge">
<title>Node26&#45;&gt;Node27</title>
<path fill="none" stroke="#191970" d="M955.9369,-393.4894C912.1212,-383.7931 859.6787,-369.7317 842.2575,-355 791.8609,-312.3839 792.8401,-285.3685 778.2575,-221 772.4345,-195.2972 774.9821,-163.9225 776.8757,-148.3074"/>
<polygon fill="#191970" stroke="#191970" points="955.1963,-396.91 965.7114,-395.6129 956.6824,-390.0696 955.1963,-396.91"/>
</g>
<!-- Node29 -->
<g id="node29" class="node">
<title>Node29</title>
<g id="a_node29"><a xlink:href="Layout_8hxx.html" target="_top" xlink:title="src/engine/ui/basics\l/Layout.hxx">
<polygon fill="none" stroke="#000000" points="1646.7575,-190.5 1646.7575,-220.5 1759.7575,-220.5 1759.7575,-190.5 1646.7575,-190.5"/>
<text text-anchor="start" x="1654.7575" y="-208.5" font-family="Helvetica,sans-Serif" font-size="10.00" fill="#000000">src/engine/ui/basics</text>
<text text-anchor="middle" x="1703.2575" y="-197.5" font-family="Helvetica,sans-Serif" font-size="10.00" fill="#000000">/Layout.hxx</text>
</a>
</g>
</g>
<!-- Node26&#45;&gt;Node29 -->
<g id="edge42" class="edge">
<title>Node26&#45;&gt;Node29</title>
<path fill="none" stroke="#191970" d="M1088.9745,-398.7962C1137.4029,-391.5854 1203.7162,-378.3126 1258.2575,-355 1280.9271,-345.3103 1281.0974,-332.4507 1304.2575,-324 1445.3468,-272.5193 1509.3787,-361.6694 1640.2575,-288 1667.5834,-272.6187 1686.8676,-240.0334 1696.4179,-220.7366"/>
<polygon fill="#191970" stroke="#191970" points="1088.3213,-395.3541 1078.9226,-400.2443 1089.3195,-402.2825 1088.3213,-395.3541"/>
</g>
<!-- Node30 -->
<g id="node30" class="node">
<title>Node30</title>
<g id="a_node30"><a xlink:href="ButtonGroup_8hxx.html" target="_top" xlink:title="src/engine/ui/basics\l/ButtonGroup.hxx">
<polygon fill="none" stroke="#000000" points="986.7575,-190.5 986.7575,-220.5 1099.7575,-220.5 1099.7575,-190.5 986.7575,-190.5"/>
<text text-anchor="start" x="994.7575" y="-208.5" font-family="Helvetica,sans-Serif" font-size="10.00" fill="#000000">src/engine/ui/basics</text>
<text text-anchor="middle" x="1043.2575" y="-197.5" font-family="Helvetica,sans-Serif" font-size="10.00" fill="#000000">/ButtonGroup.hxx</text>
</a>
</g>
</g>
<!-- Node26&#45;&gt;Node30 -->
<g id="edge45" class="edge">
<title>Node26&#45;&gt;Node30</title>
<path fill="none" stroke="#191970" d="M956.0482,-389.4077C932.6048,-381.366 906.9401,-370.136 886.2575,-355 846.2978,-325.7566 802.6965,-295.9612 833.2575,-257 834.4756,-255.447 924.8014,-233.6901 986.5808,-218.9572"/>
<polygon fill="#191970" stroke="#191970" points="954.9998,-392.7473 965.5928,-392.5519 957.19,-386.0987 954.9998,-392.7473"/>
</g>
<!-- Node31 -->
<g id="node31" class="node">
<title>Node31</title>
<g id="a_node31"><a xlink:href="IMenuGroup_8hxx.html" target="_top" xlink:title="src/engine/ui/menuGroups\l/IMenuGroup.hxx">
<polygon fill="none" stroke="#000000" points="1516.2575,-123.5 1516.2575,-153.5 1660.2575,-153.5 1660.2575,-123.5 1516.2575,-123.5"/>
<text text-anchor="start" x="1524.2575" y="-141.5" font-family="Helvetica,sans-Serif" font-size="10.00" fill="#000000">src/engine/ui/menuGroups</text>
<text text-anchor="middle" x="1588.2575" y="-130.5" font-family="Helvetica,sans-Serif" font-size="10.00" fill="#000000">/IMenuGroup.hxx</text>
</a>
</g>
</g>
<!-- Node26&#45;&gt;Node31 -->
<g id="edge75" class="edge">
<title>Node26&#45;&gt;Node31</title>
<path fill="none" stroke="#191970" d="M1089.2472,-401.3092C1145.8288,-395.1957 1228.1304,-382.183 1295.2575,-355 1318.4514,-345.6077 1318.7187,-332.491 1342.2575,-324 1480.2097,-274.2371 1532.6034,-338.5819 1670.2575,-288 1720.1265,-269.6753 1744.3512,-267.9297 1769.2575,-221 1775.7163,-208.8299 1777.5604,-200.9949 1769.2575,-190 1762.0712,-180.4837 1704.2104,-165.0713 1655.813,-153.5832"/>
<polygon fill="#191970" stroke="#191970" points="1088.5768,-397.8599 1078.991,-402.3723 1089.2986,-404.8225 1088.5768,-397.8599"/>
</g>
<!-- Node32 -->
<g id="node32" class="node">
<title>Node32</title>
<g id="a_node32"><a xlink:href="Button_8hxx.html" target="_top" xlink:title="src/engine/ui/widgets\l/Button.hxx">
<polygon fill="none" stroke="#000000" points="983.2575,-257.5 983.2575,-287.5 1103.2575,-287.5 1103.2575,-257.5 983.2575,-257.5"/>
<text text-anchor="start" x="991.2575" y="-275.5" font-family="Helvetica,sans-Serif" font-size="10.00" fill="#000000">src/engine/ui/widgets</text>
<text text-anchor="middle" x="1043.2575" y="-264.5" font-family="Helvetica,sans-Serif" font-size="10.00" fill="#000000">/Button.hxx</text>
</a>
</g>
</g>
<!-- Node26&#45;&gt;Node32 -->
<g id="edge49" class="edge">
<title>Node26&#45;&gt;Node32</title>
<path fill="none" stroke="#191970" d="M960.3867,-387.7323C924.673,-373.4928 890.2556,-351.6598 909.2575,-324 918.5716,-310.442 953.907,-297.1734 985.9529,-287.5005"/>
<polygon fill="#191970" stroke="#191970" points="959.3637,-391.0877 969.9549,-391.3665 961.8493,-384.5438 959.3637,-391.0877"/>
</g>
<!-- Node34 -->
<g id="node34" class="node">
<title>Node34</title>
<g id="a_node34"><a xlink:href="Text_8hxx.html" target="_top" xlink:title="src/engine/ui/widgets\l/Text.hxx">
<polygon fill="none" stroke="#000000" points="918.2575,-324.5 918.2575,-354.5 1038.2575,-354.5 1038.2575,-324.5 918.2575,-324.5"/>
<text text-anchor="start" x="926.2575" y="-342.5" font-family="Helvetica,sans-Serif" font-size="10.00" fill="#000000">src/engine/ui/widgets</text>
<text text-anchor="middle" x="978.2575" y="-331.5" font-family="Helvetica,sans-Serif" font-size="10.00" fill="#000000">/Text.hxx</text>
</a>
</g>
</g>
<!-- Node26&#45;&gt;Node34 -->
<g id="edge53" class="edge">
<title>Node26&#45;&gt;Node34</title>
<path fill="none" stroke="#191970" d="M1006.6759,-382.7735C1000.5303,-373.4154 993.6523,-362.9421 988.2023,-354.6432"/>
<polygon fill="#191970" stroke="#191970" points="1003.8583,-384.8592 1012.2732,-391.2967 1009.7094,-381.0167 1003.8583,-384.8592"/>
</g>
<!-- Node35 -->
<g id="node35" class="node">
<title>Node35</title>
<g id="a_node35"><a xlink:href="TextField_8hxx.html" target="_top" xlink:title="src/engine/ui/widgets\l/TextField.hxx">
<polygon fill="none" stroke="#000000" points="1332.2575,-257.5 1332.2575,-287.5 1452.2575,-287.5 1452.2575,-257.5 1332.2575,-257.5"/>
<text text-anchor="start" x="1340.2575" y="-275.5" font-family="Helvetica,sans-Serif" font-size="10.00" fill="#000000">src/engine/ui/widgets</text>
<text text-anchor="middle" x="1392.2575" y="-264.5" font-family="Helvetica,sans-Serif" font-size="10.00" fill="#000000">/TextField.hxx</text>
</a>
</g>
</g>
<!-- Node26&#45;&gt;Node35 -->
<g id="edge68" class="edge">
<title>Node26&#45;&gt;Node35</title>
<path fill="none" stroke="#191970" d="M1034.0072,-382.4398C1044.6514,-363.3593 1062.1937,-337.6988 1085.2575,-324 1175.3488,-270.4902 1215.1639,-306.7476 1318.2575,-288 1322.7775,-287.178 1327.4447,-286.2911 1332.1345,-285.3723"/>
<polygon fill="#191970" stroke="#191970" points="1030.8164,-380.9856 1029.2096,-391.4579 1036.9963,-384.2734 1030.8164,-380.9856"/>
</g>
<!-- Node36 -->
<g id="node36" class="node">
<title>Node36</title>
<g id="a_node36"><a xlink:href="Combobox_8hxx.html" target="_top" xlink:title="src/engine/ui/widgets\l/Combobox.hxx">
<polygon fill="none" stroke="#ff0000" points="1508.2575,-190.5 1508.2575,-220.5 1628.2575,-220.5 1628.2575,-190.5 1508.2575,-190.5"/>
<text text-anchor="start" x="1516.2575" y="-208.5" font-family="Helvetica,sans-Serif" font-size="10.00" fill="#000000">src/engine/ui/widgets</text>
<text text-anchor="middle" x="1568.2575" y="-197.5" font-family="Helvetica,sans-Serif" font-size="10.00" fill="#000000">/Combobox.hxx</text>
</a>
</g>
</g>
<!-- Node26&#45;&gt;Node36 -->
<g id="edge67" class="edge">
<title>Node26&#45;&gt;Node36</title>
<path fill="none" stroke="#191970" d="M1088.7406,-395.9454C1128.9591,-388.0013 1180.5471,-374.9889 1223.2575,-355 1244.5959,-345.0134 1244.5907,-333.2526 1266.2575,-324 1347.3077,-289.3883 1380.7748,-323.9116 1461.2575,-288 1463.7343,-286.8948 1518.5102,-244.3028 1548.7032,-220.7626"/>
<polygon fill="#191970" stroke="#191970" points="1087.9346,-392.5361 1078.7729,-397.8571 1089.2531,-399.4108 1087.9346,-392.5361"/>
</g>
<!-- Node39 -->
<g id="node38" class="node">
<title>Node39</title>
<g id="a_node38"><a xlink:href="Tooltip_8hxx.html" target="_top" xlink:title="src/engine/ui/widgets\l/Tooltip.hxx">
<polygon fill="none" stroke="#ff0000" points="842.2575,-257.5 842.2575,-287.5 962.2575,-287.5 962.2575,-257.5 842.2575,-257.5"/>
<text text-anchor="start" x="850.2575" y="-275.5" font-family="Helvetica,sans-Serif" font-size="10.00" fill="#000000">src/engine/ui/widgets</text>
<text text-anchor="middle" x="902.2575" y="-264.5" font-family="Helvetica,sans-Serif" font-size="10.00" fill="#000000">/Tooltip.hxx</text>
</a>
</g>
</g>
<!-- Node26&#45;&gt;Node39 -->
<g id="edge71" class="edge">
<title>Node26&#45;&gt;Node39</title>
<path fill="none" stroke="#191970" d="M955.8629,-394.1423C934.1088,-386.5998 912.2166,-374.4752 899.2575,-355 885.8391,-334.8347 891.4446,-305.3399 896.8043,-287.6216"/>
<polygon fill="#191970" stroke="#191970" points="954.8918,-397.5061 965.4821,-397.1987 957.0116,-390.8348 954.8918,-397.5061"/>
</g>
<!-- Node41 -->
<g id="node39" class="node">
<title>Node41</title>
<g id="a_node39"><a xlink:href="Checkbox_8hxx.html" target="_top" xlink:title="src/engine/ui/widgets\l/Checkbox.hxx">
<polygon fill="none" stroke="#ff0000" points="374.2575,-190.5 374.2575,-220.5 494.2575,-220.5 494.2575,-190.5 374.2575,-190.5"/>
<text text-anchor="start" x="382.2575" y="-208.5" font-family="Helvetica,sans-Serif" font-size="10.00" fill="#000000">src/engine/ui/widgets</text>
<text text-anchor="middle" x="434.2575" y="-197.5" font-family="Helvetica,sans-Serif" font-size="10.00" fill="#000000">/Checkbox.hxx</text>
</a>
</g>
</g>
<!-- Node26&#45;&gt;Node41 -->
<g id="edge65" class="edge">
<title>Node26&#45;&gt;Node41</title>
<path fill="none" stroke="#191970" d="M955.3241,-399.0344C875.7383,-389.5768 748.0461,-372.404 703.2575,-355 652.7016,-335.355 645.9332,-318.7556 601.2575,-288 581.8516,-274.6406 578.829,-268.4837 558.2575,-257 532.4079,-242.57 501.6884,-229.7826 477.2927,-220.5595"/>
<polygon fill="#191970" stroke="#191970" points="955.4003,-402.5674 965.741,-400.2609 956.2189,-395.6155 955.4003,-402.5674"/>
</g>
<!-- Node43 -->
<g id="node40" class="node">
<title>Node43</title>
<g id="a_node40"><a xlink:href="Frame_8hxx.html" target="_top" xlink:title="src/engine/ui/widgets\l/Frame.hxx">
<polygon fill="none" stroke="#ff0000" points="610.2575,-257.5 610.2575,-287.5 730.2575,-287.5 730.2575,-257.5 610.2575,-257.5"/>
<text text-anchor="start" x="618.2575" y="-275.5" font-family="Helvetica,sans-Serif" font-size="10.00" fill="#000000">src/engine/ui/widgets</text>
<text text-anchor="middle" x="670.2575" y="-264.5" font-family="Helvetica,sans-Serif" font-size="10.00" fill="#000000">/Frame.hxx</text>
</a>
</g>
</g>
<!-- Node26&#45;&gt;Node43 -->
<g id="edge69" class="edge">
<title>Node26&#45;&gt;Node43</title>
<path fill="none" stroke="#191970" d="M955.3999,-399.1371C885.0149,-390.5086 779.599,-374.8344 744.2575,-355 715.2303,-338.7094 691.6408,-306.7604 679.3958,-287.756"/>
<polygon fill="#191970" stroke="#191970" points="955.1704,-402.6347 965.5178,-400.3587 956.0095,-395.6852 955.1704,-402.6347"/>
</g>
<!-- Node45 -->
<g id="node41" class="node">
<title>Node45</title>
<g id="a_node41"><a xlink:href="Slider_8hxx.html" target="_top" xlink:title="src/engine/ui/widgets\l/Slider.hxx">
<polygon fill="none" stroke="#ff0000" points="236.2575,-190.5 236.2575,-220.5 356.2575,-220.5 356.2575,-190.5 236.2575,-190.5"/>
<text text-anchor="start" x="244.2575" y="-208.5" font-family="Helvetica,sans-Serif" font-size="10.00" fill="#000000">src/engine/ui/widgets</text>
<text text-anchor="middle" x="296.2575" y="-197.5" font-family="Helvetica,sans-Serif" font-size="10.00" fill="#000000">/Slider.hxx</text>
</a>
</g>
</g>
<!-- Node26&#45;&gt;Node45 -->
<g id="edge72" class="edge">
<title>Node26&#45;&gt;Node45</title>
<path fill="none" stroke="#191970" d="M955.4994,-401.6053C862.4363,-394.0698 698.9721,-378.0446 644.2575,-355 599.6039,-336.1929 595.0651,-319.5096 558.2575,-288 542.9707,-274.9136 543.0346,-266.4293 525.2575,-257 525.138,-256.9366 424.193,-234.247 356.3841,-219.0096"/>
<polygon fill="#191970" stroke="#191970" points="955.4123,-405.1094 965.6592,-402.4169 955.9697,-398.1316 955.4123,-405.1094"/>
</g>
<!-- Node47 -->
<g id="node42" class="node">
<title>Node47</title>
<g id="a_node42"><a xlink:href="Bar_8hxx.html" target="_top" xlink:title="src/engine/ui/widgets\l/Bar.hxx">
<polygon fill="none" stroke="#ff0000" points="1094.2575,-324.5 1094.2575,-354.5 1214.2575,-354.5 1214.2575,-324.5 1094.2575,-324.5"/>
<text text-anchor="start" x="1102.2575" y="-342.5" font-family="Helvetica,sans-Serif" font-size="10.00" fill="#000000">src/engine/ui/widgets</text>
<text text-anchor="middle" x="1154.2575" y="-331.5" font-family="Helvetica,sans-Serif" font-size="10.00" fill="#000000">/Bar.hxx</text>
</a>
</g>
</g>
<!-- Node26&#45;&gt;Node47 -->
<g id="edge76" class="edge">
<title>Node26&#45;&gt;Node47</title>
<path fill="none" stroke="#191970" d="M1060.8464,-386.9132C1081.0762,-376.645 1105.4842,-364.2561 1124.2763,-354.7177"/>
<polygon fill="#191970" stroke="#191970" points="1059.2138,-383.8168 1051.8809,-391.4639 1062.3821,-390.0587 1059.2138,-383.8168"/>
</g>
<!-- Node49 -->
<g id="node43" class="node">
<title>Node49</title>
<g id="a_node43"><a xlink:href="Image_8hxx.html" target="_top" xlink:title="src/engine/ui/widgets\l/Image.hxx">
<polygon fill="none" stroke="#ff0000" points="1678.2575,-123.5 1678.2575,-153.5 1798.2575,-153.5 1798.2575,-123.5 1678.2575,-123.5"/>
<text text-anchor="start" x="1686.2575" y="-141.5" font-family="Helvetica,sans-Serif" font-size="10.00" fill="#000000">src/engine/ui/widgets</text>
<text text-anchor="middle" x="1738.2575" y="-130.5" font-family="Helvetica,sans-Serif" font-size="10.00" fill="#000000">/Image.hxx</text>
</a>
</g>
</g>
<!-- Node26&#45;&gt;Node49 -->
<g id="edge77" class="edge">
<title>Node26&#45;&gt;Node49</title>
<path fill="none" stroke="#191970" d="M1089.0266,-398.945C1166.5649,-389.5553 1289.3237,-372.6079 1332.2575,-355 1354.3902,-345.923 1353.8623,-332.4084 1376.2575,-324 1519.7581,-270.1216 1581.1518,-354.499 1719.2575,-288 1756.9181,-269.8661 1769.407,-259.6771 1785.2575,-221 1790.4821,-208.2513 1790.2381,-202.846 1785.2575,-190 1779.744,-175.7796 1768.2722,-163.0816 1758.0429,-153.8523"/>
<polygon fill="#191970" stroke="#191970" points="1088.3795,-395.4974 1078.8674,-400.1634 1089.2131,-402.4476 1088.3795,-395.4974"/>
</g>
<!-- Node27&#45;&gt;Node16 -->
<g id="edge39" class="edge">
<title>Node27&#45;&gt;Node16</title>
<path fill="none" stroke="#191970" d="M860.1311,-130.7739C1005.8152,-117.0262 1306.4798,-88.6537 1431.6465,-76.8422"/>
<polygon fill="#191970" stroke="#191970" points="859.5412,-127.3139 849.9142,-131.738 860.1989,-134.283 859.5412,-127.3139"/>
</g>
<!-- Node27&#45;&gt;Node19 -->
<g id="edge40" class="edge">
<title>Node27&#45;&gt;Node19</title>
<path fill="none" stroke="#191970" d="M860.2394,-134.4612C1106.2945,-122.3394 1835.6782,-86.4065 2067.0161,-75.0097"/>
<polygon fill="#191970" stroke="#191970" points="859.7544,-130.9807 849.9388,-134.9686 860.0989,-137.9723 859.7544,-130.9807"/>
</g>
<!-- Node27&#45;&gt;Node21 -->
<g id="edge41" class="edge">
<title>Node27&#45;&gt;Node21</title>
<path fill="none" stroke="#191970" d="M741.5848,-125.5181C668.6277,-99.6917 506.7858,-42.4005 442.4226,-19.6163"/>
<polygon fill="#191970" stroke="#191970" points="740.6753,-128.9089 751.2701,-128.9466 743.0112,-122.3101 740.6753,-128.9089"/>
</g>
<!-- Node27&#45;&gt;Node24 -->
<g id="edge37" class="edge">
<title>Node27&#45;&gt;Node24</title>
<path fill="none" stroke="#191970" d="M696.2373,-130.2734C567.1948,-117.3305 318.3221,-92.3688 190.4326,-79.5415"/>
<polygon fill="#191970" stroke="#191970" points="696.1533,-133.7825 706.4527,-131.298 696.852,-126.8174 696.1533,-133.7825"/>
</g>
<!-- Node28 -->
<g id="node28" class="node">
<title>Node28</title>
<g id="a_node28"><a xlink:href="ButtonGroup_8cxx.html" target="_top" xlink:title="src/engine/ui/basics\l/ButtonGroup.cxx">
<polygon fill="none" stroke="#000000" points="344.7575,-56.5 344.7575,-86.5 457.7575,-86.5 457.7575,-56.5 344.7575,-56.5"/>
<text text-anchor="start" x="352.7575" y="-74.5" font-family="Helvetica,sans-Serif" font-size="10.00" fill="#000000">src/engine/ui/basics</text>
<text text-anchor="middle" x="401.2575" y="-63.5" font-family="Helvetica,sans-Serif" font-size="10.00" fill="#000000">/ButtonGroup.cxx</text>
</a>
</g>
</g>
<!-- Node27&#45;&gt;Node28 -->
<g id="edge38" class="edge">
<title>Node27&#45;&gt;Node28</title>
<path fill="none" stroke="#191970" d="M714.7964,-127.2218C642.8654,-114.4383 526.685,-93.7908 457.7651,-81.5425"/>
<polygon fill="#191970" stroke="#191970" points="714.1848,-130.6678 724.643,-128.9717 715.4097,-123.7758 714.1848,-130.6678"/>
</g>
<!-- Node29&#45;&gt;Node16 -->
<g id="edge44" class="edge">
<title>Node29&#45;&gt;Node16</title>
<path fill="none" stroke="#191970" d="M1636.9555,-189.8041C1581.946,-176.5116 1511.9728,-158.8618 1507.2575,-154 1489.7594,-135.9583 1487.1602,-105.2092 1487.3633,-86.7788"/>
<polygon fill="#191970" stroke="#191970" points="1636.1433,-193.2085 1646.6849,-192.1476 1637.7825,-186.4031 1636.1433,-193.2085"/>
</g>
<!-- Node29&#45;&gt;Node27 -->
<g id="edge43" class="edge">
<title>Node29&#45;&gt;Node27</title>
<path fill="none" stroke="#191970" d="M1636.5024,-190.1046C1467.7763,-167.0901 1024.1716,-148.0748 849.8843,-141.2163"/>
<polygon fill="#191970" stroke="#191970" points="1636.102,-193.5827 1646.494,-191.52 1637.0838,-186.6519 1636.102,-193.5827"/>
</g>
<!-- Node30&#45;&gt;Node27 -->
<g id="edge46" class="edge">
<title>Node30&#45;&gt;Node27</title>
<path fill="none" stroke="#191970" d="M976.8131,-188.7008C925.9848,-175.8499 857.7298,-158.593 815.9282,-148.0243"/>
<polygon fill="#191970" stroke="#191970" points="976.1805,-192.151 986.7334,-191.209 977.8964,-185.3645 976.1805,-192.151"/>
</g>
<!-- Node30&#45;&gt;Node28 -->
<g id="edge47" class="edge">
<title>Node30&#45;&gt;Node28</title>
<path fill="none" stroke="#191970" d="M976.57,-190.002C852.4828,-168.2197 817.6908,-178.165 698.2575,-154 608.1712,-135.7728 505.2813,-104.8692 447.3159,-86.5024"/>
<polygon fill="#191970" stroke="#191970" points="975.9929,-193.4543 986.453,-191.7702 977.2258,-186.5637 975.9929,-193.4543"/>
</g>
<!-- Node30&#45;&gt;Node31 -->
<g id="edge48" class="edge">
<title>Node30&#45;&gt;Node31</title>
<path fill="none" stroke="#191970" d="M1110.3464,-189.9496C1260.0866,-164.904 1424.0743,-150.4209 1516.0567,-143.4681"/>
<polygon fill="#191970" stroke="#191970" points="1109.3239,-186.5728 1100.0483,-191.6928 1110.4922,-193.4746 1109.3239,-186.5728"/>
</g>
<!-- Node32&#45;&gt;Node27 -->
<g id="edge51" class="edge">
<title>Node32&#45;&gt;Node27</title>
<path fill="none" stroke="#191970" d="M1113.7429,-266.9501C1188.4496,-258.4708 1290.177,-237.8904 1247.2575,-190 1221.2556,-160.9866 974.8757,-146.6536 850.0325,-141.2049"/>
<polygon fill="#191970" stroke="#191970" points="1112.9648,-263.5138 1103.3987,-268.0679 1113.7169,-270.4733 1112.9648,-263.5138"/>
</g>
<!-- Node32&#45;&gt;Node30 -->
<g id="edge50" class="edge">
<title>Node32&#45;&gt;Node30</title>
<path fill="none" stroke="#191970" d="M1043.2575,-247.0249C1043.2575,-238.128 1043.2575,-228.4287 1043.2575,-220.6432"/>
<polygon fill="#191970" stroke="#191970" points="1039.7576,-247.2966 1043.2575,-257.2967 1046.7576,-247.2967 1039.7576,-247.2966"/>
</g>
<!-- Node33 -->
<g id="node33" class="node">
<title>Node33</title>
<g id="a_node33"><a xlink:href="Button_8cxx.html" target="_top" xlink:title="src/engine/ui/widgets\l/Button.cxx">
<polygon fill="none" stroke="#000000" points="1118.2575,-190.5 1118.2575,-220.5 1238.2575,-220.5 1238.2575,-190.5 1118.2575,-190.5"/>
<text text-anchor="start" x="1126.2575" y="-208.5" font-family="Helvetica,sans-Serif" font-size="10.00" fill="#000000">src/engine/ui/widgets</text>
<text text-anchor="middle" x="1178.2575" y="-197.5" font-family="Helvetica,sans-Serif" font-size="10.00" fill="#000000">/Button.cxx</text>
</a>
</g>
</g>
<!-- Node32&#45;&gt;Node33 -->
<g id="edge52" class="edge">
<title>Node32&#45;&gt;Node33</title>
<path fill="none" stroke="#191970" d="M1082.7235,-252.9132C1103.413,-242.645 1128.3757,-230.2561 1147.5949,-220.7177"/>
<polygon fill="#191970" stroke="#191970" points="1080.9557,-249.8831 1073.5541,-257.4639 1084.0676,-256.1534 1080.9557,-249.8831"/>
</g>
<!-- Node34&#45;&gt;Node18 -->
<g id="edge63" class="edge">
<title>Node34&#45;&gt;Node18</title>
<path fill="none" stroke="#191970" d="M1048.6005,-328.8153C1060.8091,-327.1025 1073.3916,-325.4267 1085.2575,-324 1251.9325,-303.9605 1294.544,-307.7168 1461.2575,-288 1477.4413,-286.086 1494.9259,-283.7468 1511.0894,-281.4716"/>
<polygon fill="#191970" stroke="#191970" points="1047.8646,-325.3846 1038.4572,-330.2581 1048.8504,-332.3149 1047.8646,-325.3846"/>
</g>
<!-- Node34&#45;&gt;Node27 -->
<g id="edge60" class="edge">
<title>Node34&#45;&gt;Node27</title>
<path fill="none" stroke="#191970" d="M1044.4493,-321.6527C1121.3501,-299.4062 1240.96,-259.594 1266.2575,-221 1273.8105,-209.477 1275.4745,-200.2408 1266.2575,-190 1238.9371,-159.6447 978.7583,-145.8697 849.8817,-140.8674"/>
<polygon fill="#191970" stroke="#191970" points="1043.4766,-318.2905 1034.8273,-324.4093 1045.4045,-325.0198 1043.4766,-318.2905"/>
</g>
<!-- Node34&#45;&gt;Node32 -->
<g id="edge54" class="edge">
<title>Node34&#45;&gt;Node32</title>
<path fill="none" stroke="#191970" d="M1000.1583,-316.9253C1009.513,-307.2828 1020.1832,-296.2843 1028.5664,-287.6432"/>
<polygon fill="#191970" stroke="#191970" points="997.4581,-314.6821 993.007,-324.2967 1002.4822,-319.5564 997.4581,-314.6821"/>
</g>
<!-- Node34&#45;&gt;Node35 -->
<g id="edge55" class="edge">
<title>Node34&#45;&gt;Node35</title>
<path fill="none" stroke="#191970" d="M1048.4057,-324.6751C1049.6993,-324.4445 1050.9841,-324.2192 1052.2575,-324 1169.8277,-303.758 1200.6873,-308.242 1318.2575,-288 1322.785,-287.2205 1327.4577,-286.3644 1332.1513,-285.4673"/>
<polygon fill="#191970" stroke="#191970" points="1047.5602,-321.272 1038.3637,-326.5327 1048.8335,-328.1553 1047.5602,-321.272"/>
</g>
<!-- Node38 -->
<g id="node37" class="node">
<title>Node38</title>
<g id="a_node37"><a xlink:href="TextField_8cxx.html" target="_top" xlink:title="src/engine/ui/widgets\l/TextField.cxx">
<polygon fill="none" stroke="#000000" points="1332.2575,-190.5 1332.2575,-220.5 1452.2575,-220.5 1452.2575,-190.5 1332.2575,-190.5"/>
<text text-anchor="start" x="1340.2575" y="-208.5" font-family="Helvetica,sans-Serif" font-size="10.00" fill="#000000">src/engine/ui/widgets</text>
<text text-anchor="middle" x="1392.2575" y="-197.5" font-family="Helvetica,sans-Serif" font-size="10.00" fill="#000000">/TextField.cxx</text>
</a>
</g>
</g>
<!-- Node34&#45;&gt;Node38 -->
<g id="edge64" class="edge">
<title>Node34&#45;&gt;Node38</title>
<path fill="none" stroke="#191970" d="M1048.5188,-324.0914C1152.8674,-306.0686 1186.84,-326.8821 1280.2575,-288 1282.8424,-286.9241 1340.4878,-244.0901 1372.0418,-220.5795"/>
<polygon fill="#191970" stroke="#191970" points="1047.7542,-320.6728 1038.5363,-325.8959 1048.9994,-327.5612 1047.7542,-320.6728"/>
</g>
<!-- Node34&#45;&gt;Node39 -->
<g id="edge61" class="edge">
<title>Node34&#45;&gt;Node39</title>
<path fill="none" stroke="#191970" d="M953.2983,-317.4965C942.2078,-307.7193 929.4308,-296.4554 919.4348,-287.6432"/>
<polygon fill="#191970" stroke="#191970" points="951.1961,-320.3091 961.0119,-324.2967 955.8252,-315.0582 951.1961,-320.3091"/>
</g>
<!-- Node35&#45;&gt;Node27 -->
<g id="edge58" class="edge">
<title>Node35&#45;&gt;Node27</title>
<path fill="none" stroke="#191970" d="M1428.6468,-251.7412C1453.966,-234.7498 1480.0799,-210.2951 1461.2575,-190 1440.6884,-167.8215 1021.2327,-148.3605 850.0554,-141.3112"/>
<polygon fill="#191970" stroke="#191970" points="1426.6749,-248.848 1420.1568,-257.2006 1430.461,-254.7358 1426.6749,-248.848"/>
</g>
<!-- Node35&#45;&gt;Node36 -->
<g id="edge56" class="edge">
<title>Node35&#45;&gt;Node36</title>
<path fill="none" stroke="#191970" d="M1441.2091,-253.865C1468.7588,-243.3773 1502.7134,-230.4515 1528.5874,-220.6017"/>
<polygon fill="#191970" stroke="#191970" points="1439.8558,-250.6351 1431.7553,-257.4639 1442.3463,-257.1771 1439.8558,-250.6351"/>
</g>
<!-- Node35&#45;&gt;Node38 -->
<g id="edge59" class="edge">
<title>Node35&#45;&gt;Node38</title>
<path fill="none" stroke="#191970" d="M1392.2575,-247.0249C1392.2575,-238.128 1392.2575,-228.4287 1392.2575,-220.6432"/>
<polygon fill="#191970" stroke="#191970" points="1388.7576,-247.2966 1392.2575,-257.2967 1395.7576,-247.2967 1388.7576,-247.2966"/>
</g>
<!-- Node36&#45;&gt;Node27 -->
<g id="edge57" class="edge">
<title>Node36&#45;&gt;Node27</title>
<path fill="none" stroke="#191970" d="M1498.1266,-190.564C1496.8277,-190.3675 1495.5371,-190.1792 1494.2575,-190 1259.9095,-157.181 979.3086,-144.7146 849.9853,-140.4641"/>
<polygon fill="#191970" stroke="#191970" points="1497.7666,-194.0517 1508.201,-192.2145 1498.8984,-187.1437 1497.7666,-194.0517"/>
</g>
<!-- Node39&#45;&gt;Node27 -->
<g id="edge62" class="edge">
<title>Node39&#45;&gt;Node27</title>
<path fill="none" stroke="#191970" d="M840.3995,-253.2086C824.3071,-245.5038 808.3851,-235.0288 797.2575,-221 779.9946,-199.2362 777.8653,-164.6406 777.9332,-148.0228"/>
<polygon fill="#191970" stroke="#191970" points="839.301,-256.5511 849.8593,-257.4309 842.1542,-250.1589 839.301,-256.5511"/>
</g>
<!-- Node41&#45;&gt;Node27 -->
<g id="edge66" class="edge">
<title>Node41&#45;&gt;Node27</title>
<path fill="none" stroke="#191970" d="M504.4234,-190.7701C505.7115,-190.5104 506.9905,-190.2535 508.2575,-190 584.2955,-174.7861 672.5913,-158.1359 726.9454,-148.003"/>
<polygon fill="#191970" stroke="#191970" points="503.5165,-187.3828 494.4144,-192.8051 504.9112,-194.2425 503.5165,-187.3828"/>
</g>
<!-- Node43&#45;&gt;Node27 -->
<g id="edge70" class="edge">
<title>Node43&#45;&gt;Node27</title>
<path fill="none" stroke="#191970" d="M600.4931,-254.9088C558.7223,-240.9612 517.8865,-218.9949 541.2575,-190 561.7691,-164.5526 644.5653,-151.0296 706.5579,-144.327"/>
<polygon fill="#191970" stroke="#191970" points="599.6506,-258.3138 610.2414,-258.0216 601.78,-251.6455 599.6506,-258.3138"/>
</g>
<!-- Node45&#45;&gt;Node27 -->
<g id="edge73" class="edge">
<title>Node45&#45;&gt;Node27</title>
<path fill="none" stroke="#191970" d="M366.5411,-189.8737C491.644,-168.4365 626.2635,-153.4149 706.6891,-145.2975"/>
<polygon fill="#191970" stroke="#191970" points="365.6558,-186.4748 356.3995,-191.6294 366.85,-193.3722 365.6558,-186.4748"/>
</g>
<!-- Node49&#45;&gt;Node21 -->
<g id="edge78" class="edge">
<title>Node49&#45;&gt;Node21</title>
<path fill="none" stroke="#191970" d="M1704.0909,-118.3874C1668.1654,-98.4104 1609.3166,-68.9458 1554.2575,-56 1445.9517,-30.5346 649.0484,-14.3133 456.8711,-10.7453"/>
<polygon fill="#191970" stroke="#191970" points="1702.7239,-121.6346 1713.1538,-123.4971 1706.1618,-115.537 1702.7239,-121.6346"/>
</g>
<!-- Node52&#45;&gt;Node14 -->
<g id="edge104" class="edge">
<title>Node52&#45;&gt;Node14</title>
<path fill="none" stroke="#191970" d="M2644.6087,-522.5342C2597.1574,-507.5842 2528.7586,-477.3146 2500.2575,-422 2493.9469,-409.7524 2493.8398,-403.1918 2500.2575,-391 2510.7784,-371.0131 2532.9475,-357.2859 2550.4688,-349.0616"/>
<polygon fill="#191970" stroke="#191970" points="2643.8093,-525.949 2654.3944,-525.4954 2645.8368,-519.2491 2643.8093,-525.949"/>
</g>
<!-- Node52&#45;&gt;Node15 -->
<g id="edge105" class="edge">
<title>Node52&#45;&gt;Node15</title>
<path fill="none" stroke="#191970" d="M2749.9134,-521.9778C2767.0452,-515.095 2784.0619,-504.6806 2794.2575,-489 2823.4054,-444.1711 2806.9384,-374.6842 2799.3941,-349.2509"/>
<polygon fill="#191970" stroke="#191970" points="2748.6147,-518.726 2740.4265,-525.4493 2751.0203,-525.2997 2748.6147,-518.726"/>
</g>
<!-- Node53 -->
<g id="node46" class="node">
<title>Node53</title>
<g id="a_node46"><a xlink:href="MapNode_8hxx.html" target="_top" xlink:title="src/engine/GameObjects\l/MapNode.hxx">
<polygon fill="none" stroke="#000000" points="3002.2575,-458.5 3002.2575,-488.5 3138.2575,-488.5 3138.2575,-458.5 3002.2575,-458.5"/>
<text text-anchor="start" x="3010.2575" y="-476.5" font-family="Helvetica,sans-Serif" font-size="10.00" fill="#000000">src/engine/GameObjects</text>
<text text-anchor="middle" x="3070.2575" y="-465.5" font-family="Helvetica,sans-Serif" font-size="10.00" fill="#000000">/MapNode.hxx</text>
</a>
</g>
</g>
<!-- Node52&#45;&gt;Node53 -->
<g id="edge84" class="edge">
<title>Node52&#45;&gt;Node53</title>
<path fill="none" stroke="#191970" d="M2768.9341,-523.9822C2828.4221,-515.0447 2913.7841,-501.8615 2988.2575,-489 2992.6833,-488.2357 2997.2397,-487.4292 3001.8301,-486.6019"/>
<polygon fill="#191970" stroke="#191970" points="2768.2473,-520.5459 2758.8766,-525.4898 2769.285,-527.4686 2768.2473,-520.5459"/>
</g>
<!-- Node57 -->
<g id="node50" class="node">
<title>Node57</title>
<g id="a_node50"><a xlink:href="ResourcesManager_8hxx.html" target="_top" xlink:title="src/engine/ResourcesManager.hxx">
<polygon fill="none" stroke="#000000" points="2603.2575,-464 2603.2575,-483 2785.2575,-483 2785.2575,-464 2603.2575,-464"/>
<text text-anchor="middle" x="2694.2575" y="-471" font-family="Helvetica,sans-Serif" font-size="10.00" fill="#000000">src/engine/ResourcesManager.hxx</text>
</a>
</g>
</g>
<!-- Node52&#45;&gt;Node57 -->
<g id="edge96" class="edge">
<title>Node52&#45;&gt;Node57</title>
<path fill="none" stroke="#191970" d="M2694.2575,-515.2462C2694.2575,-504.5519 2694.2575,-491.814 2694.2575,-483.2449"/>
<polygon fill="#191970" stroke="#191970" points="2690.7576,-515.3906 2694.2575,-525.3906 2697.7576,-515.3907 2690.7576,-515.3906"/>
</g>
<!-- Node53&#45;&gt;Node8 -->
<g id="edge94" class="edge">
<title>Node53&#45;&gt;Node8</title>
<path fill="none" stroke="#191970" d="M3055.8524,-449.5447C3051.5603,-441.1365 3047.4254,-431.4303 3045.2575,-422 3042.1706,-408.5725 3041.8623,-404.3529 3045.2575,-391 3049.2701,-375.219 3059.2045,-359.047 3066.0909,-349.1373"/>
<polygon fill="#191970" stroke="#191970" points="3052.8169,-451.2892 3060.6687,-458.4025 3058.9666,-447.9453 3052.8169,-451.2892"/>
</g>
<!-- Node54 -->
<g id="node47" class="node">
<title>Node54</title>
<g id="a_node47"><a xlink:href="Map_8hxx.html" target="_top" xlink:title="src/engine/Map.hxx">
<polygon fill="none" stroke="#000000" points="3200.7575,-330 3200.7575,-349 3311.7575,-349 3311.7575,-330 3200.7575,-330"/>
<text text-anchor="middle" x="3256.2575" y="-337" font-family="Helvetica,sans-Serif" font-size="10.00" fill="#000000">src/engine/Map.hxx</text>
</a>
</g>
</g>
<!-- Node53&#45;&gt;Node54 -->
<g id="edge85" class="edge">
<title>Node53&#45;&gt;Node54</title>
<path fill="none" stroke="#191970" d="M3065.8192,-448.1328C3064.1791,-430.2008 3065.2556,-406.6602 3078.2575,-391 3082.8683,-385.4464 3168.5255,-362.3613 3219.3072,-349.0603"/>
<polygon fill="#191970" stroke="#191970" points="3062.3631,-448.7039 3067.0688,-458.1964 3069.3098,-447.8413 3062.3631,-448.7039"/>
</g>
<!-- Node55 -->
<g id="node48" class="node">
<title>Node55</title>
<g id="a_node48"><a xlink:href="TerrainGenerator_8hxx.html" target="_top" xlink:title="src/engine/map/TerrainGenerator.hxx">
<polygon fill="none" stroke="#000000" points="3241.7575,-397 3241.7575,-416 3438.7575,-416 3438.7575,-397 3241.7575,-397"/>
<text text-anchor="middle" x="3340.2575" y="-404" font-family="Helvetica,sans-Serif" font-size="10.00" fill="#000000">src/engine/map/TerrainGenerator.hxx</text>
</a>
</g>
</g>
<!-- Node53&#45;&gt;Node55 -->
<g id="edge90" class="edge">
<title>Node53&#45;&gt;Node55</title>
<path fill="none" stroke="#191970" d="M3140.5958,-456.0457C3192.1168,-443.2608 3260.0882,-426.3939 3301.9526,-416.0053"/>
<polygon fill="#191970" stroke="#191970" points="3139.7134,-452.6584 3130.8508,-458.4639 3141.3994,-459.4524 3139.7134,-452.6584"/>
</g>
<!-- Node56 -->
<g id="node49" class="node">
<title>Node56</title>
<g id="a_node49"><a xlink:href="MapNode_8cxx.html" target="_top" xlink:title="src/engine/GameObjects\l/MapNode.cxx">
<polygon fill="none" stroke="#000000" points="3087.2575,-391.5 3087.2575,-421.5 3223.2575,-421.5 3223.2575,-391.5 3087.2575,-391.5"/>
<text text-anchor="start" x="3095.2575" y="-409.5" font-family="Helvetica,sans-Serif" font-size="10.00" fill="#000000">src/engine/GameObjects</text>
<text text-anchor="middle" x="3155.2575" y="-398.5" font-family="Helvetica,sans-Serif" font-size="10.00" fill="#000000">/MapNode.cxx</text>
</a>
</g>
</g>
<!-- Node53&#45;&gt;Node56 -->
<g id="edge95" class="edge">
<title>Node53&#45;&gt;Node56</title>
<path fill="none" stroke="#191970" d="M3097.452,-452.0643C3110.0201,-442.1577 3124.6492,-430.6265 3136.046,-421.6432"/>
<polygon fill="#191970" stroke="#191970" points="3095.2322,-449.3574 3089.5453,-458.2967 3099.5656,-454.8549 3095.2322,-449.3574"/>
</g>
<!-- Node54&#45;&gt;Node10 -->
<g id="edge88" class="edge">
<title>Node54&#45;&gt;Node10</title>
<path fill="none" stroke="#191970" d="M3207.0026,-327.5537C3201.6943,-326.3262 3196.3676,-325.1199 3191.2575,-324 3111.5645,-306.535 3090.9196,-305.6053 3011.2575,-288 3002.8853,-286.1497 2993.9255,-284.0532 2985.441,-282.0136"/>
<polygon fill="#191970" stroke="#191970" points="3206.5921,-331.0521 3217.1266,-329.9233 3208.1874,-324.2363 3206.5921,-331.0521"/>
</g>
<!-- Node54&#45;&gt;Node13 -->
<g id="edge87" class="edge">
<title>Node54&#45;&gt;Node13</title>
<path fill="none" stroke="#191970" d="M3262.4191,-320.1992C3270.1077,-294.3617 3282.2575,-246.9711 3282.2575,-205.5 3282.2575,-205.5 3282.2575,-205.5 3282.2575,-138.5 3282.2575,-61.2365 3036.6606,-28.1695 2905.9474,-16.0419"/>
<polygon fill="#191970" stroke="#191970" points="3259.0383,-319.2858 3259.4456,-329.8728 3265.7294,-321.3426 3259.0383,-319.2858"/>
</g>
<!-- Node54&#45;&gt;Node19 -->
<g id="edge89" class="edge">
<title>Node54&#45;&gt;Node19</title>
<path fill="none" stroke="#191970" d="M3253.8229,-319.8317C3250.5022,-301.1947 3242.8054,-273.6475 3225.2575,-257 3082.1883,-121.272 2995.8378,-160.65 2802.2575,-123 2690.3208,-101.2291 2356.6753,-82.4329 2209.4325,-74.9523"/>
<polygon fill="#191970" stroke="#191970" points="3250.3847,-320.504 3255.344,-329.8665 3257.3057,-319.4549 3250.3847,-320.504"/>
</g>
<!-- Node54&#45;&gt;Node23 -->
<g id="edge86" class="edge">
<title>Node54&#45;&gt;Node23</title>
<path fill="none" stroke="#191970" d="M3212.3707,-327.6539C3205.3557,-326.1608 3198.1413,-324.858 3191.2575,-324 2620.0656,-252.8103 1175.8508,-322.2151 601.2575,-288 573.335,-286.3373 542.5407,-283.2805 516.3821,-280.3182"/>
<polygon fill="#191970" stroke="#191970" points="3211.9164,-331.14 3222.4439,-329.9479 3213.4707,-324.3147 3211.9164,-331.14"/>
</g>
<!-- Node55&#45;&gt;Node8 -->
<g id="edge92" class="edge">
<title>Node55&#45;&gt;Node8</title>
<path fill="none" stroke="#191970" d="M3292.3511,-394.4785C3240.6022,-381.4929 3159.1836,-361.062 3111.5298,-349.1039"/>
<polygon fill="#191970" stroke="#191970" points="3291.7353,-397.9325 3302.2865,-396.9717 3293.4391,-391.143 3291.7353,-397.9325"/>
</g>
<!-- Node55&#45;&gt;Node9 -->
<g id="edge93" class="edge">
<title>Node55&#45;&gt;Node9</title>
<path fill="none" stroke="#191970" d="M3341.1756,-386.8154C3340.9313,-368.1662 3337.5048,-340.6103 3321.2575,-324 3302.4752,-304.798 3237.7539,-290.6062 3186.3772,-282.0374"/>
<polygon fill="#191970" stroke="#191970" points="3337.6754,-386.8025 3341.0138,-396.8576 3344.6745,-386.9153 3337.6754,-386.8025"/>
</g>
<!-- Node55&#45;&gt;Node54 -->
<g id="edge91" class="edge">
<title>Node55&#45;&gt;Node54</title>
<path fill="none" stroke="#191970" d="M3320.3933,-390.6559C3304.1995,-377.7395 3281.8588,-359.9201 3268.2703,-349.0817"/>
<polygon fill="#191970" stroke="#191970" points="3318.2221,-393.4011 3328.2223,-396.9005 3322.587,-387.9287 3318.2221,-393.4011"/>
</g>
<!-- Node57&#45;&gt;Node10 -->
<g id="edge99" class="edge">
<title>Node57&#45;&gt;Node10</title>
<path fill="none" stroke="#191970" d="M2781.2989,-462.4094C2833.6483,-453.9875 2893.6437,-440.6513 2912.2575,-422 2951.4241,-382.7544 2950.0504,-308.5895 2948.1584,-282.1574"/>
<polygon fill="#191970" stroke="#191970" points="2780.6241,-458.9723 2771.2857,-463.9766 2781.7066,-465.8881 2780.6241,-458.9723"/>
</g>
<!-- Node57&#45;&gt;Node12 -->
<g id="edge98" class="edge">
<title>Node57&#45;&gt;Node12</title>
<path fill="none" stroke="#191970" d="M2698.3463,-453.9669C2703.7626,-422.1145 2709.0585,-359.0328 2675.2575,-324 2640.8604,-288.3494 2503.9865,-296.9224 2455.2575,-288 2322.8186,-263.7502 2167.0173,-230.9774 2092.4175,-215.0212"/>
<polygon fill="#191970" stroke="#191970" points="2694.8993,-453.359 2696.4893,-463.8339 2701.7786,-454.6538 2694.8993,-453.359"/>
</g>
<!-- Node57&#45;&gt;Node14 -->
<g id="edge100" class="edge">
<title>Node57&#45;&gt;Node14</title>
<path fill="none" stroke="#191970" d="M2683.7136,-455.3348C2673.1395,-437.8879 2655.8017,-411.2636 2637.2575,-391 2622.237,-374.5868 2601.9578,-358.6954 2588.7465,-349.0091"/>
<polygon fill="#191970" stroke="#191970" points="2680.7377,-457.1783 2688.857,-463.9847 2686.7544,-453.6006 2680.7377,-457.1783"/>
</g>
<!-- Node57&#45;&gt;Node15 -->
<g id="edge102" class="edge">
<title>Node57&#45;&gt;Node15</title>
<path fill="none" stroke="#191970" d="M2707.6526,-455.9025C2729.4826,-427.2239 2771.9993,-371.3686 2788.9884,-349.0496"/>
<polygon fill="#191970" stroke="#191970" points="2704.865,-453.7861 2701.5931,-463.8631 2710.4349,-458.0259 2704.865,-453.7861"/>
</g>
<!-- Node57&#45;&gt;Node19 -->
<g id="edge103" class="edge">
<title>Node57&#45;&gt;Node19</title>
<path fill="none" stroke="#191970" d="M2738.737,-460.8004C2802.9348,-439.8385 2910.7184,-393.3031 2880.2575,-324 2823.2456,-194.2894 2367.9752,-108.5215 2200.1216,-81.0388"/>
<polygon fill="#191970" stroke="#191970" points="2737.3073,-457.5821 2728.8357,-463.9447 2739.426,-464.2538 2737.3073,-457.5821"/>
</g>
<!-- Node57&#45;&gt;Node26 -->
<g id="edge97" class="edge">
<title>Node57&#45;&gt;Node26</title>
<path fill="none" stroke="#191970" d="M2593.1512,-469.4485C2278.4012,-456.8359 1322.5673,-418.5339 1079.1431,-408.7795"/>
<polygon fill="#191970" stroke="#191970" points="2593.044,-472.9469 2603.1761,-469.8502 2593.3243,-465.9525 2593.044,-472.9469"/>
</g>
<!-- Node57&#45;&gt;Node51 -->
<g id="edge101" class="edge">
<title>Node57&#45;&gt;Node51</title>
<path fill="none" stroke="#191970" d="M2667.097,-459.0575C2642.6477,-446.0567 2607.4075,-427.3179 2586.2767,-416.0817"/>
<polygon fill="#191970" stroke="#191970" points="2665.7322,-462.2958 2676.2048,-463.9005 2669.0187,-456.1152 2665.7322,-462.2958"/>
</g>
</g>
</svg>
