<?xml version="1.0" encoding="UTF-8" standalone="no"?>
<!DOCTYPE svg PUBLIC "-//W3C//DTD SVG 1.1//EN"
 "http://www.w3.org/Graphics/SVG/1.1/DTD/svg11.dtd">
<!-- Generated by graphviz version 2.40.1 (20161225.0304)
 -->
<!-- Title: src/engine/Sprite.cxx Pages: 1 -->
<svg width="1390pt" height="252pt"
 viewBox="0.00 0.00 1389.50 252.00" xmlns="http://www.w3.org/2000/svg" xmlns:xlink="http://www.w3.org/1999/xlink">
<g id="graph0" class="graph" transform="scale(1 1) rotate(0) translate(4 248)">
<title>src/engine/Sprite.cxx</title>
<!-- Node0 -->
<g id="node1" class="node">
<title>Node0</title>
<polygon fill="#bfbfbf" stroke="#000000" points="688,-224.5 688,-243.5 807,-243.5 807,-224.5 688,-224.5"/>
<text text-anchor="middle" x="747.5" y="-231.5" font-family="Helvetica,sans-Serif" font-size="10.00" fill="#000000">src/engine/Sprite.cxx</text>
</g>
<!-- Node1 -->
<g id="node2" class="node">
<title>Node1</title>
<g id="a_node2"><a xlink:href="Sprite_8hxx.html" target="_top" xlink:title="Sprite.hxx">
<polygon fill="none" stroke="#000000" points="820.5,-168.5 820.5,-187.5 886.5,-187.5 886.5,-168.5 820.5,-168.5"/>
<text text-anchor="middle" x="853.5" y="-175.5" font-family="Helvetica,sans-Serif" font-size="10.00" fill="#000000">Sprite.hxx</text>
</a>
</g>
</g>
<!-- Node0&#45;&gt;Node1 -->
<g id="edge1" class="edge">
<title>Node0&#45;&gt;Node1</title>
<path fill="none" stroke="#191970" d="M765.9638,-224.2455C782.6074,-215.4527 807.2993,-202.4079 826.2192,-192.4125"/>
<polygon fill="#191970" stroke="#191970" points="828.0408,-195.4086 835.2478,-187.6427 824.7709,-189.2193 828.0408,-195.4086"/>
</g>
<!-- Node7 -->
<g id="node8" class="node">
<title>Node7</title>
<g id="a_node8"><a xlink:href="ResourcesManager_8hxx.html" target="_top" xlink:title="ResourcesManager.hxx">
<polygon fill="none" stroke="#000000" points="282.5,-168.5 282.5,-187.5 410.5,-187.5 410.5,-168.5 282.5,-168.5"/>
<text text-anchor="middle" x="346.5" y="-175.5" font-family="Helvetica,sans-Serif" font-size="10.00" fill="#000000">ResourcesManager.hxx</text>
</a>
</g>
</g>
<!-- Node0&#45;&gt;Node7 -->
<g id="edge7" class="edge">
<title>Node0&#45;&gt;Node7</title>
<path fill="none" stroke="#191970" d="M687.8992,-225.6767C616.8024,-215.748 497.9107,-199.1446 420.8639,-188.385"/>
<polygon fill="#191970" stroke="#191970" points="421.1353,-184.889 410.7473,-186.9722 420.1671,-191.8217 421.1353,-184.889"/>
</g>
<!-- Node15 -->
<g id="node16" class="node">
<title>Node15</title>
<g id="a_node16"><a xlink:href="WindowManager_8hxx.html" target="_top" xlink:title="WindowManager.hxx">
<polygon fill="none" stroke="#000000" points="428.5,-168.5 428.5,-187.5 546.5,-187.5 546.5,-168.5 428.5,-168.5"/>
<text text-anchor="middle" x="487.5" y="-175.5" font-family="Helvetica,sans-Serif" font-size="10.00" fill="#000000">WindowManager.hxx</text>
</a>
</g>
</g>
<!-- Node0&#45;&gt;Node15 -->
<g id="edge19" class="edge">
<title>Node0&#45;&gt;Node15</title>
<path fill="none" stroke="#191970" d="M703.0998,-224.4369C658.4159,-214.8127 589.443,-199.957 541.5912,-189.6504"/>
<polygon fill="#191970" stroke="#191970" points="542.2298,-186.2078 531.717,-187.5237 540.7559,-193.0508 542.2298,-186.2078"/>
</g>
<!-- Node16 -->
<g id="node17" class="node">
<title>Node16</title>
<g id="a_node17"><a xlink:href="Camera_8hxx.html" target="_top" xlink:title="basics/Camera.hxx">
<polygon fill="none" stroke="#000000" points="564.5,-168.5 564.5,-187.5 674.5,-187.5 674.5,-168.5 564.5,-168.5"/>
<text text-anchor="middle" x="619.5" y="-175.5" font-family="Helvetica,sans-Serif" font-size="10.00" fill="#000000">basics/Camera.hxx</text>
</a>
</g>
</g>
<!-- Node0&#45;&gt;Node16 -->
<g id="edge25" class="edge">
<title>Node0&#45;&gt;Node16</title>
<path fill="none" stroke="#191970" d="M725.496,-224.3733C704.8565,-215.3435 673.7842,-201.7494 650.6111,-191.6111"/>
<polygon fill="#191970" stroke="#191970" points="651.7813,-188.3028 641.2169,-187.5011 648.9755,-194.7159 651.7813,-188.3028"/>
</g>
<!-- Node17 -->
<g id="node18" class="node">
<title>Node17</title>
<g id="a_node18"><a xlink:href="isoMath_8hxx.html" target="_top" xlink:title="basics/isoMath.hxx">
<polygon fill="none" stroke="#000000" points="692.5,-168.5 692.5,-187.5 802.5,-187.5 802.5,-168.5 692.5,-168.5"/>
<text text-anchor="middle" x="747.5" y="-175.5" font-family="Helvetica,sans-Serif" font-size="10.00" fill="#000000">basics/isoMath.hxx</text>
</a>
</g>
</g>
<!-- Node0&#45;&gt;Node17 -->
<g id="edge28" class="edge">
<title>Node0&#45;&gt;Node17</title>
<path fill="none" stroke="#191970" d="M747.5,-224.2455C747.5,-216.9382 747.5,-206.6944 747.5,-197.7046"/>
<polygon fill="#191970" stroke="#191970" points="751.0001,-197.6426 747.5,-187.6427 744.0001,-197.6427 751.0001,-197.6426"/>
</g>
<!-- Node19 -->
<g id="node20" class="node">
<title>Node19</title>
<g id="a_node20"><a xlink:href="MapLayers_8hxx.html" target="_top" xlink:title="map/MapLayers.hxx">
<polygon fill="none" stroke="#000000" points="928,-168.5 928,-187.5 1043,-187.5 1043,-168.5 928,-168.5"/>
<text text-anchor="middle" x="985.5" y="-175.5" font-family="Helvetica,sans-Serif" font-size="10.00" fill="#000000">map/MapLayers.hxx</text>
</a>
</g>
</g>
<!-- Node0&#45;&gt;Node19 -->
<g id="edge33" class="edge">
<title>Node0&#45;&gt;Node19</title>
<path fill="none" stroke="#191970" d="M788.1432,-224.4369C828.7895,-214.8731 891.3913,-200.1432 935.1587,-189.845"/>
<polygon fill="#191970" stroke="#191970" points="936.0919,-193.2211 945.0244,-187.5237 934.4886,-186.4072 936.0919,-193.2211"/>
</g>
<!-- Node20 -->
<g id="node21" class="node">
<title>Node20</title>
<g id="a_node21"><a xlink:href="LOG_8hxx.html" target="_top" xlink:title="LOG.hxx">
<polygon fill="none" stroke="#000000" points="1114.5,-168.5 1114.5,-187.5 1172.5,-187.5 1172.5,-168.5 1114.5,-168.5"/>
<text text-anchor="middle" x="1143.5" y="-175.5" font-family="Helvetica,sans-Serif" font-size="10.00" fill="#000000">LOG.hxx</text>
</a>
</g>
</g>
<!-- Node0&#45;&gt;Node20 -->
<g id="edge35" class="edge">
<title>Node0&#45;&gt;Node20</title>
<path fill="none" stroke="#191970" d="M807.214,-225.5556C889.2151,-213.9595 1034.4209,-193.4253 1104.0759,-183.5751"/>
<polygon fill="#191970" stroke="#191970" points="1104.7756,-187.0111 1114.187,-182.1453 1103.7954,-180.08 1104.7756,-187.0111"/>
</g>
<!-- Node2 -->
<g id="node3" class="node">
<title>Node2</title>
<polygon fill="none" stroke="#bfbfbf" points="561.5,-56.5 561.5,-75.5 605.5,-75.5 605.5,-56.5 561.5,-56.5"/>
<text text-anchor="middle" x="583.5" y="-63.5" font-family="Helvetica,sans-Serif" font-size="10.00" fill="#000000">SDL.h</text>
</g>
<!-- Node1&#45;&gt;Node2 -->
<g id="edge2" class="edge">
<title>Node1&#45;&gt;Node2</title>
<path fill="none" stroke="#191970" d="M869.3435,-168.4784C889.2827,-155.335 919.0376,-131.0934 902.5,-112 883.8688,-90.4895 693.4074,-74.1179 615.9724,-68.3013"/>
<polygon fill="#191970" stroke="#191970" points="616.0566,-64.7981 605.8257,-67.5512 615.5404,-71.779 616.0566,-64.7981"/>
</g>
<!-- Node3 -->
<g id="node4" class="node">
<title>Node3</title>
<polygon fill="none" stroke="#bfbfbf" points="650,-112.5 650,-131.5 697,-131.5 697,-112.5 650,-112.5"/>
<text text-anchor="middle" x="673.5" y="-119.5" font-family="Helvetica,sans-Serif" font-size="10.00" fill="#000000">vector</text>
</g>
<!-- Node1&#45;&gt;Node3 -->
<g id="edge3" class="edge">
<title>Node1&#45;&gt;Node3</title>
<path fill="none" stroke="#191970" d="M822.5569,-168.3733C790.3098,-158.3408 739.9525,-142.6741 706.8408,-132.3727"/>
<polygon fill="#191970" stroke="#191970" points="707.7459,-128.9889 697.1576,-129.3601 705.6664,-135.6729 707.7459,-128.9889"/>
</g>
<!-- Node4 -->
<g id="node5" class="node">
<title>Node4</title>
<g id="a_node5"><a xlink:href="point_8hxx.html" target="_top" xlink:title="basics/point.hxx">
<polygon fill="none" stroke="#000000" points="797.5,-112.5 797.5,-131.5 893.5,-131.5 893.5,-112.5 797.5,-112.5"/>
<text text-anchor="middle" x="845.5" y="-119.5" font-family="Helvetica,sans-Serif" font-size="10.00" fill="#000000">basics/point.hxx</text>
</a>
</g>
</g>
<!-- Node1&#45;&gt;Node4 -->
<g id="edge4" class="edge">
<title>Node1&#45;&gt;Node4</title>
<path fill="none" stroke="#191970" d="M852.1065,-168.2455C851.0626,-160.9382 849.5992,-150.6944 848.3149,-141.7046"/>
<polygon fill="#191970" stroke="#191970" points="851.7566,-141.0472 846.8775,-131.6427 844.827,-142.0372 851.7566,-141.0472"/>
</g>
<!-- Node5 -->
<g id="node6" class="node">
<title>Node5</title>
<g id="a_node6"><a xlink:href="enums_8hxx.html" target="_top" xlink:title="common/enums.hxx">
<polygon fill="none" stroke="#000000" points="949.5,-112.5 949.5,-131.5 1065.5,-131.5 1065.5,-112.5 949.5,-112.5"/>
<text text-anchor="middle" x="1007.5" y="-119.5" font-family="Helvetica,sans-Serif" font-size="10.00" fill="#000000">common/enums.hxx</text>
</a>
</g>
</g>
<!-- Node1&#45;&gt;Node5 -->
<g id="edge5" class="edge">
<title>Node1&#45;&gt;Node5</title>
<path fill="none" stroke="#191970" d="M879.9735,-168.3733C905.3597,-159.1419 943.8645,-145.1402 971.922,-134.9375"/>
<polygon fill="#191970" stroke="#191970" points="973.1701,-138.2079 981.3719,-131.5011 970.7778,-131.6293 973.1701,-138.2079"/>
</g>
<!-- Node6 -->
<g id="node7" class="node">
<title>Node6</title>
<polygon fill="none" stroke="#bfbfbf" points="979.5,-56.5 979.5,-75.5 1035.5,-75.5 1035.5,-56.5 979.5,-56.5"/>
<text text-anchor="middle" x="1007.5" y="-63.5" font-family="Helvetica,sans-Serif" font-size="10.00" fill="#000000">stddef.h</text>
</g>
<!-- Node5&#45;&gt;Node6 -->
<g id="edge6" class="edge">
<title>Node5&#45;&gt;Node6</title>
<path fill="none" stroke="#191970" d="M1007.5,-112.2455C1007.5,-104.9382 1007.5,-94.6944 1007.5,-85.7046"/>
<polygon fill="#191970" stroke="#191970" points="1011.0001,-85.6426 1007.5,-75.6427 1004.0001,-85.6427 1011.0001,-85.6426"/>
</g>
<!-- Node7&#45;&gt;Node2 -->
<g id="edge10" class="edge">
<title>Node7&#45;&gt;Node2</title>
<path fill="none" stroke="#191970" d="M364.4074,-168.451C389.3126,-155.2759 435.9259,-130.9976 476.5,-112 501.5908,-100.252 530.4745,-87.9024 551.9036,-78.9605"/>
<polygon fill="#191970" stroke="#191970" points="553.2915,-82.174 561.1844,-75.1063 550.6068,-75.7093 553.2915,-82.174"/>
</g>
<!-- Node8 -->
<g id="node9" class="node">
<title>Node8</title>
<polygon fill="none" stroke="#bfbfbf" points="495.5,-112.5 495.5,-131.5 555.5,-131.5 555.5,-112.5 495.5,-112.5"/>
<text text-anchor="middle" x="525.5" y="-119.5" font-family="Helvetica,sans-Serif" font-size="10.00" fill="#000000">iostream</text>
</g>
<!-- Node7&#45;&gt;Node8 -->
<g id="edge8" class="edge">
<title>Node7&#45;&gt;Node8</title>
<path fill="none" stroke="#191970" d="M377.2712,-168.3733C407.2556,-158.9927 452.9854,-144.6861 485.7187,-134.4455"/>
<polygon fill="#191970" stroke="#191970" points="486.9295,-137.7341 495.4283,-131.4079 484.8394,-131.0534 486.9295,-137.7341"/>
</g>
<!-- Node9 -->
<g id="node10" class="node">
<title>Node9</title>
<polygon fill="none" stroke="#bfbfbf" points="0,-56.5 0,-75.5 93,-75.5 93,-56.5 0,-56.5"/>
<text text-anchor="middle" x="46.5" y="-63.5" font-family="Helvetica,sans-Serif" font-size="10.00" fill="#000000">unordered_map</text>
</g>
<!-- Node7&#45;&gt;Node9 -->
<g id="edge9" class="edge">
<title>Node7&#45;&gt;Node9</title>
<path fill="none" stroke="#191970" d="M315.1332,-168.4222C286.6086,-159.5402 243.4515,-145.6707 206.5,-132 161.1675,-115.2287 109.6318,-93.4751 77.5873,-79.6225"/>
<polygon fill="#191970" stroke="#191970" points="78.8635,-76.361 68.2966,-75.5913 76.0771,-82.7826 78.8635,-76.361"/>
</g>
<!-- Node10 -->
<g id="node11" class="node">
<title>Node10</title>
<g id="a_node11"><a xlink:href="TileManager_8hxx.html" target="_top" xlink:title="TileManager.hxx">
<polygon fill="none" stroke="#000000" points="216,-112.5 216,-131.5 313,-131.5 313,-112.5 216,-112.5"/>
<text text-anchor="middle" x="264.5" y="-119.5" font-family="Helvetica,sans-Serif" font-size="10.00" fill="#000000">TileManager.hxx</text>
</a>
</g>
</g>
<!-- Node7&#45;&gt;Node10 -->
<g id="edge11" class="edge">
<title>Node7&#45;&gt;Node10</title>
<path fill="none" stroke="#191970" d="M332.2167,-168.2455C319.753,-159.7337 301.4549,-147.2375 287.0208,-137.3801"/>
<polygon fill="#191970" stroke="#191970" points="288.8515,-134.392 278.6196,-131.6427 284.9038,-140.1726 288.8515,-134.392"/>
</g>
<!-- Node10&#45;&gt;Node2 -->
<g id="edge12" class="edge">
<title>Node10&#45;&gt;Node2</title>
<path fill="none" stroke="#191970" d="M313.2965,-113.4338C379.211,-101.8626 494.8983,-81.5539 551.0691,-71.6932"/>
<polygon fill="#191970" stroke="#191970" points="551.9145,-75.0984 561.1587,-69.922 550.7041,-68.2038 551.9145,-75.0984"/>
</g>
<!-- Node10&#45;&gt;Node9 -->
<g id="edge13" class="edge">
<title>Node10&#45;&gt;Node9</title>
<path fill="none" stroke="#191970" d="M227.0245,-112.3733C189.9897,-102.8598 133.2318,-88.2797 93.2639,-78.0127"/>
<polygon fill="#191970" stroke="#191970" points="94.0429,-74.5993 83.4865,-75.5011 92.3012,-81.3792 94.0429,-74.5993"/>
</g>
<!-- Node11 -->
<g id="node12" class="node">
<title>Node11</title>
<polygon fill="none" stroke="#bfbfbf" points="242.5,-.5 242.5,-19.5 286.5,-19.5 286.5,-.5 242.5,-.5"/>
<text text-anchor="middle" x="264.5" y="-7.5" font-family="Helvetica,sans-Serif" font-size="10.00" fill="#000000">string</text>
</g>
<!-- Node10&#45;&gt;Node11 -->
<g id="edge14" class="edge">
<title>Node10&#45;&gt;Node11</title>
<path fill="none" stroke="#191970" d="M248.9938,-112.3733C231.6021,-100.2457 206.9909,-78.2835 216.5,-56 221.6156,-44.0122 231.5575,-33.6498 241.0727,-25.8114"/>
<polygon fill="#191970" stroke="#191970" points="243.3797,-28.4532 249.1926,-19.5954 239.1246,-22.8949 243.3797,-28.4532"/>
</g>
<!-- Node12 -->
<g id="node13" class="node">
<title>Node12</title>
<g id="a_node13"><a xlink:href="tileData_8hxx.html" target="_top" xlink:title="tileData.hxx">
<polygon fill="none" stroke="#000000" points="226,-56.5 226,-75.5 303,-75.5 303,-56.5 226,-56.5"/>
<text text-anchor="middle" x="264.5" y="-63.5" font-family="Helvetica,sans-Serif" font-size="10.00" fill="#000000">tileData.hxx</text>
</a>
</g>
</g>
<!-- Node10&#45;&gt;Node12 -->
<g id="edge15" class="edge">
<title>Node10&#45;&gt;Node12</title>
<path fill="none" stroke="#191970" d="M264.5,-112.2455C264.5,-104.9382 264.5,-94.6944 264.5,-85.7046"/>
<polygon fill="#191970" stroke="#191970" points="268.0001,-85.6426 264.5,-75.6427 261.0001,-85.6427 268.0001,-85.6426"/>
</g>
<!-- Node13 -->
<g id="node14" class="node">
<title>Node13</title>
<polygon fill="none" stroke="#bfbfbf" points="111.5,-56.5 111.5,-75.5 169.5,-75.5 169.5,-56.5 111.5,-56.5"/>
<text text-anchor="middle" x="140.5" y="-63.5" font-family="Helvetica,sans-Serif" font-size="10.00" fill="#000000">json.hxx</text>
</g>
<!-- Node10&#45;&gt;Node13 -->
<g id="edge17" class="edge">
<title>Node10&#45;&gt;Node13</title>
<path fill="none" stroke="#191970" d="M243.1836,-112.3733C223.2784,-103.3838 193.3564,-89.8706 170.94,-79.7471"/>
<polygon fill="#191970" stroke="#191970" points="172.0925,-76.4272 161.5382,-75.5011 169.2113,-82.8068 172.0925,-76.4272"/>
</g>
<!-- Node14 -->
<g id="node15" class="node">
<title>Node14</title>
<g id="a_node15"><a xlink:href="Singleton_8hxx.html" target="_top" xlink:title="Singleton.hxx">
<polygon fill="none" stroke="#000000" points="321,-56.5 321,-75.5 404,-75.5 404,-56.5 321,-56.5"/>
<text text-anchor="middle" x="362.5" y="-63.5" font-family="Helvetica,sans-Serif" font-size="10.00" fill="#000000">Singleton.hxx</text>
</a>
</g>
</g>
<!-- Node10&#45;&gt;Node14 -->
<g id="edge18" class="edge">
<title>Node10&#45;&gt;Node14</title>
<path fill="none" stroke="#191970" d="M281.5703,-112.2455C296.747,-103.5731 319.1621,-90.7645 336.5563,-80.825"/>
<polygon fill="#191970" stroke="#191970" points="338.6794,-83.643 345.6253,-75.6427 335.2064,-77.5653 338.6794,-83.643"/>
</g>
<!-- Node12&#45;&gt;Node11 -->
<g id="edge16" class="edge">
<title>Node12&#45;&gt;Node11</title>
<path fill="none" stroke="#191970" d="M264.5,-56.2455C264.5,-48.9382 264.5,-38.6944 264.5,-29.7046"/>
<polygon fill="#191970" stroke="#191970" points="268.0001,-29.6426 264.5,-19.6427 261.0001,-29.6427 268.0001,-29.6426"/>
</g>
<!-- Node15&#45;&gt;Node2 -->
<g id="edge23" class="edge">
<title>Node15&#45;&gt;Node2</title>
<path fill="none" stroke="#191970" d="M484.2412,-168.1536C480.3388,-154.4134 475.5959,-129.2391 486.5,-112 500.6695,-89.5985 529.0323,-77.8901 551.4453,-71.9076"/>
<polygon fill="#191970" stroke="#191970" points="552.3507,-75.2897 561.2522,-69.5439 550.7105,-68.4845 552.3507,-75.2897"/>
</g>
<!-- Node15&#45;&gt;Node3 -->
<g id="edge22" class="edge">
<title>Node15&#45;&gt;Node3</title>
<path fill="none" stroke="#191970" d="M519.4745,-168.3733C553.0789,-158.2558 605.7157,-142.4082 639.9138,-132.112"/>
<polygon fill="#191970" stroke="#191970" points="641.3272,-135.3417 649.8936,-129.1073 639.3091,-128.6389 641.3272,-135.3417"/>
</g>
<!-- Node15&#45;&gt;Node8 -->
<g id="edge21" class="edge">
<title>Node15&#45;&gt;Node8</title>
<path fill="none" stroke="#191970" d="M494.1191,-168.2455C499.4046,-160.4564 506.9541,-149.3308 513.3238,-139.9439"/>
<polygon fill="#191970" stroke="#191970" points="516.2379,-141.8827 518.9568,-131.6427 510.4455,-137.9522 516.2379,-141.8827"/>
</g>
<!-- Node15&#45;&gt;Node11 -->
<g id="edge20" class="edge">
<title>Node15&#45;&gt;Node11</title>
<path fill="none" stroke="#191970" d="M484.3122,-168.4592C476.1634,-145.5344 452.3574,-86.9637 412.5,-56 378.4236,-29.5274 328.9605,-18.1701 296.7616,-13.379"/>
<polygon fill="#191970" stroke="#191970" points="296.9308,-9.87 286.551,-11.9936 295.9896,-16.8064 296.9308,-9.87"/>
</g>
<!-- Node15&#45;&gt;Node14 -->
<g id="edge24" class="edge">
<title>Node15&#45;&gt;Node14</title>
<path fill="none" stroke="#191970" d="M468.9009,-168.3458C453.6414,-159.9226 431.9494,-146.7614 415.5,-132 399.5298,-117.6686 384.5353,-98.2142 374.599,-84.1432"/>
<polygon fill="#191970" stroke="#191970" points="377.395,-82.0324 368.8404,-75.7819 371.63,-86.0029 377.395,-82.0324"/>
</g>
<!-- Node16&#45;&gt;Node2 -->
<g id="edge26" class="edge">
<title>Node16&#45;&gt;Node2</title>
<path fill="none" stroke="#191970" d="M616.4307,-168.4509C610.5326,-150.1013 597.5113,-109.5908 589.7259,-85.3693"/>
<polygon fill="#191970" stroke="#191970" points="592.9538,-83.9741 586.5616,-75.5249 586.2896,-86.1162 592.9538,-83.9741"/>
</g>
<!-- Node16&#45;&gt;Node4 -->
<g id="edge27" class="edge">
<title>Node16&#45;&gt;Node4</title>
<path fill="none" stroke="#191970" d="M658.094,-168.4369C696.5284,-158.9133 755.636,-144.2672 797.171,-133.9753"/>
<polygon fill="#191970" stroke="#191970" points="798.2006,-137.3261 807.0652,-131.5237 796.5169,-130.5316 798.2006,-137.3261"/>
</g>
<!-- Node17&#45;&gt;Node2 -->
<g id="edge30" class="edge">
<title>Node17&#45;&gt;Node2</title>
<path fill="none" stroke="#191970" d="M715.0875,-168.3654C692.7703,-160.7433 663.1736,-148.6092 640.5,-132 622.294,-118.6635 605.9643,-98.4811 595.4984,-83.9468"/>
<polygon fill="#191970" stroke="#191970" points="598.3659,-81.9399 589.7754,-75.7388 592.6239,-85.9436 598.3659,-81.9399"/>
</g>
<!-- Node17&#45;&gt;Node3 -->
<g id="edge31" class="edge">
<title>Node17&#45;&gt;Node3</title>
<path fill="none" stroke="#191970" d="M734.6102,-168.2455C723.5746,-159.8943 707.4708,-147.7076 694.5647,-137.9408"/>
<polygon fill="#191970" stroke="#191970" points="696.3283,-134.8862 686.2421,-131.6427 692.1041,-140.4681 696.3283,-134.8862"/>
</g>
<!-- Node17&#45;&gt;Node4 -->
<g id="edge29" class="edge">
<title>Node17&#45;&gt;Node4</title>
<path fill="none" stroke="#191970" d="M764.5703,-168.2455C779.747,-159.5731 802.1621,-146.7645 819.5563,-136.825"/>
<polygon fill="#191970" stroke="#191970" points="821.6794,-139.643 828.6253,-131.6427 818.2064,-133.5653 821.6794,-139.643"/>
</g>
<!-- Node18 -->
<g id="node19" class="node">
<title>Node18</title>
<polygon fill="none" stroke="#bfbfbf" points="715.5,-112.5 715.5,-131.5 779.5,-131.5 779.5,-112.5 715.5,-112.5"/>
<text text-anchor="middle" x="747.5" y="-119.5" font-family="Helvetica,sans-Serif" font-size="10.00" fill="#000000">algorithm</text>
</g>
<!-- Node17&#45;&gt;Node18 -->
<g id="edge32" class="edge">
<title>Node17&#45;&gt;Node18</title>
<path fill="none" stroke="#191970" d="M747.5,-168.2455C747.5,-160.9382 747.5,-150.6944 747.5,-141.7046"/>
<polygon fill="#191970" stroke="#191970" points="751.0001,-141.6426 747.5,-131.6427 744.0001,-141.6427 751.0001,-141.6426"/>
</g>
<!-- Node19&#45;&gt;Node5 -->
<g id="edge34" class="edge">
<title>Node19&#45;&gt;Node5</title>
<path fill="none" stroke="#191970" d="M989.3321,-168.2455C992.2659,-160.7776 996.4047,-150.2427 999.991,-141.1137"/>
<polygon fill="#191970" stroke="#191970" points="1003.3129,-142.23 1003.7118,-131.6427 996.7976,-139.6704 1003.3129,-142.23"/>
</g>
<!-- Node20&#45;&gt;Node2 -->
<g id="edge41" class="edge">
<title>Node20&#45;&gt;Node2</title>
<path fill="none" stroke="#191970" d="M1136.7805,-168.2807C1125.7529,-153.2214 1102.2464,-124.6679 1074.5,-112 992.2891,-74.4657 711.7568,-67.5545 615.9089,-66.2849"/>
<polygon fill="#191970" stroke="#191970" points="615.7133,-62.7824 605.6719,-66.1618 615.6291,-69.7819 615.7133,-62.7824"/>
</g>
<!-- Node20&#45;&gt;Node8 -->
<g id="edge36" class="edge">
<title>Node20&#45;&gt;Node8</title>
<path fill="none" stroke="#191970" d="M1114.4197,-174.6367C1096.5636,-172.6132 1073.2203,-170.0425 1052.5,-168 1040.3858,-166.8058 686.6948,-136.0232 565.6612,-125.4934"/>
<polygon fill="#191970" stroke="#191970" points="565.9512,-122.0055 555.6855,-124.6256 565.3445,-128.9792 565.9512,-122.0055"/>
</g>
<!-- Node21 -->
<g id="node22" class="node">
<title>Node21</title>
<polygon fill="none" stroke="#bfbfbf" points="1331.5,-112.5 1331.5,-131.5 1381.5,-131.5 1381.5,-112.5 1331.5,-112.5"/>
<text text-anchor="middle" x="1356.5" y="-119.5" font-family="Helvetica,sans-Serif" font-size="10.00" fill="#000000">chrono</text>
</g>
<!-- Node20&#45;&gt;Node21 -->
<g id="edge37" class="edge">
<title>Node20&#45;&gt;Node21</title>
<path fill="none" stroke="#191970" d="M1172.7259,-170.8184C1206.36,-162.4819 1263.4797,-148.1053 1321.5699,-132.1946"/>
<polygon fill="#191970" stroke="#191970" points="1322.5635,-135.5513 1331.2767,-129.5238 1320.7064,-128.8021 1322.5635,-135.5513"/>
</g>
<!-- Node22 -->
<g id="node23" class="node">
<title>Node22</title>
<polygon fill="none" stroke="#bfbfbf" points="1121.5,-112.5 1121.5,-131.5 1165.5,-131.5 1165.5,-112.5 1121.5,-112.5"/>
<text text-anchor="middle" x="1143.5" y="-119.5" font-family="Helvetica,sans-Serif" font-size="10.00" fill="#000000">ctime</text>
</g>
<!-- Node20&#45;&gt;Node22 -->
<g id="edge38" class="edge">
<title>Node20&#45;&gt;Node22</title>
<path fill="none" stroke="#191970" d="M1143.5,-168.2455C1143.5,-160.9382 1143.5,-150.6944 1143.5,-141.7046"/>
<polygon fill="#191970" stroke="#191970" points="1147.0001,-141.6426 1143.5,-131.6427 1140.0001,-141.6427 1147.0001,-141.6426"/>
</g>
<!-- Node23 -->
<g id="node24" class="node">
<title>Node23</title>
<polygon fill="none" stroke="#bfbfbf" points="1184,-112.5 1184,-131.5 1239,-131.5 1239,-112.5 1184,-112.5"/>
<text text-anchor="middle" x="1211.5" y="-119.5" font-family="Helvetica,sans-Serif" font-size="10.00" fill="#000000">fstream</text>
</g>
<!-- Node20&#45;&gt;Node23 -->
<g id="edge39" class="edge">
<title>Node20&#45;&gt;Node23</title>
<path fill="none" stroke="#191970" d="M1155.3447,-168.2455C1165.388,-159.9746 1179.9995,-147.9416 1191.8004,-138.2232"/>
<polygon fill="#191970" stroke="#191970" points="1194.2967,-140.7015 1199.791,-131.6427 1189.8467,-135.298 1194.2967,-140.7015"/>
</g>
<!-- Node24 -->
<g id="node25" class="node">
<title>Node24</title>
<polygon fill="none" stroke="#bfbfbf" points="1257.5,-112.5 1257.5,-131.5 1313.5,-131.5 1313.5,-112.5 1257.5,-112.5"/>
<text text-anchor="middle" x="1285.5" y="-119.5" font-family="Helvetica,sans-Serif" font-size="10.00" fill="#000000">sstream</text>
</g>
<!-- Node20&#45;&gt;Node24 -->
<g id="edge40" class="edge">
<title>Node20&#45;&gt;Node24</title>
<path fill="none" stroke="#191970" d="M1167.9107,-168.3733C1191.1142,-159.2226 1226.2038,-145.3844 1252.0142,-135.2057"/>
<polygon fill="#191970" stroke="#191970" points="1253.3892,-138.4258 1261.4079,-131.5011 1250.8211,-131.9139 1253.3892,-138.4258"/>
</g>
</g>
</svg>
