<?xml version="1.0" encoding="UTF-8" standalone="no"?>
<!DOCTYPE svg PUBLIC "-//W3C//DTD SVG 1.1//EN"
 "http://www.w3.org/Graphics/SVG/1.1/DTD/svg11.dtd">
<!-- Generated by graphviz version 2.40.1 (20161225.0304)
 -->
<!-- Title: src/engine/Sprite.hxx Pages: 1 -->
<svg width="1330pt" height="386pt"
 viewBox="0.00 0.00 1329.50 386.00" xmlns="http://www.w3.org/2000/svg" xmlns:xlink="http://www.w3.org/1999/xlink">
<g id="graph0" class="graph" transform="scale(1 1) rotate(0) translate(4 382)">
<title>src/engine/Sprite.hxx</title>
<!-- Node6 -->
<g id="node1" class="node">
<title>Node6</title>
<polygon fill="#bfbfbf" stroke="#000000" points="554,-358.5 554,-377.5 673,-377.5 673,-358.5 554,-358.5"/>
<text text-anchor="middle" x="613.5" y="-365.5" font-family="Helvetica,sans-Serif" font-size="10.00" fill="#000000">src/engine/Sprite.hxx</text>
</g>
<!-- Node7 -->
<g id="node2" class="node">
<title>Node7</title>
<g id="a_node2"><a xlink:href="MapNode_8hxx.html" target="_top" xlink:title="src/engine/GameObjects\l/MapNode.hxx">
<polygon fill="none" stroke="#000000" points="545.5,-291.5 545.5,-321.5 681.5,-321.5 681.5,-291.5 545.5,-291.5"/>
<text text-anchor="start" x="553.5" y="-309.5" font-family="Helvetica,sans-Serif" font-size="10.00" fill="#000000">src/engine/GameObjects</text>
<text text-anchor="middle" x="613.5" y="-298.5" font-family="Helvetica,sans-Serif" font-size="10.00" fill="#000000">/MapNode.hxx</text>
</a>
</g>
</g>
<!-- Node6&#45;&gt;Node7 -->
<g id="edge1" class="edge">
<title>Node6&#45;&gt;Node7</title>
<path fill="none" stroke="#191970" d="M613.5,-348.3693C613.5,-339.681 613.5,-329.6241 613.5,-321.5446"/>
<polygon fill="#191970" stroke="#191970" points="610.0001,-348.3906 613.5,-358.3906 617.0001,-348.3907 610.0001,-348.3906"/>
</g>
<!-- Node14 -->
<g id="node9" class="node">
<title>Node14</title>
<g id="a_node9"><a xlink:href="EventManager_8cxx.html" target="_top" xlink:title="src/engine/EventManager.cxx">
<polygon fill="none" stroke="#000000" points="0,-.5 0,-19.5 159,-19.5 159,-.5 0,-.5"/>
<text text-anchor="middle" x="79.5" y="-7.5" font-family="Helvetica,sans-Serif" font-size="10.00" fill="#000000">src/engine/EventManager.cxx</text>
</a>
</g>
</g>
<!-- Node6&#45;&gt;Node14 -->
<g id="edge26" class="edge">
<title>Node6&#45;&gt;Node14</title>
<path fill="none" stroke="#191970" d="M543.4052,-366.3093C394.5723,-360.8146 60.5,-337.5595 60.5,-239.5 60.5,-239.5 60.5,-239.5 60.5,-122 60.5,-83.7388 71.4113,-39.1479 76.6965,-19.7934"/>
<polygon fill="#191970" stroke="#191970" points="543.6769,-369.8209 553.7939,-366.675 543.9233,-362.8253 543.6769,-369.8209"/>
</g>
<!-- Node25 -->
<g id="node20" class="node">
<title>Node25</title>
<g id="a_node20"><a xlink:href="Sprite_8cxx.html" target="_top" xlink:title="src/engine/Sprite.cxx">
<polygon fill="none" stroke="#000000" points="700,-297 700,-316 819,-316 819,-297 700,-297"/>
<text text-anchor="middle" x="759.5" y="-304" font-family="Helvetica,sans-Serif" font-size="10.00" fill="#000000">src/engine/Sprite.cxx</text>
</a>
</g>
</g>
<!-- Node6&#45;&gt;Node25 -->
<g id="edge27" class="edge">
<title>Node6&#45;&gt;Node25</title>
<path fill="none" stroke="#191970" d="M645.5594,-354.4955C673.1867,-342.858 712.3761,-326.3501 736.8477,-316.0419"/>
<polygon fill="#191970" stroke="#191970" points="644.1696,-351.2831 636.3125,-358.3906 646.887,-357.7341 644.1696,-351.2831"/>
</g>
<!-- Node8 -->
<g id="node3" class="node">
<title>Node8</title>
<g id="a_node3"><a xlink:href="Map_8hxx.html" target="_top" xlink:title="src/engine/Map.hxx">
<polygon fill="none" stroke="#000000" points="560,-168.5 560,-187.5 671,-187.5 671,-168.5 560,-168.5"/>
<text text-anchor="middle" x="615.5" y="-175.5" font-family="Helvetica,sans-Serif" font-size="10.00" fill="#000000">src/engine/Map.hxx</text>
</a>
</g>
</g>
<!-- Node7&#45;&gt;Node8 -->
<g id="edge2" class="edge">
<title>Node7&#45;&gt;Node8</title>
<path fill="none" stroke="#191970" d="M613.894,-281.1876C614.3392,-252.5797 615.0418,-207.4362 615.3485,-187.7358"/>
<polygon fill="#191970" stroke="#191970" points="610.3934,-281.2015 613.7373,-291.2548 617.3926,-281.3105 610.3934,-281.2015"/>
</g>
<!-- Node19 -->
<g id="node14" class="node">
<title>Node19</title>
<g id="a_node14"><a xlink:href="TerrainGenerator_8hxx.html" target="_top" xlink:title="src/engine/map/TerrainGenerator.hxx">
<polygon fill="none" stroke="#000000" points="642,-230 642,-249 839,-249 839,-230 642,-230"/>
<text text-anchor="middle" x="740.5" y="-237" font-family="Helvetica,sans-Serif" font-size="10.00" fill="#000000">src/engine/map/TerrainGenerator.hxx</text>
</a>
</g>
</g>
<!-- Node7&#45;&gt;Node19 -->
<g id="edge16" class="edge">
<title>Node7&#45;&gt;Node19</title>
<path fill="none" stroke="#191970" d="M651.0205,-286.7057C674.5272,-274.3045 703.7734,-258.8754 722.2956,-249.1039"/>
<polygon fill="#191970" stroke="#191970" points="649.2128,-283.7021 642.0013,-291.4639 652.4791,-289.8934 649.2128,-283.7021"/>
</g>
<!-- Node20 -->
<g id="node15" class="node">
<title>Node20</title>
<g id="a_node15"><a xlink:href="JsonSerialization_8hxx.html" target="_top" xlink:title="src/engine/common/JsonSerialization.hxx">
<polygon fill="none" stroke="#000000" points="763.5,-168.5 763.5,-187.5 981.5,-187.5 981.5,-168.5 763.5,-168.5"/>
<text text-anchor="middle" x="872.5" y="-175.5" font-family="Helvetica,sans-Serif" font-size="10.00" fill="#000000">src/engine/common/JsonSerialization.hxx</text>
</a>
</g>
</g>
<!-- Node7&#45;&gt;Node20 -->
<g id="edge24" class="edge">
<title>Node7&#45;&gt;Node20</title>
<path fill="none" stroke="#191970" d="M691.6965,-290.3223C758.8996,-276.2724 845.4989,-257.7523 848.5,-255 867.9008,-237.2071 871.75,-204.0209 872.4261,-187.6462"/>
<polygon fill="#191970" stroke="#191970" points="690.588,-286.9782 681.5143,-292.448 692.0185,-293.8305 690.588,-286.9782"/>
</g>
<!-- Node24 -->
<g id="node19" class="node">
<title>Node24</title>
<g id="a_node19"><a xlink:href="MapNode_8cxx.html" target="_top" xlink:title="src/engine/GameObjects\l/MapNode.cxx">
<polygon fill="none" stroke="#000000" points="449.5,-224.5 449.5,-254.5 585.5,-254.5 585.5,-224.5 449.5,-224.5"/>
<text text-anchor="start" x="457.5" y="-242.5" font-family="Helvetica,sans-Serif" font-size="10.00" fill="#000000">src/engine/GameObjects</text>
<text text-anchor="middle" x="517.5" y="-231.5" font-family="Helvetica,sans-Serif" font-size="10.00" fill="#000000">/MapNode.cxx</text>
</a>
</g>
</g>
<!-- Node7&#45;&gt;Node24 -->
<g id="edge25" class="edge">
<title>Node7&#45;&gt;Node24</title>
<path fill="none" stroke="#191970" d="M583.1911,-285.3469C568.9067,-275.3776 552.1919,-263.7121 539.1977,-254.6432"/>
<polygon fill="#191970" stroke="#191970" points="581.5126,-288.4436 591.7161,-291.2967 585.5189,-282.7033 581.5126,-288.4436"/>
</g>
<!-- Node9 -->
<g id="node4" class="node">
<title>Node9</title>
<g id="a_node4"><a xlink:href="Engine_8hxx.html" target="_top" xlink:title="src/engine/Engine.hxx">
<polygon fill="none" stroke="#000000" points="465.5,-112.5 465.5,-131.5 589.5,-131.5 589.5,-112.5 465.5,-112.5"/>
<text text-anchor="middle" x="527.5" y="-119.5" font-family="Helvetica,sans-Serif" font-size="10.00" fill="#000000">src/engine/Engine.hxx</text>
</a>
</g>
</g>
<!-- Node8&#45;&gt;Node9 -->
<g id="edge3" class="edge">
<title>Node8&#45;&gt;Node9</title>
<path fill="none" stroke="#191970" d="M591.5655,-162.769C575.9717,-152.8456 556.099,-140.1994 542.6528,-131.6427"/>
<polygon fill="#191970" stroke="#191970" points="589.8559,-165.8296 600.1716,-168.2455 593.614,-159.9239 589.8559,-165.8296"/>
</g>
<!-- Node8&#45;&gt;Node14 -->
<g id="edge13" class="edge">
<title>Node8&#45;&gt;Node14</title>
<path fill="none" stroke="#191970" d="M549.4916,-171.2399C430.4925,-157.9711 185.9897,-125.436 117.5,-76 97.9881,-61.9163 87.0133,-34.4993 82.2988,-19.8257"/>
<polygon fill="#191970" stroke="#191970" points="549.2459,-174.7339 559.5693,-172.3509 550.0131,-167.7761 549.2459,-174.7339"/>
</g>
<!-- Node17 -->
<g id="node12" class="node">
<title>Node17</title>
<g id="a_node12"><a xlink:href="UIManager_8cxx.html" target="_top" xlink:title="src/engine/UIManager.cxx">
<polygon fill="none" stroke="#000000" points="844.5,-56.5 844.5,-75.5 986.5,-75.5 986.5,-56.5 844.5,-56.5"/>
<text text-anchor="middle" x="915.5" y="-63.5" font-family="Helvetica,sans-Serif" font-size="10.00" fill="#000000">src/engine/UIManager.cxx</text>
</a>
</g>
</g>
<!-- Node8&#45;&gt;Node17 -->
<g id="edge15" class="edge">
<title>Node8&#45;&gt;Node17</title>
<path fill="none" stroke="#191970" d="M616.4815,-157.978C618.3249,-143.0731 623.3099,-123.408 636.5,-112 652.0716,-98.5323 767.0338,-82.963 844.4444,-73.8292"/>
<polygon fill="#191970" stroke="#191970" points="612.9695,-157.9696 615.6005,-168.2325 619.9438,-158.5689 612.9695,-157.9696"/>
</g>
<!-- Node18 -->
<g id="node13" class="node">
<title>Node18</title>
<g id="a_node13"><a xlink:href="Map_8cxx.html" target="_top" xlink:title="src/engine/Map.cxx">
<polygon fill="none" stroke="#000000" points="645.5,-112.5 645.5,-131.5 755.5,-131.5 755.5,-112.5 645.5,-112.5"/>
<text text-anchor="middle" x="700.5" y="-119.5" font-family="Helvetica,sans-Serif" font-size="10.00" fill="#000000">src/engine/Map.cxx</text>
</a>
</g>
</g>
<!-- Node8&#45;&gt;Node18 -->
<g id="edge14" class="edge">
<title>Node8&#45;&gt;Node18</title>
<path fill="none" stroke="#191970" d="M639.0419,-162.49C654.039,-152.6096 672.9973,-140.1194 685.8638,-131.6427"/>
<polygon fill="#191970" stroke="#191970" points="636.7309,-159.8212 630.3059,-168.2455 640.5821,-165.6666 636.7309,-159.8212"/>
</g>
<!-- Node10 -->
<g id="node5" class="node">
<title>Node10</title>
<g id="a_node5"><a xlink:href="Camera_8cxx.html" target="_top" xlink:title="src/engine/basics/Camera.cxx">
<polygon fill="none" stroke="#000000" points="446.5,-56.5 446.5,-75.5 608.5,-75.5 608.5,-56.5 446.5,-56.5"/>
<text text-anchor="middle" x="527.5" y="-63.5" font-family="Helvetica,sans-Serif" font-size="10.00" fill="#000000">src/engine/basics/Camera.cxx</text>
</a>
</g>
</g>
<!-- Node9&#45;&gt;Node10 -->
<g id="edge4" class="edge">
<title>Node9&#45;&gt;Node10</title>
<path fill="none" stroke="#191970" d="M527.5,-102.1575C527.5,-93.155 527.5,-82.9199 527.5,-75.6427"/>
<polygon fill="#191970" stroke="#191970" points="524.0001,-102.2455 527.5,-112.2455 531.0001,-102.2456 524.0001,-102.2455"/>
</g>
<!-- Node11 -->
<g id="node6" class="node">
<title>Node11</title>
<g id="a_node6"><a xlink:href="isoMath_8cxx.html" target="_top" xlink:title="src/engine/basics/isoMath.cxx">
<polygon fill="none" stroke="#000000" points="626.5,-56.5 626.5,-75.5 788.5,-75.5 788.5,-56.5 626.5,-56.5"/>
<text text-anchor="middle" x="707.5" y="-63.5" font-family="Helvetica,sans-Serif" font-size="10.00" fill="#000000">src/engine/basics/isoMath.cxx</text>
</a>
</g>
</g>
<!-- Node9&#45;&gt;Node11 -->
<g id="edge5" class="edge">
<title>Node9&#45;&gt;Node11</title>
<path fill="none" stroke="#191970" d="M568.2459,-109.3235C601.2563,-99.0536 647.0417,-84.8093 676.9607,-75.5011"/>
<polygon fill="#191970" stroke="#191970" points="566.9519,-106.0605 558.4431,-112.3733 569.0314,-112.7445 566.9519,-106.0605"/>
</g>
<!-- Node12 -->
<g id="node7" class="node">
<title>Node12</title>
<g id="a_node7"><a xlink:href="EventManager_8hxx.html" target="_top" xlink:title="src/engine/EventManager.hxx">
<polygon fill="none" stroke="#000000" points="126.5,-56.5 126.5,-75.5 286.5,-75.5 286.5,-56.5 126.5,-56.5"/>
<text text-anchor="middle" x="206.5" y="-63.5" font-family="Helvetica,sans-Serif" font-size="10.00" fill="#000000">src/engine/EventManager.hxx</text>
</a>
</g>
</g>
<!-- Node9&#45;&gt;Node12 -->
<g id="edge6" class="edge">
<title>Node9&#45;&gt;Node12</title>
<path fill="none" stroke="#191970" d="M462.6907,-110.6937C403.4683,-100.3621 316.8679,-85.2542 261.091,-75.5237"/>
<polygon fill="#191970" stroke="#191970" points="462.2301,-114.1661 472.6829,-112.4369 463.4332,-107.2703 462.2301,-114.1661"/>
</g>
<!-- Node15 -->
<g id="node10" class="node">
<title>Node15</title>
<g id="a_node10"><a xlink:href="Game_8cxx.html" target="_top" xlink:title="src/Game.cxx">
<polygon fill="none" stroke="#000000" points="561,-.5 561,-19.5 644,-19.5 644,-.5 561,-.5"/>
<text text-anchor="middle" x="602.5" y="-7.5" font-family="Helvetica,sans-Serif" font-size="10.00" fill="#000000">src/Game.cxx</text>
</a>
</g>
</g>
<!-- Node9&#45;&gt;Node15 -->
<g id="edge12" class="edge">
<title>Node9&#45;&gt;Node15</title>
<path fill="none" stroke="#191970" d="M600.0519,-111.9849C677.8227,-100.8995 791.0884,-83.5964 797.5,-76 803.2333,-69.2073 803.0169,-62.9697 797.5,-56 778.7723,-32.3404 695.8612,-19.6218 644.3674,-13.8814"/>
<polygon fill="#191970" stroke="#191970" points="599.2132,-108.5687 589.8041,-113.4389 600.1967,-115.4993 599.2132,-108.5687"/>
</g>
<!-- Node16 -->
<g id="node11" class="node">
<title>Node16</title>
<g id="a_node11"><a xlink:href="Engine_8cxx.html" target="_top" xlink:title="src/engine/Engine.cxx">
<polygon fill="none" stroke="#000000" points="305,-56.5 305,-75.5 428,-75.5 428,-56.5 305,-56.5"/>
<text text-anchor="middle" x="366.5" y="-63.5" font-family="Helvetica,sans-Serif" font-size="10.00" fill="#000000">src/engine/Engine.cxx</text>
</a>
</g>
</g>
<!-- Node9&#45;&gt;Node16 -->
<g id="edge10" class="edge">
<title>Node9&#45;&gt;Node16</title>
<path fill="none" stroke="#191970" d="M490.2889,-109.057C460.8241,-98.8084 420.3459,-84.729 393.8157,-75.5011"/>
<polygon fill="#191970" stroke="#191970" points="489.2283,-112.3937 499.8231,-112.3733 491.528,-105.7822 489.2283,-112.3937"/>
</g>
<!-- Node9&#45;&gt;Node17 -->
<g id="edge11" class="edge">
<title>Node9&#45;&gt;Node17</title>
<path fill="none" stroke="#191970" d="M600.1257,-111.5179C671.7217,-101.1845 780.1813,-85.5305 849.4201,-75.5373"/>
<polygon fill="#191970" stroke="#191970" points="599.2364,-108.1099 589.8389,-113.0026 600.2364,-115.0382 599.2364,-108.1099"/>
</g>
<!-- Node13 -->
<g id="node8" class="node">
<title>Node13</title>
<g id="a_node8"><a xlink:href="Timer_8cxx.html" target="_top" xlink:title="src/engine/basics/Timer.cxx">
<polygon fill="none" stroke="#000000" points="177.5,-.5 177.5,-19.5 329.5,-19.5 329.5,-.5 177.5,-.5"/>
<text text-anchor="middle" x="253.5" y="-7.5" font-family="Helvetica,sans-Serif" font-size="10.00" fill="#000000">src/engine/basics/Timer.cxx</text>
</a>
</g>
</g>
<!-- Node12&#45;&gt;Node13 -->
<g id="edge7" class="edge">
<title>Node12&#45;&gt;Node13</title>
<path fill="none" stroke="#191970" d="M221.1872,-48.5004C229.1796,-38.9775 238.7625,-27.5596 245.407,-19.6427"/>
<polygon fill="#191970" stroke="#191970" points="218.4346,-46.3357 214.6868,-56.2455 223.7964,-50.8358 218.4346,-46.3357"/>
</g>
<!-- Node12&#45;&gt;Node14 -->
<g id="edge8" class="edge">
<title>Node12&#45;&gt;Node14</title>
<path fill="none" stroke="#191970" d="M175.3108,-52.2473C152.2463,-42.0771 121.4288,-28.4883 101.0472,-19.5011"/>
<polygon fill="#191970" stroke="#191970" points="174.1058,-55.5411 184.6679,-56.3733 176.9301,-49.1361 174.1058,-55.5411"/>
</g>
<!-- Node12&#45;&gt;Node15 -->
<g id="edge9" class="edge">
<title>Node12&#45;&gt;Node15</title>
<path fill="none" stroke="#191970" d="M284.2611,-55.0035C367.2219,-43.2716 495.5084,-25.1301 560.9783,-15.8717"/>
<polygon fill="#191970" stroke="#191970" points="283.5363,-51.5711 274.1249,-56.4369 284.5165,-58.5021 283.5363,-51.5711"/>
</g>
<!-- Node19&#45;&gt;Node8 -->
<g id="edge17" class="edge">
<title>Node19&#45;&gt;Node8</title>
<path fill="none" stroke="#191970" d="M711.8035,-225.3813C688.2301,-213.7832 655.4798,-197.6701 634.8941,-187.5419"/>
<polygon fill="#191970" stroke="#191970" points="710.4508,-228.6164 720.9688,-229.8906 713.5411,-222.3355 710.4508,-228.6164"/>
</g>
<!-- Node19&#45;&gt;Node20 -->
<g id="edge18" class="edge">
<title>Node19&#45;&gt;Node20</title>
<path fill="none" stroke="#191970" d="M770.4722,-225.5357C795.3894,-213.9265 830.1847,-197.7151 852.0198,-187.5419"/>
<polygon fill="#191970" stroke="#191970" points="768.7113,-222.4948 761.125,-229.8906 771.6676,-228.8399 768.7113,-222.4948"/>
</g>
<!-- Node22 -->
<g id="node17" class="node">
<title>Node22</title>
<g id="a_node17"><a xlink:href="TerrainGenerator_8cxx.html" target="_top" xlink:title="src/engine/map/TerrainGenerator.cxx">
<polygon fill="none" stroke="#000000" points="773.5,-112.5 773.5,-131.5 969.5,-131.5 969.5,-112.5 773.5,-112.5"/>
<text text-anchor="middle" x="871.5" y="-119.5" font-family="Helvetica,sans-Serif" font-size="10.00" fill="#000000">src/engine/map/TerrainGenerator.cxx</text>
</a>
</g>
</g>
<!-- Node19&#45;&gt;Node22 -->
<g id="edge23" class="edge">
<title>Node19&#45;&gt;Node22</title>
<path fill="none" stroke="#191970" d="M739.4732,-219.7591C739.706,-204.0495 742.5099,-182.387 754.5,-168 770.0803,-149.3052 794.2837,-138.169 816.6431,-131.5537"/>
<polygon fill="#191970" stroke="#191970" points="735.9774,-220.0239 739.6634,-229.9568 742.9762,-219.8933 735.9774,-220.0239"/>
</g>
<!-- Node20&#45;&gt;Node18 -->
<g id="edge21" class="edge">
<title>Node20&#45;&gt;Node18</title>
<path fill="none" stroke="#191970" d="M833.1565,-165.1905C801.6449,-154.9309 758.1481,-140.7691 729.682,-131.5011"/>
<polygon fill="#191970" stroke="#191970" points="832.3399,-168.6054 842.9321,-168.3733 834.507,-161.9493 832.3399,-168.6054"/>
</g>
<!-- Node21 -->
<g id="node16" class="node">
<title>Node21</title>
<g id="a_node16"><a xlink:href="Settings_8cxx.html" target="_top" xlink:title="src/engine/basics/Settings.cxx">
<polygon fill="none" stroke="#000000" points="1157.5,-112.5 1157.5,-131.5 1321.5,-131.5 1321.5,-112.5 1157.5,-112.5"/>
<text text-anchor="middle" x="1239.5" y="-119.5" font-family="Helvetica,sans-Serif" font-size="10.00" fill="#000000">src/engine/basics/Settings.cxx</text>
</a>
</g>
</g>
<!-- Node20&#45;&gt;Node21 -->
<g id="edge19" class="edge">
<title>Node20&#45;&gt;Node21</title>
<path fill="none" stroke="#191970" d="M945.3411,-166.8853C1013.077,-156.5496 1112.9209,-141.3145 1177.0859,-131.5237"/>
<polygon fill="#191970" stroke="#191970" points="944.5302,-163.4684 935.1725,-168.4369 945.5861,-170.3883 944.5302,-163.4684"/>
</g>
<!-- Node20&#45;&gt;Node22 -->
<g id="edge20" class="edge">
<title>Node20&#45;&gt;Node22</title>
<path fill="none" stroke="#191970" d="M872.1457,-158.1575C871.9849,-149.155 871.8021,-138.9199 871.6722,-131.6427"/>
<polygon fill="#191970" stroke="#191970" points="868.6477,-158.3097 872.3258,-168.2455 875.6466,-158.1846 868.6477,-158.3097"/>
</g>
<!-- Node23 -->
<g id="node18" class="node">
<title>Node23</title>
<g id="a_node18"><a xlink:href="AudioMixer_8cxx.html" target="_top" xlink:title="src/services/AudioMixer.cxx">
<polygon fill="none" stroke="#000000" points="987.5,-112.5 987.5,-131.5 1139.5,-131.5 1139.5,-112.5 987.5,-112.5"/>
<text text-anchor="middle" x="1063.5" y="-119.5" font-family="Helvetica,sans-Serif" font-size="10.00" fill="#000000">src/services/AudioMixer.cxx</text>
</a>
</g>
</g>
<!-- Node20&#45;&gt;Node23 -->
<g id="edge22" class="edge">
<title>Node20&#45;&gt;Node23</title>
<path fill="none" stroke="#191970" d="M915.2837,-165.4561C950.3445,-155.1765 999.2102,-140.8494 1031.0944,-131.5011"/>
<polygon fill="#191970" stroke="#191970" points="913.9454,-162.2011 905.3341,-168.3733 915.9149,-168.9183 913.9454,-162.2011"/>
</g>
</g>
</svg>
