<?xml version="1.0" encoding="UTF-8" standalone="no"?>
<!DOCTYPE svg PUBLIC "-//W3C//DTD SVG 1.1//EN"
 "http://www.w3.org/Graphics/SVG/1.1/DTD/svg11.dtd">
<!-- Generated by graphviz version 2.40.1 (20161225.0304)
 -->
<!-- Title: TileData Pages: 1 -->
<svg width="200pt" height="474pt"
 viewBox="0.00 0.00 199.50 474.00" xmlns="http://www.w3.org/2000/svg" xmlns:xlink="http://www.w3.org/1999/xlink">
<g id="graph0" class="graph" transform="scale(1 1) rotate(0) translate(4 470)">
<title>TileData</title>
<!-- Node1 -->
<g id="node1" class="node">
<title>Node1</title>
<polygon fill="#bfbfbf" stroke="#000000" points="0,-.5 0,-189.5 105,-189.5 105,-.5 0,-.5"/>
<text text-anchor="middle" x="52.5" y="-177.5" font-family="Helvetica,sans-Serif" font-size="10.00" fill="#000000">TileData</text>
<polyline fill="none" stroke="#000000" points="0,-170.5 105,-170.5 "/>
<text text-anchor="start" x="8" y="-158.5" font-family="Helvetica,sans-Serif" font-size="10.00" fill="#000000">+ buildingsize</text>
<text text-anchor="start" x="8" y="-147.5" font-family="Helvetica,sans-Serif" font-size="10.00" fill="#000000">+ price</text>
<text text-anchor="start" x="8" y="-136.5" font-family="Helvetica,sans-Serif" font-size="10.00" fill="#000000">+ upkeepCost</text>
<text text-anchor="start" x="8" y="-125.5" font-family="Helvetica,sans-Serif" font-size="10.00" fill="#000000">+ power</text>
<text text-anchor="start" x="8" y="-114.5" font-family="Helvetica,sans-Serif" font-size="10.00" fill="#000000">+ water</text>
<text text-anchor="start" x="8" y="-103.5" font-family="Helvetica,sans-Serif" font-size="10.00" fill="#000000">+ drawGround</text>
<text text-anchor="start" x="8" y="-92.5" font-family="Helvetica,sans-Serif" font-size="10.00" fill="#000000">+ placeOnGround</text>
<text text-anchor="start" x="8" y="-81.5" font-family="Helvetica,sans-Serif" font-size="10.00" fill="#000000">+ placeOnWater</text>
<text text-anchor="start" x="8" y="-70.5" font-family="Helvetica,sans-Serif" font-size="10.00" fill="#000000">+ isOverPlacable</text>
<text text-anchor="start" x="8" y="-59.5" font-family="Helvetica,sans-Serif" font-size="10.00" fill="#000000">+ pollutionLevel</text>
<text text-anchor="start" x="8" y="-48.5" font-family="Helvetica,sans-Serif" font-size="10.00" fill="#000000">+ crimeLevel</text>
<text text-anchor="start" x="8" y="-37.5" font-family="Helvetica,sans-Serif" font-size="10.00" fill="#000000">+ fireDangerLevel</text>
<text text-anchor="start" x="8" y="-26.5" font-family="Helvetica,sans-Serif" font-size="10.00" fill="#000000">+ habitants</text>
<polyline fill="none" stroke="#000000" points="0,-19.5 105,-19.5 "/>
<text text-anchor="middle" x="52.5" y="-7.5" font-family="Helvetica,sans-Serif" font-size="10.00" fill="#000000"> </text>
</g>
<!-- Node2 -->
<g id="node2" class="node">
<title>Node2</title>
<g id="a_node2"><a xlink:href="structTileSetData.html" target="_top" xlink:title="{TileSetData\n|+ count\l+ clippingWidth\l+ clippingHeight\l+ offset\l+ rotations\l|}">
<polygon fill="none" stroke="#000000" points="93.5,-259.5 93.5,-360.5 191.5,-360.5 191.5,-259.5 93.5,-259.5"/>
<text text-anchor="middle" x="142.5" y="-348.5" font-family="Helvetica,sans-Serif" font-size="10.00" fill="#000000">TileSetData</text>
<polyline fill="none" stroke="#000000" points="93.5,-341.5 191.5,-341.5 "/>
<text text-anchor="start" x="101.5" y="-329.5" font-family="Helvetica,sans-Serif" font-size="10.00" fill="#000000">+ count</text>
<text text-anchor="start" x="101.5" y="-318.5" font-family="Helvetica,sans-Serif" font-size="10.00" fill="#000000">+ clippingWidth</text>
<text text-anchor="start" x="101.5" y="-307.5" font-family="Helvetica,sans-Serif" font-size="10.00" fill="#000000">+ clippingHeight</text>
<text text-anchor="start" x="101.5" y="-296.5" font-family="Helvetica,sans-Serif" font-size="10.00" fill="#000000">+ offset</text>
<text text-anchor="start" x="101.5" y="-285.5" font-family="Helvetica,sans-Serif" font-size="10.00" fill="#000000">+ rotations</text>
<polyline fill="none" stroke="#000000" points="93.5,-278.5 191.5,-278.5 "/>
<text text-anchor="middle" x="142.5" y="-266.5" font-family="Helvetica,sans-Serif" font-size="10.00" fill="#000000"> </text>
</a>
</g>
</g>
<!-- Node2&#45;&gt;Node1 -->
<g id="edge1" class="edge">
<title>Node2&#45;&gt;Node1</title>
<path fill="none" stroke="#404040" d="M121.2852,-259.3203C113.9187,-241.7224 105.3587,-221.2737 96.8309,-200.9015"/>
<polygon fill="none" stroke="#404040" points="96.738,-200.6794 90.7313,-196.6893 92.1042,-189.6101 98.1109,-193.6002 96.738,-200.6794"/>
<text text-anchor="middle" x="145.5" y="-233" font-family="Helvetica,sans-Serif" font-size="10.00" fill="#000000"> +cornerTiles</text>
<text text-anchor="middle" x="145.5" y="-222" font-family="Helvetica,sans-Serif" font-size="10.00" fill="#000000">+tiles</text>
<text text-anchor="middle" x="145.5" y="-211" font-family="Helvetica,sans-Serif" font-size="10.00" fill="#000000">+slopeTiles</text>
</g>
<!-- Node3 -->
<g id="node3" class="node">
<title>Node3</title>
<polygon fill="none" stroke="#bfbfbf" points="6.5,-408.5 6.5,-465.5 50.5,-465.5 50.5,-408.5 6.5,-408.5"/>
<text text-anchor="middle" x="28.5" y="-453.5" font-family="Helvetica,sans-Serif" font-size="10.00" fill="#000000">string</text>
<polyline fill="none" stroke="#bfbfbf" points="6.5,-446.5 50.5,-446.5 "/>
<text text-anchor="middle" x="28.5" y="-434.5" font-family="Helvetica,sans-Serif" font-size="10.00" fill="#000000"> </text>
<polyline fill="none" stroke="#bfbfbf" points="6.5,-427.5 50.5,-427.5 "/>
<text text-anchor="middle" x="28.5" y="-415.5" font-family="Helvetica,sans-Serif" font-size="10.00" fill="#000000"> </text>
</g>
<!-- Node3&#45;&gt;Node1 -->
<g id="edge3" class="edge">
<title>Node3&#45;&gt;Node1</title>
<path fill="none" stroke="#404040" d="M25.2164,-408.1719C23.7611,-393.9863 22.2178,-376.6189 21.5,-361 19.4189,-315.7145 17.2716,-304.1357 21.5,-259 23.2487,-240.3337 26.0937,-220.6269 29.3691,-201.598"/>
<polygon fill="none" stroke="#404040" points="29.4137,-201.3466 26.5273,-194.7383 31.517,-189.5323 34.4034,-196.1405 29.4137,-201.3466"/>
<text text-anchor="middle" x="53" y="-335" font-family="Helvetica,sans-Serif" font-size="10.00" fill="#000000"> +biome</text>
<text text-anchor="middle" x="53" y="-324" font-family="Helvetica,sans-Serif" font-size="10.00" fill="#000000">+id</text>
<text text-anchor="middle" x="53" y="-313" font-family="Helvetica,sans-Serif" font-size="10.00" fill="#000000">+author</text>
<text text-anchor="middle" x="53" y="-302" font-family="Helvetica,sans-Serif" font-size="10.00" fill="#000000">+description</text>
<text text-anchor="middle" x="53" y="-291" font-family="Helvetica,sans-Serif" font-size="10.00" fill="#000000">+title</text>
<text text-anchor="middle" x="53" y="-280" font-family="Helvetica,sans-Serif" font-size="10.00" fill="#000000">+category</text>
</g>
<!-- Node3&#45;&gt;Node2 -->
<g id="edge2" class="edge">
<title>Node3&#45;&gt;Node2</title>
<path fill="none" stroke="#404040" d="M50.751,-412.2116C61.644,-400.0765 75.2749,-384.8911 88.6715,-369.9669"/>
<polygon fill="none" stroke="#404040" points="88.94,-369.6678 89.9713,-362.5308 96.9559,-360.7377 95.9246,-367.8747 88.94,-369.6678"/>
<text text-anchor="middle" x="106.5" y="-382" font-family="Helvetica,sans-Serif" font-size="10.00" fill="#000000"> +fileName</text>
</g>
</g>
</svg>
