<?xml version="1.0" encoding="UTF-8" standalone="no"?>
<!DOCTYPE svg PUBLIC "-//W3C//DTD SVG 1.1//EN"
 "http://www.w3.org/Graphics/SVG/1.1/DTD/svg11.dtd">
<!-- Generated by graphviz version 2.40.1 (20161225.0304)
 -->
<!-- Title: IsStrongEquatableType&lt; Type, std::void_t&lt; decltype(std::declval&lt; Type &gt;().Equals(std::declval&lt; Type &gt;()))&gt; &gt; Pages: 1 -->
<svg width="139pt" height="204pt"
 viewBox="0.00 0.00 139.00 204.00" xmlns="http://www.w3.org/2000/svg" xmlns:xlink="http://www.w3.org/1999/xlink">
<g id="graph0" class="graph" transform="scale(1 1) rotate(0) translate(4 200)">
<title>IsStrongEquatableType&lt; Type, std::void_t&lt; decltype(std::declval&lt; Type &gt;().Equals(std::declval&lt; Type &gt;()))&gt; &gt;</title>
<!-- Node0 -->
<g id="node1" class="node">
<title>Node0</title>
<polygon fill="#bfbfbf" stroke="#000000" points="0,-.5 0,-101.5 131,-101.5 131,-.5 0,-.5"/>
<text text-anchor="start" x="8" y="-89.5" font-family="Helvetica,sans-Serif" font-size="10.00" fill="#000000">IsStrongEquatableType</text>
<text text-anchor="start" x="8" y="-78.5" font-family="Helvetica,sans-Serif" font-size="10.00" fill="#000000">&lt; Type, std::void_t&lt;</text>
<text text-anchor="start" x="8" y="-67.5" font-family="Helvetica,sans-Serif" font-size="10.00" fill="#000000"> decltype(std::declval</text>
<text text-anchor="start" x="8" y="-56.5" font-family="Helvetica,sans-Serif" font-size="10.00" fill="#000000">&lt; Type &gt;().Equals(std::</text>
<text text-anchor="middle" x="65.5" y="-45.5" font-family="Helvetica,sans-Serif" font-size="10.00" fill="#000000">declval&lt; Type &gt;()))&gt; &gt;</text>
<polyline fill="none" stroke="#000000" points="0,-38.5 131,-38.5 "/>
<text text-anchor="middle" x="65.5" y="-26.5" font-family="Helvetica,sans-Serif" font-size="10.00" fill="#000000"> </text>
<polyline fill="none" stroke="#000000" points="0,-19.5 131,-19.5 "/>
<text text-anchor="middle" x="65.5" y="-7.5" font-family="Helvetica,sans-Serif" font-size="10.00" fill="#000000"> </text>
</g>
<!-- Node1 -->
<g id="node2" class="node">
<title>Node1</title>
<polygon fill="none" stroke="#bfbfbf" points="23.5,-138.5 23.5,-195.5 107.5,-195.5 107.5,-138.5 23.5,-138.5"/>
<text text-anchor="middle" x="65.5" y="-183.5" font-family="Helvetica,sans-Serif" font-size="10.00" fill="#000000">std::true_type</text>
<polyline fill="none" stroke="#bfbfbf" points="23.5,-176.5 107.5,-176.5 "/>
<text text-anchor="middle" x="65.5" y="-164.5" font-family="Helvetica,sans-Serif" font-size="10.00" fill="#000000"> </text>
<polyline fill="none" stroke="#bfbfbf" points="23.5,-157.5 107.5,-157.5 "/>
<text text-anchor="middle" x="65.5" y="-145.5" font-family="Helvetica,sans-Serif" font-size="10.00" fill="#000000"> </text>
</g>
<!-- Node1&#45;&gt;Node0 -->
<g id="edge1" class="edge">
<title>Node1&#45;&gt;Node0</title>
<path fill="none" stroke="#191970" d="M65.5,-128.0826C65.5,-119.6942 65.5,-110.7064 65.5,-101.9373"/>
<polygon fill="none" stroke="#191970" points="62.0001,-128.3258 65.5,-138.3258 69.0001,-128.3259 62.0001,-128.3258"/>
</g>
</g>
</svg>
