<?xml version="1.0" encoding="UTF-8" standalone="no"?>
<!DOCTYPE svg PUBLIC "-//W3C//DTD SVG 1.1//EN"
 "http://www.w3.org/Graphics/SVG/1.1/DTD/svg11.dtd">
<!-- Generated by graphviz version 2.40.1 (20161225.0304)
 -->
<!-- Title: StrongType::get Pages: 1 -->
<svg width="706pt" height="202pt"
 viewBox="0.00 0.00 706.00 202.00" xmlns="http://www.w3.org/2000/svg" xmlns:xlink="http://www.w3.org/1999/xlink">
<g id="graph0" class="graph" transform="scale(1 1) rotate(0) translate(4 198)">
<title>StrongType::get</title>
<!-- Node9 -->
<g id="node1" class="node">
<title>Node9</title>
<polygon fill="#bfbfbf" stroke="#000000" points="0,-98.5 0,-117.5 92,-117.5 92,-98.5 0,-98.5"/>
<text text-anchor="middle" x="46" y="-105.5" font-family="Helvetica,sans-Serif" font-size="10.00" fill="#000000">StrongType::get</text>
</g>
<!-- Node10 -->
<g id="node2" class="node">
<title>Node10</title>
<g id="a_node2"><a xlink:href="JsonSerialization_8hxx.html#a6dcce644b59e7427558a898572efa868" target="_top" xlink:title="to_json">
<polygon fill="none" stroke="#000000" points="193,-174.5 193,-193.5 245,-193.5 245,-174.5 193,-174.5"/>
<text text-anchor="middle" x="219" y="-181.5" font-family="Helvetica,sans-Serif" font-size="10.00" fill="#000000">to_json</text>
</a>
</g>
</g>
<!-- Node9&#45;&gt;Node10 -->
<g id="edge1" class="edge">
<title>Node9&#45;&gt;Node10</title>
<path fill="none" stroke="#191970" d="M64.7253,-124.3248C80.548,-137.2676 104.3531,-154.8166 128,-165 148.7525,-173.9369 174.0225,-178.7814 192.6626,-181.3369"/>
<polygon fill="#191970" stroke="#191970" points="66.7189,-121.4288 56.8078,-117.6843 62.2206,-126.7922 66.7189,-121.4288"/>
</g>
<!-- Node11 -->
<g id="node3" class="node">
<title>Node11</title>
<g id="a_node3"><a xlink:href="classResourcesManager.html#ac221a499e20ca7aedd00028842c7a101" target="_top" xlink:title="ResourcesManager::loadUITexture">
<polygon fill="none" stroke="#000000" points="128,-136.5 128,-155.5 310,-155.5 310,-136.5 128,-136.5"/>
<text text-anchor="middle" x="219" y="-143.5" font-family="Helvetica,sans-Serif" font-size="10.00" fill="#000000">ResourcesManager::loadUITexture</text>
</a>
</g>
</g>
<!-- Node9&#45;&gt;Node11 -->
<g id="edge2" class="edge">
<title>Node9&#45;&gt;Node11</title>
<path fill="none" stroke="#191970" d="M96.2682,-119.8304C106.7453,-122.2448 117.7258,-124.7374 128,-127 142.3431,-130.1587 157.9877,-133.4725 172.1962,-136.4321"/>
<polygon fill="#191970" stroke="#191970" points="96.9488,-116.3955 86.417,-117.5497 95.3698,-123.2151 96.9488,-116.3955"/>
</g>
<!-- Node13 -->
<g id="node5" class="node">
<title>Node13</title>
<g id="a_node5"><a xlink:href="classTileManager.html#a1575d9a9530e13fe0286b8fece9e47ea" target="_top" xlink:title="TileManager::init">
<polygon fill="none" stroke="#000000" points="170,-98.5 170,-117.5 268,-117.5 268,-98.5 170,-98.5"/>
<text text-anchor="middle" x="219" y="-105.5" font-family="Helvetica,sans-Serif" font-size="10.00" fill="#000000">TileManager::init</text>
</a>
</g>
</g>
<!-- Node9&#45;&gt;Node13 -->
<g id="edge4" class="edge">
<title>Node9&#45;&gt;Node13</title>
<path fill="none" stroke="#191970" d="M102.4413,-108C124.1705,-108 148.7898,-108 169.785,-108"/>
<polygon fill="#191970" stroke="#191970" points="102.3609,-104.5001 92.3608,-108 102.3608,-111.5001 102.3609,-104.5001"/>
</g>
<!-- Node16 -->
<g id="node8" class="node">
<title>Node16</title>
<g id="a_node8"><a xlink:href="UIManager_8cxx.html#a93ebc51d97942bf4e32123b5c61c4141" target="_top" xlink:title="BETTER_ENUM">
<polygon fill="none" stroke="#000000" points="174.5,-60.5 174.5,-79.5 263.5,-79.5 263.5,-60.5 174.5,-60.5"/>
<text text-anchor="middle" x="219" y="-67.5" font-family="Helvetica,sans-Serif" font-size="10.00" fill="#000000">BETTER_ENUM</text>
</a>
</g>
</g>
<!-- Node9&#45;&gt;Node16 -->
<g id="edge8" class="edge">
<title>Node9&#45;&gt;Node16</title>
<path fill="none" stroke="#191970" d="M96.2682,-96.1696C106.7453,-93.7552 117.7258,-91.2626 128,-89 142.9735,-85.7025 159.3656,-82.2359 174.0613,-79.1797"/>
<polygon fill="#191970" stroke="#191970" points="95.3698,-92.7849 86.417,-98.4503 96.9488,-99.6045 95.3698,-92.7849"/>
</g>
<!-- Node17 -->
<g id="node9" class="node">
<title>Node17</title>
<g id="a_node9"><a xlink:href="structstd_1_1hash_3_01StrongType_3_01WeakType_00_01Tag_01_4_01_4.html#af5cc4d4b0c32432b42d02c69bd7eb786" target="_top" xlink:title="std::hash\&lt; StrongType\l\&lt; WeakType, Tag \&gt; \&gt;::\loperator()">
<polygon fill="none" stroke="#000000" points="155,-.5 155,-41.5 283,-41.5 283,-.5 155,-.5"/>
<text text-anchor="start" x="163" y="-29.5" font-family="Helvetica,sans-Serif" font-size="10.00" fill="#000000">std::hash&lt; StrongType</text>
<text text-anchor="start" x="163" y="-18.5" font-family="Helvetica,sans-Serif" font-size="10.00" fill="#000000">&lt; WeakType, Tag &gt; &gt;::</text>
<text text-anchor="middle" x="219" y="-7.5" font-family="Helvetica,sans-Serif" font-size="10.00" fill="#000000">operator()</text>
</a>
</g>
</g>
<!-- Node9&#45;&gt;Node17 -->
<g id="edge9" class="edge">
<title>Node9&#45;&gt;Node17</title>
<path fill="none" stroke="#191970" d="M65.5972,-91.9415C81.604,-79.4432 105.2254,-62.3674 128,-51 136.4839,-46.7655 145.7012,-42.9294 154.9047,-39.5242"/>
<polygon fill="#191970" stroke="#191970" points="63.1893,-89.3846 57.5417,-98.3487 67.5468,-94.863 63.1893,-89.3846"/>
</g>
<!-- Node12 -->
<g id="node4" class="node">
<title>Node12</title>
<g id="a_node4"><a xlink:href="classResourcesManager.html#a7fe5ff24c1df6a60214bea3ca474d155" target="_top" xlink:title="ResourcesManager::Resources\lManager">
<polygon fill="none" stroke="#000000" points="346,-137 346,-167 510,-167 510,-137 346,-137"/>
<text text-anchor="start" x="354" y="-155" font-family="Helvetica,sans-Serif" font-size="10.00" fill="#000000">ResourcesManager::Resources</text>
<text text-anchor="middle" x="428" y="-144" font-family="Helvetica,sans-Serif" font-size="10.00" fill="#000000">Manager</text>
</a>
</g>
</g>
<!-- Node11&#45;&gt;Node12 -->
<g id="edge3" class="edge">
<title>Node11&#45;&gt;Node12</title>
<path fill="none" stroke="#191970" d="M320.1284,-148.9032C328.7268,-149.1501 337.3558,-149.3978 345.782,-149.6397"/>
<polygon fill="#191970" stroke="#191970" points="320.1588,-145.4027 310.0625,-148.6142 319.9579,-152.3999 320.1588,-145.4027"/>
</g>
<!-- Node14 -->
<g id="node6" class="node">
<title>Node14</title>
<g id="a_node6"><a xlink:href="classTileManager.html#ac6f5d9eb4db57f9ad597223658574394" target="_top" xlink:title="TileManager::TileManager">
<polygon fill="none" stroke="#000000" points="356.5,-98.5 356.5,-117.5 499.5,-117.5 499.5,-98.5 356.5,-98.5"/>
<text text-anchor="middle" x="428" y="-105.5" font-family="Helvetica,sans-Serif" font-size="10.00" fill="#000000">TileManager::TileManager</text>
</a>
</g>
</g>
<!-- Node13&#45;&gt;Node14 -->
<g id="edge5" class="edge">
<title>Node13&#45;&gt;Node14</title>
<path fill="none" stroke="#191970" d="M278.154,-108C302.4719,-108 330.8542,-108 356.3368,-108"/>
<polygon fill="#191970" stroke="#191970" points="278.0012,-104.5001 268.0012,-108 278.0012,-111.5001 278.0012,-104.5001"/>
</g>
<!-- Node15 -->
<g id="node7" class="node">
<title>Node15</title>
<g id="a_node7"><a xlink:href="classTileManager.html#af094937b10637c493557e22b42cf25ed" target="_top" xlink:title="TileManager::getAllTileData">
<polygon fill="none" stroke="#000000" points="546,-79.5 546,-98.5 698,-98.5 698,-79.5 546,-79.5"/>
<text text-anchor="middle" x="622" y="-86.5" font-family="Helvetica,sans-Serif" font-size="10.00" fill="#000000">TileManager::getAllTileData</text>
</a>
</g>
</g>
<!-- Node13&#45;&gt;Node15 -->
<g id="edge7" class="edge">
<title>Node13&#45;&gt;Node15</title>
<path fill="none" stroke="#191970" d="M278.1464,-97.2891C299.4572,-93.924 323.7362,-90.6562 346,-89 413.3763,-83.9879 490.2608,-84.497 545.7403,-85.9657"/>
<polygon fill="#191970" stroke="#191970" points="277.5765,-93.8358 268.2645,-98.8893 278.6954,-100.7457 277.5765,-93.8358"/>
</g>
<!-- Node14&#45;&gt;Node15 -->
<g id="edge6" class="edge">
<title>Node14&#45;&gt;Node15</title>
<path fill="none" stroke="#191970" d="M509.6413,-100.0042C521.6004,-98.833 533.8791,-97.6304 545.7252,-96.4702"/>
<polygon fill="#191970" stroke="#191970" points="509.2985,-96.5209 499.6873,-100.9791 509.9808,-103.4876 509.2985,-96.5209"/>
</g>
</g>
</svg>
