<?xml version="1.0" encoding="UTF-8" standalone="no"?>
<!DOCTYPE svg PUBLIC "-//W3C//DTD SVG 1.1//EN"
 "http://www.w3.org/Graphics/SVG/1.1/DTD/svg11.dtd">
<!-- Generated by graphviz version 2.40.1 (20161225.0304)
 -->
<!-- Title: MapNodeData Pages: 1 -->
<!--zoomable 579 -->
<svg id="main" version="1.1" xmlns="http://www.w3.org/2000/svg" xmlns:xlink="http://www.w3.org/1999/xlink" xml:space="preserve" onload="init(evt)">
<style type="text/css"><![CDATA[
.edge:hover path { stroke: red; }
.edge:hover polygon { stroke: red; fill: red; }
]]></style>
<script type="text/javascript"><![CDATA[
var edges = document.getElementsByTagName('g');
if (edges && edges.length) {
  for (var i=0;i<edges.length;i++) {
    if (edges[i].id.substr(0,4)=='edge') {
      edges[i].setAttribute('class','edge');
    }
  }
}
]]></script>
        <defs>
                <circle id="rim" cx="0" cy="0" r="7"/>
                <circle id="rim2" cx="0" cy="0" r="3.5"/>
                <g id="zoomPlus">
                        <use xlink:href="#rim" fill="#404040">
                                <set attributeName="fill" to="#808080" begin="zoomplus.mouseover" end="zoomplus.mouseout"/>
                        </use>
                        <path d="M-4,0h8M0,-4v8" fill="none" stroke="white" stroke-width="1.5" pointer-events="none"/>
                </g>
                <g id="zoomMin">
                        <use xlink:href="#rim" fill="#404040">
                                <set attributeName="fill" to="#808080" begin="zoomminus.mouseover" end="zoomminus.mouseout"/>
                        </use>
                        <path d="M-4,0h8" fill="none" stroke="white" stroke-width="1.5" pointer-events="none"/>
                </g>
                <g id="dirArrow">
                        <path fill="none" stroke="white" stroke-width="1.5" d="M0,-3.0v7 M-2.5,-0.5L0,-3.0L2.5,-0.5"/>
                </g>
               <g id="resetDef">
                       <use xlink:href="#rim2" fill="#404040">
                               <set attributeName="fill" to="#808080" begin="reset.mouseover" end="reset.mouseout"/>
                       </use>
               </g>
        </defs>

<script type="text/javascript">
var viewWidth = 255;
var viewHeight = 579;
var sectionId = 'dynsection-0';
</script>
<script xlink:href="svgpan.js"/>
<svg id="graph" class="graph">
<g id="viewport">
<title>MapNodeData</title>
<!-- Node1 -->
<g id="node1" class="node">
<title>Node1</title>
<polygon fill="#bfbfbf" stroke="#000000" points="0,-.5 0,-57.5 86,-57.5 86,-.5 0,-.5"/>
<text text-anchor="middle" x="43" y="-45.5" font-family="Helvetica,sans-Serif" font-size="10.00" fill="#000000">MapNodeData</text>
<polyline fill="none" stroke="#000000" points="0,-38.5 86,-38.5 "/>
<text text-anchor="start" x="8" y="-26.5" font-family="Helvetica,sans-Serif" font-size="10.00" fill="#000000">+ tileIndex</text>
<polyline fill="none" stroke="#000000" points="0,-19.5 86,-19.5 "/>
<text text-anchor="middle" x="43" y="-7.5" font-family="Helvetica,sans-Serif" font-size="10.00" fill="#000000"> </text>
</g>
<!-- Node2 -->
<g id="node2" class="node">
<title>Node2</title>
<g id="a_node2"><a xlink:href="structTileData.html" target="_top" xlink:title="{TileData\n|+ buildingsize\l+ price\l+ upkeepCost\l+ power\l+ water\l+ drawGround\l+ placeOnGround\l+ placeOnWater\l+ isOverPlacable\l+ pollutionLevel\l+ crimeLevel\l+ fireDangerLevel\l+ habitants\l|}">
<polygon fill="none" stroke="#000000" points="43.5,-105.5 43.5,-294.5 148.5,-294.5 148.5,-105.5 43.5,-105.5"/>
<text text-anchor="middle" x="96" y="-282.5" font-family="Helvetica,sans-Serif" font-size="10.00" fill="#000000">TileData</text>
<polyline fill="none" stroke="#000000" points="43.5,-275.5 148.5,-275.5 "/>
<text text-anchor="start" x="51.5" y="-263.5" font-family="Helvetica,sans-Serif" font-size="10.00" fill="#000000">+ buildingsize</text>
<text text-anchor="start" x="51.5" y="-252.5" font-family="Helvetica,sans-Serif" font-size="10.00" fill="#000000">+ price</text>
<text text-anchor="start" x="51.5" y="-241.5" font-family="Helvetica,sans-Serif" font-size="10.00" fill="#000000">+ upkeepCost</text>
<text text-anchor="start" x="51.5" y="-230.5" font-family="Helvetica,sans-Serif" font-size="10.00" fill="#000000">+ power</text>
<text text-anchor="start" x="51.5" y="-219.5" font-family="Helvetica,sans-Serif" font-size="10.00" fill="#000000">+ water</text>
<text text-anchor="start" x="51.5" y="-208.5" font-family="Helvetica,sans-Serif" font-size="10.00" fill="#000000">+ drawGround</text>
<text text-anchor="start" x="51.5" y="-197.5" font-family="Helvetica,sans-Serif" font-size="10.00" fill="#000000">+ placeOnGround</text>
<text text-anchor="start" x="51.5" y="-186.5" font-family="Helvetica,sans-Serif" font-size="10.00" fill="#000000">+ placeOnWater</text>
<text text-anchor="start" x="51.5" y="-175.5" font-family="Helvetica,sans-Serif" font-size="10.00" fill="#000000">+ isOverPlacable</text>
<text text-anchor="start" x="51.5" y="-164.5" font-family="Helvetica,sans-Serif" font-size="10.00" fill="#000000">+ pollutionLevel</text>
<text text-anchor="start" x="51.5" y="-153.5" font-family="Helvetica,sans-Serif" font-size="10.00" fill="#000000">+ crimeLevel</text>
<text text-anchor="start" x="51.5" y="-142.5" font-family="Helvetica,sans-Serif" font-size="10.00" fill="#000000">+ fireDangerLevel</text>
<text text-anchor="start" x="51.5" y="-131.5" font-family="Helvetica,sans-Serif" font-size="10.00" fill="#000000">+ habitants</text>
<polyline fill="none" stroke="#000000" points="43.5,-124.5 148.5,-124.5 "/>
<text text-anchor="middle" x="96" y="-112.5" font-family="Helvetica,sans-Serif" font-size="10.00" fill="#000000"> </text>
</a>
</g>
</g>
<!-- Node2&#45;&gt;Node1 -->
<g id="edge1" class="edge">
<title>Node2&#45;&gt;Node1</title>
<path fill="none" stroke="#404040" d="M66.7097,-105.4973C62.7786,-92.814 58.9303,-80.3979 55.5161,-69.3822"/>
<polygon fill="none" stroke="#404040" points="55.4171,-69.0626 49.8201,-64.5157 51.8645,-57.6005 57.4615,-62.1473 55.4171,-69.0626"/>
<text text-anchor="middle" x="85.5" y="-79" font-family="Helvetica,sans-Serif" font-size="10.00" fill="#000000"> +tileData</text>
</g>
<!-- Node3 -->
<g id="node3" class="node">
<title>Node3</title>
<g id="a_node3"><a xlink:href="structTileSetData.html" target="_top" xlink:title="{TileSetData\n|+ count\l+ clippingWidth\l+ clippingHeight\l+ offset\l+ rotations\l|}">
<polygon fill="none" stroke="#000000" points="149,-364.5 149,-465.5 247,-465.5 247,-364.5 149,-364.5"/>
<text text-anchor="middle" x="198" y="-453.5" font-family="Helvetica,sans-Serif" font-size="10.00" fill="#000000">TileSetData</text>
<polyline fill="none" stroke="#000000" points="149,-446.5 247,-446.5 "/>
<text text-anchor="start" x="157" y="-434.5" font-family="Helvetica,sans-Serif" font-size="10.00" fill="#000000">+ count</text>
<text text-anchor="start" x="157" y="-423.5" font-family="Helvetica,sans-Serif" font-size="10.00" fill="#000000">+ clippingWidth</text>
<text text-anchor="start" x="157" y="-412.5" font-family="Helvetica,sans-Serif" font-size="10.00" fill="#000000">+ clippingHeight</text>
<text text-anchor="start" x="157" y="-401.5" font-family="Helvetica,sans-Serif" font-size="10.00" fill="#000000">+ offset</text>
<text text-anchor="start" x="157" y="-390.5" font-family="Helvetica,sans-Serif" font-size="10.00" fill="#000000">+ rotations</text>
<polyline fill="none" stroke="#000000" points="149,-383.5 247,-383.5 "/>
<text text-anchor="middle" x="198" y="-371.5" font-family="Helvetica,sans-Serif" font-size="10.00" fill="#000000"> </text>
</a>
</g>
</g>
<!-- Node3&#45;&gt;Node2 -->
<g id="edge2" class="edge">
<title>Node3&#45;&gt;Node2</title>
<path fill="none" stroke="#404040" d="M173.9566,-364.3203C165.5692,-346.6409 155.8167,-326.0843 146.1074,-305.6186"/>
<polygon fill="none" stroke="#404040" points="146.0284,-305.4519 139.8427,-301.7455 140.8848,-294.6101 147.0705,-298.3165 146.0284,-305.4519"/>
<text text-anchor="middle" x="198" y="-338" font-family="Helvetica,sans-Serif" font-size="10.00" fill="#000000"> +cornerTiles</text>
<text text-anchor="middle" x="198" y="-327" font-family="Helvetica,sans-Serif" font-size="10.00" fill="#000000">+tiles</text>
<text text-anchor="middle" x="198" y="-316" font-family="Helvetica,sans-Serif" font-size="10.00" fill="#000000">+slopeTiles</text>
</g>
<!-- Node4 -->
<g id="node4" class="node">
<title>Node4</title>
<polygon fill="none" stroke="#bfbfbf" points="46,-513.5 46,-570.5 90,-570.5 90,-513.5 46,-513.5"/>
<text text-anchor="middle" x="68" y="-558.5" font-family="Helvetica,sans-Serif" font-size="10.00" fill="#000000">string</text>
<polyline fill="none" stroke="#bfbfbf" points="46,-551.5 90,-551.5 "/>
<text text-anchor="middle" x="68" y="-539.5" font-family="Helvetica,sans-Serif" font-size="10.00" fill="#000000"> </text>
<polyline fill="none" stroke="#bfbfbf" points="46,-532.5 90,-532.5 "/>
<text text-anchor="middle" x="68" y="-520.5" font-family="Helvetica,sans-Serif" font-size="10.00" fill="#000000"> </text>
</g>
<!-- Node4&#45;&gt;Node1 -->
<g id="edge5" class="edge">
<title>Node4&#45;&gt;Node1</title>
<path fill="none" stroke="#404040" d="M62.1709,-513.2543C54.7124,-475.1829 42.0374,-405.861 36,-346 29.3176,-279.7436 31.3692,-149.5872 34,-105 34.671,-93.6286 35.9019,-81.3497 37.2426,-70.0466"/>
<polygon fill="none" stroke="#404040" points="37.2851,-69.7067 34.0631,-63.2555 38.7788,-57.8001 42.0009,-64.2513 37.2851,-69.7067"/>
<text text-anchor="middle" x="55" y="-327" font-family="Helvetica,sans-Serif" font-size="10.00" fill="#000000"> +tileID</text>
</g>
<!-- Node4&#45;&gt;Node2 -->
<g id="edge4" class="edge">
<title>Node4&#45;&gt;Node2</title>
<path fill="none" stroke="#404040" d="M68.8788,-513.2909C70.0888,-478.0753 72.63,-416.5752 77,-364 78.5362,-345.5187 80.5095,-325.9034 82.6009,-306.9079"/>
<polygon fill="none" stroke="#404040" points="82.615,-306.7813 79.3084,-300.373 83.952,-294.856 87.2586,-301.2643 82.615,-306.7813"/>
<text text-anchor="middle" x="108.5" y="-440" font-family="Helvetica,sans-Serif" font-size="10.00" fill="#000000"> +biome</text>
<text text-anchor="middle" x="108.5" y="-429" font-family="Helvetica,sans-Serif" font-size="10.00" fill="#000000">+id</text>
<text text-anchor="middle" x="108.5" y="-418" font-family="Helvetica,sans-Serif" font-size="10.00" fill="#000000">+author</text>
<text text-anchor="middle" x="108.5" y="-407" font-family="Helvetica,sans-Serif" font-size="10.00" fill="#000000">+description</text>
<text text-anchor="middle" x="108.5" y="-396" font-family="Helvetica,sans-Serif" font-size="10.00" fill="#000000">+title</text>
<text text-anchor="middle" x="108.5" y="-385" font-family="Helvetica,sans-Serif" font-size="10.00" fill="#000000">+category</text>
</g>
<!-- Node4&#45;&gt;Node3 -->
<g id="edge3" class="edge">
<title>Node4&#45;&gt;Node3</title>
<path fill="none" stroke="#404040" d="M90.0527,-520.4562C103.873,-506.9548 122.3819,-488.8731 140.1663,-471.4991"/>
<polygon fill="none" stroke="#404040" points="140.2312,-471.4357 141.7278,-464.3816 148.8149,-463.05 147.3183,-470.1041 140.2312,-471.4357"/>
<text text-anchor="middle" x="153" y="-487" font-family="Helvetica,sans-Serif" font-size="10.00" fill="#000000"> +fileName</text>
</g>
</g>
</svg>
        <g id="navigator" transform="translate(0 0)" fill="#404254">
                <rect fill="#f2f5e9" fill-opacity="0.5" stroke="#606060" stroke-width=".5" x="0" y="0" width="60" height="60"/>
                <use id="zoomplus" xlink:href="#zoomPlus" x="17" y="9" onmousedown="handleZoom(evt,'in')"/>
                <use id="zoomminus" xlink:href="#zoomMin" x="42" y="9" onmousedown="handleZoom(evt,'out')"/>
                <use id="reset" xlink:href="#resetDef" x="30" y="36" onmousedown="handleReset()"/>
                <g id="arrowUp" xlink:href="#dirArrow" transform="translate(30 24)" onmousedown="handlePan(0,-1)">
                  <use xlink:href="#rim" fill="#404040">
                        <set attributeName="fill" to="#808080" begin="arrowUp.mouseover" end="arrowUp.mouseout"/>
                  </use>
                  <path fill="none" stroke="white" stroke-width="1.5" d="M0,-3.0v7 M-2.5,-0.5L0,-3.0L2.5,-0.5"/>
                </g>
                <g id="arrowRight" xlink:href="#dirArrow" transform="rotate(90) translate(36 -43)" onmousedown="handlePan(1,0)">
                  <use xlink:href="#rim" fill="#404040">
                        <set attributeName="fill" to="#808080" begin="arrowRight.mouseover" end="arrowRight.mouseout"/>
                  </use>
                  <path fill="none" stroke="white" stroke-width="1.5" d="M0,-3.0v7 M-2.5,-0.5L0,-3.0L2.5,-0.5"/>
                </g>
                <g id="arrowDown" xlink:href="#dirArrow" transform="rotate(180) translate(-30 -48)" onmousedown="handlePan(0,1)">
                  <use xlink:href="#rim" fill="#404040">
                        <set attributeName="fill" to="#808080" begin="arrowDown.mouseover" end="arrowDown.mouseout"/>
                  </use>
                  <path fill="none" stroke="white" stroke-width="1.5" d="M0,-3.0v7 M-2.5,-0.5L0,-3.0L2.5,-0.5"/>
                </g>
                <g id="arrowLeft" xlink:href="#dirArrow" transform="rotate(270) translate(-36 17)" onmousedown="handlePan(-1,0)">
                  <use xlink:href="#rim" fill="#404040">
                        <set attributeName="fill" to="#808080" begin="arrowLeft.mouseover" end="arrowLeft.mouseout"/>
                  </use>
                  <path fill="none" stroke="white" stroke-width="1.5" d="M0,-3.0v7 M-2.5,-0.5L0,-3.0L2.5,-0.5"/>
                </g>
        </g>
        <svg viewBox="0 0 15 15" width="100%" height="30px" preserveAspectRatio="xMaxYMin meet">
         <g id="arrow_out" transform="scale(0.3 0.3)">
          <a xlink:href="structMapNodeData__coll__graph_org.svg" target="_base">
           <rect id="button" ry="5" rx="5" y="6" x="6" height="38" width="38"
                fill="#f2f5e9" fill-opacity="0.5" stroke="#606060" stroke-width="1.0"/>
           <path id="arrow"
             d="M 11.500037,31.436501 C 11.940474,20.09759 22.043105,11.32322 32.158766,21.979434 L 37.068811,17.246167 C 37.068811,17.246167 37.088388,32 37.088388,32 L 22.160133,31.978069 C 22.160133,31.978069 26.997745,27.140456 26.997745,27.140456 C 18.528582,18.264221 13.291696,25.230495 11.500037,31.436501 z"
             style="fill:#404040;"/>
          </a>
         </g>
        </svg>
</svg>
