<?xml version="1.0" encoding="UTF-8" standalone="no"?>
<!DOCTYPE svg PUBLIC "-//W3C//DTD SVG 1.1//EN"
 "http://www.w3.org/Graphics/SVG/1.1/DTD/svg11.dtd">
<!-- Generated by graphviz version 2.40.1 (20161225.0304)
 -->
<!-- Title: src/engine/map/TerrainGenerator.hxx Pages: 1 -->
<!--zoomable 252 -->
<svg id="main" version="1.1" xmlns="http://www.w3.org/2000/svg" xmlns:xlink="http://www.w3.org/1999/xlink" xml:space="preserve" onload="init(evt)">
<style type="text/css"><![CDATA[
.edge:hover path { stroke: red; }
.edge:hover polygon { stroke: red; fill: red; }
]]></style>
<script type="text/javascript"><![CDATA[
var edges = document.getElementsByTagName('g');
if (edges && edges.length) {
  for (var i=0;i<edges.length;i++) {
    if (edges[i].id.substr(0,4)=='edge') {
      edges[i].setAttribute('class','edge');
    }
  }
}
]]></script>
        <defs>
                <circle id="rim" cx="0" cy="0" r="7"/>
                <circle id="rim2" cx="0" cy="0" r="3.5"/>
                <g id="zoomPlus">
                        <use xlink:href="#rim" fill="#404040">
                                <set attributeName="fill" to="#808080" begin="zoomplus.mouseover" end="zoomplus.mouseout"/>
                        </use>
                        <path d="M-4,0h8M0,-4v8" fill="none" stroke="white" stroke-width="1.5" pointer-events="none"/>
                </g>
                <g id="zoomMin">
                        <use xlink:href="#rim" fill="#404040">
                                <set attributeName="fill" to="#808080" begin="zoomminus.mouseover" end="zoomminus.mouseout"/>
                        </use>
                        <path d="M-4,0h8" fill="none" stroke="white" stroke-width="1.5" pointer-events="none"/>
                </g>
                <g id="dirArrow">
                        <path fill="none" stroke="white" stroke-width="1.5" d="M0,-3.0v7 M-2.5,-0.5L0,-3.0L2.5,-0.5"/>
                </g>
               <g id="resetDef">
                       <use xlink:href="#rim2" fill="#404040">
                               <set attributeName="fill" to="#808080" begin="reset.mouseover" end="reset.mouseout"/>
                       </use>
               </g>
        </defs>

<script type="text/javascript">
var viewWidth = 855;
var viewHeight = 252;
var sectionId = 'dynsection-0';
</script>
<script xlink:href="svgpan.js"/>
<svg id="graph" class="graph">
<g id="viewport">
<title>src/engine/map/TerrainGenerator.hxx</title>
<!-- Node0 -->
<g id="node1" class="node">
<title>Node0</title>
<polygon fill="#bfbfbf" stroke="#000000" points="153.5631,-224.5 153.5631,-243.5 350.5631,-243.5 350.5631,-224.5 153.5631,-224.5"/>
<text text-anchor="middle" x="252.0631" y="-231.5" font-family="Helvetica,sans-Serif" font-size="10.00" fill="#000000">src/engine/map/TerrainGenerator.hxx</text>
</g>
<!-- Node1 -->
<g id="node2" class="node">
<title>Node1</title>
<g id="a_node2"><a xlink:href="MapNode_8hxx.html" target="_top" xlink:title="../GameObjects/MapNode.hxx">
<polygon fill="none" stroke="#000000" points="171.5631,-168.5 171.5631,-187.5 332.5631,-187.5 332.5631,-168.5 171.5631,-168.5"/>
<text text-anchor="middle" x="252.0631" y="-175.5" font-family="Helvetica,sans-Serif" font-size="10.00" fill="#000000">../GameObjects/MapNode.hxx</text>
</a>
</g>
</g>
<!-- Node0&#45;&gt;Node1 -->
<g id="edge1" class="edge">
<title>Node0&#45;&gt;Node1</title>
<path fill="none" stroke="#191970" d="M252.0631,-224.2455C252.0631,-216.9382 252.0631,-206.6944 252.0631,-197.7046"/>
<polygon fill="#191970" stroke="#191970" points="255.5632,-197.6426 252.0631,-187.6427 248.5632,-197.6427 255.5632,-197.6426"/>
</g>
<!-- Node6 -->
<g id="node7" class="node">
<title>Node6</title>
<polygon fill="none" stroke="#bfbfbf" points="53.5631,-56.5 53.5631,-75.5 100.5631,-75.5 100.5631,-56.5 53.5631,-56.5"/>
<text text-anchor="middle" x="77.0631" y="-63.5" font-family="Helvetica,sans-Serif" font-size="10.00" fill="#000000">vector</text>
</g>
<!-- Node0&#45;&gt;Node6 -->
<g id="edge24" class="edge">
<title>Node0&#45;&gt;Node6</title>
<path fill="none" stroke="#191970" d="M172.6188,-224.4935C115.1821,-213.0061 41.3777,-187.6945 4.0631,-132 -10.5049,-110.2563 18.5008,-90.9024 44.1485,-78.864"/>
<polygon fill="#191970" stroke="#191970" points="45.6433,-82.0298 53.3589,-74.7689 42.7994,-75.6336 45.6433,-82.0298"/>
</g>
<!-- Node16 -->
<g id="node17" class="node">
<title>Node16</title>
<polygon fill="none" stroke="#bfbfbf" points="351.0631,-168.5 351.0631,-187.5 389.0631,-187.5 389.0631,-168.5 351.0631,-168.5"/>
<text text-anchor="middle" x="370.0631" y="-175.5" font-family="Helvetica,sans-Serif" font-size="10.00" fill="#000000">map</text>
</g>
<!-- Node0&#45;&gt;Node16 -->
<g id="edge23" class="edge">
<title>Node0&#45;&gt;Node16</title>
<path fill="none" stroke="#191970" d="M272.3481,-224.3733C291.4338,-215.3156 320.1966,-201.6655 341.58,-191.5174"/>
<polygon fill="#191970" stroke="#191970" points="343.2906,-194.5798 350.8243,-187.1303 340.2894,-188.2558 343.2906,-194.5798"/>
</g>
<!-- Node2 -->
<g id="node3" class="node">
<title>Node2</title>
<polygon fill="none" stroke="#bfbfbf" points="367.0631,-56.5 367.0631,-75.5 411.0631,-75.5 411.0631,-56.5 367.0631,-56.5"/>
<text text-anchor="middle" x="389.0631" y="-63.5" font-family="Helvetica,sans-Serif" font-size="10.00" fill="#000000">SDL.h</text>
</g>
<!-- Node1&#45;&gt;Node2 -->
<g id="edge2" class="edge">
<title>Node1&#45;&gt;Node2</title>
<path fill="none" stroke="#191970" d="M281.9702,-168.4087C302.0465,-160.8701 328.1769,-148.8168 347.0631,-132 361.7551,-118.9179 373.267,-99.5111 380.4941,-85.1246"/>
<polygon fill="#191970" stroke="#191970" points="383.8435,-86.2317 384.9835,-75.6984 377.5236,-83.2217 383.8435,-86.2317"/>
</g>
<!-- Node3 -->
<g id="node4" class="node">
<title>Node3</title>
<polygon fill="none" stroke="#bfbfbf" points="95.0631,-112.5 95.0631,-131.5 153.0631,-131.5 153.0631,-112.5 95.0631,-112.5"/>
<text text-anchor="middle" x="124.0631" y="-119.5" font-family="Helvetica,sans-Serif" font-size="10.00" fill="#000000">memory</text>
</g>
<!-- Node1&#45;&gt;Node3 -->
<g id="edge3" class="edge">
<title>Node1&#45;&gt;Node3</title>
<path fill="none" stroke="#191970" d="M230.0592,-168.3733C209.4197,-159.3435 178.3474,-145.7494 155.1743,-135.6111"/>
<polygon fill="#191970" stroke="#191970" points="156.3445,-132.3028 145.78,-131.5011 153.5387,-138.7159 156.3445,-132.3028"/>
</g>
<!-- Node4 -->
<g id="node5" class="node">
<title>Node4</title>
<polygon fill="none" stroke="#bfbfbf" points="484.0631,-.5 484.0631,-19.5 528.0631,-19.5 528.0631,-.5 484.0631,-.5"/>
<text text-anchor="middle" x="506.0631" y="-7.5" font-family="Helvetica,sans-Serif" font-size="10.00" fill="#000000">string</text>
</g>
<!-- Node1&#45;&gt;Node4 -->
<g id="edge4" class="edge">
<title>Node1&#45;&gt;Node4</title>
<path fill="none" stroke="#191970" d="M321.5946,-168.4665C474.2616,-147.2028 826.5748,-96.1843 843.0631,-76 848.6866,-69.116 848.9081,-62.697 843.0631,-56 823.1362,-33.1683 618.4686,-17.3744 538.1563,-12.0126"/>
<polygon fill="#191970" stroke="#191970" points="538.3266,-8.5163 528.1188,-11.3538 537.868,-15.5013 538.3266,-8.5163"/>
</g>
<!-- Node5 -->
<g id="node6" class="node">
<title>Node5</title>
<polygon fill="none" stroke="#bfbfbf" points="13.0631,-112.5 13.0631,-131.5 77.0631,-131.5 77.0631,-112.5 13.0631,-112.5"/>
<text text-anchor="middle" x="45.0631" y="-119.5" font-family="Helvetica,sans-Serif" font-size="10.00" fill="#000000">algorithm</text>
</g>
<!-- Node1&#45;&gt;Node5 -->
<g id="edge5" class="edge">
<title>Node1&#45;&gt;Node5</title>
<path fill="none" stroke="#191970" d="M216.4786,-168.3733C180.5066,-158.6417 124.9383,-143.6087 86.8834,-133.3137"/>
<polygon fill="#191970" stroke="#191970" points="87.6945,-129.9074 77.1275,-130.6744 85.8665,-136.6645 87.6945,-129.9074"/>
</g>
<!-- Node1&#45;&gt;Node6 -->
<g id="edge6" class="edge">
<title>Node1&#45;&gt;Node6</title>
<path fill="none" stroke="#191970" d="M240.205,-168.4905C223.332,-155.1505 191.2037,-130.4486 162.0631,-112 143.8124,-100.4456 122.4226,-88.8796 105.666,-80.2354"/>
<polygon fill="#191970" stroke="#191970" points="106.8925,-76.9321 96.3941,-75.5057 103.7116,-83.1676 106.8925,-76.9321"/>
</g>
<!-- Node7 -->
<g id="node8" class="node">
<title>Node7</title>
<g id="a_node8"><a xlink:href="Sprite_8hxx.html" target="_top" xlink:title="../Sprite.hxx">
<polygon fill="none" stroke="#000000" points="247.5631,-112.5 247.5631,-131.5 322.5631,-131.5 322.5631,-112.5 247.5631,-112.5"/>
<text text-anchor="middle" x="285.0631" y="-119.5" font-family="Helvetica,sans-Serif" font-size="10.00" fill="#000000">../Sprite.hxx</text>
</a>
</g>
</g>
<!-- Node1&#45;&gt;Node7 -->
<g id="edge7" class="edge">
<title>Node1&#45;&gt;Node7</title>
<path fill="none" stroke="#191970" d="M257.8113,-168.2455C262.3067,-160.617 268.688,-149.7881 274.1456,-140.5267"/>
<polygon fill="#191970" stroke="#191970" points="277.3193,-142.035 279.3808,-131.6427 271.2885,-138.4811 277.3193,-142.035"/>
</g>
<!-- Node8 -->
<g id="node9" class="node">
<title>Node8</title>
<g id="a_node9"><a xlink:href="point_8hxx.html" target="_top" xlink:title="basics/point.hxx">
<polygon fill="none" stroke="#000000" points="119.0631,-56.5 119.0631,-75.5 215.0631,-75.5 215.0631,-56.5 119.0631,-56.5"/>
<text text-anchor="middle" x="167.0631" y="-63.5" font-family="Helvetica,sans-Serif" font-size="10.00" fill="#000000">basics/point.hxx</text>
</a>
</g>
</g>
<!-- Node1&#45;&gt;Node8 -->
<g id="edge14" class="edge">
<title>Node1&#45;&gt;Node8</title>
<path fill="none" stroke="#191970" d="M244.8161,-168.4509C230.5764,-149.688 198.752,-107.7548 180.5402,-83.758"/>
<polygon fill="#191970" stroke="#191970" points="183.1253,-81.3747 174.2918,-75.5249 177.5493,-85.6065 183.1253,-81.3747"/>
</g>
<!-- Node9 -->
<g id="node10" class="node">
<title>Node9</title>
<g id="a_node10"><a xlink:href="enums_8hxx.html" target="_top" xlink:title="common/enums.hxx">
<polygon fill="none" stroke="#000000" points="233.0631,-56.5 233.0631,-75.5 349.0631,-75.5 349.0631,-56.5 233.0631,-56.5"/>
<text text-anchor="middle" x="291.0631" y="-63.5" font-family="Helvetica,sans-Serif" font-size="10.00" fill="#000000">common/enums.hxx</text>
</a>
</g>
</g>
<!-- Node1&#45;&gt;Node9 -->
<g id="edge13" class="edge">
<title>Node1&#45;&gt;Node9</title>
<path fill="none" stroke="#191970" d="M283.5663,-168.3744C300.879,-161.2912 320.8591,-149.7494 331.0631,-132 340.9234,-114.8486 326.1021,-95.5257 311.7907,-82.2422"/>
<polygon fill="#191970" stroke="#191970" points="313.9017,-79.4402 304.0524,-75.5359 309.3172,-84.7301 313.9017,-79.4402"/>
</g>
<!-- Node11 -->
<g id="node12" class="node">
<title>Node11</title>
<g id="a_node12"><a xlink:href="TileManager_8hxx.html" target="_top" xlink:title="../TileManager.hxx">
<polygon fill="none" stroke="#000000" points="453.0631,-112.5 453.0631,-131.5 559.0631,-131.5 559.0631,-112.5 453.0631,-112.5"/>
<text text-anchor="middle" x="506.0631" y="-119.5" font-family="Helvetica,sans-Serif" font-size="10.00" fill="#000000">../TileManager.hxx</text>
</a>
</g>
</g>
<!-- Node1&#45;&gt;Node11 -->
<g id="edge15" class="edge">
<title>Node1&#45;&gt;Node11</title>
<path fill="none" stroke="#191970" d="M295.4387,-168.4369C339.0001,-158.8328 406.1908,-144.0191 452.9265,-133.7152"/>
<polygon fill="#191970" stroke="#191970" points="453.8546,-137.0947 462.8665,-131.5237 452.3474,-130.2588 453.8546,-137.0947"/>
</g>
<!-- Node7&#45;&gt;Node2 -->
<g id="edge8" class="edge">
<title>Node7&#45;&gt;Node2</title>
<path fill="none" stroke="#191970" d="M303.1786,-112.2455C319.5082,-103.4527 343.7341,-90.4079 362.297,-80.4125"/>
<polygon fill="#191970" stroke="#191970" points="364.01,-83.4654 371.1553,-75.6427 360.6912,-77.3021 364.01,-83.4654"/>
</g>
<!-- Node7&#45;&gt;Node6 -->
<g id="edge9" class="edge">
<title>Node7&#45;&gt;Node6</title>
<path fill="none" stroke="#191970" d="M247.4024,-112.5319C213.9688,-104.0306 163.5598,-90.9797 110.7169,-76.1124"/>
<polygon fill="#191970" stroke="#191970" points="111.4002,-72.6684 100.8252,-73.3158 109.4958,-79.4044 111.4002,-72.6684"/>
</g>
<!-- Node7&#45;&gt;Node8 -->
<g id="edge10" class="edge">
<title>Node7&#45;&gt;Node8</title>
<path fill="none" stroke="#191970" d="M264.7782,-112.3733C245.9211,-103.4241 217.6172,-89.9917 196.3176,-79.8835"/>
<polygon fill="#191970" stroke="#191970" points="197.6183,-76.6266 187.0834,-75.5011 194.617,-82.9506 197.6183,-76.6266"/>
</g>
<!-- Node7&#45;&gt;Node9 -->
<g id="edge11" class="edge">
<title>Node7&#45;&gt;Node9</title>
<path fill="none" stroke="#191970" d="M286.1083,-112.2455C286.8912,-104.9382 287.9887,-94.6944 288.9519,-85.7046"/>
<polygon fill="#191970" stroke="#191970" points="292.4447,-85.9587 290.03,-75.6427 285.4845,-85.2129 292.4447,-85.9587"/>
</g>
<!-- Node10 -->
<g id="node11" class="node">
<title>Node10</title>
<polygon fill="none" stroke="#bfbfbf" points="263.0631,-.5 263.0631,-19.5 319.0631,-19.5 319.0631,-.5 263.0631,-.5"/>
<text text-anchor="middle" x="291.0631" y="-7.5" font-family="Helvetica,sans-Serif" font-size="10.00" fill="#000000">stddef.h</text>
</g>
<!-- Node9&#45;&gt;Node10 -->
<g id="edge12" class="edge">
<title>Node9&#45;&gt;Node10</title>
<path fill="none" stroke="#191970" d="M291.0631,-56.2455C291.0631,-48.9382 291.0631,-38.6944 291.0631,-29.7046"/>
<polygon fill="#191970" stroke="#191970" points="294.5632,-29.6426 291.0631,-19.6427 287.5632,-29.6427 294.5632,-29.6426"/>
</g>
<!-- Node11&#45;&gt;Node2 -->
<g id="edge16" class="edge">
<title>Node11&#45;&gt;Node2</title>
<path fill="none" stroke="#191970" d="M485.9501,-112.3733C467.2528,-103.4241 439.1887,-89.9917 418.0697,-79.8835"/>
<polygon fill="#191970" stroke="#191970" points="419.4448,-76.6614 408.9137,-75.5011 416.4227,-82.9755 419.4448,-76.6614"/>
</g>
<!-- Node11&#45;&gt;Node4 -->
<g id="edge18" class="edge">
<title>Node11&#45;&gt;Node4</title>
<path fill="none" stroke="#191970" d="M490.7558,-112.4046C479.3594,-104.2816 464.6772,-91.4994 458.0631,-76 449.9656,-57.0242 466.6106,-38.2814 482.4702,-25.6463"/>
<polygon fill="#191970" stroke="#191970" points="484.6252,-28.4054 490.557,-19.6267 480.4454,-22.7902 484.6252,-28.4054"/>
</g>
<!-- Node12 -->
<g id="node13" class="node">
<title>Node12</title>
<polygon fill="none" stroke="#bfbfbf" points="562.5631,-56.5 562.5631,-75.5 655.5631,-75.5 655.5631,-56.5 562.5631,-56.5"/>
<text text-anchor="middle" x="609.0631" y="-63.5" font-family="Helvetica,sans-Serif" font-size="10.00" fill="#000000">unordered_map</text>
</g>
<!-- Node11&#45;&gt;Node12 -->
<g id="edge17" class="edge">
<title>Node11&#45;&gt;Node12</title>
<path fill="none" stroke="#191970" d="M524.0044,-112.2455C540.1031,-103.4928 563.951,-90.527 582.3022,-80.5496"/>
<polygon fill="#191970" stroke="#191970" points="584.2138,-83.4942 591.3275,-75.6427 580.8702,-77.3444 584.2138,-83.4942"/>
</g>
<!-- Node13 -->
<g id="node14" class="node">
<title>Node13</title>
<g id="a_node14"><a xlink:href="tileData_8hxx.html" target="_top" xlink:title="tileData.hxx">
<polygon fill="none" stroke="#000000" points="467.5631,-56.5 467.5631,-75.5 544.5631,-75.5 544.5631,-56.5 467.5631,-56.5"/>
<text text-anchor="middle" x="506.0631" y="-63.5" font-family="Helvetica,sans-Serif" font-size="10.00" fill="#000000">tileData.hxx</text>
</a>
</g>
</g>
<!-- Node11&#45;&gt;Node13 -->
<g id="edge19" class="edge">
<title>Node11&#45;&gt;Node13</title>
<path fill="none" stroke="#191970" d="M506.0631,-112.2455C506.0631,-104.9382 506.0631,-94.6944 506.0631,-85.7046"/>
<polygon fill="#191970" stroke="#191970" points="509.5632,-85.6426 506.0631,-75.6427 502.5632,-85.6427 509.5632,-85.6426"/>
</g>
<!-- Node14 -->
<g id="node15" class="node">
<title>Node14</title>
<polygon fill="none" stroke="#bfbfbf" points="674.0631,-56.5 674.0631,-75.5 732.0631,-75.5 732.0631,-56.5 674.0631,-56.5"/>
<text text-anchor="middle" x="703.0631" y="-63.5" font-family="Helvetica,sans-Serif" font-size="10.00" fill="#000000">json.hxx</text>
</g>
<!-- Node11&#45;&gt;Node14 -->
<g id="edge21" class="edge">
<title>Node11&#45;&gt;Node14</title>
<path fill="none" stroke="#191970" d="M539.9286,-112.3733C574.4194,-102.5688 627.8403,-87.3831 664.0745,-77.0831"/>
<polygon fill="#191970" stroke="#191970" points="665.1468,-80.417 673.8087,-74.316 663.2327,-73.6837 665.1468,-80.417"/>
</g>
<!-- Node15 -->
<g id="node16" class="node">
<title>Node15</title>
<g id="a_node16"><a xlink:href="Singleton_8hxx.html" target="_top" xlink:title="Singleton.hxx">
<polygon fill="none" stroke="#000000" points="750.5631,-56.5 750.5631,-75.5 833.5631,-75.5 833.5631,-56.5 750.5631,-56.5"/>
<text text-anchor="middle" x="792.0631" y="-63.5" font-family="Helvetica,sans-Serif" font-size="10.00" fill="#000000">Singleton.hxx</text>
</a>
</g>
</g>
<!-- Node11&#45;&gt;Node15 -->
<g id="edge22" class="edge">
<title>Node11&#45;&gt;Node15</title>
<path fill="none" stroke="#191970" d="M554.6721,-112.4898C600.06,-103.6087 669.9725,-89.9261 740.3793,-76.1335"/>
<polygon fill="#191970" stroke="#191970" points="741.1743,-79.5444 750.3148,-74.1871 739.8284,-72.675 741.1743,-79.5444"/>
</g>
<!-- Node13&#45;&gt;Node4 -->
<g id="edge20" class="edge">
<title>Node13&#45;&gt;Node4</title>
<path fill="none" stroke="#191970" d="M506.0631,-56.2455C506.0631,-48.9382 506.0631,-38.6944 506.0631,-29.7046"/>
<polygon fill="#191970" stroke="#191970" points="509.5632,-29.6426 506.0631,-19.6427 502.5632,-29.6427 509.5632,-29.6426"/>
</g>
</g>
</svg>
        <g id="navigator" transform="translate(0 0)" fill="#404254">
                <rect fill="#f2f5e9" fill-opacity="0.5" stroke="#606060" stroke-width=".5" x="0" y="0" width="60" height="60"/>
                <use id="zoomplus" xlink:href="#zoomPlus" x="17" y="9" onmousedown="handleZoom(evt,'in')"/>
                <use id="zoomminus" xlink:href="#zoomMin" x="42" y="9" onmousedown="handleZoom(evt,'out')"/>
                <use id="reset" xlink:href="#resetDef" x="30" y="36" onmousedown="handleReset()"/>
                <g id="arrowUp" xlink:href="#dirArrow" transform="translate(30 24)" onmousedown="handlePan(0,-1)">
                  <use xlink:href="#rim" fill="#404040">
                        <set attributeName="fill" to="#808080" begin="arrowUp.mouseover" end="arrowUp.mouseout"/>
                  </use>
                  <path fill="none" stroke="white" stroke-width="1.5" d="M0,-3.0v7 M-2.5,-0.5L0,-3.0L2.5,-0.5"/>
                </g>
                <g id="arrowRight" xlink:href="#dirArrow" transform="rotate(90) translate(36 -43)" onmousedown="handlePan(1,0)">
                  <use xlink:href="#rim" fill="#404040">
                        <set attributeName="fill" to="#808080" begin="arrowRight.mouseover" end="arrowRight.mouseout"/>
                  </use>
                  <path fill="none" stroke="white" stroke-width="1.5" d="M0,-3.0v7 M-2.5,-0.5L0,-3.0L2.5,-0.5"/>
                </g>
                <g id="arrowDown" xlink:href="#dirArrow" transform="rotate(180) translate(-30 -48)" onmousedown="handlePan(0,1)">
                  <use xlink:href="#rim" fill="#404040">
                        <set attributeName="fill" to="#808080" begin="arrowDown.mouseover" end="arrowDown.mouseout"/>
                  </use>
                  <path fill="none" stroke="white" stroke-width="1.5" d="M0,-3.0v7 M-2.5,-0.5L0,-3.0L2.5,-0.5"/>
                </g>
                <g id="arrowLeft" xlink:href="#dirArrow" transform="rotate(270) translate(-36 17)" onmousedown="handlePan(-1,0)">
                  <use xlink:href="#rim" fill="#404040">
                        <set attributeName="fill" to="#808080" begin="arrowLeft.mouseover" end="arrowLeft.mouseout"/>
                  </use>
                  <path fill="none" stroke="white" stroke-width="1.5" d="M0,-3.0v7 M-2.5,-0.5L0,-3.0L2.5,-0.5"/>
                </g>
        </g>
        <svg viewBox="0 0 15 15" width="100%" height="30px" preserveAspectRatio="xMaxYMin meet">
         <g id="arrow_out" transform="scale(0.3 0.3)">
          <a xlink:href="TerrainGenerator_8hxx__incl_org.svg" target="_base">
           <rect id="button" ry="5" rx="5" y="6" x="6" height="38" width="38"
                fill="#f2f5e9" fill-opacity="0.5" stroke="#606060" stroke-width="1.0"/>
           <path id="arrow"
             d="M 11.500037,31.436501 C 11.940474,20.09759 22.043105,11.32322 32.158766,21.979434 L 37.068811,17.246167 C 37.068811,17.246167 37.088388,32 37.088388,32 L 22.160133,31.978069 C 22.160133,31.978069 26.997745,27.140456 26.997745,27.140456 C 18.528582,18.264221 13.291696,25.230495 11.500037,31.436501 z"
             style="fill:#404040;"/>
          </a>
         </g>
        </svg>
</svg>
