<?xml version="1.0" encoding="UTF-8" standalone="no"?>
<!DOCTYPE svg PUBLIC "-//W3C//DTD SVG 1.1//EN"
 "http://www.w3.org/Graphics/SVG/1.1/DTD/svg11.dtd">
<!-- Generated by graphviz version 2.40.1 (20161225.0304)
 -->
<!-- Title: src/engine/map/TerrainGenerator.hxx Pages: 1 -->
<!--zoomable 252 -->
<svg id="main" version="1.1" xmlns="http://www.w3.org/2000/svg" xmlns:xlink="http://www.w3.org/1999/xlink" xml:space="preserve" onload="init(evt)">
<style type="text/css"><![CDATA[
.edge:hover path { stroke: red; }
.edge:hover polygon { stroke: red; fill: red; }
]]></style>
<script type="text/javascript"><![CDATA[
var edges = document.getElementsByTagName('g');
if (edges && edges.length) {
  for (var i=0;i<edges.length;i++) {
    if (edges[i].id.substr(0,4)=='edge') {
      edges[i].setAttribute('class','edge');
    }
  }
}
]]></script>
        <defs>
                <circle id="rim" cx="0" cy="0" r="7"/>
                <circle id="rim2" cx="0" cy="0" r="3.5"/>
                <g id="zoomPlus">
                        <use xlink:href="#rim" fill="#404040">
                                <set attributeName="fill" to="#808080" begin="zoomplus.mouseover" end="zoomplus.mouseout"/>
                        </use>
                        <path d="M-4,0h8M0,-4v8" fill="none" stroke="white" stroke-width="1.5" pointer-events="none"/>
                </g>
                <g id="zoomMin">
                        <use xlink:href="#rim" fill="#404040">
                                <set attributeName="fill" to="#808080" begin="zoomminus.mouseover" end="zoomminus.mouseout"/>
                        </use>
                        <path d="M-4,0h8" fill="none" stroke="white" stroke-width="1.5" pointer-events="none"/>
                </g>
                <g id="dirArrow">
                        <path fill="none" stroke="white" stroke-width="1.5" d="M0,-3.0v7 M-2.5,-0.5L0,-3.0L2.5,-0.5"/>
                </g>
               <g id="resetDef">
                       <use xlink:href="#rim2" fill="#404040">
                               <set attributeName="fill" to="#808080" begin="reset.mouseover" end="reset.mouseout"/>
                       </use>
               </g>
        </defs>

<script type="text/javascript">
var viewWidth = 1133;
var viewHeight = 252;
var sectionId = 'dynsection-1';
</script>
<script xlink:href="svgpan.js"/>
<svg id="graph" class="graph">
<g id="viewport">
<title>src/engine/map/TerrainGenerator.hxx</title>
<!-- Node17 -->
<g id="node1" class="node">
<title>Node17</title>
<polygon fill="#bfbfbf" stroke="#000000" points="613,-224.5 613,-243.5 810,-243.5 810,-224.5 613,-224.5"/>
<text text-anchor="middle" x="711.5" y="-231.5" font-family="Helvetica,sans-Serif" font-size="10.00" fill="#000000">src/engine/map/TerrainGenerator.hxx</text>
</g>
<!-- Node18 -->
<g id="node2" class="node">
<title>Node18</title>
<g id="a_node2"><a xlink:href="Map_8hxx.html" target="_top" xlink:title="src/engine/Map.hxx">
<polygon fill="none" stroke="#000000" points="313,-168.5 313,-187.5 424,-187.5 424,-168.5 313,-168.5"/>
<text text-anchor="middle" x="368.5" y="-175.5" font-family="Helvetica,sans-Serif" font-size="10.00" fill="#000000">src/engine/Map.hxx</text>
</a>
</g>
</g>
<!-- Node17&#45;&gt;Node18 -->
<g id="edge1" class="edge">
<title>Node17&#45;&gt;Node18</title>
<path fill="none" stroke="#191970" d="M642.8934,-222.7989C578.6873,-212.3163 483.9556,-196.8499 424.274,-187.106"/>
<polygon fill="#191970" stroke="#191970" points="642.4926,-226.2798 652.9259,-224.4369 643.6206,-219.3712 642.4926,-226.2798"/>
</g>
<!-- Node29 -->
<g id="node13" class="node">
<title>Node29</title>
<g id="a_node13"><a xlink:href="JsonSerialization_8hxx.html" target="_top" xlink:title="src/engine/common/JsonSerialization.hxx">
<polygon fill="none" stroke="#000000" points="602.5,-168.5 602.5,-187.5 820.5,-187.5 820.5,-168.5 602.5,-168.5"/>
<text text-anchor="middle" x="711.5" y="-175.5" font-family="Helvetica,sans-Serif" font-size="10.00" fill="#000000">src/engine/common/JsonSerialization.hxx</text>
</a>
</g>
</g>
<!-- Node17&#45;&gt;Node29 -->
<g id="edge15" class="edge">
<title>Node17&#45;&gt;Node29</title>
<path fill="none" stroke="#191970" d="M711.5,-214.1575C711.5,-205.155 711.5,-194.9199 711.5,-187.6427"/>
<polygon fill="#191970" stroke="#191970" points="708.0001,-214.2455 711.5,-224.2455 715.0001,-214.2456 708.0001,-214.2455"/>
</g>
<!-- Node31 -->
<g id="node15" class="node">
<title>Node31</title>
<g id="a_node15"><a xlink:href="TerrainGenerator_8cxx.html" target="_top" xlink:title="src/engine/map/TerrainGenerator.cxx">
<polygon fill="none" stroke="#000000" points="928.5,-112.5 928.5,-131.5 1124.5,-131.5 1124.5,-112.5 928.5,-112.5"/>
<text text-anchor="middle" x="1026.5" y="-119.5" font-family="Helvetica,sans-Serif" font-size="10.00" fill="#000000">src/engine/map/TerrainGenerator.cxx</text>
</a>
</g>
</g>
<!-- Node17&#45;&gt;Node31 -->
<g id="edge20" class="edge">
<title>Node17&#45;&gt;Node31</title>
<path fill="none" stroke="#191970" d="M748.0425,-221.0071C812.117,-198.2251 943.281,-151.589 999.7113,-131.5249"/>
<polygon fill="#191970" stroke="#191970" points="746.6063,-217.803 738.3567,-224.4509 748.9514,-224.3985 746.6063,-217.803"/>
</g>
<!-- Node19 -->
<g id="node3" class="node">
<title>Node19</title>
<g id="a_node3"><a xlink:href="Engine_8hxx.html" target="_top" xlink:title="src/engine/Engine.hxx">
<polygon fill="none" stroke="#000000" points="306.5,-112.5 306.5,-131.5 430.5,-131.5 430.5,-112.5 306.5,-112.5"/>
<text text-anchor="middle" x="368.5" y="-119.5" font-family="Helvetica,sans-Serif" font-size="10.00" fill="#000000">src/engine/Engine.hxx</text>
</a>
</g>
</g>
<!-- Node18&#45;&gt;Node19 -->
<g id="edge2" class="edge">
<title>Node18&#45;&gt;Node19</title>
<path fill="none" stroke="#191970" d="M368.5,-158.1575C368.5,-149.155 368.5,-138.9199 368.5,-131.6427"/>
<polygon fill="#191970" stroke="#191970" points="365.0001,-158.2455 368.5,-168.2455 372.0001,-158.2456 365.0001,-158.2455"/>
</g>
<!-- Node24 -->
<g id="node8" class="node">
<title>Node24</title>
<g id="a_node8"><a xlink:href="EventManager_8cxx.html" target="_top" xlink:title="src/engine/EventManager.cxx">
<polygon fill="none" stroke="#000000" points="0,-.5 0,-19.5 159,-19.5 159,-.5 0,-.5"/>
<text text-anchor="middle" x="79.5" y="-7.5" font-family="Helvetica,sans-Serif" font-size="10.00" fill="#000000">src/engine/EventManager.cxx</text>
</a>
</g>
</g>
<!-- Node18&#45;&gt;Node24 -->
<g id="edge12" class="edge">
<title>Node18&#45;&gt;Node24</title>
<path fill="none" stroke="#191970" d="M308.4905,-166.369C228.6612,-149.5372 94.2296,-115.9851 65.5,-76 53.3341,-59.0678 64.8548,-33.7736 73.0047,-19.9319"/>
<polygon fill="#191970" stroke="#191970" points="307.9177,-169.8247 318.4212,-168.4361 309.3443,-162.9716 307.9177,-169.8247"/>
</g>
<!-- Node27 -->
<g id="node11" class="node">
<title>Node27</title>
<g id="a_node11"><a xlink:href="UIManager_8cxx.html" target="_top" xlink:title="src/engine/UIManager.cxx">
<polygon fill="none" stroke="#000000" points="74.5,-56.5 74.5,-75.5 216.5,-75.5 216.5,-56.5 74.5,-56.5"/>
<text text-anchor="middle" x="145.5" y="-63.5" font-family="Helvetica,sans-Serif" font-size="10.00" fill="#000000">src/engine/UIManager.cxx</text>
</a>
</g>
</g>
<!-- Node18&#45;&gt;Node27 -->
<g id="edge14" class="edge">
<title>Node18&#45;&gt;Node27</title>
<path fill="none" stroke="#191970" d="M340.352,-163.8629C294.2269,-140.6969 203.7562,-95.2587 164.4647,-75.5249"/>
<polygon fill="#191970" stroke="#191970" points="338.98,-167.0904 349.4871,-168.4509 342.1218,-160.835 338.98,-167.0904"/>
</g>
<!-- Node28 -->
<g id="node12" class="node">
<title>Node28</title>
<g id="a_node12"><a xlink:href="Map_8cxx.html" target="_top" xlink:title="src/engine/Map.cxx">
<polygon fill="none" stroke="#000000" points="448.5,-112.5 448.5,-131.5 558.5,-131.5 558.5,-112.5 448.5,-112.5"/>
<text text-anchor="middle" x="503.5" y="-119.5" font-family="Helvetica,sans-Serif" font-size="10.00" fill="#000000">src/engine/Map.cxx</text>
</a>
</g>
</g>
<!-- Node18&#45;&gt;Node28 -->
<g id="edge13" class="edge">
<title>Node18&#45;&gt;Node28</title>
<path fill="none" stroke="#191970" d="M400.9991,-164.5189C425.5854,-154.3201 458.7366,-140.5685 480.5955,-131.5011"/>
<polygon fill="#191970" stroke="#191970" points="399.6031,-161.3087 391.7073,-168.3733 402.2852,-167.7745 399.6031,-161.3087"/>
</g>
<!-- Node20 -->
<g id="node4" class="node">
<title>Node20</title>
<g id="a_node4"><a xlink:href="Camera_8cxx.html" target="_top" xlink:title="src/engine/basics/Camera.cxx">
<polygon fill="none" stroke="#000000" points="592.5,-56.5 592.5,-75.5 754.5,-75.5 754.5,-56.5 592.5,-56.5"/>
<text text-anchor="middle" x="673.5" y="-63.5" font-family="Helvetica,sans-Serif" font-size="10.00" fill="#000000">src/engine/basics/Camera.cxx</text>
</a>
</g>
</g>
<!-- Node19&#45;&gt;Node20 -->
<g id="edge3" class="edge">
<title>Node19&#45;&gt;Node20</title>
<path fill="none" stroke="#191970" d="M430.428,-110.6296C486.6893,-100.2997 568.7428,-85.2341 621.63,-75.5237"/>
<polygon fill="#191970" stroke="#191970" points="429.7883,-107.1885 420.5848,-112.4369 431.0525,-114.0734 429.7883,-107.1885"/>
</g>
<!-- Node21 -->
<g id="node5" class="node">
<title>Node21</title>
<g id="a_node5"><a xlink:href="isoMath_8cxx.html" target="_top" xlink:title="src/engine/basics/isoMath.cxx">
<polygon fill="none" stroke="#000000" points="772.5,-56.5 772.5,-75.5 934.5,-75.5 934.5,-56.5 772.5,-56.5"/>
<text text-anchor="middle" x="853.5" y="-63.5" font-family="Helvetica,sans-Serif" font-size="10.00" fill="#000000">src/engine/basics/isoMath.cxx</text>
</a>
</g>
</g>
<!-- Node19&#45;&gt;Node21 -->
<g id="edge4" class="edge">
<title>Node19&#45;&gt;Node21</title>
<path fill="none" stroke="#191970" d="M441.025,-111.9357C486.0628,-106.8195 665.3289,-86.9038 772.3253,-75.0176"/>
<polygon fill="#191970" stroke="#191970" points="440.3553,-108.4897 430.8243,-113.1168 441.1606,-115.4433 440.3553,-108.4897"/>
</g>
<!-- Node22 -->
<g id="node6" class="node">
<title>Node22</title>
<g id="a_node6"><a xlink:href="EventManager_8hxx.html" target="_top" xlink:title="src/engine/EventManager.hxx">
<polygon fill="none" stroke="#000000" points="234.5,-56.5 234.5,-75.5 394.5,-75.5 394.5,-56.5 234.5,-56.5"/>
<text text-anchor="middle" x="314.5" y="-63.5" font-family="Helvetica,sans-Serif" font-size="10.00" fill="#000000">src/engine/EventManager.hxx</text>
</a>
</g>
</g>
<!-- Node19&#45;&gt;Node22 -->
<g id="edge5" class="edge">
<title>Node19&#45;&gt;Node22</title>
<path fill="none" stroke="#191970" d="M351.9031,-104.7884C342.6653,-95.2085 331.5096,-83.6396 323.7983,-75.6427"/>
<polygon fill="#191970" stroke="#191970" points="349.6331,-107.4766 359.0939,-112.2455 354.672,-102.6176 349.6331,-107.4766"/>
</g>
<!-- Node25 -->
<g id="node9" class="node">
<title>Node25</title>
<g id="a_node9"><a xlink:href="Game_8cxx.html" target="_top" xlink:title="src/Game.cxx">
<polygon fill="none" stroke="#000000" points="381,-.5 381,-19.5 464,-19.5 464,-.5 381,-.5"/>
<text text-anchor="middle" x="422.5" y="-7.5" font-family="Helvetica,sans-Serif" font-size="10.00" fill="#000000">src/Game.cxx</text>
</a>
</g>
</g>
<!-- Node19&#45;&gt;Node25 -->
<g id="edge11" class="edge">
<title>Node19&#45;&gt;Node25</title>
<path fill="none" stroke="#191970" d="M384.0685,-104.7422C390.8252,-96.5168 398.3531,-86.25 403.5,-76 412.9172,-57.2459 418.3662,-33.0834 420.8522,-19.8133"/>
<polygon fill="#191970" stroke="#191970" points="381.2818,-102.6156 377.4385,-112.4888 386.6,-107.1672 381.2818,-102.6156"/>
</g>
<!-- Node26 -->
<g id="node10" class="node">
<title>Node26</title>
<g id="a_node10"><a xlink:href="Engine_8cxx.html" target="_top" xlink:title="src/engine/Engine.cxx">
<polygon fill="none" stroke="#000000" points="451,-56.5 451,-75.5 574,-75.5 574,-56.5 451,-56.5"/>
<text text-anchor="middle" x="512.5" y="-63.5" font-family="Helvetica,sans-Serif" font-size="10.00" fill="#000000">src/engine/Engine.cxx</text>
</a>
</g>
</g>
<!-- Node19&#45;&gt;Node26 -->
<g id="edge9" class="edge">
<title>Node19&#45;&gt;Node26</title>
<path fill="none" stroke="#191970" d="M402.8182,-108.6541C429.078,-98.4419 464.6492,-84.6086 488.0685,-75.5011"/>
<polygon fill="#191970" stroke="#191970" points="401.306,-105.4867 393.2545,-112.3733 403.8431,-112.0108 401.306,-105.4867"/>
</g>
<!-- Node19&#45;&gt;Node27 -->
<g id="edge10" class="edge">
<title>Node19&#45;&gt;Node27</title>
<path fill="none" stroke="#191970" d="M320.6426,-109.982C279.6111,-99.6781 221.2924,-85.0331 183.4246,-75.5237"/>
<polygon fill="#191970" stroke="#191970" points="319.867,-113.3958 330.4183,-112.4369 321.5719,-106.6066 319.867,-113.3958"/>
</g>
<!-- Node23 -->
<g id="node7" class="node">
<title>Node23</title>
<g id="a_node7"><a xlink:href="Timer_8cxx.html" target="_top" xlink:title="src/engine/basics/Timer.cxx">
<polygon fill="none" stroke="#000000" points="210.5,-.5 210.5,-19.5 362.5,-19.5 362.5,-.5 210.5,-.5"/>
<text text-anchor="middle" x="286.5" y="-7.5" font-family="Helvetica,sans-Serif" font-size="10.00" fill="#000000">src/engine/basics/Timer.cxx</text>
</a>
</g>
</g>
<!-- Node22&#45;&gt;Node23 -->
<g id="edge6" class="edge">
<title>Node22&#45;&gt;Node23</title>
<path fill="none" stroke="#191970" d="M305.0219,-47.0437C300.4165,-37.8331 295.0799,-27.1598 291.3213,-19.6427"/>
<polygon fill="#191970" stroke="#191970" points="302.0201,-48.8665 309.6228,-56.2455 308.2811,-45.736 302.0201,-48.8665"/>
</g>
<!-- Node22&#45;&gt;Node24 -->
<g id="edge7" class="edge">
<title>Node22&#45;&gt;Node24</title>
<path fill="none" stroke="#191970" d="M264.6148,-54.1125C221.348,-43.8021 159.5396,-29.0733 119.4654,-19.5237"/>
<polygon fill="#191970" stroke="#191970" points="263.8301,-57.5234 274.3691,-56.4369 265.4528,-50.7141 263.8301,-57.5234"/>
</g>
<!-- Node22&#45;&gt;Node25 -->
<g id="edge8" class="edge">
<title>Node22&#45;&gt;Node25</title>
<path fill="none" stroke="#191970" d="M342.2771,-51.5971C361.6382,-41.558 386.9385,-28.4393 403.9034,-19.6427"/>
<polygon fill="#191970" stroke="#191970" points="340.5786,-48.5352 333.3122,-56.2455 343.8008,-54.7495 340.5786,-48.5352"/>
</g>
<!-- Node29&#45;&gt;Node28 -->
<g id="edge18" class="edge">
<title>Node29&#45;&gt;Node28</title>
<path fill="none" stroke="#191970" d="M665.8882,-165.7199C627.6418,-155.4228 573.81,-140.9296 538.7899,-131.5011"/>
<polygon fill="#191970" stroke="#191970" points="665.1774,-169.1531 675.7435,-168.3733 666.9973,-162.3938 665.1774,-169.1531"/>
</g>
<!-- Node30 -->
<g id="node14" class="node">
<title>Node30</title>
<g id="a_node14"><a xlink:href="Settings_8cxx.html" target="_top" xlink:title="src/engine/basics/Settings.cxx">
<polygon fill="none" stroke="#000000" points="746.5,-112.5 746.5,-131.5 910.5,-131.5 910.5,-112.5 746.5,-112.5"/>
<text text-anchor="middle" x="828.5" y="-119.5" font-family="Helvetica,sans-Serif" font-size="10.00" fill="#000000">src/engine/basics/Settings.cxx</text>
</a>
</g>
</g>
<!-- Node29&#45;&gt;Node30 -->
<g id="edge16" class="edge">
<title>Node29&#45;&gt;Node30</title>
<path fill="none" stroke="#191970" d="M740.8042,-163.9741C761.988,-153.8348 790.0403,-140.408 808.6494,-131.5011"/>
<polygon fill="#191970" stroke="#191970" points="739.122,-160.8989 731.613,-168.3733 742.1441,-167.2129 739.122,-160.8989"/>
</g>
<!-- Node29&#45;&gt;Node31 -->
<g id="edge17" class="edge">
<title>Node29&#45;&gt;Node31</title>
<path fill="none" stroke="#191970" d="M775.4584,-166.6296C833.5644,-156.2997 918.3082,-141.2341 972.9294,-131.5237"/>
<polygon fill="#191970" stroke="#191970" points="774.5255,-163.2405 765.2925,-168.4369 775.7508,-170.1324 774.5255,-163.2405"/>
</g>
<!-- Node32 -->
<g id="node16" class="node">
<title>Node32</title>
<g id="a_node16"><a xlink:href="AudioMixer_8cxx.html" target="_top" xlink:title="src/services/AudioMixer.cxx">
<polygon fill="none" stroke="#000000" points="576.5,-112.5 576.5,-131.5 728.5,-131.5 728.5,-112.5 576.5,-112.5"/>
<text text-anchor="middle" x="652.5" y="-119.5" font-family="Helvetica,sans-Serif" font-size="10.00" fill="#000000">src/services/AudioMixer.cxx</text>
</a>
</g>
</g>
<!-- Node29&#45;&gt;Node32 -->
<g id="edge19" class="edge">
<title>Node29&#45;&gt;Node32</title>
<path fill="none" stroke="#191970" d="M693.9693,-161.3607C683.7623,-151.6727 671.2531,-139.7995 662.6592,-131.6427"/>
<polygon fill="#191970" stroke="#191970" points="691.5604,-163.8998 701.223,-168.2455 696.3794,-158.8227 691.5604,-163.8998"/>
</g>
</g>
</svg>
        <g id="navigator" transform="translate(0 0)" fill="#404254">
                <rect fill="#f2f5e9" fill-opacity="0.5" stroke="#606060" stroke-width=".5" x="0" y="0" width="60" height="60"/>
                <use id="zoomplus" xlink:href="#zoomPlus" x="17" y="9" onmousedown="handleZoom(evt,'in')"/>
                <use id="zoomminus" xlink:href="#zoomMin" x="42" y="9" onmousedown="handleZoom(evt,'out')"/>
                <use id="reset" xlink:href="#resetDef" x="30" y="36" onmousedown="handleReset()"/>
                <g id="arrowUp" xlink:href="#dirArrow" transform="translate(30 24)" onmousedown="handlePan(0,-1)">
                  <use xlink:href="#rim" fill="#404040">
                        <set attributeName="fill" to="#808080" begin="arrowUp.mouseover" end="arrowUp.mouseout"/>
                  </use>
                  <path fill="none" stroke="white" stroke-width="1.5" d="M0,-3.0v7 M-2.5,-0.5L0,-3.0L2.5,-0.5"/>
                </g>
                <g id="arrowRight" xlink:href="#dirArrow" transform="rotate(90) translate(36 -43)" onmousedown="handlePan(1,0)">
                  <use xlink:href="#rim" fill="#404040">
                        <set attributeName="fill" to="#808080" begin="arrowRight.mouseover" end="arrowRight.mouseout"/>
                  </use>
                  <path fill="none" stroke="white" stroke-width="1.5" d="M0,-3.0v7 M-2.5,-0.5L0,-3.0L2.5,-0.5"/>
                </g>
                <g id="arrowDown" xlink:href="#dirArrow" transform="rotate(180) translate(-30 -48)" onmousedown="handlePan(0,1)">
                  <use xlink:href="#rim" fill="#404040">
                        <set attributeName="fill" to="#808080" begin="arrowDown.mouseover" end="arrowDown.mouseout"/>
                  </use>
                  <path fill="none" stroke="white" stroke-width="1.5" d="M0,-3.0v7 M-2.5,-0.5L0,-3.0L2.5,-0.5"/>
                </g>
                <g id="arrowLeft" xlink:href="#dirArrow" transform="rotate(270) translate(-36 17)" onmousedown="handlePan(-1,0)">
                  <use xlink:href="#rim" fill="#404040">
                        <set attributeName="fill" to="#808080" begin="arrowLeft.mouseover" end="arrowLeft.mouseout"/>
                  </use>
                  <path fill="none" stroke="white" stroke-width="1.5" d="M0,-3.0v7 M-2.5,-0.5L0,-3.0L2.5,-0.5"/>
                </g>
        </g>
        <svg viewBox="0 0 15 15" width="100%" height="30px" preserveAspectRatio="xMaxYMin meet">
         <g id="arrow_out" transform="scale(0.3 0.3)">
          <a xlink:href="TerrainGenerator_8hxx__dep__incl_org.svg" target="_base">
           <rect id="button" ry="5" rx="5" y="6" x="6" height="38" width="38"
                fill="#f2f5e9" fill-opacity="0.5" stroke="#606060" stroke-width="1.0"/>
           <path id="arrow"
             d="M 11.500037,31.436501 C 11.940474,20.09759 22.043105,11.32322 32.158766,21.979434 L 37.068811,17.246167 C 37.068811,17.246167 37.088388,32 37.088388,32 L 22.160133,31.978069 C 22.160133,31.978069 26.997745,27.140456 26.997745,27.140456 C 18.528582,18.264221 13.291696,25.230495 11.500037,31.436501 z"
             style="fill:#404040;"/>
          </a>
         </g>
        </svg>
</svg>
