<?xml version="1.0" encoding="UTF-8" standalone="no"?>
<!DOCTYPE svg PUBLIC "-//W3C//DTD SVG 1.1//EN"
 "http://www.w3.org/Graphics/SVG/1.1/DTD/svg11.dtd">
<!-- Generated by graphviz version 2.40.1 (20161225.0304)
 -->
<!-- Title: src/engine/ui/widgets/Text.cxx Pages: 1 -->
<svg width="1640pt" height="375pt"
 viewBox="0.00 0.00 1640.00 375.00" xmlns="http://www.w3.org/2000/svg" xmlns:xlink="http://www.w3.org/1999/xlink">
<g id="graph0" class="graph" transform="scale(1 1) rotate(0) translate(4 371)">
<title>src/engine/ui/widgets/Text.cxx</title>
<!-- Node0 -->
<g id="node1" class="node">
<title>Node0</title>
<polygon fill="#bfbfbf" stroke="#000000" points="1142,-336.5 1142,-366.5 1262,-366.5 1262,-336.5 1142,-336.5"/>
<text text-anchor="start" x="1150" y="-354.5" font-family="Helvetica,sans-Serif" font-size="10.00" fill="#000000">src/engine/ui/widgets</text>
<text text-anchor="middle" x="1202" y="-343.5" font-family="Helvetica,sans-Serif" font-size="10.00" fill="#000000">/Text.cxx</text>
</g>
<!-- Node1 -->
<g id="node2" class="node">
<title>Node1</title>
<g id="a_node2"><a xlink:href="Text_8hxx.html" target="_top" xlink:title="Text.hxx">
<polygon fill="none" stroke="#000000" points="451,-280.5 451,-299.5 509,-299.5 509,-280.5 451,-280.5"/>
<text text-anchor="middle" x="480" y="-287.5" font-family="Helvetica,sans-Serif" font-size="10.00" fill="#000000">Text.hxx</text>
</a>
</g>
</g>
<!-- Node0&#45;&gt;Node1 -->
<g id="edge1" class="edge">
<title>Node0&#45;&gt;Node1</title>
<path fill="none" stroke="#191970" d="M1141.9933,-346.3886C998.6147,-334.1756 639.1732,-303.5584 519.474,-293.3624"/>
<polygon fill="#191970" stroke="#191970" points="519.5648,-289.8575 509.3038,-292.4961 518.9706,-296.8323 519.5648,-289.8575"/>
</g>
<!-- Node20 -->
<g id="node21" class="node">
<title>Node20</title>
<g id="a_node21"><a xlink:href="LOG_8hxx.html" target="_top" xlink:title="LOG.hxx">
<polygon fill="none" stroke="#000000" points="1368,-112.5 1368,-131.5 1426,-131.5 1426,-112.5 1368,-112.5"/>
<text text-anchor="middle" x="1397" y="-119.5" font-family="Helvetica,sans-Serif" font-size="10.00" fill="#000000">LOG.hxx</text>
</a>
</g>
</g>
<!-- Node0&#45;&gt;Node20 -->
<g id="edge32" class="edge">
<title>Node0&#45;&gt;Node20</title>
<path fill="none" stroke="#191970" d="M1208.778,-336.255C1215.792,-321.2554 1227.5884,-298.0437 1241,-280 1283.6405,-222.6321 1346.3561,-165.4749 1377.6928,-138.3219"/>
<polygon fill="#191970" stroke="#191970" points="1380.0004,-140.9537 1385.3053,-131.7826 1375.4391,-135.6438 1380.0004,-140.9537"/>
</g>
<!-- Node25 -->
<g id="node26" class="node">
<title>Node25</title>
<g id="a_node26"><a xlink:href="Settings_8hxx.html" target="_top" xlink:title="Settings.hxx">
<polygon fill="none" stroke="#000000" points="1116.5,-168.5 1116.5,-187.5 1193.5,-187.5 1193.5,-168.5 1116.5,-168.5"/>
<text text-anchor="middle" x="1155" y="-175.5" font-family="Helvetica,sans-Serif" font-size="10.00" fill="#000000">Settings.hxx</text>
</a>
</g>
</g>
<!-- Node0&#45;&gt;Node25 -->
<g id="edge39" class="edge">
<title>Node0&#45;&gt;Node25</title>
<path fill="none" stroke="#191970" d="M1197.9113,-336.4065C1189.4069,-305.0126 1169.8168,-232.6961 1160.3346,-197.6925"/>
<polygon fill="#191970" stroke="#191970" points="1163.631,-196.475 1157.638,-187.738 1156.8745,-198.3053 1163.631,-196.475"/>
</g>
<!-- Node31 -->
<g id="node32" class="node">
<title>Node31</title>
<polygon fill="none" stroke="#bfbfbf" points="1250,-280.5 1250,-299.5 1310,-299.5 1310,-280.5 1250,-280.5"/>
<text text-anchor="middle" x="1280" y="-287.5" font-family="Helvetica,sans-Serif" font-size="10.00" fill="#000000">SDL_ttf.h</text>
</g>
<!-- Node0&#45;&gt;Node31 -->
<g id="edge48" class="edge">
<title>Node0&#45;&gt;Node31</title>
<path fill="none" stroke="#191970" d="M1221.2809,-336.2977C1232.8976,-327.1384 1247.6818,-315.4816 1259.5092,-306.1562"/>
<polygon fill="#191970" stroke="#191970" points="1261.8256,-308.787 1267.5112,-299.8469 1257.4914,-303.2901 1261.8256,-308.787"/>
</g>
<!-- Node2 -->
<g id="node3" class="node">
<title>Node2</title>
<polygon fill="none" stroke="#bfbfbf" points="335,-.5 335,-19.5 379,-19.5 379,-.5 335,-.5"/>
<text text-anchor="middle" x="357" y="-7.5" font-family="Helvetica,sans-Serif" font-size="10.00" fill="#000000">string</text>
</g>
<!-- Node1&#45;&gt;Node2 -->
<g id="edge2" class="edge">
<title>Node1&#45;&gt;Node2</title>
<path fill="none" stroke="#191970" d="M450.6964,-289.4768C346.4813,-286.8361 0,-271.0593 0,-178 0,-178 0,-178 0,-122 0,-54.2649 236.9272,-22.5611 324.7541,-13.1356"/>
<polygon fill="#191970" stroke="#191970" points="325.3554,-16.592 334.9375,-12.0715 324.6278,-9.6299 325.3554,-16.592"/>
</g>
<!-- Node3 -->
<g id="node4" class="node">
<title>Node3</title>
<g id="a_node4"><a xlink:href="UIElement_8hxx.html" target="_top" xlink:title="../basics/UIElement.hxx">
<polygon fill="none" stroke="#000000" points="414.5,-224.5 414.5,-243.5 545.5,-243.5 545.5,-224.5 414.5,-224.5"/>
<text text-anchor="middle" x="480" y="-231.5" font-family="Helvetica,sans-Serif" font-size="10.00" fill="#000000">../basics/UIElement.hxx</text>
</a>
</g>
</g>
<!-- Node1&#45;&gt;Node3 -->
<g id="edge3" class="edge">
<title>Node1&#45;&gt;Node3</title>
<path fill="none" stroke="#191970" d="M480,-280.2455C480,-272.9382 480,-262.6944 480,-253.7046"/>
<polygon fill="#191970" stroke="#191970" points="483.5001,-253.6426 480,-243.6427 476.5001,-253.6427 483.5001,-253.6426"/>
</g>
<!-- Node3&#45;&gt;Node2 -->
<g id="edge4" class="edge">
<title>Node3&#45;&gt;Node2</title>
<path fill="none" stroke="#191970" d="M414.4729,-224.6322C335.0223,-209.2966 204.941,-170.4349 150,-76 145.53,-68.3168 144.438,-62.9337 150,-56 171.5509,-29.1343 272.1801,-16.9671 324.7789,-12.3641"/>
<polygon fill="#191970" stroke="#191970" points="325.2501,-15.837 334.9246,-11.5181 324.6683,-8.8612 325.2501,-15.837"/>
</g>
<!-- Node4 -->
<g id="node5" class="node">
<title>Node4</title>
<g id="a_node5"><a xlink:href="mapEdit_8hxx.html" target="_top" xlink:title="../../basics/mapEdit.hxx">
<polygon fill="none" stroke="#000000" points="28,-168.5 28,-187.5 158,-187.5 158,-168.5 28,-168.5"/>
<text text-anchor="middle" x="93" y="-175.5" font-family="Helvetica,sans-Serif" font-size="10.00" fill="#000000">../../basics/mapEdit.hxx</text>
</a>
</g>
</g>
<!-- Node3&#45;&gt;Node4 -->
<g id="edge5" class="edge">
<title>Node3&#45;&gt;Node4</title>
<path fill="none" stroke="#191970" d="M414.3507,-224.5004C346.2137,-214.6407 239.7942,-199.2415 168.2896,-188.8946"/>
<polygon fill="#191970" stroke="#191970" points="168.4,-185.3742 158.0018,-187.4059 167.3974,-192.3021 168.4,-185.3742"/>
</g>
<!-- Node5 -->
<g id="node6" class="node">
<title>Node5</title>
<g id="a_node6"><a xlink:href="ResourcesManager_8hxx.html" target="_top" xlink:title="../../ResourcesManager.hxx">
<polygon fill="none" stroke="#000000" points="356,-168.5 356,-187.5 502,-187.5 502,-168.5 356,-168.5"/>
<text text-anchor="middle" x="429" y="-175.5" font-family="Helvetica,sans-Serif" font-size="10.00" fill="#000000">../../ResourcesManager.hxx</text>
</a>
</g>
</g>
<!-- Node3&#45;&gt;Node5 -->
<g id="edge7" class="edge">
<title>Node3&#45;&gt;Node5</title>
<path fill="none" stroke="#191970" d="M471.1165,-224.2455C463.8034,-216.2155 453.2609,-204.6394 444.5533,-195.0781"/>
<polygon fill="#191970" stroke="#191970" points="447.1028,-192.6795 437.7817,-187.6427 441.9273,-197.3928 447.1028,-192.6795"/>
</g>
<!-- Node8 -->
<g id="node9" class="node">
<title>Node8</title>
<polygon fill="none" stroke="#bfbfbf" points="582,-56.5 582,-75.5 626,-75.5 626,-56.5 582,-56.5"/>
<text text-anchor="middle" x="604" y="-63.5" font-family="Helvetica,sans-Serif" font-size="10.00" fill="#000000">SDL.h</text>
</g>
<!-- Node3&#45;&gt;Node8 -->
<g id="edge31" class="edge">
<title>Node3&#45;&gt;Node8</title>
<path fill="none" stroke="#191970" d="M487.0221,-224.4862C506.963,-197.4695 564.1868,-119.9405 590.4854,-84.3102"/>
<polygon fill="#191970" stroke="#191970" points="593.6235,-85.9521 596.7461,-75.8279 587.9915,-81.7951 593.6235,-85.9521"/>
</g>
<!-- Node13 -->
<g id="node14" class="node">
<title>Node13</title>
<g id="a_node14"><a xlink:href="WindowManager_8hxx.html" target="_top" xlink:title="../../WindowManager.hxx">
<polygon fill="none" stroke="#000000" points="596,-112.5 596,-131.5 732,-131.5 732,-112.5 596,-112.5"/>
<text text-anchor="middle" x="664" y="-119.5" font-family="Helvetica,sans-Serif" font-size="10.00" fill="#000000">../../WindowManager.hxx</text>
</a>
</g>
</g>
<!-- Node3&#45;&gt;Node13 -->
<g id="edge19" class="edge">
<title>Node3&#45;&gt;Node13</title>
<path fill="none" stroke="#191970" d="M495.6877,-224.4509C527.7347,-204.9441 600.9254,-160.3932 639.3721,-136.9909"/>
<polygon fill="#191970" stroke="#191970" points="641.6298,-139.7141 648.352,-131.5249 637.9901,-133.7347 641.6298,-139.7141"/>
</g>
<!-- Node15 -->
<g id="node16" class="node">
<title>Node15</title>
<g id="a_node16"><a xlink:href="signal_8hxx.html" target="_top" xlink:title="../../basics/signal.hxx">
<polygon fill="none" stroke="#000000" points="770.5,-112.5 770.5,-131.5 889.5,-131.5 889.5,-112.5 770.5,-112.5"/>
<text text-anchor="middle" x="830" y="-119.5" font-family="Helvetica,sans-Serif" font-size="10.00" fill="#000000">../../basics/signal.hxx</text>
</a>
</g>
</g>
<!-- Node3&#45;&gt;Node15 -->
<g id="edge25" class="edge">
<title>Node3&#45;&gt;Node15</title>
<path fill="none" stroke="#191970" d="M509.8408,-224.4509C572.866,-204.2829 719.5498,-157.3441 790.3573,-134.6857"/>
<polygon fill="#191970" stroke="#191970" points="791.7772,-137.9062 800.2347,-131.5249 789.6437,-131.2392 791.7772,-137.9062"/>
</g>
<!-- Node4&#45;&gt;Node2 -->
<g id="edge6" class="edge">
<title>Node4&#45;&gt;Node2</title>
<path fill="none" stroke="#191970" d="M91.6661,-168.4524C89.0475,-145.5123 85.9388,-86.9103 117,-56 145.8054,-27.3345 265.9027,-15.8115 324.5248,-11.8272"/>
<polygon fill="#191970" stroke="#191970" points="324.966,-15.3061 334.7195,-11.1685 324.5147,-8.3206 324.966,-15.3061"/>
</g>
<!-- Node6 -->
<g id="node7" class="node">
<title>Node6</title>
<polygon fill="none" stroke="#bfbfbf" points="1040,-56.5 1040,-75.5 1100,-75.5 1100,-56.5 1040,-56.5"/>
<text text-anchor="middle" x="1070" y="-63.5" font-family="Helvetica,sans-Serif" font-size="10.00" fill="#000000">iostream</text>
</g>
<!-- Node5&#45;&gt;Node6 -->
<g id="edge8" class="edge">
<title>Node5&#45;&gt;Node6</title>
<path fill="none" stroke="#191970" d="M502.2048,-173.2629C614.915,-165.5584 825.6093,-149.4129 899,-132 950.8524,-119.6973 1008.0423,-95.2465 1041.3964,-79.8064"/>
<polygon fill="#191970" stroke="#191970" points="1042.9788,-82.9302 1050.5489,-75.5178 1040.0087,-76.5915 1042.9788,-82.9302"/>
</g>
<!-- Node7 -->
<g id="node8" class="node">
<title>Node7</title>
<polygon fill="none" stroke="#bfbfbf" points="159.5,-56.5 159.5,-75.5 252.5,-75.5 252.5,-56.5 159.5,-56.5"/>
<text text-anchor="middle" x="206" y="-63.5" font-family="Helvetica,sans-Serif" font-size="10.00" fill="#000000">unordered_map</text>
</g>
<!-- Node5&#45;&gt;Node7 -->
<g id="edge9" class="edge">
<title>Node5&#45;&gt;Node7</title>
<path fill="none" stroke="#191970" d="M409.9871,-168.4509C370.6539,-148.6961 280.1804,-103.2565 234.0915,-80.1088"/>
<polygon fill="#191970" stroke="#191970" points="235.4719,-76.8854 224.9647,-75.5249 232.3301,-83.1408 235.4719,-76.8854"/>
</g>
<!-- Node5&#45;&gt;Node8 -->
<g id="edge10" class="edge">
<title>Node5&#45;&gt;Node8</title>
<path fill="none" stroke="#191970" d="M440.3719,-168.3872C456.5744,-154.9244 487.5042,-130.0777 516,-112 534.6693,-100.1562 556.7188,-88.6344 574.0762,-80.0844"/>
<polygon fill="#191970" stroke="#191970" points="575.7213,-83.1764 583.1852,-75.6571 572.6613,-76.8807 575.7213,-83.1764"/>
</g>
<!-- Node9 -->
<g id="node10" class="node">
<title>Node9</title>
<g id="a_node10"><a xlink:href="TileManager_8hxx.html" target="_top" xlink:title="TileManager.hxx">
<polygon fill="none" stroke="#000000" points="366.5,-112.5 366.5,-131.5 463.5,-131.5 463.5,-112.5 366.5,-112.5"/>
<text text-anchor="middle" x="415" y="-119.5" font-family="Helvetica,sans-Serif" font-size="10.00" fill="#000000">TileManager.hxx</text>
</a>
</g>
</g>
<!-- Node5&#45;&gt;Node9 -->
<g id="edge11" class="edge">
<title>Node5&#45;&gt;Node9</title>
<path fill="none" stroke="#191970" d="M426.5614,-168.2455C424.7145,-160.8579 422.1172,-150.4689 419.8522,-141.4087"/>
<polygon fill="#191970" stroke="#191970" points="423.2316,-140.4952 417.4107,-131.6427 416.4406,-142.193 423.2316,-140.4952"/>
</g>
<!-- Node9&#45;&gt;Node2 -->
<g id="edge14" class="edge">
<title>Node9&#45;&gt;Node2</title>
<path fill="none" stroke="#191970" d="M404.6407,-112.3388C395.8546,-103.6151 383.5145,-90.0286 376,-76 368.2585,-61.5477 363.3519,-43.5803 360.4681,-30.043"/>
<polygon fill="#191970" stroke="#191970" points="363.8393,-29.0413 358.5037,-19.888 356.9667,-30.3708 363.8393,-29.0413"/>
</g>
<!-- Node9&#45;&gt;Node7 -->
<g id="edge13" class="edge">
<title>Node9&#45;&gt;Node7</title>
<path fill="none" stroke="#191970" d="M379.0716,-112.3733C343.7163,-102.9001 289.612,-88.4032 251.3212,-78.1435"/>
<polygon fill="#191970" stroke="#191970" points="252.0247,-74.7086 241.4595,-75.5011 250.213,-81.4701 252.0247,-74.7086"/>
</g>
<!-- Node9&#45;&gt;Node8 -->
<g id="edge12" class="edge">
<title>Node9&#45;&gt;Node8</title>
<path fill="none" stroke="#191970" d="M448.1303,-112.4793C479.9401,-103.2941 529.3203,-88.92 572,-76 572.101,-75.9694 572.2021,-75.9388 572.3034,-75.9081"/>
<polygon fill="#191970" stroke="#191970" points="573.4492,-79.2176 581.982,-72.9373 571.3952,-72.5258 573.4492,-79.2176"/>
</g>
<!-- Node10 -->
<g id="node11" class="node">
<title>Node10</title>
<g id="a_node11"><a xlink:href="tileData_8hxx.html" target="_top" xlink:title="tileData.hxx">
<polygon fill="none" stroke="#000000" points="385.5,-56.5 385.5,-75.5 462.5,-75.5 462.5,-56.5 385.5,-56.5"/>
<text text-anchor="middle" x="424" y="-63.5" font-family="Helvetica,sans-Serif" font-size="10.00" fill="#000000">tileData.hxx</text>
</a>
</g>
</g>
<!-- Node9&#45;&gt;Node10 -->
<g id="edge15" class="edge">
<title>Node9&#45;&gt;Node10</title>
<path fill="none" stroke="#191970" d="M416.5677,-112.2455C417.7421,-104.9382 419.3884,-94.6944 420.8332,-85.7046"/>
<polygon fill="#191970" stroke="#191970" points="424.3191,-86.0714 422.4503,-75.6427 417.4078,-84.9606 424.3191,-86.0714"/>
</g>
<!-- Node11 -->
<g id="node12" class="node">
<title>Node11</title>
<polygon fill="none" stroke="#bfbfbf" points="271,-56.5 271,-75.5 329,-75.5 329,-56.5 271,-56.5"/>
<text text-anchor="middle" x="300" y="-63.5" font-family="Helvetica,sans-Serif" font-size="10.00" fill="#000000">json.hxx</text>
</g>
<!-- Node9&#45;&gt;Node11 -->
<g id="edge17" class="edge">
<title>Node9&#45;&gt;Node11</title>
<path fill="none" stroke="#191970" d="M395.2308,-112.3733C376.8531,-103.4241 349.2688,-89.9917 328.5107,-79.8835"/>
<polygon fill="#191970" stroke="#191970" points="330.0343,-76.7325 319.5112,-75.5011 326.9696,-83.026 330.0343,-76.7325"/>
</g>
<!-- Node12 -->
<g id="node13" class="node">
<title>Node12</title>
<g id="a_node13"><a xlink:href="Singleton_8hxx.html" target="_top" xlink:title="Singleton.hxx">
<polygon fill="none" stroke="#000000" points="480.5,-56.5 480.5,-75.5 563.5,-75.5 563.5,-56.5 480.5,-56.5"/>
<text text-anchor="middle" x="522" y="-63.5" font-family="Helvetica,sans-Serif" font-size="10.00" fill="#000000">Singleton.hxx</text>
</a>
</g>
</g>
<!-- Node9&#45;&gt;Node12 -->
<g id="edge18" class="edge">
<title>Node9&#45;&gt;Node12</title>
<path fill="none" stroke="#191970" d="M433.638,-112.2455C450.4386,-103.4527 475.3634,-90.4079 494.4618,-80.4125"/>
<polygon fill="#191970" stroke="#191970" points="496.3386,-83.3807 503.5756,-75.6427 493.0927,-77.1787 496.3386,-83.3807"/>
</g>
<!-- Node10&#45;&gt;Node2 -->
<g id="edge16" class="edge">
<title>Node10&#45;&gt;Node2</title>
<path fill="none" stroke="#191970" d="M412.3295,-56.2455C402.4339,-47.9746 388.0373,-35.9416 376.4099,-26.2232"/>
<polygon fill="#191970" stroke="#191970" points="378.4542,-23.3703 368.5368,-19.6427 373.965,-28.7413 378.4542,-23.3703"/>
</g>
<!-- Node13&#45;&gt;Node2 -->
<g id="edge20" class="edge">
<title>Node13&#45;&gt;Node2</title>
<path fill="none" stroke="#191970" d="M662.6408,-112.1465C660.0577,-97.4366 652.9894,-69.9729 635,-56 597.1216,-26.5788 454.1712,-15.2406 389.3319,-11.545"/>
<polygon fill="#191970" stroke="#191970" points="389.4363,-8.0456 379.2609,-10.997 389.0559,-15.0352 389.4363,-8.0456"/>
</g>
<!-- Node13&#45;&gt;Node6 -->
<g id="edge21" class="edge">
<title>Node13&#45;&gt;Node6</title>
<path fill="none" stroke="#191970" d="M732.0903,-114.5084C817.5821,-104.9303 960.5032,-88.3077 1029.7817,-75.9925"/>
<polygon fill="#191970" stroke="#191970" points="1030.6536,-79.3907 1039.8509,-74.1315 1029.3814,-72.5073 1030.6536,-79.3907"/>
</g>
<!-- Node13&#45;&gt;Node8 -->
<g id="edge23" class="edge">
<title>Node13&#45;&gt;Node8</title>
<path fill="none" stroke="#191970" d="M653.5488,-112.2455C644.7731,-104.0549 632.0446,-92.1749 621.686,-82.5069"/>
<polygon fill="#191970" stroke="#191970" points="624.0301,-79.9072 614.3314,-75.6427 619.2539,-85.0246 624.0301,-79.9072"/>
</g>
<!-- Node13&#45;&gt;Node12 -->
<g id="edge24" class="edge">
<title>Node13&#45;&gt;Node12</title>
<path fill="none" stroke="#191970" d="M639.5893,-112.3733C616.3858,-103.2226 581.2962,-89.3844 555.4858,-79.2057"/>
<polygon fill="#191970" stroke="#191970" points="556.6789,-75.9139 546.0921,-75.5011 554.1108,-82.4258 556.6789,-75.9139"/>
</g>
<!-- Node14 -->
<g id="node15" class="node">
<title>Node14</title>
<polygon fill="none" stroke="#bfbfbf" points="682.5,-56.5 682.5,-75.5 729.5,-75.5 729.5,-56.5 682.5,-56.5"/>
<text text-anchor="middle" x="706" y="-63.5" font-family="Helvetica,sans-Serif" font-size="10.00" fill="#000000">vector</text>
</g>
<!-- Node13&#45;&gt;Node14 -->
<g id="edge22" class="edge">
<title>Node13&#45;&gt;Node14</title>
<path fill="none" stroke="#191970" d="M671.3158,-112.2455C677.2179,-104.3761 685.6742,-93.101 692.7594,-83.6542"/>
<polygon fill="#191970" stroke="#191970" points="695.568,-85.7427 698.768,-75.6427 689.9679,-81.5427 695.568,-85.7427"/>
</g>
<!-- Node15&#45;&gt;Node14 -->
<g id="edge29" class="edge">
<title>Node15&#45;&gt;Node14</title>
<path fill="none" stroke="#191970" d="M808.6836,-112.3733C788.7784,-103.3838 758.8564,-89.8706 736.44,-79.7471"/>
<polygon fill="#191970" stroke="#191970" points="737.5925,-76.4272 727.0382,-75.5011 734.7113,-82.8068 737.5925,-76.4272"/>
</g>
<!-- Node16 -->
<g id="node17" class="node">
<title>Node16</title>
<polygon fill="none" stroke="#bfbfbf" points="830,-56.5 830,-75.5 888,-75.5 888,-56.5 830,-56.5"/>
<text text-anchor="middle" x="859" y="-63.5" font-family="Helvetica,sans-Serif" font-size="10.00" fill="#000000">memory</text>
</g>
<!-- Node15&#45;&gt;Node16 -->
<g id="edge26" class="edge">
<title>Node15&#45;&gt;Node16</title>
<path fill="none" stroke="#191970" d="M835.0514,-112.2455C839.0019,-104.617 844.6097,-93.7881 849.4058,-84.5267"/>
<polygon fill="#191970" stroke="#191970" points="852.5159,-86.1321 854.0065,-75.6427 846.2999,-82.9131 852.5159,-86.1321"/>
</g>
<!-- Node17 -->
<g id="node18" class="node">
<title>Node17</title>
<polygon fill="none" stroke="#bfbfbf" points="906.5,-56.5 906.5,-75.5 971.5,-75.5 971.5,-56.5 906.5,-56.5"/>
<text text-anchor="middle" x="939" y="-63.5" font-family="Helvetica,sans-Serif" font-size="10.00" fill="#000000">functional</text>
</g>
<!-- Node15&#45;&gt;Node17 -->
<g id="edge27" class="edge">
<title>Node15&#45;&gt;Node17</title>
<path fill="none" stroke="#191970" d="M848.9864,-112.2455C866.1792,-103.4125 891.7238,-90.2887 911.2132,-80.2758"/>
<polygon fill="#191970" stroke="#191970" points="912.9359,-83.3257 920.2312,-75.6427 909.737,-77.0993 912.9359,-83.3257"/>
</g>
<!-- Node18 -->
<g id="node19" class="node">
<title>Node18</title>
<polygon fill="none" stroke="#bfbfbf" points="990,-56.5 990,-75.5 1022,-75.5 1022,-56.5 990,-56.5"/>
<text text-anchor="middle" x="1006" y="-63.5" font-family="Helvetica,sans-Serif" font-size="10.00" fill="#000000">list</text>
</g>
<!-- Node15&#45;&gt;Node18 -->
<g id="edge28" class="edge">
<title>Node15&#45;&gt;Node18</title>
<path fill="none" stroke="#191970" d="M864.1511,-112.4928C892.888,-104.2952 935.2239,-91.7588 980.285,-76.056"/>
<polygon fill="#191970" stroke="#191970" points="981.6678,-79.2798 989.9381,-72.6575 979.3432,-72.677 981.6678,-79.2798"/>
</g>
<!-- Node19 -->
<g id="node20" class="node">
<title>Node19</title>
<polygon fill="none" stroke="#bfbfbf" points="748,-56.5 748,-75.5 812,-75.5 812,-56.5 748,-56.5"/>
<text text-anchor="middle" x="780" y="-63.5" font-family="Helvetica,sans-Serif" font-size="10.00" fill="#000000">algorithm</text>
</g>
<!-- Node15&#45;&gt;Node19 -->
<g id="edge30" class="edge">
<title>Node15&#45;&gt;Node19</title>
<path fill="none" stroke="#191970" d="M821.2907,-112.2455C814.1927,-104.2958 803.9916,-92.8706 795.505,-83.3656"/>
<polygon fill="#191970" stroke="#191970" points="797.8805,-80.771 788.6095,-75.6427 792.6589,-85.4331 797.8805,-80.771"/>
</g>
<!-- Node20&#45;&gt;Node6 -->
<g id="edge33" class="edge">
<title>Node20&#45;&gt;Node6</title>
<path fill="none" stroke="#191970" d="M1367.9809,-117.0304C1309.5233,-107.0193 1177.4755,-84.4056 1110.5366,-72.9421"/>
<polygon fill="#191970" stroke="#191970" points="1110.821,-69.4399 1100.3736,-71.2016 1109.6393,-76.3394 1110.821,-69.4399"/>
</g>
<!-- Node20&#45;&gt;Node8 -->
<g id="edge38" class="edge">
<title>Node20&#45;&gt;Node8</title>
<path fill="none" stroke="#191970" d="M1367.7545,-116.6325C1357.4357,-114.9116 1345.7321,-113.1545 1335,-112 1042.4745,-80.5321 966.7971,-104.8316 674,-76 661.5271,-74.7718 647.8696,-72.9328 635.9561,-71.1655"/>
<polygon fill="#191970" stroke="#191970" points="636.4226,-67.6962 626.0091,-69.648 635.3669,-74.6162 636.4226,-67.6962"/>
</g>
<!-- Node21 -->
<g id="node22" class="node">
<title>Node21</title>
<polygon fill="none" stroke="#bfbfbf" points="1372,-56.5 1372,-75.5 1422,-75.5 1422,-56.5 1372,-56.5"/>
<text text-anchor="middle" x="1397" y="-63.5" font-family="Helvetica,sans-Serif" font-size="10.00" fill="#000000">chrono</text>
</g>
<!-- Node20&#45;&gt;Node21 -->
<g id="edge34" class="edge">
<title>Node20&#45;&gt;Node21</title>
<path fill="none" stroke="#191970" d="M1397,-112.2455C1397,-104.9382 1397,-94.6944 1397,-85.7046"/>
<polygon fill="#191970" stroke="#191970" points="1400.5001,-85.6426 1397,-75.6427 1393.5001,-85.6427 1400.5001,-85.6426"/>
</g>
<!-- Node22 -->
<g id="node23" class="node">
<title>Node22</title>
<polygon fill="none" stroke="#bfbfbf" points="1440,-56.5 1440,-75.5 1484,-75.5 1484,-56.5 1440,-56.5"/>
<text text-anchor="middle" x="1462" y="-63.5" font-family="Helvetica,sans-Serif" font-size="10.00" fill="#000000">ctime</text>
</g>
<!-- Node20&#45;&gt;Node22 -->
<g id="edge35" class="edge">
<title>Node20&#45;&gt;Node22</title>
<path fill="none" stroke="#191970" d="M1408.3221,-112.2455C1417.9223,-103.9746 1431.8892,-91.9416 1443.1695,-82.2232"/>
<polygon fill="#191970" stroke="#191970" points="1445.516,-84.8214 1450.8076,-75.6427 1440.947,-79.5182 1445.516,-84.8214"/>
</g>
<!-- Node23 -->
<g id="node24" class="node">
<title>Node23</title>
<polygon fill="none" stroke="#bfbfbf" points="1502.5,-56.5 1502.5,-75.5 1557.5,-75.5 1557.5,-56.5 1502.5,-56.5"/>
<text text-anchor="middle" x="1530" y="-63.5" font-family="Helvetica,sans-Serif" font-size="10.00" fill="#000000">fstream</text>
</g>
<!-- Node20&#45;&gt;Node23 -->
<g id="edge36" class="edge">
<title>Node20&#45;&gt;Node23</title>
<path fill="none" stroke="#191970" d="M1419.8635,-112.3733C1441.405,-103.3032 1473.8838,-89.6279 1497.9956,-79.4755"/>
<polygon fill="#191970" stroke="#191970" points="1499.5767,-82.6075 1507.4348,-75.5011 1496.8603,-76.156 1499.5767,-82.6075"/>
</g>
<!-- Node24 -->
<g id="node25" class="node">
<title>Node24</title>
<polygon fill="none" stroke="#bfbfbf" points="1576,-56.5 1576,-75.5 1632,-75.5 1632,-56.5 1576,-56.5"/>
<text text-anchor="middle" x="1604" y="-63.5" font-family="Helvetica,sans-Serif" font-size="10.00" fill="#000000">sstream</text>
</g>
<!-- Node20&#45;&gt;Node24 -->
<g id="edge37" class="edge">
<title>Node20&#45;&gt;Node24</title>
<path fill="none" stroke="#191970" d="M1426.219,-114.0953C1462.8965,-104.1729 1525.8778,-87.1345 1566.1927,-76.2281"/>
<polygon fill="#191970" stroke="#191970" points="1567.1851,-79.5855 1575.9241,-73.5954 1565.357,-72.8284 1567.1851,-79.5855"/>
</g>
<!-- Node25&#45;&gt;Node2 -->
<g id="edge40" class="edge">
<title>Node25&#45;&gt;Node2</title>
<path fill="none" stroke="#191970" d="M1152.7528,-168.2153C1146.471,-141.7804 1127.9434,-69.9769 1109,-56 1079.6367,-34.3351 529.9015,-15.4828 389.4523,-11.0058"/>
<polygon fill="#191970" stroke="#191970" points="389.4308,-7.5034 379.3251,-10.6853 389.2093,-14.4999 389.4308,-7.5034"/>
</g>
<!-- Node25&#45;&gt;Node12 -->
<g id="edge41" class="edge">
<title>Node25&#45;&gt;Node12</title>
<path fill="none" stroke="#191970" d="M1116.3479,-176.4294C996.2482,-171.3336 634.7333,-154.2926 587,-132 564.5873,-121.5327 545.6422,-99.8178 534.0888,-84.1497"/>
<polygon fill="#191970" stroke="#191970" points="536.7927,-81.9106 528.1702,-75.754 531.0714,-85.9439 536.7927,-81.9106"/>
</g>
<!-- Node26 -->
<g id="node27" class="node">
<title>Node26</title>
<g id="a_node27"><a xlink:href="Meta_8hxx.html" target="_top" xlink:title="../../util/Meta.hxx">
<polygon fill="none" stroke="#000000" points="1228,-112.5 1228,-131.5 1326,-131.5 1326,-112.5 1228,-112.5"/>
<text text-anchor="middle" x="1277" y="-119.5" font-family="Helvetica,sans-Serif" font-size="10.00" fill="#000000">../../util/Meta.hxx</text>
</a>
</g>
</g>
<!-- Node25&#45;&gt;Node26 -->
<g id="edge42" class="edge">
<title>Node25&#45;&gt;Node26</title>
<path fill="none" stroke="#191970" d="M1175.9725,-168.3733C1195.5567,-159.3838 1224.9961,-145.8706 1247.051,-135.7471"/>
<polygon fill="#191970" stroke="#191970" points="1248.6729,-138.8538 1256.3011,-131.5011 1245.7527,-132.4919 1248.6729,-138.8538"/>
</g>
<!-- Node30 -->
<g id="node31" class="node">
<title>Node30</title>
<polygon fill="none" stroke="#bfbfbf" points="1156.5,-112.5 1156.5,-131.5 1209.5,-131.5 1209.5,-112.5 1156.5,-112.5"/>
<text text-anchor="middle" x="1183" y="-119.5" font-family="Helvetica,sans-Serif" font-size="10.00" fill="#000000">cstddef</text>
</g>
<!-- Node25&#45;&gt;Node30 -->
<g id="edge47" class="edge">
<title>Node25&#45;&gt;Node30</title>
<path fill="none" stroke="#191970" d="M1159.8772,-168.2455C1163.6513,-160.6973 1168.9921,-150.0158 1173.5901,-140.8197"/>
<polygon fill="#191970" stroke="#191970" points="1176.837,-142.1522 1178.1787,-131.6427 1170.576,-139.0217 1176.837,-142.1522"/>
</g>
<!-- Node26&#45;&gt;Node6 -->
<g id="edge43" class="edge">
<title>Node26&#45;&gt;Node6</title>
<path fill="none" stroke="#191970" d="M1241.4154,-112.3733C1204.8068,-102.4695 1147.902,-87.0749 1109.8163,-76.7716"/>
<polygon fill="#191970" stroke="#191970" points="1110.6519,-73.3719 1100.0849,-74.1389 1108.8239,-80.129 1110.6519,-73.3719"/>
</g>
<!-- Node27 -->
<g id="node28" class="node">
<title>Node27</title>
<polygon fill="none" stroke="#bfbfbf" points="1284.5,-56.5 1284.5,-75.5 1353.5,-75.5 1353.5,-56.5 1284.5,-56.5"/>
<text text-anchor="middle" x="1319" y="-63.5" font-family="Helvetica,sans-Serif" font-size="10.00" fill="#000000">type_traits</text>
</g>
<!-- Node26&#45;&gt;Node27 -->
<g id="edge44" class="edge">
<title>Node26&#45;&gt;Node27</title>
<path fill="none" stroke="#191970" d="M1284.3158,-112.2455C1290.2179,-104.3761 1298.6742,-93.101 1305.7594,-83.6542"/>
<polygon fill="#191970" stroke="#191970" points="1308.568,-85.7427 1311.768,-75.6427 1302.9679,-81.5427 1308.568,-85.7427"/>
</g>
<!-- Node28 -->
<g id="node29" class="node">
<title>Node28</title>
<polygon fill="none" stroke="#bfbfbf" points="1156.5,-56.5 1156.5,-75.5 1207.5,-75.5 1207.5,-56.5 1156.5,-56.5"/>
<text text-anchor="middle" x="1182" y="-63.5" font-family="Helvetica,sans-Serif" font-size="10.00" fill="#000000">variant</text>
</g>
<!-- Node26&#45;&gt;Node28 -->
<g id="edge45" class="edge">
<title>Node26&#45;&gt;Node28</title>
<path fill="none" stroke="#191970" d="M1260.4523,-112.2455C1245.7401,-103.5731 1224.0112,-90.7645 1207.1495,-80.825"/>
<polygon fill="#191970" stroke="#191970" points="1208.7502,-77.7057 1198.3581,-75.6427 1205.1954,-83.736 1208.7502,-77.7057"/>
</g>
<!-- Node29 -->
<g id="node30" class="node">
<title>Node29</title>
<polygon fill="none" stroke="#bfbfbf" points="1225.5,-56.5 1225.5,-75.5 1266.5,-75.5 1266.5,-56.5 1225.5,-56.5"/>
<text text-anchor="middle" x="1246" y="-63.5" font-family="Helvetica,sans-Serif" font-size="10.00" fill="#000000">tuple</text>
</g>
<!-- Node26&#45;&gt;Node29 -->
<g id="edge46" class="edge">
<title>Node26&#45;&gt;Node29</title>
<path fill="none" stroke="#191970" d="M1271.6002,-112.2455C1267.3773,-104.617 1261.3827,-93.7881 1256.2559,-84.5267"/>
<polygon fill="#191970" stroke="#191970" points="1259.2432,-82.6965 1251.3379,-75.6427 1253.119,-86.0867 1259.2432,-82.6965"/>
</g>
</g>
</svg>
