<?xml version="1.0" encoding="UTF-8" standalone="no"?>
<!DOCTYPE svg PUBLIC "-//W3C//DTD SVG 1.1//EN"
 "http://www.w3.org/Graphics/SVG/1.1/DTD/svg11.dtd">
<!-- Generated by graphviz version 2.40.1 (20161225.0304)
 -->
<!-- Title: src/engine/ui/widgets/TextField.hxx Pages: 1 -->
<svg width="975pt" height="375pt"
 viewBox="0.00 0.00 975.00 375.00" xmlns="http://www.w3.org/2000/svg" xmlns:xlink="http://www.w3.org/1999/xlink">
<g id="graph0" class="graph" transform="scale(1 1) rotate(0) translate(4 371)">
<title>src/engine/ui/widgets/TextField.hxx</title>
<!-- Node0 -->
<g id="node1" class="node">
<title>Node0</title>
<polygon fill="#bfbfbf" stroke="#000000" points="211,-336.5 211,-366.5 331,-366.5 331,-336.5 211,-336.5"/>
<text text-anchor="start" x="219" y="-354.5" font-family="Helvetica,sans-Serif" font-size="10.00" fill="#000000">src/engine/ui/widgets</text>
<text text-anchor="middle" x="271" y="-343.5" font-family="Helvetica,sans-Serif" font-size="10.00" fill="#000000">/TextField.hxx</text>
</g>
<!-- Node1 -->
<g id="node2" class="node">
<title>Node1</title>
<g id="a_node2"><a xlink:href="UIElement_8hxx.html" target="_top" xlink:title="../basics/UIElement.hxx">
<polygon fill="none" stroke="#000000" points="234.5,-224.5 234.5,-243.5 365.5,-243.5 365.5,-224.5 234.5,-224.5"/>
<text text-anchor="middle" x="300" y="-231.5" font-family="Helvetica,sans-Serif" font-size="10.00" fill="#000000">../basics/UIElement.hxx</text>
</a>
</g>
</g>
<!-- Node0&#45;&gt;Node1 -->
<g id="edge1" class="edge">
<title>Node0&#45;&gt;Node1</title>
<path fill="none" stroke="#191970" d="M274.7912,-336.1389C280.0398,-314.873 289.518,-276.4702 295.2377,-253.2956"/>
<polygon fill="#191970" stroke="#191970" points="298.6424,-254.1068 297.6406,-243.5595 291.8463,-252.4295 298.6424,-254.1068"/>
</g>
<!-- Node19 -->
<g id="node20" class="node">
<title>Node19</title>
<g id="a_node20"><a xlink:href="Text_8hxx.html" target="_top" xlink:title="Text.hxx">
<polygon fill="none" stroke="#000000" points="214,-280.5 214,-299.5 272,-299.5 272,-280.5 214,-280.5"/>
<text text-anchor="middle" x="243" y="-287.5" font-family="Helvetica,sans-Serif" font-size="10.00" fill="#000000">Text.hxx</text>
</a>
</g>
</g>
<!-- Node0&#45;&gt;Node19 -->
<g id="edge30" class="edge">
<title>Node0&#45;&gt;Node19</title>
<path fill="none" stroke="#191970" d="M264.0786,-336.2977C260.3539,-328.1166 255.722,-317.943 251.7496,-309.2179"/>
<polygon fill="#191970" stroke="#191970" points="254.8122,-307.4978 247.4832,-299.8469 248.4414,-310.3983 254.8122,-307.4978"/>
</g>
<!-- Node2 -->
<g id="node3" class="node">
<title>Node2</title>
<polygon fill="none" stroke="#bfbfbf" points="167,-.5 167,-19.5 211,-19.5 211,-.5 167,-.5"/>
<text text-anchor="middle" x="189" y="-7.5" font-family="Helvetica,sans-Serif" font-size="10.00" fill="#000000">string</text>
</g>
<!-- Node1&#45;&gt;Node2 -->
<g id="edge2" class="edge">
<title>Node1&#45;&gt;Node2</title>
<path fill="none" stroke="#191970" d="M234.2483,-230.1237C172.921,-224.9722 87.846,-213.3639 67,-188 45.1123,-161.3686 -13.7335,-184.0462 85,-56 102.4325,-33.392 133.3533,-21.6477 156.9627,-15.7076"/>
<polygon fill="#191970" stroke="#191970" points="157.9285,-19.0771 166.8963,-13.4354 156.3676,-12.2534 157.9285,-19.0771"/>
</g>
<!-- Node3 -->
<g id="node4" class="node">
<title>Node3</title>
<g id="a_node4"><a xlink:href="mapEdit_8hxx.html" target="_top" xlink:title="../../basics/mapEdit.hxx">
<polygon fill="none" stroke="#000000" points="76,-168.5 76,-187.5 206,-187.5 206,-168.5 76,-168.5"/>
<text text-anchor="middle" x="141" y="-175.5" font-family="Helvetica,sans-Serif" font-size="10.00" fill="#000000">../../basics/mapEdit.hxx</text>
</a>
</g>
</g>
<!-- Node1&#45;&gt;Node3 -->
<g id="edge3" class="edge">
<title>Node1&#45;&gt;Node3</title>
<path fill="none" stroke="#191970" d="M272.6669,-224.3733C246.4566,-215.1419 206.7016,-201.1402 177.7332,-190.9375"/>
<polygon fill="#191970" stroke="#191970" points="178.5712,-187.5219 167.9764,-187.5011 176.2458,-194.1244 178.5712,-187.5219"/>
</g>
<!-- Node4 -->
<g id="node5" class="node">
<title>Node4</title>
<g id="a_node5"><a xlink:href="ResourcesManager_8hxx.html" target="_top" xlink:title="../../ResourcesManager.hxx">
<polygon fill="none" stroke="#000000" points="227,-168.5 227,-187.5 373,-187.5 373,-168.5 227,-168.5"/>
<text text-anchor="middle" x="300" y="-175.5" font-family="Helvetica,sans-Serif" font-size="10.00" fill="#000000">../../ResourcesManager.hxx</text>
</a>
</g>
</g>
<!-- Node1&#45;&gt;Node4 -->
<g id="edge5" class="edge">
<title>Node1&#45;&gt;Node4</title>
<path fill="none" stroke="#191970" d="M300,-224.2455C300,-216.9382 300,-206.6944 300,-197.7046"/>
<polygon fill="#191970" stroke="#191970" points="303.5001,-197.6426 300,-187.6427 296.5001,-197.6427 303.5001,-197.6426"/>
</g>
<!-- Node7 -->
<g id="node8" class="node">
<title>Node7</title>
<polygon fill="none" stroke="#bfbfbf" points="426,-56.5 426,-75.5 470,-75.5 470,-56.5 426,-56.5"/>
<text text-anchor="middle" x="448" y="-63.5" font-family="Helvetica,sans-Serif" font-size="10.00" fill="#000000">SDL.h</text>
</g>
<!-- Node1&#45;&gt;Node7 -->
<g id="edge29" class="edge">
<title>Node1&#45;&gt;Node7</title>
<path fill="none" stroke="#191970" d="M324.9988,-224.4196C342.6154,-216.6879 365.8508,-204.3988 382,-188 397.6439,-172.1143 425.1869,-115.3812 439.2308,-85.2026"/>
<polygon fill="#191970" stroke="#191970" points="442.5825,-86.2925 443.5938,-75.746 436.2264,-83.36 442.5825,-86.2925"/>
</g>
<!-- Node12 -->
<g id="node13" class="node">
<title>Node12</title>
<g id="a_node13"><a xlink:href="WindowManager_8hxx.html" target="_top" xlink:title="../../WindowManager.hxx">
<polygon fill="none" stroke="#000000" points="475,-168.5 475,-187.5 611,-187.5 611,-168.5 475,-168.5"/>
<text text-anchor="middle" x="543" y="-175.5" font-family="Helvetica,sans-Serif" font-size="10.00" fill="#000000">../../WindowManager.hxx</text>
</a>
</g>
</g>
<!-- Node1&#45;&gt;Node12 -->
<g id="edge17" class="edge">
<title>Node1&#45;&gt;Node12</title>
<path fill="none" stroke="#191970" d="M341.4971,-224.4369C383.0847,-214.8529 447.1834,-200.0812 491.8831,-189.78"/>
<polygon fill="#191970" stroke="#191970" points="492.7155,-193.18 501.6741,-187.5237 491.1435,-186.3588 492.7155,-193.18"/>
</g>
<!-- Node14 -->
<g id="node15" class="node">
<title>Node14</title>
<g id="a_node15"><a xlink:href="signal_8hxx.html" target="_top" xlink:title="../../basics/signal.hxx">
<polygon fill="none" stroke="#000000" points="699.5,-168.5 699.5,-187.5 818.5,-187.5 818.5,-168.5 699.5,-168.5"/>
<text text-anchor="middle" x="759" y="-175.5" font-family="Helvetica,sans-Serif" font-size="10.00" fill="#000000">../../basics/signal.hxx</text>
</a>
</g>
</g>
<!-- Node1&#45;&gt;Node14 -->
<g id="edge23" class="edge">
<title>Node1&#45;&gt;Node14</title>
<path fill="none" stroke="#191970" d="M365.7635,-225.9766C451.6037,-215.5037 601.2121,-197.2508 689.063,-186.5326"/>
<polygon fill="#191970" stroke="#191970" points="689.6973,-189.9813 699.1998,-185.2959 688.8495,-183.0328 689.6973,-189.9813"/>
</g>
<!-- Node3&#45;&gt;Node2 -->
<g id="edge4" class="edge">
<title>Node3&#45;&gt;Node2</title>
<path fill="none" stroke="#191970" d="M131.6276,-168.2325C112.1774,-146.7385 71.1544,-94.2168 95,-56 108.4507,-34.4429 135.2585,-22.7107 156.8153,-16.5023"/>
<polygon fill="#191970" stroke="#191970" points="157.7966,-19.8635 166.5883,-13.9511 156.0285,-13.0905 157.7966,-19.8635"/>
</g>
<!-- Node5 -->
<g id="node6" class="node">
<title>Node5</title>
<polygon fill="none" stroke="#bfbfbf" points="436,-112.5 436,-131.5 496,-131.5 496,-112.5 436,-112.5"/>
<text text-anchor="middle" x="466" y="-119.5" font-family="Helvetica,sans-Serif" font-size="10.00" fill="#000000">iostream</text>
</g>
<!-- Node4&#45;&gt;Node5 -->
<g id="edge6" class="edge">
<title>Node4&#45;&gt;Node5</title>
<path fill="none" stroke="#191970" d="M328.5364,-168.3733C356.0202,-159.1016 397.7686,-145.0178 428.0452,-134.804"/>
<polygon fill="#191970" stroke="#191970" points="429.4794,-138.0141 437.836,-131.5011 427.2418,-131.3813 429.4794,-138.0141"/>
</g>
<!-- Node6 -->
<g id="node7" class="node">
<title>Node6</title>
<polygon fill="none" stroke="#bfbfbf" points="104.5,-56.5 104.5,-75.5 197.5,-75.5 197.5,-56.5 104.5,-56.5"/>
<text text-anchor="middle" x="151" y="-63.5" font-family="Helvetica,sans-Serif" font-size="10.00" fill="#000000">unordered_map</text>
</g>
<!-- Node4&#45;&gt;Node6 -->
<g id="edge7" class="edge">
<title>Node4&#45;&gt;Node6</title>
<path fill="none" stroke="#191970" d="M285.9071,-168.3295C272.6421,-159.156 252.2866,-144.8954 235,-132 212.7199,-115.3797 187.7365,-95.5985 170.8516,-82.0541"/>
<polygon fill="#191970" stroke="#191970" points="172.8025,-79.1316 162.8173,-75.5896 168.4143,-84.5854 172.8025,-79.1316"/>
</g>
<!-- Node4&#45;&gt;Node7 -->
<g id="edge8" class="edge">
<title>Node4&#45;&gt;Node7</title>
<path fill="none" stroke="#191970" d="M312.6184,-168.4509C338.1768,-149.1094 396.2707,-105.1465 427.3984,-81.5904"/>
<polygon fill="#191970" stroke="#191970" points="429.5515,-84.3503 435.4135,-75.5249 425.3274,-78.7684 429.5515,-84.3503"/>
</g>
<!-- Node8 -->
<g id="node9" class="node">
<title>Node8</title>
<g id="a_node9"><a xlink:href="TileManager_8hxx.html" target="_top" xlink:title="TileManager.hxx">
<polygon fill="none" stroke="#000000" points="244.5,-112.5 244.5,-131.5 341.5,-131.5 341.5,-112.5 244.5,-112.5"/>
<text text-anchor="middle" x="293" y="-119.5" font-family="Helvetica,sans-Serif" font-size="10.00" fill="#000000">TileManager.hxx</text>
</a>
</g>
</g>
<!-- Node4&#45;&gt;Node8 -->
<g id="edge9" class="edge">
<title>Node4&#45;&gt;Node8</title>
<path fill="none" stroke="#191970" d="M298.7807,-168.2455C297.8673,-160.9382 296.5868,-150.6944 295.4631,-141.7046"/>
<polygon fill="#191970" stroke="#191970" points="298.9187,-141.1313 294.2053,-131.6427 291.9728,-141.9996 298.9187,-141.1313"/>
</g>
<!-- Node8&#45;&gt;Node2 -->
<g id="edge12" class="edge">
<title>Node8&#45;&gt;Node2</title>
<path fill="none" stroke="#191970" d="M294.1422,-112.45C295.2712,-98.6153 295.3409,-72.8184 283,-56 268.1285,-35.7327 241.8743,-23.9362 220.8854,-17.3743"/>
<polygon fill="#191970" stroke="#191970" points="221.6552,-13.954 211.0776,-14.5593 219.724,-20.6824 221.6552,-13.954"/>
</g>
<!-- Node8&#45;&gt;Node6 -->
<g id="edge11" class="edge">
<title>Node8&#45;&gt;Node6</title>
<path fill="none" stroke="#191970" d="M268.5893,-112.3733C245.3858,-103.2226 210.2962,-89.3844 184.4858,-79.2057"/>
<polygon fill="#191970" stroke="#191970" points="185.6789,-75.9139 175.0921,-75.5011 183.1108,-82.4258 185.6789,-75.9139"/>
</g>
<!-- Node8&#45;&gt;Node7 -->
<g id="edge10" class="edge">
<title>Node8&#45;&gt;Node7</title>
<path fill="none" stroke="#191970" d="M319.6454,-112.3733C346.4353,-102.6944 387.7403,-87.7712 416.2217,-77.4812"/>
<polygon fill="#191970" stroke="#191970" points="417.5005,-80.7407 425.7162,-74.0509 415.1219,-74.1572 417.5005,-80.7407"/>
</g>
<!-- Node9 -->
<g id="node10" class="node">
<title>Node9</title>
<g id="a_node10"><a xlink:href="tileData_8hxx.html" target="_top" xlink:title="tileData.hxx">
<polygon fill="none" stroke="#000000" points="330.5,-56.5 330.5,-75.5 407.5,-75.5 407.5,-56.5 330.5,-56.5"/>
<text text-anchor="middle" x="369" y="-63.5" font-family="Helvetica,sans-Serif" font-size="10.00" fill="#000000">tileData.hxx</text>
</a>
</g>
</g>
<!-- Node8&#45;&gt;Node9 -->
<g id="edge13" class="edge">
<title>Node8&#45;&gt;Node9</title>
<path fill="none" stroke="#191970" d="M306.2382,-112.2455C317.681,-103.814 334.4296,-91.4729 347.7475,-81.6598"/>
<polygon fill="#191970" stroke="#191970" points="349.9391,-84.3924 355.9135,-75.6427 345.7867,-78.757 349.9391,-84.3924"/>
</g>
<!-- Node10 -->
<g id="node11" class="node">
<title>Node10</title>
<polygon fill="none" stroke="#bfbfbf" points="216,-56.5 216,-75.5 274,-75.5 274,-56.5 216,-56.5"/>
<text text-anchor="middle" x="245" y="-63.5" font-family="Helvetica,sans-Serif" font-size="10.00" fill="#000000">json.hxx</text>
</g>
<!-- Node8&#45;&gt;Node10 -->
<g id="edge15" class="edge">
<title>Node8&#45;&gt;Node10</title>
<path fill="none" stroke="#191970" d="M284.639,-112.2455C277.825,-104.2958 268.0319,-92.8706 259.8848,-83.3656"/>
<polygon fill="#191970" stroke="#191970" points="262.4305,-80.9575 253.2651,-75.6427 257.1157,-85.513 262.4305,-80.9575"/>
</g>
<!-- Node11 -->
<g id="node12" class="node">
<title>Node11</title>
<g id="a_node12"><a xlink:href="Singleton_8hxx.html" target="_top" xlink:title="Singleton.hxx">
<polygon fill="none" stroke="#000000" points="488.5,-56.5 488.5,-75.5 571.5,-75.5 571.5,-56.5 488.5,-56.5"/>
<text text-anchor="middle" x="530" y="-63.5" font-family="Helvetica,sans-Serif" font-size="10.00" fill="#000000">Singleton.hxx</text>
</a>
</g>
</g>
<!-- Node8&#45;&gt;Node11 -->
<g id="edge16" class="edge">
<title>Node8&#45;&gt;Node11</title>
<path fill="none" stroke="#191970" d="M333.4725,-112.4369C373.948,-102.8731 436.2867,-88.1432 479.8703,-77.845"/>
<polygon fill="#191970" stroke="#191970" points="480.7673,-81.2295 489.6945,-75.5237 479.1576,-74.4171 480.7673,-81.2295"/>
</g>
<!-- Node9&#45;&gt;Node2 -->
<g id="edge14" class="edge">
<title>Node9&#45;&gt;Node2</title>
<path fill="none" stroke="#191970" d="M338.0569,-56.3733C305.2633,-46.1708 253.7403,-30.1414 220.6722,-19.8536"/>
<polygon fill="#191970" stroke="#191970" points="221.6317,-16.4867 211.0434,-16.8579 219.5522,-23.1707 221.6317,-16.4867"/>
</g>
<!-- Node12&#45;&gt;Node2 -->
<g id="edge18" class="edge">
<title>Node12&#45;&gt;Node2</title>
<path fill="none" stroke="#191970" d="M551.2102,-168.4647C569.4969,-146.0544 609.7098,-89.41 580,-56 556.2678,-29.3121 310.6678,-15.5403 221.2939,-11.3833"/>
<polygon fill="#191970" stroke="#191970" points="221.3433,-7.882 211.1945,-10.9238 221.025,-14.8748 221.3433,-7.882"/>
</g>
<!-- Node12&#45;&gt;Node5 -->
<g id="edge19" class="edge">
<title>Node12&#45;&gt;Node5</title>
<path fill="none" stroke="#191970" d="M529.5876,-168.2455C517.9943,-159.814 501.0252,-147.4729 487.5322,-137.6598"/>
<polygon fill="#191970" stroke="#191970" points="489.4047,-134.6938 479.2587,-131.6427 485.2874,-140.355 489.4047,-134.6938"/>
</g>
<!-- Node12&#45;&gt;Node7 -->
<g id="edge21" class="edge">
<title>Node12&#45;&gt;Node7</title>
<path fill="none" stroke="#191970" d="M538.8246,-168.3356C532.6882,-154.8115 520.2889,-129.8924 505,-112 495.2224,-100.5575 482.3017,-89.8627 471.2343,-81.6702"/>
<polygon fill="#191970" stroke="#191970" points="473.0201,-78.6443 462.8513,-75.67 468.9458,-84.3364 473.0201,-78.6443"/>
</g>
<!-- Node12&#45;&gt;Node11 -->
<g id="edge22" class="edge">
<title>Node12&#45;&gt;Node11</title>
<path fill="none" stroke="#191970" d="M542.5502,-168.1304C541.8929,-155.2012 540.471,-131.8414 538,-112 536.9256,-103.373 535.3473,-93.9008 533.8759,-85.8057"/>
<polygon fill="#191970" stroke="#191970" points="537.287,-85.0067 531.9931,-75.8293 530.4084,-86.305 537.287,-85.0067"/>
</g>
<!-- Node13 -->
<g id="node14" class="node">
<title>Node13</title>
<polygon fill="none" stroke="#bfbfbf" points="628.5,-112.5 628.5,-131.5 675.5,-131.5 675.5,-112.5 628.5,-112.5"/>
<text text-anchor="middle" x="652" y="-119.5" font-family="Helvetica,sans-Serif" font-size="10.00" fill="#000000">vector</text>
</g>
<!-- Node12&#45;&gt;Node13 -->
<g id="edge20" class="edge">
<title>Node12&#45;&gt;Node13</title>
<path fill="none" stroke="#191970" d="M561.9864,-168.2455C579.1792,-159.4125 604.7238,-146.2887 624.2132,-136.2758"/>
<polygon fill="#191970" stroke="#191970" points="625.9359,-139.3257 633.2312,-131.6427 622.737,-133.0993 625.9359,-139.3257"/>
</g>
<!-- Node14&#45;&gt;Node13 -->
<g id="edge27" class="edge">
<title>Node14&#45;&gt;Node13</title>
<path fill="none" stroke="#191970" d="M740.362,-168.2455C723.5614,-159.4527 698.6366,-146.4079 679.5382,-136.4125"/>
<polygon fill="#191970" stroke="#191970" points="680.9073,-133.1787 670.4244,-131.6427 677.6614,-139.3807 680.9073,-133.1787"/>
</g>
<!-- Node15 -->
<g id="node16" class="node">
<title>Node15</title>
<polygon fill="none" stroke="#bfbfbf" points="909,-112.5 909,-131.5 967,-131.5 967,-112.5 909,-112.5"/>
<text text-anchor="middle" x="938" y="-119.5" font-family="Helvetica,sans-Serif" font-size="10.00" fill="#000000">memory</text>
</g>
<!-- Node14&#45;&gt;Node15 -->
<g id="edge24" class="edge">
<title>Node14&#45;&gt;Node15</title>
<path fill="none" stroke="#191970" d="M789.7712,-168.3733C820.0274,-158.9076 866.3157,-144.4264 899.1055,-134.1681"/>
<polygon fill="#191970" stroke="#191970" points="900.3168,-137.4565 908.8156,-131.1303 898.2267,-130.7758 900.3168,-137.4565"/>
</g>
<!-- Node16 -->
<g id="node17" class="node">
<title>Node16</title>
<polygon fill="none" stroke="#bfbfbf" points="693.5,-112.5 693.5,-131.5 758.5,-131.5 758.5,-112.5 693.5,-112.5"/>
<text text-anchor="middle" x="726" y="-119.5" font-family="Helvetica,sans-Serif" font-size="10.00" fill="#000000">functional</text>
</g>
<!-- Node14&#45;&gt;Node16 -->
<g id="edge25" class="edge">
<title>Node14&#45;&gt;Node16</title>
<path fill="none" stroke="#191970" d="M753.2518,-168.2455C748.7565,-160.617 742.3752,-149.7881 736.9175,-140.5267"/>
<polygon fill="#191970" stroke="#191970" points="739.7747,-138.4811 731.6823,-131.6427 733.7439,-142.035 739.7747,-138.4811"/>
</g>
<!-- Node17 -->
<g id="node18" class="node">
<title>Node17</title>
<polygon fill="none" stroke="#bfbfbf" points="777,-112.5 777,-131.5 809,-131.5 809,-112.5 777,-112.5"/>
<text text-anchor="middle" x="793" y="-119.5" font-family="Helvetica,sans-Serif" font-size="10.00" fill="#000000">list</text>
</g>
<!-- Node14&#45;&gt;Node17 -->
<g id="edge26" class="edge">
<title>Node14&#45;&gt;Node17</title>
<path fill="none" stroke="#191970" d="M764.9223,-168.2455C769.6027,-160.5367 776.2673,-149.5598 781.9289,-140.2348"/>
<polygon fill="#191970" stroke="#191970" points="784.9475,-142.007 787.1455,-131.6427 778.9639,-138.3741 784.9475,-142.007"/>
</g>
<!-- Node18 -->
<g id="node19" class="node">
<title>Node18</title>
<polygon fill="none" stroke="#bfbfbf" points="827,-112.5 827,-131.5 891,-131.5 891,-112.5 827,-112.5"/>
<text text-anchor="middle" x="859" y="-119.5" font-family="Helvetica,sans-Serif" font-size="10.00" fill="#000000">algorithm</text>
</g>
<!-- Node14&#45;&gt;Node18 -->
<g id="edge28" class="edge">
<title>Node14&#45;&gt;Node18</title>
<path fill="none" stroke="#191970" d="M776.4187,-168.2455C792.0485,-159.4928 815.2019,-146.527 833.0185,-136.5496"/>
<polygon fill="#191970" stroke="#191970" points="834.766,-139.5825 841.7809,-131.6427 831.3457,-133.475 834.766,-139.5825"/>
</g>
<!-- Node19&#45;&gt;Node1 -->
<g id="edge32" class="edge">
<title>Node19&#45;&gt;Node1</title>
<path fill="none" stroke="#191970" d="M252.9286,-280.2455C261.1838,-272.1352 273.1209,-260.4075 282.9082,-250.7919"/>
<polygon fill="#191970" stroke="#191970" points="285.5046,-253.1476 290.1851,-243.6427 280.5989,-248.1542 285.5046,-253.1476"/>
</g>
<!-- Node19&#45;&gt;Node2 -->
<g id="edge31" class="edge">
<title>Node19&#45;&gt;Node2</title>
<path fill="none" stroke="#191970" d="M213.6885,-283.0565C149.0579,-266.8936 0,-224.569 0,-178 0,-178 0,-178 0,-122 0,-49.949 102.914,-23.247 156.8584,-14.1996"/>
<polygon fill="#191970" stroke="#191970" points="157.6123,-17.6243 166.9494,-12.6173 156.5279,-10.7088 157.6123,-17.6243"/>
</g>
</g>
</svg>
