<?xml version="1.0" encoding="UTF-8" standalone="no"?>
<!DOCTYPE svg PUBLIC "-//W3C//DTD SVG 1.1//EN"
 "http://www.w3.org/Graphics/SVG/1.1/DTD/svg11.dtd">
<!-- Generated by graphviz version 2.40.1 (20161225.0304)
 -->
<!-- Title: src/engine/TileManager.hxx Pages: 1 -->
<svg width="476pt" height="140pt"
 viewBox="0.00 0.00 475.50 140.00" xmlns="http://www.w3.org/2000/svg" xmlns:xlink="http://www.w3.org/1999/xlink">
<g id="graph0" class="graph" transform="scale(1 1) rotate(0) translate(4 136)">
<title>src/engine/TileManager.hxx</title>
<!-- Node0 -->
<g id="node1" class="node">
<title>Node0</title>
<polygon fill="#bfbfbf" stroke="#000000" points="142,-112.5 142,-131.5 292,-131.5 292,-112.5 142,-112.5"/>
<text text-anchor="middle" x="217" y="-119.5" font-family="Helvetica,sans-Serif" font-size="10.00" fill="#000000">src/engine/TileManager.hxx</text>
</g>
<!-- Node1 -->
<g id="node2" class="node">
<title>Node1</title>
<polygon fill="none" stroke="#bfbfbf" points="0,-56.5 0,-75.5 44,-75.5 44,-56.5 0,-56.5"/>
<text text-anchor="middle" x="22" y="-63.5" font-family="Helvetica,sans-Serif" font-size="10.00" fill="#000000">SDL.h</text>
</g>
<!-- Node0&#45;&gt;Node1 -->
<g id="edge1" class="edge">
<title>Node0&#45;&gt;Node1</title>
<path fill="none" stroke="#191970" d="M182.2601,-112.4976C149.2047,-103.3847 98.1091,-89.1133 54,-76 53.8989,-75.9699 53.7976,-75.9398 53.6961,-75.9096"/>
<polygon fill="#191970" stroke="#191970" points="54.595,-72.5248 44.0093,-72.9662 52.5598,-79.2224 54.595,-72.5248"/>
</g>
<!-- Node2 -->
<g id="node3" class="node">
<title>Node2</title>
<polygon fill="none" stroke="#bfbfbf" points="62.5,-56.5 62.5,-75.5 155.5,-75.5 155.5,-56.5 62.5,-56.5"/>
<text text-anchor="middle" x="109" y="-63.5" font-family="Helvetica,sans-Serif" font-size="10.00" fill="#000000">unordered_map</text>
</g>
<!-- Node0&#45;&gt;Node2 -->
<g id="edge2" class="edge">
<title>Node0&#45;&gt;Node2</title>
<path fill="none" stroke="#191970" d="M198.1878,-112.2455C181.1527,-103.4125 155.8425,-90.2887 136.5319,-80.2758"/>
<polygon fill="#191970" stroke="#191970" points="138.0853,-77.1388 127.5966,-75.6427 134.863,-83.353 138.0853,-77.1388"/>
</g>
<!-- Node3 -->
<g id="node4" class="node">
<title>Node3</title>
<polygon fill="none" stroke="#bfbfbf" points="195,-.5 195,-19.5 239,-19.5 239,-.5 195,-.5"/>
<text text-anchor="middle" x="217" y="-7.5" font-family="Helvetica,sans-Serif" font-size="10.00" fill="#000000">string</text>
</g>
<!-- Node0&#45;&gt;Node3 -->
<g id="edge3" class="edge">
<title>Node0&#45;&gt;Node3</title>
<path fill="none" stroke="#191970" d="M212.9944,-112.2187C208.2186,-99.385 201.2104,-76.1282 204,-56 205.2357,-47.0835 207.7581,-37.4647 210.255,-29.3395"/>
<polygon fill="#191970" stroke="#191970" points="213.6247,-30.296 213.4124,-19.7033 206.9726,-28.1164 213.6247,-30.296"/>
</g>
<!-- Node4 -->
<g id="node5" class="node">
<title>Node4</title>
<g id="a_node5"><a xlink:href="tileData_8hxx.html" target="_top" xlink:title="tileData.hxx">
<polygon fill="none" stroke="#000000" points="212.5,-56.5 212.5,-75.5 289.5,-75.5 289.5,-56.5 212.5,-56.5"/>
<text text-anchor="middle" x="251" y="-63.5" font-family="Helvetica,sans-Serif" font-size="10.00" fill="#000000">tileData.hxx</text>
</a>
</g>
</g>
<!-- Node0&#45;&gt;Node4 -->
<g id="edge4" class="edge">
<title>Node0&#45;&gt;Node4</title>
<path fill="none" stroke="#191970" d="M222.9223,-112.2455C227.6027,-104.5367 234.2673,-93.5598 239.9289,-84.2348"/>
<polygon fill="#191970" stroke="#191970" points="242.9475,-86.007 245.1455,-75.6427 236.9639,-82.3741 242.9475,-86.007"/>
</g>
<!-- Node5 -->
<g id="node6" class="node">
<title>Node5</title>
<polygon fill="none" stroke="#bfbfbf" points="308,-56.5 308,-75.5 366,-75.5 366,-56.5 308,-56.5"/>
<text text-anchor="middle" x="337" y="-63.5" font-family="Helvetica,sans-Serif" font-size="10.00" fill="#000000">json.hxx</text>
</g>
<!-- Node0&#45;&gt;Node5 -->
<g id="edge6" class="edge">
<title>Node0&#45;&gt;Node5</title>
<path fill="none" stroke="#191970" d="M237.6287,-112.3733C256.8919,-103.3838 285.8486,-89.8706 307.5419,-79.7471"/>
<polygon fill="#191970" stroke="#191970" points="309.0587,-82.9017 316.6405,-75.5011 306.0985,-76.5584 309.0587,-82.9017"/>
</g>
<!-- Node6 -->
<g id="node7" class="node">
<title>Node6</title>
<g id="a_node7"><a xlink:href="Singleton_8hxx.html" target="_top" xlink:title="Singleton.hxx">
<polygon fill="none" stroke="#000000" points="384.5,-56.5 384.5,-75.5 467.5,-75.5 467.5,-56.5 384.5,-56.5"/>
<text text-anchor="middle" x="426" y="-63.5" font-family="Helvetica,sans-Serif" font-size="10.00" fill="#000000">Singleton.hxx</text>
</a>
</g>
</g>
<!-- Node0&#45;&gt;Node6 -->
<g id="edge7" class="edge">
<title>Node0&#45;&gt;Node6</title>
<path fill="none" stroke="#191970" d="M252.9284,-112.3733C288.2837,-102.9001 342.388,-88.4032 380.6788,-78.1435"/>
<polygon fill="#191970" stroke="#191970" points="381.787,-81.4701 390.5405,-75.5011 379.9753,-74.7086 381.787,-81.4701"/>
</g>
<!-- Node4&#45;&gt;Node3 -->
<g id="edge5" class="edge">
<title>Node4&#45;&gt;Node3</title>
<path fill="none" stroke="#191970" d="M245.0777,-56.2455C240.3973,-48.5367 233.7327,-37.5598 228.0711,-28.2348"/>
<polygon fill="#191970" stroke="#191970" points="231.0361,-26.3741 222.8545,-19.6427 225.0525,-30.007 231.0361,-26.3741"/>
</g>
</g>
</svg>
