<?xml version="1.0" encoding="UTF-8" standalone="no"?>
<!DOCTYPE svg PUBLIC "-//W3C//DTD SVG 1.1//EN"
 "http://www.w3.org/Graphics/SVG/1.1/DTD/svg11.dtd">
<!-- Generated by graphviz version 2.40.1 (20161225.0304)
 -->
<!-- Title: src/engine/TileManager.cxx Pages: 1 -->
<!--zoomable 252 -->
<svg id="main" version="1.1" xmlns="http://www.w3.org/2000/svg" xmlns:xlink="http://www.w3.org/1999/xlink" xml:space="preserve" onload="init(evt)">
<style type="text/css"><![CDATA[
.edge:hover path { stroke: red; }
.edge:hover polygon { stroke: red; fill: red; }
]]></style>
<script type="text/javascript"><![CDATA[
var edges = document.getElementsByTagName('g');
if (edges && edges.length) {
  for (var i=0;i<edges.length;i++) {
    if (edges[i].id.substr(0,4)=='edge') {
      edges[i].setAttribute('class','edge');
    }
  }
}
]]></script>
        <defs>
                <circle id="rim" cx="0" cy="0" r="7"/>
                <circle id="rim2" cx="0" cy="0" r="3.5"/>
                <g id="zoomPlus">
                        <use xlink:href="#rim" fill="#404040">
                                <set attributeName="fill" to="#808080" begin="zoomplus.mouseover" end="zoomplus.mouseout"/>
                        </use>
                        <path d="M-4,0h8M0,-4v8" fill="none" stroke="white" stroke-width="1.5" pointer-events="none"/>
                </g>
                <g id="zoomMin">
                        <use xlink:href="#rim" fill="#404040">
                                <set attributeName="fill" to="#808080" begin="zoomminus.mouseover" end="zoomminus.mouseout"/>
                        </use>
                        <path d="M-4,0h8" fill="none" stroke="white" stroke-width="1.5" pointer-events="none"/>
                </g>
                <g id="dirArrow">
                        <path fill="none" stroke="white" stroke-width="1.5" d="M0,-3.0v7 M-2.5,-0.5L0,-3.0L2.5,-0.5"/>
                </g>
               <g id="resetDef">
                       <use xlink:href="#rim2" fill="#404040">
                               <set attributeName="fill" to="#808080" begin="reset.mouseover" end="reset.mouseout"/>
                       </use>
               </g>
        </defs>

<script type="text/javascript">
var viewWidth = 1084;
var viewHeight = 252;
var sectionId = 'dynsection-0';
</script>
<script xlink:href="svgpan.js"/>
<svg id="graph" class="graph">
<g id="viewport">
<title>src/engine/TileManager.cxx</title>
<!-- Node0 -->
<g id="node1" class="node">
<title>Node0</title>
<polygon fill="#bfbfbf" stroke="#000000" points="459.5,-224.5 459.5,-243.5 608.5,-243.5 608.5,-224.5 459.5,-224.5"/>
<text text-anchor="middle" x="534" y="-231.5" font-family="Helvetica,sans-Serif" font-size="10.00" fill="#000000">src/engine/TileManager.cxx</text>
</g>
<!-- Node1 -->
<g id="node2" class="node">
<title>Node1</title>
<g id="a_node2"><a xlink:href="TileManager_8hxx.html" target="_top" xlink:title="TileManager.hxx">
<polygon fill="none" stroke="#000000" points="210.5,-112.5 210.5,-131.5 307.5,-131.5 307.5,-112.5 210.5,-112.5"/>
<text text-anchor="middle" x="259" y="-119.5" font-family="Helvetica,sans-Serif" font-size="10.00" fill="#000000">TileManager.hxx</text>
</a>
</g>
</g>
<!-- Node0&#45;&gt;Node1 -->
<g id="edge1" class="edge">
<title>Node0&#45;&gt;Node1</title>
<path fill="none" stroke="#191970" d="M471.4451,-224.4676C418.7666,-215.6967 348.1046,-201.9673 323,-188 301.7801,-176.194 283.1779,-155.11 271.5767,-139.9455"/>
<polygon fill="#191970" stroke="#191970" points="274.3371,-137.7915 265.5882,-131.8158 268.7011,-141.9431 274.3371,-137.7915"/>
</g>
<!-- Node8 -->
<g id="node9" class="node">
<title>Node8</title>
<g id="a_node9"><a xlink:href="LOG_8hxx.html" target="_top" xlink:title="basics/LOG.hxx">
<polygon fill="none" stroke="#000000" points="792,-112.5 792,-131.5 884,-131.5 884,-112.5 792,-112.5"/>
<text text-anchor="middle" x="838" y="-119.5" font-family="Helvetica,sans-Serif" font-size="10.00" fill="#000000">basics/LOG.hxx</text>
</a>
</g>
</g>
<!-- Node0&#45;&gt;Node8 -->
<g id="edge9" class="edge">
<title>Node0&#45;&gt;Node8</title>
<path fill="none" stroke="#191970" d="M547.6698,-224.4002C571.1723,-208.04 618.4942,-175.768 637,-168 683.861,-148.3297 740.5631,-136.3294 781.7795,-129.5415"/>
<polygon fill="#191970" stroke="#191970" points="782.585,-132.9573 791.9092,-127.9265 781.4828,-126.0446 782.585,-132.9573"/>
</g>
<!-- Node14 -->
<g id="node15" class="node">
<title>Node14</title>
<g id="a_node15"><a xlink:href="Settings_8hxx.html" target="_top" xlink:title="basics/Settings.hxx">
<polygon fill="none" stroke="#000000" points="478.5,-168.5 478.5,-187.5 589.5,-187.5 589.5,-168.5 478.5,-168.5"/>
<text text-anchor="middle" x="534" y="-175.5" font-family="Helvetica,sans-Serif" font-size="10.00" fill="#000000">basics/Settings.hxx</text>
</a>
</g>
</g>
<!-- Node0&#45;&gt;Node14 -->
<g id="edge16" class="edge">
<title>Node0&#45;&gt;Node14</title>
<path fill="none" stroke="#191970" d="M534,-224.2455C534,-216.9382 534,-206.6944 534,-197.7046"/>
<polygon fill="#191970" stroke="#191970" points="537.5001,-197.6426 534,-187.6427 530.5001,-197.6427 537.5001,-197.6426"/>
</g>
<!-- Node20 -->
<g id="node21" class="node">
<title>Node20</title>
<g id="a_node21"><a xlink:href="ResourcesManager_8hxx.html" target="_top" xlink:title="ResourcesManager.hxx">
<polygon fill="none" stroke="#000000" points="332,-168.5 332,-187.5 460,-187.5 460,-168.5 332,-168.5"/>
<text text-anchor="middle" x="396" y="-175.5" font-family="Helvetica,sans-Serif" font-size="10.00" fill="#000000">ResourcesManager.hxx</text>
</a>
</g>
</g>
<!-- Node0&#45;&gt;Node20 -->
<g id="edge25" class="edge">
<title>Node0&#45;&gt;Node20</title>
<path fill="none" stroke="#191970" d="M510.277,-224.3733C487.8263,-215.2629 453.9261,-201.5062 428.8745,-191.3404"/>
<polygon fill="#191970" stroke="#191970" points="429.9957,-188.0182 419.4135,-187.5011 427.3635,-194.5045 429.9957,-188.0182"/>
</g>
<!-- Node21 -->
<g id="node22" class="node">
<title>Node21</title>
<polygon fill="none" stroke="#bfbfbf" points="646,-168.5 646,-187.5 690,-187.5 690,-168.5 646,-168.5"/>
<text text-anchor="middle" x="668" y="-175.5" font-family="Helvetica,sans-Serif" font-size="10.00" fill="#000000">bitset</text>
</g>
<!-- Node0&#45;&gt;Node21 -->
<g id="edge30" class="edge">
<title>Node0&#45;&gt;Node21</title>
<path fill="none" stroke="#191970" d="M557.0354,-224.3733C578.8704,-215.2482 611.8589,-201.462 636.1957,-191.2913"/>
<polygon fill="#191970" stroke="#191970" points="637.8333,-194.4004 645.7104,-187.315 635.1341,-187.9417 637.8333,-194.4004"/>
</g>
<!-- Node2 -->
<g id="node3" class="node">
<title>Node2</title>
<polygon fill="none" stroke="#bfbfbf" points="422,-56.5 422,-75.5 466,-75.5 466,-56.5 422,-56.5"/>
<text text-anchor="middle" x="444" y="-63.5" font-family="Helvetica,sans-Serif" font-size="10.00" fill="#000000">SDL.h</text>
</g>
<!-- Node1&#45;&gt;Node2 -->
<g id="edge2" class="edge">
<title>Node1&#45;&gt;Node2</title>
<path fill="none" stroke="#191970" d="M291.8083,-112.425C321.0166,-103.8509 365.1454,-90.776 411.9579,-76.2828"/>
<polygon fill="#191970" stroke="#191970" points="413.155,-79.576 421.6674,-73.2682 411.0793,-72.8909 413.155,-79.576"/>
</g>
<!-- Node3 -->
<g id="node4" class="node">
<title>Node3</title>
<polygon fill="none" stroke="#bfbfbf" points="209.5,-56.5 209.5,-75.5 302.5,-75.5 302.5,-56.5 209.5,-56.5"/>
<text text-anchor="middle" x="256" y="-63.5" font-family="Helvetica,sans-Serif" font-size="10.00" fill="#000000">unordered_map</text>
</g>
<!-- Node1&#45;&gt;Node3 -->
<g id="edge3" class="edge">
<title>Node1&#45;&gt;Node3</title>
<path fill="none" stroke="#191970" d="M258.4774,-112.2455C258.086,-104.9382 257.5372,-94.6944 257.0556,-85.7046"/>
<polygon fill="#191970" stroke="#191970" points="260.5466,-85.4411 256.5166,-75.6427 253.5566,-85.8156 260.5466,-85.4411"/>
</g>
<!-- Node4 -->
<g id="node5" class="node">
<title>Node4</title>
<polygon fill="none" stroke="#bfbfbf" points="131,-.5 131,-19.5 175,-19.5 175,-.5 131,-.5"/>
<text text-anchor="middle" x="153" y="-7.5" font-family="Helvetica,sans-Serif" font-size="10.00" fill="#000000">string</text>
</g>
<!-- Node1&#45;&gt;Node4 -->
<g id="edge4" class="edge">
<title>Node1&#45;&gt;Node4</title>
<path fill="none" stroke="#191970" d="M210.4648,-113.9659C170.2694,-106.2057 117.7523,-93.1182 105,-76 92.2706,-58.9126 111.0628,-39.1242 128.734,-25.7053"/>
<polygon fill="#191970" stroke="#191970" points="131.0771,-28.3327 137.1759,-19.6693 127.0057,-22.6385 131.0771,-28.3327"/>
</g>
<!-- Node5 -->
<g id="node6" class="node">
<title>Node5</title>
<g id="a_node6"><a xlink:href="tileData_8hxx.html" target="_top" xlink:title="tileData.hxx">
<polygon fill="none" stroke="#000000" points="114.5,-56.5 114.5,-75.5 191.5,-75.5 191.5,-56.5 114.5,-56.5"/>
<text text-anchor="middle" x="153" y="-63.5" font-family="Helvetica,sans-Serif" font-size="10.00" fill="#000000">tileData.hxx</text>
</a>
</g>
</g>
<!-- Node1&#45;&gt;Node5 -->
<g id="edge5" class="edge">
<title>Node1&#45;&gt;Node5</title>
<path fill="none" stroke="#191970" d="M240.5362,-112.2455C223.8926,-103.4527 199.2007,-90.4079 180.2808,-80.4125"/>
<polygon fill="#191970" stroke="#191970" points="181.7291,-77.2193 171.2522,-75.6427 178.4592,-83.4086 181.7291,-77.2193"/>
</g>
<!-- Node6 -->
<g id="node7" class="node">
<title>Node6</title>
<polygon fill="none" stroke="#bfbfbf" points="0,-56.5 0,-75.5 58,-75.5 58,-56.5 0,-56.5"/>
<text text-anchor="middle" x="29" y="-63.5" font-family="Helvetica,sans-Serif" font-size="10.00" fill="#000000">json.hxx</text>
</g>
<!-- Node1&#45;&gt;Node6 -->
<g id="edge7" class="edge">
<title>Node1&#45;&gt;Node6</title>
<path fill="none" stroke="#191970" d="M219.7229,-112.4369C177.408,-102.1341 110.4703,-85.8362 68.1894,-75.5418"/>
<polygon fill="#191970" stroke="#191970" points="68.8056,-72.0896 58.2614,-73.1245 67.1496,-78.8909 68.8056,-72.0896"/>
</g>
<!-- Node7 -->
<g id="node8" class="node">
<title>Node7</title>
<g id="a_node8"><a xlink:href="Singleton_8hxx.html" target="_top" xlink:title="Singleton.hxx">
<polygon fill="none" stroke="#000000" points="320.5,-56.5 320.5,-75.5 403.5,-75.5 403.5,-56.5 320.5,-56.5"/>
<text text-anchor="middle" x="362" y="-63.5" font-family="Helvetica,sans-Serif" font-size="10.00" fill="#000000">Singleton.hxx</text>
</a>
</g>
</g>
<!-- Node1&#45;&gt;Node7 -->
<g id="edge8" class="edge">
<title>Node1&#45;&gt;Node7</title>
<path fill="none" stroke="#191970" d="M276.9412,-112.2455C293.04,-103.4928 316.8879,-90.527 335.2391,-80.5496"/>
<polygon fill="#191970" stroke="#191970" points="337.1507,-83.4942 344.2644,-75.6427 333.8071,-77.3444 337.1507,-83.4942"/>
</g>
<!-- Node5&#45;&gt;Node4 -->
<g id="edge6" class="edge">
<title>Node5&#45;&gt;Node4</title>
<path fill="none" stroke="#191970" d="M153,-56.2455C153,-48.9382 153,-38.6944 153,-29.7046"/>
<polygon fill="#191970" stroke="#191970" points="156.5001,-29.6426 153,-19.6427 149.5001,-29.6427 156.5001,-29.6426"/>
</g>
<!-- Node8&#45;&gt;Node2 -->
<g id="edge15" class="edge">
<title>Node8&#45;&gt;Node2</title>
<path fill="none" stroke="#191970" d="M791.8556,-115.4614C729.0118,-106.5536 612.9939,-90.0983 514,-76 501.592,-74.2329 487.9476,-72.2848 476.0264,-70.5811"/>
<polygon fill="#191970" stroke="#191970" points="476.4629,-67.108 466.0682,-69.1576 475.4722,-74.0376 476.4629,-67.108"/>
</g>
<!-- Node9 -->
<g id="node10" class="node">
<title>Node9</title>
<polygon fill="none" stroke="#bfbfbf" points="738,-56.5 738,-75.5 798,-75.5 798,-56.5 738,-56.5"/>
<text text-anchor="middle" x="768" y="-63.5" font-family="Helvetica,sans-Serif" font-size="10.00" fill="#000000">iostream</text>
</g>
<!-- Node8&#45;&gt;Node9 -->
<g id="edge10" class="edge">
<title>Node8&#45;&gt;Node9</title>
<path fill="none" stroke="#191970" d="M825.8069,-112.2455C815.3679,-103.8943 800.1345,-91.7076 787.926,-81.9408"/>
<polygon fill="#191970" stroke="#191970" points="790.0485,-79.1566 780.0533,-75.6427 785.6756,-84.6227 790.0485,-79.1566"/>
</g>
<!-- Node10 -->
<g id="node11" class="node">
<title>Node10</title>
<polygon fill="none" stroke="#bfbfbf" points="1026,-56.5 1026,-75.5 1076,-75.5 1076,-56.5 1026,-56.5"/>
<text text-anchor="middle" x="1051" y="-63.5" font-family="Helvetica,sans-Serif" font-size="10.00" fill="#000000">chrono</text>
</g>
<!-- Node8&#45;&gt;Node10 -->
<g id="edge11" class="edge">
<title>Node8&#45;&gt;Node10</title>
<path fill="none" stroke="#191970" d="M876.8608,-112.4244C911.1305,-103.8883 962.649,-90.8342 1016.1262,-76.1801"/>
<polygon fill="#191970" stroke="#191970" points="1017.0641,-79.5522 1025.7767,-73.5238 1015.2064,-72.8032 1017.0641,-79.5522"/>
</g>
<!-- Node11 -->
<g id="node12" class="node">
<title>Node11</title>
<polygon fill="none" stroke="#bfbfbf" points="816,-56.5 816,-75.5 860,-75.5 860,-56.5 816,-56.5"/>
<text text-anchor="middle" x="838" y="-63.5" font-family="Helvetica,sans-Serif" font-size="10.00" fill="#000000">ctime</text>
</g>
<!-- Node8&#45;&gt;Node11 -->
<g id="edge12" class="edge">
<title>Node8&#45;&gt;Node11</title>
<path fill="none" stroke="#191970" d="M838,-112.2455C838,-104.9382 838,-94.6944 838,-85.7046"/>
<polygon fill="#191970" stroke="#191970" points="841.5001,-85.6426 838,-75.6427 834.5001,-85.6427 841.5001,-85.6426"/>
</g>
<!-- Node12 -->
<g id="node13" class="node">
<title>Node12</title>
<polygon fill="none" stroke="#bfbfbf" points="878.5,-56.5 878.5,-75.5 933.5,-75.5 933.5,-56.5 878.5,-56.5"/>
<text text-anchor="middle" x="906" y="-63.5" font-family="Helvetica,sans-Serif" font-size="10.00" fill="#000000">fstream</text>
</g>
<!-- Node8&#45;&gt;Node12 -->
<g id="edge13" class="edge">
<title>Node8&#45;&gt;Node12</title>
<path fill="none" stroke="#191970" d="M849.8447,-112.2455C859.888,-103.9746 874.4995,-91.9416 886.3004,-82.2232"/>
<polygon fill="#191970" stroke="#191970" points="888.7967,-84.7015 894.291,-75.6427 884.3467,-79.298 888.7967,-84.7015"/>
</g>
<!-- Node13 -->
<g id="node14" class="node">
<title>Node13</title>
<polygon fill="none" stroke="#bfbfbf" points="952,-56.5 952,-75.5 1008,-75.5 1008,-56.5 952,-56.5"/>
<text text-anchor="middle" x="980" y="-63.5" font-family="Helvetica,sans-Serif" font-size="10.00" fill="#000000">sstream</text>
</g>
<!-- Node8&#45;&gt;Node13 -->
<g id="edge14" class="edge">
<title>Node8&#45;&gt;Node13</title>
<path fill="none" stroke="#191970" d="M862.4107,-112.3733C885.6142,-103.2226 920.7038,-89.3844 946.5142,-79.2057"/>
<polygon fill="#191970" stroke="#191970" points="947.8892,-82.4258 955.9079,-75.5011 945.3211,-75.9139 947.8892,-82.4258"/>
</g>
<!-- Node14&#45;&gt;Node4 -->
<g id="edge17" class="edge">
<title>Node14&#45;&gt;Node4</title>
<path fill="none" stroke="#191970" d="M532.4824,-168.4493C528.2078,-144.9762 513.7501,-84.32 475,-56 429.3573,-22.6426 258.1412,-13.3255 185.6976,-10.8489"/>
<polygon fill="#191970" stroke="#191970" points="185.4586,-7.3396 175.3522,-10.5193 185.2356,-14.3361 185.4586,-7.3396"/>
</g>
<!-- Node14&#45;&gt;Node7 -->
<g id="edge18" class="edge">
<title>Node14&#45;&gt;Node7</title>
<path fill="none" stroke="#191970" d="M519.3354,-168.4509C489.3785,-148.9441 420.961,-104.3932 385.0217,-80.9909"/>
<polygon fill="#191970" stroke="#191970" points="386.9174,-78.0487 376.6275,-75.5249 383.0976,-83.9147 386.9174,-78.0487"/>
</g>
<!-- Node15 -->
<g id="node16" class="node">
<title>Node15</title>
<g id="a_node16"><a xlink:href="Meta_8hxx.html" target="_top" xlink:title="../../util/Meta.hxx">
<polygon fill="none" stroke="#000000" points="544,-112.5 544,-131.5 642,-131.5 642,-112.5 544,-112.5"/>
<text text-anchor="middle" x="593" y="-119.5" font-family="Helvetica,sans-Serif" font-size="10.00" fill="#000000">../../util/Meta.hxx</text>
</a>
</g>
</g>
<!-- Node14&#45;&gt;Node15 -->
<g id="edge19" class="edge">
<title>Node14&#45;&gt;Node15</title>
<path fill="none" stroke="#191970" d="M544.277,-168.2455C552.8218,-160.1352 565.1778,-148.4075 575.3085,-138.7919"/>
<polygon fill="#191970" stroke="#191970" points="577.9972,-141.0655 582.8408,-131.6427 573.1782,-135.9884 577.9972,-141.0655"/>
</g>
<!-- Node19 -->
<g id="node20" class="node">
<title>Node19</title>
<polygon fill="none" stroke="#bfbfbf" points="698.5,-112.5 698.5,-131.5 751.5,-131.5 751.5,-112.5 698.5,-112.5"/>
<text text-anchor="middle" x="725" y="-119.5" font-family="Helvetica,sans-Serif" font-size="10.00" fill="#000000">cstddef</text>
</g>
<!-- Node14&#45;&gt;Node19 -->
<g id="edge24" class="edge">
<title>Node14&#45;&gt;Node19</title>
<path fill="none" stroke="#191970" d="M566.8341,-168.3733C600.7139,-158.4399 653.433,-142.983 688.5755,-132.6794"/>
<polygon fill="#191970" stroke="#191970" points="689.8223,-135.9613 698.4336,-129.7891 687.8528,-129.244 689.8223,-135.9613"/>
</g>
<!-- Node15&#45;&gt;Node9 -->
<g id="edge20" class="edge">
<title>Node15&#45;&gt;Node9</title>
<path fill="none" stroke="#191970" d="M623.0836,-112.3733C652.1834,-103.0613 696.4523,-88.8953 728.403,-78.671"/>
<polygon fill="#191970" stroke="#191970" points="729.8515,-81.8824 738.309,-75.5011 727.718,-75.2155 729.8515,-81.8824"/>
</g>
<!-- Node16 -->
<g id="node17" class="node">
<title>Node16</title>
<polygon fill="none" stroke="#bfbfbf" points="522.5,-56.5 522.5,-75.5 591.5,-75.5 591.5,-56.5 522.5,-56.5"/>
<text text-anchor="middle" x="557" y="-63.5" font-family="Helvetica,sans-Serif" font-size="10.00" fill="#000000">type_traits</text>
</g>
<!-- Node15&#45;&gt;Node16 -->
<g id="edge21" class="edge">
<title>Node15&#45;&gt;Node16</title>
<path fill="none" stroke="#191970" d="M586.7293,-112.2455C581.7736,-104.5367 574.717,-93.5598 568.7224,-84.2348"/>
<polygon fill="#191970" stroke="#191970" points="571.5506,-82.1618 563.1989,-75.6427 565.6624,-85.9471 571.5506,-82.1618"/>
</g>
<!-- Node17 -->
<g id="node18" class="node">
<title>Node17</title>
<polygon fill="none" stroke="#bfbfbf" points="609.5,-56.5 609.5,-75.5 660.5,-75.5 660.5,-56.5 609.5,-56.5"/>
<text text-anchor="middle" x="635" y="-63.5" font-family="Helvetica,sans-Serif" font-size="10.00" fill="#000000">variant</text>
</g>
<!-- Node15&#45;&gt;Node17 -->
<g id="edge22" class="edge">
<title>Node15&#45;&gt;Node17</title>
<path fill="none" stroke="#191970" d="M600.3158,-112.2455C606.2179,-104.3761 614.6742,-93.101 621.7594,-83.6542"/>
<polygon fill="#191970" stroke="#191970" points="624.568,-85.7427 627.768,-75.6427 618.9679,-81.5427 624.568,-85.7427"/>
</g>
<!-- Node18 -->
<g id="node19" class="node">
<title>Node18</title>
<polygon fill="none" stroke="#bfbfbf" points="678.5,-56.5 678.5,-75.5 719.5,-75.5 719.5,-56.5 678.5,-56.5"/>
<text text-anchor="middle" x="699" y="-63.5" font-family="Helvetica,sans-Serif" font-size="10.00" fill="#000000">tuple</text>
</g>
<!-- Node15&#45;&gt;Node18 -->
<g id="edge23" class="edge">
<title>Node15&#45;&gt;Node18</title>
<path fill="none" stroke="#191970" d="M611.4638,-112.2455C628.1074,-103.4527 652.7993,-90.4079 671.7192,-80.4125"/>
<polygon fill="#191970" stroke="#191970" points="673.5408,-83.4086 680.7478,-75.6427 670.2709,-77.2193 673.5408,-83.4086"/>
</g>
<!-- Node20&#45;&gt;Node1 -->
<g id="edge29" class="edge">
<title>Node20&#45;&gt;Node1</title>
<path fill="none" stroke="#191970" d="M372.4489,-168.3733C350.1609,-159.2629 316.5063,-145.5062 291.6363,-135.3404"/>
<polygon fill="#191970" stroke="#191970" points="292.8247,-132.0451 282.2438,-131.5011 290.1761,-138.5247 292.8247,-132.0451"/>
</g>
<!-- Node20&#45;&gt;Node2 -->
<g id="edge28" class="edge">
<title>Node20&#45;&gt;Node2</title>
<path fill="none" stroke="#191970" d="M400.0925,-168.4509C408.0274,-149.936 425.6318,-108.8591 435.9777,-84.7187"/>
<polygon fill="#191970" stroke="#191970" points="439.1957,-86.0951 439.9179,-75.5249 432.7616,-83.3376 439.1957,-86.0951"/>
</g>
<!-- Node20&#45;&gt;Node3 -->
<g id="edge27" class="edge">
<title>Node20&#45;&gt;Node3</title>
<path fill="none" stroke="#191970" d="M384.7111,-168.4718C369.3129,-155.5246 340.8007,-131.7269 316,-112 303.2301,-101.8426 288.7141,-90.703 277.1589,-81.9303"/>
<polygon fill="#191970" stroke="#191970" points="279.0636,-78.9825 268.9776,-75.7386 274.8393,-84.5642 279.0636,-78.9825"/>
</g>
<!-- Node20&#45;&gt;Node9 -->
<g id="edge26" class="edge">
<title>Node20&#45;&gt;Node9</title>
<path fill="none" stroke="#191970" d="M460.0291,-168.9475C523.7118,-159.4968 616.7218,-144.3589 651,-132 660.5846,-128.5443 711.602,-99.0527 743.0207,-80.6805"/>
<polygon fill="#191970" stroke="#191970" points="744.8335,-83.6749 751.6933,-75.6006 741.2955,-77.6348 744.8335,-83.6749"/>
</g>
</g>
</svg>
        <g id="navigator" transform="translate(0 0)" fill="#404254">
                <rect fill="#f2f5e9" fill-opacity="0.5" stroke="#606060" stroke-width=".5" x="0" y="0" width="60" height="60"/>
                <use id="zoomplus" xlink:href="#zoomPlus" x="17" y="9" onmousedown="handleZoom(evt,'in')"/>
                <use id="zoomminus" xlink:href="#zoomMin" x="42" y="9" onmousedown="handleZoom(evt,'out')"/>
                <use id="reset" xlink:href="#resetDef" x="30" y="36" onmousedown="handleReset()"/>
                <g id="arrowUp" xlink:href="#dirArrow" transform="translate(30 24)" onmousedown="handlePan(0,-1)">
                  <use xlink:href="#rim" fill="#404040">
                        <set attributeName="fill" to="#808080" begin="arrowUp.mouseover" end="arrowUp.mouseout"/>
                  </use>
                  <path fill="none" stroke="white" stroke-width="1.5" d="M0,-3.0v7 M-2.5,-0.5L0,-3.0L2.5,-0.5"/>
                </g>
                <g id="arrowRight" xlink:href="#dirArrow" transform="rotate(90) translate(36 -43)" onmousedown="handlePan(1,0)">
                  <use xlink:href="#rim" fill="#404040">
                        <set attributeName="fill" to="#808080" begin="arrowRight.mouseover" end="arrowRight.mouseout"/>
                  </use>
                  <path fill="none" stroke="white" stroke-width="1.5" d="M0,-3.0v7 M-2.5,-0.5L0,-3.0L2.5,-0.5"/>
                </g>
                <g id="arrowDown" xlink:href="#dirArrow" transform="rotate(180) translate(-30 -48)" onmousedown="handlePan(0,1)">
                  <use xlink:href="#rim" fill="#404040">
                        <set attributeName="fill" to="#808080" begin="arrowDown.mouseover" end="arrowDown.mouseout"/>
                  </use>
                  <path fill="none" stroke="white" stroke-width="1.5" d="M0,-3.0v7 M-2.5,-0.5L0,-3.0L2.5,-0.5"/>
                </g>
                <g id="arrowLeft" xlink:href="#dirArrow" transform="rotate(270) translate(-36 17)" onmousedown="handlePan(-1,0)">
                  <use xlink:href="#rim" fill="#404040">
                        <set attributeName="fill" to="#808080" begin="arrowLeft.mouseover" end="arrowLeft.mouseout"/>
                  </use>
                  <path fill="none" stroke="white" stroke-width="1.5" d="M0,-3.0v7 M-2.5,-0.5L0,-3.0L2.5,-0.5"/>
                </g>
        </g>
        <svg viewBox="0 0 15 15" width="100%" height="30px" preserveAspectRatio="xMaxYMin meet">
         <g id="arrow_out" transform="scale(0.3 0.3)">
          <a xlink:href="TileManager_8cxx__incl_org.svg" target="_base">
           <rect id="button" ry="5" rx="5" y="6" x="6" height="38" width="38"
                fill="#f2f5e9" fill-opacity="0.5" stroke="#606060" stroke-width="1.0"/>
           <path id="arrow"
             d="M 11.500037,31.436501 C 11.940474,20.09759 22.043105,11.32322 32.158766,21.979434 L 37.068811,17.246167 C 37.068811,17.246167 37.088388,32 37.088388,32 L 22.160133,31.978069 C 22.160133,31.978069 26.997745,27.140456 26.997745,27.140456 C 18.528582,18.264221 13.291696,25.230495 11.500037,31.436501 z"
             style="fill:#404040;"/>
          </a>
         </g>
        </svg>
</svg>
