<?xml version="1.0" encoding="UTF-8" standalone="no"?>
<!DOCTYPE svg PUBLIC "-//W3C//DTD SVG 1.1//EN"
 "http://www.w3.org/Graphics/SVG/1.1/DTD/svg11.dtd">
<!-- Generated by graphviz version 2.40.1 (20161225.0304)
 -->
<!-- Title: src/engine/ui/widgets/Tooltip.hxx Pages: 1 -->
<svg width="1318pt" height="375pt"
 viewBox="0.00 0.00 1318.00 375.00" xmlns="http://www.w3.org/2000/svg" xmlns:xlink="http://www.w3.org/1999/xlink">
<g id="graph0" class="graph" transform="scale(1 1) rotate(0) translate(4 371)">
<title>src/engine/ui/widgets/Tooltip.hxx</title>
<!-- Node0 -->
<g id="node1" class="node">
<title>Node0</title>
<polygon fill="#bfbfbf" stroke="#000000" points="434,-336.5 434,-366.5 554,-366.5 554,-336.5 434,-336.5"/>
<text text-anchor="start" x="442" y="-354.5" font-family="Helvetica,sans-Serif" font-size="10.00" fill="#000000">src/engine/ui/widgets</text>
<text text-anchor="middle" x="494" y="-343.5" font-family="Helvetica,sans-Serif" font-size="10.00" fill="#000000">/Tooltip.hxx</text>
</g>
<!-- Node1 -->
<g id="node2" class="node">
<title>Node1</title>
<g id="a_node2"><a xlink:href="UIElement_8hxx.html" target="_top" xlink:title="../basics/UIElement.hxx">
<polygon fill="none" stroke="#000000" points="400.5,-224.5 400.5,-243.5 531.5,-243.5 531.5,-224.5 400.5,-224.5"/>
<text text-anchor="middle" x="466" y="-231.5" font-family="Helvetica,sans-Serif" font-size="10.00" fill="#000000">../basics/UIElement.hxx</text>
</a>
</g>
</g>
<!-- Node0&#45;&gt;Node1 -->
<g id="edge1" class="edge">
<title>Node0&#45;&gt;Node1</title>
<path fill="none" stroke="#191970" d="M490.3395,-336.1389C485.2719,-314.873 476.1206,-276.4702 470.5981,-253.2956"/>
<polygon fill="#191970" stroke="#191970" points="474.0008,-252.4757 468.278,-243.5595 467.1915,-254.0985 474.0008,-252.4757"/>
</g>
<!-- Node19 -->
<g id="node20" class="node">
<title>Node19</title>
<g id="a_node20"><a xlink:href="Text_8hxx.html" target="_top" xlink:title="Text.hxx">
<polygon fill="none" stroke="#000000" points="408,-280.5 408,-299.5 466,-299.5 466,-280.5 408,-280.5"/>
<text text-anchor="middle" x="437" y="-287.5" font-family="Helvetica,sans-Serif" font-size="10.00" fill="#000000">Text.hxx</text>
</a>
</g>
</g>
<!-- Node0&#45;&gt;Node19 -->
<g id="edge30" class="edge">
<title>Node0&#45;&gt;Node19</title>
<path fill="none" stroke="#191970" d="M479.9101,-336.2977C471.7507,-327.4941 461.4528,-316.3833 452.9905,-307.2529"/>
<polygon fill="#191970" stroke="#191970" points="455.4911,-304.8021 446.1264,-299.8469 450.3571,-309.5604 455.4911,-304.8021"/>
</g>
<!-- Node20 -->
<g id="node21" class="node">
<title>Node20</title>
<g id="a_node21"><a xlink:href="Timer_8hxx.html" target="_top" xlink:title="../../basics/Timer.hxx">
<polygon fill="none" stroke="#000000" points="1071.5,-224.5 1071.5,-243.5 1188.5,-243.5 1188.5,-224.5 1071.5,-224.5"/>
<text text-anchor="middle" x="1130" y="-231.5" font-family="Helvetica,sans-Serif" font-size="10.00" fill="#000000">../../basics/Timer.hxx</text>
</a>
</g>
</g>
<!-- Node0&#45;&gt;Node20 -->
<g id="edge33" class="edge">
<title>Node0&#45;&gt;Node20</title>
<path fill="none" stroke="#191970" d="M554.1197,-340.393C675.0443,-318.0523 946.5303,-267.8957 1068.5501,-245.3528"/>
<polygon fill="#191970" stroke="#191970" points="1069.2821,-248.7768 1078.4798,-243.5183 1068.0104,-241.8933 1069.2821,-248.7768"/>
</g>
<!-- Node2 -->
<g id="node3" class="node">
<title>Node2</title>
<polygon fill="none" stroke="#bfbfbf" points="249,-.5 249,-19.5 293,-19.5 293,-.5 249,-.5"/>
<text text-anchor="middle" x="271" y="-7.5" font-family="Helvetica,sans-Serif" font-size="10.00" fill="#000000">string</text>
</g>
<!-- Node1&#45;&gt;Node2 -->
<g id="edge2" class="edge">
<title>Node1&#45;&gt;Node2</title>
<path fill="none" stroke="#191970" d="M424.2117,-224.4647C328.4147,-201.6374 98.0382,-140.9009 57,-76 52.2494,-68.4871 51.414,-62.9144 57,-56 79.5006,-28.1489 184.8259,-16.3756 238.8528,-12.1011"/>
<polygon fill="#191970" stroke="#191970" points="239.2248,-15.5832 248.9345,-11.3437 238.7003,-8.6028 239.2248,-15.5832"/>
</g>
<!-- Node3 -->
<g id="node4" class="node">
<title>Node3</title>
<g id="a_node4"><a xlink:href="mapEdit_8hxx.html" target="_top" xlink:title="../../basics/mapEdit.hxx">
<polygon fill="none" stroke="#000000" points="66,-56.5 66,-75.5 196,-75.5 196,-56.5 66,-56.5"/>
<text text-anchor="middle" x="131" y="-63.5" font-family="Helvetica,sans-Serif" font-size="10.00" fill="#000000">../../basics/mapEdit.hxx</text>
</a>
</g>
</g>
<!-- Node1&#45;&gt;Node3 -->
<g id="edge3" class="edge">
<title>Node1&#45;&gt;Node3</title>
<path fill="none" stroke="#191970" d="M432.7081,-224.4845C405.5595,-216.2342 366.523,-203.2411 334,-188 265.0095,-155.6693 189.5382,-106.2246 153.1127,-81.379"/>
<polygon fill="#191970" stroke="#191970" points="154.9461,-78.3923 144.721,-75.6177 150.9841,-84.1631 154.9461,-78.3923"/>
</g>
<!-- Node4 -->
<g id="node5" class="node">
<title>Node4</title>
<g id="a_node5"><a xlink:href="ResourcesManager_8hxx.html" target="_top" xlink:title="../../ResourcesManager.hxx">
<polygon fill="none" stroke="#000000" points="343,-168.5 343,-187.5 489,-187.5 489,-168.5 343,-168.5"/>
<text text-anchor="middle" x="416" y="-175.5" font-family="Helvetica,sans-Serif" font-size="10.00" fill="#000000">../../ResourcesManager.hxx</text>
</a>
</g>
</g>
<!-- Node1&#45;&gt;Node4 -->
<g id="edge5" class="edge">
<title>Node1&#45;&gt;Node4</title>
<path fill="none" stroke="#191970" d="M457.2907,-224.2455C450.1927,-216.2958 439.9916,-204.8706 431.505,-195.3656"/>
<polygon fill="#191970" stroke="#191970" points="433.8805,-192.771 424.6095,-187.6427 428.6589,-197.4331 433.8805,-192.771"/>
</g>
<!-- Node7 -->
<g id="node8" class="node">
<title>Node7</title>
<polygon fill="none" stroke="#bfbfbf" points="637,-56.5 637,-75.5 681,-75.5 681,-56.5 637,-56.5"/>
<text text-anchor="middle" x="659" y="-63.5" font-family="Helvetica,sans-Serif" font-size="10.00" fill="#000000">SDL.h</text>
</g>
<!-- Node1&#45;&gt;Node7 -->
<g id="edge29" class="edge">
<title>Node1&#45;&gt;Node7</title>
<path fill="none" stroke="#191970" d="M473.2875,-224.4004C480.0649,-215.2769 490.253,-201.0501 498,-188 517.2775,-155.5262 507.9221,-137.2548 536,-112 543.0775,-105.6341 593.2718,-87.9958 627.3121,-76.5027"/>
<polygon fill="#191970" stroke="#191970" points="628.4977,-79.7967 636.8634,-73.2956 626.2694,-73.1608 628.4977,-79.7967"/>
</g>
<!-- Node12 -->
<g id="node13" class="node">
<title>Node12</title>
<g id="a_node13"><a xlink:href="WindowManager_8hxx.html" target="_top" xlink:title="../../WindowManager.hxx">
<polygon fill="none" stroke="#000000" points="584,-168.5 584,-187.5 720,-187.5 720,-168.5 584,-168.5"/>
<text text-anchor="middle" x="652" y="-175.5" font-family="Helvetica,sans-Serif" font-size="10.00" fill="#000000">../../WindowManager.hxx</text>
</a>
</g>
</g>
<!-- Node1&#45;&gt;Node12 -->
<g id="edge17" class="edge">
<title>Node1&#45;&gt;Node12</title>
<path fill="none" stroke="#191970" d="M497.9745,-224.3733C529.1713,-214.9807 576.771,-200.6496 610.7932,-190.4064"/>
<polygon fill="#191970" stroke="#191970" points="611.8763,-193.7355 620.4427,-187.5011 609.8582,-187.0327 611.8763,-193.7355"/>
</g>
<!-- Node14 -->
<g id="node15" class="node">
<title>Node14</title>
<g id="a_node15"><a xlink:href="signal_8hxx.html" target="_top" xlink:title="../../basics/signal.hxx">
<polygon fill="none" stroke="#000000" points="842.5,-168.5 842.5,-187.5 961.5,-187.5 961.5,-168.5 842.5,-168.5"/>
<text text-anchor="middle" x="902" y="-175.5" font-family="Helvetica,sans-Serif" font-size="10.00" fill="#000000">../../basics/signal.hxx</text>
</a>
</g>
</g>
<!-- Node1&#45;&gt;Node14 -->
<g id="edge23" class="edge">
<title>Node1&#45;&gt;Node14</title>
<path fill="none" stroke="#191970" d="M531.7457,-225.5556C612.7017,-215.1576 749.6097,-197.5731 832.3274,-186.9488"/>
<polygon fill="#191970" stroke="#191970" points="832.9142,-190.4022 842.3868,-185.6567 832.0224,-183.4593 832.9142,-190.4022"/>
</g>
<!-- Node3&#45;&gt;Node2 -->
<g id="edge4" class="edge">
<title>Node3&#45;&gt;Node2</title>
<path fill="none" stroke="#191970" d="M155.0669,-56.3733C178.2569,-47.0972 213.4888,-33.0045 239.0263,-22.7895"/>
<polygon fill="#191970" stroke="#191970" points="240.6478,-25.9106 248.6327,-18.9469 238.048,-19.4112 240.6478,-25.9106"/>
</g>
<!-- Node5 -->
<g id="node6" class="node">
<title>Node5</title>
<polygon fill="none" stroke="#bfbfbf" points="545,-112.5 545,-131.5 605,-131.5 605,-112.5 545,-112.5"/>
<text text-anchor="middle" x="575" y="-119.5" font-family="Helvetica,sans-Serif" font-size="10.00" fill="#000000">iostream</text>
</g>
<!-- Node4&#45;&gt;Node5 -->
<g id="edge6" class="edge">
<title>Node4&#45;&gt;Node5</title>
<path fill="none" stroke="#191970" d="M443.3331,-168.3733C469.5434,-159.1419 509.2984,-145.1402 538.2668,-134.9375"/>
<polygon fill="#191970" stroke="#191970" points="539.7542,-138.1244 548.0236,-131.5011 537.4288,-131.5219 539.7542,-138.1244"/>
</g>
<!-- Node6 -->
<g id="node7" class="node">
<title>Node6</title>
<polygon fill="none" stroke="#bfbfbf" points="214.5,-56.5 214.5,-75.5 307.5,-75.5 307.5,-56.5 214.5,-56.5"/>
<text text-anchor="middle" x="261" y="-63.5" font-family="Helvetica,sans-Serif" font-size="10.00" fill="#000000">unordered_map</text>
</g>
<!-- Node4&#45;&gt;Node6 -->
<g id="edge7" class="edge">
<title>Node4&#45;&gt;Node6</title>
<path fill="none" stroke="#191970" d="M399.9587,-168.409C385.1582,-159.4067 362.7103,-145.362 344,-132 321.4183,-115.8733 296.6552,-95.8572 280.1075,-82.1222"/>
<polygon fill="#191970" stroke="#191970" points="282.1768,-79.2903 272.2581,-75.5661 277.6894,-84.6628 282.1768,-79.2903"/>
</g>
<!-- Node4&#45;&gt;Node7 -->
<g id="edge8" class="edge">
<title>Node4&#45;&gt;Node7</title>
<path fill="none" stroke="#191970" d="M426.1276,-168.2846C441.535,-154.0038 472.3239,-127.3786 503,-112 551.9573,-87.4567 570.7101,-92.2518 626.9268,-76.1812"/>
<polygon fill="#191970" stroke="#191970" points="628.0807,-79.4897 636.6755,-73.2945 626.0933,-72.7778 628.0807,-79.4897"/>
</g>
<!-- Node8 -->
<g id="node9" class="node">
<title>Node8</title>
<g id="a_node9"><a xlink:href="TileManager_8hxx.html" target="_top" xlink:title="TileManager.hxx">
<polygon fill="none" stroke="#000000" points="353.5,-112.5 353.5,-131.5 450.5,-131.5 450.5,-112.5 353.5,-112.5"/>
<text text-anchor="middle" x="402" y="-119.5" font-family="Helvetica,sans-Serif" font-size="10.00" fill="#000000">TileManager.hxx</text>
</a>
</g>
</g>
<!-- Node4&#45;&gt;Node8 -->
<g id="edge9" class="edge">
<title>Node4&#45;&gt;Node8</title>
<path fill="none" stroke="#191970" d="M413.5614,-168.2455C411.7145,-160.8579 409.1172,-150.4689 406.8522,-141.4087"/>
<polygon fill="#191970" stroke="#191970" points="410.2316,-140.4952 404.4107,-131.6427 403.4406,-142.193 410.2316,-140.4952"/>
</g>
<!-- Node8&#45;&gt;Node2 -->
<g id="edge12" class="edge">
<title>Node8&#45;&gt;Node2</title>
<path fill="none" stroke="#191970" d="M403.5215,-112.3072C405.1524,-98.2948 405.9733,-72.2787 393,-56 371.3584,-28.8445 331.8463,-17.7163 303.6516,-13.1582"/>
<polygon fill="#191970" stroke="#191970" points="303.853,-9.6518 293.4607,-11.7132 302.8703,-16.5825 303.853,-9.6518"/>
</g>
<!-- Node8&#45;&gt;Node6 -->
<g id="edge11" class="edge">
<title>Node8&#45;&gt;Node6</title>
<path fill="none" stroke="#191970" d="M377.7612,-112.3733C354.7211,-103.2226 319.8786,-89.3844 294.2499,-79.2057"/>
<polygon fill="#191970" stroke="#191970" points="295.5082,-75.9395 284.9225,-75.5011 292.9244,-82.4452 295.5082,-75.9395"/>
</g>
<!-- Node8&#45;&gt;Node7 -->
<g id="edge10" class="edge">
<title>Node8&#45;&gt;Node7</title>
<path fill="none" stroke="#191970" d="M450.8547,-113.6783C494.7165,-105.8433 561.0046,-93.1065 627.0036,-76.056"/>
<polygon fill="#191970" stroke="#191970" points="627.9482,-79.4267 636.7363,-73.5091 626.176,-72.6547 627.9482,-79.4267"/>
</g>
<!-- Node9 -->
<g id="node10" class="node">
<title>Node9</title>
<g id="a_node10"><a xlink:href="tileData_8hxx.html" target="_top" xlink:title="tileData.hxx">
<polygon fill="none" stroke="#000000" points="440.5,-56.5 440.5,-75.5 517.5,-75.5 517.5,-56.5 440.5,-56.5"/>
<text text-anchor="middle" x="479" y="-63.5" font-family="Helvetica,sans-Serif" font-size="10.00" fill="#000000">tileData.hxx</text>
</a>
</g>
</g>
<!-- Node8&#45;&gt;Node9 -->
<g id="edge13" class="edge">
<title>Node8&#45;&gt;Node9</title>
<path fill="none" stroke="#191970" d="M415.4124,-112.2455C427.0057,-103.814 443.9748,-91.4729 457.4678,-81.6598"/>
<polygon fill="#191970" stroke="#191970" points="459.7126,-84.355 465.7413,-75.6427 455.5953,-78.6938 459.7126,-84.355"/>
</g>
<!-- Node10 -->
<g id="node11" class="node">
<title>Node10</title>
<polygon fill="none" stroke="#bfbfbf" points="326,-56.5 326,-75.5 384,-75.5 384,-56.5 326,-56.5"/>
<text text-anchor="middle" x="355" y="-63.5" font-family="Helvetica,sans-Serif" font-size="10.00" fill="#000000">json.hxx</text>
</g>
<!-- Node8&#45;&gt;Node10 -->
<g id="edge15" class="edge">
<title>Node8&#45;&gt;Node10</title>
<path fill="none" stroke="#191970" d="M393.8132,-112.2455C387.1411,-104.2958 377.5521,-92.8706 369.5747,-83.3656"/>
<polygon fill="#191970" stroke="#191970" points="372.2026,-81.0524 363.093,-75.6427 366.8408,-85.5525 372.2026,-81.0524"/>
</g>
<!-- Node11 -->
<g id="node12" class="node">
<title>Node11</title>
<g id="a_node12"><a xlink:href="Singleton_8hxx.html" target="_top" xlink:title="Singleton.hxx">
<polygon fill="none" stroke="#000000" points="535.5,-56.5 535.5,-75.5 618.5,-75.5 618.5,-56.5 535.5,-56.5"/>
<text text-anchor="middle" x="577" y="-63.5" font-family="Helvetica,sans-Serif" font-size="10.00" fill="#000000">Singleton.hxx</text>
</a>
</g>
</g>
<!-- Node8&#45;&gt;Node11 -->
<g id="edge16" class="edge">
<title>Node8&#45;&gt;Node11</title>
<path fill="none" stroke="#191970" d="M432.0836,-112.3733C461.1834,-103.0613 505.4523,-88.8953 537.403,-78.671"/>
<polygon fill="#191970" stroke="#191970" points="538.8515,-81.8824 547.309,-75.5011 536.718,-75.2155 538.8515,-81.8824"/>
</g>
<!-- Node9&#45;&gt;Node2 -->
<g id="edge14" class="edge">
<title>Node9&#45;&gt;Node2</title>
<path fill="none" stroke="#191970" d="M443.2435,-56.3733C403.8541,-45.7684 341.0811,-28.868 303.18,-18.6638"/>
<polygon fill="#191970" stroke="#191970" points="303.7557,-15.1943 293.1896,-15.9741 301.9358,-21.9536 303.7557,-15.1943"/>
</g>
<!-- Node12&#45;&gt;Node2 -->
<g id="edge18" class="edge">
<title>Node12&#45;&gt;Node2</title>
<path fill="none" stroke="#191970" d="M660.3513,-168.4596C678.9579,-146.0381 719.908,-89.3712 690,-56 664.2518,-27.2703 396.6228,-14.6593 303.0691,-11.106"/>
<polygon fill="#191970" stroke="#191970" points="303.1747,-7.6076 293.052,-10.7351 302.9156,-14.6028 303.1747,-7.6076"/>
</g>
<!-- Node12&#45;&gt;Node5 -->
<g id="edge19" class="edge">
<title>Node12&#45;&gt;Node5</title>
<path fill="none" stroke="#191970" d="M638.5876,-168.2455C626.9943,-159.814 610.0252,-147.4729 596.5322,-137.6598"/>
<polygon fill="#191970" stroke="#191970" points="598.4047,-134.6938 588.2587,-131.6427 594.2874,-140.355 598.4047,-134.6938"/>
</g>
<!-- Node12&#45;&gt;Node7 -->
<g id="edge21" class="edge">
<title>Node12&#45;&gt;Node7</title>
<path fill="none" stroke="#191970" d="M652.5968,-168.4509C653.7385,-150.184 656.2528,-109.9553 657.7689,-85.6976"/>
<polygon fill="#191970" stroke="#191970" points="661.274,-85.7238 658.4047,-75.5249 654.2876,-85.2871 661.274,-85.7238"/>
</g>
<!-- Node12&#45;&gt;Node11 -->
<g id="edge22" class="edge">
<title>Node12&#45;&gt;Node11</title>
<path fill="none" stroke="#191970" d="M647.0354,-168.3195C640.1718,-155.1999 627.1374,-131.2073 614,-112 607.2303,-102.1025 598.92,-91.6435 591.8914,-83.2037"/>
<polygon fill="#191970" stroke="#191970" points="594.5283,-80.9016 585.3946,-75.5325 589.1866,-85.4256 594.5283,-80.9016"/>
</g>
<!-- Node13 -->
<g id="node14" class="node">
<title>Node13</title>
<polygon fill="none" stroke="#bfbfbf" points="737.5,-112.5 737.5,-131.5 784.5,-131.5 784.5,-112.5 737.5,-112.5"/>
<text text-anchor="middle" x="761" y="-119.5" font-family="Helvetica,sans-Serif" font-size="10.00" fill="#000000">vector</text>
</g>
<!-- Node12&#45;&gt;Node13 -->
<g id="edge20" class="edge">
<title>Node12&#45;&gt;Node13</title>
<path fill="none" stroke="#191970" d="M670.9864,-168.2455C688.1792,-159.4125 713.7238,-146.2887 733.2132,-136.2758"/>
<polygon fill="#191970" stroke="#191970" points="734.9359,-139.3257 742.2312,-131.6427 731.737,-133.0993 734.9359,-139.3257"/>
</g>
<!-- Node14&#45;&gt;Node13 -->
<g id="edge27" class="edge">
<title>Node14&#45;&gt;Node13</title>
<path fill="none" stroke="#191970" d="M877.7612,-168.3733C854.7211,-159.2226 819.8786,-145.3844 794.2499,-135.2057"/>
<polygon fill="#191970" stroke="#191970" points="795.5082,-131.9395 784.9225,-131.5011 792.9244,-138.4452 795.5082,-131.9395"/>
</g>
<!-- Node15 -->
<g id="node16" class="node">
<title>Node15</title>
<polygon fill="none" stroke="#bfbfbf" points="1018,-112.5 1018,-131.5 1076,-131.5 1076,-112.5 1018,-112.5"/>
<text text-anchor="middle" x="1047" y="-119.5" font-family="Helvetica,sans-Serif" font-size="10.00" fill="#000000">memory</text>
</g>
<!-- Node14&#45;&gt;Node15 -->
<g id="edge24" class="edge">
<title>Node14&#45;&gt;Node15</title>
<path fill="none" stroke="#191970" d="M926.9264,-168.3733C950.6202,-159.2226 986.4511,-145.3844 1012.8068,-135.2057"/>
<polygon fill="#191970" stroke="#191970" points="1014.3314,-138.3689 1022.3989,-131.5011 1011.8094,-131.8389 1014.3314,-138.3689"/>
</g>
<!-- Node16 -->
<g id="node17" class="node">
<title>Node16</title>
<polygon fill="none" stroke="#bfbfbf" points="802.5,-112.5 802.5,-131.5 867.5,-131.5 867.5,-112.5 802.5,-112.5"/>
<text text-anchor="middle" x="835" y="-119.5" font-family="Helvetica,sans-Serif" font-size="10.00" fill="#000000">functional</text>
</g>
<!-- Node14&#45;&gt;Node16 -->
<g id="edge25" class="edge">
<title>Node14&#45;&gt;Node16</title>
<path fill="none" stroke="#191970" d="M890.3295,-168.2455C880.4339,-159.9746 866.0373,-147.9416 854.4099,-138.2232"/>
<polygon fill="#191970" stroke="#191970" points="856.4542,-135.3703 846.5368,-131.6427 851.965,-140.7413 856.4542,-135.3703"/>
</g>
<!-- Node17 -->
<g id="node18" class="node">
<title>Node17</title>
<polygon fill="none" stroke="#bfbfbf" points="886,-112.5 886,-131.5 918,-131.5 918,-112.5 886,-112.5"/>
<text text-anchor="middle" x="902" y="-119.5" font-family="Helvetica,sans-Serif" font-size="10.00" fill="#000000">list</text>
</g>
<!-- Node14&#45;&gt;Node17 -->
<g id="edge26" class="edge">
<title>Node14&#45;&gt;Node17</title>
<path fill="none" stroke="#191970" d="M902,-168.2455C902,-160.9382 902,-150.6944 902,-141.7046"/>
<polygon fill="#191970" stroke="#191970" points="905.5001,-141.6426 902,-131.6427 898.5001,-141.6427 905.5001,-141.6426"/>
</g>
<!-- Node18 -->
<g id="node19" class="node">
<title>Node18</title>
<polygon fill="none" stroke="#bfbfbf" points="936,-112.5 936,-131.5 1000,-131.5 1000,-112.5 936,-112.5"/>
<text text-anchor="middle" x="968" y="-119.5" font-family="Helvetica,sans-Serif" font-size="10.00" fill="#000000">algorithm</text>
</g>
<!-- Node14&#45;&gt;Node18 -->
<g id="edge28" class="edge">
<title>Node14&#45;&gt;Node18</title>
<path fill="none" stroke="#191970" d="M913.4963,-168.2455C923.2442,-159.9746 937.4259,-147.9416 948.8798,-138.2232"/>
<polygon fill="#191970" stroke="#191970" points="951.2747,-140.7813 956.6354,-131.6427 946.7459,-135.4437 951.2747,-140.7813"/>
</g>
<!-- Node19&#45;&gt;Node1 -->
<g id="edge32" class="edge">
<title>Node19&#45;&gt;Node1</title>
<path fill="none" stroke="#191970" d="M442.0514,-280.2455C446.0019,-272.617 451.6097,-261.7881 456.4058,-252.5267"/>
<polygon fill="#191970" stroke="#191970" points="459.5159,-254.1321 461.0065,-243.6427 453.2999,-250.9131 459.5159,-254.1321"/>
</g>
<!-- Node19&#45;&gt;Node2 -->
<g id="edge31" class="edge">
<title>Node19&#45;&gt;Node2</title>
<path fill="none" stroke="#191970" d="M407.9888,-288.8303C310.3867,-284.1174 0,-262.4879 0,-178 0,-178 0,-178 0,-122 0,-85.1996 18.8959,-75.6674 50,-56 81.0538,-36.3643 185.1723,-20.8155 238.6685,-13.9004"/>
<polygon fill="#191970" stroke="#191970" points="239.176,-17.3641 248.6562,-12.6338 238.2953,-10.4197 239.176,-17.3641"/>
</g>
<!-- Node20&#45;&gt;Node7 -->
<g id="edge37" class="edge">
<title>Node20&#45;&gt;Node7</title>
<path fill="none" stroke="#191970" d="M1127.7996,-224.2643C1121.649,-197.9545 1103.5118,-126.4413 1085,-112 1054.0796,-87.8787 785.0497,-72.284 691.1628,-67.5356"/>
<polygon fill="#191970" stroke="#191970" points="691.2735,-64.0369 681.1118,-67.0351 690.9253,-71.0282 691.2735,-64.0369"/>
</g>
<!-- Node20&#45;&gt;Node14 -->
<g id="edge38" class="edge">
<title>Node20&#45;&gt;Node14</title>
<path fill="none" stroke="#191970" d="M1091.0645,-224.4369C1052.208,-214.8932 992.407,-200.2052 950.4911,-189.9101"/>
<polygon fill="#191970" stroke="#191970" points="951.3212,-186.51 940.7749,-187.5237 949.6514,-193.308 951.3212,-186.51"/>
</g>
<!-- Node21 -->
<g id="node22" class="node">
<title>Node21</title>
<polygon fill="none" stroke="#bfbfbf" points="1198,-168.5 1198,-187.5 1242,-187.5 1242,-168.5 1198,-168.5"/>
<text text-anchor="middle" x="1220" y="-175.5" font-family="Helvetica,sans-Serif" font-size="10.00" fill="#000000">ctime</text>
</g>
<!-- Node20&#45;&gt;Node21 -->
<g id="edge34" class="edge">
<title>Node20&#45;&gt;Node21</title>
<path fill="none" stroke="#191970" d="M1145.6768,-224.2455C1159.4856,-215.6534 1179.8193,-203.0014 1195.7292,-193.1018"/>
<polygon fill="#191970" stroke="#191970" points="1197.8613,-195.8974 1204.5028,-187.6427 1194.1632,-189.954 1197.8613,-195.8974"/>
</g>
<!-- Node22 -->
<g id="node23" class="node">
<title>Node22</title>
<polygon fill="none" stroke="#bfbfbf" points="1260,-168.5 1260,-187.5 1310,-187.5 1310,-168.5 1260,-168.5"/>
<text text-anchor="middle" x="1285" y="-175.5" font-family="Helvetica,sans-Serif" font-size="10.00" fill="#000000">chrono</text>
</g>
<!-- Node20&#45;&gt;Node22 -->
<g id="edge35" class="edge">
<title>Node20&#45;&gt;Node22</title>
<path fill="none" stroke="#191970" d="M1156.6454,-224.3733C1182.5836,-215.0021 1222.1287,-200.7148 1250.4672,-190.4764"/>
<polygon fill="#191970" stroke="#191970" points="1251.7672,-193.7282 1259.9829,-187.0384 1249.3886,-187.1447 1251.7672,-193.7282"/>
</g>
<!-- Node23 -->
<g id="node24" class="node">
<title>Node23</title>
<polygon fill="none" stroke="#bfbfbf" points="1132,-168.5 1132,-187.5 1180,-187.5 1180,-168.5 1132,-168.5"/>
<text text-anchor="middle" x="1156" y="-175.5" font-family="Helvetica,sans-Serif" font-size="10.00" fill="#000000">thread</text>
</g>
<!-- Node20&#45;&gt;Node23 -->
<g id="edge36" class="edge">
<title>Node20&#45;&gt;Node23</title>
<path fill="none" stroke="#191970" d="M1134.5289,-224.2455C1138.0334,-216.6973 1142.9927,-206.0158 1147.2623,-196.8197"/>
<polygon fill="#191970" stroke="#191970" points="1150.4864,-198.1867 1151.523,-187.6427 1144.1373,-195.2389 1150.4864,-198.1867"/>
</g>
</g>
</svg>
