<?xml version="1.0" encoding="UTF-8" standalone="no"?>
<!DOCTYPE svg PUBLIC "-//W3C//DTD SVG 1.1//EN"
 "http://www.w3.org/Graphics/SVG/1.1/DTD/svg11.dtd">
<!-- Generated by graphviz version 2.40.1 (20161225.0304)
 -->
<!-- Title: src/util/TransitiveModel.hxx Pages: 1 -->
<svg width="955pt" height="308pt"
 viewBox="0.00 0.00 954.50 308.00" xmlns="http://www.w3.org/2000/svg" xmlns:xlink="http://www.w3.org/1999/xlink">
<g id="graph0" class="graph" transform="scale(1 1) rotate(0) translate(4 304)">
<title>src/util/TransitiveModel.hxx</title>
<!-- Node12 -->
<g id="node1" class="node">
<title>Node12</title>
<polygon fill="#bfbfbf" stroke="#000000" points="652,-280.5 652,-299.5 802,-299.5 802,-280.5 652,-280.5"/>
<text text-anchor="middle" x="727" y="-287.5" font-family="Helvetica,sans-Serif" font-size="10.00" fill="#000000">src/util/TransitiveModel.hxx</text>
</g>
<!-- Node13 -->
<g id="node2" class="node">
<title>Node13</title>
<g id="a_node2"><a xlink:href="Events_8hxx.html" target="_top" xlink:title="src/Events.hxx">
<polygon fill="none" stroke="#000000" points="683,-224.5 683,-243.5 771,-243.5 771,-224.5 683,-224.5"/>
<text text-anchor="middle" x="727" y="-231.5" font-family="Helvetica,sans-Serif" font-size="10.00" fill="#000000">src/Events.hxx</text>
</a>
</g>
</g>
<!-- Node12&#45;&gt;Node13 -->
<g id="edge1" class="edge">
<title>Node12&#45;&gt;Node13</title>
<path fill="none" stroke="#191970" d="M727,-270.1575C727,-261.155 727,-250.9199 727,-243.6427"/>
<polygon fill="#191970" stroke="#191970" points="723.5001,-270.2455 727,-280.2455 730.5001,-270.2456 723.5001,-270.2455"/>
</g>
<!-- Node14 -->
<g id="node3" class="node">
<title>Node14</title>
<g id="a_node3"><a xlink:href="GameService_8hxx.html" target="_top" xlink:title="src/GameService.hxx">
<polygon fill="none" stroke="#000000" points="667,-168.5 667,-187.5 787,-187.5 787,-168.5 667,-168.5"/>
<text text-anchor="middle" x="727" y="-175.5" font-family="Helvetica,sans-Serif" font-size="10.00" fill="#000000">src/GameService.hxx</text>
</a>
</g>
</g>
<!-- Node13&#45;&gt;Node14 -->
<g id="edge2" class="edge">
<title>Node13&#45;&gt;Node14</title>
<path fill="none" stroke="#191970" d="M727,-214.1575C727,-205.155 727,-194.9199 727,-187.6427"/>
<polygon fill="#191970" stroke="#191970" points="723.5001,-214.2455 727,-224.2455 730.5001,-214.2456 723.5001,-214.2455"/>
</g>
<!-- Node15 -->
<g id="node4" class="node">
<title>Node15</title>
<g id="a_node4"><a xlink:href="AudioMixer_8hxx.html" target="_top" xlink:title="src/services/AudioMixer.hxx">
<polygon fill="none" stroke="#000000" points="479,-112.5 479,-131.5 631,-131.5 631,-112.5 479,-112.5"/>
<text text-anchor="middle" x="555" y="-119.5" font-family="Helvetica,sans-Serif" font-size="10.00" fill="#000000">src/services/AudioMixer.hxx</text>
</a>
</g>
</g>
<!-- Node14&#45;&gt;Node15 -->
<g id="edge3" class="edge">
<title>Node14&#45;&gt;Node15</title>
<path fill="none" stroke="#191970" d="M687.6565,-165.1905C656.1449,-154.9309 612.6481,-140.7691 584.182,-131.5011"/>
<polygon fill="#191970" stroke="#191970" points="686.8399,-168.6054 697.4321,-168.3733 689.007,-161.9493 686.8399,-168.6054"/>
</g>
<!-- Node21 -->
<g id="node10" class="node">
<title>Node21</title>
<g id="a_node10"><a xlink:href="Game_8hxx.html" target="_top" xlink:title="src/Game.hxx">
<polygon fill="none" stroke="#000000" points="815,-56.5 815,-75.5 899,-75.5 899,-56.5 815,-56.5"/>
<text text-anchor="middle" x="857" y="-63.5" font-family="Helvetica,sans-Serif" font-size="10.00" fill="#000000">src/Game.hxx</text>
</a>
</g>
</g>
<!-- Node14&#45;&gt;Node21 -->
<g id="edge10" class="edge">
<title>Node14&#45;&gt;Node21</title>
<path fill="none" stroke="#191970" d="M762.3057,-164.2973C779.2281,-156.5564 799.0213,-145.6732 814,-132 832.1805,-115.4041 846.0532,-89.5168 852.6878,-75.6089"/>
<polygon fill="#191970" stroke="#191970" points="760.4884,-161.2721 752.7319,-168.4892 763.2961,-167.6844 760.4884,-161.2721"/>
</g>
<!-- Node24 -->
<g id="node13" class="node">
<title>Node24</title>
<g id="a_node13"><a xlink:href="Randomizer_8hxx.html" target="_top" xlink:title="src/services/Randomizer.hxx">
<polygon fill="none" stroke="#000000" points="649,-112.5 649,-131.5 805,-131.5 805,-112.5 649,-112.5"/>
<text text-anchor="middle" x="727" y="-119.5" font-family="Helvetica,sans-Serif" font-size="10.00" fill="#000000">src/services/Randomizer.hxx</text>
</a>
</g>
</g>
<!-- Node14&#45;&gt;Node24 -->
<g id="edge13" class="edge">
<title>Node14&#45;&gt;Node24</title>
<path fill="none" stroke="#191970" d="M727,-158.1575C727,-149.155 727,-138.9199 727,-131.6427"/>
<polygon fill="#191970" stroke="#191970" points="723.5001,-158.2455 727,-168.2455 730.5001,-158.2456 723.5001,-158.2455"/>
</g>
<!-- Node16 -->
<g id="node5" class="node">
<title>Node16</title>
<g id="a_node5"><a xlink:href="JsonSerialization_8hxx.html" target="_top" xlink:title="src/engine/common/JsonSerialization.hxx">
<polygon fill="none" stroke="#000000" points="329,-56.5 329,-75.5 547,-75.5 547,-56.5 329,-56.5"/>
<text text-anchor="middle" x="438" y="-63.5" font-family="Helvetica,sans-Serif" font-size="10.00" fill="#000000">src/engine/common/JsonSerialization.hxx</text>
</a>
</g>
</g>
<!-- Node15&#45;&gt;Node16 -->
<g id="edge4" class="edge">
<title>Node15&#45;&gt;Node16</title>
<path fill="none" stroke="#191970" d="M525.6958,-107.9741C504.512,-97.8348 476.4597,-84.408 457.8506,-75.5011"/>
<polygon fill="#191970" stroke="#191970" points="524.3559,-111.2129 534.887,-112.3733 527.378,-104.8989 524.3559,-111.2129"/>
</g>
<!-- Node20 -->
<g id="node9" class="node">
<title>Node20</title>
<g id="a_node9"><a xlink:href="AudioMixer_8cxx.html" target="_top" xlink:title="src/services/AudioMixer.cxx">
<polygon fill="none" stroke="#000000" points="524,-.5 524,-19.5 676,-19.5 676,-.5 524,-.5"/>
<text text-anchor="middle" x="600" y="-7.5" font-family="Helvetica,sans-Serif" font-size="10.00" fill="#000000">src/services/AudioMixer.cxx</text>
</a>
</g>
</g>
<!-- Node15&#45;&gt;Node20 -->
<g id="edge9" class="edge">
<title>Node15&#45;&gt;Node20</title>
<path fill="none" stroke="#191970" d="M562.664,-102.9253C572.3859,-78.7284 588.7751,-37.9376 596.173,-19.5249"/>
<polygon fill="#191970" stroke="#191970" points="559.3173,-101.867 558.8367,-112.4509 565.8126,-104.4768 559.3173,-101.867"/>
</g>
<!-- Node17 -->
<g id="node6" class="node">
<title>Node17</title>
<g id="a_node6"><a xlink:href="Settings_8cxx.html" target="_top" xlink:title="src/engine/basics/Settings.cxx">
<polygon fill="none" stroke="#000000" points="0,-.5 0,-19.5 164,-19.5 164,-.5 0,-.5"/>
<text text-anchor="middle" x="82" y="-7.5" font-family="Helvetica,sans-Serif" font-size="10.00" fill="#000000">src/engine/basics/Settings.cxx</text>
</a>
</g>
</g>
<!-- Node16&#45;&gt;Node17 -->
<g id="edge5" class="edge">
<title>Node16&#45;&gt;Node17</title>
<path fill="none" stroke="#191970" d="M366.937,-54.8215C301.2389,-44.487 204.6574,-29.2944 142.5433,-19.5237"/>
<polygon fill="#191970" stroke="#191970" points="366.7835,-58.3404 377.2059,-56.4369 367.8713,-51.4254 366.7835,-58.3404"/>
</g>
<!-- Node18 -->
<g id="node7" class="node">
<title>Node18</title>
<g id="a_node7"><a xlink:href="TerrainGenerator_8cxx.html" target="_top" xlink:title="src/engine/map/TerrainGenerator.cxx">
<polygon fill="none" stroke="#000000" points="182,-.5 182,-19.5 378,-19.5 378,-.5 182,-.5"/>
<text text-anchor="middle" x="280" y="-7.5" font-family="Helvetica,sans-Serif" font-size="10.00" fill="#000000">src/engine/map/TerrainGenerator.cxx</text>
</a>
</g>
</g>
<!-- Node16&#45;&gt;Node18 -->
<g id="edge6" class="edge">
<title>Node16&#45;&gt;Node18</title>
<path fill="none" stroke="#191970" d="M401.1045,-52.9231C372.2213,-42.686 332.7294,-28.6889 306.8067,-19.5011"/>
<polygon fill="#191970" stroke="#191970" points="400.2441,-56.3314 410.8388,-56.3733 402.5826,-49.7336 400.2441,-56.3314"/>
</g>
<!-- Node19 -->
<g id="node8" class="node">
<title>Node19</title>
<g id="a_node8"><a xlink:href="Map_8cxx.html" target="_top" xlink:title="src/engine/Map.cxx">
<polygon fill="none" stroke="#000000" points="396,-.5 396,-19.5 506,-19.5 506,-.5 396,-.5"/>
<text text-anchor="middle" x="451" y="-7.5" font-family="Helvetica,sans-Serif" font-size="10.00" fill="#000000">src/engine/Map.cxx</text>
</a>
</g>
</g>
<!-- Node16&#45;&gt;Node19 -->
<g id="edge7" class="edge">
<title>Node16&#45;&gt;Node19</title>
<path fill="none" stroke="#191970" d="M442.5375,-46.4538C444.6439,-37.3803 447.0536,-26.9998 448.7615,-19.6427"/>
<polygon fill="#191970" stroke="#191970" points="439.1165,-45.7131 440.2644,-56.2455 445.9351,-47.2961 439.1165,-45.7131"/>
</g>
<!-- Node16&#45;&gt;Node20 -->
<g id="edge8" class="edge">
<title>Node16&#45;&gt;Node20</title>
<path fill="none" stroke="#191970" d="M475.4422,-53.057C505.0901,-42.8084 545.8196,-28.729 572.5146,-19.5011"/>
<polygon fill="#191970" stroke="#191970" points="474.1565,-49.7982 465.8488,-56.3733 476.4436,-56.414 474.1565,-49.7982"/>
</g>
<!-- Node22 -->
<g id="node11" class="node">
<title>Node22</title>
<g id="a_node11"><a xlink:href="Game_8cxx.html" target="_top" xlink:title="src/Game.cxx">
<polygon fill="none" stroke="#000000" points="766.5,-.5 766.5,-19.5 849.5,-19.5 849.5,-.5 766.5,-.5"/>
<text text-anchor="middle" x="808" y="-7.5" font-family="Helvetica,sans-Serif" font-size="10.00" fill="#000000">src/Game.cxx</text>
</a>
</g>
</g>
<!-- Node21&#45;&gt;Node22 -->
<g id="edge11" class="edge">
<title>Node21&#45;&gt;Node22</title>
<path fill="none" stroke="#191970" d="M841.6878,-48.5004C833.3553,-38.9775 823.3647,-27.5596 816.4373,-19.6427"/>
<polygon fill="#191970" stroke="#191970" points="839.2457,-51.0245 848.4649,-56.2455 844.5138,-46.415 839.2457,-51.0245"/>
</g>
<!-- Node23 -->
<g id="node12" class="node">
<title>Node23</title>
<g id="a_node12"><a xlink:href="main_8cxx.html" target="_top" xlink:title="src/main.cxx">
<polygon fill="none" stroke="#000000" points="867.5,-.5 867.5,-19.5 946.5,-19.5 946.5,-.5 867.5,-.5"/>
<text text-anchor="middle" x="907" y="-7.5" font-family="Helvetica,sans-Serif" font-size="10.00" fill="#000000">src/main.cxx</text>
</a>
</g>
</g>
<!-- Node21&#45;&gt;Node23 -->
<g id="edge12" class="edge">
<title>Node21&#45;&gt;Node23</title>
<path fill="none" stroke="#191970" d="M872.6247,-48.5004C881.1273,-38.9775 891.3218,-27.5596 898.3905,-19.6427"/>
<polygon fill="#191970" stroke="#191970" points="869.7587,-46.4551 865.7093,-56.2455 874.9803,-51.1172 869.7587,-46.4551"/>
</g>
<!-- Node24&#45;&gt;Node20 -->
<g id="edge15" class="edge">
<title>Node24&#45;&gt;Node20</title>
<path fill="none" stroke="#191970" d="M684.9282,-108.6904C666.8943,-101.3282 646.654,-90.6464 632,-76 615.7879,-59.7963 606.5538,-33.7497 602.4998,-19.7126"/>
<polygon fill="#191970" stroke="#191970" points="684.0809,-112.1146 694.6706,-112.4431 686.5971,-105.5825 684.0809,-112.1146"/>
</g>
<!-- Node24&#45;&gt;Node21 -->
<g id="edge14" class="edge">
<title>Node24&#45;&gt;Node21</title>
<path fill="none" stroke="#191970" d="M758.6102,-108.3833C782.2535,-98.1985 813.9876,-84.5284 834.9438,-75.5011"/>
<polygon fill="#191970" stroke="#191970" points="757.1472,-105.2025 749.3478,-112.3733 759.9166,-111.6314 757.1472,-105.2025"/>
</g>
<!-- Node25 -->
<g id="node14" class="node">
<title>Node25</title>
<g id="a_node14"><a xlink:href="Randomizer_8cxx.html" target="_top" xlink:title="src/services/Randomizer.cxx">
<polygon fill="none" stroke="#000000" points="641.5,-56.5 641.5,-75.5 796.5,-75.5 796.5,-56.5 641.5,-56.5"/>
<text text-anchor="middle" x="719" y="-63.5" font-family="Helvetica,sans-Serif" font-size="10.00" fill="#000000">src/services/Randomizer.cxx</text>
</a>
</g>
</g>
<!-- Node24&#45;&gt;Node25 -->
<g id="edge16" class="edge">
<title>Node24&#45;&gt;Node25</title>
<path fill="none" stroke="#191970" d="M724.1654,-102.1575C722.8793,-93.155 721.4171,-82.9199 720.3775,-75.6427"/>
<polygon fill="#191970" stroke="#191970" points="720.7274,-102.8411 725.6065,-112.2455 727.657,-101.851 720.7274,-102.8411"/>
</g>
</g>
</svg>
