<?xml version="1.0" encoding="UTF-8" standalone="no"?>
<!DOCTYPE svg PUBLIC "-//W3C//DTD SVG 1.1//EN"
 "http://www.w3.org/Graphics/SVG/1.1/DTD/svg11.dtd">
<!-- Generated by graphviz version 2.40.1 (20161225.0304)
 -->
<!-- Title: src/engine/ui/basics/UIElement.hxx Pages: 1 -->
<svg width="953pt" height="263pt"
 viewBox="0.00 0.00 952.74 263.00" xmlns="http://www.w3.org/2000/svg" xmlns:xlink="http://www.w3.org/1999/xlink">
<g id="graph0" class="graph" transform="scale(1 1) rotate(0) translate(4 259)">
<title>src/engine/ui/basics/UIElement.hxx</title>
<!-- Node0 -->
<g id="node1" class="node">
<title>Node0</title>
<polygon fill="#bfbfbf" stroke="#000000" points="278.2367,-224.5 278.2367,-254.5 391.2367,-254.5 391.2367,-224.5 278.2367,-224.5"/>
<text text-anchor="start" x="286.2367" y="-242.5" font-family="Helvetica,sans-Serif" font-size="10.00" fill="#000000">src/engine/ui/basics</text>
<text text-anchor="middle" x="334.7367" y="-231.5" font-family="Helvetica,sans-Serif" font-size="10.00" fill="#000000">/UIElement.hxx</text>
</g>
<!-- Node1 -->
<g id="node2" class="node">
<title>Node1</title>
<polygon fill="none" stroke="#bfbfbf" points="257.7367,-.5 257.7367,-19.5 301.7367,-19.5 301.7367,-.5 257.7367,-.5"/>
<text text-anchor="middle" x="279.7367" y="-7.5" font-family="Helvetica,sans-Serif" font-size="10.00" fill="#000000">string</text>
</g>
<!-- Node0&#45;&gt;Node1 -->
<g id="edge1" class="edge">
<title>Node0&#45;&gt;Node1</title>
<path fill="none" stroke="#191970" d="M278.198,-237.7695C202.3917,-234.1218 73.9277,-222.8316 44.7367,-188 21.1773,-159.8882 -49.9448,-174.1366 60.7367,-56 85.7634,-29.2876 192.6051,-16.9766 247.2564,-12.3391"/>
<polygon fill="#191970" stroke="#191970" points="247.767,-15.8093 257.4511,-11.5119 247.2008,-8.8322 247.767,-15.8093"/>
</g>
<!-- Node2 -->
<g id="node3" class="node">
<title>Node2</title>
<g id="a_node3"><a xlink:href="mapEdit_8hxx.html" target="_top" xlink:title="../../basics/mapEdit.hxx">
<polygon fill="none" stroke="#000000" points="53.7367,-168.5 53.7367,-187.5 183.7367,-187.5 183.7367,-168.5 53.7367,-168.5"/>
<text text-anchor="middle" x="118.7367" y="-175.5" font-family="Helvetica,sans-Serif" font-size="10.00" fill="#000000">../../basics/mapEdit.hxx</text>
</a>
</g>
</g>
<!-- Node0&#45;&gt;Node2 -->
<g id="edge2" class="edge">
<title>Node0&#45;&gt;Node2</title>
<path fill="none" stroke="#191970" d="M281.8972,-224.4554C245.0667,-213.9689 196.5369,-200.1515 162.0022,-190.3187"/>
<polygon fill="#191970" stroke="#191970" points="162.7853,-186.9026 152.209,-187.5303 160.8683,-193.635 162.7853,-186.9026"/>
</g>
<!-- Node3 -->
<g id="node4" class="node">
<title>Node3</title>
<g id="a_node4"><a xlink:href="ResourcesManager_8hxx.html" target="_top" xlink:title="../../ResourcesManager.hxx">
<polygon fill="none" stroke="#000000" points="211.7367,-168.5 211.7367,-187.5 357.7367,-187.5 357.7367,-168.5 211.7367,-168.5"/>
<text text-anchor="middle" x="284.7367" y="-175.5" font-family="Helvetica,sans-Serif" font-size="10.00" fill="#000000">../../ResourcesManager.hxx</text>
</a>
</g>
</g>
<!-- Node0&#45;&gt;Node3 -->
<g id="edge4" class="edge">
<title>Node0&#45;&gt;Node3</title>
<path fill="none" stroke="#191970" d="M322.3772,-224.2977C315.3643,-215.672 306.5507,-204.8312 299.2153,-195.8087"/>
<polygon fill="#191970" stroke="#191970" points="301.7664,-193.3982 292.7423,-187.8469 296.335,-197.8141 301.7664,-193.3982"/>
</g>
<!-- Node6 -->
<g id="node7" class="node">
<title>Node6</title>
<polygon fill="none" stroke="#bfbfbf" points="403.7367,-56.5 403.7367,-75.5 447.7367,-75.5 447.7367,-56.5 403.7367,-56.5"/>
<text text-anchor="middle" x="425.7367" y="-63.5" font-family="Helvetica,sans-Serif" font-size="10.00" fill="#000000">SDL.h</text>
</g>
<!-- Node0&#45;&gt;Node6 -->
<g id="edge28" class="edge">
<title>Node0&#45;&gt;Node6</title>
<path fill="none" stroke="#191970" d="M344.6879,-224.4279C351.2332,-214.2921 359.833,-200.5413 366.7367,-188 377.1904,-169.0098 403.1647,-114.1457 416.8992,-84.8927"/>
<polygon fill="#191970" stroke="#191970" points="420.1262,-86.2545 421.2013,-75.7144 413.7879,-83.2836 420.1262,-86.2545"/>
</g>
<!-- Node11 -->
<g id="node12" class="node">
<title>Node11</title>
<g id="a_node12"><a xlink:href="WindowManager_8hxx.html" target="_top" xlink:title="../../WindowManager.hxx">
<polygon fill="none" stroke="#000000" points="452.7367,-168.5 452.7367,-187.5 588.7367,-187.5 588.7367,-168.5 452.7367,-168.5"/>
<text text-anchor="middle" x="520.7367" y="-175.5" font-family="Helvetica,sans-Serif" font-size="10.00" fill="#000000">../../WindowManager.hxx</text>
</a>
</g>
</g>
<!-- Node0&#45;&gt;Node11 -->
<g id="edge16" class="edge">
<title>Node0&#45;&gt;Node11</title>
<path fill="none" stroke="#191970" d="M380.2374,-224.4554C411.5442,-214.104 452.6676,-200.5067 482.3257,-190.7004"/>
<polygon fill="#191970" stroke="#191970" points="483.5176,-193.9927 491.9133,-187.5303 481.3201,-187.3466 483.5176,-193.9927"/>
</g>
<!-- Node13 -->
<g id="node14" class="node">
<title>Node13</title>
<g id="a_node14"><a xlink:href="signal_8hxx.html" target="_top" xlink:title="../../basics/signal.hxx">
<polygon fill="none" stroke="#000000" points="677.2367,-168.5 677.2367,-187.5 796.2367,-187.5 796.2367,-168.5 677.2367,-168.5"/>
<text text-anchor="middle" x="736.7367" y="-175.5" font-family="Helvetica,sans-Serif" font-size="10.00" fill="#000000">../../basics/signal.hxx</text>
</a>
</g>
</g>
<!-- Node0&#45;&gt;Node13 -->
<g id="edge22" class="edge">
<title>Node0&#45;&gt;Node13</title>
<path fill="none" stroke="#191970" d="M391.4809,-230.819C463.7689,-219.76 588.6704,-200.6519 666.7774,-188.7027"/>
<polygon fill="#191970" stroke="#191970" points="667.6503,-192.11 677.006,-187.1379 666.5916,-185.1905 667.6503,-192.11"/>
</g>
<!-- Node2&#45;&gt;Node1 -->
<g id="edge3" class="edge">
<title>Node2&#45;&gt;Node1</title>
<path fill="none" stroke="#191970" d="M109.337,-168.4404C88.8613,-146.4593 44.267,-91.4908 72.7367,-56 94.2876,-29.1343 194.9168,-16.9671 247.5156,-12.3641"/>
<polygon fill="#191970" stroke="#191970" points="247.9868,-15.837 257.6613,-11.5181 247.405,-8.8612 247.9868,-15.837"/>
</g>
<!-- Node4 -->
<g id="node5" class="node">
<title>Node4</title>
<polygon fill="none" stroke="#bfbfbf" points="413.7367,-112.5 413.7367,-131.5 473.7367,-131.5 473.7367,-112.5 413.7367,-112.5"/>
<text text-anchor="middle" x="443.7367" y="-119.5" font-family="Helvetica,sans-Serif" font-size="10.00" fill="#000000">iostream</text>
</g>
<!-- Node3&#45;&gt;Node4 -->
<g id="edge5" class="edge">
<title>Node3&#45;&gt;Node4</title>
<path fill="none" stroke="#191970" d="M312.0698,-168.3733C338.2802,-159.1419 378.0351,-145.1402 407.0035,-134.9375"/>
<polygon fill="#191970" stroke="#191970" points="408.4909,-138.1244 416.7603,-131.5011 406.1655,-131.5219 408.4909,-138.1244"/>
</g>
<!-- Node5 -->
<g id="node6" class="node">
<title>Node5</title>
<polygon fill="none" stroke="#bfbfbf" points="82.2367,-56.5 82.2367,-75.5 175.2367,-75.5 175.2367,-56.5 82.2367,-56.5"/>
<text text-anchor="middle" x="128.7367" y="-63.5" font-family="Helvetica,sans-Serif" font-size="10.00" fill="#000000">unordered_map</text>
</g>
<!-- Node3&#45;&gt;Node5 -->
<g id="edge6" class="edge">
<title>Node3&#45;&gt;Node5</title>
<path fill="none" stroke="#191970" d="M268.7136,-168.3835C253.9256,-159.3636 231.4859,-145.3074 212.7367,-132 189.9407,-115.8203 164.869,-95.8137 148.1037,-82.0953"/>
<polygon fill="#191970" stroke="#191970" points="150.095,-79.2012 140.1498,-75.5483 145.6463,-84.6058 150.095,-79.2012"/>
</g>
<!-- Node3&#45;&gt;Node6 -->
<g id="edge7" class="edge">
<title>Node3&#45;&gt;Node6</title>
<path fill="none" stroke="#191970" d="M296.7583,-168.4509C321.0038,-149.1921 375.9815,-105.5218 405.7279,-81.8935"/>
<polygon fill="#191970" stroke="#191970" points="408.0922,-84.4854 413.7456,-75.5249 403.7383,-79.0041 408.0922,-84.4854"/>
</g>
<!-- Node7 -->
<g id="node8" class="node">
<title>Node7</title>
<g id="a_node8"><a xlink:href="TileManager_8hxx.html" target="_top" xlink:title="TileManager.hxx">
<polygon fill="none" stroke="#000000" points="222.2367,-112.5 222.2367,-131.5 319.2367,-131.5 319.2367,-112.5 222.2367,-112.5"/>
<text text-anchor="middle" x="270.7367" y="-119.5" font-family="Helvetica,sans-Serif" font-size="10.00" fill="#000000">TileManager.hxx</text>
</a>
</g>
</g>
<!-- Node3&#45;&gt;Node7 -->
<g id="edge8" class="edge">
<title>Node3&#45;&gt;Node7</title>
<path fill="none" stroke="#191970" d="M282.2981,-168.2455C280.4512,-160.8579 277.8539,-150.4689 275.5889,-141.4087"/>
<polygon fill="#191970" stroke="#191970" points="278.9683,-140.4952 273.1474,-131.6427 272.1773,-142.193 278.9683,-140.4952"/>
</g>
<!-- Node7&#45;&gt;Node1 -->
<g id="edge11" class="edge">
<title>Node7&#45;&gt;Node1</title>
<path fill="none" stroke="#191970" d="M271.504,-112.4509C272.9719,-94.184 276.2046,-53.9553 278.1539,-29.6976"/>
<polygon fill="#191970" stroke="#191970" points="281.659,-29.7731 278.9713,-19.5249 274.6815,-29.2124 281.659,-29.7731"/>
</g>
<!-- Node7&#45;&gt;Node5 -->
<g id="edge10" class="edge">
<title>Node7&#45;&gt;Node5</title>
<path fill="none" stroke="#191970" d="M246.326,-112.3733C223.1225,-103.2226 188.0329,-89.3844 162.2225,-79.2057"/>
<polygon fill="#191970" stroke="#191970" points="163.4156,-75.9139 152.8288,-75.5011 160.8475,-82.4258 163.4156,-75.9139"/>
</g>
<!-- Node7&#45;&gt;Node6 -->
<g id="edge9" class="edge">
<title>Node7&#45;&gt;Node6</title>
<path fill="none" stroke="#191970" d="M297.3822,-112.3733C324.172,-102.6944 365.477,-87.7712 393.9584,-77.4812"/>
<polygon fill="#191970" stroke="#191970" points="395.2373,-80.7407 403.453,-74.0509 392.8587,-74.1572 395.2373,-80.7407"/>
</g>
<!-- Node8 -->
<g id="node9" class="node">
<title>Node8</title>
<g id="a_node9"><a xlink:href="tileData_8hxx.html" target="_top" xlink:title="tileData.hxx">
<polygon fill="none" stroke="#000000" points="308.2367,-56.5 308.2367,-75.5 385.2367,-75.5 385.2367,-56.5 308.2367,-56.5"/>
<text text-anchor="middle" x="346.7367" y="-63.5" font-family="Helvetica,sans-Serif" font-size="10.00" fill="#000000">tileData.hxx</text>
</a>
</g>
</g>
<!-- Node7&#45;&gt;Node8 -->
<g id="edge12" class="edge">
<title>Node7&#45;&gt;Node8</title>
<path fill="none" stroke="#191970" d="M283.9749,-112.2455C295.4177,-103.814 312.1663,-91.4729 325.4842,-81.6598"/>
<polygon fill="#191970" stroke="#191970" points="327.6759,-84.3924 333.6502,-75.6427 323.5234,-78.757 327.6759,-84.3924"/>
</g>
<!-- Node9 -->
<g id="node10" class="node">
<title>Node9</title>
<polygon fill="none" stroke="#bfbfbf" points="193.7367,-56.5 193.7367,-75.5 251.7367,-75.5 251.7367,-56.5 193.7367,-56.5"/>
<text text-anchor="middle" x="222.7367" y="-63.5" font-family="Helvetica,sans-Serif" font-size="10.00" fill="#000000">json.hxx</text>
</g>
<!-- Node7&#45;&gt;Node9 -->
<g id="edge14" class="edge">
<title>Node7&#45;&gt;Node9</title>
<path fill="none" stroke="#191970" d="M262.3758,-112.2455C255.5617,-104.2958 245.7686,-92.8706 237.6215,-83.3656"/>
<polygon fill="#191970" stroke="#191970" points="240.1672,-80.9575 231.0019,-75.6427 234.8524,-85.513 240.1672,-80.9575"/>
</g>
<!-- Node10 -->
<g id="node11" class="node">
<title>Node10</title>
<g id="a_node11"><a xlink:href="Singleton_8hxx.html" target="_top" xlink:title="Singleton.hxx">
<polygon fill="none" stroke="#000000" points="466.2367,-56.5 466.2367,-75.5 549.2367,-75.5 549.2367,-56.5 466.2367,-56.5"/>
<text text-anchor="middle" x="507.7367" y="-63.5" font-family="Helvetica,sans-Serif" font-size="10.00" fill="#000000">Singleton.hxx</text>
</a>
</g>
</g>
<!-- Node7&#45;&gt;Node10 -->
<g id="edge15" class="edge">
<title>Node7&#45;&gt;Node10</title>
<path fill="none" stroke="#191970" d="M311.2092,-112.4369C351.6847,-102.8731 414.0234,-88.1432 457.607,-77.845"/>
<polygon fill="#191970" stroke="#191970" points="458.504,-81.2295 467.4312,-75.5237 456.8943,-74.4171 458.504,-81.2295"/>
</g>
<!-- Node8&#45;&gt;Node1 -->
<g id="edge13" class="edge">
<title>Node8&#45;&gt;Node1</title>
<path fill="none" stroke="#191970" d="M335.0662,-56.2455C325.1706,-47.9746 310.774,-35.9416 299.1466,-26.2232"/>
<polygon fill="#191970" stroke="#191970" points="301.1909,-23.3703 291.2735,-19.6427 296.7017,-28.7413 301.1909,-23.3703"/>
</g>
<!-- Node11&#45;&gt;Node1 -->
<g id="edge17" class="edge">
<title>Node11&#45;&gt;Node1</title>
<path fill="none" stroke="#191970" d="M529.111,-168.2241C547.2918,-145.7879 586.5123,-89.9283 557.7367,-56 541.9355,-37.3694 381.5452,-19.8072 311.8192,-12.9885"/>
<polygon fill="#191970" stroke="#191970" points="312.1197,-9.5014 301.8297,-12.0247 311.4473,-16.469 312.1197,-9.5014"/>
</g>
<!-- Node11&#45;&gt;Node4 -->
<g id="edge18" class="edge">
<title>Node11&#45;&gt;Node4</title>
<path fill="none" stroke="#191970" d="M507.3243,-168.2455C495.731,-159.814 478.762,-147.4729 465.2689,-137.6598"/>
<polygon fill="#191970" stroke="#191970" points="467.1414,-134.6938 456.9954,-131.6427 463.0242,-140.355 467.1414,-134.6938"/>
</g>
<!-- Node11&#45;&gt;Node6 -->
<g id="edge20" class="edge">
<title>Node11&#45;&gt;Node6</title>
<path fill="none" stroke="#191970" d="M516.5613,-168.3356C510.4249,-154.8115 498.0257,-129.8924 482.7367,-112 472.9591,-100.5575 460.0384,-89.8627 448.971,-81.6702"/>
<polygon fill="#191970" stroke="#191970" points="450.7568,-78.6443 440.588,-75.67 446.6826,-84.3364 450.7568,-78.6443"/>
</g>
<!-- Node11&#45;&gt;Node10 -->
<g id="edge21" class="edge">
<title>Node11&#45;&gt;Node10</title>
<path fill="none" stroke="#191970" d="M520.2869,-168.1304C519.6296,-155.2012 518.2078,-131.8414 515.7367,-112 514.6623,-103.373 513.084,-93.9008 511.6126,-85.8057"/>
<polygon fill="#191970" stroke="#191970" points="515.0237,-85.0067 509.7298,-75.8293 508.1451,-86.305 515.0237,-85.0067"/>
</g>
<!-- Node12 -->
<g id="node13" class="node">
<title>Node12</title>
<polygon fill="none" stroke="#bfbfbf" points="606.2367,-112.5 606.2367,-131.5 653.2367,-131.5 653.2367,-112.5 606.2367,-112.5"/>
<text text-anchor="middle" x="629.7367" y="-119.5" font-family="Helvetica,sans-Serif" font-size="10.00" fill="#000000">vector</text>
</g>
<!-- Node11&#45;&gt;Node12 -->
<g id="edge19" class="edge">
<title>Node11&#45;&gt;Node12</title>
<path fill="none" stroke="#191970" d="M539.7231,-168.2455C556.9159,-159.4125 582.4605,-146.2887 601.9499,-136.2758"/>
<polygon fill="#191970" stroke="#191970" points="603.6726,-139.3257 610.9679,-131.6427 600.4737,-133.0993 603.6726,-139.3257"/>
</g>
<!-- Node13&#45;&gt;Node12 -->
<g id="edge26" class="edge">
<title>Node13&#45;&gt;Node12</title>
<path fill="none" stroke="#191970" d="M718.0987,-168.2455C701.2981,-159.4527 676.3733,-146.4079 657.2749,-136.4125"/>
<polygon fill="#191970" stroke="#191970" points="658.644,-133.1787 648.1611,-131.6427 655.3981,-139.3807 658.644,-133.1787"/>
</g>
<!-- Node14 -->
<g id="node15" class="node">
<title>Node14</title>
<polygon fill="none" stroke="#bfbfbf" points="886.7367,-112.5 886.7367,-131.5 944.7367,-131.5 944.7367,-112.5 886.7367,-112.5"/>
<text text-anchor="middle" x="915.7367" y="-119.5" font-family="Helvetica,sans-Serif" font-size="10.00" fill="#000000">memory</text>
</g>
<!-- Node13&#45;&gt;Node14 -->
<g id="edge23" class="edge">
<title>Node13&#45;&gt;Node14</title>
<path fill="none" stroke="#191970" d="M767.5079,-168.3733C797.7641,-158.9076 844.0524,-144.4264 876.8422,-134.1681"/>
<polygon fill="#191970" stroke="#191970" points="878.0536,-137.4565 886.5524,-131.1303 875.9635,-130.7758 878.0536,-137.4565"/>
</g>
<!-- Node15 -->
<g id="node16" class="node">
<title>Node15</title>
<polygon fill="none" stroke="#bfbfbf" points="671.2367,-112.5 671.2367,-131.5 736.2367,-131.5 736.2367,-112.5 671.2367,-112.5"/>
<text text-anchor="middle" x="703.7367" y="-119.5" font-family="Helvetica,sans-Serif" font-size="10.00" fill="#000000">functional</text>
</g>
<!-- Node13&#45;&gt;Node15 -->
<g id="edge24" class="edge">
<title>Node13&#45;&gt;Node15</title>
<path fill="none" stroke="#191970" d="M730.9886,-168.2455C726.4932,-160.617 720.1119,-149.7881 714.6543,-140.5267"/>
<polygon fill="#191970" stroke="#191970" points="717.5114,-138.4811 709.419,-131.6427 711.4806,-142.035 717.5114,-138.4811"/>
</g>
<!-- Node16 -->
<g id="node17" class="node">
<title>Node16</title>
<polygon fill="none" stroke="#bfbfbf" points="754.7367,-112.5 754.7367,-131.5 786.7367,-131.5 786.7367,-112.5 754.7367,-112.5"/>
<text text-anchor="middle" x="770.7367" y="-119.5" font-family="Helvetica,sans-Serif" font-size="10.00" fill="#000000">list</text>
</g>
<!-- Node13&#45;&gt;Node16 -->
<g id="edge25" class="edge">
<title>Node13&#45;&gt;Node16</title>
<path fill="none" stroke="#191970" d="M742.6591,-168.2455C747.3394,-160.5367 754.004,-149.5598 759.6656,-140.2348"/>
<polygon fill="#191970" stroke="#191970" points="762.6842,-142.007 764.8822,-131.6427 756.7006,-138.3741 762.6842,-142.007"/>
</g>
<!-- Node17 -->
<g id="node18" class="node">
<title>Node17</title>
<polygon fill="none" stroke="#bfbfbf" points="804.7367,-112.5 804.7367,-131.5 868.7367,-131.5 868.7367,-112.5 804.7367,-112.5"/>
<text text-anchor="middle" x="836.7367" y="-119.5" font-family="Helvetica,sans-Serif" font-size="10.00" fill="#000000">algorithm</text>
</g>
<!-- Node13&#45;&gt;Node17 -->
<g id="edge27" class="edge">
<title>Node13&#45;&gt;Node17</title>
<path fill="none" stroke="#191970" d="M754.1554,-168.2455C769.7852,-159.4928 792.9386,-146.527 810.7552,-136.5496"/>
<polygon fill="#191970" stroke="#191970" points="812.5027,-139.5825 819.5177,-131.6427 809.0824,-133.475 812.5027,-139.5825"/>
</g>
</g>
</svg>
