<?xml version="1.0" encoding="UTF-8" standalone="no"?>
<!DOCTYPE svg PUBLIC "-//W3C//DTD SVG 1.1//EN"
 "http://www.w3.org/Graphics/SVG/1.1/DTD/svg11.dtd">
<!-- Generated by graphviz version 2.40.1 (20161225.0304)
 -->
<!-- Title: src/engine/ui/basics/UIElement.cxx Pages: 1 -->
<svg width="1516pt" height="319pt"
 viewBox="0.00 0.00 1515.83 319.00" xmlns="http://www.w3.org/2000/svg" xmlns:xlink="http://www.w3.org/1999/xlink">
<g id="graph0" class="graph" transform="scale(1 1) rotate(0) translate(4 315)">
<title>src/engine/ui/basics/UIElement.cxx</title>
<!-- Node0 -->
<g id="node1" class="node">
<title>Node0</title>
<polygon fill="#bfbfbf" stroke="#000000" points="517.3303,-280.5 517.3303,-310.5 630.3303,-310.5 630.3303,-280.5 517.3303,-280.5"/>
<text text-anchor="start" x="525.3303" y="-298.5" font-family="Helvetica,sans-Serif" font-size="10.00" fill="#000000">src/engine/ui/basics</text>
<text text-anchor="middle" x="573.8303" y="-287.5" font-family="Helvetica,sans-Serif" font-size="10.00" fill="#000000">/UIElement.cxx</text>
</g>
<!-- Node1 -->
<g id="node2" class="node">
<title>Node1</title>
<g id="a_node2"><a xlink:href="UIElement_8hxx.html" target="_top" xlink:title="UIElement.hxx">
<polygon fill="none" stroke="#000000" points="388.3303,-224.5 388.3303,-243.5 477.3303,-243.5 477.3303,-224.5 388.3303,-224.5"/>
<text text-anchor="middle" x="432.8303" y="-231.5" font-family="Helvetica,sans-Serif" font-size="10.00" fill="#000000">UIElement.hxx</text>
</a>
</g>
</g>
<!-- Node0&#45;&gt;Node1 -->
<g id="edge1" class="edge">
<title>Node0&#45;&gt;Node1</title>
<path fill="none" stroke="#191970" d="M539.3378,-280.4554C516.3275,-270.419 486.3217,-257.3314 464.0248,-247.6061"/>
<polygon fill="#191970" stroke="#191970" points="465.2456,-244.3202 454.6803,-243.5303 462.447,-250.7364 465.2456,-244.3202"/>
</g>
<!-- Node19 -->
<g id="node20" class="node">
<title>Node19</title>
<g id="a_node20"><a xlink:href="LOG_8hxx.html" target="_top" xlink:title="../../basics/LOG.hxx">
<polygon fill="none" stroke="#000000" points="652.8303,-112.5 652.8303,-131.5 762.8303,-131.5 762.8303,-112.5 652.8303,-112.5"/>
<text text-anchor="middle" x="707.8303" y="-119.5" font-family="Helvetica,sans-Serif" font-size="10.00" fill="#000000">../../basics/LOG.hxx</text>
</a>
</g>
</g>
<!-- Node0&#45;&gt;Node19 -->
<g id="edge30" class="edge">
<title>Node0&#45;&gt;Node19</title>
<path fill="none" stroke="#191970" d="M571.7671,-280.272C569.1226,-254.2821 567.625,-200.9798 593.8303,-168 606.5514,-151.9902 625.719,-141.5209 644.7258,-134.6872"/>
<polygon fill="#191970" stroke="#191970" points="645.9127,-137.9813 654.3137,-131.5258 643.7206,-131.3334 645.9127,-137.9813"/>
</g>
<!-- Node24 -->
<g id="node25" class="node">
<title>Node24</title>
<g id="a_node25"><a xlink:href="Settings_8hxx.html" target="_top" xlink:title="Settings.hxx">
<polygon fill="none" stroke="#000000" points="602.3303,-168.5 602.3303,-187.5 679.3303,-187.5 679.3303,-168.5 602.3303,-168.5"/>
<text text-anchor="middle" x="640.8303" y="-175.5" font-family="Helvetica,sans-Serif" font-size="10.00" fill="#000000">Settings.hxx</text>
</a>
</g>
</g>
<!-- Node0&#45;&gt;Node24 -->
<g id="edge37" class="edge">
<title>Node0&#45;&gt;Node24</title>
<path fill="none" stroke="#191970" d="M582.5894,-280.1389C594.8801,-258.5843 617.2095,-219.4245 630.361,-196.3604"/>
<polygon fill="#191970" stroke="#191970" points="633.4663,-197.9802 635.3794,-187.5595 627.3854,-194.5128 633.4663,-197.9802"/>
</g>
<!-- Node2 -->
<g id="node3" class="node">
<title>Node2</title>
<polygon fill="none" stroke="#bfbfbf" points="97.8303,-.5 97.8303,-19.5 141.8303,-19.5 141.8303,-.5 97.8303,-.5"/>
<text text-anchor="middle" x="119.8303" y="-7.5" font-family="Helvetica,sans-Serif" font-size="10.00" fill="#000000">string</text>
</g>
<!-- Node1&#45;&gt;Node2 -->
<g id="edge2" class="edge">
<title>Node1&#45;&gt;Node2</title>
<path fill="none" stroke="#191970" d="M388.3184,-230.9473C293.2093,-224.0995 76.5455,-206.6461 48.8303,-188 -1.17,-154.3611 -14.87,-106.6191 17.8303,-56 33.1646,-32.263 64.0083,-20.6493 87.7833,-15.0457"/>
<polygon fill="#191970" stroke="#191970" points="88.7381,-18.4214 97.8005,-12.933 87.2935,-11.572 88.7381,-18.4214"/>
</g>
<!-- Node3 -->
<g id="node4" class="node">
<title>Node3</title>
<g id="a_node4"><a xlink:href="mapEdit_8hxx.html" target="_top" xlink:title="../../basics/mapEdit.hxx">
<polygon fill="none" stroke="#000000" points="57.8303,-168.5 57.8303,-187.5 187.8303,-187.5 187.8303,-168.5 57.8303,-168.5"/>
<text text-anchor="middle" x="122.8303" y="-175.5" font-family="Helvetica,sans-Serif" font-size="10.00" fill="#000000">../../basics/mapEdit.hxx</text>
</a>
</g>
</g>
<!-- Node1&#45;&gt;Node3 -->
<g id="edge3" class="edge">
<title>Node1&#45;&gt;Node3</title>
<path fill="none" stroke="#191970" d="M388.0847,-225.9169C334.9069,-216.3106 245.8307,-200.2194 185.7343,-189.3633"/>
<polygon fill="#191970" stroke="#191970" points="186.0709,-185.8675 175.6079,-187.534 184.8264,-192.756 186.0709,-185.8675"/>
</g>
<!-- Node4 -->
<g id="node5" class="node">
<title>Node4</title>
<g id="a_node5"><a xlink:href="ResourcesManager_8hxx.html" target="_top" xlink:title="../../ResourcesManager.hxx">
<polygon fill="none" stroke="#000000" points="258.8303,-168.5 258.8303,-187.5 404.8303,-187.5 404.8303,-168.5 258.8303,-168.5"/>
<text text-anchor="middle" x="331.8303" y="-175.5" font-family="Helvetica,sans-Serif" font-size="10.00" fill="#000000">../../ResourcesManager.hxx</text>
</a>
</g>
</g>
<!-- Node1&#45;&gt;Node4 -->
<g id="edge5" class="edge">
<title>Node1&#45;&gt;Node4</title>
<path fill="none" stroke="#191970" d="M415.2374,-224.2455C399.4513,-215.4928 376.0664,-202.527 358.0716,-192.5496"/>
<polygon fill="#191970" stroke="#191970" points="359.6644,-189.4308 349.2215,-187.6427 356.27,-195.5528 359.6644,-189.4308"/>
</g>
<!-- Node7 -->
<g id="node8" class="node">
<title>Node7</title>
<polygon fill="none" stroke="#bfbfbf" points="394.8303,-56.5 394.8303,-75.5 438.8303,-75.5 438.8303,-56.5 394.8303,-56.5"/>
<text text-anchor="middle" x="416.8303" y="-63.5" font-family="Helvetica,sans-Serif" font-size="10.00" fill="#000000">SDL.h</text>
</g>
<!-- Node1&#45;&gt;Node7 -->
<g id="edge29" class="edge">
<title>Node1&#45;&gt;Node7</title>
<path fill="none" stroke="#191970" d="M431.9242,-224.4862C429.395,-197.9293 422.2174,-122.5651 418.7508,-86.1655"/>
<polygon fill="#191970" stroke="#191970" points="422.1987,-85.451 417.7663,-75.8279 415.2302,-86.1147 422.1987,-85.451"/>
</g>
<!-- Node12 -->
<g id="node13" class="node">
<title>Node12</title>
<g id="a_node13"><a xlink:href="WindowManager_8hxx.html" target="_top" xlink:title="../../WindowManager.hxx">
<polygon fill="none" stroke="#000000" points="460.8303,-112.5 460.8303,-131.5 596.8303,-131.5 596.8303,-112.5 460.8303,-112.5"/>
<text text-anchor="middle" x="528.8303" y="-119.5" font-family="Helvetica,sans-Serif" font-size="10.00" fill="#000000">../../WindowManager.hxx</text>
</a>
</g>
</g>
<!-- Node1&#45;&gt;Node12 -->
<g id="edge17" class="edge">
<title>Node1&#45;&gt;Node12</title>
<path fill="none" stroke="#191970" d="M441.0152,-224.4509C457.2394,-205.5227 493.6754,-163.014 514.1492,-139.1279"/>
<polygon fill="#191970" stroke="#191970" points="516.8156,-141.3953 520.6661,-131.5249 511.5007,-136.8397 516.8156,-141.3953"/>
</g>
<!-- Node14 -->
<g id="node15" class="node">
<title>Node14</title>
<g id="a_node15"><a xlink:href="signal_8hxx.html" target="_top" xlink:title="../../basics/signal.hxx">
<polygon fill="none" stroke="#000000" points="1243.3303,-112.5 1243.3303,-131.5 1362.3303,-131.5 1362.3303,-112.5 1243.3303,-112.5"/>
<text text-anchor="middle" x="1302.8303" y="-119.5" font-family="Helvetica,sans-Serif" font-size="10.00" fill="#000000">../../basics/signal.hxx</text>
</a>
</g>
</g>
<!-- Node1&#45;&gt;Node14 -->
<g id="edge23" class="edge">
<title>Node1&#45;&gt;Node14</title>
<path fill="none" stroke="#191970" d="M477.4711,-228.2531C619.3895,-209.9832 1060.9625,-153.137 1233.1164,-130.9747"/>
<polygon fill="#191970" stroke="#191970" points="1233.608,-134.4404 1243.0792,-129.6921 1232.7141,-127.4976 1233.608,-134.4404"/>
</g>
<!-- Node3&#45;&gt;Node2 -->
<g id="edge4" class="edge">
<title>Node3&#45;&gt;Node2</title>
<path fill="none" stroke="#191970" d="M82.5378,-168.4495C63.3645,-161.6623 42.1901,-150.3805 30.8303,-132 13.0723,-103.2669 13.2651,-84.8514 30.8303,-56 43.2105,-35.6653 67.7945,-23.9252 87.9932,-17.4023"/>
<polygon fill="#191970" stroke="#191970" points="89.1685,-20.7049 97.7754,-14.5266 87.1942,-13.9891 89.1685,-20.7049"/>
</g>
<!-- Node5 -->
<g id="node6" class="node">
<title>Node5</title>
<polygon fill="none" stroke="#bfbfbf" points="596.8303,-56.5 596.8303,-75.5 656.8303,-75.5 656.8303,-56.5 596.8303,-56.5"/>
<text text-anchor="middle" x="626.8303" y="-63.5" font-family="Helvetica,sans-Serif" font-size="10.00" fill="#000000">iostream</text>
</g>
<!-- Node4&#45;&gt;Node5 -->
<g id="edge6" class="edge">
<title>Node4&#45;&gt;Node5</title>
<path fill="none" stroke="#191970" d="M346.4033,-168.4344C368.4253,-154.3448 411.8639,-127.9604 451.8303,-112 458.1931,-109.459 537.1744,-89.0136 586.8308,-76.25"/>
<polygon fill="#191970" stroke="#191970" points="587.828,-79.6075 596.6429,-73.7297 586.0866,-72.8276 587.828,-79.6075"/>
</g>
<!-- Node6 -->
<g id="node7" class="node">
<title>Node6</title>
<polygon fill="none" stroke="#bfbfbf" points="73.3303,-56.5 73.3303,-75.5 166.3303,-75.5 166.3303,-56.5 73.3303,-56.5"/>
<text text-anchor="middle" x="119.8303" y="-63.5" font-family="Helvetica,sans-Serif" font-size="10.00" fill="#000000">unordered_map</text>
</g>
<!-- Node4&#45;&gt;Node6 -->
<g id="edge7" class="edge">
<title>Node4&#45;&gt;Node6</title>
<path fill="none" stroke="#191970" d="M305.4491,-168.4895C282.782,-159.9622 249.4795,-146.5775 221.8303,-132 192.738,-116.6617 161.2446,-95.5231 141.0679,-81.3402"/>
<polygon fill="#191970" stroke="#191970" points="143.079,-78.4756 132.8984,-75.542 139.0276,-84.1841 143.079,-78.4756"/>
</g>
<!-- Node4&#45;&gt;Node7 -->
<g id="edge8" class="edge">
<title>Node4&#45;&gt;Node7</title>
<path fill="none" stroke="#191970" d="M339.0581,-168.1016C348.5494,-155.1413 365.7761,-131.7478 380.8303,-112 387.9486,-102.6624 395.9918,-92.3618 402.6673,-83.8793"/>
<polygon fill="#191970" stroke="#191970" points="405.5846,-85.8324 409.0327,-75.8143 400.0899,-81.4955 405.5846,-85.8324"/>
</g>
<!-- Node8 -->
<g id="node9" class="node">
<title>Node8</title>
<g id="a_node9"><a xlink:href="TileManager_8hxx.html" target="_top" xlink:title="TileManager.hxx">
<polygon fill="none" stroke="#000000" points="231.3303,-112.5 231.3303,-131.5 328.3303,-131.5 328.3303,-112.5 231.3303,-112.5"/>
<text text-anchor="middle" x="279.8303" y="-119.5" font-family="Helvetica,sans-Serif" font-size="10.00" fill="#000000">TileManager.hxx</text>
</a>
</g>
</g>
<!-- Node4&#45;&gt;Node8 -->
<g id="edge9" class="edge">
<title>Node4&#45;&gt;Node8</title>
<path fill="none" stroke="#191970" d="M322.7726,-168.2455C315.3161,-160.2155 304.5669,-148.6394 295.6886,-139.0781"/>
<polygon fill="#191970" stroke="#191970" points="298.1535,-136.589 288.7842,-131.6427 293.024,-141.3522 298.1535,-136.589"/>
</g>
<!-- Node8&#45;&gt;Node2 -->
<g id="edge12" class="edge">
<title>Node8&#45;&gt;Node2</title>
<path fill="none" stroke="#191970" d="M266.1691,-112.499C252.8153,-103.207 231.9126,-88.6494 213.8303,-76 189.1459,-58.7321 160.8594,-38.86 141.8189,-25.4709"/>
<polygon fill="#191970" stroke="#191970" points="143.7122,-22.5236 133.5192,-19.6335 139.6852,-28.2493 143.7122,-22.5236"/>
</g>
<!-- Node8&#45;&gt;Node6 -->
<g id="edge11" class="edge">
<title>Node8&#45;&gt;Node6</title>
<path fill="none" stroke="#191970" d="M252.3253,-112.3733C225.9501,-103.1419 185.9451,-89.1402 156.7945,-78.9375"/>
<polygon fill="#191970" stroke="#191970" points="157.5712,-75.5012 146.9764,-75.5011 155.2587,-82.1082 157.5712,-75.5012"/>
</g>
<!-- Node8&#45;&gt;Node7 -->
<g id="edge10" class="edge">
<title>Node8&#45;&gt;Node7</title>
<path fill="none" stroke="#191970" d="M303.3814,-112.3733C325.9395,-103.1524 360.1415,-89.1721 385.0944,-78.9723"/>
<polygon fill="#191970" stroke="#191970" points="386.5614,-82.1539 394.4937,-75.1303 383.9128,-75.6743 386.5614,-82.1539"/>
</g>
<!-- Node9 -->
<g id="node10" class="node">
<title>Node9</title>
<g id="a_node10"><a xlink:href="tileData_8hxx.html" target="_top" xlink:title="tileData.hxx">
<polygon fill="none" stroke="#000000" points="223.3303,-56.5 223.3303,-75.5 300.3303,-75.5 300.3303,-56.5 223.3303,-56.5"/>
<text text-anchor="middle" x="261.8303" y="-63.5" font-family="Helvetica,sans-Serif" font-size="10.00" fill="#000000">tileData.hxx</text>
</a>
</g>
</g>
<!-- Node8&#45;&gt;Node9 -->
<g id="edge13" class="edge">
<title>Node8&#45;&gt;Node9</title>
<path fill="none" stroke="#191970" d="M276.6949,-112.2455C274.3203,-104.8579 270.981,-94.4689 268.0688,-85.4087"/>
<polygon fill="#191970" stroke="#191970" points="271.322,-84.0919 264.9297,-75.6427 264.6578,-86.234 271.322,-84.0919"/>
</g>
<!-- Node10 -->
<g id="node11" class="node">
<title>Node10</title>
<polygon fill="none" stroke="#bfbfbf" points="318.8303,-56.5 318.8303,-75.5 376.8303,-75.5 376.8303,-56.5 318.8303,-56.5"/>
<text text-anchor="middle" x="347.8303" y="-63.5" font-family="Helvetica,sans-Serif" font-size="10.00" fill="#000000">json.hxx</text>
</g>
<!-- Node8&#45;&gt;Node10 -->
<g id="edge15" class="edge">
<title>Node8&#45;&gt;Node10</title>
<path fill="none" stroke="#191970" d="M291.675,-112.2455C301.7182,-103.9746 316.3297,-91.9416 328.1307,-82.2232"/>
<polygon fill="#191970" stroke="#191970" points="330.627,-84.7015 336.1213,-75.6427 326.177,-79.298 330.627,-84.7015"/>
</g>
<!-- Node11 -->
<g id="node12" class="node">
<title>Node11</title>
<g id="a_node12"><a xlink:href="Singleton_8hxx.html" target="_top" xlink:title="Singleton.hxx">
<polygon fill="none" stroke="#000000" points="495.3303,-56.5 495.3303,-75.5 578.3303,-75.5 578.3303,-56.5 495.3303,-56.5"/>
<text text-anchor="middle" x="536.8303" y="-63.5" font-family="Helvetica,sans-Serif" font-size="10.00" fill="#000000">Singleton.hxx</text>
</a>
</g>
</g>
<!-- Node8&#45;&gt;Node11 -->
<g id="edge16" class="edge">
<title>Node8&#45;&gt;Node11</title>
<path fill="none" stroke="#191970" d="M323.7182,-112.4369C368.4619,-102.6873 437.844,-87.569 485.2011,-77.2499"/>
<polygon fill="#191970" stroke="#191970" points="486.2259,-80.6088 495.2515,-75.06 484.7356,-73.7693 486.2259,-80.6088"/>
</g>
<!-- Node9&#45;&gt;Node2 -->
<g id="edge14" class="edge">
<title>Node9&#45;&gt;Node2</title>
<path fill="none" stroke="#191970" d="M237.4196,-56.3733C213.6535,-47.0007 177.4182,-32.7107 151.4556,-22.472"/>
<polygon fill="#191970" stroke="#191970" points="152.6424,-19.1777 142.0556,-18.7649 150.0743,-25.6896 152.6424,-19.1777"/>
</g>
<!-- Node12&#45;&gt;Node2 -->
<g id="edge18" class="edge">
<title>Node12&#45;&gt;Node2</title>
<path fill="none" stroke="#191970" d="M520.4719,-112.4428C506.8821,-97.6056 478.4207,-69.351 447.8303,-56 395.0708,-32.9735 224.2,-17.8274 152.2447,-12.3203"/>
<polygon fill="#191970" stroke="#191970" points="152.2088,-8.8078 141.9746,-11.5486 151.6842,-15.7881 152.2088,-8.8078"/>
</g>
<!-- Node12&#45;&gt;Node5 -->
<g id="edge19" class="edge">
<title>Node12&#45;&gt;Node5</title>
<path fill="none" stroke="#191970" d="M545.9006,-112.2455C561.0773,-103.5731 583.4924,-90.7645 600.8866,-80.825"/>
<polygon fill="#191970" stroke="#191970" points="603.0097,-83.643 609.9556,-75.6427 599.5367,-77.5653 603.0097,-83.643"/>
</g>
<!-- Node12&#45;&gt;Node7 -->
<g id="edge21" class="edge">
<title>Node12&#45;&gt;Node7</title>
<path fill="none" stroke="#191970" d="M509.5768,-112.3733C491.7591,-103.4644 465.0556,-90.1127 444.8709,-80.0203"/>
<polygon fill="#191970" stroke="#191970" points="446.3421,-76.8428 435.8325,-75.5011 443.2116,-83.1038 446.3421,-76.8428"/>
</g>
<!-- Node12&#45;&gt;Node11 -->
<g id="edge22" class="edge">
<title>Node12&#45;&gt;Node11</title>
<path fill="none" stroke="#191970" d="M530.2238,-112.2455C531.2677,-104.9382 532.7311,-94.6944 534.0153,-85.7046"/>
<polygon fill="#191970" stroke="#191970" points="537.5033,-86.0372 535.4528,-75.6427 530.5736,-85.0472 537.5033,-86.0372"/>
</g>
<!-- Node13 -->
<g id="node14" class="node">
<title>Node13</title>
<polygon fill="none" stroke="#bfbfbf" points="1168.3303,-56.5 1168.3303,-75.5 1215.3303,-75.5 1215.3303,-56.5 1168.3303,-56.5"/>
<text text-anchor="middle" x="1191.8303" y="-63.5" font-family="Helvetica,sans-Serif" font-size="10.00" fill="#000000">vector</text>
</g>
<!-- Node12&#45;&gt;Node13 -->
<g id="edge20" class="edge">
<title>Node12&#45;&gt;Node13</title>
<path fill="none" stroke="#191970" d="M596.921,-115.8854C612.3418,-114.5545 628.646,-113.1898 643.8303,-112 869.7732,-94.296 932.1578,-117.8882 1158.3708,-75.9025"/>
<polygon fill="#191970" stroke="#191970" points="1159.0388,-79.3384 1168.2208,-74.0524 1157.7466,-72.4587 1159.0388,-79.3384"/>
</g>
<!-- Node14&#45;&gt;Node13 -->
<g id="edge27" class="edge">
<title>Node14&#45;&gt;Node13</title>
<path fill="none" stroke="#191970" d="M1283.7487,-112.3733C1266.0901,-103.4644 1239.625,-90.1127 1219.6205,-80.0203"/>
<polygon fill="#191970" stroke="#191970" points="1221.1675,-76.8806 1210.6629,-75.5011 1218.0145,-83.1303 1221.1675,-76.8806"/>
</g>
<!-- Node15 -->
<g id="node16" class="node">
<title>Node15</title>
<polygon fill="none" stroke="#bfbfbf" points="1233.8303,-56.5 1233.8303,-75.5 1291.8303,-75.5 1291.8303,-56.5 1233.8303,-56.5"/>
<text text-anchor="middle" x="1262.8303" y="-63.5" font-family="Helvetica,sans-Serif" font-size="10.00" fill="#000000">memory</text>
</g>
<!-- Node14&#45;&gt;Node15 -->
<g id="edge24" class="edge">
<title>Node14&#45;&gt;Node15</title>
<path fill="none" stroke="#191970" d="M1295.8628,-112.2455C1290.2992,-104.4564 1282.3523,-93.3308 1275.6474,-83.9439"/>
<polygon fill="#191970" stroke="#191970" points="1278.3784,-81.7457 1269.7179,-75.6427 1272.6823,-85.8144 1278.3784,-81.7457"/>
</g>
<!-- Node16 -->
<g id="node17" class="node">
<title>Node16</title>
<polygon fill="none" stroke="#bfbfbf" points="1310.3303,-56.5 1310.3303,-75.5 1375.3303,-75.5 1375.3303,-56.5 1310.3303,-56.5"/>
<text text-anchor="middle" x="1342.8303" y="-63.5" font-family="Helvetica,sans-Serif" font-size="10.00" fill="#000000">functional</text>
</g>
<!-- Node14&#45;&gt;Node16 -->
<g id="edge25" class="edge">
<title>Node14&#45;&gt;Node16</title>
<path fill="none" stroke="#191970" d="M1309.7978,-112.2455C1315.3614,-104.4564 1323.3083,-93.3308 1330.0132,-83.9439"/>
<polygon fill="#191970" stroke="#191970" points="1332.9783,-85.8144 1335.9427,-75.6427 1327.2822,-81.7457 1332.9783,-85.8144"/>
</g>
<!-- Node17 -->
<g id="node18" class="node">
<title>Node17</title>
<polygon fill="none" stroke="#bfbfbf" points="1393.8303,-56.5 1393.8303,-75.5 1425.8303,-75.5 1425.8303,-56.5 1393.8303,-56.5"/>
<text text-anchor="middle" x="1409.8303" y="-63.5" font-family="Helvetica,sans-Serif" font-size="10.00" fill="#000000">list</text>
</g>
<!-- Node14&#45;&gt;Node17 -->
<g id="edge26" class="edge">
<title>Node14&#45;&gt;Node17</title>
<path fill="none" stroke="#191970" d="M1321.4683,-112.2455C1338.9631,-103.0894 1365.2673,-89.3227 1384.6286,-79.1897"/>
<polygon fill="#191970" stroke="#191970" points="1386.2695,-82.2813 1393.5065,-74.5433 1383.0236,-76.0793 1386.2695,-82.2813"/>
</g>
<!-- Node18 -->
<g id="node19" class="node">
<title>Node18</title>
<polygon fill="none" stroke="#bfbfbf" points="1443.8303,-56.5 1443.8303,-75.5 1507.8303,-75.5 1507.8303,-56.5 1443.8303,-56.5"/>
<text text-anchor="middle" x="1475.8303" y="-63.5" font-family="Helvetica,sans-Serif" font-size="10.00" fill="#000000">algorithm</text>
</g>
<!-- Node14&#45;&gt;Node18 -->
<g id="edge28" class="edge">
<title>Node14&#45;&gt;Node18</title>
<path fill="none" stroke="#191970" d="M1332.5701,-112.3733C1361.3373,-103.0613 1405.1003,-88.8953 1436.6859,-78.671"/>
<polygon fill="#191970" stroke="#191970" points="1438.0425,-81.9107 1446.4786,-75.5011 1435.8867,-75.251 1438.0425,-81.9107"/>
</g>
<!-- Node19&#45;&gt;Node5 -->
<g id="edge31" class="edge">
<title>Node19&#45;&gt;Node5</title>
<path fill="none" stroke="#191970" d="M693.7212,-112.2455C681.4094,-103.7337 663.3345,-91.2375 649.0765,-81.3801"/>
<polygon fill="#191970" stroke="#191970" points="650.9937,-78.4506 640.7777,-75.6427 647.0129,-84.2085 650.9937,-78.4506"/>
</g>
<!-- Node19&#45;&gt;Node7 -->
<g id="edge36" class="edge">
<title>Node19&#45;&gt;Node7</title>
<path fill="none" stroke="#191970" d="M658.1363,-112.4369C598.4254,-100.9461 499.9627,-81.998 449.2483,-72.2385"/>
<polygon fill="#191970" stroke="#191970" points="449.6636,-68.7543 439.1823,-70.3014 448.3407,-75.6282 449.6636,-68.7543"/>
</g>
<!-- Node20 -->
<g id="node21" class="node">
<title>Node20</title>
<polygon fill="none" stroke="#bfbfbf" points="674.8303,-56.5 674.8303,-75.5 724.8303,-75.5 724.8303,-56.5 674.8303,-56.5"/>
<text text-anchor="middle" x="699.8303" y="-63.5" font-family="Helvetica,sans-Serif" font-size="10.00" fill="#000000">chrono</text>
</g>
<!-- Node19&#45;&gt;Node20 -->
<g id="edge32" class="edge">
<title>Node19&#45;&gt;Node20</title>
<path fill="none" stroke="#191970" d="M706.4368,-112.2455C705.3929,-104.9382 703.9295,-94.6944 702.6452,-85.7046"/>
<polygon fill="#191970" stroke="#191970" points="706.0869,-85.0472 701.2078,-75.6427 699.1573,-86.0372 706.0869,-85.0472"/>
</g>
<!-- Node21 -->
<g id="node22" class="node">
<title>Node21</title>
<polygon fill="none" stroke="#bfbfbf" points="742.8303,-56.5 742.8303,-75.5 786.8303,-75.5 786.8303,-56.5 742.8303,-56.5"/>
<text text-anchor="middle" x="764.8303" y="-63.5" font-family="Helvetica,sans-Serif" font-size="10.00" fill="#000000">ctime</text>
</g>
<!-- Node19&#45;&gt;Node21 -->
<g id="edge33" class="edge">
<title>Node19&#45;&gt;Node21</title>
<path fill="none" stroke="#191970" d="M717.7589,-112.2455C726.0141,-104.1352 737.9512,-92.4075 747.7385,-82.7919"/>
<polygon fill="#191970" stroke="#191970" points="750.3349,-85.1476 755.0154,-75.6427 745.4291,-80.1542 750.3349,-85.1476"/>
</g>
<!-- Node22 -->
<g id="node23" class="node">
<title>Node22</title>
<polygon fill="none" stroke="#bfbfbf" points="805.3303,-56.5 805.3303,-75.5 860.3303,-75.5 860.3303,-56.5 805.3303,-56.5"/>
<text text-anchor="middle" x="832.8303" y="-63.5" font-family="Helvetica,sans-Serif" font-size="10.00" fill="#000000">fstream</text>
</g>
<!-- Node19&#45;&gt;Node22 -->
<g id="edge34" class="edge">
<title>Node19&#45;&gt;Node22</title>
<path fill="none" stroke="#191970" d="M729.3186,-112.3733C749.4743,-103.3435 779.8183,-89.7494 802.4483,-79.6111"/>
<polygon fill="#191970" stroke="#191970" points="803.9274,-82.7838 811.6224,-75.5011 801.0654,-76.3955 803.9274,-82.7838"/>
</g>
<!-- Node23 -->
<g id="node24" class="node">
<title>Node23</title>
<polygon fill="none" stroke="#bfbfbf" points="878.8303,-56.5 878.8303,-75.5 934.8303,-75.5 934.8303,-56.5 878.8303,-56.5"/>
<text text-anchor="middle" x="906.8303" y="-63.5" font-family="Helvetica,sans-Serif" font-size="10.00" fill="#000000">sstream</text>
</g>
<!-- Node19&#45;&gt;Node23 -->
<g id="edge35" class="edge">
<title>Node19&#45;&gt;Node23</title>
<path fill="none" stroke="#191970" d="M742.0396,-112.3733C777.2868,-102.4544 832.105,-87.0282 868.7193,-76.7247"/>
<polygon fill="#191970" stroke="#191970" points="869.8543,-80.0413 878.5323,-73.9633 867.958,-73.3031 869.8543,-80.0413"/>
</g>
<!-- Node24&#45;&gt;Node2 -->
<g id="edge38" class="edge">
<title>Node24&#45;&gt;Node2</title>
<path fill="none" stroke="#191970" d="M602.2075,-176.7383C527.7427,-173.6533 359.5085,-163.5085 221.8303,-132 149.2054,-115.3794 106.8206,-136.8478 63.8303,-76 50.7629,-57.5047 72.486,-37.9136 92.5677,-24.926"/>
<polygon fill="#191970" stroke="#191970" points="94.5471,-27.8182 101.2569,-19.6189 90.8984,-21.8443 94.5471,-27.8182"/>
</g>
<!-- Node24&#45;&gt;Node11 -->
<g id="edge39" class="edge">
<title>Node24&#45;&gt;Node11</title>
<path fill="none" stroke="#191970" d="M637.3752,-168.1213C632.1873,-154.3427 621.315,-129.1231 605.8303,-112 594.3751,-99.3328 578.7204,-88.5279 565.2178,-80.5793"/>
<polygon fill="#191970" stroke="#191970" points="566.7213,-77.409 556.2917,-75.545 563.2825,-83.5061 566.7213,-77.409"/>
</g>
<!-- Node25 -->
<g id="node26" class="node">
<title>Node25</title>
<g id="a_node26"><a xlink:href="Meta_8hxx.html" target="_top" xlink:title="../../util/Meta.hxx">
<polygon fill="none" stroke="#000000" points="855.8303,-112.5 855.8303,-131.5 953.8303,-131.5 953.8303,-112.5 855.8303,-112.5"/>
<text text-anchor="middle" x="904.8303" y="-119.5" font-family="Helvetica,sans-Serif" font-size="10.00" fill="#000000">../../util/Meta.hxx</text>
</a>
</g>
</g>
<!-- Node24&#45;&gt;Node25 -->
<g id="edge40" class="edge">
<title>Node24&#45;&gt;Node25</title>
<path fill="none" stroke="#191970" d="M679.5009,-169.7971C724.4809,-160.2559 799.0624,-144.4356 850.0057,-133.6295"/>
<polygon fill="#191970" stroke="#191970" points="850.8074,-137.0374 859.8634,-131.5384 849.3548,-130.1897 850.8074,-137.0374"/>
</g>
<!-- Node29 -->
<g id="node30" class="node">
<title>Node29</title>
<polygon fill="none" stroke="#bfbfbf" points="972.3303,-112.5 972.3303,-131.5 1025.3303,-131.5 1025.3303,-112.5 972.3303,-112.5"/>
<text text-anchor="middle" x="998.8303" y="-119.5" font-family="Helvetica,sans-Serif" font-size="10.00" fill="#000000">cstddef</text>
</g>
<!-- Node24&#45;&gt;Node29 -->
<g id="edge45" class="edge">
<title>Node24&#45;&gt;Node29</title>
<path fill="none" stroke="#191970" d="M679.7731,-174.0787C738.761,-167.7822 854.4076,-154.0456 962.1248,-131.9109"/>
<polygon fill="#191970" stroke="#191970" points="963.1127,-135.2803 972.188,-129.8133 961.6842,-128.4276 963.1127,-135.2803"/>
</g>
<!-- Node25&#45;&gt;Node5 -->
<g id="edge41" class="edge">
<title>Node25&#45;&gt;Node5</title>
<path fill="none" stroke="#191970" d="M855.6721,-113.4416C809.4027,-105.1834 737.9577,-91.9125 667.0233,-76.1716"/>
<polygon fill="#191970" stroke="#191970" points="667.543,-72.7014 657.0202,-73.9343 666.0151,-79.5326 667.543,-72.7014"/>
</g>
<!-- Node26 -->
<g id="node27" class="node">
<title>Node26</title>
<polygon fill="none" stroke="#bfbfbf" points="953.3303,-56.5 953.3303,-75.5 1022.3303,-75.5 1022.3303,-56.5 953.3303,-56.5"/>
<text text-anchor="middle" x="987.8303" y="-63.5" font-family="Helvetica,sans-Serif" font-size="10.00" fill="#000000">type_traits</text>
</g>
<!-- Node25&#45;&gt;Node26 -->
<g id="edge42" class="edge">
<title>Node25&#45;&gt;Node26</title>
<path fill="none" stroke="#191970" d="M919.2878,-112.2455C931.9035,-103.7337 950.4247,-91.2375 965.0348,-81.3801"/>
<polygon fill="#191970" stroke="#191970" points="967.2064,-84.1371 973.5385,-75.6427 963.2912,-78.3343 967.2064,-84.1371"/>
</g>
<!-- Node27 -->
<g id="node28" class="node">
<title>Node27</title>
<polygon fill="none" stroke="#bfbfbf" points="1040.3303,-56.5 1040.3303,-75.5 1091.3303,-75.5 1091.3303,-56.5 1040.3303,-56.5"/>
<text text-anchor="middle" x="1065.8303" y="-63.5" font-family="Helvetica,sans-Serif" font-size="10.00" fill="#000000">variant</text>
</g>
<!-- Node25&#45;&gt;Node27 -->
<g id="edge43" class="edge">
<title>Node25&#45;&gt;Node27</title>
<path fill="none" stroke="#191970" d="M932.5072,-112.3733C959.6478,-102.933 1001.131,-88.5041 1030.6092,-78.2508"/>
<polygon fill="#191970" stroke="#191970" points="1031.8128,-81.5379 1040.1079,-74.9469 1029.5131,-74.9264 1031.8128,-81.5379"/>
</g>
<!-- Node28 -->
<g id="node29" class="node">
<title>Node28</title>
<polygon fill="none" stroke="#bfbfbf" points="1109.3303,-56.5 1109.3303,-75.5 1150.3303,-75.5 1150.3303,-56.5 1109.3303,-56.5"/>
<text text-anchor="middle" x="1129.8303" y="-63.5" font-family="Helvetica,sans-Serif" font-size="10.00" fill="#000000">tuple</text>
</g>
<!-- Node25&#45;&gt;Node28 -->
<g id="edge44" class="edge">
<title>Node25&#45;&gt;Node28</title>
<path fill="none" stroke="#191970" d="M951.5084,-112.442C989.2535,-104.3992 1043.9135,-92.0462 1099.6386,-76.1551"/>
<polygon fill="#191970" stroke="#191970" points="1100.6802,-79.4974 1109.3175,-73.3617 1098.7391,-72.7719 1100.6802,-79.4974"/>
</g>
</g>
</svg>
