<?xml version="1.0" encoding="UTF-8" standalone="no"?>
<!DOCTYPE svg PUBLIC "-//W3C//DTD SVG 1.1//EN"
 "http://www.w3.org/Graphics/SVG/1.1/DTD/svg11.dtd">
<!-- Generated by graphviz version 2.40.1 (20161225.0304)
 -->
<!-- Title: src/engine/UIManager.hxx Pages: 1 -->
<svg width="1255pt" height="476pt"
 viewBox="0.00 0.00 1255.00 476.00" xmlns="http://www.w3.org/2000/svg" xmlns:xlink="http://www.w3.org/1999/xlink">
<g id="graph0" class="graph" transform="scale(1 1) rotate(0) translate(4 472)">
<title>src/engine/UIManager.hxx</title>
<!-- Node0 -->
<g id="node1" class="node">
<title>Node0</title>
<polygon fill="#bfbfbf" stroke="#000000" points="568.5,-448.5 568.5,-467.5 711.5,-467.5 711.5,-448.5 568.5,-448.5"/>
<text text-anchor="middle" x="640" y="-455.5" font-family="Helvetica,sans-Serif" font-size="10.00" fill="#000000">src/engine/UIManager.hxx</text>
</g>
<!-- Node1 -->
<g id="node2" class="node">
<title>Node1</title>
<polygon fill="none" stroke="#bfbfbf" points="636,-56.5 636,-75.5 680,-75.5 680,-56.5 636,-56.5"/>
<text text-anchor="middle" x="658" y="-63.5" font-family="Helvetica,sans-Serif" font-size="10.00" fill="#000000">SDL.h</text>
</g>
<!-- Node0&#45;&gt;Node1 -->
<g id="edge1" class="edge">
<title>Node0&#45;&gt;Node1</title>
<path fill="none" stroke="#191970" d="M711.714,-455.2308C837.6377,-448.5589 1089.4205,-426.5014 1134,-356 1177.0888,-287.8561 1130.0787,-327.2609 1011,-280 893.1664,-233.2332 841.8545,-264.8132 741,-188 704.6572,-160.3205 678.6716,-112.004 666.2487,-85.2331"/>
<polygon fill="#191970" stroke="#191970" points="669.3093,-83.5041 662.026,-75.8097 662.9214,-86.3667 669.3093,-83.5041"/>
</g>
<!-- Node2 -->
<g id="node3" class="node">
<title>Node2</title>
<polygon fill="none" stroke="#bfbfbf" points="109.5,-112.5 109.5,-131.5 156.5,-131.5 156.5,-112.5 109.5,-112.5"/>
<text text-anchor="middle" x="133" y="-119.5" font-family="Helvetica,sans-Serif" font-size="10.00" fill="#000000">vector</text>
</g>
<!-- Node0&#45;&gt;Node2 -->
<g id="edge2" class="edge">
<title>Node0&#45;&gt;Node2</title>
<path fill="none" stroke="#191970" d="M568.4468,-452.8996C401.441,-440.038 0,-403.1753 0,-346 0,-346 0,-346 0,-290 0,-220.7771 70.2717,-163.4238 108.6565,-137.259"/>
<polygon fill="#191970" stroke="#191970" points="110.8226,-140.0222 117.2209,-131.5775 106.9529,-134.1891 110.8226,-140.0222"/>
</g>
<!-- Node3 -->
<g id="node4" class="node">
<title>Node3</title>
<g id="a_node4"><a xlink:href="UIElement_8hxx.html" target="_top" xlink:title="ui/basics/UIElement.hxx">
<polygon fill="none" stroke="#000000" points="572,-224.5 572,-243.5 706,-243.5 706,-224.5 572,-224.5"/>
<text text-anchor="middle" x="639" y="-231.5" font-family="Helvetica,sans-Serif" font-size="10.00" fill="#000000">ui/basics/UIElement.hxx</text>
</a>
</g>
</g>
<!-- Node0&#45;&gt;Node3 -->
<g id="edge3" class="edge">
<title>Node0&#45;&gt;Node3</title>
<path fill="none" stroke="#191970" d="M568.4778,-450.8172C491.4453,-442.3446 378.078,-427.4473 365,-412 294.3043,-328.4966 485.6705,-269.779 584.3424,-245.8992"/>
<polygon fill="#191970" stroke="#191970" points="585.2475,-249.2816 594.1662,-243.5625 583.6277,-242.4716 585.2475,-249.2816"/>
</g>
<!-- Node12 -->
<g id="node13" class="node">
<title>Node12</title>
<g id="a_node13"><a xlink:href="Singleton_8hxx.html" target="_top" xlink:title="Singleton.hxx">
<polygon fill="none" stroke="#000000" points="149.5,-56.5 149.5,-75.5 232.5,-75.5 232.5,-56.5 149.5,-56.5"/>
<text text-anchor="middle" x="191" y="-63.5" font-family="Helvetica,sans-Serif" font-size="10.00" fill="#000000">Singleton.hxx</text>
</a>
</g>
</g>
<!-- Node0&#45;&gt;Node12 -->
<g id="edge68" class="edge">
<title>Node0&#45;&gt;Node12</title>
<path fill="none" stroke="#191970" d="M568.4954,-454.289C493.9818,-449.1111 383.4898,-437.333 350,-412 298.4573,-373.0111 324.1099,-334.2594 289,-280 259.563,-234.5076 231.6433,-237.2278 209,-188 193.5605,-154.4336 190.7571,-110.683 190.5698,-85.7317"/>
<polygon fill="#191970" stroke="#191970" points="194.0698,-85.716 190.6317,-75.6946 187.07,-85.6727 194.0698,-85.716"/>
</g>
<!-- Node19 -->
<g id="node20" class="node">
<title>Node19</title>
<g id="a_node20"><a xlink:href="Layout_8hxx.html" target="_top" xlink:title="ui/basics/Layout.hxx">
<polygon fill="none" stroke="#000000" points="28,-280.5 28,-299.5 144,-299.5 144,-280.5 28,-280.5"/>
<text text-anchor="middle" x="86" y="-287.5" font-family="Helvetica,sans-Serif" font-size="10.00" fill="#000000">ui/basics/Layout.hxx</text>
</a>
</g>
</g>
<!-- Node0&#45;&gt;Node19 -->
<g id="edge32" class="edge">
<title>Node0&#45;&gt;Node19</title>
<path fill="none" stroke="#191970" d="M568.2608,-453.1015C476.0404,-446.1213 321.4312,-431.9156 268,-412 201.5352,-387.2263 135.3341,-333.8146 104.2759,-306.6283"/>
<polygon fill="#191970" stroke="#191970" points="106.2778,-303.7251 96.4767,-299.7014 101.6293,-308.9589 106.2778,-303.7251"/>
</g>
<!-- Node20 -->
<g id="node21" class="node">
<title>Node20</title>
<g id="a_node21"><a xlink:href="ButtonGroup_8hxx.html" target="_top" xlink:title="ui/basics/ButtonGroup.hxx">
<polygon fill="none" stroke="#000000" points="713.5,-392.5 713.5,-411.5 858.5,-411.5 858.5,-392.5 713.5,-392.5"/>
<text text-anchor="middle" x="786" y="-399.5" font-family="Helvetica,sans-Serif" font-size="10.00" fill="#000000">ui/basics/ButtonGroup.hxx</text>
</a>
</g>
</g>
<!-- Node0&#45;&gt;Node20 -->
<g id="edge36" class="edge">
<title>Node0&#45;&gt;Node20</title>
<path fill="none" stroke="#191970" d="M665.0983,-448.3733C688.9555,-439.2226 725.0335,-425.3844 751.571,-415.2057"/>
<polygon fill="#191970" stroke="#191970" points="753.1459,-418.3503 761.2292,-411.5011 750.639,-411.8145 753.1459,-418.3503"/>
</g>
<!-- Node21 -->
<g id="node22" class="node">
<title>Node21</title>
<g id="a_node22"><a xlink:href="Button_8hxx.html" target="_top" xlink:title="../widgets/Button.hxx">
<polygon fill="none" stroke="#000000" points="667,-336.5 667,-355.5 787,-355.5 787,-336.5 667,-336.5"/>
<text text-anchor="middle" x="727" y="-343.5" font-family="Helvetica,sans-Serif" font-size="10.00" fill="#000000">../widgets/Button.hxx</text>
</a>
</g>
</g>
<!-- Node0&#45;&gt;Node21 -->
<g id="edge43" class="edge">
<title>Node0&#45;&gt;Node21</title>
<path fill="none" stroke="#191970" d="M711.5248,-453.2624C770.8166,-447.6678 848.4353,-435.9061 868,-412 873.6297,-405.1211 873.2205,-399.1944 868,-392 857.8492,-378.0111 819.5694,-366.0439 785.4542,-357.8249"/>
<polygon fill="#191970" stroke="#191970" points="786.038,-354.3671 775.5042,-355.5022 784.4467,-361.1839 786.038,-354.3671"/>
</g>
<!-- Node22 -->
<g id="node23" class="node">
<title>Node22</title>
<g id="a_node23"><a xlink:href="Text_8hxx.html" target="_top" xlink:title="Text.hxx">
<polygon fill="none" stroke="#000000" points="914,-280.5 914,-299.5 972,-299.5 972,-280.5 914,-280.5"/>
<text text-anchor="middle" x="943" y="-287.5" font-family="Helvetica,sans-Serif" font-size="10.00" fill="#000000">Text.hxx</text>
</a>
</g>
</g>
<!-- Node0&#45;&gt;Node22 -->
<g id="edge54" class="edge">
<title>Node0&#45;&gt;Node22</title>
<path fill="none" stroke="#191970" d="M711.7011,-450.4734C777.3641,-442.6673 869.0423,-429.1974 901,-412 931.1765,-395.7611 941.3229,-387.8373 954,-356 959.9679,-341.0122 956.2237,-322.8628 951.5484,-309.3926"/>
<polygon fill="#191970" stroke="#191970" points="954.6744,-307.7765 947.7671,-299.7428 948.1569,-310.3305 954.6744,-307.7765"/>
</g>
<!-- Node23 -->
<g id="node24" class="node">
<title>Node23</title>
<g id="a_node24"><a xlink:href="Checkbox_8hxx.html" target="_top" xlink:title="ui/widgets/Checkbox.hxx">
<polygon fill="none" stroke="#000000" points="805.5,-336.5 805.5,-355.5 944.5,-355.5 944.5,-336.5 805.5,-336.5"/>
<text text-anchor="middle" x="875" y="-343.5" font-family="Helvetica,sans-Serif" font-size="10.00" fill="#000000">ui/widgets/Checkbox.hxx</text>
</a>
</g>
</g>
<!-- Node0&#45;&gt;Node23 -->
<g id="edge44" class="edge">
<title>Node0&#45;&gt;Node23</title>
<path fill="none" stroke="#191970" d="M711.5584,-454.3702C775.5235,-449.4495 862.4019,-438.0503 884,-412 894.6909,-399.1052 890.403,-379.6738 884.6637,-365.2305"/>
<polygon fill="#191970" stroke="#191970" points="887.7037,-363.4554 880.4215,-355.7599 881.3153,-366.317 887.7037,-363.4554"/>
</g>
<!-- Node24 -->
<g id="node25" class="node">
<title>Node24</title>
<g id="a_node25"><a xlink:href="Combobox_8hxx.html" target="_top" xlink:title="ui/widgets/Combobox.hxx">
<polygon fill="none" stroke="#000000" points="374.5,-392.5 374.5,-411.5 517.5,-411.5 517.5,-392.5 374.5,-392.5"/>
<text text-anchor="middle" x="446" y="-399.5" font-family="Helvetica,sans-Serif" font-size="10.00" fill="#000000">ui/widgets/Combobox.hxx</text>
</a>
</g>
</g>
<!-- Node0&#45;&gt;Node24 -->
<g id="edge46" class="edge">
<title>Node0&#45;&gt;Node24</title>
<path fill="none" stroke="#191970" d="M606.6502,-448.3733C573.972,-438.9404 524.0382,-424.5265 488.523,-414.2747"/>
<polygon fill="#191970" stroke="#191970" points="489.493,-410.9119 478.9146,-411.5011 487.5516,-417.6373 489.493,-410.9119"/>
</g>
<!-- Node25 -->
<g id="node26" class="node">
<title>Node25</title>
<g id="a_node26"><a xlink:href="TextField_8hxx.html" target="_top" xlink:title="TextField.hxx">
<polygon fill="none" stroke="#000000" points="531,-336.5 531,-355.5 611,-355.5 611,-336.5 531,-336.5"/>
<text text-anchor="middle" x="571" y="-343.5" font-family="Helvetica,sans-Serif" font-size="10.00" fill="#000000">TextField.hxx</text>
</a>
</g>
</g>
<!-- Node0&#45;&gt;Node25 -->
<g id="edge55" class="edge">
<title>Node0&#45;&gt;Node25</title>
<path fill="none" stroke="#191970" d="M649.403,-448.0728C660.9061,-434.6735 677.5122,-410.3651 666,-392 655.8171,-375.7554 638.0898,-365.1056 620.6856,-358.1907"/>
<polygon fill="#191970" stroke="#191970" points="621.694,-354.8336 611.0998,-354.7216 619.3118,-361.4158 621.694,-354.8336"/>
</g>
<!-- Node26 -->
<g id="node27" class="node">
<title>Node26</title>
<g id="a_node27"><a xlink:href="Frame_8hxx.html" target="_top" xlink:title="ui/widgets/Frame.hxx">
<polygon fill="none" stroke="#000000" points="535.5,-392.5 535.5,-411.5 656.5,-411.5 656.5,-392.5 535.5,-392.5"/>
<text text-anchor="middle" x="596" y="-399.5" font-family="Helvetica,sans-Serif" font-size="10.00" fill="#000000">ui/widgets/Frame.hxx</text>
</a>
</g>
</g>
<!-- Node0&#45;&gt;Node26 -->
<g id="edge52" class="edge">
<title>Node0&#45;&gt;Node26</title>
<path fill="none" stroke="#191970" d="M632.3358,-448.2455C626.1527,-440.3761 617.2937,-429.101 609.8711,-419.6542"/>
<polygon fill="#191970" stroke="#191970" points="612.5068,-417.3435 603.5764,-411.6427 607.0025,-421.6683 612.5068,-417.3435"/>
</g>
<!-- Node27 -->
<g id="node28" class="node">
<title>Node27</title>
<g id="a_node28"><a xlink:href="Tooltip_8hxx.html" target="_top" xlink:title="ui/widgets/Tooltip.hxx">
<polygon fill="none" stroke="#000000" points="1001.5,-336.5 1001.5,-355.5 1124.5,-355.5 1124.5,-336.5 1001.5,-336.5"/>
<text text-anchor="middle" x="1063" y="-343.5" font-family="Helvetica,sans-Serif" font-size="10.00" fill="#000000">ui/widgets/Tooltip.hxx</text>
</a>
</g>
</g>
<!-- Node0&#45;&gt;Node27 -->
<g id="edge56" class="edge">
<title>Node0&#45;&gt;Node27</title>
<path fill="none" stroke="#191970" d="M711.7944,-453.3567C798.6827,-446.8968 939.2843,-433.5059 987,-412 1011.7343,-400.852 1034.4195,-378.9521 1048.4444,-363.4411"/>
<polygon fill="#191970" stroke="#191970" points="1051.3598,-365.4238 1055.3029,-355.5901 1046.088,-360.8185 1051.3598,-365.4238"/>
</g>
<!-- Node32 -->
<g id="node33" class="node">
<title>Node32</title>
<g id="a_node33"><a xlink:href="Slider_8hxx.html" target="_top" xlink:title="ui/widgets/Slider.hxx">
<polygon fill="none" stroke="#000000" points="162,-280.5 162,-299.5 280,-299.5 280,-280.5 162,-280.5"/>
<text text-anchor="middle" x="221" y="-287.5" font-family="Helvetica,sans-Serif" font-size="10.00" fill="#000000">ui/widgets/Slider.hxx</text>
</a>
</g>
</g>
<!-- Node0&#45;&gt;Node32 -->
<g id="edge65" class="edge">
<title>Node0&#45;&gt;Node32</title>
<path fill="none" stroke="#191970" d="M568.2815,-455.714C480.4071,-451.6876 337.7911,-440.8082 294,-412 256.8634,-387.5694 235.8496,-337.1345 226.6531,-309.3735"/>
<polygon fill="#191970" stroke="#191970" points="229.9313,-308.1297 223.6053,-299.6307 223.2506,-310.2196 229.9313,-308.1297"/>
</g>
<!-- Node3&#45;&gt;Node1 -->
<g id="edge31" class="edge">
<title>Node3&#45;&gt;Node1</title>
<path fill="none" stroke="#191970" d="M642.8115,-224.3193C650.4678,-203.8371 666.7603,-154.5032 664,-112 663.4402,-103.3805 662.2964,-93.9095 661.1561,-85.8133"/>
<polygon fill="#191970" stroke="#191970" points="664.604,-85.2041 659.6586,-75.8343 657.6815,-86.243 664.604,-85.2041"/>
</g>
<!-- Node4 -->
<g id="node5" class="node">
<title>Node4</title>
<polygon fill="none" stroke="#bfbfbf" points="339,-.5 339,-19.5 383,-19.5 383,-.5 339,-.5"/>
<text text-anchor="middle" x="361" y="-7.5" font-family="Helvetica,sans-Serif" font-size="10.00" fill="#000000">string</text>
</g>
<!-- Node3&#45;&gt;Node4 -->
<g id="edge4" class="edge">
<title>Node3&#45;&gt;Node4</title>
<path fill="none" stroke="#191970" d="M706.1847,-228.8692C755.3788,-223.2782 822.8858,-211.7193 878,-188 922.4592,-168.8663 986.5108,-149.574 956,-112 919.9228,-67.5711 512.2342,-24.7009 393.3511,-13.0749"/>
<polygon fill="#191970" stroke="#191970" points="393.3729,-9.5607 383.0815,-12.0784 392.6967,-16.528 393.3729,-9.5607"/>
</g>
<!-- Node5 -->
<g id="node6" class="node">
<title>Node5</title>
<g id="a_node6"><a xlink:href="mapEdit_8hxx.html" target="_top" xlink:title="../../basics/mapEdit.hxx">
<polygon fill="none" stroke="#000000" points="1003,-56.5 1003,-75.5 1133,-75.5 1133,-56.5 1003,-56.5"/>
<text text-anchor="middle" x="1068" y="-63.5" font-family="Helvetica,sans-Serif" font-size="10.00" fill="#000000">../../basics/mapEdit.hxx</text>
</a>
</g>
</g>
<!-- Node3&#45;&gt;Node5 -->
<g id="edge5" class="edge">
<title>Node3&#45;&gt;Node5</title>
<path fill="none" stroke="#191970" d="M706.2791,-229.1963C784.8967,-222.7009 909.52,-209.4028 951,-188 998.5909,-163.4441 1037.7842,-111.9052 1056.3698,-84.3293"/>
<polygon fill="#191970" stroke="#191970" points="1059.5004,-85.9382 1062.0643,-75.6583 1053.6493,-82.0956 1059.5004,-85.9382"/>
</g>
<!-- Node6 -->
<g id="node7" class="node">
<title>Node6</title>
<g id="a_node7"><a xlink:href="ResourcesManager_8hxx.html" target="_top" xlink:title="../../ResourcesManager.hxx">
<polygon fill="none" stroke="#000000" points="372,-168.5 372,-187.5 518,-187.5 518,-168.5 372,-168.5"/>
<text text-anchor="middle" x="445" y="-175.5" font-family="Helvetica,sans-Serif" font-size="10.00" fill="#000000">../../ResourcesManager.hxx</text>
</a>
</g>
</g>
<!-- Node3&#45;&gt;Node6 -->
<g id="edge7" class="edge">
<title>Node3&#45;&gt;Node6</title>
<path fill="none" stroke="#191970" d="M605.6502,-224.3733C572.972,-214.9404 523.0382,-200.5265 487.523,-190.2747"/>
<polygon fill="#191970" stroke="#191970" points="488.493,-186.9119 477.9146,-187.5011 486.5516,-193.6373 488.493,-186.9119"/>
</g>
<!-- Node13 -->
<g id="node14" class="node">
<title>Node13</title>
<g id="a_node14"><a xlink:href="WindowManager_8hxx.html" target="_top" xlink:title="../../WindowManager.hxx">
<polygon fill="none" stroke="#000000" points="218,-168.5 218,-187.5 354,-187.5 354,-168.5 218,-168.5"/>
<text text-anchor="middle" x="286" y="-175.5" font-family="Helvetica,sans-Serif" font-size="10.00" fill="#000000">../../WindowManager.hxx</text>
</a>
</g>
</g>
<!-- Node3&#45;&gt;Node13 -->
<g id="edge19" class="edge">
<title>Node3&#45;&gt;Node13</title>
<path fill="none" stroke="#191970" d="M578.7182,-224.4369C517.0358,-214.6516 421.2635,-199.4582 356.2016,-189.1368"/>
<polygon fill="#191970" stroke="#191970" points="356.458,-185.6338 346.0331,-187.5237 355.3612,-192.5473 356.458,-185.6338"/>
</g>
<!-- Node14 -->
<g id="node15" class="node">
<title>Node14</title>
<g id="a_node15"><a xlink:href="signal_8hxx.html" target="_top" xlink:title="../../basics/signal.hxx">
<polygon fill="none" stroke="#000000" points="749.5,-168.5 749.5,-187.5 868.5,-187.5 868.5,-168.5 749.5,-168.5"/>
<text text-anchor="middle" x="809" y="-175.5" font-family="Helvetica,sans-Serif" font-size="10.00" fill="#000000">../../basics/signal.hxx</text>
</a>
</g>
</g>
<!-- Node3&#45;&gt;Node14 -->
<g id="edge25" class="edge">
<title>Node3&#45;&gt;Node14</title>
<path fill="none" stroke="#191970" d="M668.224,-224.3733C696.4925,-215.0613 739.4965,-200.8953 770.5344,-190.671"/>
<polygon fill="#191970" stroke="#191970" points="771.7544,-193.9542 780.1573,-187.5011 769.5643,-187.3056 771.7544,-193.9542"/>
</g>
<!-- Node5&#45;&gt;Node4 -->
<g id="edge6" class="edge">
<title>Node5&#45;&gt;Node4</title>
<path fill="none" stroke="#191970" d="M1002.9337,-57.4875C998.2215,-56.9558 993.5396,-56.4533 989,-56 761.155,-33.2508 485.7456,-16.9339 393.1328,-11.7528"/>
<polygon fill="#191970" stroke="#191970" points="393.185,-8.2503 383.0061,-11.19 392.7965,-15.2396 393.185,-8.2503"/>
</g>
<!-- Node6&#45;&gt;Node1 -->
<g id="edge10" class="edge">
<title>Node6&#45;&gt;Node1</title>
<path fill="none" stroke="#191970" d="M463.1603,-168.4509C500.651,-148.7375 586.7847,-103.4465 630.8913,-80.2543"/>
<polygon fill="#191970" stroke="#191970" points="632.6636,-83.2768 639.8857,-75.5249 629.4058,-77.0811 632.6636,-83.2768"/>
</g>
<!-- Node7 -->
<g id="node8" class="node">
<title>Node7</title>
<polygon fill="none" stroke="#bfbfbf" points="289,-112.5 289,-131.5 349,-131.5 349,-112.5 289,-112.5"/>
<text text-anchor="middle" x="319" y="-119.5" font-family="Helvetica,sans-Serif" font-size="10.00" fill="#000000">iostream</text>
</g>
<!-- Node6&#45;&gt;Node7 -->
<g id="edge8" class="edge">
<title>Node6&#45;&gt;Node7</title>
<path fill="none" stroke="#191970" d="M423.3398,-168.3733C403.0228,-159.3435 372.436,-145.7494 349.625,-135.6111"/>
<polygon fill="#191970" stroke="#191970" points="350.9372,-132.3642 340.3775,-131.5011 348.0941,-138.7609 350.9372,-132.3642"/>
</g>
<!-- Node8 -->
<g id="node9" class="node">
<title>Node8</title>
<polygon fill="none" stroke="#bfbfbf" points="499.5,-56.5 499.5,-75.5 592.5,-75.5 592.5,-56.5 499.5,-56.5"/>
<text text-anchor="middle" x="546" y="-63.5" font-family="Helvetica,sans-Serif" font-size="10.00" fill="#000000">unordered_map</text>
</g>
<!-- Node6&#45;&gt;Node8 -->
<g id="edge9" class="edge">
<title>Node6&#45;&gt;Node8</title>
<path fill="none" stroke="#191970" d="M453.6112,-168.4509C470.6804,-149.5227 509.0141,-107.014 530.5543,-83.1279"/>
<polygon fill="#191970" stroke="#191970" points="533.3128,-85.2952 537.4106,-75.5249 528.1144,-80.6073 533.3128,-85.2952"/>
</g>
<!-- Node9 -->
<g id="node10" class="node">
<title>Node9</title>
<g id="a_node10"><a xlink:href="TileManager_8hxx.html" target="_top" xlink:title="TileManager.hxx">
<polygon fill="none" stroke="#000000" points="367.5,-112.5 367.5,-131.5 464.5,-131.5 464.5,-112.5 367.5,-112.5"/>
<text text-anchor="middle" x="416" y="-119.5" font-family="Helvetica,sans-Serif" font-size="10.00" fill="#000000">TileManager.hxx</text>
</a>
</g>
</g>
<!-- Node6&#45;&gt;Node9 -->
<g id="edge11" class="edge">
<title>Node6&#45;&gt;Node9</title>
<path fill="none" stroke="#191970" d="M439.9486,-168.2455C435.9981,-160.617 430.3903,-149.7881 425.5942,-140.5267"/>
<polygon fill="#191970" stroke="#191970" points="428.7001,-138.9131 420.9935,-131.6427 422.4841,-142.1321 428.7001,-138.9131"/>
</g>
<!-- Node9&#45;&gt;Node1 -->
<g id="edge12" class="edge">
<title>Node9&#45;&gt;Node1</title>
<path fill="none" stroke="#191970" d="M457.3263,-112.4369C505.0675,-101.3893 582.5973,-83.4486 625.9875,-73.4079"/>
<polygon fill="#191970" stroke="#191970" points="626.7785,-76.8174 635.7319,-71.1529 625.2003,-69.9976 626.7785,-76.8174"/>
</g>
<!-- Node9&#45;&gt;Node4 -->
<g id="edge14" class="edge">
<title>Node9&#45;&gt;Node4</title>
<path fill="none" stroke="#191970" d="M411.3107,-112.4509C402.2186,-93.936 382.0469,-52.8591 370.1922,-28.7187"/>
<polygon fill="#191970" stroke="#191970" points="373.227,-26.9582 365.6774,-19.5249 366.9437,-30.0438 373.227,-26.9582"/>
</g>
<!-- Node9&#45;&gt;Node8 -->
<g id="edge13" class="edge">
<title>Node9&#45;&gt;Node8</title>
<path fill="none" stroke="#191970" d="M438.3478,-112.3733C459.4033,-103.3032 491.1495,-89.6279 514.7175,-79.4755"/>
<polygon fill="#191970" stroke="#191970" points="516.1444,-82.6719 523.9438,-75.5011 513.375,-76.243 516.1444,-82.6719"/>
</g>
<!-- Node10 -->
<g id="node11" class="node">
<title>Node10</title>
<g id="a_node11"><a xlink:href="tileData_8hxx.html" target="_top" xlink:title="tileData.hxx">
<polygon fill="none" stroke="#000000" points="289.5,-56.5 289.5,-75.5 366.5,-75.5 366.5,-56.5 289.5,-56.5"/>
<text text-anchor="middle" x="328" y="-63.5" font-family="Helvetica,sans-Serif" font-size="10.00" fill="#000000">tileData.hxx</text>
</a>
</g>
</g>
<!-- Node9&#45;&gt;Node10 -->
<g id="edge15" class="edge">
<title>Node9&#45;&gt;Node10</title>
<path fill="none" stroke="#191970" d="M400.6716,-112.2455C387.1697,-103.6534 367.2878,-91.0014 351.7314,-81.1018"/>
<polygon fill="#191970" stroke="#191970" points="353.4685,-78.0587 343.1528,-75.6427 349.7103,-83.9643 353.4685,-78.0587"/>
</g>
<!-- Node11 -->
<g id="node12" class="node">
<title>Node11</title>
<polygon fill="none" stroke="#bfbfbf" points="423,-56.5 423,-75.5 481,-75.5 481,-56.5 423,-56.5"/>
<text text-anchor="middle" x="452" y="-63.5" font-family="Helvetica,sans-Serif" font-size="10.00" fill="#000000">json.hxx</text>
</g>
<!-- Node9&#45;&gt;Node11 -->
<g id="edge17" class="edge">
<title>Node9&#45;&gt;Node11</title>
<path fill="none" stroke="#191970" d="M422.2707,-112.2455C427.2264,-104.5367 434.283,-93.5598 440.2776,-84.2348"/>
<polygon fill="#191970" stroke="#191970" points="443.3376,-85.9471 445.8011,-75.6427 437.4494,-82.1618 443.3376,-85.9471"/>
</g>
<!-- Node9&#45;&gt;Node12 -->
<g id="edge18" class="edge">
<title>Node9&#45;&gt;Node12</title>
<path fill="none" stroke="#191970" d="M377.5768,-112.4369C339.3125,-102.9133 280.4663,-88.2672 239.1151,-77.9753"/>
<polygon fill="#191970" stroke="#191970" points="239.8141,-74.5426 229.2647,-75.5237 238.1234,-81.3353 239.8141,-74.5426"/>
</g>
<!-- Node10&#45;&gt;Node4 -->
<g id="edge16" class="edge">
<title>Node10&#45;&gt;Node4</title>
<path fill="none" stroke="#191970" d="M333.7482,-56.2455C338.2435,-48.617 344.6248,-37.7881 350.0825,-28.5267"/>
<polygon fill="#191970" stroke="#191970" points="353.2561,-30.035 355.3177,-19.6427 347.2253,-26.4811 353.2561,-30.035"/>
</g>
<!-- Node13&#45;&gt;Node1 -->
<g id="edge23" class="edge">
<title>Node13&#45;&gt;Node1</title>
<path fill="none" stroke="#191970" d="M330.1696,-168.4655C368.2794,-159.9232 424.6521,-146.5299 473,-132 502.3749,-123.172 581.8196,-94.16 626.4592,-77.6903"/>
<polygon fill="#191970" stroke="#191970" points="627.786,-80.9314 635.9535,-74.1829 625.3603,-74.3652 627.786,-80.9314"/>
</g>
<!-- Node13&#45;&gt;Node2 -->
<g id="edge22" class="edge">
<title>Node13&#45;&gt;Node2</title>
<path fill="none" stroke="#191970" d="M259.6984,-168.3733C233.8656,-158.9181 194.3599,-144.4585 166.3384,-134.2023"/>
<polygon fill="#191970" stroke="#191970" points="167.5407,-130.9153 156.947,-130.7649 165.1347,-137.4889 167.5407,-130.9153"/>
</g>
<!-- Node13&#45;&gt;Node4 -->
<g id="edge20" class="edge">
<title>Node13&#45;&gt;Node4</title>
<path fill="none" stroke="#191970" d="M282.2013,-168.3023C274.3273,-146.4992 258.6633,-92.6545 280,-56 290.5714,-37.8393 311.2791,-26.2635 329.1098,-19.2665"/>
<polygon fill="#191970" stroke="#191970" points="330.4132,-22.5173 338.6372,-15.8377 328.0428,-15.9309 330.4132,-22.5173"/>
</g>
<!-- Node13&#45;&gt;Node7 -->
<g id="edge21" class="edge">
<title>Node13&#45;&gt;Node7</title>
<path fill="none" stroke="#191970" d="M291.7482,-168.2455C296.2435,-160.617 302.6248,-149.7881 308.0825,-140.5267"/>
<polygon fill="#191970" stroke="#191970" points="311.2561,-142.035 313.3177,-131.6427 305.2253,-138.4811 311.2561,-142.035"/>
</g>
<!-- Node13&#45;&gt;Node12 -->
<g id="edge24" class="edge">
<title>Node13&#45;&gt;Node12</title>
<path fill="none" stroke="#191970" d="M277.9004,-168.4509C261.9153,-149.6054 226.1032,-107.3849 205.7944,-83.4419"/>
<polygon fill="#191970" stroke="#191970" points="208.2169,-80.887 199.0791,-75.5249 202.8786,-85.415 208.2169,-80.887"/>
</g>
<!-- Node14&#45;&gt;Node2 -->
<g id="edge29" class="edge">
<title>Node14&#45;&gt;Node2</title>
<path fill="none" stroke="#191970" d="M749.3061,-173.0549C611.4441,-161.6344 274.4725,-133.7196 166.7208,-124.7934"/>
<polygon fill="#191970" stroke="#191970" points="166.9896,-121.3038 156.7348,-123.9662 166.4117,-128.2799 166.9896,-121.3038"/>
</g>
<!-- Node15 -->
<g id="node16" class="node">
<title>Node15</title>
<polygon fill="none" stroke="#bfbfbf" points="597,-112.5 597,-131.5 655,-131.5 655,-112.5 597,-112.5"/>
<text text-anchor="middle" x="626" y="-119.5" font-family="Helvetica,sans-Serif" font-size="10.00" fill="#000000">memory</text>
</g>
<!-- Node14&#45;&gt;Node15 -->
<g id="edge26" class="edge">
<title>Node14&#45;&gt;Node15</title>
<path fill="none" stroke="#191970" d="M777.5412,-168.3733C746.4237,-158.851 698.7189,-144.2528 665.1629,-133.9843"/>
<polygon fill="#191970" stroke="#191970" points="665.8237,-130.5263 655.2372,-130.9469 663.7754,-137.22 665.8237,-130.5263"/>
</g>
<!-- Node16 -->
<g id="node17" class="node">
<title>Node16</title>
<polygon fill="none" stroke="#bfbfbf" points="881.5,-112.5 881.5,-131.5 946.5,-131.5 946.5,-112.5 881.5,-112.5"/>
<text text-anchor="middle" x="914" y="-119.5" font-family="Helvetica,sans-Serif" font-size="10.00" fill="#000000">functional</text>
</g>
<!-- Node14&#45;&gt;Node16 -->
<g id="edge27" class="edge">
<title>Node14&#45;&gt;Node16</title>
<path fill="none" stroke="#191970" d="M827.2896,-168.2455C843.7762,-159.4527 868.2352,-146.4079 886.9765,-136.4125"/>
<polygon fill="#191970" stroke="#191970" points="888.7435,-139.4368 895.92,-131.6427 885.4494,-133.2604 888.7435,-139.4368"/>
</g>
<!-- Node17 -->
<g id="node18" class="node">
<title>Node17</title>
<polygon fill="none" stroke="#bfbfbf" points="749,-112.5 749,-131.5 781,-131.5 781,-112.5 749,-112.5"/>
<text text-anchor="middle" x="765" y="-119.5" font-family="Helvetica,sans-Serif" font-size="10.00" fill="#000000">list</text>
</g>
<!-- Node14&#45;&gt;Node17 -->
<g id="edge28" class="edge">
<title>Node14&#45;&gt;Node17</title>
<path fill="none" stroke="#191970" d="M801.3358,-168.2455C795.1527,-160.3761 786.2937,-149.101 778.8711,-139.6542"/>
<polygon fill="#191970" stroke="#191970" points="781.5068,-137.3435 772.5764,-131.6427 776.0025,-141.6683 781.5068,-137.3435"/>
</g>
<!-- Node18 -->
<g id="node19" class="node">
<title>Node18</title>
<polygon fill="none" stroke="#bfbfbf" points="799,-112.5 799,-131.5 863,-131.5 863,-112.5 799,-112.5"/>
<text text-anchor="middle" x="831" y="-119.5" font-family="Helvetica,sans-Serif" font-size="10.00" fill="#000000">algorithm</text>
</g>
<!-- Node14&#45;&gt;Node18 -->
<g id="edge30" class="edge">
<title>Node14&#45;&gt;Node18</title>
<path fill="none" stroke="#191970" d="M812.8321,-168.2455C815.7659,-160.7776 819.9047,-150.2427 823.491,-141.1137"/>
<polygon fill="#191970" stroke="#191970" points="826.8129,-142.23 827.2118,-131.6427 820.2976,-139.6704 826.8129,-142.23"/>
</g>
<!-- Node19&#45;&gt;Node2 -->
<g id="edge35" class="edge">
<title>Node19&#45;&gt;Node2</title>
<path fill="none" stroke="#191970" d="M91.1138,-280.495C100.3296,-262.8513 119.5503,-223.5887 128,-188 131.6135,-172.7807 132.7978,-155.0856 133.1147,-141.8508"/>
<polygon fill="#191970" stroke="#191970" points="136.6173,-141.5744 133.2091,-131.5427 129.6175,-141.5102 136.6173,-141.5744"/>
</g>
<!-- Node19&#45;&gt;Node3 -->
<g id="edge33" class="edge">
<title>Node19&#45;&gt;Node3</title>
<path fill="none" stroke="#191970" d="M144.0787,-281.1363C147.0939,-280.7372 150.0814,-280.3557 153,-280 296.8774,-262.4667 465.4144,-247.8305 561.4542,-240.0454"/>
<polygon fill="#191970" stroke="#191970" points="561.973,-243.515 571.659,-239.2219 561.4099,-236.5377 561.973,-243.515"/>
</g>
<!-- Node19&#45;&gt;Node4 -->
<g id="edge34" class="edge">
<title>Node19&#45;&gt;Node4</title>
<path fill="none" stroke="#191970" d="M78.7098,-280.4077C65.282,-261.7535 38,-218.829 38,-178 38,-178 38,-178 38,-122 38,-82.0568 63.9327,-75.1243 99,-56 138.2042,-34.6196 267.6913,-19.2911 328.685,-13.0721"/>
<polygon fill="#191970" stroke="#191970" points="329.2942,-16.5287 338.8963,-12.0511 328.5977,-9.5634 329.2942,-16.5287"/>
</g>
<!-- Node20&#45;&gt;Node3 -->
<g id="edge37" class="edge">
<title>Node20&#45;&gt;Node3</title>
<path fill="none" stroke="#191970" d="M746.0968,-392.4178C712.9752,-383.6405 669.5007,-369.9305 658,-356 633.9864,-326.913 634.0077,-280.1733 636.3684,-253.79"/>
<polygon fill="#191970" stroke="#191970" points="639.8817,-253.8614 637.4998,-243.5377 632.9239,-253.0935 639.8817,-253.8614"/>
</g>
<!-- Node20&#45;&gt;Node21 -->
<g id="edge38" class="edge">
<title>Node20&#45;&gt;Node21</title>
<path fill="none" stroke="#191970" d="M775.723,-392.2455C767.1782,-384.1352 754.8222,-372.4075 744.6915,-362.7919"/>
<polygon fill="#191970" stroke="#191970" points="746.8218,-359.9884 737.1592,-355.6427 742.0028,-365.0655 746.8218,-359.9884"/>
</g>
<!-- Node21&#45;&gt;Node3 -->
<g id="edge39" class="edge">
<title>Node21&#45;&gt;Node3</title>
<path fill="none" stroke="#191970" d="M719.4972,-336.4509C704.6899,-317.6054 671.5167,-275.3849 652.7043,-251.4419"/>
<polygon fill="#191970" stroke="#191970" points="655.4142,-249.2257 646.4838,-243.5249 649.91,-253.5505 655.4142,-249.2257"/>
</g>
<!-- Node21&#45;&gt;Node22 -->
<g id="edge40" class="edge">
<title>Node21&#45;&gt;Node22</title>
<path fill="none" stroke="#191970" d="M764.1317,-336.3733C803.1901,-326.247 864.389,-310.3806 904.1002,-300.0851"/>
<polygon fill="#191970" stroke="#191970" points="905.1518,-303.4283 913.9534,-297.5306 903.395,-296.6523 905.1518,-303.4283"/>
</g>
<!-- Node22&#45;&gt;Node3 -->
<g id="edge42" class="edge">
<title>Node22&#45;&gt;Node3</title>
<path fill="none" stroke="#191970" d="M913.8512,-284.6305C865.043,-275.6395 765.7574,-257.3501 700.8368,-245.391"/>
<polygon fill="#191970" stroke="#191970" points="701.1941,-241.898 690.7255,-243.5284 699.9259,-248.7822 701.1941,-241.898"/>
</g>
<!-- Node22&#45;&gt;Node4 -->
<g id="edge41" class="edge">
<title>Node22&#45;&gt;Node4</title>
<path fill="none" stroke="#191970" d="M972.1488,-285.6592C1048.2375,-273.5134 1247,-236.2143 1247,-178 1247,-178 1247,-178 1247,-122 1247,-66.8799 1194.4927,-72.8147 1142,-56 1069.9778,-32.9295 532.1424,-15.1845 393.5162,-10.9605"/>
<polygon fill="#191970" stroke="#191970" points="393.2504,-7.4509 383.1492,-10.6472 393.0389,-14.4477 393.2504,-7.4509"/>
</g>
<!-- Node23&#45;&gt;Node3 -->
<g id="edge45" class="edge">
<title>Node23&#45;&gt;Node3</title>
<path fill="none" stroke="#191970" d="M854.8788,-336.4509C813.0784,-316.6135 716.7027,-270.8758 668.1194,-247.8194"/>
<polygon fill="#191970" stroke="#191970" points="669.6052,-244.6504 659.0703,-243.5249 666.6039,-250.9744 669.6052,-244.6504"/>
</g>
<!-- Node24&#45;&gt;Node3 -->
<g id="edge48" class="edge">
<title>Node24&#45;&gt;Node3</title>
<path fill="none" stroke="#191970" d="M451.6186,-392.2203C464.927,-369.7761 500.4683,-313.9007 543,-280 560.4757,-266.0707 582.8611,-255.0371 601.619,-247.2715"/>
<polygon fill="#191970" stroke="#191970" points="603.0596,-250.4651 611.0523,-243.5104 600.4671,-243.9629 603.0596,-250.4651"/>
</g>
<!-- Node24&#45;&gt;Node15 -->
<g id="edge47" class="edge">
<title>Node24&#45;&gt;Node15</title>
<path fill="none" stroke="#191970" d="M448.9885,-392.2666C453.2219,-379.0869 461.6175,-355.0266 472,-336 514.6486,-257.8439 581.3959,-174.908 610.9977,-139.5782"/>
<polygon fill="#191970" stroke="#191970" points="613.9108,-141.5532 617.686,-131.6537 608.5614,-137.0383 613.9108,-141.5532"/>
</g>
<!-- Node24&#45;&gt;Node25 -->
<g id="edge49" class="edge">
<title>Node24&#45;&gt;Node25</title>
<path fill="none" stroke="#191970" d="M467.4883,-392.3733C487.644,-383.3435 517.988,-369.7494 540.618,-359.6111"/>
<polygon fill="#191970" stroke="#191970" points="542.0971,-362.7838 549.7921,-355.5011 539.2351,-356.3955 542.0971,-362.7838"/>
</g>
<!-- Node25&#45;&gt;Node3 -->
<g id="edge50" class="edge">
<title>Node25&#45;&gt;Node3</title>
<path fill="none" stroke="#191970" d="M576.7976,-336.4509C588.1392,-317.7707 613.4249,-276.1238 628.0252,-252.0761"/>
<polygon fill="#191970" stroke="#191970" points="631.019,-253.8892 633.217,-243.5249 625.0354,-250.2563 631.019,-253.8892"/>
</g>
<!-- Node25&#45;&gt;Node22 -->
<g id="edge51" class="edge">
<title>Node25&#45;&gt;Node22</title>
<path fill="none" stroke="#191970" d="M611.164,-339.9538C682.9697,-329.1444 832.4858,-306.6365 903.6786,-295.9194"/>
<polygon fill="#191970" stroke="#191970" points="904.228,-299.3762 913.5956,-294.4265 903.1859,-292.4542 904.228,-299.3762"/>
</g>
<!-- Node26&#45;&gt;Node3 -->
<g id="edge53" class="edge">
<title>Node26&#45;&gt;Node3</title>
<path fill="none" stroke="#191970" d="M569.1978,-392.3103C543.5592,-381.3148 510.382,-361.5417 522,-336 540.223,-295.9375 582.8159,-265.477 611.2663,-248.6731"/>
<polygon fill="#191970" stroke="#191970" points="613.0147,-251.7052 619.9576,-243.7023 609.5394,-245.6288 613.0147,-251.7052"/>
</g>
<!-- Node27&#45;&gt;Node3 -->
<g id="edge57" class="edge">
<title>Node27&#45;&gt;Node3</title>
<path fill="none" stroke="#191970" d="M1054.5213,-336.4237C1040.7402,-321.5605 1011.8957,-293.2707 981,-280 934.8011,-260.156 802.1544,-246.5585 716.2856,-239.5473"/>
<polygon fill="#191970" stroke="#191970" points="716.5626,-236.0584 706.3142,-238.7455 716.0015,-243.0359 716.5626,-236.0584"/>
</g>
<!-- Node27&#45;&gt;Node22 -->
<g id="edge58" class="edge">
<title>Node27&#45;&gt;Node22</title>
<path fill="none" stroke="#191970" d="M1042.3713,-336.3733C1023.1081,-327.3838 994.1514,-313.8706 972.4581,-303.7471"/>
<polygon fill="#191970" stroke="#191970" points="973.9015,-300.5584 963.3595,-299.5011 970.9413,-306.9017 973.9015,-300.5584"/>
</g>
<!-- Node28 -->
<g id="node29" class="node">
<title>Node28</title>
<g id="a_node29"><a xlink:href="Timer_8hxx.html" target="_top" xlink:title="../../basics/Timer.hxx">
<polygon fill="none" stroke="#000000" points="1007.5,-224.5 1007.5,-243.5 1124.5,-243.5 1124.5,-224.5 1007.5,-224.5"/>
<text text-anchor="middle" x="1066" y="-231.5" font-family="Helvetica,sans-Serif" font-size="10.00" fill="#000000">../../basics/Timer.hxx</text>
</a>
</g>
</g>
<!-- Node27&#45;&gt;Node28 -->
<g id="edge59" class="edge">
<title>Node27&#45;&gt;Node28</title>
<path fill="none" stroke="#191970" d="M1063.2558,-336.4509C1063.7451,-318.184 1064.8226,-277.9553 1065.4724,-253.6976"/>
<polygon fill="#191970" stroke="#191970" points="1068.9758,-253.6151 1065.7449,-243.5249 1061.9783,-253.4276 1068.9758,-253.6151"/>
</g>
<!-- Node28&#45;&gt;Node1 -->
<g id="edge63" class="edge">
<title>Node28&#45;&gt;Node1</title>
<path fill="none" stroke="#191970" d="M1058.6011,-224.2275C1038.4039,-197.8236 982.0978,-126.0922 956,-112 910.4184,-87.387 757.2075,-73.3373 690.0254,-68.2286"/>
<polygon fill="#191970" stroke="#191970" points="690.2431,-64.7352 680.0114,-67.4852 689.7249,-71.716 690.2431,-64.7352"/>
</g>
<!-- Node28&#45;&gt;Node14 -->
<g id="edge64" class="edge">
<title>Node28&#45;&gt;Node14</title>
<path fill="none" stroke="#191970" d="M1022.1121,-224.4369C978.0362,-214.8328 910.0519,-200.0191 862.7642,-189.7152"/>
<polygon fill="#191970" stroke="#191970" points="863.2228,-186.233 852.7068,-187.5237 861.7324,-193.0725 863.2228,-186.233"/>
</g>
<!-- Node29 -->
<g id="node30" class="node">
<title>Node29</title>
<polygon fill="none" stroke="#bfbfbf" points="1175,-168.5 1175,-187.5 1219,-187.5 1219,-168.5 1175,-168.5"/>
<text text-anchor="middle" x="1197" y="-175.5" font-family="Helvetica,sans-Serif" font-size="10.00" fill="#000000">ctime</text>
</g>
<!-- Node28&#45;&gt;Node29 -->
<g id="edge60" class="edge">
<title>Node28&#45;&gt;Node29</title>
<path fill="none" stroke="#191970" d="M1088.5197,-224.3733C1109.7372,-215.3032 1141.7276,-201.6279 1165.4769,-191.4755"/>
<polygon fill="#191970" stroke="#191970" points="1166.9548,-194.6502 1174.7742,-187.5011 1164.2033,-188.2136 1166.9548,-194.6502"/>
</g>
<!-- Node30 -->
<g id="node31" class="node">
<title>Node30</title>
<polygon fill="none" stroke="#bfbfbf" points="1041,-168.5 1041,-187.5 1091,-187.5 1091,-168.5 1041,-168.5"/>
<text text-anchor="middle" x="1066" y="-175.5" font-family="Helvetica,sans-Serif" font-size="10.00" fill="#000000">chrono</text>
</g>
<!-- Node28&#45;&gt;Node30 -->
<g id="edge61" class="edge">
<title>Node28&#45;&gt;Node30</title>
<path fill="none" stroke="#191970" d="M1066,-224.2455C1066,-216.9382 1066,-206.6944 1066,-197.7046"/>
<polygon fill="#191970" stroke="#191970" points="1069.5001,-197.6426 1066,-187.6427 1062.5001,-197.6427 1069.5001,-197.6426"/>
</g>
<!-- Node31 -->
<g id="node32" class="node">
<title>Node31</title>
<polygon fill="none" stroke="#bfbfbf" points="1109,-168.5 1109,-187.5 1157,-187.5 1157,-168.5 1109,-168.5"/>
<text text-anchor="middle" x="1133" y="-175.5" font-family="Helvetica,sans-Serif" font-size="10.00" fill="#000000">thread</text>
</g>
<!-- Node28&#45;&gt;Node31 -->
<g id="edge62" class="edge">
<title>Node28&#45;&gt;Node31</title>
<path fill="none" stroke="#191970" d="M1077.6705,-224.2455C1087.5661,-215.9746 1101.9627,-203.9416 1113.5901,-194.2232"/>
<polygon fill="#191970" stroke="#191970" points="1116.035,-196.7413 1121.4632,-187.6427 1111.5458,-191.3703 1116.035,-196.7413"/>
</g>
<!-- Node32&#45;&gt;Node3 -->
<g id="edge67" class="edge">
<title>Node32&#45;&gt;Node3</title>
<path fill="none" stroke="#191970" d="M280.0026,-282.0953C353.7026,-272.2217 479.9981,-255.3017 561.4521,-244.3892"/>
<polygon fill="#191970" stroke="#191970" points="562.2031,-247.8199 571.6498,-243.023 561.2735,-240.8819 562.2031,-247.8199"/>
</g>
<!-- Node32&#45;&gt;Node4 -->
<g id="edge66" class="edge">
<title>Node32&#45;&gt;Node4</title>
<path fill="none" stroke="#191970" d="M187.3696,-280.4248C144.5352,-265.9271 76,-233.9834 76,-178 76,-178 76,-178 76,-122 76,-81.1401 104.201,-75.6967 140,-56 172.1903,-38.2888 275.7805,-21.8454 328.9126,-14.3137"/>
<polygon fill="#191970" stroke="#191970" points="329.4105,-17.7783 338.8302,-12.9285 328.4421,-10.8456 329.4105,-17.7783"/>
</g>
</g>
</svg>
