<?xml version="1.0" encoding="UTF-8" standalone="no"?>
<!DOCTYPE svg PUBLIC "-//W3C//DTD SVG 1.1//EN"
 "http://www.w3.org/Graphics/SVG/1.1/DTD/svg11.dtd">
<!-- Generated by graphviz version 2.40.1 (20161225.0304)
 -->
<!-- Title: src/engine/WindowManager.cxx Pages: 1 -->
<svg width="871pt" height="196pt"
 viewBox="0.00 0.00 870.83 196.00" xmlns="http://www.w3.org/2000/svg" xmlns:xlink="http://www.w3.org/1999/xlink">
<g id="graph0" class="graph" transform="scale(1 1) rotate(0) translate(4 192)">
<title>src/engine/WindowManager.cxx</title>
<!-- Node0 -->
<g id="node1" class="node">
<title>Node0</title>
<polygon fill="#bfbfbf" stroke="#000000" points="467.5,-168.5 467.5,-187.5 637.5,-187.5 637.5,-168.5 467.5,-168.5"/>
<text text-anchor="middle" x="552.5" y="-175.5" font-family="Helvetica,sans-Serif" font-size="10.00" fill="#000000">src/engine/WindowManager.cxx</text>
</g>
<!-- Node1 -->
<g id="node2" class="node">
<title>Node1</title>
<g id="a_node2"><a xlink:href="WindowManager_8hxx.html" target="_top" xlink:title="WindowManager.hxx">
<polygon fill="none" stroke="#000000" points="410.5,-112.5 410.5,-131.5 528.5,-131.5 528.5,-112.5 410.5,-112.5"/>
<text text-anchor="middle" x="469.5" y="-119.5" font-family="Helvetica,sans-Serif" font-size="10.00" fill="#000000">WindowManager.hxx</text>
</a>
</g>
</g>
<!-- Node0&#45;&gt;Node1 -->
<g id="edge1" class="edge">
<title>Node0&#45;&gt;Node1</title>
<path fill="none" stroke="#191970" d="M538.0425,-168.2455C525.4268,-159.7337 506.9056,-147.2375 492.2955,-137.3801"/>
<polygon fill="#191970" stroke="#191970" points="494.0391,-134.3343 483.7918,-131.6427 490.1239,-140.1371 494.0391,-134.3343"/>
</g>
<!-- Node7 -->
<g id="node8" class="node">
<title>Node7</title>
<g id="a_node8"><a xlink:href="LOG_8hxx.html" target="_top" xlink:title="basics/LOG.hxx">
<polygon fill="none" stroke="#000000" points="600.5,-112.5 600.5,-131.5 692.5,-131.5 692.5,-112.5 600.5,-112.5"/>
<text text-anchor="middle" x="646.5" y="-119.5" font-family="Helvetica,sans-Serif" font-size="10.00" fill="#000000">basics/LOG.hxx</text>
</a>
</g>
</g>
<!-- Node0&#45;&gt;Node7 -->
<g id="edge7" class="edge">
<title>Node0&#45;&gt;Node7</title>
<path fill="none" stroke="#191970" d="M568.8736,-168.2455C583.4308,-159.5731 604.931,-146.7645 621.6152,-136.825"/>
<polygon fill="#191970" stroke="#191970" points="623.5144,-139.7676 630.3141,-131.6427 619.9317,-133.7539 623.5144,-139.7676"/>
</g>
<!-- Node12 -->
<g id="node13" class="node">
<title>Node12</title>
<g id="a_node13"><a xlink:href="Settings_8hxx.html" target="_top" xlink:title="basics/Settings.hxx">
<polygon fill="none" stroke="#000000" points="199,-112.5 199,-131.5 310,-131.5 310,-112.5 199,-112.5"/>
<text text-anchor="middle" x="254.5" y="-119.5" font-family="Helvetica,sans-Serif" font-size="10.00" fill="#000000">basics/Settings.hxx</text>
</a>
</g>
</g>
<!-- Node0&#45;&gt;Node12 -->
<g id="edge14" class="edge">
<title>Node0&#45;&gt;Node12</title>
<path fill="none" stroke="#191970" d="M501.6106,-168.4369C449.9673,-158.7321 370.0174,-143.708 315.1251,-133.3926"/>
<polygon fill="#191970" stroke="#191970" points="315.6539,-129.9308 305.1795,-131.5237 314.3611,-136.8104 315.6539,-129.9308"/>
</g>
<!-- Node18 -->
<g id="node19" class="node">
<title>Node18</title>
<polygon fill="none" stroke="#bfbfbf" points="710.5,-112.5 710.5,-131.5 790.5,-131.5 790.5,-112.5 710.5,-112.5"/>
<text text-anchor="middle" x="750.5" y="-119.5" font-family="Helvetica,sans-Serif" font-size="10.00" fill="#000000">SDL_image.h</text>
</g>
<!-- Node0&#45;&gt;Node18 -->
<g id="edge23" class="edge">
<title>Node0&#45;&gt;Node18</title>
<path fill="none" stroke="#191970" d="M586.5374,-168.3733C619.8894,-158.9404 670.8527,-144.5265 707.1002,-134.2747"/>
<polygon fill="#191970" stroke="#191970" points="708.2368,-137.5906 716.9067,-131.5011 706.3316,-130.8548 708.2368,-137.5906"/>
</g>
<!-- Node2 -->
<g id="node3" class="node">
<title>Node2</title>
<polygon fill="none" stroke="#bfbfbf" points="232.5,-56.5 232.5,-75.5 276.5,-75.5 276.5,-56.5 232.5,-56.5"/>
<text text-anchor="middle" x="254.5" y="-63.5" font-family="Helvetica,sans-Serif" font-size="10.00" fill="#000000">string</text>
</g>
<!-- Node1&#45;&gt;Node2 -->
<g id="edge2" class="edge">
<title>Node1&#45;&gt;Node2</title>
<path fill="none" stroke="#191970" d="M428.0002,-112.4651C392.6888,-104.1643 340.4324,-91.4397 286.5216,-76.1677"/>
<polygon fill="#191970" stroke="#191970" points="287.3731,-72.771 276.7964,-73.3897 285.4504,-79.5018 287.3731,-72.771"/>
</g>
<!-- Node3 -->
<g id="node4" class="node">
<title>Node3</title>
<polygon fill="none" stroke="#bfbfbf" points="469.5,-.5 469.5,-19.5 529.5,-19.5 529.5,-.5 469.5,-.5"/>
<text text-anchor="middle" x="499.5" y="-7.5" font-family="Helvetica,sans-Serif" font-size="10.00" fill="#000000">iostream</text>
</g>
<!-- Node1&#45;&gt;Node3 -->
<g id="edge3" class="edge">
<title>Node1&#45;&gt;Node3</title>
<path fill="none" stroke="#191970" d="M472.0578,-112.4509C476.9729,-94.1013 487.8239,-53.5908 494.3118,-29.3693"/>
<polygon fill="#191970" stroke="#191970" points="497.7421,-30.09 496.9487,-19.5249 490.9804,-28.2788 497.7421,-30.09"/>
</g>
<!-- Node4 -->
<g id="node5" class="node">
<title>Node4</title>
<polygon fill="none" stroke="#bfbfbf" points="424,-56.5 424,-75.5 471,-75.5 471,-56.5 424,-56.5"/>
<text text-anchor="middle" x="447.5" y="-63.5" font-family="Helvetica,sans-Serif" font-size="10.00" fill="#000000">vector</text>
</g>
<!-- Node1&#45;&gt;Node4 -->
<g id="edge4" class="edge">
<title>Node1&#45;&gt;Node4</title>
<path fill="none" stroke="#191970" d="M465.6679,-112.2455C462.7341,-104.7776 458.5953,-94.2427 455.009,-85.1137"/>
<polygon fill="#191970" stroke="#191970" points="458.2024,-83.6704 451.2882,-75.6427 451.6871,-86.23 458.2024,-83.6704"/>
</g>
<!-- Node5 -->
<g id="node6" class="node">
<title>Node5</title>
<polygon fill="none" stroke="#bfbfbf" points="527.5,-56.5 527.5,-75.5 571.5,-75.5 571.5,-56.5 527.5,-56.5"/>
<text text-anchor="middle" x="549.5" y="-63.5" font-family="Helvetica,sans-Serif" font-size="10.00" fill="#000000">SDL.h</text>
</g>
<!-- Node1&#45;&gt;Node5 -->
<g id="edge5" class="edge">
<title>Node1&#45;&gt;Node5</title>
<path fill="none" stroke="#191970" d="M483.4349,-112.2455C495.5947,-103.7337 513.4464,-91.2375 527.5285,-81.3801"/>
<polygon fill="#191970" stroke="#191970" points="529.5395,-84.2447 535.7248,-75.6427 525.5253,-78.51 529.5395,-84.2447"/>
</g>
<!-- Node6 -->
<g id="node7" class="node">
<title>Node6</title>
<g id="a_node7"><a xlink:href="Singleton_8hxx.html" target="_top" xlink:title="../util/Singleton.hxx">
<polygon fill="none" stroke="#000000" points="295,-56.5 295,-75.5 406,-75.5 406,-56.5 295,-56.5"/>
<text text-anchor="middle" x="350.5" y="-63.5" font-family="Helvetica,sans-Serif" font-size="10.00" fill="#000000">../util/Singleton.hxx</text>
</a>
</g>
</g>
<!-- Node1&#45;&gt;Node6 -->
<g id="edge6" class="edge">
<title>Node1&#45;&gt;Node6</title>
<path fill="none" stroke="#191970" d="M449.0432,-112.3733C430.0262,-103.4241 401.4825,-89.9917 380.0024,-79.8835"/>
<polygon fill="#191970" stroke="#191970" points="381.2284,-76.5923 370.6899,-75.5011 378.2478,-82.926 381.2284,-76.5923"/>
</g>
<!-- Node7&#45;&gt;Node3 -->
<g id="edge8" class="edge">
<title>Node7&#45;&gt;Node3</title>
<path fill="none" stroke="#191970" d="M692.5974,-113.5117C753.3649,-102.1039 853.255,-82.5051 858.5,-76 864.0793,-69.0802 864.3724,-62.6729 858.5,-56 837.6858,-32.3487 629.1418,-17.5225 539.7908,-12.2101"/>
<polygon fill="#191970" stroke="#191970" points="539.9443,-8.7132 529.7572,-11.6238 539.536,-15.7012 539.9443,-8.7132"/>
</g>
<!-- Node7&#45;&gt;Node5 -->
<g id="edge13" class="edge">
<title>Node7&#45;&gt;Node5</title>
<path fill="none" stroke="#191970" d="M629.6039,-112.2455C614.582,-103.5731 592.3957,-90.7645 575.179,-80.825"/>
<polygon fill="#191970" stroke="#191970" points="576.6128,-77.6114 566.2025,-75.6427 573.1129,-83.6737 576.6128,-77.6114"/>
</g>
<!-- Node8 -->
<g id="node9" class="node">
<title>Node8</title>
<polygon fill="none" stroke="#bfbfbf" points="589.5,-56.5 589.5,-75.5 639.5,-75.5 639.5,-56.5 589.5,-56.5"/>
<text text-anchor="middle" x="614.5" y="-63.5" font-family="Helvetica,sans-Serif" font-size="10.00" fill="#000000">chrono</text>
</g>
<!-- Node7&#45;&gt;Node8 -->
<g id="edge9" class="edge">
<title>Node7&#45;&gt;Node8</title>
<path fill="none" stroke="#191970" d="M640.926,-112.2455C636.5669,-104.617 630.3789,-93.7881 625.0867,-84.5267"/>
<polygon fill="#191970" stroke="#191970" points="628.0104,-82.5886 620.0101,-75.6427 621.9327,-86.0616 628.0104,-82.5886"/>
</g>
<!-- Node9 -->
<g id="node10" class="node">
<title>Node9</title>
<polygon fill="none" stroke="#bfbfbf" points="657.5,-56.5 657.5,-75.5 701.5,-75.5 701.5,-56.5 657.5,-56.5"/>
<text text-anchor="middle" x="679.5" y="-63.5" font-family="Helvetica,sans-Serif" font-size="10.00" fill="#000000">ctime</text>
</g>
<!-- Node7&#45;&gt;Node9 -->
<g id="edge10" class="edge">
<title>Node7&#45;&gt;Node9</title>
<path fill="none" stroke="#191970" d="M652.2482,-112.2455C656.7435,-104.617 663.1248,-93.7881 668.5825,-84.5267"/>
<polygon fill="#191970" stroke="#191970" points="671.7561,-86.035 673.8177,-75.6427 665.7253,-82.4811 671.7561,-86.035"/>
</g>
<!-- Node10 -->
<g id="node11" class="node">
<title>Node10</title>
<polygon fill="none" stroke="#bfbfbf" points="720,-56.5 720,-75.5 775,-75.5 775,-56.5 720,-56.5"/>
<text text-anchor="middle" x="747.5" y="-63.5" font-family="Helvetica,sans-Serif" font-size="10.00" fill="#000000">fstream</text>
</g>
<!-- Node7&#45;&gt;Node10 -->
<g id="edge11" class="edge">
<title>Node7&#45;&gt;Node10</title>
<path fill="none" stroke="#191970" d="M664.0929,-112.2455C679.879,-103.4928 703.2639,-90.527 721.2587,-80.5496"/>
<polygon fill="#191970" stroke="#191970" points="723.0603,-83.5528 730.1087,-75.6427 719.6659,-77.4308 723.0603,-83.5528"/>
</g>
<!-- Node11 -->
<g id="node12" class="node">
<title>Node11</title>
<polygon fill="none" stroke="#bfbfbf" points="793.5,-56.5 793.5,-75.5 849.5,-75.5 849.5,-56.5 793.5,-56.5"/>
<text text-anchor="middle" x="821.5" y="-63.5" font-family="Helvetica,sans-Serif" font-size="10.00" fill="#000000">sstream</text>
</g>
<!-- Node7&#45;&gt;Node11 -->
<g id="edge12" class="edge">
<title>Node7&#45;&gt;Node11</title>
<path fill="none" stroke="#191970" d="M676.5836,-112.3733C706.1243,-102.9202 751.2973,-88.4649 783.3468,-78.209"/>
<polygon fill="#191970" stroke="#191970" points="784.7974,-81.4197 793.2549,-75.0384 782.6639,-74.7528 784.7974,-81.4197"/>
</g>
<!-- Node12&#45;&gt;Node2 -->
<g id="edge15" class="edge">
<title>Node12&#45;&gt;Node2</title>
<path fill="none" stroke="#191970" d="M254.5,-112.2455C254.5,-104.9382 254.5,-94.6944 254.5,-85.7046"/>
<polygon fill="#191970" stroke="#191970" points="258.0001,-85.6426 254.5,-75.6427 251.0001,-85.6427 258.0001,-85.6426"/>
</g>
<!-- Node12&#45;&gt;Node6 -->
<g id="edge16" class="edge">
<title>Node12&#45;&gt;Node6</title>
<path fill="none" stroke="#191970" d="M271.2219,-112.2455C286.0889,-103.5731 308.0466,-90.7645 325.0858,-80.825"/>
<polygon fill="#191970" stroke="#191970" points="327.0955,-83.7047 333.9697,-75.6427 323.5683,-77.6582 327.0955,-83.7047"/>
</g>
<!-- Node13 -->
<g id="node14" class="node">
<title>Node13</title>
<g id="a_node14"><a xlink:href="Meta_8hxx.html" target="_top" xlink:title="../../util/Meta.hxx">
<polygon fill="none" stroke="#000000" points="44.5,-56.5 44.5,-75.5 142.5,-75.5 142.5,-56.5 44.5,-56.5"/>
<text text-anchor="middle" x="93.5" y="-63.5" font-family="Helvetica,sans-Serif" font-size="10.00" fill="#000000">../../util/Meta.hxx</text>
</a>
</g>
</g>
<!-- Node12&#45;&gt;Node13 -->
<g id="edge17" class="edge">
<title>Node12&#45;&gt;Node13</title>
<path fill="none" stroke="#191970" d="M226.8231,-112.3733C200.1672,-103.1016 159.6762,-89.0178 130.3116,-78.804"/>
<polygon fill="#191970" stroke="#191970" points="131.4105,-75.4807 120.8157,-75.5011 129.1109,-82.0921 131.4105,-75.4807"/>
</g>
<!-- Node17 -->
<g id="node18" class="node">
<title>Node17</title>
<polygon fill="none" stroke="#bfbfbf" points="161,-56.5 161,-75.5 214,-75.5 214,-56.5 161,-56.5"/>
<text text-anchor="middle" x="187.5" y="-63.5" font-family="Helvetica,sans-Serif" font-size="10.00" fill="#000000">cstddef</text>
</g>
<!-- Node12&#45;&gt;Node17 -->
<g id="edge22" class="edge">
<title>Node12&#45;&gt;Node17</title>
<path fill="none" stroke="#191970" d="M242.8295,-112.2455C232.9339,-103.9746 218.5373,-91.9416 206.9099,-82.2232"/>
<polygon fill="#191970" stroke="#191970" points="208.9542,-79.3703 199.0368,-75.6427 204.465,-84.7413 208.9542,-79.3703"/>
</g>
<!-- Node13&#45;&gt;Node3 -->
<g id="edge18" class="edge">
<title>Node13&#45;&gt;Node3</title>
<path fill="none" stroke="#191970" d="M142.5257,-57.4079C145.5605,-56.9192 148.5705,-56.446 151.5,-56 262.5029,-39.1011 393.9811,-22.6999 458.9665,-14.8332"/>
<polygon fill="#191970" stroke="#191970" points="459.6778,-18.2728 469.1865,-13.6001 458.8392,-11.3232 459.6778,-18.2728"/>
</g>
<!-- Node14 -->
<g id="node15" class="node">
<title>Node14</title>
<polygon fill="none" stroke="#bfbfbf" points="59,-.5 59,-19.5 128,-19.5 128,-.5 59,-.5"/>
<text text-anchor="middle" x="93.5" y="-7.5" font-family="Helvetica,sans-Serif" font-size="10.00" fill="#000000">type_traits</text>
</g>
<!-- Node13&#45;&gt;Node14 -->
<g id="edge19" class="edge">
<title>Node13&#45;&gt;Node14</title>
<path fill="none" stroke="#191970" d="M93.5,-56.2455C93.5,-48.9382 93.5,-38.6944 93.5,-29.7046"/>
<polygon fill="#191970" stroke="#191970" points="97.0001,-29.6426 93.5,-19.6427 90.0001,-29.6427 97.0001,-29.6426"/>
</g>
<!-- Node15 -->
<g id="node16" class="node">
<title>Node15</title>
<polygon fill="none" stroke="#bfbfbf" points="146,-.5 146,-19.5 197,-19.5 197,-.5 146,-.5"/>
<text text-anchor="middle" x="171.5" y="-7.5" font-family="Helvetica,sans-Serif" font-size="10.00" fill="#000000">variant</text>
</g>
<!-- Node13&#45;&gt;Node15 -->
<g id="edge20" class="edge">
<title>Node13&#45;&gt;Node15</title>
<path fill="none" stroke="#191970" d="M107.0866,-56.2455C118.8305,-47.814 136.0199,-35.4729 149.6882,-25.6598"/>
<polygon fill="#191970" stroke="#191970" points="151.9871,-28.3179 158.0691,-19.6427 147.9046,-22.6316 151.9871,-28.3179"/>
</g>
<!-- Node16 -->
<g id="node17" class="node">
<title>Node16</title>
<polygon fill="none" stroke="#bfbfbf" points="0,-.5 0,-19.5 41,-19.5 41,-.5 0,-.5"/>
<text text-anchor="middle" x="20.5" y="-7.5" font-family="Helvetica,sans-Serif" font-size="10.00" fill="#000000">tuple</text>
</g>
<!-- Node13&#45;&gt;Node16 -->
<g id="edge21" class="edge">
<title>Node13&#45;&gt;Node16</title>
<path fill="none" stroke="#191970" d="M80.7844,-56.2455C69.898,-47.8943 54.0117,-35.7076 41.28,-25.9408"/>
<polygon fill="#191970" stroke="#191970" points="43.1346,-22.9523 33.0699,-19.6427 38.8739,-28.5063 43.1346,-22.9523"/>
</g>
</g>
</svg>
